<svg xmlns="http://www.w3.org/2000/svg" viewBox="0 0 35.19 27.718" height="104.76" width="133">
    <path style="fill:#c01f14;fill-opacity:1" d="M581.05 734.86c0 11.42-20.77 42.73-20.77 42.73s-20.77-31.31-20.77-42.73c0-11.42 9.35-20.77 20.77-20.77 11.52.11 20.77 9.35 20.77 20.77" class="st2" transform="translate(-130.646 -178.02) scale(.26458)"/>
    <path style="fill:#c01f14" class="st2" d="M493.78 672.83h133v34.58h-133z" transform="translate(-130.646 -178.02) scale(.26458)"/>
    <path style="fill:#fff" d="M512.9 693.89c.75.32 1.53.57 2.35.75.82.18 1.61.27 2.35.27 1.12 0 2.12-.16 3-.48.88-.32 1.57-.81 2.07-1.47.5-.66.76-1.47.76-2.43v-7.92h2.1v8.12c0 1.29-.35 2.38-1.04 3.27-.7.89-1.63 1.56-2.81 2-1.18.44-2.5.66-3.96.66-1.13 0-2.3-.13-3.5-.4-1.2-.27-2.33-.66-3.41-1.18V682.6h2.1v11.29zm3.95-2.6c.15-.53.22-1.15.22-1.86v-6.83h2.11v6.44c0 .79-.1 1.48-.29 2.07-.19.59-.49 1.09-.9 1.5l-1.79-.07c.28-.3.5-.72.65-1.25zm13.94-6.96h-2.52v-1.74h4.68v7.66h-2.17v-5.92zm4.28 12.05v-1.99c.21.03.44.05.68.05 1.12-.03 2.03-.37 2.73-1.02.7-.65 1.15-1.48 1.34-2.5v-6.58h-3.1v-1.74h5.23v7.08c0 .72.07 1.42.22 2.1l.96 4.54h-2.04l-.8-3.85h-.08a4.32 4.32 0 0 1-.78 1.95c-.43.61-.97 1.09-1.64 1.45-.66.36-1.38.54-2.16.54-.26.01-.44 0-.56-.03zm9.7-.08.06-1.69c.5.1 1.07.15 1.7.15.64 0 1.11-.18 1.43-.55.32-.37.48-.93.48-1.69v-8.19h-2.69v-1.74h4.86v10.1c0 1.26-.31 2.22-.93 2.87-.62.66-1.52.99-2.68.99-.72.01-1.46-.08-2.23-.25zm21.64-9.55c0-.75-.22-1.33-.66-1.77-.44-.43-1.04-.65-1.8-.65h-4.61v-1.74h4.68c.94 0 1.75.17 2.44.51.69.34 1.21.83 1.57 1.48.36.65.54 1.42.54 2.32v9.42h-2.16zm15.93 7.92v1.65h-11.28v-1.75h7.46v-6.86c0-1.19-.27-2.05-.8-2.58-.53-.53-1.4-.8-2.59-.8h-3.32v-1.74h3.44c1.79 0 3.15.44 4.06 1.3.91.87 1.37 2.16 1.37 3.87v6.72zm12.28-12.07v8.23c0 1.24-.25 2.29-.76 3.15-.51.86-1.22 1.52-2.14 1.97-.92.45-1.99.67-3.2.67-1.56 0-3.19-.32-4.88-.97l.52-1.61c1.35.52 2.57.82 3.65.89-.58-.67-.96-1.44-1.15-2.32l-2.27-10.01h2.17l2.23 10.13c.1.47.21.87.31 1.2.1.33.24.63.41.9.93-.21 1.66-.65 2.19-1.32s.79-1.53.79-2.6v-8.31zm5.15 5c.08-.64.26-1.24.54-1.8s.62-1 1-1.3c.03-.02.11-.08.23-.16l-.02-.04c-.35.06-.79.16-1.31.3-.52.14-1 .28-1.44.43l-.5-1.63c.9-.31 1.91-.56 3.03-.76 1.12-.19 2.15-.29 3.09-.29 1.85 0 3.26.49 4.24 1.47.98.98 1.47 2.43 1.47 4.33v8.18h-5.65v-1.74h3.5v-6.69c0-1.22-.28-2.15-.83-2.79-.55-.64-1.35-.96-2.4-.96-.75 0-1.38.29-1.89.87-.51.58-.82 1.37-.93 2.36l-1.04 8.94h-2.13z" class="st8" transform="translate(-130.646 -178.02) scale(.26458)"/>
</svg>
