<svg width="188.942" height="206.585" viewBox="0 0 49.99 54.658" xmlns="http://www.w3.org/2000/svg">
    <path d="M117.248 144.648c0 3.066-5.605 11.546-5.605 11.546s-5.606-8.48-5.606-11.546c0-3.067 2.515-5.606 5.606-5.606a5.597 5.597 0 0 1 5.605 5.606z" fill="#f64a3f" style="stroke-width:.26458;fill:#c01f14;fill-opacity:1" transform="translate(-86.647 -101.536)"/>
    <path d="M113.062 143.656a6.405 6.405 0 0 1-.719-.431c.144-.192.432-.575.36-.863a.527.527 0 0 0-.144-.287c-.048-.048-.144-.048-.191-.048-.144 0-.36.144-.504.192v-.144c.048-.36.192-.647.504-.647a.73.73 0 0 1 .718.647c.216.479.12.982-.024 1.58zm-.934-.67c-.048-.144-.144-.288-.192-.432.048-.192.192-.36.36-.36h.047c.048 0 .048.049.048.144.12.216-.12.432-.263.647zm-.335.287-.192.143.048-.287c0-.048.048-.192.144-.36.048.048.143.192.191.288-.143.144-.191.216-.191.216zm2.778 2.371c0-.048-.503-1.413-1.15-1.796-.047 0-.047-.048-.143-.048.191-.647.287-1.222.144-1.725-.144-.503-.575-.862-1.007-.79-.359 0-.647.359-.718.79v.431c-.048.144-.144.192-.144.288l-3.378 5.318c0 .048-.048.048 0 .143v.048h.048c.048 0 .048-.048.144-.048l3.88-4.815c.192.192.576.36.791.503-.143.36-.287.791-.431 1.222-.503 1.222-.287 2.228.048 2.444h.048s.048 0 .048-.048v-.144c-.288-.144-.503-1.078 0-2.156.191-.431.36-.862.43-1.222 0 0 .049 0 .049.048.575.288 1.078 1.653 1.078 1.653 0 .048.048.048.144.048.072-.072.12-.144.12-.144z" fill="#fff" style="stroke-width:.26458" transform="translate(-86.647 -101.536)"/>
    <path fill="#f64a3f" style="stroke-width:.26458;fill:#c01f14;fill-opacity:1" d="M86.647 101.536h45.883v34.132H86.647z" transform="translate(-86.647 -101.536)"/>
    <path d="m92.583 108.496-.075-.726h.893l.075.726v.967l-.007.39-.886.156zm1.604 0-.074-.726h.893l.074.726v.967l-.006.39-.887.156zm4.116-.726v.738l-1.116 2.803h-.893l1.11-2.871h-1.798v-1.575h.806v.905zm.528 2.871h1.252c.24 0 .426-.076.558-.23.136-.156.205-.371.205-.644v-.459c0-.26-.06-.469-.18-.626-.116-.161-.287-.242-.515-.242h-.446l-.112.527a.686.686 0 0 0-.018.155c0 .103.03.184.092.242a.678.678 0 0 0 .304.124l-.142.558c-.368-.008-.635-.09-.8-.248-.165-.157-.248-.37-.248-.639 0-.099.008-.19.025-.273l.248-1.116h1.308c.43 0 .767.143 1.01.428.245.285.367.67.367 1.154v.372c0 .496-.13.884-.391 1.165-.26.281-.612.422-1.054.422H98.83zm6.576-1.376c.025.727-.203 1.254-.682 1.58-.48.323-1.178.499-2.096.528l-.34-2.933-.088-.67h1.904c.405 0 .719.116.942.348.223.227.341.541.354.942zm-1.997 1.314c.294-.02.521-.08.682-.18a.792.792 0 0 0 .341-.428c.066-.186.095-.427.087-.725v-.186c0-.19-.043-.341-.13-.452a.424.424 0 0 0-.354-.168h-.855zm2.676-2.083-.075-.726h.893l.075.726v2.815h-.893zm2.745 2.151c.281-.024.49-.12.626-.285.137-.165.22-.446.248-.843l.081-1.079h-2.158v-.67h3.119l-.031.577-.068.936c-.066 1.344-.65 2.022-1.749 2.034zm-1.252-1.066.123-.428h.776v3.398h-.9zm6.92-1.81c.33 0 .59.094.78.285.195.186.292.479.292.88v2.375h-3.032v-3.54h.893zm.173 2.87v-1.748c0-.302-.138-.453-.415-.453h-.825v2.201zm3.508-2.87c.33 0 .591.099.781.297.195.198.292.498.292.9v2.343h-.9v-2.387c0-.323-.138-.484-.415-.484h-.83v2.87h-.893v-3.54zm1.499 3.038a.921.921 0 0 0 .353-.094.35.35 0 0 0 .162-.186c.029-.082.04-.198.037-.347v-2.412h1.879c.33 0 .59.095.78.286.19.186.286.48.286.88v2.375h-.893v-2.418c0-.302-.14-.453-.422-.453h-.731v1.625c0 .314-.05.564-.15.75a.928.928 0 0 1-.44.421c-.194.091-.456.151-.787.18zm7.563-1.265c0 .574-.134 1.027-.403 1.357-.265.327-.639.49-1.122.49-.174 0-.364-.024-.57-.074l.08-.67c.153.033.28.05.384.05.281 0 .482-.093.602-.279.12-.19.18-.47.18-.837 0-.41-.058-.705-.174-.887-.112-.186-.285-.279-.52-.279a.626.626 0 0 0-.423.15.67.67 0 0 0-.21.402l-.385 2.344h-.893l.428-2.387-.496-1.154h.93l.248.707c.087-.256.217-.446.39-.57a.977.977 0 0 1 .596-.192c.442 0 .78.152 1.01.458.232.302.348.759.348 1.37zm-26.372 5.977-.055-.5h.325l.06.5v.638l-.004.27-.326.068zm.958 0-.056-.5h.325l.06.5v.638l-.004.27-.325.068zm2.464-.5v.277l-.826 2.098h-.33l.826-2.115h-1.327v-.955h.304v.694zm.52 2.114h.703c.222 0 .4-.061.53-.184.135-.126.202-.331.202-.617v-.26c0-.26-.05-.457-.15-.592-.1-.134-.251-.2-.454-.2h-.45l-.11.474a1.03 1.03 0 0 0-.026.215c0 .097.025.172.077.226a.5.5 0 0 0 .265.116l-.068.227c-.2-.02-.346-.076-.437-.167a.547.547 0 0 1-.133-.39c0-.08.009-.164.026-.252l.162-.71h.75c.277 0 .49.09.642.273.154.183.233.445.235.788v.24c0 .37-.092.643-.278.817-.186.172-.428.257-.728.257h-.757zm4.188-1.113c.028.893-.537 1.366-1.696 1.417l-.26-2.158-.03-.26h1.168c.251 0 .447.077.586.235.143.154.219.365.227.633zm-1.404 1.113c.339-.032.607-.13.804-.295.197-.166.287-.441.27-.827v-.103a.715.715 0 0 0-.137-.453.444.444 0 0 0-.377-.176h-.783zm1.962-1.614-.056-.5h.326l.06.5v1.875h-.33zm1.565 1.614c.152-.017.279-.053.381-.107a.627.627 0 0 0 .257-.283c.069-.134.112-.322.129-.565l.072-.899h-1.54v-.26h1.892l-.013.235-.069.86c-.02.414-.125.728-.317.942-.188.214-.44.327-.757.338zm-.693-.955.047-.291h.283v2.363h-.33zm3.292-.659-.055-.5h.325l.06.5v2.731h-.33zm.958 0-.056-.5h.325l.06.5v1.875h-.33zm1.565 1.614c.151-.017.278-.053.38-.107a.626.626 0 0 0 .258-.283c.068-.134.111-.322.128-.565l.073-.899h-1.541v-.26h1.892l-.013.235-.068.86c-.02.414-.126.728-.317.942-.188.214-.441.327-.758.338zm-.694-.955.048-.291h.282v2.363h-.33zm2.436-.659-.056-.5h.325l.06.5v.638l-.004.27-.325.068zm.663 1.7c.168-.015.284-.062.347-.142.065-.082.098-.207.098-.372v-1.687h1.049c.48 0 .72.266.72.796v1.58h-.33v-1.592c0-.186-.04-.319-.12-.399-.08-.082-.194-.124-.343-.124h-.646v1.392c0 .25-.059.44-.176.565-.117.122-.305.195-.565.218zm5.71-.446a.452.452 0 0 1-.33-.14.51.51 0 0 1-.137-.365.5.5 0 0 1 .137-.364.452.452 0 0 1 .659 0 .5.5 0 0 1 .137.364.51.51 0 0 1-.137.364.442.442 0 0 1-.33.141zm-18.684 3.801c.48 0 .719.266.719.796v1.58h-1.87v-2.376h.329zm.39 2.115v-1.331c0-.186-.04-.319-.12-.398-.08-.083-.195-.125-.343-.125h-.75v1.854zm.954-1.614-.055-.5h.325l.06.5v1.875h-.33zm2.465-.5v.277l-.827 2.098h-.33l.827-2.115h-1.327v-.954h.304v.693zm.529.5-.056-.5h.325l.06.5v.638l-.004.27-.325.068zm2.631 1.875h-1.841v-.26h1.349l-1.263-2.116h.342l.608 1.023.437-1.023h.334l-.59 1.323zm1.155-.175c.169-.014.284-.062.347-.141.066-.083.098-.207.098-.373v-1.687h1.05c.479 0 .719.266.719.796v1.58h-.33v-1.592c0-.186-.04-.319-.12-.398-.08-.083-.194-.125-.342-.125h-.647v1.392c0 .251-.058.44-.176.565-.116.123-.305.195-.564.218zm2.704-.086h.744v-1.425c0-.14-.028-.243-.085-.309a.375.375 0 0 0-.248-.128l-.287-.043.047-.257.372.056c.172.028.303.1.394.214.092.111.137.264.137.458v1.695h-1.074zm1.704-1.614-.055-.5h.325l.06.5v.638l-.004.27-.325.068zm.95 1.614h.701c.223 0 .4-.061.531-.184.134-.125.201-.331.201-.616v-.262c0-.26-.05-.456-.15-.59-.1-.135-.25-.201-.453-.201h-.45l-.111.475a1.05 1.05 0 0 0-.026.214c0 .097.026.172.077.226a.5.5 0 0 0 .266.116l-.069.227c-.2-.02-.345-.076-.437-.167a.547.547 0 0 1-.132-.39c0-.08.008-.164.025-.252l.163-.71h.75c.276 0 .49.09.642.273.154.183.232.445.235.788v.24c0 .37-.093.643-.278.817-.186.172-.428.257-.728.257h-.758zm5.201-.36a.452.452 0 0 1-.33-.14.51.51 0 0 1-.136-.364.5.5 0 0 1 .137-.365.452.452 0 0 1 .659 0 .5.5 0 0 1 .137.365.51.51 0 0 1-.137.363.442.442 0 0 1-.33.142zm-25.554 4.302-.056-.5h.326l.06.5v.638l-.005.27-.325.068zm.957 0-.055-.5h.325l.06.5v.638l-.005.27-.325.068zm.958 0-.056-.5h.325l.06.5v1.875h-.33zm.957 0-.055-.5h.325l.06.5v1.875h-.33zm.83 1.614h.744v-1.425c0-.14-.028-.243-.086-.308a.375.375 0 0 0-.248-.129l-.287-.043.047-.257.373.056c.171.029.302.1.394.214.091.111.137.264.137.458v1.696h-1.075zm3.258.261-.972-1.46-.458 1.46h-.317l.467-1.472.115-.283-.393-.62h.338l.38.599.403.595.098-.355.257-.84h.322l-.484 1.486.603.89zm1.903-1.592c0-.185-.04-.318-.12-.398-.08-.083-.194-.124-.342-.124h-.758v-.261h.83c.48 0 .72.265.72.796v1.58h-.33zm1.819-.283-.056-.5h.326l.06.5v.638l-.004.27-.326.068zm.958 0-.056-.5h.325l.06.5v.638l-.004.27-.325.068zm2.464-.5v.278l-.826 2.097h-.33l.826-2.114h-1.327v-.955h.304v.694zm.52 2.114h.702c.223 0 .4-.061.531-.184.135-.125.202-.33.202-.616v-.261c0-.26-.05-.457-.15-.591-.1-.134-.252-.201-.454-.201h-.45l-.11.475a1.03 1.03 0 0 0-.027.214.32.32 0 0 0 .077.227.5.5 0 0 0 .266.115l-.069.227c-.2-.02-.345-.075-.436-.167a.546.546 0 0 1-.133-.39c0-.08.009-.163.026-.252l.162-.71h.75c.276 0 .49.09.642.273.154.183.232.446.235.788v.24c0 .371-.093.643-.278.818-.186.171-.428.256-.728.256h-.758zm4.188-1.113c.028.893-.537 1.366-1.696 1.417l-.261-2.157-.03-.261h1.169c.25 0 .446.078.586.235.143.154.219.365.227.633zm-1.405 1.113c.34-.031.608-.13.805-.295.197-.166.287-.441.27-.826v-.103a.716.716 0 0 0-.137-.454.444.444 0 0 0-.377-.175h-.783zm1.963-1.614-.056-.5h.326l.06.5v1.875h-.33zm1.565 1.614c.151-.017.278-.052.381-.107a.627.627 0 0 0 .257-.282c.069-.134.111-.323.129-.565l.072-.9h-1.54v-.26h1.891l-.013.235-.068.86c-.02.414-.126.728-.317.942-.188.214-.44.327-.758.338zm-.693-.954.047-.292h.282v2.364h-.33zm5.312.595a.452.452 0 0 1-.33-.142.51.51 0 0 1-.136-.363.5.5 0 0 1 .137-.364.452.452 0 0 1 .659 0 .5.5 0 0 1 .137.364.51.51 0 0 1-.137.363.442.442 0 0 1-.33.142z" fill="#fff" style="stroke-width:.26458" transform="translate(-86.647 -101.536)"/>
</svg>
