<svg width="93.95" height="131.35" viewBox="0 0 24.857 34.753" xmlns="http://www.w3.org/2000/svg">
    <path d="M138.923 131.05c0 2.234-4.035 8.409-4.035 8.409s-4.037-6.127-4.037-8.409a4.03 4.03 0 0 1 4.037-4.036 4.03 4.03 0 0 1 4.035 4.036zm-16.465-26.344h24.237v18.891h-24.237z" fill="#f64a3f" style="stroke-width:.26458" transform="translate(-122.458 -104.706)"/>
    <path d="M130.718 111.628v.672h-2.955v-.672h1.643v-1.753c0-.303-.143-.454-.423-.454h-1.22v-.672h1.468c.331 0 .593.095.783.286.191.187.286.481.286.883v1.71zm2.493-2.879c.33 0 .592.1.783.299.196.199.293.5.293.901v2.35h-.902v-2.393c0-.324-.14-.485-.418-.485h-.833v2.879h-.895v-3.551zm3.193 1.126c0-.303-.138-.454-.415-.454h-1.212v-.672h1.455c.33 0 .593.095.783.286.193.187.291.481.291.883v2.382h-.902zm4.985.653c0 .576-.135 1.03-.405 1.361-.265.328-.64.492-1.125.492-.174 0-.365-.025-.574-.075l.082-.672c.154.034.28.05.387.05.28 0 .481-.093.603-.28.119-.19.18-.47.18-.84 0-.41-.058-.706-.175-.888-.111-.187-.286-.28-.524-.28a.626.626 0 0 0-.42.149.664.664 0 0 0-.212.404l-.386 2.35h-.895l.429-2.393-.497-1.157h.93l.25.709c.087-.257.22-.448.391-.572a.98.98 0 0 1 .598-.193c.445 0 .78.153 1.013.46.233.303.35.76.35 1.374zm-11.353 7.15-.074-.727h.894l.074.728v4.066h-.894zm2.76 2.824-.112-.666a1.795 1.795 0 0 1-.984.784l-.328-.709c.58-.182.973-.473 1.18-.87v-1.014c0-.15-.021-.255-.069-.317-.045-.062-.122-.102-.23-.118l-.392-.056.114-.66.733.1c.251.033.44.128.558.286.122.153.183.375.183.665v1.182l.198 1.393zm1.483-2.823-.074-.728h.895l.076.728v2.823h-.897zm4.98 1.05c0 .577-.135 1.03-.405 1.362-.265.328-.64.492-1.124.492-.175 0-.366-.025-.572-.075l.08-.672c.153.034.283.05.386.05.283 0 .484-.093.603-.28.12-.19.18-.47.18-.84 0-.41-.058-.706-.175-.888-.11-.187-.285-.28-.52-.28a.628.628 0 0 0-.424.149.677.677 0 0 0-.212.404l-.384 2.35h-.896l.428-2.393-.497-1.157h.934l.248.709c.088-.257.217-.448.392-.572a.979.979 0 0 1 .595-.193c.445 0 .783.153 1.016.46.23.303.347.76.347 1.374z" fill="#fff" style="stroke-width:.26458" transform="translate(-122.458 -104.706)"/>
</svg>
