<svg width="135.61" height="92.439" viewBox="0 0 35.88 24.458" xmlns="http://www.w3.org/2000/svg">
    <path fill="#f64a3f" style="stroke-width:.26458;fill:#c01f14;fill-opacity:1" d="M109.141 113.067h35.878v10.689h-35.878z" transform="translate(-109.141 -113.067)"/>
    <path d="M117.613 118.608c.024.73-.204 1.258-.685 1.586-.482.323-1.18.5-2.101.528l-.342-2.941-.087-.672h1.908c.407 0 .722.116.944.349.225.228.344.543.355.945zm-2.003 1.318c.294-.02.521-.08.683-.18a.8.8 0 0 0 .344-.429c.066-.187.095-.43.087-.728v-.186a.723.723 0 0 0-.132-.454.424.424 0 0 0-.355-.168h-.857zm2.683-2.09-.074-.727h.894l.074.728v2.823h-.894zm4.127-.727v.74l-1.119 2.811h-.894l1.111-2.88h-1.802v-1.578h.807v.907zm.53 2.88h1.256c.24 0 .426-.077.558-.23.138-.158.207-.374.207-.647v-.46c0-.262-.061-.471-.18-.629-.117-.161-.289-.242-.516-.242h-.45l-.111.528a.651.651 0 0 0-.018.156.32.32 0 0 0 .092.242.685.685 0 0 0 .304.125l-.142.56c-.368-.008-.635-.092-.802-.25-.164-.157-.249-.37-.249-.64 0-.1.008-.19.027-.273l.248-1.12h1.31c.431 0 .77.143 1.016.43.243.285.365.671.365 1.156v.373c0 .498-.13.887-.392 1.17-.261.281-.613.422-1.055.422h-1.469zm4.487.167a.904.904 0 0 0 .354-.093.355.355 0 0 0 .164-.186c.03-.083.04-.2.037-.349v-2.419h1.884c.33 0 .593.096.783.286.19.187.286.481.286.884v2.381h-.894v-2.425c0-.303-.143-.454-.424-.454h-.735v1.63c0 .314-.048.565-.148.752a.933.933 0 0 1-.442.422c-.193.092-.458.152-.789.18zm4.167-.168h1.254c.24 0 .429-.076.56-.23.138-.157.205-.373.205-.646v-.46c0-.262-.059-.471-.18-.629-.117-.161-.289-.242-.516-.242h-.447l-.112.528a.651.651 0 0 0-.018.156c0 .103.029.184.093.242.06.054.164.096.304.125l-.143.56c-.368-.008-.635-.092-.802-.25-.166-.157-.248-.37-.248-.64 0-.1.008-.19.023-.273l.249-1.12h1.312c.432 0 .77.143 1.014.43.246.285.367.671.367 1.156v.373c0 .498-.13.887-.391 1.17-.262.281-.614.422-1.058.422h-1.466zm3.51-2.151-.073-.728h.894l.074.728v2.823h-.894zm2.752 2.158c.284-.025.493-.12.63-.286.135-.166.22-.448.249-.846l.08-1.082h-2.165v-.672h3.13l-.032.579-.069.939c-.066 1.347-.65 2.027-1.754 2.04zm-1.254-1.07.125-.429h.775v3.408h-.9z" fill="#fff" style="stroke-width:.26458" transform="translate(-109.141 -113.067)"/>
    <path d="M131.117 129.115c0 2.235-4.038 8.409-4.038 8.409s-4.034-6.127-4.034-8.409a4.03 4.03 0 0 1 4.034-4.036 4.03 4.03 0 0 1 4.038 4.036z" fill="#f64a3f" style="stroke-width:.26458;fill:#c01f14;fill-opacity:1" transform="translate(-109.141 -113.067)"/>
</svg>
