<svg width="1805.652" height="1081.338" viewBox="0 0 1805.652 1081.338" fill="none" xmlns="http://www.w3.org/2000/svg">
    <path d="m828.714 1071.208 966.938-581.718L981.542 10 10.746 583.273Z" fill="#fcd8ff"/>
    <path d="M543.542 274.982v-87.824l813.86 474.77v91.674l-328.76-193.286 1.12-70.682-66.772-35.899-1.993 66.83L773.012 410.01l1.12-67.203-66.648-40.372-1.993 67.825z" fill="#a94bb0"/>
    <path d="m401.294 818.423-2.866-54.657 548.385-305.085-2.491 55.651z" fill="#a94bb0"/>
    <path d="m723.449 818.426-240.93 148.195-48.461-29.813 549.399-338.613 106.085 61-281.257 167.182 1.745 2.857 282.102-168.575 153.47 86.706-244.722 137.147-78.732-50.682 180.684-115.338-2.94-2.333-180.235 115.186-91.564 57.39-110.873-62.607 282.322-173.143-2.93-1.77zm90.191-301.979-159.332-96.892-46.717 27.08 108.88 65.215-51.574 29.068-257.5-151.797-96.173 55.402L571.09 599.177l-3.862 2.236-258.496-155.399-97.42 56.147 256.13 152.17-1.744 2.981L208.075 504.15l-98.041 56.272 141.269 85.96-141.27 77.39 53.444 32.918 186.49-106.83-152.107-88.196 1.744-2.982 266.718 155.027 198.575-112.792L400.42 447.008l1.744-2.982 265.846 154.78zM560.75 657.312l-263.976-155.15 1.744-2.982 263.977 155.151z" fill="#e498e9"/>
    <path d="M509.799 791.84v90.928l-268.96-158.877v-95.029zM181.915 592.713v90.93L10 585.756v-95.029z" fill="#a94bb0"/>
    <path d="M543.436 274.833v-87.947L10.872 491.722v91.674z" fill="#a94bb0"/>
    <path d="m998.013 807.987-21.427 14.286 4.609 3.23 7.973-4.472 8.845 20-31.518-6.212 7.1-4.348-12.581-8.198 30.272-18.758zm-786.2-111.329-13.952 20.993-7.973-4.844-21.677 15.154-8.97-5.589 24.169-14.037-6.478-4.969z" fill="#61595c"/>
    <path d="m865.216 300.055-92.311-50.557 56.682-25.838 96.796 48.57zm-217.324 30.108-92.311-50.557 30.646-13.913 89.57 50.806z" fill="#fcf0ca" stroke="#c6a84d" stroke-width="5.978" stroke-miterlimit="10"/>
    <path d="m647.893 330.165-2.118 40.247-91.688-53.91 1.495-37.019z" fill="#fcf0ca" stroke="#c6a84d" stroke-width="5.978" stroke-miterlimit="10"/>
    <path d="m645.775 370.41 2.118-40.249 28.528-13.167-.623 37.64zm216.388 94.158-92.311-50.558 30.645-13.913 89.57 50.807z" fill="#fcf0ca" stroke="#c6a84d" stroke-width="5.978" stroke-miterlimit="10"/>
    <path d="m862.162 464.57-2.117 40.248-91.688-53.912 1.495-37.018z" fill="#fcf0ca" stroke="#c6a84d" stroke-width="5.978" stroke-miterlimit="10"/>
    <path d="m860.045 504.814 2.118-40.247L890.69 451.4l-.623 37.64zm309.307 122.814-92.32-50.557 30.65-13.913 89.57 50.806z" fill="#fcf0ca" stroke="#c6a84d" stroke-width="5.978" stroke-miterlimit="10"/>
    <path d="m1169.352 627.631-2.12 40.247-91.69-53.91 1.49-37.019z" fill="#fcf0ca" stroke="#c6a84d" stroke-width="5.978" stroke-miterlimit="10"/>
    <path d="m1167.232 667.874 2.12-40.247 28.52-13.167-.62 37.638zM764.348 927.628l-92.311-50.557 30.646-13.913 89.57 50.806z" fill="#fcf0ca" stroke="#c6a84d" stroke-width="5.978" stroke-miterlimit="10"/>
    <path d="m764.348 927.631-2.118 40.247-91.688-53.91 1.495-37.019z" fill="#fcf0ca" stroke="#c6a84d" stroke-width="5.978" stroke-miterlimit="10"/>
    <path d="m762.23 967.874 2.118-40.247 28.528-13.167-.623 37.638zm102.986-667.697-2.118 40.247-91.688-53.787 1.495-37.018zm-2.118 40.249 2.118-40.247 61.167-27.95-.5 34.161z" fill="#fcf0ca" stroke="#c6a84d" stroke-width="5.978" stroke-miterlimit="10"/>
    <path d="m519.143 927.98 13.454-20.622-33.386 6.832 5.73 4.348-22.3 12.67 7.725 5.342 21.302-14.037z" fill="#61595c"/>
    <path d="m874.995 960.83-35.13-20.497 82.718-45.34 32.515 22.235zm0 0-35.13-20.496.373 35.278 32.888 22.36z" fill="#fcf0ca" stroke="#c6a84d" stroke-width="5.978" stroke-miterlimit="10"/>
    <path d="m873.25 997.973 1.744-37.14 80.102-43.603-.25 32.92zm325.142-235.4-35.75-19.254 81.1-48.197 33.26 21.117z" fill="#fcf0ca" stroke="#c6a84d" stroke-width="5.978" stroke-miterlimit="10"/>
    <path d="m1198.392 762.571-35.75-19.254 1.62 35.154 33.63 21.118zm-.5 37.144.5-37.142 78.61-46.334 1 32.918z" fill="#fcf0ca" stroke="#c6a84d" stroke-width="5.978" stroke-miterlimit="10"/>
    <path d="m1096.492 825.924-35.75-19.254 81.1-48.198 33.26 21.118z" fill="#fcf0ca" stroke="#c6a84d" stroke-width="5.978" stroke-miterlimit="10"/>
    <path d="m1096.492 825.923-35.75-19.254 1.62 35.154 33.63 21.117zm-.5 37.143.5-37.142 78.61-46.334.99 32.918zm-106.013 28.945-35.754-19.254 1.62 35.154 33.636 21.117z" fill="#fcf0ca" stroke="#c6a84d" stroke-width="5.978" stroke-miterlimit="10"/>
    <path d="m989.979 892.011-35.754-19.254 81.097-48.198 33.26 21.118z" fill="#fcf0ca" stroke="#c6a84d" stroke-width="5.978" stroke-miterlimit="10"/>
    <path d="m989.48 929.153.499-37.142 78.603-46.334 1 32.918z" fill="#fcf0ca" stroke="#c6a84d" stroke-width="5.978" stroke-miterlimit="10"/>
    <path d="M829.587 980.405v90.933l528.705-317.013V662.65z" fill="#a94bb0"/>
    <path d="m1225.612 341.17-93.43-51.179 1.62 35.28 91.31 53.165z" fill="#fcf0ca" stroke="#c6a84d" stroke-width="5.978" stroke-miterlimit="10"/>
    <path d="m1225.112 378.311.5-37.142 154.1-94.656v36.024zm154.48-131.921-34.26-18.012-128.94 77.513-53.44-29.316-30.64 13.913 92.31 50.557.49-.248.5.248 25.91-15.9z" fill="#fcf0ca" stroke="#c6a84d" stroke-width="5.978" stroke-miterlimit="10"/>
    <path d="M828.59 979.661v90.927l-244.917-142.85v-95.029z" fill="#a94bb0"/>
</svg>
