<svg width="1617" height="1000" viewBox="0 0 1617 1000" fill="none" xmlns="http://www.w3.org/2000/svg">
    <g clip-path="url(#a)">
        <path d="m831.172 987.052 773.368-459.988-814.104-479.49L13.205 499.115l817.967 487.937Z" fill="#FCD8FF"/>
        <path d="M546 190.824V103l813.86 474.77v91.674L1031.1 476.158l1.12-70.682-66.772-35.899-1.993 66.83L775.47 325.851l1.121-67.203-66.649-40.372-1.993 67.825L546 190.824Z" fill="#A94BB0"/>
        <path d="m403.752 734.265-2.866-54.657 548.385-305.085-2.491 55.651-543.028 304.091Z" fill="#A94BB0"/>
        <path d="M725.907 734.267 484.976 882.462l-48.46-29.813 583.264-345.208 89.45 50.558-298.487 184.219 1.745 2.857 299.232-185.71 153.48 86.706-261.86 154.282-78.734-50.682 196.334-125.338-1.87-2.857-196.955 125.71-91.564 57.39-110.873-62.607 290.632-177.883-1.74-2.857-282.663 173.038Zm90.192-301.978-159.333-96.892-46.717 27.08 108.88 65.215-51.574 29.068-257.5-151.797-96.173 55.402 259.867 154.654-3.862 2.236-258.496-155.399-97.419 56.147 256.129 152.17-1.744 2.981-257.624-153.163-98.041 56.272 141.269 85.96-141.269 77.389 53.443 32.919 186.491-106.83-152.108-88.196 1.744-2.982L468.78 629.55l198.575-112.792L402.879 362.85l1.744-2.982 265.846 154.779 145.63-82.358Zm-252.89 140.865L299.232 418.003l1.744-2.981 263.977 155.151-1.744 2.981Z" fill="#E498E9"/>
        <path d="M512.257 707.681v90.929l-268.96-158.877v-95.029l268.96 162.977Zm318.791 187.822v90.929L586.131 843.579v-95.028l244.917 146.952ZM184.373 508.555v90.929L12.458 501.599V406.57l171.915 101.985Z" fill="#A94BB0"/>
        <path d="M545.894 190.675v-87.947L13.33 407.564v91.674l532.564-308.563Z" fill="#A94BB0"/>
        <path d="m1000.47 723.829-21.426 14.286 4.609 3.229 7.973-4.471 8.844 19.999-31.517-6.211 7.101-4.348-12.582-8.198 30.272-18.758 6.726 4.472ZM214.271 612.5l-13.952 20.993-7.973-4.844-21.676 15.154-8.97-5.589 24.168-14.037-6.478-4.969 34.881-6.708Z" fill="#61595C"/>
        <path d="m867.674 215.897-92.311-50.557 56.682-25.838 96.796 48.57-61.167 27.825ZM650.35 246.005l-92.311-50.557 30.646-13.913 89.571 50.806-27.906 13.664Z" fill="#FCF0CA" stroke="#C6A84D" stroke-width="5.978" stroke-miterlimit="10"/>
        <path d="m650.351 246.007-2.118 40.247-91.688-53.911 1.495-37.018 92.311 50.682Z" fill="#FCF0CA" stroke="#C6A84D" stroke-width="5.978" stroke-miterlimit="10"/>
        <path d="m648.233 286.251 2.118-40.248 28.528-13.167-.623 37.639-30.023 15.776Zm216.388 94.159-92.311-50.558 30.645-13.913 89.571 50.807-27.905 13.664Z" fill="#FCF0CA" stroke="#C6A84D" stroke-width="5.978" stroke-miterlimit="10"/>
        <path d="m864.62 380.412-2.117 40.248-91.688-53.912 1.495-37.018 92.31 50.682Z" fill="#FCF0CA" stroke="#C6A84D" stroke-width="5.978" stroke-miterlimit="10"/>
        <path d="m862.503 420.656 2.118-40.247 28.528-13.168-.623 37.639-30.023 15.776Zm5.171-204.637-2.118 40.247-91.688-53.787 1.495-37.018 92.311 50.558Zm-2.118 40.249 2.118-40.247 61.167-27.95-.499 34.161-62.786 34.036Z" fill="#FCF0CA" stroke="#C6A84D" stroke-width="5.978" stroke-miterlimit="10"/>
        <path d="m521.601 843.821 13.454-20.621-33.386 6.832 5.73 4.348-22.299 12.67 7.724 5.342 21.302-14.037 7.475 5.466Z" fill="#61595C"/>
        <path d="m877.453 876.672-35.13-20.497 82.718-45.34 32.515 22.235-80.103 43.602Z" fill="#FCF0CA" stroke="#C6A84D" stroke-width="5.978" stroke-miterlimit="10"/>
        <path d="m877.453 876.672-35.13-20.496.373 35.278 32.888 22.36 1.869-37.142Z" fill="#FCF0CA" stroke="#C6A84D" stroke-width="5.978" stroke-miterlimit="10"/>
        <path d="m875.708 913.815 1.744-37.141 80.102-43.602-.249 32.919-81.597 47.824Zm325.142-235.4-35.75-19.254 81.1-48.197 33.26 21.117-78.61 46.334Z" fill="#FCF0CA" stroke="#C6A84D" stroke-width="5.978" stroke-miterlimit="10"/>
        <path d="m1200.85 678.413-35.75-19.254 1.62 35.154 33.63 21.118.5-37.018Zm-.5 37.144.5-37.142 78.61-46.334 1 32.918-80.11 50.558Z" fill="#FCF0CA" stroke="#C6A84D" stroke-width="5.978" stroke-miterlimit="10"/>
        <path d="m1098.95 741.766-35.75-19.254 81.1-48.198 33.26 21.118-78.61 46.334Z" fill="#FCF0CA" stroke="#C6A84D" stroke-width="5.978" stroke-miterlimit="10"/>
        <path d="m1098.95 741.765-35.75-19.254 1.62 35.154 33.63 21.117.5-37.017Zm-.5 37.143.5-37.142 78.61-46.334.99 32.918-80.1 50.558Zm-106.013 28.945-35.754-19.254 1.62 35.154 33.636 21.117.498-37.017Z" fill="#FCF0CA" stroke="#C6A84D" stroke-width="5.978" stroke-miterlimit="10"/>
        <path d="m992.437 807.853-35.754-19.254 81.097-48.198 33.26 21.118-78.603 46.334Z" fill="#FCF0CA" stroke="#C6A84D" stroke-width="5.978" stroke-miterlimit="10"/>
        <path d="m991.939 844.995.498-37.142 78.603-46.334 1 32.918-80.101 50.558Z" fill="#FCF0CA" stroke="#C6A84D" stroke-width="5.978" stroke-miterlimit="10"/>
        <path d="M832.045 896.247v90.93l528.705-317.01v-91.675L832.045 896.247Z" fill="#A94BB0"/>
        <path d="m1228.07 257.012-93.43-51.179 1.62 35.279 91.31 53.166.5-37.266Z" fill="#FCF0CA" stroke="#C6A84D" stroke-width="5.978" stroke-miterlimit="10"/>
        <path d="m1227.57 294.153.5-37.142 154.1-94.656v36.024l-154.6 95.774Zm154.48-131.921-34.26-18.012-128.94 77.513-53.44-29.316-30.64 13.913 92.31 50.557.49-.248.5.248 25.91-15.9 128.07-78.755Z" fill="#FCF0CA" stroke="#C6A84D" stroke-width="5.978" stroke-miterlimit="10"/>
    </g>
    <defs>
        <clipPath id="a">
            <path fill="#fff" d="M0 0h1617v999.6H0z"/>
        </clipPath>
    </defs>
</svg>
