<svg width="113.759" height="123.67" viewBox="0 0 30.098 32.721" xmlns="http://www.w3.org/2000/svg">
    <path d="M138.468 131.006c0 3.7-6.727 13.862-6.727 13.862s-6.727-10.162-6.727-13.862c0-3.7 3.027-6.727 6.727-6.727s6.727 3.003 6.727 6.727z" fill="#f64a3f" style="stroke-width:.26458" transform="translate(-116.692 -112.148)"/>
    <path d="M134.415 131.411v-.84h1.679v.84zm.478 3.218-1.376-.956.49-.688 1.376.956zm-.898-5.631-.478-.688 1.376-.956.478.688zm-5.736 5.352v-2.24h-.28a.81.81 0 0 1-.595-.244.81.81 0 0 1-.245-.595v-.56a.81.81 0 0 1 .245-.594.81.81 0 0 1 .595-.245h1.62l2.577-1.539v5.317l-2.506-1.54h-.292v2.24zm4.477-1.994v-2.729c.179.171.317.377.414.618a1.98 1.98 0 0 1 0 1.493 1.749 1.749 0 0 1-.414.618z" fill="#fff" style="stroke-width:.26458" transform="translate(-116.692 -112.148)"/>
    <path fill="#f64a3f" style="stroke-width:.26458" d="M116.692 112.148h30.058v10.689h-30.058z" transform="translate(-116.692 -112.148)"/>
    <path d="M121.913 119.25c.431-.41.758-.734.983-.97a4.37 4.37 0 0 0 .547-.678c.136-.216.205-.415.205-.597 0-.195-.052-.346-.156-.454-.103-.112-.248-.168-.435-.168a.678.678 0 0 0-.373.112 1.866 1.866 0 0 0-.348.299l-.467-.46c.2-.212.398-.367.597-.467a1.54 1.54 0 0 1 .71-.155c.385 0 .696.114.932.342.236.224.354.524.354.901 0 .307-.114.626-.341.958a9.94 9.94 0 0 1-.983 1.157c.24-.03.462-.044.665-.044h.852v.715h-2.742zm7.161-3.06v.74l-1.12 2.811h-.895l1.114-2.879h-1.804v-1.58h.808v.908zm.579.728-.075-.728h.896l.074.728v2.823h-.895zm1.41 2.152h.995c.24 0 .417-.08.529-.237.116-.157.174-.369.174-.634v-.466c0-.266-.058-.477-.174-.635-.112-.157-.289-.236-.53-.236h-.994v-.672h1.238c.443 0 .78.143 1.013.43.232.281.348.67.348 1.162v.367c0 .494-.116.883-.348 1.17-.232.281-.57.422-1.013.422h-1.238zm6.818-1.841c.008.85-.239 1.492-.74 1.928-.502.43-1.28.646-2.332.646h-.193l-.466-3.613h.85l.18 1.536a.644.644 0 0 0 .337-.373c.058-.166.084-.414.08-.746v-.41h.852v.391c-.008.456-.099.828-.273 1.114-.174.281-.481.497-.92.646l.087.715c.592-.037 1.015-.207 1.268-.51.253-.306.377-.731.373-1.274l-.012-1.089h.902zm2.75 2.512-1.168-1.81-.554 1.81h-.851l.69-2.133.193-.479-.579-.939h.902l.497.809.448.678.168-.566.249-.92h.852l-.747 2.263.859 1.287z" fill="#fff" style="stroke-width:.26458" transform="translate(-116.692 -112.148)"/>
</svg>
