<svg width="104.316" height="126.947" viewBox="0 0 27.6 33.588" xmlns="http://www.w3.org/2000/svg">
    <path d="M120.645 127.612c0 2.234-4.035 8.409-4.035 8.409s-4.038-6.127-4.038-8.409a4.03 4.03 0 0 1 4.038-4.036 4.03 4.03 0 0 1 4.035 4.036zm-17.597-25.179h27.361v19.899h-27.361z" fill="#f64a3f" style="stroke-width:.26458;fill:#c01f14;fill-opacity:1" transform="translate(-102.809 -102.433)"/>
    <path d="M111.366 106.98c.33 0 .593.095.783.286.193.186.291.48.291.883v2.381h-3.04v-3.55h.894zm.172 2.879v-1.754c0-.302-.138-.454-.415-.454h-.829v2.208zm3.519-2.88c.333 0 .593.1.783.299.196.2.294.5.294.902v2.35h-.903v-2.394c0-.323-.137-.485-.415-.485h-.833v2.88h-.897v-3.551zm1.503 3.048a.904.904 0 0 0 .354-.094.35.35 0 0 0 .162-.186c.029-.083.042-.2.04-.348v-2.42h1.883c.33 0 .593.096.783.287.19.186.286.48.286.883v2.381h-.897v-2.425c0-.302-.14-.454-.42-.454h-.736v1.63c0 .314-.048.565-.148.752a.934.934 0 0 1-.442.423c-.196.09-.458.151-.789.18zm7.585-1.269c0 .576-.135 1.03-.405 1.362-.264.327-.64.491-1.124.491-.175 0-.365-.025-.572-.074l.08-.672c.153.033.283.05.386.05.283 0 .484-.094.603-.28.12-.19.18-.47.18-.84 0-.41-.058-.706-.174-.889-.111-.186-.286-.28-.522-.28a.628.628 0 0 0-.423.15.677.677 0 0 0-.212.404l-.386 2.35h-.894l.428-2.394-.497-1.156h.934l.249.709c.087-.258.217-.448.391-.573a.98.98 0 0 1 .596-.192c.444 0 .783.153 1.016.46.23.303.346.76.346 1.374zm-10.3 6.424v.74l-1.12 2.81h-.896l1.114-2.879h-1.805v-1.58h.81v.909zm.378 2.879h.995c.241 0 .418-.08.53-.237.116-.157.174-.368.174-.634v-.466c0-.266-.058-.477-.175-.634-.11-.158-.288-.237-.529-.237h-.995v-.671h1.239c.444 0 .78.143 1.013.429.233.281.35.67.35 1.163v.367c0 .493-.117.882-.35 1.168-.233.282-.569.423-1.013.423h-1.239zm3.218-2.152-.074-.727h.894l.077.727v2.823h-.897zm3.934 2.823-1.167-1.81-.555 1.81h-.852l.69-2.133.193-.478-.576-.94h.9l.497.81.45.677.166-.566.249-.92h.852l-.746 2.263.857 1.287z" fill="#fff" style="stroke-width:.26458" transform="translate(-102.809 -102.433)"/>
</svg>
