<svg width="160.605" height="92.439" viewBox="0 0 42.493 24.458" xmlns="http://www.w3.org/2000/svg">
    <path fill="#f64a3f" style="stroke-width:.26458" d="M94.768 92.719h42.493v10.689H94.768z" transform="translate(-94.768 -92.72)"/>
    <path d="M104.42 97.888c0-.303-.14-.454-.417-.454h-1.623v-.672h1.865c.332 0 .593.095.784.286.195.187.292.481.292.883v2.382h-.902zm-2.078.727.125-.416h.777v2.114h-.902zm7.246-.814c.008.85-.238 1.492-.74 1.927-.501.431-1.279.647-2.332.647h-.192l-.467-3.613h.852l.18 1.536a.645.645 0 0 0 .336-.373c.058-.166.085-.415.081-.746v-.41h.852v.391c-.008.456-.1.827-.273 1.113-.175.282-.481.498-.92.647l.086.715c.593-.037 1.016-.207 1.269-.51.253-.306.377-.731.373-1.275l-.013-1.088h.902zm.614-.311-.074-.728h.895l.075.728v.97l-.006.392-.89.155zm2.76 2.823-.112-.666a1.798 1.798 0 0 1-.983.784l-.329-.709c.58-.182.974-.472 1.181-.87v-1.014c0-.15-.022-.255-.068-.317-.046-.062-.122-.102-.23-.118l-.392-.056.112-.66.734.1c.253.033.44.129.56.286.12.154.18.375.18.666v1.181l.199 1.393zm1.348-.672h.908v-1.797c0-.15-.029-.255-.087-.317-.054-.062-.139-.101-.255-.118l-.435-.062.112-.66.777.1a.809.809 0 0 1 .578.323c.137.183.206.42.206.71v2.493h-1.804zm5.747-1.753c0-.303-.14-.454-.417-.454h-1.623v-.672h1.865c.332 0 .593.095.784.286.195.187.292.481.292.883v2.382h-.901zm-2.077.727.124-.416h.777v2.114h-.901zm3.595 1.026h1.256c.241 0 .427-.076.56-.23.137-.157.205-.373.205-.646v-.46c0-.262-.06-.471-.18-.629-.116-.161-.288-.242-.516-.242h-.448l-.112.528a.694.694 0 0 0-.018.156c0 .103.03.184.093.242a.677.677 0 0 0 .305.125l-.144.56c-.368-.009-.636-.092-.802-.25-.165-.157-.249-.37-.249-.64 0-.1.008-.19.025-.273l.25-1.12h1.311c.431 0 .77.143 1.014.43.244.285.367.67.367 1.156v.373c0 .498-.13.887-.392 1.17-.261.28-.614.422-1.057.422h-1.468zm3.511-2.151-.074-.728h.895l.075.728v2.823h-.896zm2.754 2.157c.282-.024.491-.12.628-.286.137-.165.22-.447.249-.845l.08-1.082h-2.164v-.672h3.128l-.03.579-.07.939c-.065 1.347-.65 2.027-1.753 2.04zm-1.256-1.069.124-.43h.777v3.409h-.901z" fill="#fff" style="stroke-width:.26458" transform="translate(-94.768 -92.72)"/>
    <path d="M120.05 108.768c0 2.234-4.036 8.409-4.036 8.409s-4.036-6.127-4.036-8.409a4.03 4.03 0 0 1 4.036-4.036 4.03 4.03 0 0 1 4.036 4.036z" fill="#f64a3f" style="stroke-width:.26458" transform="translate(-94.768 -92.72)"/>
</svg>
