<svg viewBox="0 0 44.821 36.118" height="136.51" width="169.401" xmlns="http://www.w3.org/2000/svg">
    <path style="fill:#c01f14;stroke-width:.19261441;fill-opacity:1" d="M84.646 172.076c0 2.889-5.246 10.786-5.246 10.786s-5.245-7.91-5.245-10.786a5.247 5.247 0 0 1 10.491 0" class="cls-4" transform="matrix(1.04759 0 0 1.0545 -60.768 -156.71)"/>
    <path style="isolation:isolate;fill:#ffffff;stroke-width:.19261441" d="M79.404 174.741a2.697 2.697 0 1 1 2.696-2.696 2.697 2.697 0 0 1-2.696 2.696m0-5.961a3.298 3.298 0 1 0 3.297 3.296 3.305 3.305 0 0 0-3.297-3.296m0 2.89a.443.443 0 0 0-.413.41v1.21a.412.412 0 0 0 .825.001v-1.21a.422.422 0 0 0-.412-.41m0-1.263a.412.412 0 1 0 .412.41.422.422 0 0 0-.412-.416" class="cls-9" transform="matrix(1.04759 0 0 1.0545 -60.768 -156.71)"/>
    <path class="st2" style="fill:#c01f14" d="M1337.98 275.26h147.91v34.58h-147.91z" transform="translate(-351.166 -63.833) scale(.26458)"/>
    <path class="st8" d="M1349.38 252.86h-1.35v-2.19h4.11v17.67h-2.75v-15.48zm7.45 0h-2.21v-2.19h5.01v7.39h-2.79v-5.2zm16.23-2.19v7.66c0 1.23-.25 2.27-.76 3.12-.51.85-1.23 1.5-2.15 1.94-.92.44-1.99.66-3.21.66-1.62 0-3.27-.31-4.94-.94l.62-2.06c1.2.46 2.28.73 3.24.84a4.194 4.194 0 0 1-1.12-2.02l-2.09-9.2h2.81l2.01 9.43c.15.68.33 1.22.56 1.64.72-.23 1.28-.62 1.67-1.17.39-.55.59-1.26.59-2.12v-7.78zm4.69 2.19h-2.21v-2.19h5.01v7.39h-2.79v-5.2zm16.07-2.19v2.19h-2.25v10.9h-2.8v-10.9h-5.86v-2.19zm3.01 2.19h-1.32v-2.19h4.12v13.09h-2.8zm7.4 3.08c.07-.59.23-1.16.48-1.69.25-.53.53-.95.86-1.25.05-.05.11-.1.19-.14l-.02-.04c-.3.05-.68.14-1.12.26-.44.12-.84.24-1.18.37l-.62-2.05c.85-.31 1.83-.56 2.93-.74 1.1-.19 2.13-.28 3.08-.28 1.89 0 3.32.49 4.31 1.47.99.98 1.48 2.42 1.49 4.32v7.59h-5.57v-2.19h2.77v-5.76c0-1.01-.22-1.79-.65-2.33-.43-.54-1.05-.81-1.86-.81-.66 0-1.2.26-1.61.77-.41.51-.67 1.24-.77 2.17l-.87 8.15h-2.76zm29.05-4.02c.87.83 1.3 2.07 1.3 3.73v8.11h-2.78l-.01-8.31c0-.9-.19-1.55-.57-1.96-.38-.41-.98-.62-1.8-.62h-1.77c-.17.4-.3.88-.41 1.43-.1.55-.15 1.09-.15 1.62v4.06c0 1.27-.32 2.24-.96 2.92-.64.68-1.54 1.02-2.72 1.02-.45 0-.94-.04-1.49-.12v-2.19c.26.02.5.03.74.03.58 0 1.01-.15 1.29-.45.28-.3.42-.77.42-1.41v-3.62c0-.57.08-1.16.23-1.78.15-.61.37-1.12.64-1.51H1423v-2.19h6.39c1.72-.01 3.02.41 3.89 1.24zm14.43-1.25v2.19h-2.25v10.9h-2.8v-10.9h-5.86v-2.19zm3.43 5.27c.07-.59.23-1.16.48-1.69.25-.53.53-.95.86-1.25.05-.05.11-.1.19-.14l-.02-.04c-.3.05-.68.14-1.12.26-.44.12-.84.24-1.18.37l-.62-2.05c.85-.31 1.83-.56 2.93-.74 1.1-.19 2.13-.28 3.08-.28 1.89 0 3.32.49 4.31 1.47.99.98 1.48 2.42 1.49 4.32v7.59h-5.57v-2.19h2.77v-5.76c0-1.01-.22-1.79-.65-2.33-.43-.54-1.05-.81-1.86-.81-.66 0-1.2.26-1.61.77-.41.51-.67 1.24-.77 2.17l-.87 8.15h-2.76zm23.69-5.27v7.66c0 1.23-.25 2.27-.76 3.12-.51.85-1.23 1.5-2.15 1.94-.92.44-1.99.66-3.21.66-1.62 0-3.27-.31-4.94-.94l.62-2.06c1.2.46 2.28.73 3.24.84a4.194 4.194 0 0 1-1.12-2.02l-2.09-9.2h2.81l2.01 9.43c.15.68.33 1.22.56 1.64.72-.23 1.28-.62 1.67-1.17.39-.55.59-1.26.59-2.12v-7.78z" style="fill:#fff" transform="translate(-351.166 -54.838) scale(.26458)"/>
</svg>
