<svg width="104.316" height="126.947" viewBox="0 0 27.6 33.588" xmlns="http://www.w3.org/2000/svg">
    <path d="M108.151 160.096c0 2.234-4.035 8.409-4.035 8.409s-4.037-6.127-4.037-8.409a4.03 4.03 0 0 1 4.037-4.036 4.03 4.03 0 0 1 4.035 4.036zm-17.597-25.179h27.361v19.899H90.554z" fill="#f64a3f" style="stroke-width:.26458;fill:#c01f14;fill-opacity:1" transform="translate(-90.315 -134.917)"/>
    <path d="M95.949 142.51a.931.931 0 0 0 .354-.093.361.361 0 0 0 .161-.186c.03-.083.04-.2.038-.348v-2.42h1.883c.331 0 .593.096.783.287.191.186.286.48.286.883v2.381h-.894v-2.425c0-.302-.14-.454-.423-.454h-.733v1.63c0 .314-.05.565-.151.752a.922.922 0 0 1-.442.423c-.193.09-.458.15-.788.18zm5.638-1.92c0-.303-.14-.455-.418-.455h-1.212v-.671h1.455c.33 0 .593.095.783.286.196.186.294.48.294.883v2.381h-.902zm1.611-.399-.074-.727h.894l.077.727v.97l-.008.392-.89.156zm4.98 1.051c0 .576-.136 1.03-.403 1.362-.267.327-.643.491-1.127.491-.174 0-.365-.025-.571-.074l.08-.672c.153.033.282.05.385.05.283 0 .485-.094.604-.28.121-.19.18-.47.18-.84 0-.41-.059-.706-.172-.889a.573.573 0 0 0-.524-.28.628.628 0 0 0-.424.15.677.677 0 0 0-.211.404l-.384 2.35h-.897l.429-2.394-.498-1.156h.934l.249.709c.087-.258.217-.448.392-.573a.982.982 0 0 1 .598-.192c.441 0 .78.153 1.013.46.23.302.346.76.346 1.374zm4.22-.74c.007.85-.239 1.493-.739 1.928-.502.431-1.28.647-2.333.647h-.193l-.466-3.613h.852l.18 1.536a.644.644 0 0 0 .336-.374c.058-.165.084-.414.082-.746v-.41h.852v.392c-.008.456-.1.827-.275 1.113-.175.282-.482.497-.921.646l.087.716c.593-.038 1.016-.208 1.27-.51.251-.307.376-.732.373-1.275l-.013-1.088h.902zm-13.83 7.164c.33 0 .593.095.783.286.196.186.291.48.291.883v2.381h-3.04v-3.55h.897zm.175 2.879v-1.754c0-.302-.14-.454-.419-.454H97.5v2.208zm1.59-2.152-.074-.727h.894l.074.727v.97l-.005.392-.89.156zm3.566 1.368.823 1.455h-2.974v-.671h1.693l-1.624-2.88h.902l.701 1.25.51-1.25h.885zm1.466.784h1.257c.24 0 .426-.077.558-.23.138-.158.206-.374.206-.647v-.46c0-.261-.06-.47-.18-.628-.116-.162-.288-.243-.516-.243h-.447l-.113.529a.818.818 0 0 0-.019.155.32.32 0 0 0 .093.243.691.691 0 0 0 .307.124l-.143.56c-.37-.008-.638-.091-.805-.249-.164-.158-.248-.371-.248-.64 0-.1.008-.191.026-.274l.249-1.12h1.312c.431 0 .767.144 1.014.43.243.286.365.671.365 1.156v.373c0 .498-.13.888-.392 1.17-.26.281-.614.422-1.056.422h-1.468Zm5.44-2.88c.33 0 .592.1.783.299.196.2.29.5.29.902v2.35h-.899v-2.394c0-.323-.14-.485-.418-.485h-.833v2.88h-.894v-3.552z" fill="#fff" style="stroke-width:.26458" transform="translate(-90.315 -134.917)"/>
</svg>
