<svg width="182.98" height="113.011" viewBox="0 0 48.413 29.9" xmlns="http://www.w3.org/2000/svg">
    <path d="M114.225 125.843c0 3.066-5.607 11.547-5.607 11.547s-5.606-8.48-5.606-11.547c0-3.066 2.516-5.606 5.606-5.606a5.598 5.598 0 0 1 5.607 5.606z" fill="#f64a3f" style="stroke-width:.26458" transform="translate(-84.412 -107.49)"/>
    <path d="M110.039 124.851a6.15 6.15 0 0 1-.72-.43c.143-.192.432-.576.36-.863a.518.518 0 0 0-.145-.288c-.048-.048-.143-.048-.19-.048-.144 0-.36.144-.504.192v-.144c.048-.359.19-.646.503-.646.289 0 .646.191.72.646.214.48.119.983-.024 1.581zm-.937-.67c-.047-.144-.143-.288-.19-.432.047-.191.19-.359.36-.359h.047c.048 0 .048.048.048.144.119.215-.12.431-.265.647zm-.333.287-.193.144.047-.288c0-.047.048-.191.146-.359.048.048.143.192.19.288-.142.143-.19.215-.19.215zm2.778 2.372c0-.048-.503-1.414-1.15-1.797-.048 0-.048-.048-.144-.048.19-.647.289-1.222.143-1.725-.143-.503-.574-.862-1.005-.79-.36 0-.646.36-.72.79v.432c-.048.143-.143.191-.143.287l-3.376 5.318c0 .048-.05.048 0 .144v.048h.048c.047 0 .047-.048.143-.048l3.881-4.815c.19.191.574.36.791.503-.145.36-.288.79-.431 1.222-.505 1.221-.289 2.227.047 2.443h.048s.048 0 .048-.048v-.144c-.289-.143-.503-1.078 0-2.156.19-.43.36-.862.43-1.221 0 0 .049 0 .049.048.574.287 1.076 1.653 1.076 1.653 0 .047.05.047.146.047.071-.071.119-.143.119-.143z" fill="#fff" style="stroke-width:.26458" transform="translate(-84.412 -107.49)"/>
    <path fill="#f64a3f" style="stroke-width:.26458" d="M84.412 107.489h44.643v11.161H84.412z" transform="translate(-84.412 -107.49)"/>
    <path d="m89.875 112.264-.074-.725h.895l.074.725v.968l-.006.39-.889.155zm1.606 0-.074-.725h.892l.074.725v.968l-.005.39-.887.155zm4.115-.725v.738l-1.114 2.802h-.895l1.112-2.87h-1.8v-1.575h.807v.905zm.529 2.87h1.251c.24 0 .426-.076.558-.229.138-.157.204-.372.204-.645v-.459c0-.26-.058-.469-.18-.626-.114-.16-.286-.242-.513-.242h-.447l-.111.527a.644.644 0 0 0-.019.155c0 .104.032.184.093.242a.69.69 0 0 0 .304.124l-.143.558c-.368-.008-.635-.09-.799-.248-.167-.157-.249-.37-.249-.638 0-.1.008-.19.024-.273l.249-1.116h1.31c.428 0 .764.142 1.01.428.244.285.365.67.365 1.153v.372c0 .496-.13.885-.391 1.166-.26.28-.611.421-1.053.421h-1.463zm6.575-1.376c.026.728-.202 1.255-.68 1.581-.482.323-1.18.498-2.099.527l-.338-2.933-.088-.67h1.903c.405 0 .72.117.942.348.225.227.341.542.354.942zm-1.995 1.315c.293-.021.52-.081.682-.18a.79.79 0 0 0 .339-.428c.066-.186.095-.428.087-.726v-.186c0-.19-.042-.34-.13-.452a.424.424 0 0 0-.354-.168h-.855zm2.674-2.084-.074-.725h.892l.074.725v2.815h-.892zm2.747 2.152c.28-.025.49-.12.624-.285.138-.166.22-.447.249-.844l.08-1.079h-2.157v-.67h3.12l-.032.577-.07.937c-.065 1.343-.647 2.021-1.748 2.033zm-1.254-1.067.124-.428h.775v3.398h-.9zm4.881-1.81h.897l.304 2.809c.432-.042.736-.168.919-.379.182-.215.27-.518.259-.911v-.192a.727.727 0 0 0-.154-.472c-.1-.132-.251-.204-.452-.217l-.304-.018.068-.688.379.018c.383.02.698.14.942.36.248.215.378.523.391.924l.005.173c.024.728-.211 1.267-.706 1.619-.492.347-1.204.54-2.133.576zm3.792.725-.074-.725h.894l.074.725v2.815h-.894zm1.555 2.146h1.252c.24 0 .426-.077.558-.23.138-.157.206-.372.206-.645v-.459c0-.26-.06-.469-.18-.626-.116-.16-.288-.242-.515-.242h-.448l-.11.527a.81.81 0 0 0-.02.155c0 .104.033.184.093.242a.69.69 0 0 0 .305.124l-.143.558c-.368-.008-.632-.09-.8-.248-.163-.157-.248-.37-.248-.638 0-.1.008-.19.027-.273l.246-1.116h1.31c.428 0 .767.142 1.01.428.243.285.365.67.365 1.153v.372c0 .496-.13.885-.389 1.166-.262.28-.614.421-1.055.421H115.1zm3.5-2.146-.073-.725h.894l.074.725v.968l-.008.39-.886.155zm5.197.31c.008.848-.238 1.488-.738 1.922-.5.43-1.275.645-2.326.645h-.193l-.463-3.602h.85l.18 1.531a.646.646 0 0 0 .333-.372c.058-.165.084-.413.082-.744v-.409h.849v.39c-.01.455-.1.825-.272 1.11-.175.282-.482.497-.919.645l.085.713c.593-.037 1.013-.206 1.267-.508.252-.306.376-.73.37-1.271l-.012-1.085h.9z" fill="#fff" style="stroke-width:.26458" transform="translate(-84.412 -107.49)"/>
</svg>
