<svg width="160.605" height="92.439" viewBox="0 0 42.493 24.458" xmlns="http://www.w3.org/2000/svg">
    <path fill="#f64a3f" style="stroke-width:.26458" d="M71.208 72.015h42.493v10.689H71.208z" transform="translate(-71.208 -72.015)"/>
    <path d="M85.419 79.105a.919.919 0 0 0 .354-.093.353.353 0 0 0 .162-.187 1.02 1.02 0 0 0 .037-.348v-2.419h1.884c.332 0 .593.095.784.286.19.187.286.481.286.883v2.382h-.896v-2.425c0-.303-.14-.454-.422-.454h-.734v1.629c0 .315-.05.566-.15.752a.93.93 0 0 1-.44.423c-.196.091-.46.152-.79.18zm4.214-2.32-.074-.727h.895l.075.728v2.823h-.896zm1.56 2.152h1.256c.24 0 .427-.076.56-.23.136-.157.205-.373.205-.647v-.46c0-.26-.06-.47-.18-.628-.116-.161-.289-.242-.517-.242h-.447l-.112.528a.693.693 0 0 0-.019.156c0 .103.031.184.093.242a.678.678 0 0 0 .305.125l-.143.56c-.369-.01-.636-.092-.802-.25-.166-.157-.249-.37-.249-.64 0-.1.008-.19.025-.273l.249-1.12h1.312c.43 0 .769.143 1.013.43.245.285.367.67.367 1.156v.373c0 .498-.13.887-.391 1.169-.262.282-.614.423-1.058.423h-1.467Zm3.511-2.151-.075-.728h.896l.075.728v2.823h-.896zm2.753 2.157c.282-.024.492-.12.629-.286.136-.165.22-.447.248-.845l.081-1.082h-2.164v-.672h3.128l-.031.579-.069.939c-.066 1.347-.65 2.027-1.753 2.04zm-1.256-1.069.125-.43h.777v3.409H96.2Z" fill="#fff" style="stroke-width:.26458" transform="translate(-71.208 -72.015)"/>
    <path d="M96.49 88.064c0 2.234-4.036 8.409-4.036 8.409s-4.036-6.127-4.036-8.409a4.03 4.03 0 0 1 4.036-4.036 4.03 4.03 0 0 1 4.037 4.036z" fill="#f64a3f" style="stroke-width:.26458" transform="translate(-71.208 -72.015)"/>
</svg>
