<svg width="1608.797" height="821.566" viewBox="0 0 1608.797 821.566" fill="none" xmlns="http://www.w3.org/2000/svg">
    <path d="m1136.847 139.921 76.12-48.44 205.99 96.88-99.68 49.444z" fill="#fcf0ca"/>
    <mask id="a" maskUnits="userSpaceOnUse" x="408" y="611" width="337" height="181">
        <path d="m591.414 791.538-183.231-91.866 152.843-88.256 183.231 91.866Z" fill="#fff"/>
    </mask>
    <g mask="url(#a)" transform="translate(-18.203 10)">
        <path d="m561.026 611.416-152.843 88.256 183.231 91.866 152.843-88.256z" fill="#d7cdd2"/>
    </g>
    <path d="m1577.647 288.036-82.14 43.055-84.65-38.612-333.06 170.895-117.042 140.508 36.812 31.792-69.506 49.544 58.566 42.222-114.73 57.968-148.63-61.478 16.749-4.212-252.933-117.34 114.23-80.534-258.85-126.567-130.678 68.097L10 342.424l451.91-212.115 314.612 137.498 110.82-65.891 99.285-47.337-54.454-26.377 102.794-49.343 319.4 138.668 65.81-30.554z" fill="#fcd8ff"/>
    <path d="m345.353 267.49 37.91 21.963v-29.686l-37.91-19.356z" fill="#a94bb0"/>
    <path d="m187.896 305.099-.201 38.512 157.657-76.121 1.304-39.514zm845.451-162.268 248.42 108.414v-31.191l-248.42-109.918zM790.34 244.425 481.648 110.838l1.203 28.683 307.49 134.59z" fill="#a94bb0"/>
    <path d="m424.582 262.377 102.096 47.839-101.294 60.575-99.89-48.34z" fill="#fcf0ca"/>
    <path d="m424.579 262.375 102.196 47.839v-33.297l-102.196-45.131z" fill="#a94bb0"/>
    <path d="M431.198 341.202v32.394l95.778-63.685v-33.497zm-407.381 6.322 201.785 120.951v-39.214L23.817 309.814Zm332.465 19.355L614.73 495.251l.4 31.692-258.85-126.567zm318.726 321.43 79.029 36.607 11.333-21.663-90.362-42.824zm-98.586-74.315-75.52-35.603v29.184l75.52 35.002zm345.802 88.858 89.163 43.025v-27.781l-89.965-40.718zm44.529-78.127 60.874 30.889v-31.491l-61.376-31.19zm455.534-410.289 157.15 80.232 19.36-13.338-176.51-89.761zm14.22 99.989 72.81 37.208v-27.68l-72.81-36.205z" fill="#a94bb0"/>
    <path d="m500.903 578.39 25.274 11.333 88.957-62.782-.401-31.692zm229.664 132.486v28.182l72.209-37.007v-27.982z" fill="#a94bb0"/>
    <path d="m730.566 738.855 140.507 72.711v-30.589l-140.507-69.501zm280.811-20.76v27.78l-140.303 65.691v-30.589zm16.25-93.97v31.491L949.9 690.317l-28.883-12.938zm72.61-181.525 336.28-155.751v26.777l-325.35 158.36-124.46 131.28-20.456-10.33zm-64.19-35.403 305.99-142.814v27.279l-295.25 144.72-66.597 48.54-1.003-34.7zm562.75-126.913v27.377l-89.31 43.132v-27.081zm-213.63-70.563v26.076l16.94-7.722v-26.778zm-384.72-45.834-111.118 54.458-98.987 54.559v-28.483l87.955-59.372 119.15-53.756zM23.817 309.811l35.804 21.563 423.227-191.857-1.204-25.273zM225.603 429.26v39.213l130.679-68.097v-33.497zm543.474-42.221-117.04 62.983v30.588l117.04-62.982 29.787 16.949 1.103-28.583z" fill="#a94bb0"/>
    <path d="m722.542 274.11 172.6 72.21 69.502-29.687-170.695-76.12z" stroke="#61595c" stroke-width=".409"/>
    <path d="m694.664 270.597 170.795 74.216 15.445-2.608-171.397-79.029z" fill="#a94bb0"/>
    <path d="m850.012 243.121 168.485 74.416 15.45-7.823-165.883-75.519z" fill="#eae2e6" stroke="#61595c" stroke-width="1.279" stroke-miterlimit="10"/>
    <path d="m836.274 244.725 167.083 72.711 13.34-6.819-164.678-73.915z" fill="#eae2e6" stroke="#61595c" stroke-width="1.279" stroke-miterlimit="10"/>
    <path d="m818.32 245.326 165.777 73.513 15.25-6.619-165.782-73.714z" fill="#eae2e6" stroke="#61595c" stroke-width="1.279" stroke-miterlimit="10"/>
    <path d="m797.462 247.332 168.087 73.212 17.048-6.82-168.186-74.415z" fill="#eae2e6" stroke="#61595c" stroke-width="1.279" stroke-miterlimit="10"/>
    <path d="m722.542 274.109 172.6 72.21 69.5-29.687-170.693-76.12z" fill="#eae2e6" stroke="#61595c" stroke-width="1.279" stroke-miterlimit="10"/>
    <path d="m718.429 269.096 168.087 75.519 13.64-5.917-168.388-74.918z" fill="#eae2e6" stroke="#61595c" stroke-width="1.279" stroke-miterlimit="10"/>
    <path d="m694.664 270.601 173.603 76.121 12.637-5.416-171.397-78.126z" fill="#eae2e6" stroke="#61595c" stroke-width="1.279" stroke-miterlimit="10"/>
    <path d="M672.897 269.696 847.1 347.822l14.242-5.115-170.394-77.825z" fill="#eae2e6" stroke="#61595c" stroke-width="1.279" stroke-miterlimit="10"/>
    <path d="m654.145 274.111 174.606 75.318 14.843-7.321L673.7 267.291z" fill="#eae2e6" stroke="#61595c" stroke-width="1.279" stroke-miterlimit="10"/>
    <path d="m630.376 270.802 179.018 81.035 16.348-7.823-179.12-80.834z" fill="#eae2e6" stroke="#61595c" stroke-width="1.279" stroke-miterlimit="10"/>
    <path d="m964.646 307.404-70.604 30.288-100.792 7.02-1.103 95.778 244.51-131.18z" fill="#a94bb0"/>
    <path d="m364.705 257.964 206.599-104.403-174.706-73.713-215.224 80.934Z" fill="#fcf0ca"/>
    <path d="M181.374 128.887v32.194l214.422-80.634V51.06Zm214.423-48.439 143.214 58.268 32.294-16.146-175.508-71.909z" fill="#a94bb0"/>
    <path d="m328.102 105.42 73.513 35.102.5-29.887-74.013-33.798zm243.203 17.15v30.99l-206.6 104.403.102-29.285zm-338.482 17.251 84.445 41.721v-29.686l-82.74-41.12zm92.672 149.331v33.297l99.087-60.074v-30.589z" fill="#a94bb0"/>
    <path d="M317.269 151.855v29.686l22.866-11.232v-21.663l14.242-7.321v22.064l47.237-22.867.5-29.886z" fill="#a94bb0"/>
    <mask id="b" maskUnits="userSpaceOnUse" x="515" y="633" width="166" height="96">
        <path d="m515.195 654.743 36.907-21.463 128.472 74.215-36.906 21.463z" fill="#fff"/>
    </mask>
    <g mask="url(#b)" transform="translate(-18.203 10)" fill="#61595c">
        <path d="m540.569 648.826-5.616-3.009c-1.304.201-2.508.502-3.812.903-1.203.401-2.707 1.103-4.412 2.206l-10.23 6.519 6.82 3.611 10.831-6.92c2.407-1.404 4.513-2.508 6.419-3.31zm20.359-4.714c-.301-.2-.702-.401-1.003-.601l-13.239-7.021-5.014 3.21 12.837 6.819.602.301c1.905 1.103 2.908 2.207 3.009 3.209.1 1.204-.803 2.407-2.808 3.711l-19.156 12.135 7.02 3.711 18.855-11.934c3.61-2.307 5.215-4.614 4.814-7.021-.401-2.306-2.407-4.413-5.917-6.519zm9.124 34.197c-1.304-.702-2.107-1.604-2.407-2.507-.402-1.003-.201-2.106.401-3.31.702-1.103 1.905-2.306 3.61-3.309l2.808-1.805c3.009-1.806 5.918-2.909 8.826-3.31 2.908-.401 5.416.1 7.722 1.203.101.101.301.201.402.201 2.106 1.204 3.008 2.608 2.808 4.212-.201 1.705-1.705 3.41-4.513 5.215l-3.21 2.006c-1.705 1.103-3.51 1.906-5.415 2.307-1.906.501-3.811.702-5.617.501-1.805-.1-3.51-.601-4.914-1.404-.301.101-.401.101-.501 0zm26.376-16.147c-.401-.2-.702-.401-1.103-.601a67.253 67.253 0 0 0-8.425-3.811 88.203 88.203 0 0 0-9.026-3.109l-3.309 3.71c1.003.301 2.106.602 3.309 1.003l2.708.903-.1.1h-.702c-1.204 0-2.608.101-4.212.401a27.537 27.537 0 0 0-4.714 1.304c-1.504.602-2.808 1.204-3.911 1.906l-2.407 1.504c-2.708 1.805-4.513 3.61-5.416 5.616-.903 2.006-.802 3.912.201 5.817.902 1.705 2.507 3.209 4.914 4.614.301.1.501.3.802.401a26.158 26.158 0 0 0 9.227 2.908c3.309.401 6.619.301 9.929-.401 3.309-.702 6.318-1.905 9.126-3.711l3.209-2.106c3.009-1.905 4.915-3.811 5.817-5.817.903-2.006.702-3.911-.501-5.817-.903-1.705-2.808-3.309-5.416-4.814zm31.092 17.253-12.536-6.72-5.015 3.21 5.516 2.908-11.934 7.622 7.12 3.711zm21.264 11.23-13.138-6.92-5.015 3.209 6.118 3.209-15.946 10.13c-1.505.902-2.909 1.504-4.313 1.504a6.801 6.801 0 0 1-4.112-1.003c-.401-.201-.802-.501-1.203-.702a27.225 27.225 0 0 1-2.507-1.605l-4.915 3.009c.903.702 1.705 1.304 2.508 1.906.501.3 1.003.702 1.604 1.002.301.201.702.402 1.104.602 3.008 1.605 6.117 2.307 9.327 2.207 3.209-.101 6.218-1.104 9.126-2.909zm30.987 16.351-22.967-12.135-5.014 3.21 15.946 8.424-13.238 8.424a13.36 13.36 0 0 1-7.422 2.207c-2.607 0-5.315-.702-8.224-2.207-.301-.2-.601-.3-1.003-.501-1.905-1.103-3.811-2.407-5.616-4.112l-5.817 2.407c2.307 2.006 4.614 3.711 7.021 5.115.401.201.802.501 1.203.702 4.614 2.407 9.327 3.711 14.141 3.61 4.814 0 9.427-1.504 13.941-4.312z"/>
    </g>
    <path d="m139.056 273.911-11.534 5.516v12.235l-16.046 5.917v13.138l58.168 27.38 2.106-12.837 12.136-7.121v-12.637l4.312 1.906 12.737-6.419.602.201v-11.634l-62.481-29.084zm30.588-48.743v12.336l-13.64 5.616-.3-.1-.602 11.533-16.046 5.917 62.68 28.884 11.334-5.716v-12.336l.3.1 13.74-6.519.803.401v-13.439l13.138-6.418.602.2v-13.94l-55.36-27.379-.602 14.843zm86.352-9.629-1.304 12.837-57.366-28.182v-13.94z" fill="#eae2e6" stroke="#61595c" stroke-width="1.279" stroke-miterlimit="10"/>
    <path d="m254.692 228.379-10.03 4.513-59.17-27.68 12.636-5.416zm-70.805 75.718v14.041l-56.363-26.477v-12.235z" fill="#eae2e6" stroke="#61595c" stroke-width="1.279" stroke-miterlimit="10"/>
    <path d="m201.538 300.587-13.338 6.82-60.676-27.981 16.648-8.024zm11.532-29.385v12.436l-57.968-29.084.602-11.533zm-29.184 46.934-12.136 7.121-60.274-27.681 16.046-5.917z" fill="#eae2e6" stroke="#61595c" stroke-width="1.279" stroke-miterlimit="10"/>
    <path d="m227.713 264.583-14.342 6.82-57.667-28.182 16.047-6.519z" fill="#eae2e6" stroke="#61595c" stroke-width="1.279" stroke-miterlimit="10"/>
    <path d="M227.914 251.544v13.739l-58.268-27.078v-13.038z" fill="#eae2e6" stroke="#61595c" stroke-width="1.279" stroke-miterlimit="10"/>
    <path d="m241.253 245.325-13.34 6.519-58.267-26.677 16.046-6.018zm2.909-11.935-.803 12.235-57.667-26.477-.2-13.94zm26.577-25.772-14.742 7.923-57.868-30.188 16.047-6.82zm-69.203 81.938v11.634l-62.481-27.279v-13.439zm11.534-5.917-11.333 5.717-62.682-28.884 16.047-5.917zm-41.32 41.617-2.105 12.838-58.17-27.38v-13.138z" fill="#eae2e6" stroke="#61595c" stroke-width="1.279" stroke-miterlimit="10"/>
    <path d="M374.736 123.976v29.485l20.058 10.531v-20.961l14.642 7.923v20.66l63.184 32.895v-30.488zM490.372 402.28l161.769 78.328v-30.589L325.495 289.152v33.297l38.812 18.754V315.93l15.144 7.221v25.373l95.878 46.435zm722.595-331.159-61.98 34.2v27.078l61.98-34.1zm0 0 211.41 93.471-.9 26.577-210.51-92.87z" fill="#a94bb0"/>
    <path d="m1351.967 130.691-.9 27.38-60.48 36.205v-27.279zm-74.12-32.491v26.577l-62.18 37.008v-27.179z" fill="#a94bb0"/>
    <path fill="#f64a3f" d="M85.21 106.362h115.605v71.401H85.21z"/>
    <path d="M123.399 125.896c0-1.143-.525-1.715-1.575-1.715h-4.583v-2.539h5.499c1.254 0 2.24.361 2.962 1.081.736.706 1.104 1.818 1.104 3.338v9.001h-3.407zm16.717 6.628v2.538h-11.164v-2.538h6.205v-6.628c0-1.143-.533-1.715-1.6-1.715h-4.605v-2.539h5.547c1.253 0 2.24.361 2.96 1.081.722.706 1.082 1.818 1.082 3.338v6.463zm13.255-10.882c-.016 3.118-.141 5.477-.376 7.075-.22 1.582-.815 2.922-1.787 4.019-.971 1.081-2.538 1.833-4.7 2.256l-5.03.987-.47-2.656 3.737-.705-2.703-10.976h3.385l2.373 10.224a3.113 3.113 0 0 0 1.528-1.575c.314-.705.502-1.559.564-2.561.079-1.003.118-2.523.118-4.56v-1.528zm15.163 6.722c0 2.178-.51 3.894-1.528 5.147-1.002 1.238-2.42 1.857-4.254 1.857-.658 0-1.378-.094-2.162-.282l.306-2.538c.579.125 1.065.188 1.457.188 1.065 0 1.825-.353 2.28-1.058.454-.721.68-1.778.68-3.173 0-1.551-.218-2.671-.657-3.361-.423-.705-1.081-1.057-1.974-1.057-.627 0-1.16.188-1.598.564-.423.376-.69.885-.8 1.527l-1.457 8.884h-3.384l1.622-9.048-1.881-4.372h3.526l.94 2.68c.329-.972.823-1.693 1.48-2.163a3.704 3.704 0 0 1 2.257-.728c1.676 0 2.953.58 3.83 1.739.878 1.144 1.317 2.875 1.317 5.194zM105.3 164.206c1.629-1.551 2.867-2.774 3.713-3.667.862-.893 1.55-1.747 2.068-2.562.518-.814.776-1.566.776-2.256 0-.736-.196-1.308-.588-1.715-.391-.424-.94-.635-1.645-.635-.501 0-.971.141-1.41.423a7.023 7.023 0 0 0-1.316 1.128l-1.763-1.739c.752-.799 1.504-1.387 2.257-1.763.767-.392 1.66-.587 2.679-.587 1.457 0 2.632.43 3.525 1.292.893.846 1.34 1.982 1.34 3.408 0 1.16-.431 2.366-1.293 3.62-.861 1.237-2.1 2.695-3.713 4.371a21.238 21.238 0 0 1 2.515-.164h3.22v2.702H105.3zm25.092-7.31c0-1.143-.525-1.715-1.574-1.715h-6.135v-2.539h7.05c1.255 0 2.242.361 2.963 1.081.736.706 1.104 1.818 1.104 3.338v9.001h-3.408zm-7.85 2.75.47-1.574h2.938v7.99h-3.408zm26.517-.282c0 2.178-.51 3.894-1.527 5.147-1.003 1.238-2.421 1.857-4.254 1.857-.66 0-1.38-.094-2.163-.282l.306-2.538c.58.125 1.065.188 1.457.188 1.065 0 1.825-.353 2.28-1.058.454-.721.68-1.778.68-3.173 0-1.551-.218-2.671-.657-3.361-.423-.705-1.081-1.057-1.974-1.057-.627 0-1.16.188-1.598.564-.423.376-.69.885-.8 1.527l-1.456 8.884h-3.385l1.622-9.048-1.88-4.372h3.525l.94 2.68c.329-.972.823-1.693 1.48-2.163a3.704 3.704 0 0 1 2.257-.728c1.677 0 2.954.58 3.83 1.739.879 1.144 1.317 2.875 1.317 5.194zm2.34-3.972-.281-2.75h3.385l.282 2.75v10.67H151.4zm10.408 8.156c1.065-.094 1.857-.455 2.374-1.081.517-.627.83-1.693.94-3.197l.305-4.089h-8.18v-2.539h11.823l-.117 2.186-.26 3.549c-.25 5.092-2.46 7.662-6.626 7.709zm-4.748-4.043.47-1.622h2.938v12.88h-3.408zm23.805-6.863v2.797l-4.23 10.623h-3.385l4.207-10.881h-6.816v-5.97h3.056v3.431z" fill="#fff"/>
    <path d="m1422.477 164.592-.91 27.479-60.47 32.595v-23.669z" fill="#a94bb0"/>
    <path d="M1099.037 81.95v28.182l73.61 32.294v-20.861l13.74 5.717v21.261l58.07 25.474v-21.161l13.84 5.716v21.463l60.87 26.777v-20.158l13.74 5.616v20.56l52.26 22.966v-26.677z" fill="#a94bb0"/>
</svg>
