<svg width="154.546" height="168.231" viewBox="0 0 40.89 44.511" xmlns="http://www.w3.org/2000/svg">
    <path d="M101.922 128.196c0 3.736-6.765 14-6.765 14s-6.764-10.304-6.764-14c0-3.737 3.068-6.765 6.764-6.765 3.697-.079 6.765 3.028 6.765 6.765z" fill="#f64a3f" style="stroke-width:.26458;fill:#c01f14;fill-opacity:1" transform="translate(-74.713 -97.686)"/>
    <path d="M94.34 131.366h.934v-2.798h-.933zm.467-3.731a.452.452 0 0 0 .332-.134.45.45 0 0 0 .135-.333.45.45 0 0 0-.135-.332.451.451 0 0 0-.332-.134.451.451 0 0 0-.332.134.45.45 0 0 0-.134.332c0 .132.044.243.134.333.09.089.2.134.332.134zm0 6.063a4.542 4.542 0 0 1-1.819-.367 4.712 4.712 0 0 1-1.48-.997 4.711 4.711 0 0 1-.997-1.481 4.544 4.544 0 0 1-.368-1.82c0-.644.123-1.25.368-1.818a4.711 4.711 0 0 1 .997-1.48c.42-.42.913-.753 1.48-.998a4.542 4.542 0 0 1 1.82-.367c.644 0 1.25.122 1.818.367a4.715 4.715 0 0 1 1.48.997c.42.42.753.913.998 1.481.245.567.367 1.174.367 1.819a4.54 4.54 0 0 1-.367 1.819 4.707 4.707 0 0 1-.997 1.48c-.42.42-.914.753-1.48.998a4.544 4.544 0 0 1-1.82.367zm0-.933c1.042 0 1.924-.362 2.647-1.084.723-.723 1.084-1.606 1.084-2.647 0-1.042-.361-1.924-1.084-2.647-.723-.723-1.605-1.084-2.647-1.084-1.042 0-1.924.361-2.646 1.084-.724.723-1.085 1.605-1.085 2.647 0 1.041.361 1.924 1.085 2.647.722.722 1.604 1.084 2.646 1.084z" fill="#fff" style="stroke-width:.26458" transform="translate(-74.713 -97.686)"/>
    <path fill="#f64a3f" style="stroke-width:.26458;fill:#c01f14;fill-opacity:1" d="M74.713 97.686h39.053v18.891H74.713z" transform="translate(-74.713 -97.686)"/>
    <path d="m85.929 102.456-.075-.728h.895l.075.728v4.067h-.895zm1.609 0-.075-.728h.896l.074.728v.97l-.006.392-.89.155zm4.55-.728c-.004.825-.037 1.45-.1 1.872a1.97 1.97 0 0 1-.472 1.063c-.257.286-.671.485-1.243.597l-1.331.262-.124-.703.988-.187-.715-2.904h.895l.629 2.705a.825.825 0 0 0 .404-.416c.083-.187.132-.413.15-.678.02-.266.03-.668.03-1.206v-.405zm.642.728-.075-.728h.896l.074.728v.97l-.006.392-.89.155zm2.865.671c0-.157.015-.298.044-.422a.91.91 0 0 1 .13-.305h-1.592v-.672h2.917v.672h-.485c-.079.178-.118.42-.118.727v2.152h-.896zm2.115-.671-.075-.728h.895l.075.728v2.823h-.895zm4.98 1.05c0 .577-.135 1.03-.405 1.363-.265.327-.64.49-1.126.49-.174 0-.364-.024-.572-.074l.081-.671c.154.033.282.05.386.05.282 0 .483-.094.603-.28.12-.191.18-.471.18-.84 0-.41-.058-.707-.174-.89-.112-.186-.286-.279-.522-.279a.628.628 0 0 0-.423.15.673.673 0 0 0-.212.403l-.385 2.351h-.895l.428-2.394-.497-1.157h.933l.249.71c.087-.258.217-.449.391-.573a.98.98 0 0 1 .597-.193c.444 0 .782.154 1.014.46.232.303.348.761.348 1.375zm-22.552 7.152-.074-.728h.895l.075.728v.97l-.006.392-.89.155zm2.15-1.511a.47.47 0 0 1 .41.199c.096.132.144.323.144.572 0 .576-.282 1.007-.846 1.293l-.192-.373a1.09 1.09 0 0 0 .41-.33.746.746 0 0 0 .137-.453.464.464 0 0 1-.385-.112.42.42 0 0 1-.132-.318c0-.145.042-.26.125-.348a.447.447 0 0 1 .33-.13zm1.412 0c.178 0 .315.066.41.199.096.132.144.323.144.572 0 .576-.282 1.007-.846 1.293l-.193-.373c.187-.095.323-.205.41-.33a.746.746 0 0 0 .137-.453.464.464 0 0 1-.385-.112.42.42 0 0 1-.13-.318c0-.145.04-.26.124-.348a.447.447 0 0 1 .329-.13zm3.598 4.334-1.17-1.81-.553 1.81h-.852l.69-2.133.193-.479-.578-.939h.902l.497.809.448.677.168-.566.249-.92h.851l-.746 2.264.859 1.287zm4.882-1.772c0 .576-.134 1.03-.404 1.362-.265.327-.64.49-1.125.49a2.44 2.44 0 0 1-.572-.074l.08-.672c.154.034.282.05.386.05.282 0 .483-.093.603-.28.12-.19.18-.47.18-.839 0-.41-.058-.707-.174-.89-.112-.186-.286-.28-.522-.28a.627.627 0 0 0-.423.15.671.671 0 0 0-.211.404l-.386 2.35h-.895l.429-2.393-.498-1.157h.933l.249.709c.087-.257.218-.448.392-.572a.979.979 0 0 1 .597-.193c.443 0 .781.154 1.013.46.232.303.348.761.348 1.375zm2.945 1.772-1.169-1.81-.553 1.81h-.852l.69-2.133.193-.479-.578-.939h.902l.497.809.448.677.168-.566.248-.92h.852l-.746 2.264.858 1.287zm2.758-2.823-.075-.728h.895l.075.728v4.067h-.895zm1.41 2.151h.995c.24 0 .416-.078.529-.236.115-.158.174-.369.174-.634v-.466c0-.266-.059-.477-.174-.635-.113-.157-.289-.236-.53-.236h-.994v-.672h1.237c.444 0 .782.143 1.014.43.232.281.348.669.348 1.162v.367c0 .493-.116.883-.348 1.17-.232.28-.57.422-1.014.422h-1.237zm3.217-2.151-.075-.728h.896l.074.728v2.823h-.895zm2.865.671c0-.157.015-.298.044-.422a.906.906 0 0 1 .13-.305h-1.591v-.672h2.916v.672h-.485c-.079.178-.118.42-.118.727v2.152h-.896zm2.114-.671-.074-.728h.895l.075.728v2.823h-.896z" fill="#fff" style="stroke-width:.26458" transform="translate(-74.713 -97.686)"/>
</svg>
