<svg width="104.665" height="160.982" viewBox="0 0 27.692 42.592" xmlns="http://www.w3.org/2000/svg">
    <path d="M13.846.121c7.575-.095 13.727 6.102 13.727 13.727 0 1.896-.858 4.633-2.154 7.688-1.297 3.05-3.024 6.4-4.755 9.51A203.853 203.853 0 0 1 13.9 42.291c-.01.02-.024.039-.034.056-.008.01-.013.02-.019.028-.018-.025-.034-.053-.055-.084-.1-.156-.252-.386-.44-.681a200.96 200.96 0 0 1-6.323-10.564c-1.73-3.11-3.46-6.46-4.755-9.51C.974 18.481.12 15.744.12 13.848.12 6.224 6.316.12 13.846.12z" fill="#c01f14" stroke="#c01f14" stroke-width=".24"/>
    <path d="M94.838 101.8h3.21v3.737h-3.21Zm2.204 2.947v-2.156h-1.175v2.156zm4.765-2.299-1.222 3.09h-1.077l1.222-2.946h-1.99v-1.82h1.009v1.053h2.058zm.767.119h-.312v-.79h1.342v3.736h-1.006v-2.947zm4.48 1.389 1.077 1.557h-1.125l-1.365-1.964a.602.602 0 0 0-.095.312v1.676h-.985v-1.221c0-.336.05-.623.17-.839.095-.215.285-.36.502-.479l-.814-1.198h1.127l.886 1.27.598-1.27h1.127zm-12.576 6.278h-.577v-.791h1.583v2.132h-1.006zm2.972 2.012a3.063 3.063 0 0 0 1.148.263c.455 0 .815-.096 1.08-.287.261-.192.383-.48.383-.862v-1.917h.982v2.012c0 .408-.096.743-.313 1.006a2.1 2.1 0 0 1-.862.623c-.36.144-.768.216-1.223.216-.357 0-.717-.048-1.1-.12a6.842 6.842 0 0 1-1.056-.36v-3.353h.984v2.779zm.74-.6c.024-.143.024-.31.024-.478v-1.725h.984v1.51c0 .215-.023.406-.074.598a1.22 1.22 0 0 1-.19.431h-.815c.024-.096.048-.191.071-.335zm6.276-.047 1.08 1.557h-1.127l-1.366-1.964a.601.601 0 0 0-.095.311v1.677h-.981v-1.222c0-.335.047-.623.166-.838.096-.216.289-.36.503-.48l-.815-1.197h1.127l.886 1.27.598-1.27h1.128zm3.09-.886c0-.168-.047-.288-.142-.36-.098-.095-.217-.12-.384-.12h-1.127v-.79h1.198c.313 0 .575.048.791.168.215.095.384.263.503.455.12.192.167.431.167.718v2.396h-1.006z" fill="#fff" style="stroke-width:.26458" transform="translate(-87.532 -95.789)"/>
</svg>
