<svg width="116.151" height="123.669" viewBox="0 0 30.731 32.72" xmlns="http://www.w3.org/2000/svg">
    <path d="M120.844 130.292c0 3.7-6.727 13.862-6.727 13.862s-6.727-10.163-6.727-13.862c0-3.7 3.027-6.727 6.727-6.727s6.727 3.003 6.727 6.727z" fill="#f64a3f" style="stroke-width:.26458" transform="translate(-98.752 -111.434)"/>
    <path d="M116.79 130.697v-.84h1.68v.84zm.479 3.218-1.376-.956.49-.688 1.376.956zm-.898-5.631-.478-.688 1.376-.956.478.688zm-5.736 5.352v-2.239h-.28a.81.81 0 0 1-.595-.245.81.81 0 0 1-.245-.595v-.56a.81.81 0 0 1 .245-.594.81.81 0 0 1 .595-.245h1.62l2.577-1.539v5.317l-2.506-1.539h-.292v2.239zm4.477-1.994v-2.729c.179.172.317.377.414.618a1.98 1.98 0 0 1 0 1.493 1.745 1.745 0 0 1-.414.618z" fill="#fff" style="stroke-width:.26458" transform="translate(-98.752 -111.434)"/>
    <path fill="#f64a3f" style="stroke-width:.26458" d="M99.69 111.434h29.793v10.689H99.69z" transform="translate(-98.752 -111.434)"/>
    <path d="M104.933 118.337h.871v-2.388h-.734v-.528a3.31 3.31 0 0 0 .529-.137c.15-.054.292-.124.43-.211h.627v3.264h.753v.69h-2.476zm6.864-2.86v.74l-1.12 2.81h-.895l1.113-2.879h-1.803v-1.58h.808v.909zm.579.727-.075-.727h.896l.074.727v2.823h-.895zm1.41 2.152h.995c.24 0 .417-.079.529-.236.115-.158.174-.37.174-.635v-.466c0-.265-.059-.477-.174-.634-.112-.158-.289-.237-.53-.237h-.994v-.671h1.237c.444 0 .782.143 1.014.429.232.282.348.67.348 1.163v.367c0 .493-.116.883-.348 1.169-.232.282-.57.422-1.014.422h-1.237zm6.818-1.84c.008.849-.239 1.492-.74 1.927-.502.431-1.28.647-2.333.647h-.192l-.467-3.613h.852l.18 1.536a.645.645 0 0 0 .337-.374c.057-.165.084-.414.08-.746v-.41h.852v.392c-.008.456-.1.827-.273 1.113-.174.282-.481.497-.92.647l.086.715c.593-.038 1.016-.208 1.269-.51.253-.307.377-.732.373-1.275l-.013-1.088h.902zm2.75 2.511-1.168-1.81-.554 1.81h-.851l.69-2.132.192-.48-.578-.938h.902l.497.808.448.678.168-.566.249-.92h.851l-.746 2.263.858 1.287z" fill="#fff" style="stroke-width:.26458" transform="translate(-98.752 -111.434)"/>
</svg>
