<svg width="113.759" height="123.67" viewBox="0 0 30.098 32.721" xmlns="http://www.w3.org/2000/svg">
    <path d="M121.69 128.507c0 3.7-6.727 13.863-6.727 13.863s-6.726-10.163-6.726-13.863c0-3.7 3.027-6.727 6.727-6.727s6.727 3.003 6.727 6.727z" fill="#f64a3f" style="stroke-width:.26458" transform="translate(-99.914 -109.649)"/>
    <path d="M117.637 128.913v-.84h1.68v.84zm.478 3.218-1.375-.956.49-.688 1.375.956zm-.897-5.632-.478-.688 1.375-.956.479.688zm-5.737 5.352v-2.239h-.28a.81.81 0 0 1-.594-.245.81.81 0 0 1-.245-.594v-.56a.81.81 0 0 1 .245-.595.81.81 0 0 1 .594-.245h1.621l2.577-1.539v5.317l-2.507-1.539h-.291v2.239zm4.478-1.994v-2.728c.178.17.316.377.413.618a1.98 1.98 0 0 1 0 1.492 1.749 1.749 0 0 1-.413.618z" fill="#fff" style="stroke-width:.26458" transform="translate(-99.914 -109.649)"/>
    <path fill="#f64a3f" style="stroke-width:.26458" d="M99.914 109.649h30.058v10.689H99.914z" transform="translate(-99.914 -109.649)"/>
    <path d="M106.404 117.317c-.576 0-1.03-.187-1.362-.56l.392-.54c.282.273.578.41.89.41.202 0 .364-.044.484-.13a.444.444 0 0 0 .187-.38.491.491 0 0 0-.243-.448c-.157-.1-.441-.15-.852-.15v-.608c.348 0 .595-.048.74-.144a.47.47 0 0 0 .224-.416c0-.15-.046-.263-.137-.342a.544.544 0 0 0-.379-.125.889.889 0 0 0-.392.088 1.598 1.598 0 0 0-.367.267l-.429-.522c.39-.336.798-.504 1.225-.504.406 0 .73.095.97.286.24.187.36.45.36.79 0 .406-.22.7-.664.883v.025c.24.07.433.188.578.354a.886.886 0 0 1 .218.616c0 .236-.065.441-.193.615a1.206 1.206 0 0 1-.523.398 1.88 1.88 0 0 1-.727.137zm5.893-3.625v.74l-1.12 2.81h-.895l1.113-2.879h-1.803v-1.58h.808v.909zm.578.727-.074-.727h.895l.075.727v2.823h-.896zm1.41 2.152h.995c.241 0 .417-.079.53-.236.115-.158.173-.37.173-.635v-.466c0-.265-.058-.477-.174-.634-.112-.158-.288-.237-.529-.237h-.994v-.671h1.237c.444 0 .781.143 1.014.429.232.282.348.67.348 1.163v.366c0 .494-.116.884-.348 1.17-.233.281-.57.422-1.014.422h-1.237zm6.818-1.84c.008.85-.238 1.492-.74 1.927-.502.431-1.279.647-2.332.647h-.193l-.466-3.613h.852l.18 1.536a.644.644 0 0 0 .336-.373c.058-.166.085-.415.08-.747v-.41h.853v.392c-.008.456-.1.827-.274 1.113-.174.282-.48.497-.92.646l.087.716c.593-.038 1.016-.208 1.268-.51.253-.307.378-.732.374-1.275l-.013-1.088h.902zm2.751 2.511-1.168-1.81-.554 1.81h-.852l.69-2.132.193-.48-.578-.938h.902l.497.808.448.678.168-.566.248-.92h.852l-.746 2.263.858 1.287z" fill="#fff" style="stroke-width:.26458" transform="translate(-99.914 -109.649)"/>
</svg>
