<svg width="215.605" height="92.439" viewBox="0 0 57.045 24.458" xmlns="http://www.w3.org/2000/svg">
    <path fill="#f64a3f" style="stroke-width:.26458;fill:#c01f14;fill-opacity:1" d="M58.577 113.78h57.045v10.689H58.577z" transform="translate(-58.577 -113.78)"/>
    <path d="M65.92 117.823c.332 0 .593.095.784.286.195.187.292.481.292.883v2.382h-3.04v-3.55h.895zm.175 2.88v-1.754c0-.303-.14-.454-.417-.454h-.827v2.207zm1.59-2.152-.074-.728h.895l.075.728v2.823h-.896zm2.754 2.157c.282-.024.49-.12.628-.286.137-.165.22-.447.249-.845l.08-1.082h-2.164v-.672h3.128l-.031.579-.068.939c-.067 1.347-.651 2.027-1.754 2.04zm-1.256-1.069.124-.43h.777v3.409h-.901Zm7.15-.037c0 .576-.135 1.03-.404 1.362-.266.327-.64.49-1.126.49-.174 0-.365-.024-.572-.074l.08-.671c.154.033.283.05.386.05.282 0 .483-.094.604-.28.12-.191.18-.471.18-.84 0-.41-.058-.707-.174-.89-.112-.186-.286-.28-.523-.28a.628.628 0 0 0-.422.15.673.673 0 0 0-.212.404l-.385 2.35h-.896l.43-2.393-.498-1.157h.932l.25.71c.086-.258.217-.449.391-.573a.979.979 0 0 1 .597-.193c.444 0 .781.154 1.014.46.232.303.348.761.348 1.375zm3.43 1.1v.672h-2.954v-.672h1.642v-1.753c0-.303-.141-.454-.423-.454H76.81v-.672h1.468c.331 0 .592.095.783.286.191.187.286.481.286.883v1.71zm3.807-1.753c0-.303-.14-.454-.417-.454H81.53v-.672h1.866c.331 0 .592.095.783.286.195.187.292.481.292.883v2.382h-.901zm-2.077.727.124-.416h.777v2.114h-.901zm3.645-1.125-.074-.728h.895l.074.728v.97l-.006.392-.889.155zm1.61 0-.075-.728h.895l.075.728v.97l-.006.392-.89.155zm1.472 2.151h.908v-1.797c0-.15-.03-.255-.087-.317-.054-.062-.14-.101-.255-.118l-.436-.062.112-.66.778.1a.81.81 0 0 1 .578.323c.137.183.205.42.205.71v2.493H88.22zm3.65.006c.281-.024.49-.12.627-.286.137-.165.22-.447.249-.845l.08-1.082h-2.163v-.672h3.128l-.032.579-.068.939c-.066 1.347-.65 2.027-1.753 2.04zm-1.257-1.069.124-.43h.778v3.409h-.902zm6.94-1.816c.332 0 .593.095.783.286.195.187.293.481.293.883v2.382h-3.041v-3.55h.896zm.174 2.88v-1.754c0-.303-.139-.454-.417-.454h-.826v2.207zm3.518-2.88c.332 0 .593.1.784.299.195.199.292.5.292.901v2.35h-.901v-2.393c0-.324-.14-.485-.417-.485h-.833v2.879h-.896v-3.551zm1.504 3.047a.92.92 0 0 0 .354-.093.353.353 0 0 0 .162-.187c.029-.083.041-.199.037-.348v-2.419h1.884c.332 0 .593.095.784.286.19.187.286.481.286.883v2.382h-.895v-2.425c0-.303-.142-.454-.424-.454h-.733v1.629c0 .315-.05.566-.15.752a.93.93 0 0 1-.441.423c-.195.092-.458.152-.79.18zm7.585-1.268c0 .576-.135 1.03-.404 1.361-.266.328-.641.492-1.126.492a2.47 2.47 0 0 1-.572-.075l.08-.672c.154.034.283.05.386.05.282 0 .483-.093.603-.28.12-.19.18-.47.18-.839 0-.41-.057-.707-.173-.89-.112-.186-.286-.28-.523-.28a.627.627 0 0 0-.423.15.673.673 0 0 0-.21.404l-.386 2.35h-.896l.43-2.393-.498-1.157h.932l.25.709c.086-.257.217-.448.39-.572a.978.978 0 0 1 .598-.193c.444 0 .781.154 1.013.46.233.303.349.761.349 1.375z" fill="#fff" style="stroke-width:.26458" transform="translate(-58.577 -113.78)"/>
    <path d="M91.136 129.83c0 2.233-4.036 8.408-4.036 8.408s-4.036-6.127-4.036-8.409a4.03 4.03 0 0 1 4.036-4.036 4.03 4.03 0 0 1 4.036 4.036z" fill="#f64a3f" style="stroke-width:.26458;fill:#c01f14;fill-opacity:1" transform="translate(-58.577 -113.78)"/>
</svg>
