<svg width="117" height="102.438" viewBox="0 0 30.956 27.103" xmlns="http://www.w3.org/2000/svg">
    <path d="M103.95 132.079c0 2.282-4.132 8.553-4.132 8.553s-4.133-6.295-4.133-8.553c0-2.283 1.874-4.133 4.133-4.133 2.257-.048 4.133 1.85 4.133 4.133z" fill="#f64a3f" style="stroke-width:.26458;fill:#c01f14;fill-opacity:1" transform="translate(-84.34 -113.529)"/>
    <path d="M98.18 135.286v-1.944h-.39v-1.425c0-.142.05-.264.154-.366a.494.494 0 0 1 .365-.152h.778c.143 0 .264.05.365.152.1.102.153.224.153.366v1.425h-.389v1.944zm.518-4.146a.494.494 0 0 1-.365-.152.494.494 0 0 1-.154-.366.49.49 0 0 1 .154-.366.495.495 0 0 1 .365-.152c.143 0 .264.05.365.152a.493.493 0 0 1 .153.366c0 .142-.05.264-.153.366a.494.494 0 0 1-.365.152zm1.942 4.146v-1.555h-.775l.658-1.982a.452.452 0 0 1 .194-.26.558.558 0 0 1 .312-.09.57.57 0 0 1 .315.09.46.46 0 0 1 .19.26l.662 1.982h-.778v1.555zm.389-4.146a.494.494 0 0 1-.365-.152.504.504 0 0 1-.154-.366c0-.143.053-.265.154-.366a.495.495 0 0 1 .365-.152c.143 0 .264.05.368.152a.5.5 0 0 1 .15.366c0 .142-.05.264-.15.366a.505.505 0 0 1-.368.152z" fill="#fff" style="stroke-width:.26458" transform="translate(-84.34 -113.529)"/>
    <path fill="#f64a3f" style="stroke-width:.26458;fill:#c01f14;fill-opacity:1" d="M84.34 113.529h29.793v10.689H84.34z" transform="translate(-84.34 -113.529)"/>
    <path d="M91.733 117.571c.333 0 .592.096.783.286.196.187.293.481.293.883v2.382h-3.04v-3.55h.895zm.174 2.88v-1.754c0-.303-.137-.454-.415-.454h-.828v2.208zm1.59-2.152-.074-.728h.895l.076.728v.97l-.008.392-.889.155zm1.233 2.32a.918.918 0 0 0 .355-.094.352.352 0 0 0 .161-.186.983.983 0 0 0 .037-.349v-2.419h1.884c.333 0 .593.096.786.286.19.187.286.481.286.883v2.382h-.897v-2.425c0-.303-.14-.454-.424-.454h-.733v1.63c0 .314-.05.565-.148.752a.934.934 0 0 1-.442.422c-.195.092-.457.152-.79.18zm4.215-2.32-.074-.728h.894l.077.728v2.823h-.897zm3.035.398c0-.303-.14-.454-.418-.454h-1.212v-.672h1.455c.33 0 .593.096.783.286.193.187.291.481.291.883v2.382h-.9zm1.611-.398-.074-.728h.894l.074.728v.97l-.005.392-.889.155zm5.21.31c.008.85-.239 1.493-.741 1.929-.5.43-1.278.646-2.331.646h-.193l-.466-3.613h.852l.18 1.536a.642.642 0 0 0 .336-.373c.058-.166.085-.414.08-.746v-.41h.851v.391c-.008.456-.098.827-.272 1.113-.175.282-.482.498-.921.647l.087.715c.593-.037 1.016-.207 1.268-.51.254-.306.378-.731.375-1.274l-.013-1.089h.902z" fill="#fff" style="stroke-width:.26458" transform="translate(-84.34 -113.529)"/>
</svg>
