<svg width="136.605" height="92.439" viewBox="0 0 36.143 24.458" xmlns="http://www.w3.org/2000/svg">
    <path fill="#f64a3f" style="stroke-width:.26458;fill:#c01f14;fill-opacity:1" d="M65.459 112.71h36.143v10.689H65.459z" transform="translate(-65.459 -112.71)"/>
    <path d="M74.481 117.79c.008.85-.238 1.493-.74 1.929-.502.43-1.279.646-2.332.646h-.192l-.467-3.613h.852l.18 1.536a.644.644 0 0 0 .336-.373c.058-.166.085-.414.08-.746v-.41h.853v.391c-.008.456-.1.827-.274 1.113-.174.282-.48.498-.92.647l.087.715c.593-.037 1.016-.207 1.269-.51.252-.306.377-.731.373-1.274l-.013-1.089h.902zm.614-.31-.075-.728h.896l.075.728v.97l-.007.392-.889.155zm2.76 2.823-.112-.665a1.797 1.797 0 0 1-.982.784l-.33-.71c.58-.182.974-.472 1.181-.87v-1.014c0-.15-.023-.255-.068-.317-.046-.062-.123-.101-.23-.118l-.392-.056.112-.66.734.1c.252.033.439.129.56.286.12.154.18.375.18.666v1.181l.199 1.393zm1.348-.671h.908v-1.798c0-.149-.03-.255-.087-.317-.054-.062-.14-.101-.255-.118l-.435-.062.111-.66.778.1a.81.81 0 0 1 .578.324c.137.182.205.418.205.709v2.493h-1.803zm5.174-1.754c0-.303-.139-.454-.416-.454h-1.213v-.672h1.455c.332 0 .593.096.784.286.194.187.292.481.292.884v2.381h-.902zm4.423 1.754v.671h-2.954v-.671h1.642v-1.754c0-.303-.14-.454-.423-.454h-1.219v-.672h1.468c.332 0 .593.096.784.286.19.187.286.481.286.884v1.71zm3.507-2.88c-.004.825-.037 1.45-.1 1.872a1.968 1.968 0 0 1-.472 1.063c-.257.287-.672.486-1.244.598l-1.33.26-.125-.702.989-.187-.715-2.904h.895l.628 2.705a.826.826 0 0 0 .405-.416c.082-.187.132-.413.149-.678.02-.266.03-.667.03-1.206v-.405zm4.012 1.779c0 .576-.135 1.03-.404 1.362-.266.327-.64.491-1.126.491-.174 0-.365-.025-.572-.075l.08-.671c.154.033.283.05.387.05.281 0 .483-.094.603-.28.12-.191.18-.471.18-.84 0-.41-.058-.707-.174-.89-.112-.186-.286-.279-.522-.279a.628.628 0 0 0-.423.15.673.673 0 0 0-.212.403l-.385 2.351h-.896l.43-2.394-.498-1.157h.933l.249.71c.087-.258.217-.449.391-.573a.98.98 0 0 1 .597-.192c.444 0 .782.153 1.014.46.232.302.348.76.348 1.374z" fill="#fff" style="stroke-width:.26458" transform="translate(-65.459 -112.71)"/>
    <path d="M87.566 128.758c0 2.235-4.036 8.41-4.036 8.41s-4.036-6.128-4.036-8.41a4.03 4.03 0 0 1 4.036-4.036 4.03 4.03 0 0 1 4.036 4.036z" fill="#f64a3f" style="stroke-width:.26458;fill:#c01f14;fill-opacity:1" transform="translate(-65.459 -112.71)"/>
</svg>
