<svg width="178.039" height="133.313" viewBox="0 0 47.106 35.272" xmlns="http://www.w3.org/2000/svg">
    <path d="M97.354 120.982c0 2.228-4.025 8.385-4.025 8.385s-4.025-6.11-4.025-8.385a4.018 4.018 0 0 1 4.025-4.025 4.018 4.018 0 0 1 4.025 4.025zM69.776 94.095h44.643v19.841H69.776z" fill="#f64a3f" style="stroke-width:.26458;fill:#c01f14;fill-opacity:1" transform="translate(-69.776 -94.095)"/>
    <path d="M79.443 98.144c.33 0 .59.095.78.285.195.186.292.48.292.88v2.375h-3.032v-3.54h.893zm.173 2.87v-1.748c0-.302-.138-.452-.415-.452h-.825v2.2zm1.586-2.145-.074-.725h.893l.074.725v.968l-.006.39-.887.155zm3.025.397c0-.302-.139-.452-.416-.452h-1.209v-.67h1.451c.33 0 .591.095.781.285.195.186.292.48.292.88v2.375h-.9zm1.607-.397-.074-.725h.893l.074.725v.968l-.006.39-.887.155zm1.605 0-.075-.725h.893l.075.725v.968l-.006.39-.887.155zm3.557 1.365.82 1.45H88.85v-.67h1.687l-1.618-2.87h.899l.7 1.246.508-1.246h.881zm2.486.948a.918.918 0 0 0 .353-.093.354.354 0 0 0 .161-.186.962.962 0 0 0 .037-.347v-2.412h1.88c.33 0 .59.095.78.285.19.186.286.48.286.88v2.375h-.893v-2.418c0-.302-.14-.452-.422-.452h-.732v1.624c0 .314-.05.564-.148.75a.927.927 0 0 1-.44.422c-.195.09-.457.15-.788.18zm5.622-1.916c0-.302-.139-.452-.416-.452H97.48v-.67h1.451c.33 0 .591.095.781.285.195.186.292.48.292.88v2.375h-.9zm2.86.273c0-.157.014-.298.044-.422a.908.908 0 0 1 .13-.303h-1.588v-.67h2.908v.67h-.483c-.079.177-.118.42-.118.725v2.145h-.893zm5.698-.36c.008.848-.237 1.489-.738 1.922-.5.43-1.275.646-2.325.646h-.192l-.465-3.603h.85l.18 1.531a.643.643 0 0 0 .334-.372c.058-.165.085-.413.08-.744v-.409h.85v.39c-.008.455-.1.826-.273 1.11-.173.282-.48.497-.918.646l.087.713c.592-.038 1.013-.207 1.265-.509.252-.306.376-.73.372-1.271l-.012-1.085h.899zm-29.712 7.167c.33 0 .591.095.781.285.195.186.292.48.292.88v2.375H75.99v-3.54h.893zm.174 2.87v-1.748c0-.302-.139-.452-.416-.452h-.824v2.2zm1.585-2.145-.074-.725h.893l.074.725v.968l-.006.39-.886.155zm1.469 2.146h.905v-1.792c0-.149-.03-.254-.087-.317-.053-.061-.138-.1-.254-.117l-.434-.062.111-.657.776.099c.252.033.444.14.576.322.137.182.205.418.205.707v2.486h-1.798zm2.3 0h.991c.24 0 .416-.079.527-.236.116-.157.174-.368.174-.632v-.465c0-.265-.058-.476-.174-.633-.111-.157-.287-.235-.527-.235h-.992v-.67h1.234c.442 0 .78.143 1.01.428.232.28.348.667.348 1.16v.365c0 .492-.116.88-.347 1.166-.232.28-.569.421-1.01.421h-1.235zm3.207-2.146-.074-.725h.892l.075.725v2.815h-.893zm2.857.67c0-.157.015-.298.043-.422a.907.907 0 0 1 .13-.303h-1.587v-.67h2.908v.67h-.483c-.079.177-.118.42-.118.725v2.145h-.893zm5.26-1.395c.33 0 .59.095.78.285.195.186.292.48.292.88v2.375h-3.032v-3.54h.893zm.173 2.87v-1.748c0-.302-.139-.452-.416-.452h-.824v2.2zm3.508-2.87c.33 0 .591.1.781.298.195.198.292.498.292.899v2.343h-.9V107.5c0-.322-.138-.483-.415-.483h-.83v2.87h-.894v-3.54zm1.499 3.038a.92.92 0 0 0 .353-.093.352.352 0 0 0 .161-.186 1 1 0 0 0 .038-.347v-2.412h1.878c.331 0 .591.095.781.285.19.186.286.48.286.88v2.375h-.893v-2.418c0-.302-.14-.452-.422-.452h-.731v1.624c0 .314-.05.564-.15.75a.928.928 0 0 1-.44.422c-.194.09-.456.15-.787.18zm7.563-1.265c0 .575-.135 1.028-.403 1.358-.265.327-.639.49-1.123.49-.173 0-.363-.025-.57-.074l.08-.67c.154.033.282.05.385.05.281 0 .482-.093.601-.28.12-.19.18-.469.18-.836 0-.41-.058-.705-.173-.887-.112-.186-.286-.28-.521-.28a.626.626 0 0 0-.422.15.67.67 0 0 0-.21.403l-.385 2.343h-.893l.428-2.387-.496-1.153h.93l.248.707c.087-.256.217-.447.39-.57a.975.975 0 0 1 .596-.193c.442 0 .779.153 1.01.459.232.302.348.759.348 1.37zm.617-1.048-.074-.725h.893l.074.725v2.815h-.893z" fill="#fff" style="stroke-width:.26458" transform="translate(-69.776 -94.095)"/>
</svg>
