<svg width="160.61" height="123.89" viewBox="0 0 42.494 32.779" xmlns="http://www.w3.org/2000/svg">
    <path fill="#f64a3f" style="stroke-width:.26458;fill:#c01f14;fill-opacity:1" d="M86.914 96.055h42.493v10.689H86.914z" transform="translate(-86.914 -96.055)"/>
    <path d="m91.783 100.825-.074-.727h.894l.074.727v4.067h-.894zm1.608 0-.074-.727h.895l.076.727v.97l-.008.392-.889.156zm4.551-.727c-.002.825-.037 1.449-.098 1.872a1.976 1.976 0 0 1-.473 1.063c-.257.286-.672.485-1.244.597l-1.33.261-.125-.703.99-.186-.718-2.904h.897l.627 2.705a.817.817 0 0 0 .405-.417c.082-.186.133-.412.148-.678.022-.265.032-.667.032-1.206v-.404zm.643.727-.077-.727h.897l.074.727v.97l-.005.392-.889.156zm2.865.672c0-.157.014-.298.043-.423a.956.956 0 0 1 .13-.305h-1.59v-.671h2.915v.671h-.484c-.08.179-.12.421-.12.728v2.152h-.894zm2.114-.672-.076-.727h.897l.074.727v2.824h-.894zm4.98 1.051c0 .577-.135 1.03-.405 1.362-.265.328-.64.491-1.124.491-.175 0-.366-.024-.575-.074l.082-.672c.154.033.28.05.387.05.28 0 .481-.093.603-.28.12-.19.18-.47.18-.84 0-.41-.058-.706-.175-.889-.11-.186-.285-.28-.52-.28a.628.628 0 0 0-.424.15.664.664 0 0 0-.212.404l-.386 2.35h-.894l.428-2.393-.497-1.157h.931l.249.709c.087-.257.22-.448.391-.572a.98.98 0 0 1 .598-.193c.445 0 .78.153 1.014.46.232.303.349.76.349 1.374zm1.595 1.269a.904.904 0 0 0 .355-.093.35.35 0 0 0 .161-.187.982.982 0 0 0 .037-.348v-2.42h1.887c.33 0 .592.096.783.287.19.186.286.48.286.883v2.382h-.897v-2.426c0-.302-.14-.454-.421-.454h-.736v1.63c0 .315-.05.566-.148.752a.933.933 0 0 1-.442.423c-.195.091-.457.151-.788.18zm5.472-1.648c0-.157.016-.298.042-.423a.9.9 0 0 1 .132-.305h-1.592v-.671h2.915v.671h-.484c-.08.179-.119.421-.119.728v2.152h-.894zm5.485.38c0 .576-.135 1.03-.405 1.361-.265.328-.64.491-1.125.491-.174 0-.365-.024-.571-.074l.08-.672c.153.033.282.05.385.05.28 0 .482-.093.604-.28.119-.19.18-.47.18-.84 0-.41-.059-.706-.175-.889-.111-.186-.286-.28-.521-.28a.628.628 0 0 0-.424.15.678.678 0 0 0-.211.404l-.386 2.35h-.895l.429-2.393-.498-1.157h.934l.25.709c.084-.257.216-.448.39-.572a.973.973 0 0 1 .596-.193c.444 0 .783.153 1.013.46.233.303.35.76.35 1.374zm3.56-1.78c-.004.826-.036 1.45-.1 1.873a1.973 1.973 0 0 1-.47 1.063c-.26.286-.673.485-1.247.597l-1.33.261-.125-.703.99-.186-.715-2.904h.894l.63 2.705a.823.823 0 0 0 .402-.417c.085-.186.135-.412.151-.678.021-.265.032-.667.032-1.206v-.404z" fill="#fff" style="stroke-width:.26458" transform="translate(-86.914 -96.055)"/>
    <path d="M114.926 114.833c0 3.736-6.766 14-6.766 14s-6.762-10.303-6.762-14c0-3.736 3.066-6.764 6.762-6.764 3.696-.079 6.766 3.028 6.766 6.764z" fill="#f64a3f" style="stroke-width:.26458;fill:#c01f14;fill-opacity:1" transform="translate(-86.914 -96.055)"/>
    <path d="M107.345 118.003h.932v-2.798h-.932zm.466-3.73a.444.444 0 0 0 .33-.135.45.45 0 0 0 .136-.332.45.45 0 0 0-.135-.332.444.444 0 0 0-.331-.134.454.454 0 0 0-.466.466.454.454 0 0 0 .466.466zm0 6.062a4.554 4.554 0 0 1-1.82-.367 4.67 4.67 0 0 1-2.476-2.478 4.52 4.52 0 0 1-.369-1.818 4.671 4.671 0 0 1 2.844-4.297 4.549 4.549 0 0 1 1.821-.367 4.53 4.53 0 0 1 1.818.367 4.704 4.704 0 0 1 1.481.997c.421.42.752.913.998 1.48.243.568.368 1.174.368 1.82 0 .645-.125 1.251-.368 1.818a4.714 4.714 0 0 1-.998 1.481c-.42.42-.912.752-1.481.997a4.532 4.532 0 0 1-1.818.367zm0-.932c1.042 0 1.923-.362 2.646-1.085.722-.723 1.085-1.605 1.085-2.646 0-1.042-.363-1.924-1.085-2.647-.723-.723-1.604-1.085-2.646-1.085-1.042 0-1.924.362-2.648 1.085-.723.723-1.083 1.605-1.083 2.647 0 1.041.36 1.923 1.083 2.646.724.723 1.606 1.085 2.648 1.085z" fill="#fff" style="stroke-width:.26458" transform="translate(-86.914 -96.055)"/>
</svg>
