<svg width="160.605" height="92.439" viewBox="0 0 42.493 24.458" xmlns="http://www.w3.org/2000/svg">
    <path fill="#f64a3f" style="stroke-width:.26458" d="M89.77 84.509h42.493v10.689H89.77z" transform="translate(-89.77 -84.51)"/>
    <path d="M97.558 89.951c0-.157.015-.298.044-.423a.91.91 0 0 1 .13-.305h-1.591v-.671h2.916v.671h-.485c-.079.179-.118.421-.118.728v2.152h-.896zm2.115-.671-.075-.728h.895l.075.728v2.823h-.895zm4.98 1.05c0 .577-.135 1.03-.405 1.362-.265.328-.64.492-1.126.492-.174 0-.364-.025-.572-.075l.081-.672c.154.034.282.05.386.05.282 0 .483-.093.603-.28.12-.19.18-.47.18-.84 0-.41-.058-.706-.174-.888-.112-.187-.286-.28-.522-.28a.627.627 0 0 0-.423.149.672.672 0 0 0-.211.404l-.386 2.35h-.895l.429-2.393-.498-1.157h.933l.249.709c.087-.257.217-.448.392-.572a.978.978 0 0 1 .597-.193c.443 0 .78.153 1.013.46.232.303.348.76.348 1.374zm.619-1.05-.075-.728h.895l.075.728v.97l-.006.391-.89.156zm3.568 1.368.82 1.455h-2.971v-.672h1.69l-1.623-2.879h.902l.703 1.25.51-1.25h.883zm2.492.95a.92.92 0 0 0 .354-.092.353.353 0 0 0 .162-.187.968.968 0 0 0 .037-.348v-2.419h1.884c.332 0 .593.095.784.286.19.187.286.481.286.883v2.382h-.895v-2.425c0-.303-.141-.455-.423-.455h-.734v1.63c0 .315-.05.566-.15.752a.93.93 0 0 1-.44.423c-.195.091-.459.151-.79.18zm5.47-1.647c0-.157.015-.298.044-.423a.911.911 0 0 1 .13-.305h-1.591v-.671h2.916v.671h-.485c-.078.179-.118.421-.118.728v2.152h-.895zm5.485.38c0 .576-.134 1.03-.404 1.361-.265.328-.64.492-1.125.492-.175 0-.365-.025-.572-.075l.08-.672c.154.034.282.05.386.05.282 0 .483-.093.603-.28.12-.19.18-.47.18-.84 0-.41-.058-.706-.174-.888-.112-.187-.286-.28-.522-.28a.628.628 0 0 0-.423.149.673.673 0 0 0-.211.404l-.386 2.35h-.895l.429-2.393-.498-1.157h.933l.249.709c.087-.257.217-.448.391-.572a.98.98 0 0 1 .598-.193c.443 0 .78.153 1.013.46.232.303.348.76.348 1.374zm3.561-1.779c-.004.825-.037 1.449-.1 1.872a1.97 1.97 0 0 1-.472 1.063c-.257.286-.672.485-1.244.597l-1.33.261-.125-.702.989-.187-.715-2.904h.895l.628 2.705a.825.825 0 0 0 .404-.417c.083-.186.133-.412.15-.678.02-.265.03-.667.03-1.206v-.404z" fill="#fff" style="stroke-width:.26458" transform="translate(-89.77 -84.51)"/>
    <path d="M115.053 100.558c0 2.234-4.036 8.409-4.036 8.409s-4.037-6.127-4.037-8.41a4.03 4.03 0 0 1 4.037-4.036 4.03 4.03 0 0 1 4.036 4.037z" fill="#f64a3f" style="stroke-width:.26458" transform="translate(-89.77 -84.51)"/>
</svg>
