<svg width="154.782" height="98.353" viewBox="0 0 40.952 26.022" xmlns="http://www.w3.org/2000/svg">
    <path fill="#f64a3f" style="stroke-width:.26458;fill:#c01f14;fill-opacity:1" d="M87.445 118.353h39.289v11.161H87.445z" transform="translate(-85.782 -118.353)"/>
    <path d="M92.626 125.44a.918.918 0 0 0 .354-.093.35.35 0 0 0 .162-.186.977.977 0 0 0 .037-.347v-2.412h1.878c.331 0 .593.095.78.285.191.186.287.48.287.88v2.376h-.892v-2.419c0-.301-.14-.452-.423-.452h-.73v1.624c0 .314-.05.564-.149.75a.932.932 0 0 1-.442.422c-.193.091-.455.151-.785.18zm4.204-2.313-.074-.725h.892l.074.725v2.816h-.892zm1.474-.725h.9l.304 2.809c.428-.042.735-.167.918-.378.18-.215.267-.52.259-.912v-.192a.728.728 0 0 0-.156-.471c-.098-.133-.249-.205-.452-.217l-.305-.019.069-.688.378.019c.384.02.699.14.942.36.249.214.379.522.392.923l.005.174c.026.727-.21 1.267-.707 1.618-.492.347-1.2.54-2.132.577zm3.794.725-.074-.725h.891l.075.725v2.816h-.892zm4.537-.725c-.005.823-.037 1.445-.1 1.866a1.966 1.966 0 0 1-.471 1.06c-.257.286-.67.484-1.24.596l-1.326.26-.125-.7.987-.186-.714-2.896h.894l.624 2.697a.827.827 0 0 0 .405-.415c.082-.186.132-.411.148-.676.022-.265.032-.665.032-1.203v-.403zm.59 2.871h1.252c.24 0 .426-.077.558-.23.138-.157.204-.371.204-.644v-.46c0-.26-.058-.468-.18-.626-.114-.16-.286-.241-.513-.241h-.447l-.112.527a.646.646 0 0 0-.018.155.32.32 0 0 0 .093.242.692.692 0 0 0 .304.124l-.143.558c-.368-.008-.635-.091-.8-.248-.166-.157-.248-.37-.248-.639 0-.1.008-.19.024-.273l.249-1.116h1.31c.428 0 .764.143 1.01.428.243.285.365.67.365 1.153v.372c0 .496-.13.885-.391 1.166-.26.28-.612.422-1.053.422h-1.464zm6.163-1.749c0-.301-.14-.452-.416-.452h-1.209v-.67h1.45c.33 0 .593.095.78.285.196.186.294.48.294.88v2.376h-.9zm2.86.273c0-.157.013-.298.042-.421a.954.954 0 0 1 .13-.304h-1.585v-.67h2.907v.67h-.484c-.08.177-.119.42-.119.725v2.146h-.891zm4.03-1.395c.33 0 .59.1.78.298.195.198.29.498.29.899v2.344h-.896v-2.388c0-.322-.14-.483-.416-.483h-.83v2.87h-.895v-3.54z" fill="#fff" style="stroke-width:.26458" transform="translate(-85.782 -118.353)"/>
    <path d="M110.38 135.847c0 2.275-4.123 8.528-4.123 8.528s-4.12-6.277-4.12-8.528c0-2.276 1.869-4.12 4.12-4.12 2.275-.049 4.122 1.844 4.122 4.12z" fill="#f64a3f" style="stroke-width:.26458;fill:#c01f14;fill-opacity:1" transform="translate(-85.782 -118.353)"/>
    <path d="M106.233 137.619a.286.286 0 0 1-.119.12 1.018 1.018 0 0 1-.72.287c-.261 0-.526-.096-.716-.288-.408-.407-.408-1.054 0-1.437l.119-.12c-.096-.167-.194-.311-.265-.479v-.024a1.588 1.588 0 0 0-.31 2.491c.31.312.694.456 1.125.456.431 0 .815-.168 1.127-.455.095-.096.167-.192.238-.312h-.024a4.29 4.29 0 0 1-.455-.24z" fill="#fff" style="stroke-width:.26458" transform="translate(-85.782 -118.353)"/>
    <path d="M107.622 136.253a1 1 0 0 0-.621.288.44.44 0 0 1-.289.12.394.394 0 0 1-.286-.12l-.529-.527a.421.421 0 0 1 0-.6l.027-.023c.143-.144.238-.36.285-.575a2.532 2.532 0 0 0-.597-.263c-.432-.12-.649-.025-.768.095-.19.192-.19.551-.024.983.167.383.456.814.84 1.173.359.36.79.671 1.174.839.214.096.405.144.574.144a.565.565 0 0 0 .408-.144c.119-.12.214-.336.095-.767a1.606 1.606 0 0 0-.289-.623z" fill="#fff" style="stroke-width:.26458" transform="translate(-85.782 -118.353)"/>
    <path d="M108.39 134.027c-.217-.216-.503-.312-.815-.312a1.103 1.103 0 0 0-1.101 1.03 1.403 1.403 0 0 1-.36.839l-.024.023a.147.147 0 0 0 0 .192l.527.527a.181.181 0 0 0 .095.048.182.182 0 0 0 .095-.048c.217-.215.53-.359.863-.383a1.18 1.18 0 0 0 .72-.336c.214-.215.336-.503.336-.814 0-.263-.122-.551-.336-.766z" fill="#fff" style="stroke-width:.26458" transform="translate(-85.782 -118.353)"/>
</svg>
