<svg width="138.716" height="126.947" viewBox="0 0 36.701 33.588" xmlns="http://www.w3.org/2000/svg">
    <path d="M111.453 131.182c0 2.234-4.037 8.408-4.037 8.408s-4.035-6.126-4.035-8.408a4.03 4.03 0 0 1 4.035-4.037 4.03 4.03 0 0 1 4.037 4.037zm-13.046-25.179h27.361v19.899H98.407z" fill="#f64a3f" style="stroke-width:.26458" transform="translate(-89.067 -106.003)"/>
    <path d="M104.04 113.092a.933.933 0 0 0 .354-.093.35.35 0 0 0 .162-.186.982.982 0 0 0 .037-.349v-2.419h1.884c.33 0 .592.096.783.286.19.187.286.481.286.883v2.382h-.895v-2.425c0-.303-.14-.454-.423-.454h-.733v1.63c0 .314-.05.565-.15.752a.922.922 0 0 1-.443.423c-.193.09-.457.15-.788.18zm5.638-1.921c0-.303-.14-.454-.418-.454h-1.212v-.672h1.456c.33 0 .592.096.783.287.195.186.293.48.293.883v2.381h-.902zm1.611-.398-.074-.728h.897l.074.728v.97l-.008.392-.889.155zm4.98 1.05c0 .577-.135 1.031-.402 1.363-.268.327-.64.491-1.127.491-.175 0-.366-.025-.572-.075l.082-.671c.154.033.28.05.384.05.283 0 .484-.094.603-.28.122-.191.18-.47.18-.84 0-.41-.058-.707-.172-.889-.114-.187-.286-.28-.524-.28a.633.633 0 0 0-.423.15.677.677 0 0 0-.212.404l-.384 2.35h-.897l.43-2.394-.498-1.157h.934l.248.71c.088-.258.217-.448.392-.573a.981.981 0 0 1 .598-.193c.442 0 .78.154 1.013.46.233.303.347.761.347 1.375zm4.22-.74c.008.85-.238 1.493-.738 1.929-.503.43-1.28.646-2.334.646h-.193l-.466-3.613h.852l.18 1.536a.643.643 0 0 0 .336-.373c.058-.166.085-.414.082-.746v-.41h.852v.391c-.008.456-.1.827-.275 1.114-.172.281-.479.497-.918.646l.085.715c.592-.037 1.016-.207 1.27-.51.25-.306.375-.731.373-1.274l-.014-1.089h.903zm-13.83 7.165c.331 0 .593.095.783.286.196.186.294.48.294.882v2.382h-3.043v-3.55h.897zm.175 2.879v-1.754c0-.303-.14-.454-.418-.454h-.826v2.208zm1.59-2.152-.074-.727h.894l.074.727v.97l-.005.392-.889.155zm3.57 1.368.82 1.455h-2.974v-.671h1.693l-1.625-2.88h.903l.703 1.25.508-1.25h.884zm1.462.784h1.257c.24 0 .426-.077.561-.23.135-.158.204-.374.204-.647v-.46c0-.262-.061-.47-.18-.628-.117-.162-.289-.243-.516-.243h-.447l-.114.529a.812.812 0 0 0-.019.155c0 .104.032.185.096.243.06.054.161.095.304.124l-.143.56c-.37-.008-.637-.091-.804-.25-.164-.157-.249-.37-.249-.64 0-.1.01-.19.027-.273l.248-1.12h1.313c.43 0 .767.143 1.013.43.243.286.368.671.368 1.156v.373c0 .498-.133.887-.394 1.17-.26.281-.612.422-1.056.422h-1.469zm5.44-2.88c.33 0 .593.1.783.299.196.199.294.5.294.902v2.35h-.902v-2.394c0-.323-.14-.485-.418-.485h-.834v2.88h-.894v-3.552z" fill="#fff" style="stroke-width:.26458" transform="translate(-89.067 -106.003)"/>
</svg>
