<svg xmlns="http://www.w3.org/2000/svg" viewBox="0 0 35.19 27.718" height="104.76" width="133">
    <path style="fill:#c01f14;stroke-width:.26458332;fill-opacity:1" d="M108.305 119.637c0 3.021-5.495 11.305-5.495 11.305s-5.496-8.284-5.496-11.305c0-3.022 2.474-5.496 5.496-5.496 3.048.03 5.495 2.477 5.495 5.496" class="st2" transform="translate(-85.215 -103.224)"/>
    <path style="fill:#c01f14;stroke-width:.26458332" class="st2" d="M85.215 103.224h35.19v9.149h-35.19z" transform="translate(-85.215 -103.224)"/>
    <path style="fill:#fff" d="M979.44 266.59v1.74h-2.3v11.99h-2.17v-11.99h-6.53v-1.74zm3.51 1.74h-1.6v-1.74h3.76v13.73h-2.17v-11.99zm7.32 3.26c.08-.64.26-1.24.54-1.8s.62-1 1-1.3c.03-.02.11-.08.23-.16l-.02-.04c-.35.06-.79.16-1.31.3-.52.14-1 .28-1.44.43l-.5-1.63c.9-.31 1.91-.56 3.03-.76 1.12-.19 2.15-.29 3.09-.29 1.85 0 3.26.49 4.24 1.47.97.98 1.47 2.43 1.47 4.33v8.18h-5.65v-1.74h3.5v-6.69c0-1.22-.28-2.15-.83-2.79-.55-.64-1.35-.96-2.4-.96-.75 0-1.38.29-1.89.87-.51.58-.82 1.37-.93 2.36l-1.04 8.94h-2.13zm15.25-3.26H1003v-1.74h4.68v7.66h-2.17v-5.92zm12.1 5.66 3.62 5.23v1.1h-10.16v-1.75h7.38l-8.2-11.98h2.44l3.66 5.52 3.04-5.52h2.44zm22.69-6.1c.9.87 1.35 2.19 1.35 3.96v8.47h-2.16l-.01-8.6c0-1.19-.25-2.05-.76-2.59s-1.33-.8-2.46-.8h-1.95c-.26.42-.46.96-.61 1.61-.15.66-.23 1.33-.23 2.02v4.63c0 1.26-.3 2.21-.9 2.87-.6.65-1.47.98-2.61.98-.33 0-.78-.04-1.34-.1v-1.74c.25.03.52.05.8.05.68 0 1.17-.17 1.47-.52.3-.35.46-.9.46-1.65v-4.33c0-.71.09-1.41.28-2.11.19-.7.44-1.26.77-1.68h-2.58v-1.74h6.4c1.82-.03 3.18.4 4.08 1.27zm14.81-1.3v1.74h-2.3v11.99h-2.17v-11.99h-6.53v-1.74zm3.78 5c.08-.64.26-1.24.54-1.8s.62-1 1-1.3c.03-.02.11-.08.23-.16l-.02-.04c-.35.06-.79.16-1.31.3-.52.14-1 .28-1.44.43l-.5-1.63c.9-.31 1.91-.56 3.03-.76 1.12-.19 2.15-.29 3.09-.29 1.85 0 3.26.49 4.24 1.47.97.98 1.47 2.43 1.47 4.33v8.18h-5.65v-1.74h3.5v-6.69c0-1.22-.28-2.15-.83-2.79-.55-.64-1.35-.96-2.4-.96-.75 0-1.38.29-1.89.87-.51.58-.82 1.37-.93 2.36l-1.04 8.94h-2.13zm23.8-5v8.23c0 1.24-.25 2.29-.76 3.15-.51.86-1.22 1.52-2.14 1.97-.92.45-1.99.67-3.2.67-1.56 0-3.19-.32-4.88-.97l.52-1.61c1.35.52 2.57.82 3.65.89-.58-.67-.96-1.44-1.15-2.32l-2.27-10.01h2.17l2.23 10.13c.1.47.21.87.32 1.2.11.33.24.63.41.9.93-.21 1.66-.65 2.19-1.32.52-.67.79-1.53.79-2.6v-8.31z" class="st8" transform="translate(-253.942 -67.95) scale(.26458)"/>
</svg>
