<svg width="55.936" height="85.813" viewBox="0 0 14.8 22.704" xmlns="http://www.w3.org/2000/svg">
    <path d="M101.639 128.126c0 4.06-7.4 15.304-7.4 15.304s-7.4-11.244-7.4-15.304c0-4.06 3.34-7.4 7.4-7.4 4.06-.048 7.4 3.34 7.4 7.4z" fill="#f64a3f" style="stroke-width:.26458;fill:#c01f14;fill-opacity:1" transform="translate(-86.84 -120.725)"/>
    <path d="M98.13 133.316v-5.598a1.02 1.02 0 0 0-1.009-1.033H91.5c-.6 0-1.009.457-1.009 1.033v5.598c0 .577.457 1.01 1.034 1.01h5.621a.98.98 0 0 0 .985-1.01zm-1.057-.048h-5.55v-5.502h5.55zm-1.393-10.907c0-.72 1.057-.745 1.057 0l-.024 2.234.576-.696c.385-.433 1.081.168.649.648l-1.394 1.634c-.216.216-.504.216-.72 0l-1.37-1.658c-.432-.48.265-1.105.65-.648l.552.696zm-3.845 3.436c0 .721 1.057.745 1.057 0l-.024-2.234.576.697c.385.432 1.081-.169.649-.649l-1.393-1.634c-.217-.216-.505-.216-.721 0l-1.37 1.658c-.432.48.264 1.105.649.649l.553-.697z" fill="#fff" style="stroke-width:.26458" transform="translate(-86.84 -120.725)"/>
    <path d="M96.81 130.913a.19.19 0 0 1-.192.192h-1.25a.19.19 0 0 1-.192-.192v-1.345c0-.144.12-.265.264-.265h1.106c.144 0 .264.12.264.265z" fill="#fff" style="stroke-width:.26458" transform="translate(-86.84 -120.725)"/>
    <path d="M96.498 131.057h-.48v1.826c0 .312.48.312.48 0zm-.554 0h-.48v1.826c0 .312.48.312.48 0zm.049-1.85a.36.36 0 1 0 0-.72.36.36 0 0 0 0 .72zm-.888 1.706a.19.19 0 0 1-.192.192h-1.25a.19.19 0 0 1-.192-.192v-1.345c0-.144.12-.265.264-.265h1.105c.145 0 .265.12.265.265z" fill="#fff" style="stroke-width:.26458" transform="translate(-86.84 -120.725)"/>
    <path d="M94.791 131.057h-.48v1.826c0 .313.48.313.48 0zm-.53 0h-.48v1.826c0 .313.48.313.48 0zm.051-1.85a.36.36 0 1 0 0-.72.36.36 0 0 0 0 .72zm-.914 1.705a.19.19 0 0 1-.192.192h-1.25a.19.19 0 0 1-.192-.192v-1.345c0-.145.12-.265.265-.265h1.105c.144 0 .264.12.264.265z" fill="#fff" style="stroke-width:.26458" transform="translate(-86.84 -120.725)"/>
    <path d="M93.11 131.056h-.48v1.826c0 .313.48.313.48 0zm-.553 0h-.48v1.826c0 .313.48.313.48 0zm.049-1.849a.36.36 0 1 0 0-.72.36.36 0 0 0 0 .72z" fill="#fff" style="stroke-width:.26458" transform="translate(-86.84 -120.725)"/>
</svg>
