<svg width="156.374" height="206.269" viewBox="0 0 41.373 54.575" xmlns="http://www.w3.org/2000/svg">
    <path fill="#f64a3f" style="stroke-width:.26458;fill:#c01f14;fill-opacity:1" d="M96.514 106.575h41.141v34.132H96.514z" transform="translate(-96.514 -106.575)"/>
    <path d="M112.675 113.932c0-.302-.139-.453-.416-.453h-1.618v-.67h1.86c.33 0 .591.096.782.286.194.186.29.48.29.88v2.375h-.898zm-2.071.725.124-.415h.775v2.108h-.9zm3.635-1.122-.075-.725h.893l.075.725v.967l-.006.391-.887.155zm1.604 0-.074-.725h.893l.074.725v.967l-.006.391-.886.155zm2.746 2.152c.28-.025.49-.12.626-.286.136-.165.22-.446.248-.843l.08-1.079h-2.157v-.67h3.119l-.031.577-.069.937c-.066 1.343-.649 2.02-1.748 2.033zm-1.253-1.067.125-.428h.774v3.398h-.899zm5.691-1.81c.331 0 .591.099.782.297.194.199.29.498.29.9v2.343h-.898v-2.387c0-.322-.139-.484-.416-.484h-.83v2.871h-.893v-3.54zm5.356 1.035c.008.847-.238 1.488-.738 1.922-.5.43-1.275.645-2.325.645h-.192l-.465-3.602h.849l.18 1.531a.641.641 0 0 0 .335-.372c.058-.165.084-.413.08-.744v-.41h.85v.391c-.008.455-.1.825-.273 1.11-.174.281-.48.496-.918.645l.087.713c.591-.037 1.013-.207 1.265-.508.252-.306.376-.73.372-1.271l-.012-1.085h.899zm3.973.738c0 .575-.135 1.027-.403 1.358-.265.326-.64.49-1.123.49-.173 0-.364-.025-.57-.075l.08-.67c.153.034.282.05.385.05.28 0 .481-.093.601-.279.12-.19.18-.469.18-.837 0-.41-.058-.705-.174-.887-.111-.186-.285-.278-.52-.278a.626.626 0 0 0-.422.148.671.671 0 0 0-.21.403l-.385 2.344h-.893l.428-2.387-.496-1.153h.93l.248.706c.087-.256.217-.446.39-.57a.977.977 0 0 1 .596-.192c.442 0 .779.153 1.01.459.232.301.348.758.348 1.37zm-30.643 7.677c.169-.015.284-.062.347-.142.065-.082.098-.206.098-.372v-1.687h1.049c.48 0 .72.266.72.797v1.58h-.33v-1.593c0-.186-.04-.318-.12-.398-.08-.083-.194-.125-.343-.125h-.646v1.392c0 .251-.059.44-.176.565-.117.123-.305.195-.565.218zm2.832-1.7-.056-.5h.326l.06.5v1.875h-.33zm2.464-.5v.278l-.826 2.097h-.33l.827-2.115h-1.327v-.954h.304v.693zm.53.5-.056-.5h.325l.06.5v1.875h-.33zm2.82.501c.028.893-.537 1.366-1.696 1.417l-.261-2.158-.03-.26h1.169c.25 0 .446.078.586.235.143.154.218.365.227.633zm-1.405 1.113c.34-.031.608-.13.805-.295.197-.166.287-.441.27-.827v-.102a.715.715 0 0 0-.138-.454.445.445 0 0 0-.376-.176h-.784zm1.704 0h.745v-1.426c0-.14-.028-.242-.085-.308a.375.375 0 0 0-.248-.128l-.287-.043.047-.257.372.056a.61.61 0 0 1 .394.214c.091.111.137.264.137.458v1.695h-1.075zm1.705-1.614-.055-.5h.325l.06.5v1.875h-.33zm1.565 1.614c.152-.017.279-.053.382-.107a.625.625 0 0 0 .256-.282c.069-.135.112-.323.129-.566l.073-.899h-1.542v-.26h1.893l-.013.235-.069.86c-.02.414-.125.728-.316.942-.189.214-.442.327-.758.338zm-.693-.955.047-.29h.283v2.363h-.33zm4.431-1.16c.48 0 .72.266.72.797v1.58h-1.872v-2.377h.33zm.39 2.115v-1.331c0-.186-.04-.318-.12-.398-.08-.083-.194-.125-.343-.125h-.749v1.854zm2.02-2.115c.229 0 .406.073.532.219.125.142.188.355.188.638v1.52h-.33v-1.533c0-.192-.04-.336-.12-.433-.077-.1-.19-.15-.342-.15h-.728v2.115h-.33v-2.376zm1.107 2.2c.169-.014.284-.06.347-.14.066-.083.099-.207.099-.373v-1.687h1.048c.48 0 .72.266.72.797v1.58h-.33v-1.593c0-.186-.04-.318-.12-.398-.08-.083-.194-.125-.342-.125h-.647v1.392c0 .251-.058.44-.175.565-.117.123-.306.195-.565.218zm4.87-1.035c0 .405-.086.716-.257.933-.168.217-.41.326-.728.326-.108 0-.225-.013-.35-.04l.033-.26c.095.023.192.034.292.034.237 0 .41-.081.522-.244.114-.165.171-.41.171-.736 0-.623-.204-.934-.612-.934a.522.522 0 0 0-.373.133.68.68 0 0 0-.192.347l-.304 1.652h-.33l.317-1.665-.33-.71h.343l.214.513a.749.749 0 0 1 .274-.402.71.71 0 0 1 .428-.137c.271 0 .485.094.642.282.16.186.24.488.24.908zm3.432.59a.452.452 0 0 1-.33-.14.511.511 0 0 1-.137-.365c0-.148.046-.27.137-.363a.452.452 0 0 1 .66 0 .5.5 0 0 1 .136.363.511.511 0 0 1-.137.364.442.442 0 0 1-.33.142zm-19.083 3.801c.229 0 .405.073.531.219.126.143.188.355.188.638v1.52h-.33v-1.533c0-.191-.04-.336-.12-.432-.076-.1-.19-.15-.341-.15h-.728v2.115h-.33v-2.377zm1.346.502-.055-.502h.325l.06.502v1.875h-.33zm2.465-.502v.279l-.826 2.098h-.33l.826-2.115h-1.327v-.955h.304v.693zm1.386.502-.056-.502h.326l.06.502v.637l-.004.27-.326.069zm1.565 1.613c.152-.017.279-.052.381-.107a.626.626 0 0 0 .257-.282c.069-.134.112-.323.129-.565l.073-.9h-1.542v-.26h1.893l-.013.235-.069.86c-.02.414-.125.728-.316.942-.189.215-.441.327-.758.339zm-.693-.954.047-.291h.283v2.363h-.33zm3.501-1.16c.228 0 .405.072.531.218.126.143.189.355.189.638v1.52h-.33v-1.533c0-.191-.04-.336-.12-.432-.077-.1-.191-.15-.343-.15h-.727v2.115h-.33v-2.377zm3.479.612c.003.605-.159 1.056-.484 1.352-.323.297-.814.449-1.473.454l-.3-2.419h.317l.146 1.212a1.14 1.14 0 0 0 .3-.218.712.712 0 0 0 .154-.291c.034-.114.054-.262.06-.441l.004-.253h.316l-.004.248c-.006.314-.068.564-.188.75-.12.182-.324.336-.612.462l.081.66c.454-.03.794-.165 1.02-.407.225-.246.336-.611.333-1.096l-.004-.626h.33zm2.602.552c0 .405-.086.716-.257.933-.168.217-.41.326-.728.326-.108 0-.225-.013-.35-.039l.033-.261c.095.023.192.034.292.034.237 0 .41-.081.522-.244.114-.165.171-.41.171-.736 0-.622-.204-.933-.612-.933a.522.522 0 0 0-.373.132.68.68 0 0 0-.192.347l-.304 1.653h-.33l.317-1.666-.33-.71h.343l.214.513a.749.749 0 0 1 .274-.402.71.71 0 0 1 .428-.137c.271 0 .485.094.642.282.16.186.24.488.24.908zm3.432.59a.452.452 0 0 1-.33-.14.511.511 0 0 1-.137-.364c0-.149.046-.27.137-.364a.452.452 0 0 1 .66 0 .5.5 0 0 1 .136.364.511.511 0 0 1-.137.364.442.442 0 0 1-.33.14zm-25.331 4.564c0-.22.038-.387.116-.501h-1.2v-.261h1.833v.26h-.317c-.068.118-.102.285-.102.502v1.614h-.33zm1.32-.261-.057-.501h.326l.06.5v.639l-.004.27-.325.068zm.956 0-.055-.501h.325l.06.5v.639l-.004.27-.325.068zm2.465-.501v.278l-.826 2.098h-.33l.826-2.115h-1.327v-.955h.304v.694zm2.28 2.115v.26h-1.866v-.26h1.232v-1.332c0-.185-.04-.318-.12-.398-.08-.083-.194-.124-.342-.124h-.77v-.261h.843c.48 0 .72.265.72.796v1.319zm.503-1.614-.056-.501h.325l.06.5v.639l-.004.27-.325.068zm.957 0-.056-.501h.326l.06.5v.639l-.005.27-.325.068zm2.708 1.614v.26h-1.866v-.26h1.233v-1.332c0-.185-.04-.318-.12-.398-.08-.083-.194-.124-.343-.124h-.77v-.261h.843c.48 0 .72.265.72.796v1.319zm2.422-1.332c0-.185-.04-.318-.12-.398-.08-.083-.194-.124-.343-.124h-.757v-.261h.83c.48 0 .72.265.72.796v1.58h-.33zm.962-.282-.056-.501h.325l.06.5v.639l-.004.27-.325.068zm.828 1.614h.745v-1.426c0-.14-.028-.243-.085-.308a.375.375 0 0 0-.249-.129l-.286-.043.047-.257.372.056a.61.61 0 0 1 .394.214c.091.111.137.264.137.458v1.696h-1.075zm2.767-1.332c0-.185-.04-.318-.12-.398-.08-.083-.194-.124-.343-.124h-.757v-.261h.83c.48 0 .72.265.72.796v1.58h-.33zm.962-.282-.056-.501h.325l.06.5v1.876h-.33zm.833-.501h.33l.248 2.115c.33-.035.595-.143.792-.326.2-.182.292-.46.278-.835v-.107a.643.643 0 0 0-.137-.428c-.091-.108-.228-.168-.41-.18l-.215-.012.021-.266.24.017c.251.014.448.09.591.227.146.137.223.337.231.6l.004.12c.017.49-.128.856-.437 1.095-.308.24-.725.373-1.25.399zm5.368 1.755a.452.452 0 0 1-.33-.141.511.511 0 0 1-.137-.364c0-.149.046-.27.137-.364a.452.452 0 0 1 .66 0 .5.5 0 0 1 .136.364.511.511 0 0 1-.137.364.442.442 0 0 1-.33.141z" fill="#fff" style="stroke-width:.26458" transform="translate(-96.514 -106.575)"/>
    <path d="M122.807 149.603c0 3.067-5.606 11.547-5.606 11.547s-5.605-8.48-5.605-11.547c0-3.066 2.515-5.605 5.605-5.605 3.066 0 5.606 2.539 5.606 5.605z" fill="#f64a3f" style="stroke-width:.26458;fill:#c01f14;fill-opacity:1" transform="translate(-96.514 -106.575)"/>
    <path d="M119.572 148.67c-.287 0-.503-.192-.503-.504 0-.288.191-.503.503-.503.311 0 .503.192.503.503a.491.491 0 0 1-.503.503zm-.91 1.149c-.288 0-.504-.192-.504-.503 0-.288.192-.503.503-.503.312 0 .504.192.504.503-.024.287-.264.503-.504.503zm-1.893-.934a.31.31 0 0 1-.287.287h-.647v.647a.31.31 0 0 1-.288.288h-.191a.31.31 0 0 1-.288-.288v-.647h-.647a.309.309 0 0 1-.287-.287v-.192c0-.144.144-.287.287-.287h.647v-.647a.31.31 0 0 1 .288-.288h.191a.31.31 0 0 1 .288.288v.647h.647a.31.31 0 0 1 .287.287zm4.671.143c-.43-1.94-1.006-2.443-1.413-2.683-.575-.287-1.317-.143-1.51 0-.287.144-.43.36-.718.503a1.228 1.228 0 0 1-1.006 0c-.192-.143-.431-.359-.79-.503-.36-.143-1.007-.36-1.653.048-.144.048-1.222 1.006-1.51 3.737-.191 1.725.719 2.228.719 2.228.192.144.79.431 1.51 0 .502-.287.862-.934.862-.934s.143-.36.43-.503c.145-.048.432 0 .432 0h.862s.288 0 .503.048c.192.048.288.287.288.287s.575.719 1.15 1.15c.191.144 1.221.36 1.653-.192.335-.31.527-1.532.191-3.186z" fill="#fff" style="stroke-width:.26458" transform="translate(-96.514 -106.575)"/>
</svg>
