<svg width="159.766" height="98.445" viewBox="0 0 42.271 26.047" xmlns="http://www.w3.org/2000/svg">
    <path d="M146.13 150.614c0 2.234-4.037 8.409-4.037 8.409s-4.035-6.127-4.035-8.41a4.03 4.03 0 0 1 4.035-4.035 4.03 4.03 0 0 1 4.037 4.036zm-25.171-17.638h42.228v10.689h-42.228z" fill="#f64a3f" style="stroke-width:.26458;fill:#c01f14;fill-opacity:1" transform="translate(-120.959 -132.976)"/>
    <path d="M128.26 137.019c.331 0 .593.095.784.286.193.186.29.48.29.883v2.382h-3.039v-3.551h.894zm.172 2.879v-1.754c0-.302-.137-.454-.415-.454h-.828v2.208zm1.593-2.152-.076-.727h.896l.075.727v.97l-.005.392-.89.156zm1.471 2.152h.908V138.1c0-.15-.03-.255-.088-.318-.052-.062-.137-.1-.254-.118l-.433-.062.11-.659.779.1c.25.033.444.14.576.323.138.182.207.419.207.709v2.494h-1.805zm2.307 0h.995c.241 0 .416-.079.53-.237.116-.157.171-.368.171-.634v-.466c0-.265-.055-.477-.172-.634-.113-.158-.288-.237-.529-.237h-.995v-.671h1.239c.441 0 .78.143 1.013.429.23.282.347.67.347 1.163v.367c0 .493-.117.882-.347 1.169-.233.282-.572.423-1.013.423h-1.239zm3.218-2.152-.074-.727h.894l.074.727v2.824h-.894zm2.865.672c0-.158.013-.298.042-.423a.9.9 0 0 1 .133-.305h-1.593v-.671h2.916v.671h-.485c-.079.179-.119.421-.119.728v2.152h-.894zm5.273-1.4c.334 0 .593.096.783.287.196.186.294.48.294.883v2.382h-3.04v-3.551h.894zm.175 2.88v-1.754c0-.302-.138-.454-.416-.454h-.828v2.208zm3.519-2.88c.33 0 .592.1.783.3.196.198.29.499.29.901v2.35h-.899v-2.394c0-.323-.14-.485-.418-.485h-.833v2.88h-.894v-3.551zm1.503 3.048a.931.931 0 0 0 .354-.094.35.35 0 0 0 .161-.186.984.984 0 0 0 .038-.348v-2.42h1.883c.334 0 .593.096.784.287.19.186.288.48.288.883v2.382h-.897v-2.426c0-.302-.14-.454-.423-.454h-.733v1.63c0 .315-.05.565-.148.752a.947.947 0 0 1-.442.423c-.196.09-.46.151-.791.18zm7.585-1.269c0 .576-.135 1.03-.405 1.362-.264.327-.64.491-1.124.491-.175 0-.365-.025-.574-.074l.082-.672c.153.033.28.05.386.05.28 0 .481-.094.603-.28.12-.19.18-.47.18-.84 0-.41-.058-.706-.175-.889-.11-.186-.285-.28-.52-.28a.628.628 0 0 0-.424.15.663.663 0 0 0-.212.404l-.386 2.35h-.894l.428-2.394-.497-1.156h.931l.249.709c.087-.258.22-.448.391-.572a.98.98 0 0 1 .598-.193c.445 0 .781.153 1.014.46.233.303.349.76.349 1.374z" fill="#fff" style="stroke-width:.26458" transform="translate(-120.959 -132.976)"/>
</svg>
