<svg width="1686" height="971.519" viewBox="0 0 1686 971.519" fill="none" xmlns="http://www.w3.org/2000/svg">
    <path d="m1523 133 80.5 39 52-33-76.5-38.5z" fill="#fcf0ca"/>
    <path d="M218.244 542.123v-12.495l-50.704-22.274v10.956l-14.487 5.433v11.77l-9.869 3.803 54.235 26.529 8.239-5.614 1.902-11.589 11.046-6.429zm-117.707 59.936-10.503 5.07v10.956l-14.487 5.342v11.861l52.605 24.718 1.811-11.499 11.046-6.519v-11.409l3.803 1.811 11.498-5.885.544.272v-10.594l-56.408-26.166v12.042z" fill="#eae2e6" stroke="#61595c" stroke-width="1.154" stroke-miterlimit="10"/>
    <path d="M128.153 558.058v11.227l-12.405 4.98-.271-.091-.543 10.413-14.487 5.432 56.679 25.986 10.231-5.161v-11.046l.182.09 12.494-5.976.634.363v-12.043l11.952-5.885.452.272v-12.676l-49.888-24.628-.544 13.401zm12.855 71.351v12.585l-50.975-23.903v-10.955z" fill="#eae2e6" stroke="#61595c" stroke-width="1.154" stroke-miterlimit="10"/>
    <path d="m205.66 560.234-8.24 5.614-54.234-26.529 14.486-5.614z" fill="#eae2e6" stroke="#61595c" stroke-width="1.154" stroke-miterlimit="10"/>
    <path d="m207.563 548.644-1.902 11.59-52.605-24.718v-11.771z" fill="#eae2e6" stroke="#61595c" stroke-width="1.154" stroke-miterlimit="10"/>
    <path d="m218.608 542.22-11.046 6.428-54.507-24.899 14.487-5.433zm-61.755 84.018-12.042 6.156-54.778-25.261 15.03-7.243zm10.507-26.621v11.227l-52.423-26.257.543-10.412zm-26.349 42.374-11.046 6.519-54.416-25.08 14.487-5.342z" fill="#eae2e6" stroke="#61595c" stroke-width="1.154" stroke-miterlimit="10"/>
    <path d="m180.487 593.734-12.948 6.157-52.061-25.443 14.486-5.975z" fill="#eae2e6" stroke="#61595c" stroke-width="1.154" stroke-miterlimit="10"/>
    <path d="M180.671 581.873v12.404l-52.514-24.355v-11.861z" fill="#eae2e6" stroke="#61595c" stroke-width="1.154" stroke-miterlimit="10"/>
    <path d="m192.804 576.26-12.133 5.975-52.514-24.174 14.486-5.342z" fill="#eae2e6" stroke="#61595c" stroke-width="1.154" stroke-miterlimit="10"/>
    <path d="M193.075 563.948v12.676l-50.432-23.903.543-13.401zm-36.214 52.243v10.594l-56.408-24.718v-12.043zm10.502-5.346-10.231 5.161-56.68-25.986 14.487-5.432zm-37.398 37.674-1.811 11.498L75.549 635.3v-11.862z" fill="#eae2e6" stroke="#61595c" stroke-width="1.154" stroke-miterlimit="10"/>
    <path d="m1284.83 276.662 124.95-56.951-43.82-15.302 150.39-73.791-29.97-14.487-270.36 125.944z" fill="#fcd8ff"/>
    <path d="m1134.81 200.063 260.12-126.306-.09-34.316-260.22 125.039Zm387.37-66.44L1578 101V71l-55.97 30.354zm98.32 45.877 54.17-31.646.86-30.378-55.18 30.378zm-134.75-60.381.63-34.588-91.45-45.09V75.75z" fill="#a94bb0"/>
    <path d="M1674.63 148.382 1676 118l-98-47v30.217z" fill="#a94bb0"/>
    <path d="m1134.71 200.786 95.34 43.732 254.88-126.94-90-43.822z" fill="#fcf0ca"/>
    <path d="M1321.5 200.152v-35.674l-91.44-46.448v34.768zm-61.84 64.013v-37.122l-124.95-62.564v36.307z" fill="#a94bb0"/>
    <path d="m1225.34 246.875 42.02-20.553-.18-35.493-41.93 20.463zm214.32-106.211 46.09-21.82-.09-34.044-46.09 22.092zm-146.86 73.52 112-56.498-.18-34.316-111.91 55.231z" fill="#a94bb0"/>
    <path d="m612.739 473.858 511.381-160.622-215.218-64.919-398.657 176.014Z" fill="#fcf0ca"/>
    <path d="M906.455 356.519v30.965l-145.23-72.433v-35.312zm226.445-71.074v26.529l-3.17 1.267-4.07 1.539-214.314-66.005v-33.138z" fill="#a94bb0"/>
    <path d="M330.433 608.943 1028.6 950.649l134.1-90.18-110.74-46.176 297.34-218.75 273.35-153.469-363.62-179.998-163.33 57.494-36.13 14.397-446.826 139.887-102.494-49.526-111.276 48.259-64.738-36.76-166.326 70.532 75.874 39.205-20.643 9.778z" fill="#fcd8ff"/>
    <path d="M218.245 529.632v12.585l-50.703-23.903v-10.956z" fill="#eae2e6" stroke="#61595c" stroke-width="1.154" stroke-miterlimit="10"/>
    <path d="m1272.34 540.226-229.61 130.018-344.97-167.955 501.15-152.745 196.02 96.699Z" fill="#fcf0ca"/>
    <path d="M911.347 217.536v29.155L398.969 472.593v-31.87zm142.783 576.482 1.45 31.689 110.92 40.201v-30.06z" fill="#a94bb0"/>
    <path d="m1166.32 866.722-137.9 94.797v-36.488l137.9-88.46zm31.69-515.909 195.39 94.616 2.53-37.303-197.92-96.608zM697.76 502.29l344.97 167.956v-38.661L697.76 464.896Z" fill="#a94bb0"/>
    <path d="M1255.66 324.741 1451.5 418l54-30.5-195.5-114z" fill="#fcf0ca"/>
    <path d="m222.595 556.796 805.825 404.723V924.94L222.595 517.953ZM1308.83 290.964l202 98.691v-34.768l-202-96.518zM398.971 440.726v31.87l-64.013-35.13v-27.887z" fill="#a94bb0"/>
    <path d="M1510.82 354.891v34.587l-59.93 30.603v-35.764zm-201.9-62.932-23.45 13.038-32.05-15.482 55.41-31.147zm-973.961 117.62v27.887l-167.594 70.442v-25.986z" fill="#a94bb0"/>
    <path d="m147.626 482.282-15.573-15.573-9.145 9.235 16.026 15.845-5.251 5.252 22.907 4.617-4.346-24.174z" fill="#f64a3f"/>
    <path d="m510.245 424.334 102.404 49.798v-33.41l-102.404-48.711Z" fill="#a94bb0"/>
    <path d="m704.459 412.201-17.384 4.98-74.426 23.903v32.776l75.15-22.817 16.57-4.98v-33.862zm46.086 20.372 213.68-65.915v-26.982l-213.68 59.487zm509.115-205.531-246 92.806-1.36 31.056 247.36-87.917zm56.6 353.841-278.15 216.124-16.56 12.676-30.789 23.903v40.472l47.899-35.855 284.21-212.593 302.86-182.714 1.27-38.842zM936.071 876.23v38.843l24.084-18.108v-39.568zM343.197 467.521v33.319l-120.602 55.774v-38.662Z" fill="#a94bb0"/>
    <path d="m32.636 420.983.452-22.092h85.472v22.092l28.521-1.63v38.571H10v-36.941z" fill="#f64a3f"/>
    <path d="m1277.32 496.952-234.6 134.636v38.661l139.08-78.771v-26.62l47.35-26.166v25.985l25.35-14.396 22.82-12.857 117.61-91.176v-39.114zm-579.56-32.057v37.394l227.804-68.993v-24.809l51.428-14.849v24.084l221.558-67.091v-38.843z" fill="#a94bb0"/>
    <path d="M53.187 412.655c0-.634-.181-1.086-.543-1.358-.362-.362-.815-.453-1.449-.453H46.94v-2.988h4.527c1.177 0 2.173.181 2.988.634.815.362 1.448.996 1.901 1.721.453.724.634 1.629.634 2.716v9.054h-3.803zm17.565 6.429v2.897H58.529v-2.988h6.7v-6.157c0-1.358-.724-1.992-2.173-1.992h-3.803v-2.988h4.074c1.178 0 2.174.181 3.079.634.815.362 1.54.996 1.992 1.721.453.814.634 1.72.634 2.806v5.886zM83.79 407.76v8.058c0 1.358-.271 2.535-.905 3.531-.543.996-1.358 1.72-2.445 2.173a9.222 9.222 0 0 1-3.621.725c-1.902 0-3.803-.363-5.614-1.087l.815-2.807c1.087.453 2.173.724 3.169.906-.272-.272-.543-.544-.724-.906-.182-.362-.363-.724-.453-1.086l-2.173-9.507h3.803l2.082 9.959c.09.544.272.996.453 1.359a3.384 3.384 0 0 0 1.358-1.178 3.929 3.929 0 0 0 .453-1.901v-8.239zm3.983 6.339c.09-.634.181-1.268.453-1.811.271-.544.543-.996.815-1.358l.18-.182v-.09c-.27.09-.633.181-1.086.272-.452.09-.815.271-1.086.362l-.815-2.807c.905-.362 1.992-.634 3.169-.815 1.267-.181 2.354-.272 3.531-.272 2.173 0 3.803.544 4.98 1.63 1.086 1.087 1.72 2.716 1.72 4.889v7.968h-6.247v-2.988h2.354v-5.523c0-.905-.181-1.63-.543-2.173-.363-.543-.906-.724-1.54-.724-1.267 0-1.992.996-2.173 2.988l-.815 8.33h-3.802zm-53.238 23.899c.996.906 1.449 2.264 1.449 3.984v8.783H32.18v-9.145c0-1.358-.634-2.083-1.81-2.083h-1.812c-.09.453-.18.906-.271 1.449-.09.543-.09.996-.09 1.449v3.984c0 .996-.182 1.81-.544 2.444-.362.725-.815 1.177-1.449 1.539-.634.363-1.448.544-2.354.544-.543 0-1.177-.091-1.81-.181v-2.988h.724c1.086 0 1.72-.634 1.72-1.811v-3.35c0-.543.09-1.087.181-1.63.09-.634.362-1.086.543-1.539h-2.173v-2.988h7.244c1.901.272 3.26.724 4.255 1.539zm4.439 1.632h-1.177v-2.988h5.07v14.124h-3.802V439.63Zm17.474-.453-4.618 11.68h-4.074l4.617-11.137h-7.515v-6.881h3.803v3.984h7.787zm2.258.453h-1.177v-2.988h5.07v14.124h-3.803V439.63Zm5.89 10.865.543-2.807c1.177.271 2.173.362 2.988.362 1.086 0 1.992-.272 2.444-.724.544-.453.815-1.177.815-2.173v-5.523h-6.338v-2.988H75.19v7.786c0 2.264-.543 3.894-1.72 4.98-1.177 1.087-2.807 1.539-4.89 1.539-1.086.091-2.444-.09-3.983-.452zm17.564-3.169a12.26 12.26 0 0 0 2.172.724c.815.181 1.449.272 2.173.272 1.72 0 3.079-.363 4.075-1.087s1.448-1.811 1.448-3.259v-7.244h3.713v7.606c0 1.539-.363 2.807-1.177 3.803-.815.995-1.902 1.81-3.26 2.354-1.358.543-2.897.814-4.618.814-1.358 0-2.716-.181-4.165-.452a25.738 25.738 0 0 1-3.983-1.358v-12.676h3.712v10.503zm2.897-2.354c.09-.544.09-1.178.09-1.811v-6.519h3.712v5.704c0 .815-.09 1.539-.271 2.263-.181.725-.453 1.268-.725 1.63h-3.078c.09-.271.181-.724.272-1.267zm23.088-.086 4.075 5.885h-4.256l-5.16-7.424a2.262 2.262 0 0 0-.363 1.177v6.338H98.73v-4.618c0-1.267.181-2.354.634-3.169s1.086-1.358 1.901-1.811l-3.078-4.527h4.255l3.35 4.799 2.264-4.799h4.255zm16.843-5.71-4.617 11.68h-4.075l4.618-11.137h-7.515v-6.881h3.803v3.984h7.786z" fill="#fff"/>
    <path d="M1404.89 303.641v33.591l-56.41 31.327v-33.591z" fill="#a94bb0"/>
    <path d="M1253.42 289.517v34.768l39.29 19.104v-28.611l18.29 9.235v28.249l74.79 36.217v-27.343l18.29 9.235v26.981l46.81 22.726v-35.764z" fill="#a94bb0"/>
</svg>
