<svg width="135.866" height="206.269" viewBox="0 0 35.947 54.575" xmlns="http://www.w3.org/2000/svg">
    <path fill="#f64a3f" style="stroke-width:.26458" d="M73.308 72.306h34.722v34.132H73.308z" transform="translate(-73.308 -72.306)"/>
    <path d="M83.05 79.663c0-.302-.139-.452-.416-.452h-1.618v-.67h1.86c.33 0 .591.095.781.285.195.186.292.48.292.88v2.375h-.9zm-2.071.725.124-.415h.775v2.108h-.9zm3.635-1.122-.075-.725h.893l.075.725v.967l-.006.391-.887.155zm1.604 0-.074-.725h.893l.074.725v.967l-.006.391-.887.155zm2.746 2.152c.28-.025.49-.12.626-.286.136-.165.22-.446.248-.843l.08-1.078h-2.157v-.67h3.119l-.031.576-.068.937c-.067 1.343-.65 2.02-1.749 2.033zM87.71 80.35l.124-.427h.775v3.397h-.899zm5.691-1.81c.331 0 .592.1.782.297.194.199.291.499.291.9v2.343h-.899v-2.387c0-.322-.139-.483-.415-.483h-.831v2.87h-.893v-3.54zm5.356 1.035c.008.848-.238 1.488-.738 1.922-.5.43-1.275.645-2.325.645h-.193l-.464-3.602h.849l.18 1.531a.643.643 0 0 0 .335-.372c.057-.165.084-.413.08-.744v-.409h.85v.39c-.009.455-.1.825-.273 1.11-.174.282-.48.497-.918.645l.087.713c.591-.037 1.013-.206 1.265-.508.252-.306.376-.73.372-1.271l-.013-1.085h.9zm3.973.738c0 .575-.135 1.027-.403 1.358-.265.326-.64.49-1.123.49-.173 0-.364-.025-.57-.075l.08-.67c.153.034.281.05.385.05.28 0 .481-.093.601-.279.12-.19.18-.469.18-.837 0-.409-.058-.704-.174-.886-.111-.186-.285-.28-.52-.28a.626.626 0 0 0-.422.15.671.671 0 0 0-.21.403l-.385 2.343h-.893l.428-2.387-.496-1.153h.93l.248.707c.087-.256.217-.447.39-.57a.977.977 0 0 1 .596-.193c.442 0 .779.153 1.01.459.232.302.348.758.348 1.37zm-16.597 5.979-.056-.502h.326l.06.502v1.875h-.33zm1.702 1.875-.107-.583a1.31 1.31 0 0 1-.74.642l-.12-.265a1.55 1.55 0 0 0 .484-.27c.13-.111.238-.254.32-.428v-.788c0-.142-.018-.245-.055-.308-.034-.065-.101-.107-.201-.124L87.142 86l.047-.257.36.056c.165.026.282.09.35.193.069.102.103.255.103.458v.826l.15.89zm1.466-.176c.168-.014.284-.061.347-.141.065-.083.098-.207.098-.373V85.79h1.049c.48 0 .72.266.72.797v1.58h-.33v-1.593c0-.186-.04-.318-.12-.398-.08-.083-.195-.124-.343-.124h-.646v1.391c0 .251-.059.44-.176.565-.117.123-.305.196-.565.218zm2.703-.086h.745V86.48c0-.14-.029-.243-.085-.309a.376.376 0 0 0-.249-.128L92.128 86l.047-.257.373.056a.61.61 0 0 1 .394.214c.091.111.137.264.137.458v1.696h-1.075zm1.705-1.613-.056-.502h.325l.06.502v.637l-.004.27-.325.069zm.949 1.613h.702c.222 0 .4-.06.53-.184.135-.125.202-.33.202-.616v-.261c0-.26-.05-.457-.15-.591-.1-.134-.251-.201-.454-.201h-.45l-.11.475a.978.978 0 0 0-.026.214c0 .097.025.173.077.227a.5.5 0 0 0 .265.115l-.068.227c-.2-.02-.346-.075-.437-.167a.547.547 0 0 1-.133-.39c0-.08.009-.163.026-.252l.163-.71h.749c.277 0 .49.091.642.274.154.182.233.445.235.787v.24c0 .371-.092.644-.278.818-.185.17-.428.257-.728.257h-.757zm5.202-.36a.452.452 0 0 1-.33-.14.51.51 0 0 1-.137-.364.5.5 0 0 1 .137-.364.452.452 0 0 1 .66 0 .5.5 0 0 1 .136.364.511.511 0 0 1-.137.364.442.442 0 0 1-.33.14zm-19.083 3.802c.229 0 .406.072.531.218.126.143.188.355.188.638v1.52h-.33V92.19c0-.191-.04-.335-.12-.432-.076-.1-.19-.15-.341-.15h-.728v2.115h-.33v-2.376zm1.346.5-.055-.5h.325l.06.5v1.876h-.33zm2.465-.5v.278l-.826 2.098h-.33l.826-2.115h-1.327v-.955h.304v.694zm1.386.5-.055-.5h.325l.06.5v.639l-.004.27-.326.068zm1.565 1.615c.152-.018.279-.053.381-.107a.626.626 0 0 0 .257-.283c.069-.134.112-.323.129-.565l.073-.9h-1.542v-.26h1.893l-.013.235-.069.86c-.02.415-.125.728-.316.943-.189.214-.441.326-.758.338zm-.693-.955.047-.291h.283v2.363h-.33zm3.501-1.16c.228 0 .405.072.531.218.126.143.189.355.189.638v1.52h-.33V92.19c0-.191-.04-.335-.12-.432-.077-.1-.191-.15-.343-.15h-.727v2.115h-.33v-2.376zm3.479.612c.002.605-.159 1.056-.484 1.353-.323.297-.814.448-1.473.454l-.3-2.42h.317l.146 1.212c.128-.068.228-.14.3-.218a.713.713 0 0 0 .154-.291 1.79 1.79 0 0 0 .06-.441l.004-.253h.317l-.005.249c-.005.314-.068.563-.188.749-.12.182-.324.337-.612.462l.081.66c.454-.03.794-.165 1.019-.407.225-.246.337-.611.334-1.096l-.004-.625h.33zm2.602.552c0 .405-.085.717-.257.933-.168.217-.41.326-.728.326-.108 0-.225-.013-.35-.039l.034-.26c.094.022.19.034.29.034.238 0 .412-.082.523-.245.114-.165.171-.41.171-.736 0-.622-.204-.933-.612-.933a.523.523 0 0 0-.372.132.683.683 0 0 0-.193.347l-.304 1.653h-.33l.317-1.666-.33-.71h.343l.214.513a.749.749 0 0 1 .274-.402.71.71 0 0 1 .428-.137c.271 0 .485.094.642.283.16.185.24.488.24.907zm3.432.591a.452.452 0 0 1-.33-.141.51.51 0 0 1-.137-.364.5.5 0 0 1 .137-.364.452.452 0 0 1 .66 0 .5.5 0 0 1 .136.364.511.511 0 0 1-.137.364.442.442 0 0 1-.33.141zm-16.265 4.584c0-.185-.04-.318-.12-.398-.08-.083-.194-.124-.342-.124h-.758v-.261h.83c.48 0 .72.265.72.796v1.58h-.33zm.962-.282-.056-.501h.326l.06.5v1.876h-.33zm.957 0-.056-.501h.326l.06.5v.639l-.004.27-.326.068zm2.632 1.875h-1.841v-.261h1.348l-1.263-2.115h.343l.608 1.023.437-1.023h.333l-.59 1.323zm1.155-.176c.168-.014.284-.061.347-.141.065-.083.098-.207.098-.372v-1.687h1.049c.48 0 .72.265.72.796v1.58h-.33v-1.593c0-.185-.04-.318-.12-.398-.08-.083-.195-.124-.343-.124h-.646v1.391c0 .252-.059.44-.176.565-.117.123-.305.196-.565.219zm2.703-.085h.745v-1.426c0-.14-.029-.242-.085-.308a.376.376 0 0 0-.249-.129l-.287-.042.047-.257.373.056a.61.61 0 0 1 .394.214c.091.11.137.264.137.458v1.695h-1.075Zm1.705-1.614-.056-.501h.325l.06.5v.639l-.004.27-.325.068zm.949 1.614h.702c.222 0 .4-.062.53-.184.135-.126.202-.331.202-.617v-.26c0-.26-.05-.458-.15-.592-.1-.134-.251-.201-.454-.201h-.45l-.11.475a.978.978 0 0 0-.026.214c0 .097.025.173.077.227a.5.5 0 0 0 .265.116l-.068.227c-.2-.02-.346-.076-.437-.167a.547.547 0 0 1-.133-.39c0-.08.009-.164.026-.253l.163-.71h.749c.277 0 .49.091.642.274.154.182.233.445.235.788v.24c0 .37-.092.643-.278.817-.185.171-.428.257-.728.257h-.757zm5.202-.36a.452.452 0 0 1-.33-.141.51.51 0 0 1-.137-.364.5.5 0 0 1 .137-.364.452.452 0 0 1 .66 0 .5.5 0 0 1 .136.364.511.511 0 0 1-.137.364.442.442 0 0 1-.33.141z" fill="#fff" style="stroke-width:.26458" transform="translate(-73.308 -72.306)"/>
    <path d="M96.888 115.334c0 3.067-5.606 11.547-5.606 11.547s-5.605-8.48-5.605-11.547c0-3.066 2.515-5.605 5.605-5.605 3.066 0 5.606 2.539 5.606 5.605z" fill="#f64a3f" style="stroke-width:.26458" transform="translate(-73.308 -72.306)"/>
    <path d="M93.653 114.4c-.288 0-.503-.191-.503-.503 0-.287.191-.503.503-.503.311 0 .503.192.503.503a.491.491 0 0 1-.503.503zm-.91 1.15c-.288 0-.504-.191-.504-.503 0-.287.192-.503.503-.503.312 0 .504.192.504.503-.024.287-.264.503-.504.503zm-1.893-.934a.309.309 0 0 1-.287.287h-.647v.647a.31.31 0 0 1-.288.288h-.192a.31.31 0 0 1-.287-.288v-.647h-.647a.309.309 0 0 1-.287-.287v-.192c0-.144.144-.287.287-.287h.647v-.647c0-.144.144-.287.287-.287h.192c.144 0 .288.143.288.287v.647h.647c.143 0 .287.143.287.287zm4.671.144c-.431-1.94-1.006-2.444-1.413-2.684-.575-.287-1.318-.143-1.51 0-.287.144-.43.36-.718.504a1.228 1.228 0 0 1-1.006 0c-.192-.144-.431-.36-.79-.504-.36-.143-1.007-.359-1.653.049-.144.048-1.222 1.006-1.51 3.737-.191 1.724.719 2.227.719 2.227.192.144.79.432 1.51 0 .502-.287.861-.934.861-.934s.144-.36.432-.503c.143-.048.43 0 .43 0h.863s.288 0 .503.048c.192.048.288.288.288.288s.575.718 1.15 1.15c.191.143 1.221.359 1.653-.192.335-.312.527-1.533.191-3.186z" fill="#fff" style="stroke-width:.26458" transform="translate(-73.308 -72.306)"/>
</svg>
