<svg width="221.605" height="92.439" viewBox="0 0 58.632 24.458" xmlns="http://www.w3.org/2000/svg">
    <path fill="#f64a3f" style="stroke-width:.26458;fill:#c01f14;fill-opacity:1" d="M67.779 103.785h58.632v10.689H67.779z" transform="translate(-67.779 -103.785)"/>
    <path d="M76.817 108.867c.009.85-.238 1.492-.74 1.927-.501.431-1.278.647-2.331.647h-.193l-.467-3.613h.852l.18 1.536a.644.644 0 0 0 .336-.373c.058-.166.085-.415.081-.746v-.41h.852v.391c-.008.456-.1.827-.274 1.113-.174.282-.48.498-.92.647l.087.715c.593-.037 1.016-.207 1.269-.51.253-.306.377-.731.373-1.275l-.012-1.088h.901zm2.752 2.512-1.17-1.81-.553 1.81h-.852l.69-2.133.193-.479-.578-.939h.902l.497.808.448.678.168-.566.249-.92h.852l-.747 2.264.859 1.287zm2.936-2.425c0-.303-.139-.454-.417-.454h-1.212v-.672h1.455c.331 0 .593.095.783.286.195.187.293.481.293.883v2.382h-.902zm4.983.653c0 .576-.135 1.03-.404 1.361-.266.328-.64.492-1.126.492-.174 0-.365-.025-.572-.075l.08-.672c.154.034.283.05.386.05.282 0 .483-.093.604-.28.12-.19.18-.47.18-.839 0-.41-.058-.707-.174-.89-.112-.186-.286-.28-.523-.28a.628.628 0 0 0-.422.15.673.673 0 0 0-.212.404l-.385 2.35h-.896l.43-2.393-.498-1.157h.932l.25.709c.086-.257.217-.448.391-.572a.978.978 0 0 1 .597-.193c.444 0 .781.154 1.013.46.233.303.349.761.349 1.375zm3.86-.653c0-.303-.139-.454-.417-.454h-1.623v-.672h1.866c.332 0 .593.095.783.286.195.187.293.481.293.883v2.382h-.902zm-2.077.727.125-.416h.777v2.114h-.902zm3.509 1.026h.908v-1.797c0-.15-.03-.255-.087-.317a.4.4 0 0 0-.255-.118l-.436-.062.112-.66.778.1a.81.81 0 0 1 .578.323c.137.183.205.42.205.71v2.493H92.78zm5.875-1.1c0 .576-.134 1.03-.404 1.361-.265.328-.64.492-1.125.492a2.47 2.47 0 0 1-.573-.075l.081-.672c.154.034.282.05.386.05.282 0 .483-.093.603-.28.12-.19.18-.47.18-.839 0-.41-.058-.707-.174-.89-.112-.186-.286-.28-.522-.28a.628.628 0 0 0-.423.15.673.673 0 0 0-.211.404l-.386 2.35h-.895l.429-2.393-.498-1.157h.933l.249.709c.087-.257.218-.448.392-.572a.978.978 0 0 1 .596-.193c.444 0 .782.154 1.014.46.232.303.348.761.348 1.375zm.868-.38c0-.157.015-.298.044-.423a.911.911 0 0 1 .13-.304h-.56v-.672h1.848v.672h-.467a.908.908 0 0 0-.087.31 6.157 6.157 0 0 0-.012.417v2.152h-.896zm4.08-.273c0-.303-.14-.454-.417-.454h-1.623v-.672h1.866c.331 0 .593.095.783.286.195.187.292.481.292.883v2.382h-.901zm-2.077.727.124-.416h.777v2.114h-.901zm6.806-1.853c.331 0 .592.095.783.286.195.187.292.481.292.883v2.382h-3.041v-3.55h.896zm.174 2.88v-1.754c0-.303-.14-.454-.417-.454h-.827v2.207zm3.518-2.88c.332 0 .593.1.783.299.195.199.293.5.293.901v2.35h-.902v-2.393c0-.324-.139-.485-.417-.485h-.833v2.879h-.895v-3.551zm1.503 3.047a.922.922 0 0 0 .355-.093.354.354 0 0 0 .161-.187 1.02 1.02 0 0 0 .038-.348v-2.419h1.884c.331 0 .593.095.783.286.19.187.286.481.286.883v2.382h-.895v-2.425c0-.303-.141-.454-.423-.454h-.734v1.629c0 .315-.05.566-.149.752a.932.932 0 0 1-.442.423c-.194.092-.458.152-.79.18zm7.585-1.268c0 .576-.135 1.03-.404 1.361-.265.328-.64.492-1.126.492-.174 0-.364-.025-.572-.075l.081-.672c.153.034.282.05.386.05.282 0 .483-.093.603-.28.12-.19.18-.47.18-.839 0-.41-.058-.707-.174-.89-.112-.186-.286-.28-.522-.28a.627.627 0 0 0-.423.15.672.672 0 0 0-.211.404l-.386 2.35h-.896l.43-2.393-.498-1.157h.933l.249.709c.087-.257.217-.448.391-.572a.978.978 0 0 1 .597-.193c.444 0 .782.154 1.014.46.232.303.348.761.348 1.375z" fill="#fff" style="stroke-width:.26458" transform="translate(-67.779 -103.785)"/>
    <path d="M101.131 119.834c0 2.234-4.036 8.409-4.036 8.409s-4.036-6.127-4.036-8.409a4.03 4.03 0 0 1 4.036-4.036 4.03 4.03 0 0 1 4.036 4.036z" fill="#f64a3f" style="stroke-width:.26458;fill:#c01f14;fill-opacity:1" transform="translate(-67.779 -103.785)"/>
</svg>
