<svg width="117" height="102.438" viewBox="0 0 30.956 27.103" xmlns="http://www.w3.org/2000/svg">
    <path d="M19.61 18.55c0 2.282-4.132 8.553-4.132 8.553s-4.133-6.295-4.133-8.553c0-2.283 1.873-4.133 4.133-4.133 2.257-.047 4.133 1.85 4.133 4.133z" fill="#f64a3f" style="stroke-width:.26458"/>
    <path d="M13.861 21.869v-1.944h-.389V18.5c0-.142.05-.264.154-.366a.494.494 0 0 1 .365-.152h.778c.143 0 .264.05.365.152.1.102.153.224.153.366v1.425h-.389v1.944zm.519-4.146a.494.494 0 0 1-.365-.152.494.494 0 0 1-.154-.366.49.49 0 0 1 .154-.366.495.495 0 0 1 .365-.152c.143 0 .264.05.365.152a.493.493 0 0 1 .153.366c0 .142-.05.264-.153.366a.494.494 0 0 1-.365.152zm1.942 4.146v-1.555h-.775l.659-1.982a.452.452 0 0 1 .193-.26.557.557 0 0 1 .312-.09.57.57 0 0 1 .315.09.464.464 0 0 1 .19.26l.662 1.982H17.1v1.555zm.389-4.146a.494.494 0 0 1-.365-.152.504.504 0 0 1-.154-.366c0-.143.053-.265.154-.366a.495.495 0 0 1 .365-.152c.143 0 .264.05.368.152a.5.5 0 0 1 .15.366c0 .142-.05.264-.15.366a.505.505 0 0 1-.368.152z" fill="#fff" style="stroke-width:.26458"/>
    <path fill="#f64a3f" style="stroke-width:.26458" d="M0 0h29.793v10.689H0z"/>
    <path d="M7.392 4.043c.334 0 .593.095.784.286.195.186.293.48.293.883v2.381H5.43v-3.55h.894Zm.175 2.879V5.168c0-.302-.138-.454-.415-.454h-.829v2.208Zm1.59-2.152-.074-.727h.894l.077.727v.97l-.008.392-.889.155zm1.233 2.32a.918.918 0 0 0 .355-.093.352.352 0 0 0 .161-.187.983.983 0 0 0 .037-.348v-2.42h1.884c.333 0 .592.096.786.287.19.186.285.48.285.883v2.381h-.897V5.168c0-.302-.14-.454-.423-.454h-.733v1.63c0 .315-.05.566-.148.752a.934.934 0 0 1-.442.423c-.196.091-.458.151-.79.18zm4.215-2.32-.074-.727h.894l.077.727v2.823h-.897Zm3.035.398c0-.302-.14-.454-.419-.454H16.01v-.671h1.455c.33 0 .593.095.783.286.193.186.291.48.291.883v2.381h-.9zm1.61-.398-.073-.727h.894l.074.727v.97l-.005.392-.889.155zm5.21.311c.008.85-.238 1.493-.74 1.928-.5.431-1.278.647-2.331.647h-.194l-.465-3.613h.852l.18 1.536a.642.642 0 0 0 .336-.373c.058-.166.084-.415.08-.747v-.41h.851v.392c-.008.456-.098.827-.272 1.113-.175.282-.482.497-.921.646l.087.716c.593-.038 1.016-.208 1.267-.51.254-.307.379-.732.376-1.275l-.013-1.088h.902z" fill="#fff" style="stroke-width:.26458"/>
</svg>
