<?xml version="1.0" encoding="UTF-8" standalone="no"?>
<svg
   xmlns:dc="http://purl.org/dc/elements/1.1/"
   xmlns:cc="http://creativecommons.org/ns#"
   xmlns:rdf="http://www.w3.org/1999/02/22-rdf-syntax-ns#"
   xmlns:svg="http://www.w3.org/2000/svg"
   xmlns="http://www.w3.org/2000/svg"
   version="1.1"
   id="svg4510"
   viewBox="0 0 70.599999 54.900008"
   height="15.494002mm"
   width="19.924889mm">
  <defs
     id="defs4512" />
  <metadata
     id="metadata4515">
    <rdf:RDF>
      <cc:Work
         rdf:about="">
        <dc:format>image/svg+xml</dc:format>
        <dc:type
           rdf:resource="http://purl.org/dc/dcmitype/StillImage" />
        <dc:title></dc:title>
      </cc:Work>
    </rdf:RDF>
  </metadata>
  <g
     transform="translate(-272.82861,-417.29077)"
     id="layer1">
    <path
       id="path355_7_"
       class="st50"
       d="m 318.52857,450.79078 c 0,5.7 -10.4,21.4 -10.4,21.4 0,0 -10.4,-15.7 -10.4,-21.4 0,-5.7 4.6,-10.4 10.4,-10.4 5.6,0 10.4,4.7 10.4,10.4"
       style="fill:#7f0006" />
    <path
       id="path357_7_"
       class="st49"
       d="m 301.92857,458.39078 c 0,0.5 0.1,0.7 0.7,0.7 0.5,0 0.7,-0.1 0.7,-0.7 l 0,-6 0.7,0 0,6 c 0,0.5 0.1,0.7 0.7,0.7 0.6,0 0.7,-0.1 0.7,-0.7 l 0,-10.2 0.3,0 0,3.7 c 0,0.1 0,0.3 0.1,0.5 0.1,0.1 0.3,0.1 0.5,0 0.1,-0.1 0.3,-0.3 0.3,-0.5 l 0,-4 c 0,-0.5 -0.1,-0.8 -0.5,-1 -0.3,-0.1 -0.7,-0.3 -1.2,-0.3 l -2.7,0 c -0.5,0 -0.8,0.1 -1.2,0.3 -0.3,0.1 -0.5,0.5 -0.5,1 l 0,4.2 c 0,0.1 0.1,0.3 0.3,0.3 0.1,0.1 0.3,0.1 0.5,0 0.1,-0.1 0.1,-0.1 0.1,-0.3 l 0,-3.8 0.3,0 0.2,10.1 0,0 z"
       style="fill:#ffffff;enable-background:new" />
    <path
       id="path359_7_"
       class="st49"
       d="m 314.92857,453.59078 -1.8,-5.3 0,0 c 0,-0.1 0,-0.1 0.1,-0.1 0,0 0.1,0 0.1,0.1 l 1.4,3.3 c 0.1,0.1 0.3,0.3 0.7,0.3 0.1,0 0.1,-0.1 0.3,-0.3 0,-0.1 0,-0.3 0,-0.3 l -1.4,-3.3 c 0,-0.3 -0.1,-0.7 -0.5,-1 -0.3,-0.3 -0.7,-0.3 -1.2,-0.3 l -1.6,0 c -0.5,0 -0.8,0.1 -1.2,0.5 -0.3,0.3 -0.5,0.7 -0.7,1 l -1.2,3.3 c 0,0 0,0.1 0,0.3 0,0.1 0.1,0.3 0.3,0.3 0.3,0 0.7,-0.1 0.7,-0.3 l 1.4,-3.5 c 0,0 0,-0.1 0.1,-0.1 0.1,0 0.1,0 0.1,0.1 l 0,0 -1.8,5.3 0,0.3 c 0,0 0,0.1 0.1,0.1 0.1,0.1 0.1,0.1 0.1,0.1 l 1.2,0 0,4.2 c 0,0.1 0,0.3 0.1,0.5 0.1,0.1 0.3,0.1 0.5,0.1 0.2,0 0.3,0 0.5,-0.1 0.1,-0.1 0.1,-0.3 0.1,-0.5 l 0,-4.2 c 0,0 0,0 0.1,0 0.1,0 0.1,0 0.3,0 0.2,0 0.1,0 0.1,0 l 0,4.2 c 0,0.1 0,0.3 0.1,0.5 0.1,0.1 0.3,0.1 0.5,0.1 0.2,0 0.3,0 0.5,-0.1 0.1,-0.1 0.1,-0.3 0.1,-0.5 l 0,-4 1.2,0 c 0,0 0.1,0 0.1,-0.1 0.1,-0.1 0.1,-0.1 0.1,-0.1 l 0.5,-0.5 0,0 z"
       style="fill:#ffffff;enable-background:new" />
    <path
       id="path361_7_"
       class="st49"
       d="m 302.32857,444.79078 c 0,0.3 0.1,0.7 0.3,1 0.3,0.3 0.5,0.3 1,0.3 0.3,0 0.7,-0.1 1,-0.3 0.3,-0.3 0.3,-0.7 0.3,-1 0,-0.3 -0.1,-0.7 -0.3,-1 -0.3,-0.3 -0.5,-0.3 -1,-0.3 -0.3,0 -0.7,0.1 -1,0.3 -0.3,0.3 -0.3,0.6 -0.3,1"
       style="fill:#ffffff;enable-background:new" />
    <path
       id="path363_7_"
       class="st49"
       d="m 310.32857,444.79078 c 0,0.3 0.1,0.7 0.3,1 0.3,0.3 0.5,0.3 1,0.3 0.5,0 0.7,-0.1 1,-0.3 0.3,-0.3 0.3,-0.5 0.3,-1 0,-0.3 -0.1,-0.7 -0.3,-1 -0.3,-0.3 -0.5,-0.3 -1,-0.3 -0.5,0 -0.7,0.1 -1,0.3 -0.2,0.3 -0.3,0.6 -0.3,1"
       style="fill:#ffffff;enable-background:new" />
    <rect
       id="rect475_8_"
       x="272.82861"
       y="417.29077"
       class="st50"
       width="70.599998"
       height="21.700001"
       style="fill:#7f0006" />
    <g
       id="g1237"
       transform="translate(-565.57143,-74.209224)">
      <path
         class="st7"
         d="m 849.2,498.1 6.9,0 0,8.6 -6.9,0 0,-8.6 z m 5.5,7.6 0,-6.4 -4.2,0 0,6.4 4.2,0 z"
         id="path1239"
         style="fill:#ffffff" />
      <path
         class="st7"
         d="m 859.4,499.2 -1.6,0 0,-1.1 2.9,0 0,4.8 -1.4,0 0,-3.7 z"
         id="path1241"
         style="fill:#ffffff" />
      <path
         class="st7"
         d="m 869.4,499 c 0.6,0.5 0.8,1.4 0.8,2.5 l 0,5.3 -1.4,0 0,-5.4 c 0,-0.7 -0.2,-1.3 -0.5,-1.6 -0.3,-0.3 -0.8,-0.5 -1.5,-0.5 l -1.2,0 c -0.2,0.3 -0.3,0.6 -0.4,1 -0.1,0.4 -0.1,0.8 -0.1,1.3 l 0,2.9 c 0,0.8 -0.2,1.4 -0.6,1.8 -0.4,0.4 -0.9,0.6 -1.6,0.6 -0.2,0 -0.5,0 -0.8,-0.1 l 0,-1.1 c 0.2,0 0.3,0 0.5,0 0.4,0 0.7,-0.1 0.9,-0.3 0.2,-0.2 0.3,-0.6 0.3,-1 l 0,-2.7 c 0,-0.4 0.1,-0.9 0.2,-1.3 0.1,-0.4 0.3,-0.8 0.5,-1.1 l -1.6,0 0,-1.1 4,0 c 1,-0.1 1.9,0.2 2.5,0.8 z"
         id="path1243"
         style="fill:#ffffff" />
      <path
         class="st7"
         d="m 873,499.2 -1,0 0,-1.1 2.4,0 0,8.6 -1.4,0 0,-7.5 z"
         id="path1245"
         style="fill:#ffffff" />
      <path
         class="st7"
         d="m 880.6,500.7 c 0,-0.5 -0.1,-0.8 -0.4,-1.1 -0.3,-0.3 -0.7,-0.4 -1.1,-0.4 l -2.9,0 0,-1.1 2.9,0 c 0.6,0 1.1,0.1 1.5,0.3 0.4,0.2 0.8,0.5 1,0.9 0.2,0.4 0.3,0.9 0.3,1.5 l 0,5.9 -1.4,0 0,-6 z"
         id="path1247"
         style="fill:#ffffff" />
      <path
         class="st7"
         d="m 885.1,499.2 -1.6,0 0,-1.1 2.9,0 0,4.8 -1.4,0 0,-3.7 z"
         id="path1249"
         style="fill:#ffffff" />
      <path
         class="st7"
         d="m 890.3,505.2 c 0.5,0.2 1,0.4 1.5,0.5 0.5,0.1 1,0.2 1.5,0.2 0.7,0 1.3,-0.1 1.9,-0.3 0.6,-0.2 1,-0.5 1.3,-0.9 0.3,-0.4 0.5,-0.9 0.5,-1.5 l 0,-5 1.3,0 0,5.1 c 0,0.8 -0.2,1.5 -0.7,2.1 -0.4,0.6 -1,1 -1.8,1.3 -0.8,0.3 -1.6,0.4 -2.5,0.4 -0.7,0 -1.4,-0.1 -2.2,-0.3 -0.8,-0.2 -1.5,-0.4 -2.1,-0.7 l 0,-7.8 1.3,0 0,6.9 z m 2.4,-1.6 c 0.1,-0.3 0.1,-0.7 0.1,-1.2 l 0,-4.3 1.3,0 0,4 c 0,0.5 -0.1,0.9 -0.2,1.3 -0.1,0.4 -0.3,0.7 -0.6,0.9 l -1.1,0 c 0.3,-0.1 0.5,-0.4 0.5,-0.7 z"
         id="path1251"
         style="fill:#ffffff" />
    </g>
  </g>
</svg>
