<?xml version="1.0" encoding="UTF-8" standalone="no"?>
<svg
   xmlns:dc="http://purl.org/dc/elements/1.1/"
   xmlns:cc="http://creativecommons.org/ns#"
   xmlns:rdf="http://www.w3.org/1999/02/22-rdf-syntax-ns#"
   xmlns:svg="http://www.w3.org/2000/svg"
   xmlns="http://www.w3.org/2000/svg"
   width="36.434891mm"
   height="20.489332mm"
   viewBox="0 0 129.10001 72.599996"
   id="svg5101"
   version="1.1">
  <defs
     id="defs5103" />
  <metadata
     id="metadata5106">
    <rdf:RDF>
      <cc:Work
         rdf:about="">
        <dc:format>image/svg+xml</dc:format>
        <dc:type
           rdf:resource="http://purl.org/dc/dcmitype/StillImage" />
        <dc:title></dc:title>
      </cc:Work>
    </rdf:RDF>
  </metadata>
  <g
     id="layer1"
     transform="translate(-246.87857,-487.49078)">
    <g
       transform="translate(199.07857,356.39077)"
       id="קנייה_במקום">
      <g
         id="g493">
        <rect
           style="fill:#e93214;fill-opacity:1"
           id="rect495"
           height="52.599998"
           width="129.10001"
           class="st30"
           y="131.10001"
           x="47.799999" />
        <polygon
           transform="translate(0.25,0)"
           style="fill:#e93214;fill-opacity:1"
           id="polygon497"
           points="100.4,183.5 112.1,203.7 123.8,183.5 "
           class="st30" />
      </g>
      <g
         id="g499">
        <path
           style="fill:#f6f6f6"
           id="path501"
           d="m 81.5,146.9 c 0,-0.8 -0.2,-1.3 -0.5,-1.6 -0.3,-0.3 -0.9,-0.5 -1.6,-0.5 l -3.2,0 0,-1.1 3.2,0 c 1.1,0 2,0.3 2.6,0.8 0.6,0.5 0.9,1.4 0.9,2.5 l 0,5.4 -1.4,0 0,-5.5 z m -5.3,2.5 c 0,-0.4 0,-0.8 0.1,-1.1 0.1,-0.3 0.2,-0.5 0.3,-0.8 l 1.1,0 c -0.1,0.2 -0.1,0.5 -0.1,0.8 0,0.3 0,0.6 0,1 l 0,3.1 -1.3,0 0,-3 z"
           class="st31" />
        <path
           style="fill:#f6f6f6"
           id="path503"
           d="m 86,144.8 -1.6,0 0,-1.1 3,0 0,4.9 -1.4,0 0,-3.8 z"
           class="st31" />
        <path
           style="fill:#f6f6f6"
           id="path505"
           d="m 90.6,144.8 -1.6,0 0,-1.1 3,0 0,4.9 -1.4,0 0,-3.8 z"
           class="st31" />
        <path
           style="fill:#f6f6f6"
           id="path507"
           d="m 93.6,152.4 0,-1.1 c 0.3,0.1 0.7,0.1 1.1,0.1 0.4,0 0.7,-0.1 0.9,-0.3 0.2,-0.2 0.3,-0.6 0.3,-1.1 l 0,-5.2 -1.7,0 0,-1.1 3.1,0 0,6.4 c 0,0.8 -0.2,1.4 -0.6,1.8 -0.4,0.4 -1,0.6 -1.7,0.6 -0.4,0 -0.9,0 -1.4,-0.1 z"
           class="st31" />
        <path
           style="fill:#f6f6f6"
           id="path509"
           d="m 102.9,151.3 c 0.5,0 0.9,-0.1 1.3,-0.3 0.4,-0.2 0.6,-0.5 0.8,-0.9 0.2,-0.4 0.3,-0.8 0.3,-1.3 l 0,-4 -5.3,0 0,-1.1 6.7,0 0,5.1 c 0,0.7 -0.2,1.4 -0.5,1.9 -0.3,0.5 -0.8,0.9 -1.3,1.2 -0.6,0.3 -1.2,0.4 -2,0.5 l 0,-1.1 z m -2.8,-2.2 c 0,-0.4 0,-0.8 0.1,-1 0.1,-0.3 0.2,-0.5 0.3,-0.8 l 1.1,0 c -0.1,0.2 -0.1,0.5 -0.1,0.7 0,0.3 0,0.6 0,1 l 0,6.4 -1.3,0 0,-6.3 z"
           class="st31" />
        <path
           style="fill:#f6f6f6"
           id="path511"
           d="m 113.1,143.7 6.9,0 0,8.7 -6.9,0 0,-8.7 z m 5.6,7.6 0,-6.5 -4.2,0 0,6.5 4.2,0 z"
           class="st31" />
        <path
           style="fill:#f6f6f6"
           id="path513"
           d="m 122.7,143.7 3.3,0 c 1.2,0 2,0.3 2.6,0.8 0.6,0.5 0.9,1.4 0.9,2.5 l 0,5.4 -1.4,0 0,-5.5 c 0,-0.8 -0.2,-1.3 -0.5,-1.6 -0.3,-0.3 -0.8,-0.5 -1.6,-0.5 l -1.9,0 0,7.6 -1.4,0 0,-8.7 z"
           class="st31" />
        <path
           style="fill:#f6f6f6"
           id="path515"
           d="m 138,144.5 c 0.6,0.5 0.9,1.4 0.9,2.5 l 0,5.4 -1.4,0 0,-5.5 c 0,-0.8 -0.2,-1.3 -0.5,-1.6 -0.3,-0.3 -0.8,-0.5 -1.6,-0.5 l -1.2,0 c -0.2,0.3 -0.3,0.6 -0.4,1 -0.1,0.4 -0.1,0.8 -0.1,1.3 l 0,2.9 c 0,0.8 -0.2,1.4 -0.6,1.8 -0.4,0.4 -0.9,0.6 -1.7,0.6 -0.2,0 -0.5,0 -0.8,-0.1 l 0,-1.1 c 0.2,0 0.3,0 0.5,0 0.4,0 0.7,-0.1 0.9,-0.3 0.2,-0.2 0.3,-0.6 0.3,-1 l 0,-2.7 c 0,-0.4 0.1,-0.9 0.2,-1.3 0.1,-0.4 0.3,-0.8 0.5,-1.1 l -1.6,0 0,-1.1 4.1,0 c 1.1,0 2,0.3 2.5,0.8 z"
           class="st31" />
        <path
           style="fill:#f6f6f6"
           id="path517"
           d="m 141.9,146.9 c 0,-0.4 0.2,-0.8 0.3,-1.1 0.1,-0.3 0.4,-0.6 0.6,-0.8 0,0 0.1,0 0.1,-0.1 l 0,0 c -0.2,0 -0.5,0.1 -0.8,0.2 -0.3,0.1 -0.6,0.2 -0.9,0.3 l -0.3,-1 c 0.6,-0.2 1.2,-0.4 1.9,-0.5 0.7,-0.1 1.4,-0.2 2,-0.2 1.2,0 2.1,0.3 2.7,0.9 0.6,0.6 0.9,1.5 0.9,2.7 l 0,5.2 -3.6,0 0,-1.1 2.2,0 0,-4.4 c 0,-0.8 -0.2,-1.4 -0.5,-1.8 -0.3,-0.4 -0.9,-0.6 -1.5,-0.6 -0.5,0 -0.9,0.2 -1.2,0.5 -0.3,0.4 -0.5,0.9 -0.6,1.5 l -0.7,5.7 -1.4,0 0.8,-5.4 z"
           class="st31" />
        <path
           style="fill:#f6f6f6"
           id="path519"
           d="m 93.2,161.8 6.9,0 0,8.7 -6.9,0 0,-8.7 z m 5.6,7.6 0,-6.5 -4.2,0 0,6.5 4.2,0 z"
           class="st31" />
        <path
           style="fill:#f6f6f6"
           id="path521"
           d="m 103.2,162.9 -1,0 0,-1.1 2.4,0 0,8.7 -1.4,0 0,-7.6 z"
           class="st31" />
        <path
           style="fill:#f6f6f6"
           id="path523"
           d="m 110.2,169.5 c 0.5,0 0.9,-0.1 1.3,-0.3 0.4,-0.2 0.6,-0.5 0.8,-0.9 0.2,-0.4 0.3,-0.8 0.3,-1.3 l 0,-4 -5.4,0 0,-1.1 6.7,0 0,5.1 c 0,0.7 -0.2,1.4 -0.5,1.9 -0.3,0.5 -0.8,0.9 -1.3,1.2 -0.6,0.3 -1.2,0.4 -2,0.5 l 0,-1.1 z m -2.8,-2.2 c 0,-0.4 0,-0.8 0.1,-1 0.1,-0.3 0.2,-0.5 0.3,-0.8 l 1.1,0 c -0.1,0.2 -0.1,0.5 -0.1,0.7 0,0.3 0,0.6 0,1 l 0,6.4 -1.3,0 0,-6.3 z"
           class="st31" />
        <path
           style="fill:#f6f6f6"
           id="path525"
           d="m 117.3,165 c 0,-0.4 0.2,-0.8 0.3,-1.1 0.1,-0.3 0.4,-0.6 0.6,-0.8 0,0 0.1,0 0.1,-0.1 l 0,0 c -0.2,0 -0.5,0.1 -0.8,0.2 -0.3,0.1 -0.6,0.2 -0.9,0.3 l -0.3,-1 c 0.6,-0.2 1.2,-0.4 1.9,-0.5 0.7,-0.1 1.4,-0.2 2,-0.2 1.2,0 2.1,0.3 2.7,0.9 0.6,0.6 0.9,1.5 0.9,2.7 l 0,5.2 -3.6,0 0,-1.1 2.2,0 0,-4.2 c 0,-0.8 -0.2,-1.4 -0.5,-1.8 -0.3,-0.4 -0.9,-0.6 -1.5,-0.6 -0.5,0 -0.9,0.2 -1.2,0.5 -0.3,0.4 -0.5,0.9 -0.6,1.5 l -0.7,5.7 -1.4,0 0.8,-5.6 z"
           class="st31" />
        <path
           style="fill:#f6f6f6"
           id="path527"
           d="m 132.5,169.5 0,1 -7.1,0 0,-1.1 4.7,0 0,-4.3 c 0,-0.8 -0.2,-1.3 -0.5,-1.6 -0.3,-0.3 -0.9,-0.5 -1.6,-0.5 l -2.1,0 0,-1.1 2.2,0 c 1.1,0 2,0.3 2.6,0.8 0.6,0.6 0.9,1.4 0.9,2.5 l 0,4.3 0.9,0 z"
           class="st31" />
      </g>
    </g>
  </g>
</svg>
