<?xml version="1.0" encoding="UTF-8" standalone="no"?>
<svg
   xmlns:dc="http://purl.org/dc/elements/1.1/"
   xmlns:cc="http://creativecommons.org/ns#"
   xmlns:rdf="http://www.w3.org/1999/02/22-rdf-syntax-ns#"
   xmlns:svg="http://www.w3.org/2000/svg"
   xmlns="http://www.w3.org/2000/svg"
   xmlns:xlink="http://www.w3.org/1999/xlink"
   version="1.1"
   id="svg9932"
   viewBox="0 0 48.3 39.766463"
   height="11.22298mm"
   width="13.631333mm">
  <defs
     id="defs9934">
    <clipPath
       id="SVGID_44_">
      <use
         height="100%"
         width="100%"
         y="0"
         x="0"
         xlink:href="#SVGID_43_"
         style="overflow:visible"
         id="use369" />
    </clipPath>
  </defs>
  <metadata
     id="metadata9937">
    <rdf:RDF>
      <cc:Work
         rdf:about="">
        <dc:format>image/svg+xml</dc:format>
        <dc:type
           rdf:resource="http://purl.org/dc/dcmitype/StillImage" />
        <dc:title></dc:title>
      </cc:Work>
    </rdf:RDF>
  </metadata>
  <g
     transform="translate(-310.13571,-429.62183)"
     id="layer1">
    <rect
       style="fill:#411025"
       id="rect313"
       x="310.13571"
       y="429.62183"
       class="st10"
       width="48.299999"
       height="13" />
    <g
       id="g4155">
      <path
         id="path4152"
         style="fill:#37d7e3"
         d="m 314.60498,433.75458 q 0.52312,-0.25312 1.15312,-0.38812 0.63,-0.135 1.24313,-0.135 0.46687,0 0.87187,0.09 0.405,0.0844 0.70313,0.28125 0.29812,0.19687 0.46687,0.52312 0.16875,0.32625 0.16875,0.80438 0,0.46125 -0.12375,0.77062 -0.12375,0.30938 -0.36562,0.53438 -0.24188,0.225 -0.6075,0.405 -0.36,0.17437 -0.8325,0.37687 -0.27563,0.11813 -0.47813,0.20813 -0.19687,0.0844 -0.33187,0.16312 -0.135,0.0731 -0.21938,0.15188 -0.0844,0.0731 -0.12937,0.16875 -0.045,0.0956 -0.0619,0.21937 -0.0169,0.12375 -0.0225,0.29813 l 3.08813,0 0,1.09687 -4.60125,0 0,-0.78187 q 0,-0.54563 0.14062,-0.93938 0.14063,-0.39375 0.405,-0.68062 0.26438,-0.28688 0.64125,-0.50063 0.37688,-0.21375 0.84938,-0.39937 0.26437,-0.10688 0.4725,-0.19125 0.21375,-0.0844 0.36,-0.19125 0.14625,-0.1125 0.225,-0.26438 0.0788,-0.1575 0.0788,-0.41062 0,-0.19688 -0.0675,-0.32625 -0.0675,-0.12938 -0.18563,-0.20813 -0.11812,-0.0788 -0.27562,-0.10687 -0.1575,-0.0337 -0.3375,-0.0337 -0.18563,0 -0.41063,0.0337 -0.225,0.0281 -0.46125,0.0844 -0.23625,0.0562 -0.47812,0.14063 -0.23625,0.0844 -0.45,0.19125 l -0.4275,-0.98438 z" />
      <path
         d="m 325.23573,431.82184 0,1.6 3.2,0 c 0,0.1 0,0.2 0.1,0.2 0,0.1 0,0.1 0,0.2 0,0.1 0,0.2 0,0.3 0,0.1 0,0.2 0,0.3 l 0,1.2 c 0,0.4 -0.1,0.9 -0.3,1.3 -0.2,0.4 -0.4,0.8 -0.8,1.2 l -1.4,1.6 -1.1,-0.9 0.6,-0.7 c 0.3,-0.3 0.5,-0.6 0.7,-0.8 0.2,-0.2 0.3,-0.4 0.4,-0.5 0.1,-0.2 0.2,-0.3 0.2,-0.5 0,-0.1 0.1,-0.3 0.1,-0.5 l 0,-1 -3.3,0 0,-3 1.6,0 0,0 z m 7.2,1.7 0,5.9 -1.5,0 0,-4.6 -1,0 0,-1.2 2.5,-0.1 0,0 z m 3.5,1.2 c -0.2,0 -0.4,0 -0.5,0 -0.1,0 -0.3,0 -0.4,0 -0.1,0 -0.3,0 -0.4,-0.1 -0.1,0 -0.3,-0.1 -0.5,-0.1 0.1,-0.2 0.1,-0.4 0.2,-0.6 0.1,-0.2 0.1,-0.4 0.2,-0.6 0.2,0.1 0.4,0.1 0.5,0.1 0.1,0 0.3,0.1 0.4,0.1 0.1,0 0.3,0 0.4,0 0.1,0 0.3,0 0.5,0 l 0.5,0 c 0.2,0 0.5,0 0.7,0.1 0.2,0.1 0.4,0.2 0.6,0.3 0.2,0.1 0.3,0.4 0.4,0.6 0.1,0.3 0.2,0.6 0.2,1 0,0.2 0,0.4 0,0.6 0,0.2 0,0.4 0,0.6 0,0.2 0,0.5 0,0.7 0,0.2 0,0.5 0,0.8 0,0.1 0,0.2 0,0.2 0,0.1 0,0.2 0,0.2 0,0.1 0,0.2 0,0.3 0,0.1 0,0.2 -0.1,0.4 l -4.9,0 0,-1.2 3.5,0 c 0,-0.2 0,-0.4 0,-0.6 0,-0.2 0,-0.4 0,-0.6 0,-0.2 0,-0.4 0,-0.6 0,-0.2 0,-0.4 0,-0.6 0,-0.2 0,-0.4 0,-0.6 0,-0.1 -0.1,-0.3 -0.1,-0.3 -0.1,-0.1 -0.2,-0.1 -0.3,-0.2 -0.1,0 -0.3,0 -0.5,0 l -0.4,0 0,0.1 z m 6,3.5 c 0.1,0 0.2,0 0.2,0 0.1,0 0.2,0 0.3,0 0.2,0 0.5,0 0.7,-0.1 0.2,0 0.5,-0.1 0.7,-0.2 0.2,-0.1 0.4,-0.2 0.6,-0.4 0.2,-0.2 0.4,-0.4 0.5,-0.7 0.2,-0.4 0.4,-0.8 0.4,-1.2 0.1,-0.4 0.1,-0.8 0.1,-1.2 0,-0.2 0,-0.3 0,-0.5 0,-0.2 0,-0.3 0,-0.5 0.2,0 0.3,-0.1 0.4,-0.1 0.1,0 0.2,-0.1 0.3,-0.1 0.1,0 0.2,0 0.3,-0.1 0.1,0 0.3,0 0.4,-0.1 0,0.2 0.1,0.3 0.1,0.5 0,0.2 0,0.4 0,0.6 0,0.2 0,0.4 0,0.5 0,0.2 0,0.3 0,0.5 -0.2,1.4 -0.7,2.4 -1.5,3.1 -0.8,0.7 -1.9,1 -3.4,1 -0.2,0 -0.5,0 -0.8,0 -0.3,0 -0.5,0 -0.8,-0.1 l -0.3,-3.4 c 0,-0.2 0,-0.4 0,-0.5 0,-0.1 0,-0.3 0,-0.4 0,-0.1 0,-0.2 0,-0.3 0,-0.1 0,-0.2 -0.1,-0.3 0,-0.1 -0.1,-0.2 -0.1,-0.3 0,-0.1 -0.1,-0.2 -0.1,-0.4 0.2,-0.1 0.4,-0.2 0.7,-0.3 0.2,-0.1 0.5,-0.2 0.7,-0.3 0.1,0.2 0.2,0.4 0.2,0.6 0.1,0.2 0.1,0.4 0.1,0.5 0,0.2 0.1,0.4 0.1,0.6 0,0.2 0,0.4 0.1,0.7 l 0.2,2.9 0,0 z m 0.5,-2.8 c 0.1,-0.2 0.1,-0.3 0.1,-0.4 0,-0.1 0.1,-0.2 0.1,-0.3 0,-0.1 0,-0.2 0.1,-0.2 0,-0.1 0,-0.2 0,-0.2 l 0,-0.1 0,-0.1 c 0,-0.1 0,-0.1 0,-0.2 0,-0.1 0,-0.1 0,-0.2 0.2,-0.1 0.5,-0.1 0.7,-0.2 0.2,-0.1 0.5,-0.1 0.7,-0.2 0,0.2 0.1,0.3 0.1,0.5 0,0.1 0,0.3 0,0.4 0,0.1 0,0.2 0,0.3 0,0.1 0,0.2 -0.1,0.4 0,0.1 -0.1,0.3 -0.1,0.4 -0.1,0.1 -0.1,0.3 -0.2,0.5 l -0.4,1 c -0.2,0 -0.3,-0.1 -0.4,-0.1 -0.1,0 -0.2,-0.1 -0.3,-0.1 -0.1,0 -0.2,-0.1 -0.3,-0.1 -0.1,0 -0.2,-0.1 -0.4,-0.2 l 0.4,-0.9 0,0 z m 11.4,0.1 c -0.1,0.2 -0.1,0.4 -0.2,0.6 -0.1,0.2 -0.1,0.4 -0.2,0.5 -0.1,0.1 -0.2,0.3 -0.3,0.4 -0.1,0.1 -0.3,0.3 -0.4,0.4 l 1.2,1.4 -1,0.9 -2.9,-3.4 c -0.1,0.1 -0.1,0.2 -0.1,0.4 0,0.2 -0.1,0.3 -0.1,0.5 0,0.2 0,0.4 0,0.6 0,0.2 0,0.4 0,0.5 0,0.1 0,0.1 0,0.2 0,0.1 0,0.2 0,0.3 0,0.1 0,0.2 0,0.3 0,0.1 0,0.2 0,0.3 l -1.4,0 c 0,-0.1 0,-0.2 0,-0.3 0,-0.1 0,-0.3 0,-0.4 0,-0.1 0,-0.3 0,-0.5 0,-0.2 0,-0.4 0,-0.6 0,-0.2 0,-0.4 0,-0.6 0,-0.2 0.1,-0.4 0.1,-0.6 0.1,-0.2 0.1,-0.4 0.2,-0.5 0.1,-0.2 0.2,-0.3 0.4,-0.5 -0.1,-0.1 -0.2,-0.2 -0.3,-0.4 -0.1,-0.1 -0.1,-0.2 -0.2,-0.4 -0.1,-0.1 -0.1,-0.3 -0.2,-0.4 -0.1,-0.1 -0.1,-0.3 -0.2,-0.5 0.2,-0.1 0.4,-0.2 0.7,-0.3 0.2,-0.1 0.5,-0.2 0.7,-0.2 0.1,0.2 0.2,0.4 0.2,0.6 0.1,0.2 0.2,0.3 0.2,0.5 0.1,0.1 0.2,0.3 0.3,0.4 0.1,0.1 0.2,0.3 0.4,0.5 l 1.1,1.2 c 0.1,-0.1 0.2,-0.2 0.2,-0.3 0.1,-0.1 0.1,-0.3 0.2,-0.4 0,-0.1 0,-0.1 0.1,-0.2 0,-0.1 0,-0.2 0.1,-0.2 l 0.1,-0.7 -0.8,-0.1 0.2,-1.2 2.1,0.4 0,0.7 -0.2,1.1 0,0 z"
         class="st2"
         id="path433"
         style="fill:#37d7e3" />
    </g>
    <g
       id="g435"
       transform="translate(823.08571,-426.61171)">
      <g
         id="g363">
        <defs
           id="defs365">
          <rect
             id="SVGID_43_"
             x="-658.29999"
             y="457.5"
             width="554"
             height="1157.5" />
        </defs>
        <clipPath
           id="clipPath9922">
          <use
             height="100%"
             width="100%"
             y="0"
             x="0"
             xlink:href="#SVGID_43_"
             style="overflow:visible"
             id="use9924" />
        </clipPath>
        <path
           style="fill:#c31a3b"
           id="path443"
           class="st31"
           d="m -481,879.9 c 0,4.3 -7.8,16.1 -7.8,16.1 0,0 -7.8,-11.8 -7.8,-16.1 0,-4.3 3.5,-7.8 7.8,-7.8 4.3,0 7.8,3.5 7.8,7.8"
           clip-path="url(#SVGID_44_)" />
      </g>
    </g>
    <g
       id="g4679-4-3"
       transform="matrix(0.42702949,0,0,0.42702949,838.73923,-50.413898)">
      <path
         style="fill:#ffffff"
         id="path6-3-6"
         class="st3"
         d="m -1174.9,1172.3 c 1.9,-0.1 3.6,-1.7 4,-3.5 -1.8,0 -3.6,1.8 -4,3.5 z m -3.9,-2 c -2.2,2.6 -5.5,3.7 -8.4,5.3 -2.6,1.2 -5,3.4 -7.9,3.6 -0.1,1.9 0.7,3.6 1,5.4 1.9,-0.6 2.7,-0.4 3.6,1.4 1.8,2.3 6.1,1 6.3,-1.9 2.6,0.1 5.2,-0.1 7.7,-0.2 1,1 3.8,0.8 3.2,-1.1 -0.7,-4.1 -2,-8.1 -3.2,-12.1 -0.3,-0.8 -1.6,-0.2 -2.3,-0.4 z" />
      <path
         style="fill:#c31a3b"
         id="path8-6-2"
         class="st10"
         d="m -1178.8,1174.3 c -3.8,2.2 -7.7,4.4 -11.7,6.4 0.4,1 3,0.4 4.3,0.6 3.1,0 6.3,0 9.4,0 -0.4,-2.4 -0.9,-5 -2,-7 z" />
      <path
         style="fill:#ffffff"
         id="path10-3-7"
         class="st3"
         d="m -1172.4,1176.7 c 1.7,0 3.3,-0.5 4.9,-1 0.4,-2.4 -2.3,-1.1 -3.5,-0.6 -0.7,0.3 -1.4,0.8 -1.4,1.6 m 0,4 c 0.9,1.2 3.2,2.2 4.6,1.3 1,-1.5 -2.4,-1.3 -3.4,-1.7 -0.5,0 -0.8,0.2 -1.2,0.4 l 0,0 z" />
      <path
         style="fill:#c31a3b"
         id="path12-1-2"
         class="st10"
         d="m -1190.2,1184.2 c 0.7,1.5 2.4,2.6 3.7,1.2 2.1,-2 -1.9,-1 -3.1,-1.2 -0.2,0 -0.4,0 -0.6,0 z" />
    </g>
  </g>
</svg>
