<?xml version="1.0" encoding="UTF-8" standalone="no"?>
<svg
   xmlns:dc="http://purl.org/dc/elements/1.1/"
   xmlns:cc="http://creativecommons.org/ns#"
   xmlns:rdf="http://www.w3.org/1999/02/22-rdf-syntax-ns#"
   xmlns:svg="http://www.w3.org/2000/svg"
   xmlns="http://www.w3.org/2000/svg"
   width="231.39999"
   height="61.34"
   viewBox="0 0 231.4 61.339999"
   id="svg18878"
   version="1.1">
  <defs
     id="defs18880" />
  <metadata
     id="metadata18883">
    <rdf:RDF>
      <cc:Work
         rdf:about="">
        <dc:format>image/svg+xml</dc:format>
        <dc:type
           rdf:resource="http://purl.org/dc/dcmitype/StillImage" />
        <dc:title></dc:title>
      </cc:Work>
    </rdf:RDF>
  </metadata>
  <g
     id="layer1"
     transform="translate(-255.1379,-458.83506)">
    <polygon
       class="st943"
       points="-618.82,667.03 -627.29,622.62 -667.13,683.55 "
       id="polygon6767"
       style="fill:#b48e59"
       transform="translate(1037.9679,-163.37494)" />
    <polygon
       class="st944"
       points="-775.76,666.35 -782.83,622.9 -627.29,622.21 -618.82,667.03 "
       id="polygon6769"
       style="fill:#d68a2a;fill-opacity:1"
       transform="translate(1037.9679,-163.37494)" />
    <path
       id="path473_1_"
       class="st934"
       d="m 393.25786,494.32507 c -7.71,0 -14.01,-6.3 -14.01,-14.01 0,-7.71 6.3,-14.01 14.01,-14.01 7.71,0 14.01,6.3 14.01,14.01 0,7.71 -6.3,14.01 -14.01,14.01 m 0,-31.17 c -9.46,0 -17.16,7.71 -17.16,17.16 0,9.45 7.71,17.16 17.16,17.16 9.46,0 17.16,-7.71001 17.16,-17.16 0,-9.45001 -7.7,-17.16 -17.16,-17.16 m 0,15.06 c -1.05,0 -2.1,1.04999 -2.1,2.1 l 0,6.29999 c 0,1.05 1.05,2.10001 2.1,2.10001 1.05,0 2.1,-1.05 2.1,-2.10001 l 0,-6.29999 c 0,-1.05 -1.05,-2.1 -2.1,-2.1 m 0,-6.65 c -1.05,0 -2.1,1.04999 -2.1,2.1 0,1.05 1.05,2.1 2.1,2.1 1.05,0 2.1,-1.05 2.1,-2.1 0,-1.05 -1.05,-2.1 -2.1,-2.1"
       style="opacity:1;fill:#be8d4b;fill-opacity:1" />
    <g
       id="g6772"
       transform="translate(1037.9679,-163.37494)">
      <path
         class="st946"
         d="m -763.75,639.4 7.46,0 0,9.01 -7.46,0 0,-9.01 z m 5.53,7.49 0,-5.99 -3.61,0 0,5.99 3.61,0 z"
         id="path6774"
         style="fill:#ffffff" />
      <path
         class="st946"
         d="m -753.07,640.91 -1.52,0 0,-1.51 3.45,0 0,5.08 -1.92,0 0,-3.57 z"
         id="path6776"
         style="fill:#ffffff" />
      <path
         class="st946"
         d="m -744.26,644.35 2.18,3.16 0,0.9 -6.91,0 0,-1.52 4.44,0 -5.09,-7.49 2.15,0 2.1,3.27 1.66,-3.27 2.16,0 -2.69,4.95 z"
         id="path6778"
         style="fill:#ffffff" />
      <path
         class="st946"
         d="m -738.12,648.44 c -0.57,-0.09 -1.11,-0.23 -1.6,-0.4 l 0.36,-1.42 c 0.47,0.14 0.94,0.24 1.42,0.31 0.48,0.07 0.9,0.11 1.26,0.11 0.77,-0.01 1.36,-0.2 1.77,-0.56 0.41,-0.36 0.61,-0.89 0.61,-1.59 l 0,-3.99 -3.11,0 c -0.13,0.28 -0.23,0.6 -0.31,0.95 -0.07,0.35 -0.11,0.7 -0.11,1.06 l 0,0.56 c 0.21,0.07 0.54,0.1 0.97,0.1 l 0,1.43 c -0.21,0.02 -0.43,0.03 -0.67,0.03 -0.44,0 -0.83,-0.04 -1.19,-0.13 -0.36,-0.09 -0.68,-0.22 -0.98,-0.39 l -0.02,-1 c 0,-0.5 0.06,-0.98 0.17,-1.45 0.11,-0.47 0.27,-0.85 0.47,-1.16 l -1.02,0 0,-1.51 7.71,0 0,5.19 c 0,0.89 -0.18,1.64 -0.53,2.24 -0.36,0.6 -0.84,1.04 -1.47,1.33 -0.63,0.29 -1.34,0.43 -2.14,0.43 -0.49,0 -1.02,-0.04 -1.59,-0.14 z"
         id="path6780"
         style="fill:#ffffff" />
      <path
         class="st946"
         d="m -729.77,639.4 3.67,0 c 2.37,0 3.56,1.14 3.58,3.42 l 0,5.58 -1.92,0 -0.01,-5.72 c 0,-0.61 -0.13,-1.06 -0.4,-1.35 -0.27,-0.29 -0.68,-0.43 -1.25,-0.43 l -1.77,0 0,7.5 -1.92,0 0.02,-9 z"
         id="path6782"
         style="fill:#ffffff" />
      <path
         class="st946"
         d="m -709.68,640.25 c 0.6,0.57 0.9,1.43 0.9,2.57 l 0,5.58 -1.92,0 -0.01,-5.72 c 0,-0.62 -0.13,-1.07 -0.39,-1.35 -0.26,-0.29 -0.68,-0.43 -1.24,-0.43 l -1.22,0 c -0.12,0.28 -0.21,0.61 -0.28,0.99 -0.07,0.38 -0.11,0.75 -0.11,1.11 l 0,2.8 c 0,0.87 -0.22,1.54 -0.66,2.01 -0.44,0.47 -1.06,0.7 -1.87,0.7 -0.31,0 -0.65,-0.03 -1.02,-0.08 l 0,-1.51 c 0.18,0.02 0.35,0.02 0.51,0.02 0.4,0 0.7,-0.1 0.89,-0.31 0.19,-0.21 0.29,-0.53 0.29,-0.97 l 0,-2.49 c 0,-0.39 0.05,-0.8 0.16,-1.22 0.11,-0.42 0.25,-0.77 0.44,-1.04 l -1.54,0 0,-1.51 4.4,0 c 1.18,0 2.08,0.28 2.67,0.85 z"
         id="path6784"
         style="fill:#ffffff" />
      <path
         class="st946"
         d="m -703.03,642.3 c 0,-0.44 -0.13,-0.78 -0.38,-1.03 -0.25,-0.25 -0.61,-0.37 -1.07,-0.37 l -2.87,0 0,-1.51 2.97,0 c 0.68,0 1.26,0.12 1.75,0.36 0.49,0.24 0.86,0.59 1.13,1.04 0.26,0.45 0.39,0.99 0.39,1.62 l 0,5.99 -1.92,0 0,-6.1 z"
         id="path6786"
         style="fill:#ffffff" />
      <path
         class="st946"
         d="m -698.1,640.91 -1.52,0 0,-1.51 3.45,0 0,5.08 -1.92,0 0,-3.57 z"
         id="path6788"
         style="fill:#ffffff" />
      <path
         class="st946"
         d="m -693.13,643.03 c 0.05,-0.41 0.16,-0.8 0.33,-1.16 0.17,-0.37 0.37,-0.65 0.6,-0.86 0.04,-0.04 0.08,-0.07 0.13,-0.1 l -0.01,-0.03 c -0.21,0.04 -0.46,0.09 -0.77,0.18 -0.31,0.08 -0.58,0.17 -0.81,0.25 l -0.42,-1.41 c 0.59,-0.21 1.26,-0.38 2.02,-0.51 0.76,-0.13 1.46,-0.19 2.12,-0.19 1.3,0 2.29,0.34 2.97,1.01 0.68,0.67 1.02,1.67 1.03,2.97 l 0,5.23 -3.83,0 0,-1.51 1.91,0 0,-3.96 c 0,-0.7 -0.15,-1.23 -0.45,-1.6 -0.3,-0.37 -0.72,-0.56 -1.28,-0.56 -0.46,0 -0.82,0.18 -1.11,0.53 -0.28,0.35 -0.46,0.85 -0.53,1.49 l -0.6,5.61 -1.9,0 0.6,-5.38 z"
         id="path6790"
         style="fill:#ffffff" />
      <path
         class="st946"
         d="m -681.73,646.5 c 0.46,0.2 0.95,0.35 1.46,0.46 0.52,0.11 1,0.17 1.46,0.17 0.72,0 1.36,-0.1 1.91,-0.31 0.55,-0.2 0.99,-0.52 1.3,-0.94 0.31,-0.42 0.47,-0.95 0.47,-1.59 l 0,-4.9 1.86,0 0,5.11 c 0,0.9 -0.24,1.66 -0.73,2.28 -0.49,0.62 -1.14,1.09 -1.96,1.4 -0.82,0.31 -1.75,0.47 -2.77,0.47 -0.79,0 -1.61,-0.09 -2.46,-0.28 -0.85,-0.19 -1.64,-0.47 -2.4,-0.83 l 0,-8.15 1.86,0 0,7.11 z m 2.22,-1.61 c 0.08,-0.35 0.11,-0.75 0.11,-1.19 l 0,-4.31 1.86,0 0,3.93 c 0,0.52 -0.06,0.98 -0.19,1.4 -0.12,0.42 -0.3,0.75 -0.53,1.01 l -1.58,-0.03 c 0.15,-0.18 0.25,-0.45 0.33,-0.81 z"
         id="path6792"
         style="fill:#ffffff" />
    </g>
  </g>
</svg>
