<?xml version="1.0" encoding="UTF-8" standalone="no"?>
<svg
   xmlns:dc="http://purl.org/dc/elements/1.1/"
   xmlns:cc="http://creativecommons.org/ns#"
   xmlns:rdf="http://www.w3.org/1999/02/22-rdf-syntax-ns#"
   xmlns:svg="http://www.w3.org/2000/svg"
   xmlns="http://www.w3.org/2000/svg"
   xmlns:xlink="http://www.w3.org/1999/xlink"
   version="1.1"
   x="0px"
   y="0px"
   viewBox="-683 378.4 552.2 324.6"
   style="enable-background:new -683 378.4 552.2 324.6;"
   xml:space="preserve"
   id="svg2"><metadata
     id="metadata966"><rdf:RDF><cc:Work
         rdf:about=""><dc:format>image/svg+xml</dc:format><dc:type
           rdf:resource="http://purl.org/dc/dcmitype/StillImage" /><dc:title></dc:title></cc:Work></rdf:RDF></metadata><defs
     id="defs964" /><style
     type="text/css"
     id="style4">
	.st0{fill:#FEFBF5;}
	.st1{fill:#FEE1A4;}
	.st2{fill:#37D7E3;}
	.st3{fill:#FFFFFF;}
	.st4{fill:none;stroke:#141132;stroke-width:0.24;}
	.st5{fill:none;stroke:#141132;stroke-width:0.48;}
	.st6{clip-path:url(#SVGID_2_);fill:#FFFFFF;}
	.st7{clip-path:url(#SVGID_4_);fill:none;stroke:#141132;stroke-width:0.48;}
	.st8{clip-path:url(#SVGID_6_);fill:#37D7E3;}
	.st9{fill:#D29839;}
	.st10{fill:#411025;}
	.st11{clip-path:url(#SVGID_8_);fill:#FE7A8E;}
	.st12{clip-path:url(#SVGID_10_);fill:#411025;}
	.st13{clip-path:url(#SVGID_12_);fill:#FFFFFF;}
	.st14{clip-path:url(#SVGID_14_);fill:#FFFFFF;}
	.st15{clip-path:url(#SVGID_16_);fill:#FFFFFF;}
	.st16{clip-path:url(#SVGID_18_);fill:#FFFFFF;}
	.st17{clip-path:url(#SVGID_20_);fill:#411025;}
	.st18{clip-path:url(#SVGID_22_);fill:#FFFFFF;}
	.st19{clip-path:url(#SVGID_24_);fill:#FFFFFF;}
	.st20{clip-path:url(#SVGID_26_);fill:#FFFFFF;}
	.st21{clip-path:url(#SVGID_28_);fill:#FFFFFF;}
	.st22{clip-path:url(#SVGID_30_);fill:#411025;}
	.st23{clip-path:url(#SVGID_32_);fill:#FFFFFF;}
	.st24{clip-path:url(#SVGID_34_);fill:#FFFFFF;}
	.st25{clip-path:url(#SVGID_36_);fill:#FFFFFF;}
	.st26{clip-path:url(#SVGID_38_);fill:#FFFFFF;}
	.st27{clip-path:url(#SVGID_40_);fill:#411025;}
	.st28{font-family:'Arial-BoldMT';}
	.st29{font-size:11.52px;}
	.st30{clip-path:url(#SVGID_42_);fill:#411025;}
	.st31{clip-path:url(#SVGID_44_);fill:#411025;}
	.st32{clip-path:url(#SVGID_46_);fill:#411025;}
	.st33{clip-path:url(#SVGID_48_);fill:#411025;}
	.st34{clip-path:url(#SVGID_50_);fill:#FFFFFF;}
	.st35{clip-path:url(#SVGID_52_);fill:#411025;}
	.st36{clip-path:url(#SVGID_54_);fill:#FFFFFF;}
	.st37{clip-path:url(#SVGID_56_);fill:#411025;}
	.st38{clip-path:url(#SVGID_58_);fill:#FFFFFF;}
	.st39{fill:#FDF3DE;}
	.st40{clip-path:url(#SVGID_60_);fill:#FFFFFF;}
	.st41{clip-path:url(#SVGID_62_);fill:none;stroke:#141132;stroke-width:0.48;}
	.st42{clip-path:url(#SVGID_64_);fill:#37D7E3;}
	.st43{clip-path:url(#SVGID_66_);fill:#FE7A8E;}
	.st44{fill:#FE7A8E;}
	.st45{clip-path:url(#SVGID_68_);fill:#411025;}
	.st46{clip-path:url(#SVGID_70_);fill:#FFFFFF;}
	.st47{clip-path:url(#SVGID_72_);fill:#FFFFFF;}
	.st48{clip-path:url(#SVGID_74_);fill:#FFFFFF;}
	.st49{clip-path:url(#SVGID_76_);fill:#FFFFFF;}
	.st50{clip-path:url(#SVGID_78_);fill:#411025;}
	.st51{clip-path:url(#SVGID_80_);fill:#FFFFFF;}
	.st52{clip-path:url(#SVGID_82_);fill:#FFFFFF;}
	.st53{clip-path:url(#SVGID_84_);fill:#FFFFFF;}
	.st54{clip-path:url(#SVGID_86_);fill:#FFFFFF;}
	.st55{clip-path:url(#SVGID_88_);fill:#411025;}
	.st56{clip-path:url(#SVGID_90_);fill:#FFFFFF;}
	.st57{clip-path:url(#SVGID_92_);fill:#FFFFFF;}
	.st58{clip-path:url(#SVGID_94_);fill:#FFFFFF;}
	.st59{clip-path:url(#SVGID_96_);fill:#FFFFFF;}
	.st60{clip-path:url(#SVGID_98_);fill:#411025;}
	.st61{clip-path:url(#SVGID_100_);fill:#411025;}
	.st62{clip-path:url(#SVGID_102_);fill:#411025;}
	.st63{clip-path:url(#SVGID_104_);fill:#411025;}
	.st64{clip-path:url(#SVGID_106_);fill:#411025;}
	.st65{clip-path:url(#SVGID_108_);fill:#FFFFFF;}
	.st66{clip-path:url(#SVGID_110_);fill:#411025;}
	.st67{clip-path:url(#SVGID_112_);fill:#FFFFFF;}
	.st68{clip-path:url(#SVGID_114_);fill:#411025;}
	.st69{clip-path:url(#SVGID_116_);fill:#FFFFFF;}
	.st70{fill:#FEDE9C;}
	.st71{fill:#FEC965;}
	.st72{fill:#FD4D69;}
	.st73{fill:#C31A3B;}
	.st74{fill:#54EFFA;}
	.st75{fill:#00A3B2;}
	.st76{fill:#803C58;}
	.st77{fill:#612640;}
</style><g
     id="_x31_"><g
       id="layer1"
       transform="translate(-133.01366,-313.26645)"><polygon
         id="polygon3"
         class="st1"
         points="-13,832.4 -39.7,846.1 -68.2,833.1 -180.3,890.6 -219.7,937.9 -207.3,948.6     -230.7,965.3 -211,979.5 -249.6,999 -299.6,978.3 -294,976.9 -379.1,937.4 -340.7,910.3 -427.8,867.7 -471.8,890.6 -539.7,849.9     -387.6,778.5 -281.7,824.8 -244.4,802.6 -211,786.7 -229.3,777.8 -194.7,761.2 -82.3,809.4 -66.9,805   " /><polygon
         id="polygon5"
         class="st2"
         points="-399.2,822.7 -379.1,829.4 -338.4,849 -366.4,870.2 -392.7,858.5 -427.4,839.1   " /><polygon
         id="polygon7"
         class="st3"
         points="-199.9,781 -116.3,817.5 -116.3,807 -199.9,770   " /><polygon
         id="polygon9"
         class="st4"
         points="-199.9,781 -116.3,817.5 -116.3,807 -199.9,770   " /><polygon
         id="polygon11"
         class="st3"
         points="-381.8,885.3 -386.4,887 -386.4,877.1 -381.8,874.5   " /><polygon
         id="polygon13"
         class="st4"
         points="-381.8,885.3 -386.4,887 -386.4,877.1 -381.8,874.5   " /><polygon
         id="polygon15"
         class="st3"
         points="-398.8,825.4 -333.7,855.3 -333.7,844.1 -398.8,814.4   " /><polygon
         id="polygon17"
         class="st4"
         points="-398.8,825.4 -333.7,855.3 -333.7,844.1 -398.8,814.4   " /><polygon
         id="polygon19"
         class="st3"
         points="-281.7,815.2 -385.6,771.4 -385.2,779.9 -281.7,825.2   " /><polygon
         id="polygon21"
         class="st4"
         points="-281.7,815.2 -385.6,771.4 -385.2,779.9 -281.7,825.2   " /><polygon
         id="polygon23"
         class="st3"
         points="-371.6,865.6 -361.5,870.7 -333.6,855.3 -333.6,844   " /><polygon
         id="polygon25"
         class="st4"
         points="-371.6,865.6 -361.5,870.7 -333.6,855.3 -333.6,844   " /><polygon
         id="polygon27"
         class="st3"
         points="-177.8,770 -81.5,812.3 -81.5,803.3 -177.8,760.5   " /><polygon
         id="polygon29"
         class="st4"
         points="-177.8,770 -81.5,812.3 -81.5,803.3 -177.8,760.5   " /><polygon
         id="polygon31"
         class="st3"
         points="-539.7,849.9 -471.8,890.6 -471.8,877.4 -539.7,835.8   " /><polygon
         id="polygon33"
         class="st4"
         points="-539.7,849.9 -471.8,890.6 -471.8,877.4 -539.7,835.8   " /><polygon
         id="polygon35"
         class="st3"
         points="-427.8,856.4 -340.8,899.6 -340.7,910.3 -427.8,867.7   " /><polygon
         id="polygon37"
         class="st4"
         points="-427.8,856.4 -340.8,899.6 -340.7,910.3 -427.8,867.7   " /><polygon
         id="polygon39"
         class="st3"
         points="-402.8,848.3 -392.7,853.3 -368.1,839.3 -368.1,829   " /><polygon
         id="polygon41"
         class="st4"
         points="-402.8,848.3 -392.7,853.3 -368.1,839.3 -368.1,829   " /><path
         id="path43"
         class="st3"
         d="M-320.5,964.6l26.6,12.3l3.8-7.3l-30.4-14.4V964.6z M-353.7,939.6l-25.4-12v9.8l25.4,11.8V939.6z    " /><path
         id="path45"
         class="st4"
         d="M-320.5,964.6l26.6,12.3l3.8-7.3l-30.4-14.4V964.6z M-353.7,939.6l-25.4-12v9.8l25.4,11.8V939.6z    " /><polygon
         id="polygon47"
         class="st3"
         points="-237.3,969.5 -207.3,984 -207.3,974.6 -237.6,960.9   " /><polygon
         id="polygon49"
         class="st4"
         points="-237.3,969.5 -207.3,984 -207.3,974.6 -237.6,960.9   " /><polygon
         id="polygon51"
         class="st3"
         points="-222.3,943.2 -201.8,953.6 -201.8,943 -222.5,932.5   " /><polygon
         id="polygon53"
         class="st4"
         points="-222.3,943.2 -201.8,953.6 -201.8,943 -222.5,932.5   " /><polygon
         id="polygon55"
         class="st3"
         points="-67.4,805.1 -14.5,832.1 -8,827.6 -67.4,797.4   " /><polygon
         id="polygon57"
         class="st4"
         points="-67.4,805.1 -14.5,832.1 -8,827.6 -67.4,797.4   " /><polygon
         id="polygon59"
         class="st3"
         points="-64.2,838.5 -39.7,851 -39.7,841.7 -64.2,829.5   " /><polygon
         id="polygon61"
         class="st4"
         points="-64.2,838.5 -39.7,851 -39.7,841.7 -64.2,829.5   " /><polygon
         id="polygon63"
         class="st3"
         points="-440.3,840 -328.2,894.7 -328.2,884.4 -440.3,828.8   " /><polygon
         id="polygon65"
         class="st4"
         points="-440.3,840 -328.2,894.7 -328.2,884.4 -440.3,828.8   " /><polygon
         id="polygon67"
         class="st3"
         points="-379.1,927.6 -370.6,931.4 -340.7,910.3 -340.8,899.6   " /><polygon
         id="polygon69"
         class="st4"
         points="-379.1,927.6 -370.6,931.4 -340.7,910.3 -340.8,899.6   " /><polygon
         id="polygon71"
         class="st3"
         points="-301.8,972.2 -301.8,981.7 -277.5,969.2 -277.5,957.5   " /><polygon
         id="polygon73"
         class="st4"
         points="-301.8,972.2 -301.8,981.7 -277.5,969.2 -277.5,957.5   " /><polygon
         id="polygon75"
         class="st3"
         points="-301.8,981.6 -254.5,1006.1 -254.5,995.8 -301.8,972.4   " /><polygon
         id="polygon77"
         class="st4"
         points="-301.8,981.6 -254.5,1006.1 -254.5,995.8 -301.8,972.4   " /><polygon
         id="polygon79"
         class="st3"
         points="-207.3,974.6 -207.3,984 -254.5,1006.1 -254.5,995.8   " /><polygon
         id="polygon81"
         class="st4"
         points="-207.3,974.6 -207.3,984 -254.5,1006.1 -254.5,995.8   " /><polygon
         id="polygon83"
         class="st3"
         points="-201.8,943 -201.8,953.6 -228,965.3 -237.7,960.9   " /><polygon
         id="polygon85"
         class="st4"
         points="-201.8,943 -201.8,953.6 -228,965.3 -237.7,960.9   " /><polygon
         id="polygon87"
         class="st3"
         points="-177.4,881.9 -64.2,829.5 -64.2,838.5 -173.7,891.8 -215.6,936 -222.5,932.5   " /><polygon
         id="polygon89"
         class="st4"
         points="-177.4,881.9 -64.2,829.5 -64.2,838.5 -173.7,891.8 -215.6,936 -222.5,932.5   " /><polygon
         id="polygon91"
         class="st3"
         points="-199,870 -96,821.9 -96,831.1 -195.4,879.8 -214.9,899 -215.3,888.2   " /><polygon
         id="polygon93"
         class="st4"
         points="-199,870 -96,821.9 -96,831.1 -195.4,879.8 -214.9,899 -215.3,888.2   " /><polygon
         id="polygon95"
         class="st3"
         points="-8.4,827.1 -8.4,836.5 -39.9,851.3 -39.9,842   " /><polygon
         id="polygon97"
         class="st4"
         points="-8.4,827.1 -8.4,836.5 -39.9,851.3 -39.9,842   " /><polygon
         id="polygon99"
         class="st3"
         points="-81.5,803.5 -81.5,812.3 -75.8,809.7 -75.8,800.7   " /><polygon
         id="polygon101"
         class="st4"
         points="-81.5,803.5 -81.5,812.3 -75.8,809.7 -75.8,800.7   " /><polygon
         id="polygon103"
         class="st3"
         points="-211,788.1 -248.4,806.4 -281.7,824.8 -281.7,815.2 -252.1,795.2 -212,777.1   " /><polygon
         id="polygon105"
         class="st4"
         points="-211,788.1 -248.4,806.4 -281.7,824.8 -281.7,815.2 -252.1,795.2 -212,777.1   " /><polygon
         id="polygon107"
         class="st3"
         points="-539.7,835.8 -526.5,843.9 -385.2,779.9 -385.6,771.4   " /><polygon
         id="polygon109"
         class="st4"
         points="-539.7,835.8 -526.5,843.9 -385.2,779.9 -385.6,771.4   " /><polygon
         id="polygon111"
         class="st3"
         points="-471.8,877.4 -471.8,890.6 -427.8,867.7 -427.8,856.4   " /><polygon
         id="polygon113"
         class="st4"
         points="-471.8,877.4 -471.8,890.6 -427.8,867.7 -427.8,856.4   " /><polygon
         id="polygon115"
         class="st3"
         points="-398.7,814.6 -398.7,825.9 -422,837.8 -431.8,832.9   " /><polygon
         id="polygon117"
         class="st4"
         points="-398.7,814.6 -398.7,825.9 -422,837.8 -431.8,832.9   " /><polygon
         id="polygon119"
         class="st3"
         points="-368.7,874.6 -373.3,877.8 -373.3,866.5 -368.7,863.8   " /><polygon
         id="polygon121"
         class="st4"
         points="-368.7,874.6 -373.3,877.8 -373.3,866.5 -368.7,863.8   " /><polygon
         id="polygon123"
         class="st3"
         points="-288.8,863.2 -328.2,884.4 -328.2,894.7 -288.8,873.5 -278.8,879.2 -278.4,869.6       " /><polygon
         id="polygon125"
         class="st4"
         points="-288.8,863.2 -328.2,884.4 -328.2,894.7 -288.8,873.5 -278.8,879.2 -278.4,869.6       " /><polygon
         id="polygon127"
         class="st3"
         points="-257.6,816.2 -198.3,841.8 -193.1,840.9 -251.8,813.5   " /><polygon
         id="polygon129"
         class="st5"
         points="-257.6,816.2 -198.3,841.8 -193.1,840.9 -251.8,813.5   " /><g
         id="g131"
         transform="translate(97.97623,-119.43355)"><g
           id="g76"><defs
             id="defs78"><rect
               id="SVGID_1_"
               x="-658.3"
               y="457.5"
               width="554"
               height="1157.5" /></defs><clipPath
             id="SVGID_2_"><use
               xlink:href="#SVGID_1_"
               style="overflow:visible;"
               id="use82" /></clipPath><path
             id="path139"
             class="st6"
             d="M-356.6,932.9l-5.9,2.4l61.7,27.9l4.5-2C-296,961.6-356.6,932.9-356.6,932.9"
             clip-path="url(#SVGID_2_)" /></g><g
           id="g85"><defs
             id="defs87"><rect
               id="SVGID_3_"
               x="-658.3"
               y="457.5"
               width="554"
               height="1157.5" /></defs><clipPath
             id="SVGID_4_"><use
               xlink:href="#SVGID_3_"
               style="overflow:visible;"
               id="use91" /></clipPath><path
             id="path141"
             class="st7"
             d="M-356.6,932.9l-5.9,2.4l61.7,27.9l4.5-2C-296,961.6-356.6,932.9-356.6,932.9L-356.6,932.9z"
             clip-path="url(#SVGID_4_)" /></g></g><polygon
         id="polygon143"
         class="st3"
         points="-274.3,817.5 -213.6,844.3 -208.5,839.5 -266,813.5   " /><polygon
         id="polygon145"
         class="st5"
         points="-274.3,817.5 -213.6,844.3 -208.5,839.5 -266,813.5   " /><polygon
         id="polygon147"
         class="st3"
         points="-279.3,816.2 -218.2,843.8 -213.6,841.8 -273.6,813.5   " /><polygon
         id="polygon149"
         class="st5"
         points="-279.3,816.2 -218.2,843.8 -213.6,841.8 -273.6,813.5   " /><polygon
         id="polygon151"
         class="st3"
         points="-304.5,825.2 -246.4,849.5 -223,839.5 -280.5,813.9   " /><polygon
         id="polygon153"
         class="st5"
         points="-304.5,825.2 -246.4,849.5 -223,839.5 -280.5,813.9   " /><polygon
         id="polygon155"
         class="st3"
         points="-305.9,823.5 -245.7,850.9 -241.1,848.9 -301.4,821.7   " /><polygon
         id="polygon157"
         class="st5"
         points="-305.9,823.5 -245.7,850.9 -241.1,848.9 -301.4,821.7   " /><polygon
         id="polygon159"
         class="st3"
         points="-313.9,824 -256.4,849 -251.2,848.1 -308.9,821.5   " /><polygon
         id="polygon161"
         class="st5"
         points="-313.9,824 -256.4,849 -251.2,848.1 -308.9,821.5   " /><polygon
         id="polygon163"
         class="st3"
         points="-321.2,823.7 -260.9,851 -256.4,849 -316.6,821.5   " /><polygon
         id="polygon165"
         class="st5"
         points="-321.2,823.7 -260.9,851 -256.4,849 -316.6,821.5   " /><polygon
         id="polygon167"
         class="st3"
         points="-331.2,824.3 -271.8,851.5 -266.6,846.7 -323.8,821.5   " /><polygon
         id="polygon169"
         class="st5"
         points="-331.2,824.3 -271.8,851.5 -266.6,846.7 -323.8,821.5   " /><polygon
         id="polygon171"
         class="st3"
         points="-336.5,823.7 -276.3,851 -271.8,849 -332.1,821.8   " /><polygon
         id="polygon173"
         class="st5"
         points="-336.5,823.7 -276.3,851 -271.8,849 -332.1,821.8   " /><polygon
         id="polygon175"
         class="st3"
         points="-223,836.4 -246.8,846.6 -277.2,844.1 -278.8,879.2 -193.1,840.9   " /><polygon
         id="polygon177"
         class="st4"
         points="-223,836.4 -246.8,846.6 -277.2,844.1 -278.8,879.2 -193.1,840.9   " /><polygon
         id="polygon179"
         class="st3"
         points="-466.4,810.9 -466.4,815.6 -485.2,806.7 -485,801.7   " /><polygon
         id="polygon181"
         class="st4"
         points="-466.4,810.9 -466.4,815.6 -485.2,806.7 -485,801.7   " /><polygon
         id="polygon183"
         class="st3"
         points="-461.7,809.5 -464.8,811.6 -485,801.7 -479.6,799.6   " /><polygon
         id="polygon185"
         class="st4"
         points="-461.7,809.5 -464.8,811.6 -485,801.7 -479.6,799.6   " /><polygon
         id="polygon187"
         class="st3"
         points="-461,805.2 -461.7,809.5 -481.3,800.3 -481.3,795.9   " /><polygon
         id="polygon189"
         class="st4"
         points="-461,805.2 -461.7,809.5 -481.3,800.3 -481.3,795.9   " /><polygon
         id="polygon191"
         class="st3"
         points="-456.9,802.8 -461,805.2 -481.3,795.9 -475.9,793.9   " /><polygon
         id="polygon193"
         class="st4"
         points="-456.9,802.8 -461,805.2 -481.3,795.9 -475.9,793.9   " /><polygon
         id="polygon195"
         class="st3"
         points="-457,798.1 -457,802.8 -475.9,793.9 -475.9,789.8   " /><polygon
         id="polygon197"
         class="st4"
         points="-457,798.1 -457,802.8 -475.9,793.9 -475.9,789.8   " /><polygon
         id="polygon199"
         class="st3"
         points="-479.9,834.1 -484.4,836.4 -504.8,827 -499.2,824.3   " /><polygon
         id="polygon201"
         class="st4"
         points="-479.9,834.1 -484.4,836.4 -504.8,827 -499.2,824.3   " /><polygon
         id="polygon203"
         class="st3"
         points="-479.9,830.4 -479.9,834.3 -500.9,825.1 -500.9,820.6   " /><polygon
         id="polygon205"
         class="st4"
         points="-479.9,830.4 -479.9,834.3 -500.9,825.1 -500.9,820.6   " /><polygon
         id="polygon207"
         class="st3"
         points="-476,828.4 -479.8,830.3 -500.9,820.6 -495.5,818.6   " /><polygon
         id="polygon209"
         class="st4"
         points="-476,828.4 -479.8,830.3 -500.9,820.6 -495.5,818.6   " /><polygon
         id="polygon211"
         class="st3"
         points="-476,824.2 -476,828.4 -495.5,818.6 -495.3,814.7   " /><polygon
         id="polygon213"
         class="st4"
         points="-476,824.2 -476,828.4 -495.5,818.6 -495.3,814.7   " /><polygon
         id="polygon215"
         class="st3"
         points="-489.9,842.4 -490.6,846.7 -510.2,837.5 -510.2,833.1   " /><polygon
         id="polygon217"
         class="st4"
         points="-489.9,842.4 -490.6,846.7 -510.2,837.5 -510.2,833.1   " /><polygon
         id="polygon219"
         class="st3"
         points="-485.8,840 -489.9,842.4 -510.2,833.1 -504.8,831.1   " /><polygon
         id="polygon221"
         class="st4"
         points="-485.8,840 -489.9,842.4 -510.2,833.1 -504.8,831.1   " /><polygon
         id="polygon223"
         class="st3"
         points="-485.8,835.3 -485.8,840 -504.8,831.1 -504.8,827   " /><polygon
         id="polygon225"
         class="st4"
         points="-485.8,835.3 -485.8,840 -504.8,831.1 -504.8,827   " /><polygon
         id="polygon227"
         class="st3"
         points="-471.1,822 -475.9,824.3 -495.3,814.8 -489.9,812.6   " /><polygon
         id="polygon229"
         class="st4"
         points="-471.1,822 -475.9,824.3 -495.3,814.8 -489.9,812.6   " /><polygon
         id="polygon231"
         class="st3"
         points="-471,817.6 -471,822.2 -490.6,813.1 -490.6,808.7   " /><polygon
         id="polygon233"
         class="st4"
         points="-471,817.6 -471,822.2 -490.6,813.1 -490.6,808.7   " /><polygon
         id="polygon235"
         class="st3"
         points="-466.5,815.5 -471,817.7 -490.6,808.7 -485.2,806.7   " /><polygon
         id="polygon237"
         class="st4"
         points="-466.5,815.5 -471,817.7 -490.6,808.7 -485.2,806.7   " /><polygon
         id="polygon239"
         class="st3"
         points="-471.8,831.6 -491,837.8 -491,849.5 -471.8,842.4 -440.3,840 -440.3,828.8   " /><polygon
         id="polygon241"
         class="st4"
         points="-471.8,831.6 -491,837.8 -491,849.5 -471.8,842.4 -440.3,840 -440.3,828.8   " /><polygon
         id="polygon243"
         class="st1"
         points="-461.1,816.5 -439.6,826.9 -355.5,782.5 -414.2,759.8 -485.8,785.9 -475.9,789.8     -457,798.1 -476.5,808.6   " /><g
         id="g245"
         transform="translate(97.97623,-119.43355)"><g
           id="g146"><defs
             id="defs148"><rect
               id="SVGID_5_"
               x="-658.3"
               y="457.5"
               width="554"
               height="1157.5" /></defs><clipPath
             id="SVGID_6_"><use
               xlink:href="#SVGID_5_"
               style="overflow:visible;"
               id="use152" /></clipPath><path
             id="path253"
             class="st8"
             d="M-564.7,896c0,0,15.5,8,16,8s12.4-3.2,12.4-3.2l13.1-7.5l30.1,12.2l17.3,7.7l16-12l-3.5-7.2      c0,0-52.6-18.2-53.1-18.2S-564.7,896-564.7,896"
             clip-path="url(#SVGID_6_)" /></g></g><polygon
         id="polygon255"
         class="st3"
         points="-485.8,776.6 -485.8,786 -414.5,760 -414.5,750.1   " /><polygon
         id="polygon257"
         class="st4"
         points="-485.8,776.6 -485.8,786 -414.5,760 -414.5,750.1   " /><polygon
         id="polygon259"
         class="st3"
         points="-414.5,760 -366.3,779.6 -354.7,773.8 -414.5,750   " /><polygon
         id="polygon261"
         class="st4"
         points="-414.5,760 -366.3,779.6 -354.7,773.8 -414.5,750   " /><polygon
         id="polygon263"
         class="st3"
         points="-437.3,768.4 -380.4,797.6 -380.4,786.7 -437.3,758.8   " /><polygon
         id="polygon265"
         class="st4"
         points="-437.3,768.4 -380.4,797.6 -380.4,786.7 -437.3,758.8   " /><polygon
         id="polygon267"
         class="st3"
         points="-354.7,773.8 -355.4,784.6 -439.6,826.9 -439,816.5   " /><polygon
         id="polygon269"
         class="st4"
         points="-354.7,773.8 -355.4,784.6 -439.6,826.9 -439,816.5   " /><polygon
         id="polygon271"
         class="st9"
         points="-452.4,805.9 -446.8,802.8 -450.9,800.7 -456.4,804.1 -458.2,803 -463.5,810.1     -449.7,806.8   " /><polygon
         id="polygon273"
         class="st3"
         points="-468.5,779.4 -448.5,790 -448.5,780 -468.5,770.3   " /><polygon
         id="polygon275"
         class="st4"
         points="-468.5,779.4 -448.5,790 -448.5,780 -468.5,770.3   " /><polygon
         id="polygon277"
         class="st3"
         points="-410.2,776.9 -406.4,778.5 -406.4,784.2 -410.2,782.3   " /><polygon
         id="polygon279"
         class="st5"
         points="-410.2,776.9 -406.4,778.5 -406.4,784.2 -410.2,782.3   " /><polygon
         id="polygon281"
         class="st3"
         points="-448.5,780 -448.5,790 -420.9,776.6 -420.9,766.7   " /><polygon
         id="polygon283"
         class="st4"
         points="-448.5,780 -448.5,790 -420.9,776.6 -420.9,766.7   " /><polygon
         id="polygon285"
         class="st3"
         points="-414,845 -409.1,847.5 -409.1,854.9 -414,852.5   " /><polygon
         id="polygon287"
         class="st5"
         points="-414,845 -409.1,847.5 -409.1,854.9 -414,852.5   " /><polygon
         id="polygon289"
         class="st3"
         points="-386.1,858.9 -381.3,861.4 -381.3,868.8 -386.1,866.4   " /><polygon
         id="polygon291"
         class="st5"
         points="-386.1,858.9 -381.3,861.4 -381.3,868.8 -386.1,866.4   " /><polygon
         id="polygon293"
         class="st3"
         points="-434.7,783.2 -429.9,781 -429.9,775.4 -434.7,777.4   " /><polygon
         id="polygon295"
         class="st5"
         points="-434.7,783.2 -429.9,781 -429.9,775.4 -434.7,777.4   " /><rect
         id="rect459"
         x="-473.5"
         y="790.4"
         class="st10"
         width="46.5"
         height="8.9" /><path
         id="path461"
         class="st9"
         d="M-468.5,792.5v5.7h-1.2v-4.8h-0.9v-0.9H-468.5L-468.5,792.5z M-465.5,792.5v4.4h-1.2v-3.5h-0.7    v-0.9H-465.5z M-462.4,792.5v1.6c0,0.2,0,0.3,0,0.4c0,0.1,0,0.2,0,0.3s0,0.2,0,0.2c0,0.1,0,0.2-0.1,0.3l-1.1-0.2    c0-0.1,0-0.2,0-0.2c0-0.1,0-0.1,0-0.2c0-0.1,0-0.2,0-0.3c0-0.1,0-0.2,0-0.4v-0.6h-1v-0.9L-462.4,792.5L-462.4,792.5z     M-460.3,791.3v1.2h2.4c0,0.1,0,0.1,0,0.2c0,0.1,0,0.1,0,0.1c0,0.1,0,0.1,0,0.2c0,0.1,0,0.1,0,0.2v0.9c0,0.3-0.1,0.6-0.2,0.9    c-0.1,0.3-0.3,0.6-0.6,0.9l-1.1,1.2l-0.8-0.7l0.5-0.5c0.2-0.2,0.4-0.4,0.5-0.6s0.2-0.3,0.3-0.4c0.1-0.1,0.1-0.2,0.2-0.3    c0-0.1,0.1-0.2,0.1-0.4v-0.8h-2.5v-2.1L-460.3,791.3L-460.3,791.3z M-454.3,793.2c0-0.2,0.1-0.3,0.1-0.4c0-0.1,0.1-0.3,0.1-0.4    l1.6,0.4c0,0.1,0,0.2,0,0.3s0,0.2,0,0.3c0,0.2-0.1,0.4-0.1,0.6s-0.1,0.4-0.2,0.6c-0.1,0.3-0.3,0.6-0.4,0.9    c-0.2,0.3-0.3,0.5-0.5,0.7c-0.2,0.2-0.4,0.4-0.6,0.5c-0.2,0.1-0.5,0.3-0.7,0.4c-0.2,0.1-0.5,0.2-0.8,0.3c-0.3,0.1-0.5,0.2-0.8,0.2    l-0.3-1c0.3-0.1,0.6-0.2,0.8-0.2c0.3-0.1,0.5-0.2,0.7-0.3c-0.1-0.4-0.3-0.7-0.4-1.1c-0.1-0.4-0.3-0.7-0.4-1.1    c0-0.1-0.1-0.1-0.1-0.2c0,0,0-0.1-0.1-0.1l-0.1-0.1c0,0-0.1,0-0.1-0.1l-0.5-0.2c0.1-0.1,0.1-0.3,0.2-0.4c0.1-0.1,0.1-0.3,0.2-0.4    c0.1,0,0.2,0.1,0.3,0.1s0.2,0.1,0.3,0.1c0.1,0.1,0.3,0.1,0.4,0.2c0.1,0.1,0.2,0.1,0.3,0.2c0.1,0.1,0.1,0.1,0.2,0.2    c0,0.1,0.1,0.2,0.1,0.3c0.1,0.1,0.1,0.3,0.2,0.4c0,0.1,0.1,0.3,0.1,0.4c0.1,0.2,0.1,0.3,0.2,0.6c0.1,0.2,0.2,0.5,0.3,0.8    c0.1-0.1,0.3-0.3,0.3-0.4c0.1-0.1,0.2-0.3,0.2-0.4c0.1-0.2,0.2-0.4,0.2-0.6c0.1-0.2,0.1-0.4,0.1-0.7L-454.3,793.2L-454.3,793.2z     M-446.4,792.5c0.2,0,0.4,0,0.5,0.1c0.2,0,0.3,0.1,0.5,0.2c0.1,0.1,0.2,0.3,0.3,0.4c0.1,0.2,0.1,0.4,0.1,0.7c0,0.1,0,0.1,0,0.2    c0,0.1,0,0.1,0,0.2c0,0.1,0,0.2,0,0.3c0,0.1,0,0.2,0,0.4c0,0.3-0.1,0.5-0.2,0.8c-0.1,0.2-0.2,0.4-0.4,0.6    c-0.2,0.2-0.4,0.3-0.6,0.4c-0.2,0.1-0.5,0.1-0.8,0.1c-0.3,0-0.5,0-0.8-0.1c-0.2-0.1-0.4-0.2-0.6-0.4c-0.2-0.2-0.3-0.4-0.4-0.6    s-0.2-0.5-0.2-0.8v-0.1v-0.1c0-0.1,0-0.3,0-0.4c0-0.1,0-0.3,0.1-0.4c0-0.1,0.1-0.2,0.1-0.3c0-0.1,0.1-0.2,0.2-0.3    c-0.1,0-0.2,0-0.4-0.1c-0.1,0-0.3-0.1-0.4-0.1c0-0.2,0.1-0.3,0.1-0.4c0-0.1,0.1-0.3,0.1-0.4c0.1,0,0.2,0.1,0.3,0.1s0.2,0,0.3,0.1    c0.1,0,0.2,0,0.3,0s0.2,0,0.3,0h0.1h1.5L-446.4,792.5z M-447.5,793.4c0,0.1-0.1,0.2-0.1,0.2c0,0.1-0.1,0.1-0.1,0.2    c0,0.1-0.1,0.3-0.1,0.4c0,0.2,0,0.3,0,0.5c0,0.1,0,0.2,0,0.2c0,0.1,0,0.2,0,0.2c0,0.1,0.1,0.3,0.1,0.4c0,0.1,0.1,0.2,0.2,0.3    s0.2,0.1,0.3,0.2c0.1,0,0.2,0.1,0.3,0.1s0.2,0,0.3-0.1c0.1,0,0.2-0.1,0.3-0.2c0.1-0.1,0.1-0.2,0.2-0.3c0.1-0.1,0.1-0.2,0.1-0.4    c0-0.1,0-0.1,0-0.2c0-0.1,0-0.2,0-0.2c0-0.1,0-0.2,0-0.3s0-0.2,0-0.3c0-0.2,0-0.3,0-0.4c0-0.1,0-0.2-0.1-0.3    c0-0.1-0.1-0.1-0.2-0.1c-0.1,0-0.2,0-0.4,0L-447.5,793.4L-447.5,793.4z M-442.9,791.3v1.2h2.4c0,0.1,0,0.1,0,0.2v0.1    c0,0.1,0,0.1,0,0.2c0,0.1,0,0.1,0,0.2v0.9c0,0.3-0.1,0.6-0.2,0.9c-0.1,0.3-0.3,0.6-0.6,0.9l-1.1,1.2l-0.8-0.7l0.5-0.5    c0.2-0.2,0.4-0.4,0.5-0.6s0.2-0.3,0.3-0.4c0.1-0.1,0.1-0.2,0.2-0.3c0-0.1,0.1-0.2,0.1-0.4v-0.8h-2.4v-2.1L-442.9,791.3    L-442.9,791.3z M-438.4,792.2c0.3,0.1,0.5,0.1,0.7,0.2c0.2,0.1,0.4,0.1,0.6,0.1c0.2,0,0.3,0.1,0.5,0.1c0.1,0,0.3,0.1,0.4,0.1    c0.1,0.1,0.3,0.1,0.4,0.2c0.1,0.1,0.2,0.2,0.2,0.3c0.1,0.1,0.1,0.2,0.1,0.3c0,0.1,0,0.3,0,0.4v1.7c0,0.1,0,0.1,0,0.2    c0,0.1,0,0.1,0,0.2c0,0.1,0,0.2-0.1,0.3c0,0.1-0.1,0.3-0.1,0.4h-3.8V796h2.9v-1.7c0-0.1,0-0.2,0-0.3s0-0.1,0-0.2l-0.1-0.1    c0,0-0.1-0.1-0.2-0.1s-0.2-0.1-0.4-0.1c-0.1,0-0.3-0.1-0.5-0.1l-0.4,0.8l0.6,0.3l-0.5,0.8l-1.3-0.8L-438.4,792.2L-438.4,792.2z     M-434.5,792.8c0.1-0.1,0.3-0.2,0.4-0.3c0.1-0.1,0.3-0.2,0.5-0.3c0.1,0.1,0.1,0.2,0.2,0.2c0,0.1,0.1,0.1,0.1,0.2    c0,0.1,0.1,0.1,0.1,0.2c0,0.1,0.1,0.1,0.1,0.2c0.2-0.2,0.5-0.4,0.7-0.5c0.3-0.1,0.5-0.2,0.8-0.2c0.2,0,0.3,0,0.5,0.1    c0.2,0.1,0.3,0.1,0.4,0.2c0.1,0.1,0.2,0.2,0.3,0.4c0.1,0.1,0.2,0.3,0.2,0.5s0,0.3,0.1,0.5c0,0.2,0,0.4,0,0.6c0,0.1,0,0.2,0,0.3    s0,0.3,0,0.4c0,0.2,0,0.4,0,0.6s0,0.3,0,0.4c0,0.1,0,0.1,0,0.2c0,0.1,0,0.1,0,0.2h-2.2V796h1.1c0,0,0,0,0-0.1c0,0,0-0.1,0-0.2    c0-0.1,0-0.2,0-0.3c0-0.1,0-0.3,0-0.5c0-0.1,0-0.1,0-0.2c0-0.1,0-0.2,0-0.3c0-0.1,0-0.2,0-0.3c0-0.1,0-0.1,0-0.2    c0-0.2-0.1-0.4-0.2-0.5c-0.1-0.1-0.3-0.1-0.4-0.1c-0.1,0-0.2,0-0.3,0.1c-0.1,0-0.2,0.1-0.3,0.2c-0.1,0-0.1,0.1-0.2,0.1    c-0.1,0.1-0.1,0.1-0.2,0.2c0,0.3-0.1,0.6-0.1,0.8c0,0.2-0.1,0.4-0.1,0.6s0,0.3-0.1,0.4c0,0.1,0,0.3-0.1,0.4c0,0.1,0,0.2-0.1,0.4    c0,0.1,0,0.3-0.1,0.5h-1.1l0.1-0.7c0-0.2,0.1-0.4,0.1-0.5c0-0.2,0.1-0.3,0.1-0.5s0.1-0.3,0.1-0.5s0.1-0.3,0.1-0.5    c0-0.1,0-0.1,0-0.1v-0.1c0-0.1,0-0.1,0-0.2c0-0.1,0-0.1-0.1-0.2c0-0.1,0-0.1-0.1-0.2c0-0.1-0.1-0.1-0.1-0.2L-434.5,792.8z" /><path
         id="path491"
         class="st10"
         d="M-124.1,704.2v11.4h-2.3V706h-1.7v-1.8H-124.1z M-118.1,704.2v8.8h-2.3v-7h-1.5v-1.8H-118.1z     M-109.9,704.2c0.4,0,0.7,0,1,0.1c0.3,0.1,0.7,0.2,0.9,0.4c0.3,0.2,0.5,0.5,0.7,0.9c0.2,0.4,0.3,0.9,0.3,1.5v5.8h-2.3v-5.3    c0-0.3,0-0.6,0-0.9c0-0.2-0.1-0.4-0.2-0.5c-0.1-0.1-0.3-0.2-0.5-0.3c-0.2,0-0.5-0.1-0.8-0.1h-1.3c-0.2,0.4-0.3,0.8-0.4,1.2    c-0.1,0.4-0.1,0.9-0.1,1.3c0,0.2,0,0.5,0,0.7s0,0.4,0.1,0.6c0,0.2,0.1,0.4,0.1,0.6s0.1,0.4,0.2,0.6l0.2,0.5c0,0.2,0,0.5-0.1,0.7    c0,0.2-0.1,0.4-0.1,0.6h-4.1v-1.8h1.9c-0.1-0.4-0.3-0.8-0.3-1.2c-0.1-0.4-0.1-0.8-0.1-1.2c0-0.3,0-0.6,0.1-0.9    c0-0.3,0.1-0.6,0.2-0.9c0-0.1,0.1-0.3,0.1-0.4c0-0.1,0.1-0.3,0.2-0.4c-0.2,0-0.5-0.1-0.7-0.1c-0.2-0.1-0.5-0.1-0.8-0.2    c0.1-0.3,0.2-0.6,0.3-0.9s0.2-0.6,0.3-0.9c0.3,0.1,0.5,0.1,0.7,0.2c0.2,0,0.4,0.1,0.6,0.1c0.2,0,0.4,0,0.6,0c0.2,0,0.5,0,0.8,0    h2.5L-109.9,704.2z M-99.2,704.2c0.4,0,0.7,0,1,0.1c0.3,0.1,0.7,0.2,0.9,0.4c0.3,0.2,0.5,0.5,0.7,0.9c0.2,0.4,0.3,0.9,0.3,1.5v5.8    h-2.3v-5.3c0-0.3,0-0.6,0-0.9c0-0.2-0.1-0.4-0.2-0.5c-0.1-0.1-0.3-0.2-0.5-0.3c-0.2,0-0.5-0.1-0.8-0.1h-1.7    c-0.1,0.4-0.1,0.7-0.2,1.1c0,0.3,0,0.7,0,1v4.9h-2.3V708c0-0.3,0-0.7,0.1-1.1c0-0.4,0.1-0.7,0.2-1.1c-0.2,0-0.4-0.1-0.6-0.1    c-0.2-0.1-0.4-0.1-0.7-0.2c0.1-0.3,0.2-0.6,0.3-0.9s0.2-0.6,0.3-0.9c0.3,0.1,0.5,0.1,0.7,0.2c0.2,0,0.4,0.1,0.6,0.1    c0.2,0,0.4,0,0.6,0c0.2,0,0.5,0,0.8,0h2.8L-99.2,704.2z M-88.2,704.2c0.4,0,0.7,0,1,0.1c0.3,0.1,0.7,0.2,0.9,0.4    c0.3,0.2,0.5,0.5,0.7,0.9c0.2,0.4,0.3,0.9,0.3,1.5v5.8h-2.3v-5.3c0-0.3,0-0.6,0-0.9c0-0.2-0.1-0.4-0.2-0.5    c-0.1-0.1-0.3-0.2-0.5-0.3c-0.2,0-0.5-0.1-0.8-0.1h-1.3c-0.2,0.4-0.3,0.8-0.4,1.2c-0.1,0.4-0.1,0.9-0.1,1.3c0,0.2,0,0.5,0,0.7    s0,0.4,0.1,0.6c0,0.2,0.1,0.4,0.1,0.6s0.1,0.4,0.2,0.6l0.2,0.5c0,0.2,0,0.5-0.1,0.7c0,0.2-0.1,0.4-0.1,0.6h-4.1v-1.8h1.9    c-0.1-0.4-0.3-0.8-0.3-1.2c-0.1-0.4-0.1-0.8-0.1-1.2c0-0.3,0-0.6,0.1-0.9c0-0.3,0.1-0.6,0.2-0.9c0-0.1,0.1-0.3,0.1-0.4    c0-0.1,0.1-0.3,0.2-0.4c-0.2,0-0.5-0.1-0.7-0.1c-0.2-0.1-0.5-0.1-0.8-0.2c0.1-0.3,0.2-0.6,0.3-0.9s0.2-0.6,0.3-0.9    c0.3,0.1,0.5,0.1,0.7,0.2c0.2,0,0.4,0.1,0.6,0.1c0.2,0,0.4,0,0.6,0c0.2,0,0.5,0,0.8,0h2.5L-88.2,704.2z M-73,704.2    c0.4,0,0.7,0,1,0.1c0.3,0.1,0.6,0.2,0.9,0.5c0.3,0.2,0.5,0.5,0.6,0.9c0.2,0.4,0.2,0.9,0.3,1.5c0,0.1,0,0.2,0,0.4    c0,0.1,0,0.3,0,0.4c0,0.2,0,0.3,0,0.5s0,0.4,0,0.7c0,0.6-0.1,1.1-0.3,1.6s-0.5,0.9-0.8,1.2c-0.4,0.4-0.8,0.6-1.3,0.8    c-0.5,0.2-1,0.3-1.6,0.3s-1.1-0.1-1.6-0.3s-0.9-0.5-1.2-0.8c-0.4-0.4-0.6-0.8-0.8-1.2c-0.2-0.5-0.3-1-0.3-1.6c0-0.1,0-0.1,0-0.2    c0-0.1,0-0.1,0-0.2c0-0.3,0-0.5,0-0.8s0.1-0.6,0.2-0.9c0.1-0.2,0.1-0.4,0.2-0.6c0.1-0.2,0.2-0.4,0.3-0.6c-0.2,0-0.5-0.1-0.7-0.1    c-0.2-0.1-0.5-0.1-0.8-0.3c0.1-0.3,0.2-0.6,0.3-0.9s0.2-0.6,0.3-0.9c0.3,0.1,0.5,0.1,0.7,0.2c0.2,0,0.4,0.1,0.5,0.1    c0.2,0,0.4,0,0.5,0.1c0.2,0,0.4,0,0.6,0h0.3L-73,704.2L-73,704.2z M-75.3,706c-0.1,0.2-0.2,0.3-0.2,0.4c-0.1,0.1-0.1,0.3-0.2,0.4    c-0.1,0.3-0.1,0.6-0.2,0.9c0,0.3-0.1,0.6-0.1,0.9c0,0.2,0,0.3,0,0.5s0,0.3,0,0.4c0,0.3,0.1,0.5,0.2,0.7c0.1,0.2,0.2,0.4,0.4,0.5    c0.1,0.2,0.3,0.3,0.5,0.4c0.2,0.1,0.4,0.1,0.6,0.1c0.2,0,0.5,0,0.7-0.1c0.2-0.1,0.4-0.2,0.5-0.4c0.2-0.2,0.3-0.3,0.4-0.5    c0.1-0.2,0.2-0.4,0.2-0.7c0-0.1,0-0.3,0-0.4c0-0.1,0-0.3,0-0.5s0-0.4,0-0.5c0-0.2,0-0.3,0-0.5c0-0.3-0.1-0.6-0.1-0.9    c0-0.2-0.1-0.4-0.2-0.5c-0.1-0.1-0.2-0.2-0.4-0.3c-0.2,0-0.5-0.1-0.8-0.1h-1.3L-75.3,706z M-66.1,701.7v2.5h4.8    c0,0.1,0.1,0.2,0.1,0.3s0,0.2,0.1,0.3c0,0.1,0,0.3,0.1,0.4c0,0.1,0,0.3,0,0.4v1.8c0,0.7-0.1,1.3-0.4,1.9c-0.3,0.6-0.7,1.2-1.2,1.8    l-2.2,2.4l-1.6-1.4l1-1.1c0.4-0.5,0.7-0.8,1-1.1c0.3-0.3,0.5-0.6,0.7-0.8s0.3-0.5,0.4-0.7c0.1-0.2,0.1-0.5,0.1-0.8V706h-5v-4.3    L-66.1,701.7L-66.1,701.7z M-57.1,703.6c0.5,0.1,1,0.2,1.4,0.3c0.4,0.1,0.8,0.2,1.1,0.3c0.3,0.1,0.6,0.2,0.9,0.3    c0.3,0.1,0.6,0.2,0.8,0.3c0.3,0.1,0.5,0.2,0.7,0.4s0.3,0.3,0.5,0.5c0.1,0.2,0.2,0.4,0.2,0.7c0,0.3,0.1,0.5,0.1,0.8v3.4    c0,0.1,0,0.3,0,0.4c0,0.1,0,0.3,0,0.4c0,0.2-0.1,0.4-0.1,0.6c-0.1,0.2-0.1,0.5-0.2,0.9h-7.6v-1.8h5.8v-3.5c0-0.2,0-0.4,0-0.5    c0-0.1,0-0.3-0.1-0.4c-0.1-0.1-0.1-0.2-0.2-0.3c-0.1-0.1-0.2-0.1-0.4-0.2c-0.2-0.1-0.5-0.2-0.7-0.2c-0.3-0.1-0.6-0.2-0.9-0.3    l-0.8,1.6l1.1,0.7l-1,1.7l-2.7-1.6L-57.1,703.6L-57.1,703.6z M-49.4,704.8c0.3-0.2,0.6-0.4,0.9-0.6c0.3-0.2,0.6-0.4,0.9-0.5    c0.1,0.2,0.3,0.3,0.3,0.5c0.1,0.1,0.2,0.3,0.3,0.4c0.1,0.1,0.1,0.2,0.2,0.4c0.1,0.1,0.1,0.2,0.2,0.4c0.5-0.5,1-0.8,1.5-1.1    c0.5-0.2,1-0.3,1.5-0.3c0.4,0,0.7,0.1,1,0.2c0.3,0.1,0.6,0.3,0.9,0.5c0.3,0.2,0.5,0.5,0.7,0.7c0.2,0.3,0.3,0.6,0.4,1    c0.1,0.3,0.1,0.6,0.1,1c0,0.4,0,0.8,0,1.3c0,0.2,0,0.4,0,0.7c0,0.2,0,0.5,0,0.9c0,0.4,0,0.8,0,1.1c0,0.4,0,0.6,0,0.9    c0,0.1,0,0.3,0,0.4c0,0.1,0,0.3-0.1,0.4H-45v-1.8h2.3c0,0,0-0.1,0-0.2c0-0.1,0-0.2,0-0.4c0-0.2,0-0.4,0-0.7s0-0.6,0-1    c0-0.1,0-0.3,0-0.4c0-0.2,0-0.3,0-0.5s0-0.4,0-0.5c0-0.2,0-0.3,0-0.4c-0.1-0.5-0.2-0.8-0.4-1s-0.5-0.3-0.9-0.3    c-0.2,0-0.4,0-0.6,0.1c-0.2,0.1-0.4,0.2-0.7,0.4c-0.1,0.1-0.3,0.2-0.4,0.3c-0.1,0.1-0.2,0.2-0.4,0.4c-0.1,0.6-0.2,1.2-0.2,1.6    c-0.1,0.5-0.1,0.8-0.2,1.2c-0.1,0.3-0.1,0.6-0.1,0.9s-0.1,0.5-0.1,0.8c0,0.2-0.1,0.5-0.1,0.8s-0.1,0.6-0.1,0.9h-2.3l0.2-1.5    c0.1-0.4,0.1-0.7,0.2-1c0.1-0.3,0.1-0.6,0.2-1c0.1-0.3,0.1-0.6,0.2-1c0.1-0.3,0.1-0.7,0.2-1c0-0.1,0-0.2,0-0.3c0-0.1,0-0.2,0-0.2    c0-0.2,0-0.3,0-0.4c0-0.1-0.1-0.2-0.1-0.4c0-0.1-0.1-0.2-0.2-0.4c-0.1-0.1-0.1-0.3-0.2-0.4L-49.4,704.8L-49.4,704.8z" /><path
         id="path493"
         class="st10"
         d="M-67.9,725.7c-0.2,0-0.4,0-0.5,0c-0.2,0-0.3,0-0.4,0c-0.1,0-0.3,0-0.4-0.1    c-0.1,0-0.3-0.1-0.5-0.2c0.1-0.2,0.1-0.3,0.2-0.5c0.1-0.2,0.1-0.3,0.2-0.5c0.2,0.1,0.3,0.1,0.5,0.1c0.1,0,0.3,0.1,0.4,0.1    c0.1,0,0.3,0,0.4,0c0.1,0,0.3,0,0.5,0h1.3c0.3,0,0.5,0,0.8,0.1c0.3,0.1,0.5,0.2,0.7,0.4c0.2,0.2,0.4,0.4,0.5,0.7s0.2,0.7,0.2,1.2    v4.5h-1.1v-4.4c0-0.3,0-0.5-0.1-0.7c0-0.2-0.1-0.3-0.2-0.4c-0.1-0.1-0.2-0.2-0.4-0.2s-0.4-0.1-0.7-0.1H-67.9z M-69.7,729.5    c0-0.2,0-0.4,0-0.5c0-0.1,0-0.3,0-0.4c0-0.1,0-0.3,0.1-0.4c0-0.1,0.1-0.3,0.1-0.5c0.2,0,0.4,0.1,0.6,0.1c0.2,0,0.4,0.1,0.6,0.1    c0,0.2,0,0.3-0.1,0.4c0,0.1,0,0.2,0,0.4c0,0.1,0,0.3,0,0.4c0,0.1,0,0.3,0,0.5v2h-1.1v-2.1H-69.7z M-58.8,724.7c0.4,0,0.7,0,1,0.1    c0.3,0.1,0.5,0.3,0.7,0.5c0.1,0.1,0.2,0.3,0.3,0.5s0.1,0.4,0.2,0.6c0,0.2,0.1,0.5,0.1,0.7s0,0.5,0,0.7c0,0.3,0,0.7-0.1,1    c-0.1,0.4-0.2,0.8-0.3,1.2c-0.1,0.4-0.3,0.6-0.6,0.9c-0.2,0.2-0.5,0.4-0.8,0.5c-0.3,0.1-0.7,0.2-1.1,0.2c-0.5,0-0.9-0.1-1.3-0.3    c-0.4-0.2-0.7-0.4-0.9-0.7c-0.2-0.3-0.4-0.6-0.5-1c-0.1-0.4-0.2-0.8-0.2-1.3c0-0.3,0-0.5,0-0.8s0.1-0.6,0.2-0.9    c0.1-0.2,0.1-0.4,0.2-0.5c0.1-0.2,0.2-0.3,0.3-0.5c-0.2,0-0.4,0-0.6-0.1c-0.2,0-0.4-0.1-0.6-0.2c0.1-0.2,0.1-0.3,0.2-0.5    c0.1-0.2,0.1-0.3,0.2-0.5c0.2,0.1,0.3,0.1,0.5,0.1c0.1,0,0.3,0.1,0.4,0.1c0.1,0,0.3,0,0.4,0c0.1,0,0.3,0,0.5,0h1.8L-58.8,724.7z     M-60.4,725.7c-0.2,0.3-0.3,0.6-0.4,0.9c-0.1,0.3-0.2,0.7-0.2,1c0,0.1,0,0.3,0,0.4c0,0.1,0,0.3,0,0.4c0,0.3,0,0.6,0.1,0.8    c0,0.3,0.1,0.5,0.3,0.7c0.1,0.2,0.3,0.4,0.6,0.5c0.2,0.1,0.5,0.2,0.8,0.2c0.2,0,0.4,0,0.6-0.1c0.2-0.1,0.4-0.2,0.5-0.3    c0.1-0.1,0.3-0.3,0.4-0.5c0.1-0.2,0.2-0.4,0.2-0.7c0-0.2,0-0.4,0.1-0.5c0-0.2,0-0.3,0-0.5s0-0.5,0-0.7s0-0.4-0.1-0.6    c0-0.2-0.1-0.3-0.1-0.5c-0.1-0.1-0.1-0.2-0.2-0.3c-0.1-0.1-0.2-0.1-0.4-0.2c-0.2,0-0.3,0-0.6,0L-60.4,725.7L-60.4,725.7z     M-52.4,724.7v2.1c0,0.2,0,0.4,0,0.6s0,0.3,0,0.4c0,0.1,0,0.3-0.1,0.4c0,0.1-0.1,0.3-0.1,0.4l-1.1-0.2c0-0.1,0-0.3,0.1-0.4    c0-0.1,0-0.2,0-0.3c0-0.1,0-0.3,0-0.4c0-0.2,0-0.3,0-0.6v-1.1H-55v-1h2.6V724.7z M-47.6,724.7v0.2c0,0.1,0,0.4,0.1,0.6    c0,0.3,0.1,0.6,0.1,0.9s0.1,0.7,0.1,1.1c0,0.4,0.1,0.8,0.1,1.2s0.1,0.9,0.1,1.3c0,0.2,0,0.4,0,0.5c0,0.1,0,0.2,0,0.3    c0,0.1,0,0.2,0,0.3c0,0.1,0,0.2,0,0.4H-51v-1h2.8l-0.5-4.8h-1.6v-1H-47.6L-47.6,724.7z M-43.4,725.7c-0.2,0-0.4,0-0.5,0    c-0.2,0-0.3,0-0.4,0c-0.1,0-0.3,0-0.4-0.1c-0.1,0-0.3-0.1-0.5-0.2c0.1-0.2,0.1-0.3,0.2-0.5c0.1-0.2,0.1-0.3,0.2-0.5    c0.2,0.1,0.3,0.1,0.5,0.1c0.1,0,0.3,0.1,0.4,0.1c0.1,0,0.3,0,0.4,0c0.1,0,0.3,0,0.5,0h0.4c0.3,0,0.5,0,0.8,0.1    c0.3,0.1,0.5,0.2,0.7,0.4c0.2,0.2,0.4,0.4,0.5,0.7s0.2,0.7,0.2,1.1c0,0.2,0,0.5,0,0.7s0,0.5,0,0.8s0,0.5,0,0.8s0,0.6,0,0.9    c0,0.1,0,0.2,0,0.3c0,0.1,0,0.2,0,0.3c0,0.1,0,0.2-0.1,0.3c0,0.1-0.1,0.3-0.1,0.4h-5v-1h4.1c0-0.5,0-1.1,0-1.7c0-0.6,0-1.1,0-1.7    c0-0.3,0-0.5-0.1-0.7c0-0.2-0.1-0.3-0.2-0.4c-0.1-0.1-0.2-0.2-0.4-0.2s-0.4-0.1-0.7-0.1h-0.5L-43.4,725.7z" /></g></g></svg>