<?xml version="1.0" encoding="UTF-8" standalone="no"?>
<svg
   xmlns:dc="http://purl.org/dc/elements/1.1/"
   xmlns:cc="http://creativecommons.org/ns#"
   xmlns:rdf="http://www.w3.org/1999/02/22-rdf-syntax-ns#"
   xmlns:svg="http://www.w3.org/2000/svg"
   xmlns="http://www.w3.org/2000/svg"
   version="1.1"
   id="svg3874"
   viewBox="0 0 194.7 96.899948"
   height="27.347319mm"
   width="54.948666mm">
  <defs
     id="defs3876" />
  <metadata
     id="metadata3879">
    <rdf:RDF>
      <cc:Work
         rdf:about="">
        <dc:format>image/svg+xml</dc:format>
        <dc:type
           rdf:resource="http://purl.org/dc/dcmitype/StillImage" />
        <dc:title></dc:title>
      </cc:Work>
    </rdf:RDF>
  </metadata>
  <g
     transform="translate(-462.65,-495.3408)"
     id="layer1">
    <g
       id="g3937">
      <rect
         id="rect475_16_"
         x="462.64999"
         y="495.34079"
         class="st933"
         width="194.7"
         height="31.799999"
         style="fill:#4b1a26" />
      <g
         id="g3933"
         transform="translate(0.04999,0)">
        <path
           style="fill:#4b1a26"
           d="m 579.05001,552.94075 c 0,10.5 -19.1,39.3 -19.1,39.3 0,0 -19.1,-28.8 -19.1,-39.3 0,-10.5 8.6,-19.1 19.1,-19.1 10.6,0 19.1,8.5 19.1,19.1"
           class="st933"
           id="path487_3_" />
        <path
           style="opacity:1;fill:#ffffff"
           d="m 560.05001,562.44075 c -5.4,0 -9.8,-4.4 -9.8,-9.8 0,-5.4 4.4,-9.8 9.8,-9.8 5.4,0 9.8,4.4 9.8,9.8 0,5.4 -4.5,9.8 -9.8,9.8 m 0,-21.8 c -6.6,0 -12,5.4 -12,12 0,6.6 5.4,12 12,12 6.6,0 12,-5.4 12,-12 0,-6.6 -5.4,-12 -12,-12 m 0,10.5 c -0.7,0 -1.5,0.7 -1.5,1.5 l 0,4.4 c 0,0.7 0.7,1.5 1.5,1.5 0.8,0 1.5,-0.7 1.5,-1.5 l 0,-4.4 c -0.1,-0.7 -0.8,-1.5 -1.5,-1.5 m 0,-4.4 c -0.7,0 -1.5,0.7 -1.5,1.5 0,0.7 0.7,1.5 1.5,1.5 0.8,0 1.5,-0.7 1.5,-1.5 -0.1,-0.7 -0.8,-1.5 -1.5,-1.5"
           class="st941"
           id="path489_3_" />
      </g>
      <g
         transform="translate(-417.44999,-808.95925)"
         id="g7134">
        <g
           id="g7136">
          <path
             class="st940"
             d="m 895.7,1312.9 12.5,0 0,15.6 -12.5,0 0,-15.6 z m 10.1,13.7 0,-11.7 -7.6,0 0,11.7 7.6,0 z"
             id="path7138"
             style="fill:#d16a4e" />
          <path
             class="st940"
             d="m 914.9,1314.9 -2.9,0 0,-2 5.3,0 0,8.7 -2.5,0 0,-6.7 z"
             id="path7140"
             style="fill:#d16a4e" />
          <path
             class="st940"
             d="m 929.3,1321.4 4.1,6 0,1.2 -11.6,0 0,-2 8.4,0 -9.3,-13.6 2.8,0 4.2,6.3 3.5,-6.3 2.8,0 -4.9,8.4 z"
             id="path7142"
             style="fill:#d16a4e" />
          <path
             class="st940"
             d="m 940.9,1328.6 c -0.9,-0.2 -1.8,-0.4 -2.6,-0.7 l 0.5,-1.8 c 0.8,0.2 1.6,0.4 2.4,0.5 0.8,0.1 1.5,0.2 2.2,0.2 1.5,0 2.6,-0.4 3.4,-1.1 0.8,-0.7 1.2,-1.7 1.2,-3.1 l 0,-7.7 -6.3,0 c -0.3,0.5 -0.5,1.1 -0.7,1.8 -0.2,0.7 -0.3,1.5 -0.3,2.2 l 0,1.2 c 0.2,0.1 0.5,0.2 0.8,0.2 0.3,0 0.8,0.1 1.3,0.1 l 0,2.1 c -1.1,0 -2,-0.1 -2.6,-0.2 -0.6,-0.1 -1.3,-0.4 -1.9,-0.7 l -0.1,-2 c 0,-0.9 0.1,-1.8 0.3,-2.6 0.2,-0.9 0.5,-1.6 0.9,-2.1 l -1.9,0 0,-2 12.7,0 0,9.2 c 0,1.5 -0.3,2.7 -0.9,3.7 -0.6,1 -1.4,1.7 -2.4,2.2 -1,0.5 -2.2,0.7 -3.6,0.7 -0.6,0.1 -1.4,0.1 -2.4,-0.1 z"
             id="path7144"
             style="fill:#d16a4e" />
          <path
             class="st940"
             d="m 955.8,1312.9 5.9,0 c 2.1,0 3.6,0.5 4.6,1.5 1,1 1.5,2.5 1.5,4.5 l 0,9.6 -2.5,0 0,-9.8 c 0,-1.4 -0.3,-2.3 -0.9,-2.9 -0.6,-0.6 -1.5,-0.9 -2.8,-0.9 l -3.4,0 0,13.6 -2.5,0 0.1,-15.6 z"
             id="path7146"
             style="fill:#d16a4e" />
          <path
             class="st940"
             d="m 991.4,1314.4 c 1,1 1.5,2.5 1.5,4.5 l 0,9.6 -2.5,0 0,-9.8 c 0,-1.4 -0.3,-2.3 -0.9,-2.9 -0.6,-0.6 -1.5,-0.9 -2.8,-0.9 l -2.2,0 c -0.3,0.5 -0.5,1.1 -0.7,1.8 -0.2,0.7 -0.3,1.5 -0.3,2.3 l 0,5.3 c 0,1.4 -0.3,2.5 -1,3.3 -0.7,0.7 -1.7,1.1 -3,1.1 -0.4,0 -0.9,0 -1.5,-0.1 l 0,-2 c 0.3,0 0.6,0.1 0.9,0.1 0.8,0 1.3,-0.2 1.7,-0.6 0.3,-0.4 0.5,-1 0.5,-1.9 l 0,-4.9 c 0,-0.8 0.1,-1.6 0.3,-2.4 0.2,-0.8 0.5,-1.4 0.9,-1.9 l -2.9,0 0,-2 7.3,0 c 2.1,-0.1 3.7,0.4 4.7,1.4 z"
             id="path7148"
             style="fill:#d16a4e" />
          <path
             class="st940"
             d="m 1004.4,1317.7 c 0,-0.8 -0.3,-1.5 -0.8,-2 -0.5,-0.5 -1.2,-0.7 -2,-0.7 l -5.3,0 0,-2 5.3,0 c 1.1,0 2,0.2 2.8,0.6 0.8,0.4 1.4,1 1.8,1.7 0.4,0.7 0.6,1.6 0.6,2.6 l 0,10.7 -2.5,0 0,-10.9 z"
             id="path7150"
             style="fill:#d16a4e" />
          <path
             class="st940"
             d="m 1013.2,1314.9 -2.9,0 0,-2 5.3,0 0,8.7 -2.5,0 0,-6.7 z"
             id="path7152"
             style="fill:#d16a4e" />
          <path
             class="st940"
             d="m 1021.9,1318.6 c 0.1,-0.7 0.3,-1.4 0.6,-2 0.3,-0.6 0.7,-1.1 1.1,-1.5 0,0 0.1,-0.1 0.3,-0.2 l 0,0 c -0.4,0.1 -0.9,0.2 -1.5,0.3 -0.6,0.2 -1.1,0.3 -1.6,0.5 l -0.6,-1.9 c 1,-0.4 2.2,-0.6 3.4,-0.9 1.3,-0.2 2.4,-0.3 3.5,-0.3 2.1,0 3.7,0.6 4.8,1.7 1.1,1.1 1.7,2.8 1.7,4.9 l 0,9.3 -6.4,0 0,-2 4,0 0,-7.6 c 0,-1.4 -0.3,-2.4 -0.9,-3.2 -0.6,-0.7 -1.5,-1.1 -2.7,-1.1 -0.9,0 -1.6,0.3 -2.1,1 -0.6,0.7 -0.9,1.6 -1.1,2.7 l -1.2,10.2 -2.4,0 1.1,-9.9 z"
             id="path7154"
             style="fill:#d16a4e" />
          <path
             class="st940"
             d="m 1041.2,1325.8 c 0.8,0.4 1.7,0.6 2.7,0.8 0.9,0.2 1.8,0.3 2.7,0.3 1.3,0 2.4,-0.2 3.4,-0.6 1,-0.4 1.8,-0.9 2.4,-1.7 0.6,-0.7 0.9,-1.7 0.9,-2.8 l 0,-9 2.4,0 0,9.2 c 0,1.5 -0.4,2.7 -1.2,3.7 -0.8,1 -1.9,1.8 -3.2,2.3 -1.3,0.5 -2.8,0.8 -4.5,0.8 -1.3,0 -2.6,-0.2 -4,-0.5 -1.4,-0.3 -2.7,-0.8 -3.9,-1.3 l 0,-14.2 2.4,0 0,13 z m 4.5,-3 c 0.2,-0.6 0.3,-1.3 0.3,-2.1 l 0,-7.8 2.4,0 0,7.3 c 0,0.9 -0.1,1.7 -0.3,2.4 -0.2,0.7 -0.6,1.2 -1,1.7 l -2,-0.1 c 0.2,-0.3 0.4,-0.8 0.6,-1.4 z"
             id="path7156"
             style="fill:#d16a4e" />
        </g>
      </g>
    </g>
  </g>
</svg>
