<?xml version="1.0" encoding="UTF-8" standalone="no"?>
<svg
   xmlns:dc="http://purl.org/dc/elements/1.1/"
   xmlns:cc="http://creativecommons.org/ns#"
   xmlns:rdf="http://www.w3.org/1999/02/22-rdf-syntax-ns#"
   xmlns:svg="http://www.w3.org/2000/svg"
   xmlns="http://www.w3.org/2000/svg"
   version="1.1"
   id="svg4541"
   viewBox="0 0 100.30001 64.700017"
   height="18.259783mm"
   width="28.30689mm">
  <defs
     id="defs4543" />
  <metadata
     id="metadata4546">
    <rdf:RDF>
      <cc:Work
         rdf:about="">
        <dc:format>image/svg+xml</dc:format>
        <dc:type
           rdf:resource="http://purl.org/dc/dcmitype/StillImage" />
        <dc:title></dc:title>
      </cc:Work>
    </rdf:RDF>
  </metadata>
  <g
     transform="translate(-304.13571,-434.29791)"
     id="layer1">
    <g
       transform="translate(-3.2499678,0)"
       id="g5137">
      <path
         style="fill:#18304e"
         d="m 370.63568,472.09793 c 0,7.2 -13.1,26.9 -13.1,26.9 0,0 -13.1,-19.7 -13.1,-26.9 0,-7.2 5.9,-13.1 13.1,-13.1 7.2,0.2 13.1,6 13.1,13.1"
         class="st48"
         id="path897_2_" />
      <path
         style="fill:#ffffff;enable-background:new"
         d="m 361.63568,470.29793 0,6.2 -9.5,0 0,-9.5 6.2,0 1.8,-1.8 -10,0 0,13.4 13.4,0 0,-10 -1.9,1.7 z m -6.7,1.4 -0.7,2.7 2.7,-0.7 6.7,-6.7 -2,-2 -6.7,6.7 0,0 z m 10,-8.2 c 0.5,0.5 0.5,1.5 0,2 l -0.7,0.7 -2,-2 0.7,-0.7 c 0.5,-0.5 1.5,-0.5 2,0"
         class="st49"
         id="path899_2_" />
    </g>
    <rect
       id="rect901_4_"
       x="304.13571"
       y="434.29791"
       class="st48"
       width="100.3"
       height="21.700001"
       style="fill:#18304e" />
    <g
       id="g801"
       transform="translate(-348.86432,-96.302072)">
      <path
         class="st7"
         d="m 670,538.1 c 0.6,0.5 0.8,1.4 0.8,2.5 l 0,5.3 -1.4,0 0,-5.4 c 0,-0.7 -0.2,-1.3 -0.5,-1.6 -0.3,-0.3 -0.8,-0.5 -1.5,-0.5 l -1.2,0 c -0.2,0.3 -0.3,0.6 -0.4,1 -0.1,0.4 -0.1,0.8 -0.1,1.3 l 0,2.9 c 0,0.8 -0.2,1.4 -0.6,1.8 -0.4,0.4 -0.9,0.6 -1.6,0.6 -0.2,0 -0.5,0 -0.8,-0.1 l 0,-1.1 c 0.2,0 0.3,0 0.5,0 0.4,0 0.7,-0.1 0.9,-0.3 0.2,-0.2 0.3,-0.6 0.3,-1 l 0,-2.7 c 0,-0.4 0.1,-0.9 0.2,-1.3 0.1,-0.4 0.3,-0.8 0.5,-1.1 l -1.6,0 0,-1.1 4,0 c 1.1,0 1.9,0.2 2.5,0.8 z"
         id="path803"
         style="fill:#ffffff" />
      <path
         class="st7"
         d="m 673.7,538.3 -1,0 0,-1.1 2.4,0 0,8.6 -1.4,0 0,-7.5 z"
         id="path805"
         style="fill:#ffffff" />
      <path
         class="st7"
         d="m 678.3,540.4 c 0,-0.4 0.2,-0.8 0.3,-1.1 0.2,-0.4 0.4,-0.6 0.6,-0.8 0,0 0.1,0 0.1,-0.1 l 0,0 c -0.2,0 -0.5,0.1 -0.8,0.2 -0.3,0.1 -0.6,0.2 -0.9,0.3 l -0.3,-1 c 0.6,-0.2 1.2,-0.4 1.9,-0.5 0.7,-0.1 1.4,-0.2 1.9,-0.2 1.2,0 2,0.3 2.7,0.9 0.6,0.6 0.9,1.5 0.9,2.7 l 0,5.1 -3.6,0 0,-1.1 2.2,0 0,-4.2 c 0,-0.8 -0.2,-1.3 -0.5,-1.8 -0.3,-0.5 -0.8,-0.6 -1.5,-0.6 -0.5,0 -0.9,0.2 -1.2,0.5 -0.3,0.4 -0.5,0.9 -0.6,1.5 l -0.7,5.6 -1.3,0 0.8,-5.4 z"
         id="path807"
         style="fill:#ffffff" />
      <path
         class="st7"
         d="m 693.3,538.1 c 0.6,0.5 0.8,1.4 0.8,2.5 l 0,5.3 -1.4,0 0,-5.4 c 0,-0.7 -0.2,-1.3 -0.5,-1.6 -0.3,-0.3 -0.8,-0.5 -1.5,-0.5 l -1.2,0 c -0.2,0.3 -0.3,0.6 -0.4,1 -0.1,0.4 -0.1,0.8 -0.1,1.3 l 0,2.9 c 0,0.8 -0.2,1.4 -0.6,1.8 -0.4,0.4 -0.9,0.6 -1.6,0.6 -0.2,0 -0.5,0 -0.8,-0.1 l 0,-1.1 c 0.2,0 0.3,0 0.5,0 0.4,0 0.7,-0.1 0.9,-0.3 0.2,-0.2 0.3,-0.6 0.3,-1 l 0,-2.7 c 0,-0.4 0.1,-0.9 0.2,-1.3 0.1,-0.4 0.3,-0.8 0.5,-1.1 l -1.6,0 0,-1.1 4,0 c 1.1,0 1.9,0.2 2.5,0.8 z"
         id="path809"
         style="fill:#ffffff" />
      <path
         class="st7"
         d="m 696.6,537.3 3.2,0 c 1.1,0 2,0.3 2.6,0.8 0.6,0.5 0.8,1.4 0.8,2.5 l 0,5.3 -1.4,0 0,-5.4 c 0,-0.7 -0.2,-1.3 -0.5,-1.6 -0.3,-0.3 -0.8,-0.5 -1.6,-0.5 l -1.7,0 0,7.5 -1.4,0 0,-8.6 z"
         id="path811"
         style="fill:#ffffff" />
      <path
         class="st7"
         d="m 710.7,540.5 c 0,-0.7 -0.2,-1.3 -0.5,-1.6 -0.3,-0.3 -0.9,-0.5 -1.6,-0.5 l -3.1,0 0,-1.1 3.2,0 c 1.1,0 2,0.3 2.6,0.8 0.6,0.5 0.9,1.4 0.9,2.4 l 0,5.4 -1.4,0 0,-5.4 z m -5.2,2.4 c 0,-0.4 0,-0.8 0.1,-1.1 0.1,-0.3 0.2,-0.5 0.3,-0.8 l 1.1,0 c -0.1,0.2 -0.1,0.5 -0.1,0.7 0,0.2 0,0.6 0,1 l 0,3 -1.3,0 0,-2.8 z"
         id="path813"
         style="fill:#ffffff" />
      <path
         class="st7"
         d="m 721.8,539.9 c 0,-0.5 -0.1,-0.8 -0.4,-1.1 -0.3,-0.3 -0.7,-0.4 -1.1,-0.4 l -2.9,0 0,-1.1 2.9,0 c 0.6,0 1.1,0.1 1.5,0.3 0.4,0.2 0.8,0.5 1,0.9 0.2,0.4 0.3,0.9 0.3,1.5 l 0,5.9 -1.4,0 0,-6 z"
         id="path815"
         style="fill:#ffffff" />
      <path
         class="st7"
         d="m 726,538.3 -1,0 0,-1.1 2.4,0 0,8.6 -1.4,0 0,-7.5 z"
         id="path817"
         style="fill:#ffffff" />
      <path
         class="st7"
         d="m 729.9,538.4 -0.6,-0.1 0,-1 4.2,0 0,1.1 -2.2,0 1.2,7.5 -1.5,0 -1.1,-7.5 z"
         id="path819"
         style="fill:#ffffff" />
      <path
         class="st7"
         d="m 740.1,542.1 2.7,3.8 -1.5,0 -3.8,-5.3 c -0.5,0.3 -0.8,0.9 -0.8,1.7 l 0,3.6 -1.3,0 0,-3.1 c 0,-0.7 0.1,-1.4 0.4,-1.8 0.3,-0.5 0.6,-0.8 1.2,-1.1 l -1.9,-2.6 1.5,0 2.7,3.7 2.1,-3.7 1.5,0 -2.8,4.8 z"
         id="path821"
         style="fill:#ffffff" />
    </g>
  </g>
</svg>
