<?xml version="1.0" encoding="UTF-8" standalone="no"?>
<svg
   xmlns:dc="http://purl.org/dc/elements/1.1/"
   xmlns:cc="http://creativecommons.org/ns#"
   xmlns:rdf="http://www.w3.org/1999/02/22-rdf-syntax-ns#"
   xmlns:svg="http://www.w3.org/2000/svg"
   xmlns="http://www.w3.org/2000/svg"
   width="154.36"
   height="71.120003"
   viewBox="0 0 154.36 71.120006"
   id="svg17588"
   version="1.1">
  <defs
     id="defs17590" />
  <metadata
     id="metadata17593">
    <rdf:RDF>
      <cc:Work
         rdf:about="">
        <dc:format>image/svg+xml</dc:format>
        <dc:type
           rdf:resource="http://purl.org/dc/dcmitype/StillImage" />
        <dc:title></dc:title>
      </cc:Work>
    </rdf:RDF>
  </metadata>
  <g
     id="layer1"
     transform="translate(-288.77214,-422.51649)">
    <polygon
       class="st943"
       points="-302.8,486.42 -311.9,524.44 -373.79,453.32 "
       id="polygon6570"
       style="fill:#b48e59"
       transform="translate(739.74214,-30.80351)" />
    <polygon
       class="st944"
       points="-450.97,489.49 -302.8,486.42 -311.9,524.44 -450.97,521.84 "
       id="polygon6572"
       style="fill:#b8af79"
       transform="translate(739.74214,-30.80351)" />
    <g
       id="g6578"
       transform="translate(739.74214,-30.80351)">
      <g
         id="g6580">
        <path
           class="st946"
           d="m -423.82,503.39 c 0.6,0.57 0.9,1.43 0.9,2.57 l 0,5.58 -1.92,0 -0.01,-5.72 c 0,-0.62 -0.13,-1.07 -0.39,-1.35 -0.26,-0.29 -0.68,-0.43 -1.24,-0.43 l -1.22,0 c -0.12,0.28 -0.21,0.61 -0.28,0.99 -0.07,0.38 -0.11,0.75 -0.11,1.11 l 0,2.8 c 0,0.87 -0.22,1.54 -0.66,2.01 -0.44,0.47 -1.06,0.7 -1.87,0.7 -0.31,0 -0.65,-0.03 -1.02,-0.08 l 0,-1.51 c 0.18,0.02 0.35,0.02 0.51,0.02 0.4,0 0.7,-0.1 0.89,-0.31 0.19,-0.21 0.29,-0.53 0.29,-0.97 l 0,-2.49 c 0,-0.39 0.05,-0.8 0.16,-1.22 0.11,-0.42 0.25,-0.77 0.44,-1.04 l -1.54,0 0,-1.51 4.4,0 c 1.18,-0.01 2.07,0.28 2.67,0.85 z"
           id="path6582"
           style="fill:#ffffff" />
        <path
           class="st946"
           d="m -420.27,504.04 -0.91,0 0,-1.51 2.83,0 0,9.01 -1.92,0 0,-7.5 z"
           id="path6584"
           style="fill:#ffffff" />
        <path
           class="st946"
           d="m -415.18,506.16 c 0.05,-0.41 0.16,-0.8 0.33,-1.16 0.17,-0.37 0.37,-0.65 0.6,-0.86 0.04,-0.04 0.08,-0.07 0.13,-0.1 l -0.02,-0.03 c -0.21,0.04 -0.46,0.09 -0.77,0.18 -0.31,0.08 -0.58,0.17 -0.81,0.25 l -0.42,-1.41 c 0.59,-0.21 1.26,-0.38 2.02,-0.51 0.76,-0.13 1.46,-0.19 2.12,-0.19 1.3,0 2.29,0.34 2.97,1.01 0.68,0.67 1.02,1.67 1.03,2.97 l 0,5.23 -3.83,0 0,-1.51 1.91,0 0,-3.96 c 0,-0.7 -0.15,-1.23 -0.45,-1.6 -0.3,-0.37 -0.72,-0.56 -1.28,-0.56 -0.46,0 -0.82,0.18 -1.11,0.53 -0.28,0.35 -0.46,0.85 -0.53,1.49 l -0.6,5.61 -1.9,0 0.61,-5.38 z"
           id="path6586"
           style="fill:#ffffff" />
        <path
           class="st946"
           d="m -399.04,503.39 c 0.6,0.57 0.9,1.43 0.9,2.57 l 0,5.58 -1.92,0 -0.01,-5.72 c 0,-0.62 -0.13,-1.07 -0.39,-1.35 -0.26,-0.29 -0.68,-0.43 -1.24,-0.43 l -1.22,0 c -0.12,0.28 -0.21,0.61 -0.28,0.99 -0.07,0.38 -0.11,0.75 -0.11,1.11 l 0,2.8 c 0,0.87 -0.22,1.54 -0.66,2.01 -0.44,0.47 -1.06,0.7 -1.87,0.7 -0.31,0 -0.65,-0.03 -1.02,-0.08 l 0,-1.51 c 0.18,0.02 0.35,0.02 0.51,0.02 0.4,0 0.7,-0.1 0.89,-0.31 0.19,-0.21 0.29,-0.53 0.29,-0.97 l 0,-2.49 c 0,-0.39 0.05,-0.8 0.16,-1.22 0.11,-0.42 0.25,-0.77 0.44,-1.04 l -1.54,0 0,-1.51 4.4,0 c 1.18,-0.01 2.07,0.28 2.67,0.85 z"
           id="path6588"
           style="fill:#ffffff" />
        <path
           class="st946"
           d="m -395.76,502.53 3.68,0 c 2.37,0 3.56,1.14 3.58,3.42 l 0,5.58 -1.92,0 -0.01,-5.72 c 0,-0.61 -0.13,-1.06 -0.4,-1.35 -0.27,-0.29 -0.68,-0.43 -1.25,-0.43 l -1.77,0 0,7.5 -1.93,0 0.02,-9 z"
           id="path6590"
           style="fill:#ffffff" />
        <path
           class="st946"
           d="m -386.34,508.46 c 0,-0.5 0.04,-0.89 0.13,-1.17 0.09,-0.28 0.2,-0.53 0.35,-0.76 l 1.54,0 c -0.11,0.44 -0.17,1.03 -0.17,1.75 l 0,3.26 -1.86,0 0,-3.08 z m 5.33,-2.66 c 0,-0.61 -0.15,-1.05 -0.44,-1.33 -0.29,-0.28 -0.75,-0.42 -1.37,-0.42 l -3.5,0 0,-1.51 3.63,0 c 1.16,0 2.05,0.29 2.67,0.86 0.62,0.57 0.93,1.4 0.93,2.48 l 0,5.67 -1.92,0 0,-5.75 z"
           id="path6592"
           style="fill:#ffffff" />
        <path
           class="st946"
           d="m -369.48,505.43 c 0,-0.44 -0.13,-0.78 -0.38,-1.03 -0.25,-0.25 -0.61,-0.37 -1.07,-0.37 l -2.87,0 0,-1.51 2.97,0 c 0.68,0 1.26,0.12 1.75,0.36 0.49,0.24 0.86,0.59 1.13,1.04 0.26,0.45 0.39,0.99 0.39,1.62 l 0,5.99 -1.93,0 0,-6.1 z"
           id="path6594"
           style="fill:#ffffff" />
        <path
           class="st946"
           d="m -364.9,504.04 -0.91,0 0,-1.51 2.83,0 0,9.01 -1.93,0 0,-7.5 z"
           id="path6596"
           style="fill:#ffffff" />
        <path
           class="st946"
           d="m -360.56,504.11 -0.58,-0.12 0,-1.45 4.71,0 -0.01,1.51 -2.24,0 1.19,7.5 -1.98,0 -1.09,-7.44 z"
           id="path6598"
           style="fill:#ffffff" />
        <path
           class="st946"
           d="m -349.12,507.68 2.73,3.86 -2.14,0 -3.67,-5.18 c -0.17,0.15 -0.3,0.33 -0.38,0.54 -0.08,0.21 -0.13,0.46 -0.13,0.75 l 0,3.9 -1.86,0 0,-3.11 c 0,-0.81 0.13,-1.46 0.39,-1.96 0.26,-0.5 0.67,-0.88 1.23,-1.15 l -1.97,-2.78 2.15,0 2.46,3.48 1.83,-3.48 2.16,0 -2.8,5.13 z"
           id="path6600"
           style="fill:#ffffff" />
      </g>
    </g>
    <path
       id="path899_2_"
       class="st934"
       d="m 421.97214,474.40649 0,9.76001 -15.04,0 0,-15.04001 9.76,0 2.9,-2.89999 -15.83,0 0,21.10999 21.11,0 0,-15.83 -2.9,2.9 z m -10.55,2.11 -1.06,4.22001 4.22,-1.06 10.55,-10.55001 -3.17,-3.17 -10.54,10.56 0,0 z m 15.83,-12.93 c 0.79,0.79 0.79,2.37 0,3.17 l -1.06,1.06 -3.17,-3.17 1.06,-1.06 c 0.8,-0.79 2.38,-0.79 3.17,0"
       style="opacity:1;fill:#b69d67;fill-opacity:1" />
  </g>
</svg>
