<?xml version="1.0" encoding="UTF-8" standalone="no"?>
<svg
   xmlns:dc="http://purl.org/dc/elements/1.1/"
   xmlns:cc="http://creativecommons.org/ns#"
   xmlns:rdf="http://www.w3.org/1999/02/22-rdf-syntax-ns#"
   xmlns:svg="http://www.w3.org/2000/svg"
   xmlns="http://www.w3.org/2000/svg"
   version="1.1"
   id="svg6428"
   viewBox="0 0 84.9 81.4"
   height="22.972889mm"
   width="23.960667mm">
  <defs
     id="defs6430" />
  <metadata
     id="metadata6433">
    <rdf:RDF>
      <cc:Work
         rdf:about="">
        <dc:format>image/svg+xml</dc:format>
        <dc:type
           rdf:resource="http://purl.org/dc/dcmitype/StillImage" />
        <dc:title></dc:title>
      </cc:Work>
    </rdf:RDF>
  </metadata>
  <g
     transform="translate(-300.40714,-517.37649)"
     id="layer1">
    <path
       id="path471_2_"
       class="st48"
       d="m 355.95714,571.87649 c 0,7.2 -13.1,26.9 -13.1,26.9 0,0 -13.1,-19.7 -13.1,-26.9 0,-7.2 5.9,-13.1 13.1,-13.1 7.2,0.2 13.1,5.9 13.1,13.1"
       style="fill:#e93214;fill-opacity:1" />
    <path
       id="path473_2_"
       class="st49"
       d="m 342.85714,578.47649 c -3.7,0 -6.7,-3 -6.7,-6.7 0,-3.7 3,-6.7 6.7,-6.7 3.7,0 6.7,3 6.7,6.7 0,3.7 -3,6.7 -6.7,6.7 m 0,-14.8 c -4.5,0 -8.2,3.7 -8.2,8.2 0,4.5 3.7,8.2 8.2,8.2 4.5,0 8.2,-3.7 8.2,-8.2 0,-4.5 -3.7,-8.2 -8.2,-8.2 m 0,7.1 c -0.5,0 -1,0.5 -1,1 l 0,3 c 0,0.5 0.5,1 1,1 0.5,0 1,-0.5 1,-1 l 0,-3 c 0,-0.5 -0.5,-1 -1,-1 m 0,-3.1 c -0.5,0 -1,0.5 -1,1 0,0.5 0.5,1 1,1 0.5,0 1,-0.5 1,-1 0,-0.5 -0.5,-1 -1,-1"
       style="fill:#ffffff;enable-background:new" />
    <rect
       style="fill:#e93214;fill-opacity:1"
       height="21.700001"
       width="63.099998"
       class="st48"
       y="517.37646"
       x="310.80716"
       id="rect315_2_" />
    <rect
       style="fill:#e93214;fill-opacity:1"
       height="21.700001"
       width="84.900002"
       class="st48"
       y="533.77649"
       x="300.40714"
       id="rect317_2_" />
    <g
       id="g1155"
       transform="translate(-96.392846,-70.12351)">
      <path
         class="st7"
         d="m 418.9,594.6 -1,0 0,-1.1 2.4,0 0,11.7 -1.3,0 0,-10.6 z"
         id="path1157"
         style="fill:#ffffff" />
      <path
         class="st7"
         d="m 423.6,594.6 -1.6,0 0,-1.1 2.9,0 0,4.8 -1.4,0 0,-3.7 z"
         id="path1159"
         style="fill:#ffffff" />
      <path
         class="st7"
         d="m 433.5,593.5 0,5.2 c 0,0.8 -0.2,1.4 -0.5,2 -0.3,0.5 -0.8,1 -1.3,1.2 -0.6,0.3 -1.2,0.4 -2,0.4 -1,0 -2,-0.2 -3.1,-0.6 l 0.3,-1 c 0.8,0.3 1.6,0.5 2.3,0.6 -0.4,-0.4 -0.6,-0.9 -0.7,-1.5 l -1.4,-6.3 1.4,0 1.4,6.4 c 0.1,0.3 0.1,0.5 0.2,0.8 0.1,0.3 0.2,0.4 0.3,0.6 0.6,-0.1 1,-0.4 1.4,-0.8 0.3,-0.4 0.5,-1 0.5,-1.6 l 0,-5.2 1.2,0 z"
         id="path1161"
         style="fill:#ffffff" />
      <path
         class="st7"
         d="m 436.8,594.6 -1.6,0 0,-1.1 2.9,0 0,4.8 -1.4,0 0,-3.7 z"
         id="path1163"
         style="fill:#ffffff" />
      <path
         class="st7"
         d="m 446.7,593.5 0,1.1 -1.4,0 0,7.5 -1.4,0 0,-7.5 -4.1,0 0,-1.1 6.9,0 z"
         id="path1165"
         style="fill:#ffffff" />
      <path
         class="st7"
         d="m 448.9,594.6 -1,0 0,-1.1 2.4,0 0,8.6 -1.4,0 0,-7.5 z"
         id="path1167"
         style="fill:#ffffff" />
      <path
         class="st7"
         d="m 453.5,596.7 c 0,-0.4 0.2,-0.8 0.3,-1.1 0.2,-0.4 0.4,-0.6 0.6,-0.8 0,0 0.1,0 0.1,-0.1 l 0,0 c -0.2,0 -0.5,0.1 -0.8,0.2 -0.3,0.1 -0.6,0.2 -0.9,0.3 l -0.3,-1 c 0.6,-0.2 1.2,-0.4 1.9,-0.5 0.7,-0.1 1.4,-0.2 1.9,-0.2 1.2,0 2,0.3 2.7,0.9 0.6,0.6 0.9,1.5 0.9,2.7 l 0,5.1 -3.6,0 0,-1.1 2.2,0 0,-4.2 c 0,-0.8 -0.2,-1.4 -0.5,-1.8 -0.3,-0.4 -0.8,-0.6 -1.5,-0.6 -0.5,0 -0.9,0.2 -1.2,0.5 -0.3,0.4 -0.5,0.9 -0.6,1.5 l -0.7,5.6 -1.3,0 0.8,-5.4 z"
         id="path1169"
         style="fill:#ffffff" />
      <path
         class="st7"
         d="m 405.5,612.6 -1.6,0 0,-1.1 2.9,0 0,4.8 -1.4,0 0,-3.7 z"
         id="path1171"
         style="fill:#ffffff" />
      <path
         class="st7"
         d="m 409.1,610 c 0.2,-0.5 0.5,-0.9 0.9,-1.2 l 0.8,0.5 c -0.2,0.3 -0.4,0.7 -0.5,1 -0.1,0.3 -0.2,0.7 -0.2,1.1 l 0,0.9 -1.4,0 0,-0.9 c 0.1,-0.4 0.2,-0.9 0.4,-1.4 z m 2.3,0 c 0.2,-0.5 0.5,-0.9 0.9,-1.2 l 0.8,0.5 c -0.2,0.3 -0.4,0.7 -0.5,1 -0.1,0.3 -0.2,0.7 -0.2,1.1 l 0,0.9 -1.4,0 0,-0.9 c 0.1,-0.4 0.2,-0.9 0.4,-1.4 z"
         id="path1173"
         style="fill:#ffffff" />
      <path
         class="st7"
         d="m 419.5,616.4 2.7,3.8 -1.5,0 -3.8,-5.3 c -0.5,0.3 -0.8,0.9 -0.8,1.7 l 0,3.6 -1.3,0 0,-3.2 c 0,-0.7 0.1,-1.4 0.4,-1.8 0.3,-0.5 0.6,-0.8 1.2,-1.1 l -1.9,-2.6 1.5,0 2.7,3.7 2.1,-3.7 1.5,0 -2.8,4.9 z"
         id="path1175"
         style="fill:#ffffff" />
      <path
         class="st7"
         d="m 424.9,614.7 c 0,-0.4 0.2,-0.8 0.3,-1.1 0.2,-0.4 0.4,-0.6 0.6,-0.8 0,0 0.1,0 0.1,-0.1 l 0,0 c -0.2,0 -0.5,0.1 -0.8,0.2 -0.3,0.1 -0.6,0.2 -0.9,0.3 l -0.3,-1 c 0.6,-0.2 1.2,-0.4 1.9,-0.5 0.7,-0.1 1.4,-0.2 1.9,-0.2 1.2,0 2,0.3 2.7,0.9 0.6,0.6 0.9,1.5 0.9,2.7 l 0,5.1 -3.6,0 0,-1.1 2.2,0 0,-4.2 c 0,-0.8 -0.2,-1.4 -0.5,-1.8 -0.3,-0.4 -0.8,-0.6 -1.5,-0.6 -0.5,0 -0.9,0.2 -1.2,0.5 -0.3,0.4 -0.5,0.9 -0.6,1.5 l -0.7,5.6 -1.3,0 0.8,-5.4 z"
         id="path1177"
         style="fill:#ffffff" />
      <path
         class="st7"
         d="m 438.6,616.4 2.7,3.8 -1.5,0 -3.8,-5.3 c -0.5,0.3 -0.8,0.9 -0.8,1.7 l 0,3.6 -1.3,0 0,-3.2 c 0,-0.7 0.1,-1.4 0.4,-1.8 0.3,-0.5 0.6,-0.8 1.2,-1.1 l -1.9,-2.6 1.5,0 2.7,3.7 2.1,-3.7 1.5,0 -2.8,4.9 z"
         id="path1179"
         style="fill:#ffffff" />
      <path
         class="st7"
         d="m 447.5,612.6 -1,0 0,-1.1 2.4,0 0,11.7 -1.3,0 0,-10.6 z"
         id="path1181"
         style="fill:#ffffff" />
      <path
         class="st7"
         d="m 450.7,619.9 0.2,-1 c 0.8,0.2 1.5,0.3 2.1,0.3 0.8,0 1.4,-0.2 1.9,-0.6 0.4,-0.4 0.6,-1 0.6,-1.7 l 0,-4.3 -4.5,0 0,-1.1 5.8,0 0,5.1 c 0,1.2 -0.3,2.1 -1,2.8 -0.7,0.7 -1.6,0.9 -2.7,0.9 -0.6,0 -1.5,-0.1 -2.4,-0.4 z"
         id="path1183"
         style="fill:#ffffff" />
      <path
         class="st7"
         d="m 459.9,612.6 -1,0 0,-1.1 2.4,0 0,8.6 -1.4,0 0,-7.5 z"
         id="path1185"
         style="fill:#ffffff" />
      <path
         class="st7"
         d="m 470,611.5 0,1.1 -1.4,0 0,7.5 -1.4,0 0,-7.5 -4.1,0 0,-1.1 6.9,0 z"
         id="path1187"
         style="fill:#ffffff" />
      <path
         class="st7"
         d="m 472.2,612.6 -1,0 0,-1.1 2.4,0 0,8.6 -1.4,0 0,-7.5 z"
         id="path1189"
         style="fill:#ffffff" />
    </g>
  </g>
</svg>
