<?xml version="1.0" encoding="UTF-8" standalone="no"?>
<svg
   xmlns:dc="http://purl.org/dc/elements/1.1/"
   xmlns:cc="http://creativecommons.org/ns#"
   xmlns:rdf="http://www.w3.org/1999/02/22-rdf-syntax-ns#"
   xmlns:svg="http://www.w3.org/2000/svg"
   xmlns="http://www.w3.org/2000/svg"
   version="1.1"
   id="svg7484"
   viewBox="0 0 66.360001 52.990003"
   height="52.990002"
   width="66.360001">
  <defs
     id="defs7486" />
  <metadata
     id="metadata7489">
    <rdf:RDF>
      <cc:Work
         rdf:about="">
        <dc:format>image/svg+xml</dc:format>
        <dc:type
           rdf:resource="http://purl.org/dc/dcmitype/StillImage" />
        <dc:title></dc:title>
      </cc:Work>
    </rdf:RDF>
  </metadata>
  <g
     transform="translate(-339.48143,-391.5815)"
     id="layer1">
    <polygon
       class="st943"
       points="-325.04,1719.15 -355.45,1668.28 -358.22,1688.49 "
       id="polygon7855"
       style="fill:#b48e59"
       transform="translate(697.70143,-1274.5785)" />
    <polygon
       class="st944"
       points="-305.18,1666.16 -300.04,1691.88 -358.22,1688.49 -355.19,1667.58 "
       id="polygon7857"
       style="fill:#b8af79"
       transform="translate(697.70143,-1274.5785)" />
    <g
       id="g7859"
       transform="translate(697.70143,-1274.5785)">
      <path
         class="st946"
         d="m -336.86,1676.4 c 0.39,0.37 0.59,0.93 0.59,1.68 l 0,3.65 -1.25,0 0,-3.74 c 0,-0.4 -0.09,-0.7 -0.26,-0.88 -0.17,-0.18 -0.44,-0.28 -0.81,-0.28 l -0.8,0 c -0.08,0.18 -0.14,0.4 -0.18,0.64 -0.04,0.24 -0.07,0.49 -0.07,0.73 l 0,1.83 c 0,0.57 -0.14,1.01 -0.43,1.32 -0.29,0.31 -0.7,0.46 -1.22,0.46 -0.2,0 -0.42,-0.02 -0.67,-0.05 l 0,-0.99 c 0.12,0.01 0.23,0.01 0.33,0.01 0.26,0 0.45,-0.07 0.58,-0.2 0.13,-0.14 0.19,-0.35 0.19,-0.63 l 0,-1.63 c 0,-0.26 0.04,-0.52 0.1,-0.8 0.07,-0.28 0.17,-0.5 0.29,-0.68 l -1.01,0 0,-0.99 2.88,0 c 0.76,-0.01 1.35,0.18 1.74,0.55 z"
         id="path7861"
         style="fill:#ffffff" />
      <path
         class="st946"
         d="m -334.54,1676.83 -0.59,0 0,-0.99 1.85,0 0,5.89 -1.26,0 0,-4.9 z"
         id="path7863"
         style="fill:#ffffff" />
      <path
         class="st946"
         d="m -330.46,1681.76 c -0.38,-0.06 -0.72,-0.15 -1.05,-0.26 l 0.23,-0.93 c 0.31,0.09 0.62,0.16 0.93,0.2 0.31,0.05 0.59,0.07 0.83,0.07 0.51,-0.01 0.89,-0.13 1.16,-0.36 0.27,-0.23 0.4,-0.58 0.4,-1.04 l 0,-2.61 -2.04,0 c -0.09,0.19 -0.15,0.39 -0.2,0.62 -0.05,0.23 -0.07,0.46 -0.07,0.69 l 0,0.37 c 0.14,0.04 0.35,0.06 0.63,0.06 l 0,0.94 c -0.14,0.01 -0.28,0.02 -0.44,0.02 -0.29,0 -0.55,-0.03 -0.78,-0.08 -0.23,-0.06 -0.44,-0.14 -0.64,-0.26 l -0.01,-0.65 c 0,-0.33 0.04,-0.64 0.11,-0.95 0.07,-0.31 0.18,-0.56 0.31,-0.76 l -0.67,0 0,-0.99 5.05,0 0,3.4 c 0,0.58 -0.12,1.07 -0.35,1.46 -0.23,0.39 -0.55,0.68 -0.96,0.87 -0.41,0.19 -0.87,0.28 -1.4,0.28 -0.32,0 -0.67,-0.03 -1.04,-0.09 z"
         id="path7865"
         style="fill:#ffffff" />
      <path
         class="st946"
         d="m -324.83,1676.83 -0.59,0 0,-0.99 1.85,0 0,5.89 -1.26,0 0,-4.9 z"
         id="path7867"
         style="fill:#ffffff" />
      <path
         class="st946"
         d="m -319.79,1680.77 c 0.45,-0.02 0.81,-0.16 1.07,-0.42 0.26,-0.27 0.39,-0.64 0.39,-1.12 l 0,-2.39 -3.52,0 0,-0.99 4.78,0 0,3.36 c 0,0.52 -0.11,0.97 -0.33,1.34 -0.22,0.38 -0.53,0.67 -0.94,0.87 -0.41,0.2 -0.89,0.31 -1.45,0.33 l 0,-0.98 z m -1.99,-1.17 c 0,-0.32 0.03,-0.58 0.09,-0.76 0.06,-0.18 0.13,-0.35 0.22,-0.5 l 1.02,0 c -0.07,0.27 -0.11,0.65 -0.11,1.14 l 0,4.31 -1.21,0 0,-4.19 z"
         id="path7869"
         style="fill:#ffffff" />
    </g>
  </g>
</svg>
