<?xml version="1.0" encoding="UTF-8" standalone="no"?>
<svg
   xmlns:dc="http://purl.org/dc/elements/1.1/"
   xmlns:cc="http://creativecommons.org/ns#"
   xmlns:rdf="http://www.w3.org/1999/02/22-rdf-syntax-ns#"
   xmlns:svg="http://www.w3.org/2000/svg"
   xmlns="http://www.w3.org/2000/svg"
   width="26.924mm"
   height="41.402874mm"
   viewBox="0 0 95.399999 146.7031"
   id="svg3571"
   version="1.1">
  <defs
     id="defs3573" />
  <metadata
     id="metadata3576">
    <rdf:RDF>
      <cc:Work
         rdf:about="">
        <dc:format>image/svg+xml</dc:format>
        <dc:type
           rdf:resource="http://purl.org/dc/dcmitype/StillImage" />
        <dc:title></dc:title>
      </cc:Work>
    </rdf:RDF>
  </metadata>
  <g
     id="layer1"
     transform="translate(-400.87143,-407.58208)">
    <g
       transform="translate(-444.12857,191.88518)"
       id="g4573">
      <path
         id="path659_3_"
         class="st929"
         d="m 940.4,263.4 c 0,26.5 -47.7,99 -47.7,99 0,0 -47.7,-72.5 -47.7,-99 0,-26.5 21.5,-47.7 47.7,-47.7 26.4,-0.3 47.7,21.2 47.7,47.7"
         style="fill:#4b1a26;fill-opacity:1" />
      <g
         id="g6680"
         transform="translate(-88,-84.599998)">
        <path
           class="st935"
           d="m 947.4,327.6 15,0 0,17.6 -15,0 0,-17.6 z m 10.4,14 0,-10.4 -5.8,0 0,10.4 5.8,0 z"
           id="path6682"
           style="fill:#f1f2f2" />
        <path
           class="st935"
           d="m 980.9,330.6 -5.8,14.7 -4.9,0 5.8,-14 -9.4,0 0,-8.5 4.6,0 0,4.9 9.8,0 0,2.9 z"
           id="path6684"
           style="fill:#f1f2f2" />
        <path
           class="st935"
           d="m 985.4,331.2 -1.5,0 0,-3.6 6.2,0 0,17.6 -4.6,0 0,-14 z"
           id="path6686"
           style="fill:#f1f2f2" />
        <path
           class="st935"
           d="m 1006.9,337.8 5.1,7.4 -5.1,0 -6.5,-9.5 c -0.3,0.4 -0.5,1 -0.5,1.6 l 0,7.8 -4.4,0 0,-5.8 c 0,-1.6 0.2,-2.9 0.7,-3.9 0.5,-1 1.3,-1.7 2.4,-2.3 l -3.9,-5.6 5.2,0 4.2,6.1 3,-6.1 5.2,0 -5.4,10.3 z"
           id="path6688"
           style="fill:#f1f2f2" />
        <path
           class="st935"
           d="m 945.8,353.3 -2.8,0 0,-3.6 7.4,0 0,10 -4.6,0 0,-6.4 z"
           id="path6690"
           style="fill:#f1f2f2" />
        <path
           class="st935"
           d="m 960.2,363 c 0.9,0.4 1.8,0.7 2.7,0.9 1,0.2 1.9,0.3 2.7,0.3 2.1,0 3.8,-0.5 5.1,-1.4 1.3,-0.9 1.9,-2.3 1.9,-4.1 l 0,-9.1 4.5,0 0,9.6 c 0,1.9 -0.5,3.4 -1.5,4.7 -1,1.3 -2.3,2.2 -4,2.9 -1.7,0.7 -3.6,1 -5.7,1 -1.6,0 -3.3,-0.2 -5.1,-0.6 -1.7,-0.4 -3.4,-1 -5,-1.7 l 0,-15.8 4.4,0 0,13.3 z m 3.7,-2.9 c 0.1,-0.7 0.2,-1.4 0.2,-2.3 l 0,-8.2 4.5,0 0,7.2 c 0,1 -0.1,1.9 -0.3,2.8 -0.2,0.9 -0.6,1.5 -1,2 l -3.7,0 c 0.1,-0.3 0.2,-0.8 0.3,-1.5 z"
           id="path6692"
           style="fill:#f1f2f2" />
        <path
           class="st935"
           d="m 994,359.9 5.1,7.4 -5.1,0 -6.5,-9.5 c -0.3,0.4 -0.5,1 -0.5,1.6 l 0,7.8 -4.4,0 0,-5.8 c 0,-1.6 0.2,-2.9 0.7,-3.9 0.5,-1 1.3,-1.7 2.4,-2.3 l -3.9,-5.6 5.2,0 4.2,6.1 3,-6.1 5.2,0 -5.4,10.3 z"
           id="path6694"
           style="fill:#f1f2f2" />
        <path
           class="st935"
           d="m 1009.5,355.7 c 0,-0.8 -0.2,-1.4 -0.7,-1.8 -0.4,-0.4 -1.1,-0.6 -1.9,-0.6 l -5.3,0 0,-3.6 5.6,0 c 1.4,0 2.6,0.2 3.7,0.7 1,0.5 1.8,1.2 2.4,2.1 0.5,0.9 0.8,2 0.8,3.3 l 0,11.4 -4.6,0 0,-11.5 z"
           id="path6696"
           style="fill:#f1f2f2" />
      </g>
    </g>
  </g>
</svg>
