<?xml version="1.0" encoding="UTF-8" standalone="no"?>
<svg
   xmlns:dc="http://purl.org/dc/elements/1.1/"
   xmlns:cc="http://creativecommons.org/ns#"
   xmlns:rdf="http://www.w3.org/1999/02/22-rdf-syntax-ns#"
   xmlns:svg="http://www.w3.org/2000/svg"
   xmlns="http://www.w3.org/2000/svg"
   version="1.1"
   id="svg5715"
   viewBox="0 0 129.10001 68.400003"
   height="19.304001mm"
   width="36.434891mm">
  <defs
     id="defs5717" />
  <metadata
     id="metadata5720">
    <rdf:RDF>
      <cc:Work
         rdf:about="">
        <dc:format>image/svg+xml</dc:format>
        <dc:type
           rdf:resource="http://purl.org/dc/dcmitype/StillImage" />
        <dc:title></dc:title>
      </cc:Work>
    </rdf:RDF>
  </metadata>
  <g
     transform="translate(-286.87857,-426.73363)"
     id="layer1">
    <g
       id="מיוחדים"
       transform="translate(-87.721438,-25.166364)">
      <g
         id="g462">
        <rect
           x="374.60001"
           y="451.89999"
           class="st30"
           width="129.10001"
           height="48.5"
           id="rect464"
           style="fill:#e41c1e" />
        <polygon
           class="st30"
           points="450.5,500.1 427.2,500.1 438.9,520.3 "
           id="polygon466"
           style="fill:#e41c1e" />
      </g>
      <g
         id="g468">
        <path
           class="st31"
           d="m 395.8,470 6.9,0 0,8.7 -6.9,0 0,-8.7 z m 5.6,7.6 0,-6.5 -4.2,0 0,6.5 4.2,0 z"
           id="path470"
           style="fill:#f6f6f6" />
        <path
           class="st31"
           d="m 406.1,471.1 -1.6,0 0,-1.1 3,0 0,4.9 -1.4,0 0,-3.8 z"
           id="path472"
           style="fill:#f6f6f6" />
        <path
           class="st31"
           d="m 416.1,470 0,1.1 -1.5,0 0,7.6 -1.4,0 0,-7.6 -4.1,0 0,-1.1 7,0 z"
           id="path474"
           style="fill:#f6f6f6" />
        <path
           class="st31"
           d="m 417.9,470 3.3,0 c 1.2,0 2,0.3 2.6,0.8 0.6,0.5 0.9,1.4 0.9,2.5 l 0,5.4 -1.4,0 0,-5.5 c 0,-0.8 -0.2,-1.3 -0.5,-1.6 -0.3,-0.3 -0.8,-0.5 -1.6,-0.5 l -1.9,0 0,7.6 -1.4,0 0,-8.7 z"
           id="path476"
           style="fill:#f6f6f6" />
        <path
           class="st31"
           d="m 427.5,471.1 -1,0 0,-1.1 2.4,0 0,8.7 -1.4,0 0,-7.6 z"
           id="path478"
           style="fill:#f6f6f6" />
        <path
           class="st31"
           d="m 432.2,471.1 -1.6,0 0,-1.1 3,0 0,4.9 -1.4,0 0,-3.8 z"
           id="path480"
           style="fill:#f6f6f6" />
        <path
           class="st31"
           d="m 436.7,473.2 c 0,-0.4 0.2,-0.8 0.3,-1.1 0.2,-0.4 0.4,-0.6 0.6,-0.8 0,0 0.1,0 0.1,-0.1 l 0,0 c -0.2,0 -0.5,0.1 -0.8,0.2 -0.3,0.1 -0.6,0.2 -0.9,0.3 l -0.3,-1 c 0.6,-0.2 1.2,-0.4 1.9,-0.5 0.7,-0.1 1.4,-0.2 2,-0.2 1.2,0 2.1,0.3 2.7,0.9 0.6,0.6 0.9,1.5 0.9,2.7 l 0,5.2 -3.6,0 0,-1.1 2.2,0 0,-4.2 c 0,-0.8 -0.2,-1.4 -0.5,-1.8 -0.3,-0.4 -0.9,-0.6 -1.5,-0.6 -0.5,0 -0.9,0.2 -1.2,0.5 -0.3,0.4 -0.5,0.9 -0.6,1.5 l -0.7,5.7 -1.3,0 0.7,-5.6 z"
           id="path482"
           style="fill:#f6f6f6" />
        <path
           class="st31"
           d="m 455.6,470.9 c 0.6,0.5 0.9,1.4 0.9,2.5 l 0,5.4 -1.4,0 0,-5.5 c 0,-0.8 -0.2,-1.3 -0.5,-1.6 -0.3,-0.3 -0.8,-0.5 -1.6,-0.5 l -1.2,0 c -0.2,0.3 -0.3,0.6 -0.4,1 -0.1,0.4 -0.1,0.8 -0.1,1.3 l 0,2.9 c 0,0.8 -0.2,1.4 -0.6,1.8 -0.4,0.4 -0.9,0.6 -1.7,0.6 -0.2,0 -0.5,0 -0.8,-0.1 l 0,-1.1 c 0.2,0 0.3,0 0.5,0 0.4,0 0.7,-0.1 0.9,-0.3 0.2,-0.2 0.3,-0.6 0.3,-1 l 0,-2.7 c 0,-0.4 0.1,-0.9 0.2,-1.3 0.1,-0.4 0.3,-0.8 0.5,-1.1 l -1.6,0 0,-1.2 4.1,0 c 1,0 1.9,0.3 2.5,0.9 z"
           id="path484"
           style="fill:#f6f6f6" />
        <path
           class="st31"
           d="m 465,470 0,1.1 -1.5,0 0,7.6 -1.4,0 0,-7.6 -4.1,0 0,-1.1 7,0 z"
           id="path486"
           style="fill:#f6f6f6" />
        <path
           class="st31"
           d="m 467.4,473.2 c 0,-0.4 0.2,-0.8 0.3,-1.1 0.2,-0.4 0.4,-0.6 0.6,-0.8 0,0 0.1,0 0.1,-0.1 l 0,0 c -0.2,0 -0.5,0.1 -0.8,0.2 -0.3,0.1 -0.6,0.2 -0.9,0.3 l -0.3,-1 c 0.6,-0.2 1.2,-0.4 1.9,-0.5 0.7,-0.1 1.4,-0.2 2,-0.2 1.2,0 2.1,0.3 2.7,0.9 0.6,0.6 0.9,1.5 0.9,2.7 l 0,5.2 -3.6,0 0,-1.1 2.2,0 0,-4.2 c 0,-0.8 -0.2,-1.4 -0.5,-1.8 -0.3,-0.4 -0.9,-0.6 -1.5,-0.6 -0.5,0 -0.9,0.2 -1.2,0.5 -0.3,0.4 -0.5,0.9 -0.6,1.5 l -0.7,5.7 -1.4,0 0.8,-5.6 z"
           id="path488"
           style="fill:#f6f6f6" />
        <path
           class="st31"
           d="m 482.4,470 0,5.2 c 0,0.8 -0.2,1.4 -0.5,2 -0.3,0.5 -0.8,1 -1.4,1.2 -0.6,0.3 -1.3,0.4 -2,0.4 -1,0 -2,-0.2 -3.1,-0.6 l 0.3,-1 c 0.9,0.3 1.6,0.5 2.3,0.6 -0.4,-0.4 -0.6,-0.9 -0.7,-1.5 l -1.4,-6.3 1.4,0 1.4,6.4 c 0.1,0.3 0.1,0.6 0.2,0.8 0.1,0.2 0.2,0.4 0.3,0.6 0.6,-0.1 1.1,-0.4 1.4,-0.8 0.3,-0.4 0.5,-1 0.5,-1.6 l 0,-5.4 1.3,0 z"
           id="path490"
           style="fill:#f6f6f6" />
      </g>
    </g>
  </g>
</svg>
