<?xml version="1.0" encoding="UTF-8" standalone="no"?>
<svg
   xmlns:dc="http://purl.org/dc/elements/1.1/"
   xmlns:cc="http://creativecommons.org/ns#"
   xmlns:rdf="http://www.w3.org/1999/02/22-rdf-syntax-ns#"
   xmlns:svg="http://www.w3.org/2000/svg"
   xmlns="http://www.w3.org/2000/svg"
   version="1.1"
   id="svg8713"
   viewBox="0 0 78.440003 62.650003"
   height="62.650002"
   width="78.440002">
  <defs
     id="defs8715" />
  <metadata
     id="metadata8718">
    <rdf:RDF>
      <cc:Work
         rdf:about="">
        <dc:format>image/svg+xml</dc:format>
        <dc:type
           rdf:resource="http://purl.org/dc/dcmitype/StillImage" />
        <dc:title></dc:title>
      </cc:Work>
    </rdf:RDF>
  </metadata>
  <g
     transform="translate(-331.32429,-363.8943)"
     id="layer1">
    <polygon
       class="st943"
       points="-489.17,1635.43 -525.12,1575.3 -528.39,1599.18 "
       id="polygon7639"
       style="fill:#b48e59"
       transform="translate(859.71429,-1208.8857)" />
    <polygon
       class="st944"
       points="-465.69,1572.78 -459.61,1603.19 -528.39,1599.18 -524.81,1574.47 "
       id="polygon7739"
       style="fill:#b8af79"
       transform="translate(859.71429,-1208.8857)" />
    <g
       id="g7843"
       transform="translate(859.71429,-1208.8857)">
      <path
         class="st946"
         d="m -503.15,1584.89 c 0.46,0.44 0.69,1.1 0.69,1.99 l 0,4.32 -1.48,0 -0.01,-4.42 c 0,-0.48 -0.1,-0.83 -0.3,-1.05 -0.2,-0.22 -0.52,-0.33 -0.96,-0.33 l -0.94,0 c -0.09,0.21 -0.16,0.47 -0.22,0.76 -0.06,0.29 -0.08,0.58 -0.08,0.86 l 0,2.16 c 0,0.68 -0.17,1.19 -0.51,1.55 -0.34,0.36 -0.82,0.54 -1.45,0.54 -0.24,0 -0.5,-0.02 -0.79,-0.06 l 0,-1.17 c 0.14,0.01 0.27,0.02 0.39,0.02 0.31,0 0.54,-0.08 0.69,-0.24 0.15,-0.16 0.22,-0.41 0.22,-0.75 l 0,-1.93 c 0,-0.3 0.04,-0.62 0.12,-0.95 0.08,-0.33 0.2,-0.59 0.34,-0.8 l -1.19,0 0,-1.17 3.4,0 c 0.93,0.01 1.62,0.23 2.08,0.67 z"
         id="path7845"
         style="fill:#ffffff" />
      <path
         class="st946"
         d="m -500.4,1585.4 -0.7,0 0,-1.17 2.19,0 0,6.97 -1.49,0 0,-5.8 z"
         id="path7847"
         style="fill:#ffffff" />
      <path
         class="st946"
         d="m -495.58,1591.22 c -0.44,-0.07 -0.86,-0.17 -1.24,-0.31 l 0.28,-1.1 c 0.36,0.11 0.73,0.19 1.1,0.24 0.37,0.05 0.69,0.08 0.98,0.08 0.6,-0.01 1.05,-0.15 1.37,-0.43 0.32,-0.28 0.47,-0.69 0.47,-1.23 l 0,-3.09 -2.41,0 c -0.1,0.22 -0.18,0.46 -0.24,0.73 -0.06,0.27 -0.08,0.54 -0.08,0.82 l 0,0.43 c 0.16,0.05 0.41,0.08 0.75,0.08 l 0,1.11 c -0.16,0.02 -0.33,0.02 -0.52,0.02 -0.34,0 -0.65,-0.03 -0.92,-0.1 -0.27,-0.07 -0.52,-0.17 -0.76,-0.3 l -0.01,-0.77 c 0,-0.39 0.04,-0.76 0.13,-1.12 0.09,-0.36 0.21,-0.66 0.37,-0.9 l -0.79,0 0,-1.17 5.96,0 0,4.01 c 0,0.69 -0.14,1.27 -0.41,1.73 -0.27,0.46 -0.65,0.8 -1.13,1.03 -0.48,0.23 -1.03,0.33 -1.66,0.33 -0.39,0.02 -0.8,-0.01 -1.24,-0.09 z"
         id="path7849"
         style="fill:#ffffff" />
      <path
         class="st946"
         d="m -488.92,1585.4 -0.7,0 0,-1.17 2.19,0 0,6.97 -1.49,0 0,-5.8 z"
         id="path7851"
         style="fill:#ffffff" />
      <path
         class="st946"
         d="m -482.97,1590.05 c 0.54,-0.02 0.96,-0.19 1.26,-0.5 0.3,-0.31 0.46,-0.76 0.46,-1.33 l 0,-2.83 -4.17,0 0,-1.17 5.65,0 0,3.97 c 0,0.61 -0.13,1.14 -0.39,1.59 -0.26,0.45 -0.63,0.79 -1.11,1.03 -0.48,0.24 -1.05,0.37 -1.71,0.39 l 0,-1.15 z m -2.35,-1.37 c 0,-0.38 0.03,-0.68 0.1,-0.89 0.07,-0.21 0.16,-0.41 0.26,-0.59 l 1.2,0 c -0.09,0.32 -0.13,0.77 -0.13,1.35 l 0,5.09 -1.44,0 0,-4.96 z"
         id="path7853"
         style="fill:#ffffff" />
    </g>
  </g>
</svg>
