<?xml version="1.0" encoding="UTF-8" standalone="no"?>
<svg
   xmlns:dc="http://purl.org/dc/elements/1.1/"
   xmlns:cc="http://creativecommons.org/ns#"
   xmlns:rdf="http://www.w3.org/1999/02/22-rdf-syntax-ns#"
   xmlns:svg="http://www.w3.org/2000/svg"
   xmlns="http://www.w3.org/2000/svg"
   version="1.1"
   id="svg6264"
   viewBox="0 0 207.22 60.540002"
   height="60.540001"
   width="207.22">
  <defs
     id="defs6266" />
  <metadata
     id="metadata6269">
    <rdf:RDF>
      <cc:Work
         rdf:about="">
        <dc:format>image/svg+xml</dc:format>
        <dc:type
           rdf:resource="http://purl.org/dc/dcmitype/StillImage" />
        <dc:title></dc:title>
      </cc:Work>
    </rdf:RDF>
  </metadata>
  <g
     transform="translate(-284.78214,-490.6636)"
     id="layer1">
    <polygon
       class="st943"
       points="-360.55,1921.35 -449.19,1867.73 -464.16,1907.7 "
       id="polygon7635"
       style="fill:#b48e59"
       transform="translate(748.94214,-1370.1464)" />
    <polygon
       class="st944"
       points="-355.92,1860.81 -348.01,1898.61 -464.16,1907.7 -449.19,1867.73 "
       id="polygon7643"
       style="fill:#b8af79"
       transform="translate(748.94214,-1370.1464)" />
    <g
       id="g7797"
       transform="translate(748.94214,-1370.1464)">
      <path
         class="st946"
         d="m -436.54,1877.7 c 0,-0.44 0.04,-0.79 0.12,-1.03 0.08,-0.25 0.18,-0.47 0.3,-0.67 l 1.36,0 c -0.1,0.39 -0.15,0.91 -0.15,1.54 l 0,2.88 -1.64,0 0,-2.72 z m 4.71,-2.35 c 0,-0.54 -0.13,-0.93 -0.39,-1.18 -0.26,-0.25 -0.66,-0.38 -1.21,-0.38 l -3.09,0 0,-1.33 3.2,0 c 1.03,0 1.81,0.25 2.36,0.76 0.55,0.51 0.82,1.24 0.82,2.19 l 0,5 -1.69,0 0,-5.06 z"
         id="path7799"
         style="fill:#ffffff" />
      <path
         class="st946"
         d="m -428.07,1880.51 c -0.22,-0.03 -0.46,-0.07 -0.73,-0.13 l 0.02,-1.29 c 0.3,0.05 0.63,0.07 0.98,0.07 0.33,0 0.58,-0.09 0.75,-0.28 0.17,-0.19 0.25,-0.48 0.25,-0.87 l 0,-4.22 -1.47,0 0,-1.33 3.16,0 0,5.68 c 0,0.77 -0.2,1.36 -0.6,1.77 -0.4,0.41 -0.96,0.63 -1.68,0.63 -0.23,0.01 -0.46,0 -0.68,-0.03 z"
         id="path7801"
         style="fill:#ffffff" />
      <path
         class="st946"
         d="m -422.31,1875.67 c 0.04,-0.36 0.14,-0.7 0.29,-1.03 0.15,-0.33 0.32,-0.58 0.53,-0.76 0.03,-0.03 0.07,-0.06 0.11,-0.09 l -0.01,-0.03 c -0.18,0.03 -0.41,0.08 -0.68,0.16 -0.27,0.07 -0.51,0.15 -0.72,0.22 l -0.37,-1.24 c 0.52,-0.19 1.11,-0.34 1.78,-0.45 0.67,-0.11 1.29,-0.17 1.87,-0.17 1.15,0 2.02,0.3 2.62,0.89 0.6,0.6 0.9,1.47 0.91,2.63 l 0,4.61 -3.38,0 0,-1.33 1.69,0 0,-3.5 c 0,-0.62 -0.13,-1.09 -0.39,-1.41 -0.26,-0.33 -0.64,-0.49 -1.13,-0.49 -0.4,0 -0.73,0.16 -0.98,0.47 -0.25,0.31 -0.41,0.75 -0.47,1.32 l -0.53,4.95 -1.68,0 0.54,-4.75 z"
         id="path7803"
         style="fill:#ffffff" />
      <path
         class="st946"
         d="m -414.06,1873.86 -0.51,-0.11 0,-1.28 4.16,0 -0.01,1.33 -1.98,0 1.05,6.62 -1.75,0 -0.96,-6.56 z"
         id="path7805"
         style="fill:#ffffff" />
      <path
         class="st946"
         d="m -408.99,1877.7 c 0,-0.44 0.04,-0.79 0.12,-1.03 0.08,-0.25 0.18,-0.47 0.3,-0.67 l 1.36,0 c -0.1,0.39 -0.15,0.91 -0.15,1.54 l 0,2.88 -1.64,0 0,-2.72 z m 4.7,-2.35 c 0,-0.54 -0.13,-0.93 -0.39,-1.18 -0.26,-0.25 -0.66,-0.38 -1.21,-0.38 l -3.09,0 0,-1.33 3.2,0 c 1.03,0 1.81,0.25 2.36,0.76 0.55,0.51 0.82,1.24 0.82,2.19 l 0,5 -1.69,0 0,-5.06 z"
         id="path7807"
         style="fill:#ffffff" />
      <path
         class="st946"
         d="m -397.08,1872.47 6.58,0 0,7.95 -6.58,0 0,-7.95 z m 4.88,6.61 0,-5.28 -3.18,0 0,5.28 3.18,0 z"
         id="path7809"
         style="fill:#ffffff" />
      <path
         class="st946"
         d="m -388.2,1872.47 3.24,0 c 2.09,0 3.14,1.01 3.16,3.02 l 0,4.93 -1.69,0 -0.01,-5.05 c 0,-0.54 -0.12,-0.94 -0.35,-1.19 -0.23,-0.25 -0.6,-0.38 -1.1,-0.38 l -1.56,0 0,6.62 -1.7,0 0.01,-7.95 z"
         id="path7811"
         style="fill:#ffffff" />
      <path
         class="st946"
         d="m -373.88,1873.22 c 0.53,0.5 0.79,1.26 0.79,2.27 l 0,4.93 -1.69,0 -0.01,-5.05 c 0,-0.54 -0.12,-0.94 -0.35,-1.19 -0.23,-0.25 -0.6,-0.38 -1.1,-0.38 l -1.08,0 c -0.1,0.25 -0.19,0.54 -0.25,0.87 -0.06,0.33 -0.09,0.66 -0.09,0.98 l 0,2.47 c 0,0.77 -0.19,1.36 -0.58,1.78 -0.39,0.41 -0.94,0.62 -1.65,0.62 -0.27,0 -0.57,-0.02 -0.9,-0.07 l 0,-1.33 c 0.16,0.01 0.31,0.02 0.45,0.02 0.35,0 0.61,-0.09 0.78,-0.27 0.17,-0.18 0.25,-0.47 0.25,-0.86 l 0,-2.2 c 0,-0.35 0.05,-0.71 0.14,-1.08 0.09,-0.37 0.22,-0.68 0.39,-0.92 l -1.36,0 0,-1.33 3.89,0 c 1.05,-0.01 1.84,0.24 2.37,0.74 z"
         id="path7813"
         style="fill:#ffffff" />
      <path
         class="st946"
         d="m -370.49,1875.67 c 0.04,-0.36 0.14,-0.7 0.29,-1.03 0.15,-0.33 0.32,-0.58 0.53,-0.76 0.03,-0.03 0.07,-0.06 0.11,-0.09 l -0.01,-0.03 c -0.18,0.03 -0.41,0.08 -0.68,0.16 -0.27,0.07 -0.51,0.15 -0.72,0.22 l -0.37,-1.24 c 0.52,-0.19 1.11,-0.34 1.78,-0.45 0.67,-0.11 1.29,-0.17 1.87,-0.17 1.15,0 2.02,0.3 2.62,0.89 0.6,0.6 0.9,1.47 0.91,2.63 l 0,4.61 -3.38,0 0,-1.33 1.69,0 0,-3.5 c 0,-0.62 -0.13,-1.09 -0.39,-1.41 -0.26,-0.33 -0.64,-0.49 -1.13,-0.49 -0.4,0 -0.73,0.16 -0.98,0.47 -0.25,0.31 -0.41,0.75 -0.47,1.32 l -0.53,4.95 -1.68,0 0.54,-4.75 z"
         id="path7815"
         style="fill:#ffffff" />
      <path
         class="st946"
         d="m -415.63,1895.17 c 0.41,0.17 0.84,0.31 1.29,0.41 0.45,0.1 0.88,0.15 1.28,0.15 0.64,0 1.2,-0.09 1.69,-0.27 0.49,-0.18 0.87,-0.46 1.15,-0.83 0.28,-0.37 0.41,-0.84 0.41,-1.4 l 0,-4.33 1.64,0 0,4.51 c 0,0.79 -0.21,1.46 -0.64,2.02 -0.43,0.56 -1,0.96 -1.73,1.24 -0.73,0.28 -1.54,0.41 -2.44,0.41 -0.7,0 -1.42,-0.08 -2.17,-0.25 -0.75,-0.17 -1.45,-0.41 -2.12,-0.73 l 0,-7.19 1.64,0 0,6.26 z m 1.96,-1.42 c 0.07,-0.31 0.1,-0.66 0.1,-1.05 l 0,-3.8 1.65,0 0,3.47 c 0,0.46 -0.05,0.87 -0.16,1.23 -0.11,0.37 -0.27,0.67 -0.47,0.89 l -1.39,-0.03 c 0.11,-0.16 0.21,-0.4 0.27,-0.71 z"
         id="path7817"
         style="fill:#ffffff" />
      <path
         class="st946"
         d="m -401.04,1893.44 2.41,3.41 -1.89,0 -3.24,-4.57 c -0.15,0.13 -0.26,0.29 -0.34,0.47 -0.07,0.19 -0.11,0.41 -0.11,0.66 l 0,3.44 -1.64,0 0,-2.75 c 0,-0.71 0.12,-1.29 0.34,-1.73 0.22,-0.44 0.59,-0.78 1.09,-1.02 l -1.74,-2.45 1.9,0 2.17,3.07 1.61,-3.07 1.91,0 -2.47,4.54 z"
         id="path7819"
         style="fill:#ffffff" />
      <path
         class="st946"
         d="m -393.87,1891.46 c 0,-0.39 -0.11,-0.69 -0.33,-0.91 -0.22,-0.22 -0.54,-0.32 -0.94,-0.32 l -2.53,0 0,-1.33 2.62,0 c 0.6,0 1.11,0.11 1.54,0.32 0.43,0.21 0.76,0.52 0.99,0.92 0.23,0.4 0.34,0.88 0.34,1.43 l 0,5.29 -1.7,0 0,-5.4 z"
         id="path7821"
         style="fill:#ffffff" />
      <path
         class="st946"
         d="m -389.58,1892.1 c 0.04,-0.36 0.14,-0.7 0.29,-1.03 0.15,-0.32 0.32,-0.58 0.53,-0.76 0.03,-0.03 0.07,-0.06 0.11,-0.09 l -0.01,-0.03 c -0.18,0.03 -0.41,0.08 -0.68,0.16 -0.27,0.08 -0.51,0.15 -0.72,0.22 l -0.37,-1.24 c 0.52,-0.19 1.11,-0.34 1.78,-0.45 0.67,-0.11 1.29,-0.17 1.87,-0.17 1.15,0 2.02,0.3 2.62,0.89 0.6,0.59 0.9,1.47 0.91,2.63 l 0,4.61 -3.38,0 0,-1.33 1.69,0 0,-3.5 c 0,-0.62 -0.13,-1.09 -0.39,-1.41 -0.26,-0.33 -0.64,-0.49 -1.13,-0.49 -0.4,0 -0.73,0.16 -0.98,0.47 -0.25,0.31 -0.41,0.75 -0.47,1.32 l -0.53,4.95 -1.68,0 0.54,-4.75 z"
         id="path7823"
         style="fill:#ffffff" />
    </g>
  </g>
</svg>
