<?xml version="1.0" encoding="UTF-8" standalone="no"?>
<svg
   xmlns:dc="http://purl.org/dc/elements/1.1/"
   xmlns:cc="http://creativecommons.org/ns#"
   xmlns:rdf="http://www.w3.org/1999/02/22-rdf-syntax-ns#"
   xmlns:svg="http://www.w3.org/2000/svg"
   xmlns="http://www.w3.org/2000/svg"
   xmlns:xlink="http://www.w3.org/1999/xlink"
   version="1.1"
   id="svg10624"
   viewBox="0 0 986.86463 585.2704"
   height="585.27039"
   width="986.86462">
  <defs
     id="defs10626" />
  <metadata
     id="metadata10629">
    <rdf:RDF>
      <cc:Work
         rdf:about="">
        <dc:format>image/svg+xml</dc:format>
        <dc:type
           rdf:resource="http://purl.org/dc/dcmitype/StillImage" />
        <dc:title></dc:title>
      </cc:Work>
    </rdf:RDF>
  </metadata>
  <g
     transform="translate(84.26089,-196.86986)"
     id="layer1">
    <g
       id="g554"
       transform="translate(-696.86089,158.06986)">
      <polygon
         id="polygon711_9_"
         class="st57"
         points="693.6,321.7 692.4,333.7 669.7,344.2 670.5,330.9 "
         style="opacity:1;fill:#ffffff;stroke:#000000;stroke-width:0.5;stroke-miterlimit:10;enable-background:new" />
      <polygon
         id="polygon707_8_"
         class="st57"
         points="707.9,325.8 691.3,322 670.8,330.9 685.1,336.3 "
         style="opacity:1;fill:#ffffff;stroke:#000000;stroke-width:0.5;stroke-miterlimit:10;enable-background:new" />
      <polygon
         id="polygon711_8_"
         class="st57"
         points="709,313.8 707.9,325.8 685.1,336.3 685.9,323 "
         style="opacity:1;fill:#ffffff;stroke:#000000;stroke-width:0.5;stroke-miterlimit:10;enable-background:new" />
      <polygon
         id="polygon707_7_"
         class="st57"
         points="722.4,318.2 706.4,314.2 685.9,323 699.7,328.6 "
         style="opacity:1;fill:#ffffff;stroke:#000000;stroke-width:0.5;stroke-miterlimit:10;enable-background:new" />
      <polygon
         id="polygon711_7_"
         class="st57"
         points="723.6,306.2 722.4,318.2 699.7,328.6 700.6,315.4 "
         style="opacity:1;fill:#ffffff;stroke:#000000;stroke-width:0.5;stroke-miterlimit:10;enable-background:new" />
      <polygon
         id="polygon707_4_"
         class="st57"
         points="733.6,309.8 723.6,306.2 700.6,315.4 711.7,319.3 "
         style="opacity:1;fill:#ffffff;stroke:#000000;stroke-width:0.5;stroke-miterlimit:10;enable-background:new" />
    </g>
    <polygon
       id="polygon495_1_"
       class="st37"
       points="1138.2,163.2 891.7,277.4 983,326 1287.3,214.2 "
       style="fill:#ec7137"
       transform="translate(-696.86089,158.06986)" />
    <polygon
       id="polygon501_1_"
       class="st58"
       points="1050.1,213.1 1050.1,191.1 1140.5,238.9 1127.2,255.5 "
       style="opacity:1;fill:#ffffff;stroke:#000000;stroke-width:0.5;stroke-miterlimit:10;enable-background:new"
       transform="translate(-696.86089,158.06986)" />
    <polygon
       id="polygon505_1_"
       class="st58"
       points="1281.6,194.6 1281.6,211.1 1279.6,211.9 1277.1,212.9 1143.6,171.8 1143.6,151.1 "
       style="opacity:1;fill:#ffffff;stroke:#000000;stroke-width:0.5;stroke-miterlimit:10;enable-background:new"
       transform="translate(-696.86089,158.06986)" />
    <g
       id="polygon509_1_"
       transform="translate(-696.86089,158.06986)">
      <image
         xlink:href="F:\conventions app\convention resources\cami 2018\from design\map\2CCB7323.png"
         id="image566"
         transform="matrix(0.1639,0,0,0.1637,698.301,177.3835)"
         height="2746"
         width="5654"
         style="display:none;overflow:visible;enable-background:new" />
      <g
         id="g568">
        <g
           id="g570">
          <polygon
             class="st37"
             points="1218.5,609.4 1302,553.2 1233.1,524.5 1418.2,388.2 1588.4,292.7 1362,180.6 1260.3,216.4 1237.8,225.4 1092.2,272.6 1093,268.5 966.7,310.1 894.9,278.5 834.5,306.5 784.7,289.3 682.5,332.7 728,367.4 783.8,396.6 "
             id="polygon572"
             style="fill:#ec7137" />
        </g>
      </g>
    </g>
    <polygon
       id="polygon515_1_"
       class="st59"
       points="1341.9,368.3 1341.7,361.2 1343.7,367.2 1357.3,359.5 1356.5,353.5 1371.5,345.6 1444.7,290.1 1322.6,234.5 1178.1,271 998.7,312.4 1225.4,422.2 1326,369.4 1326,369.4 1328.3,376 "
       style="fill:#eda48a"
       transform="translate(-696.86089,158.06986)" />
    <polygon
       id="polygon497_1_"
       class="st58"
       points="824.5,311.1 824.5,290.1 1143.6,151.1 1143.6,171.8 "
       style="opacity:1;fill:#ffffff;stroke:#000000;stroke-width:0.5;stroke-miterlimit:10;enable-background:new"
       transform="translate(-696.86089,158.06986)" />
    <polyline
       id="polyline525_1_"
       class="st58"
       points="1159,562.5 1212.2,521.1 1212.4,546.6 1222.9,538.8 1222.5,513.1 1395.7,378.6    1589.2,268.5 1588.4,292.7 1399.9,406.5 1222.9,538.8 1211.2,547.4 1159,586.7  "
       style="opacity:1;fill:#ffffff;stroke:#000000;stroke-width:0.5;stroke-miterlimit:10;enable-background:new"
       transform="translate(-696.86089,158.06986)" />
    <polygon
       id="polygon537_1_"
       class="st58"
       points="1302.5,556 1302.5,537.3 1232.5,511.3 1233.4,531 "
       style="opacity:1;fill:#ffffff;stroke:#000000;stroke-width:0.5;stroke-miterlimit:10;enable-background:new"
       transform="translate(-696.86089,158.06986)" />
    <polygon
       id="polygon541_1_"
       class="st58"
       points="1218.6,591.9 1302.3,537.8 1302.3,556.6 1218.8,613.6 "
       style="opacity:1;fill:#ffffff;stroke:#000000;stroke-width:0.5;stroke-miterlimit:10;enable-background:new"
       transform="translate(-696.86089,158.06986)" />
    <polygon
       id="polygon545_1_"
       class="st58"
       points="1121.1,410.4 1031.3,369.6 1082.7,354.4 1139.5,404.1 "
       style="opacity:1;fill:#ffffff;stroke:#000000;stroke-width:0.5;stroke-miterlimit:10;enable-background:new"
       transform="translate(-696.86089,158.06986)" />
    <polygon
       id="polygon549_1_"
       class="st58"
       points="1322.4,211 998.9,300.5 998.9,323.8 1322.4,235.2 "
       style="opacity:1;fill:#ffffff;stroke:#000000;stroke-width:0.5;stroke-miterlimit:10;enable-background:new"
       transform="translate(-696.86089,158.06986)" />
    <polygon
       id="polygon561_1_"
       class="st58"
       points="1135.9,405 1059.2,370 1067.3,366.5 1145.1,401.9 "
       style="opacity:1;fill:#ffffff;stroke:#000000;stroke-width:0.5;stroke-miterlimit:10;enable-background:new"
       transform="translate(-696.86089,158.06986)" />
    <polygon
       id="polygon565_1_"
       class="st58"
       points="1136.5,405 1055.9,368 1046.9,370.9 1128.6,407.6 "
       style="opacity:1;fill:#ffffff;stroke:#000000;stroke-width:0.5;stroke-miterlimit:10;enable-background:new"
       transform="translate(-696.86089,158.06986)" />
    <polygon
       id="polygon569_1_"
       class="st58"
       points="1520.9,307.4 1322.1,210.9 1322.1,235.3 1498.2,320.1 "
       style="opacity:1;fill:#ffffff;stroke:#000000;stroke-width:0.5;stroke-miterlimit:10;enable-background:new"
       transform="translate(-696.86089,158.06986)" />
    <polygon
       id="polygon573_1_"
       class="st60"
       points="1168.1,411.5 1072.6,368 1080.4,363.7 1183.3,405.6 "
       style="fill:#99ad63"
       transform="translate(-696.86089,158.06986)" />
    <polygon
       id="polygon575_1_"
       class="st58"
       points="1128.4,407.6 1043.5,368.6 1035.1,371.3 1120.6,410.5 "
       style="opacity:1;fill:#ffffff;stroke:#000000;stroke-width:0.5;stroke-miterlimit:10;enable-background:new"
       transform="translate(-696.86089,158.06986)" />
    <polygon
       id="polygon583_1_"
       class="st58"
       points="1225.4,410.1 998.7,300.5 998.7,323.8 1225.4,434.2 "
       style="opacity:1;fill:#ffffff;stroke:#000000;stroke-width:0.5;stroke-miterlimit:10;enable-background:new"
       transform="translate(-696.86089,158.06986)" />
    <polygon
       id="polygon587_1_"
       class="st58"
       points="1218.5,592.3 714.3,336.3 714.3,361.3 1218.5,613.6 "
       style="opacity:1;fill:#ffffff;stroke:#000000;stroke-width:0.5;stroke-miterlimit:10;enable-background:new"
       transform="translate(-696.86089,158.06986)" />
    <polygon
       class="st58"
       points="1465.4,271.6 1466,262.5 1459.3,259 1457.8,268.1 1412.6,245.8 1412.7,236.7 1405.8,233 1405.5,242.6 1367.3,224 1367.7,212.5 1361.9,210.3 1361.6,221.1 1356.6,218.8 1356.6,197.1 1479.6,256.2 1479.6,278.5 "
       id="polygon588"
       style="opacity:1;fill:#ffffff;stroke:#000000;stroke-width:0.5;stroke-miterlimit:10;enable-background:new"
       transform="translate(-696.86089,158.06986)" />
    <polygon
       id="polygon595_4_"
       class="st58"
       points="1516.9,237.9 1360.5,160.1 1360.5,180.4 1516.9,259.5 "
       style="opacity:1;fill:#ffffff;stroke:#000000;stroke-width:0.5;stroke-miterlimit:10;enable-background:new"
       transform="translate(-696.86089,158.06986)" />
    <polygon
       id="polygon599_1_"
       class="st58"
       points="784.7,289.3 784.7,271.9 824.5,291.3 824.5,311.1 "
       style="opacity:1;fill:#ffffff;stroke:#000000;stroke-width:0.5;stroke-miterlimit:10;enable-background:new"
       transform="translate(-696.86089,158.06986)" />
    <polygon
       class="st58"
       points="1357.3,359.5 1354.2,349.1 1341,356.7 1343.7,367.2 1344.4,366.8 1341.9,368.3 1338.8,357.8 1325.5,365.5 1328.3,376 1225.4,434.2 1225.4,410.1 1371.5,326.3 1444.7,270.4 1444.7,294.7 1371.5,351.5 "
       id="polygon592"
       style="opacity:1;fill:#ffffff;stroke:#000000;stroke-width:0.5;stroke-miterlimit:10;enable-background:new"
       transform="translate(-696.86089,158.06986)" />
    <polygon
       id="polygon607_4_"
       class="st58"
       points="1479.6,278.5 1479.6,256.2 1516.9,237.9 1516.9,259.4 "
       style="opacity:1;fill:#ffffff;stroke:#000000;stroke-width:0.5;stroke-miterlimit:10;enable-background:new"
       transform="translate(-696.86089,158.06986)" />
    <polygon
       id="polygon611_4_"
       class="st58"
       points="1460.5,247.6 1443.4,238.8 1478.9,218.9 1478.3,238.5 "
       style="opacity:1;fill:#ffffff;stroke:#000000;stroke-width:0.5;stroke-miterlimit:10;enable-background:new"
       transform="translate(-696.86089,158.06986)" />
    <polygon
       id="polygon611_3_"
       class="st61"
       points="1408.2,222.4 1391.1,213.5 1426.7,193.6 1426,213.2 "
       style="opacity:1;fill:#ffffff;stroke:#000000;stroke-width:0.5;enable-background:new"
       transform="translate(-696.86089,158.06986)" />
    <polygon
       id="polygon615_4_"
       class="st58"
       points="1356.6,197.1 1395.7,178.1 1395.7,197.1 1376.6,206.8 "
       style="opacity:1;fill:#ffffff;stroke:#000000;stroke-width:0.5;stroke-miterlimit:10;enable-background:new"
       transform="translate(-696.86089,158.06986)" />
    <polyline
       id="polyline619_1_"
       class="st58"
       points="789.8,328.8 714.7,363.5 714.7,344.2 789.8,308  "
       style="opacity:1;fill:#ffffff;stroke:#000000;stroke-width:0.5;stroke-miterlimit:10;enable-background:new"
       transform="translate(-696.86089,158.06986)" />
    <polygon
       id="polygon627_1_"
       class="st58"
       points="734.3,311.8 734.3,295.6 784.7,271.9 784.7,289.3 "
       style="opacity:1;fill:#ffffff;stroke:#000000;stroke-width:0.5;stroke-miterlimit:10;enable-background:new"
       transform="translate(-696.86089,158.06986)" />
    <polygon
       id="polygon627_2_"
       class="st58"
       points="682.5,335.1 682.5,318.9 709,305.4 709,322.8 "
       style="opacity:1;fill:#ffffff;stroke:#000000;stroke-width:0.5;stroke-miterlimit:10;enable-background:new"
       transform="translate(-696.86089,158.06986)" />
    <polygon
       id="polygon631_1_"
       class="st58"
       points="682.5,335.8 682.5,316.5 714.7,337.3 714.3,361.3 "
       style="opacity:1;fill:#ffffff;stroke:#000000;stroke-width:0.5;stroke-miterlimit:10;enable-background:new"
       transform="translate(-696.86089,158.06986)" />
    <polygon
       id="polygon635_1_"
       class="st59"
       points="1156.2,394.4 1039.2,338.1 1021.2,343 1135.8,400.7 "
       style="fill:#eda48a"
       transform="translate(-696.86089,158.06986)" />
    <path
       id="path645_1_"
       class="st59"
       d="m 567.13911,563.06986 -38.7,19.3 c -22.1,-11 -83.5,-37 -83.5,-37 l -6.1,7.6 75.2,39.2 -47.4,19.6 14.2,5.6 31.1,-13.1 13.9,6.3 62.5,-40.9 -21.2,-6.6 z"
       style="fill:#eda48a" />
    <polygon
       id="polygon647_1_"
       class="st59"
       points="1140.4,398 1139.8,392.2 1213.6,429.4 1213.6,436.7 "
       style="fill:#eda48a"
       transform="translate(-696.86089,158.06986)" />
    <polygon
       id="polygon663_2_"
       class="st7"
       points="699.6,305.3 713.9,308.1 711.2,293.1 708.3,296.1 698.6,286.4 692.9,292.1 702.9,302 "
       style="fill:#ffffff"
       transform="translate(-696.86089,158.06986)" />
    <polygon
       id="polygon669_1_"
       class="st59"
       points="1139.2,393.3 1133.3,396.8 1170,443.6 1174.3,439.1 "
       style="fill:#eda48a"
       transform="translate(-696.86089,158.06986)" />
    <polygon
       id="polygon683_1_"
       class="st58"
       points="1039.4,333.9 1020.7,339 1020.7,342.9 1039.4,338 "
       style="opacity:1;fill:#ffffff;stroke:#000000;stroke-width:0.5;stroke-miterlimit:10;enable-background:new"
       transform="translate(-696.86089,158.06986)" />
    <polygon
       id="polygon687_1_"
       class="st58"
       points="1024.8,342.2 1020.7,339.7 1020.7,343.7 1024.8,346.5 "
       style="opacity:1;fill:#ffffff;stroke:#000000;stroke-width:0.5;stroke-miterlimit:10;enable-background:new"
       transform="translate(-696.86089,158.06986)" />
    <polygon
       id="polygon691_1_"
       class="st58"
       points="1025.2,342.2 954.7,347.1 954.7,351 1025.2,346.2 "
       style="opacity:1;fill:#ffffff;stroke:#000000;stroke-width:0.5;stroke-miterlimit:10;enable-background:new"
       transform="translate(-696.86089,158.06986)" />
    <polygon
       id="polygon695_1_"
       class="st58"
       points="954.7,353.6 1025.2,348.6 1135.3,400.7 1170.1,443.6 1169.6,437.4 1136.5,396.8 1025.2,344.7 1025.2,344.5 954.7,349.7 "
       style="opacity:1;fill:#ffffff;stroke:#000000;stroke-width:0.5;stroke-miterlimit:10;enable-background:new"
       transform="translate(-696.86089,158.06986)" />
    <polygon
       id="polygon699_4_"
       class="st58"
       points="1166.4,465.1 1180.3,458.7 1180,497.4 1166.4,504.9 "
       style="opacity:1;fill:#ffffff;stroke:#000000;stroke-width:0.5;stroke-miterlimit:10;enable-background:new"
       transform="translate(-696.86089,158.06986)" />
    <polygon
       id="polygon703_1_"
       class="st58"
       points="1174.3,433.5 1139.7,392.1 1140.5,397.8 1174.2,438.7 "
       style="opacity:1;fill:#ffffff;stroke:#000000;stroke-width:0.5;stroke-miterlimit:10;enable-background:new"
       transform="translate(-696.86089,158.06986)" />
    <polygon
       id="polygon707_3_"
       class="st58"
       points="1146.8,457 1146.8,494.7 1166.4,504.9 1166.4,465 "
       style="opacity:1;fill:#ffffff;stroke:#000000;stroke-width:0.5;stroke-miterlimit:10;enable-background:new"
       transform="translate(-696.86089,158.06986)" />
    <polygon
       id="polygon711_4_"
       class="st58"
       points="1146.8,457 1161.2,451.3 1180.1,458.7 1166.8,465.1 "
       style="opacity:1;fill:#ffffff;stroke:#000000;stroke-width:0.5;stroke-miterlimit:10;enable-background:new"
       transform="translate(-696.86089,158.06986)" />
    <g
       class="st62"
       id="g616"
       style="opacity:1"
       transform="translate(-696.86089,158.06986)">
      <polygon
         id="polygon699_3_"
         class="st57"
         points="1063.4,442.8 1064.2,456.5 1017.2,446.4 1016.6,432.8 "
         style="opacity:1;fill:#ffffff;stroke:#000000;stroke-width:0.5;stroke-miterlimit:10;enable-background:new" />
      <polygon
         id="polygon707_2_"
         class="st57"
         points="1085,431 1035.8,421.4 1016.6,432.8 1063.6,442.8 "
         style="opacity:1;fill:#ffffff;stroke:#000000;stroke-width:0.5;stroke-miterlimit:10;enable-background:new" />
      <polygon
         id="polygon711_3_"
         class="st57"
         points="1085,431 1085.4,443 1064.3,456.3 1063.4,443.1 "
         style="opacity:1;fill:#ffffff;stroke:#000000;stroke-width:0.5;stroke-miterlimit:10;enable-background:new" />
    </g>
    <g
       class="st62"
       id="g621"
       style="opacity:1"
       transform="translate(-696.86089,158.06986)">
      <polygon
         id="polygon699_1_"
         class="st57"
         points="961.7,411 960.7,424.7 915.4,408.5 916.6,395 "
         style="opacity:1;fill:#ffffff;stroke:#000000;stroke-width:0.5;stroke-miterlimit:10;enable-background:new" />
      <polygon
         id="polygon707_1_"
         class="st57"
         points="984.7,402.1 937,386.2 916.6,395 961.8,411 "
         style="opacity:1;fill:#ffffff;stroke:#000000;stroke-width:0.5;stroke-miterlimit:10;enable-background:new" />
      <polygon
         id="polygon711_1_"
         class="st57"
         points="984.7,402.1 983.5,414.1 960.7,424.6 961.6,411.3 "
         style="opacity:1;fill:#ffffff;stroke:#000000;stroke-width:0.5;stroke-miterlimit:10;enable-background:new" />
    </g>
    <polygon
       id="polygon821_1_"
       class="st58"
       points="957.6,291.3 892.2,259.4 892.2,280.2 957.6,312.1 "
       style="opacity:1;fill:#ffffff;stroke:#000000;stroke-width:0.5;stroke-miterlimit:10;enable-background:new"
       transform="translate(-696.86089,158.06986)" />
    <path
       id="path825_1_"
       class="st58"
       d="m 317.93911,431.56986 -10.8,3.1 -46.3,14.9 0,20.4 46.8,-14.2 10.3,-3.1 0,-21.1 0,0 z m 28.7,12.7 133.1,-38.5 0,-19.3 -133.1,37 0,20.8 0,0 z m 317,-105.6 0,-20.3 -143.4,56.8 -14,3.9 0,19.1 13.2,-3.7 144.2,-55.8 0,0 z m 0,-20.5 0,0 0.5,0 -0.5,0 z"
       style="opacity:1;fill:#ffffff;stroke:#000000;stroke-width:0.5;stroke-miterlimit:10;enable-background:new" />
    <polygon
       class="st58"
       points="1361.9,210.3 1361.9,212.6 1364.9,211.4 "
       id="polygon648"
       style="opacity:1;fill:#ffffff;stroke:#000000;stroke-width:0.5;stroke-miterlimit:10;enable-background:new"
       transform="translate(-696.86089,158.06986)" />
    <polygon
       id="rect849_2_"
       class="st7"
       points="690.2,244.1 690.2,257.9 708,256.9 708,280.9 622.6,280.9 622.6,257.9 636.7,257.9 637,244.1 "
       style="fill:#ffffff"
       transform="translate(-696.86089,158.06986)" />
    <polygon
       class="st65"
       points="1342.1,368.7 1328.3,376 1341.9,368.3 "
       id="polygon652"
       style="fill:#401225"
       transform="translate(-696.86089,158.06986)" />
    <polygon
       class="st65"
       points="1357.4,359.9 1344.6,366.8 1357.3,359.5 "
       id="polygon654"
       style="fill:#401225"
       transform="translate(-696.86089,158.06986)" />
    <g
       id="g1107"
       transform="translate(-696.86089,158.06986)">
      <path
         class="st48"
         d="m 651.9,252.4 c 0,-0.5 -0.1,-0.8 -0.4,-1.1 -0.3,-0.3 -0.7,-0.4 -1.1,-0.4 l -2.9,0 0,-1.1 2.9,0 c 0.6,0 1.1,0.1 1.5,0.3 0.4,0.2 0.8,0.5 1,0.9 0.2,0.4 0.3,0.9 0.3,1.5 l 0,5.9 -1.4,0 0,-6 z"
         id="path1109"
         style="fill:#18304e" />
      <path
         class="st48"
         d="m 661.9,257.3 0,1 -7.1,0 0,-1.1 4.7,0 0,-4.2 c 0,-0.7 -0.2,-1.3 -0.5,-1.6 -0.3,-0.3 -0.9,-0.5 -1.6,-0.5 l -2.1,0 0,-1.1 2.2,0 c 1.1,0 2,0.3 2.6,0.8 0.6,0.5 0.9,1.4 0.9,2.4 l 0,4.2 0.9,0.1 z"
         id="path1111"
         style="fill:#18304e" />
      <path
         class="st48"
         d="m 669.6,249.8 0,5.2 c 0,0.8 -0.2,1.4 -0.5,2 -0.3,0.5 -0.8,1 -1.3,1.2 -0.6,0.3 -1.2,0.4 -2,0.4 -1,0 -2,-0.2 -3.1,-0.6 l 0.3,-1 c 0.8,0.3 1.6,0.5 2.3,0.6 -0.4,-0.4 -0.6,-0.9 -0.7,-1.5 l -1.4,-6.3 1.4,0 1.4,6.4 c 0.1,0.3 0.1,0.5 0.2,0.8 0.1,0.3 0.2,0.4 0.3,0.6 0.6,-0.1 1,-0.4 1.4,-0.8 0.3,-0.4 0.5,-1 0.5,-1.6 l 0,-5.2 1.2,0 z"
         id="path1113"
         style="fill:#18304e" />
      <path
         class="st48"
         d="m 672.8,252.9 c 0,-0.4 0.2,-0.8 0.3,-1.1 0.1,-0.3 0.4,-0.6 0.6,-0.8 0,0 0.1,0 0.1,-0.1 l 0,0 c -0.2,0 -0.5,0.1 -0.8,0.2 -0.3,0.1 -0.6,0.2 -0.9,0.3 l -0.3,-1 c 0.6,-0.2 1.2,-0.4 1.9,-0.5 0.7,-0.1 1.4,-0.2 1.9,-0.2 1.2,0 2,0.3 2.7,0.9 0.6,0.6 0.9,1.5 0.9,2.7 l 0,5.1 -3.6,0 0,-1.1 2.2,0 0,-4.2 c 0,-0.8 -0.2,-1.4 -0.5,-1.8 -0.3,-0.4 -0.8,-0.6 -1.5,-0.6 -0.5,0 -0.9,0.2 -1.2,0.5 -0.3,0.3 -0.5,0.9 -0.6,1.5 l -0.7,5.6 -1.3,0 0.8,-5.4 z"
         id="path1115"
         style="fill:#18304e" />
      <path
         class="st48"
         d="m 639.5,268.6 c 0.6,0.5 0.8,1.4 0.8,2.5 l 0,5.3 -1.3,0 0,-5.4 c 0,-0.7 -0.2,-1.3 -0.5,-1.6 -0.3,-0.3 -0.8,-0.5 -1.5,-0.5 l -1.2,0 c -0.2,0.3 -0.3,0.6 -0.4,1 -0.1,0.4 -0.1,0.8 -0.1,1.3 l 0,2.9 c 0,0.8 -0.2,1.4 -0.6,1.8 -0.4,0.4 -0.9,0.6 -1.6,0.6 -0.2,0 -0.5,0 -0.8,-0.1 l 0,-1.1 c 0.2,0 0.3,0 0.5,0 0.4,0 0.7,-0.1 0.9,-0.3 0.2,-0.2 0.3,-0.6 0.3,-1 l 0,-2.7 c 0,-0.4 0.1,-0.9 0.2,-1.3 0.1,-0.4 0.3,-0.8 0.5,-1.1 l -1.6,0 0,-1.1 4,0 c 1,0 1.8,0.2 2.4,0.8 z"
         id="path1117"
         style="fill:#18304e" />
      <path
         class="st48"
         d="m 643.2,268.8 -1,0 0,-1.1 2.4,0 0,8.6 -1.4,0 0,-7.5 z"
         id="path1119"
         style="fill:#18304e" />
      <path
         class="st48"
         d="m 653,268.6 -3.2,7.8 -1.5,0 3.1,-7.5 -5.1,0 0,-3.7 1.4,0 0,2.6 5.2,0 0,0.8 z"
         id="path1121"
         style="fill:#18304e" />
      <path
         class="st48"
         d="m 655.3,268.8 -1,0 0,-1.1 2.4,0 0,8.6 -1.4,0 0,-7.5 z"
         id="path1123"
         style="fill:#18304e" />
      <path
         class="st48"
         d="m 658.6,276.1 0.2,-1 c 0.8,0.2 1.5,0.3 2.1,0.3 0.8,0 1.4,-0.2 1.9,-0.6 0.5,-0.4 0.6,-1 0.6,-1.7 l 0,-4.3 -4.5,0 0,-1.1 5.8,0 0,5.1 c 0,1.2 -0.3,2.1 -1,2.8 -0.7,0.7 -1.6,0.9 -2.7,0.9 -0.7,0 -1.5,-0.1 -2.4,-0.4 z"
         id="path1125"
         style="fill:#18304e" />
      <path
         class="st48"
         d="m 668.7,274.9 c 0.5,0.2 1,0.4 1.5,0.5 0.5,0.1 1,0.2 1.5,0.2 0.7,0 1.3,-0.1 1.9,-0.3 0.6,-0.2 1,-0.5 1.3,-0.9 0.3,-0.4 0.5,-0.9 0.5,-1.5 l 0,-5 1.3,0 0,5.1 c 0,0.8 -0.2,1.5 -0.7,2.1 -0.4,0.6 -1,1 -1.8,1.3 -0.8,0.3 -1.6,0.4 -2.5,0.4 -0.7,0 -1.4,-0.1 -2.2,-0.3 -0.8,-0.2 -1.5,-0.4 -2.1,-0.7 l 0,-7.8 1.3,0 0,6.9 z m 2.5,-1.7 c 0.1,-0.3 0.1,-0.7 0.1,-1.2 l 0,-4.3 1.3,0 0,4.1 c 0,0.5 -0.1,0.9 -0.2,1.3 -0.1,0.4 -0.3,0.7 -0.6,0.9 l -1.1,0 c 0.3,-0.2 0.4,-0.4 0.5,-0.8 z"
         id="path1127"
         style="fill:#18304e" />
      <path
         class="st48"
         d="m 684.1,272.6 2.7,3.8 -1.5,0 -3.8,-5.3 c -0.5,0.3 -0.8,0.9 -0.8,1.7 l 0,3.6 -1.3,0 0,-3.1 c 0,-0.7 0.1,-1.4 0.4,-1.8 0.3,-0.5 0.6,-0.8 1.2,-1.1 l -1.9,-2.6 1.5,0 2.7,3.7 2.1,-3.7 1.5,0 -2.8,4.8 z"
         id="path1129"
         style="fill:#18304e" />
      <path
         class="st48"
         d="m 694.8,268.6 -3.2,7.8 -1.5,0 3.1,-7.5 -5.1,0 0,-3.7 1.4,0 0,2.6 5.2,0 0,0.8 z"
         id="path1131"
         style="fill:#18304e" />
    </g>
    <g
       id="g8464" />
  </g>
</svg>
