<?xml version="1.0" encoding="UTF-8" standalone="no"?>
<svg
   xmlns:dc="http://purl.org/dc/elements/1.1/"
   xmlns:cc="http://creativecommons.org/ns#"
   xmlns:rdf="http://www.w3.org/1999/02/22-rdf-syntax-ns#"
   xmlns:svg="http://www.w3.org/2000/svg"
   xmlns="http://www.w3.org/2000/svg"
   width="138.42"
   height="66.830002"
   viewBox="0 0 138.42 66.830003"
   id="svg16962"
   version="1.1">
  <defs
     id="defs16964" />
  <metadata
     id="metadata16967">
    <rdf:RDF>
      <cc:Work
         rdf:about="">
        <dc:format>image/svg+xml</dc:format>
        <dc:type
           rdf:resource="http://purl.org/dc/dcmitype/StillImage" />
        <dc:title></dc:title>
      </cc:Work>
    </rdf:RDF>
  </metadata>
  <g
     id="layer1"
     transform="translate(-280.81786,-427.51863)">
    <polygon
       style="fill:#b48e59"
       id="polygon6797"
       points="-251.2,352.95 -241.16,398.25 -197.07,414.59 "
       class="st943"
       transform="translate(547.09786,79.758633)" />
    <polygon
       style="fill:#d68a2a;fill-opacity:1"
       id="polygon6799"
       points="-241.16,398.25 -252.05,352.99 -134.81,347.76 -127.86,392.18 "
       class="st944"
       transform="translate(547.09786,79.758633)" />
    <g
       id="g6801"
       transform="translate(547.09786,79.758633)">
      <path
         style="fill:#ffffff"
         id="path6803"
         d="m -231.49,366.3 9.18,0 0,11.5 -9.18,0 0,-11.5 z m 7.38,10.04 0,-8.58 -5.57,0 0,8.58 5.57,0 z"
         class="st946" />
      <path
         style="fill:#ffffff"
         id="path6805"
         d="m -217.39,367.75 -2.11,0 0,-1.46 3.93,0 0,6.42 -1.82,0 0,-4.96 z"
         class="st946" />
      <path
         style="fill:#ffffff"
         id="path6807"
         d="m -203.63,367.38 c 0.75,0.73 1.13,1.83 1.13,3.32 l 0,7.1 -1.81,0 -0.01,-7.21 c 0,-1 -0.21,-1.72 -0.64,-2.17 -0.43,-0.45 -1.12,-0.67 -2.07,-0.67 l -1.63,0 c -0.21,0.35 -0.39,0.8 -0.51,1.35 -0.12,0.55 -0.19,1.11 -0.19,1.69 l 0,3.88 c 0,1.05 -0.25,1.86 -0.75,2.4 -0.5,0.54 -1.23,0.82 -2.19,0.82 -0.28,0 -0.65,-0.03 -1.12,-0.09 l 0,-1.46 c 0.21,0.03 0.43,0.04 0.67,0.04 0.57,0 0.98,-0.15 1.24,-0.44 0.26,-0.29 0.39,-0.76 0.39,-1.39 l 0,-3.63 c 0,-0.59 0.08,-1.18 0.23,-1.77 0.15,-0.59 0.37,-1.06 0.64,-1.41 l -2.16,0 0,-1.46 5.36,0 c 1.53,0.02 2.67,0.38 3.42,1.1 z"
         class="st946" />
      <path
         style="fill:#ffffff"
         id="path6809"
         d="m -198.2,367.75 -1.34,0 0,-1.46 3.15,0 0,11.5 -1.82,0 0,-10.04 z"
         class="st946" />
      <path
         style="fill:#ffffff"
         id="path6811"
         d="m -187.6,369.77 c 0,-0.63 -0.18,-1.12 -0.55,-1.48 -0.37,-0.36 -0.87,-0.54 -1.51,-0.54 l -3.87,0 0,-1.46 3.93,0 c 0.79,0 1.47,0.14 2.04,0.43 0.57,0.29 1.01,0.7 1.31,1.24 0.3,0.54 0.45,1.19 0.45,1.94 l 0,7.89 -1.81,0 0,-8.02 z"
         class="st946" />
      <path
         style="fill:#ffffff"
         id="path6813"
         d="m -181.16,367.75 -2.11,0 0,-1.46 3.93,0 0,6.42 -1.82,0 0,-4.96 z"
         class="st946" />
      <path
         style="fill:#ffffff"
         id="path6815"
         d="m -173.74,375.76 c 0.63,0.27 1.28,0.48 1.97,0.63 0.69,0.15 1.35,0.22 1.97,0.22 0.94,0 1.77,-0.14 2.51,-0.41 0.74,-0.27 1.32,-0.68 1.74,-1.23 0.42,-0.55 0.63,-1.23 0.63,-2.04 l 0,-6.64 1.76,0 0,6.81 c 0,1.08 -0.29,1.99 -0.87,2.74 -0.58,0.75 -1.37,1.3 -2.36,1.67 -0.99,0.37 -2.1,0.56 -3.32,0.56 -0.95,0 -1.93,-0.11 -2.93,-0.34 -1,-0.23 -1.96,-0.56 -2.86,-0.99 l 0,-10.44 1.76,0 0,9.46 z m 3.31,-2.18 c 0.12,-0.45 0.19,-0.97 0.19,-1.56 l 0,-5.72 1.77,0 0,5.4 c 0,0.66 -0.08,1.24 -0.24,1.73 -0.16,0.49 -0.41,0.91 -0.75,1.25 l -1.5,-0.06 c 0.22,-0.25 0.41,-0.6 0.53,-1.04 z"
         class="st946" />
    </g>
    <path
       id="path357_8_"
       class="st939"
       d="m 390.31786,459.63863 c 0,0.69 0.23,0.92 0.92,0.92 0.69,0 0.92,-0.23 0.92,-0.92 l 0,-8.27 0.92,0 0,8.27 c 0,0.69 0.23,0.92 0.92,0.92 0.69,0 0.92,-0.23 0.92,-0.92 l 0,-14.02 0.46,0 0,5.06 c 0,0.23 0,0.46 0.23,0.69 0.23,0.23 0.46,0.23 0.69,0 0.23,-0.23 0.46,-0.46 0.46,-0.69 l 0,-5.52 c 0,-0.69 -0.23,-1.15 -0.69,-1.38 -0.46,-0.23 -0.92,-0.46 -1.61,-0.46 l -3.68,0 c -0.69,0 -1.15,0.23 -1.61,0.46 -0.46,0.23 -0.69,0.69 -0.69,1.38 l 0,5.75 c 0,0.23 0.23,0.46 0.46,0.46 0.23,0.23 0.46,0.23 0.69,0 0.23,-0.23 0.23,-0.23 0.23,-0.46 l 0,-5.29 0.46,0 0,14.02 z"
       style="opacity:1;fill:#be8d4b;fill-opacity:1" />
    <path
       id="path359_8_"
       class="st939"
       d="m 408.24786,452.97863 -2.53,-7.35 0,0 c 0,-0.23 0,-0.23 0.23,-0.23 0,0 0.23,0 0.23,0.23 l 1.84,4.6 c 0.23,0.23 0.46,0.46 0.92,0.46 0.23,0 0.23,-0.23 0.46,-0.46 0,-0.23 0,-0.46 0,-0.46 l -1.84,-4.6 c 0,-0.46 -0.23,-0.92 -0.69,-1.38 -0.46,-0.46 -0.92,-0.46 -1.61,-0.46 l -2.3,0 c -0.69,0 -1.15,0.23 -1.61,0.69 -0.46,0.46 -0.69,0.92 -0.92,1.38 l -1.61,4.6 c 0,0 0,0.23 0,0.46 0,0.23 0.23,0.46 0.46,0.46 0.46,0 0.92,-0.23 0.92,-0.46 l 1.84,-4.83 c 0,0 0,-0.23 0.23,-0.23 0.23,0 0.23,0 0.23,0.23 l 0,0 -2.53,7.35 0,0.46 c 0,0 0,0.23 0.23,0.23 0.23,0.23 0.23,0.23 0.23,0.23 l 1.61,0 0,5.75 c 0,0.23 0,0.46 0.23,0.69 0.23,0.23 0.46,0.23 0.69,0.23 0.23,0 0.46,0 0.69,-0.23 0.23,-0.23 0.23,-0.46 0.23,-0.69 l 0,-5.75 c 0,0 0,0 0.23,0 0.23,0 0.23,0 0.46,0 0.23,0 0.23,0 0.23,0 l 0,5.75 c 0,0.23 0,0.46 0.23,0.69 0.23,0.23 0.46,0.23 0.69,0.23 0.23,0 0.46,0 0.69,-0.23 0.23,-0.23 0.23,-0.46 0.23,-0.69 l 0,-5.52 1.61,0 c 0,0 0.23,0 0.23,-0.23 0.23,-0.23 0.23,-0.23 0.23,-0.23 l 0,-0.69 -0.46,0 z"
       style="opacity:1;fill:#be8d4b;fill-opacity:1" />
    <path
       id="path361_8_"
       class="st939"
       d="m 390.77786,440.79863 c 0,0.46 0.23,0.92 0.46,1.38 0.46,0.46 0.69,0.46 1.38,0.46 0.46,0 0.92,-0.23 1.38,-0.46 0.46,-0.46 0.46,-0.92 0.46,-1.38 0,-0.46 -0.23,-0.92 -0.46,-1.38 -0.46,-0.46 -0.69,-0.46 -1.38,-0.46 -0.46,0 -0.92,0.23 -1.38,0.46 -0.46,0.46 -0.46,0.92 -0.46,1.38"
       style="opacity:1;fill:#be8d4b;fill-opacity:1" />
    <path
       id="path363_8_"
       class="st939"
       d="m 401.80786,440.79863 c 0,0.46 0.23,0.92 0.46,1.38 0.46,0.46 0.69,0.46 1.38,0.46 0.69,0 0.92,-0.23 1.38,-0.46 0.46,-0.46 0.46,-0.69 0.46,-1.38 0,-0.46 -0.23,-0.92 -0.46,-1.38 -0.46,-0.46 -0.69,-0.46 -1.38,-0.46 -0.69,0 -0.92,0.23 -1.38,0.46 -0.23,0.46 -0.46,0.92 -0.46,1.38"
       style="opacity:1;fill:#be8d4b;fill-opacity:1" />
  </g>
</svg>
