<?xml version="1.0" encoding="UTF-8" standalone="no"?>
<svg
   xmlns:dc="http://purl.org/dc/elements/1.1/"
   xmlns:cc="http://creativecommons.org/ns#"
   xmlns:rdf="http://www.w3.org/1999/02/22-rdf-syntax-ns#"
   xmlns:svg="http://www.w3.org/2000/svg"
   xmlns="http://www.w3.org/2000/svg"
   version="1.1"
   id="svg9931"
   viewBox="0 0 109.96 65.85"
   height="65.849998"
   width="109.96">
  <defs
     id="defs9933" />
  <metadata
     id="metadata9936">
    <rdf:RDF>
      <cc:Work
         rdf:about="">
        <dc:format>image/svg+xml</dc:format>
        <dc:type
           rdf:resource="http://purl.org/dc/dcmitype/StillImage" />
        <dc:title></dc:title>
      </cc:Work>
    </rdf:RDF>
  </metadata>
  <g
     transform="translate(-322.1629,-425.1515)"
     id="layer1">
    <polygon
       class="st943"
       points="-675,1844.31 -729.98,1784.61 -717.19,1822.88 "
       id="polygon7637"
       style="fill:#b48e59"
       transform="translate(1052.1429,-1353.3085)" />
    <polygon
       class="st944"
       points="-620.02,1822.88 -717.19,1822.88 -729.98,1782.71 -626.97,1778.46 "
       id="polygon7737"
       style="fill:#b8af79"
       transform="translate(1052.1429,-1353.3085)" />
    <g
       id="g7767"
       transform="translate(1052.1429,-1353.3085)">
      <path
         class="st946"
         d="m -706.83,1794.82 c 0,-0.46 0.04,-0.82 0.12,-1.07 0.08,-0.26 0.19,-0.49 0.32,-0.7 l 1.42,0 c -0.1,0.41 -0.15,0.95 -0.15,1.61 l 0,3 -1.71,0 0,-2.84 z m 4.89,-2.45 c 0,-0.56 -0.13,-0.97 -0.4,-1.23 -0.27,-0.26 -0.69,-0.39 -1.26,-0.39 l -3.22,0 0,-1.39 3.34,0 c 1.07,0 1.89,0.26 2.46,0.79 0.57,0.53 0.85,1.29 0.85,2.28 l 0,5.21 -1.76,0 0,-5.27 z"
         id="path7769"
         style="fill:#ffffff" />
      <path
         class="st946"
         d="m -697.41,1790.76 -1.4,0 0,-1.39 3.17,0 0,4.67 -1.77,0 0,-3.28 z"
         id="path7771"
         style="fill:#ffffff" />
      <path
         class="st946"
         d="m -692.79,1790.76 -1.4,0 0,-1.39 3.17,0 0,4.67 -1.77,0 0,-3.28 z"
         id="path7773"
         style="fill:#ffffff" />
      <path
         class="st946"
         d="m -688.76,1797.75 c -0.23,-0.03 -0.48,-0.07 -0.76,-0.13 l 0.02,-1.34 c 0.32,0.05 0.66,0.08 1.02,0.08 0.35,0 0.61,-0.1 0.78,-0.29 0.17,-0.19 0.26,-0.5 0.26,-0.91 l 0,-4.4 -1.53,0 0,-1.39 3.3,0 0,5.92 c 0,0.8 -0.21,1.42 -0.62,1.85 -0.41,0.43 -1,0.65 -1.75,0.65 -0.25,0 -0.49,-0.01 -0.72,-0.04 z"
         id="path7775"
         style="fill:#ffffff" />
      <path
         class="st946"
         d="m -680.37,1796.3 c 0.64,-0.02 1.14,-0.22 1.5,-0.6 0.37,-0.37 0.55,-0.9 0.55,-1.58 l 0,-3.37 -4.95,0 0,-1.39 6.72,0 0,4.72 c 0,0.73 -0.15,1.36 -0.46,1.89 -0.31,0.53 -0.75,0.94 -1.32,1.22 -0.57,0.28 -1.25,0.44 -2.03,0.46 l 0,-1.35 z m -2.8,-1.64 c 0,-0.46 0.04,-0.81 0.12,-1.06 0.08,-0.25 0.18,-0.49 0.31,-0.7 l 1.43,0 c -0.1,0.38 -0.15,0.92 -0.15,1.6 l 0,6.05 -1.71,0 0,-5.89 z"
         id="path7777"
         style="fill:#ffffff" />
      <path
         class="st946"
         d="m -670.61,1789.37 6.86,0 0,8.28 -6.86,0 0,-8.28 z m 5.09,6.89 0,-5.5 -3.32,0 0,5.5 3.32,0 z"
         id="path7779"
         style="fill:#ffffff" />
      <path
         class="st946"
         d="m -661.35,1789.37 3.38,0 c 2.18,0 3.27,1.05 3.29,3.15 l 0,5.13 -1.76,0 -0.01,-5.26 c 0,-0.56 -0.12,-0.98 -0.37,-1.24 -0.24,-0.26 -0.63,-0.4 -1.15,-0.4 l -1.62,0 0,6.9 -1.77,0 0.01,-8.28 z"
         id="path7781"
         style="fill:#ffffff" />
      <path
         class="st946"
         d="m -646.43,1790.16 c 0.55,0.52 0.83,1.31 0.83,2.36 l 0,5.13 -1.76,0 -0.01,-5.26 c 0,-0.57 -0.12,-0.98 -0.36,-1.24 -0.24,-0.26 -0.62,-0.39 -1.14,-0.39 l -1.13,0 c -0.11,0.26 -0.19,0.56 -0.26,0.91 -0.07,0.35 -0.1,0.69 -0.1,1.02 l 0,2.57 c 0,0.8 -0.2,1.42 -0.61,1.85 -0.4,0.43 -0.98,0.64 -1.72,0.64 -0.28,0 -0.6,-0.03 -0.94,-0.08 l 0,-1.39 c 0.16,0.01 0.32,0.02 0.47,0.02 0.37,0 0.64,-0.1 0.82,-0.29 0.18,-0.19 0.26,-0.49 0.26,-0.89 l 0,-2.29 c 0,-0.36 0.05,-0.74 0.15,-1.13 0.1,-0.39 0.23,-0.71 0.4,-0.96 l -1.42,0 0,-1.39 4.05,0 c 1.1,0.02 1.92,0.28 2.47,0.81 z"
         id="path7783"
         style="fill:#ffffff" />
      <path
         class="st946"
         d="m -642.9,1792.71 c 0.05,-0.38 0.15,-0.73 0.3,-1.07 0.16,-0.34 0.34,-0.6 0.55,-0.79 0.03,-0.03 0.07,-0.06 0.12,-0.09 l -0.01,-0.03 c -0.19,0.03 -0.43,0.09 -0.71,0.16 -0.28,0.08 -0.53,0.15 -0.75,0.23 l -0.39,-1.3 c 0.54,-0.19 1.16,-0.35 1.85,-0.47 0.7,-0.12 1.35,-0.18 1.95,-0.18 1.19,0 2.1,0.31 2.73,0.93 0.62,0.62 0.94,1.53 0.94,2.73 l 0,4.81 -3.52,0 0,-1.39 1.75,0 0,-3.64 c 0,-0.64 -0.14,-1.13 -0.41,-1.47 -0.27,-0.34 -0.67,-0.51 -1.18,-0.51 -0.42,0 -0.76,0.16 -1.02,0.49 -0.26,0.33 -0.42,0.78 -0.49,1.37 l -0.55,5.16 -1.75,0 0.59,-4.94 z"
         id="path7785"
         style="fill:#ffffff" />
      <path
         class="st946"
         d="m -690.24,1806.49 6.86,0 0,8.28 -6.86,0 0,-8.28 z m 5.08,6.89 0,-5.5 -3.32,0 0,5.5 3.32,0 z"
         id="path7787"
         style="fill:#ffffff" />
      <path
         class="st946"
         d="m -680.74,1807.88 -0.84,0 0,-1.39 2.61,0 0,8.28 -1.77,0 0,-6.89 z"
         id="path7789"
         style="fill:#ffffff" />
      <path
         class="st946"
         d="m -673.67,1813.42 c 0.64,-0.02 1.14,-0.22 1.5,-0.6 0.37,-0.37 0.55,-0.9 0.55,-1.58 l 0,-3.37 -4.95,0 0,-1.39 6.72,0 0,4.72 c 0,0.73 -0.15,1.36 -0.46,1.89 -0.31,0.53 -0.75,0.94 -1.32,1.22 -0.57,0.28 -1.25,0.44 -2.03,0.46 l 0,-1.35 z m -2.79,-1.64 c 0,-0.46 0.04,-0.81 0.12,-1.06 0.08,-0.25 0.18,-0.49 0.31,-0.7 l 1.43,0 c -0.1,0.38 -0.15,0.92 -0.15,1.6 l 0,6.05 -1.71,0 0,-5.89 z"
         id="path7791"
         style="fill:#ffffff" />
      <path
         class="st946"
         d="m -666.94,1809.83 c 0.05,-0.38 0.15,-0.73 0.3,-1.07 0.16,-0.34 0.34,-0.6 0.55,-0.79 0.03,-0.03 0.07,-0.06 0.12,-0.09 l -0.01,-0.03 c -0.19,0.03 -0.43,0.09 -0.71,0.16 -0.28,0.08 -0.53,0.15 -0.75,0.23 l -0.39,-1.3 c 0.54,-0.19 1.16,-0.35 1.85,-0.47 0.7,-0.12 1.35,-0.18 1.95,-0.18 1.19,0 2.1,0.31 2.73,0.93 0.62,0.62 0.94,1.53 0.94,2.73 l 0,4.81 -3.52,0 0,-1.39 1.75,0 0,-3.64 c 0,-0.64 -0.14,-1.13 -0.41,-1.47 -0.27,-0.34 -0.67,-0.51 -1.18,-0.51 -0.42,0 -0.76,0.16 -1.02,0.49 -0.26,0.33 -0.42,0.78 -0.49,1.37 l -0.55,5.16 -1.75,0 0.59,-4.94 z"
         id="path7793"
         style="fill:#ffffff" />
      <path
         class="st946"
         d="m -652,1813.44 0,1.33 -6.98,0 0,-1.39 4.24,0 0,-3.89 c 0,-0.56 -0.13,-0.97 -0.4,-1.23 -0.27,-0.26 -0.69,-0.39 -1.26,-0.39 l -2.13,0 0,-1.39 2.24,0 c 1.07,0 1.89,0.26 2.46,0.79 0.57,0.53 0.85,1.29 0.85,2.28 l 0,3.75 0.98,0.14 z"
         id="path7795"
         style="fill:#ffffff" />
    </g>
  </g>
</svg>
