<?xml version="1.0" encoding="UTF-8" standalone="no"?>
<svg
   xmlns:dc="http://purl.org/dc/elements/1.1/"
   xmlns:cc="http://creativecommons.org/ns#"
   xmlns:rdf="http://www.w3.org/1999/02/22-rdf-syntax-ns#"
   xmlns:svg="http://www.w3.org/2000/svg"
   xmlns="http://www.w3.org/2000/svg"
   version="1.1"
   id="svg5535"
   viewBox="0 0 171.17999 90.960001"
   height="90.959999"
   width="171.17999">
  <defs
     id="defs5537" />
  <metadata
     id="metadata5540">
    <rdf:RDF>
      <cc:Work
         rdf:about="">
        <dc:format>image/svg+xml</dc:format>
        <dc:type
           rdf:resource="http://purl.org/dc/dcmitype/StillImage" />
        <dc:title></dc:title>
      </cc:Work>
    </rdf:RDF>
  </metadata>
  <g
     transform="translate(-216.89357,-415.45363)"
     id="layer1">
    <polygon
       transform="translate(144.78357,-30.906367)"
       style="fill:#b48e59"
       id="polygon7072"
       points="236.6,446.46 243.29,508.28 157.7,537.32 "
       class="st943" />
    <polygon
       transform="translate(144.78357,-30.906367)"
       style="fill:#b8af79"
       id="polygon7074"
       points="236.61,446.36 243.29,508.28 90,513.62 102.2,447.53 "
       class="st944" />
    <g
       transform="translate(144.78357,-30.906367)"
       id="g7102">
      <g
         id="g7104">
        <path
           style="fill:#ffffff"
           id="path7106"
           d="m 152.77,464.13 c 0,-0.61 -0.18,-1.09 -0.53,-1.43 -0.35,-0.34 -0.85,-0.51 -1.49,-0.51 l -3.99,0 0,-2.1 4.13,0 c 0.94,0 1.75,0.17 2.43,0.5 0.68,0.33 1.2,0.82 1.57,1.44 0.36,0.63 0.54,1.38 0.54,2.25 l 0,8.34 -2.68,0 0,-8.49 z"
           class="st946" />
        <path
           style="fill:#ffffff"
           id="path7108"
           d="m 168.1,470.62 0,2.01 -10.56,0 0,-2.11 6.41,0 0,-5.88 c 0,-0.84 -0.2,-1.46 -0.61,-1.86 -0.41,-0.4 -1.04,-0.59 -1.9,-0.59 l -3.22,0 0,-2.1 3.38,0 c 1.62,0 2.86,0.4 3.72,1.2 0.86,0.8 1.29,1.95 1.29,3.45 l 0,5.68 1.49,0.2 z"
           class="st946" />
        <path
           style="fill:#ffffff"
           id="path7110"
           d="m 179.75,460.09 0,7.34 c 0,1.17 -0.24,2.17 -0.73,2.99 -0.49,0.82 -1.17,1.44 -2.06,1.86 -0.88,0.42 -1.91,0.63 -3.07,0.63 -1.55,0 -3.13,-0.3 -4.73,-0.9 l 0.59,-1.97 c 1.15,0.44 2.18,0.7 3.1,0.8 -0.25,-0.25 -0.47,-0.54 -0.66,-0.88 -0.19,-0.33 -0.33,-0.69 -0.41,-1.06 l -2,-8.81 2.69,0 1.93,9.03 c 0.14,0.65 0.32,1.17 0.54,1.57 0.69,-0.22 1.22,-0.59 1.6,-1.12 0.38,-0.53 0.56,-1.21 0.56,-2.03 l 0,-7.45 2.65,0 z"
           class="st946" />
        <path
           style="fill:#ffffff"
           id="path7112"
           d="m 184.15,465.14 c 0.07,-0.57 0.22,-1.11 0.46,-1.62 0.24,-0.51 0.51,-0.91 0.83,-1.2 0.05,-0.05 0.11,-0.09 0.18,-0.14 l -0.02,-0.04 c -0.29,0.05 -0.65,0.13 -1.08,0.25 -0.43,0.12 -0.8,0.23 -1.13,0.35 l -0.59,-1.96 c 0.82,-0.29 1.75,-0.53 2.8,-0.71 1.05,-0.18 2.04,-0.27 2.95,-0.27 1.81,0 3.18,0.47 4.13,1.41 0.95,0.94 1.42,2.32 1.43,4.14 l 0,7.27 -5.33,0 0,-2.1 2.66,0 0,-5.51 c 0,-0.97 -0.21,-1.71 -0.62,-2.23 -0.41,-0.52 -1.01,-0.77 -1.78,-0.77 -0.63,0 -1.15,0.25 -1.54,0.74 -0.39,0.49 -0.64,1.18 -0.74,2.08 l -0.83,7.8 -2.65,0 0.87,-7.49 z"
           class="st946" />
        <path
           style="fill:#ffffff"
           id="path7114"
           d="m 134.96,487.19 c 0.83,0.79 1.25,1.99 1.25,3.57 l 0,7.77 -2.67,0 -0.01,-7.96 c 0,-0.86 -0.18,-1.48 -0.55,-1.88 -0.37,-0.4 -0.94,-0.6 -1.73,-0.6 l -1.7,0 c -0.16,0.39 -0.29,0.84 -0.39,1.37 -0.1,0.53 -0.15,1.04 -0.15,1.55 l 0,3.89 c 0,1.22 -0.31,2.15 -0.92,2.8 -0.61,0.65 -1.48,0.98 -2.6,0.98 -0.43,0 -0.9,-0.04 -1.42,-0.12 l 0,-2.1 c 0.25,0.02 0.48,0.03 0.71,0.03 0.56,0 0.97,-0.14 1.23,-0.43 0.27,-0.29 0.4,-0.74 0.4,-1.35 l 0,-3.47 c 0,-0.55 0.07,-1.12 0.22,-1.7 0.15,-0.59 0.35,-1.07 0.61,-1.45 l -2.14,0 0,-2.09 6.13,0 c 1.65,0 2.9,0.4 3.73,1.19 z"
           class="st946" />
        <path
           style="fill:#ffffff"
           id="path7116"
           d="m 139.9,488.1 -1.26,0 0,-2.1 3.94,0 0,12.53 -2.68,0 0,-10.43 z"
           class="st946" />
        <path
           style="fill:#ffffff"
           id="path7118"
           d="m 155.07,487.7 -4.35,10.84 -2.85,0 4.31,-10.44 -7.02,0 0,-5.76 2.68,0 0,3.66 7.23,0 0,1.7 z"
           class="st946" />
        <path
           style="fill:#ffffff"
           id="path7120"
           d="m 158.01,488.1 -1.26,0 0,-2.1 3.94,0 0,12.53 -2.68,0 0,-10.43 z"
           class="st946" />
        <path
           style="fill:#ffffff"
           id="path7122"
           d="m 163.25,498.21 0.42,-1.97 c 1.09,0.27 2.05,0.4 2.89,0.4 1.08,-0.01 1.89,-0.27 2.43,-0.77 0.54,-0.5 0.81,-1.24 0.81,-2.21 l 0,-5.56 -6.07,0 0,-2.1 8.75,0 0,7.15 c 0,1.88 -0.49,3.28 -1.48,4.2 -0.99,0.92 -2.36,1.38 -4.13,1.38 -1.08,0 -2.29,-0.18 -3.62,-0.52 z"
           class="st946" />
        <path
           style="fill:#ffffff"
           id="path7124"
           d="m 178.68,495.89 c 0.64,0.27 1.32,0.49 2.03,0.64 0.71,0.15 1.39,0.23 2.02,0.23 1,0 1.89,-0.14 2.66,-0.43 0.77,-0.28 1.37,-0.72 1.81,-1.31 0.44,-0.59 0.65,-1.32 0.65,-2.21 l 0,-6.81 2.58,0 0,7.11 c 0,1.25 -0.34,2.31 -1.01,3.18 -0.67,0.87 -1.58,1.52 -2.73,1.95 -1.15,0.43 -2.43,0.65 -3.85,0.65 -1.1,0 -2.24,-0.13 -3.42,-0.4 -1.18,-0.27 -2.29,-0.65 -3.34,-1.15 l 0,-11.34 2.58,0 0,9.89 z m 3.09,-2.24 c 0.11,-0.49 0.16,-1.04 0.16,-1.65 l 0,-6 2.59,0 0,5.47 c 0,0.72 -0.09,1.37 -0.26,1.94 -0.17,0.58 -0.42,1.05 -0.74,1.41 l -2.19,-0.04 c 0.19,-0.26 0.34,-0.64 0.44,-1.13 z"
           class="st946" />
        <path
           style="fill:#ffffff"
           id="path7126"
           d="m 201.68,493.16 3.81,5.38 -2.98,0 -5.1,-7.21 c -0.24,0.2 -0.42,0.45 -0.53,0.75 -0.12,0.3 -0.17,0.64 -0.17,1.04 l 0,5.42 -2.58,0 0,-4.33 c 0,-1.12 0.18,-2.03 0.54,-2.73 0.36,-0.7 0.93,-1.23 1.71,-1.6 l -2.74,-3.87 2.99,0 3.42,4.84 2.54,-4.84 3,0 -3.91,7.15 z"
           class="st946" />
        <path
           style="fill:#ffffff"
           id="path7128"
           d="m 217.16,487.7 -4.35,10.84 -2.85,0 4.31,-10.44 -7.02,0 0,-5.76 2.68,0 0,3.66 7.23,0 0,1.7 z"
           class="st946" />
      </g>
    </g>
  </g>
</svg>
