<?xml version="1.0" encoding="UTF-8" standalone="no"?>
<svg
   xmlns:dc="http://purl.org/dc/elements/1.1/"
   xmlns:cc="http://creativecommons.org/ns#"
   xmlns:rdf="http://www.w3.org/1999/02/22-rdf-syntax-ns#"
   xmlns:svg="http://www.w3.org/2000/svg"
   xmlns="http://www.w3.org/2000/svg"
   xmlns:xlink="http://www.w3.org/1999/xlink"
   version="1.1"
   id="svg5853"
   viewBox="0 0 59.394999 91.121251"
   height="25.716442mm"
   width="16.762589mm">
  <defs
     id="defs5855">
    <clipPath
       id="SVGID_64_">
      <use
         height="100%"
         width="100%"
         y="0"
         x="0"
         style="overflow:visible"
         id="use653"
         overflow="visible"
         xlink:href="#SVGID_63_" />
    </clipPath>
    <clipPath
       id="SVGID_66_">
      <use
         height="100%"
         width="100%"
         y="0"
         x="0"
         style="overflow:visible"
         id="use666"
         overflow="visible"
         xlink:href="#SVGID_65_" />
    </clipPath>
  </defs>
  <metadata
     id="metadata5858">
    <rdf:RDF>
      <cc:Work
         rdf:about="">
        <dc:format>image/svg+xml</dc:format>
        <dc:type
           rdf:resource="http://purl.org/dc/dcmitype/StillImage" />
        <dc:title></dc:title>
      </cc:Work>
    </rdf:RDF>
  </metadata>
  <g
     transform="translate(-227.44536,-378.23015)"
     id="layer1">
    <g
       transform="translate(-207.45664,126.59845)"
       id="g651_1_">
      <g
         id="g643">
        <g
           id="g647">
          <defs
             id="defs649">
            <rect
               id="SVGID_63_"
               x="-67.462997"
               y="121.576"
               width="838.10699"
               height="1751.1" />
          </defs>
          <clipPath
             id="clipPath6465">
            <use
               xlink:href="#SVGID_63_"
               overflow="visible"
               id="use6467"
               style="overflow:visible"
               x="0"
               y="0"
               width="100%"
               height="100%" />
          </clipPath>
          <path
             id="path659_1_"
             clip-path="url(#SVGID_64_)"
             d="m 493.797,281.33 c 0,16.188 -29.198,60.514 -29.198,60.514 0,0 -29.197,-44.326 -29.197,-60.514 0,-16.188 13.161,-29.197 29.197,-29.197 16.187,-0.152 29.198,13.009 29.198,29.197"
             style="fill:#00a3b2;fill-opacity:1" />
        </g>
      </g>
      <g
         id="g656">
        <g
           id="g658">
          <g
             id="g660">
            <defs
               id="defs662">
              <rect
                 height="1751.1"
                 width="838.10699"
                 y="121.576"
                 x="-67.462997"
                 id="SVGID_65_" />
            </defs>
            <clipPath
               id="clipPath6475">
              <use
                 height="100%"
                 width="100%"
                 y="0"
                 x="0"
                 style="overflow:visible"
                 id="use6477"
                 overflow="visible"
                 xlink:href="#SVGID_65_" />
            </clipPath>
            <path
               style="fill:none;stroke:#37d7e3;stroke-miterlimit:10;stroke-opacity:1"
               d="m 493.797,281.33 c 0,16.188 -29.198,60.514 -29.198,60.514 0,0 -29.197,-44.326 -29.197,-60.514 0,-16.188 13.161,-29.197 29.197,-29.197 16.187,-0.152 29.198,13.009 29.198,29.197 z"
               stroke-miterlimit="10"
               clip-path="url(#SVGID_66_)"
               id="path661_1_" />
          </g>
        </g>
      </g>
    </g>
    <path
       style="fill:#ffffff"
       d="m 245.29393,395.90321 c 0.303,0 0.757,0 1.06,0.151 0.303,0.151 0.604,0.303 0.907,0.453 0.303,0.151 0.454,0.454 0.605,0.908 0.151,0.454 0.303,0.907 0.303,1.513 l 0,5.9 -8.321,0 0,-4.842 c 0,-0.302 0,-0.756 0,-1.059 0,-0.303 0.151,-0.756 0.151,-1.059 -0.151,0 -0.453,0 -0.604,-0.151 -0.151,0 -0.454,-0.151 -0.757,-0.151 0.151,-0.303 0.151,-0.605 0.303,-0.908 0.151,-0.302 0.151,-0.604 0.303,-0.907 0.303,0.151 0.604,0.151 0.756,0.151 0.152,0 0.454,0.151 0.605,0.151 0.151,0 0.454,0 0.605,0 0.151,0 0.453,0 0.756,0 l 3.328,-0.15 0,0 z m 0.606,7.11 0,-3.479 c 0,-0.303 0,-0.605 0,-0.908 0,-0.151 -0.151,-0.453 -0.151,-0.453 -0.151,-0.151 -0.303,-0.151 -0.454,-0.303 -0.151,0 -0.454,0 -0.756,0 l -1.967,0 c -0.151,0.453 -0.151,0.756 -0.151,1.059 0,0.303 0,0.605 0,1.059 l 0,3.026 3.479,0 0,-10e-4 z m 6.504,-9.531 0,2.421 4.841,0 c 0,0.151 0,0.303 0.151,0.303 0,0.151 0,0.151 0,0.302 0,0.151 0,0.303 0,0.454 0,0.151 0,0.303 0,0.454 l 0,1.815 c 0,0.605 -0.151,1.361 -0.453,1.967 -0.303,0.604 -0.605,1.21 -1.211,1.815 l -2.117,2.42 -1.664,-1.361 0.907,-1.059 c 0.454,-0.454 0.757,-0.908 1.059,-1.211 0.303,-0.302 0.454,-0.604 0.605,-0.756 0.151,-0.303 0.303,-0.454 0.303,-0.757 0,-0.151 0.151,-0.453 0.151,-0.756 l 0,-1.513 -4.992,0 0,-4.388 2.42,-0.15 0,0 z m 11.044,2.421 0,8.774 -2.27,0 0,-6.959 -1.513,0 0,-1.815 3.783,0 0,0 z m 10.59,3.025 c -0.151,0.303 -0.151,0.605 -0.303,0.908 -0.151,0.302 -0.151,0.604 -0.303,0.756 -0.152,0.152 -0.303,0.454 -0.454,0.605 -0.15,0.151 -0.453,0.454 -0.604,0.604 l 1.815,2.118 -1.513,1.361 -4.388,-5.144 c -0.151,0.151 -0.151,0.303 -0.151,0.605 0,0.302 -0.151,0.454 -0.151,0.757 0,0.302 0,0.604 0,0.907 0,0.303 0,0.605 0,0.757 0,0.152 0,0.151 0,0.303 0,0.15 0,0.302 0,0.453 0,0.151 0,0.303 0,0.454 0,0.151 0,0.303 0,0.454 l -2.117,0 c 0,-0.151 0,-0.303 0,-0.454 0,-0.151 0,-0.454 0,-0.605 0,-0.151 0,-0.453 0,-0.756 0,-0.303 0,-0.605 0,-0.908 0,-0.303 0,-0.604 0,-0.907 0,-0.303 0.15,-0.605 0.15,-0.908 0.151,-0.303 0.151,-0.604 0.303,-0.756 0.151,-0.303 0.303,-0.454 0.605,-0.757 -0.151,-0.151 -0.303,-0.303 -0.454,-0.604 -0.151,-0.151 -0.151,-0.303 -0.303,-0.605 -0.151,-0.151 -0.151,-0.454 -0.302,-0.605 -0.151,-0.151 -0.151,-0.454 -0.303,-0.756 0.303,-0.151 0.604,-0.303 1.059,-0.454 0.303,-0.151 0.757,-0.303 1.059,-0.303 0.151,0.303 0.303,0.605 0.303,0.908 0.151,0.302 0.303,0.453 0.303,0.756 0.151,0.151 0.303,0.454 0.454,0.605 0.151,0.151 0.303,0.454 0.605,0.756 l 1.664,1.815 c 0.151,-0.151 0.302,-0.303 0.302,-0.453 0.151,-0.151 0.151,-0.454 0.303,-0.605 0,-0.151 0,-0.151 0.151,-0.303 0.151,-0.152 0,-0.303 0.151,-0.303 l 0.151,-1.059 -1.21,-0.151 0.303,-1.815 3.177,0.605 0,1.059 -0.302,1.665 0,0 z"
       id="path665_1_" />
    <path
       style="fill:#ffffff"
       d="m 243.02593,409.06421 0,3.177 c 0,0.303 0,0.605 0,0.757 0,0.152 0,0.454 0,0.605 0,0.151 0,0.303 0,0.453 0,0.151 0,0.303 -0.151,0.454 l -2.27,-0.303 c 0,-0.151 0,-0.302 0.151,-0.453 0,-0.151 0,-0.303 0,-0.454 0,-0.151 0,-0.303 0,-0.605 0,-0.151 0,-0.454 0,-0.756 l 0,-1.211 -1.967,0 0,-1.815 4.236,0 0,0.151 z m 4.84,7.11 c 0.151,0 0.303,0 0.303,0 0.151,0 0.302,0 0.453,0 0.303,0 0.757,0 1.06,-0.151 0.303,0 0.756,-0.151 1.059,-0.302 0.303,-0.151 0.605,-0.303 0.908,-0.605 0.303,-0.302 0.604,-0.605 0.756,-1.06 0.303,-0.604 0.605,-1.21 0.605,-1.815 0.151,-0.604 0.151,-1.21 0.151,-1.814 0,-0.303 0,-0.454 0,-0.757 0,-0.303 0,-0.454 0,-0.757 0.303,0 0.454,-0.15 0.604,-0.15 0.151,0 0.303,-0.151 0.454,-0.151 0.151,0 0.303,0 0.454,-0.151 0.151,0 0.454,0 0.756,-0.151 0,0.303 0.151,0.454 0.151,0.756 0,0.303 0,0.605 0,0.908 0,0.303 0,0.604 0,0.756 0,0.303 0,0.454 0,0.757 -0.302,2.118 -1.059,3.631 -2.269,4.689 -1.211,1.06 -2.875,1.513 -5.144,1.513 -0.303,0 -0.757,0 -1.211,0 -0.453,0 -0.756,0 -1.21,-0.151 l -0.454,-5.144 c 0,-0.302 0,-0.604 0,-0.756 0,-0.152 0,-0.454 0,-0.605 0,-0.151 0,-0.303 0,-0.454 0,-0.15 0,-0.302 -0.151,-0.453 0,-0.151 -0.151,-0.303 -0.151,-0.454 0,-0.151 -0.151,-0.303 -0.151,-0.605 0.303,-0.151 0.605,-0.302 1.06,-0.453 0.303,-0.151 0.757,-0.303 1.059,-0.454 0.151,0.303 0.303,0.605 0.303,0.907 0.151,0.3 0.151,0.602 0.151,0.754 0,0.303 0.151,0.605 0.151,0.907 0,0.303 0,0.605 0.151,1.06 l 0.152,4.386 0,0 z m 0.908,-4.235 c 0.151,-0.303 0.151,-0.454 0.151,-0.605 0,-0.151 0.151,-0.303 0.151,-0.454 0,-0.151 0,-0.303 0.151,-0.303 0,-0.15 0,-0.302 0,-0.302 l 0,-0.151 0,-0.151 c 0,-0.151 0,-0.151 0,-0.303 0,-0.152 0,-0.151 0,-0.303 0.303,-0.151 0.757,-0.151 1.059,-0.303 0.303,-0.151 0.757,-0.151 1.06,-0.302 0,0.302 0.151,0.453 0.151,0.756 0,0.151 0,0.454 0,0.605 0,0.151 0,0.303 0,0.453 0,0.151 0,0.303 -0.151,0.605 0,0.151 -0.151,0.454 -0.151,0.605 -0.151,0.151 -0.151,0.454 -0.303,0.756 l -0.605,1.514 c -0.302,0 -0.453,-0.151 -0.604,-0.151 -0.151,0 -0.303,-0.151 -0.454,-0.151 -0.151,0 -0.303,-0.151 -0.454,-0.151 -0.151,0 -0.303,-0.151 -0.604,-0.303 l 0.603,-1.361 0,0 z m 17.094,0 c -0.15,0.302 -0.15,0.604 -0.302,0.907 -0.152,0.303 -0.151,0.605 -0.303,0.757 -0.152,0.152 -0.303,0.453 -0.454,0.604 -0.151,0.151 -0.454,0.454 -0.605,0.605 l 1.815,2.118 -1.513,1.361 -4.387,-5.144 c -0.151,0.151 -0.151,0.303 -0.151,0.605 0,0.302 -0.151,0.453 -0.151,0.756 0,0.303 0,0.605 0,0.908 0,0.303 0,0.604 0,0.756 0,0.152 0,0.151 0,0.303 0,0.152 0,0.303 0,0.454 0,0.151 0,0.303 0,0.454 0,0.15 0,0.302 0,0.453 l -2.118,0 c 0,-0.151 0,-0.303 0,-0.453 0,-0.151 0,-0.454 0,-0.605 0,-0.151 0,-0.454 0,-0.757 0,-0.302 0,-0.604 0,-0.907 0,-0.303 0,-0.605 0,-0.908 0,-0.302 0.151,-0.604 0.151,-0.907 0.151,-0.303 0.151,-0.605 0.303,-0.757 0.151,-0.303 0.303,-0.453 0.605,-0.756 -0.151,-0.151 -0.303,-0.303 -0.454,-0.605 -0.151,-0.151 -0.151,-0.303 -0.303,-0.605 -0.151,-0.15 -0.151,-0.453 -0.303,-0.604 -0.152,-0.151 -0.151,-0.454 -0.303,-0.757 0.303,-0.151 0.605,-0.303 1.06,-0.453 0.303,-0.151 0.756,-0.303 1.059,-0.303 0.151,0.303 0.303,0.604 0.303,0.907 0.151,0.303 0.303,0.454 0.303,0.757 0.151,0.151 0.303,0.453 0.454,0.604 0.15,0.151 0.302,0.454 0.604,0.757 l 1.664,1.815 c 0.151,-0.151 0.303,-0.303 0.303,-0.454 0.151,-0.151 0.151,-0.454 0.303,-0.605 0,-0.15 0,-0.15 0.151,-0.302 0.151,-0.152 0,-0.303 0.151,-0.303 l 0.151,-1.06 -1.211,-0.15 0.303,-1.815 3.177,0.604 0,1.06 -0.302,1.665 0,0 z m 4.842,-1.06 c -0.303,0 -0.605,0 -0.757,0 -0.152,0 -0.454,0 -0.605,0 -0.15,0 -0.453,0 -0.604,-0.151 -0.151,0 -0.454,-0.151 -0.757,-0.151 0.151,-0.302 0.151,-0.604 0.303,-0.907 0.152,-0.303 0.151,-0.605 0.303,-0.907 0.303,0.15 0.605,0.15 0.757,0.15 0.152,0 0.453,0.151 0.604,0.151 0.151,0 0.454,0 0.605,0 0.151,0 0.454,0 0.756,0 l 1.06,0 c 0.303,0 0.756,0 1.059,0.151 0.303,0.151 0.605,0.303 0.908,0.454 0.303,0.151 0.453,0.454 0.604,0.907 0.151,0.454 0.303,0.908 0.303,1.514 l 0,5.899 -2.27,0 0,-5.295 c 0,-0.303 0,-0.604 0,-0.907 0,-0.151 -0.15,-0.454 -0.15,-0.454 -0.151,-0.151 -0.303,-0.151 -0.454,-0.303 -0.151,0 -0.454,0 -0.757,0 l -0.908,-0.151 0,0 z"
       id="path667_1_" />
  </g>
</svg>
