<?xml version="1.0" encoding="UTF-8" standalone="no"?>
<svg
   xmlns:dc="http://purl.org/dc/elements/1.1/"
   xmlns:cc="http://creativecommons.org/ns#"
   xmlns:rdf="http://www.w3.org/1999/02/22-rdf-syntax-ns#"
   xmlns:svg="http://www.w3.org/2000/svg"
   xmlns="http://www.w3.org/2000/svg"
   version="1.1"
   id="svg19578"
   viewBox="0 0 231.4 61.330003"
   height="61.330002"
   width="231.39999">
  <defs
     id="defs19580" />
  <metadata
     id="metadata19583">
    <rdf:RDF>
      <cc:Work
         rdf:about="">
        <dc:format>image/svg+xml</dc:format>
        <dc:type
           rdf:resource="http://purl.org/dc/dcmitype/StillImage" />
        <dc:title></dc:title>
      </cc:Work>
    </rdf:RDF>
  </metadata>
  <g
     transform="translate(-312.2807,-418.84006)"
     id="layer1">
    <polygon
       transform="translate(1236.5607,-85.809938)"
       style="fill:#b48e59"
       id="polygon6672"
       points="-760.27,549.47 -768.74,505.05 -808.58,565.98 "
       class="st943" />
    <polygon
       transform="translate(1236.5607,-85.809938)"
       style="fill:#b8af79"
       id="polygon6674"
       points="-917.2,548.78 -924.28,505.33 -768.73,504.65 -760.27,549.47 "
       class="st944" />
    <path
       style="opacity:1;fill:#b69d67;fill-opacity:1"
       d="m 450.41071,454.33006 c -7.71,0 -14.01,-6.29999 -14.01,-14.01 0,-7.71 6.3,-14.01 14.01,-14.01 7.71,0 14.01,6.3 14.01,14.01 0,7.70001 -6.31,14.01 -14.01,14.01 m 0,-31.17 c -9.46,0 -17.16,7.71 -17.16,17.16 0,9.45001 7.71,17.16 17.16,17.16 9.46,0 17.16,-7.71 17.16,-17.16 0,-9.45 -7.7,-17.16 -17.16,-17.16 m 0,15.06 c -1.05,0 -2.1,1.05 -2.1,2.1 l 0,6.3 c 0,1.05 1.05,2.1 2.1,2.1 1.05,0 2.1,-1.04999 2.1,-2.1 l 0,-6.3 c 0,-1.04999 -1.05,-2.1 -2.1,-2.1 m 0,-6.66 c -1.05,0 -2.1,1.05 -2.1,2.10001 0,1.04999 1.05,2.1 2.1,2.1 1.05,0 2.1,-1.05 2.1,-2.1 0,-1.05 -1.05,-2.10001 -2.1,-2.10001"
       class="st934"
       id="path473_3_" />
    <g
       transform="translate(1236.5607,-85.809938)"
       id="g6683">
      <path
         style="fill:#ffffff"
         id="path6685"
         d="m -904.03,514.34 -0.93,0 0,-1.51 2.83,0 0,12.16 -1.89,0 0,-10.65 z"
         class="st946" />
      <path
         style="fill:#ffffff"
         id="path6687"
         d="m -898.9,514.34 -1.52,0 0,-1.51 3.45,0 0,5.08 -1.92,0 0,-3.57 z"
         class="st946" />
      <path
         style="fill:#ffffff"
         id="path6689"
         d="m -887.73,512.83 0,5.27 c 0,0.84 -0.18,1.56 -0.53,2.15 -0.35,0.59 -0.84,1.04 -1.48,1.34 -0.64,0.3 -1.37,0.46 -2.21,0.46 -1.12,0 -2.25,-0.21 -3.4,-0.64 l 0.42,-1.42 c 0.82,0.31 1.57,0.5 2.23,0.58 -0.18,-0.18 -0.34,-0.39 -0.48,-0.63 -0.14,-0.24 -0.23,-0.49 -0.3,-0.77 l -1.44,-6.33 1.93,0 1.39,6.49 c 0.1,0.46 0.23,0.84 0.39,1.13 0.5,-0.16 0.88,-0.43 1.15,-0.81 0.27,-0.38 0.41,-0.87 0.41,-1.46 l 0,-5.36 1.92,0 z"
         class="st946" />
      <path
         style="fill:#ffffff"
         id="path6691"
         d="m -884.5,514.34 -1.52,0 0,-1.51 3.45,0 0,5.08 -1.92,0 0,-3.57 z"
         class="st946" />
      <path
         style="fill:#ffffff"
         id="path6693"
         d="m -873.44,512.83 0,1.51 -1.55,0 0,7.5 -1.92,0 0,-7.5 -4.03,0 0,-1.51 7.5,0 z"
         class="st946" />
      <path
         style="fill:#ffffff"
         id="path6695"
         d="m -871.36,514.34 -0.91,0 0,-1.51 2.83,0 0,9.01 -1.92,0 0,-7.5 z"
         class="st946" />
      <path
         style="fill:#ffffff"
         id="path6697"
         d="m -866.27,516.46 c 0.05,-0.41 0.16,-0.8 0.33,-1.16 0.17,-0.37 0.37,-0.65 0.6,-0.86 0.04,-0.04 0.08,-0.07 0.13,-0.1 l -0.01,-0.03 c -0.21,0.04 -0.46,0.09 -0.77,0.18 -0.31,0.08 -0.58,0.17 -0.81,0.25 l -0.42,-1.41 c 0.59,-0.21 1.26,-0.38 2.02,-0.51 0.76,-0.13 1.46,-0.19 2.12,-0.19 1.3,0 2.29,0.34 2.97,1.01 0.68,0.67 1.02,1.67 1.03,2.97 l 0,5.23 -3.83,0 0,-1.51 1.91,0 0,-3.96 c 0,-0.7 -0.15,-1.23 -0.45,-1.6 -0.3,-0.37 -0.72,-0.56 -1.28,-0.56 -0.46,0 -0.82,0.18 -1.11,0.53 -0.28,0.35 -0.46,0.85 -0.53,1.49 l -0.6,5.61 -1.9,0 0.6,-5.38 z"
         class="st946" />
      <path
         style="fill:#ffffff"
         id="path6699"
         d="m -846.27,513.69 c 0.6,0.57 0.9,1.43 0.9,2.57 l 0,5.58 -1.92,0 -0.01,-5.72 c 0,-0.62 -0.13,-1.07 -0.39,-1.35 -0.26,-0.29 -0.68,-0.43 -1.24,-0.43 l -1.22,0 c -0.12,0.28 -0.21,0.61 -0.28,0.99 -0.07,0.38 -0.11,0.75 -0.11,1.11 l 0,2.8 c 0,0.87 -0.22,1.54 -0.66,2.01 -0.44,0.47 -1.06,0.7 -1.87,0.7 -0.31,0 -0.65,-0.03 -1.02,-0.08 l 0,-1.51 c 0.18,0.02 0.35,0.02 0.51,0.02 0.4,0 0.7,-0.1 0.89,-0.31 0.19,-0.21 0.29,-0.53 0.29,-0.97 l 0,-2.49 c 0,-0.39 0.05,-0.8 0.16,-1.22 0.11,-0.42 0.25,-0.77 0.44,-1.04 l -1.54,0 0,-1.51 4.4,0 c 1.18,-0.01 2.08,0.28 2.67,0.85 z"
         class="st946" />
      <path
         style="fill:#ffffff"
         id="path6701"
         d="m -836.33,512.83 0,1.51 -1.55,0 0,7.5 -1.92,0 0,-7.5 -4.03,0 0,-1.51 7.5,0 z"
         class="st946" />
      <path
         style="fill:#ffffff"
         id="path6703"
         d="m -833.97,516.46 c 0.05,-0.41 0.16,-0.8 0.33,-1.16 0.17,-0.37 0.37,-0.65 0.6,-0.86 0.04,-0.04 0.08,-0.07 0.13,-0.1 l -0.01,-0.03 c -0.21,0.04 -0.46,0.09 -0.77,0.18 -0.31,0.08 -0.58,0.17 -0.81,0.25 l -0.42,-1.41 c 0.59,-0.21 1.26,-0.38 2.02,-0.51 0.76,-0.13 1.46,-0.19 2.12,-0.19 1.3,0 2.29,0.34 2.97,1.01 0.68,0.67 1.02,1.67 1.03,2.97 l 0,5.23 -3.83,0 0,-1.51 1.91,0 0,-3.96 c 0,-0.7 -0.15,-1.23 -0.45,-1.6 -0.3,-0.37 -0.72,-0.56 -1.28,-0.56 -0.46,0 -0.82,0.18 -1.11,0.53 -0.28,0.35 -0.46,0.85 -0.53,1.49 l -0.6,5.61 -1.9,0 0.6,-5.38 z"
         class="st946" />
      <path
         style="fill:#ffffff"
         id="path6705"
         d="m -817.66,512.83 0,5.27 c 0,0.84 -0.18,1.56 -0.53,2.15 -0.35,0.59 -0.84,1.04 -1.48,1.34 -0.63,0.3 -1.37,0.46 -2.21,0.46 -1.12,0 -2.25,-0.21 -3.4,-0.64 l 0.42,-1.42 c 0.82,0.31 1.57,0.5 2.23,0.58 -0.18,-0.18 -0.34,-0.39 -0.48,-0.63 -0.14,-0.24 -0.24,-0.49 -0.3,-0.77 l -1.44,-6.33 1.93,0 1.39,6.49 c 0.1,0.46 0.23,0.84 0.39,1.13 0.5,-0.16 0.88,-0.43 1.15,-0.81 0.27,-0.38 0.41,-0.87 0.41,-1.46 l 0,-5.36 1.92,0 z"
         class="st946" />
      <path
         style="fill:#ffffff"
         id="path6707"
         d="m -908.22,532.96 -1.52,0 0,-1.51 3.45,0 0,5.08 -1.92,0 0,-3.57 z"
         class="st946" />
      <path
         style="fill:#ffffff"
         id="path6709"
         d="m -902.03,540.12 c -0.59,-0.35 -1.05,-0.84 -1.38,-1.47 -0.33,-0.63 -0.5,-1.36 -0.51,-2.19 l 0,-0.72 c 0,-0.33 0.04,-0.68 0.14,-1.03 0.1,-0.35 0.23,-0.68 0.39,-0.97 0.16,-0.3 0.34,-0.52 0.53,-0.69 0.04,-0.03 0.07,-0.06 0.11,-0.08 l -0.02,-0.03 c -0.16,0.03 -0.37,0.07 -0.63,0.13 -0.26,0.06 -0.51,0.13 -0.73,0.19 l -0.37,-1.42 c 0.6,-0.18 1.29,-0.32 2.07,-0.43 0.78,-0.11 1.5,-0.16 2.17,-0.16 0.88,0 1.64,0.17 2.27,0.49 0.63,0.33 1.11,0.81 1.44,1.44 0.33,0.63 0.5,1.4 0.5,2.29 l 0,0.98 c 0,0.83 -0.16,1.56 -0.49,2.19 -0.33,0.63 -0.79,1.12 -1.39,1.47 -0.6,0.35 -1.28,0.52 -2.06,0.52 -0.77,0.01 -1.45,-0.16 -2.04,-0.51 z m 3.09,-1.4 c 0.31,-0.21 0.54,-0.52 0.71,-0.91 0.17,-0.39 0.25,-0.84 0.25,-1.35 l 0,-0.96 c 0,-0.84 -0.18,-1.5 -0.55,-1.97 -0.37,-0.47 -0.87,-0.71 -1.52,-0.71 -0.61,0 -1.08,0.24 -1.43,0.73 -0.35,0.49 -0.53,1.17 -0.54,2.05 l 0,0.85 c 0,0.51 0.08,0.96 0.25,1.35 0.17,0.39 0.41,0.69 0.71,0.91 0.3,0.21 0.65,0.32 1.05,0.32 0.41,0.01 0.77,-0.1 1.07,-0.31 z"
         class="st946" />
      <path
         style="fill:#ffffff"
         id="path6711"
         d="m -893.84,540.57 c -0.25,-0.03 -0.52,-0.08 -0.82,-0.14 l 0.02,-1.46 c 0.34,0.06 0.71,0.08 1.11,0.08 0.38,0 0.66,-0.11 0.85,-0.32 0.19,-0.21 0.28,-0.54 0.28,-0.99 l 0,-4.78 -1.67,0 0,-1.51 3.58,0 0,6.44 c 0,0.87 -0.22,1.54 -0.67,2.01 -0.45,0.47 -1.08,0.71 -1.9,0.71 -0.27,0.01 -0.53,-0.01 -0.78,-0.04 z"
         class="st946" />
      <path
         style="fill:#ffffff"
         id="path6713"
         d="m -888.64,540.23 0.3,-1.42 c 0.78,0.19 1.48,0.29 2.08,0.29 0.78,-0.01 1.36,-0.2 1.75,-0.56 0.39,-0.36 0.58,-0.89 0.58,-1.59 l 0,-3.99 -4.36,0 0,-1.51 6.29,0 0,5.14 c 0,1.35 -0.35,2.36 -1.06,3.02 -0.71,0.66 -1.7,0.99 -2.97,0.99 -0.79,0 -1.65,-0.12 -2.61,-0.37 z"
         class="st946" />
      <path
         style="fill:#ffffff"
         id="path6715"
         d="m -875.73,533.03 -0.58,-0.12 0,-1.46 4.71,0 -0.01,1.51 -2.24,0 1.19,7.5 -1.98,0 -1.09,-7.43 z"
         class="st946" />
      <path
         style="fill:#ffffff"
         id="path6717"
         d="m -869.15,532.96 -1.52,0 0,-1.51 3.45,0 0,5.08 -1.92,0 0,-3.57 z"
         class="st946" />
      <path
         style="fill:#ffffff"
         id="path6719"
         d="m -864.12,532.96 -1.52,0 0,-1.51 3.45,0 0,5.08 -1.92,0 0,-3.57 z"
         class="st946" />
      <path
         style="fill:#ffffff"
         id="path6721"
         d="m -853.05,531.46 0,1.51 -1.55,0 0,7.5 -1.92,0 0,-7.5 -4.03,0 0,-1.51 7.5,0 z"
         class="st946" />
      <path
         style="fill:#ffffff"
         id="path6723"
         d="m -851.28,540.57 c -0.24,-0.03 -0.52,-0.08 -0.82,-0.14 l 0.02,-1.46 c 0.34,0.06 0.71,0.08 1.11,0.08 0.38,0 0.66,-0.11 0.85,-0.32 0.19,-0.21 0.28,-0.54 0.28,-0.99 l 0,-4.78 -1.67,0 0,-1.51 3.58,0 0,6.44 c 0,0.87 -0.22,1.54 -0.67,2.01 -0.45,0.47 -1.08,0.71 -1.9,0.71 -0.27,0.01 -0.53,-0.01 -0.78,-0.04 z"
         class="st946" />
      <path
         style="fill:#ffffff"
         id="path6725"
         d="m -845.47,529.91 c 0.26,-0.53 0.59,-0.96 1,-1.29 l 0.95,0.59 c -0.23,0.34 -0.4,0.68 -0.52,1.04 -0.12,0.35 -0.18,0.74 -0.18,1.17 l 0,1.05 -1.64,0 0,-1.05 c 0,-0.48 0.13,-0.99 0.39,-1.51 z"
         class="st946" />
      <path
         style="fill:#ffffff"
         id="path6727"
         d="m -837.49,536.4 2.18,3.16 0,0.9 -6.91,0 0,-1.52 4.44,0 -5.09,-7.49 2.15,0 2.1,3.27 1.66,-3.27 2.16,0 -2.69,4.95 z"
         class="st946" />
      <path
         style="fill:#ffffff"
         id="path6729"
         d="m -829.68,534.36 c 0,-0.44 -0.13,-0.78 -0.38,-1.03 -0.25,-0.25 -0.61,-0.37 -1.07,-0.37 l -2.87,0 0,-1.51 2.97,0 c 0.68,0 1.26,0.12 1.75,0.36 0.49,0.24 0.86,0.59 1.13,1.04 0.26,0.45 0.39,0.99 0.39,1.62 l 0,5.99 -1.92,0 0,-6.1 z"
         class="st946" />
      <path
         style="fill:#ffffff"
         id="path6731"
         d="m -824.82,535.09 c 0.05,-0.41 0.16,-0.8 0.33,-1.16 0.17,-0.37 0.37,-0.65 0.6,-0.86 0.04,-0.04 0.08,-0.07 0.13,-0.1 l -0.01,-0.03 c -0.21,0.04 -0.46,0.09 -0.77,0.18 -0.31,0.08 -0.58,0.17 -0.81,0.25 l -0.42,-1.41 c 0.59,-0.21 1.26,-0.38 2.02,-0.51 0.76,-0.13 1.46,-0.19 2.12,-0.19 1.3,0 2.29,0.34 2.97,1.01 0.68,0.67 1.02,1.67 1.03,2.97 l 0,5.23 -3.83,0 0,-1.51 1.91,0 0,-3.96 c 0,-0.7 -0.15,-1.23 -0.45,-1.6 -0.3,-0.37 -0.72,-0.56 -1.28,-0.56 -0.46,0 -0.82,0.18 -1.11,0.53 -0.28,0.35 -0.46,0.85 -0.53,1.49 l -0.6,5.61 -1.9,0 0.6,-5.38 z"
         class="st946" />
      <path
         style="fill:#ffffff"
         id="path6733"
         d="m -815,532.96 -0.91,0 0,-1.51 2.83,0 0,9.01 -1.92,0 0,-7.5 z"
         class="st946" />
    </g>
  </g>
</svg>
