<?xml version="1.0" encoding="UTF-8" standalone="no"?>
<svg
   xmlns:dc="http://purl.org/dc/elements/1.1/"
   xmlns:cc="http://creativecommons.org/ns#"
   xmlns:rdf="http://www.w3.org/1999/02/22-rdf-syntax-ns#"
   xmlns:svg="http://www.w3.org/2000/svg"
   xmlns="http://www.w3.org/2000/svg"
   version="1.1"
   id="svg4476"
   viewBox="0 0 118 97.20001"
   height="27.432003mm"
   width="33.302223mm">
  <defs
     id="defs4478" />
  <metadata
     id="metadata4481">
    <rdf:RDF>
      <cc:Work
         rdf:about="">
        <dc:format>image/svg+xml</dc:format>
        <dc:type
           rdf:resource="http://purl.org/dc/dcmitype/StillImage" />
        <dc:title></dc:title>
      </cc:Work>
    </rdf:RDF>
  </metadata>
  <g
     transform="translate(-375.28571,-666.61934)"
     id="layer1">
    <g
       id="g4543">
      <rect
         id="rect323_3_"
         x="375.28571"
         y="666.61932"
         class="st933"
         width="118"
         height="31.799999"
         style="fill:#4b1a26" />
      <g
         id="g4535"
         transform="translate(-0.10001,0)">
        <path
           style="fill:#4b1a26"
           d="m 453.48572,724.51935 c 0,10.5 -19.1,39.3 -19.1,39.3 0,0 -19.1,-28.8 -19.1,-39.3 0,-10.5 8.6,-19.1 19.1,-19.1 10.5,0 19.1,8.6 19.1,19.1"
           class="st933"
           id="path457_3_" />
        <g
           transform="matrix(0.42702949,0,0,0.42702949,29.72042,25.90366)"
           id="g4679-4-4_3_">
          <path
             style="opacity:1;fill:#ffffff"
             d="m 963.4,1620.1 c 4.6,-0.2 8.8,-4.2 9.8,-8.6 -4.4,0 -8.8,4.4 -9.8,8.6 z m -9.5,-4.9 c -5.4,6.4 -13.4,9 -20.5,13 -6.4,2.9 -12.2,8.3 -19.3,8.8 -0.2,4.6 1.7,8.8 2.4,13.2 4.6,-1.5 6.6,-1 8.8,3.4 4.4,5.6 14.9,2.4 15.4,-4.6 6.4,0.2 12.7,-0.2 18.8,-0.5 2.4,2.4 9.3,2 7.8,-2.7 -1.7,-10 -4.9,-19.8 -7.8,-29.6 -0.7,-2 -3.9,-0.5 -5.6,-1 z"
             class="st941"
             id="path6-3-2_3_" />
          <path
             style="fill:#4b1a26"
             d="m 953.9,1625 c -9.3,5.4 -18.8,10.8 -28.6,15.6 1,2.4 7.3,1 10.5,1.5 7.6,0 15.4,0 23,0 -1,-5.9 -2.2,-12.2 -4.9,-17.1 z"
             class="st933"
             id="path8-6-1_3_" />
          <path
             style="opacity:1;fill:#ffffff"
             d="m 969.5,1630.8 c 4.2,0 8.1,-1.2 12,-2.4 1,-5.9 -5.6,-2.7 -8.6,-1.5 -1.7,0.8 -3.4,2 -3.4,3.9 m 0,9.8 c 2.2,2.9 7.8,5.4 11.2,3.2 2.4,-3.7 -5.9,-3.2 -8.3,-4.2 -1.2,0 -1.9,0.5 -2.9,1 l 0,0 z"
             class="st941"
             id="path10-3-3_3_" />
          <path
             style="fill:#4b1a26"
             d="m 926,1649.2 c 1.7,3.7 5.9,6.4 9,2.9 5.1,-4.9 -4.6,-2.4 -7.6,-2.9 -0.4,0 -0.9,0 -1.4,0 z"
             class="st933"
             id="path12-1-27_3_" />
        </g>
      </g>
      <g
         transform="translate(-28.11428,-231.18065)"
         id="g7158">
        <g
           id="g7160">
          <path
             class="st951"
             d="m 426.1,914.4 c 0.5,0.8 0.7,1.6 0.7,2.5 0,1.1 -0.2,2 -0.7,2.8 -0.5,0.8 -1.2,1.4 -2,1.8 -0.9,0.4 -1.8,0.6 -2.9,0.6 -1,0 -2,-0.2 -2.9,-0.6 -0.9,-0.4 -1.5,-1 -2,-1.7 -0.5,-0.7 -0.8,-1.6 -0.8,-2.7 l 2.3,0 c 0,0.6 0.1,1.2 0.4,1.6 0.3,0.5 0.7,0.8 1.2,1.1 0.5,0.3 1.1,0.4 1.8,0.4 1.1,0 1.9,-0.3 2.5,-0.8 0.6,-0.5 0.9,-1.4 0.9,-2.5 0,-1.1 -0.3,-1.9 -1,-2.4 -0.7,-0.5 -1.6,-0.8 -2.8,-0.8 l -1.6,0 0,-1.3 0,-0.5 1.6,0 c 0.8,0 1.4,-0.1 1.9,-0.4 0.5,-0.3 0.9,-0.6 1.2,-1.1 0.3,-0.5 0.4,-1 0.4,-1.6 0,-1 -0.3,-1.8 -0.8,-2.3 -0.5,-0.5 -1.3,-0.8 -2.3,-0.8 -0.6,0 -1.2,0.1 -1.7,0.4 -0.5,0.3 -0.9,0.6 -1.1,1.1 -0.3,0.5 -0.4,1 -0.4,1.6 l -2.3,0 c 0,-0.9 0.2,-1.7 0.7,-2.5 0.5,-0.7 1.1,-1.3 1.9,-1.8 0.8,-0.5 1.8,-0.6 2.9,-0.6 1.1,0 2,0.2 2.8,0.6 0.8,0.4 1.4,1 1.9,1.7 0.4,0.8 0.7,1.7 0.7,2.7 0,0.5 -0.1,0.9 -0.3,1.4 -0.2,0.5 -0.5,1 -0.9,1.4 -0.4,0.4 -0.9,0.8 -1.6,1 1,0.4 1.8,0.9 2.3,1.7 z"
             id="path7162"
             style="fill:#bfc6cf" />
          <path
             class="st951"
             d="m 448.4,908.9 -5.3,13 -2.4,0 5.2,-12.6 -8.4,0 0,-6.2 2.3,0 0,4.4 8.7,0 0,1.4 z"
             id="path7164"
             style="fill:#bfc6cf" />
          <path
             class="st951"
             d="m 452.9,909.3 -1.7,0 0,-1.8 3.9,0 0,14.4 -2.3,0 0,-12.6 z"
             id="path7166"
             style="fill:#bfc6cf" />
          <path
             class="st951"
             d="m 459,921.4 0.4,-1.7 c 1.3,0.3 2.4,0.5 3.4,0.5 1.4,0 2.4,-0.3 3.1,-1 0.7,-0.7 1.1,-1.6 1.1,-2.8 l 0,-7.1 -7.5,0 0,-1.8 9.7,0 0,8.4 c 0,2 -0.5,3.6 -1.6,4.6 -1.1,1 -2.6,1.6 -4.5,1.6 -1.3,0 -2.6,-0.2 -4.1,-0.7 z"
             id="path7168"
             style="fill:#bfc6cf" />
          <path
             class="st951"
             d="m 476.4,919.3 c 0.8,0.3 1.6,0.6 2.5,0.8 0.9,0.2 1.7,0.3 2.5,0.3 1.2,0 2.2,-0.2 3.1,-0.5 0.9,-0.3 1.6,-0.8 2.2,-1.5 0.5,-0.7 0.8,-1.5 0.8,-2.5 l 0,-8.3 2.2,0 0,8.5 c 0,1.4 -0.4,2.5 -1.1,3.4 -0.7,0.9 -1.7,1.6 -2.9,2.1 -1.2,0.5 -2.6,0.7 -4.2,0.7 -1.2,0 -2.4,-0.1 -3.7,-0.4 -1.3,-0.3 -2.4,-0.7 -3.6,-1.2 l 0,-13.1 2.2,0 0,11.7 z m 4.2,-2.7 c 0.2,-0.6 0.2,-1.2 0.2,-1.9 l 0,-7.2 2.2,0 0,6.8 c 0,0.8 -0.1,1.6 -0.3,2.2 -0.2,0.6 -0.5,1.1 -0.9,1.6 l -1.9,-0.1 c 0.3,-0.4 0.5,-0.9 0.7,-1.4 z"
             id="path7170"
             style="fill:#bfc6cf" />
          <path
             class="st951"
             d="m 502.8,915.6 4.6,6.3 -2.5,0 -6.4,-8.8 c -0.9,0.5 -1.3,1.5 -1.3,2.8 l 0,6 -2.2,0 0,-5.2 c 0,-1.2 0.2,-2.3 0.6,-3.1 0.4,-0.8 1.1,-1.4 2,-1.8 l -3.1,-4.3 2.5,0 4.5,6.2 3.5,-6.2 2.6,0 -4.8,8.1 z"
             id="path7172"
             style="fill:#bfc6cf" />
        </g>
      </g>
    </g>
  </g>
</svg>
