<?xml version="1.0" encoding="UTF-8" standalone="no"?>
<svg
   xmlns:dc="http://purl.org/dc/elements/1.1/"
   xmlns:cc="http://creativecommons.org/ns#"
   xmlns:rdf="http://www.w3.org/1999/02/22-rdf-syntax-ns#"
   xmlns:svg="http://www.w3.org/2000/svg"
   xmlns="http://www.w3.org/2000/svg"
   version="1.1"
   id="svg4390"
   viewBox="0 0 171.89999 64.910005"
   height="64.910004"
   width="171.89999">
  <defs
     id="defs4392" />
  <metadata
     id="metadata4395">
    <rdf:RDF>
      <cc:Work
         rdf:about="">
        <dc:format>image/svg+xml</dc:format>
        <dc:type
           rdf:resource="http://purl.org/dc/dcmitype/StillImage" />
        <dc:title></dc:title>
      </cc:Work>
    </rdf:RDF>
  </metadata>
  <g
     transform="translate(-302.88857,-399.9072)"
     id="layer1">
    <polygon
       class="st943"
       points="-73,1622.63 -21.87,1605.15 -30.84,1558.15 "
       id="polygon7679"
       style="fill:#b48e59"
       transform="translate(461.83857,-1157.8128)" />
    <polygon
       class="st944"
       points="-30.83,1557.72 -21.87,1605.15 -151.45,1605.15 -158.95,1559.17 "
       id="polygon7681"
       style="fill:#d68a2a;fill-opacity:1"
       transform="translate(461.83857,-1157.8128)" />
    <g
       id="g7683"
       transform="translate(461.83857,-1157.8128)">
      <path
         class="st946"
         d="m -137.43,1567.98 -0.99,0 0,-1.6 2.99,0 0,12.87 -2,0 0,-11.27 z"
         id="path7685"
         style="fill:#ffffff" />
      <path
         class="st946"
         d="m -132.01,1567.98 -1.61,0 0,-1.6 3.65,0 0,5.38 -2.04,0 0,-3.78 z"
         id="path7687"
         style="fill:#ffffff" />
      <path
         class="st946"
         d="m -120.18,1566.38 0,5.58 c 0,0.89 -0.19,1.65 -0.56,2.27 -0.37,0.62 -0.89,1.1 -1.56,1.42 -0.67,0.32 -1.45,0.48 -2.34,0.48 -1.18,0 -2.38,-0.23 -3.6,-0.68 l 0.45,-1.5 c 0.87,0.33 1.66,0.53 2.36,0.61 -0.19,-0.19 -0.36,-0.41 -0.51,-0.67 -0.14,-0.25 -0.25,-0.52 -0.31,-0.81 l -1.52,-6.7 2.04,0 1.47,6.87 c 0.11,0.49 0.24,0.89 0.41,1.2 0.52,-0.17 0.93,-0.45 1.21,-0.85 0.29,-0.4 0.43,-0.92 0.43,-1.54 l 0,-5.67 2.03,0 z"
         id="path7689"
         style="fill:#ffffff" />
      <path
         class="st946"
         d="m -116.77,1567.98 -1.61,0 0,-1.6 3.65,0 0,5.38 -2.04,0 0,-3.78 z"
         id="path7691"
         style="fill:#ffffff" />
      <path
         class="st946"
         d="m -105.06,1566.38 0,1.6 -1.64,0 0,7.94 -2.04,0 0,-7.94 -4.26,0 0,-1.6 7.94,0 z"
         id="path7693"
         style="fill:#ffffff" />
      <path
         class="st946"
         d="m -102.86,1567.98 -0.96,0 0,-1.6 3,0 0,9.54 -2.04,0 0,-7.94 z"
         id="path7695"
         style="fill:#ffffff" />
      <path
         class="st946"
         d="m -97.47,1570.22 c 0.05,-0.43 0.17,-0.84 0.35,-1.23 0.18,-0.39 0.39,-0.69 0.63,-0.91 0.04,-0.04 0.08,-0.07 0.14,-0.1 l -0.02,-0.03 c -0.22,0.04 -0.49,0.1 -0.82,0.19 -0.33,0.09 -0.61,0.18 -0.86,0.27 l -0.45,-1.49 c 0.62,-0.22 1.33,-0.41 2.13,-0.54 0.8,-0.13 1.55,-0.2 2.25,-0.2 1.37,0 2.42,0.36 3.14,1.07 0.72,0.71 1.08,1.76 1.09,3.15 l 0,5.53 -4.06,0 0,-1.6 2.02,0 0,-4.19 c 0,-0.74 -0.16,-1.3 -0.47,-1.7 -0.32,-0.39 -0.77,-0.59 -1.36,-0.59 -0.48,0 -0.87,0.19 -1.17,0.56 -0.3,0.38 -0.49,0.9 -0.56,1.58 l -0.63,5.93 -2.01,0 0.66,-5.7 z"
         id="path7697"
         style="fill:#ffffff" />
      <path
         class="st946"
         d="m -76.31,1567.29 c 0.63,0.6 0.95,1.51 0.95,2.72 l 0,5.91 -2.03,0 -0.01,-6.05 c 0,-0.65 -0.14,-1.13 -0.42,-1.43 -0.28,-0.3 -0.72,-0.45 -1.32,-0.45 l -1.29,0 c -0.12,0.29 -0.22,0.64 -0.3,1.04 -0.07,0.4 -0.11,0.79 -0.11,1.18 l 0,2.96 c 0,0.93 -0.23,1.63 -0.7,2.13 -0.46,0.5 -1.13,0.74 -1.98,0.74 -0.33,0 -0.69,-0.03 -1.08,-0.09 l 0,-1.6 c 0.19,0.02 0.37,0.02 0.54,0.02 0.42,0 0.74,-0.11 0.94,-0.33 0.2,-0.22 0.3,-0.56 0.3,-1.03 l 0,-2.64 c 0,-0.42 0.06,-0.85 0.17,-1.29 0.11,-0.45 0.27,-0.81 0.46,-1.1 l -1.63,0 0,-1.6 4.66,0 c 1.27,0 2.22,0.3 2.85,0.91 z"
         id="path7699"
         style="fill:#ffffff" />
      <path
         class="st946"
         d="m -65.8,1566.38 0,1.6 -1.64,0 0,7.94 -2.04,0 0,-7.94 -4.27,0 0,-1.6 7.95,0 z"
         id="path7701"
         style="fill:#ffffff" />
      <path
         class="st946"
         d="m -63.3,1570.22 c 0.05,-0.43 0.17,-0.84 0.35,-1.23 0.18,-0.39 0.39,-0.69 0.63,-0.91 0.04,-0.04 0.08,-0.07 0.14,-0.1 l -0.02,-0.03 c -0.22,0.04 -0.49,0.1 -0.82,0.19 -0.33,0.09 -0.61,0.18 -0.86,0.27 l -0.45,-1.49 c 0.62,-0.22 1.33,-0.41 2.13,-0.54 0.8,-0.13 1.55,-0.2 2.25,-0.2 1.37,0 2.42,0.36 3.14,1.07 0.72,0.71 1.08,1.76 1.09,3.15 l 0,5.53 -4.06,0 0,-1.6 2.02,0 0,-4.19 c 0,-0.74 -0.16,-1.3 -0.47,-1.7 -0.32,-0.39 -0.77,-0.59 -1.36,-0.59 -0.48,0 -0.87,0.19 -1.17,0.56 -0.3,0.38 -0.49,0.9 -0.56,1.58 l -0.63,5.93 -2.01,0 0.66,-5.7 z"
         id="path7703"
         style="fill:#ffffff" />
      <path
         class="st946"
         d="m -46.04,1566.38 0,5.58 c 0,0.89 -0.19,1.65 -0.56,2.27 -0.37,0.62 -0.89,1.1 -1.56,1.42 -0.67,0.32 -1.45,0.48 -2.34,0.48 -1.18,0 -2.38,-0.23 -3.6,-0.68 l 0.45,-1.5 c 0.87,0.33 1.66,0.53 2.36,0.61 -0.19,-0.19 -0.36,-0.41 -0.51,-0.67 -0.14,-0.25 -0.25,-0.52 -0.31,-0.81 l -1.52,-6.7 2.04,0 1.47,6.87 c 0.11,0.49 0.24,0.89 0.41,1.2 0.52,-0.17 0.93,-0.45 1.21,-0.85 0.29,-0.4 0.43,-0.92 0.43,-1.54 l 0,-5.67 2.03,0 z"
         id="path7705"
         style="fill:#ffffff" />
      <path
         class="st946"
         d="m -141.87,1587.69 -1.61,0 0,-1.6 3.65,0 0,5.38 -2.04,0 0,-3.78 z"
         id="path7707"
         style="fill:#ffffff" />
      <path
         class="st946"
         d="m -135.33,1595.26 c -0.63,-0.37 -1.11,-0.89 -1.46,-1.56 -0.35,-0.67 -0.53,-1.44 -0.54,-2.32 l 0,-0.76 c 0,-0.35 0.04,-0.72 0.14,-1.09 0.1,-0.37 0.24,-0.72 0.41,-1.03 0.17,-0.31 0.36,-0.55 0.57,-0.73 0.04,-0.03 0.07,-0.06 0.11,-0.09 l -0.02,-0.03 c -0.17,0.03 -0.39,0.07 -0.67,0.14 -0.28,0.07 -0.54,0.14 -0.77,0.2 l -0.39,-1.5 c 0.64,-0.19 1.37,-0.34 2.19,-0.45 0.82,-0.11 1.59,-0.17 2.29,-0.17 0.94,0 1.74,0.17 2.41,0.52 0.67,0.35 1.18,0.86 1.53,1.53 0.35,0.67 0.53,1.48 0.53,2.43 l 0,1.04 c 0,0.88 -0.17,1.65 -0.52,2.32 -0.35,0.67 -0.84,1.19 -1.47,1.56 -0.63,0.37 -1.36,0.55 -2.18,0.55 -0.81,-0.01 -1.53,-0.19 -2.16,-0.56 z m 3.28,-1.48 c 0.32,-0.23 0.58,-0.55 0.75,-0.96 0.18,-0.41 0.27,-0.89 0.27,-1.43 l 0,-1.01 c 0,-0.89 -0.19,-1.59 -0.58,-2.09 -0.38,-0.5 -0.92,-0.75 -1.61,-0.75 -0.64,0 -1.15,0.26 -1.52,0.77 -0.37,0.52 -0.56,1.24 -0.57,2.17 l 0,0.9 c 0,0.54 0.09,1.02 0.27,1.43 0.18,0.41 0.43,0.73 0.75,0.96 0.32,0.23 0.69,0.34 1.12,0.34 0.42,0.01 0.8,-0.11 1.12,-0.33 z"
         id="path7709"
         style="fill:#ffffff" />
      <path
         class="st946"
         d="m -126.65,1595.74 c -0.26,-0.03 -0.55,-0.08 -0.87,-0.15 l 0.02,-1.55 c 0.36,0.06 0.75,0.09 1.17,0.09 0.4,0 0.7,-0.11 0.9,-0.34 0.2,-0.22 0.3,-0.57 0.3,-1.04 l 0,-5.06 -1.76,0 0,-1.6 3.79,0 0,6.82 c 0,0.92 -0.24,1.63 -0.71,2.13 -0.48,0.5 -1.15,0.75 -2.01,0.75 -0.3,0 -0.57,-0.02 -0.83,-0.05 z"
         id="path7711"
         style="fill:#ffffff" />
      <path
         class="st946"
         d="m -121.16,1595.38 0.32,-1.5 c 0.83,0.2 1.56,0.3 2.2,0.3 0.82,-0.01 1.44,-0.21 1.85,-0.59 0.41,-0.38 0.61,-0.94 0.61,-1.68 l 0,-4.23 -4.62,0 0,-1.6 6.66,0 0,5.44 c 0,1.43 -0.38,2.5 -1.13,3.2 -0.75,0.7 -1.8,1.05 -3.14,1.05 -0.81,0 -1.73,-0.13 -2.75,-0.39 z"
         id="path7713"
         style="fill:#ffffff" />
      <path
         class="st946"
         d="m -107.49,1587.76 -0.61,-0.13 0,-1.54 4.99,0 -0.01,1.6 -2.37,0 1.26,7.94 -2.09,0 -1.17,-7.87 z"
         id="path7715"
         style="fill:#ffffff" />
      <path
         class="st946"
         d="m -100.52,1587.69 -1.61,0 0,-1.6 3.65,0 0,5.38 -2.04,0 0,-3.78 z"
         id="path7717"
         style="fill:#ffffff" />
      <path
         class="st946"
         d="m -95.2,1587.69 -1.61,0 0,-1.6 3.65,0 0,5.38 -2.04,0 0,-3.78 z"
         id="path7719"
         style="fill:#ffffff" />
      <path
         class="st946"
         d="m -83.49,1586.09 0,1.6 -1.64,0 0,7.94 -2.04,0 0,-7.94 -4.27,0 0,-1.6 7.95,0 z"
         id="path7721"
         style="fill:#ffffff" />
      <path
         class="st946"
         d="m -81.61,1595.74 c -0.26,-0.03 -0.55,-0.08 -0.87,-0.15 l 0.02,-1.55 c 0.36,0.06 0.75,0.09 1.17,0.09 0.4,0 0.7,-0.11 0.9,-0.34 0.2,-0.22 0.3,-0.57 0.3,-1.04 l 0,-5.06 -1.76,0 0,-1.6 3.79,0 0,6.82 c 0,0.92 -0.24,1.63 -0.71,2.13 -0.48,0.5 -1.15,0.75 -2.01,0.75 -0.3,0 -0.57,-0.02 -0.83,-0.05 z"
         id="path7723"
         style="fill:#ffffff" />
      <path
         class="st946"
         d="m -75.47,1584.45 c 0.27,-0.56 0.63,-1.01 1.06,-1.37 l 1,0.63 c -0.24,0.36 -0.42,0.72 -0.55,1.1 -0.13,0.38 -0.19,0.79 -0.19,1.24 l 0,1.11 -1.73,0 0,-1.11 c 0,-0.51 0.14,-1.04 0.41,-1.6 z"
         id="path7725"
         style="fill:#ffffff" />
      <path
         class="st946"
         d="m -67.02,1591.33 2.31,3.34 0,0.95 -7.31,0 0,-1.6 4.7,0 -5.39,-7.93 2.28,0 2.22,3.46 1.76,-3.46 2.29,0 -2.86,5.24 z"
         id="path7727"
         style="fill:#ffffff" />
      <path
         class="st946"
         d="m -58.76,1589.16 c 0,-0.47 -0.13,-0.83 -0.4,-1.09 -0.27,-0.26 -0.64,-0.39 -1.13,-0.39 l -3.03,0 0,-1.6 3.14,0 c 0.72,0 1.33,0.13 1.85,0.38 0.52,0.25 0.92,0.62 1.19,1.1 0.27,0.48 0.41,1.05 0.41,1.71 l 0,6.34 -2.04,0 0,-6.45 z"
         id="path7729"
         style="fill:#ffffff" />
      <path
         class="st946"
         d="m -53.61,1589.93 c 0.05,-0.43 0.17,-0.84 0.35,-1.23 0.18,-0.39 0.39,-0.69 0.63,-0.91 0.04,-0.04 0.08,-0.07 0.14,-0.1 l -0.02,-0.03 c -0.22,0.04 -0.49,0.1 -0.82,0.19 -0.33,0.09 -0.61,0.18 -0.86,0.27 l -0.45,-1.49 c 0.62,-0.22 1.33,-0.4 2.13,-0.54 0.8,-0.14 1.55,-0.21 2.25,-0.21 1.37,0 2.42,0.36 3.14,1.07 0.72,0.71 1.08,1.76 1.09,3.15 l 0,5.53 -4.06,0 0,-1.6 2.02,0 0,-4.19 c 0,-0.74 -0.16,-1.3 -0.47,-1.7 -0.31,-0.4 -0.77,-0.59 -1.36,-0.59 -0.48,0 -0.87,0.19 -1.17,0.56 -0.3,0.37 -0.49,0.9 -0.56,1.58 l -0.63,5.93 -2.01,0 0.66,-5.69 z"
         id="path7731"
         style="fill:#ffffff" />
      <path
         class="st946"
         d="m -43.22,1587.69 -0.96,0 0,-1.6 3,0 0,9.54 -2.04,0 0,-7.94 z"
         id="path7733"
         style="fill:#ffffff" />
    </g>
  </g>
</svg>
