<?xml version="1.0" encoding="UTF-8" standalone="no"?>
<svg
   xmlns:dc="http://purl.org/dc/elements/1.1/"
   xmlns:cc="http://creativecommons.org/ns#"
   xmlns:rdf="http://www.w3.org/1999/02/22-rdf-syntax-ns#"
   xmlns:svg="http://www.w3.org/2000/svg"
   xmlns="http://www.w3.org/2000/svg"
   xmlns:xlink="http://www.w3.org/1999/xlink"
   xmlns:sodipodi="http://sodipodi.sourceforge.net/DTD/sodipodi-0.dtd"
   xmlns:inkscape="http://www.inkscape.org/namespaces/inkscape"
   version="1.1"
   id="svg5307"
   viewBox="0 0 26.700001 25.066451"
   height="25.06645"
   width="26.700001"
   inkscape:version="0.91 r13725"
   sodipodi:docname="cami2016_marker_toilet_selected.svg">
  <sodipodi:namedview
     pagecolor="#ffffff"
     bordercolor="#666666"
     borderopacity="1"
     objecttolerance="10"
     gridtolerance="10"
     guidetolerance="10"
     inkscape:pageopacity="0"
     inkscape:pageshadow="2"
     inkscape:window-width="930"
     inkscape:window-height="480"
     id="namedview48"
     showgrid="false"
     inkscape:zoom="9.414975"
     inkscape:cx="13.35"
     inkscape:cy="12.533225"
     inkscape:window-x="599"
     inkscape:window-y="320"
     inkscape:window-maximized="0"
     inkscape:current-layer="g197" />
  <defs
     id="defs5309">
    <clipPath
       id="SVGID_10_">
      <use
         height="100%"
         width="100%"
         y="0"
         x="0"
         xlink:href="#SVGID_9_"
         style="overflow:visible"
         id="use203" />
    </clipPath>
    <clipPath
       id="SVGID_12_">
      <use
         height="100%"
         width="100%"
         y="0"
         x="0"
         xlink:href="#SVGID_11_"
         style="overflow:visible"
         id="use212" />
    </clipPath>
    <clipPath
       id="SVGID_14_">
      <use
         height="100%"
         width="100%"
         y="0"
         x="0"
         xlink:href="#SVGID_13_"
         style="overflow:visible"
         id="use221" />
    </clipPath>
    <clipPath
       id="SVGID_16_">
      <use
         height="100%"
         width="100%"
         y="0"
         x="0"
         xlink:href="#SVGID_15_"
         style="overflow:visible"
         id="use230" />
    </clipPath>
    <clipPath
       id="SVGID_18_">
      <use
         height="100%"
         width="100%"
         y="0"
         x="0"
         xlink:href="#SVGID_17_"
         style="overflow:visible"
         id="use239" />
    </clipPath>
  </defs>
  <metadata
     id="metadata5312">
    <rdf:RDF>
      <cc:Work
         rdf:about="">
        <dc:format>image/svg+xml</dc:format>
        <dc:type
           rdf:resource="http://purl.org/dc/dcmitype/StillImage" />
        <dc:title></dc:title>
      </cc:Work>
    </rdf:RDF>
  </metadata>
  <g
     transform="translate(-309.50714,-471.25755)"
     id="layer1">
    <path
       style="fill:#411025"
       id="path325"
       class="st10"
       d="m 312.30714,471.55755 c 0.2,0 0.3,0 0.5,0.1 0.2,0 0.3,0.1 0.4,0.2 0.1,0.1 0.2,0.2 0.3,0.4 0.1,0.2 0.1,0.4 0.1,0.7 l 0,2.6 -3.6,0 0,-2.1 c 0,-0.2 0,-0.3 0,-0.5 0,-0.2 0.1,-0.3 0.1,-0.5 -0.1,0 -0.2,0 -0.3,-0.1 -0.1,0 -0.2,-0.1 -0.3,-0.1 0,-0.1 0.1,-0.3 0.1,-0.4 0,-0.1 0.1,-0.3 0.1,-0.4 0.1,0 0.2,0.1 0.3,0.1 0.1,0 0.2,0 0.3,0 0.1,0 0.2,0 0.3,0 0.1,0 0.2,0 0.3,0 l 1.4,0 0,0 z m 0.2,3.1 0,-1.5 c 0,-0.2 0,-0.3 0,-0.4 0,-0.1 0,-0.2 -0.1,-0.2 0,-0.1 -0.1,-0.1 -0.2,-0.1 -0.1,0 -0.2,0 -0.4,0 l -0.8,0 c 0,0.2 -0.1,0.3 -0.1,0.5 0,0.1 0,0.3 0,0.4 l 0,1.4 1.6,-0.1 0,0 z m 3.8,-3.1 0,1.4 c 0,0.1 0,0.2 0,0.3 0,0.1 0,0.2 0,0.2 0,0.1 0,0.1 0,0.2 0,0.1 0,0.1 0,0.2 l -1,-0.1 c 0,-0.1 0,-0.1 0,-0.2 0,-0.1 0,-0.1 0,-0.2 0,-0.1 0,-0.1 0,-0.2 0,-0.1 0,-0.2 0,-0.3 l 0,-0.5 -0.9,0 0,-0.8 1.9,0 z m 3.5,0 c 0.2,0 0.3,0 0.5,0.1 0.2,0 0.3,0.1 0.4,0.2 0.1,0.1 0.2,0.2 0.3,0.4 0.1,0.2 0.1,0.4 0.1,0.7 l 0,2.6 -1,0 0,-2.3 c 0,-0.2 0,-0.3 0,-0.4 0,-0.1 0,-0.2 -0.1,-0.2 -0.1,0 -0.1,-0.1 -0.2,-0.1 -0.1,0 -0.2,0 -0.4,0 l -0.6,0 c -0.1,0.2 -0.1,0.4 -0.2,0.6 0,0.2 0,0.4 0,0.6 0,0.1 0,0.2 0,0.3 0,0.1 0,0.2 0,0.3 0,0.1 0,0.2 0.1,0.3 0.1,0.1 0,0.2 0.1,0.3 l 0.1,0.2 c 0,0.1 0,0.2 0,0.3 0,0.1 0,0.2 -0.1,0.3 l -1.8,0 0,-0.8 0.9,0 c -0.1,-0.2 -0.1,-0.4 -0.1,-0.6 0,-0.2 0,-0.4 0,-0.5 0,-0.1 0,-0.3 0,-0.4 0,-0.1 0,-0.3 0.1,-0.4 0,-0.1 0,-0.1 0.1,-0.2 0.1,-0.1 0,-0.1 0.1,-0.2 -0.1,0 -0.2,0 -0.3,-0.1 -0.1,0 -0.2,-0.1 -0.4,-0.1 0,-0.1 0.1,-0.3 0.1,-0.4 0,-0.1 0.1,-0.3 0.1,-0.4 0.1,0 0.2,0.1 0.3,0.1 0.1,0 0.2,0 0.3,0 0.1,0 0.2,0 0.3,0 0.1,0 0.2,0 0.3,0 l 1,0 0,-0.2 z m 3.9,0 0,3.9 -1,0 0,-3.1 -0.7,0 0,-0.8 1.7,0 z m 2.1,0.8 c -0.1,0 -0.2,0 -0.3,0 -0.1,0 -0.2,0 -0.3,0 -0.1,0 -0.2,0 -0.3,-0.1 -0.1,-0.1 -0.2,-0.1 -0.3,-0.1 0,-0.1 0.1,-0.3 0.1,-0.4 0,-0.1 0.1,-0.3 0.1,-0.4 0.1,0 0.2,0.1 0.3,0.1 0.1,0 0.2,0 0.3,0 0.1,0 0.2,0 0.3,0 0.1,0 0.2,0 0.3,0 l 0.5,0 c 0.2,0 0.3,0 0.5,0.1 0.2,0 0.3,0.1 0.4,0.2 0.1,0.1 0.2,0.2 0.3,0.4 0.1,0.2 0.1,0.4 0.1,0.7 l 0,2.6 -1,0 0,-2.3 c 0,-0.2 0,-0.3 0,-0.4 0,-0.1 0,-0.2 -0.1,-0.2 -0.1,0 -0.1,-0.1 -0.2,-0.1 -0.1,0 -0.2,0 -0.4,0 l -0.3,0 0,-0.1 z m 4.7,-0.8 0,1.4 c 0,0.1 0,0.2 0,0.3 0,0.1 0,0.2 0,0.2 0,0.1 0,0.1 0,0.2 0,0.1 0,0.1 0,0.2 l -1,-0.1 c 0,-0.1 0,-0.1 0,-0.2 0,-0.1 0,-0.1 0,-0.2 0,-0.1 0,-0.1 0,-0.2 0,-0.1 0,-0.2 0,-0.3 l 0,-0.5 -0.9,0 0,-0.8 1.9,0 z m 2.1,3.2 c 0,0 0.1,0 0.2,0 0.1,0 0.1,0 0.2,0 0.1,0 0.3,0 0.5,0 0.2,0 0.3,-0.1 0.5,-0.1 0.1,-0.1 0.3,-0.2 0.4,-0.3 0.1,-0.1 0.3,-0.3 0.3,-0.4 0.1,-0.3 0.2,-0.5 0.3,-0.8 0.1,-0.3 0.1,-0.5 0.1,-0.8 0,-0.1 0,-0.2 0,-0.3 0,-0.1 0,-0.2 0,-0.3 0.1,0 0.2,-0.1 0.3,-0.1 0.1,0 0.2,0 0.2,0 0.1,0 0.1,0 0.2,0 0.1,0 0.2,0 0.3,0 0,0.1 0,0.2 0.1,0.4 0,0.1 0,0.3 0,0.4 0,0.1 0,0.2 0,0.4 0,0.1 0,0.2 0,0.3 -0.1,0.9 -0.5,1.6 -1,2.1 -0.5,0.5 -1.3,0.7 -2.3,0.7 -0.2,0 -0.3,0 -0.5,0 -0.2,0 -0.4,0 -0.6,-0.1 l -0.2,-2.3 c 0,-0.1 0,-0.2 0,-0.3 0,-0.1 0,-0.2 0,-0.3 0,-0.1 0,-0.1 0,-0.2 0,-0.1 0,-0.1 0,-0.2 0,-0.1 0,-0.1 -0.1,-0.2 0,-0.1 -0.1,-0.2 -0.1,-0.3 0.1,-0.1 0.3,-0.1 0.4,-0.2 0.2,-0.1 0.3,-0.1 0.5,-0.2 0.1,0.1 0.1,0.3 0.2,0.4 0,0.1 0.1,0.2 0.1,0.4 0,0.2 0,0.3 0,0.4 0,0.1 0,0.3 0,0.5 l 0,1.4 0,0 z m 0.4,-1.9 c 0,-0.1 0.1,-0.2 0.1,-0.3 0,-0.1 0,-0.1 0.1,-0.2 0,-0.1 0,-0.1 0,-0.2 0,-0.1 0,-0.1 0,-0.2 0,0 0,0 0,-0.1 0,0 0,0 0,-0.1 l 0,-0.1 c 0,0 0,-0.1 0,-0.2 0.2,0 0.3,-0.1 0.5,-0.1 0.2,0 0.3,-0.1 0.5,-0.1 0,0.1 0.1,0.2 0.1,0.3 0,0.1 0,0.2 0,0.3 0,0.1 0,0.1 0,0.2 0,0.1 0,0.2 -0.1,0.2 0,0.1 -0.1,0.2 -0.1,0.3 0,0.1 -0.1,0.2 -0.1,0.3 l -0.3,0.7 c -0.1,0 -0.2,-0.1 -0.3,-0.1 -0.1,0 -0.1,0 -0.2,-0.1 -0.1,0 -0.1,0 -0.2,-0.1 -0.1,0 -0.2,-0.1 -0.2,-0.1 l 0.2,-0.3 0,0 z" />
    <g
       id="g327"
       transform="translate(463.35714,-454.876)">
      <g
         id="g197">
        <defs
           id="defs199">
          <rect
             id="SVGID_9_"
             x="-658.29999"
             y="457.5"
             width="554"
             height="1157.5" />
        </defs>
        <clipPath
           id="clipPath5270">
          <use
             height="100%"
             width="100%"
             y="0"
             x="0"
             xlink:href="#SVGID_9_"
             style="overflow:visible"
             id="use5272" />
        </clipPath>
        <path
           style="fill:#c31a3b;fill-opacity:1"
           id="path335"
           class="st12"
           d="m -134.3,938.4 c 0,3.4 -6.2,12.8 -6.2,12.8 0,0 -6.2,-9.4 -6.2,-12.8 0,-3.4 2.8,-6.2 6.2,-6.2 3.4,0 6.2,2.8 6.2,6.2"
           clip-path="url(#SVGID_10_)"
           inkscape:connector-curvature="0" />
      </g>
      <g
         id="g206">
        <defs
           id="defs208">
          <rect
             id="SVGID_11_"
             x="-658.29999"
             y="457.5"
             width="554"
             height="1157.5" />
        </defs>
        <clipPath
           id="clipPath5278">
          <use
             height="100%"
             width="100%"
             y="0"
             x="0"
             xlink:href="#SVGID_11_"
             style="overflow:visible"
             id="use5280" />
        </clipPath>
        <path
           style="fill:#ffffff"
           id="path337"
           class="st13"
           d="m -144.2,943 c 0,0.3 0.1,0.4 0.4,0.4 0.3,0 0.4,-0.1 0.4,-0.4 l 0,-3.6 0.4,0 0,3.6 c 0,0.3 0.1,0.4 0.4,0.4 0.3,0 0.4,-0.1 0.4,-0.4 l 0,-6.1 0.2,0 0,2.2 c 0,0.1 0,0.2 0.1,0.3 0.1,0.1 0.2,0.1 0.3,0 0.1,-0.1 0.2,-0.2 0.2,-0.3 l 0,-2.4 c 0,-0.3 -0.1,-0.5 -0.3,-0.6 -0.2,-0.1 -0.4,-0.2 -0.7,-0.2 l -1.6,0 c -0.3,0 -0.5,0.1 -0.7,0.2 -0.2,0.1 -0.3,0.3 -0.3,0.6 l 0,2.5 c 0,0.1 0.1,0.2 0.2,0.2 0.1,0.1 0.2,0.1 0.3,0 0.1,-0.1 0.1,-0.1 0.1,-0.2 l 0,-2.3 0.2,0 0,6.1 0,0 z"
           clip-path="url(#SVGID_12_)"
           inkscape:connector-curvature="0" />
      </g>
      <g
         id="g215">
        <defs
           id="defs217">
          <rect
             id="SVGID_13_"
             x="-658.29999"
             y="457.5"
             width="554"
             height="1157.5" />
        </defs>
        <clipPath
           id="clipPath5286">
          <use
             height="100%"
             width="100%"
             y="0"
             x="0"
             xlink:href="#SVGID_13_"
             style="overflow:visible"
             id="use5288" />
        </clipPath>
        <path
           style="fill:#ffffff"
           id="path339"
           class="st14"
           d="m -136.4,940.1 -1.1,-3.2 0,0 c 0,-0.1 0,-0.1 0.1,-0.1 0,0 0.1,0 0.1,0.1 l 0.8,2 c 0.1,0.1 0.2,0.2 0.4,0.2 0.1,0 0.1,-0.1 0.2,-0.2 0,-0.1 0,-0.2 0,-0.2 l -0.8,-2 c 0,-0.2 -0.1,-0.4 -0.3,-0.6 -0.2,-0.2 -0.4,-0.2 -0.7,-0.2 l -1,0 c -0.3,0 -0.5,0.1 -0.7,0.3 -0.2,0.2 -0.3,0.4 -0.4,0.6 l -0.7,2 c 0,0 0,0.1 0,0.2 0,0.1 0.1,0.2 0.2,0.2 0.2,0 0.4,-0.1 0.4,-0.2 l 0.8,-2.1 c 0,0 0,-0.1 0.1,-0.1 0.1,0 0.1,0 0.1,0.1 l 0,0 -1.1,3.2 0,0.2 c 0,0 0,0.1 0.1,0.1 0.1,0.1 0.1,0.1 0.1,0.1 l 0.7,0 0,2.5 c 0,0.1 0,0.2 0.1,0.3 0.1,0.1 0.2,0.1 0.3,0.1 0.1,0 0.2,0 0.3,-0.1 0.1,-0.1 0.1,-0.2 0.1,-0.3 l 0,-2.5 c 0,0 0,0 0.1,0 0.1,0 0.1,0 0.2,0 0.1,0 0.1,0 0.1,0 l 0,2.5 c 0,0.1 0,0.2 0.1,0.3 0.1,0.1 0.2,0.1 0.3,0.1 0.1,0 0.2,0 0.3,-0.1 0.1,-0.1 0.1,-0.2 0.1,-0.3 l 0,-2.4 0.7,0 c 0,0 0.1,0 0.1,-0.1 0.1,-0.1 0.1,-0.1 0.1,-0.1 l 0,-0.3 -0.2,0 z"
           clip-path="url(#SVGID_14_)"
           inkscape:connector-curvature="0" />
      </g>
      <g
         id="g224">
        <defs
           id="defs226">
          <rect
             id="SVGID_15_"
             x="-658.29999"
             y="457.5"
             width="554"
             height="1157.5" />
        </defs>
        <clipPath
           id="clipPath5294">
          <use
             height="100%"
             width="100%"
             y="0"
             x="0"
             xlink:href="#SVGID_15_"
             style="overflow:visible"
             id="use5296" />
        </clipPath>
        <path
           style="fill:#ffffff"
           id="path341"
           class="st15"
           d="m -144.1,934.8 c 0,0.2 0.1,0.4 0.2,0.6 0.2,0.2 0.3,0.2 0.6,0.2 0.3,0 0.4,-0.1 0.6,-0.2 0.2,-0.2 0.2,-0.4 0.2,-0.6 0,-0.2 -0.1,-0.4 -0.2,-0.6 -0.2,-0.2 -0.3,-0.2 -0.6,-0.2 -0.3,0 -0.4,0.1 -0.6,0.2 -0.1,0.2 -0.2,0.4 -0.2,0.6"
           clip-path="url(#SVGID_16_)"
           inkscape:connector-curvature="0" />
      </g>
      <g
         id="g233">
        <defs
           id="defs235">
          <rect
             id="SVGID_17_"
             x="-658.29999"
             y="457.5"
             width="554"
             height="1157.5" />
        </defs>
        <clipPath
           id="clipPath5302">
          <use
             height="100%"
             width="100%"
             y="0"
             x="0"
             xlink:href="#SVGID_17_"
             style="overflow:visible"
             id="use5304" />
        </clipPath>
        <path
           style="fill:#ffffff"
           id="path343"
           class="st16"
           d="m -139.2,934.8 c 0,0.2 0.1,0.4 0.2,0.6 0.2,0.2 0.3,0.2 0.6,0.2 0.3,0 0.4,-0.1 0.6,-0.2 0.2,-0.2 0.2,-0.3 0.2,-0.6 0,-0.2 -0.1,-0.4 -0.2,-0.6 -0.2,-0.2 -0.3,-0.2 -0.6,-0.2 -0.3,0 -0.4,0.1 -0.6,0.2 -0.1,0.2 -0.2,0.4 -0.2,0.6"
           clip-path="url(#SVGID_18_)"
           inkscape:connector-curvature="0" />
      </g>
    </g>
  </g>
</svg>
