<?xml version="1.0" encoding="UTF-8" standalone="no"?>
<svg
   xmlns:dc="http://purl.org/dc/elements/1.1/"
   xmlns:cc="http://creativecommons.org/ns#"
   xmlns:rdf="http://www.w3.org/1999/02/22-rdf-syntax-ns#"
   xmlns:svg="http://www.w3.org/2000/svg"
   xmlns="http://www.w3.org/2000/svg"
   xmlns:xlink="http://www.w3.org/1999/xlink"
   width="26.700001"
   height="25.06645"
   viewBox="0 0 26.700001 25.066451"
   id="svg5307"
   version="1.1">
  <defs
     id="defs5309">
    <clipPath
       id="SVGID_10_">
      <use
         id="use203"
         style="overflow:visible"
         xlink:href="#SVGID_9_"
         x="0"
         y="0"
         width="100%"
         height="100%" />
    </clipPath>
    <clipPath
       id="SVGID_12_">
      <use
         id="use212"
         style="overflow:visible"
         xlink:href="#SVGID_11_"
         x="0"
         y="0"
         width="100%"
         height="100%" />
    </clipPath>
    <clipPath
       id="SVGID_14_">
      <use
         id="use221"
         style="overflow:visible"
         xlink:href="#SVGID_13_"
         x="0"
         y="0"
         width="100%"
         height="100%" />
    </clipPath>
    <clipPath
       id="SVGID_16_">
      <use
         id="use230"
         style="overflow:visible"
         xlink:href="#SVGID_15_"
         x="0"
         y="0"
         width="100%"
         height="100%" />
    </clipPath>
    <clipPath
       id="SVGID_18_">
      <use
         id="use239"
         style="overflow:visible"
         xlink:href="#SVGID_17_"
         x="0"
         y="0"
         width="100%"
         height="100%" />
    </clipPath>
  </defs>
  <metadata
     id="metadata5312">
    <rdf:RDF>
      <cc:Work
         rdf:about="">
        <dc:format>image/svg+xml</dc:format>
        <dc:type
           rdf:resource="http://purl.org/dc/dcmitype/StillImage" />
        <dc:title></dc:title>
      </cc:Work>
    </rdf:RDF>
  </metadata>
  <g
     id="layer1"
     transform="translate(-309.50714,-471.25755)">
    <path
       d="m 312.30714,471.55755 c 0.2,0 0.3,0 0.5,0.1 0.2,0 0.3,0.1 0.4,0.2 0.1,0.1 0.2,0.2 0.3,0.4 0.1,0.2 0.1,0.4 0.1,0.7 l 0,2.6 -3.6,0 0,-2.1 c 0,-0.2 0,-0.3 0,-0.5 0,-0.2 0.1,-0.3 0.1,-0.5 -0.1,0 -0.2,0 -0.3,-0.1 -0.1,0 -0.2,-0.1 -0.3,-0.1 0,-0.1 0.1,-0.3 0.1,-0.4 0,-0.1 0.1,-0.3 0.1,-0.4 0.1,0 0.2,0.1 0.3,0.1 0.1,0 0.2,0 0.3,0 0.1,0 0.2,0 0.3,0 0.1,0 0.2,0 0.3,0 l 1.4,0 0,0 z m 0.2,3.1 0,-1.5 c 0,-0.2 0,-0.3 0,-0.4 0,-0.1 0,-0.2 -0.1,-0.2 0,-0.1 -0.1,-0.1 -0.2,-0.1 -0.1,0 -0.2,0 -0.4,0 l -0.8,0 c 0,0.2 -0.1,0.3 -0.1,0.5 0,0.1 0,0.3 0,0.4 l 0,1.4 1.6,-0.1 0,0 z m 3.8,-3.1 0,1.4 c 0,0.1 0,0.2 0,0.3 0,0.1 0,0.2 0,0.2 0,0.1 0,0.1 0,0.2 0,0.1 0,0.1 0,0.2 l -1,-0.1 c 0,-0.1 0,-0.1 0,-0.2 0,-0.1 0,-0.1 0,-0.2 0,-0.1 0,-0.1 0,-0.2 0,-0.1 0,-0.2 0,-0.3 l 0,-0.5 -0.9,0 0,-0.8 1.9,0 z m 3.5,0 c 0.2,0 0.3,0 0.5,0.1 0.2,0 0.3,0.1 0.4,0.2 0.1,0.1 0.2,0.2 0.3,0.4 0.1,0.2 0.1,0.4 0.1,0.7 l 0,2.6 -1,0 0,-2.3 c 0,-0.2 0,-0.3 0,-0.4 0,-0.1 0,-0.2 -0.1,-0.2 -0.1,0 -0.1,-0.1 -0.2,-0.1 -0.1,0 -0.2,0 -0.4,0 l -0.6,0 c -0.1,0.2 -0.1,0.4 -0.2,0.6 0,0.2 0,0.4 0,0.6 0,0.1 0,0.2 0,0.3 0,0.1 0,0.2 0,0.3 0,0.1 0,0.2 0.1,0.3 0.1,0.1 0,0.2 0.1,0.3 l 0.1,0.2 c 0,0.1 0,0.2 0,0.3 0,0.1 0,0.2 -0.1,0.3 l -1.8,0 0,-0.8 0.9,0 c -0.1,-0.2 -0.1,-0.4 -0.1,-0.6 0,-0.2 0,-0.4 0,-0.5 0,-0.1 0,-0.3 0,-0.4 0,-0.1 0,-0.3 0.1,-0.4 0,-0.1 0,-0.1 0.1,-0.2 0.1,-0.1 0,-0.1 0.1,-0.2 -0.1,0 -0.2,0 -0.3,-0.1 -0.1,0 -0.2,-0.1 -0.4,-0.1 0,-0.1 0.1,-0.3 0.1,-0.4 0,-0.1 0.1,-0.3 0.1,-0.4 0.1,0 0.2,0.1 0.3,0.1 0.1,0 0.2,0 0.3,0 0.1,0 0.2,0 0.3,0 0.1,0 0.2,0 0.3,0 l 1,0 0,-0.2 z m 3.9,0 0,3.9 -1,0 0,-3.1 -0.7,0 0,-0.8 1.7,0 z m 2.1,0.8 c -0.1,0 -0.2,0 -0.3,0 -0.1,0 -0.2,0 -0.3,0 -0.1,0 -0.2,0 -0.3,-0.1 -0.1,-0.1 -0.2,-0.1 -0.3,-0.1 0,-0.1 0.1,-0.3 0.1,-0.4 0,-0.1 0.1,-0.3 0.1,-0.4 0.1,0 0.2,0.1 0.3,0.1 0.1,0 0.2,0 0.3,0 0.1,0 0.2,0 0.3,0 0.1,0 0.2,0 0.3,0 l 0.5,0 c 0.2,0 0.3,0 0.5,0.1 0.2,0 0.3,0.1 0.4,0.2 0.1,0.1 0.2,0.2 0.3,0.4 0.1,0.2 0.1,0.4 0.1,0.7 l 0,2.6 -1,0 0,-2.3 c 0,-0.2 0,-0.3 0,-0.4 0,-0.1 0,-0.2 -0.1,-0.2 -0.1,0 -0.1,-0.1 -0.2,-0.1 -0.1,0 -0.2,0 -0.4,0 l -0.3,0 0,-0.1 z m 4.7,-0.8 0,1.4 c 0,0.1 0,0.2 0,0.3 0,0.1 0,0.2 0,0.2 0,0.1 0,0.1 0,0.2 0,0.1 0,0.1 0,0.2 l -1,-0.1 c 0,-0.1 0,-0.1 0,-0.2 0,-0.1 0,-0.1 0,-0.2 0,-0.1 0,-0.1 0,-0.2 0,-0.1 0,-0.2 0,-0.3 l 0,-0.5 -0.9,0 0,-0.8 1.9,0 z m 2.1,3.2 c 0,0 0.1,0 0.2,0 0.1,0 0.1,0 0.2,0 0.1,0 0.3,0 0.5,0 0.2,0 0.3,-0.1 0.5,-0.1 0.1,-0.1 0.3,-0.2 0.4,-0.3 0.1,-0.1 0.3,-0.3 0.3,-0.4 0.1,-0.3 0.2,-0.5 0.3,-0.8 0.1,-0.3 0.1,-0.5 0.1,-0.8 0,-0.1 0,-0.2 0,-0.3 0,-0.1 0,-0.2 0,-0.3 0.1,0 0.2,-0.1 0.3,-0.1 0.1,0 0.2,0 0.2,0 0.1,0 0.1,0 0.2,0 0.1,0 0.2,0 0.3,0 0,0.1 0,0.2 0.1,0.4 0,0.1 0,0.3 0,0.4 0,0.1 0,0.2 0,0.4 0,0.1 0,0.2 0,0.3 -0.1,0.9 -0.5,1.6 -1,2.1 -0.5,0.5 -1.3,0.7 -2.3,0.7 -0.2,0 -0.3,0 -0.5,0 -0.2,0 -0.4,0 -0.6,-0.1 l -0.2,-2.3 c 0,-0.1 0,-0.2 0,-0.3 0,-0.1 0,-0.2 0,-0.3 0,-0.1 0,-0.1 0,-0.2 0,-0.1 0,-0.1 0,-0.2 0,-0.1 0,-0.1 -0.1,-0.2 0,-0.1 -0.1,-0.2 -0.1,-0.3 0.1,-0.1 0.3,-0.1 0.4,-0.2 0.2,-0.1 0.3,-0.1 0.5,-0.2 0.1,0.1 0.1,0.3 0.2,0.4 0,0.1 0.1,0.2 0.1,0.4 0,0.2 0,0.3 0,0.4 0,0.1 0,0.3 0,0.5 l 0,1.4 0,0 z m 0.4,-1.9 c 0,-0.1 0.1,-0.2 0.1,-0.3 0,-0.1 0,-0.1 0.1,-0.2 0,-0.1 0,-0.1 0,-0.2 0,-0.1 0,-0.1 0,-0.2 0,0 0,0 0,-0.1 0,0 0,0 0,-0.1 l 0,-0.1 c 0,0 0,-0.1 0,-0.2 0.2,0 0.3,-0.1 0.5,-0.1 0.2,0 0.3,-0.1 0.5,-0.1 0,0.1 0.1,0.2 0.1,0.3 0,0.1 0,0.2 0,0.3 0,0.1 0,0.1 0,0.2 0,0.1 0,0.2 -0.1,0.2 0,0.1 -0.1,0.2 -0.1,0.3 0,0.1 -0.1,0.2 -0.1,0.3 l -0.3,0.7 c -0.1,0 -0.2,-0.1 -0.3,-0.1 -0.1,0 -0.1,0 -0.2,-0.1 -0.1,0 -0.1,0 -0.2,-0.1 -0.1,0 -0.2,-0.1 -0.2,-0.1 l 0.2,-0.3 0,0 z"
       class="st10"
       id="path325"
       style="fill:#411025" />
    <g
       transform="translate(463.35714,-454.876)"
       id="g327">
      <g
         id="g197">
        <defs
           id="defs199">
          <rect
             height="1157.5"
             width="554"
             y="457.5"
             x="-658.29999"
             id="SVGID_9_" />
        </defs>
        <clipPath
           id="clipPath5270">
          <use
             id="use5272"
             style="overflow:visible"
             xlink:href="#SVGID_9_"
             x="0"
             y="0"
             width="100%"
             height="100%" />
        </clipPath>
        <path
           clip-path="url(#SVGID_10_)"
           d="m -134.3,938.4 c 0,3.4 -6.2,12.8 -6.2,12.8 0,0 -6.2,-9.4 -6.2,-12.8 0,-3.4 2.8,-6.2 6.2,-6.2 3.4,0 6.2,2.8 6.2,6.2"
           class="st12"
           id="path335"
           style="fill:#411025" />
      </g>
      <g
         id="g206">
        <defs
           id="defs208">
          <rect
             height="1157.5"
             width="554"
             y="457.5"
             x="-658.29999"
             id="SVGID_11_" />
        </defs>
        <clipPath
           id="clipPath5278">
          <use
             id="use5280"
             style="overflow:visible"
             xlink:href="#SVGID_11_"
             x="0"
             y="0"
             width="100%"
             height="100%" />
        </clipPath>
        <path
           clip-path="url(#SVGID_12_)"
           d="m -144.2,943 c 0,0.3 0.1,0.4 0.4,0.4 0.3,0 0.4,-0.1 0.4,-0.4 l 0,-3.6 0.4,0 0,3.6 c 0,0.3 0.1,0.4 0.4,0.4 0.3,0 0.4,-0.1 0.4,-0.4 l 0,-6.1 0.2,0 0,2.2 c 0,0.1 0,0.2 0.1,0.3 0.1,0.1 0.2,0.1 0.3,0 0.1,-0.1 0.2,-0.2 0.2,-0.3 l 0,-2.4 c 0,-0.3 -0.1,-0.5 -0.3,-0.6 -0.2,-0.1 -0.4,-0.2 -0.7,-0.2 l -1.6,0 c -0.3,0 -0.5,0.1 -0.7,0.2 -0.2,0.1 -0.3,0.3 -0.3,0.6 l 0,2.5 c 0,0.1 0.1,0.2 0.2,0.2 0.1,0.1 0.2,0.1 0.3,0 0.1,-0.1 0.1,-0.1 0.1,-0.2 l 0,-2.3 0.2,0 0,6.1 0,0 z"
           class="st13"
           id="path337"
           style="fill:#ffffff" />
      </g>
      <g
         id="g215">
        <defs
           id="defs217">
          <rect
             height="1157.5"
             width="554"
             y="457.5"
             x="-658.29999"
             id="SVGID_13_" />
        </defs>
        <clipPath
           id="clipPath5286">
          <use
             id="use5288"
             style="overflow:visible"
             xlink:href="#SVGID_13_"
             x="0"
             y="0"
             width="100%"
             height="100%" />
        </clipPath>
        <path
           clip-path="url(#SVGID_14_)"
           d="m -136.4,940.1 -1.1,-3.2 0,0 c 0,-0.1 0,-0.1 0.1,-0.1 0,0 0.1,0 0.1,0.1 l 0.8,2 c 0.1,0.1 0.2,0.2 0.4,0.2 0.1,0 0.1,-0.1 0.2,-0.2 0,-0.1 0,-0.2 0,-0.2 l -0.8,-2 c 0,-0.2 -0.1,-0.4 -0.3,-0.6 -0.2,-0.2 -0.4,-0.2 -0.7,-0.2 l -1,0 c -0.3,0 -0.5,0.1 -0.7,0.3 -0.2,0.2 -0.3,0.4 -0.4,0.6 l -0.7,2 c 0,0 0,0.1 0,0.2 0,0.1 0.1,0.2 0.2,0.2 0.2,0 0.4,-0.1 0.4,-0.2 l 0.8,-2.1 c 0,0 0,-0.1 0.1,-0.1 0.1,0 0.1,0 0.1,0.1 l 0,0 -1.1,3.2 0,0.2 c 0,0 0,0.1 0.1,0.1 0.1,0.1 0.1,0.1 0.1,0.1 l 0.7,0 0,2.5 c 0,0.1 0,0.2 0.1,0.3 0.1,0.1 0.2,0.1 0.3,0.1 0.1,0 0.2,0 0.3,-0.1 0.1,-0.1 0.1,-0.2 0.1,-0.3 l 0,-2.5 c 0,0 0,0 0.1,0 0.1,0 0.1,0 0.2,0 0.1,0 0.1,0 0.1,0 l 0,2.5 c 0,0.1 0,0.2 0.1,0.3 0.1,0.1 0.2,0.1 0.3,0.1 0.1,0 0.2,0 0.3,-0.1 0.1,-0.1 0.1,-0.2 0.1,-0.3 l 0,-2.4 0.7,0 c 0,0 0.1,0 0.1,-0.1 0.1,-0.1 0.1,-0.1 0.1,-0.1 l 0,-0.3 -0.2,0 z"
           class="st14"
           id="path339"
           style="fill:#ffffff" />
      </g>
      <g
         id="g224">
        <defs
           id="defs226">
          <rect
             height="1157.5"
             width="554"
             y="457.5"
             x="-658.29999"
             id="SVGID_15_" />
        </defs>
        <clipPath
           id="clipPath5294">
          <use
             id="use5296"
             style="overflow:visible"
             xlink:href="#SVGID_15_"
             x="0"
             y="0"
             width="100%"
             height="100%" />
        </clipPath>
        <path
           clip-path="url(#SVGID_16_)"
           d="m -144.1,934.8 c 0,0.2 0.1,0.4 0.2,0.6 0.2,0.2 0.3,0.2 0.6,0.2 0.3,0 0.4,-0.1 0.6,-0.2 0.2,-0.2 0.2,-0.4 0.2,-0.6 0,-0.2 -0.1,-0.4 -0.2,-0.6 -0.2,-0.2 -0.3,-0.2 -0.6,-0.2 -0.3,0 -0.4,0.1 -0.6,0.2 -0.1,0.2 -0.2,0.4 -0.2,0.6"
           class="st15"
           id="path341"
           style="fill:#ffffff" />
      </g>
      <g
         id="g233">
        <defs
           id="defs235">
          <rect
             height="1157.5"
             width="554"
             y="457.5"
             x="-658.29999"
             id="SVGID_17_" />
        </defs>
        <clipPath
           id="clipPath5302">
          <use
             id="use5304"
             style="overflow:visible"
             xlink:href="#SVGID_17_"
             x="0"
             y="0"
             width="100%"
             height="100%" />
        </clipPath>
        <path
           clip-path="url(#SVGID_18_)"
           d="m -139.2,934.8 c 0,0.2 0.1,0.4 0.2,0.6 0.2,0.2 0.3,0.2 0.6,0.2 0.3,0 0.4,-0.1 0.6,-0.2 0.2,-0.2 0.2,-0.3 0.2,-0.6 0,-0.2 -0.1,-0.4 -0.2,-0.6 -0.2,-0.2 -0.3,-0.2 -0.6,-0.2 -0.3,0 -0.4,0.1 -0.6,0.2 -0.1,0.2 -0.2,0.4 -0.2,0.6"
           class="st16"
           id="path343"
           style="fill:#ffffff" />
      </g>
    </g>
  </g>
</svg>
