<?xml version="1.0" encoding="UTF-8" standalone="no"?>
<svg
   xmlns:dc="http://purl.org/dc/elements/1.1/"
   xmlns:cc="http://creativecommons.org/ns#"
   xmlns:rdf="http://www.w3.org/1999/02/22-rdf-syntax-ns#"
   xmlns:svg="http://www.w3.org/2000/svg"
   xmlns="http://www.w3.org/2000/svg"
   width="179.96001"
   height="83.400002"
   viewBox="0 0 179.96001 83.400003"
   id="svg3730"
   version="1.1">
  <defs
     id="defs3732" />
  <metadata
     id="metadata3735">
    <rdf:RDF>
      <cc:Work
         rdf:about="">
        <dc:format>image/svg+xml</dc:format>
        <dc:type
           rdf:resource="http://purl.org/dc/dcmitype/StillImage" />
        <dc:title></dc:title>
      </cc:Work>
    </rdf:RDF>
  </metadata>
  <g
     id="layer1"
     transform="translate(-289.42357,-416.37649)">
    <polygon
       style="fill:#b48e59"
       id="polygon7280"
       points="1363.97,165.04 1355.5,120.63 1289.94,203.62 "
       class="st943"
       transform="translate(-910.53643,296.15649)" />
    <polygon
       style="fill:#d68a2a;fill-opacity:1"
       id="polygon7282"
       points="1355.51,120.22 1363.97,165.04 1207.04,164.36 1199.96,120.9 "
       class="st944"
       transform="translate(-910.53643,296.15649)" />
    <g
       id="g7284"
       transform="translate(-910.53643,296.15649)">
      <g
         id="g7286">
        <path
           class="st946"
           d="m 1240.36,137.73 c 0.75,0.73 1.13,1.83 1.13,3.32 l 0,7.1 -1.81,0 -0.01,-7.21 c 0,-1 -0.21,-1.72 -0.64,-2.17 -0.43,-0.45 -1.12,-0.67 -2.07,-0.67 l -1.63,0 c -0.21,0.35 -0.39,0.8 -0.51,1.35 -0.12,0.55 -0.19,1.11 -0.19,1.69 l 0,3.88 c 0,1.05 -0.25,1.86 -0.75,2.4 -0.5,0.54 -1.23,0.82 -2.19,0.82 -0.28,0 -0.65,-0.03 -1.12,-0.09 l 0,-1.46 c 0.21,0.03 0.43,0.04 0.67,0.04 0.57,0 0.98,-0.15 1.24,-0.44 0.26,-0.29 0.39,-0.76 0.39,-1.39 l 0,-3.63 c 0,-0.59 0.08,-1.18 0.23,-1.77 0.15,-0.59 0.37,-1.06 0.64,-1.41 l -2.16,0 0,-1.46 5.36,0 c 1.53,0.02 2.67,0.38 3.42,1.1 z"
           id="path7288"
           style="fill:#ffffff" />
        <path
           class="st946"
           d="m 1245.79,138.1 -1.34,0 0,-1.46 3.15,0 0,11.5 -1.82,0 0,-10.04 z"
           id="path7290"
           style="fill:#ffffff" />
        <path
           class="st946"
           d="m 1258.08,143.12 3.64,5.03 -2.02,0 -5.13,-7.07 c -0.7,0.44 -1.04,1.19 -1.04,2.25 l 0,4.82 -1.76,0 0,-4.17 c 0,-1 0.17,-1.81 0.51,-2.45 0.34,-0.64 0.86,-1.11 1.57,-1.44 l -2.49,-3.45 2.03,0 3.56,4.92 2.77,-4.92 2.04,0 -3.68,6.48 z"
           id="path7292"
           style="fill:#ffffff" />
        <path
           class="st946"
           d="m 1263.79,148.13 0.05,-1.42 c 0.42,0.08 0.9,0.13 1.43,0.13 0.53,0 0.93,-0.15 1.2,-0.46 0.27,-0.31 0.4,-0.78 0.4,-1.42 l 0,-6.87 -2.26,0 0,-1.46 4.07,0 0,8.47 c 0,1.05 -0.26,1.86 -0.78,2.41 -0.52,0.55 -1.27,0.83 -2.25,0.83 -0.59,0.01 -1.21,-0.07 -1.86,-0.21 z"
           id="path7294"
           style="fill:#ffffff" />
        <path
           class="st946"
           d="m 1280.75,136.65 0,1.46 -1.92,0 0,10.05 -1.82,0 0,-10.06 -5.47,0 0,-1.46 9.21,0 z"
           id="path7296"
           style="fill:#ffffff" />
        <path
           class="st946"
           d="m 1285.87,147.71 c -0.73,-0.44 -1.3,-1.06 -1.71,-1.86 -0.41,-0.8 -0.62,-1.72 -0.63,-2.77 l 0,-1.17 c 0,-0.5 0.07,-1 0.21,-1.49 0.14,-0.49 0.33,-0.94 0.58,-1.33 0.25,-0.39 0.53,-0.69 0.84,-0.9 0.05,-0.04 0.1,-0.06 0.14,-0.08 l -0.01,-0.03 c -0.34,0.04 -1.03,0.2 -2.06,0.48 l -0.35,-1.37 c 0.76,-0.23 1.62,-0.41 2.58,-0.55 0.96,-0.14 1.84,-0.21 2.65,-0.21 1.07,0 1.99,0.21 2.76,0.63 0.77,0.42 1.36,1.03 1.78,1.82 0.42,0.79 0.62,1.73 0.62,2.83 l 0,1.38 c 0,1.05 -0.2,1.97 -0.61,2.77 -0.41,0.8 -0.97,1.42 -1.71,1.86 -0.74,0.44 -1.58,0.66 -2.55,0.66 -0.95,-0.02 -1.8,-0.23 -2.53,-0.67 z m 4.13,-1.34 c 0.47,-0.31 0.83,-0.75 1.08,-1.31 0.25,-0.56 0.38,-1.22 0.38,-1.96 l 0,-1.37 c 0,-0.77 -0.13,-1.44 -0.39,-2.01 -0.26,-0.57 -0.63,-1.01 -1.1,-1.31 -0.47,-0.3 -1.04,-0.45 -1.68,-0.45 -0.58,0 -1.09,0.15 -1.53,0.46 -0.44,0.31 -0.78,0.76 -1.03,1.34 -0.25,0.58 -0.37,1.27 -0.39,2.06 l 0,1.28 c 0,0.74 0.13,1.4 0.38,1.96 0.25,0.56 0.61,1 1.07,1.31 0.46,0.31 0.99,0.46 1.6,0.46 0.61,0 1.15,-0.15 1.61,-0.46 z"
           id="path7298"
           style="fill:#ffffff" />
        <path
           class="st946"
           d="m 1307.09,140.12 c 0,-0.63 -0.18,-1.12 -0.55,-1.48 -0.37,-0.36 -0.87,-0.54 -1.51,-0.54 l -3.87,0 0,-1.46 3.93,0 c 0.79,0 1.47,0.14 2.04,0.43 0.57,0.29 1.01,0.7 1.31,1.24 0.3,0.54 0.45,1.19 0.45,1.94 l 0,7.89 -1.81,0 0,-8.02 z"
           id="path7300"
           style="fill:#ffffff" />
        <path
           class="st946"
           d="m 1320.69,136.65 0,1.46 -1.92,0 0,10.05 -1.82,0 0,-10.06 -5.47,0 0,-1.46 9.21,0 z"
           id="path7302"
           style="fill:#ffffff" />
        <path
           class="st946"
           d="m 1323.59,136.65 4.33,0 c 1.52,0 2.66,0.36 3.41,1.09 0.75,0.73 1.13,1.83 1.13,3.32 l 0,7.1 -1.81,0 0,-7.21 c 0,-1 -0.21,-1.72 -0.64,-2.17 -0.43,-0.45 -1.12,-0.67 -2.07,-0.67 l -2.54,0 -0.01,10.05 -1.81,0 0.01,-11.51 z"
           id="path7304"
           style="fill:#ffffff" />
      </g>
    </g>
  </g>
</svg>
