<?xml version="1.0" encoding="UTF-8" standalone="no"?>
<svg
   xmlns:dc="http://purl.org/dc/elements/1.1/"
   xmlns:cc="http://creativecommons.org/ns#"
   xmlns:rdf="http://www.w3.org/1999/02/22-rdf-syntax-ns#"
   xmlns:svg="http://www.w3.org/2000/svg"
   xmlns="http://www.w3.org/2000/svg"
   version="1.1"
   id="svg5795"
   viewBox="0 0 100.7 65.399957"
   height="18.457321mm"
   width="28.419777mm">
  <defs
     id="defs5797" />
  <metadata
     id="metadata5800">
    <rdf:RDF>
      <cc:Work
         rdf:about="">
        <dc:format>image/svg+xml</dc:format>
        <dc:type
           rdf:resource="http://purl.org/dc/dcmitype/StillImage" />
        <dc:title></dc:title>
      </cc:Work>
    </rdf:RDF>
  </metadata>
  <g
     transform="translate(-195.36429,-439.66223)"
     id="layer1">
    <path
       id="path487_2_"
       class="st48"
       d="m 258.81429,478.16219 c 0,7.2 -13.1,26.9 -13.1,26.9 0,0 -13.1,-19.7 -13.1,-26.9 0,-7.2 5.9,-13.1 13.1,-13.1 7.3,0.1 13.1,5.9 13.1,13.1"
       style="fill:#e93214;fill-opacity:1" />
    <path
       id="path489_2_"
       class="st49"
       d="m 245.71429,484.66219 c -3.7,0 -6.7,-3 -6.7,-6.7 0,-3.7 3,-6.7 6.7,-6.7 3.7,0 6.7,3 6.7,6.7 0,3.7 -3,6.7 -6.7,6.7 m 0,-14.8 c -4.5,0 -8.2,3.7 -8.2,8.2 0,4.5 3.7,8.2 8.2,8.2 4.5,0 8.2,-3.7 8.2,-8.2 0,-4.5 -3.7,-8.2 -8.2,-8.2 m 0,7.2 c -0.5,0 -1,0.5 -1,1 l 0,3 c 0,0.5 0.5,1 1,1 0.5,0 1,-0.5 1,-1 l 0,-3 c 0,-0.6 -0.4,-1 -1,-1 m 0,-3.1 c -0.5,0 -1,0.5 -1,1 0,0.5 0.5,1 1,1 0.5,0 1,-0.5 1,-1 0,-0.5 -0.4,-1 -1,-1"
       style="fill:#ffffff;enable-background:new" />
    <rect
       id="rect475_10_"
       x="195.36429"
       y="439.66223"
       class="st48"
       width="100.7"
       height="21.700001"
       style="fill:#e93214;fill-opacity:1" />
    <g
       id="g1133"
       transform="translate(-300.83572,-226.73781)">
      <path
         class="st7"
         d="m 504.3,673.1 6.9,0 0,8.6 -6.9,0 0,-8.6 z m 5.5,7.5 0,-6.4 -4.2,0 0,6.4 4.2,0 z"
         id="path1135"
         style="fill:#ffffff" />
      <path
         class="st7"
         d="m 514.5,674.1 -1.6,0 0,-1.1 2.9,0 0,4.8 -1.4,0 0,-3.7 z"
         id="path1137"
         style="fill:#ffffff" />
      <path
         class="st7"
         d="m 522.1,677.7 2.3,3.3 0,0.7 -6.4,0 0,-1.1 4.6,0 -5.2,-7.5 1.5,0 2.3,3.5 1.9,-3.5 1.5,0 -2.5,4.6 z"
         id="path1139"
         style="fill:#ffffff" />
      <path
         class="st7"
         d="m 528.1,681.7 c -0.5,-0.1 -1,-0.2 -1.5,-0.4 l 0.3,-1 c 0.4,0.1 0.9,0.2 1.3,0.3 0.4,0.1 0.8,0.1 1.2,0.1 0.8,0 1.4,-0.2 1.9,-0.6 0.5,-0.4 0.7,-1 0.7,-1.7 l 0,-4.3 -3.5,0 c -0.2,0.3 -0.3,0.6 -0.4,1 -0.1,0.4 -0.1,0.8 -0.1,1.2 l 0,0.7 c 0.1,0 0.3,0.1 0.4,0.1 0.1,0 0.4,0 0.7,0 l 0,1.2 c -0.6,0 -1.1,0 -1.4,-0.1 -0.3,-0.1 -0.7,-0.2 -1,-0.4 l 0,-1.1 c 0,-0.5 0.1,-1 0.2,-1.4 0.1,-0.5 0.3,-0.9 0.5,-1.2 l -1,0 0,-1.1 7,0 0,5.1 c 0,0.8 -0.2,1.5 -0.5,2 -0.3,0.5 -0.8,1 -1.3,1.2 -0.6,0.3 -1.2,0.4 -2,0.4 -0.5,0.1 -1,0.1 -1.5,0 z"
         id="path1141"
         style="fill:#ffffff" />
      <path
         class="st7"
         d="m 536,673.1 3.2,0 c 1.1,0 2,0.3 2.6,0.8 0.6,0.5 0.8,1.4 0.8,2.5 l 0,5.3 -1.4,0 0,-5.4 c 0,-0.7 -0.2,-1.3 -0.5,-1.6 -0.3,-0.3 -0.8,-0.5 -1.6,-0.5 l -1.9,0 0,7.5 -1.2,0 0,-8.6 z"
         id="path1143"
         style="fill:#ffffff" />
      <path
         class="st7"
         d="m 554.9,673.9 c 0.6,0.5 0.8,1.4 0.8,2.5 l 0,5.3 -1.4,0 0,-5.4 c 0,-0.7 -0.2,-1.3 -0.5,-1.6 -0.3,-0.3 -0.8,-0.5 -1.5,-0.5 l -1.2,0 c -0.2,0.3 -0.3,0.6 -0.4,1 -0.1,0.4 -0.1,0.8 -0.1,1.3 l 0,2.9 c 0,0.8 -0.2,1.4 -0.6,1.8 -0.4,0.4 -0.9,0.6 -1.6,0.6 -0.2,0 -0.5,0 -0.8,-0.1 l 0,-1.1 c 0.2,0 0.3,0 0.5,0 0.4,0 0.7,-0.1 0.9,-0.3 0.2,-0.2 0.3,-0.6 0.3,-1 l 0,-2.7 c 0,-0.4 0.1,-0.9 0.2,-1.3 0.1,-0.4 0.3,-0.8 0.5,-1.1 l -1.6,0 0,-1.1 4,0 c 1.1,0 1.9,0.2 2.5,0.8 z"
         id="path1145"
         style="fill:#ffffff" />
      <path
         class="st7"
         d="m 561.7,675.7 c 0,-0.5 -0.1,-0.8 -0.4,-1.1 -0.3,-0.3 -0.7,-0.4 -1.1,-0.4 l -2.9,0 0,-1.1 2.9,0 c 0.6,0 1.1,0.1 1.5,0.3 0.4,0.2 0.8,0.5 1,0.9 0.2,0.4 0.3,0.9 0.3,1.5 l 0,5.9 -1.4,0 0,-6 z"
         id="path1147"
         style="fill:#ffffff" />
      <path
         class="st7"
         d="m 566.2,674.1 -1.6,0 0,-1.1 2.9,0 0,4.8 -1.4,0 0,-3.7 z"
         id="path1149"
         style="fill:#ffffff" />
      <path
         class="st7"
         d="m 570.6,676.2 c 0,-0.4 0.2,-0.8 0.3,-1.1 0.2,-0.4 0.4,-0.6 0.6,-0.8 0,0 0.1,0 0.1,-0.1 l 0,0 c -0.2,0 -0.5,0.1 -0.8,0.2 -0.3,0.1 -0.6,0.2 -0.9,0.3 l -0.3,-1 c 0.6,-0.2 1.2,-0.4 1.9,-0.5 0.7,-0.1 1.4,-0.2 1.9,-0.2 1.2,0 2,0.3 2.7,0.9 0.6,0.6 0.9,1.5 0.9,2.7 l 0,5.1 -3.6,0 0,-1.1 2.2,0 0,-4.2 c 0,-0.8 -0.2,-1.4 -0.5,-1.8 -0.3,-0.4 -0.8,-0.6 -1.5,-0.6 -0.5,0 -0.9,0.2 -1.2,0.5 -0.3,0.4 -0.5,0.9 -0.6,1.5 l -0.7,5.6 -1.1,0 0.6,-5.4 z"
         id="path1151"
         style="fill:#ffffff" />
      <path
         class="st7"
         d="m 580.9,680.2 c 0.5,0.2 1,0.4 1.5,0.5 0.5,0.1 1,0.2 1.5,0.2 0.7,0 1.3,-0.1 1.9,-0.3 0.6,-0.2 1,-0.5 1.3,-0.9 0.3,-0.4 0.5,-0.9 0.5,-1.5 l 0,-5 1.3,0 0,5.1 c 0,0.8 -0.2,1.5 -0.7,2.1 -0.4,0.6 -1,1 -1.8,1.3 -0.8,0.3 -1.6,0.4 -2.5,0.4 -0.7,0 -1.4,-0.1 -2.2,-0.3 -0.8,-0.2 -1.5,-0.4 -2.1,-0.7 l 0,-7.8 1.3,0 0,6.9 z m 2.5,-1.7 c 0.1,-0.3 0.1,-0.7 0.1,-1.2 l 0,-4.3 1.3,0 0,4.1 c 0,0.5 -0.1,0.9 -0.2,1.3 -0.1,0.4 -0.3,0.7 -0.6,0.9 l -1.1,0 c 0.2,-0.2 0.4,-0.4 0.5,-0.8 z"
         id="path1153"
         style="fill:#ffffff" />
    </g>
  </g>
</svg>
