<?xml version="1.0" encoding="UTF-8" standalone="no"?>
<svg
   xmlns:dc="http://purl.org/dc/elements/1.1/"
   xmlns:cc="http://creativecommons.org/ns#"
   xmlns:rdf="http://www.w3.org/1999/02/22-rdf-syntax-ns#"
   xmlns:svg="http://www.w3.org/2000/svg"
   xmlns="http://www.w3.org/2000/svg"
   version="1.1"
   id="svg4424"
   viewBox="0 0 101.8 79.100021"
   height="22.323784mm"
   width="28.730223mm">
  <defs
     id="defs4426" />
  <metadata
     id="metadata4429">
    <rdf:RDF>
      <cc:Work
         rdf:about="">
        <dc:format>image/svg+xml</dc:format>
        <dc:type
           rdf:resource="http://purl.org/dc/dcmitype/StillImage" />
        <dc:title></dc:title>
      </cc:Work>
    </rdf:RDF>
  </metadata>
  <g
     transform="translate(-289.5,-427.0979)"
     id="layer1">
    <path
       id="path767_2_"
       class="st8"
       d="m 356.2,473.69792 c 0,8.7 -15.8,32.5 -15.8,32.5 0,0 -15.8,-23.9 -15.8,-32.5 0,-8.7 7.1,-15.8 15.8,-15.8 8.7,0 15.8,7.1 15.8,15.8"
       style="fill:#e93214;fill-opacity:1" />
    <rect
       id="rect755_2_"
       x="289.5"
       y="427.0979"
       class="st8"
       width="101.8"
       height="22"
       style="fill:#e93214;fill-opacity:1" />
    <g
       id="g847"
       transform="translate(-1134,273.69792)">
      <path
         class="st7"
         d="m 1445.7,161.1 c 0.6,0.5 0.8,1.4 0.8,2.5 l 0,5.3 -1.4,0 0,-5.4 c 0,-0.7 -0.2,-1.3 -0.5,-1.6 -0.3,-0.3 -0.8,-0.5 -1.5,-0.5 l -1.2,0 c -0.2,0.3 -0.3,0.6 -0.4,1 -0.1,0.4 -0.1,0.8 -0.1,1.3 l 0,2.9 c 0,0.8 -0.2,1.4 -0.6,1.8 -0.4,0.4 -0.9,0.6 -1.6,0.6 -0.2,0 -0.5,0 -0.8,-0.1 l 0,-1.1 c 0.2,0 0.3,0 0.5,0 0.4,0 0.7,-0.1 0.9,-0.3 0.2,-0.2 0.3,-0.6 0.3,-1 l 0,-2.7 c 0,-0.4 0.1,-0.9 0.2,-1.3 0.1,-0.4 0.3,-0.8 0.5,-1.1 l -1.6,0 0,-1.1 4,0 c 1.1,0 1.9,0.3 2.5,0.8 z"
         id="path849"
         style="fill:#ffffff" />
      <path
         class="st7"
         d="m 1449.4,161.4 -1,0 0,-1.1 2.4,0 0,8.6 -1.4,0 0,-7.5 z"
         id="path851"
         style="fill:#ffffff" />
      <path
         class="st7"
         d="m 1458.2,165.1 2.7,3.8 -1.5,0 -3.8,-5.3 c -0.5,0.3 -0.8,0.9 -0.8,1.7 l 0,3.6 -1.3,0 0,-3.1 c 0,-0.7 0.1,-1.4 0.4,-1.8 0.3,-0.5 0.6,-0.8 1.2,-1.1 l -1.9,-2.6 1.5,0 2.7,3.7 2.1,-3.7 1.5,0 -2.8,4.8 z"
         id="path853"
         style="fill:#ffffff" />
      <path
         class="st7"
         d="m 1462.1,168.9 0,-1.1 c 0.3,0.1 0.7,0.1 1.1,0.1 0.4,0 0.7,-0.1 0.9,-0.3 0.2,-0.2 0.3,-0.6 0.3,-1.1 l 0,-5.1 -1.7,0 0,-1.1 3.1,0 0,6.4 c 0,0.8 -0.2,1.4 -0.6,1.8 -0.4,0.4 -1,0.6 -1.7,0.6 -0.4,0 -0.9,-0.1 -1.4,-0.2 z"
         id="path855"
         style="fill:#ffffff" />
      <path
         class="st7"
         d="m 1474.5,160.3 0,1.1 -1.4,0 0,7.5 -1.4,0 0,-7.5 -4.1,0 0,-1.1 6.9,0 z"
         id="path857"
         style="fill:#ffffff" />
      <path
         class="st7"
         d="m 1477.9,168.6 c -0.5,-0.3 -1,-0.8 -1.3,-1.4 -0.3,-0.6 -0.5,-1.3 -0.5,-2.1 l 0,-0.9 c 0,-0.4 0.1,-0.7 0.2,-1.1 0.1,-0.4 0.3,-0.7 0.4,-1 0.2,-0.3 0.4,-0.5 0.6,-0.7 0,0 0.1,0 0.1,-0.1 l 0,0 c -0.3,0 -0.8,0.1 -1.5,0.4 l -0.3,-1 c 0.6,-0.2 1.2,-0.3 1.9,-0.4 0.7,-0.1 1.4,-0.2 2,-0.2 0.8,0 1.5,0.2 2.1,0.5 0.6,0.3 1,0.8 1.3,1.4 0.3,0.6 0.5,1.3 0.5,2.1 l 0,1 c 0,0.8 -0.2,1.5 -0.5,2.1 -0.3,0.6 -0.7,1.1 -1.3,1.4 -0.6,0.3 -1.2,0.5 -1.9,0.5 -0.6,0 -1.2,-0.2 -1.8,-0.5 z m 3.1,-1 c 0.3,-0.2 0.6,-0.6 0.8,-1 0.2,-0.4 0.3,-0.9 0.3,-1.5 l 0,-1 c 0,-0.6 -0.1,-1.1 -0.3,-1.5 -0.2,-0.4 -0.5,-0.8 -0.8,-1 -0.4,-0.2 -0.8,-0.3 -1.3,-0.3 -0.4,0 -0.8,0.1 -1.1,0.3 -0.3,0.2 -0.6,0.6 -0.8,1 -0.2,0.4 -0.3,1 -0.3,1.5 l 0,1 c 0,0.6 0.1,1 0.3,1.5 0.2,0.5 0.5,0.8 0.8,1 0.3,0.2 0.7,0.3 1.2,0.3 0.5,0 0.9,-0.1 1.2,-0.3 z"
         id="path859"
         style="fill:#ffffff" />
      <path
         class="st7"
         d="m 1493.1,162.9 c 0,-0.5 -0.1,-0.8 -0.4,-1.1 -0.3,-0.3 -0.7,-0.4 -1.1,-0.4 l -2.9,0 0,-1.1 2.9,0 c 0.6,0 1.1,0.1 1.5,0.3 0.4,0.2 0.8,0.5 1,0.9 0.2,0.4 0.3,0.9 0.3,1.5 l 0,5.9 -1.4,0 0,-6 z"
         id="path861"
         style="fill:#ffffff" />
      <path
         class="st7"
         d="m 1502.9,160.3 0,1.1 -1.4,0 0,7.5 -1.4,0 0,-7.5 -4.1,0 0,-1.1 6.9,0 z"
         id="path863"
         style="fill:#ffffff" />
      <path
         class="st7"
         d="m 1504.7,160.3 3.2,0 c 1.1,0 2,0.3 2.6,0.8 0.6,0.5 0.8,1.4 0.8,2.5 l 0,5.3 -1.4,0 0,-5.4 c 0,-0.7 -0.2,-1.3 -0.5,-1.6 -0.3,-0.3 -0.8,-0.5 -1.6,-0.5 l -1.9,0 0,7.5 -1.4,0 0.2,-8.6 z"
         id="path865"
         style="fill:#ffffff" />
    </g>
  </g>
</svg>
