<?xml version="1.0" encoding="UTF-8" standalone="no"?>
<svg
   xmlns:dc="http://purl.org/dc/elements/1.1/"
   xmlns:cc="http://creativecommons.org/ns#"
   xmlns:rdf="http://www.w3.org/1999/02/22-rdf-syntax-ns#"
   xmlns:svg="http://www.w3.org/2000/svg"
   xmlns="http://www.w3.org/2000/svg"
   width="29.153557mm"
   height="22.662443mm"
   viewBox="0 0 103.3 80.299995"
   id="svg3684"
   version="1.1">
  <defs
     id="defs3686" />
  <metadata
     id="metadata3689">
    <rdf:RDF>
      <cc:Work
         rdf:about="">
        <dc:format>image/svg+xml</dc:format>
        <dc:type
           rdf:resource="http://purl.org/dc/dcmitype/StillImage" />
        <dc:title></dc:title>
      </cc:Work>
    </rdf:RDF>
  </metadata>
  <g
     id="layer1"
     transform="translate(-248.35,-632.2122)">
    <g
       id="g3743">
      <g
         id="g7006"
         transform="translate(-1157,-417.2878)">
        <path
           style="fill:#f07741;fill-opacity:1"
           d="m 1472.2,1098.5 c 0,8.3 -15.2,31.3 -15.2,31.3 0,0 -15.2,-23 -15.2,-31.3 0,-8.3 6.8,-15.2 15.2,-15.2 8.4,0 15.2,6.9 15.2,15.2"
           class="st933"
           id="path355_12_" />
        <path
           style="opacity:1;fill:#ffffff"
           d="m 1448,1109.8 c 0,0.7 0.2,1 1,1 0.8,0 1,-0.2 1,-1 l 0,-8.8 1,0 0,8.8 c 0,0.7 0.2,1 1,1 0.7,0 1,-0.2 1,-1 l 0,-14.9 0.5,0 0,5.4 c 0,0.2 0,0.5 0.2,0.7 0.2,0.2 0.5,0.2 0.7,0 0.2,-0.2 0.5,-0.5 0.5,-0.7 l 0,-5.9 c 0,-0.7 -0.2,-1.2 -0.7,-1.5 -0.5,-0.2 -1,-0.5 -1.7,-0.5 l -3.9,0 c -0.7,0 -1.2,0.2 -1.7,0.5 -0.5,0.2 -0.7,0.7 -0.7,1.5 l 0,6.1 c 0,0.2 0.2,0.5 0.5,0.5 0.2,0.2 0.5,0.2 0.7,0 0.2,-0.2 0.2,-0.2 0.2,-0.5 l 0,-5.6 0.5,0 0,14.9 z"
           class="st941"
           id="path357_12_" />
        <path
           style="opacity:1;fill:#ffffff"
           d="m 1467.1,1102.7 -2.7,-7.8 0,0 c 0,-0.2 0,-0.2 0.2,-0.2 0,0 0.2,0 0.2,0.2 l 2,4.9 c 0.2,0.2 0.5,0.5 1,0.5 0.2,0 0.2,-0.2 0.5,-0.5 0,-0.2 0,-0.5 0,-0.5 l -2,-4.9 c 0,-0.5 -0.2,-1 -0.7,-1.5 -0.5,-0.5 -1,-0.5 -1.7,-0.5 l -2.4,0 c -0.7,0 -1.2,0.2 -1.7,0.7 -0.5,0.5 -0.7,1 -1,1.5 l -1.7,4.9 c 0,0 0,0.2 0,0.5 0,0.2 0.2,0.5 0.5,0.5 0.5,0 1,-0.2 1,-0.5 l 2,-5.1 c 0,0 0,-0.2 0.2,-0.2 0.2,0 0.2,0 0.2,0.2 l 0,0 -2.7,7.8 0,0.5 c 0,0 0,0.2 0.2,0.2 0.2,0.2 0.2,0.2 0.2,0.2 l 1.7,0 0,6.1 c 0,0.2 0,0.5 0.2,0.7 0.2,0.2 0.5,0.2 0.7,0.2 0.2,0 0.5,0 0.7,-0.2 0.2,-0.2 0.2,-0.5 0.2,-0.7 l 0,-6.1 c 0,0 0,0 0.2,0 0.2,0 0.2,0 0.5,0 0.2,0 0.2,0 0.2,0 l 0,6.1 c 0,0.2 0,0.5 0.2,0.7 0.2,0.2 0.5,0.2 0.7,0.2 0.2,0 0.5,0 0.7,-0.2 0.2,-0.2 0.2,-0.5 0.2,-0.7 l 0,-5.9 1.7,0 c 0,0 0.2,0 0.2,-0.2 0.2,-0.2 0.2,-0.2 0.2,-0.2 l 0,-0.7 0.1,0 z"
           class="st941"
           id="path359_12_" />
        <path
           style="opacity:1;fill:#ffffff"
           d="m 1448.5,1089.7 c 0,0.5 0.2,1 0.5,1.5 0.5,0.5 0.7,0.5 1.5,0.5 0.5,0 1,-0.2 1.5,-0.5 0.5,-0.5 0.5,-1 0.5,-1.5 0,-0.5 -0.2,-1 -0.5,-1.5 -0.5,-0.5 -0.7,-0.5 -1.5,-0.5 -0.5,0 -1,0.2 -1.5,0.5 -0.5,0.6 -0.5,1 -0.5,1.5"
           class="st941"
           id="path361_12_" />
        <path
           style="opacity:1;fill:#ffffff"
           d="m 1460.2,1089.7 c 0,0.5 0.2,1 0.5,1.5 0.5,0.5 0.7,0.5 1.5,0.5 0.7,0 1,-0.2 1.5,-0.5 0.5,-0.5 0.5,-0.7 0.5,-1.5 0,-0.5 -0.2,-1 -0.5,-1.5 -0.5,-0.5 -0.7,-0.5 -1.5,-0.5 -0.7,0 -1,0.2 -1.5,0.5 -0.2,0.6 -0.5,1 -0.5,1.5"
           class="st941"
           id="path363_12_" />
      </g>
      <rect
         style="fill:#4b1a26"
         height="31.799999"
         width="103.3"
         class="st933"
         y="632.21222"
         x="248.35001"
         id="rect475_14_" />
      <g
         id="g7014"
         transform="translate(-1157.05,-417.2878)">
        <path
           style="fill:#ffffff"
           id="path7016"
           d="m 1422.2,1061.8 9.2,0 0,11.5 -9.2,0 0,-11.5 z m 7.4,10 0,-8.6 -5.6,0 0,8.6 5.6,0 z"
           class="st942" />
        <path
           style="fill:#ffffff"
           id="path7018"
           d="m 1436.3,1063.2 -2.1,0 0,-1.5 3.9,0 0,6.4 -1.8,0 0,-4.9 z"
           class="st942" />
        <path
           style="fill:#ffffff"
           id="path7020"
           d="m 1450.1,1062.9 c 0.8,0.7 1.1,1.8 1.1,3.3 l 0,7.1 -1.8,0 0,-7.2 c 0,-1 -0.2,-1.7 -0.6,-2.2 -0.4,-0.4 -1.1,-0.7 -2.1,-0.7 l -1.6,0 c -0.2,0.4 -0.4,0.8 -0.5,1.4 -0.1,0.6 -0.2,1.1 -0.2,1.7 l 0,3.9 c 0,1.1 -0.3,1.9 -0.8,2.4 -0.5,0.5 -1.2,0.8 -2.2,0.8 -0.3,0 -0.7,0 -1.1,-0.1 l 0,-1.5 c 0.2,0 0.4,0 0.7,0 0.6,0 1,-0.1 1.2,-0.4 0.3,-0.3 0.4,-0.8 0.4,-1.4 l 0,-3.6 c 0,-0.6 0.1,-1.2 0.2,-1.8 0.2,-0.6 0.4,-1.1 0.6,-1.4 l -2.2,0 0,-1.5 5.4,0 c 1.6,0.1 2.7,0.4 3.5,1.2 z"
           class="st942" />
        <path
           style="fill:#ffffff"
           id="path7022"
           d="m 1455.5,1063.2 -1.3,0 0,-1.5 3.2,0 0,11.5 -1.8,0 0,-10 z"
           class="st942" />
        <path
           style="fill:#ffffff"
           id="path7024"
           d="m 1466.1,1065.3 c 0,-0.6 -0.2,-1.1 -0.6,-1.5 -0.4,-0.4 -0.9,-0.5 -1.5,-0.5 l -3.9,0 0,-1.5 3.9,0 c 0.8,0 1.5,0.1 2,0.4 0.6,0.3 1,0.7 1.3,1.2 0.3,0.5 0.5,1.2 0.5,1.9 l 0,7.9 -1.8,0 0,-7.9 z"
           class="st942" />
        <path
           style="fill:#ffffff"
           id="path7026"
           d="m 1472.6,1063.2 -2.1,0 0,-1.5 3.9,0 0,6.4 -1.8,0 0,-4.9 z"
           class="st942" />
        <path
           style="fill:#ffffff"
           id="path7028"
           d="m 1480,1071.2 c 0.6,0.3 1.3,0.5 2,0.6 0.7,0.2 1.3,0.2 2,0.2 0.9,0 1.8,-0.1 2.5,-0.4 0.7,-0.3 1.3,-0.7 1.7,-1.2 0.4,-0.5 0.6,-1.2 0.6,-2 l 0,-6.6 1.8,0 0,6.8 c 0,1.1 -0.3,2 -0.9,2.7 -0.6,0.7 -1.4,1.3 -2.4,1.7 -1,0.4 -2.1,0.6 -3.3,0.6 -0.9,0 -1.9,-0.1 -2.9,-0.3 -1,-0.2 -2,-0.6 -2.9,-1 l 0,-10.4 1.8,0 0,9.3 z m 3.3,-2.1 c 0.1,-0.4 0.2,-1 0.2,-1.6 l 0,-5.7 1.8,0 0,5.4 c 0,0.7 -0.1,1.2 -0.2,1.7 -0.2,0.5 -0.4,0.9 -0.8,1.3 l -1.5,-0.1 c 0.2,-0.2 0.4,-0.6 0.5,-1 z"
           class="st942" />
      </g>
    </g>
  </g>
</svg>
