<?xml version="1.0" encoding="UTF-8" standalone="no"?>
<svg
   xmlns:dc="http://purl.org/dc/elements/1.1/"
   xmlns:cc="http://creativecommons.org/ns#"
   xmlns:rdf="http://www.w3.org/1999/02/22-rdf-syntax-ns#"
   xmlns:svg="http://www.w3.org/2000/svg"
   xmlns="http://www.w3.org/2000/svg"
   width="44.760445mm"
   height="33.584442mm"
   viewBox="0 0 158.6 118.99999"
   id="svg3986"
   version="1.1">
  <defs
     id="defs3988" />
  <metadata
     id="metadata3991">
    <rdf:RDF>
      <cc:Work
         rdf:about="">
        <dc:format>image/svg+xml</dc:format>
        <dc:type
           rdf:resource="http://purl.org/dc/dcmitype/StillImage" />
        <dc:title></dc:title>
      </cc:Work>
    </rdf:RDF>
  </metadata>
  <g
     id="layer1"
     transform="translate(-260.7,-527.14792)">
    <g
       id="g4070">
      <rect
         style="fill:#4b1a26"
         height="31.799999"
         width="118"
         class="st933"
         y="527.14795"
         x="280.29999"
         id="rect315_3_" />
      <rect
         style="fill:#4b1a26"
         height="31.799999"
         width="158.60001"
         class="st933"
         y="551.24792"
         x="260.70001"
         id="rect317_3_" />
      <g
         transform="translate(0.70004,0)"
         id="g4066">
        <path
           id="path471_3_"
           class="st933"
           d="m 358.39996,606.84792 c 0,10.5 -19.1,39.3 -19.1,39.3 0,0 -19.1,-28.8 -19.1,-39.3 0,-10.5 8.6,-19.1 19.1,-19.1 10.6,0.3 19.1,8.6 19.1,19.1"
           style="fill:#f07741;fill-opacity:1" />
        <path
           id="path473_3_"
           class="st941"
           d="m 339.39996,616.64792 c -5.4,0 -9.8,-4.4 -9.8,-9.8 0,-5.4 4.4,-9.8 9.8,-9.8 5.4,0 9.8,4.4 9.8,9.8 -0.1,5.4 -4.5,9.8 -9.8,9.8 m 0,-21.8 c -6.6,0 -12,5.4 -12,12 0,6.6 5.4,12 12,12 6.6,0 12,-5.4 12,-12 -0.1,-6.6 -5.4,-12 -12,-12 m 0,10.6 c -0.7,0 -1.5,0.7 -1.5,1.5 l 0,4.4 c 0,0.7 0.7,1.5 1.5,1.5 0.7,0 1.5,-0.7 1.5,-1.5 l 0,-4.4 c -0.1,-0.8 -0.8,-1.5 -1.5,-1.5 m 0,-4.7 c -0.7,0 -1.5,0.7 -1.5,1.5 0,0.7 0.7,1.5 1.5,1.5 0.7,0 1.5,-0.7 1.5,-1.5 -0.1,-0.8 -0.8,-1.5 -1.5,-1.5"
           style="opacity:1;fill:#ffffff" />
      </g>
      <g
         id="g7174"
         transform="translate(-481.20004,-662.85208)">
        <path
           style="fill:#d16a4e"
           id="path7176"
           d="m 784.3,1199.9 -1.7,0 0,-1.8 3.9,0 0,19.5 -2.2,0 0,-17.7 z"
           class="st940" />
        <path
           style="fill:#d16a4e"
           id="path7178"
           d="m 792.7,1199.9 -2.6,0 0,-1.8 4.9,0 0,8 -2.3,0 0,-6.2 z"
           class="st940" />
        <path
           style="fill:#d16a4e"
           id="path7180"
           d="m 809.8,1198.1 0,8.6 c 0,1.3 -0.3,2.4 -0.8,3.3 -0.5,0.9 -1.3,1.6 -2.2,2.1 -1,0.5 -2.1,0.7 -3.4,0.7 -1.6,0 -3.3,-0.3 -5.1,-1 l 0.5,-1.7 c 1.4,0.5 2.7,0.9 3.8,0.9 -0.6,-0.7 -1,-1.5 -1.2,-2.4 l -2.4,-10.5 2.3,0 2.3,10.6 c 0.1,0.5 0.2,0.9 0.3,1.3 0.1,0.3 0.3,0.7 0.4,0.9 1,-0.2 1.7,-0.7 2.3,-1.4 0.5,-0.7 0.8,-1.6 0.8,-2.7 l 0,-8.7 2.4,0 z"
           class="st940" />
        <path
           style="fill:#d16a4e"
           id="path7182"
           d="m 816,1199.9 -2.6,0 0,-1.8 4.9,0 0,8 -2.3,0 0,-6.2 z"
           class="st940" />
        <path
           style="fill:#d16a4e"
           id="path7184"
           d="m 833.1,1198.1 0,1.8 -2.4,0 0,12.6 -2.3,0 0,-12.6 -6.8,0 0,-1.8 11.5,0 z"
           class="st940" />
        <path
           style="fill:#d16a4e"
           id="path7186"
           d="m 837.4,1199.9 -1.7,0 0,-1.8 3.9,0 0,14.4 -2.3,0 0,-12.6 z"
           class="st940" />
        <path
           style="fill:#d16a4e"
           id="path7188"
           d="m 845.7,1203.3 c 0.1,-0.7 0.3,-1.3 0.6,-1.9 0.3,-0.6 0.6,-1 1,-1.4 0,0 0.1,-0.1 0.2,-0.2 l 0,0 c -0.4,0.1 -0.8,0.2 -1.4,0.3 -0.6,0.1 -1.1,0.3 -1.5,0.4 l -0.5,-1.7 c 0.9,-0.3 2,-0.6 3.2,-0.8 1.2,-0.2 2.3,-0.3 3.2,-0.3 1.9,0 3.4,0.5 4.4,1.5 1,1 1.5,2.5 1.5,4.5 l 0,8.6 -5.9,0 0,-1.8 3.7,0 0,-7 c 0,-1.3 -0.3,-2.3 -0.9,-2.9 -0.6,-0.7 -1.4,-1 -2.5,-1 -0.8,0 -1.4,0.3 -2,0.9 -0.5,0.6 -0.9,1.4 -1,2.5 l -1.1,9.4 -2.2,0 1.2,-9.1 z"
           class="st940" />
        <path
           style="fill:#d16a4e"
           id="path7190"
           d="m 760.7,1225.7 -2.7,0 0,-1.8 4.9,0 0,8 -2.3,0 0,-6.2 z"
           class="st940" />
        <path
           style="fill:#d16a4e"
           id="path7192"
           d="m 767.4,1221.3 c 0.4,-0.8 0.9,-1.5 1.6,-2 l 1.3,0.9 c -0.4,0.6 -0.7,1.1 -0.9,1.7 -0.2,0.6 -0.3,1.2 -0.3,1.8 l 0,1.5 -2.3,0 0,-1.5 c 0,-0.8 0.2,-1.6 0.6,-2.4 z m 3.9,0 c 0.4,-0.8 0.9,-1.5 1.6,-2 l 1.3,0.9 c -0.4,0.6 -0.7,1.1 -0.9,1.7 -0.2,0.6 -0.3,1.2 -0.3,1.8 l 0,1.5 -2.3,0 0,-1.5 c 0,-0.8 0.2,-1.6 0.6,-2.4 z"
           class="st940" />
        <path
           style="fill:#d16a4e"
           id="path7194"
           d="m 785.3,1232 4.6,6.3 -2.5,0 -6.4,-8.8 c -0.9,0.5 -1.3,1.5 -1.3,2.8 l 0,6 -2.2,0 0,-5.2 c 0,-1.2 0.2,-2.3 0.6,-3.1 0.4,-0.8 1.1,-1.4 2,-1.8 l -3.1,-4.3 2.5,0 4.5,6.2 3.5,-6.2 2.6,0 -4.8,8.1 z"
           class="st940" />
        <path
           style="fill:#d16a4e"
           id="path7196"
           d="m 794.9,1229.1 c 0.1,-0.7 0.3,-1.3 0.6,-1.9 0.3,-0.6 0.6,-1 1,-1.4 0,0 0.1,-0.1 0.2,-0.2 l 0,0 c -0.4,0.1 -0.8,0.2 -1.4,0.3 -0.5,0.1 -1.1,0.3 -1.5,0.4 l -0.5,-1.7 c 0.9,-0.3 2,-0.6 3.2,-0.8 1.2,-0.2 2.3,-0.3 3.2,-0.3 1.9,0 3.4,0.5 4.4,1.5 1,1 1.5,2.5 1.5,4.5 l 0,8.6 -5.9,0 0,-1.8 3.7,0 0,-7 c 0,-1.3 -0.3,-2.3 -0.9,-2.9 -0.6,-0.7 -1.4,-1 -2.5,-1 -0.8,0 -1.4,0.3 -2,0.9 -0.5,0.6 -0.9,1.4 -1,2.5 l -1.1,9.4 -2.2,0 1.2,-9.1 z"
           class="st940" />
        <path
           style="fill:#d16a4e"
           id="path7198"
           d="m 818.4,1232 4.6,6.3 -2.5,0 -6.4,-8.8 c -0.9,0.5 -1.3,1.5 -1.3,2.8 l 0,6 -2.2,0 0,-5.2 c 0,-1.2 0.2,-2.3 0.6,-3.1 0.4,-0.8 1.1,-1.4 2,-1.8 l -3.1,-4.3 2.5,0 4.5,6.2 3.5,-6.2 2.6,0 -4.8,8.1 z"
           class="st940" />
        <path
           style="fill:#d16a4e"
           id="path7200"
           d="m 834.4,1225.7 -1.7,0 0,-1.8 3.9,0 0,19.5 -2.2,0 0,-17.7 z"
           class="st940" />
        <path
           style="fill:#d16a4e"
           id="path7202"
           d="m 840.5,1237.8 0.4,-1.7 c 1.3,0.3 2.4,0.5 3.4,0.5 1.4,0 2.4,-0.3 3.1,-1 0.7,-0.7 1.1,-1.6 1.1,-2.8 l 0,-7.1 -7.5,0 0,-1.8 9.7,0 0,8.4 c 0,2 -0.5,3.6 -1.6,4.6 -1.1,1 -2.6,1.6 -4.5,1.6 -1.2,0 -2.6,-0.2 -4.1,-0.7 z"
           class="st940" />
        <path
           style="fill:#d16a4e"
           id="path7204"
           d="m 856.4,1225.7 -1.7,0 0,-1.8 3.9,0 0,14.4 -2.3,0 0,-12.6 z"
           class="st940" />
        <path
           style="fill:#d16a4e"
           id="path7206"
           d="m 873.8,1223.9 0,1.8 -2.4,0 0,12.6 -2.3,0 0,-12.6 -6.8,0 0,-1.8 11.5,0 z"
           class="st940" />
        <path
           style="fill:#d16a4e"
           id="path7208"
           d="m 878.1,1225.7 -1.7,0 0,-1.8 3.9,0 0,14.4 -2.3,0 0,-12.6 z"
           class="st940" />
      </g>
    </g>
  </g>
</svg>
