<?xml version="1.0" encoding="UTF-8" standalone="no"?>
<svg
   xmlns:dc="http://purl.org/dc/elements/1.1/"
   xmlns:cc="http://creativecommons.org/ns#"
   xmlns:rdf="http://www.w3.org/1999/02/22-rdf-syntax-ns#"
   xmlns:svg="http://www.w3.org/2000/svg"
   xmlns="http://www.w3.org/2000/svg"
   width="153.14"
   height="53.360001"
   viewBox="0 0 153.14 53.360001"
   id="svg21011"
   version="1.1">
  <defs
     id="defs21013" />
  <metadata
     id="metadata21016">
    <rdf:RDF>
      <cc:Work
         rdf:about="">
        <dc:format>image/svg+xml</dc:format>
        <dc:type
           rdf:resource="http://purl.org/dc/dcmitype/StillImage" />
        <dc:title></dc:title>
      </cc:Work>
    </rdf:RDF>
  </metadata>
  <g
     id="layer1"
     transform="translate(-267.5379,-428.53935)">
    <polygon
       class="st947"
       points="-1049.18,414.49 -1043.68,450.16 -998.68,462.73 "
       id="polygon6628"
       style="fill:#568c78"
       transform="translate(1342.7879,19.169345)" />
    <polygon
       class="st948"
       points="-1043.68,450.16 -1048.84,413.56 -922.11,409.37 -923.03,446.41 "
       id="polygon6630"
       style="fill:#d68a2a;fill-opacity:1"
       transform="translate(1342.7879,19.169345)" />
    <g
       id="g6735"
       transform="translate(1342.7879,19.169345)">
      <path
         class="st946"
         d="m -1028.52,420.17 7.46,0 0,9.01 -7.46,0 0,-9.01 z m 5.54,7.49 0,-5.99 -3.61,0 0,5.99 3.61,0 z"
         id="path6737"
         style="fill:#ffffff" />
      <path
         class="st946"
         d="m -1018.18,421.68 -0.91,0 0,-1.51 2.83,0 0,9.01 -1.92,0 0,-7.5 z"
         id="path6739"
         style="fill:#ffffff" />
      <path
         class="st946"
         d="m -1013.03,421.68 -1.52,0 0,-1.51 3.45,0 0,5.08 -1.92,0 0,-3.57 z"
         id="path6741"
         style="fill:#ffffff" />
      <path
         class="st946"
         d="m -1005.25,423.07 c 0,-0.44 -0.13,-0.78 -0.38,-1.03 -0.25,-0.25 -0.61,-0.37 -1.07,-0.37 l -2.86,0 0,-1.51 2.97,0 c 0.68,0 1.26,0.12 1.75,0.36 0.49,0.24 0.87,0.59 1.13,1.04 0.26,0.45 0.39,0.99 0.39,1.62 l 0,5.99 -1.92,0 0,-6.1 z"
         id="path6743"
         style="fill:#ffffff" />
      <path
         class="st946"
         d="m -1000.67,421.68 -0.91,0 0,-1.51 2.83,0 0,9.01 -1.92,0 0,-7.5 z"
         id="path6745"
         style="fill:#ffffff" />
      <path
         class="st946"
         d="m -994.33,428.88 c -0.57,-0.31 -1.01,-0.75 -1.33,-1.32 -0.32,-0.57 -0.47,-1.22 -0.47,-1.97 l 0,-5.43 1.92,0 0,5.62 c 0,0.41 0.08,0.77 0.23,1.09 0.15,0.32 0.37,0.56 0.65,0.73 0.28,0.17 0.6,0.26 0.96,0.26 0.37,0 0.69,-0.09 0.97,-0.26 0.28,-0.17 0.5,-0.42 0.65,-0.73 0.15,-0.32 0.23,-0.68 0.23,-1.09 l 0,-2.78 c 0,-0.43 -0.1,-0.77 -0.29,-1 -0.2,-0.23 -0.47,-0.35 -0.84,-0.35 -0.28,0 -0.59,0.07 -0.95,0.2 l -0.22,-1.25 c 0.26,-0.16 0.55,-0.28 0.88,-0.38 0.33,-0.1 0.63,-0.14 0.92,-0.14 0.5,0 0.92,0.11 1.29,0.33 0.36,0.22 0.64,0.54 0.84,0.96 0.19,0.41 0.29,0.9 0.29,1.47 l 0,2.76 c 0,0.74 -0.16,1.4 -0.47,1.97 -0.31,0.57 -0.75,1.01 -1.32,1.32 -0.57,0.31 -1.23,0.47 -1.97,0.47 -0.75,-0.01 -1.4,-0.16 -1.97,-0.48 z"
         id="path6747"
         style="fill:#ffffff" />
      <path
         class="st946"
         d="m -985.75,421.68 -1.52,0 0,-1.51 3.45,0 0,5.08 -1.92,0 0,-3.57 z"
         id="path6749"
         style="fill:#ffffff" />
      <path
         class="st946"
         d="m -974.69,420.17 0,1.51 -1.55,0 0,7.5 -1.92,0 0,-7.5 -4.03,0 0,-1.51 7.5,0 z"
         id="path6751"
         style="fill:#ffffff" />
      <path
         class="st946"
         d="m -972.62,421.68 -0.91,0 0,-1.51 2.83,0 0,9.01 -1.92,0 0,-7.5 z"
         id="path6753"
         style="fill:#ffffff" />
      <path
         class="st946"
         d="m -962.61,425.32 2.74,3.86 -2.14,0 -3.67,-5.18 c -0.17,0.15 -0.3,0.33 -0.38,0.54 -0.08,0.21 -0.13,0.46 -0.13,0.75 l 0,3.89 -1.86,0 0,-3.11 c 0,-0.81 0.13,-1.46 0.39,-1.96 0.26,-0.5 0.67,-0.88 1.23,-1.15 l -1.97,-2.78 2.15,0 2.46,3.48 1.83,-3.48 2.16,0 -2.81,5.14 z"
         id="path6755"
         style="fill:#ffffff" />
      <path
         class="st946"
         d="m -1006.24,438.26 c 0.17,0.25 0.3,0.5 0.37,0.77 0.08,0.26 0.11,0.56 0.11,0.9 l 0,5.4 -1.82,0 0,-5.6 c 0,-0.34 -0.1,-0.66 -0.29,-0.95 l -3.81,-5.62 2.15,0 2.08,3.31 1.67,-3.31 2.16,0 -2.71,4.99 0.09,0.11 z"
         id="path6757"
         style="fill:#ffffff" />
      <path
         class="st946"
         d="m -998.65,436.07 c 0,-0.44 -0.13,-0.78 -0.38,-1.03 -0.25,-0.25 -0.61,-0.37 -1.07,-0.37 l -2.87,0 0,-1.51 2.97,0 c 0.68,0 1.26,0.12 1.75,0.36 0.49,0.24 0.87,0.59 1.13,1.04 0.26,0.45 0.39,0.99 0.39,1.62 l 0,5.99 -1.92,0 0,-6.1 z"
         id="path6759"
         style="fill:#ffffff" />
      <path
         class="st946"
         d="m -994.08,434.68 -0.91,0 0,-1.51 2.83,0 0,9.01 -1.92,0 0,-7.5 z"
         id="path6761"
         style="fill:#ffffff" />
      <path
         class="st946"
         d="m -989.27,434.68 -0.91,0 0,-1.51 2.83,0 0,9.01 -1.92,0 0,-7.5 z"
         id="path6763"
         style="fill:#ffffff" />
      <path
         class="st946"
         d="m -982.88,440.28 c 0.46,0.2 0.95,0.35 1.46,0.46 0.52,0.11 1,0.17 1.46,0.17 0.72,0 1.36,-0.1 1.91,-0.31 0.55,-0.2 0.99,-0.52 1.3,-0.94 0.31,-0.42 0.47,-0.95 0.47,-1.59 l 0,-4.9 1.86,0 0,5.11 c 0,0.9 -0.24,1.66 -0.73,2.28 -0.49,0.62 -1.14,1.09 -1.96,1.4 -0.82,0.31 -1.75,0.47 -2.77,0.47 -0.79,0 -1.61,-0.09 -2.46,-0.28 -0.85,-0.19 -1.64,-0.47 -2.4,-0.83 l 0,-8.15 1.86,0 0,7.11 z m 2.22,-1.61 c 0.08,-0.35 0.11,-0.75 0.11,-1.19 l 0,-4.31 1.86,0 0,3.93 c 0,0.52 -0.06,0.98 -0.19,1.4 -0.12,0.42 -0.3,0.75 -0.53,1.01 l -1.58,-0.03 c 0.15,-0.19 0.25,-0.46 0.33,-0.81 z"
         id="path6765"
         style="fill:#ffffff" />
    </g>
    <g
       id="g4679-4-9_4_"
       transform="matrix(0.42702949,0,0,0.42702949,1493.0372,353.34583)"
       class="st938"
       style="opacity:1">
      <path
         id="path6-3-7_4_"
         class="st939"
         d="m -2543.16,200.48 c 4.64,-0.23 8.78,-4.14 9.77,-8.55 -4.41,0.01 -8.81,4.41 -9.77,8.55 z m 3.91,25.67 c -1.71,-10.02 -4.89,-19.81 -7.82,-29.58 -0.75,-1.97 -3.91,-0.49 -5.62,-0.98 -5.39,6.37 -13.44,9.04 -20.54,12.95 -6.35,2.95 -12.22,8.31 -19.32,8.8 -0.23,4.64 1.71,8.81 2.46,13.21 4.64,-1.48 6.6,-0.98 8.78,3.42 4.4,5.62 14.92,2.44 15.41,-4.64 6.35,0.23 12.72,-0.26 18.83,-0.49 2.43,2.44 9.27,1.95 7.82,-2.69 z m -32.27,6.35 c -3.18,3.42 -7.33,0.73 -9.04,-2.93 l 1.45,0 c 2.95,0.49 12.72,-1.97 7.59,2.93 z m 0.72,-10.03 c -3.16,-0.49 -9.53,0.98 -10.51,-1.45 9.79,-4.89 19.32,-10.28 28.62,-15.64 2.67,4.87 3.91,11.24 4.87,17.09 l -22.98,0 z"
         style="opacity:1;fill:#ce8b35;fill-opacity:1" />
      <path
         id="path10-3-4_4_"
         class="st939"
         d="m -2533.63,207.32 c -1.71,0.75 -3.42,1.97 -3.42,3.91 4.15,0 8.06,-1.22 11.97,-2.44 0.98,-5.87 -5.62,-2.69 -8.55,-1.47 z m -0.49,12.72 c -1.22,0 -1.97,0.49 -2.93,0.98 2.18,2.93 7.8,5.36 11.24,3.16 2.44,-3.65 -5.88,-3.16 -8.31,-4.14 z"
         style="opacity:1;fill:#ce8b35;fill-opacity:1" />
    </g>
  </g>
</svg>
