<?xml version="1.0" encoding="UTF-8" standalone="no"?>
<svg
   xmlns:dc="http://purl.org/dc/elements/1.1/"
   xmlns:cc="http://creativecommons.org/ns#"
   xmlns:rdf="http://www.w3.org/1999/02/22-rdf-syntax-ns#"
   xmlns:svg="http://www.w3.org/2000/svg"
   xmlns="http://www.w3.org/2000/svg"
   version="1.1"
   id="svg6882"
   viewBox="0 0 151.58 83.370004"
   height="83.370003"
   width="151.58">
  <defs
     id="defs6884" />
  <metadata
     id="metadata6887">
    <rdf:RDF>
      <cc:Work
         rdf:about="">
        <dc:format>image/svg+xml</dc:format>
        <dc:type
           rdf:resource="http://purl.org/dc/dcmitype/StillImage" />
        <dc:title></dc:title>
      </cc:Work>
    </rdf:RDF>
  </metadata>
  <g
     transform="translate(-277.74357,-436.3915)"
     id="layer1">
    <polygon
       class="st943"
       points="-298.56,1734.21 -222.77,1699.85 -233.07,1652.51 "
       id="polygon7919"
       style="fill:#b48e59"
       transform="translate(652.09357,-1214.4485)" />
    <polygon
       class="st944"
       points="-233.07,1652.51 -222.77,1699.85 -291.74,1699.85 -298.56,1650.84 "
       id="polygon7921"
       style="fill:#b8af79"
       transform="translate(652.09357,-1214.4485)" />
    <g
       id="g7923"
       transform="translate(652.09357,-1214.4485)">
      <path
         class="st946"
         d="m -277.63,1666.71 c 0,-0.5 0.04,-0.89 0.13,-1.17 0.09,-0.28 0.2,-0.53 0.34,-0.76 l 1.55,0 c -0.11,0.45 -0.17,1.03 -0.17,1.75 l 0,3.26 -1.86,0 0,-3.08 z m 5.33,-2.66 c 0,-0.61 -0.15,-1.05 -0.44,-1.33 -0.29,-0.28 -0.75,-0.43 -1.37,-0.43 l -3.51,0 0,-1.51 3.63,0 c 1.16,0 2.05,0.29 2.67,0.86 0.62,0.57 0.93,1.4 0.93,2.48 l 0,5.68 -1.92,0 0,-5.75 z"
         id="path7925"
         style="fill:#ffffff" />
      <path
         class="st946"
         d="m -266.3,1669.83 c -0.57,-0.09 -1.11,-0.23 -1.6,-0.4 l 0.36,-1.42 c 0.47,0.14 0.95,0.24 1.42,0.31 0.48,0.07 0.9,0.11 1.26,0.11 0.77,-0.01 1.36,-0.2 1.77,-0.56 0.41,-0.36 0.61,-0.89 0.61,-1.59 l 0,-4 -3.12,0 c -0.13,0.28 -0.23,0.6 -0.31,0.95 -0.08,0.35 -0.11,0.7 -0.11,1.06 l 0,0.56 c 0.21,0.07 0.54,0.1 0.97,0.1 l 0,1.43 c -0.21,0.02 -0.43,0.03 -0.67,0.03 -0.44,0 -0.83,-0.04 -1.19,-0.13 -0.36,-0.09 -0.68,-0.22 -0.98,-0.39 l -0.02,-1 c 0,-0.5 0.06,-0.98 0.17,-1.45 0.11,-0.47 0.27,-0.85 0.47,-1.16 l -1.02,0 0,-1.51 7.72,0 0,5.2 c 0,0.89 -0.18,1.64 -0.53,2.24 -0.36,0.6 -0.85,1.04 -1.47,1.33 -0.62,0.29 -1.34,0.43 -2.15,0.43 -0.47,0 -1,-0.05 -1.58,-0.14 z"
         id="path7927"
         style="fill:#ffffff" />
      <path
         class="st946"
         d="m -257.67,1662.29 -0.91,0 0,-1.51 2.84,0 0,9.02 -1.93,0 0,-7.51 z"
         id="path7929"
         style="fill:#ffffff" />
      <path
         class="st946"
         d="m -249.96,1668.32 c 0.69,-0.03 1.24,-0.24 1.63,-0.65 0.4,-0.41 0.6,-0.98 0.6,-1.72 l 0,-3.66 -5.39,0 0,-1.51 7.32,0 0,5.14 c 0,0.79 -0.17,1.48 -0.5,2.06 -0.34,0.58 -0.82,1.02 -1.44,1.33 -0.63,0.31 -1.36,0.48 -2.21,0.5 l 0,-1.49 z m -3.05,-1.79 c 0,-0.5 0.04,-0.88 0.13,-1.16 0.09,-0.28 0.2,-0.53 0.34,-0.76 l 1.56,0 c -0.11,0.41 -0.17,1 -0.17,1.74 l 0,6.59 -1.86,0 0,-6.41 z"
         id="path7931"
         style="fill:#ffffff" />
      <path
         class="st946"
         d="m -280.42,1685.35 c 0,-0.5 0.04,-0.89 0.13,-1.17 0.09,-0.28 0.2,-0.53 0.34,-0.76 l 1.55,0 c -0.11,0.45 -0.17,1.03 -0.17,1.75 l 0,3.26 -1.86,0 0,-3.08 z m 5.34,-2.66 c 0,-0.61 -0.15,-1.05 -0.44,-1.34 -0.29,-0.28 -0.75,-0.42 -1.37,-0.42 l -3.51,0 0,-1.51 3.63,0 c 1.16,0 2.05,0.29 2.67,0.86 0.62,0.57 0.93,1.4 0.93,2.49 l 0,5.67 -1.92,0 0,-5.75 z"
         id="path7933"
         style="fill:#ffffff" />
      <path
         class="st946"
         d="m -268.92,1686.54 c 0.46,0.2 0.95,0.35 1.46,0.46 0.51,0.11 1,0.17 1.46,0.17 0.72,0 1.36,-0.1 1.92,-0.31 0.55,-0.2 0.99,-0.52 1.3,-0.94 0.31,-0.42 0.47,-0.95 0.47,-1.59 l 0,-4.91 1.86,0 0,5.11 c 0,0.9 -0.24,1.66 -0.73,2.29 -0.49,0.63 -1.14,1.09 -1.96,1.4 -0.82,0.31 -1.75,0.47 -2.77,0.47 -0.79,0 -1.61,-0.09 -2.46,-0.28 -0.85,-0.19 -1.65,-0.47 -2.41,-0.83 l 0,-8.16 1.86,0 0,7.12 z m 2.22,-1.61 c 0.08,-0.35 0.11,-0.75 0.11,-1.19 l 0,-4.32 1.87,0 0,3.94 c 0,0.52 -0.06,0.98 -0.19,1.4 -0.12,0.42 -0.3,0.76 -0.53,1.01 l -1.58,-0.03 c 0.14,-0.19 0.24,-0.46 0.32,-0.81 z"
         id="path7935"
         style="fill:#ffffff" />
      <path
         class="st946"
         d="m -257.23,1680.93 -1.52,0 0,-1.51 3.45,0 0,5.09 -1.93,0 0,-3.58 z"
         id="path7937"
         style="fill:#ffffff" />
      <path
         class="st946"
         d="m -253.99,1688.49 0,-1.75 c 0.17,0.03 0.37,0.05 0.59,0.05 0.64,-0.01 1.16,-0.19 1.57,-0.52 0.41,-0.33 0.7,-0.78 0.87,-1.35 l 0,-3.98 -2.01,0 0,-1.51 3.9,0 0,4.61 c 0,0.48 0.05,0.95 0.14,1.42 l 0.62,3 -1.79,0 -0.53,-2.39 -0.05,0 c -0.07,0.45 -0.24,0.86 -0.5,1.24 -0.26,0.38 -0.6,0.68 -1.01,0.9 -0.41,0.22 -0.85,0.33 -1.33,0.33 -0.19,-0.01 -0.35,-0.03 -0.47,-0.05 z"
         id="path7939"
         style="fill:#ffffff" />
      <path
         class="st946"
         d="m -246.38,1688.55 c -0.25,-0.03 -0.52,-0.08 -0.82,-0.14 l 0.02,-1.46 c 0.34,0.06 0.71,0.08 1.11,0.08 0.38,0 0.66,-0.11 0.85,-0.32 0.19,-0.21 0.28,-0.54 0.28,-0.99 l 0,-4.79 -1.67,0 0,-1.51 3.59,0 0,6.45 c 0,0.87 -0.23,1.54 -0.68,2.01 -0.45,0.47 -1.08,0.71 -1.9,0.71 -0.28,0 -0.53,-0.01 -0.78,-0.04 z"
         id="path7941"
         style="fill:#ffffff" />
    </g>
  </g>
</svg>
