<?xml version="1.0" encoding="UTF-8" standalone="no"?>
<svg
   xmlns:dc="http://purl.org/dc/elements/1.1/"
   xmlns:cc="http://creativecommons.org/ns#"
   xmlns:rdf="http://www.w3.org/1999/02/22-rdf-syntax-ns#"
   xmlns:svg="http://www.w3.org/2000/svg"
   xmlns="http://www.w3.org/2000/svg"
   version="1.1"
   id="svg5056"
   viewBox="0 0 119.9 66.399999"
   height="18.739555mm"
   width="33.838444mm">
  <defs
     id="defs5058" />
  <metadata
     id="metadata5061">
    <rdf:RDF>
      <cc:Work
         rdf:about="">
        <dc:format>image/svg+xml</dc:format>
        <dc:type
           rdf:resource="http://purl.org/dc/dcmitype/StillImage" />
        <dc:title></dc:title>
      </cc:Work>
    </rdf:RDF>
  </metadata>
  <g
     transform="translate(-326.81427,-479.1622)"
     id="layer1">
    <rect
       id="rect755_3_"
       x="326.81427"
       y="479.1622"
       class="st48"
       width="119.9"
       height="19.799999"
       style="fill:#18304e" />
    <path
       id="path767_3_"
       class="st48"
       d="m 399.96427,518.3622 c 0,7.2 -13.2,27.2 -13.2,27.2 0,0 -13.2,-20 -13.2,-27.2 0,-7.2 5.9,-13.2 13.2,-13.2 7.2,0 13.2,5.9 13.2,13.2"
       style="fill:#18304e" />
    <path
       id="path861_1_"
       class="st64"
       d="m 390.76427,516.4622 c -0.7,-0.3 -1.2,-0.7 -1.7,-1 0.3,-0.5 1,-1.4 0.8,-2.1 0,-0.1 -0.1,-0.5 -0.3,-0.7 -0.1,-0.1 -0.3,-0.1 -0.5,-0.1 -0.3,0 -0.8,0.3 -1.2,0.5 0,-0.1 0,-0.1 0,-0.3 0.1,-0.8 0.5,-1.5 1.2,-1.5 l 0,0 c 0.7,0 1.5,0.5 1.7,1.5 0.5,1 0.3,2.2 0,3.7 m -2.2,-1.7 c -0.1,-0.3 -0.3,-0.7 -0.5,-1 0.1,-0.5 0.5,-0.8 0.8,-0.8 0.1,0 0.1,0 0.1,0 0.1,0 0.1,0.1 0.1,0.3 0.3,0.7 -0.2,1.1 -0.5,1.5 m -0.8,0.9 -0.5,0.3 0.1,-0.7 c 0,-0.1 0.1,-0.5 0.3,-0.8 0.1,0.1 0.3,0.5 0.5,0.7 -0.3,0.3 -0.4,0.3 -0.4,0.5 m 6.5,5.4 c 0,-0.1 -1.2,-3.3 -2.7,-4.2 -0.1,0 -0.1,-0.1 -0.3,-0.1 0.5,-1.5 0.7,-2.9 0.3,-4 -0.4,-1.1 -1.4,-2.1 -2.4,-1.8 -0.8,0 -1.5,0.8 -1.7,1.8 0,0.3 0,0.7 0,1 -0.1,0.3 -0.3,0.5 -0.3,0.7 l -7.9,12.5 c 0,0.1 -0.1,0.1 0,0.3 l 0,0.1 0.1,0 c 0.1,0 0.1,-0.1 0.3,-0.1 l 9.2,-11.3 c 0.5,0.5 1.4,0.8 1.8,1.2 -0.3,0.8 -0.7,1.8 -1,2.9 -1.2,2.9 -0.7,5.3 0.1,5.7 l 0.1,0 c 0,0 0.1,0 0.1,-0.1 0,-0.1 0,-0.3 0,-0.3 -0.7,-0.3 -1.2,-2.5 0,-5.1 0.5,-1 0.8,-2.1 1,-2.9 0,0 0.1,0 0.1,0.1 1.4,0.7 2.5,3.9 2.5,3.9 0,0.1 0.1,0.1 0.3,0.1 0.4,-0.1 0.4,-0.3 0.4,-0.4"
       style="fill:#f6f6f6" />
    <g
       id="g867"
       transform="translate(-1141.3857,290.06221)">
      <path
         class="st7"
         d="m 1481.5,195 -1.6,0 0,-1.1 2.9,0 0,4.8 -1.4,0 0,-3.7 z"
         id="path869"
         style="fill:#ffffff" />
      <path
         class="st7"
         d="m 1486,195 -1.6,0 0,-1.1 2.9,0 0,4.8 -1.4,0 0,-3.7 z"
         id="path871"
         style="fill:#ffffff" />
      <path
         class="st7"
         d="m 1495.7,194.8 -3.2,7.8 -1.5,0 3.1,-7.5 -5.1,0 0,-3.7 1.4,0 0,2.6 5.2,0 0,0.8 z"
         id="path873"
         style="fill:#ffffff" />
      <path
         class="st7"
         d="m 1499.2,202.6 c -0.5,-0.1 -1,-0.2 -1.5,-0.4 l 0.3,-1 c 0.4,0.1 0.9,0.2 1.3,0.3 0.4,0.1 0.8,0.1 1.2,0.1 0.8,0 1.4,-0.2 1.9,-0.6 0.5,-0.4 0.7,-1 0.7,-1.7 l 0,-4.3 -3.5,0 c -0.2,0.3 -0.3,0.6 -0.4,1 -0.1,0.4 -0.1,0.8 -0.1,1.2 l 0,0.7 c 0.1,0 0.3,0.1 0.4,0.1 0.1,0 0.4,0 0.7,0 l 0,1.2 c -0.6,0 -1.1,0 -1.4,-0.1 -0.3,-0.1 -0.7,-0.2 -1,-0.4 l 0,-1.1 c 0,-0.5 0.1,-1 0.2,-1.4 0.1,-0.5 0.3,-0.9 0.5,-1.2 l -1,0 0,-1.1 7,0 0,5.1 c 0,0.8 -0.2,1.5 -0.5,2 -0.3,0.5 -0.8,1 -1.3,1.2 -0.6,0.3 -1.2,0.4 -2,0.4 -0.6,0.1 -1,0.1 -1.5,0 z"
         id="path875"
         style="fill:#ffffff" />
      <path
         class="st7"
         d="m 1508.6,202.2 c -0.5,-0.3 -1,-0.8 -1.3,-1.4 -0.3,-0.6 -0.5,-1.3 -0.5,-2.1 l 0,-0.9 c 0,-0.4 0.1,-0.7 0.2,-1.1 0.1,-0.4 0.3,-0.7 0.4,-1 0.2,-0.3 0.4,-0.5 0.6,-0.7 0,0 0.1,0 0.1,-0.1 l 0,0 c -0.3,0 -0.8,0.1 -1.5,0.4 l -0.3,-1 c 0.6,-0.2 1.2,-0.3 1.9,-0.4 0.7,-0.1 1.4,-0.2 2,-0.2 0.8,0 1.5,0.2 2.1,0.5 0.6,0.3 1,0.8 1.3,1.4 0.3,0.6 0.5,1.3 0.5,2.1 l 0,1 c 0,0.8 -0.2,1.5 -0.5,2.1 -0.3,0.6 -0.7,1.1 -1.3,1.4 -0.6,0.3 -1.2,0.5 -1.9,0.5 -0.6,0 -1.2,-0.1 -1.8,-0.5 z m 3.1,-1 c 0.3,-0.2 0.6,-0.6 0.8,-1 0.2,-0.4 0.3,-0.9 0.3,-1.5 l 0,-1 c 0,-0.6 -0.1,-1.1 -0.3,-1.5 -0.2,-0.4 -0.5,-0.8 -0.8,-1 -0.4,-0.2 -0.8,-0.3 -1.3,-0.3 -0.4,0 -0.8,0.1 -1.1,0.3 -0.3,0.2 -0.6,0.6 -0.8,1 -0.2,0.4 -0.3,1 -0.3,1.5 l 0,1 c 0,0.6 0.1,1 0.3,1.5 0.2,0.5 0.5,0.8 0.8,1 0.3,0.2 0.7,0.3 1.2,0.3 0.5,0 0.9,0 1.2,-0.3 z"
         id="path877"
         style="fill:#ffffff" />
      <path
         class="st7"
         d="m 1516.9,195 -1,0 0,-1.1 2.4,0 0,8.6 -1.4,0 0,-7.5 z"
         id="path879"
         style="fill:#ffffff" />
      <path
         class="st7"
         d="m 1523.9,201.5 c 0.5,0 0.9,-0.1 1.3,-0.3 0.4,-0.2 0.6,-0.5 0.8,-0.8 0.2,-0.3 0.3,-0.8 0.3,-1.3 l 0,-4 -5.3,0 0,-1.1 6.7,0 0,5.1 c 0,0.7 -0.2,1.3 -0.5,1.9 -0.3,0.5 -0.8,0.9 -1.3,1.2 -0.6,0.3 -1.2,0.4 -2,0.5 l 0,-1.2 z m -2.8,-2.2 c 0,-0.4 0,-0.8 0.1,-1 0.1,-0.3 0.2,-0.5 0.3,-0.8 l 1.1,0 c -0.1,0.2 -0.1,0.5 -0.1,0.7 0,0.3 0,0.6 0,1 l 0,6.4 -1.3,0 0,-6.3 z"
         id="path881"
         style="fill:#ffffff" />
      <path
         class="st7"
         d="m 1535.6,202.3 c -0.5,-0.3 -0.9,-0.7 -1.2,-1.2 -0.3,-0.5 -0.4,-1.1 -0.4,-1.8 l 0,-5.3 1.4,0 0,5.4 c 0,0.5 0.1,0.9 0.3,1.2 0.2,0.3 0.4,0.6 0.7,0.8 0.3,0.2 0.7,0.3 1.1,0.3 0.4,0 0.8,-0.1 1.1,-0.3 0.3,-0.2 0.6,-0.5 0.7,-0.8 0.2,-0.3 0.3,-0.7 0.3,-1.2 l 0,-2.9 c 0,-0.5 -0.1,-0.8 -0.3,-1.1 -0.2,-0.3 -0.5,-0.4 -0.9,-0.4 -0.3,0 -0.7,0.1 -1.1,0.3 l -0.2,-0.9 c 0.2,-0.2 0.5,-0.3 0.8,-0.4 0.3,-0.1 0.6,-0.1 0.9,-0.1 0.4,0 0.8,0.1 1.2,0.3 0.3,0.2 0.6,0.5 0.7,0.9 0.2,0.4 0.3,0.8 0.3,1.3 l 0,2.9 c 0,0.7 -0.1,1.3 -0.4,1.8 -0.3,0.5 -0.7,0.9 -1.2,1.2 -0.5,0.3 -1.1,0.4 -1.8,0.4 -0.7,0 -1.4,-0.1 -2,-0.4 z"
         id="path883"
         style="fill:#ffffff" />
      <path
         class="st7"
         d="m 1543.7,195 -1,0 0,-1.1 2.4,0 0,8.6 -1.4,0 0,-7.5 z"
         id="path885"
         style="fill:#ffffff" />
      <path
         class="st7"
         d="m 1549.3,202.6 c -0.5,-0.1 -1,-0.2 -1.5,-0.4 l 0.3,-1 c 0.4,0.1 0.9,0.2 1.3,0.3 0.4,0.1 0.8,0.1 1.2,0.1 0.8,0 1.4,-0.2 1.9,-0.6 0.5,-0.4 0.7,-1 0.7,-1.7 l 0,-4.3 -3.5,0 c -0.2,0.3 -0.3,0.6 -0.4,1 -0.1,0.4 -0.1,0.8 -0.1,1.2 l 0,0.7 c 0.1,0 0.3,0.1 0.4,0.1 0.1,0 0.4,0 0.7,0 l 0,1.2 c -0.6,0 -1.1,0 -1.4,-0.1 -0.3,-0.1 -0.7,-0.2 -1,-0.4 l 0,-1.1 c 0,-0.5 0.1,-1 0.2,-1.4 0.1,-0.5 0.3,-0.9 0.5,-1.2 l -1,0 0,-1.1 7,0 0,5.1 c 0,0.8 -0.2,1.5 -0.5,2 -0.3,0.5 -0.8,1 -1.3,1.2 -0.6,0.3 -1.2,0.4 -2,0.4 -0.6,0.1 -1,0.1 -1.5,0 z"
         id="path887"
         style="fill:#ffffff" />
      <path
         class="st7"
         d="m 1557.7,195 -1.6,0 0,-1.1 2.9,0 0,4.8 -1.4,0 0,-3.7 z"
         id="path889"
         style="fill:#ffffff" />
      <path
         class="st7"
         d="m 1562.9,201 c 0.5,0.2 1,0.4 1.5,0.5 0.5,0.1 1,0.2 1.5,0.2 0.7,0 1.3,-0.1 1.9,-0.3 0.6,-0.2 1,-0.5 1.3,-0.9 0.3,-0.4 0.5,-0.9 0.5,-1.5 l 0,-5 1.3,0 0,5.1 c 0,0.8 -0.2,1.5 -0.7,2.1 -0.4,0.6 -1,1 -1.8,1.3 -0.8,0.3 -1.6,0.4 -2.5,0.4 -0.7,0 -1.4,-0.1 -2.2,-0.3 -0.8,-0.2 -1.5,-0.4 -2.1,-0.7 l 0,-7.8 1.3,0 0,6.9 z m 2.5,-1.6 c 0.1,-0.3 0.1,-0.7 0.1,-1.2 l 0,-4.3 1.3,0 0,4.1 c 0,0.5 -0.1,0.9 -0.2,1.3 -0.1,0.4 -0.3,0.7 -0.6,0.9 l -1.1,0 c 0.3,-0.2 0.4,-0.5 0.5,-0.8 z"
         id="path891"
         style="fill:#ffffff" />
    </g>
  </g>
</svg>
