<?xml version="1.0" encoding="UTF-8" standalone="no"?>
<svg
   xmlns:dc="http://purl.org/dc/elements/1.1/"
   xmlns:cc="http://creativecommons.org/ns#"
   xmlns:rdf="http://www.w3.org/1999/02/22-rdf-syntax-ns#"
   xmlns:svg="http://www.w3.org/2000/svg"
   xmlns="http://www.w3.org/2000/svg"
   width="36.434891mm"
   height="20.489332mm"
   viewBox="0 0 129.10001 72.599996"
   id="svg4486"
   version="1.1">
  <defs
     id="defs4488" />
  <metadata
     id="metadata4491">
    <rdf:RDF>
      <cc:Work
         rdf:about="">
        <dc:format>image/svg+xml</dc:format>
        <dc:type
           rdf:resource="http://purl.org/dc/dcmitype/StillImage" />
        <dc:title></dc:title>
      </cc:Work>
    </rdf:RDF>
  </metadata>
  <g
     id="layer1"
     transform="translate(-249.73572,-484.63364)">
    <g
       transform="translate(-366.36426,267.53363)"
       id="הזמנה_מראש">
      <g
         id="g427">
        <rect
           style="fill:#e41c1e"
           id="rect429"
           height="52.599998"
           width="129.10001"
           class="st30"
           y="217.10001"
           x="616.09998" />
        <polygon
           transform="translate(0.19998,0)"
           style="fill:#e41c1e"
           id="polygon431"
           points="668.8,269.5 680.4,289.7 692.1,269.5 "
           class="st30" />
      </g>
      <g
         id="g433">
        <path
           style="fill:#f6f6f6"
           id="path435"
           d="m 647.3,233.9 c 0,-0.8 -0.2,-1.3 -0.5,-1.6 -0.3,-0.3 -0.9,-0.5 -1.6,-0.5 l -3.2,0 0,-1.1 3.2,0 c 1.1,0 2,0.3 2.6,0.8 0.6,0.6 0.9,1.4 0.9,2.5 l 0,5.4 -1.4,0 0,-5.5 z m -5.3,2.5 c 0,-0.4 0,-0.8 0.1,-1.1 0.1,-0.3 0.2,-0.5 0.3,-0.8 l 1.1,0 c -0.1,0.2 -0.1,0.5 -0.1,0.8 0,0.3 0,0.6 0,1 l 0,3.1 -1.4,0 0,-3 z"
           class="st31" />
        <path
           style="fill:#f6f6f6"
           id="path437"
           d="m 650.2,239.4 0,-1.1 c 0.3,0.1 0.7,0.1 1.1,0.1 0.4,0 0.7,-0.1 0.9,-0.3 0.2,-0.2 0.3,-0.6 0.3,-1.1 l 0,-5.2 -1.7,0 0,-1.1 3.1,0 0,6.4 c 0,0.8 -0.2,1.4 -0.6,1.8 -0.4,0.4 -1,0.6 -1.7,0.6 -0.4,0 -0.9,0 -1.4,-0.1 z"
           class="st31" />
        <path
           style="fill:#f6f6f6"
           id="path439"
           d="m 657.2,233.9 c 0,-0.4 0.2,-0.8 0.3,-1.1 0.1,-0.3 0.4,-0.6 0.6,-0.8 0,0 0.1,0 0.1,-0.1 l 0,0 c -0.2,0 -0.5,0.1 -0.8,0.2 -0.3,0.1 -0.6,0.2 -0.9,0.3 l -0.3,-1 c 0.6,-0.2 1.2,-0.4 1.9,-0.5 0.7,-0.1 1.4,-0.2 2,-0.2 1.2,0 2.1,0.3 2.7,0.9 0.6,0.6 0.9,1.5 0.9,2.7 l 0,5.2 -3.6,0 0,-1.1 2.2,0 0,-4.2 c 0,-0.8 -0.2,-1.4 -0.5,-1.8 -0.3,-0.4 -0.9,-0.6 -1.5,-0.6 -0.5,0 -0.9,0.2 -1.2,0.5 -0.3,0.4 -0.5,0.9 -0.6,1.5 l -0.7,5.7 -1.4,0 0.8,-5.6 z"
           class="st31" />
        <path
           style="fill:#f6f6f6"
           id="path441"
           d="m 666,231.9 -0.6,-0.1 0,-1.1 4.2,0 0,1.1 -2.2,0 1.2,7.6 -1.4,0 -1.2,-7.5 z"
           class="st31" />
        <path
           style="fill:#f6f6f6"
           id="path443"
           d="m 676.6,233.9 c 0,-0.8 -0.2,-1.3 -0.5,-1.6 -0.3,-0.3 -0.9,-0.5 -1.6,-0.5 l -3.2,0 0,-1.1 3.2,0 c 1.1,0 2,0.3 2.6,0.8 0.6,0.6 0.9,1.4 0.9,2.5 l 0,5.4 -1.4,0 0,-5.5 z m -5.3,2.5 c 0,-0.4 0,-0.8 0.1,-1.1 0.1,-0.3 0.2,-0.5 0.3,-0.8 l 1.1,0 c -0.1,0.2 -0.1,0.5 -0.1,0.8 0,0.3 0,0.6 0,1 l 0,3.1 -1.3,0 0,-3 z"
           class="st31" />
        <path
           style="fill:#f6f6f6"
           id="path445"
           d="m 684.2,230.7 6.9,0 0,8.7 -6.9,0 0,-8.7 z m 5.5,7.6 0,-6.5 -4.2,0 0,6.5 4.2,0 z"
           class="st31" />
        <path
           style="fill:#f6f6f6"
           id="path447"
           d="m 693.8,230.7 3.3,0 c 1.2,0 2,0.3 2.6,0.8 0.6,0.5 0.9,1.4 0.9,2.5 l 0,5.4 -1.4,0 0,-5.5 c 0,-0.8 -0.2,-1.3 -0.5,-1.6 -0.3,-0.3 -0.8,-0.5 -1.6,-0.5 l -1.9,0 0,7.6 -1.4,0 0,-8.7 z"
           class="st31" />
        <path
           style="fill:#f6f6f6"
           id="path449"
           d="m 709.1,231.5 c 0.6,0.5 0.9,1.4 0.9,2.5 l 0,5.4 -1.4,0 0,-5.5 c 0,-0.8 -0.2,-1.3 -0.5,-1.6 -0.3,-0.3 -0.8,-0.5 -1.6,-0.5 l -1.2,0 c -0.2,0.3 -0.3,0.6 -0.4,1 -0.1,0.4 -0.1,0.8 -0.1,1.3 l 0,2.9 c 0,0.8 -0.2,1.4 -0.6,1.8 -0.4,0.4 -0.9,0.6 -1.7,0.6 -0.2,0 -0.5,0 -0.8,-0.1 l 0,-1.1 c 0.2,0 0.3,0 0.5,0 0.4,0 0.7,-0.1 0.9,-0.3 0.2,-0.2 0.3,-0.6 0.3,-1 l 0,-2.7 c 0,-0.4 0.1,-0.9 0.2,-1.3 0.1,-0.4 0.3,-0.8 0.5,-1.1 l -1.6,0 0,-1.1 4.1,0 c 1.1,0 1.9,0.3 2.5,0.8 z"
           class="st31" />
        <path
           style="fill:#f6f6f6"
           id="path451"
           d="m 713,233.9 c 0,-0.4 0.2,-0.8 0.3,-1.1 0.1,-0.3 0.4,-0.6 0.6,-0.8 0,0 0.1,0 0.1,-0.1 l 0,0 c -0.2,0 -0.5,0.1 -0.8,0.2 -0.3,0.1 -0.6,0.2 -0.9,0.3 l -0.3,-1 c 0.6,-0.2 1.2,-0.4 1.9,-0.5 0.7,-0.1 1.4,-0.2 2,-0.2 1.2,0 2.1,0.3 2.7,0.9 0.6,0.6 0.9,1.5 0.9,2.7 l 0,5.2 -3.6,0 0,-1.1 2.2,0 0,-4.2 c 0,-0.8 -0.2,-1.4 -0.5,-1.8 -0.3,-0.4 -0.9,-0.6 -1.5,-0.6 -0.5,0 -0.9,0.2 -1.2,0.5 -0.3,0.4 -0.5,0.9 -0.6,1.5 l -0.7,5.7 -1.4,0 0.8,-5.6 z"
           class="st31" />
        <path
           style="fill:#f6f6f6"
           id="path453"
           d="m 664.1,256 c 0.5,0.2 1,0.4 1.5,0.5 0.5,0.1 1,0.2 1.5,0.2 0.7,0 1.3,-0.1 1.9,-0.3 0.6,-0.2 1,-0.5 1.3,-0.9 0.3,-0.4 0.5,-0.9 0.5,-1.5 l 0,-5 1.3,0 0,5.1 c 0,0.8 -0.2,1.5 -0.7,2.1 -0.4,0.6 -1,1 -1.8,1.3 -0.7,0.3 -1.6,0.4 -2.5,0.4 -0.7,0 -1.5,-0.1 -2.2,-0.3 -0.8,-0.2 -1.5,-0.4 -2.2,-0.7 l 0,-7.9 1.3,0 0,7 z m 2.5,-1.6 c 0.1,-0.3 0.1,-0.7 0.1,-1.2 l 0,-4.3 1.3,0 0,4.1 c 0,0.5 -0.1,0.9 -0.2,1.3 -0.1,0.4 -0.3,0.7 -0.6,0.9 l -1.1,0 c 0.2,-0.2 0.4,-0.5 0.5,-0.8 z"
           class="st31" />
        <path
           style="fill:#f6f6f6"
           id="path455"
           d="m 679.6,253.7 2.8,3.8 -1.5,0 -3.9,-5.3 c -0.5,0.3 -0.8,0.9 -0.8,1.7 l 0,3.6 -1.3,0 0,-3.2 c 0,-0.8 0.1,-1.4 0.4,-1.9 0.3,-0.5 0.7,-0.8 1.2,-1.1 l -1.9,-2.6 1.5,0 2.7,3.7 2.1,-3.7 1.5,0 -2.8,5 z"
           class="st31" />
        <path
           style="fill:#f6f6f6"
           id="path457"
           d="m 688,251.5 c 0,-0.5 -0.1,-0.8 -0.4,-1.1 -0.3,-0.3 -0.7,-0.4 -1.1,-0.4 l -2.9,0 0,-1.1 3,0 c 0.6,0 1.1,0.1 1.5,0.3 0.4,0.2 0.8,0.5 1,0.9 0.2,0.4 0.3,0.9 0.3,1.5 l 0,6 -1.4,0 0,-6.1 z"
           class="st31" />
        <path
           style="fill:#f6f6f6"
           id="path459"
           d="m 692.5,252 c 0,-0.4 0.2,-0.8 0.3,-1.1 0.1,-0.3 0.4,-0.6 0.6,-0.8 0,0 0.1,0 0.1,-0.1 l 0,0 c -0.2,0 -0.5,0.1 -0.8,0.2 -0.3,0.1 -0.6,0.2 -0.9,0.3 l -0.3,-1 c 0.6,-0.2 1.2,-0.4 1.9,-0.5 0.7,-0.1 1.4,-0.2 2,-0.2 1.2,0 2.1,0.3 2.7,0.9 0.6,0.6 0.9,1.5 0.9,2.7 l 0,5.2 -3.6,0 0,-1.1 2.2,0 0,-4.2 c 0,-0.8 -0.2,-1.4 -0.5,-1.8 -0.3,-0.4 -0.9,-0.6 -1.5,-0.6 -0.5,0 -0.9,0.2 -1.2,0.5 -0.3,0.4 -0.5,0.9 -0.6,1.5 l -0.7,5.7 -1.4,0 0.8,-5.6 z"
           class="st31" />
      </g>
    </g>
  </g>
</svg>
