<?xml version="1.0" encoding="UTF-8" standalone="no"?>
<svg
   xmlns:dc="http://purl.org/dc/elements/1.1/"
   xmlns:cc="http://creativecommons.org/ns#"
   xmlns:rdf="http://www.w3.org/1999/02/22-rdf-syntax-ns#"
   xmlns:svg="http://www.w3.org/2000/svg"
   xmlns="http://www.w3.org/2000/svg"
   version="1.1"
   id="svg7090"
   viewBox="0 0 125.4 64.599974"
   height="18.231548mm"
   width="35.390667mm">
  <defs
     id="defs7092" />
  <metadata
     id="metadata7095">
    <rdf:RDF>
      <cc:Work
         rdf:about="">
        <dc:format>image/svg+xml</dc:format>
        <dc:type
           rdf:resource="http://purl.org/dc/dcmitype/StillImage" />
        <dc:title></dc:title>
      </cc:Work>
    </rdf:RDF>
  </metadata>
  <g
     transform="translate(-234.44286,-437.20508)"
     id="layer1">
    <path
       id="path395_2_"
       class="st8"
       d="m 310.24286,474.90505 c 0,7.2 -13.1,26.9 -13.1,26.9 0,0 -13.1,-19.7 -13.1,-26.9 0,-7.2 5.9,-13.1 13.1,-13.1 7.3,0.3 13.1,5.9 13.1,13.1"
       style="fill:#e93214;fill-opacity:1" />
    <path
       style="fill:#ffffff;enable-background:new"
       d="m 301.7734,469.98065 c 1.32379,-0.0427 2.56217,-1.23839 2.86109,-2.51948 -1.32379,0.0427 -2.60488,1.32379 -2.86109,2.51948 z m -2.8184,-1.4092 c -1.58001,1.87893 -3.92867,2.64758 -5.97841,3.80056 -1.87893,0.85406 -3.54435,2.43407 -5.63679,2.56218 -0.0427,1.32379 0.51243,2.56218 0.68325,3.84326 1.32379,-0.42702 1.92163,-0.29892 2.56217,0.98217 1.28109,1.62271 4.3557,0.68325 4.48381,-1.32379 1.87893,0.0427 3.71516,-0.0427 5.46598,-0.12811 0.68325,0.68325 2.73299,0.59784 2.26326,-0.76865 -0.51244,-2.9038 -1.4092,-5.7649 -2.26326,-8.626 -0.17081,-0.64054 -1.06757,-0.21351 -1.58001,-0.34162 z"
       class="st49"
       id="path6-3-7_2_" />
    <path
       style="fill:#e93214;fill-opacity:1"
       d="m 298.955,471.43255 c -2.73299,1.58001 -5.46598,3.16002 -8.32707,4.56921 0.29892,0.68325 2.13514,0.29892 3.07461,0.42703 2.22055,0 4.48381,0 6.70436,0 -0.29892,-1.75082 -0.68325,-3.58705 -1.4519,-4.99624 z"
       class="st8"
       id="path8-6-3_2_" />
    <path
       style="fill:#ffffff;enable-background:new"
       d="m 303.52422,473.09796 c 1.23838,0 2.34866,-0.34162 3.50164,-0.68324 0.29892,-1.70812 -1.62271,-0.76866 -2.51948,-0.42703 -0.46973,0.21351 -0.98216,0.55513 -0.98216,1.11027 m 0,2.8611 c 0.64054,0.85406 2.26325,1.58001 3.28812,0.93946 0.68325,-1.06757 -1.70811,-0.93946 -2.43406,-1.23838 -0.34163,0.0427 -0.59785,0.17081 -0.85406,0.29892 l 0,0 z"
       class="st49"
       id="path10-3-4_2_" />
    <path
       style="fill:#e93214;fill-opacity:1"
       d="m 290.84144,478.47853 c 0.51244,1.06758 1.70812,1.87893 2.64758,0.85406 1.49461,-1.40919 -1.32379,-0.68324 -2.22055,-0.85406 -0.17081,0 -0.29892,0 -0.42703,0 z"
       class="st8"
       id="path12-1-9_2_" />
    <rect
       id="rect309_1_"
       x="234.44286"
       y="437.20508"
       class="st8"
       width="125.4"
       height="21.700001"
       style="fill:#e93214;fill-opacity:1" />
    <g
       id="g747"
       transform="translate(-76.657154,-85.994941)">
      <path
         class="st7"
         d="m 326.1,534.7 c 0.1,0.2 0.3,0.4 0.3,0.7 0.1,0.2 0.1,0.5 0.1,0.8 l 0,5.2 -1.3,0 0,-5.3 c 0,-0.4 -0.1,-0.7 -0.3,-1 l -3.6,-5.3 1.5,0 2.3,3.5 1.9,-3.5 1.5,0 -2.7,4.7 0.3,0.2 z"
         id="path749"
         style="fill:#ffffff" />
      <path
         class="st7"
         d="m 333.8,532.4 c 0,-0.5 -0.1,-0.8 -0.4,-1.1 -0.3,-0.3 -0.7,-0.4 -1.1,-0.4 l -2.9,0 0,-1.1 2.9,0 c 0.6,0 1.1,0.1 1.5,0.3 0.4,0.2 0.8,0.5 1,0.9 0.2,0.4 0.3,0.9 0.3,1.5 l 0,5.9 -1.4,0 0,-6 z"
         id="path751"
         style="fill:#ffffff" />
      <path
         class="st7"
         d="m 338,530.9 -1,0 0,-1.1 2.4,0 0,8.6 -1.4,0 0,-7.5 z"
         id="path753"
         style="fill:#ffffff" />
      <path
         class="st7"
         d="m 342.4,530.9 -1,0 0,-1.1 2.4,0 0,8.6 -1.4,0 0,-7.5 z"
         id="path755"
         style="fill:#ffffff" />
      <path
         class="st7"
         d="m 347.8,536.9 c 0.5,0.2 1,0.4 1.5,0.5 0.5,0.1 1,0.2 1.5,0.2 0.7,0 1.3,-0.1 1.9,-0.3 0.6,-0.2 1,-0.5 1.3,-0.9 0.3,-0.4 0.5,-0.9 0.5,-1.5 l 0,-5 1.3,0 0,5.1 c 0,0.8 -0.2,1.5 -0.7,2.1 -0.4,0.6 -1,1 -1.8,1.3 -0.8,0.3 -1.6,0.4 -2.5,0.4 -0.7,0 -1.4,-0.1 -2.2,-0.3 -0.8,-0.2 -1.5,-0.4 -2.1,-0.7 l 0,-7.8 1.3,0 0,6.9 z m 2.4,-1.6 c 0.1,-0.3 0.1,-0.7 0.1,-1.2 l 0,-4.3 1.3,0 0,4.1 c 0,0.5 -0.1,0.9 -0.2,1.3 -0.1,0.4 -0.3,0.7 -0.6,0.9 l -1.1,0 c 0.3,-0.2 0.4,-0.5 0.5,-0.8 z"
         id="path757"
         style="fill:#ffffff" />
      <path
         class="st7"
         d="m 362.1,529.8 6.9,0 0,8.6 -6.9,0 0,-8.6 z m 5.5,7.6 0,-6.4 -4.2,0 0,6.4 4.2,0 z"
         id="path759"
         style="fill:#ffffff" />
      <path
         class="st7"
         d="m 372,530.9 -1,0 0,-1.1 2.4,0 0,8.6 -1.4,0 0,-7.5 z"
         id="path761"
         style="fill:#ffffff" />
      <path
         class="st7"
         d="m 376.7,530.9 -1.6,0 0,-1.1 2.9,0 0,4.8 -1.4,0 0,-3.7 z"
         id="path763"
         style="fill:#ffffff" />
      <path
         class="st7"
         d="m 384.1,532.4 c 0,-0.5 -0.1,-0.8 -0.4,-1.1 -0.3,-0.3 -0.7,-0.4 -1.1,-0.4 l -2.9,0 0,-1.1 2.9,0 c 0.6,0 1.1,0.1 1.5,0.3 0.4,0.2 0.8,0.5 1,0.9 0.2,0.4 0.3,0.9 0.3,1.5 l 0,5.9 -1.4,0 0,-6 z"
         id="path765"
         style="fill:#ffffff" />
      <path
         class="st7"
         d="m 388.3,530.9 -1,0 0,-1.1 2.4,0 0,8.6 -1.4,0 0,-7.5 z"
         id="path767"
         style="fill:#ffffff" />
      <path
         class="st7"
         d="m 394,538.2 c -0.5,-0.3 -0.9,-0.7 -1.2,-1.2 -0.3,-0.5 -0.4,-1.1 -0.4,-1.8 l 0,-5.3 1.4,0 0,5.4 c 0,0.5 0.1,0.9 0.3,1.2 0.2,0.3 0.4,0.6 0.7,0.8 0.3,0.2 0.7,0.3 1.1,0.3 0.4,0 0.8,-0.1 1.1,-0.3 0.3,-0.2 0.6,-0.5 0.7,-0.8 0.2,-0.3 0.3,-0.7 0.3,-1.2 l 0,-2.9 c 0,-0.5 -0.1,-0.8 -0.3,-1.1 -0.2,-0.3 -0.5,-0.4 -0.9,-0.4 -0.3,0 -0.7,0.1 -1.1,0.3 l -0.2,-0.9 c 0.2,-0.2 0.5,-0.3 0.8,-0.4 0.3,-0.1 0.6,-0.1 0.9,-0.1 0.4,0 0.8,0.1 1.2,0.3 0.4,0.2 0.6,0.5 0.7,0.9 0.1,0.4 0.3,0.8 0.3,1.3 l 0,2.9 c 0,0.7 -0.1,1.3 -0.4,1.8 -0.3,0.5 -0.7,0.9 -1.2,1.2 -0.5,0.3 -1.1,0.4 -1.8,0.4 -0.7,0 -1.5,-0.1 -2,-0.4 z"
         id="path769"
         style="fill:#ffffff" />
      <path
         class="st7"
         d="m 402.2,530.9 -1.6,0 0,-1.1 2.9,0 0,4.8 -1.4,0 0,-3.7 z"
         id="path771"
         style="fill:#ffffff" />
      <path
         class="st7"
         d="m 412.1,529.8 0,1.1 -1.4,0 0,7.5 -1.4,0 0,-7.5 -4.1,0 0,-1.1 6.9,0 z"
         id="path773"
         style="fill:#ffffff" />
      <path
         class="st7"
         d="m 414.3,530.9 -1,0 0,-1.1 2.4,0 0,8.6 -1.4,0 0,-7.5 z"
         id="path775"
         style="fill:#ffffff" />
      <path
         class="st7"
         d="m 423.2,534.7 2.7,3.8 -1.5,0 -3.8,-5.3 c -0.5,0.3 -0.8,0.9 -0.8,1.7 l 0,3.6 -1.3,0 0,-3.1 c 0,-0.7 0.1,-1.4 0.4,-1.8 0.3,-0.5 0.6,-0.8 1.2,-1.1 l -1.9,-2.6 1.5,0 2.7,3.7 2.1,-3.7 1.5,0 -2.8,4.8 z"
         id="path777"
         style="fill:#ffffff" />
    </g>
  </g>
</svg>
