<?xml version="1.0" encoding="UTF-8" standalone="no"?>
<svg
   xmlns:dc="http://purl.org/dc/elements/1.1/"
   xmlns:cc="http://creativecommons.org/ns#"
   xmlns:rdf="http://www.w3.org/1999/02/22-rdf-syntax-ns#"
   xmlns:svg="http://www.w3.org/2000/svg"
   xmlns="http://www.w3.org/2000/svg"
   width="153.14"
   height="53.360001"
   viewBox="0 0 153.14 53.360002"
   id="svg21663"
   version="1.1">
  <defs
     id="defs21665" />
  <metadata
     id="metadata21668">
    <rdf:RDF>
      <cc:Work
         rdf:about="">
        <dc:format>image/svg+xml</dc:format>
        <dc:type
           rdf:resource="http://purl.org/dc/dcmitype/StillImage" />
        <dc:title></dc:title>
      </cc:Work>
    </rdf:RDF>
  </metadata>
  <g
     id="layer1"
     transform="translate(-244.6807,-417.11078)">
    <polygon
       class="st947"
       points="-1133.65,372.22 -1128.15,407.9 -1083.15,420.46 "
       id="polygon6932"
       style="fill:#568c78"
       transform="translate(1404.4007,50.010775)" />
    <polygon
       class="st948"
       points="-1007.5,404.14 -1128.15,407.9 -1133.31,371.3 -1006.58,367.1 "
       id="polygon6934"
       style="fill:#d68a2a;fill-opacity:1"
       transform="translate(1404.4007,50.010775)" />
    <g
       id="g6936"
       transform="translate(1404.4007,50.010775)">
      <path
         class="st946"
         d="m -1105.27,391.86 0,-8.81 -2.69,0.9 0,-1.58 4.34,-1.59 0.23,0 0,11.07 -1.88,0 z"
         id="path6938"
         style="fill:#ffffff" />
      <path
         class="st946"
         d="m -1088.85,384.07 -3.13,7.79 -2.05,0 3.1,-7.5 -5.05,0 0,-4.14 1.92,0 0,2.63 5.2,0 0,1.22 z"
         id="path6940"
         style="fill:#ffffff" />
      <path
         class="st946"
         d="m -1086.74,384.36 -0.91,0 0,-1.51 2.83,0 0,9.01 -1.92,0 0,-7.5 z"
         id="path6942"
         style="fill:#ffffff" />
      <path
         class="st946"
         d="m -1082.97,391.63 0.3,-1.42 c 0.78,0.19 1.48,0.29 2.08,0.29 0.78,-0.01 1.36,-0.2 1.75,-0.56 0.39,-0.36 0.58,-0.89 0.58,-1.59 l 0,-3.99 -4.37,0 0,-1.51 6.29,0 0,5.14 c 0,1.35 -0.36,2.36 -1.07,3.02 -0.71,0.66 -1.7,0.99 -2.97,0.99 -0.77,0 -1.63,-0.12 -2.59,-0.37 z"
         id="path6944"
         style="fill:#ffffff" />
      <path
         class="st946"
         d="m -1071.88,389.96 c 0.46,0.2 0.95,0.35 1.46,0.46 0.52,0.11 1,0.17 1.46,0.17 0.72,0 1.36,-0.1 1.91,-0.31 0.55,-0.2 0.99,-0.52 1.3,-0.94 0.31,-0.42 0.47,-0.95 0.47,-1.59 l 0,-4.9 1.86,0 0,5.11 c 0,0.9 -0.24,1.66 -0.73,2.28 -0.49,0.62 -1.14,1.09 -1.96,1.4 -0.82,0.31 -1.75,0.47 -2.77,0.47 -0.79,0 -1.61,-0.09 -2.46,-0.28 -0.85,-0.19 -1.64,-0.47 -2.4,-0.83 l 0,-8.15 1.86,0 0,7.11 z m 2.22,-1.61 c 0.08,-0.35 0.11,-0.75 0.11,-1.19 l 0,-4.31 1.86,0 0,3.93 c 0,0.52 -0.06,0.98 -0.19,1.4 -0.12,0.42 -0.3,0.75 -0.53,1.01 l -1.58,-0.03 c 0.15,-0.18 0.25,-0.46 0.33,-0.81 z"
         id="path6946"
         style="fill:#ffffff" />
      <path
         class="st946"
         d="m -1055.35,388 2.74,3.86 -2.14,0 -3.67,-5.18 c -0.17,0.15 -0.3,0.33 -0.38,0.54 -0.08,0.21 -0.13,0.46 -0.13,0.75 l 0,3.89 -1.86,0 0,-3.11 c 0,-0.81 0.13,-1.46 0.39,-1.96 0.26,-0.5 0.67,-0.88 1.23,-1.15 l -1.97,-2.78 2.15,0 2.46,3.48 1.83,-3.48 2.16,0 -2.81,5.14 z"
         id="path6948"
         style="fill:#ffffff" />
    </g>
    <g
       id="g4679-4-9_3_"
       transform="matrix(0.42702949,0,0,0.42702949,1554.65,384.18726)"
       class="st938"
       style="opacity:1">
      <path
         id="path6-3-7_3_"
         class="st939"
         d="m -2749,106.85 c 4.64,-0.23 8.78,-4.14 9.77,-8.55 -4.41,0 -8.81,4.4 -9.77,8.55 z m 3.91,25.66 c -1.71,-10.02 -4.89,-19.81 -7.82,-29.58 -0.75,-1.97 -3.91,-0.49 -5.62,-0.98 -5.39,6.37 -13.44,9.04 -20.54,12.95 -6.35,2.95 -12.22,8.31 -19.32,8.8 -0.23,4.64 1.71,8.81 2.46,13.21 4.64,-1.48 6.6,-0.98 8.78,3.42 4.4,5.62 14.92,2.44 15.41,-4.64 6.35,0.23 12.72,-0.26 18.83,-0.49 2.44,2.44 9.27,1.95 7.82,-2.69 z m -32.27,6.35 c -3.18,3.42 -7.33,0.73 -9.04,-2.93 l 1.45,0 c 2.96,0.49 12.72,-1.96 7.59,2.93 z m 0.73,-10.02 c -3.16,-0.49 -9.53,0.98 -10.51,-1.45 9.79,-4.89 19.32,-10.28 28.62,-15.64 2.67,4.87 3.91,11.24 4.87,17.09 l -22.98,0 z"
         style="opacity:1;fill:#ce8b35;fill-opacity:1" />
      <path
         id="path10-3-4_3_"
         class="st939"
         d="m -2739.47,113.69 c -1.71,0.75 -3.42,1.97 -3.42,3.91 4.15,0 8.06,-1.22 11.97,-2.44 0.98,-5.88 -5.62,-2.69 -8.55,-1.47 z m -0.49,12.71 c -1.22,0 -1.97,0.49 -2.93,0.98 2.18,2.93 7.8,5.36 11.24,3.16 2.44,-3.65 -5.87,-3.16 -8.31,-4.14 z"
         style="opacity:1;fill:#ce8b35;fill-opacity:1" />
    </g>
  </g>
</svg>
