<?xml version="1.0" encoding="UTF-8" standalone="no"?>
<svg
   xmlns:dc="http://purl.org/dc/elements/1.1/"
   xmlns:cc="http://creativecommons.org/ns#"
   xmlns:rdf="http://www.w3.org/1999/02/22-rdf-syntax-ns#"
   xmlns:svg="http://www.w3.org/2000/svg"
   xmlns="http://www.w3.org/2000/svg"
   version="1.1"
   id="svg8088"
   viewBox="0 0 98.400003 64.040002"
   height="64.040001"
   width="98.400002">
  <defs
     id="defs8090" />
  <metadata
     id="metadata8093">
    <rdf:RDF>
      <cc:Work
         rdf:about="">
        <dc:format>image/svg+xml</dc:format>
        <dc:type
           rdf:resource="http://purl.org/dc/dcmitype/StillImage" />
        <dc:title></dc:title>
      </cc:Work>
    </rdf:RDF>
  </metadata>
  <g
     transform="translate(-370.92357,-537.4851)"
     id="layer1">
    <polygon
       class="st943"
       points="-385.15,1614.21 -335.95,1599.18 -346.25,1551.84 "
       id="polygon7631"
       style="fill:#b48e59"
       transform="translate(805.27357,-1012.6849)" />
    <polygon
       class="st944"
       points="-346.25,1551.84 -335.95,1599.18 -404.92,1599.18 -411.74,1550.17 "
       id="polygon7735"
       style="fill:#b8af79"
       transform="translate(805.27357,-1012.6849)" />
    <g
       id="g7745"
       transform="translate(805.27357,-1012.6849)">
      <path
         class="st946"
         d="m -386.66,1560.89 c 0.63,0.6 0.95,1.51 0.95,2.72 l 0,5.91 -2.03,0 -0.01,-6.05 c 0,-0.65 -0.14,-1.13 -0.42,-1.43 -0.28,-0.3 -0.72,-0.45 -1.32,-0.45 l -1.29,0 c -0.12,0.29 -0.22,0.64 -0.3,1.04 -0.07,0.4 -0.11,0.79 -0.11,1.18 l 0,2.96 c 0,0.93 -0.23,1.63 -0.7,2.13 -0.47,0.5 -1.13,0.74 -1.98,0.74 -0.33,0 -0.69,-0.03 -1.08,-0.09 l 0,-1.6 c 0.19,0.02 0.37,0.02 0.54,0.02 0.42,0 0.74,-0.11 0.94,-0.33 0.2,-0.22 0.3,-0.56 0.3,-1.03 l 0,-2.64 c 0,-0.42 0.06,-0.85 0.17,-1.29 0.11,-0.44 0.27,-0.81 0.46,-1.1 l -1.63,0 0,-1.6 4.66,0 c 1.27,0 2.22,0.3 2.85,0.91 z"
         id="path7747"
         style="fill:#ffffff" />
      <path
         class="st946"
         d="m -382.9,1561.58 -0.96,0 0,-1.6 3,0 0,9.54 -2.04,0 0,-7.94 z"
         id="path7749"
         style="fill:#ffffff" />
      <path
         class="st946"
         d="m -371.07,1559.98 0,1.6 -1.64,0 0,7.94 -2.04,0 0,-7.94 -4.27,0 0,-1.6 7.95,0 z"
         id="path7751"
         style="fill:#ffffff" />
      <path
         class="st946"
         d="m -368.57,1563.82 c 0.05,-0.43 0.17,-0.84 0.35,-1.23 0.18,-0.39 0.39,-0.69 0.63,-0.91 0.04,-0.04 0.08,-0.07 0.14,-0.1 l -0.02,-0.03 c -0.22,0.04 -0.49,0.1 -0.82,0.19 -0.33,0.09 -0.61,0.18 -0.86,0.27 l -0.45,-1.49 c 0.62,-0.22 1.33,-0.41 2.13,-0.54 0.8,-0.14 1.55,-0.21 2.25,-0.21 1.37,0 2.42,0.36 3.14,1.07 0.72,0.71 1.08,1.76 1.09,3.15 l 0,5.53 -4.06,0 0,-1.6 2.02,0 0,-4.2 c 0,-0.74 -0.16,-1.3 -0.47,-1.7 -0.31,-0.4 -0.77,-0.59 -1.36,-0.59 -0.48,0 -0.87,0.19 -1.17,0.56 -0.3,0.37 -0.49,0.9 -0.56,1.58 l -0.63,5.93 -2.01,0 0.66,-5.68 z"
         id="path7753"
         style="fill:#ffffff" />
      <path
         class="st946"
         d="m -351.31,1559.98 0,5.58 c 0,0.89 -0.19,1.65 -0.56,2.27 -0.37,0.62 -0.89,1.09 -1.56,1.42 -0.67,0.32 -1.45,0.48 -2.34,0.48 -1.18,0 -2.38,-0.23 -3.6,-0.68 l 0.45,-1.5 c 0.87,0.33 1.66,0.53 2.36,0.61 -0.19,-0.19 -0.36,-0.41 -0.51,-0.67 -0.14,-0.25 -0.25,-0.52 -0.31,-0.81 l -1.52,-6.7 2.04,0 1.47,6.87 c 0.11,0.49 0.24,0.89 0.41,1.2 0.52,-0.17 0.93,-0.45 1.21,-0.85 0.29,-0.4 0.43,-0.92 0.43,-1.54 l 0,-5.67 2.03,0 z"
         id="path7755"
         style="fill:#ffffff" />
      <path
         class="st946"
         d="m -383.75,1579.69 0,1.6 -1.64,0 0,7.94 -2.04,0 0,-7.94 -4.27,0 0,-1.6 7.95,0 z"
         id="path7757"
         style="fill:#ffffff" />
      <path
         class="st946"
         d="m -381.56,1581.28 -0.96,0 0,-1.6 3,0 0,9.54 -2.04,0 0,-7.94 z"
         id="path7759"
         style="fill:#ffffff" />
      <path
         class="st946"
         d="m -376.17,1583.53 c 0.05,-0.43 0.17,-0.84 0.35,-1.23 0.18,-0.39 0.39,-0.69 0.63,-0.91 0.04,-0.04 0.08,-0.07 0.14,-0.1 l -0.02,-0.03 c -0.22,0.04 -0.49,0.1 -0.82,0.19 -0.33,0.09 -0.61,0.18 -0.86,0.27 l -0.45,-1.49 c 0.62,-0.22 1.33,-0.4 2.13,-0.54 0.8,-0.14 1.55,-0.2 2.25,-0.2 1.37,0 2.42,0.36 3.14,1.07 0.72,0.71 1.08,1.76 1.09,3.15 l 0,5.53 -4.06,0 0,-1.6 2.02,0 0,-4.19 c 0,-0.74 -0.16,-1.3 -0.47,-1.7 -0.32,-0.39 -0.77,-0.59 -1.36,-0.59 -0.48,0 -0.87,0.19 -1.17,0.56 -0.3,0.38 -0.49,0.9 -0.56,1.58 l -0.63,5.93 -2.01,0 0.66,-5.7 z"
         id="path7761"
         style="fill:#ffffff" />
      <path
         class="st946"
         d="m -365.41,1581.28 -1.61,0 0,-1.6 3.65,0 0,5.38 -2.04,0 0,-3.78 z"
         id="path7763"
         style="fill:#ffffff" />
      <path
         class="st946"
         d="m -356.09,1584.92 2.31,3.34 0,0.95 -7.31,0 0,-1.6 4.7,0 -5.39,-7.93 2.28,0 2.22,3.46 1.76,-3.46 2.29,0 -2.86,5.24 z"
         id="path7765"
         style="fill:#ffffff" />
    </g>
  </g>
</svg>
