<?xml version="1.0" encoding="UTF-8" standalone="no"?>
<svg
   xmlns:dc="http://purl.org/dc/elements/1.1/"
   xmlns:cc="http://creativecommons.org/ns#"
   xmlns:rdf="http://www.w3.org/1999/02/22-rdf-syntax-ns#"
   xmlns:svg="http://www.w3.org/2000/svg"
   xmlns="http://www.w3.org/2000/svg"
   version="1.1"
   id="svg3648"
   viewBox="0 0 191.46 77.669999"
   height="77.669998"
   width="191.46001">
  <defs
     id="defs3650" />
  <metadata
     id="metadata3653">
    <rdf:RDF>
      <cc:Work
         rdf:about="">
        <dc:format>image/svg+xml</dc:format>
        <dc:type
           rdf:resource="http://purl.org/dc/dcmitype/StillImage" />
        <dc:title></dc:title>
      </cc:Work>
    </rdf:RDF>
  </metadata>
  <g
     transform="translate(-283.61929,-422.09863)"
     id="layer1">
    <polygon
       transform="translate(37.479286,-115.72137)"
       class="st943"
       points="246.99,570.19 257.03,615.49 341.87,537.82 "
       id="polygon7196"
       style="fill:#b48e59" />
    <polygon
       transform="translate(37.479286,-115.72137)"
       class="st944"
       points="370.33,609.43 257.03,615.49 246.14,570.23 363.38,565.01 "
       id="polygon7198"
       style="fill:#b8af79" />
    <g
       transform="translate(37.479286,-115.72137)"
       id="g7200">
      <path
         class="st946"
         d="m 266.7,583.54 9.18,0 0,11.5 -9.18,0 0,-11.5 z m 7.38,10.04 0,-8.58 -5.57,0 0,8.58 5.57,0 z"
         id="path7202"
         style="fill:#ffffff" />
      <path
         class="st946"
         d="m 280.8,584.99 -2.11,0 0,-1.46 3.93,0 0,6.42 -1.82,0 0,-4.96 z"
         id="path7204"
         style="fill:#ffffff" />
      <path
         class="st946"
         d="m 294.56,584.63 c 0.75,0.73 1.13,1.83 1.13,3.31 l 0,7.1 -1.81,0 -0.01,-7.21 c 0,-1 -0.21,-1.72 -0.64,-2.17 -0.43,-0.45 -1.12,-0.67 -2.07,-0.67 l -1.63,0 c -0.21,0.35 -0.38,0.8 -0.51,1.35 -0.13,0.55 -0.19,1.11 -0.19,1.69 l 0,3.88 c 0,1.05 -0.25,1.86 -0.75,2.4 -0.5,0.55 -1.23,0.82 -2.19,0.82 -0.28,0 -0.65,-0.03 -1.12,-0.09 l 0,-1.46 c 0.21,0.03 0.43,0.04 0.67,0.04 0.57,0 0.98,-0.15 1.24,-0.44 0.26,-0.29 0.38,-0.75 0.38,-1.39 l 0,-3.63 c 0,-0.59 0.08,-1.18 0.23,-1.77 0.16,-0.59 0.37,-1.06 0.64,-1.41 l -2.16,0 0,-1.46 5.36,0 c 1.54,0.02 2.68,0.38 3.43,1.11 z"
         id="path7206"
         style="fill:#ffffff" />
      <path
         class="st946"
         d="m 299.99,584.99 -1.34,0 0,-1.46 3.15,0 0,11.5 -1.82,0 0,-10.04 z"
         id="path7208"
         style="fill:#ffffff" />
      <path
         class="st946"
         d="m 310.59,587.02 c 0,-0.63 -0.18,-1.12 -0.55,-1.48 -0.37,-0.36 -0.87,-0.54 -1.51,-0.54 l -3.87,0 0,-1.46 3.93,0 c 0.79,0 1.47,0.14 2.04,0.43 0.57,0.29 1.01,0.7 1.31,1.24 0.3,0.54 0.45,1.19 0.45,1.94 l 0,7.89 -1.81,0 0,-8.02 z"
         id="path7210"
         style="fill:#ffffff" />
      <path
         class="st946"
         d="m 317.04,584.99 -2.11,0 0,-1.46 3.93,0 0,6.42 -1.82,0 0,-4.96 z"
         id="path7212"
         style="fill:#ffffff" />
      <path
         class="st946"
         d="m 324.45,593 c 0.63,0.27 1.28,0.48 1.97,0.63 0.69,0.15 1.35,0.22 1.97,0.22 0.94,0 1.78,-0.13 2.51,-0.4 0.74,-0.27 1.32,-0.68 1.74,-1.23 0.42,-0.55 0.63,-1.23 0.63,-2.04 l 0,-6.64 1.76,0 0,6.81 c 0,1.08 -0.29,1.99 -0.87,2.74 -0.58,0.75 -1.37,1.3 -2.36,1.67 -0.99,0.37 -2.1,0.56 -3.32,0.56 -0.95,0 -1.93,-0.11 -2.93,-0.34 -1,-0.22 -1.96,-0.56 -2.86,-0.99 l 0,-10.45 1.76,0 0,9.46 z m 3.31,-2.18 c 0.13,-0.45 0.19,-0.97 0.19,-1.56 l 0,-5.72 1.77,0 0,5.4 c 0,0.66 -0.08,1.24 -0.24,1.73 -0.16,0.49 -0.41,0.91 -0.75,1.25 l -1.5,-0.06 c 0.23,-0.24 0.41,-0.59 0.53,-1.04 z"
         id="path7214"
         style="fill:#ffffff" />
    </g>
    <g
       transform="translate(37.479286,-115.72137)"
       class="st935"
       id="g7216"
       style="opacity:1">
      <path
         id="path357_5_"
         class="st939"
         d="m 341.41,597.13 c 0,0.69 0.23,0.92 0.92,0.92 0.69,0 0.92,-0.23 0.92,-0.92 l 0,-8.27 0.92,0 0,8.27 c 0,0.69 0.23,0.92 0.92,0.92 0.69,0 0.92,-0.23 0.92,-0.92 l 0,-14.02 0.46,0 0,5.06 c 0,0.23 0,0.46 0.23,0.69 0.23,0.23 0.46,0.23 0.69,0 0.23,-0.23 0.46,-0.46 0.46,-0.69 l 0,-5.52 c 0,-0.69 -0.23,-1.15 -0.69,-1.38 -0.46,-0.23 -0.92,-0.46 -1.61,-0.46 l -3.68,0 c -0.69,0 -1.15,0.23 -1.61,0.46 -0.46,0.23 -0.69,0.69 -0.69,1.38 l 0,5.75 c 0,0.23 0.23,0.46 0.46,0.46 0.23,0.23 0.46,0.23 0.69,0 0.23,-0.23 0.23,-0.23 0.23,-0.46 l 0,-5.29 0.46,0 0,14.02 z"
         style="opacity:1;fill:#b69d67;fill-opacity:1" />
      <path
         id="path359_5_"
         class="st939"
         d="m 359.34,590.46 -2.53,-7.35 0,0 c 0,-0.23 0,-0.23 0.23,-0.23 0,0 0.23,0 0.23,0.23 l 1.84,4.6 c 0.23,0.23 0.46,0.46 0.92,0.46 0.23,0 0.23,-0.23 0.46,-0.46 0,-0.23 0,-0.46 0,-0.46 l -1.84,-4.6 c 0,-0.46 -0.23,-0.92 -0.69,-1.38 -0.46,-0.46 -0.92,-0.46 -1.61,-0.46 l -2.3,0 c -0.69,0 -1.15,0.23 -1.61,0.69 -0.46,0.46 -0.69,0.92 -0.92,1.38 l -1.61,4.6 c 0,0 0,0.23 0,0.46 0,0.23 0.23,0.46 0.46,0.46 0.46,0 0.92,-0.23 0.92,-0.46 l 1.84,-4.83 c 0,0 0,-0.23 0.23,-0.23 0.23,0 0.23,0 0.23,0.23 l 0,0 -2.53,7.35 0,0.46 c 0,0 0,0.23 0.23,0.23 0.23,0.23 0.23,0.23 0.23,0.23 l 1.61,0 0,5.75 c 0,0.23 0,0.46 0.23,0.69 0.23,0.23 0.46,0.23 0.69,0.23 0.23,0 0.46,0 0.69,-0.23 0.23,-0.23 0.23,-0.46 0.23,-0.69 l 0,-5.75 c 0,0 0,0 0.23,0 0.23,0 0.23,0 0.46,0 0.23,0 0.23,0 0.23,0 l 0,5.75 c 0,0.23 0,0.46 0.23,0.69 0.23,0.23 0.46,0.23 0.69,0.23 0.23,0 0.46,0 0.69,-0.23 0.23,-0.23 0.23,-0.46 0.23,-0.69 l 0,-5.52 1.61,0 c 0,0 0.23,0 0.23,-0.23 0.23,-0.23 0.23,-0.23 0.23,-0.23 l 0,-0.69 -0.46,0 z"
         style="opacity:1;fill:#b69d67;fill-opacity:1" />
      <path
         id="path361_5_"
         class="st939"
         d="m 341.87,578.28 c 0,0.46 0.23,0.92 0.46,1.38 0.46,0.46 0.69,0.46 1.38,0.46 0.46,0 0.92,-0.23 1.38,-0.46 0.46,-0.46 0.46,-0.92 0.46,-1.38 0,-0.46 -0.23,-0.92 -0.46,-1.38 -0.46,-0.46 -0.69,-0.46 -1.38,-0.46 -0.46,0 -0.92,0.23 -1.38,0.46 -0.46,0.46 -0.46,0.92 -0.46,1.38 l 0,0 z"
         style="opacity:1;fill:#b69d67;fill-opacity:1" />
      <path
         id="path363_5_"
         class="st939"
         d="m 352.9,578.28 c 0,0.46 0.23,0.92 0.46,1.38 0.46,0.46 0.69,0.46 1.38,0.46 0.69,0 0.92,-0.23 1.38,-0.46 0.46,-0.46 0.46,-0.69 0.46,-1.38 0,-0.46 -0.23,-0.92 -0.46,-1.38 -0.46,-0.46 -0.69,-0.46 -1.38,-0.46 -0.69,0 -0.92,0.23 -1.38,0.46 -0.23,0.46 -0.46,0.92 -0.46,1.38 l 0,0 z"
         style="opacity:1;fill:#b69d67;fill-opacity:1" />
    </g>
  </g>
</svg>
