<?xml version="1.0" encoding="UTF-8" standalone="no"?>
<svg
   xmlns:dc="http://purl.org/dc/elements/1.1/"
   xmlns:cc="http://creativecommons.org/ns#"
   xmlns:rdf="http://www.w3.org/1999/02/22-rdf-syntax-ns#"
   xmlns:svg="http://www.w3.org/2000/svg"
   xmlns="http://www.w3.org/2000/svg"
   xmlns:xlink="http://www.w3.org/1999/xlink"
   version="1.1"
   id="svg10545"
   viewBox="0 0 48.3 39.76647"
   height="11.222981mm"
   width="13.631333mm">
  <defs
     id="defs10547">
    <clipPath
       id="SVGID_46_">
      <use
         height="100%"
         width="100%"
         y="0"
         x="0"
         xlink:href="#SVGID_45_"
         style="overflow:visible"
         id="use381" />
    </clipPath>
  </defs>
  <metadata
     id="metadata10550">
    <rdf:RDF>
      <cc:Work
         rdf:about="">
        <dc:format>image/svg+xml</dc:format>
        <dc:type
           rdf:resource="http://purl.org/dc/dcmitype/StillImage" />
        <dc:title></dc:title>
      </cc:Work>
    </rdf:RDF>
  </metadata>
  <g
     transform="translate(-281.5643,-406.76468)"
     id="layer1">
    <rect
       style="fill:#411025"
       id="rect323"
       x="281.5643"
       y="406.76468"
       class="st10"
       width="48.299999"
       height="13" />
    <g
       id="g4155">
      <path
         id="path4152"
         style="fill:#37d7e3"
         d="m 286.25418,410.34056 q 0.20812,0.0788 0.37687,0.12375 0.16875,0.045 0.37125,0.0731 0.2025,0.0281 0.46688,0.0394 0.27,0.006 0.68625,0.006 l 1.92375,0 0,0.86625 -1.33313,1.49625 q 0.41063,0.0113 0.79875,0.14062 0.38813,0.12375 0.66375,0.41063 0.30938,0.30937 0.45563,0.73687 0.14625,0.42188 0.14625,0.86063 0,0.53437 -0.18563,0.95062 -0.18,0.41625 -0.50062,0.73125 -0.315,0.32063 -0.75375,0.54 -0.43313,0.225 -0.93938,0.37688 -0.3825,0.1125 -0.73687,0.17437 -0.34875,0.0675 -0.68063,0.10125 -0.32625,0.0337 -0.64125,0.045 -0.30937,0.0113 -0.6075,0.0169 l 0,-1.13625 q 0.44438,-0.0281 0.8775,-0.0844 0.43313,-0.0562 0.82125,-0.16312 0.3825,-0.10688 0.71438,-0.25313 0.33187,-0.15187 0.57375,-0.34312 0.24187,-0.19688 0.37687,-0.44438 0.14063,-0.2475 0.14063,-0.55687 0,-0.27 -0.0788,-0.46125 -0.0788,-0.19125 -0.21938,-0.30938 -0.14062,-0.11812 -0.33187,-0.16875 -0.19125,-0.0562 -0.41625,-0.0562 -0.225,0 -0.4725,0.0506 -0.2475,0.045 -0.50063,0.12937 l -0.42187,-0.83812 1.44562,-1.65938 -0.70312,0 q -0.19125,0 -0.41625,-0.0113 -0.225,-0.0113 -0.45563,-0.0394 -0.23062,-0.0337 -0.45562,-0.09 -0.225,-0.0619 -0.41625,-0.16313 l 0.4275,-1.09125 z" />
      <path
         d="m 296.66429,408.9647 0,1.6 3.2,0 c 0,0.1 0,0.2 0.1,0.2 0,0.1 0,0.1 0,0.2 0,0.1 0,0.2 0,0.3 0,0.1 0,0.2 0,0.3 l 0,1.2 c 0,0.4 -0.1,0.9 -0.3,1.3 -0.2,0.4 -0.4,0.8 -0.8,1.2 l -1.4,1.6 -1.1,-0.9 0.6,-0.7 c 0.3,-0.3 0.5,-0.6 0.7,-0.8 0.2,-0.2 0.3,-0.4 0.4,-0.5 0.1,-0.2 0.2,-0.3 0.2,-0.5 0,-0.1 0.1,-0.3 0.1,-0.5 l 0,-1 -3.3,0 0,-3 1.6,0 0,0 z m 7.3,1.7 0,5.9 -1.5,0 0,-4.6 -1,0 0,-1.2 2.5,-0.1 0,0 z m 3.4,1.2 c -0.2,0 -0.4,0 -0.5,0 -0.1,0 -0.3,0 -0.4,0 -0.1,0 -0.3,0 -0.4,-0.1 -0.1,0 -0.3,-0.1 -0.5,-0.1 0.1,-0.2 0.1,-0.4 0.2,-0.6 0.1,-0.2 0.1,-0.4 0.2,-0.6 0.2,0.1 0.4,0.1 0.5,0.1 0.1,0 0.3,0.1 0.4,0.1 0.1,0 0.3,0 0.4,0 0.1,0 0.3,0 0.5,0 l 0.5,0 c 0.2,0 0.5,0 0.7,0.1 0.2,0.1 0.4,0.2 0.6,0.3 0.2,0.1 0.3,0.4 0.4,0.6 0.1,0.3 0.2,0.6 0.2,1 0,0.2 0,0.4 0,0.6 0,0.2 0,0.4 0,0.6 0,0.2 0,0.5 0,0.7 0,0.2 0,0.5 0,0.8 0,0.1 0,0.2 0,0.2 0,0.1 0,0.2 0,0.2 0,0.1 0,0.2 0,0.3 0,0.1 0,0.2 -0.1,0.4 l -4.9,0 0,-1.2 3.5,0 c 0,-0.2 0,-0.4 0,-0.6 0,-0.2 0,-0.4 0,-0.6 0,-0.2 0,-0.4 0,-0.6 0,-0.2 0,-0.4 0,-0.6 0,-0.2 0,-0.4 0,-0.6 0,-0.1 -0.1,-0.3 -0.1,-0.3 -0.1,-0.1 -0.2,-0.1 -0.3,-0.2 -0.1,0 -0.3,0 -0.5,0 l -0.4,0 0,0.1 z m 6.1,3.5 c 0.1,0 0.2,0 0.2,0 0.1,0 0.2,0 0.3,0 0.2,0 0.5,0 0.7,-0.1 0.2,0 0.5,-0.1 0.7,-0.2 0.2,-0.1 0.4,-0.2 0.6,-0.4 0.2,-0.2 0.4,-0.4 0.5,-0.7 0.2,-0.4 0.4,-0.8 0.4,-1.2 0.1,-0.4 0.1,-0.8 0.1,-1.2 0,-0.2 0,-0.3 0,-0.5 0,-0.2 0,-0.3 0,-0.5 0.2,0 0.3,-0.1 0.4,-0.1 0.1,0 0.2,-0.1 0.3,-0.1 0.1,0 0.2,0 0.3,-0.1 0.1,0 0.3,0 0.4,-0.1 0,0.2 0.1,0.3 0.1,0.5 0,0.2 0,0.4 0,0.6 0,0.2 0,0.4 0,0.5 0,0.2 0,0.3 0,0.5 -0.2,1.4 -0.7,2.4 -1.5,3.1 -0.8,0.7 -1.9,1 -3.4,1 -0.2,0 -0.5,0 -0.8,0 -0.3,0 -0.5,0 -0.8,-0.1 l -0.3,-3.4 c 0,-0.2 0,-0.4 0,-0.5 0,-0.1 0,-0.3 0,-0.4 0,-0.1 0,-0.2 0,-0.3 0,-0.1 0,-0.2 -0.1,-0.3 0,-0.1 -0.1,-0.2 -0.1,-0.3 0,-0.1 -0.1,-0.2 -0.1,-0.4 0.2,-0.1 0.4,-0.2 0.7,-0.3 0.2,-0.1 0.5,-0.2 0.7,-0.3 0.1,0.2 0.2,0.4 0.2,0.6 0.1,0.2 0.1,0.4 0.1,0.5 0,0.2 0.1,0.4 0.1,0.6 0,0.2 0,0.4 0.1,0.7 l 0.2,2.9 0,0 z m 0.5,-2.8 c 0.1,-0.2 0.1,-0.3 0.1,-0.4 0,-0.1 0.1,-0.2 0.1,-0.3 0,-0.1 0,-0.2 0.1,-0.2 0,-0.1 0,-0.2 0,-0.2 l 0,-0.1 0,-0.1 c 0,-0.1 0,-0.1 0,-0.2 0,-0.1 0,-0.1 0,-0.2 0.2,-0.1 0.5,-0.1 0.7,-0.2 0.2,-0.1 0.5,-0.1 0.7,-0.2 0,0.2 0.1,0.3 0.1,0.5 0,0.1 0,0.3 0,0.4 0,0.1 0,0.2 0,0.3 0,0.1 0,0.2 -0.1,0.4 0,0.1 -0.1,0.3 -0.1,0.4 -0.1,0.1 -0.1,0.3 -0.2,0.5 l -0.4,1 c -0.2,0 -0.3,-0.1 -0.4,-0.1 -0.1,0 -0.2,-0.1 -0.3,-0.1 -0.1,0 -0.2,-0.1 -0.3,-0.1 -0.1,0 -0.2,-0.1 -0.4,-0.2 l 0.4,-0.9 0,0 z m 11.4,0.1 c -0.1,0.2 -0.1,0.4 -0.2,0.6 -0.1,0.2 -0.1,0.4 -0.2,0.5 -0.1,0.1 -0.2,0.3 -0.3,0.4 -0.1,0.1 -0.3,0.3 -0.4,0.4 l 1.2,1.4 -1,0.9 -2.9,-3.4 c -0.1,0.1 -0.1,0.2 -0.1,0.4 0,0.2 -0.1,0.3 -0.1,0.5 0,0.2 0,0.4 0,0.6 0,0.2 0,0.4 0,0.5 0,0.1 0,0.1 0,0.2 0,0.1 0,0.2 0,0.3 0,0.1 0,0.2 0,0.3 0,0.1 0,0.2 0,0.3 l -1.4,0 c 0,-0.1 0,-0.2 0,-0.3 0,-0.1 0,-0.3 0,-0.4 0,-0.1 0,-0.3 0,-0.5 0,-0.2 0,-0.4 0,-0.6 0,-0.2 0,-0.4 0,-0.6 0,-0.2 0.1,-0.4 0.1,-0.6 0.1,-0.2 0.1,-0.4 0.2,-0.5 0.1,-0.2 0.2,-0.3 0.4,-0.5 -0.1,-0.1 -0.2,-0.2 -0.3,-0.4 -0.1,-0.1 -0.1,-0.2 -0.2,-0.4 -0.1,-0.1 -0.1,-0.3 -0.2,-0.4 -0.1,-0.1 -0.1,-0.3 -0.2,-0.5 0.2,-0.1 0.4,-0.2 0.7,-0.3 0.2,-0.1 0.5,-0.2 0.7,-0.2 0.1,0.2 0.2,0.4 0.2,0.6 0.1,0.2 0.2,0.3 0.2,0.5 0.1,0.1 0.2,0.3 0.3,0.4 0.1,0.1 0.2,0.3 0.4,0.5 l 1.1,1.2 c 0.1,-0.1 0.2,-0.2 0.2,-0.3 0.1,-0.1 0.1,-0.3 0.2,-0.4 0,-0.1 0,-0.1 0.1,-0.2 0,-0.1 0,-0.2 0.1,-0.2 l 0.1,-0.7 -0.8,-0.1 0.2,-1.2 2.1,0.4 0,0.7 -0.2,1.1 0,0 z"
         class="st2"
         id="path447"
         style="fill:#37d7e3" />
    </g>
    <g
       id="g449"
       transform="translate(850.3143,-449.46885)">
      <g
         id="g375">
        <defs
           id="defs377">
          <rect
             id="SVGID_45_"
             x="-658.29999"
             y="457.5"
             width="554"
             height="1157.5" />
        </defs>
        <clipPath
           id="clipPath10535">
          <use
             height="100%"
             width="100%"
             y="0"
             x="0"
             xlink:href="#SVGID_45_"
             style="overflow:visible"
             id="use10537" />
        </clipPath>
        <path
           style="fill:#411025"
           id="path457"
           class="st32"
           d="m -536.8,879.9 c 0,4.3 -7.8,16.1 -7.8,16.1 0,0 -7.8,-11.8 -7.8,-16.1 0,-4.3 3.5,-7.8 7.8,-7.8 4.3,0 7.8,3.5 7.8,7.8"
           clip-path="url(#SVGID_46_)" />
      </g>
    </g>
    <g
       id="g4679-4-4"
       transform="matrix(0.42702949,0,0,0.42702949,810.19899,-72.950991)">
      <path
         style="fill:#ffffff"
         id="path6-3-2"
         class="st3"
         d="m -1174.9,1172.3 c 1.9,-0.1 3.6,-1.7 4,-3.5 -1.8,0 -3.6,1.8 -4,3.5 z m -3.9,-2 c -2.2,2.6 -5.5,3.7 -8.4,5.3 -2.6,1.2 -5,3.4 -7.9,3.6 -0.1,1.9 0.7,3.6 1,5.4 1.9,-0.6 2.7,-0.4 3.6,1.4 1.8,2.3 6.1,1 6.3,-1.9 2.6,0.1 5.2,-0.1 7.7,-0.2 1,1 3.8,0.8 3.2,-1.1 -0.7,-4.1 -2,-8.1 -3.2,-12.1 -0.3,-0.8 -1.6,-0.2 -2.3,-0.4 z" />
      <path
         style="fill:#411025"
         id="path8-6-1"
         class="st10"
         d="m -1178.8,1174.3 c -3.8,2.2 -7.7,4.4 -11.7,6.4 0.4,1 3,0.4 4.3,0.6 3.1,0 6.3,0 9.4,0 -0.4,-2.4 -0.9,-5 -2,-7 z" />
      <path
         style="fill:#ffffff"
         id="path10-3-3"
         class="st3"
         d="m -1172.4,1176.7 c 1.7,0 3.3,-0.5 4.9,-1 0.4,-2.4 -2.3,-1.1 -3.5,-0.6 -0.7,0.3 -1.4,0.8 -1.4,1.6 m 0,4 c 0.9,1.2 3.2,2.2 4.6,1.3 1,-1.5 -2.4,-1.3 -3.4,-1.7 -0.5,0 -0.8,0.2 -1.2,0.4 l 0,0 z" />
      <path
         style="fill:#411025"
         id="path12-1-27"
         class="st10"
         d="m -1190.2,1184.2 c 0.7,1.5 2.4,2.6 3.7,1.2 2.1,-2 -1.9,-1 -3.1,-1.2 -0.2,0 -0.4,0 -0.6,0 z" />
    </g>
  </g>
</svg>
