<?xml version="1.0" encoding="UTF-8" standalone="no"?>
<svg
   xmlns:dc="http://purl.org/dc/elements/1.1/"
   xmlns:cc="http://creativecommons.org/ns#"
   xmlns:rdf="http://www.w3.org/1999/02/22-rdf-syntax-ns#"
   xmlns:svg="http://www.w3.org/2000/svg"
   xmlns="http://www.w3.org/2000/svg"
   xmlns:xlink="http://www.w3.org/1999/xlink"
   version="1.1"
   id="svg6579"
   viewBox="0 0 92.282 59.074221"
   height="16.672058mm"
   width="26.044031mm">
  <defs
     id="defs6581">
    <clipPath
       id="SVGID_94_">
      <use
         height="100%"
         width="100%"
         y="0"
         x="0"
         style="overflow:visible"
         id="use883"
         overflow="visible"
         xlink:href="#SVGID_93_" />
    </clipPath>
    <clipPath
       id="SVGID_96_">
      <use
         height="100%"
         width="100%"
         y="0"
         x="0"
         style="overflow:visible"
         id="use901"
         overflow="visible"
         xlink:href="#SVGID_95_" />
    </clipPath>
    <defs
       id="defs879">
      <rect
         id="SVGID_93_"
         x="97.737999"
         y="47.75"
         width="838.10699"
         height="1751.1" />
    </defs>
    <clipPath
       id="clipPath6551">
      <use
         xlink:href="#SVGID_93_"
         overflow="visible"
         id="use6553"
         style="overflow:visible"
         x="0"
         y="0"
         width="100%"
         height="100%" />
    </clipPath>
  </defs>
  <metadata
     id="metadata6584">
    <rdf:RDF>
      <cc:Work
         rdf:about="">
        <dc:format>image/svg+xml</dc:format>
        <dc:type
           rdf:resource="http://purl.org/dc/dcmitype/StillImage" />
        <dc:title></dc:title>
      </cc:Work>
    </rdf:RDF>
  </metadata>
  <g
     transform="translate(-279.57327,-337.11081)"
     id="layer1">
    <rect
       style="fill:#411025"
       height="19.667"
       width="92.281998"
       y="337.11081"
       x="279.57327"
       id="rect807_1_" />
    <g
       transform="translate(-42.015293,156.00403)"
       id="g811_1_">
      <g
         id="g873">
        <path
           style="fill:#00a3b2;fill-opacity:1"
           d="m 383.057,215.825 c 0,6.505 -11.801,24.356 -11.801,24.356 0,0 -11.8,-17.852 -11.8,-24.356 0,-6.506 5.295,-11.801 11.8,-11.801 6.506,0 11.801,5.295 11.801,11.801"
           clip-path="url(#SVGID_94_)"
           id="path819_1_" />
      </g>
    </g>
    <g
       transform="translate(-42.015293,156.00403)"
       id="g829_1_">
      <g
         id="g891">
        <g
           id="g893">
          <g
             id="g895">
            <defs
               id="defs897">
              <rect
                 height="14.825"
                 width="13.464"
                 y="208.715"
                 x="363.996"
                 id="SVGID_95_" />
            </defs>
            <clipPath
               id="clipPath6562">
              <use
                 height="100%"
                 width="100%"
                 y="0"
                 x="0"
                 style="overflow:visible"
                 id="use6564"
                 overflow="visible"
                 xlink:href="#SVGID_95_" />
            </clipPath>
            <path
               style="fill:#ffffff"
               d="m 374.283,213.707 c -0.605,-0.303 -1.06,-0.605 -1.514,-0.908 0.303,-0.453 0.908,-1.21 0.757,-1.815 0,-0.151 -0.151,-0.453 -0.303,-0.604 -0.152,-0.151 -0.303,-0.151 -0.454,-0.151 -0.302,0 -0.756,0.303 -1.059,0.454 0,-0.151 0,-0.151 0,-0.303 0.151,-0.757 0.454,-1.361 1.059,-1.361 l 0,0 c 0.605,0 1.362,0.453 1.514,1.361 0.453,1.057 0.303,2.116 0,3.327 m -1.967,-1.361 c -0.151,-0.303 -0.303,-0.605 -0.454,-0.908 0.151,-0.454 0.454,-0.756 0.757,-0.756 0.15,0 0.15,0 0.15,0 0.151,0 0.151,0.15 0.151,0.302 0.152,0.453 -0.301,0.907 -0.604,1.362 m -0.757,0.604 -0.454,0.303 0.151,-0.605 c 0,-0.151 0.151,-0.453 0.303,-0.756 0.151,0.151 0.303,0.454 0.454,0.604 -0.302,0.303 -0.454,0.454 -0.454,0.454 m 5.901,4.992 c 0,-0.151 -1.06,-3.025 -2.421,-3.781 -0.151,0 -0.151,-0.151 -0.303,-0.151 0.454,-1.362 0.605,-2.572 0.303,-3.631 -0.303,-1.06 -1.21,-1.815 -2.118,-1.664 -0.756,0 -1.361,0.756 -1.513,1.664 0,0.303 0,0.604 0,0.907 -0.151,0.303 -0.303,0.454 -0.303,0.605 l -7.109,11.194 c 0,0.151 -0.151,0.151 0,0.303 l 0,0.151 0.15,0 c 0.151,0 0.151,-0.151 0.303,-0.151 l 8.17,-10.136 c 0.453,0.454 1.21,0.757 1.664,1.06 -0.303,0.756 -0.605,1.664 -0.908,2.571 -1.059,2.572 -0.605,4.689 0.151,5.144 l 0.151,0 c 0,0 0.151,0 0.151,-0.151 0,-0.151 0,-0.303 0,-0.303 -0.605,-0.302 -1.059,-2.269 0,-4.538 0.454,-0.908 0.757,-1.815 0.907,-2.572 0,0 0.151,0 0.151,0.151 1.211,0.605 2.27,3.479 2.27,3.479 0,0.151 0.151,0.151 0.303,0.151 -0.151,-0.15 10e-4,-0.302 10e-4,-0.302"
               clip-path="url(#SVGID_96_)"
               id="path837_1_" />
          </g>
        </g>
      </g>
    </g>
    <g
       transform="translate(-100.14671,-79.045186)"
       id="g981">
      <path
         style="fill:#fe7a8e"
         id="path983"
         d="m 387.738,425.233 c 0,0.454 0,0.756 0,1.059 0,0.303 0,0.454 -0.151,0.757 l -2.269,-0.303 c 0,-0.303 0.151,-0.454 0.151,-0.757 0,-0.302 0,-0.604 0,-0.907 l 0,-0.907 -1.513,0 0,-1.664 3.781,0 0,2.722 z" />
      <path
         style="fill:#fe7a8e"
         id="path986"
         d="m 392.579,425.233 c 0,0.454 0,0.756 0,1.059 0,0.303 0,0.454 -0.151,0.757 l -2.27,-0.303 c 0,-0.303 0.151,-0.454 0.151,-0.757 0,-0.302 0,-0.604 0,-0.907 l 0,-0.907 -1.513,0 0,-1.664 3.782,0 0,2.722 z" />
      <path
         style="fill:#fe7a8e"
         id="path988"
         d="m 399.538,422.51 c 0,0.15 0,0.302 0.151,0.302 0,0.303 0,0.454 0,0.757 l 0,1.361 c 0,1.361 -0.454,1.967 -1.211,2.875 l -1.815,1.966 -1.664,-1.361 0.303,-0.303 c 1.513,-1.815 2.118,-2.118 2.118,-3.025 l 0,-0.907 -3.782,0 0,-3.782 2.27,0 0,1.967 3.631,0 0,0.15 z" />
      <path
         style="fill:#fe7a8e"
         id="path990"
         d="m 402.412,422.056 c 1.513,0.454 2.572,0.756 3.631,1.21 0.908,0.303 1.21,0.908 1.21,1.967 l 0,2.27 c 0,0.302 0,0.453 0,0.604 0,0.303 -0.151,0.757 -0.303,1.362 l -6.202,0 0,-1.665 4.538,0 0,-2.269 c 0,-0.454 0,-0.757 -0.453,-0.908 -0.151,-0.151 -0.605,-0.151 -1.211,-0.453 l -0.453,1.059 0.907,0.605 -0.907,1.513 -2.421,-1.513 1.664,-3.782 z" />
      <path
         style="fill:#fe7a8e"
         id="path992"
         d="m 413.154,422.51 c 1.059,0 2.118,0.302 2.27,1.814 0,0.757 0,1.211 0,1.967 0,1.211 -0.757,3.328 -3.329,3.328 -2.571,0 -3.328,-2.269 -3.328,-3.328 0,-0.756 0.151,-1.361 0.605,-1.967 -0.303,0 -0.605,0 -1.059,-0.15 0.151,-0.605 0.303,-1.211 0.453,-1.664 0.757,0.15 0.908,0.15 1.514,0.15 l 2.874,0 0,-0.15 z m -2.119,1.814 c -0.151,0.303 -0.151,0.605 -0.151,1.06 0,0.151 0,0.454 0,0.907 0,0.757 0.151,1.815 1.21,1.815 1.06,0 1.211,-1.059 1.211,-1.967 l 0,-0.453 c 0,-1.06 -0.151,-1.211 -1.211,-1.211 l -1.059,0 0,-0.151 z" />
      <path
         style="fill:#fe7a8e"
         id="path994"
         d="m 417.389,429.469 0,-5.145 -1.21,0 0,-1.664 3.328,0 0,6.809 -2.118,0 z" />
      <path
         style="fill:#fe7a8e"
         id="path996"
         d="m 422.382,424.324 c -0.454,0 -0.757,0 -1.513,-0.15 0.15,-0.605 0.302,-1.211 0.453,-1.664 0.757,0.15 0.908,0.15 1.513,0.15 l 5.144,0 c 0,0.151 0,0.151 0.151,0.303 0,0.151 0,0.303 0,0.605 l 0,1.815 c 0,1.059 -0.302,1.664 -0.756,2.42 -0.303,0.605 -1.513,1.967 -2.118,2.572 l -1.513,-1.361 1.059,-1.211 c 0.454,-0.604 0.757,-0.907 0.908,-1.059 0.151,-0.454 0.303,-0.605 0.303,-1.059 0,-0.454 0,-0.908 0,-1.211 l -3.631,0 0,-0.15 z m -1.362,3.33 c 0,-0.757 0,-1.211 0.151,-1.815 0.757,0.15 1.513,0.15 2.118,0.453 -0.151,0.605 -0.151,0.757 -0.151,1.513 l 0,3.782 -2.269,0 0,-3.933 0.151,0 z" />
      <path
         style="fill:#fe7a8e"
         id="path998"
         d="m 432.821,425.687 c 0,-0.605 0,-0.908 0.151,-1.362 -0.303,0 -0.605,0 -1.06,-0.15 0.151,-0.605 0.303,-1.211 0.454,-1.664 0.757,0.15 0.907,0.15 1.513,0.15 l 3.479,0 c 0.605,0 1.06,0.151 1.513,0.454 0.454,0.303 0.757,0.908 0.757,1.815 l 0,4.539 -6.959,0 0,-3.782 0.152,0 z m 2.268,-1.363 c -0.151,0.454 -0.151,0.908 -0.151,1.362 l 0,2.117 2.421,0 0,-2.269 c 0,-1.06 0,-1.211 -1.059,-1.211 l -1.211,0 z" />
      <path
         style="fill:#fe7a8e"
         id="path1000"
         d="m 441.595,425.687 c 0,-0.605 0,-0.908 0.151,-1.362 -0.303,0 -0.605,0 -1.06,-0.15 0.151,-0.605 0.303,-1.211 0.454,-1.664 0.756,0.15 0.907,0.15 1.513,0.15 l 3.177,0 c 0.605,0 1.06,0.151 1.513,0.454 0.454,0.303 0.757,0.908 0.757,1.815 l 0,4.539 -2.27,0 0,-3.934 c 0,-1.06 0,-1.211 -1.059,-1.211 l -1.06,0 c -0.151,0.454 -0.151,0.908 -0.151,1.362 l 0,3.782 -2.269,0 0,-3.782 0.304,0 z" />
      <path
         style="fill:#fe7a8e"
         id="path1002"
         d="m 450.521,427.654 c -0.303,-0.605 -0.303,-1.211 -0.303,-1.665 0,-0.604 0.151,-1.21 0.454,-1.814 -0.303,0 -0.605,0 -1.06,-0.151 0.151,-0.605 0.303,-1.211 0.454,-1.664 0.756,0.151 0.907,0.151 1.513,0.151 l 3.025,0 c 0.605,0 1.06,0.15 1.513,0.453 0.454,0.303 0.757,0.908 0.757,1.815 l 0,4.539 -2.27,0 0,-3.934 c 0,-1.06 0,-1.21 -1.059,-1.21 l -0.757,0 c -0.151,0.604 -0.303,1.059 -0.303,1.513 0,0.453 0.151,1.059 0.303,1.513 l 0.303,0.756 c 0,0.454 -0.151,1.06 -0.151,1.362 l -3.631,0 0,-1.815 1.211,0 0,0.151 z" />
      <path
         style="fill:#fe7a8e"
         id="path1004"
         d="m 457.933,423.115 c 0.605,-0.303 1.211,-0.604 1.815,-0.907 0.454,0.604 0.605,0.907 0.757,1.21 0.605,-0.757 1.513,-1.059 2.421,-1.059 1.059,0 2.117,0.604 2.42,1.815 0.151,0.453 0.151,1.059 0.151,1.814 0,0.303 0,0.757 0,1.211 0,0.604 0,1.21 0,1.513 0,0.151 0,0.454 0,0.605 l -3.631,0 0,-1.664 1.513,0 c 0,-0.151 0,-0.605 0,-1.514 l 0,-1.21 c 0,-0.605 -0.303,-0.907 -0.756,-0.907 -0.303,0 -0.605,0.151 -0.757,0.302 -0.303,0.151 -0.454,0.303 -0.604,0.605 -0.454,3.025 -0.454,3.025 -0.605,4.689 l -2.27,0 0.151,-1.21 c 0.151,-1.21 0.303,-1.967 0.454,-3.177 0.151,-0.605 0,-0.908 -0.454,-1.664 l -0.605,-0.452 z" />
    </g>
  </g>
</svg>
