<?xml version="1.0" encoding="UTF-8" standalone="no"?>
<svg
   xmlns:dc="http://purl.org/dc/elements/1.1/"
   xmlns:cc="http://creativecommons.org/ns#"
   xmlns:rdf="http://www.w3.org/1999/02/22-rdf-syntax-ns#"
   xmlns:svg="http://www.w3.org/2000/svg"
   xmlns="http://www.w3.org/2000/svg"
   version="1.1"
   id="svg9061"
   viewBox="0 0 80.599997 65.900018"
   height="18.59845mm"
   width="22.74711mm">
  <defs
     id="defs9063" />
  <metadata
     id="metadata9066">
    <rdf:RDF>
      <cc:Work
         rdf:about="">
        <dc:format>image/svg+xml</dc:format>
        <dc:type
           rdf:resource="http://purl.org/dc/dcmitype/StillImage" />
        <dc:title></dc:title>
      </cc:Work>
    </rdf:RDF>
  </metadata>
  <g
     transform="translate(-305.41428,-350.84076)"
     id="layer1">
    <path
       id="path457_2_"
       class="st8"
       d="m 358.76428,389.84078 c 0,7.2 -13.1,26.9 -13.1,26.9 0,0 -13,-19.7 -13,-26.9 0,-7.2 5.9,-13.1 13.1,-13.1 7.1,0.1 13,5.9 13,13.1"
       style="fill:#e93214;fill-opacity:1" />
    <path
       style="fill:#ffffff;enable-background:new"
       d="m 350.72305,385.49669 c 1.32379,-0.0427 2.56218,-1.23838 2.8611,-2.51947 -1.32379,0 -2.60488,1.28109 -2.8611,2.51947 z m -2.81839,-1.4519 c -1.58001,1.87893 -3.92868,2.64758 -5.97842,3.80056 -1.87893,0.85406 -3.54434,2.43407 -5.63679,2.56218 -0.0427,1.32379 0.51244,2.56218 0.68325,3.84327 1.32379,-0.42703 1.92163,-0.29893 2.56218,0.98216 1.28109,1.62272 4.3557,0.68325 4.48381,-1.32379 1.87893,0.0427 3.71515,-0.0427 5.46598,-0.12811 0.68324,0.68325 2.73298,0.59784 2.26325,-0.76865 -0.51243,-2.9038 -1.4092,-5.7649 -2.26325,-8.626 -0.17082,-0.64054 -1.06758,-0.17081 -1.58001,-0.34162 z"
       class="st49"
       id="path6-3-7_3_" />
    <path
       style="fill:#e93214;fill-opacity:1"
       d="m 347.90466,386.90589 c -2.73299,1.58001 -5.46598,3.16002 -8.32708,4.56921 0.29892,0.68325 2.13515,0.29892 3.07461,0.42703 2.22056,0 4.48381,0 6.70437,0 -0.29892,-1.70811 -0.68325,-3.54434 -1.4519,-4.99624 z"
       class="st8"
       id="path8-6-3_3_" />
    <path
       style="fill:#ffffff;enable-background:new"
       d="m 352.47387,388.61401 c 1.23839,0 2.34866,-0.34163 3.50164,-0.68325 0.29892,-1.70812 -1.62271,-0.76865 -2.51947,-0.42703 -0.46973,0.21351 -0.98217,0.55514 -0.98217,1.11028 m 0,2.86109 c 0.64055,0.85406 2.26326,1.58001 3.28813,0.93947 0.68325,-1.06758 -1.70812,-0.93947 -2.43407,-1.23839 -0.34162,0 -0.59784,0.12811 -0.85406,0.29892 l 0,0 z"
       class="st49"
       id="path10-3-4_3_" />
    <path
       style="fill:#e93214;fill-opacity:1"
       d="m 339.7911,393.99458 c 0.51243,1.06757 1.70811,1.87893 2.64758,0.85406 1.4946,-1.4092 -1.32379,-0.68325 -2.22055,-0.85406 -0.17082,0 -0.29893,0 -0.42703,0 z"
       class="st8"
       id="path12-1-9_3_" />
    <rect
       id="rect323_2_"
       x="305.41428"
       y="350.84076"
       class="st8"
       width="80.599998"
       height="21.700001"
       style="fill:#e93214;fill-opacity:1" />
    <g
       id="g1191"
       transform="translate(150.81428,-37.459219)">
      <path
         class="st7"
         d="m 175,399 c 0.3,0.5 0.4,1 0.4,1.5 0,0.6 -0.1,1.2 -0.4,1.7 -0.3,0.5 -0.7,0.8 -1.2,1.1 -0.5,0.2 -1.1,0.4 -1.7,0.4 -0.6,0 -1.2,-0.1 -1.7,-0.4 -0.5,-0.3 -0.9,-0.6 -1.2,-1 -0.3,-0.4 -0.5,-1 -0.5,-1.6 l 1.4,0 c 0,0.4 0.1,0.7 0.2,1 0.1,0.3 0.4,0.5 0.7,0.7 0.3,0.2 0.7,0.2 1.1,0.2 0.6,0 1.1,-0.2 1.5,-0.5 0.4,-0.3 0.5,-0.8 0.5,-1.5 0,-0.6 -0.2,-1.1 -0.6,-1.5 -0.4,-0.4 -1,-0.5 -1.7,-0.5 l -1,0 0,-0.8 0,-0.3 1,0 c 0.5,0 0.8,-0.1 1.2,-0.2 0.3,-0.2 0.6,-0.4 0.7,-0.7 0.1,-0.3 0.2,-0.6 0.2,-1 0,-0.6 -0.2,-1.1 -0.5,-1.4 -0.3,-0.3 -0.8,-0.5 -1.4,-0.5 -0.4,0 -0.7,0.1 -1,0.2 -0.3,0.1 -0.5,0.4 -0.7,0.6 -0.2,0.2 -0.2,0.6 -0.2,1 l -1.4,0 c 0,-0.5 0.1,-1 0.4,-1.5 0.3,-0.5 0.7,-0.8 1.2,-1.1 0.5,-0.3 1.1,-0.4 1.7,-0.4 0.6,0 1.2,0.1 1.7,0.3 0.5,0.2 0.9,0.6 1.1,1 0.2,0.4 0.4,1 0.4,1.6 0,0.3 -0.1,0.6 -0.2,0.9 -0.1,0.3 -0.3,0.6 -0.6,0.8 -0.3,0.3 -0.6,0.5 -0.9,0.6 0.7,0.6 1.2,0.9 1.5,1.3 z"
         id="path1193"
         style="fill:#ffffff" />
      <path
         class="st7"
         d="m 187.3,395.8 -3.2,7.8 -1.5,0 3.1,-7.5 -5.1,0 0,-3.7 1.4,0 0,2.6 5.2,0 0,0.8 z"
         id="path1195"
         style="fill:#ffffff" />
      <path
         class="st7"
         d="m 189.6,396 -1,0 0,-1.1 2.4,0 0,8.6 -1.4,0 0,-7.5 z"
         id="path1197"
         style="fill:#ffffff" />
      <path
         class="st7"
         d="m 192.8,403.3 0.2,-1 c 0.8,0.2 1.5,0.3 2.1,0.3 0.8,0 1.4,-0.2 1.9,-0.6 0.5,-0.4 0.6,-1 0.6,-1.7 l 0,-4.3 -4.5,0 0,-1.1 5.8,0 0,5.1 c 0,1.2 -0.3,2.1 -1,2.8 -0.7,0.7 -1.6,0.9 -2.7,0.9 -0.6,0 -1.5,-0.2 -2.4,-0.4 z"
         id="path1199"
         style="fill:#ffffff" />
      <path
         class="st7"
         d="m 202.9,402 c 0.5,0.2 1,0.4 1.5,0.5 0.5,0.1 1,0.2 1.5,0.2 0.7,0 1.3,-0.1 1.9,-0.3 0.6,-0.2 1,-0.5 1.3,-0.9 0.3,-0.4 0.5,-0.9 0.5,-1.5 l 0,-5 1.3,0 0,5.1 c 0,0.8 -0.2,1.5 -0.7,2.1 -0.4,0.6 -1,1 -1.8,1.3 -0.8,0.3 -1.6,0.4 -2.5,0.4 -0.7,0 -1.4,-0.1 -2.2,-0.3 -0.8,-0.2 -1.5,-0.4 -2.1,-0.7 l 0,-7.8 1.3,0 0,6.9 z m 2.5,-1.6 c 0.1,-0.3 0.1,-0.7 0.1,-1.2 l 0,-4.3 1.3,0 0,4.1 c 0,0.5 -0.1,0.9 -0.2,1.3 -0.1,0.4 -0.3,0.7 -0.6,0.9 l -1.1,0 c 0.3,-0.2 0.4,-0.5 0.5,-0.8 z"
         id="path1201"
         style="fill:#ffffff" />
      <path
         class="st7"
         d="m 218.4,399.8 2.7,3.8 -1.5,0 -3.8,-5.3 c -0.5,0.3 -0.8,0.9 -0.8,1.7 l 0,3.6 -1.3,0 0,-3.1 c 0,-0.7 0.1,-1.4 0.4,-1.8 0.3,-0.5 0.6,-0.8 1.2,-1.1 l -1.9,-2.6 1.5,0 2.7,3.7 2.1,-3.7 1.5,0 -2.8,4.8 z"
         id="path1203"
         style="fill:#ffffff" />
    </g>
  </g>
</svg>
