<?xml version="1.0" encoding="UTF-8" standalone="no"?>
<svg
   xmlns:dc="http://purl.org/dc/elements/1.1/"
   xmlns:cc="http://creativecommons.org/ns#"
   xmlns:rdf="http://www.w3.org/1999/02/22-rdf-syntax-ns#"
   xmlns:svg="http://www.w3.org/2000/svg"
   xmlns="http://www.w3.org/2000/svg"
   xmlns:xlink="http://www.w3.org/1999/xlink"
   width="71.599998"
   height="39.142075"
   viewBox="0 0 71.600001 39.142075"
   id="svg7936"
   version="1.1">
  <defs
     id="defs7938">
    <clipPath
       id="SVGID_56_">
      <use
         xlink:href="#SVGID_55_"
         style="overflow:visible"
         id="use390"
         x="0"
         y="0"
         width="100%"
         height="100%" />
    </clipPath>
    <clipPath
       id="SVGID_58_">
      <use
         xlink:href="#SVGID_57_"
         style="overflow:visible"
         id="use400"
         x="0"
         y="0"
         width="100%"
         height="100%" />
    </clipPath>
  </defs>
  <metadata
     id="metadata7941">
    <rdf:RDF>
      <cc:Work
         rdf:about="">
        <dc:format>image/svg+xml</dc:format>
        <dc:type
           rdf:resource="http://purl.org/dc/dcmitype/StillImage" />
        <dc:title></dc:title>
      </cc:Work>
    </rdf:RDF>
  </metadata>
  <g
     id="layer1"
     transform="translate(-245.14868,-409.65331)">
    <g
       transform="translate(749.64868,-382.24671)"
       id="g4448">
      <rect
         id="rect769"
         x="-504.5"
         y="791.90002"
         class="st13"
         width="71.599998"
         height="13"
         style="fill:#411025" />
      <path
         id="path771"
         class="st25"
         d="m -498.4,796.6 0,7.6 -1.5,0 0,-6.4 -1.2,0 0,-1.2 2.7,0 z m 4,0 0,5.8 -1.5,0 0,-4.6 -1,0 0,-1.2 2.5,0 0,0 z m 7,2 c -0.1,0.2 -0.1,0.4 -0.2,0.6 -0.1,0.2 -0.1,0.4 -0.2,0.5 -0.1,0.1 -0.2,0.3 -0.3,0.4 -0.1,0.1 -0.3,0.3 -0.4,0.4 l 1.2,1.4 -1,0.9 -2.9,-3.4 c -0.1,0.1 -0.1,0.2 -0.1,0.4 0,0.2 -0.1,0.3 -0.1,0.5 0,0.2 0,0.4 0,0.6 0,0.2 0,0.4 0,0.5 0,0.1 0,0.1 0,0.2 0,0.1 0,0.2 0,0.3 0,0.1 0,0.2 0,0.3 0,0.1 0,0.2 0,0.3 l -1.4,0 c 0,-0.1 0,-0.2 0,-0.3 0,-0.1 0,-0.3 0,-0.4 0,-0.1 0,-0.3 0,-0.5 0,-0.2 0,-0.4 0,-0.6 0,-0.2 0,-0.4 0,-0.6 0,-0.2 0.1,-0.4 0.1,-0.6 0.1,-0.2 0.1,-0.4 0.2,-0.5 0.1,-0.2 0.2,-0.3 0.4,-0.5 -0.1,-0.1 -0.2,-0.2 -0.3,-0.4 -0.1,-0.1 -0.1,-0.2 -0.2,-0.4 -0.1,-0.1 -0.1,-0.3 -0.2,-0.4 -0.1,-0.1 -0.1,-0.3 -0.2,-0.5 0.2,-0.1 0.4,-0.2 0.7,-0.3 0.2,-0.1 0.5,-0.2 0.7,-0.2 0.1,0.2 0.2,0.4 0.2,0.6 0.1,0.2 0.2,0.3 0.2,0.5 0.1,0.1 0.2,0.3 0.3,0.4 0.1,0.1 0.2,0.3 0.4,0.5 l 1.1,1.2 c 0.1,-0.1 0.2,-0.2 0.2,-0.3 0.1,-0.1 0.1,-0.3 0.2,-0.4 0,-0.1 0,-0.1 0.1,-0.2 0,-0.1 0,-0.2 0.1,-0.2 l 0.1,-0.7 -0.8,-0.1 0.2,-1.2 2.1,0.4 0,0.7 -0.2,1.1 0,0 z m 6.6,0.2 0,1.1 -4.6,0 0,-1.1 4.6,0 z m 3.7,-1 c -0.2,0 -0.4,0 -0.5,0 -0.1,0 -0.3,0 -0.4,0 -0.1,0 -0.3,0 -0.4,-0.1 -0.1,0 -0.3,-0.1 -0.5,-0.1 0.1,-0.2 0.1,-0.4 0.2,-0.6 0.1,-0.2 0.1,-0.4 0.2,-0.6 0.2,0 0.3,0.1 0.5,0.1 0.1,0 0.2,0.1 0.4,0.1 0.1,0 0.2,0 0.4,0 0.1,0 0.3,0 0.4,0 l 0.2,0 3.3,0 c 0,0.1 0,0.1 0.1,0.2 0,0.1 0,0.1 0,0.2 0,0.1 0,0.2 0,0.3 0,0.1 0,0.2 0,0.3 l 0,1.2 c 0,0.2 0,0.4 0,0.6 0,0.2 -0.1,0.3 -0.1,0.5 0,0.2 -0.1,0.3 -0.2,0.5 -0.1,0.1 -0.2,0.3 -0.3,0.5 -0.1,0.1 -0.2,0.3 -0.3,0.5 -0.1,0.2 -0.3,0.4 -0.5,0.6 -0.2,0.2 -0.3,0.4 -0.5,0.6 -0.2,0.2 -0.3,0.3 -0.4,0.5 l -1.1,-0.9 0.8,-0.9 c 0.2,-0.2 0.4,-0.4 0.5,-0.6 0.1,-0.2 0.2,-0.3 0.3,-0.4 0.1,-0.1 0.1,-0.2 0.2,-0.3 0,-0.1 0.1,-0.2 0.1,-0.3 0,-0.1 0,-0.2 0.1,-0.3 0,-0.1 0,-0.2 0,-0.3 l 0,-1 -2.5,0 0,-0.3 z m -1.7,3 c 0,-0.2 0,-0.3 0,-0.4 0,-0.1 0,-0.3 0,-0.4 0,-0.1 0,-0.2 0,-0.4 0,-0.1 0,-0.2 0.1,-0.4 0.3,0 0.5,0.1 0.8,0.1 0.3,0 0.5,0.1 0.8,0.2 0,0.2 -0.1,0.4 -0.1,0.6 0,0.2 0,0.5 0,0.7 l 0,3.4 -1.6,0 0,-3.4 0,0 z m 9.4,-4.2 0,5.8 -1.5,0 0,-4.6 -1,0 0,-1.2 2.5,0 0,0 z m 4.1,0 0,5.8 -1.5,0 0,-4.6 -1,0 0,-1.2 2.5,0 0,0 z m 10.2,2 c -0.1,0.2 -0.1,0.4 -0.2,0.6 -0.1,0.2 -0.1,0.4 -0.2,0.5 -0.1,0.1 -0.2,0.3 -0.3,0.4 -0.1,0.1 -0.3,0.3 -0.4,0.4 l 1.2,1.4 -1,0.9 -2.9,-3.4 c -0.1,0.1 -0.1,0.2 -0.1,0.4 0,0.2 -0.1,0.3 -0.1,0.5 0,0.2 0,0.4 0,0.6 0,0.2 0,0.4 0,0.5 0,0.1 0,0.1 0,0.2 0,0.1 0,0.2 0,0.3 0,0.1 0,0.2 0,0.3 0,0.1 0,0.2 0,0.3 l -1.4,0 c 0,-0.1 0,-0.2 0,-0.3 0,-0.1 0,-0.3 0,-0.4 0,-0.1 0,-0.3 0,-0.5 0,-0.2 0,-0.4 0,-0.6 0,-0.2 0,-0.4 0,-0.6 0,-0.2 0.1,-0.4 0.1,-0.6 0.1,-0.2 0.1,-0.4 0.2,-0.5 0.1,-0.2 0.2,-0.3 0.4,-0.5 -0.1,-0.1 -0.2,-0.2 -0.3,-0.4 -0.1,-0.1 -0.1,-0.2 -0.2,-0.4 -0.1,-0.1 -0.1,-0.3 -0.2,-0.4 -0.1,-0.1 -0.1,-0.3 -0.2,-0.5 0.2,-0.1 0.4,-0.2 0.7,-0.3 0.2,-0.1 0.5,-0.2 0.7,-0.2 0.1,0.2 0.2,0.4 0.2,0.6 0.1,0.2 0.2,0.3 0.2,0.5 0.1,0.1 0.2,0.3 0.3,0.4 0.1,0.1 0.2,0.3 0.4,0.5 l 1.1,1.2 c 0.1,-0.1 0.2,-0.2 0.2,-0.3 0.1,-0.1 0.1,-0.3 0.2,-0.4 0,-0.1 0,-0.1 0.1,-0.2 0,-0.1 0,-0.2 0.1,-0.2 l 0.1,-0.7 -0.8,-0.1 0.2,-1.2 2.1,0.4 0,0.7 -0.2,1.1 0,0 z m 4.2,-2 0,5.8 -1.5,0 0,-4.6 -1,0 0,-1.2 2.5,0 0,0 z m 3.2,1.2 c -0.2,0 -0.4,0 -0.5,0 -0.1,0 -0.3,0 -0.4,0 -0.1,0 -0.3,0 -0.4,-0.1 -0.1,0 -0.3,-0.1 -0.5,-0.1 0.1,-0.2 0.1,-0.4 0.2,-0.6 0.1,-0.2 0.1,-0.4 0.2,-0.6 0.2,0.1 0.4,0.1 0.5,0.1 0.1,0 0.3,0.1 0.4,0.1 0.1,0 0.3,0 0.4,0 0.1,0 0.3,0 0.5,0 l 3.2,0 0,1.2 -1.1,0 0,4.6 -1.6,0 0,-4.6 -0.9,0 0,0 z m 7.4,-1.2 0,2.1 c 0,0.2 0,0.4 0,0.5 0,0.1 0,0.3 0,0.4 0,0.1 0,0.2 0,0.3 0,0.1 0,0.2 -0.1,0.3 l -1.5,-0.2 c 0,-0.1 0,-0.2 0.1,-0.3 0,-0.1 0,-0.2 0,-0.3 0,-0.1 0,-0.2 0,-0.4 0,-0.1 0,-0.3 0,-0.5 l 0,-0.8 -1.3,0 0,-1.2 2.8,0.1 0,0 z m 3.9,0 0,5.8 -1.5,0 0,-4.6 -1,0 0,-1.2 2.5,0 0,0 z"
         style="fill:#fe7a8e" />
      <g
         id="g8639"
         transform="translate(0.11259,0)">
        <g
           transform="translate(-275.81259,-127.3579)"
           id="g773">
          <g
             id="g384">
            <defs
               id="defs386">
              <rect
                 height="1157.5"
                 width="554"
                 y="454.89999"
                 x="-656.29999"
                 id="SVGID_55_" />
            </defs>
            <clipPath
               id="clipPath8570">
              <use
                 height="100%"
                 width="100%"
                 y="0"
                 x="0"
                 id="use8572"
                 style="overflow:visible"
                 xlink:href="#SVGID_55_" />
            </clipPath>
            <path
               style="fill:#411025"
               clip-path="url(#SVGID_56_)"
               d="m -185.2,942.3 c 0,4.3 -7.8,16.1 -7.8,16.1 0,0 -7.8,-11.8 -7.8,-16.1 0,-4.3 3.5,-7.8 7.8,-7.8 4.4,0 7.8,3.5 7.8,7.8"
               class="st39"
               id="path781" />
          </g>
        </g>
        <g
           transform="translate(-275.81259,-127.3579)"
           id="g783">
          <g
             id="g394">
            <defs
               id="defs396">
              <rect
                 height="9.1000004"
                 width="9.1000004"
                 y="937.59998"
                 x="-196.7"
                 id="SVGID_57_" />
            </defs>
            <clipPath
               id="clipPath8579">
              <use
                 height="100%"
                 width="100%"
                 y="0"
                 x="0"
                 id="use8581"
                 style="overflow:visible"
                 xlink:href="#SVGID_57_" />
            </clipPath>
            <path
               style="fill:#ffffff"
               clip-path="url(#SVGID_58_)"
               d="m -189.9,941.9 0,3.7 -5.7,0 0,-5.8 3.7,0 1.1,-1.1 -6,0 0,8 8,0 0,-6 -1.1,1.2 0,0 z m -4,0.8 -0.4,1.6 1.6,-0.4 4,-4 -1.2,-1.2 -4,4 0,0 z m 6.1,-4.9 c 0.3,0.3 0.3,0.9 0,1.2 l -0.4,0.4 -1.2,-1.2 0.4,-0.4 c 0.3,-0.3 0.8,-0.3 1.2,0"
               class="st40"
               id="path791" />
          </g>
        </g>
      </g>
    </g>
    <path
       id="path4182"
       style="fill:#411025;fill-opacity:1"
       d="m 248.7681,438.80289 q -0.30762,0.43945 -0.53223,0.83984 -0.21973,0.40039 -0.36621,0.8252 -0.14648,0.41992 -0.21484,0.89355 -0.0684,0.46875 -0.0684,1.04981 0,0.58105 0.0684,1.05468 0.0684,0.46875 0.21484,0.89356 0.14648,0.41992 0.36621,0.82031 0.22461,0.40039 0.53223,0.83984 l -0.25391,0.26368 q -0.41992,-0.31739 -0.76172,-0.72754 -0.33691,-0.41016 -0.57617,-0.89844 -0.23926,-0.49316 -0.37109,-1.05469 -0.13184,-0.5664 -0.13184,-1.1914 0,-0.625 0.13184,-1.18653 0.13183,-0.5664 0.37109,-1.05469 0.23926,-0.49316 0.57617,-0.90332 0.3418,-0.41015 0.76172,-0.72753 l 0.25391,0.26367 z m 2.87597,2.1289 q -0.21484,0 -0.38574,-0.005 -0.1709,-0.005 -0.33203,-0.0244 -0.15625,-0.0195 -0.31738,-0.0586 -0.16114,-0.0439 -0.35157,-0.11718 0.0635,-0.17579 0.12208,-0.35157 0.0635,-0.17578 0.12695,-0.36133 0.20508,0.0635 0.36133,0.0977 0.15625,0.0342 0.30273,0.0537 0.15137,0.0147 0.3125,0.0195 0.16602,0.005 0.38574,0.005 l 0.95215,0 q 0.30762,0 0.60547,0.0684 0.29785,0.0684 0.53711,0.26367 0.23437,0.18554 0.38086,0.52246 0.14648,0.33691 0.14648,0.86914 l 0,3.34961 -0.84472,0 0,-3.25684 q 0,-0.30762 -0.0439,-0.51269 -0.0391,-0.20508 -0.15137,-0.32715 -0.10742,-0.12695 -0.30273,-0.18067 -0.19043,-0.0537 -0.48828,-0.0537 l -1.01563,0 z m -1.30859,2.79785 q 0,-0.21972 0,-0.38574 0.005,-0.16601 0.0195,-0.31738 0.0147,-0.15137 0.0391,-0.30273 0.0244,-0.15625 0.0684,-0.3418 0.20508,0.0293 0.41016,0.0635 0.20996,0.0293 0.41504,0.0586 -0.0293,0.17578 -0.0537,0.31738 -0.0195,0.13672 -0.0342,0.27832 -0.01,0.13672 -0.0146,0.29297 -0.005,0.15137 -0.005,0.35645 l 0,1.51367 -0.84473,0 0,-1.53321 z m 7.58789,-3.54003 0.0195,0.16601 q 0.0147,0.16602 0.0439,0.4541 0.0342,0.28321 0.0732,0.66895 0.0391,0.38086 0.083,0.82519 0.0488,0.44434 0.0976,0.92774 0.0488,0.47851 0.0928,0.95215 0.0195,0.21484 0.0293,0.35156 0.01,0.13672 0.01,0.24902 0,0.10742 -0.01,0.21485 -0.01,0.10742 -0.0293,0.26367 l -2.91016,0 0,-0.74219 2.11426,0 -0.37598,-3.58887 -1.1914,0 0,-0.74218 1.95312,0 z m 3.37891,0 0,5.07324 -0.84473,0 0,-4.33106 -0.85449,0 0,-0.74218 1.69922,0 z m 3.3789,0 0,1.58203 q 0,0.26367 -0.005,0.43945 -0.005,0.17578 -0.0195,0.32227 -0.0147,0.14648 -0.0391,0.2832 -0.0244,0.13672 -0.0635,0.30273 l -0.8252,-0.12207 q 0.0244,-0.14648 0.0439,-0.26855 0.0195,-0.12207 0.0342,-0.25879 0.0147,-0.13672 0.0195,-0.30762 0.01,-0.1709 0.01,-0.41015 l 0,-0.82032 -1.11817,0 0,-0.74218 1.96289,0 z m 2.11914,-1.38672 0,1.38672 2.81739,0 q 0.0439,0.16113 0.0684,0.26855 0.0244,0.10742 0.0391,0.19043 0.01,0.0879 0.01,0.16602 0.005,0.0732 0.005,0.16113 l 0,1.05469 q 0,0.57617 -0.23438,1.08886 -0.22949,0.5127 -0.68847,1.02539 l -1.19629,1.31348 -0.59571,-0.53223 1.11817,-1.25 q 0.16113,-0.18554 0.29785,-0.36132 0.1416,-0.17579 0.23926,-0.36622 0.10254,-0.19042 0.15625,-0.40527 0.0586,-0.21973 0.0586,-0.4834 l 0,-1.12793 -2.93945,0 0,-2.1289 0.84472,0 z m 6.90918,1.98242 q 0.0488,-0.18555 0.0977,-0.36133 0.0537,-0.18066 0.10742,-0.36621 l 1.44043,0.38086 q 0.0147,0.1709 0.0244,0.3418 0.01,0.17089 0.01,0.34179 -0.0488,0.41016 -0.14648,0.80567 -0.0928,0.39062 -0.24414,0.76172 -0.15137,0.37109 -0.3711,0.71777 -0.21484,0.3418 -0.50781,0.64941 -0.30762,0.32227 -0.69336,0.58594 -0.38574,0.25879 -0.84473,0.47852 -0.33203,0.15625 -0.69824,0.28808 -0.36133,0.13184 -0.77637,0.24414 l -0.23925,-0.75195 q 0.38086,-0.1123 0.78125,-0.24902 0.40527,-0.13672 0.82031,-0.32715 -0.26367,-0.6836 -0.52246,-1.36231 -0.25391,-0.68359 -0.51758,-1.36718 -0.0684,-0.17579 -0.12207,-0.27832 -0.0488,-0.10743 -0.13184,-0.19043 -0.0879,-0.083 -0.22949,-0.15625 -0.1416,-0.0733 -0.39062,-0.19043 0.0879,-0.17579 0.18066,-0.35157 0.0928,-0.17578 0.19043,-0.35156 0.26855,0.10742 0.45898,0.19531 0.19043,0.0879 0.32715,0.19532 0.13672,0.0976 0.2295,0.22949 0.0928,0.13183 0.17578,0.33691 0.0488,0.12696 0.0976,0.25391 0.0488,0.12695 0.10742,0.2832 0.0586,0.15625 0.13184,0.36133 0.0732,0.2002 0.1709,0.47852 0.10254,0.27832 0.22949,0.64453 0.13184,0.36621 0.30762,0.85449 0.32226,-0.23926 0.55176,-0.54199 0.23437,-0.30762 0.40039,-0.67383 0.16113,-0.36621 0.26367,-0.78125 0.10254,-0.41992 0.15625,-0.90332 l -0.8252,-0.22461 z m -25.89355,-9.22849 q -0.21485,0 -0.38574,-0.005 -0.1709,-0.005 -0.33203,-0.0244 -0.15625,-0.0195 -0.31739,-0.0586 -0.16113,-0.0439 -0.35156,-0.11718 0.0635,-0.17579 0.12207,-0.35157 0.0635,-0.17578 0.12695,-0.36133 0.20508,0.0635 0.36133,0.0977 0.15625,0.0342 0.30274,0.0537 0.15136,0.0147 0.3125,0.0195 0.16601,0.005 0.38574,0.005 l 0.95215,0 q 0.30761,0 0.60547,0.0684 0.29785,0.0684 0.5371,0.26367 0.23438,0.18554 0.38086,0.52246 0.14649,0.33691 0.14649,0.86914 l 0,3.34961 -0.84473,0 0,-3.25684 q 0,-0.30761 -0.0439,-0.51269 -0.0391,-0.20508 -0.15137,-0.32715 -0.10742,-0.12695 -0.30274,-0.18067 -0.19042,-0.0537 -0.48828,-0.0537 l -1.01562,0 z m -1.3086,2.79786 q 0,-0.21973 0,-0.38575 0.005,-0.16601 0.0195,-0.31738 0.0146,-0.15137 0.0391,-0.30273 0.0244,-0.15625 0.0684,-0.3418 0.20508,0.0293 0.41015,0.0635 0.20997,0.0293 0.41504,0.0586 -0.0293,0.17578 -0.0537,0.31738 -0.0195,0.13672 -0.0342,0.27832 -0.01,0.13672 -0.0147,0.29297 -0.005,0.15137 -0.005,0.35645 l 0,1.51367 -0.84473,0 0,-1.5332 z m 5.25391,1.57714 q 0.0781,-0.48339 0.13672,-0.83984 0.0635,-0.36133 0.1123,-0.63965 0.0488,-0.27832 0.083,-0.49805 0.0391,-0.2246 0.0732,-0.43457 0.0391,-0.21484 0.0733,-0.43945 0.0342,-0.22461 0.0781,-0.50781 0.0244,-0.24414 0.005,-0.41016 -0.0146,-0.1709 -0.083,-0.32715 -0.0635,-0.16113 -0.18067,-0.33691 -0.11718,-0.18066 -0.28808,-0.44922 0.0977,-0.0586 0.17578,-0.10742 0.0781,-0.0488 0.16113,-0.0977 0.083,-0.0488 0.17578,-0.10254 0.0977,-0.0586 0.23438,-0.13671 0.1123,0.15625 0.19043,0.27343 0.083,0.11719 0.14648,0.21973 0.0635,0.0977 0.11231,0.19531 0.0488,0.0977 0.0976,0.20508 0.20508,-0.19043 0.39063,-0.33691 0.19043,-0.15137 0.38574,-0.24903 0.19531,-0.10254 0.41504,-0.15625 0.21972,-0.0537 0.4834,-0.0537 0.64453,0 1.07422,0.33692 0.42968,0.33203 0.57128,1.02539 0.0391,0.19531 0.0537,0.48828 0.0195,0.28808 0.0244,0.60058 0.01,0.30762 0.005,0.60547 0,0.29297 0,0.50293 -0.005,0.33692 -0.0147,0.64453 -0.01,0.30762 -0.0244,0.5127 -0.01,0.10742 -0.0195,0.22461 -0.01,0.11719 -0.0293,0.24414 l -2.40722,0 0,-0.74219 1.63574,0 q 0.005,-0.083 0.01,-0.18066 0.01,-0.0977 0.01,-0.25879 0.005,-0.16602 0.005,-0.42481 0.005,-0.26367 0.005,-0.67383 0,-0.18554 -0.005,-0.37597 -0.005,-0.19531 -0.0146,-0.3711 -0.01,-0.18066 -0.0293,-0.33691 -0.0147,-0.15625 -0.0391,-0.26855 -0.0439,-0.18067 -0.1123,-0.32715 -0.0684,-0.15137 -0.17578,-0.25391 -0.10742,-0.10254 -0.25391,-0.15625 -0.14648,-0.0586 -0.34668,-0.0586 -0.21484,0 -0.41504,0.0684 -0.19531,0.0684 -0.37597,0.18554 -0.18067,0.11231 -0.34668,0.26368 -0.16602,0.15136 -0.31739,0.3125 -0.0879,0.54199 -0.15625,0.95703 -0.0635,0.41504 -0.11718,0.74707 -0.0537,0.32715 -0.0977,0.58593 -0.0391,0.25391 -0.0781,0.47852 -0.0391,0.22461 -0.0732,0.43457 -0.0342,0.20996 -0.0732,0.43945 l -0.84961,0 z m 7.66602,-5.11718 0,5.07324 -0.84473,0 0,-4.33106 -0.85449,0 0,-0.74218 1.69922,0 z m 3.00781,0.74218 q -0.21484,0 -0.38574,-0.005 -0.1709,-0.005 -0.33203,-0.0244 -0.15625,-0.0195 -0.31739,-0.0586 -0.16113,-0.0439 -0.35156,-0.11718 0.0635,-0.17579 0.12207,-0.35157 0.0635,-0.17578 0.12695,-0.36133 0.20508,0.0635 0.36133,0.0977 0.15625,0.0342 0.30274,0.0537 0.15136,0.0147 0.3125,0.0195 0.16601,0.005 0.38574,0.005 l 2.58789,0 q 0.0391,0.13671 0.0586,0.23925 0.0244,0.10254 0.0391,0.18555 0.0244,0.15625 0.0342,0.32227 0.01,0.16113 0.01,0.33691 l 0,0.68848 q 0,0.24902 -0.0195,0.46875 -0.0195,0.21972 -0.0781,0.4248 -0.0537,0.20508 -0.15625,0.40039 -0.10253,0.19531 -0.27343,0.39551 -0.35645,0.41504 -0.70313,0.7959 -0.34179,0.37598 -0.69336,0.75683 l -0.64453,-0.58593 0.54199,-0.57129 q 0.21973,-0.23438 0.42969,-0.46387 0.21484,-0.23437 0.38574,-0.43945 0.13672,-0.16114 0.20996,-0.31739 0.0732,-0.16113 0.10743,-0.32714 0.0342,-0.1709 0.0391,-0.36133 0.01,-0.19043 0.01,-0.41992 0,-0.19532 -0.005,-0.39063 -0.005,-0.19531 -0.0147,-0.39551 l -2.08984,0 z m -1.25977,2.5 q 0,-0.20996 0,-0.38086 0.005,-0.17089 0.0147,-0.32714 0.0146,-0.16114 0.0391,-0.3125 0.0244,-0.15625 0.0635,-0.32715 0.20996,0.0293 0.41504,0.0635 0.20996,0.0293 0.41992,0.0586 -0.0293,0.17578 -0.0537,0.31738 -0.0195,0.13672 -0.0342,0.27832 -0.01,0.13672 -0.0147,0.29297 -0.005,0.15137 -0.005,0.35644 l 0,3.34961 -0.84473,0 0,-3.36914 z m 5.54688,2.58789 q 0.30762,-0.43945 0.52734,-0.83984 0.22461,-0.40039 0.3711,-0.82031 0.14648,-0.42481 0.21484,-0.89356 0.0684,-0.47363 0.0684,-1.05468 0,-0.58106 -0.0684,-1.04981 -0.0684,-0.47363 -0.21484,-0.89355 -0.14649,-0.42481 -0.3711,-0.8252 -0.21972,-0.40039 -0.52734,-0.83984 l 0.2539,-0.26367 q 0.41504,0.31738 0.75684,0.72753 0.3418,0.41016 0.58106,0.90332 0.23925,0.48829 0.37109,1.05469 0.13184,0.56153 0.13184,1.18653 0,0.625 -0.13184,1.1914 -0.13184,0.56153 -0.37109,1.05469 -0.23926,0.48828 -0.58106,0.89844 -0.3418,0.41015 -0.75684,0.72754 l -0.2539,-0.26368 z" />
  </g>
</svg>
