<?xml version="1.0" encoding="UTF-8" standalone="no"?>
<svg
   xmlns:dc="http://purl.org/dc/elements/1.1/"
   xmlns:cc="http://creativecommons.org/ns#"
   xmlns:rdf="http://www.w3.org/1999/02/22-rdf-syntax-ns#"
   xmlns:svg="http://www.w3.org/2000/svg"
   xmlns="http://www.w3.org/2000/svg"
   width="276.72"
   height="80.519997"
   viewBox="0 0 276.72 80.519998"
   id="svg20891"
   version="1.1">
  <defs
     id="defs20893" />
  <metadata
     id="metadata20896">
    <rdf:RDF>
      <cc:Work
         rdf:about="">
        <dc:format>image/svg+xml</dc:format>
        <dc:type
           rdf:resource="http://purl.org/dc/dcmitype/StillImage" />
        <dc:title></dc:title>
      </cc:Work>
    </rdf:RDF>
  </metadata>
  <g
     id="layer1"
     transform="translate(-288.2964,-409.24507)">
    <polygon
       class="st943"
       points="-1085.94,762.81 -1075.9,808.11 -947.58,728.84 "
       id="polygon6843"
       style="fill:#b48e59"
       transform="translate(1374.2364,-319.59493)" />
    <polygon
       class="st944"
       points="-1076.31,809.36 -1085.94,763.1 -932.35,764.26 -925.39,807.4 "
       id="polygon6845"
       style="fill:#d68a2a;fill-opacity:1"
       transform="translate(1374.2364,-319.59493)" />
    <g
       id="g6847"
       transform="translate(1374.2364,-319.59493)">
      <path
         class="st946"
         d="m -1071.23,787.62 c 0,-0.81 0.07,-1.43 0.21,-1.88 0.14,-0.45 0.33,-0.85 0.56,-1.22 l 2.49,0 c -0.18,0.72 -0.27,1.66 -0.27,2.82 l 0,5.25 -2.99,0 0,-4.97 z m 8.58,-4.29 c 0,-0.98 -0.24,-1.69 -0.71,-2.15 -0.47,-0.46 -1.21,-0.68 -2.21,-0.68 l -5.64,0 0,-2.43 5.85,0 c 1.87,0 3.31,0.46 4.3,1.39 1,0.92 1.5,2.26 1.5,4 l 0,9.13 -3.09,0 0,-9.26 z"
         id="path6849"
         style="fill:#ffffff" />
      <path
         class="st946"
         d="m -1052.25,792.02 c -0.95,-0.56 -1.7,-1.35 -2.23,-2.37 -0.53,-1.02 -0.81,-2.19 -0.82,-3.53 l 0,-1.16 c -0.01,-0.54 0.07,-1.09 0.22,-1.66 0.15,-0.57 0.36,-1.09 0.63,-1.57 0.26,-0.48 0.55,-0.84 0.86,-1.11 0.06,-0.05 0.11,-0.09 0.17,-0.13 l -0.02,-0.05 c -0.25,0.04 -0.59,0.11 -1.01,0.21 -0.42,0.1 -0.81,0.21 -1.17,0.31 l -0.6,-2.28 c 0.97,-0.29 2.08,-0.51 3.33,-0.69 1.25,-0.18 2.42,-0.26 3.49,-0.26 1.42,0 2.64,0.26 3.66,0.79 1.02,0.53 1.79,1.3 2.33,2.33 0.53,1.02 0.8,2.25 0.8,3.69 l 0,1.57 c 0,1.33 -0.26,2.51 -0.79,3.53 -0.53,1.02 -1.27,1.81 -2.23,2.37 -0.96,0.56 -2.07,0.84 -3.32,0.84 -1.25,0.01 -2.35,-0.27 -3.3,-0.83 z m 4.99,-2.25 c 0.49,-0.35 0.88,-0.83 1.15,-1.46 0.27,-0.63 0.41,-1.35 0.41,-2.17 l 0,-1.54 c 0,-1.36 -0.29,-2.42 -0.88,-3.17 -0.59,-0.75 -1.4,-1.14 -2.45,-1.14 -0.98,0 -1.75,0.39 -2.31,1.18 -0.56,0.79 -0.85,1.89 -0.87,3.3 l 0,1.37 c 0,0.82 0.14,1.55 0.41,2.17 0.27,0.62 0.65,1.11 1.14,1.46 0.49,0.35 1.05,0.52 1.7,0.52 0.64,0 1.21,-0.17 1.7,-0.52 z"
         id="path6851"
         style="fill:#ffffff" />
      <path
         class="st946"
         d="m -1037.38,780.5 -2.45,0 0,-2.43 5.55,0 0,8.19 -3.1,0 0,-5.76 z"
         id="path6853"
         style="fill:#ffffff" />
      <path
         class="st946"
         d="m -1029.69,792.75 c -0.39,-0.05 -0.84,-0.13 -1.32,-0.23 l 0.04,-2.36 c 0.55,0.09 1.15,0.13 1.78,0.13 0.61,0 1.07,-0.17 1.37,-0.51 0.3,-0.34 0.45,-0.87 0.45,-1.59 l 0,-7.7 -2.69,0 0,-2.43 5.77,0 0,10.38 c 0,1.4 -0.36,2.48 -1.09,3.24 -0.73,0.76 -1.75,1.14 -3.06,1.14 -0.44,0.01 -0.86,-0.02 -1.25,-0.07 z"
         id="path6855"
         style="fill:#ffffff" />
      <path
         class="st946"
         d="m -1020.7,792.21 0.49,-2.28 c 1.26,0.31 2.38,0.46 3.34,0.46 1.25,-0.02 2.19,-0.32 2.81,-0.9 0.62,-0.58 0.93,-1.43 0.93,-2.56 l 0,-6.43 -7.03,0 0,-2.43 10.13,0 0,8.28 c 0,2.18 -0.57,3.8 -1.71,4.87 -1.14,1.06 -2.74,1.59 -4.78,1.59 -1.24,-0.01 -2.63,-0.21 -4.18,-0.6 z"
         id="path6857"
         style="fill:#ffffff" />
      <path
         class="st946"
         d="m -998.34,778.07 12.01,0 0,14.51 -12.01,0 0,-14.51 z m 8.91,12.07 0,-9.64 -5.81,0 0,9.64 5.81,0 z"
         id="path6859"
         style="fill:#ffffff" />
      <path
         class="st946"
         d="m -981.49,778.07 5.92,0 c 3.82,0 5.74,1.84 5.76,5.52 l 0,9 -3.09,0 -0.01,-9.22 c 0,-0.98 -0.21,-1.71 -0.64,-2.17 -0.43,-0.46 -1.1,-0.7 -2.01,-0.7 l -2.84,0 0,12.08 -3.1,0 0.01,-14.51 z"
         id="path6861"
         style="fill:#ffffff" />
      <path
         class="st946"
         d="m -954.73,779.45 c 0.96,0.92 1.45,2.3 1.45,4.14 l 0,9 -3.09,0 -0.01,-9.22 c 0,-0.99 -0.21,-1.72 -0.63,-2.18 -0.42,-0.46 -1.09,-0.69 -2,-0.69 l -1.97,0 c -0.19,0.45 -0.34,0.98 -0.45,1.59 -0.11,0.61 -0.17,1.21 -0.17,1.79 l 0,4.5 c 0,1.41 -0.35,2.49 -1.06,3.24 -0.71,0.75 -1.71,1.13 -3.02,1.13 -0.5,0 -1.04,-0.04 -1.65,-0.13 l 0,-2.43 c 0.29,0.02 0.56,0.04 0.82,0.04 0.64,0 1.12,-0.17 1.43,-0.5 0.31,-0.33 0.46,-0.85 0.46,-1.56 l 0,-4.02 c 0,-0.63 0.09,-1.29 0.26,-1.97 0.17,-0.68 0.41,-1.24 0.71,-1.68 l -2.48,0 0,-2.43 7.09,0 c 1.91,0 3.35,0.46 4.31,1.38 z"
         id="path6863"
         style="fill:#ffffff" />
      <path
         class="st946"
         d="m -947.92,783.92 c 0.08,-0.66 0.26,-1.28 0.53,-1.87 0.27,-0.59 0.59,-1.05 0.96,-1.39 0.06,-0.06 0.13,-0.11 0.21,-0.16 l -0.02,-0.05 c -0.33,0.06 -0.75,0.15 -1.25,0.29 -0.5,0.13 -0.93,0.27 -1.31,0.41 l -0.68,-2.27 c 0.94,-0.34 2.03,-0.62 3.25,-0.82 1.22,-0.21 2.36,-0.31 3.42,-0.31 2.09,0 3.68,0.54 4.78,1.63 1.09,1.09 1.65,2.68 1.65,4.79 l 0,8.42 -6.18,0 0,-2.43 3.08,0 0,-6.38 c 0,-1.12 -0.24,-1.98 -0.72,-2.58 -0.48,-0.6 -1.17,-0.9 -2.06,-0.9 -0.73,0 -1.33,0.29 -1.78,0.85 -0.46,0.57 -0.74,1.37 -0.86,2.41 l -0.96,9.03 -3.06,0 1,-8.67 z"
         id="path6865"
         style="fill:#ffffff" />
    </g>
  </g>
</svg>
