<?xml version="1.0" encoding="UTF-8" standalone="no"?>
<svg
   xmlns:dc="http://purl.org/dc/elements/1.1/"
   xmlns:cc="http://creativecommons.org/ns#"
   xmlns:rdf="http://www.w3.org/1999/02/22-rdf-syntax-ns#"
   xmlns:svg="http://www.w3.org/2000/svg"
   xmlns="http://www.w3.org/2000/svg"
   width="247.44"
   height="64.910004"
   viewBox="0 0 247.44 64.910007"
   id="svg18232"
   version="1.1">
  <defs
     id="defs18234" />
  <metadata
     id="metadata18237">
    <rdf:RDF>
      <cc:Work
         rdf:about="">
        <dc:format>image/svg+xml</dc:format>
        <dc:type
           rdf:resource="http://purl.org/dc/dcmitype/StillImage" />
        <dc:title></dc:title>
      </cc:Work>
    </rdf:RDF>
  </metadata>
  <g
     id="layer1"
     transform="translate(-248.16143,-482.76434)">
    <polygon
       class="st943"
       points="-478.05,357.58 -487.02,310.58 -555.15,375.06 "
       id="polygon6624"
       style="fill:#b48e59"
       transform="translate(927.03143,172.61434)" />
    <polygon
       class="st944"
       points="-478.05,357.58 -671.38,359.09 -678.87,313.11 -487.01,310.15 "
       id="polygon6626"
       style="fill:#d68a2a;fill-opacity:1"
       transform="translate(927.03143,172.61434)" />
    <g
       id="g6899"
       transform="translate(927.03143,172.61434)">
      <path
         class="st946"
         d="m -657.94,328.44 11.47,0 0,14.38 -11.47,0 0,-14.38 z m 9.22,12.55 0,-10.73 -6.96,0 0,10.73 6.96,0 z"
         id="path6901"
         style="fill:#ffffff" />
      <path
         class="st946"
         d="m -640.32,330.26 -2.64,0 0,-1.82 4.91,0 0,8.02 -2.27,0 0,-6.2 z"
         id="path6903"
         style="fill:#ffffff" />
      <path
         class="st946"
         d="m -634.73,342.8 0.06,-1.77 c 0.53,0.11 1.12,0.16 1.78,0.16 0.67,0 1.17,-0.19 1.5,-0.57 0.33,-0.38 0.5,-0.97 0.5,-1.77 l 0,-8.58 -2.82,0 0,-1.82 5.09,0 0,10.58 c 0,1.32 -0.33,2.32 -0.98,3.01 -0.65,0.69 -1.59,1.03 -2.81,1.03 -0.74,0 -1.51,-0.09 -2.32,-0.27 z"
         id="path6905"
         style="fill:#ffffff" />
      <path
         class="st946"
         d="m -624.79,342.38 0.37,-1.7 c 1.29,0.35 2.44,0.52 3.44,0.52 1.36,0 2.39,-0.33 3.11,-1 0.71,-0.66 1.07,-1.61 1.07,-2.85 l 0,-7.1 -7.48,0 0,-1.82 9.74,0 0,8.44 c 0,2.03 -0.54,3.57 -1.62,4.6 -1.08,1.03 -2.59,1.55 -4.52,1.55 -1.24,0.01 -2.61,-0.21 -4.11,-0.64 z"
         id="path6907"
         style="fill:#ffffff" />
      <path
         class="st946"
         d="m -608.82,330.26 -1.67,0 0,-1.82 3.94,0 0,14.38 -2.27,0 0,-12.56 z"
         id="path6909"
         style="fill:#ffffff" />
      <path
         class="st946"
         d="m -591.47,328.44 0,1.82 -2.41,0 0,12.56 -2.27,0 0,-12.56 -6.84,0 0,-1.82 11.52,0 z"
         id="path6911"
         style="fill:#ffffff" />
      <path
         class="st946"
         d="m -581.04,328.44 11.47,0 0,14.38 -11.47,0 0,-14.38 z m 9.21,12.55 0,-10.73 -6.96,0 0,10.73 6.96,0 z"
         id="path6913"
         style="fill:#ffffff" />
      <path
         class="st946"
         d="m -564.51,328.44 5.41,0 c 1.9,0 3.33,0.45 4.26,1.36 0.94,0.91 1.41,2.29 1.42,4.14 l 0,8.87 -2.26,0 0,-9.01 c 0,-1.25 -0.27,-2.15 -0.8,-2.71 -0.53,-0.56 -1.4,-0.84 -2.59,-0.84 l -3.17,0 -0.01,12.56 -2.26,0 0,-14.37 z"
         id="path6915"
         style="fill:#ffffff" />
      <path
         class="st946"
         d="m -538.59,329.8 c 0.94,0.91 1.41,2.29 1.41,4.14 l 0,8.87 -2.26,0 -0.01,-9.01 c 0,-1.25 -0.27,-2.15 -0.8,-2.71 -0.53,-0.56 -1.39,-0.84 -2.58,-0.84 l -2.04,0 c -0.27,0.44 -0.48,1 -0.64,1.69 -0.16,0.69 -0.24,1.39 -0.24,2.12 l 0,4.85 c 0,1.32 -0.31,2.32 -0.94,3 -0.63,0.68 -1.54,1.03 -2.73,1.03 -0.35,0 -0.82,-0.04 -1.4,-0.11 l 0,-1.82 c 0.26,0.03 0.54,0.05 0.84,0.05 0.71,0 1.22,-0.18 1.54,-0.55 0.32,-0.37 0.48,-0.94 0.48,-1.73 l 0,-4.54 c 0,-0.74 0.1,-1.48 0.29,-2.22 0.2,-0.74 0.46,-1.32 0.81,-1.76 l -2.7,0 0,-1.82 6.7,0 c 1.91,0 3.33,0.45 4.27,1.36 z"
         id="path6917"
         style="fill:#ffffff" />
      <path
         class="st946"
         d="m -531.51,333.68 c 0.08,-0.67 0.27,-1.3 0.57,-1.89 0.3,-0.59 0.64,-1.04 1.04,-1.36 0.03,-0.02 0.11,-0.08 0.24,-0.17 l -0.02,-0.04 c -0.37,0.07 -0.82,0.17 -1.37,0.31 -0.55,0.14 -1.05,0.29 -1.51,0.45 l -0.53,-1.71 c 0.94,-0.33 2,-0.59 3.17,-0.79 1.17,-0.2 2.25,-0.31 3.23,-0.31 1.94,0 3.42,0.51 4.44,1.54 1.02,1.03 1.54,2.54 1.54,4.54 l 0,8.57 -5.92,0 0,-1.82 3.66,0 0,-7 c 0,-1.28 -0.29,-2.25 -0.87,-2.92 -0.58,-0.67 -1.42,-1 -2.52,-1 -0.79,0 -1.45,0.3 -1.98,0.91 -0.53,0.61 -0.86,1.43 -0.98,2.47 l -1.09,9.36 -2.23,0 1.13,-9.14 z"
         id="path6919"
         style="fill:#ffffff" />
    </g>
    <g
       class="st935"
       id="g6921"
       style="opacity:1"
       transform="translate(927.03143,172.61434)">
      <path
         class="st943"
         d="m -512.66,322.45 c 0.15,0.69 0.3,1.38 0.46,2.06 0.22,0.95 0.48,1.89 0.69,2.84 0.08,0.36 0.24,0.46 0.61,0.46 3.46,-0.01 6.92,-0.01 10.38,-0.01 1.45,0 2.91,0 4.36,0 0.8,0 1.03,0.29 0.85,1.05 -0.63,2.53 -1.27,5.06 -1.89,7.59 -0.11,0.43 -0.34,0.64 -0.8,0.64 -3.92,-0.01 -7.83,-0.01 -11.75,0 -0.46,0 -0.69,-0.21 -0.79,-0.64 -1.01,-4.07 -2.03,-8.14 -3.04,-12.22 -0.09,-0.35 -0.22,-0.53 -0.59,-0.46 -0.03,0.01 -0.06,0 -0.09,0 -0.39,0.02 -0.73,-0.04 -0.88,-0.46 -0.15,-0.42 0.16,-0.62 0.41,-0.85 0.68,0 1.38,0 2.07,0 z m 1.61,6.65 c 0.07,0.28 0.15,0.51 0.17,0.74 0.05,0.53 0.3,0.67 0.83,0.67 3.35,-0.03 6.69,-0.01 10.04,-0.01 0.85,0 1.7,0.01 2.56,-0.01 0.15,0 0.39,-0.1 0.44,-0.22 0.14,-0.36 0.2,-0.75 0.31,-1.16 -4.8,-0.01 -9.55,-0.01 -14.35,-0.01 z m 0.67,2.67 c 0.07,0.31 0.14,0.57 0.18,0.83 0.06,0.43 0.25,0.58 0.72,0.57 3.52,-0.02 7.04,-0.01 10.56,-0.01 1.3,0 1.3,0 1.51,-1.32 0,-0.01 -0.01,-0.03 -0.02,-0.08 -4.29,0.01 -8.59,0.01 -12.95,0.01 z m 12.27,2.63 c -0.2,0 -0.4,0 -0.6,0 -3.39,0 -6.79,0 -10.18,0 -0.84,0 -0.82,0 -0.65,0.82 0.09,0.46 0.28,0.62 0.78,0.62 3.03,-0.03 6.06,-0.01 9.09,-0.01 1.33,0 1.33,0 1.6,-1.28 0,-0.02 -0.01,-0.04 -0.04,-0.15 z"
         id="path6923"
         style="fill:#be8d4b;fill-opacity:1" />
      <path
         class="st943"
         d="m -500.9,343.78 c -0.5,-0.27 -1.08,-0.46 -1.5,-0.82 -0.86,-0.75 -1.02,-2.02 -0.5,-3.03 0.52,-1.02 1.65,-1.6 2.75,-1.43 1.15,0.18 2.03,1.07 2.2,2.23 0.21,1.43 -0.65,2.66 -2.07,2.97 -0.07,0.02 -0.14,0.06 -0.21,0.09 -0.23,-0.01 -0.45,-0.01 -0.67,-0.01 z m 0.34,-4.01 c -0.75,0 -1.36,0.62 -1.35,1.36 0.02,0.75 0.63,1.35 1.37,1.34 0.74,-0.01 1.36,-0.64 1.35,-1.36 -0.01,-0.74 -0.63,-1.34 -1.37,-1.34 z"
         id="path6925"
         style="fill:#be8d4b;fill-opacity:1" />
      <path
         class="st943"
         d="m -508.86,343.78 c -0.68,-0.2 -1.33,-0.45 -1.78,-1.06 -0.72,-0.97 -0.73,-2.21 0,-3.21 0.66,-0.91 1.91,-1.27 3,-0.88 1.14,0.41 1.8,1.49 1.71,2.8 -0.08,1.05 -0.95,1.99 -2.06,2.25 -0.07,0.02 -0.14,0.06 -0.2,0.1 -0.23,0 -0.45,0 -0.67,0 z m 0.33,-1.31 c 0.74,-0.01 1.37,-0.65 1.35,-1.37 -0.02,-0.75 -0.63,-1.34 -1.38,-1.33 -0.74,0.01 -1.37,0.64 -1.35,1.36 0.01,0.74 0.64,1.35 1.38,1.34 z"
         id="path6927"
         style="fill:#be8d4b;fill-opacity:1" />
    </g>
  </g>
</svg>
