<?xml version="1.0" encoding="UTF-8" standalone="no"?>
<svg
   xmlns:dc="http://purl.org/dc/elements/1.1/"
   xmlns:cc="http://creativecommons.org/ns#"
   xmlns:rdf="http://www.w3.org/1999/02/22-rdf-syntax-ns#"
   xmlns:svg="http://www.w3.org/2000/svg"
   xmlns="http://www.w3.org/2000/svg"
   version="1.1"
   id="svg3782"
   viewBox="0 0 162.1 78.099972"
   height="22.041548mm"
   width="45.748222mm">
  <defs
     id="defs3784" />
  <metadata
     id="metadata3787">
    <rdf:RDF>
      <cc:Work
         rdf:about="">
        <dc:format>image/svg+xml</dc:format>
        <dc:type
           rdf:resource="http://purl.org/dc/dcmitype/StillImage" />
        <dc:title></dc:title>
      </cc:Work>
    </rdf:RDF>
  </metadata>
  <g
     transform="translate(-250.37857,-673.31222)"
     id="layer1">
    <g
       id="g3835">
      <path
         id="path307_3_"
         class="st936"
         d="m 345.12857,722.81219 c 0,7.6 -13.7,28.6 -13.7,28.6 0,0 -13.7,-20.8 -13.7,-28.6 0,-7.6 6.1,-13.7 13.7,-13.7 7.6,-0.3 13.7,5.9 13.7,13.7"
         style="fill:#511d51" />
      <rect
         id="rect901_5_"
         x="250.37857"
         y="673.31219"
         class="st933"
         width="162.10001"
         height="31.799999"
         style="fill:#4b1a26" />
      <g
         transform="translate(-736.42143,-354.58781)"
         id="g6960">
        <path
           class="st950"
           d="m 999.8,1038 11.5,0 0,14.4 -11.5,0 0,-14.4 z m 9.2,12.5 0,-10.7 -7,0 0,10.7 7,0 z"
           id="path6962"
           style="fill:#f48166" />
        <path
           class="st950"
           d="m 1017.4,1039.8 -2.6,0 0,-1.8 4.9,0 0,8 -2.3,0 0,-6.2 z"
           id="path6964"
           style="fill:#f48166" />
        <path
           class="st950"
           d="m 1023,1052.3 0.1,-1.8 c 0.5,0.1 1.1,0.2 1.8,0.2 0.7,0 1.2,-0.2 1.5,-0.6 0.3,-0.4 0.5,-1 0.5,-1.8 l 0,-8.6 -2.8,0 0,-1.8 5.1,0 0,10.6 c 0,1.3 -0.3,2.3 -1,3 -0.7,0.7 -1.6,1 -2.8,1 -0.9,0.1 -1.6,0 -2.4,-0.2 z"
           id="path6966"
           style="fill:#f48166" />
        <path
           class="st950"
           d="m 1032.9,1051.9 0.4,-1.7 c 1.3,0.3 2.4,0.5 3.4,0.5 1.4,0 2.4,-0.3 3.1,-1 0.7,-0.7 1.1,-1.6 1.1,-2.8 l 0,-7.1 -7.5,0 0,-1.8 9.7,0 0,8.4 c 0,2 -0.5,3.6 -1.6,4.6 -1.1,1 -2.6,1.6 -4.5,1.6 -1.2,0 -2.6,-0.2 -4.1,-0.7 z"
           id="path6968"
           style="fill:#f48166" />
        <path
           class="st950"
           d="m 1048.9,1039.8 -1.7,0 0,-1.8 3.9,0 0,14.4 -2.3,0 0,-12.6 z"
           id="path6970"
           style="fill:#f48166" />
        <path
           class="st950"
           d="m 1066.2,1038 0,1.8 -2.4,0 0,12.6 -2.3,0 0,-12.6 -6.8,0 0,-1.8 11.5,0 z"
           id="path6972"
           style="fill:#f48166" />
        <path
           class="st950"
           d="m 1076.6,1038 11.5,0 0,14.4 -11.5,0 0,-14.4 z m 9.3,12.5 0,-10.7 -7,0 0,10.7 7,0 z"
           id="path6974"
           style="fill:#f48166" />
        <path
           class="st950"
           d="m 1093.2,1038 5.4,0 c 1.9,0 3.3,0.5 4.3,1.4 1,0.9 1.4,2.3 1.4,4.1 l 0,8.9 -2.3,0 0,-9 c 0,-1.2 -0.3,-2.1 -0.8,-2.7 -0.5,-0.6 -1.4,-0.8 -2.6,-0.8 l -3.2,0 0,12.6 -2.3,0 0.1,-14.5 z"
           id="path6976"
           style="fill:#f48166" />
        <path
           class="st950"
           d="m 1119.1,1039.3 c 0.9,0.9 1.4,2.3 1.4,4.1 l 0,8.9 -2.3,0 0,-9 c 0,-1.2 -0.3,-2.1 -0.8,-2.7 -0.5,-0.6 -1.4,-0.8 -2.6,-0.8 l -2,0 c -0.3,0.4 -0.5,1 -0.6,1.7 -0.2,0.7 -0.2,1.4 -0.2,2.1 l 0,4.8 c 0,1.3 -0.3,2.3 -0.9,3 -0.6,0.7 -1.5,1 -2.7,1 -0.3,0 -0.8,0 -1.4,-0.1 l 0,-1.8 c 0.3,0 0.5,0 0.8,0 0.7,0 1.2,-0.2 1.5,-0.5 0.3,-0.4 0.5,-0.9 0.5,-1.7 l 0,-4.5 c 0,-0.7 0.1,-1.5 0.3,-2.2 0.2,-0.7 0.5,-1.3 0.8,-1.8 l -2.7,0 0,-1.8 6.7,0 c 1.8,0 3.3,0.4 4.2,1.3 z"
           id="path6978"
           style="fill:#f48166" />
        <path
           class="st950"
           d="m 1126.2,1043.2 c 0.1,-0.7 0.3,-1.3 0.6,-1.9 0.3,-0.6 0.6,-1 1,-1.4 0,0 0.1,-0.1 0.2,-0.2 l 0,0 c -0.4,0.1 -0.8,0.2 -1.4,0.3 -0.6,0.1 -1.1,0.3 -1.5,0.4 l -0.5,-1.7 c 0.9,-0.3 2,-0.6 3.2,-0.8 1.2,-0.2 2.3,-0.3 3.2,-0.3 1.9,0 3.4,0.5 4.4,1.5 1,1 1.5,2.5 1.5,4.5 l 0,8.6 -5.9,0 0,-1.8 3.7,0 0,-7 c 0,-1.3 -0.3,-2.3 -0.9,-2.9 -0.6,-0.7 -1.4,-1 -2.5,-1 -0.8,0 -1.4,0.3 -2,0.9 -0.5,0.6 -0.9,1.4 -1,2.5 l -1.1,9.4 -2.2,0 1.2,-9.1 z"
           id="path6980"
           style="fill:#f48166" />
      </g>
    </g>
  </g>
</svg>
