<?xml version="1.0" encoding="UTF-8" standalone="no"?>
<svg
   xmlns:dc="http://purl.org/dc/elements/1.1/"
   xmlns:cc="http://creativecommons.org/ns#"
   xmlns:rdf="http://www.w3.org/1999/02/22-rdf-syntax-ns#"
   xmlns:svg="http://www.w3.org/2000/svg"
   xmlns="http://www.w3.org/2000/svg"
   version="1.1"
   id="svg4127"
   viewBox="0 0 209.10001 94.200045"
   height="26.585346mm"
   width="59.012669mm">
  <defs
     id="defs4129" />
  <metadata
     id="metadata4132">
    <rdf:RDF>
      <cc:Work
         rdf:about="">
        <dc:format>image/svg+xml</dc:format>
        <dc:type
           rdf:resource="http://purl.org/dc/dcmitype/StillImage" />
        <dc:title></dc:title>
      </cc:Work>
    </rdf:RDF>
  </metadata>
  <g
     transform="translate(-298.30714,-633.83361)"
     id="layer1">
    <g
       id="g4218">
      <rect
         id="rect309_3_"
         x="298.30713"
         y="633.83362"
         class="st933"
         width="209.10001"
         height="31.799999"
         style="fill:#4b1a26" />
      <g
         id="g4210"
         transform="translate(19.54999,0)">
        <path
           style="fill:#4b1a26"
           d="m 402.40715,688.73366 c 0,10.5 -19.1,39.3 -19.1,39.3 0,0 -19.1,-28.8 -19.1,-39.3 0,-10.5 8.6,-19.1 19.1,-19.1 10.6,0.3 19.1,8.6 19.1,19.1"
           class="st933"
           id="path395_3_" />
        <g
           transform="matrix(0.42702949,0,0,0.42702949,-154.94354,-121.68986)"
           id="g4679-4-9_3_">
          <path
             style="opacity:1;fill:#ffffff"
             d="m 1275.9,1880.8 c 4.6,-0.2 8.8,-4.2 9.8,-8.6 -4.4,0 -8.8,4.4 -9.8,8.6 z m -9.5,-4.9 c -5.4,6.4 -13.4,9 -20.5,13 -6.4,2.9 -12.2,8.3 -19.3,8.8 -0.2,4.6 1.7,8.8 2.4,13.2 4.6,-1.5 6.6,-1 8.8,3.4 4.4,5.6 14.9,2.4 15.4,-4.6 6.4,0.2 12.7,-0.2 18.8,-0.5 2.4,2.4 9.3,2 7.8,-2.7 -1.7,-10 -4.9,-19.8 -7.8,-29.6 -0.7,-2 -3.9,-0.5 -5.6,-1 z"
             class="st941"
             id="path6-3-7_3_" />
          <path
             style="fill:#4b1a26"
             d="m 1266.4,1885.7 c -9.3,5.4 -18.8,10.8 -28.6,15.6 1,2.4 7.3,1 10.5,1.5 7.6,0 15.4,0 23,0 -1,-5.9 -2.2,-12.3 -4.9,-17.1 z"
             class="st933"
             id="path8-6-3_3_" />
          <path
             style="opacity:1;fill:#ffffff"
             d="m 1282,1891.5 c 4.2,0 8.1,-1.2 12,-2.4 1,-5.9 -5.6,-2.7 -8.6,-1.5 -1.7,0.7 -3.4,2 -3.4,3.9 m 0,9.8 c 2.2,2.9 7.8,5.4 11.2,3.2 2.4,-3.7 -5.9,-3.2 -8.3,-4.2 -1.2,0 -1.9,0.5 -2.9,1 l 0,0 z"
             class="st941"
             id="path10-3-4_3_" />
          <path
             style="fill:#4b1a26"
             d="m 1238.5,1909.9 c 1.7,3.7 5.9,6.4 9,2.9 5.1,-4.9 -4.6,-2.4 -7.6,-2.9 -0.4,0 -0.9,0 -1.4,0 z"
             class="st933"
             id="path12-1-9_3_" />
        </g>
      </g>
      <g
         transform="translate(-305.19285,-455.86634)"
         id="g7102">
        <path
           class="st951"
           d="m 623.2,1106.5 c 0.2,0.4 0.4,0.7 0.5,1.1 0.1,0.4 0.2,0.9 0.2,1.4 l 0,8.7 -2.1,0 0,-8.9 c 0,-0.6 -0.2,-1.2 -0.5,-1.6 l -6.1,-8.9 2.6,0 3.8,5.8 3.2,-5.8 2.6,0 -4.4,7.8 0.2,0.4 z"
           id="path7104"
           style="fill:#bfc6cf" />
        <path
           class="st951"
           d="m 636.6,1102.6 c 0,-0.8 -0.2,-1.4 -0.7,-1.8 -0.5,-0.5 -1.1,-0.7 -1.9,-0.7 l -4.8,0 0,-1.8 4.9,0 c 1,0 1.8,0.2 2.6,0.5 0.7,0.4 1.3,0.9 1.6,1.6 0.4,0.7 0.6,1.5 0.6,2.4 l 0,9.9 -2.3,0 0,-10.1 z"
           id="path7106"
           style="fill:#bfc6cf" />
        <path
           class="st951"
           d="m 644.3,1100.1 -1.7,0 0,-1.8 3.9,0 0,14.4 -2.3,0 0,-12.6 z"
           id="path7108"
           style="fill:#bfc6cf" />
        <path
           class="st951"
           d="m 652.2,1100.1 -1.7,0 0,-1.8 3.9,0 0,14.4 -2.3,0 0,-12.6 z"
           id="path7110"
           style="fill:#bfc6cf" />
        <path
           class="st951"
           d="m 661.8,1110.1 c 0.8,0.3 1.6,0.6 2.5,0.8 0.9,0.2 1.7,0.3 2.5,0.3 1.2,0 2.2,-0.2 3.1,-0.5 0.9,-0.3 1.6,-0.8 2.2,-1.5 0.5,-0.7 0.8,-1.5 0.8,-2.5 l 0,-8.3 2.2,0 0,8.5 c 0,1.4 -0.4,2.5 -1.1,3.4 -0.7,0.9 -1.7,1.6 -2.9,2.1 -1.2,0.5 -2.6,0.7 -4.2,0.7 -1.2,0 -2.4,-0.1 -3.7,-0.4 -1.3,-0.3 -2.4,-0.7 -3.6,-1.2 l 0,-13.1 2.2,0 0,11.7 z m 4.1,-2.7 c 0.2,-0.6 0.2,-1.2 0.2,-1.9 l 0,-7.2 2.2,0 0,6.8 c 0,0.8 -0.1,1.6 -0.3,2.2 -0.2,0.6 -0.5,1.1 -0.9,1.6 l -1.9,-0.1 c 0.3,-0.4 0.5,-0.9 0.7,-1.4 z"
           id="path7112"
           style="fill:#bfc6cf" />
        <path
           class="st951"
           d="m 686.9,1098.3 11.5,0 0,14.4 -11.5,0 0,-14.4 z m 9.2,12.5 0,-10.7 -7,0 0,10.7 7,0 z"
           id="path7114"
           style="fill:#bfc6cf" />
        <path
           class="st951"
           d="m 704.1,1100.1 -1.7,0 0,-1.8 3.9,0 0,14.4 -2.3,0 0,-12.6 z"
           id="path7116"
           style="fill:#bfc6cf" />
        <path
           class="st951"
           d="m 712.5,1100.1 -2.6,0 0,-1.8 4.9,0 0,8 -2.3,0 0,-6.2 z"
           id="path7118"
           style="fill:#bfc6cf" />
        <path
           class="st951"
           d="m 725.5,1102.6 c 0,-0.8 -0.2,-1.4 -0.7,-1.8 -0.5,-0.5 -1.1,-0.7 -1.9,-0.7 l -4.8,0 0,-1.8 4.9,0 c 1,0 1.8,0.2 2.6,0.5 0.7,0.4 1.3,0.9 1.6,1.6 0.4,0.7 0.6,1.5 0.6,2.4 l 0,9.9 -2.3,0 0,-10.1 z"
           id="path7120"
           style="fill:#bfc6cf" />
        <path
           class="st951"
           d="m 733.1,1100.1 -1.7,0 0,-1.8 3.9,0 0,14.4 -2.3,0 0,-12.6 z"
           id="path7122"
           style="fill:#bfc6cf" />
        <path
           class="st951"
           d="m 743.2,1112.2 c -0.9,-0.5 -1.5,-1.2 -2,-2 -0.5,-0.8 -0.7,-1.9 -0.7,-3 l 0,-8.9 2.3,0 0,9 c 0,0.8 0.1,1.4 0.4,2 0.3,0.6 0.7,1 1.2,1.3 0.5,0.3 1.1,0.5 1.8,0.5 0.7,0 1.3,-0.2 1.8,-0.5 0.5,-0.3 0.9,-0.8 1.2,-1.3 0.3,-0.6 0.4,-1.2 0.4,-2 l 0,-4.8 c 0,-0.8 -0.2,-1.4 -0.5,-1.8 -0.3,-0.4 -0.8,-0.6 -1.5,-0.6 -0.5,0 -1.1,0.2 -1.8,0.5 l -0.4,-1.5 c 0.4,-0.3 0.9,-0.5 1.3,-0.6 0.5,-0.2 1,-0.2 1.4,-0.2 0.7,0 1.4,0.2 1.9,0.5 0.5,0.3 1,0.8 1.2,1.4 0.3,0.6 0.4,1.4 0.4,2.2 l 0,4.8 c 0,1.1 -0.2,2.2 -0.7,3 -0.5,0.9 -1.1,1.5 -2,2 -0.9,0.5 -1.9,0.7 -3,0.7 -1.1,0 -1.9,-0.2 -2.7,-0.7 z"
           id="path7124"
           style="fill:#bfc6cf" />
        <path
           class="st951"
           d="m 757.6,1100.1 -2.6,0 0,-1.8 4.9,0 0,8 -2.3,0 0,-6.2 z"
           id="path7126"
           style="fill:#bfc6cf" />
        <path
           class="st951"
           d="m 774.7,1098.3 0,1.8 -2.4,0 0,12.6 -2.3,0 0,-12.6 -6.8,0 0,-1.8 11.5,0 z"
           id="path7128"
           style="fill:#bfc6cf" />
        <path
           class="st951"
           d="m 779,1100.1 -1.7,0 0,-1.8 3.9,0 0,14.4 -2.2,0 0,-12.6 z"
           id="path7130"
           style="fill:#bfc6cf" />
        <path
           class="st951"
           d="m 794.3,1106.3 4.6,6.3 -2.5,0 -6.4,-8.8 c -0.9,0.5 -1.3,1.5 -1.3,2.8 l 0,6 -2.2,0 0,-5.2 c 0,-1.2 0.2,-2.3 0.6,-3.1 0.4,-0.8 1.1,-1.4 2,-1.8 l -3.1,-4.3 2.5,0 4.5,6.2 3.5,-6.2 2.6,0 -4.8,8.1 z"
           id="path7132"
           style="fill:#bfc6cf" />
      </g>
    </g>
  </g>
</svg>
