<?xml version="1.0" encoding="UTF-8" standalone="no"?>
<svg
   xmlns:dc="http://purl.org/dc/elements/1.1/"
   xmlns:cc="http://creativecommons.org/ns#"
   xmlns:rdf="http://www.w3.org/1999/02/22-rdf-syntax-ns#"
   xmlns:svg="http://www.w3.org/2000/svg"
   xmlns="http://www.w3.org/2000/svg"
   version="1.1"
   id="svg5708"
   viewBox="0 0 908.495 469.49726"
   height="469.49725"
   width="908.495">
  <defs
     id="defs5710">
    <linearGradient
       id="SVGID_2_-64"
       gradientUnits="userSpaceOnUse"
       x1="109.693"
       y1="551.2467"
       x2="141.47031"
       y2="511.5954">
      <stop
         offset="0"
         style="stop-color:#FFFFFF"
         id="stop347-8" />
      <stop
         offset="1.754534e-02"
         style="stop-color:#FDF9F8"
         id="stop349-04" />
      <stop
         offset="0.1645"
         style="stop-color:#ECCBC0"
         id="stop351-5" />
      <stop
         offset="0.3124"
         style="stop-color:#DDA391"
         id="stop353-8" />
      <stop
         offset="0.4581"
         style="stop-color:#D18269"
         id="stop355-6" />
      <stop
         offset="0.6011"
         style="stop-color:#C8694B"
         id="stop357-8" />
      <stop
         offset="0.7408"
         style="stop-color:#C15735"
         id="stop359-0" />
      <stop
         offset="0.8756"
         style="stop-color:#BD4C28"
         id="stop361-04" />
      <stop
         offset="1"
         style="stop-color:#BC4824"
         id="stop363-7" />
    </linearGradient>
    <linearGradient
       id="SVGID_3_-9"
       gradientUnits="userSpaceOnUse"
       x1="110.665"
       y1="552.0257"
       x2="142.44231"
       y2="512.37439">
      <stop
         offset="0"
         style="stop-color:#FFFFFF"
         id="stop368-1" />
      <stop
         offset="1.754534e-02"
         style="stop-color:#FDF9F8"
         id="stop370-6" />
      <stop
         offset="0.1645"
         style="stop-color:#ECCBC0"
         id="stop372-9" />
      <stop
         offset="0.3124"
         style="stop-color:#DDA391"
         id="stop374-0" />
      <stop
         offset="0.4581"
         style="stop-color:#D18269"
         id="stop376-6" />
      <stop
         offset="0.6011"
         style="stop-color:#C8694B"
         id="stop378-2" />
      <stop
         offset="0.7408"
         style="stop-color:#C15735"
         id="stop380-0" />
      <stop
         offset="0.8756"
         style="stop-color:#BD4C28"
         id="stop382-6" />
      <stop
         offset="1"
         style="stop-color:#BC4824"
         id="stop384-3" />
    </linearGradient>
    <linearGradient
       id="SVGID_4_-6"
       gradientUnits="userSpaceOnUse"
       x1="110.2443"
       y1="551.68848"
       x2="142.02161"
       y2="512.03717">
      <stop
         offset="0"
         style="stop-color:#FFFFFF"
         id="stop389-9" />
      <stop
         offset="1.754534e-02"
         style="stop-color:#FDF9F8"
         id="stop391-6" />
      <stop
         offset="0.1645"
         style="stop-color:#ECCBC0"
         id="stop393-7" />
      <stop
         offset="0.3124"
         style="stop-color:#DDA391"
         id="stop395-9" />
      <stop
         offset="0.4581"
         style="stop-color:#D18269"
         id="stop397-29" />
      <stop
         offset="0.6011"
         style="stop-color:#C8694B"
         id="stop399-0" />
      <stop
         offset="0.7408"
         style="stop-color:#C15735"
         id="stop401-9" />
      <stop
         offset="0.8756"
         style="stop-color:#BD4C28"
         id="stop403-10" />
      <stop
         offset="1"
         style="stop-color:#BC4824"
         id="stop405-8" />
    </linearGradient>
  </defs>
  <metadata
     id="metadata5713">
    <rdf:RDF>
      <cc:Work
         rdf:about="">
        <dc:format>image/svg+xml</dc:format>
        <dc:type
           rdf:resource="http://purl.org/dc/dcmitype/StillImage" />
        <dc:title></dc:title>
      </cc:Work>
    </rdf:RDF>
  </metadata>
  <g
     transform="translate(114.83624,-244.90326)"
     id="layer1">
    <polygon
       id="polygon3_2_"
       class="st37"
       points="557,456.3 614.8,428.6 802.5,509.1 828.2,501.7 918.3,547.5 873.7,570.4 826.1,548.6 638.9,644.7 573.1,723.7 593.8,741.5 554.7,769.4 587.6,793.1 523.1,825.7 439.6,791.2 448.9,788.8 306.8,722.8 371,677.6 225.5,606.4 152,644.7 38.6,576.7 292.7,457.5 469.5,534.7 531.8,497.7 587.6,471.1 "
       style="fill:#ec7137"
       transform="translate(-143.17453,-133.39673)" />
    <polygon
       id="polygon273_3_"
       class="st38"
       points="219.3,531.7 240.7,544 240.7,527.4 219.3,516.5 "
       style="opacity:1;fill:#ffffff;stroke:#000000;stroke-width:0.25;stroke-miterlimit:10;enable-background:new"
       transform="translate(-143.17453,-133.39673)" />
    <polygon
       id="polygon5_2_"
       class="st39"
       points="385.7,585.1 335.4,613.7 291.5,594.1 287.2,581.8 328.3,558.4 328.3,558.4 "
       style="fill:#eda78c"
       transform="translate(-143.17453,-133.39673)" />
    <polygon
       id="polygon281_3_"
       class="st38"
       points="171.7,533.5 171.6,555.1 219.3,531.7 220.1,509.5 "
       style="opacity:1;fill:#ffffff;stroke:#000000;stroke-width:0.25;stroke-miterlimit:10;enable-background:new"
       transform="translate(-143.17453,-133.39673)" />
    <polygon
       id="polygon7_2_"
       class="st40"
       points="606.1,461.6 745.7,522.6 745.7,505 606.1,443.2 "
       style="opacity:1;fill:#ffffff;enable-background:new"
       transform="translate(-143.17453,-133.39673)" />
    <polygon
       id="polygon9_2_"
       class="st41"
       points="606.1,461.6 745.7,522.6 745.7,505 606.1,443.2 "
       style="fill:none;stroke:#1a1631;stroke-width:0.23999999"
       transform="translate(-143.17453,-133.39673)" />
    <polygon
       id="polygon11_2_"
       class="st40"
       points="302.3,635.8 294.6,638.7 294.6,622.2 302.3,617.8 "
       style="opacity:1;fill:#ffffff;enable-background:new"
       transform="translate(-143.17453,-133.39673)" />
    <polygon
       id="polygon13_2_"
       class="st41"
       points="302.3,635.8 294.6,638.7 294.6,622.2 302.3,617.8 "
       style="fill:none;stroke:#1a1631;stroke-width:0.23999999"
       transform="translate(-143.17453,-133.39673)" />
    <polygon
       id="polygon15_2_"
       class="st40"
       points="337.3,563.5 394.8,590.2 394.8,571.5 337.9,546 "
       style="opacity:1;fill:#ffffff;enable-background:new"
       transform="translate(-143.17453,-133.39673)" />
    <polygon
       id="polygon17_2_"
       class="st41"
       points="337.5,563.5 395,590.2 395,571.5 337.5,546.3 "
       style="fill:none;stroke:#1a1631;stroke-width:0.23999999"
       transform="translate(-143.17453,-133.39673)" />
    <polygon
       id="polygon19_2_"
       class="st40"
       points="469.5,518.8 295.9,445.6 296.6,459.8 469.5,535.4 "
       style="opacity:1;fill:#ffffff;enable-background:new"
       transform="translate(-143.17453,-133.39673)" />
    <polygon
       id="polygon21_2_"
       class="st41"
       points="469.5,518.8 295.9,445.6 296.6,459.8 469.5,535.4 "
       style="fill:none;stroke:#1a1631;stroke-width:0.23999999"
       transform="translate(-143.17453,-133.39673)" />
    <polygon
       id="polygon23_2_"
       class="st40"
       points="331.5,607.5 348.3,615.9 394.9,590.2 394.9,571.4 "
       style="opacity:1;fill:#ffffff;enable-background:new"
       transform="translate(-143.17453,-133.39673)" />
    <polygon
       id="polygon5_1_"
       class="st39"
       points="321.3,555.6 271,584.1 227.1,564.6 222.8,552.2 263.9,528.9 263.9,528.9 "
       style="fill:#eda78c"
       transform="translate(-143.17453,-133.39673)" />
    <polygon
       id="polygon15_1_"
       class="st40"
       points="263.9,528.9 321.3,555.6 321.3,536.9 264.4,511.4 "
       style="opacity:1;fill:#ffffff;enable-background:new"
       transform="translate(-143.17453,-133.39673)" />
    <polygon
       id="polygon17_1_"
       class="st41"
       points="263.9,528.9 321.3,555.6 321.3,536.9 263.9,511.6 "
       style="fill:none;stroke:#1a1631;stroke-width:0.23999999"
       transform="translate(-143.17453,-133.39673)" />
    <polygon
       id="polygon23_1_"
       class="st40"
       points="258,572.8 274.9,581.3 321.5,555.6 321.5,536.7 "
       style="opacity:1;fill:#ffffff;enable-background:new"
       transform="translate(-143.17453,-133.39673)" />
    <polygon
       id="polygon25_2_"
       class="st41"
       points="331.7,607.5 348.5,615.9 395.1,590.2 395.1,571.4 "
       style="fill:none;stroke:#1a1631;stroke-width:0.23999999"
       transform="translate(-143.17453,-133.39673)" />
    <polygon
       id="polygon25_1_"
       class="st41"
       points="259.3,572 276.1,580.5 322.7,554.8 322.7,535.9 "
       style="fill:none;stroke:#1a1631;stroke-width:0.23999999"
       transform="translate(-143.17453,-133.39673)" />
    <polygon
       id="polygon27_2_"
       class="st40"
       points="643,443.2 803.9,513.9 803.9,498.9 643,427.4 "
       style="opacity:1;fill:#ffffff;enable-background:new"
       transform="translate(-143.17453,-133.39673)" />
    <polygon
       id="polygon29_2_"
       class="st41"
       points="643,443.2 803.9,513.9 803.9,498.9 643,427.4 "
       style="fill:none;stroke:#1a1631;stroke-width:0.23999999"
       transform="translate(-143.17453,-133.39673)" />
    <polygon
       id="polygon31_2_"
       class="st40"
       points="38.6,576.7 152,644.7 152,622.6 38.6,553.1 "
       style="opacity:1;fill:#ffffff;enable-background:new"
       transform="translate(-143.17453,-133.39673)" />
    <polygon
       id="polygon33_2_"
       class="st41"
       points="38.6,576.7 152,644.7 152,622.6 38.6,553.1 "
       style="fill:none;stroke:#1a1631;stroke-width:0.23999999"
       transform="translate(-143.17453,-133.39673)" />
    <polygon
       id="polygon35_2_"
       class="st40"
       points="225.5,587.6 370.8,659.7 371,677.6 225.5,606.4 "
       style="opacity:1;fill:#ffffff;enable-background:new"
       transform="translate(-143.17453,-133.39673)" />
    <polygon
       id="polygon37_2_"
       class="st41"
       points="225.5,587.6 370.8,659.7 371,677.6 225.5,606.4 "
       style="fill:none;stroke:#1a1631;stroke-width:0.23999999"
       transform="translate(-143.17453,-133.39673)" />
    <polygon
       id="polygon39_2_"
       class="st40"
       points="279.3,578.6 296.2,586.9 337.3,563.5 337.3,546.3 "
       style="opacity:1;fill:#ffffff;enable-background:new"
       transform="translate(-143.17453,-133.39673)" />
    <polygon
       id="polygon41_2_"
       class="st41"
       points="279.5,578.6 296.4,586.9 337.5,563.5 337.5,546.3 "
       style="fill:none;stroke:#1a1631;stroke-width:0.23999999"
       transform="translate(-143.17453,-133.39673)" />
    <path
       id="path43_2_"
       class="st40"
       d="m 261.52547,634.90327 44.4,20.6 6.4,-12.2 -50.8,-24.1 0,15.7 z m -55.5,-41.8 -42.4,-20 0,16.4 42.4,19.7 0,-16.1 z"
       style="opacity:1;fill:#ffffff;enable-background:new" />
    <path
       id="path45_2_"
       class="st41"
       d="m 261.52547,634.90327 44.4,20.6 6.4,-12.2 -50.8,-24.1 0,15.7 z m -55.5,-41.8 -42.4,-20 0,16.4 42.4,19.7 0,-16.1 z"
       style="fill:none;stroke:#1a1631;stroke-width:0.23999999" />
    <polygon
       id="polygon47_2_"
       class="st40"
       points="543.7,776.5 593.8,800.7 593.8,785 543.2,762.1 "
       style="opacity:1;fill:#ffffff;enable-background:new"
       transform="translate(-143.17453,-133.39673)" />
    <polygon
       id="polygon49_2_"
       class="st41"
       points="543.7,776.5 593.8,800.7 593.8,785 543.2,762.1 "
       style="fill:none;stroke:#1a1631;stroke-width:0.23999999"
       transform="translate(-143.17453,-133.39673)" />
    <polygon
       id="polygon51_2_"
       class="st40"
       points="568.7,732.5 602.9,749.9 602.9,732.2 568.4,714.7 "
       style="opacity:1;fill:#ffffff;enable-background:new"
       transform="translate(-143.17453,-133.39673)" />
    <polygon
       id="polygon53_2_"
       class="st41"
       points="568.7,732.5 602.9,749.9 602.9,732.2 568.4,714.7 "
       style="fill:none;stroke:#1a1631;stroke-width:0.23999999"
       transform="translate(-143.17453,-133.39673)" />
    <polygon
       id="polygon57_2_"
       class="st41"
       points="827.4,501.9 915.8,547 926.6,539.5 827.4,489 "
       style="fill:none;stroke:#1a1631;stroke-width:0.23999999"
       transform="translate(-143.17453,-133.39673)" />
    <polygon
       id="polygon59_2_"
       class="st40"
       points="832.7,557.6 873.7,578.6 873.7,563 832.7,542.6 "
       style="opacity:1;fill:#ffffff;enable-background:new"
       transform="translate(-143.17453,-133.39673)" />
    <polygon
       id="polygon61_2_"
       class="st41"
       points="832.7,557.6 873.7,578.6 873.7,563 832.7,542.6 "
       style="fill:none;stroke:#1a1631;stroke-width:0.23999999"
       transform="translate(-143.17453,-133.39673)" />
    <polygon
       id="polygon67_2_"
       class="st40"
       points="306.8,706.5 321,712.8 371,677.6 370.8,659.7 "
       style="opacity:1;fill:#ffffff;enable-background:new"
       transform="translate(-143.17453,-133.39673)" />
    <polygon
       id="polygon69_2_"
       class="st41"
       points="306.8,706.5 321,712.8 371,677.6 370.8,659.7 "
       style="fill:none;stroke:#1a1631;stroke-width:0.23999999"
       transform="translate(-143.17453,-133.39673)" />
    <polygon
       id="polygon71_2_"
       class="st40"
       points="435.9,781 435.9,796.8 476.5,776 476.5,756.4 "
       style="opacity:1;fill:#ffffff;enable-background:new"
       transform="translate(-143.17453,-133.39673)" />
    <polygon
       id="polygon73_2_"
       class="st41"
       points="435.9,781 435.9,796.8 476.5,776 476.5,756.4 "
       style="fill:none;stroke:#1a1631;stroke-width:0.23999999"
       transform="translate(-143.17453,-133.39673)" />
    <polygon
       id="polygon75_2_"
       class="st40"
       points="435.9,796.7 514.9,837.6 514.9,820.4 435.9,781.3 "
       style="opacity:1;fill:#ffffff;enable-background:new"
       transform="translate(-143.17453,-133.39673)" />
    <polygon
       id="polygon77_2_"
       class="st41"
       points="435.9,796.7 514.9,837.6 514.9,820.4 435.9,781.3 "
       style="fill:none;stroke:#1a1631;stroke-width:0.23999999"
       transform="translate(-143.17453,-133.39673)" />
    <polygon
       id="polygon79_2_"
       class="st40"
       points="593.8,785 593.8,800.7 514.9,837.6 514.9,820.4 "
       style="opacity:1;fill:#ffffff;enable-background:new"
       transform="translate(-143.17453,-133.39673)" />
    <polygon
       id="polygon81_2_"
       class="st41"
       points="593.8,785 593.8,800.7 514.9,837.6 514.9,820.4 "
       style="fill:none;stroke:#1a1631;stroke-width:0.23999999"
       transform="translate(-143.17453,-133.39673)" />
    <polygon
       id="polygon83_2_"
       class="st40"
       points="602.9,732.2 602.9,749.9 559.2,769.4 543,762.1 "
       style="opacity:1;fill:#ffffff;enable-background:new"
       transform="translate(-143.17453,-133.39673)" />
    <polygon
       id="polygon85_2_"
       class="st41"
       points="602.9,732.2 602.9,749.9 559.2,769.4 543,762.1 "
       style="fill:none;stroke:#1a1631;stroke-width:0.23999999"
       transform="translate(-143.17453,-133.39673)" />
    <polygon
       id="polygon87_2_"
       class="st40"
       points="832.7,557.6 649.9,646.7 579.9,720.5 568.4,714.7 643.7,630.2 832.7,542.6 "
       style="opacity:1;fill:#ffffff;enable-background:new"
       transform="translate(-143.17453,-133.39673)" />
    <polygon
       id="polygon89_2_"
       class="st41"
       points="832.7,557.6 649.9,646.7 579.9,720.5 568.4,714.7 643.7,630.2 832.7,542.6 "
       style="fill:none;stroke:#1a1631;stroke-width:0.23999999"
       transform="translate(-143.17453,-133.39673)" />
    <polygon
       id="polygon91_2_"
       class="st40"
       points="779.6,545.3 613.6,626.7 581,658.7 580.4,640.7 607.6,610.3 779.6,530 "
       style="opacity:1;fill:#ffffff;enable-background:new"
       transform="translate(-143.17453,-133.39673)" />
    <polygon
       id="polygon93_2_"
       class="st41"
       points="779.6,545.3 613.6,626.7 581,658.7 580.4,640.7 607.6,610.3 779.6,530 "
       style="fill:none;stroke:#1a1631;stroke-width:0.23999999"
       transform="translate(-143.17453,-133.39673)" />
    <polygon
       id="polygon95_2_"
       class="st40"
       points="926,538.6 926,554.3 873.3,579 873.3,563.5 "
       style="opacity:1;fill:#ffffff;enable-background:new"
       transform="translate(-143.17453,-133.39673)" />
    <polygon
       id="polygon97_2_"
       class="st41"
       points="926,538.6 926,554.3 873.3,579 873.3,563.5 "
       style="fill:none;stroke:#1a1631;stroke-width:0.23999999"
       transform="translate(-143.17453,-133.39673)" />
    <polygon
       id="polygon99_2_"
       class="st40"
       points="803.9,499.2 803.9,513.9 813.4,509.5 813.4,494.5 "
       style="opacity:1;fill:#ffffff;enable-background:new"
       transform="translate(-143.17453,-133.39673)" />
    <polygon
       id="polygon101_2_"
       class="st41"
       points="803.9,499.2 803.9,513.9 813.4,509.5 813.4,494.5 "
       style="fill:none;stroke:#1a1631;stroke-width:0.23999999"
       transform="translate(-143.17453,-133.39673)" />
    <polygon
       id="polygon103_2_"
       class="st40"
       points="469.5,534.7 469.5,518.8 518.9,485.3 585.9,455.1 587.6,473.4 525.1,504.1 "
       style="opacity:1;fill:#ffffff;enable-background:new"
       transform="translate(-143.17453,-133.39673)" />
    <polygon
       id="polygon105_2_"
       class="st41"
       points="469.5,534.7 469.5,518.8 518.9,485.3 585.9,455.1 587.6,473.4 525.1,504.1 "
       style="fill:none;stroke:#1a1631;stroke-width:0.23999999"
       transform="translate(-143.17453,-133.39673)" />
    <polygon
       id="polygon107_2_"
       class="st40"
       points="38.6,553.1 60.6,566.7 296.6,459.8 295.9,445.6 "
       style="opacity:1;fill:#ffffff;enable-background:new"
       transform="translate(-143.17453,-133.39673)" />
    <polygon
       id="polygon109_2_"
       class="st41"
       points="38.6,553.1 60.6,566.7 296.6,459.8 295.9,445.6 "
       style="fill:none;stroke:#1a1631;stroke-width:0.23999999"
       transform="translate(-143.17453,-133.39673)" />
    <polygon
       id="polygon111_2_"
       class="st40"
       points="152,622.6 152,644.7 225.5,606.4 225.5,587.6 "
       style="opacity:1;fill:#ffffff;enable-background:new"
       transform="translate(-143.17453,-133.39673)" />
    <polygon
       id="polygon113_2_"
       class="st41"
       points="152,622.6 152,644.7 225.5,606.4 225.5,587.6 "
       style="fill:none;stroke:#1a1631;stroke-width:0.23999999"
       transform="translate(-143.17453,-133.39673)" />
    <polygon
       id="polygon117_2_"
       class="st41"
       points="263.4,512.6 263.4,531.5 224.5,551.4 208.1,543.2 "
       style="fill:none;stroke:#1a1631;stroke-width:0.23999999"
       transform="translate(-143.17453,-133.39673)" />
    <polygon
       id="polygon119_2_"
       class="st40"
       points="324.2,618 316.5,623.3 316.5,604.5 324.2,599.9 "
       style="opacity:1;fill:#ffffff;enable-background:new"
       transform="translate(-143.17453,-133.39673)" />
    <polygon
       id="polygon121_2_"
       class="st41"
       points="324.2,618 316.5,623.3 316.5,604.5 324.2,599.9 "
       style="fill:none;stroke:#1a1631;stroke-width:0.23999999"
       transform="translate(-143.17453,-133.39673)" />
    <polygon
       id="polygon123_2_"
       class="st40"
       points="391.8,651.5 457.6,616.1 474.4,625.6 475,609.6 457.6,598.9 391.8,634.3 "
       style="opacity:1;fill:#ffffff;enable-background:new"
       transform="translate(-143.17453,-133.39673)" />
    <polygon
       id="polygon125_2_"
       class="st41"
       points="391.8,651.5 457.6,616.1 474.4,625.6 475,609.6 457.6,598.9 391.8,634.3 "
       style="fill:none;stroke:#1a1631;stroke-width:0.23999999"
       transform="translate(-143.17453,-133.39673)" />
    <polygon
       id="polygon127_2_"
       class="st40"
       points="509.8,520.4 608.8,563.2 617.5,561.7 519.4,515.9 "
       style="opacity:1;fill:#ffffff;enable-background:new"
       transform="translate(-143.17453,-133.39673)" />
    <polygon
       id="polygon129_2_"
       class="st43"
       points="509.8,520.4 608.8,563.2 617.5,561.7 519.4,515.9 "
       style="fill:none;stroke:#1a1631;stroke-width:0.47999999"
       transform="translate(-143.17453,-133.39673)" />
    <path
       id="path139_2_"
       class="st40"
       d="m 364.92547,382.40327 -9.8,4 103.1,46.6 7.5,-3.3 c 0.4,0.7 -100.8,-47.3 -100.8,-47.3"
       style="opacity:1;fill:#ffffff;enable-background:new" />
    <path
       id="path141_2_"
       class="st43"
       d="m 364.92547,382.40327 -9.8,4 103.1,46.6 7.5,-3.3 c 0.4,0.7 -100.8,-47.3 -100.8,-47.3 l 0,0 z"
       style="fill:none;stroke:#1a1631;stroke-width:0.47999999" />
    <polygon
       id="polygon143_2_"
       class="st40"
       points="481.9,522.6 583.2,567.3 591.8,559.4 495.7,515.9 "
       style="opacity:1;fill:#ffffff;enable-background:new"
       transform="translate(-143.17453,-133.39673)" />
    <polygon
       id="polygon145_2_"
       class="st43"
       points="481.9,522.6 583.2,567.3 591.8,559.4 495.7,515.9 "
       style="fill:none;stroke:#1a1631;stroke-width:0.47999999"
       transform="translate(-143.17453,-133.39673)" />
    <polygon
       id="polygon147_2_"
       class="st40"
       points="473.5,520.4 575.6,566.5 583.2,563.2 483.1,515.9 "
       style="opacity:1;fill:#ffffff;enable-background:new"
       transform="translate(-143.17453,-133.39673)" />
    <polygon
       id="polygon149_2_"
       class="st43"
       points="473.5,520.4 575.6,566.5 583.2,563.2 483.1,515.9 "
       style="fill:none;stroke:#1a1631;stroke-width:0.47999999"
       transform="translate(-143.17453,-133.39673)" />
    <polygon
       id="polygon151_2_"
       class="st40"
       points="431.4,535.4 528.4,576 567.5,559.4 471.5,516.6 "
       style="opacity:1;fill:#ffffff;enable-background:new"
       transform="translate(-143.17453,-133.39673)" />
    <polygon
       id="polygon153_2_"
       class="st43"
       points="431.4,535.4 528.4,576 567.5,559.4 471.5,516.6 "
       style="fill:none;stroke:#1a1631;stroke-width:0.47999999"
       transform="translate(-143.17453,-133.39673)" />
    <polygon
       id="polygon155_2_"
       class="st40"
       points="429.1,532.6 529.7,578.3 537.3,575 436.6,529.6 "
       style="opacity:1;fill:#ffffff;enable-background:new"
       transform="translate(-143.17453,-133.39673)" />
    <polygon
       id="polygon157_2_"
       class="st43"
       points="429.1,532.6 529.7,578.3 537.3,575 436.6,529.6 "
       style="fill:none;stroke:#1a1631;stroke-width:0.47999999"
       transform="translate(-143.17453,-133.39673)" />
    <polygon
       id="polygon159_2_"
       class="st40"
       points="415.7,533.5 511.8,575.2 520.4,573.7 424.1,529.3 "
       style="opacity:1;fill:#ffffff;enable-background:new"
       transform="translate(-143.17453,-133.39673)" />
    <polygon
       id="polygon161_2_"
       class="st43"
       points="415.7,533.5 511.8,575.2 520.4,573.7 424.1,529.3 "
       style="fill:none;stroke:#1a1631;stroke-width:0.47999999"
       transform="translate(-143.17453,-133.39673)" />
    <polygon
       id="polygon163_2_"
       class="st40"
       points="403.5,533 504.2,578.6 511.8,575.2 411.2,529.3 "
       style="opacity:1;fill:#ffffff;enable-background:new"
       transform="translate(-143.17453,-133.39673)" />
    <g
       id="g344"
       transform="translate(-143.17453,-133.39673)">
      <linearGradient
         id="linearGradient14919"
         gradientUnits="userSpaceOnUse"
         x1="109.693"
         y1="551.2467"
         x2="141.47031"
         y2="511.5954">
        <stop
           offset="0"
           style="stop-color:#FFFFFF"
           id="stop14921" />
        <stop
           offset="1.754534e-02"
           style="stop-color:#FDF9F8"
           id="stop14923" />
        <stop
           offset="0.1645"
           style="stop-color:#ECCBC0"
           id="stop14925" />
        <stop
           offset="0.3124"
           style="stop-color:#DDA391"
           id="stop14927" />
        <stop
           offset="0.4581"
           style="stop-color:#D18269"
           id="stop14929" />
        <stop
           offset="0.6011"
           style="stop-color:#C8694B"
           id="stop14931" />
        <stop
           offset="0.7408"
           style="stop-color:#C15735"
           id="stop14933" />
        <stop
           offset="0.8756"
           style="stop-color:#BD4C28"
           id="stop14935" />
        <stop
           offset="1"
           style="stop-color:#BC4824"
           id="stop14937" />
      </linearGradient>
      <polygon
         class="st44"
         points="170.1,502 176.9,498.1 176.7,498 176.7,490.2 145.1,476.3 145.1,483.2 136.1,486.5 136.1,493.8 129.9,496.2 163.7,512.7 168.8,509.3 "
         id="polygon365"
         style="opacity:1;fill:url(#SVGID_2_-64);enable-background:new" />
      <linearGradient
         id="linearGradient14940"
         gradientUnits="userSpaceOnUse"
         x1="110.665"
         y1="552.0257"
         x2="142.44231"
         y2="512.37439">
        <stop
           offset="0"
           style="stop-color:#FFFFFF"
           id="stop14942" />
        <stop
           offset="1.754534e-02"
           style="stop-color:#FDF9F8"
           id="stop14944" />
        <stop
           offset="0.1645"
           style="stop-color:#ECCBC0"
           id="stop14946" />
        <stop
           offset="0.3124"
           style="stop-color:#DDA391"
           id="stop14948" />
        <stop
           offset="0.4581"
           style="stop-color:#D18269"
           id="stop14950" />
        <stop
           offset="0.6011"
           style="stop-color:#C8694B"
           id="stop14952" />
        <stop
           offset="0.7408"
           style="stop-color:#C15735"
           id="stop14954" />
        <stop
           offset="0.8756"
           style="stop-color:#BD4C28"
           id="stop14956" />
        <stop
           offset="1"
           style="stop-color:#BC4824"
           id="stop14958" />
      </linearGradient>
      <polygon
         class="st45"
         points="120.6,571.4 121.7,564.2 128.6,560.2 128.6,553.1 131,554.2 138.1,550.5 138.5,550.7 138.5,544.1 103.4,527.8 103.4,535.3 103.4,535.3 96.9,538.4 96.9,545.3 87.8,548.6 87.8,556 "
         id="polygon386"
         style="opacity:1;fill:url(#SVGID_3_-9);enable-background:new" />
      <linearGradient
         id="linearGradient14961"
         gradientUnits="userSpaceOnUse"
         x1="110.2443"
         y1="551.68848"
         x2="142.02161"
         y2="512.03717">
        <stop
           offset="0"
           style="stop-color:#FFFFFF"
           id="stop14963" />
        <stop
           offset="1.754534e-02"
           style="stop-color:#FDF9F8"
           id="stop14965" />
        <stop
           offset="0.1645"
           style="stop-color:#ECCBC0"
           id="stop14967" />
        <stop
           offset="0.3124"
           style="stop-color:#DDA391"
           id="stop14969" />
        <stop
           offset="0.4581"
           style="stop-color:#D18269"
           id="stop14971" />
        <stop
           offset="0.6011"
           style="stop-color:#C8694B"
           id="stop14973" />
        <stop
           offset="0.7408"
           style="stop-color:#C15735"
           id="stop14975" />
        <stop
           offset="0.8756"
           style="stop-color:#BD4C28"
           id="stop14977" />
        <stop
           offset="1"
           style="stop-color:#BC4824"
           id="stop14979" />
      </linearGradient>
      <polygon
         class="st46"
         points="112.9,518 112.7,517.9 112.4,524.4 103.4,527.8 138.6,544 145,540.8 145,533.9 145.1,533.9 152.9,530.2 153.3,530.4 153.3,522.9 160.7,519.3 161,519.4 161,511.6 129.9,496.2 129.6,504.5 120.6,507.9 120.6,514.9 "
         id="polygon407"
         style="opacity:1;fill:url(#SVGID_4_-6);enable-background:new" />
    </g>
    <polygon
       id="polygon165_2_"
       class="st43"
       points="403.5,533 504.2,578.6 511.8,575.2 411.2,529.3 "
       style="fill:none;stroke:#1a1631;stroke-width:0.47999999"
       transform="translate(-143.17453,-133.39673)" />
    <polygon
       id="polygon167_2_"
       class="st40"
       points="386.8,533.9 486.1,579.4 494.7,571.4 399.2,529.3 "
       style="opacity:1;fill:#ffffff;enable-background:new"
       transform="translate(-143.17453,-133.39673)" />
    <polygon
       id="polygon169_2_"
       class="st43"
       points="386.8,533.9 486.1,579.4 494.7,571.4 399.2,529.3 "
       style="fill:none;stroke:#1a1631;stroke-width:0.47999999"
       transform="translate(-143.17453,-133.39673)" />
    <polygon
       id="polygon171_2_"
       class="st40"
       points="377.9,533 478.5,578.6 486.1,575.2 385.3,529.8 "
       style="opacity:1;fill:#ffffff;enable-background:new"
       transform="translate(-143.17453,-133.39673)" />
    <polygon
       id="polygon173_2_"
       class="st43"
       points="377.9,533 478.5,578.6 486.1,575.2 385.3,529.8 "
       style="fill:none;stroke:#1a1631;stroke-width:0.47999999"
       transform="translate(-143.17453,-133.39673)" />
    <polygon
       id="polygon175_2_"
       class="st40"
       points="567.5,554.2 527.8,571.2 477,567 474.4,625.6 617.5,561.7 "
       style="opacity:1;fill:#ffffff;enable-background:new"
       transform="translate(-143.17453,-133.39673)" />
    <polygon
       id="polygon177_2_"
       class="st41"
       points="567.5,554.2 527.8,571.2 477,567 474.4,625.6 617.5,561.7 "
       style="fill:none;stroke:#1a1631;stroke-width:0.23999999"
       transform="translate(-143.17453,-133.39673)" />
    <polygon
       id="polygon181_2_"
       class="st41"
       points="161,511.6 161,519.4 129.6,504.5 129.9,496.2 "
       style="fill:none;stroke:#1a1631;stroke-width:0.23999999"
       transform="translate(-143.17453,-133.39673)" />
    <polygon
       id="polygon185_2_"
       class="st41"
       points="168.8,509.3 163.7,512.7 129.9,496.2 139,492.7 "
       style="fill:none;stroke:#1a1631;stroke-width:0.23999999"
       transform="translate(-143.17453,-133.39673)" />
    <polygon
       id="polygon189_2_"
       class="st41"
       points="170.1,502 168.8,509.3 136.1,493.9 136.1,486.5 "
       style="fill:none;stroke:#1a1631;stroke-width:0.23999999"
       transform="translate(-143.17453,-133.39673)" />
    <polygon
       id="polygon193_2_"
       class="st41"
       points="176.9,498.1 170.1,502 136.1,486.5 145.1,483.2 "
       style="fill:none;stroke:#1a1631;stroke-width:0.23999999"
       transform="translate(-143.17453,-133.39673)" />
    <polygon
       id="polygon197_2_"
       class="st41"
       points="176.7,490.2 176.7,498.1 145.1,483.2 145.1,476.3 "
       style="fill:none;stroke:#1a1631;stroke-width:0.23999999"
       transform="translate(-143.17453,-133.39673)" />
    <polygon
       id="polygon201_2_"
       class="st41"
       points="138.5,550.3 131,554.2 96.9,538.4 106.2,533.9 "
       style="fill:none;stroke:#1a1631;stroke-width:0.23999999"
       transform="translate(-143.17453,-133.39673)" />
    <polygon
       id="polygon205_2_"
       class="st41"
       points="138.5,544.1 138.5,550.7 103.4,535.3 103.4,527.8 "
       style="fill:none;stroke:#1a1631;stroke-width:0.23999999"
       transform="translate(-143.17453,-133.39673)" />
    <polygon
       id="polygon209_2_"
       class="st41"
       points="145,540.8 138.6,544 103.4,527.8 112.4,524.4 "
       style="fill:none;stroke:#1a1631;stroke-width:0.23999999"
       transform="translate(-143.17453,-133.39673)" />
    <polygon
       id="polygon213_2_"
       class="st41"
       points="145,533.8 145,540.8 112.4,524.4 112.7,517.9 "
       style="fill:none;stroke:#1a1631;stroke-width:0.23999999"
       transform="translate(-143.17453,-133.39673)" />
    <polygon
       id="polygon217_2_"
       class="st41"
       points="121.7,564.2 120.6,571.4 87.8,556 87.8,548.6 "
       style="fill:none;stroke:#1a1631;stroke-width:0.23999999"
       transform="translate(-143.17453,-133.39673)" />
    <polygon
       id="polygon243_2_"
       class="st47"
       points="230.2,526.3 346.4,467.6 248.2,426.2 128.6,469.8 "
       style="fill:#bc4824"
       transform="translate(-143.17453,-133.39673)" />
    <polygon
       id="polygon221_2_"
       class="st41"
       points="128.6,560.2 121.7,564.2 87.8,548.6 96.9,545.3 "
       style="fill:none;stroke:#1a1631;stroke-width:0.23999999"
       transform="translate(-143.17453,-133.39673)" />
    <polygon
       id="polygon225_2_"
       class="st41"
       points="128.6,552.3 128.6,560.2 96.9,545.3 96.9,538.4 "
       style="fill:none;stroke:#1a1631;stroke-width:0.23999999"
       transform="translate(-143.17453,-133.39673)" />
    <polygon
       id="polygon229_2_"
       class="st41"
       points="153.2,530.1 145.1,533.9 112.7,518.1 121.7,514.4 "
       style="fill:none;stroke:#1a1631;stroke-width:0.23999999"
       transform="translate(-143.17453,-133.39673)" />
    <polygon
       id="polygon233_2_"
       class="st41"
       points="153.3,522.7 153.3,530.4 120.6,515.3 120.6,507.9 "
       style="fill:none;stroke:#1a1631;stroke-width:0.23999999"
       transform="translate(-143.17453,-133.39673)" />
    <polygon
       id="polygon237_2_"
       class="st41"
       points="160.8,519.2 153.3,522.9 120.6,507.9 129.6,504.5 "
       style="fill:none;stroke:#1a1631;stroke-width:0.23999999"
       transform="translate(-143.17453,-133.39673)" />
    <polygon
       id="polygon239_2_"
       class="st38"
       points="119.9,576 152,564.2 171.1,553.7 171.7,533.5 152,546.2 119.9,556.5 "
       style="opacity:1;fill:#ffffff;stroke:#000000;stroke-width:0.25;stroke-miterlimit:10;enable-background:new"
       transform="translate(-143.17453,-133.39673)" />
    <path
       id="path253_2_"
       class="st39"
       d="m 14.825471,324.80327 c 0,0 46.2,25.2 47,25.2 0.8,0 46.299999,-23.3 46.299999,-23.3 l -17.099999,8.2 23.499999,13 29.9,14.6 58.9,-28.3 c 0,0 -104.399999,-47.1 -105.199999,-47.1 -0.8,-0.1 -80.6,33.7 -80.6,33.7"
       style="fill:#eda78c" />
    <polygon
       id="polygon255_2_"
       class="st40"
       points="128.6,454.2 128.6,470 247.7,426.6 247.7,410 "
       style="opacity:1;fill:#ffffff;enable-background:new"
       transform="translate(-143.17453,-133.39673)" />
    <polygon
       id="polygon257_2_"
       class="st41"
       points="128.6,454.2 128.6,470 247.7,426.6 247.7,410 "
       style="fill:none;stroke:#1a1631;stroke-width:0.23999999"
       transform="translate(-143.17453,-133.39673)" />
    <polygon
       id="polygon259_2_"
       class="st40"
       points="247.7,426.6 328.2,459.3 347.6,449.6 247.7,409.8 "
       style="opacity:1;fill:#ffffff;enable-background:new"
       transform="translate(-143.17453,-133.39673)" />
    <polygon
       id="polygon261_2_"
       class="st41"
       points="247.7,426.6 328.2,459.3 347.6,449.6 247.7,409.8 "
       style="fill:none;stroke:#1a1631;stroke-width:0.23999999"
       transform="translate(-143.17453,-133.39673)" />
    <polygon
       id="polygon263_2_"
       class="st38"
       points="209.6,440.6 251.2,460 251.2,441.8 209.6,424.5 "
       style="opacity:1;fill:#ffffff;stroke:#000000;stroke-width:0.25;stroke-miterlimit:10;enable-background:new"
       transform="translate(-143.17453,-133.39673)" />
    <line
       id="polygon265_1_"
       class="st41"
       x1="66.425476"
       y1="291.10327"
       x2="66.425476"
       y2="307.20328"
       style="fill:none;stroke:#1a1631;stroke-width:0.23999999" />
    <polygon
       id="polygon267_2_"
       class="st38"
       points="347.6,449.6 346.4,467.6 230.2,526.3 231.2,509 "
       style="opacity:1;fill:#ffffff;stroke:#000000;stroke-width:0.25;stroke-miterlimit:10;enable-background:new"
       transform="translate(-143.17453,-133.39673)" />
    <polygon
       id="polygon273_2_"
       class="st38"
       points="156.1,457.9 203.5,483.4 203.5,466.7 156.1,442.6 "
       style="opacity:1;fill:#ffffff;stroke:#000000;stroke-width:0.25;stroke-miterlimit:10;enable-background:new"
       transform="translate(-143.17453,-133.39673)" />
    <path
       class="st38"
       d="m 65.025471,410.50327 0,18.7 183.599999,88.9 0,-17.2 -183.599999,-90.4 z m 94.899999,64.4 -8,-4 0,-12.5 8,4.2 0,12.3 z"
       id="path442"
       style="opacity:1;fill:#ffffff;stroke:#000000;stroke-width:0.25;stroke-miterlimit:10;enable-background:new" />
    <polygon
       id="polygon291_2_"
       class="st43"
       points="295.1,591.7 303.1,595.9 303.1,608.3 295.1,604.2 "
       style="fill:none;stroke:#1a1631;stroke-width:0.47999999"
       transform="translate(-143.17453,-133.39673)" />
    <polygon
       class="st38"
       points="235,533.7 235,546 263.4,531.5 263.4,512.6 208.1,543.2 224.5,551.4 227,550.1 227,537.9 "
       id="polygon445"
       style="opacity:1;fill:#ffffff;stroke:#000000;stroke-width:0.25;stroke-miterlimit:10;enable-background:new"
       transform="translate(-143.17453,-133.39673)" />
    <polygon
       class="st38"
       points="224.4,460.7 224.4,473.2 251.2,460 251.2,443.5 203.7,465.4 203.5,483.4 216.4,477.1 216.4,464.9 "
       id="polygon447"
       style="opacity:1;fill:#ffffff;stroke:#000000;stroke-width:0.25;stroke-miterlimit:10;enable-background:new"
       transform="translate(-143.17453,-133.39673)" />
    <polygon
       class="st38"
       points="242.9,473 242.9,464.1 249.2,466.7 249.2,476.2 245.4,474.3 289.7,498.7 289.7,482 233.7,452.7 233.7,467.9 "
       id="polygon528"
       style="opacity:1;fill:#ffffff;stroke:#000000;stroke-width:0.25;stroke-miterlimit:10;enable-background:new"
       transform="translate(-143.17453,-133.39673)" />
    <polygon
       id="polygon55_2_"
       class="st42"
       points="926.6,539.5 827.4,489 827.4,501.9 915.8,547 "
       style="opacity:1;fill:#ffffff;enable-background:new"
       transform="translate(-143.17453,-133.39673)" />
  </g>
</svg>
