<?xml version="1.0" encoding="UTF-8" standalone="no"?>
<svg
   xmlns:dc="http://purl.org/dc/elements/1.1/"
   xmlns:cc="http://creativecommons.org/ns#"
   xmlns:rdf="http://www.w3.org/1999/02/22-rdf-syntax-ns#"
   xmlns:svg="http://www.w3.org/2000/svg"
   xmlns="http://www.w3.org/2000/svg"
   width="255.22"
   height="151.73"
   viewBox="0 0 255.22 151.73"
   id="svg6369"
   version="1.1">
  <defs
     id="defs6371" />
  <metadata
     id="metadata6374">
    <rdf:RDF>
      <cc:Work
         rdf:about="">
        <dc:format>image/svg+xml</dc:format>
        <dc:type
           rdf:resource="http://purl.org/dc/dcmitype/StillImage" />
        <dc:title></dc:title>
      </cc:Work>
    </rdf:RDF>
  </metadata>
  <g
     id="layer1"
     transform="translate(-243.00429,-379.35435)">
    <polygon
       class="st943"
       points="987.87,291.71 974.72,165.04 910.06,316.36 "
       id="polygon7068"
       style="fill:#b48e59"
       transform="translate(-539.44571,214.72435)" />
    <polygon
       class="st957"
       points="974.73,164.63 987.87,291.71 782.45,297.89 787.28,171.96 "
       id="polygon7070"
       style="fill:#d68a2a;fill-opacity:1"
       transform="translate(-539.44571,214.72435)" />
    <g
       transform="translate(-481.31428,449.77359)"
       id="g7335">
      <path
         id="path837_1_"
         class="st960"
         d="m 902,-8.32 c -2.99,-1.5 -5.23,-2.99 -7.48,-4.48 1.5,-2.24 4.48,-5.97 3.74,-8.96 0,-0.75 -0.75,-2.24 -1.5,-2.98 -0.75,-0.75 -1.5,-0.75 -2.24,-0.75 -1.49,0 -3.73,1.5 -5.23,2.24 0,-0.75 0,-0.75 0,-1.5 0.75,-3.74 2.24,-6.72 5.23,-6.72 l 0,0 c 2.99,0 6.72,2.24 7.48,6.72 2.23,5.22 1.49,10.45 0,16.43 l 0,0 z m -9.71,-6.72 c -0.75,-1.5 -1.5,-2.99 -2.24,-4.48 0.75,-2.24 2.24,-3.73 3.74,-3.73 0.74,0 0.74,0 0.74,0 0.75,0 0.75,0.74 0.75,1.49 0.74,2.23 -1.5,4.47 -2.99,6.72 l 0,0 z m -3.74,2.98 -2.24,1.5 0.75,-2.99 c 0,-0.75 0.75,-2.24 1.5,-3.73 0.75,0.75 1.5,2.24 2.24,2.98 -1.5,1.49 -2.25,2.24 -2.25,2.24 l 0,0 z m 29.13,24.64 c 0,-0.75 -5.23,-14.94 -11.95,-18.67 -0.75,0 -0.75,-0.75 -1.5,-0.75 2.24,-6.72 2.99,-12.7 1.5,-17.93 -1.5,-5.23 -5.97,-8.96 -10.46,-8.22 -3.73,0 -6.72,3.73 -7.47,8.22 0,1.5 0,2.98 0,4.48 -0.75,1.5 -1.5,2.24 -1.5,2.99 l -35.1,55.27 c 0,0.75 -0.75,0.75 0,1.5 l 0,0.75 0.74,0 c 0.75,0 0.75,-0.75 1.5,-0.75 l 40.34,-50.04 c 2.24,2.24 5.97,3.74 8.22,5.23 -1.5,3.73 -2.99,8.22 -4.48,12.69 -5.23,12.7 -2.99,23.15 0.75,25.4 l 0.75,0 c 0,0 0.75,0 0.75,-0.75 0,-0.75 0,-1.5 0,-1.5 -2.99,-1.49 -5.23,-11.2 0,-22.41 2.24,-4.48 3.74,-8.96 4.48,-12.7 0,0 0.75,0 0.75,0.75 5.98,2.99 11.21,17.18 11.21,17.18 0,0.75 0.75,0.75 1.5,0.75 -0.78,-0.73 -0.03,-1.49 -0.03,-1.49 l 0,0 z"
         style="opacity:1;fill:#cc8b37;fill-opacity:1" />
    </g>
    <g
       id="g7343"
       transform="translate(-539.44571,214.72435)">
      <path
         class="st946"
         d="m 803.16,186.46 -2.45,0 0,-2.43 5.55,0 0,8.19 -3.1,0 0,-5.76 z"
         id="path7345"
         style="fill:#ffffff" />
      <path
         class="st946"
         d="m 811.89,186.46 -2.45,0 0,-2.43 5.55,0 0,8.19 -3.1,0 0,-5.76 z"
         id="path7347"
         style="fill:#ffffff" />
      <path
         class="st946"
         d="m 829.88,186 -5.04,12.55 -3.3,0 4.99,-12.08 -8.13,0 0,-6.67 3.1,0 0,4.24 8.37,0 0,1.96 z"
         id="path7349"
         style="fill:#ffffff" />
      <path
         class="st946"
         d="m 836.22,198.6 c -0.92,-0.15 -1.78,-0.36 -2.58,-0.64 l 0.57,-2.28 c 0.76,0.22 1.52,0.39 2.29,0.5 0.77,0.11 1.45,0.17 2.03,0.17 1.25,-0.02 2.2,-0.32 2.85,-0.9 0.65,-0.58 0.98,-1.43 0.98,-2.56 l 0,-6.43 -5.02,0 c -0.21,0.46 -0.38,0.97 -0.49,1.53 -0.12,0.57 -0.18,1.13 -0.18,1.7 l 0,0.9 c 0.34,0.11 0.86,0.16 1.56,0.16 l 0,2.31 c -0.33,0.03 -0.69,0.05 -1.07,0.05 -0.71,0 -1.34,-0.07 -1.91,-0.21 -0.57,-0.14 -1.09,-0.35 -1.58,-0.63 l -0.02,-1.61 c 0,-0.81 0.09,-1.58 0.27,-2.33 0.18,-0.75 0.44,-1.37 0.76,-1.87 l -1.65,0 0,-2.43 12.43,0 0,8.36 c 0,1.44 -0.29,2.64 -0.86,3.6 -0.57,0.96 -1.36,1.67 -2.36,2.14 -1,0.47 -2.15,0.7 -3.45,0.7 -0.79,0 -1.65,-0.08 -2.57,-0.23 z"
         id="path7351"
         style="fill:#ffffff" />
      <path
         class="st946"
         d="m 853.14,197.98 c -0.95,-0.56 -1.7,-1.35 -2.23,-2.37 -0.53,-1.02 -0.81,-2.19 -0.82,-3.53 l 0,-1.16 c -0.01,-0.54 0.07,-1.09 0.22,-1.66 0.15,-0.57 0.36,-1.09 0.63,-1.57 0.26,-0.48 0.55,-0.84 0.86,-1.1 0.06,-0.05 0.11,-0.09 0.17,-0.13 l -0.02,-0.05 c -0.25,0.04 -0.59,0.11 -1.01,0.21 -0.42,0.1 -0.81,0.21 -1.17,0.31 l -0.6,-2.28 c 0.97,-0.28 2.08,-0.51 3.33,-0.69 1.25,-0.18 2.42,-0.26 3.49,-0.26 1.42,0 2.64,0.26 3.66,0.79 1.02,0.53 1.79,1.3 2.33,2.33 0.53,1.02 0.8,2.25 0.8,3.69 l 0,1.57 c 0,1.33 -0.26,2.51 -0.79,3.53 -0.53,1.02 -1.27,1.81 -2.23,2.37 -0.96,0.56 -2.07,0.84 -3.32,0.84 -1.25,0.01 -2.34,-0.28 -3.3,-0.84 z m 4.99,-2.25 c 0.49,-0.35 0.88,-0.83 1.15,-1.46 0.27,-0.63 0.41,-1.35 0.41,-2.17 l 0,-1.54 c 0,-1.36 -0.29,-2.42 -0.88,-3.17 -0.59,-0.75 -1.4,-1.14 -2.45,-1.14 -0.98,0 -1.75,0.39 -2.31,1.18 -0.56,0.79 -0.85,1.89 -0.87,3.3 l 0,1.37 c 0,0.82 0.14,1.55 0.41,2.17 0.27,0.63 0.65,1.11 1.14,1.46 0.49,0.35 1.05,0.52 1.7,0.52 0.64,0 1.21,-0.17 1.7,-0.52 z"
         id="path7353"
         style="fill:#ffffff" />
      <path
         class="st946"
         d="m 867.45,186.46 -1.46,0 0,-2.43 4.57,0 0,14.51 -3.1,0 0,-12.08 z"
         id="path7355"
         style="fill:#ffffff" />
      <path
         class="st946"
         d="m 880.47,196.16 c 1.12,-0.04 1.99,-0.39 2.63,-1.04 0.64,-0.66 0.96,-1.58 0.96,-2.77 l 0,-5.9 -8.68,0 0,-2.43 11.78,0 0,8.26 c 0,1.28 -0.27,2.38 -0.81,3.31 -0.54,0.93 -1.31,1.64 -2.32,2.14 -1,0.5 -2.19,0.77 -3.56,0.81 l 0,-2.38 z m -4.9,-2.86 c 0,-0.8 0.07,-1.42 0.21,-1.86 0.14,-0.44 0.32,-0.85 0.54,-1.23 l 2.5,0 c -0.18,0.67 -0.27,1.6 -0.27,2.81 l 0,10.61 -2.99,0 0,-10.33 z"
         id="path7357"
         style="fill:#ffffff" />
      <path
         class="st946"
         d="m 898.83,184.03 12.01,0 0,14.51 -12.01,0 0,-14.51 z m 8.91,12.07 0,-9.64 -5.81,0 0,9.64 5.81,0 z"
         id="path7359"
         style="fill:#ffffff" />
      <path
         class="st946"
         d="m 915.68,184.03 5.92,0 c 3.82,0 5.74,1.84 5.76,5.52 l 0,9 -3.09,0 -0.01,-9.22 c 0,-0.98 -0.21,-1.71 -0.64,-2.17 -0.43,-0.46 -1.1,-0.7 -2.01,-0.7 l -2.84,0 0,12.08 -3.1,0 0.01,-14.51 z"
         id="path7361"
         style="fill:#ffffff" />
      <path
         class="st946"
         d="m 942.45,185.41 c 0.96,0.92 1.45,2.3 1.45,4.14 l 0,9 -3.09,0 -0.01,-9.22 c 0,-0.99 -0.21,-1.72 -0.63,-2.18 -0.42,-0.46 -1.09,-0.69 -2,-0.69 l -1.97,0 c -0.19,0.45 -0.34,0.98 -0.45,1.59 -0.11,0.61 -0.17,1.21 -0.17,1.79 l 0,4.5 c 0,1.41 -0.35,2.49 -1.06,3.24 -0.71,0.75 -1.71,1.13 -3.02,1.13 -0.5,0 -1.04,-0.04 -1.65,-0.13 l 0,-2.43 c 0.29,0.02 0.56,0.04 0.82,0.04 0.64,0 1.12,-0.17 1.43,-0.5 0.31,-0.33 0.46,-0.85 0.46,-1.56 l 0,-4.02 c 0,-0.63 0.09,-1.29 0.26,-1.97 0.17,-0.68 0.41,-1.24 0.71,-1.68 l -2.48,0 0,-2.43 7.09,0 c 1.9,0 3.34,0.46 4.31,1.38 z"
         id="path7363"
         style="fill:#ffffff" />
      <path
         class="st946"
         d="m 949.25,189.88 c 0.08,-0.66 0.26,-1.28 0.53,-1.87 0.27,-0.59 0.59,-1.05 0.96,-1.39 0.06,-0.06 0.13,-0.11 0.21,-0.16 l -0.02,-0.05 c -0.33,0.06 -0.75,0.15 -1.25,0.29 -0.5,0.13 -0.93,0.27 -1.31,0.41 l -0.68,-2.27 c 0.94,-0.34 2.03,-0.62 3.25,-0.82 1.22,-0.21 2.36,-0.31 3.42,-0.31 2.09,0 3.68,0.54 4.78,1.63 1.09,1.09 1.65,2.68 1.65,4.79 l 0,8.42 -6.18,0 0,-2.43 3.08,0 0,-6.38 c 0,-1.12 -0.24,-1.98 -0.72,-2.58 -0.48,-0.6 -1.17,-0.9 -2.06,-0.9 -0.73,0 -1.33,0.29 -1.78,0.85 -0.46,0.57 -0.74,1.37 -0.86,2.4 l -0.96,9.03 -3.06,0 1,-8.66 z"
         id="path7365"
         style="fill:#ffffff" />
      <path
         class="st946"
         d="m 800.06,200.38 0,-1.22 162.47,0 0,1.22 -162.47,0 z"
         id="path7367"
         style="fill:#ffffff" />
      <path
         class="st946"
         d="m 824.17,211.99 -2.11,0 0,-1.46 3.93,0 0,6.42 -1.82,0 0,-4.96 z"
         id="path7369"
         style="fill:#ffffff" />
      <path
         class="st946"
         d="m 830.71,211.99 -2.11,0 0,-1.46 3.93,0 0,6.42 -1.82,0 0,-4.96 z"
         id="path7371"
         style="fill:#ffffff" />
      <path
         class="st946"
         d="m 844.15,211.68 -4.22,10.36 -1.94,0 4.17,-10.05 -6.75,0 0,-4.95 1.81,0 0,3.5 6.93,0 0,1.14 z"
         id="path7373"
         style="fill:#ffffff" />
      <path
         class="st946"
         d="m 849.25,222.07 c -0.67,-0.11 -1.32,-0.27 -1.93,-0.49 l 0.35,-1.36 c 0.57,0.18 1.15,0.31 1.74,0.4 0.59,0.09 1.12,0.13 1.59,0.13 1.07,-0.01 1.89,-0.28 2.47,-0.81 0.58,-0.53 0.87,-1.28 0.87,-2.27 l 0,-5.68 -4.61,0 c -0.21,0.36 -0.38,0.81 -0.5,1.36 -0.12,0.55 -0.19,1.1 -0.19,1.65 l 0,0.88 c 0.14,0.06 0.33,0.11 0.58,0.14 0.25,0.03 0.56,0.04 0.95,0.04 l 0,1.56 c -0.81,0 -1.44,-0.05 -1.9,-0.14 -0.46,-0.09 -0.92,-0.27 -1.39,-0.51 l -0.04,-1.48 c 0,-0.66 0.08,-1.3 0.25,-1.93 0.17,-0.63 0.39,-1.15 0.68,-1.56 l -1.4,0 0,-1.46 9.38,0 0,6.8 c 0,1.08 -0.21,1.99 -0.63,2.72 -0.42,0.73 -1.01,1.28 -1.76,1.64 -0.75,0.36 -1.63,0.54 -2.62,0.54 -0.6,-0.01 -1.22,-0.06 -1.89,-0.17 z"
         id="path7375"
         style="fill:#ffffff" />
      <path
         class="st946"
         d="m 862.41,221.59 c -0.73,-0.44 -1.3,-1.06 -1.71,-1.86 -0.41,-0.8 -0.62,-1.72 -0.63,-2.77 l 0,-1.17 c 0,-0.5 0.07,-1 0.21,-1.49 0.14,-0.49 0.33,-0.94 0.58,-1.33 0.25,-0.39 0.53,-0.69 0.84,-0.9 0.05,-0.04 0.1,-0.06 0.14,-0.08 l -0.01,-0.03 c -0.34,0.04 -1.03,0.2 -2.06,0.48 l -0.35,-1.37 c 0.76,-0.23 1.62,-0.41 2.58,-0.55 0.96,-0.14 1.84,-0.21 2.65,-0.21 1.07,0 1.99,0.21 2.76,0.63 0.77,0.42 1.36,1.03 1.78,1.82 0.42,0.79 0.62,1.73 0.62,2.83 l 0,1.38 c 0,1.05 -0.2,1.97 -0.61,2.77 -0.41,0.8 -0.97,1.42 -1.71,1.86 -0.74,0.44 -1.58,0.66 -2.55,0.66 -0.96,-0.01 -1.8,-0.23 -2.53,-0.67 z m 4.13,-1.33 c 0.47,-0.31 0.83,-0.75 1.08,-1.31 0.25,-0.56 0.38,-1.22 0.38,-1.96 l 0,-1.37 c 0,-0.77 -0.13,-1.44 -0.39,-2.01 -0.26,-0.57 -0.63,-1.01 -1.1,-1.31 -0.47,-0.3 -1.04,-0.45 -1.68,-0.45 -0.58,0 -1.09,0.15 -1.53,0.46 -0.44,0.31 -0.78,0.76 -1.03,1.34 -0.25,0.58 -0.37,1.27 -0.39,2.06 l 0,1.28 c 0,0.74 0.13,1.4 0.38,1.96 0.25,0.56 0.61,1 1.07,1.31 0.46,0.31 0.99,0.46 1.6,0.46 0.61,0 1.14,-0.15 1.61,-0.46 z"
         id="path7377"
         style="fill:#ffffff" />
      <path
         class="st946"
         d="m 873.97,211.99 -1.34,0 0,-1.46 3.15,0 0,11.5 -1.82,0 0,-10.04 z"
         id="path7379"
         style="fill:#ffffff" />
      <path
         class="st946"
         d="m 883.69,220.61 c 0.64,-0.02 1.21,-0.16 1.69,-0.43 0.48,-0.27 0.86,-0.64 1.12,-1.13 0.26,-0.49 0.4,-1.06 0.4,-1.72 l 0,-5.34 -7.1,0 0,-1.46 8.92,0 0,6.76 c 0,0.96 -0.21,1.79 -0.62,2.5 -0.41,0.71 -1,1.25 -1.76,1.64 -0.76,0.39 -1.64,0.59 -2.65,0.61 l 0,-1.43 z m -3.66,-2.89 c 0,-0.59 0.04,-1.05 0.13,-1.39 0.09,-0.34 0.21,-0.68 0.38,-1.03 l 1.48,0 c -0.08,0.29 -0.14,0.62 -0.18,0.98 -0.04,0.36 -0.05,0.8 -0.05,1.33 l 0,8.49 -1.76,0 0,-8.38 z"
         id="path7381"
         style="fill:#ffffff" />
      <path
         class="st946"
         d="m 898.64,211.99 -1.36,0 0,-1.46 3.14,0 0,15.57 -1.79,0 0,-14.11 z"
         id="path7383"
         style="fill:#ffffff" />
      <path
         class="st946"
         d="m 905.01,211.99 -1.34,0 0,-1.46 3.15,0 0,11.5 -1.82,0 0,-10.04 z"
         id="path7385"
         style="fill:#ffffff" />
      <path
         class="st946"
         d="m 914.73,220.61 c 0.64,-0.02 1.21,-0.16 1.69,-0.43 0.48,-0.27 0.86,-0.64 1.12,-1.13 0.26,-0.49 0.4,-1.06 0.4,-1.72 l 0,-5.34 -7.1,0 0,-1.46 8.92,0 0,6.76 c 0,0.96 -0.21,1.79 -0.62,2.5 -0.41,0.71 -1,1.25 -1.76,1.64 -0.76,0.39 -1.64,0.59 -2.65,0.61 l 0,-1.43 z m -3.66,-2.89 c 0,-0.59 0.04,-1.05 0.13,-1.39 0.09,-0.34 0.21,-0.68 0.38,-1.03 l 1.48,0 c -0.08,0.29 -0.14,0.62 -0.18,0.98 -0.04,0.36 -0.05,0.8 -0.05,1.33 l 0,8.49 -1.76,0 0,-8.38 z"
         id="path7387"
         style="fill:#ffffff" />
      <path
         class="st946"
         d="m 924.67,211.99 -2.11,0 0,-1.46 3.93,0 0,6.42 -1.82,0 0,-4.96 z"
         id="path7389"
         style="fill:#ffffff" />
      <path
         class="st946"
         d="m 938.44,211.62 c 0.75,0.73 1.13,1.83 1.13,3.32 l 0,7.1 -1.81,0 -0.01,-7.21 c 0,-1 -0.21,-1.72 -0.64,-2.17 -0.43,-0.45 -1.12,-0.67 -2.07,-0.67 l -1.63,0 c -0.21,0.35 -0.39,0.8 -0.51,1.35 -0.12,0.55 -0.19,1.11 -0.19,1.69 l 0,3.88 c 0,1.05 -0.25,1.86 -0.75,2.4 -0.5,0.54 -1.23,0.82 -2.19,0.82 -0.28,0 -0.65,-0.03 -1.12,-0.09 l 0,-1.46 c 0.21,0.03 0.43,0.04 0.67,0.04 0.57,0 0.98,-0.15 1.24,-0.44 0.26,-0.29 0.39,-0.76 0.39,-1.39 l 0,-3.63 c 0,-0.59 0.08,-1.18 0.23,-1.77 0.15,-0.59 0.37,-1.06 0.64,-1.41 l -2.16,0 0,-1.46 5.36,0 c 1.53,0.01 2.67,0.38 3.42,1.1 z"
         id="path7391"
         style="fill:#ffffff" />
      <path
         class="st946"
         d="m 816.4,243.47 c -0.42,0.71 -1.02,1.26 -1.79,1.66 -0.77,0.4 -1.71,0.6 -2.82,0.6 -1.1,0 -2.07,-0.27 -2.91,-0.82 -0.84,-0.55 -1.49,-1.31 -1.95,-2.31 -0.46,-1 -0.69,-2.15 -0.69,-3.46 l 0,-1.44 c 0,-1.31 0.23,-2.47 0.7,-3.47 0.47,-1 1.13,-1.77 2,-2.31 0.87,-0.54 1.88,-0.82 3.04,-0.82 1.05,0 1.95,0.2 2.7,0.59 0.75,0.39 1.33,0.95 1.75,1.66 0.42,0.71 0.68,1.55 0.78,2.5 l -1.89,0 c -0.15,-1.06 -0.48,-1.86 -1,-2.41 -0.52,-0.55 -1.29,-0.82 -2.33,-0.82 -0.83,0 -1.53,0.21 -2.1,0.63 -0.57,0.42 -1,1 -1.29,1.76 -0.29,0.76 -0.43,1.64 -0.43,2.66 l 0,1.46 c 0,0.96 0.13,1.83 0.4,2.59 0.27,0.76 0.67,1.36 1.22,1.81 0.55,0.45 1.22,0.66 2.03,0.66 0.77,0 1.4,-0.12 1.88,-0.37 0.48,-0.25 0.84,-0.6 1.08,-1.06 0.24,-0.46 0.42,-1.05 0.54,-1.76 l 1.89,0 c -0.12,0.94 -0.38,1.76 -0.81,2.47 z"
         id="path7393"
         style="fill:#ffffff" />
      <path
         class="st946"
         d="m 820.08,237.39 c 0.39,-0.81 0.95,-1.45 1.67,-1.92 0.72,-0.47 1.57,-0.7 2.53,-0.7 0.98,0 1.83,0.23 2.56,0.7 0.73,0.47 1.29,1.1 1.68,1.92 0.39,0.82 0.59,1.73 0.59,2.75 l 0,0.22 c 0,1.02 -0.2,1.94 -0.59,2.75 -0.39,0.81 -0.95,1.45 -1.67,1.91 -0.72,0.46 -1.57,0.7 -2.54,0.7 -0.97,0 -1.82,-0.23 -2.54,-0.7 -0.72,-0.47 -1.29,-1.1 -1.68,-1.91 -0.39,-0.81 -0.59,-1.73 -0.59,-2.75 l 0,-0.22 c -0.01,-1.02 0.19,-1.94 0.58,-2.75 z m 1.58,4.94 c 0.22,0.59 0.56,1.06 1.01,1.41 0.45,0.35 1,0.52 1.64,0.52 0.64,0 1.18,-0.17 1.63,-0.52 0.45,-0.35 0.79,-0.82 1.01,-1.41 0.22,-0.59 0.34,-1.25 0.34,-1.96 l 0,-0.22 c 0,-0.72 -0.11,-1.37 -0.34,-1.96 -0.23,-0.59 -0.57,-1.06 -1.02,-1.42 -0.45,-0.36 -1,-0.53 -1.64,-0.53 -0.64,0 -1.18,0.18 -1.63,0.53 -0.45,0.35 -0.78,0.82 -1.01,1.42 -0.23,0.6 -0.34,1.25 -0.34,1.96 l 0,0.22 c 0.01,0.71 0.12,1.37 0.35,1.96 z"
         id="path7395"
         style="fill:#ffffff" />
      <path
         class="st946"
         d="m 832.76,239.8 c -0.64,-0.47 -0.96,-1.12 -0.96,-1.94 0,-0.56 0.16,-1.07 0.49,-1.54 0.33,-0.47 0.79,-0.84 1.38,-1.12 0.59,-0.28 1.28,-0.42 2.05,-0.42 0.82,0 1.54,0.15 2.15,0.44 0.61,0.29 1.08,0.69 1.4,1.19 0.32,0.5 0.48,1.05 0.48,1.67 l -1.83,0 c 0,-0.3 -0.09,-0.59 -0.26,-0.87 -0.17,-0.28 -0.43,-0.51 -0.77,-0.69 -0.34,-0.18 -0.73,-0.27 -1.18,-0.27 -0.48,0 -0.87,0.07 -1.18,0.22 -0.31,0.15 -0.54,0.34 -0.69,0.58 -0.15,0.24 -0.22,0.49 -0.22,0.77 0,0.28 0.07,0.51 0.2,0.7 0.13,0.19 0.37,0.35 0.72,0.5 0.35,0.15 0.85,0.3 1.51,0.44 0.89,0.2 1.6,0.44 2.16,0.71 0.56,0.27 0.96,0.61 1.24,1.01 0.28,0.4 0.41,0.88 0.41,1.45 0,0.61 -0.17,1.15 -0.51,1.63 -0.34,0.48 -0.82,0.84 -1.44,1.1 -0.62,0.26 -1.33,0.4 -2.15,0.4 -0.9,0 -1.67,-0.16 -2.33,-0.48 -0.66,-0.32 -1.15,-0.75 -1.49,-1.27 -0.34,-0.52 -0.51,-1.09 -0.51,-1.69 l 1.83,0 c 0.03,0.47 0.16,0.85 0.41,1.15 0.25,0.3 0.55,0.51 0.92,0.64 0.37,0.13 0.76,0.2 1.17,0.2 0.48,0 0.88,-0.07 1.23,-0.2 0.35,-0.13 0.6,-0.32 0.78,-0.55 0.18,-0.23 0.26,-0.49 0.26,-0.79 0,-0.3 -0.06,-0.55 -0.19,-0.76 -0.13,-0.21 -0.36,-0.41 -0.71,-0.6 -0.35,-0.19 -0.86,-0.34 -1.52,-0.48 -1.26,-0.3 -2.21,-0.66 -2.85,-1.13 z"
         id="path7397"
         style="fill:#ffffff" />
      <path
         class="st946"
         d="m 849.75,235.44 c 0.62,0.45 1.09,1.07 1.41,1.88 0.32,0.81 0.48,1.76 0.48,2.84 l 0,0.21 c 0,1.04 -0.16,1.96 -0.48,2.77 -0.32,0.81 -0.79,1.45 -1.41,1.9 -0.62,0.45 -1.35,0.69 -2.2,0.69 -1.28,0 -2.28,-0.4 -3.02,-1.21 l 0,5.08 -1.83,0 0,-14.63 1.66,0 0.1,1.15 c 0.74,-0.9 1.75,-1.35 3.06,-1.35 0.87,0 1.61,0.22 2.23,0.67 z m 0.06,4.72 c 0,-0.73 -0.1,-1.39 -0.31,-1.97 -0.21,-0.58 -0.52,-1.05 -0.95,-1.39 -0.43,-0.34 -0.96,-0.52 -1.59,-0.52 -0.57,0 -1.06,0.13 -1.46,0.39 -0.4,0.26 -0.73,0.62 -0.98,1.06 l 0,5.09 c 0.54,0.96 1.36,1.44 2.46,1.44 0.63,0 1.15,-0.17 1.57,-0.52 0.42,-0.35 0.74,-0.82 0.94,-1.4 0.2,-0.58 0.31,-1.24 0.31,-1.97 l 0,-0.21 z"
         id="path7399"
         style="fill:#ffffff" />
      <path
         class="st946"
         d="m 854.59,245.53 0,-15 1.83,0 0,15 -1.83,0 z"
         id="path7401"
         style="fill:#ffffff" />
      <path
         class="st946"
         d="m 867.95,244.37 c 0.07,0.39 0.16,0.73 0.27,1 l 0,0.16 -1.9,0 c -0.11,-0.25 -0.2,-0.62 -0.25,-1.1 -0.36,0.39 -0.8,0.7 -1.31,0.94 -0.51,0.24 -1.07,0.36 -1.68,0.36 -0.7,0 -1.33,-0.14 -1.87,-0.42 -0.54,-0.28 -0.96,-0.65 -1.26,-1.13 -0.3,-0.48 -0.44,-1 -0.44,-1.58 0,-0.75 0.19,-1.38 0.58,-1.9 0.39,-0.52 0.94,-0.91 1.65,-1.18 0.71,-0.27 1.55,-0.4 2.52,-0.4 l 1.78,0 0,-0.84 c 0,-0.64 -0.19,-1.15 -0.57,-1.52 -0.38,-0.37 -0.93,-0.55 -1.65,-0.55 -0.44,0 -0.83,0.08 -1.17,0.23 -0.34,0.15 -0.61,0.36 -0.81,0.62 -0.2,0.26 -0.29,0.54 -0.29,0.83 l -1.83,0 c 0,-0.51 0.18,-1.01 0.53,-1.49 0.35,-0.48 0.85,-0.87 1.48,-1.18 0.63,-0.31 1.37,-0.45 2.19,-0.45 0.78,0 1.47,0.13 2.06,0.4 0.59,0.27 1.05,0.66 1.38,1.19 0.33,0.53 0.5,1.18 0.5,1.95 l 0,4.92 c -0.01,0.37 0.02,0.75 0.09,1.14 z m -3.45,-0.43 c 0.36,-0.15 0.67,-0.34 0.93,-0.58 0.26,-0.24 0.46,-0.5 0.6,-0.78 l 0,-2.19 -1.48,0 c -1.04,0 -1.84,0.16 -2.39,0.49 -0.55,0.33 -0.83,0.82 -0.83,1.46 0,0.35 0.08,0.65 0.23,0.93 0.15,0.28 0.38,0.49 0.68,0.65 0.3,0.16 0.66,0.24 1.09,0.24 0.42,0 0.8,-0.07 1.17,-0.22 z"
         id="path7403"
         style="fill:#ffffff" />
      <path
         class="st946"
         d="m 879.03,234.97 -4.24,12.2 c -0.26,0.71 -0.64,1.33 -1.13,1.85 -0.49,0.52 -1.16,0.79 -2.01,0.79 -0.14,0 -0.31,-0.02 -0.53,-0.05 -0.22,-0.03 -0.38,-0.07 -0.49,-0.1 l 0,-1.46 c 0.07,0.01 0.15,0.02 0.24,0.03 0.09,0.01 0.17,0.01 0.24,0.01 0.62,0 1.1,-0.13 1.44,-0.39 0.34,-0.26 0.62,-0.71 0.83,-1.35 l 0.4,-1.08 -3.77,-10.45 1.99,0 2.62,7.91 2.45,-7.91 1.96,0 z"
         id="path7405"
         style="fill:#ffffff" />
      <path
         class="st946"
         d="m 897.21,245.41 0,0.12 -2.03,0 -3.09,-5.76 -3.31,0 0,5.76 -1.89,0 0,-14.22 4.71,0 c 1.61,0 2.84,0.37 3.7,1.1 0.86,0.73 1.29,1.79 1.29,3.17 0,0.88 -0.24,1.65 -0.72,2.31 -0.48,0.66 -1.14,1.16 -2,1.49 l 3.34,6.03 z m -5.57,-7.16 c 0.65,0 1.2,-0.12 1.66,-0.35 0.46,-0.23 0.8,-0.55 1.03,-0.96 0.23,-0.41 0.35,-0.86 0.35,-1.36 0,-0.86 -0.25,-1.53 -0.76,-2.01 -0.51,-0.48 -1.28,-0.72 -2.32,-0.72 l -2.81,0 0,5.4 2.85,0 z"
         id="path7407"
         style="fill:#ffffff" />
      <path
         class="st946"
         d="m 907.71,234.97 0,10.57 -1.74,0 -0.03,-1.04 c -0.7,0.83 -1.74,1.24 -3.1,1.24 -1.09,0 -1.94,-0.32 -2.55,-0.96 -0.61,-0.64 -0.92,-1.63 -0.92,-2.99 l 0,-6.82 1.83,0 0,6.84 c 0,0.88 0.18,1.5 0.54,1.86 0.36,0.36 0.83,0.54 1.39,0.54 1.37,0 2.28,-0.51 2.74,-1.53 l 0,-7.71 1.84,0 z"
         id="path7409"
         style="fill:#ffffff" />
      <path
         class="st946"
         d="m 919.27,238.61 0,6.92 -1.83,0 0,-6.94 c 0,-0.81 -0.17,-1.39 -0.52,-1.76 -0.35,-0.37 -0.87,-0.55 -1.58,-0.55 -0.56,0 -1.06,0.15 -1.51,0.46 -0.45,0.31 -0.8,0.72 -1.06,1.23 l 0,7.56 -1.83,0 0,-10.57 1.73,0 0.06,1.3 c 0.38,-0.48 0.84,-0.84 1.38,-1.1 0.54,-0.26 1.12,-0.39 1.77,-0.39 2.26,0 3.39,1.28 3.39,3.84 z"
         id="path7411"
         style="fill:#ffffff" />
      <path
         class="st946"
         d="m 935.68,234.97 -3.07,10.57 -1.21,0 -0.26,0 -2.56,-7.98 -2.5,7.98 -1.16,0 -0.31,0 -3.07,-10.57 1.82,0 2.07,7.84 2.45,-7.84 1.2,0 0.27,0 2.49,8.02 2.03,-8.02 1.81,0 z"
         id="path7413"
         style="fill:#ffffff" />
      <path
         class="st946"
         d="m 946.17,244.37 c 0.07,0.39 0.16,0.73 0.27,1 l 0,0.16 -1.9,0 c -0.11,-0.25 -0.2,-0.62 -0.25,-1.1 -0.36,0.39 -0.8,0.7 -1.31,0.94 -0.51,0.24 -1.07,0.36 -1.68,0.36 -0.7,0 -1.33,-0.14 -1.87,-0.42 -0.54,-0.28 -0.96,-0.65 -1.26,-1.13 -0.3,-0.48 -0.44,-1 -0.44,-1.58 0,-0.75 0.19,-1.38 0.58,-1.9 0.39,-0.52 0.94,-0.91 1.65,-1.18 0.71,-0.27 1.55,-0.4 2.52,-0.4 l 1.78,0 0,-0.84 c 0,-0.64 -0.19,-1.15 -0.57,-1.52 -0.38,-0.37 -0.93,-0.55 -1.65,-0.55 -0.44,0 -0.83,0.08 -1.17,0.23 -0.34,0.15 -0.61,0.36 -0.81,0.62 -0.2,0.26 -0.29,0.54 -0.29,0.83 l -1.83,0 c 0,-0.51 0.18,-1.01 0.53,-1.49 0.35,-0.48 0.85,-0.87 1.48,-1.18 0.63,-0.31 1.37,-0.45 2.19,-0.45 0.78,0 1.47,0.13 2.06,0.4 0.59,0.27 1.05,0.66 1.38,1.19 0.33,0.53 0.5,1.18 0.5,1.95 l 0,4.92 c 0,0.37 0.03,0.75 0.09,1.14 z m -3.45,-0.43 c 0.36,-0.15 0.67,-0.34 0.93,-0.58 0.26,-0.24 0.46,-0.5 0.6,-0.78 l 0,-2.19 -1.48,0 c -1.04,0 -1.84,0.16 -2.39,0.49 -0.55,0.33 -0.83,0.82 -0.83,1.46 0,0.35 0.08,0.65 0.23,0.93 0.15,0.28 0.38,0.49 0.68,0.65 0.3,0.16 0.66,0.24 1.09,0.24 0.42,0 0.81,-0.07 1.17,-0.22 z"
         id="path7415"
         style="fill:#ffffff" />
      <path
         class="st946"
         d="m 957.26,234.97 -4.24,12.2 c -0.26,0.71 -0.64,1.33 -1.13,1.85 -0.49,0.52 -1.16,0.79 -2.01,0.79 -0.14,0 -0.31,-0.02 -0.53,-0.05 -0.22,-0.03 -0.38,-0.07 -0.49,-0.1 l 0,-1.46 c 0.07,0.01 0.15,0.02 0.24,0.03 0.09,0.01 0.17,0.01 0.24,0.01 0.62,0 1.1,-0.13 1.44,-0.39 0.34,-0.26 0.62,-0.71 0.83,-1.35 l 0.4,-1.08 -3.77,-10.45 1.99,0 2.62,7.91 2.45,-7.91 1.96,0 z"
         id="path7417"
         style="fill:#ffffff" />
      <path
         class="st946"
         d="m 836.24,257.52 9.18,0 0,11.5 -9.18,0 0,-11.5 z m 7.38,10.04 0,-8.58 -5.57,0 0,8.58 5.57,0 z"
         id="path7419"
         style="fill:#ffffff" />
      <path
         class="st946"
         d="m 850,258.98 -1.34,0 0,-1.46 3.15,0 0,11.5 -1.81,0 0,-10.04 z"
         id="path7421"
         style="fill:#ffffff" />
      <path
         class="st946"
         d="m 863.64,258.66 -4.22,10.36 -1.94,0 4.17,-10.05 -6.75,0 0,-4.95 1.81,0 0,3.5 6.93,0 0,1.14 z"
         id="path7423"
         style="fill:#ffffff" />
      <path
         class="st946"
         d="m 867.51,258.98 -2.11,0 0,-1.46 3.93,0 0,6.42 -1.82,0 0,-4.96 z"
         id="path7425"
         style="fill:#ffffff" />
      <path
         class="st946"
         d="m 878.14,263.72 3.04,4.38 0,0.92 -8.52,0 0,-1.46 6.18,0 -6.88,-10.04 2.04,0 3.07,4.63 2.55,-4.63 2.04,0 -3.52,6.2 z"
         id="path7427"
         style="fill:#ffffff" />
      <path
         class="st946"
         d="m 898.16,258.61 c 0.75,0.73 1.13,1.83 1.13,3.32 l 0,7.1 -1.81,0 -0.01,-7.21 c 0,-1 -0.21,-1.72 -0.64,-2.17 -0.43,-0.45 -1.12,-0.67 -2.07,-0.67 l -1.63,0 c -0.21,0.35 -0.39,0.8 -0.51,1.35 -0.12,0.55 -0.19,1.11 -0.19,1.69 l 0,3.88 c 0,1.05 -0.25,1.86 -0.75,2.4 -0.5,0.54 -1.23,0.82 -2.19,0.82 -0.28,0 -0.65,-0.03 -1.12,-0.09 l 0,-1.46 c 0.21,0.03 0.43,0.04 0.67,0.04 0.57,0 0.98,-0.15 1.24,-0.44 0.26,-0.29 0.39,-0.76 0.39,-1.39 l 0,-3.63 c 0,-0.59 0.08,-1.18 0.23,-1.77 0.15,-0.59 0.37,-1.06 0.64,-1.41 l -2.16,0 0,-1.46 5.36,0 c 1.53,0.01 2.67,0.37 3.42,1.1 z"
         id="path7429"
         style="fill:#ffffff" />
      <path
         class="st946"
         d="m 901.86,269.01 0.05,-1.42 c 0.42,0.08 0.9,0.13 1.43,0.13 0.53,0 0.93,-0.15 1.2,-0.46 0.27,-0.31 0.4,-0.78 0.4,-1.42 l 0,-6.87 -2.26,0 0,-1.46 4.07,0 0,8.47 c 0,1.05 -0.26,1.86 -0.78,2.41 -0.52,0.55 -1.27,0.83 -2.25,0.83 -0.59,0 -1.21,-0.07 -1.86,-0.21 z"
         id="path7431"
         style="fill:#ffffff" />
      <path
         class="st946"
         d="m 911.67,258.98 -2.11,0 0,-1.46 3.93,0 0,6.42 -1.82,0 0,-4.96 z"
         id="path7433"
         style="fill:#ffffff" />
      <path
         class="st946"
         d="m 919.43,269.05 c -0.67,-0.11 -1.32,-0.27 -1.93,-0.49 l 0.35,-1.36 c 0.57,0.18 1.15,0.31 1.74,0.4 0.59,0.09 1.12,0.13 1.59,0.13 1.07,-0.01 1.89,-0.28 2.47,-0.81 0.58,-0.53 0.87,-1.28 0.87,-2.27 l 0,-5.68 -4.61,0 c -0.21,0.36 -0.38,0.81 -0.5,1.36 -0.12,0.55 -0.19,1.1 -0.19,1.65 l 0,0.88 c 0.14,0.06 0.33,0.11 0.58,0.14 0.25,0.03 0.56,0.04 0.95,0.04 l 0,1.56 c -0.81,0 -1.44,-0.05 -1.9,-0.14 -0.46,-0.09 -0.92,-0.27 -1.39,-0.51 l -0.04,-1.48 c 0,-0.66 0.08,-1.3 0.25,-1.93 0.17,-0.63 0.39,-1.15 0.68,-1.56 l -1.4,0 0,-1.46 9.38,0 0,6.8 c 0,1.08 -0.21,1.99 -0.63,2.72 -0.42,0.73 -1.01,1.28 -1.76,1.64 -0.75,0.36 -1.63,0.54 -2.62,0.54 -0.59,0 -1.22,-0.05 -1.89,-0.17 z"
         id="path7435"
         style="fill:#ffffff" />
    </g>
  </g>
</svg>
