<?xml version="1.0" encoding="UTF-8" standalone="no"?>
<svg
   xmlns:dc="http://purl.org/dc/elements/1.1/"
   xmlns:cc="http://creativecommons.org/ns#"
   xmlns:rdf="http://www.w3.org/1999/02/22-rdf-syntax-ns#"
   xmlns:svg="http://www.w3.org/2000/svg"
   xmlns="http://www.w3.org/2000/svg"
   version="1.1"
   id="svg22898"
   viewBox="0 0 153.14 53.360001"
   height="53.360001"
   width="153.14">
  <defs
     id="defs22900" />
  <metadata
     id="metadata22903">
    <rdf:RDF>
      <cc:Work
         rdf:about="">
        <dc:format>image/svg+xml</dc:format>
        <dc:type
           rdf:resource="http://purl.org/dc/dcmitype/StillImage" />
        <dc:title></dc:title>
      </cc:Work>
    </rdf:RDF>
  </metadata>
  <g
     transform="translate(-310.395,-474.25363)"
     id="layer1">
    <polygon
       transform="translate(1592.005,247.03363)"
       style="fill:#568c78"
       id="polygon6974"
       points="-1250.04,268.02 -1205.04,280.58 -1255.54,232.34 "
       class="st947" />
    <polygon
       transform="translate(1592.005,247.03363)"
       style="fill:#804029"
       id="polygon6976"
       points="-1128.47,227.22 -1129.39,264.26 -1250.04,268.02 -1255.2,231.42 "
       class="st948" />
    <g
       transform="translate(1592.005,247.03363)"
       id="g6978">
      <path
         style="fill:#ffffff"
         id="path6980"
         d="m -1223.62,247.32 c 0.3,0.45 0.45,0.98 0.45,1.57 0,0.67 -0.16,1.25 -0.48,1.74 -0.32,0.49 -0.77,0.86 -1.33,1.12 -0.57,0.25 -1.21,0.38 -1.92,0.38 -0.65,0 -1.25,-0.12 -1.81,-0.36 -0.55,-0.24 -1,-0.6 -1.33,-1.07 -0.33,-0.47 -0.5,-1.04 -0.5,-1.7 l 1.89,0 c 0,0.31 0.07,0.59 0.22,0.84 0.15,0.25 0.35,0.43 0.62,0.57 0.27,0.13 0.58,0.2 0.93,0.2 0.57,0 1.02,-0.15 1.34,-0.45 0.32,-0.3 0.48,-0.73 0.48,-1.28 0,-0.61 -0.18,-1.06 -0.53,-1.35 -0.35,-0.29 -0.84,-0.44 -1.48,-0.44 l -1.1,0 0,-1.04 0,-0.45 1.1,0 c 0.6,0 1.06,-0.15 1.37,-0.45 0.31,-0.3 0.47,-0.71 0.47,-1.22 0,-0.51 -0.14,-0.91 -0.42,-1.2 -0.28,-0.28 -0.69,-0.42 -1.24,-0.42 -0.32,0 -0.6,0.06 -0.86,0.19 -0.25,0.12 -0.45,0.3 -0.6,0.53 -0.15,0.23 -0.22,0.49 -0.22,0.8 l -1.89,0 c 0,-0.58 0.15,-1.09 0.45,-1.55 0.3,-0.46 0.72,-0.82 1.26,-1.08 0.54,-0.26 1.14,-0.39 1.81,-0.39 0.72,0 1.34,0.12 1.88,0.36 0.54,0.24 0.95,0.59 1.25,1.06 0.3,0.47 0.44,1.04 0.44,1.72 0,0.46 -0.15,0.92 -0.44,1.36 -0.29,0.44 -0.71,0.78 -1.25,1.02 0.67,0.2 1.14,0.54 1.44,0.99 z"
         class="st946" />
      <path
         style="fill:#ffffff"
         id="path6982"
         d="m -1210.74,244.19 -3.13,7.79 -2.05,0 3.1,-7.5 -5.05,0 0,-4.14 1.92,0 0,2.63 5.2,0 0,1.22 z"
         class="st946" />
      <path
         style="fill:#ffffff"
         id="path6984"
         d="m -1208.63,244.48 -0.91,0 0,-1.51 2.83,0 0,9.01 -1.92,0 0,-7.5 z"
         class="st946" />
      <path
         style="fill:#ffffff"
         id="path6986"
         d="m -1204.86,251.75 0.3,-1.42 c 0.78,0.19 1.48,0.29 2.08,0.29 0.78,-0.01 1.36,-0.2 1.75,-0.56 0.39,-0.36 0.58,-0.89 0.58,-1.59 l 0,-3.99 -4.37,0 0,-1.51 6.29,0 0,5.14 c 0,1.35 -0.36,2.36 -1.07,3.02 -0.71,0.66 -1.7,0.99 -2.97,0.99 -0.77,0 -1.63,-0.12 -2.59,-0.37 z"
         class="st946" />
      <path
         style="fill:#ffffff"
         id="path6988"
         d="m -1193.77,250.08 c 0.46,0.2 0.95,0.35 1.46,0.46 0.52,0.11 1,0.17 1.46,0.17 0.72,0 1.36,-0.1 1.91,-0.31 0.55,-0.2 0.99,-0.52 1.3,-0.94 0.31,-0.42 0.47,-0.95 0.47,-1.59 l 0,-4.9 1.86,0 0,5.11 c 0,0.9 -0.24,1.66 -0.73,2.28 -0.49,0.62 -1.14,1.09 -1.96,1.4 -0.82,0.31 -1.75,0.47 -2.77,0.47 -0.79,0 -1.61,-0.09 -2.46,-0.28 -0.85,-0.19 -1.64,-0.47 -2.4,-0.83 l 0,-8.15 1.86,0 0,7.11 z m 2.22,-1.61 c 0.08,-0.35 0.11,-0.75 0.11,-1.19 l 0,-4.31 1.86,0 0,3.93 c 0,0.52 -0.06,0.98 -0.19,1.4 -0.12,0.42 -0.3,0.75 -0.53,1.01 l -1.58,-0.03 c 0.15,-0.19 0.25,-0.46 0.33,-0.81 z"
         class="st946" />
      <path
         style="fill:#ffffff"
         id="path6990"
         d="m -1177.24,248.12 2.74,3.86 -2.14,0 -3.67,-5.18 c -0.17,0.15 -0.3,0.33 -0.38,0.54 -0.08,0.21 -0.13,0.46 -0.13,0.75 l 0,3.89 -1.86,0 0,-3.11 c 0,-0.81 0.13,-1.46 0.39,-1.96 0.26,-0.5 0.67,-0.88 1.23,-1.15 l -1.97,-2.78 2.15,0 2.46,3.48 1.83,-3.48 2.16,0 -2.81,5.14 z"
         class="st946" />
    </g>
    <g
       style="opacity:1"
       class="st938"
       transform="matrix(0.42702949,0,0,0.42702949,1742.2543,581.21012)"
       id="g4679-4-9_1_">
      <path
         style="opacity:1;fill:#8c5334;fill-opacity:1"
         d="m -3039.17,-223.86 c 4.64,-0.23 8.78,-4.14 9.77,-8.55 -4.41,0.01 -8.81,4.41 -9.77,8.55 z m 3.91,25.67 c -1.71,-10.02 -4.89,-19.81 -7.82,-29.58 -0.75,-1.97 -3.91,-0.49 -5.62,-0.98 -5.39,6.37 -13.44,9.04 -20.54,12.95 -6.35,2.95 -12.22,8.31 -19.32,8.8 -0.23,4.64 1.71,8.81 2.46,13.21 4.64,-1.48 6.6,-0.98 8.78,3.42 4.4,5.62 14.92,2.44 15.41,-4.64 6.35,0.23 12.72,-0.26 18.83,-0.49 2.43,2.44 9.27,1.95 7.82,-2.69 z m -32.27,6.35 c -3.18,3.42 -7.33,0.73 -9.04,-2.93 l 1.45,0 c 2.95,0.49 12.72,-1.97 7.59,2.93 z m 0.73,-10.03 c -3.16,-0.49 -9.53,0.98 -10.51,-1.45 9.79,-4.89 19.32,-10.28 28.62,-15.64 2.67,4.87 3.91,11.24 4.87,17.09 l -22.98,0 z"
         class="st939"
         id="path6-3-7_1_" />
      <path
         style="opacity:1;fill:#8c5334;fill-opacity:1"
         d="m -3029.64,-217.02 c -1.71,0.75 -3.42,1.97 -3.42,3.91 4.14,0 8.06,-1.22 11.97,-2.44 0.98,-5.87 -5.62,-2.69 -8.55,-1.47 z m -0.49,12.72 c -1.22,0 -1.97,0.49 -2.93,0.98 2.18,2.93 7.8,5.36 11.24,3.16 2.44,-3.65 -5.88,-3.16 -8.31,-4.14 z"
         class="st939"
         id="path10-3-4_1_" />
    </g>
  </g>
</svg>
