<?xml version="1.0" encoding="UTF-8" standalone="no"?>
<svg
   xmlns:dc="http://purl.org/dc/elements/1.1/"
   xmlns:cc="http://creativecommons.org/ns#"
   xmlns:rdf="http://www.w3.org/1999/02/22-rdf-syntax-ns#"
   xmlns:svg="http://www.w3.org/2000/svg"
   xmlns="http://www.w3.org/2000/svg"
   xmlns:xlink="http://www.w3.org/1999/xlink"
   width="18.316223mm"
   height="13.198539mm"
   viewBox="0 0 64.900003 46.766476"
   id="svg7886"
   version="1.1">
  <defs
     id="defs7888">
    <clipPath
       id="SVGID_48_">
      <use
         id="use394"
         style="overflow:visible"
         xlink:href="#SVGID_47_"
         x="0"
         y="0"
         width="100%"
         height="100%" />
    </clipPath>
    <clipPath
       id="SVGID_50_">
      <use
         id="use403"
         style="overflow:visible"
         xlink:href="#SVGID_49_"
         x="0"
         y="0"
         width="100%"
         height="100%" />
    </clipPath>
  </defs>
  <metadata
     id="metadata7891">
    <rdf:RDF>
      <cc:Work
         rdf:about="">
        <dc:format>image/svg+xml</dc:format>
        <dc:type
           rdf:resource="http://purl.org/dc/dcmitype/StillImage" />
        <dc:title></dc:title>
      </cc:Work>
    </rdf:RDF>
  </metadata>
  <g
     id="layer1"
     transform="translate(-283.53214,-465.85397)">
    <rect
       height="13"
       width="48.299999"
       class="st10"
       y="465.85397"
       x="291.53214"
       id="rect315"
       style="fill:#411025" />
    <rect
       height="13"
       width="64.900002"
       class="st10"
       y="473.754"
       x="283.53214"
       id="rect317"
       style="fill:#411025" />
    <path
       d="m 300.63214,469.254 0,7.6 -1.5,0 0,-6.4 -1.2,0 0,-1.2 2.7,0 z m 4.1,0 0,2.1 c 0,0.2 0,0.4 0,0.5 0,0.1 0,0.3 0,0.4 0,0.1 0,0.2 0,0.3 0,0.1 0,0.2 -0.1,0.3 l -1.5,-0.2 c 0,-0.1 0,-0.2 0.1,-0.3 0,-0.1 0,-0.2 0,-0.3 0,-0.1 0,-0.2 0,-0.4 0,-0.1 0,-0.3 0,-0.5 l 0,-0.8 -1.3,0 0,-1.2 2.8,0 0,0.1 z m 4.7,1 c 0.1,-0.2 0.1,-0.4 0.2,-0.6 0.1,-0.2 0.1,-0.4 0.2,-0.6 l 2.2,0.6 c 0,0.1 0,0.3 0,0.4 0,0.1 0,0.3 0,0.4 0,0.3 -0.1,0.6 -0.2,0.8 -0.1,0.3 -0.1,0.5 -0.2,0.8 -0.2,0.4 -0.3,0.8 -0.6,1.2 -0.2,0.3 -0.5,0.6 -0.7,0.9 -0.3,0.3 -0.5,0.5 -0.9,0.7 -0.3,0.2 -0.6,0.4 -1,0.5 -0.3,0.1 -0.7,0.3 -1,0.4 -0.4,0.1 -0.7,0.2 -1.1,0.3 l -0.4,-1.3 c 0.4,-0.1 0.8,-0.2 1.1,-0.3 0.3,-0.1 0.6,-0.2 0.9,-0.4 -0.2,-0.5 -0.4,-1 -0.5,-1.5 -0.2,-0.5 -0.4,-1 -0.5,-1.5 0,-0.1 -0.1,-0.2 -0.1,-0.2 0,-0.1 -0.1,-0.1 -0.1,-0.2 l -0.1,-0.1 c 0,0 -0.1,-0.1 -0.2,-0.1 l -0.7,-0.3 c 0.1,-0.2 0.2,-0.4 0.3,-0.6 0.1,-0.2 0.2,-0.4 0.3,-0.6 0.1,0 0.2,0.1 0.4,0.1 0.1,0 0.2,0.1 0.4,0.1 0.2,0.1 0.4,0.2 0.5,0.2 0.1,0.1 0.2,0.2 0.3,0.2 0.1,0.1 0.2,0.2 0.2,0.3 0.1,0.1 0.1,0.2 0.2,0.3 0.1,0.2 0.1,0.4 0.2,0.6 0.1,0.2 0.1,0.4 0.2,0.6 0.1,0.2 0.2,0.5 0.2,0.7 0.1,0.3 0.2,0.6 0.3,1 0.2,-0.2 0.3,-0.3 0.5,-0.5 0.1,-0.2 0.2,-0.4 0.3,-0.6 0.1,-0.2 0.2,-0.5 0.3,-0.8 0.1,-0.3 0.1,-0.6 0.2,-0.9 l -1.1,0 0,0 z m 6.4,-1 0,2.1 c 0,0.2 0,0.4 0,0.5 0,0.1 0,0.3 0,0.4 0,0.1 0,0.2 0,0.3 0,0.1 0,0.2 -0.1,0.3 l -1.5,-0.2 c 0,-0.1 0,-0.2 0.1,-0.3 0,-0.1 0,-0.2 0,-0.3 0,-0.1 0,-0.2 0,-0.4 0,-0.1 0,-0.3 0,-0.5 l 0,-0.8 -1.3,0 0,-1.2 2.8,0 0,0.1 z m 3.1,1.2 c -0.2,0 -0.4,0 -0.5,0 -0.1,0 -0.3,0 -0.4,0 -0.1,0 -0.3,0 -0.4,-0.1 -0.1,0 -0.3,-0.1 -0.5,-0.1 0.1,-0.2 0.1,-0.4 0.2,-0.6 0.1,-0.2 0.1,-0.4 0.2,-0.6 0.2,0.1 0.4,0.1 0.5,0.1 0.1,0 0.3,0.1 0.4,0.1 0.1,0 0.3,0 0.4,0 0.1,0 0.3,0 0.5,0 l 3.2,0 0,1.2 -1.1,0 0,4.6 -1.6,0 0,-4.6 -0.9,0 0,0 z m 7.3,-1.2 0,5.8 -1.5,0 0,-4.6 -1,0 0,-1.2 2.5,0 0,0 z m 1.4,0.4 c 0.2,-0.1 0.4,-0.3 0.6,-0.4 0.2,-0.1 0.4,-0.2 0.6,-0.4 0.1,0.1 0.2,0.2 0.2,0.3 0.1,0.1 0.1,0.2 0.2,0.3 0,0.1 0.1,0.2 0.1,0.2 0,0.1 0.1,0.2 0.1,0.3 0.3,-0.3 0.6,-0.6 1,-0.7 0.3,-0.2 0.7,-0.2 1,-0.2 0.2,0 0.5,0 0.7,0.1 0.2,0.1 0.4,0.2 0.6,0.3 0.2,0.1 0.3,0.3 0.4,0.5 0.1,0.2 0.2,0.4 0.3,0.7 0,0.2 0.1,0.4 0.1,0.7 0,0.3 0,0.5 0,0.8 0,0.1 0,0.3 0,0.5 0,0.2 0,0.3 0,0.6 0,0.3 0,0.5 0,0.7 0,0.2 0,0.4 0,0.6 0,0.1 0,0.2 0,0.3 0,0.1 0,0.2 0,0.3 l -3,0 0,-1.2 1.5,0 0,-0.1 c 0,-0.1 0,-0.1 0,-0.3 0,-0.1 0,-0.3 0,-0.4 0,-0.1 0,-0.4 0,-0.7 0,-0.1 0,-0.2 0,-0.3 0,-0.1 0,-0.2 0,-0.3 0,-0.1 0,-0.2 0,-0.3 0,-0.1 0,-0.2 0,-0.3 0,-0.3 -0.1,-0.5 -0.3,-0.6 -0.1,-0.1 -0.3,-0.2 -0.6,-0.2 -0.1,0 -0.3,0 -0.4,0.1 -0.1,0.1 -0.3,0.1 -0.4,0.2 -0.1,0.1 -0.2,0.1 -0.3,0.2 -0.1,0.1 -0.2,0.2 -0.2,0.3 -0.1,0.4 -0.1,0.8 -0.2,1.1 0,0.3 -0.1,0.6 -0.1,0.8 0,0.2 -0.1,0.4 -0.1,0.6 0,0.2 -0.1,0.3 -0.1,0.5 0,0.2 0,0.3 -0.1,0.5 0,0.2 -0.1,0.4 -0.1,0.6 l -1.5,0 0.1,-1 c 0,-0.2 0.1,-0.5 0.1,-0.7 0,-0.2 0.1,-0.4 0.1,-0.6 0,-0.2 0.1,-0.4 0.1,-0.6 0,-0.2 0.1,-0.4 0.1,-0.7 0,-0.1 0,-0.1 0,-0.2 0,-0.1 0,-0.1 0,-0.2 0,-0.1 0,-0.2 0,-0.3 0,-0.1 0,-0.2 -0.1,-0.2 0,-0.1 -0.1,-0.2 -0.1,-0.2 0,-0.1 -0.1,-0.2 -0.1,-0.3 l -0.2,-0.7 0,0 z"
       class="st9"
       id="path319"
       style="fill:#d29839" />
    <path
       d="m 289.73214,477.854 0,2.1 c 0,0.2 0,0.4 0,0.5 0,0.1 0,0.3 0,0.4 0,0.1 0,0.2 0,0.3 0,0.1 0,0.2 -0.1,0.3 l -1.5,-0.2 c 0,-0.1 0,-0.2 0.1,-0.3 0,-0.1 0,-0.2 0,-0.3 0,-0.1 0,-0.2 0,-0.4 0,-0.1 0,-0.3 0,-0.5 l 0,-0.8 -1.3,0 0,-1.2 2.8,0.1 0,0 z m 1.3,-2 c 0.1,-0.1 0.3,-0.2 0.5,-0.3 0.2,-0.1 0.3,-0.1 0.5,-0.1 0.1,0 0.2,0 0.3,0 0.1,0 0.2,0.1 0.3,0.1 0.1,0.1 0.1,0.1 0.2,0.2 0,0.1 0.1,0.2 0.1,0.3 0,0.2 0,0.3 -0.1,0.4 -0.1,0.1 -0.1,0.3 -0.2,0.5 -0.1,0.2 -0.2,0.4 -0.3,0.6 -0.1,0.2 -0.3,0.5 -0.5,0.8 l -1,0 0.6,-1.6 -0.4,-0.9 z m 2.5,0 c 0.1,-0.1 0.3,-0.2 0.5,-0.3 0.2,-0.1 0.3,-0.1 0.5,-0.1 0.1,0 0.2,0 0.3,0 0.1,0 0.2,0.1 0.3,0.1 0.1,0.1 0.1,0.1 0.2,0.2 0,0.1 0.1,0.2 0.1,0.3 0,0.2 0,0.3 -0.1,0.4 0,0.1 -0.1,0.3 -0.2,0.5 -0.1,0.2 -0.2,0.4 -0.3,0.6 -0.1,0.2 -0.3,0.5 -0.5,0.8 l -1,0 0.6,-1.6 -0.4,-0.9 z m 8.4,4 c -0.1,0.2 -0.1,0.4 -0.2,0.6 -0.1,0.2 -0.1,0.4 -0.2,0.5 -0.1,0.2 -0.2,0.3 -0.3,0.4 -0.1,0.1 -0.3,0.3 -0.4,0.4 l 1.2,1.4 -1,0.9 -2.9,-3.4 c -0.1,0.1 -0.1,0.2 -0.1,0.4 0,0.2 -0.1,0.3 -0.1,0.5 0,0.2 0,0.4 0,0.6 0,0.2 0,0.4 0,0.5 0,0.1 0,0.1 0,0.2 0,0.1 0,0.2 0,0.3 0,0.1 0,0.2 0,0.3 0,0.1 0,0.2 0,0.3 l -1.4,0 c 0,-0.1 0,-0.2 0,-0.3 0,-0.1 0,-0.3 0,-0.4 0,-0.1 0,-0.3 0,-0.5 0,-0.2 0,-0.4 0,-0.6 0,-0.2 0,-0.4 0,-0.6 0,-0.2 0.1,-0.4 0.1,-0.6 0.1,-0.2 0.1,-0.4 0.2,-0.5 0.1,-0.2 0.2,-0.3 0.4,-0.5 -0.1,-0.1 -0.2,-0.2 -0.3,-0.4 -0.1,-0.1 -0.1,-0.2 -0.2,-0.4 -0.1,-0.1 -0.1,-0.3 -0.2,-0.4 -0.1,-0.1 -0.1,-0.3 -0.2,-0.5 0.2,-0.1 0.4,-0.2 0.7,-0.3 0.2,-0.1 0.5,-0.2 0.7,-0.2 0.1,0.2 0.2,0.4 0.2,0.6 0.1,0.2 0.2,0.3 0.2,0.5 0.1,0.1 0.2,0.3 0.3,0.4 0.1,0.1 0.2,0.3 0.4,0.5 l 1.1,1.2 c 0.1,-0.1 0.2,-0.2 0.2,-0.3 0.1,-0.1 0.1,-0.3 0.2,-0.4 0,-0.1 0,-0.1 0.1,-0.2 0,-0.1 0,-0.2 0.1,-0.2 l 0.1,-0.7 -0.8,-0.1 0.2,-1.2 2.1,0.4 0,0.7 -0.2,1.1 0,0 z m 1.6,-1.5 c 0.2,-0.1 0.4,-0.3 0.6,-0.4 0.2,-0.1 0.4,-0.2 0.6,-0.4 0.1,0.1 0.2,0.2 0.2,0.3 0.1,0.1 0.1,0.2 0.2,0.3 0,0.1 0.1,0.2 0.1,0.2 0,0.1 0.1,0.2 0.1,0.3 0.3,-0.3 0.6,-0.6 1,-0.7 0.3,-0.2 0.7,-0.2 1,-0.2 0.2,0 0.5,0 0.7,0.1 0.2,0.1 0.4,0.2 0.6,0.3 0.2,0.1 0.3,0.3 0.4,0.5 0.1,0.2 0.2,0.4 0.3,0.7 0,0.2 0.1,0.4 0.1,0.7 0,0.3 0,0.5 0,0.8 0,0.1 0,0.3 0,0.5 0,0.2 0,0.3 0,0.6 0,0.3 0,0.5 0,0.7 0,0.2 0,0.4 0,0.6 0,0.1 0,0.2 0,0.3 0,0.1 0,0.2 0,0.3 l -3,0 0,-1.3 1.5,0 0,-0.1 c 0,-0.1 0,-0.1 0,-0.3 0,-0.1 0,-0.3 0,-0.4 0,-0.1 0,-0.4 0,-0.7 0,-0.1 0,-0.2 0,-0.3 0,-0.1 0,-0.2 0,-0.3 0,-0.1 0,-0.2 0,-0.3 0,-0.1 0,-0.2 0,-0.3 0,-0.3 -0.1,-0.5 -0.3,-0.6 -0.1,-0.1 -0.3,-0.2 -0.6,-0.2 -0.1,0 -0.3,0 -0.4,0.1 -0.1,0.1 -0.3,0.1 -0.4,0.2 -0.1,0.1 -0.2,0.1 -0.3,0.2 -0.1,0.1 -0.2,0.2 -0.2,0.3 -0.1,0.4 -0.1,0.8 -0.2,1.1 0,0.3 -0.1,0.6 -0.1,0.8 0,0.2 -0.1,0.4 -0.1,0.6 0,0.2 -0.1,0.3 -0.1,0.5 0,0.2 0,0.3 -0.1,0.5 0,0.2 -0.1,0.4 -0.1,0.6 l -1.5,0 0.1,-1 c 0,-0.2 0.1,-0.5 0.1,-0.7 0,-0.2 0.1,-0.4 0.1,-0.6 0,-0.2 0.1,-0.4 0.1,-0.6 0,-0.2 0.1,-0.5 0.1,-0.7 0,-0.1 0,-0.1 0,-0.2 0,-0.1 0,-0.1 0,-0.2 0,-0.1 0,-0.2 0,-0.3 0,-0.1 0,-0.2 -0.1,-0.2 0,-0.1 -0.1,-0.2 -0.1,-0.2 0,-0.1 -0.1,-0.2 -0.1,-0.3 l -0.2,-0.6 0,0 z m 12.8,1.5 c -0.1,0.2 -0.1,0.4 -0.2,0.6 -0.1,0.2 -0.1,0.4 -0.2,0.5 -0.1,0.2 -0.2,0.3 -0.3,0.4 -0.1,0.1 -0.3,0.3 -0.4,0.4 l 1.2,1.4 -1,0.9 -2.9,-3.4 c -0.1,0.1 -0.1,0.2 -0.1,0.4 0,0.2 -0.1,0.3 -0.1,0.5 0,0.2 0,0.4 0,0.6 0,0.2 0,0.4 0,0.5 0,0.1 0,0.1 0,0.2 0,0.1 0,0.2 0,0.3 0,0.1 0,0.2 0,0.3 0,0.1 0,0.2 0,0.3 l -1.5,0 c 0,-0.1 0,-0.2 0,-0.3 0,-0.1 0,-0.3 0,-0.4 0,-0.1 0,-0.3 0,-0.5 0,-0.2 0,-0.4 0,-0.6 0,-0.2 0,-0.4 0,-0.6 0,-0.2 0.1,-0.4 0.1,-0.6 0.1,-0.2 0.1,-0.4 0.2,-0.5 0.1,-0.2 0.2,-0.3 0.4,-0.5 -0.1,-0.1 -0.2,-0.2 -0.3,-0.4 -0.1,-0.1 -0.1,-0.2 -0.2,-0.4 -0.1,-0.1 -0.1,-0.3 -0.2,-0.4 -0.1,-0.1 -0.1,-0.3 -0.2,-0.5 0.2,-0.1 0.4,-0.2 0.7,-0.3 0.2,-0.1 0.5,-0.2 0.7,-0.2 0.1,0.2 0.2,0.4 0.2,0.6 0.1,0.2 0.2,0.3 0.2,0.5 0.1,0.1 0.2,0.3 0.3,0.4 0.1,0.1 0.2,0.3 0.4,0.5 l 1.1,1.2 c 0.1,-0.1 0.2,-0.2 0.2,-0.3 0.1,-0.1 0.1,-0.3 0.2,-0.4 0,-0.1 0,-0.1 0.1,-0.2 0.1,-0.1 0,-0.2 0.1,-0.2 l 0.1,-0.7 -0.8,-0.1 0.2,-1.2 2.1,0.4 0,0.7 -0.1,1.1 0,0 z m 7.4,-2 0,7.6 -1.5,0 0,-6.4 -1.2,0 0,-1.2 2.7,0 z m 3.4,1.3 c -0.2,0 -0.4,0 -0.5,0 -0.1,0 -0.3,0 -0.4,0 -0.1,0 -0.3,0 -0.4,-0.1 -0.1,0 -0.3,-0.1 -0.5,-0.1 0.1,-0.2 0.1,-0.4 0.2,-0.6 0.1,-0.2 0.1,-0.4 0.2,-0.6 0.2,0.1 0.4,0.1 0.5,0.1 0.1,0 0.3,0.1 0.4,0.1 0.1,0 0.3,0 0.4,0 0.1,0 0.3,0 0.5,0 l 0.5,0 c 0.2,0 0.5,0 0.7,0.1 0.2,0.1 0.4,0.2 0.6,0.3 0.2,0.2 0.3,0.4 0.4,0.6 0.1,0.3 0.2,0.6 0.2,1 0,0.2 0,0.4 0,0.6 0,0.2 0,0.4 0,0.6 0,0.2 0,0.5 0,0.7 0,0.2 0,0.5 0,0.8 0,0.1 0,0.2 0,0.2 0,0.1 0,0.2 0,0.2 0,0.1 0,0.2 0,0.3 0,0.1 0,0.2 -0.1,0.4 l -5,0 0,-1.2 3.5,0 c 0,-0.2 0,-0.4 0,-0.6 0,-0.2 0,-0.4 0,-0.6 0,-0.2 0,-0.4 0,-0.6 0,-0.2 0,-0.4 0,-0.6 0,-0.2 0,-0.4 0,-0.6 0,-0.1 -0.1,-0.3 -0.1,-0.3 -0.1,-0.1 -0.2,-0.1 -0.3,-0.2 -0.1,0 -0.3,0 -0.5,0 l -0.3,0 0,0.1 z m 6.8,-1.3 0,5.8 -1.5,0 0,-4.6 -1,0 0,-1.2 2.5,0 0,0 z m 3.1,1.3 c -0.2,0 -0.4,0 -0.5,0 -0.1,0 -0.3,0 -0.4,0 -0.1,0 -0.3,0 -0.4,-0.1 -0.1,0 -0.3,-0.1 -0.5,-0.1 0.1,-0.2 0.1,-0.4 0.2,-0.6 0.1,-0.2 0.1,-0.4 0.2,-0.6 0.2,0.1 0.4,0.1 0.5,0.1 0.1,0 0.3,0.1 0.4,0.1 0.1,0 0.3,0 0.4,0 0.1,0 0.3,0 0.5,0 l 3.2,0 0,1.2 -1.1,0 0,4.6 -1.5,0 0,-4.6 -1,0 0,0 z m 7.3,-1.3 0,5.8 -1.5,0 0,-4.6 -1,0 0,-1.2 2.5,0 0,0 z"
       class="st9"
       id="path321"
       style="fill:#d29839" />
    <g
       transform="translate(714.08214,-511.87955)"
       id="g463">
      <g
         id="g388">
        <defs
           id="defs390">
          <rect
             height="1157.5"
             width="554"
             y="457.5"
             x="-658.29999"
             id="SVGID_47_" />
        </defs>
        <clipPath
           id="clipPath8572">
          <use
             id="use8574"
             style="overflow:visible"
             xlink:href="#SVGID_47_"
             x="0"
             y="0"
             width="100%"
             height="100%" />
        </clipPath>
        <path
           clip-path="url(#SVGID_48_)"
           d="m -390.3,1008.4 c 0,4.3 -7.8,16.1 -7.8,16.1 0,0 -7.8,-11.8 -7.8,-16.1 0,-4.3 3.5,-7.8 7.8,-7.8 4.3,0.1 7.8,3.5 7.8,7.8"
           class="st33"
           id="path471"
           style="fill:#411025" />
      </g>
      <g
         id="g397">
        <defs
           id="defs399">
          <rect
             height="1157.5"
             width="554"
             y="457.5"
             x="-658.29999"
             id="SVGID_49_" />
        </defs>
        <clipPath
           id="clipPath8580">
          <use
             id="use8582"
             style="overflow:visible"
             xlink:href="#SVGID_49_"
             x="0"
             y="0"
             width="100%"
             height="100%" />
        </clipPath>
        <path
           clip-path="url(#SVGID_50_)"
           d="m -398.1,1012.4 c -2.2,0 -4,-1.8 -4,-4 0,-2.2 1.8,-4 4,-4 2.2,0 4,1.8 4,4 0,2.2 -1.8,4 -4,4 m 0,-8.9 c -2.7,0 -4.9,2.2 -4.9,4.9 0,2.7 2.2,4.9 4.9,4.9 2.7,0 4.9,-2.2 4.9,-4.9 0,-2.7 -2.2,-4.9 -4.9,-4.9 m 0,4.3 c -0.3,0 -0.6,0.3 -0.6,0.6 l 0,1.8 c 0,0.3 0.3,0.6 0.6,0.6 0.3,0 0.6,-0.3 0.6,-0.6 l 0,-1.8 c 0,-0.3 -0.3,-0.6 -0.6,-0.6 m 0,-1.9 c -0.3,0 -0.6,0.3 -0.6,0.6 0,0.3 0.3,0.6 0.6,0.6 0.3,0 0.6,-0.3 0.6,-0.6 0,-0.3 -0.3,-0.6 -0.6,-0.6"
           class="st34"
           id="path473"
           style="fill:#ffffff" />
      </g>
    </g>
  </g>
</svg>
