<?xml version="1.0" encoding="UTF-8" standalone="no"?>
<svg
   xmlns:dc="http://purl.org/dc/elements/1.1/"
   xmlns:cc="http://creativecommons.org/ns#"
   xmlns:rdf="http://www.w3.org/1999/02/22-rdf-syntax-ns#"
   xmlns:svg="http://www.w3.org/2000/svg"
   xmlns="http://www.w3.org/2000/svg"
   version="1.1"
   id="svg4806"
   viewBox="0 0 195 96.500004"
   height="27.234446mm"
   width="55.033333mm">
  <defs
     id="defs4808" />
  <metadata
     id="metadata4811">
    <rdf:RDF>
      <cc:Work
         rdf:about="">
        <dc:format>image/svg+xml</dc:format>
        <dc:type
           rdf:resource="http://purl.org/dc/dcmitype/StillImage" />
        <dc:title></dc:title>
      </cc:Work>
    </rdf:RDF>
  </metadata>
  <g
     transform="translate(-328.21428,-735.54078)"
     id="layer1">
    <g
       id="g4555"
       transform="translate(-672.48573,645.74078)">
      <g
         id="g5410">
        <path
           style="fill:#4b1a26"
           d="m 1117.5,146.5 c 0,10.6 -19.3,39.8 -19.3,39.8 0,0 -19.3,-29.2 -19.3,-39.8 0,-10.6 8.7,-19.3 19.3,-19.3 10.6,0 19.3,8.6 19.3,19.3"
           class="st933"
           id="path767_3_" />
        <path
           style="fill:#f1f2f2"
           d="m 1105.1,140.8 c -1,-0.5 -1.7,-1 -2.5,-1.5 0.5,-0.7 1.5,-2 1.2,-3 0,-0.2 -0.2,-0.7 -0.5,-1 -0.2,-0.2 -0.5,-0.2 -0.7,-0.2 -0.5,0 -1.2,0.5 -1.7,0.7 0,-0.2 0,-0.2 0,-0.5 0.2,-1.2 0.7,-2.2 1.7,-2.2 l 0,0 c 1,0 2.2,0.7 2.5,2.2 0.8,1.5 0.5,3.3 0,5.5 m -3.2,-2.5 c -0.2,-0.5 -0.5,-1 -0.7,-1.5 0.2,-0.7 0.7,-1.2 1.2,-1.2 0.2,0 0.2,0 0.2,0 0.2,0 0.2,0.2 0.2,0.5 0.4,1 -0.4,1.7 -0.9,2.2 m -1.2,1.2 -0.7,0.5 0.2,-1 c 0,-0.2 0.2,-0.7 0.5,-1.2 0.2,0.2 0.5,0.7 0.7,1 -0.5,0.5 -0.7,0.5 -0.7,0.7 m 9.6,8 c 0,-0.2 -1.7,-4.9 -4,-6.2 -0.2,0 -0.2,-0.2 -0.5,-0.2 0.7,-2.2 1,-4.2 0.5,-5.9 -0.5,-1.7 -2,-3 -3.5,-2.7 -1.2,0 -2.2,1.2 -2.5,2.7 0,0.5 0,1 0,1.5 -0.2,0.5 -0.5,0.7 -0.5,1 l -11.6,18.3 c 0,0.2 -0.2,0.2 0,0.5 l 0,0.2 0.2,0 c 0.2,0 0.2,-0.2 0.5,-0.2 l 13.4,-16.6 c 0.7,0.7 2,1.2 2.7,1.7 -0.5,1.2 -1,2.7 -1.5,4.2 -1.7,4.2 -1,7.7 0.2,8.4 l 0.2,0 c 0,0 0.2,0 0.2,-0.2 0,-0.2 0,-0.5 0,-0.5 -1,-0.5 -1.7,-3.7 0,-7.4 0.7,-1.5 1.2,-3 1.5,-4.2 0,0 0.2,0 0.2,0.2 2,1 3.7,5.7 3.7,5.7 0,0.2 0.2,0.2 0.5,0.2 0.3,0 0.3,-0.3 0.3,-0.5"
           class="st935"
           id="path861_3_" />
        <rect
           style="fill:#4b1a26"
           height="32.200001"
           width="195"
           class="st933"
           y="89.799995"
           x="1000.7"
           id="rect755_3_" />
        <g
           transform="translate(-88,-84.599998)"
           id="g6623">
          <path
             style="fill:#d16a4e"
             id="path6625"
             d="m 1126.3,185.9 -2.1,0 0,-1.5 3.9,0 0,6.4 -1.8,0 0,-4.9 z"
             class="st940" />
          <path
             style="fill:#d16a4e"
             id="path6627"
             d="m 1132.8,185.9 -2.1,0 0,-1.5 3.9,0 0,6.4 -1.8,0 0,-4.9 z"
             class="st940" />
          <path
             style="fill:#d16a4e"
             id="path6629"
             d="m 1146.2,185.6 -4.2,10.4 -1.9,0 4.2,-10 -6.7,0 0,-5 1.8,0 0,3.5 6.9,0 0,1.1 z"
             class="st940" />
          <path
             style="fill:#d16a4e"
             id="path6631"
             d="m 1151.3,196 c -0.7,-0.1 -1.3,-0.3 -1.9,-0.5 l 0.4,-1.4 c 0.6,0.2 1.2,0.3 1.7,0.4 0.5,0.1 1.1,0.1 1.6,0.1 1.1,0 1.9,-0.3 2.5,-0.8 0.6,-0.5 0.9,-1.3 0.9,-2.3 l 0,-5.7 -4.6,0 c -0.2,0.4 -0.4,0.8 -0.5,1.4 -0.1,0.6 -0.2,1.1 -0.2,1.6 l 0,0.9 c 0.1,0.1 0.3,0.1 0.6,0.1 0.3,0 0.6,0 0.9,0 l 0,1.6 c -0.8,0 -1.4,0 -1.9,-0.1 -0.5,-0.1 -0.9,-0.3 -1.4,-0.5 l 0,-1.5 c 0,-0.7 0.1,-1.3 0.2,-1.9 0.1,-0.6 0.4,-1.1 0.7,-1.6 l -1.4,0 0,-1.5 9.4,0 0,6.8 c 0,1.1 -0.2,2 -0.6,2.7 -0.4,0.7 -1,1.3 -1.8,1.6 -0.8,0.3 -1.6,0.5 -2.6,0.5 -0.7,0.3 -1.3,0.2 -2,0.1 z"
             class="st940" />
          <path
             style="fill:#d16a4e"
             id="path6633"
             d="m 1164.5,195.5 c -0.7,-0.4 -1.3,-1.1 -1.7,-1.9 -0.4,-0.8 -0.6,-1.7 -0.6,-2.8 l 0,-1.2 c 0,-0.5 0.1,-1 0.2,-1.5 0.1,-0.5 0.3,-0.9 0.6,-1.3 0.3,-0.4 0.5,-0.7 0.8,-0.9 0.1,0 0.1,-0.1 0.1,-0.1 l 0,0 c -0.3,0 -1,0.2 -2.1,0.5 l -0.4,-1.4 c 0.8,-0.2 1.6,-0.4 2.6,-0.5 1,-0.1 1.8,-0.2 2.6,-0.2 1.1,0 2,0.2 2.8,0.6 0.8,0.4 1.4,1 1.8,1.8 0.4,0.8 0.6,1.7 0.6,2.8 l 0,1.4 c 0,1 -0.2,2 -0.6,2.8 -0.4,0.8 -1,1.4 -1.7,1.9 -0.7,0.5 -1.6,0.7 -2.5,0.7 -0.9,0 -1.8,-0.2 -2.5,-0.7 z m 4.1,-1.3 c 0.5,-0.3 0.8,-0.7 1.1,-1.3 0.3,-0.6 0.4,-1.2 0.4,-2 l 0,-1.4 c 0,-0.8 -0.1,-1.4 -0.4,-2 -0.3,-0.6 -0.6,-1 -1.1,-1.3 -0.5,-0.3 -1,-0.5 -1.7,-0.5 -0.6,0 -1.1,0.2 -1.5,0.5 -0.4,0.3 -0.8,0.8 -1,1.3 -0.2,0.5 -0.4,1.3 -0.4,2.1 l 0,1.3 c 0,0.7 0.1,1.4 0.4,2 0.3,0.6 0.6,1 1.1,1.3 0.5,0.3 1,0.5 1.6,0.5 0.6,0 1.1,-0.2 1.5,-0.5 z"
             class="st940" />
          <path
             style="fill:#d16a4e"
             id="path6635"
             d="m 1176,185.9 -1.3,0 0,-1.5 3.2,0 0,11.6 -1.8,0 0,-10.1 z"
             class="st940" />
          <path
             style="fill:#d16a4e"
             id="path6637"
             d="m 1185.8,194.5 c 0.6,0 1.2,-0.2 1.7,-0.4 0.5,-0.2 0.9,-0.6 1.1,-1.1 0.2,-0.5 0.4,-1.1 0.4,-1.7 l 0,-5.3 -7.1,0 0,-1.5 8.9,0 0,6.8 c 0,1 -0.2,1.8 -0.6,2.5 -0.4,0.7 -1,1.3 -1.8,1.6 -0.8,0.3 -1.6,0.6 -2.7,0.6 l 0,-1.5 z m -3.7,-2.8 c 0,-0.6 0,-1 0.1,-1.4 0.1,-0.4 0.2,-0.7 0.4,-1 l 1.5,0 c -0.1,0.3 -0.1,0.6 -0.2,1 -0.1,0.4 -0.1,0.8 -0.1,1.3 l 0,8.5 -1.8,0 0,-8.4 z"
             class="st940" />
          <path
             style="fill:#d16a4e"
             id="path6639"
             d="m 1202.5,195.6 c -0.7,-0.4 -1.2,-0.9 -1.6,-1.6 -0.4,-0.7 -0.6,-1.5 -0.6,-2.4 l 0,-7.1 1.8,0 0,7.2 c 0,0.6 0.1,1.1 0.3,1.6 0.2,0.5 0.6,0.8 1,1.1 0.4,0.3 0.9,0.4 1.5,0.4 0.5,0 1,-0.1 1.5,-0.4 0.5,-0.3 0.7,-0.6 1,-1.1 0.3,-0.5 0.3,-1 0.3,-1.6 l 0,-3.9 c 0,-0.6 -0.1,-1.1 -0.4,-1.5 -0.3,-0.4 -0.7,-0.5 -1.2,-0.5 -0.4,0 -0.9,0.1 -1.4,0.4 l -0.3,-1.2 c 0.3,-0.2 0.7,-0.4 1.1,-0.5 0.4,-0.1 0.8,-0.2 1.1,-0.2 0.6,0 1.1,0.1 1.5,0.4 0.4,0.3 0.8,0.7 1,1.2 0.2,0.5 0.3,1.1 0.3,1.8 l 0,3.9 c 0,0.9 -0.2,1.7 -0.6,2.4 -0.4,0.7 -0.9,1.2 -1.6,1.6 -0.7,0.4 -1.5,0.6 -2.4,0.6 -0.9,0 -1.6,-0.2 -2.3,-0.6 z"
             class="st940" />
          <path
             style="fill:#d16a4e"
             id="path6641"
             d="m 1213.7,185.9 -1.3,0 0,-1.5 3.2,0 0,11.6 -1.8,0 0,-10.1 z"
             class="st940" />
          <path
             style="fill:#d16a4e"
             id="path6643"
             d="m 1221.6,196 c -0.7,-0.1 -1.3,-0.3 -1.9,-0.5 l 0.4,-1.4 c 0.6,0.2 1.2,0.3 1.7,0.4 0.5,0.1 1.1,0.1 1.6,0.1 1.1,0 1.9,-0.3 2.5,-0.8 0.6,-0.5 0.9,-1.3 0.9,-2.3 l 0,-5.7 -4.6,0 c -0.2,0.4 -0.4,0.8 -0.5,1.4 -0.1,0.6 -0.2,1.1 -0.2,1.6 l 0,0.9 c 0.1,0.1 0.3,0.1 0.6,0.1 0.3,0 0.6,0 0.9,0 l 0,1.6 c -0.8,0 -1.4,0 -1.9,-0.1 -0.5,-0.1 -0.9,-0.3 -1.4,-0.5 l 0,-1.5 c 0,-0.7 0.1,-1.3 0.2,-1.9 0.1,-0.6 0.4,-1.1 0.7,-1.6 l -1.4,0 0,-1.5 9.4,0 0,6.8 c 0,1.1 -0.2,2 -0.6,2.7 -0.4,0.7 -1,1.3 -1.8,1.6 -0.8,0.3 -1.6,0.5 -2.6,0.5 -0.7,0.3 -1.3,0.2 -2,0.1 z"
             class="st940" />
          <path
             style="fill:#d16a4e"
             id="path6645"
             d="m 1233.4,185.9 -2.1,0 0,-1.5 3.9,0 0,6.4 -1.8,0 0,-4.9 z"
             class="st940" />
          <path
             style="fill:#d16a4e"
             id="path6647"
             d="m 1240.9,193.9 c 0.6,0.3 1.3,0.5 2,0.6 0.7,0.1 1.3,0.2 2,0.2 0.9,0 1.8,-0.1 2.5,-0.4 0.7,-0.3 1.3,-0.7 1.7,-1.2 0.4,-0.5 0.6,-1.2 0.6,-2 l 0,-6.6 1.8,0 0,6.8 c 0,1.1 -0.3,2 -0.9,2.7 -0.6,0.7 -1.4,1.3 -2.4,1.7 -1,0.4 -2.1,0.6 -3.3,0.6 -1,0 -1.9,-0.1 -2.9,-0.3 -1,-0.2 -2,-0.6 -2.9,-1 l 0,-10.4 1.8,0 0,9.3 z m 3.3,-2.2 c 0.1,-0.4 0.2,-1 0.2,-1.6 l 0,-5.7 1.8,0 0,5.4 c 0,0.7 -0.1,1.2 -0.2,1.7 -0.1,0.5 -0.4,0.9 -0.8,1.3 l -1.5,-0.1 c 0.2,-0.2 0.3,-0.5 0.5,-1 z"
             class="st940" />
        </g>
      </g>
    </g>
  </g>
</svg>
