<?xml version="1.0" encoding="UTF-8" standalone="no"?>
<svg
   xmlns:dc="http://purl.org/dc/elements/1.1/"
   xmlns:cc="http://creativecommons.org/ns#"
   xmlns:rdf="http://www.w3.org/1999/02/22-rdf-syntax-ns#"
   xmlns:svg="http://www.w3.org/2000/svg"
   xmlns="http://www.w3.org/2000/svg"
   xmlns:xlink="http://www.w3.org/1999/xlink"
   version="1.1"
   id="svg5218"
   viewBox="0 0 96.517001 39.860241"
   height="11.249446mm"
   width="27.239243mm">
  <defs
     id="defs5220">
    <clipPath
       id="SVGID_106_">
      <use
         height="100%"
         width="100%"
         y="0"
         x="0"
         style="overflow:visible"
         id="use978"
         overflow="visible"
         xlink:href="#SVGID_105_" />
    </clipPath>
    <defs
       id="defs974">
      <rect
         height="1751.1"
         width="838.10699"
         y="121.576"
         x="-67.462997"
         id="SVGID_105_" />
    </defs>
    <clipPath
       id="clipPath5213">
      <use
         height="100%"
         width="100%"
         y="0"
         x="0"
         style="overflow:visible"
         id="use5215"
         overflow="visible"
         xlink:href="#SVGID_105_" />
    </clipPath>
  </defs>
  <metadata
     id="metadata5223">
    <rdf:RDF>
      <cc:Work
         rdf:about="">
        <dc:format>image/svg+xml</dc:format>
        <dc:type
           rdf:resource="http://purl.org/dc/dcmitype/StillImage" />
        <dc:title></dc:title>
      </cc:Work>
    </rdf:RDF>
  </metadata>
  <g
     transform="translate(-368.88436,-552.43208)"
     id="layer1">
    <path
       style="fill:#411025"
       d="m 375.54036,553.03508 c 0.303,0 0.756,0 1.059,0.151 0.303,0.151 0.605,0.303 0.908,0.454 0.302,0.151 0.453,0.454 0.604,0.907 0.151,0.454 0.303,0.908 0.303,1.514 l 0,5.899 -8.32,0 0,-4.992 c 0,-0.303 0,-0.756 0,-1.059 0,-0.303 0.151,-0.757 0.151,-1.06 -0.151,0 -0.454,0 -0.605,-0.151 -0.151,0 -0.454,-0.151 -0.756,-0.151 0.15,-0.302 0.15,-0.604 0.302,-0.907 0.152,-0.303 0.151,-0.605 0.303,-0.908 0.303,0.151 0.605,0.151 0.757,0.151 0.152,0 0.454,0.151 0.604,0.151 0.151,0 0.454,0 0.605,0 0.151,0 0.454,0 0.757,0 l 3.328,0 0,10e-4 z m 0.605,6.959 0,-3.479 c 0,-0.303 0,-0.604 0,-0.907 0,-0.151 -0.151,-0.454 -0.151,-0.454 -0.15,-0.151 -0.302,-0.151 -0.453,-0.303 -0.151,0 -0.454,0 -0.757,0 l -1.967,0 c -0.151,0.454 -0.151,0.757 -0.151,1.06 0,0.302 0,0.604 0,1.059 l 0,3.025 3.479,0 0,-10e-4 z m 8.473,-6.959 0,3.178 c 0,0.302 0,0.604 0,0.756 0,0.152 0,0.454 0,0.605 0,0.151 0,0.303 0,0.453 0,0.151 0,0.303 -0.151,0.454 l -2.27,-0.303 c 0,-0.151 0,-0.302 0.151,-0.453 0,-0.151 0,-0.303 0,-0.454 0,-0.151 0,-0.303 0,-0.605 0,-0.151 0,-0.453 0,-0.756 l 0,-1.211 -1.967,0 0,-1.815 4.236,0 0,0.151 z m 6.959,0 0,1.211 c 0,0.151 0,0.151 0,0.302 0,0.151 0,0.303 0,0.454 0,0.151 0,0.454 0.151,0.757 0,0.303 0,0.604 0.15,1.059 0,0.454 0.151,0.908 0.151,1.361 0,0.454 0.151,1.06 0.151,1.815 0,0.151 0,0.151 0,0.303 0,0.152 0,0.151 0,0.303 0,0.152 0,0.303 0,0.303 0,0.151 0,0.151 0,0.303 0,0.152 0,0.151 0,0.302 0,0.151 0,0.303 0,0.454 l -5.748,0 0,-1.967 3.63,0 c 0,-0.151 0,-0.303 0,-0.604 0,-0.303 0,-0.605 -0.15,-0.908 0,-0.303 -0.151,-0.756 -0.151,-1.059 0,-0.454 -0.151,-0.757 -0.151,-1.06 0,-0.302 -0.151,-0.604 -0.151,-0.907 0,-0.303 0,-0.454 0,-0.605 l -2.27,0 0,-1.815 4.388,0 0,-0.002 z m 5.596,1.816 c -0.302,0 -0.604,0 -0.756,0 -0.152,0 -0.454,0 -0.605,0 -0.151,0 -0.454,0 -0.604,-0.151 -0.151,0 -0.454,-0.151 -0.757,-0.151 0.151,-0.302 0.151,-0.604 0.303,-0.907 0.152,-0.303 0.151,-0.605 0.303,-0.908 0.302,0.151 0.604,0.151 0.756,0.151 0.152,0 0.454,0.151 0.605,0.151 0.151,0 0.454,0 0.604,0 0.151,0 0.454,0 0.757,0 l 0.757,0 c 0.302,0 0.756,0 1.059,0.151 0.303,0.151 0.605,0.303 0.908,0.454 0.302,0.151 0.453,0.605 0.604,0.907 0.151,0.454 0.303,0.908 0.303,1.514 0,0.302 0,0.604 0,0.907 0,0.303 0,0.605 0,0.908 0,0.302 0,0.756 0,1.059 0,0.303 0,0.757 0,1.21 0,0.151 0,0.303 0,0.303 0,0.151 0,0.303 0,0.303 0,0.151 0,0.303 0,0.454 0,0.151 0,0.302 -0.151,0.604 l -7.413,0 0,-1.815 5.295,0 c 0,-0.302 0,-0.604 0,-0.907 0,-0.303 0,-0.605 0,-0.908 0,-0.302 0,-0.604 0,-0.907 0,-0.303 0,-0.605 0,-0.908 0,-0.302 0,-0.604 0,-0.907 0,-0.151 -0.151,-0.454 -0.151,-0.454 -0.151,-0.151 -0.302,-0.151 -0.453,-0.303 -0.151,0 -0.454,0 -0.757,0 l -0.607,0.15 0,0 z m 10.137,-1.816 0,8.926 -2.27,0 0,-6.959 -1.513,0 0,-1.815 3.783,-0.152 0,0 z m 4.841,1.816 c -0.303,0 -0.605,0 -0.757,0 -0.152,0 -0.453,0 -0.604,0 -0.151,0 -0.454,0 -0.605,-0.151 -0.151,0 -0.454,-0.151 -0.757,-0.151 0.151,-0.302 0.151,-0.604 0.303,-0.907 0.152,-0.303 0.151,-0.605 0.303,-0.908 0.303,0.151 0.605,0.151 0.757,0.151 0.152,0 0.453,0.151 0.604,0.151 0.151,0 0.454,0 0.605,0 0.151,0 0.454,0 0.757,0 l 4.841,0 0,1.815 -1.665,0 0,6.959 -2.269,0 0,-6.959 -1.513,0 0,0 z m 17.549,-1.816 c 0.302,0 0.756,0 1.059,0.151 0.303,0.151 0.605,0.303 0.908,0.454 0.302,0.151 0.453,0.454 0.604,0.907 0.151,0.454 0.303,0.908 0.303,1.514 l 0,5.899 -8.32,0 0,-4.992 c 0,-0.303 0,-0.756 0,-1.059 0,-0.303 0.151,-0.757 0.151,-1.06 -0.151,0 -0.454,0 -0.605,-0.151 -0.151,0 -0.454,-0.151 -0.757,-0.151 0.151,-0.302 0.151,-0.604 0.303,-0.907 0.152,-0.303 0.151,-0.605 0.303,-0.908 0.303,0.151 0.605,0.151 0.757,0.151 0.152,0 0.453,0.151 0.604,0.151 0.151,0 0.454,0 0.605,0 0.151,0 0.454,0 0.757,0 l 3.328,0 0,10e-4 z m 0.604,6.959 0,-3.479 c 0,-0.303 0,-0.604 0,-0.907 0,-0.151 -0.151,-0.454 -0.151,-0.454 -0.151,-0.151 -0.302,-0.151 -0.453,-0.303 -0.151,0 -0.454,0 -0.757,0 l -1.967,0 c -0.151,0.454 -0.151,0.757 -0.151,1.06 0,0.302 0,0.604 0,1.059 l 0,3.025 3.479,0 0,-10e-4 z m 10.287,-6.959 c 0.303,0 0.757,0 1.06,0.151 0.303,0.151 0.604,0.303 0.907,0.454 0.303,0.151 0.454,0.454 0.605,0.907 0.151,0.454 0.303,0.908 0.303,1.514 l 0,5.899 -2.27,0 0,-5.295 c 0,-0.303 0,-0.604 0,-0.907 0,-0.151 -0.151,-0.454 -0.151,-0.454 -0.151,-0.151 -0.303,-0.151 -0.454,-0.303 -0.151,0 -0.453,0 -0.756,0 l -1.664,0 c -0.151,0.454 -0.151,0.757 -0.151,1.06 0,0.302 0,0.604 0,1.059 l 0,4.992 -2.27,0 0,-5.144 c 0,-0.303 0,-0.756 0,-1.059 0,-0.303 0.151,-0.757 0.151,-1.06 -0.151,0 -0.454,0 -0.605,-0.151 -0.151,0 -0.453,-0.151 -0.756,-0.151 0.151,-0.302 0.151,-0.604 0.303,-0.907 0.152,-0.303 0.151,-0.605 0.302,-0.908 0.303,0.151 0.605,0.151 0.757,0.151 0.152,0 0.454,0.151 0.605,0.151 0.151,0 0.453,0 0.604,0 0.151,0 0.454,0 0.757,0 l 2.723,0 0,10e-4 z m 11.044,0 c 0.303,0 0.757,0 1.06,0.151 0.302,0.151 0.604,0.303 0.907,0.454 0.303,0.151 0.454,0.454 0.605,0.907 0.151,0.454 0.302,0.908 0.302,1.514 l 0,5.899 -2.269,0 0,-5.295 c 0,-0.303 0,-0.604 0,-0.907 0,-0.151 -0.151,-0.454 -0.151,-0.454 -0.151,-0.151 -0.303,-0.151 -0.454,-0.303 -0.151,0 -0.454,0 -0.756,0 l -1.211,0 c -0.151,0.454 -0.303,0.757 -0.454,1.211 0,0.453 -0.15,0.907 -0.15,1.361 0,0.303 0,0.453 0,0.756 0,0.151 0,0.454 0,0.605 0,0.151 0,0.454 0.15,0.605 0,0.15 0.151,0.453 0.151,0.604 l 0.151,0.454 c 0,0.303 0,0.454 -0.151,0.757 0,0.15 0,0.453 -0.151,0.604 l -4.235,0 0,-1.967 1.967,0 c -0.151,-0.453 -0.303,-0.907 -0.303,-1.21 0,-0.454 -0.151,-0.757 -0.151,-1.21 0,-0.303 0,-0.605 0,-0.908 0,-0.303 0.151,-0.604 0.151,-0.907 0,-0.151 0.151,-0.303 0.151,-0.454 0,-0.151 0.151,-0.303 0.151,-0.454 -0.303,0 -0.454,0 -0.757,-0.151 -0.303,0 -0.454,-0.151 -0.907,-0.303 0.151,-0.302 0.151,-0.604 0.303,-0.907 0.15,-0.303 0.15,-0.605 0.302,-0.908 0.303,0.151 0.605,0.151 0.757,0.151 0.152,0 0.454,0.151 0.605,0.151 0.15,0 0.453,0 0.604,0 0.151,0 0.454,0 0.757,0 l 3.026,0.154 0,0 z m 4.841,0.606 c 0.303,-0.151 0.605,-0.454 0.908,-0.605 0.303,-0.151 0.604,-0.303 0.907,-0.604 0.151,0.151 0.303,0.302 0.303,0.453 0.151,0.151 0.151,0.303 0.303,0.454 0,0.151 0.151,0.303 0.151,0.303 0,0.151 0.151,0.303 0.151,0.454 0.454,-0.454 0.907,-0.908 1.513,-1.06 0.454,-0.303 1.059,-0.303 1.513,-0.303 0.303,0 0.757,0 1.059,0.151 0.303,0.151 0.605,0.303 0.908,0.454 0.303,0.151 0.454,0.454 0.605,0.757 0.151,0.303 0.302,0.604 0.453,1.059 0,0.303 0.151,0.605 0.151,1.06 0,0.453 0,0.756 0,1.21 0,0.151 0,0.454 0,0.604 0,0.303 0,0.454 0,0.908 0,0.454 0,0.757 0,1.059 0,0.303 0,0.605 0,0.908 0,0.151 0,0.303 0,0.454 0,0.151 0,0.302 0,0.453 l -4.538,0 0,-1.815 2.27,0 0,-0.151 c 0,-0.15 0,-0.15 0,-0.453 0,-0.151 0,-0.454 0,-0.605 0,-0.151 0,-0.605 0,-1.059 0,-0.151 0,-0.303 0,-0.454 0,-0.151 0,-0.303 0,-0.454 0,-0.151 0,-0.303 0,-0.454 0,-0.15 0,-0.302 0,-0.453 0,-0.454 -0.151,-0.757 -0.454,-0.908 -0.151,-0.151 -0.454,-0.303 -0.908,-0.303 -0.151,0 -0.453,0 -0.604,0.151 -0.151,0.151 -0.454,0.151 -0.605,0.303 -0.151,0.152 -0.303,0.151 -0.454,0.303 -0.151,0.152 -0.302,0.303 -0.302,0.454 -0.151,0.604 -0.151,1.21 -0.303,1.664 0,0.453 -0.151,0.907 -0.151,1.21 0,0.303 -0.151,0.605 -0.151,0.908 0,0.302 -0.151,0.453 -0.151,0.756 0,0.303 0,0.454 -0.151,0.757 0,0.303 -0.151,0.604 -0.151,0.907 l -2.27,0 0.151,-1.513 c 0,-0.303 0.151,-0.756 0.151,-1.059 0,-0.303 0.151,-0.605 0.151,-0.908 0,-0.303 0.151,-0.604 0.151,-0.907 0,-0.303 0.151,-0.757 0.151,-1.06 0,-0.151 0,-0.151 0,-0.303 0,-0.15 0,-0.15 0,-0.302 0,-0.152 0,-0.303 0,-0.454 0,-0.151 0,-0.303 -0.151,-0.303 0,-0.151 -0.151,-0.303 -0.151,-0.303 0,-0.151 -0.151,-0.303 -0.151,-0.453 l -0.304,-0.908 0,0 z"
       id="path1001_1_" />
    <path
       transform="translate(175.88578,161.79732)"
       style="fill:#c31a3b"
       d="m 252.651,412.795 c 0,4.69 -8.472,17.7 -8.472,17.7 0,0 -8.472,-12.858 -8.472,-17.7 0,-4.689 3.782,-8.472 8.472,-8.472 4.69,0 8.472,3.782 8.472,8.472"
       clip-path="url(#SVGID_106_)"
       id="path1011_1_" />
  </g>
</svg>
