<?xml version="1.0" encoding="UTF-8" standalone="no"?>
<svg
   xmlns:dc="http://purl.org/dc/elements/1.1/"
   xmlns:cc="http://creativecommons.org/ns#"
   xmlns:rdf="http://www.w3.org/1999/02/22-rdf-syntax-ns#"
   xmlns:svg="http://www.w3.org/2000/svg"
   xmlns="http://www.w3.org/2000/svg"
   xmlns:sodipodi="http://sodipodi.sourceforge.net/DTD/sodipodi-0.dtd"
   xmlns:inkscape="http://www.inkscape.org/namespaces/inkscape"
   version="1.1"
   id="svg4769"
   viewBox="0 0 775.27398 428.24899"
   height="428.24899"
   width="775.27399"
   inkscape:version="0.91 r13725"
   sodipodi:docname="cami_floor1.svg">
  <sodipodi:namedview
     pagecolor="#ffffff"
     bordercolor="#666666"
     borderopacity="1"
     objecttolerance="10"
     gridtolerance="10"
     guidetolerance="10"
     inkscape:pageopacity="0"
     inkscape:pageshadow="2"
     inkscape:window-width="1920"
     inkscape:window-height="1018"
     id="namedview102"
     showgrid="false"
     fit-margin-top="0"
     fit-margin-left="0"
     fit-margin-right="0"
     fit-margin-bottom="0"
     units="px"
     inkscape:zoom="1.4859263"
     inkscape:cx="342.21612"
     inkscape:cy="255.27121"
     inkscape:window-x="-8"
     inkscape:window-y="-8"
     inkscape:window-maximized="1"
     inkscape:current-layer="svg4769" />
  <defs
     id="defs4771" />
  <metadata
     id="metadata4774">
    <rdf:RDF>
      <cc:Work
         rdf:about="">
        <dc:format>image/svg+xml</dc:format>
        <dc:type
           rdf:resource="http://purl.org/dc/dcmitype/StillImage" />
        <dc:title></dc:title>
      </cc:Work>
    </rdf:RDF>
  </metadata>
  <g
     transform="translate(-45.955,-183.81402)"
     id="Layer_2">
    <polygon
       style="fill:#7fc3c6"
       points="267.384,508.449 320.321,471.006 200.244,412.259 139.56,443.89 45.955,387.727 255.666,289.258 401.632,353.169 453.154,322.525 499.145,300.575 473.966,288.312 521.61,265.393 676.691,331.931 742.884,303.088 812.242,338.103 735.369,382.563 696.132,364.585 541.5,443.89 487.176,509.094 504.257,523.943 472.062,546.896 499.145,566.55 429.099,608.511 362.925,575.587 384.78,562.911 "
       id="polygon105" />
    <polygon
       style="fill:#5690a3"
       points="514.537,277.637 514.537,292.788 629.773,343.142 629.773,328.542 "
       id="polygon107" />
    <polygon
       style="fill:#5690a3"
       points="401.66,353.702 401.66,339.955 258.344,279.574 258.894,291.194 "
       id="polygon109" />
    <polygon
       style="fill:#5690a3"
       points="544.948,262.487 544.948,277.637 676.691,336.446 677.403,321.845 "
       id="polygon111" />
    <polygon
       style="fill:#5690a3"
       points="45.955,368.352 45.955,387.727 139.56,443.89 139.56,425.642 "
       id="polygon113" />
    <polygon
       style="fill:#5690a3"
       points="200.244,412.259 200.244,396.738 320.222,456.354 320.321,471.006 "
       id="polygon115" />
    <polygon
       style="fill:#5690a3"
       points="267.384,508.449 267.384,494.89 390.043,552.885 384.78,562.911 "
       id="polygon117" />
    <polygon
       style="fill:#5690a3"
       points="362.284,562.911 362.925,575.587 427.433,612.063 427.433,597.858 "
       id="polygon119" />
    <polygon
       style="fill:#5690a3"
       points="462.448,540.844 462.939,552.668 504.257,572.682 504.257,559.772 "
       id="polygon121" />
    <polygon
       style="fill:#5690a3"
       points="483.353,501.671 483.598,516.369 511.902,530.722 511.902,516.196 "
       id="polygon123" />
    <polygon
       style="fill:#5690a3"
       points="750.015,293.84 750.015,306.408 812.242,337.822 821.229,329.667 "
       id="polygon125" />
    <polygon
       style="fill:#5690a3"
       points="703.09,359.646 701.8,371.91 735.369,389.341 735.369,374.49 "
       id="polygon127" />
    <polygon
       style="fill:#5690a3"
       points="182.976,358.676 182.976,374.064 337.589,449.603 337.589,435.399 "
       id="polygon129" />
    <polygon
       style="fill:#42818e"
       points="320.222,456.354 320.222,456.354 267.384,494.89 279.12,500.148 320.321,471.006 "
       id="polygon131" />
    <polygon
       style="fill:#42818e"
       points="407.473,536.208 362.284,562.911 374.472,569.564 407.473,552.347 "
       id="polygon133" />
    <polygon
       style="fill:#42818e"
       points="427.433,597.858 504.257,559.772 504.257,572.682 427.433,612.063 "
       id="polygon135" />
    <polygon
       style="fill:#42818e"
       points="462.448,540.844 511.902,516.196 511.902,530.722 475.816,546.896 "
       id="polygon137" />
    <polygon
       style="fill:#42818e"
       points="483.353,501.671 545.571,431.947 703.09,359.646 701.8,371.91 550.638,445.483 492.902,506.532 "
       id="polygon139" />
    <polygon
       style="fill:#42818e"
       points="493.288,440.555 515.699,415.446 660.182,349.05 659.469,361.471 520.765,428.98 493.872,455.468 "
       id="polygon141" />
    <polygon
       style="fill:#42818e"
       points="735.369,374.49 821.229,329.948 821.229,344.795 735.369,389.341 "
       id="polygon143" />
    <polygon
       style="fill:#42818e"
       points="750.015,293.84 677.403,321.845 676.691,336.446 750.015,306.449 "
       id="polygon145" />
    <polygon
       style="fill:#42818e"
       points="497.851,287.322 499.145,302.511 447.629,327.749 401.632,353.169 401.632,339.955 442.486,312.326 "
       id="polygon147" />
    <polygon
       style="fill:#42818e"
       points="258.344,279.574 45.955,368.352 64.106,379.495 258.894,291.194 "
       id="polygon149" />
    <polygon
       style="fill:#42818e"
       points="200.244,396.738 139.56,425.642 139.56,443.89 200.244,412.259 "
       id="polygon151" />
    <polygon
       style="fill:#42818e"
       points="194.729,364.367 240.268,339.158 240.268,354.693 208.201,371.053 "
       id="polygon153" />
    <polygon
       style="fill:#42818e"
       points="283.864,408.438 283.864,423.297 277.544,428.188 277.544,412.049 "
       id="polygon155" />
    <polygon
       style="fill:#42818e"
       points="264.458,418.313 258.344,425.279 264.458,428.316 "
       id="polygon157" />
    <polygon
       style="fill:#42818e"
       points="406.257,414.989 391.914,406.122 337.589,435.399 337.589,449.603 391.914,420.313 405.646,428.188 "
       id="polygon159" />
    <polygon
       style="fill:#42818e"
       points="293.853,363.189 246.08,389.825 260.01,396.738 293.853,377.396 "
       id="polygon161" />
    <polygon
       style="fill:#bbce8c"
       points="444.56,340.041 438.525,342.387 516.69,376.59 523.792,375.36 "
       id="polygon163" />
    <polyline
       style="fill:#cde3a4"
       points="433.597,339.081 427.433,341.638 510.424,379.329 516.69,376.59  "
       id="polyline165" />
    <polygon
       style="fill:#bbce8c"
       points="423.383,338.103 414.672,343.142 495.513,379.963 502.614,373.423 "
       id="polygon167" />
    <polyline
       style="fill:#cde3a4"
       points="412.421,339.081 406.257,341.638 489.245,379.329 495.513,376.59  "
       id="polyline169" />
    <polygon
       style="fill:#bbce8c"
       points="403.368,338.103 370.259,353.702 450.39,387.187 482.601,373.423 "
       id="polygon171" />
    <polyline
       style="fill:#cde3a4"
       points="374.487,348.876 368.324,351.433 451.313,389.124 457.581,386.384  "
       id="polyline173" />
    <polygon
       style="fill:#bbce8c"
       points="364.415,350.006 358.379,352.355 436.544,386.558 443.646,385.328 "
       id="polygon175" />
    <polyline
       style="fill:#cde3a4"
       points="353.451,349.05 347.288,351.604 430.275,389.296 436.544,386.558  "
       id="polyline177" />
    <polygon
       style="fill:#bbce8c"
       points="343.237,348.071 334.526,353.109 415.367,389.931 422.469,383.39 "
       id="polygon179" />
    <polyline
       style="fill:#cde3a4"
       points="332.273,349.05 326.111,351.604 409.098,389.296 415.367,386.558  "
       id="polyline181" />
    <polygon
       style="fill:#42818e"
       points="449.866,383.269 407.886,379.798 405.646,428.188 523.792,375.36 482.601,369.172 "
       id="polygon183" />
    <polygon
       style="fill:#cde3a4"
       points="121.32,321.355 146.914,334.036 146.914,340.412 121.075,328.167 "
       id="polygon185" />
    <polygon
       style="fill:#bbce8c"
       points="128.741,318.373 153.425,332.056 149.141,335.008 121.32,321.355 "
       id="polygon187" />
    <polygon
       style="fill:#cde3a4"
       points="126.412,313.293 154.412,326.148 153.425,332.056 126.412,319.427 "
       id="polygon189" />
    <polygon
       style="fill:#bbce8c"
       points="133.833,310.517 159.996,322.817 154.412,326.148 126.412,313.293 "
       id="polygon191" />
    <polygon
       style="fill:#cde3a4"
       points="133.833,304.896 159.996,316.375 159.996,322.817 133.833,310.517 "
       id="polygon193" />
    <polygon
       style="fill:#bbce8c"
       points="101.735,352.493 126.419,366.177 122.135,369.129 94.03,356.172 "
       id="polygon195" />
    <polygon
       style="fill:#cde3a4"
       points="99.406,347.414 127.406,360.27 126.419,366.177 99.406,353.548 "
       id="polygon197" />
    <polygon
       style="fill:#bbce8c"
       points="106.828,344.638 132.99,357.938 127.406,360.27 99.406,347.414 "
       id="polygon199" />
    <polygon
       style="fill:#cde3a4"
       points="107.111,339.303 133.99,351.495 132.99,357.938 106.828,344.638 "
       id="polygon201" />
    <polygon
       style="fill:#cde3a4"
       points="86.608,364.569 114.609,377.425 113.622,383.333 86.608,370.704 "
       id="polygon203" />
    <polygon
       style="fill:#bbce8c"
       points="94.03,361.794 120.193,374.094 114.609,377.425 86.608,364.569 "
       id="polygon205" />
    <polygon
       style="fill:#cde3a4"
       points="94.03,356.172 120.193,367.651 120.193,374.094 94.03,361.794 "
       id="polygon207" />
    <polygon
       style="fill:#bbce8c"
       points="114.531,336.32 140.544,349.342 133.833,352.417 107.111,339.303 "
       id="polygon209" />
    <polygon
       style="fill:#cde3a4"
       points="113.652,330.942 141.653,343.798 139.56,350.004 113.652,337.076 "
       id="polygon211" />
    <polygon
       style="fill:#bbce8c"
       points="121.075,328.167 147.237,340.466 141.653,343.798 113.652,330.942 "
       id="polygon213" />
    <polygon
       style="fill:#42818e"
       points="182.976,358.676 139.56,362.548 113.053,371.053 113.053,387.141 139.56,377.396 182.976,374.064 "
       id="polygon215" />
    <g
       id="Layer_11">
      <polygon
         style="fill:#66aaaa"
         points="218.979,263.507 120.193,299.537 133.833,304.896 159.996,316.375 132.99,330.841 154.316,341.683 183.951,356.021 299.974,294.776 "
         id="polygon218" />
      <polygon
         style="fill:#346972"
         points="184.808,341.683 301.042,282.776 299.974,297.776 183.951,356.021 "
         id="polygon220" />
      <polygon
         style="fill:#346972"
         points="220.174,250.436 121.397,286.403 120.193,299.537 220.544,262.856 "
         id="polygon222" />
      <polygon
         style="fill:#4b818e"
         points="219.302,250.519 218.979,263.507 285.023,290.776 301.042,282.776 "
         id="polygon224" />
      <polygon
         style="fill:#4b818e"
         points="176.313,267.45 176.313,279.943 230.569,305.887 230.569,290.776 "
         id="polygon226" />
    </g>
    <g
       id="Layer_12" />
  </g>
  <rect
     style="fill:none"
     id="rect446"
     height="24.398001"
     width="78.612"
     y="120.285"
     x="657.13495" />
  <rect
     style="fill:none"
     id="rect450"
     height="18.179001"
     width="78.609001"
     y="106.02801"
     x="583.73993" />
  <rect
     style="fill:none"
     id="rect458"
     height="30.371"
     width="132.118"
     y="-1.0097656e-005"
     x="90.959991" />
  <text
     sodipodi:linespacing="125%"
     style="font-style:normal;font-variant:normal;font-weight:normal;font-stretch:normal;font-size:21.30374908px;line-height:125%;font-family:Alef;text-align:start;writing-mode:lr-tb;text-anchor:start;fill:#010101"
     id="text460"
     font-size="21.3037"
     x="112.8038"
     y="18.108389">קומת ביניים</text>
  <rect
     style="fill:none"
     id="rect462"
     height="24.398001"
     width="78.612999"
     y="344.83105"
     x="343.83804" />
  <rect
     style="fill:none"
     id="rect480"
     height="24.398001"
     width="78.612999"
     y="178.48003"
     x="54.297997" />
  <rect
     style="fill:none"
     id="rect514"
     height="24.398001"
     width="78.612999"
     y="214.86601"
     x="277.02301" />
  <polygon
     transform="translate(-45.955,-183.81402)"
     style="fill:#a63e32"
     id="polygon524"
     points="191.744,333.749 187.952,332.492 195.744,328.249 189.994,325.249 182.494,329.999 179.994,328.499 172.744,338.249 " />
  <rect
     style="fill:none"
     id="rect526"
     height="18.327"
     width="79.546997"
     y="120.26501"
     x="106.19099" />
  <text
     sodipodi:linespacing="125%"
     style="font-style:normal;font-variant:normal;font-weight:normal;font-stretch:normal;font-size:15.43874931px;line-height:125%;font-family:Alef;text-align:start;writing-mode:lr-tb;text-anchor:start;fill:#010101"
     id="text528"
     font-size="15"
     x="116.97079"
     y="133.0146">מפלס עליון</text>
  <rect
     style="fill:none"
     id="rect534"
     height="24.398001"
     width="78.612999"
     y="59.237995"
     x="164.974" />
  <rect
     style="fill:none"
     id="rect538"
     height="24.398001"
     width="78.612999"
     y="164.32698"
     x="195.442" />
  <rect
     style="fill:none"
     id="rect542"
     height="24.398001"
     width="78.612999"
     y="144.02699"
     x="161.366" />
  <rect
     id="rect579"
     height="24.398001"
     width="78.612999"
     y="99.86599"
     x="390.35602"
     style="fill:none" />
</svg>
