<?xml version="1.0" encoding="UTF-8" standalone="no"?>
<svg
   xmlns:dc="http://purl.org/dc/elements/1.1/"
   xmlns:cc="http://creativecommons.org/ns#"
   xmlns:rdf="http://www.w3.org/1999/02/22-rdf-syntax-ns#"
   xmlns:svg="http://www.w3.org/2000/svg"
   xmlns="http://www.w3.org/2000/svg"
   version="1.1"
   id="svg5179"
   viewBox="0 0 93.699997 53.20003"
   height="15.014231mm"
   width="26.444221mm">
  <defs
     id="defs5181" />
  <metadata
     id="metadata5184">
    <rdf:RDF>
      <cc:Work
         rdf:about="">
        <dc:format>image/svg+xml</dc:format>
        <dc:type
           rdf:resource="http://purl.org/dc/dcmitype/StillImage" />
        <dc:title></dc:title>
      </cc:Work>
    </rdf:RDF>
  </metadata>
  <g
     transform="translate(-330.29285,-431.47647)"
     id="layer1">
    <path
       id="path307_2_"
       class="st48"
       d="m 386.54285,465.1765 c 0,5.2 -9.4,19.5 -9.4,19.5 0,0 -9.4,-14.2 -9.4,-19.5 0,-5.2 4.2,-9.4 9.4,-9.4 5.2,-0.1 9.4,4.1 9.4,9.4"
       style="fill:#18304e" />
    <rect
       id="rect901_3_"
       x="330.29285"
       y="431.47647"
       class="st48"
       width="93.699997"
       height="21.700001"
       style="fill:#18304e" />
    <g
       id="g779"
       transform="translate(-231.10719,-45.323505)">
      <path
         class="st7"
         d="m 569.1,483.5 6.9,0 0,8.6 -6.9,0 0,-8.6 z m 5.5,7.5 0,-6.4 -4.2,0 0,6.4 4.2,0 z"
         id="path781"
         style="fill:#ffffff" />
      <path
         class="st7"
         d="m 579.3,484.6 -1.6,0 0,-1.1 2.9,0 0,4.8 -1.4,0 0,-3.7 z"
         id="path783"
         style="fill:#ffffff" />
      <path
         class="st7"
         d="m 582.3,492.1 0,-1.1 c 0.3,0.1 0.7,0.1 1.1,0.1 0.4,0 0.7,-0.1 0.9,-0.3 0.2,-0.2 0.3,-0.6 0.3,-1.1 l 0,-5.1 -1.7,0 0,-1.1 3.1,0 0,6.3 c 0,0.8 -0.2,1.4 -0.6,1.8 -0.4,0.4 -1,0.6 -1.7,0.6 -0.5,0.1 -0.9,0 -1.4,-0.1 z"
         id="path785"
         style="fill:#ffffff" />
      <path
         class="st7"
         d="m 587.9,491.9 0.2,-1 c 0.8,0.2 1.5,0.3 2.1,0.3 0.8,0 1.4,-0.2 1.9,-0.6 0.4,-0.4 0.6,-1 0.6,-1.7 l 0,-4.3 -4.5,0 0,-1.1 5.8,0 0,5.1 c 0,1.2 -0.3,2.1 -1,2.8 -0.7,0.7 -1.6,0.9 -2.7,0.9 -0.7,-0.1 -1.5,-0.2 -2.4,-0.4 z"
         id="path787"
         style="fill:#ffffff" />
      <path
         class="st7"
         d="m 597.1,484.6 -1,0 0,-1.1 2.4,0 0,8.6 -1.4,0 0,-7.5 z"
         id="path789"
         style="fill:#ffffff" />
      <path
         class="st7"
         d="m 607.1,483.5 0,1.1 -1.4,0 0,7.5 -1.4,0 0,-7.5 -4.1,0 0,-1.1 6.9,0 z"
         id="path791"
         style="fill:#ffffff" />
      <path
         class="st7"
         d="m 612.6,483.5 6.9,0 0,8.6 -6.9,0 0,-8.6 z m 5.5,7.5 0,-6.4 -4.1,0 0,6.4 4.1,0 z"
         id="path793"
         style="fill:#ffffff" />
      <path
         class="st7"
         d="m 622.2,483.5 3.2,0 c 1.1,0 2,0.3 2.6,0.8 0.6,0.5 0.8,1.4 0.8,2.5 l 0,5.3 -1.4,0 0,-5.4 c 0,-0.7 -0.2,-1.3 -0.5,-1.6 -0.3,-0.3 -0.8,-0.5 -1.6,-0.5 l -1.9,0 0,7.5 -1.4,0 0.2,-8.6 z"
         id="path795"
         style="fill:#ffffff" />
      <path
         class="st7"
         d="m 637.3,484.3 c 0.6,0.5 0.8,1.4 0.8,2.5 l 0,5.3 -1.4,0 0,-5.4 c 0,-0.7 -0.2,-1.3 -0.5,-1.6 -0.3,-0.3 -0.8,-0.5 -1.5,-0.5 l -1.2,0 c -0.2,0.3 -0.3,0.6 -0.4,1 -0.1,0.4 -0.1,0.8 -0.1,1.3 l 0,2.9 c 0,0.8 -0.2,1.4 -0.6,1.8 -0.4,0.4 -0.9,0.6 -1.6,0.6 -0.2,0 -0.5,0 -0.8,-0.1 l 0,-1.1 c 0.2,0 0.3,0 0.5,0 0.4,0 0.7,-0.1 0.9,-0.3 0.2,-0.2 0.3,-0.6 0.3,-1 l 0,-2.7 c 0,-0.4 0.1,-0.9 0.2,-1.3 0.1,-0.4 0.3,-0.8 0.5,-1.1 l -1.6,0 0,-1.1 4,0 c 1.1,0 2,0.3 2.5,0.8 z"
         id="path797"
         style="fill:#ffffff" />
      <path
         class="st7"
         d="m 641.2,486.6 c 0,-0.4 0.2,-0.8 0.3,-1.1 0.2,-0.4 0.4,-0.6 0.6,-0.8 0,0 0.1,0 0.1,-0.1 l 0,0 c -0.2,0 -0.5,0.1 -0.8,0.2 -0.3,0.1 -0.6,0.2 -0.9,0.3 l -0.3,-1 c 0.6,-0.2 1.2,-0.4 1.9,-0.5 0.7,-0.1 1.4,-0.2 1.9,-0.2 1.2,0 2,0.3 2.7,0.9 0.6,0.6 0.9,1.5 0.9,2.7 l 0,5.1 -3.6,0 0,-1.1 2.2,0 0,-4.2 c 0,-0.8 -0.2,-1.3 -0.5,-1.8 -0.3,-0.5 -0.8,-0.6 -1.5,-0.6 -0.5,0 -0.9,0.2 -1.2,0.5 -0.3,0.4 -0.5,0.9 -0.6,1.5 l -0.7,5.6 -1.3,0 0.8,-5.4 z"
         id="path799"
         style="fill:#ffffff" />
    </g>
  </g>
</svg>
