<?xml version="1.0" encoding="UTF-8" standalone="no"?>
<svg
   xmlns:dc="http://purl.org/dc/elements/1.1/"
   xmlns:cc="http://creativecommons.org/ns#"
   xmlns:rdf="http://www.w3.org/1999/02/22-rdf-syntax-ns#"
   xmlns:svg="http://www.w3.org/2000/svg"
   xmlns="http://www.w3.org/2000/svg"
   width="255.2"
   height="151.73"
   viewBox="0 0 255.2 151.73"
   id="svg3949"
   version="1.1">
  <defs
     id="defs3951" />
  <metadata
     id="metadata3954">
    <rdf:RDF>
      <cc:Work
         rdf:about="">
        <dc:format>image/svg+xml</dc:format>
        <dc:type
           rdf:resource="http://purl.org/dc/dcmitype/StillImage" />
        <dc:title></dc:title>
      </cc:Work>
    </rdf:RDF>
  </metadata>
  <g
     id="layer1"
     transform="translate(-251.58071,-396.4972)">
    <polygon
       class="st943"
       points="753.37,247.16 688.7,398.48 766.51,373.83 "
       id="polygon7437"
       style="fill:#b48e59"
       transform="translate(-309.51929,149.7472)" />
    <polygon
       class="st944"
       points="561.1,380.01 565.92,254.08 753.38,246.75 766.51,373.83 "
       id="polygon7439"
       style="fill:#d68a2a;fill-opacity:1"
       transform="translate(-309.51929,149.7472)" />
    <path
       id="path973_1_"
       class="st934"
       d="m 427.54071,458.30721 c -1.86,0 -3.26,-1.4 -3.26,-3.26 0,-1.87 1.4,-3.26 3.26,-3.26 1.87,0 3.26,1.4 3.26,3.26 0,1.87 -1.39,3.26 -3.26,3.26 l 0,0 z m -6.06,7.46 c -1.86,0 -3.26,-1.4 -3.26,-3.26 0,-1.86 1.4,-3.26 3.26,-3.26 1.87,0 3.26,1.4 3.26,3.26 0,1.86 -1.39,3.26 -3.26,3.26 l 0,0 z m -12.11,-6.06 c 0,0.93 -0.93,1.86 -1.86,1.86 l -4.19,0 0,4.19 c 0,0.93 -0.93,1.86 -1.86,1.86 l -1.4,0 c -0.93,0 -1.86,-0.93 -1.86,-1.86 l 0,-4.19 -4.19,0 c -0.93,0 -1.86,-0.93 -1.86,-1.86 l 0,-1.4 c 0,-0.93 0.93,-1.86 1.86,-1.86 l 4.19,0 0,-4.19 c 0,-0.93 0.93,-1.86 1.86,-1.86 l 1.4,0 c 0.93,0 1.86,0.93 1.86,1.86 l 0,4.19 4.19,0 c 0.93,0 1.86,0.93 1.86,1.86 l 0,1.4 z m 30.28,0.93 c -2.8,-12.58 -6.52,-15.84 -9.32,-17.24 -3.73,-1.86 -8.39,-0.93 -9.79,0 -1.86,0.93 -2.79,2.33 -4.66,3.26 -1.86,0.93 -4.66,0.93 -6.52,0 -1.4,-0.93 -2.79,-2.33 -5.12,-3.26 -2.33,-0.93 -6.52,-2.33 -10.71,0.47 -0.93,0.46 -7.92,6.52 -9.79,24.23 -1.4,11.18 4.66,14.44 4.66,14.44 1.4,0.93 5.13,2.8 9.78,0 3.26,-1.86 5.59,-6.06 5.59,-6.06 0,0 0.93,-2.33 2.8,-3.26 0.93,-0.47 2.79,0 2.79,0 l 5.59,0 c 0,0 1.86,0 3.26,0.46 1.4,0.47 1.86,1.86 1.86,1.86 0,0 3.73,4.66 7.46,7.46 1.4,0.93 7.92,2.33 10.71,-1.4 2.35,-2.32 3.74,-10.24 1.41,-20.96 l 0,0 z"
       style="opacity:1;fill:#be8d4b;fill-opacity:1" />
    <g
       id="g7464"
       transform="translate(-309.51929,149.7472)">
      <path
         class="st946"
         d="m 609.84,270.97 c 0,-0.81 0.07,-1.43 0.21,-1.88 0.14,-0.45 0.33,-0.85 0.56,-1.22 l 2.49,0 c -0.18,0.72 -0.27,1.66 -0.27,2.82 l 0,5.25 -2.99,0 0,-4.97 z m 8.58,-4.29 c 0,-0.98 -0.24,-1.69 -0.71,-2.15 -0.47,-0.46 -1.21,-0.68 -2.21,-0.68 l -5.64,0 0,-2.43 5.85,0 c 1.87,0 3.31,0.46 4.3,1.39 1,0.92 1.5,2.26 1.5,4 l 0,9.13 -3.09,0 0,-9.26 z"
         id="path7466"
         style="fill:#ffffff" />
      <path
         class="st946"
         d="m 626.96,263.85 -2.45,0 0,-2.43 5.55,0 0,8.19 -3.1,0 0,-5.76 z"
         id="path7468"
         style="fill:#ffffff" />
      <path
         class="st946"
         d="m 635.7,263.85 -2.45,0 0,-2.43 5.55,0 0,8.19 -3.1,0 0,-5.76 z"
         id="path7470"
         style="fill:#ffffff" />
      <path
         class="st946"
         d="m 648.51,273.56 c 1.12,-0.04 1.99,-0.39 2.63,-1.04 0.64,-0.66 0.96,-1.58 0.96,-2.77 l 0,-5.9 -8.68,0 0,-2.43 11.78,0 0,8.26 c 0,1.28 -0.27,2.38 -0.81,3.31 -0.54,0.93 -1.31,1.64 -2.32,2.14 -1,0.5 -2.19,0.77 -3.56,0.81 l 0,-2.38 z m -4.89,-2.87 c 0,-0.8 0.07,-1.42 0.21,-1.86 0.14,-0.44 0.32,-0.85 0.54,-1.23 l 2.5,0 c -0.18,0.67 -0.27,1.6 -0.27,2.81 l 0,10.61 -2.99,0 0,-10.33 z"
         id="path7472"
         style="fill:#ffffff" />
      <path
         class="st946"
         d="m 660.04,261.42 5.92,0 c 3.82,0 5.74,1.84 5.76,5.52 l 0,9 -3.09,0 -0.01,-9.22 c 0,-0.98 -0.21,-1.71 -0.64,-2.17 -0.43,-0.46 -1.1,-0.7 -2.01,-0.7 l -2.84,0 0,12.08 -3.1,0 0.01,-14.51 z"
         id="path7474"
         style="fill:#ffffff" />
      <path
         class="st946"
         d="m 679.17,272.87 c 0.74,0.32 1.53,0.57 2.36,0.74 0.83,0.18 1.61,0.27 2.34,0.27 1.16,0 2.19,-0.17 3.08,-0.49 0.89,-0.33 1.59,-0.83 2.09,-1.51 0.5,-0.68 0.76,-1.53 0.76,-2.56 l 0,-7.9 2.99,0 0,8.23 c 0,1.45 -0.39,2.68 -1.17,3.68 -0.78,1.01 -1.83,1.76 -3.16,2.26 -1.33,0.5 -2.81,0.75 -4.46,0.75 -1.28,0 -2.6,-0.15 -3.96,-0.46 -1.36,-0.31 -2.65,-0.75 -3.87,-1.34 l 0,-13.12 2.99,0 0,11.45 z m 3.58,-2.59 c 0.12,-0.57 0.18,-1.2 0.18,-1.91 l 0,-6.95 3,0 0,6.34 c 0,0.83 -0.1,1.58 -0.3,2.25 -0.2,0.67 -0.49,1.21 -0.86,1.63 l -2.54,-0.05 c 0.23,-0.31 0.4,-0.75 0.52,-1.31 z"
         id="path7476"
         style="fill:#ffffff" />
      <path
         class="st946"
         d="m 698.52,267.27 c 0.08,-0.66 0.26,-1.28 0.53,-1.87 0.27,-0.59 0.59,-1.05 0.96,-1.39 0.06,-0.06 0.13,-0.11 0.21,-0.16 l -0.02,-0.05 c -0.33,0.06 -0.75,0.15 -1.25,0.29 -0.5,0.13 -0.93,0.27 -1.31,0.41 l -0.68,-2.27 c 0.94,-0.34 2.03,-0.62 3.25,-0.82 1.22,-0.21 2.36,-0.31 3.42,-0.31 2.09,0 3.68,0.54 4.78,1.63 1.09,1.09 1.65,2.68 1.65,4.79 l 0,8.42 -6.18,0 0,-2.43 3.08,0 0,-6.38 c 0,-1.12 -0.24,-1.98 -0.72,-2.58 -0.48,-0.6 -1.17,-0.9 -2.06,-0.9 -0.73,0 -1.33,0.29 -1.78,0.85 -0.46,0.57 -0.74,1.37 -0.86,2.4 l -0.96,9.03 -3.06,0 1,-8.66 z"
         id="path7478"
         style="fill:#ffffff" />
      <path
         class="st946"
         d="m 608.08,277.77 0,-1.22 103.71,0 0,1.22 -103.71,0 z"
         id="path7480"
         style="fill:#ffffff" />
      <path
         class="st946"
         d="m 602.88,289.01 c 0.75,0.73 1.13,1.83 1.13,3.32 l 0,7.1 -1.81,0 -0.01,-7.21 c 0,-1 -0.21,-1.72 -0.64,-2.17 -0.43,-0.45 -1.12,-0.67 -2.07,-0.67 l -1.63,0 c -0.21,0.35 -0.39,0.8 -0.51,1.35 -0.12,0.55 -0.19,1.11 -0.19,1.69 l 0,3.88 c 0,1.05 -0.25,1.86 -0.75,2.4 -0.5,0.54 -1.23,0.82 -2.19,0.82 -0.28,0 -0.65,-0.03 -1.12,-0.09 l 0,-1.46 c 0.21,0.03 0.43,0.04 0.67,0.04 0.57,0 0.98,-0.15 1.24,-0.44 0.26,-0.29 0.39,-0.76 0.39,-1.39 l 0,-3.63 c 0,-0.59 0.08,-1.18 0.23,-1.77 0.15,-0.59 0.37,-1.06 0.64,-1.41 l -2.16,0 0,-1.46 5.36,0 c 1.53,0.02 2.67,0.38 3.42,1.1 z"
         id="path7482"
         style="fill:#ffffff" />
      <path
         class="st946"
         d="m 608.31,289.38 -1.34,0 0,-1.46 3.15,0 0,11.5 -1.82,0 0,-10.04 z"
         id="path7484"
         style="fill:#ffffff" />
      <path
         class="st946"
         d="m 621.94,289.07 -4.22,10.36 -1.94,0 4.17,-10.05 -6.75,0 0,-4.95 1.81,0 0,3.5 6.93,0 0,1.14 z"
         id="path7486"
         style="fill:#ffffff" />
      <path
         class="st946"
         d="m 625.48,289.38 -1.34,0 0,-1.46 3.15,0 0,11.5 -1.82,0 0,-10.04 z"
         id="path7488"
         style="fill:#ffffff" />
      <path
         class="st946"
         d="m 633.56,298.98 c -0.73,-0.44 -1.3,-1.06 -1.71,-1.86 -0.41,-0.8 -0.62,-1.72 -0.63,-2.77 l 0,-1.17 c 0,-0.5 0.07,-1 0.21,-1.49 0.14,-0.49 0.33,-0.94 0.58,-1.33 0.25,-0.39 0.53,-0.69 0.84,-0.9 0.05,-0.04 0.1,-0.06 0.14,-0.08 l -0.01,-0.03 c -0.34,0.04 -1.03,0.2 -2.06,0.48 l -0.35,-1.37 c 0.76,-0.23 1.62,-0.41 2.58,-0.55 0.96,-0.14 1.84,-0.21 2.65,-0.21 1.07,0 1.99,0.21 2.76,0.63 0.77,0.42 1.36,1.03 1.78,1.82 0.42,0.79 0.62,1.73 0.62,2.83 l 0,1.38 c 0,1.05 -0.2,1.97 -0.61,2.77 -0.41,0.8 -0.97,1.42 -1.71,1.86 -0.74,0.44 -1.58,0.66 -2.55,0.66 -0.95,-0.01 -1.79,-0.23 -2.53,-0.67 z m 4.13,-1.33 c 0.47,-0.31 0.83,-0.75 1.08,-1.31 0.25,-0.56 0.38,-1.22 0.38,-1.96 l 0,-1.38 c 0,-0.77 -0.13,-1.44 -0.39,-2.01 -0.26,-0.57 -0.63,-1.01 -1.1,-1.31 -0.47,-0.3 -1.04,-0.45 -1.68,-0.45 -0.58,0 -1.09,0.15 -1.53,0.46 -0.44,0.31 -0.78,0.76 -1.03,1.34 -0.25,0.58 -0.37,1.27 -0.39,2.06 l 0,1.28 c 0,0.74 0.13,1.4 0.38,1.96 0.25,0.56 0.61,1 1.07,1.31 0.46,0.31 0.99,0.46 1.6,0.46 0.61,0 1.15,-0.14 1.61,-0.45 z"
         id="path7490"
         style="fill:#ffffff" />
      <path
         class="st946"
         d="m 643.39,299.41 0.05,-1.42 c 0.42,0.08 0.9,0.13 1.43,0.13 0.53,0 0.93,-0.15 1.2,-0.46 0.27,-0.31 0.4,-0.78 0.4,-1.42 l 0,-6.87 -2.26,0 0,-1.46 4.07,0 0,8.47 c 0,1.05 -0.26,1.86 -0.78,2.41 -0.52,0.55 -1.27,0.83 -2.25,0.83 -0.59,0 -1.21,-0.07 -1.86,-0.21 z"
         id="path7492"
         style="fill:#ffffff" />
      <path
         class="st946"
         d="m 652.87,289.38 -1.34,0 0,-1.46 3.15,0 0,11.5 -1.82,0 0,-10.04 z"
         id="path7494"
         style="fill:#ffffff" />
      <path
         class="st946"
         d="m 662.59,298 c 0.64,-0.02 1.21,-0.16 1.69,-0.43 0.48,-0.27 0.86,-0.64 1.12,-1.13 0.26,-0.49 0.4,-1.06 0.4,-1.72 l 0,-5.34 -7.1,0 0,-1.46 8.92,0 0,6.76 c 0,0.96 -0.21,1.79 -0.62,2.5 -0.41,0.71 -1,1.25 -1.76,1.64 -0.76,0.39 -1.64,0.59 -2.65,0.61 l 0,-1.43 z m -3.66,-2.89 c 0,-0.59 0.04,-1.05 0.13,-1.39 0.09,-0.34 0.21,-0.68 0.38,-1.03 l 1.48,0 c -0.08,0.29 -0.14,0.62 -0.18,0.98 -0.04,0.36 -0.05,0.8 -0.05,1.33 l 0,8.49 -1.76,0 0,-8.38 z"
         id="path7496"
         style="fill:#ffffff" />
      <path
         class="st946"
         d="m 677.1,287.93 9.18,0 0,11.5 -9.18,0 0,-11.5 z m 7.38,10.03 0,-8.58 -5.57,0 0,8.58 5.57,0 z"
         id="path7498"
         style="fill:#ffffff" />
      <path
         class="st946"
         d="m 690.33,287.93 4.33,0 c 1.52,0 2.66,0.36 3.41,1.09 0.75,0.73 1.13,1.83 1.13,3.32 l 0,7.1 -1.81,0 0,-7.21 c 0,-1 -0.21,-1.72 -0.64,-2.17 -0.43,-0.45 -1.12,-0.67 -2.07,-0.67 l -2.54,0 -0.01,10.05 -1.81,0 0.01,-11.51 z"
         id="path7500"
         style="fill:#ffffff" />
      <path
         class="st946"
         d="m 711.07,289.01 c 0.75,0.73 1.13,1.83 1.13,3.32 l 0,7.1 -1.81,0 -0.01,-7.21 c 0,-1 -0.21,-1.72 -0.64,-2.17 -0.43,-0.45 -1.12,-0.67 -2.07,-0.67 l -1.63,0 c -0.21,0.35 -0.39,0.8 -0.51,1.35 -0.12,0.55 -0.19,1.11 -0.19,1.69 l 0,3.88 c 0,1.05 -0.25,1.86 -0.75,2.4 -0.5,0.54 -1.23,0.82 -2.19,0.82 -0.28,0 -0.65,-0.03 -1.12,-0.09 l 0,-1.46 c 0.21,0.03 0.43,0.04 0.67,0.04 0.57,0 0.98,-0.15 1.24,-0.44 0.26,-0.29 0.39,-0.76 0.39,-1.39 l 0,-3.63 c 0,-0.59 0.08,-1.18 0.23,-1.77 0.15,-0.59 0.37,-1.06 0.64,-1.41 l -2.16,0 0,-1.46 5.36,0 c 1.53,0.02 2.67,0.38 3.42,1.1 z"
         id="path7502"
         style="fill:#ffffff" />
      <path
         class="st946"
         d="m 716.73,292.11 c 0.07,-0.53 0.22,-1.04 0.45,-1.51 0.23,-0.47 0.52,-0.83 0.83,-1.09 0.03,-0.02 0.09,-0.06 0.2,-0.14 l -0.02,-0.03 c -0.29,0.05 -0.66,0.14 -1.1,0.25 -0.44,0.11 -0.84,0.23 -1.21,0.36 l -0.42,-1.37 c 0.75,-0.26 1.6,-0.47 2.54,-0.63 0.94,-0.16 1.8,-0.24 2.59,-0.24 1.55,0 2.73,0.41 3.55,1.24 0.82,0.83 1.23,2.03 1.24,3.63 l 0,6.86 -4.74,0 0,-1.46 2.93,0 0,-5.61 c 0,-1.02 -0.23,-1.8 -0.69,-2.33 -0.46,-0.53 -1.13,-0.8 -2.01,-0.8 -0.63,0 -1.16,0.24 -1.58,0.73 -0.42,0.49 -0.68,1.14 -0.78,1.98 l -0.87,7.49 -1.79,0 0.88,-7.33 z"
         id="path7504"
         style="fill:#ffffff" />
      <path
         class="st946"
         d="m 619.73,315.71 c 0,-1 -0.22,-1.72 -0.67,-2.16 -0.45,-0.44 -1.17,-0.67 -2.17,-0.67 l -4.17,0 0,-1.46 4.26,0 c 1.5,0 2.64,0.36 3.41,1.09 0.77,0.73 1.16,1.81 1.16,3.24 l 0,7.17 -1.82,0 0,-7.21 z m -6.99,3.29 c 0,-0.59 0.04,-1.06 0.13,-1.4 0.09,-0.34 0.21,-0.69 0.38,-1.03 l 1.48,0 c -0.08,0.3 -0.14,0.63 -0.18,1 -0.04,0.37 -0.06,0.8 -0.06,1.32 l 0,4.04 -1.76,0 0,-3.93 z"
         id="path7506"
         style="fill:#ffffff" />
      <path
         class="st946"
         d="m 633.08,312.56 -4.22,10.36 -1.94,0 4.17,-10.05 -6.75,0 0,-4.95 1.81,0 0,3.5 6.93,0 0,1.14 z"
         id="path7508"
         style="fill:#ffffff" />
      <path
         class="st946"
         d="m 638.18,322.95 c -0.67,-0.11 -1.32,-0.27 -1.93,-0.49 l 0.35,-1.36 c 0.57,0.18 1.15,0.31 1.74,0.4 0.59,0.09 1.12,0.13 1.59,0.13 1.07,-0.01 1.89,-0.28 2.47,-0.81 0.58,-0.53 0.87,-1.28 0.87,-2.27 l 0,-5.68 -4.61,0 c -0.21,0.36 -0.38,0.81 -0.5,1.36 -0.12,0.55 -0.19,1.1 -0.19,1.65 l 0,0.88 c 0.14,0.06 0.33,0.11 0.58,0.14 0.25,0.03 0.56,0.04 0.95,0.04 l 0,1.56 c -0.81,0 -1.44,-0.05 -1.9,-0.14 -0.46,-0.09 -0.92,-0.27 -1.39,-0.51 l -0.04,-1.48 c 0,-0.66 0.08,-1.3 0.25,-1.93 0.17,-0.63 0.39,-1.15 0.68,-1.56 l -1.4,0 0,-1.46 9.38,0 0,6.8 c 0,1.08 -0.21,1.99 -0.63,2.72 -0.42,0.73 -1.01,1.28 -1.76,1.64 -0.75,0.36 -1.63,0.54 -2.62,0.54 -0.59,0 -1.22,-0.06 -1.89,-0.17 z"
         id="path7510"
         style="fill:#ffffff" />
      <path
         class="st946"
         d="m 647.93,322.9 0.05,-1.42 c 0.42,0.08 0.9,0.13 1.43,0.13 0.53,0 0.93,-0.15 1.2,-0.46 0.27,-0.31 0.4,-0.78 0.4,-1.42 l 0,-6.87 -2.26,0 0,-1.46 4.07,0 0,8.47 c 0,1.05 -0.26,1.86 -0.78,2.41 -0.52,0.55 -1.27,0.83 -2.25,0.83 -0.59,0.01 -1.22,-0.06 -1.86,-0.21 z"
         id="path7512"
         style="fill:#ffffff" />
      <path
         class="st946"
         d="m 655.29,322.97 0,-1.67 c 0.18,0.03 0.36,0.04 0.57,0.04 0.94,-0.03 1.7,-0.31 2.29,-0.85 0.59,-0.54 0.96,-1.24 1.12,-2.09 l 0,-5.52 -2.6,0 0,-1.46 4.38,0 0,5.94 c 0,0.61 0.06,1.19 0.19,1.76 l 0.8,3.81 -1.71,0 -0.67,-3.22 -0.07,0 c -0.08,0.58 -0.3,1.12 -0.65,1.63 -0.35,0.51 -0.82,0.91 -1.37,1.22 -0.55,0.31 -1.16,0.45 -1.81,0.45 -0.22,-0.01 -0.38,-0.02 -0.47,-0.04 z"
         id="path7514"
         style="fill:#ffffff" />
      <path
         class="st946"
         d="m 678.66,312.51 c 0.75,0.73 1.13,1.83 1.13,3.32 l 0,7.1 -1.81,0 -0.01,-7.21 c 0,-1 -0.21,-1.72 -0.64,-2.17 -0.43,-0.45 -1.12,-0.67 -2.07,-0.67 l -1.63,0 c -0.21,0.35 -0.39,0.8 -0.51,1.35 -0.12,0.55 -0.19,1.11 -0.19,1.69 l 0,3.88 c 0,1.05 -0.25,1.86 -0.75,2.4 -0.5,0.54 -1.23,0.82 -2.19,0.82 -0.28,0 -0.65,-0.03 -1.12,-0.09 l 0,-1.46 c 0.21,0.03 0.43,0.04 0.67,0.04 0.57,0 0.98,-0.15 1.24,-0.44 0.26,-0.29 0.39,-0.76 0.39,-1.39 l 0,-3.63 c 0,-0.59 0.08,-1.18 0.23,-1.77 0.15,-0.59 0.37,-1.06 0.64,-1.41 l -2.16,0 0,-1.46 5.36,0 c 1.53,0.01 2.67,0.37 3.42,1.1 z"
         id="path7516"
         style="fill:#ffffff" />
      <path
         class="st946"
         d="m 682.36,322.9 0.05,-1.42 c 0.42,0.08 0.9,0.13 1.43,0.13 0.53,0 0.93,-0.15 1.2,-0.46 0.27,-0.31 0.4,-0.78 0.4,-1.42 l 0,-6.87 -2.26,0 0,-1.46 4.07,0 0,8.47 c 0,1.05 -0.26,1.86 -0.78,2.41 -0.52,0.55 -1.27,0.83 -2.25,0.83 -0.59,0.01 -1.21,-0.06 -1.86,-0.21 z"
         id="path7518"
         style="fill:#ffffff" />
      <path
         class="st946"
         d="m 692.17,312.87 -2.11,0 0,-1.46 3.93,0 0,6.42 -1.82,0 0,-4.96 z"
         id="path7520"
         style="fill:#ffffff" />
      <path
         class="st946"
         d="m 699.93,322.95 c -0.67,-0.11 -1.32,-0.27 -1.93,-0.49 l 0.35,-1.36 c 0.57,0.18 1.15,0.31 1.74,0.4 0.59,0.09 1.12,0.13 1.59,0.13 1.07,-0.01 1.89,-0.28 2.47,-0.81 0.58,-0.53 0.87,-1.28 0.87,-2.27 l 0,-5.68 -4.61,0 c -0.21,0.36 -0.38,0.81 -0.5,1.36 -0.12,0.55 -0.19,1.1 -0.19,1.65 l 0,0.88 c 0.14,0.06 0.33,0.11 0.58,0.14 0.25,0.03 0.56,0.04 0.95,0.04 l 0,1.56 c -0.81,0 -1.44,-0.05 -1.9,-0.14 -0.46,-0.09 -0.92,-0.27 -1.39,-0.51 l -0.04,-1.48 c 0,-0.66 0.08,-1.3 0.25,-1.93 0.17,-0.63 0.39,-1.15 0.68,-1.56 l -1.4,0 0,-1.46 9.38,0 0,6.8 c 0,1.08 -0.21,1.99 -0.63,2.72 -0.42,0.73 -1.01,1.28 -1.76,1.64 -0.75,0.36 -1.63,0.54 -2.62,0.54 -0.59,0 -1.22,-0.06 -1.89,-0.17 z"
         id="path7522"
         style="fill:#ffffff" />
      <path
         class="st946"
         d="m 613.49,334.91 4.33,0 c 1.52,0 2.66,0.36 3.41,1.09 0.75,0.73 1.13,1.83 1.13,3.32 l 0,7.1 -1.81,0 0,-7.21 c 0,-1 -0.21,-1.72 -0.64,-2.17 -0.43,-0.45 -1.12,-0.67 -2.07,-0.67 l -2.54,0 -0.01,10.05 -1.81,0 0.01,-11.51 z"
         id="path7524"
         style="fill:#ffffff" />
      <path
         class="st946"
         d="m 626.67,336.37 -1.34,0 0,-1.46 3.15,0 0,11.5 -1.82,0 0,-10.04 z"
         id="path7526"
         style="fill:#ffffff" />
      <path
         class="st946"
         d="m 640.3,336.05 -4.22,10.36 -1.94,0 4.17,-10.05 -6.75,0 0,-4.95 1.81,0 0,3.5 6.93,0 0,1.14 z"
         id="path7528"
         style="fill:#ffffff" />
      <path
         class="st946"
         d="m 649.63,336.37 -2.11,0 0,-1.46 3.93,0 0,6.42 -1.82,0 0,-4.96 z"
         id="path7530"
         style="fill:#ffffff" />
      <path
         class="st946"
         d="m 659.16,344.99 c 0.64,-0.02 1.21,-0.16 1.69,-0.43 0.48,-0.27 0.86,-0.64 1.12,-1.13 0.26,-0.49 0.4,-1.06 0.4,-1.72 l 0,-5.34 -7.1,0 0,-1.46 8.92,0 0,6.76 c 0,0.96 -0.21,1.79 -0.62,2.5 -0.41,0.71 -1,1.25 -1.76,1.64 -0.76,0.39 -1.64,0.59 -2.65,0.61 l 0,-1.43 z m -3.67,-2.89 c 0,-0.59 0.04,-1.05 0.13,-1.39 0.09,-0.34 0.21,-0.68 0.38,-1.03 l 1.48,0 c -0.08,0.29 -0.14,0.62 -0.18,0.98 -0.04,0.36 -0.05,0.8 -0.05,1.33 l 0,8.49 -1.76,0 0,-8.38 z"
         id="path7532"
         style="fill:#ffffff" />
      <path
         class="st946"
         d="m 668.23,334.91 4.33,0 c 1.52,0 2.66,0.36 3.41,1.09 0.75,0.73 1.13,1.83 1.13,3.32 l 0,7.1 -1.81,0 0,-7.21 c 0,-1 -0.21,-1.72 -0.64,-2.17 -0.43,-0.45 -1.12,-0.67 -2.07,-0.67 l -2.54,0 -0.01,10.05 -1.81,0 0.01,-11.51 z"
         id="path7534"
         style="fill:#ffffff" />
      <path
         class="st946"
         d="m 682.62,344.38 c 0.63,0.27 1.28,0.48 1.97,0.63 0.69,0.15 1.35,0.22 1.97,0.22 0.94,0 1.77,-0.14 2.51,-0.41 0.74,-0.27 1.32,-0.68 1.74,-1.23 0.42,-0.55 0.63,-1.23 0.63,-2.04 l 0,-6.64 1.76,0 0,6.81 c 0,1.08 -0.29,1.99 -0.87,2.74 -0.58,0.75 -1.37,1.3 -2.36,1.67 -0.99,0.37 -2.1,0.56 -3.32,0.56 -0.95,0 -1.93,-0.11 -2.93,-0.34 -1,-0.23 -1.96,-0.56 -2.86,-0.99 l 0,-10.45 1.76,0 0,9.47 z m 3.31,-2.19 c 0.12,-0.45 0.19,-0.97 0.19,-1.56 l 0,-5.72 1.77,0 0,5.4 c 0,0.66 -0.08,1.24 -0.24,1.73 -0.16,0.49 -0.41,0.91 -0.75,1.25 l -1.5,-0.06 c 0.22,-0.24 0.4,-0.59 0.53,-1.04 z"
         id="path7536"
         style="fill:#ffffff" />
      <path
         class="st946"
         d="m 698.02,339.1 c 0.07,-0.53 0.22,-1.04 0.45,-1.51 0.23,-0.47 0.52,-0.83 0.83,-1.09 0.03,-0.02 0.09,-0.06 0.2,-0.14 l -0.02,-0.03 c -0.29,0.05 -0.66,0.14 -1.1,0.25 -0.44,0.11 -0.84,0.23 -1.21,0.36 l -0.42,-1.37 c 0.75,-0.26 1.6,-0.47 2.54,-0.63 0.94,-0.16 1.8,-0.24 2.59,-0.24 1.55,0 2.73,0.41 3.55,1.24 0.82,0.83 1.23,2.03 1.24,3.63 l 0,6.86 -4.74,0 0,-1.46 2.93,0 0,-5.61 c 0,-1.02 -0.23,-1.8 -0.69,-2.33 -0.46,-0.53 -1.13,-0.8 -2.01,-0.8 -0.63,0 -1.16,0.24 -1.58,0.73 -0.42,0.49 -0.68,1.14 -0.78,1.98 l -0.87,7.49 -1.79,0 0.88,-7.33 z"
         id="path7538"
         style="fill:#ffffff" />
    </g>
  </g>
</svg>
