<?xml version="1.0" encoding="UTF-8" standalone="no"?>
<svg
   xmlns:dc="http://purl.org/dc/elements/1.1/"
   xmlns:cc="http://creativecommons.org/ns#"
   xmlns:rdf="http://www.w3.org/1999/02/22-rdf-syntax-ns#"
   xmlns:svg="http://www.w3.org/2000/svg"
   xmlns="http://www.w3.org/2000/svg"
   xmlns:sodipodi="http://sodipodi.sourceforge.net/DTD/sodipodi-0.dtd"
   xmlns:inkscape="http://www.inkscape.org/namespaces/inkscape"
   version="1.1"
   id="svg4769"
   viewBox="0 0 775.27398 428.24899"
   height="428.24899"
   width="775.27399"
   inkscape:version="0.91 r13725"
   sodipodi:docname="cami_floor1.svg">
  <sodipodi:namedview
     pagecolor="#ffffff"
     bordercolor="#666666"
     borderopacity="1"
     objecttolerance="10"
     gridtolerance="10"
     guidetolerance="10"
     inkscape:pageopacity="0"
     inkscape:pageshadow="2"
     inkscape:window-width="1920"
     inkscape:window-height="1018"
     id="namedview102"
     showgrid="false"
     fit-margin-top="0"
     fit-margin-left="0"
     fit-margin-right="0"
     fit-margin-bottom="0"
     units="px"
     inkscape:zoom="4.2028342"
     inkscape:cx="320.91604"
     inkscape:cy="101.35464"
     inkscape:window-x="-8"
     inkscape:window-y="-8"
     inkscape:window-maximized="1"
     inkscape:current-layer="svg4769" />
  <defs
     id="defs4771" />
  <metadata
     id="metadata4774">
    <rdf:RDF>
      <cc:Work
         rdf:about="">
        <dc:format>image/svg+xml</dc:format>
        <dc:type
           rdf:resource="http://purl.org/dc/dcmitype/StillImage" />
        <dc:title />
      </cc:Work>
    </rdf:RDF>
  </metadata>
  <g
     transform="translate(-45.955,-183.81401)"
     id="Layer_2-0">
    <polygon
       style="fill:#7fc3c6"
       points="255.666,289.258 401.632,353.169 453.154,322.525 499.145,300.575 473.966,288.312 521.61,265.393 676.691,331.931 742.884,303.088 812.242,338.103 735.369,382.563 696.132,364.585 541.5,443.89 487.176,509.094 504.257,523.943 472.062,546.896 499.145,566.55 429.099,608.511 362.925,575.587 384.78,562.911 267.384,508.449 320.321,471.006 200.244,412.259 139.56,443.89 45.955,387.727 "
       id="polygon105-7" />
    <polygon
       style="fill:#5690a3"
       points="514.537,292.788 629.773,343.142 629.773,328.542 514.537,277.637 "
       id="polygon107-0" />
    <polygon
       style="fill:#5690a3"
       points="401.66,339.955 258.344,279.574 258.894,291.194 401.66,353.702 "
       id="polygon109-1" />
    <polygon
       style="fill:#5690a3"
       points="544.948,277.637 676.691,336.446 677.403,321.845 544.948,262.487 "
       id="polygon111-6" />
    <polygon
       style="fill:#5690a3"
       points="45.955,387.727 139.56,443.89 139.56,425.642 45.955,368.352 "
       id="polygon113-1" />
    <polygon
       style="fill:#5690a3"
       points="200.244,396.738 320.222,456.354 320.321,471.006 200.244,412.259 "
       id="polygon115-1" />
    <polygon
       style="fill:#5690a3"
       points="267.384,494.89 286.03,504.52 286.253,518.309 267.384,508.449 "
       id="polygon117-8" />
    <polygon
       style="fill:#5690a3"
       points="362.925,575.587 427.433,612.063 427.433,597.858 362.284,562.911 "
       id="polygon119-8" />
    <polygon
       style="fill:#5690a3"
       points="462.939,552.668 504.257,572.682 504.257,559.772 462.448,540.844 "
       id="polygon121-4" />
    <polygon
       style="fill:#5690a3"
       points="483.598,516.369 511.902,530.722 511.902,516.196 483.353,501.671 "
       id="polygon123-2" />
    <polygon
       style="fill:#5690a3"
       points="750.015,306.408 812.242,337.822 821.229,329.667 750.015,293.84 "
       id="polygon125-0" />
    <polygon
       style="fill:#5690a3"
       points="701.8,371.91 735.369,389.341 735.369,374.49 703.09,359.646 "
       id="polygon127-0" />
    <polygon
       style="fill:#5690a3"
       points="182.976,374.064 337.589,449.603 337.589,435.399 182.976,358.676 "
       id="polygon129-5" />
    <polygon
       style="fill:#42818e"
       points="320.222,456.354 320.222,456.354 267.384,494.89 278.492,500.613 320.321,471.006 "
       id="polygon131-9" />
    <polygon
       style="fill:#42818e"
       points="362.284,562.911 374.472,569.564 407.473,552.347 407.473,536.208 "
       id="polygon133-7" />
    <polygon
       style="fill:#42818e"
       points="504.257,559.772 504.257,572.682 427.433,612.063 427.433,597.858 "
       id="polygon135-1" />
    <polygon
       style="fill:#42818e"
       points="511.902,516.196 511.902,530.722 475.816,546.896 462.448,540.844 "
       id="polygon137-7" />
    <polygon
       style="fill:#42818e"
       points="492.902,506.532 483.353,501.671 545.571,431.947 703.09,359.646 701.8,371.91 550.638,445.483 "
       id="polygon139-5" />
    <polygon
       style="fill:#42818e"
       points="493.872,455.468 493.288,440.555 515.699,415.446 660.182,349.05 659.469,361.471 520.765,428.98 "
       id="polygon141-6" />
    <polygon
       style="fill:#42818e"
       points="821.229,329.948 821.229,344.795 735.369,389.341 735.369,374.49 "
       id="polygon143-2" />
    <polygon
       style="fill:#42818e"
       points="677.403,321.845 676.691,336.446 750.015,306.449 750.015,293.84 "
       id="polygon145-9" />
    <polygon
       style="fill:#42818e"
       points="442.486,312.326 497.851,287.322 499.145,302.511 447.629,327.749 401.632,353.169 401.632,339.955 "
       id="polygon147-2" />
    <polygon
       style="fill:#42818e"
       points="45.955,368.352 64.106,379.495 258.894,291.194 258.344,279.574 "
       id="polygon149-6" />
    <polygon
       style="fill:#42818e"
       points="139.56,425.642 139.56,443.89 200.244,412.259 200.244,396.738 "
       id="polygon151-3" />
    <polygon
       style="fill:#42818e"
       points="240.268,339.158 240.268,354.693 208.201,371.053 194.729,364.367 "
       id="polygon153-3" />
    <polygon
       style="fill:#42818e"
       points="283.864,423.297 277.544,428.188 277.544,412.049 283.864,408.438 "
       id="polygon155-9" />
    <polygon
       style="fill:#42818e"
       points="264.458,428.316 264.458,418.313 258.344,425.279 "
       id="polygon157-3" />
    <polygon
       style="fill:#42818e"
       points="405.646,428.188 406.257,414.989 391.914,406.122 337.589,435.399 337.589,449.603 391.914,420.313 "
       id="polygon159-6" />
    <polygon
       style="fill:#42818e"
       points="246.08,389.825 260.01,396.738 293.853,377.396 293.853,363.189 "
       id="polygon161-4" />
    <polygon
       style="fill:#bbce8c"
       points="438.525,342.387 516.69,376.59 523.792,375.36 444.56,340.041 "
       id="polygon163-8" />
    <polyline
       style="fill:#cde3a4"
       points="433.597,339.081 427.433,341.638 510.424,379.329 516.69,376.59  "
       id="polyline165-2" />
    <polygon
       style="fill:#bbce8c"
       points="414.672,343.142 495.513,379.963 502.614,373.423 423.383,338.103 "
       id="polygon167-8" />
    <polyline
       style="fill:#cde3a4"
       points="412.421,339.081 406.257,341.638 489.245,379.329 495.513,376.59  "
       id="polyline169-6" />
    <polygon
       style="fill:#bbce8c"
       points="370.259,353.702 450.39,387.187 482.601,373.423 403.368,338.103 "
       id="polygon171-8" />
    <polyline
       style="fill:#cde3a4"
       points="374.487,348.876 368.324,351.433 451.313,389.124 457.581,386.384  "
       id="polyline173-9" />
    <polygon
       style="fill:#bbce8c"
       points="358.379,352.355 436.544,386.558 443.646,385.328 364.415,350.006 "
       id="polygon175-2" />
    <polyline
       style="fill:#cde3a4"
       points="353.451,349.05 347.288,351.604 430.275,389.296 436.544,386.558  "
       id="polyline177-2" />
    <polygon
       style="fill:#bbce8c"
       points="334.526,353.109 415.367,389.931 422.469,383.39 343.237,348.071 "
       id="polygon179-4" />
    <polyline
       style="fill:#cde3a4"
       points="332.273,349.05 326.111,351.604 409.098,389.296 415.367,386.558  "
       id="polyline181-8" />
    <polygon
       style="fill:#42818e"
       points="449.866,383.269 407.886,379.798 405.646,428.188 523.792,375.36 482.601,369.172 "
       id="polygon183-3" />
    <polygon
       style="fill:#cde3a4"
       points="146.914,334.036 146.914,340.412 121.075,328.167 121.32,321.355 "
       id="polygon185-1" />
    <polygon
       style="fill:#bbce8c"
       points="153.425,332.056 149.141,335.008 121.32,321.355 128.741,318.373 "
       id="polygon187-9" />
    <polygon
       style="fill:#cde3a4"
       points="154.412,326.148 153.425,332.056 126.412,319.427 126.412,313.293 "
       id="polygon189-5" />
    <polygon
       style="fill:#bbce8c"
       points="159.996,322.817 154.412,326.148 126.412,313.293 133.833,310.517 "
       id="polygon191-0" />
    <polygon
       style="fill:#cde3a4"
       points="159.996,316.375 159.996,322.817 133.833,310.517 133.833,304.896 "
       id="polygon193-1" />
    <polygon
       style="fill:#bbce8c"
       points="126.419,366.177 122.135,369.129 94.03,356.172 101.735,352.493 "
       id="polygon195-8" />
    <polygon
       style="fill:#cde3a4"
       points="127.406,360.27 126.419,366.177 99.406,353.548 99.406,347.414 "
       id="polygon197-3" />
    <polygon
       style="fill:#bbce8c"
       points="132.99,357.938 127.406,360.27 99.406,347.414 106.828,344.638 "
       id="polygon199-4" />
    <polygon
       style="fill:#cde3a4"
       points="133.99,351.495 132.99,357.938 106.828,344.638 107.111,339.303 "
       id="polygon201-6" />
    <polygon
       style="fill:#cde3a4"
       points="114.609,377.425 113.622,383.333 86.608,370.704 86.608,364.569 "
       id="polygon203-1" />
    <polygon
       style="fill:#bbce8c"
       points="120.193,374.094 114.609,377.425 86.608,364.569 94.03,361.794 "
       id="polygon205-8" />
    <polygon
       style="fill:#cde3a4"
       points="120.193,367.651 120.193,374.094 94.03,361.794 94.03,356.172 "
       id="polygon207-9" />
    <polygon
       style="fill:#bbce8c"
       points="140.544,349.342 133.833,352.417 107.111,339.303 114.531,336.32 "
       id="polygon209-2" />
    <polygon
       style="fill:#cde3a4"
       points="141.653,343.798 139.56,350.004 113.652,337.076 113.652,330.942 "
       id="polygon211-4" />
    <polygon
       style="fill:#bbce8c"
       points="147.237,340.466 141.653,343.798 113.652,330.942 121.075,328.167 "
       id="polygon213-2" />
    <polygon
       style="fill:#42818e"
       points="182.976,374.064 182.976,358.676 139.56,362.548 113.053,371.053 113.053,387.141 139.56,377.396 "
       id="polygon215-4" />
    <g
       id="Layer_11-5">
      <polygon
         style="fill:#66aaaa"
         points="154.316,341.683 183.951,356.021 299.974,294.776 218.979,263.507 120.193,299.537 133.833,304.896 159.996,316.375 132.99,330.841 "
         id="polygon218-6" />
      <polygon
         style="fill:#346972"
         points="301.042,282.776 299.974,297.776 183.951,356.021 184.808,341.683 "
         id="polygon220-7" />
      <polygon
         style="fill:#346972"
         points="121.397,286.403 120.193,299.537 220.544,262.856 220.174,250.436 "
         id="polygon222-9" />
      <polygon
         style="fill:#4b818e"
         points="218.979,263.507 285.023,290.776 301.042,282.776 219.302,250.519 "
         id="polygon224-3" />
      <polygon
         style="fill:#4b818e"
         points="176.313,279.943 230.569,305.887 230.569,290.776 176.313,267.45 "
         id="polygon226-6" />
    </g>
    <g
       id="Layer_12-4" />
    <polygon
       style="fill:#5690a3"
       points="361.675,539.809 382.805,550.596 372.249,558.046 361.675,553.367 "
       id="polygon229" />
  </g>
  <rect
     style="fill:none"
     id="rect446"
     height="24.398001"
     width="78.612"
     y="120.285"
     x="657.13495" />
  <rect
     style="fill:none"
     id="rect450"
     height="18.179001"
     width="78.609001"
     y="106.02801"
     x="583.73993" />
  <rect
     style="fill:none"
     id="rect458"
     height="30.371"
     width="132.118"
     y="-1.0097656e-005"
     x="90.959991" />
  <text
     sodipodi:linespacing="125%"
     style="font-style:normal;font-variant:normal;font-weight:normal;font-stretch:normal;font-size:21.30374908px;line-height:125%;font-family:Alef;text-align:start;writing-mode:lr-tb;text-anchor:start;fill:#010101"
     id="text460"
     font-size="21.3037"
     x="112.8038"
     y="18.108389">קומת ביניים</text>
  <rect
     style="fill:none"
     id="rect462"
     height="24.398001"
     width="78.612999"
     y="344.83105"
     x="343.83804" />
  <rect
     style="fill:none"
     id="rect480"
     height="24.398001"
     width="78.612999"
     y="178.48003"
     x="54.297997" />
  <rect
     style="fill:none"
     id="rect514"
     height="24.398001"
     width="78.612999"
     y="214.86601"
     x="277.02301" />
  <polygon
     transform="translate(-45.955,-183.81402)"
     style="fill:#a63e32"
     id="polygon524"
     points="191.744,333.749 187.952,332.492 195.744,328.249 189.994,325.249 182.494,329.999 179.994,328.499 172.744,338.249 " />
  <rect
     style="fill:none"
     id="rect526"
     height="18.327"
     width="79.546997"
     y="120.26501"
     x="106.19099" />
  <text
     sodipodi:linespacing="125%"
     style="font-style:normal;font-variant:normal;font-weight:normal;font-stretch:normal;font-size:15.43874931px;line-height:125%;font-family:Alef;text-align:start;writing-mode:lr-tb;text-anchor:start;fill:#010101"
     id="text528"
     font-size="15"
     x="116.97079"
     y="133.0146">מפלס עליון</text>
  <rect
     style="fill:none"
     id="rect534"
     height="24.398001"
     width="78.612999"
     y="59.237995"
     x="164.974" />
  <rect
     style="fill:none"
     id="rect538"
     height="24.398001"
     width="78.612999"
     y="164.32698"
     x="195.442" />
  <rect
     style="fill:none"
     id="rect542"
     height="24.398001"
     width="78.612999"
     y="144.02699"
     x="161.366" />
  <rect
     id="rect579"
     height="24.398001"
     width="78.612999"
     y="99.86599"
     x="390.35602"
     style="fill:none" />
  <g
     transform="translate(-47.515889,-186.18059)"
     id="g566">
    <path
       style="fill:#ac2524"
       inkscape:connector-curvature="0"
       id="path568"
       d="m 307.577,538.08 c 0,0 0.659,-0.324 0.336,-0.47 l -6.088,-2.751 2.991,-1.549 6.222,2.812 c 0.376,0.209 1.143,0.846 -1.422,2.176 l -20.592,10.671 -1.312,-0.592 19.865,-10.297 z m -21.414,6.778 0.495,0.224 -2.905,1.506 -0.951,-0.43 c -0.916,-0.745 2.348,-2.379 2.518,-2.468 l 10.808,-5.601 1.312,0.593 -10.552,5.468 c -1.024,0.531 -0.725,0.708 -0.725,0.708 z" />
    <path
       style="fill:#ac2524"
       inkscape:connector-curvature="0"
       id="path570"
       d="m 320.137,543.092 -12.022,5.842 c -5.724,2.635 -8.518,2.865 -10.562,2.687 l -3.979,-0.43 0.043,-0.022 c -0.794,-0.068 -1.02,-1.041 1.459,-2.325 5.757,-3.076 11.54,-6.182 17.297,-9.26 0.171,-0.088 0.022,-0.03 0.213,-0.11 0.025,-0.197 0.204,-0.53 0.992,-1.086 l 1.484,-1.194 2.319,0.054 -1.162,1.008 c 0,0 -0.175,0.129 -0.061,0.18 l 5.384,2.433 c 0.396,0.218 1.203,0.872 -1.405,2.223 z m -1.675,-0.758 -4.414,-1.994 c -0.368,-0.124 -0.97,0.226 -0.97,0.226 l -15.821,8.476 c 0,0 -0.831,0.412 -0.094,0.455 1.72,0.197 1.562,0.167 3.179,0.4 2.343,0.354 7.215,-2.003 7.215,-2.003 l 10.524,-5.067 c 0.002,0 0.681,-0.315 0.381,-0.493 z" />
    <path
       style="fill:#ac2524"
       inkscape:connector-curvature="0"
       id="path572"
       d="m 322.277,544.681 c 0,0 0.533,-0.257 0.37,-0.413 l -1.065,-0.482 2.991,-1.548 1.161,0.524 c 0.376,0.21 1.124,0.838 -1.442,2.167 l -9.611,4.982 -1.332,-0.602 8.928,-4.628 z" />
    <path
       style="fill:#ac2524"
       inkscape:connector-curvature="0"
       id="path574"
       d="m 312.423,556.599 c -2.563,1.329 -4.038,1.077 -4.499,0.91 l -2.815,-1.272 2.905,-1.506 2.683,1.212 c 0.323,0.146 0.859,-0.15 0.859,-0.15 l 16.493,-8.547 c 0,0 0.573,-0.28 0.294,-0.447 l -1.904,-0.86 2.948,-1.526 2.036,0.92 c 0.376,0.21 1.124,0.838 -1.441,2.167 l -17.559,9.099 z" />
    <path
       style="fill:#ac2524"
       inkscape:connector-curvature="0"
       id="path576"
       d="m 316.202,561.25 -5.079,-2.295 2.905,-1.506 4.946,2.235 c 0.323,0.146 0.946,-0.194 0.946,-0.194 l 16.277,-8.435 c 0,0 0.703,-0.346 0.379,-0.493 l -4.947,-2.235 2.992,-1.548 5.08,2.295 c 0.375,0.209 1.2,0.872 -1.365,2.201 l -17.303,8.967 c -2.435,1.261 -4.411,1.197 -4.831,1.008 z" />
  </g>
</svg>
