<?xml version="1.0" encoding="UTF-8" standalone="no"?>
<svg
   xmlns:dc="http://purl.org/dc/elements/1.1/"
   xmlns:cc="http://creativecommons.org/ns#"
   xmlns:rdf="http://www.w3.org/1999/02/22-rdf-syntax-ns#"
   xmlns:svg="http://www.w3.org/2000/svg"
   xmlns="http://www.w3.org/2000/svg"
   version="1.1"
   id="svg5664"
   viewBox="0 0 65.199998 100.30202"
   height="28.307459mm"
   width="18.400888mm">
  <defs
     id="defs5666" />
  <metadata
     id="metadata5669">
    <rdf:RDF>
      <cc:Work
         rdf:about="">
        <dc:format>image/svg+xml</dc:format>
        <dc:type
           rdf:resource="http://purl.org/dc/dcmitype/StillImage" />
        <dc:title></dc:title>
      </cc:Work>
    </rdf:RDF>
  </metadata>
  <g
     transform="translate(-264.54286,-479.35405)"
     id="layer1">
    <path
       id="path659_1_"
       class="st8"
       d="m 329.74286,511.95607 c 0,18.1 -32.6,67.7 -32.6,67.7 0,0 -32.6,-49.5 -32.6,-67.7 0,-18.2 14.7,-32.6 32.6,-32.6 18,-0.2 32.6,14.5 32.6,32.6"
       style="fill:#e93214;fill-opacity:1" />
    <g
       id="g893"
       transform="translate(-950.35714,249.95607)">
      <path
         class="st7"
         d="m 1227.7,244.3 8.7,0 0,10.9 -8.7,0 0,-10.9 z m 7,9.5 0,-8.2 -5.3,0 0,8.2 5.3,0 z"
         id="path895"
         style="fill:#ffffff" />
      <path
         class="st7"
         d="m 1247.2,245.4 -4,9.8 -1.8,0 4,-9.5 -6.4,0 0,-4.7 1.7,0 0,3.3 6.6,0 0,1.1 z"
         id="path897"
         style="fill:#ffffff" />
      <path
         class="st7"
         d="m 1250.1,245.7 -1.3,0 0,-1.4 3,0 0,10.9 -1.7,0 0,-9.5 z"
         id="path899"
         style="fill:#ffffff" />
      <path
         class="st7"
         d="m 1261.3,250.5 3.5,4.8 -1.9,0 -4.9,-6.7 c -0.7,0.4 -1,1.1 -1,2.1 l 0,4.6 -1.7,0 0,-4 c 0,-0.9 0.2,-1.7 0.5,-2.3 0.3,-0.6 0.8,-1.1 1.5,-1.4 l -2.4,-3.3 1.9,0 3.4,4.7 2.6,-4.7 1.9,0 -3.4,6.2 z"
         id="path901"
         style="fill:#ffffff" />
      <path
         class="st7"
         d="m 1227.2,268.5 -2,0 0,-1.4 3.7,0 0,6.1 -1.7,0 0,-4.7 z"
         id="path903"
         style="fill:#ffffff" />
      <path
         class="st7"
         d="m 1233.8,276.1 c 0.6,0.3 1.2,0.5 1.9,0.6 0.7,0.1 1.3,0.2 1.9,0.2 0.9,0 1.7,-0.1 2.4,-0.4 0.7,-0.3 1.2,-0.6 1.7,-1.2 0.4,-0.5 0.6,-1.2 0.6,-1.9 l 0,-6.3 1.7,0 0,6.5 c 0,1 -0.3,1.9 -0.8,2.6 -0.6,0.7 -1.3,1.2 -2.2,1.6 -0.9,0.4 -2,0.5 -3.2,0.5 -0.9,0 -1.8,-0.1 -2.8,-0.3 -1,-0.2 -1.9,-0.5 -2.7,-0.9 l 0,-9.9 1.7,0 0,8.9 z m 3.1,-2.1 c 0.1,-0.4 0.2,-0.9 0.2,-1.5 l 0,-5.4 1.7,0 0,5.1 c 0,0.6 -0.1,1.2 -0.2,1.6 -0.2,0.5 -0.4,0.9 -0.7,1.2 l -1.4,-0.1 c 0.1,-0.1 0.3,-0.4 0.4,-0.9 z"
         id="path905"
         style="fill:#ffffff" />
      <path
         class="st7"
         d="m 1253.3,273.3 3.5,4.8 -1.9,0 -4.9,-6.7 c -0.7,0.4 -1,1.1 -1,2.1 l 0,4.6 -1.7,0 0,-4 c 0,-0.9 0.2,-1.7 0.5,-2.3 0.3,-0.6 0.8,-1.1 1.5,-1.4 l -2.4,-3.3 1.9,0 3.4,4.7 2.6,-4.7 1.9,0 -3.4,6.2 z"
         id="path907"
         style="fill:#ffffff" />
      <path
         class="st7"
         d="m 1263.9,270.4 c 0,-0.6 -0.2,-1.1 -0.5,-1.4 -0.3,-0.3 -0.8,-0.5 -1.4,-0.5 l -3.7,0 0,-1.4 3.7,0 c 0.7,0 1.4,0.1 1.9,0.4 0.5,0.3 1,0.7 1.2,1.2 0.3,0.5 0.4,1.1 0.4,1.8 l 0,7.5 -1.7,0 0,-7.6 z"
         id="path909"
         style="fill:#ffffff" />
    </g>
  </g>
</svg>
