<?xml version="1.0" encoding="UTF-8" standalone="no"?>
<svg
   xmlns:dc="http://purl.org/dc/elements/1.1/"
   xmlns:cc="http://creativecommons.org/ns#"
   xmlns:rdf="http://www.w3.org/1999/02/22-rdf-syntax-ns#"
   xmlns:svg="http://www.w3.org/2000/svg"
   xmlns="http://www.w3.org/2000/svg"
   version="1.1"
   id="svg6392"
   viewBox="0 0 122.09999 167.20001"
   height="47.187557mm"
   width="34.459332mm">
  <defs
     id="defs6394" />
  <metadata
     id="metadata6397">
    <rdf:RDF>
      <cc:Work
         rdf:about="">
        <dc:format>image/svg+xml</dc:format>
        <dc:type
           rdf:resource="http://purl.org/dc/dcmitype/StillImage" />
        <dc:title></dc:title>
      </cc:Work>
    </rdf:RDF>
  </metadata>
  <g
     transform="translate(-267.52142,-377.33362)"
     id="layer1">
    <rect
       id="rect807_1_"
       x="267.52142"
       y="377.33362"
       class="st48"
       width="122.1"
       height="121.7"
       style="fill:#e93214;fill-opacity:1" />
    <path
       id="path819_8_"
       class="st48"
       d="m 341.77142,517.33363 c 0,7.2 -13.2,27.2 -13.2,27.2 0,0 -13.2,-20 -13.2,-27.2 0,-7.2 5.9,-13.2 13.2,-13.2 7.3,0 13.2,5.9 13.2,13.2"
       style="fill:#e93214;fill-opacity:1" />
    <g
       id="g829_1_"
       transform="translate(-756.39711,563.58287)">
      <g
         id="g632">
        <g
           id="g634">
          <g
             id="g636">
            <g
               id="g638">
              <path
                 id="path837_1_"
                 class="st63"
                 d="m 1088.4,-48.6 c -0.7,-0.3 -1.2,-0.7 -1.7,-1 0.3,-0.5 1,-1.4 0.8,-2.1 0,-0.1 -0.1,-0.5 -0.3,-0.7 -0.1,-0.1 -0.3,-0.1 -0.5,-0.1 -0.3,0 -0.8,0.3 -1.2,0.5 0,-0.1 0,-0.1 0,-0.3 0.1,-0.8 0.5,-1.5 1.2,-1.5 l 0,0 c 0.7,0 1.5,0.5 1.7,1.5 0.5,1.1 0.3,2.3 0,3.7 m -2.2,-1.6 c -0.1,-0.3 -0.3,-0.7 -0.5,-1 0.1,-0.5 0.5,-0.8 0.8,-0.8 0.1,0 0.1,0 0.1,0 0.1,0 0.1,0.1 0.1,0.3 0.4,0.5 -0.2,1 -0.5,1.5 m -0.8,0.7 -0.5,0.3 0.1,-0.7 c 0,-0.1 0.1,-0.5 0.3,-0.8 0.1,0.1 0.3,0.5 0.5,0.7 -0.3,0.4 -0.4,0.5 -0.4,0.5 m 6.5,5.6 c 0,-0.1 -1.2,-3.3 -2.7,-4.2 -0.1,0 -0.1,-0.1 -0.3,-0.1 0.5,-1.5 0.7,-2.9 0.3,-4 -0.3,-1.2 -1.4,-2.1 -2.4,-1.8 -0.8,0 -1.5,0.8 -1.7,1.8 0,0.3 0,0.7 0,1 -0.1,0.3 -0.3,0.5 -0.3,0.7 l -7.9,12.5 c 0,0.1 -0.1,0.1 0,0.3 l 0,0.1 0.1,0 c 0.1,0 0.1,-0.1 0.3,-0.1 l 9.2,-11.3 c 0.5,0.5 1.4,0.8 1.8,1.2 -0.3,0.8 -0.7,1.8 -1,2.9 -1.2,2.9 -0.7,5.3 0.1,5.7 l 0.1,0 c 0,0 0.1,0 0.1,-0.1 0,-0.1 0,-0.3 0,-0.3 -0.7,-0.3 -1.2,-2.5 0,-5.1 0.5,-1 0.8,-2.1 1,-2.9 0,0 0.1,0 0.1,0.1 1.4,0.7 2.5,3.9 2.5,3.9 0,0.1 0.1,0.1 0.3,0.1 0.3,-0.3 0.4,-0.4 0.4,-0.4"
                 style="opacity:1;fill:#ffffff;enable-background:new" />
            </g>
          </g>
        </g>
      </g>
    </g>
    <g
       id="g911"
       transform="translate(-813.57857,328.53364)">
      <path
         class="st7"
         d="m 1095.7,67.5 -1.5,0 0,-1.5 3.3,0 0,4.9 -1.9,0 0,-3.4 z"
         id="path913"
         style="fill:#ffffff" />
      <path
         class="st7"
         d="m 1100.6,67.5 -1.5,0 0,-1.5 3.3,0 0,4.9 -1.9,0 0,-3.4 z"
         id="path915"
         style="fill:#ffffff" />
      <path
         class="st7"
         d="m 1111,67.2 -3,7.5 -2,0 3,-7.3 -4.9,0 0,-4 1.9,0 0,2.6 5,0 0,1.2 z"
         id="path917"
         style="fill:#ffffff" />
      <path
         class="st7"
         d="m 1114.4,74.8 c -0.6,-0.1 -1.1,-0.2 -1.5,-0.4 l 0.3,-1.4 c 0.5,0.1 0.9,0.2 1.4,0.3 0.5,0.1 0.9,0.1 1.2,0.1 0.7,0 1.3,-0.2 1.7,-0.5 0.4,-0.3 0.6,-0.9 0.6,-1.5 l 0,-3.9 -3,0 c -0.1,0.3 -0.2,0.6 -0.3,0.9 -0.1,0.3 -0.1,0.7 -0.1,1 l 0,0.6 c 0.2,0.1 0.5,0.1 0.9,0.1 l 0,1.4 c -0.2,0 -0.4,0 -0.6,0 -0.4,0 -0.8,0 -1.1,-0.1 -0.3,-0.1 -0.7,-0.2 -0.9,-0.4 l 0,-1 c 0,-0.5 0.1,-0.9 0.2,-1.4 0.1,-0.4 0.3,-0.8 0.5,-1.1 l -1,0 0,-1.5 7.5,0 0,5 c 0,0.9 -0.2,1.6 -0.5,2.2 -0.3,0.6 -0.8,1 -1.4,1.3 -0.6,0.3 -1.3,0.4 -2.1,0.4 -0.7,0 -1.2,0 -1.8,-0.1 z"
         id="path919"
         style="fill:#ffffff" />
      <path
         class="st7"
         d="m 1124.2,74.4 c -0.6,-0.3 -1,-0.8 -1.3,-1.4 -0.3,-0.6 -0.5,-1.3 -0.5,-2.1 l 0,-0.7 c 0,-0.3 0,-0.7 0.1,-1 0.1,-0.3 0.2,-0.7 0.4,-0.9 0.2,-0.3 0.3,-0.5 0.5,-0.7 0,0 0.1,-0.1 0.1,-0.1 l 0,0 c -0.2,0 -0.4,0.1 -0.6,0.1 -0.3,0.1 -0.5,0.1 -0.7,0.2 l -0.4,-1.4 c 0.6,-0.2 1.2,-0.3 2,-0.4 0.8,-0.1 1.5,-0.2 2.1,-0.2 0.9,0 1.6,0.2 2.2,0.5 0.6,0.3 1.1,0.8 1.4,1.4 0.3,0.6 0.5,1.4 0.5,2.2 l 0,0.9 c 0,0.8 -0.2,1.5 -0.5,2.1 -0.3,0.6 -0.8,1.1 -1.3,1.4 -0.5,0.3 -1.2,0.5 -2,0.5 -0.8,0.1 -1.4,-0.1 -2,-0.4 z m 3,-1.4 c 0.3,-0.2 0.5,-0.5 0.7,-0.9 0.2,-0.4 0.2,-0.8 0.2,-1.3 l 0,-0.9 c 0,-0.8 -0.2,-1.5 -0.5,-1.9 -0.3,-0.4 -0.8,-0.7 -1.5,-0.7 -0.6,0 -1,0.2 -1.4,0.7 -0.3,0.5 -0.5,1.1 -0.5,2 l 0,0.8 c 0,0.5 0.1,0.9 0.2,1.3 0.2,0.4 0.4,0.7 0.7,0.9 0.3,0.2 0.6,0.3 1,0.3 0.4,0 0.8,0 1.1,-0.3 z"
         id="path921"
         style="fill:#ffffff" />
      <path
         class="st7"
         d="m 1132.4,67.5 -0.9,0 0,-1.5 2.7,0 0,8.7 -1.9,0 0,-7.2 z"
         id="path923"
         style="fill:#ffffff" />
      <path
         class="st7"
         d="m 1139.8,73.3 c 0.7,0 1.2,-0.2 1.6,-0.6 0.4,-0.4 0.6,-0.9 0.6,-1.7 l 0,-3.5 -5.2,0 0,-1.5 7.1,0 0,5 c 0,0.8 -0.2,1.4 -0.5,2 -0.3,0.6 -0.8,1 -1.4,1.3 -0.6,0.3 -1.3,0.5 -2.1,0.5 l 0,-1.5 z m -2.9,-1.7 c 0,-0.5 0,-0.9 0.1,-1.1 0.1,-0.3 0.2,-0.5 0.3,-0.7 l 1.5,0 c -0.1,0.4 -0.2,1 -0.2,1.7 l 0,6.4 -1.8,0 0,-6.3 z"
         id="path925"
         style="fill:#ffffff" />
      <path
         class="st7"
         d="m 1150.1,66 7.2,0 0,8.7 -7.2,0 0,-8.7 z m 5.4,7.3 0,-5.8 -3.5,0 0,5.8 3.5,0 z"
         id="path927"
         style="fill:#ffffff" />
      <path
         class="st7"
         d="m 1159.9,66 3.6,0 c 2.3,0 3.4,1.1 3.5,3.3 l 0,5.4 -1.9,0 0,-5.5 c 0,-0.6 -0.1,-1 -0.4,-1.3 -0.3,-0.3 -0.7,-0.4 -1.2,-0.4 l -1.7,0 0,7.3 -1.9,0 0,-8.8 z"
         id="path929"
         style="fill:#ffffff" />
      <path
         class="st7"
         d="m 1175.5,66.9 c 0.6,0.6 0.9,1.4 0.9,2.5 l 0,5.4 -1.9,0 0,-5.5 c 0,-0.6 -0.1,-1 -0.4,-1.3 -0.3,-0.3 -0.7,-0.4 -1.2,-0.4 l -1.2,0 c -0.1,0.3 -0.2,0.6 -0.3,1 -0.1,0.4 -0.1,0.7 -0.1,1.1 l 0,2.7 c 0,0.8 -0.2,1.5 -0.6,1.9 -0.4,0.5 -1,0.7 -1.8,0.7 -0.3,0 -0.6,0 -1,-0.1 l 0,-1.5 c 0.2,0 0.3,0 0.5,0 0.4,0 0.7,-0.1 0.9,-0.3 0.2,-0.2 0.3,-0.5 0.3,-0.9 l 0,-2.4 c 0,-0.4 0.1,-0.8 0.2,-1.2 0.1,-0.4 0.2,-0.7 0.4,-1 l -1.5,0 0,-1.6 4.3,0 c 1.1,0 2,0.3 2.5,0.9 z"
         id="path931"
         style="fill:#ffffff" />
      <path
         class="st7"
         d="m 1179.2,69.5 c 0,-0.4 0.2,-0.8 0.3,-1.1 0.2,-0.4 0.4,-0.6 0.6,-0.8 0,0 0.1,-0.1 0.1,-0.1 l 0,0 c -0.2,0 -0.4,0.1 -0.7,0.2 -0.3,0.1 -0.6,0.2 -0.8,0.2 l -0.4,-1.4 c 0.6,-0.2 1.2,-0.4 1.9,-0.5 0.7,-0.1 1.4,-0.2 2.1,-0.2 1.3,0 2.2,0.3 2.9,1 0.7,0.7 1,1.6 1,2.9 l 0,5.1 -3.7,0 0,-1.5 1.8,0 0,-3.8 c 0,-0.7 -0.1,-1.2 -0.4,-1.5 -0.3,-0.4 -0.7,-0.5 -1.2,-0.5 -0.4,0 -0.8,0.2 -1.1,0.5 -0.3,0.3 -0.4,0.8 -0.5,1.4 l -0.6,5.4 -1.8,0 0.5,-5.3 z"
         id="path933"
         style="fill:#ffffff" />
      <path
         class="st7"
         d="m 1103.8,92.7 -1.8,0 0,-0.4 2.2,0 0,4.6 -0.4,0 0,-4.2 z"
         id="path935"
         style="fill:#ffffff" />
      <path
         class="st7"
         d="m 1107.7,92.7 -1.8,0 0,-0.4 2.2,0 0,4.6 -0.4,0 0,-4.2 z"
         id="path937"
         style="fill:#ffffff" />
      <path
         class="st7"
         d="m 1116.2,92.5 -3.4,8.2 -0.5,0 3.4,-8.1 -5.4,0 0,-3.2 0.4,0 0,2.8 5.5,0 0,0.3 z"
         id="path939"
         style="fill:#ffffff" />
      <path
         class="st7"
         d="m 1118.4,100.4 0.1,-0.4 c 0.8,0.2 1.5,0.4 2.2,0.4 0.6,0 1.1,-0.1 1.6,-0.3 0.4,-0.2 0.8,-0.5 1,-0.9 0.2,-0.4 0.4,-0.9 0.4,-1.5 l 0,-5 -4.2,0 c -0.2,0.3 -0.4,0.7 -0.6,1.2 -0.1,0.5 -0.2,1 -0.2,1.6 l 0,0.8 c 0.2,0.1 0.5,0.2 0.7,0.2 0.2,0 0.6,0.1 1.2,0.1 l 0,0.4 c -0.6,0 -1,0 -1.3,-0.1 -0.3,-0.1 -0.6,-0.2 -1,-0.3 l 0,-1.1 c 0,-0.5 0.1,-1 0.2,-1.5 0.1,-0.5 0.3,-0.9 0.6,-1.3 l -0.9,0 0,-0.4 6,0 0,5.2 c 0,0.7 -0.1,1.3 -0.4,1.8 -0.3,0.5 -0.7,0.9 -1.2,1.1 -0.5,0.3 -1.1,0.4 -1.8,0.4 -0.7,0 -1.6,-0.1 -2.4,-0.4 z"
         id="path941"
         style="fill:#ffffff" />
      <path
         class="st7"
         d="m 1128.4,100.4 c -0.5,-0.3 -0.9,-0.8 -1.2,-1.3 -0.3,-0.6 -0.4,-1.2 -0.4,-2 l 0,-1.2 c 0,-0.7 0.1,-1.3 0.4,-1.9 0.3,-0.6 0.6,-1 1.1,-1.2 0,0 0.1,0 0.1,-0.1 0.1,0 0.1,0 0.2,-0.1 l 0,0 c -0.4,0 -1.1,0.2 -2.1,0.5 l -0.1,-0.4 c 0.6,-0.2 1.2,-0.3 1.8,-0.4 0.7,-0.1 1.3,-0.2 1.8,-0.2 0.7,0 1.3,0.2 1.8,0.5 0.5,0.3 0.9,0.7 1.2,1.3 0.3,0.6 0.4,1.2 0.4,1.9 l 0,1.2 c 0,0.8 -0.1,1.4 -0.4,2 -0.3,0.6 -0.7,1 -1.2,1.3 -0.5,0.3 -1.1,0.5 -1.8,0.5 -0.7,0 -1.1,-0.1 -1.6,-0.4 z m 3.3,-0.4 c 0.4,-0.3 0.8,-0.7 1,-1.2 0.2,-0.5 0.4,-1.1 0.4,-1.8 l 0,-1.2 c 0,-0.6 -0.1,-1.2 -0.4,-1.7 -0.3,-0.5 -0.6,-0.9 -1.1,-1.2 -0.5,-0.3 -1,-0.4 -1.6,-0.4 -0.5,0 -1,0.1 -1.4,0.4 -0.4,0.3 -0.7,0.7 -1,1.2 -0.2,0.5 -0.4,1.1 -0.4,1.7 l 0,1.2 c 0,0.7 0.1,1.3 0.4,1.8 0.3,0.5 0.6,0.9 1,1.2 0.4,0.3 1,0.4 1.5,0.4 0.5,0 1.1,-0.1 1.6,-0.4 z"
         id="path943"
         style="fill:#ffffff" />
      <path
         class="st7"
         d="m 1136.4,92.7 -1.2,0 0,-0.4 1.7,0 0,8.5 -0.4,0 0,-8.1 z"
         id="path945"
         style="fill:#ffffff" />
      <path
         class="st7"
         d="m 1142.2,100.3 c 0.5,0 1,-0.1 1.4,-0.4 0.4,-0.2 0.7,-0.5 1,-0.9 0.2,-0.4 0.3,-0.8 0.3,-1.2 l 0,-5.2 -5.5,0 0,-0.4 5.9,0 0,5.6 c 0,0.6 -0.1,1.1 -0.4,1.5 -0.3,0.4 -0.6,0.8 -1.1,1 -0.5,0.2 -1,0.4 -1.7,0.4 l 0,-0.4 z m -2.5,-3 c 0,-0.4 0,-0.7 0.1,-1 0.1,-0.3 0.1,-0.5 0.2,-0.8 l 0.4,0 c -0.1,0.2 -0.1,0.5 -0.2,0.8 0,0.3 0,0.6 0,1 l 0,6.4 -0.4,0 0,-6.4 z"
         id="path947"
         style="fill:#ffffff" />
      <path
         class="st7"
         d="m 1152.3,92.7 -1.2,0 0,-0.4 1.7,0 0,11.5 -0.4,0 0,-11.1 z"
         id="path949"
         style="fill:#ffffff" />
      <path
         class="st7"
         d="m 1156.1,92.7 -1.2,0 0,-0.4 1.7,0 0,8.5 -0.4,0 0,-8.1 z"
         id="path951"
         style="fill:#ffffff" />
      <path
         class="st7"
         d="m 1161.9,100.3 c 0.5,0 1,-0.1 1.4,-0.4 0.4,-0.2 0.7,-0.5 1,-0.9 0.2,-0.4 0.3,-0.8 0.3,-1.2 l 0,-5.2 -5.5,0 0,-0.4 5.9,0 0,5.6 c 0,0.6 -0.1,1.1 -0.4,1.5 -0.3,0.4 -0.6,0.8 -1.1,1 -0.5,0.2 -1,0.4 -1.7,0.4 l 0,-0.4 z m -2.5,-3 c 0,-0.4 0,-0.7 0.1,-1 0.1,-0.3 0.1,-0.5 0.2,-0.8 l 0.4,0 c -0.1,0.2 -0.1,0.5 -0.2,0.8 0,0.3 0,0.6 0,1 l 0,6.4 -0.4,0 0,-6.4 z"
         id="path953"
         style="fill:#ffffff" />
      <path
         class="st7"
         d="m 1168.7,92.7 -1.8,0 0,-0.4 2.2,0 0,4.6 -0.4,0 0,-4.2 z"
         id="path955"
         style="fill:#ffffff" />
      <path
         class="st7"
         d="m 1177.4,93.1 c 0.5,0.5 0.8,1.4 0.8,2.5 l 0,5.2 -0.4,0 0,-5.2 c 0,-0.7 -0.1,-1.3 -0.3,-1.7 -0.2,-0.4 -0.5,-0.7 -0.9,-0.9 -0.4,-0.2 -1,-0.3 -1.7,-0.3 l -1.3,0 c -0.2,0.3 -0.4,0.6 -0.6,1.1 -0.2,0.5 -0.2,1 -0.2,1.6 l 0,3.3 c 0,0.7 -0.1,1.2 -0.4,1.5 -0.3,0.3 -0.7,0.5 -1.3,0.5 -0.2,0 -0.4,0 -0.6,0 l 0,-0.4 c 0.2,0 0.4,0 0.5,0 0.5,0 0.8,-0.1 1.1,-0.4 0.3,-0.3 0.3,-0.7 0.3,-1.2 l 0,-3.3 c 0,-0.6 0.1,-1.1 0.2,-1.6 0.1,-0.5 0.3,-0.9 0.6,-1.2 l -1.9,0 0,-0.4 3.6,0 c 1.1,0.1 1.9,0.3 2.5,0.9 z"
         id="path957"
         style="fill:#ffffff" />
      <path
         class="st7"
         d="m 1111,110.3 6.3,0 0,8.5 -6.3,0 0,-8.5 z m 5.9,8 0,-7.7 -5.4,0 0,7.7 5.4,0 z"
         id="path959"
         style="fill:#ffffff" />
      <path
         class="st7"
         d="m 1120.7,110.7 -1.2,0 0,-0.4 1.7,0 0,8.5 -0.4,0 0,-8.1 z"
         id="path961"
         style="fill:#ffffff" />
      <path
         class="st7"
         d="m 1129.2,110.5 -3.4,8.2 -0.5,0 3.4,-8.1 -5.4,0 0,-3.2 0.4,0 0,2.8 5.5,0 0,0.3 z"
         id="path963"
         style="fill:#ffffff" />
      <path
         class="st7"
         d="m 1132.1,110.7 -1.8,0 0,-0.4 2.2,0 0,4.6 -0.4,0 0,-4.2 z"
         id="path965"
         style="fill:#ffffff" />
      <path
         class="st7"
         d="m 1138.1,114.7 2.6,3.7 0,0.3 -5.8,0 0,-0.4 5.3,0 -5.6,-8.1 0.5,0 2.8,4 2.5,-4 0.5,0 -2.8,4.5 z"
         id="path967"
         style="fill:#ffffff" />
      <path
         class="st7"
         d="m 1151.9,111.1 c 0.5,0.5 0.8,1.4 0.8,2.5 l 0,5.2 -0.4,0 0,-5.2 c 0,-0.7 -0.1,-1.3 -0.3,-1.7 -0.2,-0.4 -0.5,-0.7 -0.9,-0.9 -0.4,-0.2 -1,-0.3 -1.7,-0.3 l -1.3,0 c -0.2,0.3 -0.4,0.6 -0.6,1.1 -0.2,0.5 -0.2,1 -0.2,1.6 l 0,3.3 c 0,0.7 -0.1,1.2 -0.4,1.5 -0.3,0.3 -0.7,0.5 -1.3,0.5 -0.2,0 -0.4,0 -0.6,0 l 0,-0.4 c 0.2,0 0.4,0 0.5,0 0.5,0 0.8,-0.1 1.1,-0.4 0.3,-0.3 0.3,-0.7 0.3,-1.2 l 0,-3.3 c 0,-0.6 0.1,-1.1 0.2,-1.6 0.1,-0.5 0.3,-0.9 0.6,-1.2 l -1.9,0 0,-0.4 3.6,0 c 1.2,0.1 2,0.3 2.5,0.9 z"
         id="path969"
         style="fill:#ffffff" />
      <path
         class="st7"
         d="m 1154.5,118.8 0.1,-0.4 c 0.3,0.1 0.6,0.1 1.1,0.1 0.9,0 1.4,-0.6 1.4,-1.7 l 0,-6.1 -2.1,0 0,-0.4 2.5,0 0,6.6 c 0,0.7 -0.2,1.2 -0.5,1.5 -0.3,0.3 -0.8,0.5 -1.4,0.5 -0.4,0 -0.8,-0.1 -1.1,-0.1 z"
         id="path971"
         style="fill:#ffffff" />
      <path
         class="st7"
         d="m 1161.1,110.7 -1.8,0 0,-0.4 2.2,0 0,4.6 -0.4,0 0,-4.2 z"
         id="path973"
         style="fill:#ffffff" />
      <path
         class="st7"
         d="m 1164.3,118.4 0.1,-0.4 c 0.8,0.2 1.5,0.4 2.2,0.4 0.6,0 1.1,-0.1 1.6,-0.3 0.4,-0.2 0.8,-0.5 1,-0.9 0.2,-0.4 0.4,-0.9 0.4,-1.5 l 0,-5 -4.2,0 c -0.2,0.3 -0.4,0.7 -0.6,1.2 -0.1,0.5 -0.2,1 -0.2,1.6 l 0,0.8 c 0.2,0.1 0.5,0.2 0.7,0.2 0.2,0 0.6,0.1 1.2,0.1 l 0,0.4 c -0.6,0 -1,0 -1.3,-0.1 -0.3,-0.1 -0.6,-0.2 -1,-0.3 l 0,-1.1 c 0,-0.5 0.1,-1 0.2,-1.5 0.1,-0.5 0.3,-0.9 0.6,-1.3 l -0.9,0 0,-0.4 6,0 0,5.2 c 0,0.7 -0.1,1.3 -0.4,1.8 -0.3,0.5 -0.7,0.9 -1.2,1.1 -0.5,0.3 -1.1,0.4 -1.8,0.4 -0.7,0 -1.6,-0.1 -2.4,-0.4 z"
         id="path975"
         style="fill:#ffffff" />
      <path
         class="st7"
         d="m 1098,136.4 c -0.5,-0.3 -0.9,-0.8 -1.2,-1.3 -0.3,-0.6 -0.4,-1.2 -0.4,-2 l 0,-1.2 c 0,-0.7 0.1,-1.3 0.4,-1.9 0.3,-0.6 0.6,-1 1.1,-1.2 0,0 0.1,0 0.1,-0.1 0.1,0 0.1,0 0.2,-0.1 l 0,0 c -0.4,0 -1.1,0.2 -2.1,0.5 l -0.1,-0.4 c 0.6,-0.2 1.2,-0.3 1.8,-0.4 0.7,-0.1 1.3,-0.2 1.8,-0.2 0.7,0 1.3,0.2 1.8,0.5 0.5,0.3 0.9,0.7 1.2,1.3 0.3,0.6 0.4,1.2 0.4,1.9 l 0,1.2 c 0,0.8 -0.1,1.4 -0.4,2 -0.3,0.6 -0.7,1 -1.2,1.3 -0.5,0.3 -1.1,0.5 -1.8,0.5 -0.7,0 -1.1,-0.1 -1.6,-0.4 z m 3.3,-0.4 c 0.4,-0.3 0.8,-0.7 1,-1.2 0.2,-0.5 0.4,-1.1 0.4,-1.8 l 0,-1.2 c 0,-0.6 -0.1,-1.2 -0.4,-1.7 -0.3,-0.5 -0.6,-0.9 -1.1,-1.2 -0.5,-0.3 -1,-0.4 -1.6,-0.4 -0.5,0 -1,0.1 -1.4,0.4 -0.4,0.3 -0.7,0.7 -1,1.2 -0.2,0.5 -0.4,1.1 -0.4,1.7 l 0,1.2 c 0,0.7 0.1,1.3 0.4,1.8 0.3,0.5 0.6,0.9 1,1.2 0.4,0.3 1,0.4 1.5,0.4 0.5,0 1.1,-0.1 1.6,-0.4 z"
         id="path977"
         style="fill:#ffffff" />
      <path
         class="st7"
         d="m 1106.2,128.7 -1.8,0 0,-0.4 2.2,0 0,4.6 -0.4,0 0,-4.2 z"
         id="path979"
         style="fill:#ffffff" />
      <path
         class="st7"
         d="m 1110.2,128.7 -1.8,0 0,-0.4 2.2,0 0,4.6 -0.4,0 0,-4.2 z"
         id="path981"
         style="fill:#ffffff" />
      <path
         class="st7"
         d="m 1115.9,136.3 c 0.5,0 1,-0.1 1.4,-0.4 0.4,-0.2 0.7,-0.5 1,-0.9 0.2,-0.4 0.3,-0.8 0.3,-1.2 l 0,-5.2 -5.5,0 0,-0.4 5.9,0 0,5.6 c 0,0.6 -0.1,1.1 -0.4,1.5 -0.3,0.4 -0.6,0.8 -1.1,1 -0.5,0.2 -1,0.4 -1.7,0.4 l 0,-0.4 z m -2.5,-3 c 0,-0.4 0,-0.7 0.1,-1 0.1,-0.3 0.1,-0.5 0.2,-0.8 l 0.4,0 c -0.1,0.2 -0.1,0.5 -0.2,0.8 0,0.3 0,0.6 0,1 l 0,6.4 -0.4,0 0,-6.4 z"
         id="path983"
         style="fill:#ffffff" />
      <path
         class="st7"
         d="m 1122.5,128.7 -1.2,0 0,-0.4 1.7,0 0,8.5 -0.4,0 0,-8.1 z"
         id="path985"
         style="fill:#ffffff" />
      <path
         class="st7"
         d="m 1132,136.7 -4.4,-5.8 c -0.9,0.4 -1.3,1.2 -1.3,2.5 l 0,3.3 -0.4,0 0,-3.3 c 0,-0.7 0.1,-1.3 0.4,-1.7 0.3,-0.5 0.6,-0.8 1.1,-1 l -1.8,-2.4 0.5,0 3.2,4.3 2.7,-4.3 0.5,0 -2.9,4.6 2.9,3.9 -0.5,0 z"
         id="path987"
         style="fill:#ffffff" />
      <path
         class="st7"
         d="m 1135.3,128.7 -1.2,0 0,-0.4 1.7,0 0,8.5 -0.4,0 0,-8.1 z"
         id="path989"
         style="fill:#ffffff" />
      <path
         class="st7"
         d="m 1138.9,135.8 c 0.5,0.2 1,0.4 1.6,0.5 0.6,0.1 1.1,0.2 1.6,0.2 0.7,0 1.4,-0.1 1.9,-0.3 0.6,-0.2 1,-0.5 1.4,-0.9 0.3,-0.4 0.5,-0.9 0.5,-1.5 l 0,-5.4 0.4,0 0,5.4 c 0,0.7 -0.2,1.3 -0.6,1.8 -0.4,0.5 -0.9,0.8 -1.5,1.1 -0.6,0.2 -1.4,0.4 -2.1,0.4 -0.6,0 -1.2,-0.1 -1.9,-0.2 -0.6,-0.1 -1.2,-0.4 -1.8,-0.6 l 0,-7.8 0.4,0 0,7.3 z m 3.1,-1.7 c 0.1,-0.3 0.2,-0.7 0.2,-1.2 l 0,-4.6 0.4,0 0,4.6 c 0,0.5 -0.1,0.9 -0.2,1.2 -0.1,0.3 -0.3,0.6 -0.7,0.9 l -0.4,-0.1 c 0.4,-0.3 0.6,-0.5 0.7,-0.8 z"
         id="path991"
         style="fill:#ffffff" />
      <path
         class="st7"
         d="m 1152.7,128.3 6.3,0 0,8.5 -6.3,0 0,-8.5 z m 5.9,8 0,-7.7 -5.4,0 0,7.7 5.4,0 z"
         id="path993"
         style="fill:#ffffff" />
      <path
         class="st7"
         d="m 1162.4,128.7 -1.2,0 0,-0.4 1.7,0 0,8.5 -0.4,0 0,-8.1 z"
         id="path995"
         style="fill:#ffffff" />
      <path
         class="st7"
         d="m 1166,135.8 c 0.5,0.2 1,0.4 1.6,0.5 0.6,0.1 1.1,0.2 1.6,0.2 0.7,0 1.4,-0.1 1.9,-0.3 0.6,-0.2 1,-0.5 1.4,-0.9 0.3,-0.4 0.5,-0.9 0.5,-1.5 l 0,-5.4 0.4,0 0,5.4 c 0,0.7 -0.2,1.3 -0.6,1.8 -0.4,0.5 -0.9,0.8 -1.5,1.1 -0.6,0.2 -1.4,0.4 -2.2,0.4 -0.6,0 -1.2,-0.1 -1.9,-0.2 -0.6,-0.1 -1.2,-0.4 -1.8,-0.6 l 0,-7.8 0.4,0 0,7.3 z m 3.1,-1.7 c 0.1,-0.3 0.2,-0.7 0.2,-1.2 l 0,-4.6 0.4,0 0,4.6 c 0,0.5 -0.1,0.9 -0.2,1.2 -0.1,0.3 -0.3,0.6 -0.7,0.9 l -0.4,-0.1 c 0.4,-0.3 0.6,-0.5 0.7,-0.8 z"
         id="path997"
         style="fill:#ffffff" />
      <path
         class="st7"
         d="m 1177.1,128.7 -1.8,0 0,-0.4 2.2,0 0,4.6 -0.4,0 0,-4.2 z"
         id="path999"
         style="fill:#ffffff" />
      <path
         class="st7"
         d="m 1184.3,130.5 c 0,-0.4 -0.1,-0.7 -0.2,-1 -0.1,-0.3 -0.4,-0.5 -0.6,-0.6 -0.3,-0.2 -0.6,-0.2 -0.9,-0.2 l -3.2,0 0,-0.4 3.1,0 c 0.7,0 1.3,0.2 1.7,0.6 0.4,0.4 0.6,1 0.6,1.7 l 0,6.1 -0.4,0 0,-6.2 z"
         id="path1001"
         style="fill:#ffffff" />
      <path
         class="st7"
         d="m 1097.4,154.4 c -0.5,-0.3 -0.9,-0.8 -1.2,-1.3 -0.3,-0.6 -0.4,-1.2 -0.4,-2 l 0,-1.2 c 0,-0.7 0.1,-1.3 0.4,-1.9 0.3,-0.6 0.6,-1 1.1,-1.2 0,0 0.1,0 0.1,-0.1 0.1,0 0.1,0 0.2,-0.1 l 0,0 c -0.4,0 -1.1,0.2 -2.1,0.5 l -0.1,-0.4 c 0.6,-0.2 1.2,-0.3 1.8,-0.4 0.7,-0.1 1.3,-0.2 1.8,-0.2 0.7,0 1.3,0.2 1.8,0.5 0.5,0.3 0.9,0.7 1.2,1.3 0.3,0.6 0.4,1.2 0.4,1.9 l 0,1.2 c 0,0.8 -0.1,1.4 -0.4,2 -0.3,0.6 -0.7,1 -1.2,1.3 -0.5,0.3 -1.1,0.5 -1.8,0.5 -0.7,0 -1.1,-0.1 -1.6,-0.4 z m 3.3,-0.4 c 0.4,-0.3 0.8,-0.7 1,-1.2 0.2,-0.5 0.4,-1.1 0.4,-1.8 l 0,-1.2 c 0,-0.6 -0.1,-1.2 -0.4,-1.7 -0.3,-0.5 -0.6,-0.9 -1.1,-1.2 -0.5,-0.3 -1,-0.4 -1.6,-0.4 -0.5,0 -1,0.1 -1.4,0.4 -0.4,0.3 -0.7,0.7 -1,1.2 -0.2,0.5 -0.4,1.1 -0.4,1.7 l 0,1.2 c 0,0.7 0.1,1.3 0.4,1.8 0.3,0.5 0.6,0.9 1,1.2 0.4,0.3 1,0.4 1.5,0.4 0.5,0 1.1,-0.1 1.6,-0.4 z"
         id="path1003"
         style="fill:#ffffff" />
      <path
         class="st7"
         d="m 1105.7,146.7 -1.8,0 0,-0.4 2.2,0 0,4.6 -0.4,0 0,-4.2 z"
         id="path1005"
         style="fill:#ffffff" />
      <path
         class="st7"
         d="m 1109.6,146.7 -1.8,0 0,-0.4 2.2,0 0,4.6 -0.4,0 0,-4.2 z"
         id="path1007"
         style="fill:#ffffff" />
      <path
         class="st7"
         d="m 1115.4,154.3 c 0.5,0 1,-0.1 1.4,-0.4 0.4,-0.2 0.7,-0.5 1,-0.9 0.2,-0.4 0.3,-0.8 0.3,-1.2 l 0,-5.2 -5.5,0 0,-0.4 5.9,0 0,5.6 c 0,0.6 -0.1,1.1 -0.4,1.5 -0.3,0.4 -0.6,0.8 -1.1,1 -0.5,0.2 -1,0.4 -1.7,0.4 l 0,-0.4 z m -2.6,-3 c 0,-0.4 0,-0.7 0.1,-1 0.1,-0.3 0.1,-0.5 0.2,-0.8 l 0.4,0 c -0.1,0.2 -0.1,0.5 -0.2,0.8 0,0.3 0,0.6 0,1 l 0,6.4 -0.4,0 0,-6.4 z"
         id="path1009"
         style="fill:#ffffff" />
      <path
         class="st7"
         d="m 1121.9,146.7 -1.2,0 0,-0.4 1.7,0 0,8.5 -0.4,0 0,-8.1 z"
         id="path1011"
         style="fill:#ffffff" />
      <path
         class="st7"
         d="m 1131.4,154.7 -4.4,-5.8 c -0.9,0.4 -1.3,1.2 -1.3,2.5 l 0,3.3 -0.4,0 0,-3.3 c 0,-0.7 0.1,-1.3 0.4,-1.7 0.3,-0.5 0.6,-0.8 1.1,-1 l -1.8,-2.4 0.5,0 3.2,4.3 2.7,-4.3 0.5,0 -2.9,4.6 2.9,3.9 -0.5,0 z"
         id="path1013"
         style="fill:#ffffff" />
      <path
         class="st7"
         d="m 1134.7,146.7 -1.2,0 0,-0.4 1.7,0 0,8.5 -0.4,0 0,-8.1 z"
         id="path1015"
         style="fill:#ffffff" />
      <path
         class="st7"
         d="m 1138.3,153.8 c 0.5,0.2 1,0.4 1.6,0.5 0.6,0.1 1.1,0.2 1.6,0.2 0.7,0 1.4,-0.1 1.9,-0.3 0.6,-0.2 1,-0.5 1.4,-0.9 0.3,-0.4 0.5,-0.9 0.5,-1.5 l 0,-5.4 0.4,0 0,5.4 c 0,0.7 -0.2,1.3 -0.6,1.8 -0.4,0.5 -0.9,0.8 -1.5,1.1 -0.6,0.2 -1.4,0.4 -2.1,0.4 -0.6,0 -1.2,-0.1 -1.9,-0.2 -0.6,-0.1 -1.2,-0.4 -1.8,-0.6 l 0,-7.8 0.4,0 0,7.3 z m 3.1,-1.7 c 0.1,-0.3 0.2,-0.7 0.2,-1.2 l 0,-4.6 0.4,0 0,4.6 c 0,0.5 -0.1,0.9 -0.2,1.2 -0.1,0.3 -0.3,0.6 -0.7,0.9 l -0.4,-0.1 c 0.4,-0.3 0.6,-0.5 0.7,-0.8 z"
         id="path1017"
         style="fill:#ffffff" />
      <path
         class="st7"
         d="m 1153.7,154.5 c -0.5,-0.3 -0.8,-0.6 -1.1,-1.1 -0.3,-0.5 -0.4,-1 -0.4,-1.7 l 0,-5.5 0.4,0 0,5.4 c 0,0.6 0.1,1 0.3,1.5 0.2,0.5 0.5,0.8 0.9,1 0.4,0.2 0.9,0.4 1.4,0.4 0.5,0 1,-0.1 1.4,-0.4 0.4,-0.2 0.7,-0.6 0.9,-1 0.2,-0.4 0.3,-0.9 0.3,-1.5 l 0,-3.3 c 0,-0.6 -0.1,-1.1 -0.3,-1.4 -0.2,-0.3 -0.5,-0.4 -1,-0.4 -0.3,0 -0.5,0 -0.7,0.1 -0.2,0.1 -0.5,0.2 -0.8,0.3 l -0.2,-0.4 c 0.3,-0.1 0.6,-0.2 0.8,-0.3 0.2,-0.1 0.5,-0.1 0.8,-0.1 0.6,0 1.1,0.2 1.3,0.5 0.2,0.3 0.4,0.9 0.4,1.6 l 0,3.4 c 0,0.6 -0.1,1.2 -0.4,1.7 -0.3,0.5 -0.6,0.8 -1.1,1.1 -0.5,0.3 -1,0.4 -1.6,0.4 -0.6,0 -0.9,0 -1.3,-0.3 z"
         id="path1019"
         style="fill:#ffffff" />
      <path
         class="st7"
         d="m 1161.6,146.7 -1.2,0 0,-0.4 1.7,0 0,8.5 -0.4,0 0,-8.1 z"
         id="path1021"
         style="fill:#ffffff" />
      <path
         class="st7"
         d="m 1164.8,154.4 0.1,-0.4 c 0.8,0.2 1.5,0.4 2.2,0.4 0.6,0 1.1,-0.1 1.6,-0.3 0.4,-0.2 0.8,-0.5 1,-0.9 0.2,-0.4 0.4,-0.9 0.4,-1.5 l 0,-5 -4.2,0 c -0.2,0.3 -0.4,0.7 -0.6,1.2 -0.1,0.5 -0.2,1 -0.2,1.6 l 0,0.8 c 0.2,0.1 0.5,0.2 0.7,0.2 0.2,0 0.6,0.1 1.2,0.1 l 0,0.4 c -0.6,0 -1,0 -1.3,-0.1 -0.3,-0.1 -0.6,-0.2 -1,-0.3 l 0,-1.1 c 0,-0.5 0.1,-1 0.2,-1.5 0.1,-0.5 0.3,-0.9 0.6,-1.3 l -0.9,0 0,-0.4 6,0 0,5.2 c 0,0.7 -0.1,1.3 -0.4,1.8 -0.3,0.5 -0.7,0.9 -1.2,1.1 -0.5,0.3 -1.1,0.4 -1.8,0.4 -0.7,0 -1.5,-0.1 -2.4,-0.4 z"
         id="path1023"
         style="fill:#ffffff" />
      <path
         class="st7"
         d="m 1174.1,146.7 -1.8,0 0,-0.4 2.2,0 0,4.6 -0.4,0 0,-4.2 z"
         id="path1025"
         style="fill:#ffffff" />
      <path
         class="st7"
         d="m 1177.7,153.8 c 0.5,0.2 1,0.4 1.6,0.5 0.6,0.1 1.1,0.2 1.6,0.2 0.7,0 1.4,-0.1 1.9,-0.3 0.6,-0.2 1,-0.5 1.4,-0.9 0.3,-0.4 0.5,-0.9 0.5,-1.5 l 0,-5.4 0.4,0 0,5.4 c 0,0.7 -0.2,1.3 -0.6,1.8 -0.4,0.5 -0.9,0.8 -1.5,1.1 -0.6,0.2 -1.4,0.4 -2.1,0.4 -0.6,0 -1.2,-0.1 -1.9,-0.2 -0.6,-0.1 -1.2,-0.4 -1.8,-0.6 l 0,-7.8 0.4,0 0,7.3 z m 3.1,-1.7 c 0.1,-0.3 0.2,-0.7 0.2,-1.2 l 0,-4.6 0.4,0 0,4.6 c 0,0.5 -0.1,0.9 -0.2,1.2 -0.1,0.3 -0.3,0.6 -0.7,0.9 l -0.4,-0.1 c 0.4,-0.3 0.6,-0.5 0.7,-0.8 z"
         id="path1027"
         style="fill:#ffffff" />
    </g>
  </g>
</svg>
