<?xml version="1.0" encoding="UTF-8" standalone="no"?>
<svg
   xmlns:dc="http://purl.org/dc/elements/1.1/"
   xmlns:cc="http://creativecommons.org/ns#"
   xmlns:rdf="http://www.w3.org/1999/02/22-rdf-syntax-ns#"
   xmlns:svg="http://www.w3.org/2000/svg"
   xmlns="http://www.w3.org/2000/svg"
   width="44.873333mm"
   height="27.262667mm"
   viewBox="0 0 159 96.6"
   id="svg3878"
   version="1.1">
  <defs
     id="defs3880" />
  <metadata
     id="metadata3883">
    <rdf:RDF>
      <cc:Work
         rdf:about="">
        <dc:format>image/svg+xml</dc:format>
        <dc:type
           rdf:resource="http://purl.org/dc/dcmitype/StillImage" />
        <dc:title></dc:title>
      </cc:Work>
    </rdf:RDF>
  </metadata>
  <g
     id="layer1"
     transform="translate(-300.5,-609.77649)">
    <g
       id="g3929">
      <rect
         id="rect863_6_"
         x="300.5"
         y="609.77649"
         class="st933"
         width="159"
         height="32.200001"
         style="fill:#4b1a26" />
      <g
         transform="translate(-0.7,0)"
         id="g3925">
        <path
           style="fill:#f07741;fill-opacity:1"
           d="m 400,666.57649 c 0,10.6 -19.3,39.8 -19.3,39.8 0,0 -19.3,-29.2 -19.3,-39.8 0,-10.6 8.7,-19.3 19.3,-19.3 10.6,0 19.3,8.6 19.3,19.3"
           class="st933"
           id="path877_3_" />
        <path
           style="fill:#f1f2f2"
           d="m 388.9,663.37649 c -1,0 -1.7,-0.7 -1.7,-1.7 0,-1 0.7,-1.7 1.7,-1.7 1,0 1.7,0.7 1.7,1.7 0,0.9 -0.7,1.7 -1.7,1.7 m -3.2,3.9 c -1,0 -1.7,-0.7 -1.7,-1.7 0,-1 0.7,-1.7 1.7,-1.7 1,0 1.7,0.7 1.7,1.7 0,1 -0.8,1.7 -1.7,1.7 m -6.5,-3.2 c 0,0.5 -0.5,1 -1,1 l -2.2,0 0,2.2 c 0,0.5 -0.5,1 -1,1 l -0.7,0 c -0.5,0 -1,-0.5 -1,-1 l 0,-2.2 -2.2,0 c -0.5,0 -1,-0.5 -1,-1 l 0,-0.7 c 0,-0.5 0.5,-1 1,-1 l 2.2,0 0,-2.2 c 0,-0.5 0.5,-1 1,-1 l 0.7,0 c 0.5,0 1,0.5 1,1 l 0,2.2 2.2,0 c 0.5,0 1,0.5 1,1 l 0,0.7 z m 16.1,0.5 c -1.5,-6.7 -3.5,-8.4 -4.9,-9.2 -2,-1 -4.5,-0.5 -5.2,0 -1,0.5 -1.5,1.2 -2.5,1.7 -1,0.5 -2.5,0.5 -3.5,0 -0.7,-0.5 -1.5,-1.2 -2.7,-1.7 -1.2,-0.5 -3.5,-1.2 -5.7,0.2 -0.5,0.2 -4.2,3.5 -5.2,12.9 -0.7,5.9 2.5,7.7 2.5,7.7 0.7,0.5 2.7,1.5 5.2,0 1.7,-1 3,-3.2 3,-3.2 0,0 0.5,-1.2 1.5,-1.7 0.5,-0.2 1.5,0 1.5,0 l 3,0 c 0,0 1,0 1.7,0.2 0.7,0.2 1,1 1,1 0,0 2,2.5 4,4 0.7,0.5 4.2,1.2 5.7,-0.7 1.1,-1.3 1.8,-5.5 0.6,-11.2"
           class="st935"
           id="path973_3_" />
      </g>
      <g
         id="g6584"
         transform="translate(-239.5,361.87649)">
        <path
           class="st938"
           d="m 585.1,261.9 c 0,-1 -0.2,-1.7 -0.7,-2.2 -0.5,-0.5 -1.2,-0.7 -2.2,-0.7 l -4.2,0 0,-1.5 4.3,0 c 1.5,0 2.6,0.4 3.4,1.1 0.8,0.7 1.2,1.8 1.2,3.2 l 0,7.2 -1.8,0 0,-7.1 z m -7,3.3 c 0,-0.6 0,-1.1 0.1,-1.4 0.1,-0.3 0.2,-0.7 0.4,-1 l 1.5,0 c -0.1,0.3 -0.1,0.6 -0.2,1 -0.1,0.4 -0.1,0.8 -0.1,1.3 l 0,4 -1.8,0 0,-3.9 z"
           id="path6586"
           style="fill:#57c8df" />
        <path
           class="st938"
           d="m 591.6,259.1 -2.1,0 0,-1.5 3.9,0 0,6.4 -1.8,0 0,-4.9 z"
           id="path6588"
           style="fill:#57c8df" />
        <path
           class="st938"
           d="m 598.1,259.1 -2.1,0 0,-1.5 3.9,0 0,6.4 -1.8,0 0,-4.9 z"
           id="path6590"
           style="fill:#57c8df" />
        <path
           class="st938"
           d="m 607.6,267.7 c 0.6,0 1.2,-0.2 1.7,-0.4 0.5,-0.2 0.9,-0.6 1.1,-1.1 0.2,-0.5 0.4,-1.1 0.4,-1.7 l 0,-5.3 -7.1,0 0,-1.5 8.9,0 0,6.8 c 0,1 -0.2,1.8 -0.6,2.5 -0.4,0.7 -1,1.3 -1.8,1.6 -0.8,0.3 -1.6,0.6 -2.7,0.6 l 0,-1.5 z m -3.6,-2.9 c 0,-0.6 0,-1 0.1,-1.4 0.1,-0.4 0.2,-0.7 0.4,-1 l 1.5,0 c -0.1,0.3 -0.1,0.6 -0.2,1 -0.1,0.4 -0.1,0.8 -0.1,1.3 l 0,8.5 -1.7,0 0,-8.4 z"
           id="path6592"
           style="fill:#57c8df" />
        <path
           class="st938"
           d="m 616.7,257.6 4.3,0 c 1.5,0 2.7,0.4 3.4,1.1 0.7,0.7 1.1,1.8 1.1,3.3 l 0,7.1 -1.8,0 0,-7.2 c 0,-1 -0.2,-1.7 -0.6,-2.2 -0.4,-0.5 -1.1,-0.7 -2.1,-0.7 l -2.5,0 0,10 -1.8,0 0,-11.4 z"
           id="path6594"
           style="fill:#57c8df" />
        <path
           class="st938"
           d="m 631.1,267.1 c 0.6,0.3 1.3,0.5 2,0.6 0.7,0.1 1.3,0.2 2,0.2 0.9,0 1.8,-0.1 2.5,-0.4 0.7,-0.3 1.3,-0.7 1.7,-1.2 0.4,-0.5 0.6,-1.2 0.6,-2 l 0,-6.6 1.8,0 0,6.8 c 0,1.1 -0.3,2 -0.9,2.7 -0.6,0.7 -1.4,1.3 -2.4,1.7 -1,0.4 -2.1,0.6 -3.3,0.6 -1,0 -1.9,-0.1 -2.9,-0.3 -1,-0.2 -2,-0.6 -2.9,-1 l 0,-10.4 1.8,0 0,9.3 z m 3.3,-2.2 c 0.1,-0.4 0.2,-1 0.2,-1.6 l 0,-5.7 1.8,0 0,5.4 c 0,0.7 -0.1,1.2 -0.2,1.7 -0.1,0.5 -0.4,0.9 -0.8,1.3 l -1.5,-0.1 c 0.2,-0.2 0.4,-0.6 0.5,-1 z"
           id="path6596"
           style="fill:#57c8df" />
        <path
           class="st938"
           d="m 646.5,261.8 c 0.1,-0.5 0.2,-1 0.5,-1.5 0.3,-0.5 0.5,-0.8 0.8,-1.1 0,0 0.1,-0.1 0.2,-0.1 l 0,0 c -0.3,0.1 -0.7,0.1 -1.1,0.2 -0.4,0.1 -0.8,0.2 -1.2,0.4 l -0.4,-1.4 c 0.8,-0.3 1.6,-0.5 2.5,-0.6 0.9,-0.1 1.8,-0.2 2.6,-0.2 1.5,0 2.7,0.4 3.5,1.2 0.8,0.8 1.2,2 1.2,3.6 l 0,6.9 -4.7,0 0,-1.5 2.9,0 0,-5.6 c 0,-1 -0.2,-1.8 -0.7,-2.3 -0.5,-0.5 -1.1,-0.8 -2,-0.8 -0.6,0 -1.2,0.2 -1.6,0.7 -0.4,0.5 -0.7,1.1 -0.8,2 l -0.9,7.5 -1.8,0 1,-7.4 z"
           id="path6598"
           style="fill:#57c8df" />
      </g>
    </g>
  </g>
</svg>
