<?xml version="1.0" encoding="UTF-8" standalone="no"?>
<svg
   xmlns:dc="http://purl.org/dc/elements/1.1/"
   xmlns:cc="http://creativecommons.org/ns#"
   xmlns:rdf="http://www.w3.org/1999/02/22-rdf-syntax-ns#"
   xmlns:svg="http://www.w3.org/2000/svg"
   xmlns="http://www.w3.org/2000/svg"
   width="58.222446mm"
   height="52.521557mm"
   viewBox="0 0 206.30001 186.1"
   id="svg3614"
   version="1.1">
  <defs
     id="defs3616" />
  <metadata
     id="metadata3619">
    <rdf:RDF>
      <cc:Work
         rdf:about="">
        <dc:format>image/svg+xml</dc:format>
        <dc:type
           rdf:resource="http://purl.org/dc/dcmitype/StillImage" />
        <dc:title></dc:title>
      </cc:Work>
    </rdf:RDF>
  </metadata>
  <g
     id="layer1"
     transform="translate(-265.42143,-490.74078)">
    <g
       id="g3803">
      <rect
         id="rect807_3_"
         x="265.42142"
         y="490.74078"
         class="st933"
         width="206.3"
         height="119.5"
         style="fill:#4b1a26" />
      <path
         id="path819_3_"
         class="st933"
         d="m 387.87143,637.04078 c 0,10.6 -19.3,39.8 -19.3,39.8 0,0 -19.3,-29.2 -19.3,-39.8 0,-10.6 8.7,-19.3 19.3,-19.3 10.7,0 19.3,8.6 19.3,19.3"
         style="fill:#f07741;fill-opacity:1" />
      <g
         id="g829_3_"
         transform="translate(-401.29714,631.19002)">
        <g
           id="g6477">
          <g
             id="g6479">
            <g
               id="g6481">
              <g
                 id="g6483">
                <path
                   id="path837_3_"
                   class="st934"
                   d="m 774.8,2.3 c -1,-0.5 -1.7,-1 -2.5,-1.5 0.5,-0.7 1.5,-2 1.2,-3 0,-0.2 -0.2,-0.7 -0.5,-1 -0.3,-0.3 -0.5,-0.2 -0.7,-0.2 -0.5,0 -1.2,0.5 -1.7,0.7 0,-0.2 0,-0.2 0,-0.5 0.2,-1.2 0.7,-2.2 1.7,-2.2 l 0,0 c 1,0 2.2,0.7 2.5,2.2 0.8,1.8 0.5,3.6 0,5.5 m -3.2,-2.2 c -0.2,-0.5 -0.5,-1 -0.7,-1.5 0.2,-0.7 0.7,-1.2 1.2,-1.2 0.2,0 0.2,0 0.2,0 0.2,0 0.2,0.2 0.2,0.5 0.4,0.7 -0.4,1.5 -0.9,2.2 m -1.2,1 -0.7,0.5 0.2,-1 c 0,-0.2 0.2,-0.7 0.5,-1.2 0.2,0.2 0.5,0.7 0.7,1 -0.5,0.5 -0.7,0.7 -0.7,0.7 m 9.6,8.2 c 0,-0.2 -1.7,-4.9 -4,-6.2 -0.2,0 -0.2,-0.2 -0.5,-0.2 0.7,-2.2 1,-4.2 0.5,-5.9 -0.5,-1.7 -2,-3 -3.5,-2.7 -1.2,0 -2.2,1.2 -2.5,2.7 0,0.5 0,1 0,1.5 -0.2,0.5 -0.5,0.7 -0.5,1 L 758,17.7 c 0,0.2 -0.2,0.2 0,0.5 l 0,0.2 0.2,0 c 0.2,0 0.2,-0.2 0.5,-0.2 L 772.1,1.6 c 0.7,0.7 2,1.2 2.7,1.7 -0.5,1.2 -1,2.7 -1.5,4.2 -1.7,4.2 -1,7.7 0.2,8.4 l 0.2,0 c 0,0 0.2,0 0.2,-0.2 0,-0.2 0,-0.5 0,-0.5 -1,-0.5 -1.7,-3.7 0,-7.4 0.7,-1.5 1.2,-3 1.5,-4.2 0,0 0.2,0 0.2,0.2 2,1 3.7,5.7 3.7,5.7 0,0.2 0.2,0.2 0.5,0.2 0,-0.2 0.2,-0.4 0.2,-0.4"
                   style="opacity:1;fill:#ffffff" />
              </g>
            </g>
          </g>
        </g>
      </g>
      <g
         id="g6494"
         transform="translate(-457.87856,396.14078)">
        <path
           class="st937"
           d="m 746.1,116 -2.5,0 0,-2.4 5.6,0 0,8.2 -3.1,0 0,-5.8 z"
           id="path6496"
           style="fill:#f48166" />
        <path
           class="st937"
           d="m 754.8,116 -2.5,0 0,-2.4 5.6,0 0,8.2 -3.1,0 0,-5.8 z"
           id="path6498"
           style="fill:#f48166" />
        <path
           class="st937"
           d="m 772.8,115.5 -5,12.5 -3.3,0 5,-12.1 -8.1,0 0,-6.7 3.1,0 0,4.2 8.4,0 0,2.1 z"
           id="path6500"
           style="fill:#f48166" />
        <path
           class="st937"
           d="m 779.2,128.1 c -0.9,-0.2 -1.8,-0.4 -2.6,-0.6 l 0.6,-2.3 c 0.8,0.2 1.5,0.4 2.3,0.5 0.8,0.1 1.4,0.2 2,0.2 1.2,0 2.2,-0.3 2.9,-0.9 0.7,-0.6 1,-1.4 1,-2.6 l 0,-6.4 -5,0 c -0.2,0.5 -0.4,1 -0.5,1.5 -0.1,0.6 -0.2,1.1 -0.2,1.7 l 0,0.9 c 0.3,0.1 0.9,0.2 1.6,0.2 l 0,2.3 c -0.3,0 -0.7,0 -1.1,0 -0.7,0 -1.3,-0.1 -1.9,-0.2 -0.6,-0.1 -1.1,-0.3 -1.6,-0.6 l 0,-1.6 c 0,-0.8 0.1,-1.6 0.3,-2.3 0.2,-0.7 0.4,-1.4 0.8,-1.9 l -1.8,0 0,-2.4 12.4,0 0,8.4 c 0,1.4 -0.3,2.6 -0.9,3.6 -0.6,1 -1.4,1.7 -2.4,2.1 -1,0.4 -2.2,0.7 -3.5,0.7 -0.7,0 -1.5,-0.1 -2.4,-0.3 z"
           id="path6502"
           style="fill:#f48166" />
        <path
           class="st937"
           d="m 796.1,127.5 c -1,-0.6 -1.7,-1.4 -2.2,-2.4 -0.5,-1 -0.8,-2.2 -0.8,-3.5 l 0,-1.2 c 0,-0.5 0.1,-1.1 0.2,-1.7 0.2,-0.6 0.4,-1.1 0.6,-1.6 0.3,-0.5 0.6,-0.8 0.9,-1.1 0.1,0 0.1,-0.1 0.2,-0.1 l 0,0 c -0.3,0 -0.6,0.1 -1,0.2 -0.4,0.1 -0.8,0.2 -1.2,0.3 l -0.6,-2.3 c 1,-0.3 2.1,-0.5 3.3,-0.7 1.3,-0.2 2.4,-0.3 3.5,-0.3 1.4,0 2.6,0.3 3.7,0.8 1,0.5 1.8,1.3 2.3,2.3 0.5,1 0.8,2.3 0.8,3.7 l 0,1.6 c 0,1.3 -0.3,2.5 -0.8,3.5 -0.5,1 -1.3,1.8 -2.2,2.4 -1,0.6 -2.1,0.8 -3.3,0.8 -1.4,0.2 -2.5,-0.1 -3.4,-0.7 z m 5,-2.2 c 0.5,-0.3 0.9,-0.8 1.1,-1.5 0.3,-0.6 0.4,-1.4 0.4,-2.2 l 0,-1.5 c 0,-1.4 -0.3,-2.4 -0.9,-3.2 -0.6,-0.8 -1.4,-1.1 -2.5,-1.1 -1,0 -1.7,0.4 -2.3,1.2 -0.6,0.8 -0.9,1.9 -0.9,3.3 l 0,1.4 c 0,0.8 0.1,1.5 0.4,2.2 0.3,0.6 0.7,1.1 1.1,1.5 0.5,0.3 1.1,0.5 1.7,0.5 0.8,-0.1 1.4,-0.3 1.9,-0.6 z"
           id="path6504"
           style="fill:#f48166" />
        <path
           class="st937"
           d="m 810.4,116 -1.5,0 0,-2.4 4.6,0 0,14.5 -3.1,0 0,-12.1 z"
           id="path6506"
           style="fill:#f48166" />
        <path
           class="st937"
           d="m 823.4,125.7 c 1.1,0 2,-0.4 2.6,-1 0.6,-0.7 1,-1.6 1,-2.8 l 0,-5.9 -8.7,0 0,-2.4 11.8,0 0,8.3 c 0,1.3 -0.3,2.4 -0.8,3.3 -0.5,0.9 -1.3,1.6 -2.3,2.1 -1,0.5 -2.2,0.8 -3.6,0.8 l 0,-2.4 z m -4.9,-2.9 c 0,-0.8 0.1,-1.4 0.2,-1.9 0.1,-0.4 0.3,-0.9 0.5,-1.2 l 2.5,0 c -0.2,0.7 -0.3,1.6 -0.3,2.8 l 0,10.6 -3,0 0,-10.3 z"
           id="path6508"
           style="fill:#f48166" />
        <path
           class="st937"
           d="m 841.8,113.6 12,0 0,14.5 -12,0 0,-14.5 z m 8.9,12 0,-9.6 -5.8,0 0,9.6 5.8,0 z"
           id="path6510"
           style="fill:#f48166" />
        <path
           class="st937"
           d="m 858.6,113.6 5.9,0 c 3.8,0 5.7,1.8 5.8,5.5 l 0,9 -3.1,0 0,-9.2 c 0,-1 -0.2,-1.7 -0.6,-2.2 -0.4,-0.5 -1.1,-0.7 -2,-0.7 l -2.8,0 0,12.1 -3.1,0 -0.1,-14.5 z"
           id="path6512"
           style="fill:#f48166" />
        <path
           class="st937"
           d="m 885.4,115 c 1,0.9 1.4,2.3 1.4,4.1 l 0,9 -3.1,0 0,-9.2 c 0,-1 -0.2,-1.7 -0.6,-2.2 -0.4,-0.5 -1.1,-0.7 -2,-0.7 l -2,0 c -0.2,0.4 -0.3,1 -0.5,1.6 -0.1,0.6 -0.2,1.2 -0.2,1.8 l 0,4.5 c 0,1.4 -0.4,2.5 -1.1,3.2 -0.7,0.8 -1.7,1.1 -3,1.1 -0.5,0 -1,0 -1.6,-0.1 l 0,-2.4 c 0.3,0 0.6,0 0.8,0 0.6,0 1.1,-0.2 1.4,-0.5 0.3,-0.3 0.5,-0.9 0.5,-1.6 l 0,-4 c 0,-0.6 0.1,-1.3 0.3,-2 0.2,-0.7 0.4,-1.2 0.7,-1.7 l -2.4,0 0,-2.4 7.1,0 c 1.9,0.1 3.3,0.5 4.3,1.5 z"
           id="path6514"
           style="fill:#f48166" />
        <path
           class="st937"
           d="m 892.2,119.4 c 0.1,-0.7 0.3,-1.3 0.5,-1.9 0.3,-0.6 0.6,-1.1 1,-1.4 0.1,-0.1 0.1,-0.1 0.2,-0.2 l 0,0 c -0.3,0.1 -0.7,0.2 -1.2,0.3 -0.5,0.1 -0.9,0.3 -1.3,0.4 l -0.7,-2.3 c 0.9,-0.3 2,-0.6 3.2,-0.8 1.2,-0.2 2.4,-0.3 3.4,-0.3 2.1,0 3.7,0.5 4.8,1.6 1.1,1.1 1.6,2.7 1.7,4.8 l 0,8.4 -6.2,0 0,-2.4 3.1,0 0,-6.4 c 0,-1.1 -0.2,-2 -0.7,-2.6 -0.5,-0.6 -1.2,-0.9 -2.1,-0.9 -0.7,0 -1.3,0.3 -1.8,0.9 -0.5,0.6 -0.7,1.4 -0.9,2.4 l -1,9 -3.1,0 1.1,-8.6 z"
           id="path6516"
           style="fill:#f48166" />
        <path
           class="st937"
           d="m 743,129.9 0,-1.2 162.5,0 0,1.2 -162.5,0 z"
           id="path6518"
           style="fill:#f48166" />
        <path
           class="st937"
           d="m 767.1,141.5 -2.1,0 0,-1.5 3.9,0 0,6.4 -1.8,0 0,-4.9 z"
           id="path6520"
           style="fill:#f48166" />
        <path
           class="st937"
           d="m 773.7,141.5 -2.1,0 0,-1.5 3.9,0 0,6.4 -1.8,0 0,-4.9 z"
           id="path6522"
           style="fill:#f48166" />
        <path
           class="st937"
           d="m 787.1,141.2 -4.2,10.4 -1.9,0 4.2,-10 -6.7,0 0,-5 1.8,0 0,3.5 6.9,0 0,1.1 z"
           id="path6524"
           style="fill:#f48166" />
        <path
           class="st937"
           d="m 792.2,151.6 c -0.7,-0.1 -1.3,-0.3 -1.9,-0.5 l 0.4,-1.4 c 0.6,0.2 1.2,0.3 1.7,0.4 0.5,0.1 1.1,0.1 1.6,0.1 1.1,0 1.9,-0.3 2.5,-0.8 0.6,-0.5 0.9,-1.3 0.9,-2.3 l 0,-5.7 -4.6,0 c -0.2,0.4 -0.4,0.8 -0.5,1.4 -0.1,0.6 -0.2,1.1 -0.2,1.6 l 0,0.9 c 0.1,0.1 0.3,0.1 0.6,0.1 0.3,0 0.6,0 0.9,0 l 0,1.6 c -0.8,0 -1.4,0 -1.9,-0.1 -0.5,-0.1 -0.9,-0.3 -1.4,-0.5 l 0,-1.5 c 0,-0.7 0.1,-1.3 0.2,-1.9 0.1,-0.6 0.4,-1.1 0.7,-1.6 l -1.4,0 0,-1.5 9.4,0 0,6.8 c 0,1.1 -0.2,2 -0.6,2.7 -0.4,0.7 -1,1.3 -1.8,1.6 -0.8,0.3 -1.6,0.5 -2.6,0.5 -0.7,0.3 -1.3,0.2 -2,0.1 z"
           id="path6526"
           style="fill:#f48166" />
        <path
           class="st937"
           d="m 805.4,151.1 c -0.7,-0.4 -1.3,-1.1 -1.7,-1.9 -0.4,-0.8 -0.6,-1.7 -0.6,-2.8 l 0,-1.2 c 0,-0.5 0.1,-1 0.2,-1.5 0.1,-0.5 0.3,-0.9 0.6,-1.3 0.3,-0.4 0.5,-0.7 0.8,-0.9 0.1,0 0.1,-0.1 0.1,-0.1 l 0,0 c -0.3,0 -1,0.2 -2.1,0.5 l -0.4,-1.4 c 0.8,-0.2 1.6,-0.4 2.6,-0.5 1,-0.1 1.8,-0.2 2.6,-0.2 1.1,0 2,0.2 2.8,0.6 0.8,0.4 1.4,1 1.8,1.8 0.4,0.8 0.6,1.7 0.6,2.8 l 0,1.4 c 0,1 -0.2,2 -0.6,2.8 -0.4,0.8 -1,1.4 -1.7,1.9 -0.7,0.5 -1.6,0.7 -2.5,0.7 -1,0 -1.8,-0.2 -2.5,-0.7 z m 4.1,-1.3 c 0.5,-0.3 0.8,-0.7 1.1,-1.3 0.3,-0.6 0.4,-1.2 0.4,-2 l 0,-1.4 c 0,-0.8 -0.1,-1.4 -0.4,-2 -0.3,-0.6 -0.6,-1 -1.1,-1.3 -0.5,-0.3 -1,-0.5 -1.7,-0.5 -0.6,0 -1.1,0.2 -1.5,0.5 -0.4,0.3 -0.8,0.8 -1,1.3 -0.2,0.5 -0.4,1.3 -0.4,2.1 l 0,1.3 c 0,0.7 0.1,1.4 0.4,2 0.3,0.6 0.6,1 1.1,1.3 0.5,0.3 1,0.5 1.6,0.5 0.6,0 1,-0.2 1.5,-0.5 z"
           id="path6528"
           style="fill:#f48166" />
        <path
           class="st937"
           d="m 816.9,141.5 -1.3,0 0,-1.5 3.2,0 0,11.5 -1.8,0 0,-10 z"
           id="path6530"
           style="fill:#f48166" />
        <path
           class="st937"
           d="m 826.6,150.2 c 0.6,0 1.2,-0.2 1.7,-0.4 0.5,-0.3 0.9,-0.6 1.1,-1.1 0.3,-0.5 0.4,-1.1 0.4,-1.7 l 0,-5.3 -7.1,0 0,-1.5 8.9,0 0,6.8 c 0,1 -0.2,1.8 -0.6,2.5 -0.4,0.7 -1,1.3 -1.8,1.6 -0.8,0.4 -1.6,0.6 -2.7,0.6 l 0,-1.5 z m -3.6,-2.9 c 0,-0.6 0,-1 0.1,-1.4 0.1,-0.4 0.2,-0.7 0.4,-1 l 1.5,0 c -0.1,0.3 -0.1,0.6 -0.2,1 0,0.4 -0.1,0.8 -0.1,1.3 l 0,8.5 -1.7,0 0,-8.4 z"
           id="path6532"
           style="fill:#f48166" />
        <path
           class="st937"
           d="m 841.6,141.5 -1.4,0 0,-1.5 3.1,0 0,15.6 -1.8,0 0,-14.1 z"
           id="path6534"
           style="fill:#f48166" />
        <path
           class="st937"
           d="m 848,141.5 -1.3,0 0,-1.5 3.2,0 0,11.5 -1.9,0 0,-10 z"
           id="path6536"
           style="fill:#f48166" />
        <path
           class="st937"
           d="m 857.7,150.2 c 0.6,0 1.2,-0.2 1.7,-0.4 0.5,-0.3 0.9,-0.6 1.1,-1.1 0.3,-0.5 0.4,-1.1 0.4,-1.7 l 0,-5.3 -7.1,0 0,-1.5 8.9,0 0,6.8 c 0,1 -0.2,1.8 -0.6,2.5 -0.4,0.7 -1,1.3 -1.8,1.6 -0.8,0.4 -1.6,0.6 -2.7,0.6 l 0,-1.5 z m -3.7,-2.9 c 0,-0.6 0,-1 0.1,-1.4 0.1,-0.4 0.2,-0.7 0.4,-1 l 1.5,0 c -0.1,0.3 -0.1,0.6 -0.2,1 0,0.4 -0.1,0.8 -0.1,1.3 l 0,8.5 -1.7,0 0,-8.4 z"
           id="path6538"
           style="fill:#f48166" />
        <path
           class="st937"
           d="m 867.6,141.5 -2.1,0 0,-1.5 3.9,0 0,6.4 -1.8,0 0,-4.9 z"
           id="path6540"
           style="fill:#f48166" />
        <path
           class="st937"
           d="m 881.4,141.2 c 0.8,0.7 1.1,1.8 1.1,3.3 l 0,7.1 -1.8,0 0,-7.2 c 0,-1 -0.2,-1.7 -0.6,-2.2 -0.4,-0.4 -1.1,-0.7 -2.1,-0.7 l -1.6,0 c -0.2,0.4 -0.4,0.8 -0.5,1.4 -0.1,0.6 -0.2,1.1 -0.2,1.7 l 0,3.9 c 0,1.1 -0.3,1.9 -0.8,2.4 -0.5,0.5 -1.2,0.8 -2.2,0.8 -0.3,0 -0.7,0 -1.1,-0.1 l 0,-1.5 c 0.2,0 0.4,0 0.7,0 0.6,0 1,-0.1 1.2,-0.4 0.3,-0.3 0.4,-0.8 0.4,-1.4 l 0,-3.6 c 0,-0.6 0.1,-1.2 0.2,-1.8 0.1,-0.6 0.4,-1.1 0.6,-1.4 l -2.2,0 0,-1.5 5.4,0 c 1.6,0.1 2.7,0.4 3.5,1.2 z"
           id="path6542"
           style="fill:#f48166" />
        <path
           class="st937"
           d="m 770.5,165 -1.4,0 0,-1.5 3.1,0 0,15.6 -1.8,0 0,-14.1 z"
           id="path6544"
           style="fill:#f48166" />
        <path
           class="st937"
           d="m 776.9,165 -1.3,0 0,-1.5 3.2,0 0,11.5 -1.8,0 0,-10 z"
           id="path6546"
           style="fill:#f48166" />
        <path
           class="st937"
           d="m 789.2,170 3.6,5 -2,0 -5.1,-7.1 c -0.7,0.4 -1,1.2 -1,2.2 l 0,4.8 -1.8,0 0,-4.2 c 0,-1 0.2,-1.8 0.5,-2.4 0.3,-0.6 0.9,-1.1 1.6,-1.4 l -2.5,-3.4 2,0 3.6,4.9 2.8,-4.9 2,0 -3.7,6.5 z"
           id="path6548"
           style="fill:#f48166" />
        <path
           class="st937"
           d="m 799.9,173.7 c 0.6,0 1.2,-0.2 1.7,-0.4 0.5,-0.2 0.9,-0.6 1.1,-1.1 0.2,-0.5 0.4,-1.1 0.4,-1.7 l 0,-5.5 -7.1,0 0,-1.5 8.9,0 0,6.8 c 0,1 -0.2,1.8 -0.6,2.5 -0.4,0.7 -1,1.3 -1.8,1.6 -0.8,0.3 -1.6,0.6 -2.7,0.6 l 0,-1.3 z m -3.6,-2.9 c 0,-0.6 0,-1 0.1,-1.4 0.1,-0.4 0.2,-0.7 0.4,-1 l 1.5,0 c -0.1,0.3 -0.1,0.6 -0.2,1 -0.1,0.4 -0.1,0.8 -0.1,1.3 l 0,8.5 -1.8,0 0,-8.4 z"
           id="path6550"
           style="fill:#f48166" />
        <path
           class="st937"
           d="m 809.5,165 -1.3,0 0,-1.5 3.2,0 0,11.5 -1.8,0 0,-10 z"
           id="path6552"
           style="fill:#f48166" />
        <path
           class="st937"
           d="m 815.9,165 -1.3,0 0,-1.5 3.2,0 0,11.5 -1.8,0 0,-10 z"
           id="path6554"
           style="fill:#f48166" />
        <path
           class="st937"
           d="m 829.4,174.7 c -0.7,-0.4 -1.2,-0.9 -1.6,-1.6 -0.4,-0.7 -0.6,-1.5 -0.6,-2.4 l 0,-7.1 1.8,0 0,7.2 c 0,0.6 0.1,1.1 0.3,1.6 0.2,0.5 0.6,0.8 1,1.1 0.4,0.3 0.9,0.4 1.5,0.4 0.5,0 1,-0.1 1.5,-0.4 0.5,-0.3 0.7,-0.6 1,-1.1 0.2,-0.5 0.3,-1 0.3,-1.6 l 0,-3.9 c 0,-0.6 -0.1,-1.1 -0.4,-1.5 -0.3,-0.3 -0.7,-0.5 -1.2,-0.5 -0.4,0 -0.9,0.1 -1.4,0.4 l -0.3,-1.2 c 0.3,-0.2 0.7,-0.4 1.1,-0.5 0.4,-0.1 0.8,-0.2 1.1,-0.2 0.6,0 1.1,0.1 1.5,0.4 0.4,0.3 0.8,0.7 1,1.2 0.2,0.5 0.3,1.1 0.3,1.8 l 0,3.9 c 0,0.9 -0.2,1.7 -0.6,2.4 -0.4,0.7 -0.9,1.2 -1.6,1.6 -0.7,0.4 -1.5,0.6 -2.4,0.6 -0.8,0 -1.6,-0.2 -2.3,-0.6 z"
           id="path6556"
           style="fill:#f48166" />
        <path
           class="st937"
           d="m 840.6,165 -1.3,0 0,-1.5 3.2,0 0,11.5 -1.8,0 0,-10 z"
           id="path6558"
           style="fill:#f48166" />
        <path
           class="st937"
           d="m 848.6,175.1 c -0.7,-0.1 -1.3,-0.3 -1.9,-0.5 l 0.4,-1.4 c 0.6,0.2 1.2,0.3 1.7,0.4 0.6,0.1 1.1,0.1 1.6,0.1 1.1,0 1.9,-0.3 2.5,-0.8 0.6,-0.5 0.9,-1.3 0.9,-2.3 l 0,-5.6 -4.6,0 c -0.2,0.4 -0.4,0.8 -0.5,1.4 -0.1,0.6 -0.2,1.1 -0.2,1.6 l 0,0.9 c 0.1,0.1 0.3,0.1 0.6,0.1 0.2,0 0.6,0 0.9,0 l 0,1.6 c -0.8,0 -1.4,0 -1.9,-0.1 -0.5,-0.1 -0.9,-0.3 -1.4,-0.5 l 0,-1.5 c 0,-0.7 0.1,-1.3 0.3,-1.9 0.2,-0.6 0.4,-1.1 0.7,-1.6 l -1.4,0 0,-1.5 9.4,0 0,6.8 c 0,1.1 -0.2,2 -0.6,2.7 -0.4,0.7 -1,1.3 -1.8,1.6 -0.8,0.3 -1.6,0.5 -2.6,0.5 -0.8,0.2 -1.4,0.1 -2.1,0 z"
           id="path6560"
           style="fill:#f48166" />
        <path
           class="st937"
           d="m 860.4,165 -2.1,0 0,-1.5 3.9,0 0,6.4 -1.8,0 0,-4.9 z"
           id="path6562"
           style="fill:#f48166" />
        <path
           class="st937"
           d="m 867.8,173 c 0.6,0.3 1.3,0.5 2,0.6 0.7,0.1 1.3,0.2 2,0.2 0.9,0 1.8,-0.1 2.5,-0.4 0.7,-0.3 1.3,-0.7 1.7,-1.2 0.4,-0.6 0.6,-1.2 0.6,-2 l 0,-6.6 1.8,0 0,6.8 c 0,1.1 -0.3,2 -0.9,2.7 -0.6,0.7 -1.4,1.3 -2.4,1.7 -1,0.4 -2.1,0.6 -3.3,0.6 -0.9,0 -1.9,-0.1 -2.9,-0.3 -1,-0.2 -2,-0.6 -2.9,-1 l 0,-10.4 1.8,0 0,9.3 z m 3.3,-2.1 c 0.1,-0.4 0.2,-1 0.2,-1.6 l 0,-5.7 1.8,0 0,5.4 c 0,0.7 -0.1,1.2 -0.2,1.7 -0.2,0.5 -0.4,0.9 -0.8,1.3 l -1.5,-0.1 c 0.2,-0.2 0.4,-0.6 0.5,-1 z"
           id="path6564"
           style="fill:#f48166" />
        <path
           class="st937"
           d="m 779.2,187.1 9.2,0 0,11.5 -9.2,0 0,-11.5 z m 7.4,10 0,-8.6 -5.6,0 0,8.6 5.6,0 z"
           id="path6566"
           style="fill:#f48166" />
        <path
           class="st937"
           d="m 793,188.5 -1.3,0 0,-1.5 3.2,0 0,11.5 -1.9,0 0,-10 z"
           id="path6568"
           style="fill:#f48166" />
        <path
           class="st937"
           d="m 806.6,188.2 -4.2,10.4 -1.9,0 4.2,-10 -6.7,0 0,-5 1.8,0 0,3.5 6.9,0 0,1.1 z"
           id="path6570"
           style="fill:#f48166" />
        <path
           class="st937"
           d="m 810.5,188.5 -2.1,0 0,-1.5 3.9,0 0,6.4 -1.8,0 0,-4.9 z"
           id="path6572"
           style="fill:#f48166" />
        <path
           class="st937"
           d="m 821.1,193.3 3,4.4 0,0.9 -8.5,0 0,-1.5 6.2,0 -6.9,-10 2,0 3.1,4.6 2.5,-4.6 2,0 -3.4,6.2 z"
           id="path6574"
           style="fill:#f48166" />
        <path
           class="st937"
           d="m 841.1,188.2 c 0.8,0.7 1.1,1.8 1.1,3.3 l 0,7.1 -1.8,0 0,-7.2 c 0,-1 -0.2,-1.7 -0.6,-2.2 -0.4,-0.4 -1.1,-0.7 -2.1,-0.7 l -1.6,0 c -0.2,0.4 -0.4,0.8 -0.5,1.4 -0.1,0.6 -0.2,1.1 -0.2,1.7 l 0,3.9 c 0,1.1 -0.3,1.9 -0.8,2.4 -0.5,0.5 -1.2,0.8 -2.2,0.8 -0.3,0 -0.7,0 -1.1,-0.1 l 0,-1.5 c 0.2,0 0.4,0 0.7,0 0.6,0 1,-0.1 1.2,-0.4 0.3,-0.3 0.4,-0.8 0.4,-1.4 l 0,-3.6 c 0,-0.6 0.1,-1.2 0.2,-1.8 0.1,-0.6 0.4,-1.1 0.6,-1.4 l -2.2,0 0,-1.5 5.4,0 c 1.6,0.1 2.8,0.4 3.5,1.2 z"
           id="path6576"
           style="fill:#f48166" />
        <path
           class="st937"
           d="m 844.8,198.6 0,-1.4 c 0.4,0.1 0.9,0.1 1.4,0.1 0.5,0 0.9,-0.2 1.2,-0.5 0.3,-0.3 0.4,-0.8 0.4,-1.4 l 0,-6.9 -2.3,0 0,-1.5 4.1,0 0,8.5 c 0,1.1 -0.3,1.9 -0.8,2.4 -0.5,0.6 -1.3,0.8 -2.2,0.8 -0.5,0.1 -1.1,0 -1.8,-0.1 z"
           id="path6578"
           style="fill:#f48166" />
        <path
           class="st937"
           d="m 854.6,188.5 -2.1,0 0,-1.5 3.9,0 0,6.4 -1.8,0 0,-4.9 z"
           id="path6580"
           style="fill:#f48166" />
        <path
           class="st937"
           d="m 862.4,198.6 c -0.7,-0.1 -1.3,-0.3 -1.9,-0.5 l 0.4,-1.4 c 0.6,0.2 1.2,0.3 1.7,0.4 0.6,0.1 1.1,0.1 1.6,0.1 1.1,0 1.9,-0.3 2.5,-0.8 0.6,-0.5 0.9,-1.3 0.9,-2.3 l 0,-5.7 -4.6,0 c -0.2,0.4 -0.4,0.8 -0.5,1.4 -0.1,0.6 -0.2,1.1 -0.2,1.6 l 0,0.9 c 0.1,0.1 0.3,0.1 0.6,0.1 0.2,0 0.6,0 0.9,0 l 0,1.6 c -0.8,0 -1.4,0 -1.9,-0.1 -0.5,-0.1 -0.9,-0.3 -1.4,-0.5 l 0,-1.5 c 0,-0.7 0.1,-1.3 0.3,-1.9 0.2,-0.6 0.4,-1.1 0.7,-1.6 l -1.4,0 0,-1.5 9.4,0 0,6.8 c 0,1.1 -0.2,2 -0.6,2.7 -0.4,0.7 -1,1.3 -1.8,1.6 -0.8,0.3 -1.6,0.5 -2.6,0.5 -0.8,0.3 -1.4,0.2 -2.1,0.1 z"
           id="path6582"
           style="fill:#f48166" />
      </g>
    </g>
  </g>
</svg>
