<?xml version="1.0" encoding="UTF-8" standalone="no"?>
<svg
   xmlns:dc="http://purl.org/dc/elements/1.1/"
   xmlns:cc="http://creativecommons.org/ns#"
   xmlns:rdf="http://www.w3.org/1999/02/22-rdf-syntax-ns#"
   xmlns:svg="http://www.w3.org/2000/svg"
   xmlns="http://www.w3.org/2000/svg"
   version="1.1"
   id="svg5664"
   viewBox="0 0 289.44 72.390001"
   height="72.389999"
   width="289.44">
  <defs
     id="defs5666" />
  <metadata
     id="metadata5669">
    <rdf:RDF>
      <cc:Work
         rdf:about="">
        <dc:format>image/svg+xml</dc:format>
        <dc:type
           rdf:resource="http://purl.org/dc/dcmitype/StillImage" />
        <dc:title></dc:title>
      </cc:Work>
    </rdf:RDF>
  </metadata>
  <g
     transform="translate(-290.49714,-396.1672)"
     id="layer1">
    <polygon
       transform="translate(-777.50286,223.9472)"
       style="fill:#b48e59"
       id="polygon7064"
       points="1068,172.22 1212.72,244.61 1083.79,239.99 "
       class="st943" />
    <polygon
       transform="translate(-777.50286,223.9472)"
       style="fill:#e2b424"
       id="polygon7066"
       points="1083.79,239.99 1068,172.22 1195.08,179.57 1203.54,224.39 "
       class="st957" />
    <g
       transform="translate(-777.50286,223.9472)"
       id="g7076">
      <path
         style="fill:#ffffff"
         id="path7078"
         d="m 1101.4,199.44 c -0.69,-0.38 -1.23,-0.92 -1.62,-1.62 -0.38,-0.7 -0.58,-1.5 -0.58,-2.42 l 0,-7.1 1.81,0 0,7.23 c 0,0.61 0.12,1.14 0.35,1.6 0.23,0.46 0.56,0.82 0.98,1.07 0.42,0.25 0.91,0.38 1.46,0.38 0.55,0 1.03,-0.13 1.45,-0.38 0.42,-0.25 0.74,-0.61 0.98,-1.07 0.23,-0.46 0.35,-0.99 0.35,-1.6 l 0,-3.86 c 0,-0.63 -0.14,-1.11 -0.41,-1.45 -0.28,-0.34 -0.67,-0.51 -1.18,-0.51 -0.42,0 -0.89,0.12 -1.41,0.37 l -0.28,-1.21 c 0.33,-0.21 0.69,-0.37 1.08,-0.49 0.39,-0.12 0.77,-0.18 1.14,-0.18 0.59,0 1.11,0.13 1.54,0.4 0.43,0.27 0.76,0.65 1,1.15 0.23,0.5 0.35,1.09 0.35,1.78 l 0,3.88 c 0,0.92 -0.19,1.73 -0.57,2.42 -0.38,0.69 -0.92,1.24 -1.61,1.62 -0.69,0.38 -1.49,0.58 -2.4,0.58 -0.94,-0.01 -1.74,-0.2 -2.43,-0.59 z"
         class="st946" />
      <path
         style="fill:#ffffff"
         id="path7080"
         d="m 1112.58,189.75 -1.34,0 0,-1.46 3.15,0 0,11.5 -1.82,0 0,-10.04 z"
         class="st946" />
      <path
         style="fill:#ffffff"
         id="path7082"
         d="m 1120.54,199.83 c -0.67,-0.11 -1.31,-0.27 -1.93,-0.49 l 0.35,-1.36 c 0.57,0.18 1.15,0.31 1.74,0.4 0.59,0.09 1.12,0.13 1.59,0.13 1.07,-0.01 1.89,-0.28 2.47,-0.81 0.58,-0.53 0.87,-1.28 0.87,-2.27 l 0,-5.68 -4.61,0 c -0.21,0.36 -0.38,0.81 -0.5,1.36 -0.12,0.55 -0.19,1.1 -0.19,1.65 l 0,0.88 c 0.14,0.06 0.34,0.11 0.58,0.14 0.24,0.03 0.56,0.04 0.95,0.04 l 0,1.56 c -0.81,0 -1.44,-0.05 -1.9,-0.14 -0.46,-0.09 -0.92,-0.27 -1.39,-0.51 l -0.04,-1.48 c 0,-0.66 0.08,-1.3 0.25,-1.93 0.17,-0.63 0.39,-1.15 0.68,-1.56 l -1.4,0 0,-1.46 9.38,0 0,6.8 c 0,1.08 -0.21,1.99 -0.63,2.72 -0.42,0.73 -1.01,1.28 -1.76,1.64 -0.75,0.36 -1.63,0.54 -2.62,0.54 -0.59,0 -1.21,-0.06 -1.89,-0.17 z"
         class="st946" />
      <path
         style="fill:#ffffff"
         id="path7084"
         d="m 1132.35,189.75 -2.11,0 0,-1.46 3.93,0 0,6.42 -1.82,0 0,-4.96 z"
         class="st946" />
      <path
         style="fill:#ffffff"
         id="path7086"
         d="m 1139.77,197.76 c 0.63,0.27 1.28,0.48 1.97,0.63 0.69,0.15 1.35,0.22 1.97,0.22 0.94,0 1.78,-0.14 2.51,-0.41 0.74,-0.27 1.32,-0.68 1.74,-1.23 0.42,-0.55 0.63,-1.23 0.63,-2.04 l 0,-6.64 1.76,0 0,6.81 c 0,1.08 -0.29,1.99 -0.87,2.74 -0.58,0.75 -1.37,1.3 -2.36,1.67 -0.99,0.37 -2.1,0.56 -3.32,0.56 -0.95,0 -1.93,-0.11 -2.93,-0.34 -1,-0.22 -1.96,-0.56 -2.86,-0.99 l 0,-10.44 1.76,0 0,9.46 z m 3.31,-2.18 c 0.13,-0.45 0.19,-0.97 0.19,-1.56 l 0,-5.72 1.77,0 0,5.4 c 0,0.66 -0.08,1.24 -0.24,1.73 -0.16,0.49 -0.41,0.91 -0.75,1.25 l -1.5,-0.06 c 0.22,-0.24 0.41,-0.59 0.53,-1.04 z"
         class="st946" />
      <path
         style="fill:#ffffff"
         id="path7088"
         d="m 1092.95,205.68 -2.11,0 0,-1.46 3.93,0 0,6.42 -1.82,0 0,-4.96 z"
         class="st946" />
      <path
         style="fill:#ffffff"
         id="path7090"
         d="m 1099.48,205.68 -2.11,0 0,-1.46 3.93,0 0,6.42 -1.82,0 0,-4.96 z"
         class="st946" />
      <path
         style="fill:#ffffff"
         id="path7092"
         d="m 1112.92,205.36 -4.22,10.36 -1.94,0 4.17,-10.05 -6.75,0 0,-4.95 1.81,0 0,3.5 6.93,0 0,1.14 z"
         class="st946" />
      <path
         style="fill:#ffffff"
         id="path7094"
         d="m 1118.02,215.75 c -0.67,-0.11 -1.32,-0.27 -1.93,-0.49 l 0.35,-1.36 c 0.57,0.18 1.15,0.31 1.74,0.4 0.59,0.09 1.12,0.13 1.59,0.13 1.07,-0.01 1.89,-0.28 2.47,-0.81 0.58,-0.53 0.87,-1.28 0.87,-2.27 l 0,-5.68 -4.61,0 c -0.21,0.36 -0.38,0.81 -0.5,1.36 -0.12,0.55 -0.19,1.1 -0.19,1.65 l 0,0.88 c 0.14,0.06 0.33,0.11 0.58,0.14 0.24,0.03 0.56,0.04 0.95,0.04 l 0,1.56 c -0.81,0 -1.44,-0.05 -1.9,-0.14 -0.46,-0.09 -0.93,-0.27 -1.39,-0.51 l -0.04,-1.48 c 0,-0.66 0.08,-1.3 0.25,-1.93 0.17,-0.63 0.39,-1.15 0.68,-1.56 l -1.4,0 0,-1.46 9.38,0 0,6.8 c 0,1.08 -0.21,1.99 -0.63,2.72 -0.42,0.73 -1.01,1.28 -1.76,1.64 -0.75,0.36 -1.63,0.54 -2.62,0.54 -0.59,0 -1.22,-0.06 -1.89,-0.17 z"
         class="st946" />
      <path
         style="fill:#ffffff"
         id="path7096"
         d="m 1131.18,215.28 c -0.73,-0.44 -1.3,-1.06 -1.71,-1.86 -0.41,-0.8 -0.62,-1.72 -0.63,-2.77 l 0,-1.17 c 0,-0.5 0.07,-1 0.21,-1.49 0.14,-0.49 0.33,-0.94 0.58,-1.33 0.25,-0.39 0.53,-0.69 0.84,-0.9 0.05,-0.04 0.1,-0.06 0.14,-0.08 l -0.01,-0.03 c -0.35,0.04 -1.03,0.2 -2.06,0.48 l -0.35,-1.37 c 0.76,-0.23 1.62,-0.41 2.58,-0.55 0.96,-0.14 1.84,-0.21 2.65,-0.21 1.07,0 1.99,0.21 2.76,0.63 0.77,0.42 1.37,1.03 1.78,1.82 0.41,0.79 0.62,1.73 0.62,2.83 l 0,1.38 c 0,1.05 -0.2,1.97 -0.61,2.77 -0.4,0.8 -0.97,1.42 -1.71,1.86 -0.74,0.44 -1.59,0.66 -2.55,0.66 -0.95,-0.01 -1.8,-0.23 -2.53,-0.67 z m 4.13,-1.34 c 0.47,-0.31 0.83,-0.75 1.08,-1.31 0.25,-0.56 0.38,-1.22 0.38,-1.96 l 0,-1.37 c 0,-0.77 -0.13,-1.44 -0.39,-2.01 -0.26,-0.57 -0.63,-1.01 -1.1,-1.31 -0.47,-0.3 -1.04,-0.45 -1.68,-0.45 -0.58,0 -1.09,0.15 -1.53,0.46 -0.44,0.31 -0.78,0.76 -1.03,1.34 -0.25,0.58 -0.37,1.27 -0.38,2.06 l 0,1.28 c 0,0.74 0.13,1.4 0.38,1.96 0.25,0.56 0.61,1 1.07,1.31 0.46,0.31 0.99,0.46 1.6,0.46 0.61,0 1.14,-0.15 1.6,-0.46 z"
         class="st946" />
      <path
         style="fill:#ffffff"
         id="path7098"
         d="m 1142.74,205.68 -1.34,0 0,-1.46 3.15,0 0,11.5 -1.82,0 0,-10.04 z"
         class="st946" />
      <path
         style="fill:#ffffff"
         id="path7100"
         d="m 1152.46,214.3 c 0.64,-0.02 1.21,-0.16 1.69,-0.43 0.48,-0.27 0.86,-0.64 1.12,-1.13 0.27,-0.48 0.4,-1.06 0.4,-1.72 l 0,-5.34 -7.1,0 0,-1.46 8.92,0 0,6.76 c 0,0.96 -0.21,1.79 -0.62,2.5 -0.41,0.71 -1,1.25 -1.76,1.64 -0.76,0.39 -1.64,0.59 -2.65,0.61 l 0,-1.43 z m -3.66,-2.89 c 0,-0.59 0.04,-1.05 0.13,-1.39 0.09,-0.34 0.21,-0.68 0.38,-1.03 l 1.48,0 c -0.09,0.29 -0.14,0.62 -0.18,0.98 -0.04,0.36 -0.05,0.8 -0.05,1.33 l 0,8.49 -1.76,0 0,-8.38 z"
         class="st946" />
    </g>
    <path
       style="opacity:1;fill:#c19a49;fill-opacity:1"
       d="m 403.44714,422.23721 c -0.99,-0.5 -1.73,-0.99 -2.47,-1.48 0.5,-0.74 1.48,-1.98 1.24,-2.97 0,-0.25 -0.25,-0.74 -0.5,-0.99 -0.25,-0.25 -0.5,-0.25 -0.74,-0.25 -0.5,0 -1.24,0.49 -1.73,0.74 0,-0.25 0,-0.25 0,-0.5 0.25,-1.24 0.74,-2.23 1.73,-2.23 l 0,0 c 0.99,0 2.23,0.74 2.47,2.23 0.74,1.49 0.5,3.22 0,5.45 l 0,0 z m -3.21,-2.48 c -0.25,-0.5 -0.5,-0.99 -0.74,-1.48 0.25,-0.74 0.74,-1.24 1.24,-1.24 0.25,0 0.25,0 0.25,0 0.25,0 0.25,0.25 0.25,0.5 0.23,0.99 -0.51,1.73 -1,2.22 l 0,0 z m -1.24,1.24 -0.74,0.5 0.25,-0.99 c 0,-0.25 0.25,-0.74 0.5,-1.24 0.25,0.25 0.5,0.74 0.74,0.99 -0.5,0.49 -0.75,0.49 -0.75,0.74 l 0,0 z m 9.65,7.92 c 0,-0.25 -1.73,-4.95 -3.96,-6.18 -0.25,0 -0.25,-0.25 -0.5,-0.25 0.74,-2.23 0.99,-4.21 0.5,-5.94 -0.5,-1.73 -1.98,-2.97 -3.46,-2.72 -1.24,0 -2.23,1.24 -2.47,2.72 0,0.49 0,0.99 0,1.48 -0.25,0.5 -0.5,0.74 -0.5,0.99 l -11.63,18.31 c 0,0.25 -0.25,0.25 0,0.5 l 0,0.25 0.25,0 c 0.25,0 0.25,-0.25 0.5,-0.25 l 13.36,-16.58 c 0.74,0.74 1.98,1.24 2.72,1.73 -0.49,1.24 -0.99,2.72 -1.48,4.21 -1.73,4.2 -0.99,7.67 0.25,8.41 l 0.25,0 c 0,0 0.25,0 0.25,-0.25 0,-0.25 0,-0.5 0,-0.5 -0.99,-0.5 -1.73,-3.71 0,-7.42 0.74,-1.48 1.24,-2.97 1.48,-4.21 0,0 0.25,0 0.25,0.25 1.98,0.99 3.71,5.69 3.71,5.69 0,0.25 0.25,0.25 0.5,0.25 -0.02,0 -0.02,-0.25 -0.02,-0.49 l 0,0 z"
       class="st934"
       id="path861_1_" />
  </g>
</svg>
