<?xml version="1.0" encoding="UTF-8" standalone="no"?>
<svg
   xmlns:dc="http://purl.org/dc/elements/1.1/"
   xmlns:cc="http://creativecommons.org/ns#"
   xmlns:rdf="http://www.w3.org/1999/02/22-rdf-syntax-ns#"
   xmlns:svg="http://www.w3.org/2000/svg"
   xmlns="http://www.w3.org/2000/svg"
   version="1.1"
   x="0px"
   y="0px"
   viewBox="0 0 1319.9965 678.39734"
   xml:space="preserve"
   id="svg2"
   width="1319.9965"
   height="678.39734"><metadata
     id="metadata7214"><rdf:RDF><cc:Work
         rdf:about=""><dc:format>image/svg+xml</dc:format><dc:type
           rdf:resource="http://purl.org/dc/dcmitype/StillImage" /><dc:title></dc:title></cc:Work></rdf:RDF></metadata><defs
     id="defs7212" /><style
     type="text/css"
     id="style4">
	.st924{opacity:1;}
	.st925{fill:#7B3B23;}
	.st933{fill:#4B1A26;}
	.st935{fill:#F1F2F2;}
	.st936{fill:#511D51;}
	.st940{fill:#D16A4E;}
	.st941{opacity:1;fill:#FFFFFF;}
	.st942{fill:#FFFFFF;}
	.st943{fill:#604D5F;}
	.st944{fill:none;stroke:#0A0731;stroke-width:0.24;}
	.st945{opacity:1;fill:#FFFFFF;}
	.st946{fill:none;stroke:#0A0731;stroke-width:0.48;}
	.st947{opacity:1;}
	.st948{fill:#CB9443;stroke:#F1F2F2;stroke-miterlimit:10;}
	.st949{fill:#27AAE1;}
	.st950{fill:#f48166;}
	.st951{fill:#BFC6CF;}
</style><g
     id="g4969"><g
       transform="translate(-224.73732,-887.79999)"
       id="polygon3_5_"
       class="st924"
       style="opacity:1"><g
         id="g6749"><polygon
           class="st925"
           points="944,1538.6 821.8,1488 835.5,1484.6 627.5,1388.1 721.4,1321.9 508.5,1217.7 401,1273.7 235,1174.2 606.8,999.7 865.6,1112.9 956.7,1058.6 1038.4,1019.8 993.6,998 1078.2,957.5 1352.9,1075.3 1390.6,1064.5 1522.3,1131.5 1457,1165 1387.4,1133.2 1113.4,1273.7 1017.1,1389.3 1047.4,1415.5 990.2,1456.3 1038.4,1491 "
           id="polygon6751"
           style="fill:#c0915d;fill-opacity:1" /></g></g><polygon
       transform="translate(-224.73732,-887.79999)"
       id="polygon5_3_"
       class="st943"
       points="727,1172 658.6,1223.9 594.3,1195.3 509.5,1147.8 578.4,1107.8 627.5,1124.1 "
       style="fill:#604d5f" /><polygon
       transform="translate(-224.73732,-887.79999)"
       id="polygon7_3_"
       class="st941"
       points="1065.5,1005.8 1269.8,1095.1 1269.8,1069.4 1065.5,979 "
       style="opacity:1;fill:#ffffff" /><polygon
       transform="translate(-224.73732,-887.79999)"
       id="polygon9_3_"
       class="st944"
       points="1065.5,1005.8 1269.8,1095.1 1269.8,1069.4 1065.5,979 "
       style="fill:none;stroke:#0a0731;stroke-width:0.23999999" /><polygon
       transform="translate(-224.73732,-887.79999)"
       id="polygon11_3_"
       class="st941"
       points="620.9,1260.8 609.7,1264.9 609.7,1240.7 620.9,1234.4 "
       style="opacity:1;fill:#ffffff" /><polygon
       transform="translate(-224.73732,-887.79999)"
       id="polygon13_3_"
       class="st944"
       points="620.9,1260.8 609.7,1264.9 609.7,1240.7 620.9,1234.4 "
       style="fill:none;stroke:#0a0731;stroke-width:0.23999999" /><polygon
       transform="translate(-224.73732,-887.79999)"
       id="polygon15_3_"
       class="st941"
       points="579.4,1114.4 738.5,1187.4 738.5,1160.1 579.4,1087.5 "
       style="opacity:1;fill:#ffffff" /><polygon
       transform="translate(-224.73732,-887.79999)"
       id="polygon17_3_"
       class="st944"
       points="579.4,1114.4 738.5,1187.4 738.5,1160.1 579.4,1087.5 "
       style="fill:none;stroke:#0a0731;stroke-width:0.23999999" /><polygon
       transform="translate(-224.73732,-887.79999)"
       id="polygon19_3_"
       class="st941"
       points="865.6,1089.4 611.6,982.4 612.6,1003.2 865.6,1113.9 "
       style="opacity:1;fill:#ffffff" /><polygon
       transform="translate(-224.73732,-887.79999)"
       id="polygon21_3_"
       class="st944"
       points="865.6,1089.4 611.6,982.4 612.6,1003.2 865.6,1113.9 "
       style="fill:none;stroke:#0a0731;stroke-width:0.23999999" /><polygon
       transform="translate(-224.73732,-887.79999)"
       id="polygon23_3_"
       class="st941"
       points="645.9,1212.6 670.5,1225.1 738.7,1187.4 738.7,1159.8 "
       style="opacity:1;fill:#ffffff" /><polygon
       transform="translate(-224.73732,-887.79999)"
       id="polygon25_3_"
       class="st944"
       points="645.9,1212.6 670.5,1225.1 738.7,1187.4 738.7,1159.8 "
       style="fill:none;stroke:#0a0731;stroke-width:0.23999999" /><polygon
       transform="translate(-224.73732,-887.79999)"
       id="polygon27_3_"
       class="st941"
       points="1119.5,979 1354.9,1082.3 1354.9,1060.3 1119.5,955.7 "
       style="opacity:1;fill:#ffffff" /><polygon
       transform="translate(-224.73732,-887.79999)"
       id="polygon29_3_"
       class="st944"
       points="1119.5,979 1354.9,1082.3 1354.9,1060.3 1119.5,955.7 "
       style="fill:none;stroke:#0a0731;stroke-width:0.23999999" /><polygon
       transform="translate(-224.73732,-887.79999)"
       id="polygon31_3_"
       class="st941"
       points="235,1174.2 401,1273.7 401,1241.4 235,1139.8 "
       style="opacity:1;fill:#ffffff" /><polygon
       transform="translate(-224.73732,-887.79999)"
       id="polygon33_3_"
       class="st944"
       points="235,1174.2 401,1273.7 401,1241.4 235,1139.8 "
       style="fill:none;stroke:#0a0731;stroke-width:0.23999999" /><polygon
       transform="translate(-224.73732,-887.79999)"
       id="polygon35_3_"
       class="st941"
       points="508.5,1190.1 721.1,1295.7 721.4,1321.9 508.5,1217.7 "
       style="opacity:1;fill:#ffffff" /><polygon
       transform="translate(-224.73732,-887.79999)"
       id="polygon37_3_"
       class="st944"
       points="508.5,1190.1 721.1,1295.7 721.4,1321.9 508.5,1217.7 "
       style="fill:none;stroke:#0a0731;stroke-width:0.23999999" /><polygon
       transform="translate(-224.73732,-887.79999)"
       id="polygon39_3_"
       class="st941"
       points="569.6,1170.3 594.3,1182.5 654.4,1148.3 654.4,1123.2 "
       style="opacity:1;fill:#ffffff" /><polygon
       transform="translate(-224.73732,-887.79999)"
       id="polygon41_3_"
       class="st944"
       points="569.6,1170.3 594.3,1182.5 654.4,1148.3 654.4,1123.2 "
       style="fill:none;stroke:#0a0731;stroke-width:0.23999999" /><path
       id="path43_3_"
       class="st941"
       d="m 546.06268,566.80001 65,30.1 9.3,-17.8 -74.3,-35.2 0,22.9 z m -81.2,-61.1 -62.1,-29.3 0,24 62.1,28.8 0,-23.5 z"
       style="opacity:1;fill:#ffffff" /><path
       id="path45_3_"
       class="st944"
       d="m 546.06268,566.80001 65,30.1 9.3,-17.8 -74.3,-35.2 0,22.9 z m -81.2,-61.1 -62.1,-29.3 0,24 62.1,28.8 0,-23.5 z"
       style="fill:none;stroke:#0a0731;stroke-width:0.23999999" /><polygon
       transform="translate(-224.73732,-887.79999)"
       id="polygon47_3_"
       class="st941"
       points="974.1,1466.5 1047.4,1502 1047.4,1479 973.4,1445.5 "
       style="opacity:1;fill:#ffffff" /><polygon
       transform="translate(-224.73732,-887.79999)"
       id="polygon49_3_"
       class="st944"
       points="974.1,1466.5 1047.4,1502 1047.4,1479 973.4,1445.5 "
       style="fill:none;stroke:#0a0731;stroke-width:0.23999999" /><polygon
       transform="translate(-224.73732,-887.79999)"
       id="polygon51_3_"
       class="st941"
       points="1010.8,1402.3 1060.9,1427.7 1060.9,1401.8 1010.3,1376.1 "
       style="opacity:1;fill:#ffffff" /><polygon
       transform="translate(-224.73732,-887.79999)"
       id="polygon53_3_"
       class="st944"
       points="1010.8,1402.3 1060.9,1427.7 1060.9,1401.8 1010.3,1376.1 "
       style="fill:none;stroke:#0a0731;stroke-width:0.23999999" /><polygon
       transform="translate(-224.73732,-887.79999)"
       id="polygon55_3_"
       class="st945"
       points="1389.3,1064.7 1518.6,1130.7 1534.5,1119.7 1389.3,1045.9 "
       style="opacity:1;fill:#ffffff" /><polygon
       transform="translate(-224.73732,-887.79999)"
       id="polygon57_3_"
       class="st944"
       points="1389.3,1064.7 1518.6,1130.7 1534.5,1119.7 1389.3,1045.9 "
       style="fill:none;stroke:#0a0731;stroke-width:0.23999999" /><polygon
       transform="translate(-224.73732,-887.79999)"
       id="polygon59_3_"
       class="st941"
       points="1397.2,1146.4 1457,1176.9 1457,1154.2 1397.2,1124.4 "
       style="opacity:1;fill:#ffffff" /><polygon
       transform="translate(-224.73732,-887.79999)"
       id="polygon61_3_"
       class="st944"
       points="1397.2,1146.4 1457,1176.9 1457,1154.2 1397.2,1124.4 "
       style="fill:none;stroke:#0a0731;stroke-width:0.23999999" /><polygon
       transform="translate(-224.73732,-887.79999)"
       id="polygon63_3_"
       class="st941"
       points="478,1150 751.9,1283.7 751.9,1258.6 478,1122.7 "
       style="opacity:1;fill:#ffffff" /><polygon
       transform="translate(-224.73732,-887.79999)"
       id="polygon65_3_"
       class="st944"
       points="478,1150 751.9,1283.7 751.9,1258.6 478,1122.7 "
       style="fill:none;stroke:#0a0731;stroke-width:0.23999999" /><polygon
       transform="translate(-224.73732,-887.79999)"
       id="polygon67_3_"
       class="st941"
       points="627.5,1364.1 648.3,1373.4 721.4,1321.9 721.1,1295.7 "
       style="opacity:1;fill:#ffffff" /><polygon
       transform="translate(-224.73732,-887.79999)"
       id="polygon69_3_"
       class="st944"
       points="627.5,1364.1 648.3,1373.4 721.4,1321.9 721.1,1295.7 "
       style="fill:none;stroke:#0a0731;stroke-width:0.23999999" /><polygon
       transform="translate(-224.73732,-887.79999)"
       id="polygon71_3_"
       class="st941"
       points="816.5,1473.1 816.5,1496.4 875.8,1465.8 875.8,1437.2 "
       style="opacity:1;fill:#ffffff" /><polygon
       transform="translate(-224.73732,-887.79999)"
       id="polygon73_3_"
       class="st944"
       points="816.5,1473.1 816.5,1496.4 875.8,1465.8 875.8,1437.2 "
       style="fill:none;stroke:#0a0731;stroke-width:0.23999999" /><polygon
       transform="translate(-224.73732,-887.79999)"
       id="polygon75_3_"
       class="st941"
       points="816.5,1496.1 932.1,1556 932.1,1530.8 816.5,1473.6 "
       style="opacity:1;fill:#ffffff" /><polygon
       transform="translate(-224.73732,-887.79999)"
       id="polygon77_3_"
       class="st944"
       points="816.5,1496.1 932.1,1556 932.1,1530.8 816.5,1473.6 "
       style="fill:none;stroke:#0a0731;stroke-width:0.23999999" /><polygon
       transform="translate(-224.73732,-887.79999)"
       id="polygon79_3_"
       class="st941"
       points="1047.4,1479 1047.4,1502 932.1,1556 932.1,1530.8 "
       style="opacity:1;fill:#ffffff" /><polygon
       transform="translate(-224.73732,-887.79999)"
       id="polygon81_3_"
       class="st944"
       points="1047.4,1479 1047.4,1502 932.1,1556 932.1,1530.8 "
       style="fill:none;stroke:#0a0731;stroke-width:0.23999999" /><polygon
       transform="translate(-224.73732,-887.79999)"
       id="polygon83_3_"
       class="st941"
       points="1060.9,1401.8 1060.9,1427.7 996.8,1456.3 973.1,1445.5 "
       style="opacity:1;fill:#ffffff" /><polygon
       transform="translate(-224.73732,-887.79999)"
       id="polygon85_3_"
       class="st944"
       points="1060.9,1401.8 1060.9,1427.7 996.8,1456.3 973.1,1445.5 "
       style="fill:none;stroke:#0a0731;stroke-width:0.23999999" /><polygon
       transform="translate(-224.73732,-887.79999)"
       id="polygon87_3_"
       class="st941"
       points="1397.2,1146.4 1129.5,1276.6 1027.1,1384.7 1010.3,1376.1 1120.5,1252.4 1397.2,1124.4 "
       style="opacity:1;fill:#ffffff" /><polygon
       transform="translate(-224.73732,-887.79999)"
       id="polygon89_3_"
       class="st944"
       points="1397.2,1146.4 1129.5,1276.6 1027.1,1384.7 1010.3,1376.1 1120.5,1252.4 1397.2,1124.4 "
       style="fill:none;stroke:#0a0731;stroke-width:0.23999999" /><polygon
       transform="translate(-224.73732,-887.79999)"
       id="polygon91_3_"
       class="st941"
       points="1319.4,1128.3 1076.5,1247.3 1028.8,1294.2 1027.9,1267.8 1067.7,1223.4 1319.4,1105.8 "
       style="opacity:1;fill:#ffffff" /><polygon
       transform="translate(-224.73732,-887.79999)"
       id="polygon93_3_"
       class="st944"
       points="1319.4,1128.3 1076.5,1247.3 1028.8,1294.2 1027.9,1267.8 1067.7,1223.4 1319.4,1105.8 "
       style="fill:none;stroke:#0a0731;stroke-width:0.23999999" /><polygon
       transform="translate(-224.73732,-887.79999)"
       id="polygon95_3_"
       class="st941"
       points="1533.5,1118.5 1533.5,1141.5 1456.5,1177.7 1456.5,1154.9 "
       style="opacity:1;fill:#ffffff" /><polygon
       transform="translate(-224.73732,-887.79999)"
       id="polygon97_3_"
       class="st944"
       points="1533.5,1118.5 1533.5,1141.5 1456.5,1177.7 1456.5,1154.9 "
       style="fill:none;stroke:#0a0731;stroke-width:0.23999999" /><polygon
       transform="translate(-224.73732,-887.79999)"
       id="polygon99_3_"
       class="st941"
       points="1354.9,1060.8 1354.9,1082.3 1368.8,1076 1368.8,1054 "
       style="opacity:1;fill:#ffffff" /><polygon
       transform="translate(-224.73732,-887.79999)"
       id="polygon101_3_"
       class="st944"
       points="1354.9,1060.8 1354.9,1082.3 1368.8,1076 1368.8,1054 "
       style="fill:none;stroke:#0a0731;stroke-width:0.23999999" /><polygon
       transform="translate(-224.73732,-887.79999)"
       id="polygon103_3_"
       class="st941"
       points="865.6,1112.9 865.6,1089.4 937.9,1040.6 1035.9,996.3 1038.4,1023.2 947,1067.9 "
       style="opacity:1;fill:#ffffff" /><polygon
       transform="translate(-224.73732,-887.79999)"
       id="polygon105_3_"
       class="st944"
       points="865.6,1112.9 865.6,1089.4 937.9,1040.6 1035.9,996.3 1038.4,1023.2 947,1067.9 "
       style="fill:none;stroke:#0a0731;stroke-width:0.23999999" /><polygon
       transform="translate(-224.73732,-887.79999)"
       id="polygon107_3_"
       class="st941"
       points="235,1139.8 267.3,1159.6 612.6,1003.2 611.6,982.4 "
       style="opacity:1;fill:#ffffff" /><polygon
       transform="translate(-224.73732,-887.79999)"
       id="polygon109_3_"
       class="st944"
       points="235,1139.8 267.3,1159.6 612.6,1003.2 611.6,982.4 "
       style="fill:none;stroke:#0a0731;stroke-width:0.23999999" /><polygon
       transform="translate(-224.73732,-887.79999)"
       id="polygon111_3_"
       class="st941"
       points="401,1241.4 401,1273.7 508.5,1217.7 508.5,1190.1 "
       style="opacity:1;fill:#ffffff" /><polygon
       transform="translate(-224.73732,-887.79999)"
       id="polygon113_3_"
       class="st944"
       points="401,1241.4 401,1273.7 508.5,1217.7 508.5,1190.1 "
       style="fill:none;stroke:#0a0731;stroke-width:0.23999999" /><polygon
       transform="translate(-224.73732,-887.79999)"
       id="polygon115_3_"
       class="st941"
       points="579.6,1088 579.6,1115.6 522.7,1144.7 498.7,1132.7 "
       style="opacity:1;fill:#ffffff" /><polygon
       transform="translate(-224.73732,-887.79999)"
       id="polygon117_3_"
       class="st944"
       points="579.6,1088 579.6,1115.6 522.7,1144.7 498.7,1132.7 "
       style="fill:none;stroke:#0a0731;stroke-width:0.23999999" /><polygon
       transform="translate(-224.73732,-887.79999)"
       id="polygon119_3_"
       class="st941"
       points="653,1234.6 641.7,1242.4 641.7,1214.8 653,1208.2 "
       style="opacity:1;fill:#ffffff" /><polygon
       transform="translate(-224.73732,-887.79999)"
       id="polygon121_3_"
       class="st944"
       points="653,1234.6 641.7,1242.4 641.7,1214.8 653,1208.2 "
       style="fill:none;stroke:#0a0731;stroke-width:0.23999999" /><polygon
       transform="translate(-224.73732,-887.79999)"
       id="polygon123_3_"
       class="st941"
       points="751.9,1283.7 848.2,1231.9 872.7,1245.8 873.6,1222.4 848.2,1206.7 751.9,1258.6 "
       style="opacity:1;fill:#ffffff" /><polygon
       transform="translate(-224.73732,-887.79999)"
       id="polygon125_3_"
       class="st944"
       points="751.9,1283.7 848.2,1231.9 872.7,1245.8 873.6,1222.4 848.2,1206.7 751.9,1258.6 "
       style="fill:none;stroke:#0a0731;stroke-width:0.23999999" /><polygon
       transform="translate(-224.73732,-887.79999)"
       id="polygon127_3_"
       class="st941"
       points="924.5,1091.9 1069.4,1154.4 1082.1,1152.2 938.7,1085.3 "
       style="opacity:1;fill:#ffffff" /><polygon
       transform="translate(-224.73732,-887.79999)"
       id="polygon129_3_"
       class="st946"
       points="924.5,1091.9 1069.4,1154.4 1082.1,1152.2 938.7,1085.3 "
       style="fill:none;stroke:#0a0731;stroke-width:0.47999999" /><path
       id="path139_3_"
       class="st941"
       d="m 697.26268,197.40001 -14.4,5.9 150.8,68.2 11,-4.9 c 0.7,0.9 -147.4,-69.2 -147.4,-69.2"
       style="opacity:1;fill:#ffffff" /><path
       id="path141_3_"
       class="st946"
       d="m 697.26268,197.40001 -14.4,5.9 150.8,68.2 11,-4.9 c 0.7,0.9 -147.4,-69.2 -147.4,-69.2 l 0,0 z"
       style="fill:none;stroke:#0a0731;stroke-width:0.47999999" /><polygon
       transform="translate(-224.73732,-887.79999)"
       id="polygon143_3_"
       class="st941"
       points="883.7,1095.1 1032,1160.6 1044.5,1148.8 904,1085.3 "
       style="opacity:1;fill:#ffffff" /><polygon
       transform="translate(-224.73732,-887.79999)"
       id="polygon145_3_"
       class="st946"
       points="883.7,1095.1 1032,1160.6 1044.5,1148.8 904,1085.3 "
       style="fill:none;stroke:#0a0731;stroke-width:0.47999999" /><polygon
       transform="translate(-224.73732,-887.79999)"
       id="polygon147_3_"
       class="st941"
       points="871.4,1091.9 1020.8,1159.3 1032,1154.4 885.4,1085.3 "
       style="opacity:1;fill:#ffffff" /><polygon
       transform="translate(-224.73732,-887.79999)"
       id="polygon149_3_"
       class="st946"
       points="871.4,1091.9 1020.8,1159.3 1032,1154.4 885.4,1085.3 "
       style="fill:none;stroke:#0a0731;stroke-width:0.47999999" /><polygon
       transform="translate(-224.73732,-887.79999)"
       id="polygon151_3_"
       class="st941"
       points="809.9,1113.9 951.9,1173.3 1009,1148.8 868.5,1086.3 "
       style="opacity:1;fill:#ffffff" /><polygon
       transform="translate(-224.73732,-887.79999)"
       id="polygon153_3_"
       class="st946"
       points="809.9,1113.9 951.9,1173.3 1009,1148.8 868.5,1086.3 "
       style="fill:none;stroke:#0a0731;stroke-width:0.47999999" /><polygon
       transform="translate(-224.73732,-887.79999)"
       id="polygon155_3_"
       class="st941"
       points="806.4,1109.7 953.6,1176.7 964.8,1171.8 817.4,1105.3 "
       style="opacity:1;fill:#ffffff" /><polygon
       transform="translate(-224.73732,-887.79999)"
       id="polygon157_3_"
       class="st946"
       points="806.4,1109.7 953.6,1176.7 964.8,1171.8 817.4,1105.3 "
       style="fill:none;stroke:#0a0731;stroke-width:0.47999999" /><polygon
       transform="translate(-224.73732,-887.79999)"
       id="polygon159_3_"
       class="st941"
       points="786.9,1110.9 927.4,1172 940.1,1169.8 799.1,1104.8 "
       style="opacity:1;fill:#ffffff" /><polygon
       transform="translate(-224.73732,-887.79999)"
       id="polygon161_3_"
       class="st946"
       points="786.9,1110.9 927.4,1172 940.1,1169.8 799.1,1104.8 "
       style="fill:none;stroke:#0a0731;stroke-width:0.47999999" /><polygon
       transform="translate(-224.73732,-887.79999)"
       id="polygon163_3_"
       class="st941"
       points="769,1110.2 916.4,1176.9 927.4,1172 780.3,1104.8 "
       style="opacity:1;fill:#ffffff" /><polygon
       transform="translate(-224.73732,-887.79999)"
       id="polygon165_3_"
       class="st946"
       points="769,1110.2 916.4,1176.9 927.4,1172 780.3,1104.8 "
       style="fill:none;stroke:#0a0731;stroke-width:0.47999999" /><polygon
       transform="translate(-224.73732,-887.79999)"
       id="polygon167_3_"
       class="st941"
       points="744.6,1111.7 889.8,1178.1 902.5,1166.4 762.7,1104.8 "
       style="opacity:1;fill:#ffffff" /><polygon
       transform="translate(-224.73732,-887.79999)"
       id="polygon169_3_"
       class="st946"
       points="744.6,1111.7 889.8,1178.1 902.5,1166.4 762.7,1104.8 "
       style="fill:none;stroke:#0a0731;stroke-width:0.47999999" /><polygon
       transform="translate(-224.73732,-887.79999)"
       id="polygon171_3_"
       class="st941"
       points="731.6,1110.2 878.8,1176.9 889.8,1172 742.4,1105.6 "
       style="opacity:1;fill:#ffffff" /><polygon
       transform="translate(-224.73732,-887.79999)"
       id="polygon173_3_"
       class="st946"
       points="731.6,1110.2 878.8,1176.9 889.8,1172 742.4,1105.6 "
       style="fill:none;stroke:#0a0731;stroke-width:0.47999999" /><polygon
       transform="translate(-224.73732,-887.79999)"
       id="polygon175_3_"
       class="st941"
       points="872.7,1245.8 1082.1,1152.2 1009,1141.2 950.9,1166.2 876.6,1160.1 "
       style="opacity:1;fill:#ffffff" /><polygon
       transform="translate(-224.73732,-887.79999)"
       id="polygon177_3_"
       class="st944"
       points="872.7,1245.8 1082.1,1152.2 1009,1141.2 950.9,1166.2 876.6,1160.1 "
       style="fill:none;stroke:#0a0731;stroke-width:0.23999999" /><polygon
       transform="translate(-224.73732,-887.79999)"
       id="polygon179_3_"
       class="st941"
       points="414.2,1078.9 414.2,1090.4 368.2,1068.7 368.7,1056.4 "
       style="opacity:1;fill:#ffffff" /><polygon
       transform="translate(-224.73732,-887.79999)"
       id="polygon181_3_"
       class="st944"
       points="414.2,1078.9 414.2,1090.4 368.2,1068.7 368.7,1056.4 "
       style="fill:none;stroke:#0a0731;stroke-width:0.23999999" /><polygon
       transform="translate(-224.73732,-887.79999)"
       id="polygon183_3_"
       class="st941"
       points="425.7,1075.5 418.1,1080.6 368.7,1056.4 381.9,1051.3 "
       style="opacity:1;fill:#ffffff" /><polygon
       transform="translate(-224.73732,-887.79999)"
       id="polygon185_3_"
       class="st944"
       points="425.7,1075.5 418.1,1080.6 368.7,1056.4 381.9,1051.3 "
       style="fill:none;stroke:#0a0731;stroke-width:0.23999999" /><polygon
       transform="translate(-224.73732,-887.79999)"
       id="polygon187_3_"
       class="st941"
       points="427.4,1065 425.7,1075.5 377.8,1053 377.8,1042.3 "
       style="opacity:1;fill:#ffffff" /><polygon
       transform="translate(-224.73732,-887.79999)"
       id="polygon189_3_"
       class="st944"
       points="427.4,1065 425.7,1075.5 377.8,1053 377.8,1042.3 "
       style="fill:none;stroke:#0a0731;stroke-width:0.23999999" /><polygon
       transform="translate(-224.73732,-887.79999)"
       id="polygon191_3_"
       class="st941"
       points="437.4,1059.1 427.4,1065 377.8,1042.3 391,1037.4 "
       style="opacity:1;fill:#ffffff" /><polygon
       transform="translate(-224.73732,-887.79999)"
       id="polygon193_3_"
       class="st944"
       points="437.4,1059.1 427.4,1065 377.8,1042.3 391,1037.4 "
       style="fill:none;stroke:#0a0731;stroke-width:0.23999999" /><polygon
       transform="translate(-224.73732,-887.79999)"
       id="polygon195_3_"
       class="st941"
       points="437.1,1047.6 437.1,1059.1 391,1037.4 391,1027.4 "
       style="opacity:1;fill:#ffffff" /><polygon
       transform="translate(-224.73732,-887.79999)"
       id="polygon197_3_"
       class="st944"
       points="437.1,1047.6 437.1,1059.1 391,1037.4 391,1027.4 "
       style="fill:none;stroke:#0a0731;stroke-width:0.23999999" /><polygon
       transform="translate(-224.73732,-887.79999)"
       id="polygon199_3_"
       class="st941"
       points="381.2,1135.6 370.2,1141.2 320.3,1118.3 334,1111.7 "
       style="opacity:1;fill:#ffffff" /><polygon
       transform="translate(-224.73732,-887.79999)"
       id="polygon201_3_"
       class="st944"
       points="381.2,1135.6 370.2,1141.2 320.3,1118.3 334,1111.7 "
       style="fill:none;stroke:#0a0731;stroke-width:0.23999999" /><polygon
       transform="translate(-224.73732,-887.79999)"
       id="polygon203_3_"
       class="st941"
       points="381.2,1126.6 381.2,1136.1 329.9,1113.6 329.9,1102.6 "
       style="opacity:1;fill:#ffffff" /><polygon
       transform="translate(-224.73732,-887.79999)"
       id="polygon205_3_"
       class="st944"
       points="381.2,1126.6 381.2,1136.1 329.9,1113.6 329.9,1102.6 "
       style="fill:none;stroke:#0a0731;stroke-width:0.23999999" /><polygon
       transform="translate(-224.73732,-887.79999)"
       id="polygon207_3_"
       class="st941"
       points="390.7,1121.7 381.4,1126.3 329.9,1102.6 343.1,1097.7 "
       style="opacity:1;fill:#ffffff" /><polygon
       transform="translate(-224.73732,-887.79999)"
       id="polygon209_3_"
       class="st944"
       points="390.7,1121.7 381.4,1126.3 329.9,1102.6 343.1,1097.7 "
       style="fill:none;stroke:#0a0731;stroke-width:0.23999999" /><polygon
       transform="translate(-224.73732,-887.79999)"
       id="polygon211_3_"
       class="st941"
       points="390.7,1111.4 390.7,1121.7 343.1,1097.7 343.5,1088.2 "
       style="opacity:1;fill:#ffffff" /><polygon
       transform="translate(-224.73732,-887.79999)"
       id="polygon213_3_"
       class="st944"
       points="390.7,1111.4 390.7,1121.7 343.1,1097.7 343.5,1088.2 "
       style="fill:none;stroke:#0a0731;stroke-width:0.23999999" /><polygon
       transform="translate(-224.73732,-887.79999)"
       id="polygon215_3_"
       class="st941"
       points="356.7,1155.9 355,1166.4 307.1,1143.9 307.1,1133.2 "
       style="opacity:1;fill:#ffffff" /><polygon
       transform="translate(-224.73732,-887.79999)"
       id="polygon217_3_"
       class="st944"
       points="356.7,1155.9 355,1166.4 307.1,1143.9 307.1,1133.2 "
       style="fill:none;stroke:#0a0731;stroke-width:0.23999999" /><polygon
       transform="translate(-224.73732,-887.79999)"
       id="polygon219_3_"
       class="st941"
       points="366.8,1150 356.7,1155.9 307.1,1133.2 320.3,1128.3 "
       style="opacity:1;fill:#ffffff" /><polygon
       transform="translate(-224.73732,-887.79999)"
       id="polygon221_3_"
       class="st944"
       points="366.8,1150 356.7,1155.9 307.1,1133.2 320.3,1128.3 "
       style="fill:none;stroke:#0a0731;stroke-width:0.23999999" /><polygon
       transform="translate(-224.73732,-887.79999)"
       id="polygon223_3_"
       class="st941"
       points="366.8,1138.6 366.8,1150 320.3,1128.3 320.3,1118.3 "
       style="opacity:1;fill:#ffffff" /><polygon
       transform="translate(-224.73732,-887.79999)"
       id="polygon225_3_"
       class="st944"
       points="366.8,1138.6 366.8,1150 320.3,1128.3 320.3,1118.3 "
       style="fill:none;stroke:#0a0731;stroke-width:0.23999999" /><polygon
       transform="translate(-224.73732,-887.79999)"
       id="polygon227_3_"
       class="st941"
       points="402.7,1106 391,1111.7 343.5,1088.5 356.7,1083.1 "
       style="opacity:1;fill:#ffffff" /><polygon
       transform="translate(-224.73732,-887.79999)"
       id="polygon229_3_"
       class="st944"
       points="402.7,1106 391,1111.7 343.5,1088.5 356.7,1083.1 "
       style="fill:none;stroke:#0a0731;stroke-width:0.23999999" /><polygon
       transform="translate(-224.73732,-887.79999)"
       id="polygon231_3_"
       class="st941"
       points="402.9,1095.3 402.9,1106.5 355,1084.3 355,1073.5 "
       style="opacity:1;fill:#ffffff" /><polygon
       transform="translate(-224.73732,-887.79999)"
       id="polygon233_3_"
       class="st944"
       points="402.9,1095.3 402.9,1106.5 355,1084.3 355,1073.5 "
       style="fill:none;stroke:#0a0731;stroke-width:0.23999999" /><polygon
       transform="translate(-224.73732,-887.79999)"
       id="polygon235_3_"
       class="st941"
       points="413.9,1090.2 402.9,1095.5 355,1073.5 368.2,1068.7 "
       style="opacity:1;fill:#ffffff" /><polygon
       transform="translate(-224.73732,-887.79999)"
       id="polygon237_3_"
       class="st944"
       points="413.9,1090.2 402.9,1095.5 355,1073.5 368.2,1068.7 "
       style="fill:none;stroke:#0a0731;stroke-width:0.23999999" /><polygon
       transform="translate(-224.73732,-887.79999)"
       id="polygon239_3_"
       class="st941"
       points="354,1173.3 401,1155.9 478,1150 478,1122.7 401,1129.5 354,1144.7 "
       style="opacity:1;fill:#ffffff" /><polygon
       transform="translate(-224.73732,-887.79999)"
       id="polygon241_3_"
       class="st944"
       points="354,1173.3 401,1155.9 478,1150 478,1122.7 401,1129.5 354,1144.7 "
       style="fill:none;stroke:#0a0731;stroke-width:0.23999999" /><g
       transform="translate(-224.73732,-887.79999)"
       id="polygon243_5_"
       class="st947"
       style="opacity:1"><g
         id="g6871"><polygon
           class="st925"
           points="427.1,1092.6 479.7,1118 685.2,1009.5 541.7,954 366.8,1017.8 391,1027.4 437.1,1047.6 389.5,1073.3 "
           id="polygon6873"
           style="fill:#ac764e;fill-opacity:1" /></g></g><path
       id="path253_3_"
       class="st943"
       d="m 188.66268,107.20001 c 0,0 37.9,19.6 39.1,19.6 1.2,0 30.3,-7.8 30.3,-7.8 l 32,-18.3 73.6,29.8 42.3,18.8 39.1,-29.3 -8.6,-17.6 c 0,0 -128.6,-44.5 -129.8,-44.5 -1.2,-0.1 -118,49.3 -118,49.3"
       style="fill:#604d5f" /><polygon
       transform="translate(-224.73732,-887.79999)"
       id="polygon255_3_"
       class="st941"
       points="366.8,995.1 366.8,1018.1 541,954.5 541,930.3 "
       style="opacity:1;fill:#ffffff" /><polygon
       transform="translate(-224.73732,-887.79999)"
       id="polygon257_3_"
       class="st944"
       points="366.8,995.1 366.8,1018.1 541,954.5 541,930.3 "
       style="fill:none;stroke:#0a0731;stroke-width:0.23999999" /><polygon
       transform="translate(-224.73732,-887.79999)"
       id="polygon259_3_"
       class="st941"
       points="541,954.5 658.8,1002.4 687.2,988.2 541,930.1 "
       style="opacity:1;fill:#ffffff" /><polygon
       transform="translate(-224.73732,-887.79999)"
       id="polygon261_3_"
       class="st944"
       points="541,954.5 658.8,1002.4 687.2,988.2 541,930.1 "
       style="fill:none;stroke:#0a0731;stroke-width:0.23999999" /><polygon
       transform="translate(-224.73732,-887.79999)"
       id="polygon263_3_"
       class="st941"
       points="485.3,975.1 624.4,1046.4 624.4,1019.8 485.3,951.6 "
       style="opacity:1;fill:#ffffff" /><polygon
       transform="translate(-224.73732,-887.79999)"
       id="polygon265_3_"
       class="st944"
       points="485.3,975.1 624.4,1046.4 624.4,1019.8 485.3,951.6 "
       style="fill:none;stroke:#0a0731;stroke-width:0.23999999" /><polygon
       transform="translate(-224.73732,-887.79999)"
       id="polygon267_3_"
       class="st941"
       points="687.2,988.2 685.5,1014.6 479.7,1118 481.1,1092.6 "
       style="opacity:1;fill:#ffffff" /><polygon
       transform="translate(-224.73732,-887.79999)"
       id="polygon269_3_"
       class="st944"
       points="687.2,988.2 685.5,1014.6 479.7,1118 481.1,1092.6 "
       style="fill:none;stroke:#0a0731;stroke-width:0.23999999" /><polygon
       transform="translate(-224.73732,-887.79999)"
       id="polygon271_3_"
       class="st948"
       points="462.7,1061.5 453.3,1055.3 439,1062 434.9,1058.8 420.1,1074.5 454.5,1070.4 448.2,1067.5 "
       style="fill:#cb9443;stroke:#f1f2f2;stroke-miterlimit:10" /><polygon
       transform="translate(-224.73732,-887.79999)"
       id="polygon273_3_"
       class="st941"
       points="409,1001.9 457.9,1027.8 457.9,1003.4 409,979.7 "
       style="opacity:1;fill:#ffffff" /><polygon
       transform="translate(-224.73732,-887.79999)"
       id="polygon275_3_"
       class="st944"
       points="409,1001.9 457.9,1027.8 457.9,1003.4 409,979.7 "
       style="fill:none;stroke:#0a0731;stroke-width:0.23999999" /><polygon
       transform="translate(-224.73732,-887.79999)"
       id="polygon277_3_"
       class="st941"
       points="551.5,995.8 560.8,999.7 560.8,1013.7 551.5,1009 "
       style="opacity:1;fill:#ffffff" /><polygon
       transform="translate(-224.73732,-887.79999)"
       id="polygon279_3_"
       class="st946"
       points="551.5,995.8 560.8,999.7 560.8,1013.7 551.5,1009 "
       style="fill:none;stroke:#0a0731;stroke-width:0.47999999" /><polygon
       transform="translate(-224.73732,-887.79999)"
       id="polygon281_3_"
       class="st941"
       points="457.9,1003.4 457.9,1027.8 525.4,995.1 525.4,970.9 "
       style="opacity:1;fill:#ffffff" /><polygon
       transform="translate(-224.73732,-887.79999)"
       id="polygon283_3_"
       class="st944"
       points="457.9,1003.4 457.9,1027.8 525.4,995.1 525.4,970.9 "
       style="fill:none;stroke:#0a0731;stroke-width:0.23999999" /><polygon
       transform="translate(-224.73732,-887.79999)"
       id="polygon285_3_"
       class="st941"
       points="542.2,1162.3 554.2,1168.4 554.2,1186.5 542.2,1180.6 "
       style="opacity:1;fill:#ffffff" /><polygon
       transform="translate(-224.73732,-887.79999)"
       id="polygon287_3_"
       class="st946"
       points="542.2,1162.3 554.2,1168.4 554.2,1186.5 542.2,1180.6 "
       style="fill:none;stroke:#0a0731;stroke-width:0.47999999" /><polygon
       transform="translate(-224.73732,-887.79999)"
       id="polygon289_3_"
       class="st941"
       points="610.4,1196.2 622.2,1202.3 622.2,1220.4 610.4,1214.6 "
       style="opacity:1;fill:#ffffff" /><polygon
       transform="translate(-224.73732,-887.79999)"
       id="polygon291_3_"
       class="st946"
       points="610.4,1196.2 622.2,1202.3 622.2,1220.4 610.4,1214.6 "
       style="fill:none;stroke:#0a0731;stroke-width:0.47999999" /><polygon
       transform="translate(-224.73732,-887.79999)"
       id="polygon293_3_"
       class="st941"
       points="491.6,1011.2 503.4,1005.8 503.4,992.2 491.6,997 "
       style="opacity:1;fill:#ffffff" /><polygon
       transform="translate(-224.73732,-887.79999)"
       id="polygon295_3_"
       class="st946"
       points="491.6,1011.2 503.4,1005.8 503.4,992.2 491.6,997 "
       style="fill:none;stroke:#0a0731;stroke-width:0.47999999" /><rect
       id="rect459_3_"
       x="172.06267"
       y="141.00006"
       class="st933"
       width="113.6"
       height="21.799999"
       style="fill:#4b1a26" /><g
       transform="translate(-224.73732,-887.79999)"
       id="g7054"><path
         class="st935"
         d="m 412.1,1035.2 -1.3,0 0,-1.4 3,0 0,14.8 -1.7,0 0,-13.4 z"
         id="path7056"
         style="fill:#f1f2f2" /><path
         class="st935"
         d="m 418.1,1035.2 -1.3,0 0,-1.4 3,0 0,10.9 -1.7,0 0,-9.5 z"
         id="path7058"
         style="fill:#f1f2f2" /><path
         class="st935"
         d="m 424.5,1035.2 -2,0 0,-1.4 3.7,0 0,6.1 -1.7,0 0,-4.7 z"
         id="path7060"
         style="fill:#f1f2f2" /><path
         class="st935"
         d="m 437.3,1034.9 -4,9.8 -1.8,0 4,-9.5 -6.5,0 0,-4.7 1.7,0 0,3.3 6.6,0 0,1.1 z"
         id="path7062"
         style="fill:#f1f2f2" /><path
         class="st935"
         d="m 447.8,1033.8 0,6.5 c 0,1 -0.2,1.8 -0.6,2.5 -0.4,0.7 -1,1.2 -1.7,1.6 -0.7,0.4 -1.6,0.5 -2.5,0.5 -1.2,0 -2.5,-0.3 -3.9,-0.8 l 0.4,-1.3 c 1.1,0.4 2,0.6 2.9,0.7 -0.5,-0.5 -0.8,-1.1 -0.9,-1.8 l -1.8,-8 1.7,0 1.8,8.1 c 0.1,0.4 0.2,0.7 0.3,1 0.1,0.3 0.2,0.5 0.3,0.7 0.7,-0.2 1.3,-0.5 1.7,-1 0.4,-0.5 0.6,-1.2 0.6,-2.1 l 0,-6.6 1.7,0 z"
         id="path7064"
         style="fill:#f1f2f2" /><path
         class="st935"
         d="m 458.9,1044.3 c -0.7,-0.4 -1.2,-1 -1.6,-1.8 -0.4,-0.8 -0.6,-1.6 -0.6,-2.6 l 0,-1.1 c 0,-0.5 0.1,-0.9 0.2,-1.4 0.1,-0.5 0.3,-0.9 0.6,-1.3 0.2,-0.4 0.5,-0.7 0.8,-0.9 0,0 0.1,-0.1 0.1,-0.1 l 0,0 c -0.3,0 -1,0.2 -2,0.5 l -0.3,-1.3 c 0.7,-0.2 1.5,-0.4 2.4,-0.5 0.9,-0.1 1.7,-0.2 2.5,-0.2 1,0 1.9,0.2 2.6,0.6 0.7,0.4 1.3,1 1.7,1.7 0.4,0.8 0.6,1.6 0.6,2.7 l 0,1.3 c 0,1 -0.2,1.9 -0.6,2.6 -0.4,0.7 -0.9,1.3 -1.6,1.8 -0.7,0.4 -1.5,0.6 -2.4,0.6 -0.9,0 -1.7,-0.2 -2.4,-0.6 z m 3.9,-1.3 c 0.4,-0.3 0.8,-0.7 1,-1.2 0.2,-0.5 0.4,-1.2 0.4,-1.9 l 0,-1.3 c 0,-0.7 -0.1,-1.4 -0.4,-1.9 -0.2,-0.5 -0.6,-1 -1,-1.2 -0.5,-0.3 -1,-0.4 -1.6,-0.4 -0.6,0 -1,0.1 -1.5,0.4 -0.4,0.3 -0.7,0.7 -1,1.3 -0.2,0.6 -0.4,1.2 -0.4,2 l 0,1.2 c 0,0.7 0.1,1.3 0.4,1.9 0.2,0.5 0.6,1 1,1.2 0.4,0.3 0.9,0.4 1.5,0.4 0.6,0 1.2,-0.2 1.6,-0.5 z"
         id="path7066"
         style="fill:#f1f2f2" /><path
         class="st935"
         d="m 476.8,1034.9 -4,9.8 -1.8,0 4,-9.5 -6.4,0 0,-4.7 1.7,0 0,3.3 6.6,0 0,1.1 z"
         id="path7068"
         style="fill:#f1f2f2" /><path
         class="st935"
         d="m 481.6,1044.8 c -0.6,-0.1 -1.3,-0.3 -1.8,-0.5 l 0.3,-1.3 c 0.5,0.2 1.1,0.3 1.7,0.4 0.6,0.1 1.1,0.1 1.5,0.1 1,0 1.8,-0.3 2.3,-0.8 0.5,-0.5 0.8,-1.2 0.8,-2.2 l 0,-5.4 -4.4,0 c -0.2,0.3 -0.4,0.8 -0.5,1.3 -0.1,0.5 -0.2,1 -0.2,1.6 l 0,0.8 c 0.1,0.1 0.3,0.1 0.5,0.1 0.2,0 0.5,0 0.9,0 l 0,1.5 c -0.8,0 -1.4,0 -1.8,-0.1 -0.4,-0.1 -0.9,-0.3 -1.3,-0.5 l 0,-1.4 c 0,-0.6 0.1,-1.2 0.2,-1.8 0.2,-0.6 0.4,-1.1 0.6,-1.5 l -1.3,0 0,-1.4 8.9,0 0,6.5 c 0,1 -0.2,1.9 -0.6,2.6 -0.4,0.7 -1,1.2 -1.7,1.6 -0.7,0.3 -1.5,0.5 -2.5,0.5 -0.4,0 -1,0 -1.6,-0.1 z"
         id="path7070"
         style="fill:#f1f2f2" /><path
         class="st935"
         d="m 492.7,1037.8 c 0.1,-0.5 0.2,-1 0.4,-1.4 0.2,-0.4 0.5,-0.8 0.8,-1 0,0 0.1,-0.1 0.2,-0.1 l 0,0 c -0.3,0 -0.6,0.1 -1,0.2 -0.4,0.1 -0.8,0.2 -1.1,0.3 l -0.4,-1.3 c 0.7,-0.2 1.5,-0.4 2.4,-0.6 0.9,-0.2 1.7,-0.2 2.5,-0.2 1.5,0 2.6,0.4 3.4,1.2 0.8,0.8 1.2,1.9 1.2,3.4 l 0,6.5 -4.5,0 0,-1.4 2.8,0 0,-5.3 c 0,-1 -0.2,-1.7 -0.7,-2.2 -0.4,-0.5 -1.1,-0.8 -1.9,-0.8 -0.6,0 -1.1,0.2 -1.5,0.7 -0.4,0.5 -0.6,1.1 -0.7,1.9 l -0.8,7.1 -1.7,0 0.6,-7 z"
         id="path7072"
         style="fill:#f1f2f2" /></g></g></svg>