<?xml version="1.0" encoding="UTF-8" standalone="no"?>
<svg
   xmlns:dc="http://purl.org/dc/elements/1.1/"
   xmlns:cc="http://creativecommons.org/ns#"
   xmlns:rdf="http://www.w3.org/1999/02/22-rdf-syntax-ns#"
   xmlns:svg="http://www.w3.org/2000/svg"
   xmlns="http://www.w3.org/2000/svg"
   xmlns:xlink="http://www.w3.org/1999/xlink"
   version="1.1"
   id="svg8686"
   viewBox="0 0 62.099997 39.449227"
   height="11.133449mm"
   width="17.525999mm">
  <defs
     id="defs8688">
    <clipPath
       id="SVGID_48_">
      <use
         height="100%"
         width="100%"
         y="0"
         x="0"
         id="use346"
         style="overflow:visible"
         xlink:href="#SVGID_47_" />
    </clipPath>
    <clipPath
       id="SVGID_50_">
      <use
         height="100%"
         width="100%"
         y="0"
         x="0"
         id="use355"
         style="overflow:visible"
         xlink:href="#SVGID_49_" />
    </clipPath>
  </defs>
  <metadata
     id="metadata8691">
    <rdf:RDF>
      <cc:Work
         rdf:about="">
        <dc:format>image/svg+xml</dc:format>
        <dc:type
           rdf:resource="http://purl.org/dc/dcmitype/StillImage" />
        <dc:title></dc:title>
      </cc:Work>
    </rdf:RDF>
  </metadata>
  <g
     transform="translate(-163.23572,-484.06616)"
     id="layer1">
    <rect
       style="fill:#411025"
       height="13"
       width="62.099998"
       class="st13"
       y="484.06616"
       x="163.23572"
       id="rect865" />
    <path
       style="fill:#fe7a8e"
       d="m 172.5357,488.26614 c 0.2,0 0.5,0 0.7,0.1 0.2,0.1 0.4,0.2 0.6,0.3 0.2,0.1 0.3,0.3 0.4,0.6 0.1,0.3 0.2,0.6 0.2,1 l 0,3.9 -5.5,0 0,-3.2 c 0,-0.2 0,-0.5 0,-0.7 0,-0.2 0.1,-0.5 0.1,-0.7 -0.1,0 -0.3,0 -0.4,-0.1 -0.1,0 -0.3,-0.1 -0.5,-0.1 0.1,-0.2 0.1,-0.4 0.2,-0.6 0.1,-0.2 0.1,-0.4 0.2,-0.6 0.2,0.1 0.4,0.1 0.5,0.1 0.1,0 0.3,0.1 0.4,0.1 0.1,0 0.3,0 0.4,0 0.1,0 0.3,0 0.5,0 l 2.2,-0.1 0,0 z m 0.4,4.6 0,-2.3 c 0,-0.2 0,-0.4 0,-0.6 0,-0.1 -0.1,-0.3 -0.1,-0.3 -0.1,-0.1 -0.2,-0.1 -0.3,-0.2 -0.1,0 -0.3,0 -0.5,0 l -1.4,0 c -0.1,0.3 -0.1,0.5 -0.1,0.7 0,0.2 0,0.4 0,0.7 l 0,2 2.4,0 0,0 z m 5.5,-4.6 0,5.9 -1.5,0 0,-4.7 -1,0 0,-1.2 2.5,0 0,0 z m 2.9,-1.7 0,1.6 3.2,0 c 0,0.1 0,0.2 0.1,0.2 0,0.1 0,0.1 0,0.2 0,0.1 0,0.2 0,0.3 0,0.1 0,0.2 0,0.3 l 0,1.2 c 0,0.4 -0.1,0.9 -0.3,1.3 -0.2,0.4 -0.4,0.8 -0.8,1.2 l -1.4,1.6 -1.1,-0.9 0.6,-0.7 c 0.3,-0.3 0.5,-0.6 0.7,-0.8 0.2,-0.2 0.3,-0.4 0.4,-0.5 0.1,-0.2 0.2,-0.3 0.2,-0.5 0,-0.1 0.1,-0.3 0.1,-0.5 l 0,-1 -3.3,0 0,-2.9 1.6,0 0,-0.1 z m 7.4,1.7 0,2.1 c 0,0.2 0,0.4 0,0.5 0,0.1 0,0.3 0,0.4 0,0.1 0,0.2 0,0.3 0,0.1 0,0.2 -0.1,0.3 l -1.5,-0.2 c 0,-0.1 0,-0.2 0.1,-0.3 0,-0.1 0,-0.2 0,-0.3 0,-0.1 0,-0.2 0,-0.4 0,-0.1 0,-0.3 0,-0.5 l 0,-0.7 -1.3,0 0,-1.2 2.8,0 0,0 z m 6.7,0.2 0,0.7 -0.3,1.1 c 0,0.2 -0.1,0.3 -0.2,0.5 -0.1,0.1 -0.1,0.3 -0.2,0.4 -0.1,0.1 -0.2,0.3 -0.3,0.4 -0.1,0.1 -0.2,0.2 -0.4,0.4 l 0.9,1.1 c 0,0.2 0,0.3 -0.1,0.5 0,0.2 -0.1,0.4 -0.1,0.5 l -4.8,0 0,-1.2 3.1,0 c -0.4,-0.4 -0.7,-0.8 -1.1,-1.2 -0.4,-0.4 -0.7,-0.8 -1.1,-1.2 -0.2,-0.2 -0.3,-0.3 -0.4,-0.5 -0.1,-0.1 -0.2,-0.3 -0.3,-0.4 -0.1,-0.1 -0.2,-0.3 -0.2,-0.5 -0.1,-0.2 -0.2,-0.3 -0.2,-0.6 0.2,-0.1 0.4,-0.2 0.7,-0.3 0.2,-0.1 0.5,-0.2 0.7,-0.2 0.1,0.2 0.2,0.4 0.2,0.6 0.1,0.2 0.2,0.3 0.2,0.5 0.1,0.1 0.2,0.3 0.3,0.4 0.1,0.1 0.2,0.3 0.4,0.5 l 1,1.1 c 0.1,-0.1 0.1,-0.1 0.2,-0.2 0,-0.1 0.1,-0.1 0.1,-0.2 0,-0.1 0.1,-0.2 0.1,-0.3 0,-0.1 0.1,-0.2 0.1,-0.3 l 0.2,-0.7 -0.8,-0.2 0.3,-1.2 2,0.5 0,0 z m 8.6,-0.2 c 0.2,0 0.5,0 0.7,0.1 0.2,0.1 0.4,0.2 0.6,0.3 0.2,0.1 0.3,0.3 0.4,0.6 0.1,0.3 0.2,0.6 0.2,1 l 0,3.9 -1.5,0 0,-3.5 c 0,-0.2 0,-0.4 0,-0.6 0,-0.1 -0.1,-0.3 -0.1,-0.3 -0.1,-0.1 -0.2,-0.1 -0.3,-0.2 -0.1,0 -0.3,0 -0.5,0 l -0.8,0 c -0.1,0.3 -0.2,0.5 -0.3,0.8 0,0.3 -0.1,0.6 -0.1,0.9 0,0.2 0,0.3 0,0.5 0,0.1 0,0.3 0,0.4 0,0.1 0,0.3 0.1,0.4 0,0.1 0.1,0.3 0.1,0.4 l 0.1,0.3 c 0,0.2 0,0.3 -0.1,0.5 0,0.1 0,0.3 -0.1,0.4 l -2.8,0 0,-1.2 1.3,0 c -0.1,-0.3 -0.2,-0.6 -0.2,-0.8 0,-0.3 -0.1,-0.5 -0.1,-0.8 0,-0.2 0,-0.4 0,-0.6 0,-0.2 0.1,-0.4 0.1,-0.6 0,-0.1 0.1,-0.2 0.1,-0.3 0,-0.1 0.1,-0.2 0.1,-0.3 -0.2,0 -0.3,0 -0.5,-0.1 -0.2,0 -0.3,-0.1 -0.6,-0.2 0.1,-0.2 0.1,-0.4 0.2,-0.6 0.1,-0.2 0.1,-0.4 0.2,-0.6 0.2,0.1 0.4,0.1 0.5,0.1 0.1,0 0.3,0.1 0.4,0.1 0.1,0 0.3,0 0.4,0 0.1,0 0.3,0 0.5,0 l 2,0 0,0 z m 6.5,0 0,0.8 c 0,0.1 0,0.1 0,0.2 0,0.1 0,0.2 0,0.3 0,0.1 0,0.3 0.1,0.5 0,0.2 0,0.4 0.1,0.7 0,0.3 0.1,0.6 0.1,0.9 0,0.3 0.1,0.7 0.1,1.2 0,0.1 0,0.1 0,0.2 0,0.1 0,0.1 0,0.2 0,0.1 0,0.2 0,0.2 0,0.1 0,0.1 0,0.2 0,0.1 0,0.1 0,0.2 0,0.1 0,0.2 0,0.3 l -3.8,0 0,-1.2 2.4,0 c 0,-0.1 0,-0.2 0,-0.4 0,-0.2 0,-0.4 -0.1,-0.6 0,-0.2 -0.1,-0.5 -0.1,-0.7 0,-0.3 -0.1,-0.5 -0.1,-0.7 0,-0.2 -0.1,-0.4 -0.1,-0.6 0,-0.2 0,-0.3 0,-0.4 l -1.5,0 0,-1.2 2.9,0 0,-0.1 z m 4.4,0 0,2.1 c 0,0.2 0,0.4 0,0.5 0,0.1 0,0.3 0,0.4 0,0.1 0,0.2 0,0.3 0,0.1 0,0.2 -0.1,0.3 l -1.5,-0.2 c 0,-0.1 0,-0.2 0.1,-0.3 0,-0.1 0,-0.2 0,-0.3 0,-0.1 0,-0.2 0,-0.4 0,-0.1 0,-0.3 0,-0.5 l 0,-0.7 -1.3,0 0,-1.2 2.8,0 0,0 z m 2.6,-0.4 c 0.3,0.1 0.7,0.2 0.9,0.2 0.3,0.1 0.5,0.1 0.7,0.2 0.2,0.1 0.4,0.1 0.6,0.2 0.2,0.1 0.4,0.1 0.6,0.2 0.2,0.1 0.4,0.2 0.5,0.3 0.1,0.1 0.2,0.2 0.3,0.4 0.1,0.1 0.1,0.3 0.2,0.5 0,0.2 0,0.4 0,0.5 l 0,2.3 c 0,0.1 0,0.2 0,0.3 0,0.1 0,0.2 0,0.3 0,0.1 0,0.2 -0.1,0.4 0,0.1 -0.1,0.3 -0.1,0.6 l -5.1,0 0,-1.2 3.8,0 0,-2.3 c 0,-0.1 0,-0.2 0,-0.3 0,-0.1 0,-0.2 -0.1,-0.2 0,-0.1 -0.1,-0.1 -0.1,-0.2 -0.1,0 -0.2,-0.1 -0.3,-0.1 -0.1,-0.1 -0.3,-0.1 -0.5,-0.2 -0.2,-0.1 -0.4,-0.1 -0.6,-0.2 l -0.5,1.1 0.7,0.4 -0.7,1.1 -1.8,-1.1 1.6,-3.2 0,0 z"
       class="st25"
       id="path975" />
    <g
       transform="translate(738.78572,-113.28461)"
       id="g977">
      <g
         id="g340">
        <defs
           id="defs342">
          <rect
             height="1157.5"
             width="554"
             y="454.89999"
             x="-656.29999"
             id="SVGID_47_" />
        </defs>
        <clipPath
           id="clipPath8673">
          <use
             height="100%"
             width="100%"
             y="0"
             x="0"
             id="use8675"
             style="overflow:visible"
             xlink:href="#SVGID_47_" />
        </clipPath>
        <path
           style="fill:#c31a3b;fill-opacity:1"
           clip-path="url(#SVGID_48_)"
           d="m -536.7,620.7 c 0,4.3 -7.8,16.1 -7.8,16.1 0,0 -7.8,-11.8 -7.8,-16.1 0,-4.3 3.5,-7.8 7.8,-7.8 4.3,0.1 7.8,3.5 7.8,7.8"
           class="st35"
           id="path985" />
      </g>
      <g
         id="g349">
        <defs
           id="defs351">
          <rect
             height="1157.5"
             width="554"
             y="454.89999"
             x="-656.29999"
             id="SVGID_49_" />
        </defs>
        <clipPath
           id="clipPath8681">
          <use
             height="100%"
             width="100%"
             y="0"
             x="0"
             id="use8683"
             style="overflow:visible"
             xlink:href="#SVGID_49_" />
        </clipPath>
        <path
           style="fill:#ffffff"
           clip-path="url(#SVGID_50_)"
           d="m -540.7,619.3 c -0.2,0 -0.4,-0.2 -0.4,-0.4 0,-0.2 0.2,-0.4 0.4,-0.4 0.2,0 0.4,0.2 0.4,0.4 -0.1,0.2 -0.2,0.4 -0.4,0.4 m -3.8,3.9 c -1.4,0 -2.6,-1.2 -2.6,-2.6 0,-1.4 1.2,-2.6 2.6,-2.6 1.4,0 2.6,1.2 2.6,2.6 0,1.4 -1.2,2.6 -2.6,2.6 m 4.1,-5.7 -1.2,0 c -0.2,0 -0.4,-0.1 -0.4,-0.3 l -0.3,-1 c -0.1,-0.2 -0.2,-0.3 -0.4,-0.3 l -3.5,0 c -0.2,0 -0.4,0.1 -0.4,0.3 l -0.3,1 c -0.1,0.2 -0.2,0.3 -0.4,0.3 l -1.2,0 c -0.6,0 -1,0.5 -1,1 l 0,4.7 c 0,0.6 0.5,1 1,1 l 8.3,0 c 0.6,0 1,-0.5 1,-1 l 0,-4.7 c -0.1,-0.5 -0.6,-1 -1.2,-1 m -4.1,1.5 c -0.9,0 -1.6,0.7 -1.6,1.6 0,0.9 0.7,1.6 1.6,1.6 0.9,0 1.6,-0.7 1.6,-1.6 0,-0.9 -0.7,-1.6 -1.6,-1.6"
           class="st36"
           id="path987" />
      </g>
    </g>
  </g>
</svg>
