<?xml version="1.0" encoding="UTF-8" standalone="no"?>
<svg
   xmlns:dc="http://purl.org/dc/elements/1.1/"
   xmlns:cc="http://creativecommons.org/ns#"
   xmlns:rdf="http://www.w3.org/1999/02/22-rdf-syntax-ns#"
   xmlns:svg="http://www.w3.org/2000/svg"
   xmlns="http://www.w3.org/2000/svg"
   version="1.1"
   id="svg7852"
   viewBox="0 0 116 55.799983"
   height="15.747995mm"
   width="32.737778mm">
  <defs
     id="defs7854" />
  <metadata
     id="metadata7857">
    <rdf:RDF>
      <cc:Work
         rdf:about="">
        <dc:format>image/svg+xml</dc:format>
        <dc:type
           rdf:resource="http://purl.org/dc/dcmitype/StillImage" />
        <dc:title></dc:title>
      </cc:Work>
    </rdf:RDF>
  </metadata>
  <g
     transform="translate(-273.42856,-518.74792)"
     id="layer1">
    <path
       id="path1011_1_"
       class="st48"
       d="m 340.92856,554.84791 c 0,5.3 -9.5,19.7 -9.5,19.7 0,0 -9.5,-14.4 -9.5,-19.7 0,-5.3 4.2,-9.5 9.5,-9.5 5.3,0 9.5,4.3 9.5,9.5"
       style="fill:#18304e" />
    <rect
       id="rect863_1_"
       x="273.42856"
       y="518.74792"
       class="st48"
       width="116"
       height="22"
       style="fill:#18304e" />
    <g
       id="g823"
       transform="translate(-669.57142,145.94792)">
      <path
         class="st7"
         d="m 955.3,378.6 6.9,0 0,8.6 -6.9,0 0,-8.6 z m 5.5,7.6 0,-6.4 -4.2,0 0,6.4 4.2,0 z"
         id="path825"
         style="fill:#ffffff" />
      <path
         class="st7"
         d="m 965.5,379.7 -1.6,0 0,-1.1 2.9,0 0,4.8 -1.4,0 0,-3.7 z"
         id="path827"
         style="fill:#ffffff" />
      <path
         class="st7"
         d="m 968.5,387.3 0,-1.1 c 0.3,0.1 0.7,0.1 1.1,0.1 0.4,0 0.7,-0.1 0.9,-0.3 0.2,-0.2 0.3,-0.6 0.3,-1.1 l 0,-5.1 -1.7,0 0,-1.1 3.1,0 0,6.4 c 0,0.8 -0.2,1.4 -0.6,1.8 -0.4,0.4 -1,0.6 -1.7,0.6 -0.5,-0.1 -0.9,-0.1 -1.4,-0.2 z"
         id="path829"
         style="fill:#ffffff" />
      <path
         class="st7"
         d="m 975.4,381.8 c 0,-0.4 0.2,-0.8 0.3,-1.1 0.2,-0.4 0.4,-0.6 0.6,-0.8 0,0 0.1,0 0.1,-0.1 l 0,0 c -0.2,0 -0.5,0.1 -0.8,0.2 -0.3,0.1 -0.6,0.2 -0.9,0.3 l -0.3,-1 c 0.6,-0.2 1.2,-0.4 1.9,-0.5 0.7,-0.1 1.4,-0.2 1.9,-0.2 1.2,0 2,0.3 2.7,0.9 0.6,0.6 0.9,1.5 0.9,2.7 l 0,5.1 -3.6,0 0,-1.1 2.2,0 0,-4.2 c 0,-0.8 -0.2,-1.4 -0.5,-1.8 -0.3,-0.4 -0.8,-0.6 -1.5,-0.6 -0.5,0 -0.9,0.2 -1.2,0.5 -0.3,0.3 -0.5,0.9 -0.6,1.5 l -0.7,5.6 -1.3,0 0.8,-5.4 z"
         id="path831"
         style="fill:#ffffff" />
      <path
         class="st7"
         d="m 984.7,379.7 -1,0 0,-1.1 2.4,0 0,8.6 -1.4,0 0,-7.5 z"
         id="path833"
         style="fill:#ffffff" />
      <path
         class="st7"
         d="m 993.6,383.5 2.7,3.8 -1.5,0 -3.8,-5.3 c -0.5,0.3 -0.8,0.9 -0.8,1.7 l 0,3.6 -1.3,0 0,-3.1 c 0,-0.7 0.1,-1.4 0.4,-1.8 0.3,-0.5 0.6,-0.8 1.2,-1.1 l -1.9,-2.6 1.5,0 2.7,3.7 2.1,-3.7 1.5,0 -2.8,4.8 z"
         id="path835"
         style="fill:#ffffff" />
      <path
         class="st7"
         d="m 1003.4,381.9 c 0,-0.7 -0.2,-1.3 -0.5,-1.6 -0.3,-0.3 -0.9,-0.5 -1.6,-0.5 l -3.1,0 0,-1.1 3.2,0 c 1.1,0 2,0.3 2.6,0.8 0.6,0.5 0.9,1.4 0.9,2.4 l 0,5.4 -1.4,0 0,-5.4 z m -5.3,2.4 c 0,-0.4 0,-0.8 0.1,-1.1 0.1,-0.3 0.2,-0.5 0.3,-0.8 l 1.1,0 c -0.1,0.2 -0.1,0.5 -0.1,0.7 0,0.2 0,0.6 0,1 l 0,3 -1.3,0 0,-2.8 z"
         id="path837"
         style="fill:#ffffff" />
      <path
         class="st7"
         d="m 1017,379.5 c 0.6,0.5 0.8,1.4 0.8,2.5 l 0,5.3 -1.4,0 0,-5.4 c 0,-0.7 -0.2,-1.3 -0.5,-1.6 -0.3,-0.3 -0.8,-0.5 -1.5,-0.5 l -1.2,0 c -0.2,0.3 -0.3,0.6 -0.4,1 -0.1,0.4 -0.1,0.8 -0.1,1.3 l 0,2.9 c 0,0.8 -0.2,1.4 -0.6,1.8 -0.4,0.4 -0.9,0.6 -1.6,0.6 -0.2,0 -0.5,0 -0.8,-0.1 l 0,-1.1 c 0.2,0 0.3,0 0.5,0 0.4,0 0.7,-0.1 0.9,-0.3 0.2,-0.2 0.3,-0.6 0.3,-1 l 0,-2.7 c 0,-0.4 0.1,-0.9 0.2,-1.3 0.1,-0.4 0.3,-0.8 0.5,-1.1 l -1.6,0 0,-1.1 4,0 c 1.1,-0.1 1.9,0.2 2.5,0.8 z"
         id="path839"
         style="fill:#ffffff" />
      <path
         class="st7"
         d="m 1021.9,387 c -0.5,-0.3 -0.9,-0.7 -1.2,-1.2 -0.3,-0.5 -0.4,-1.1 -0.4,-1.8 l 0,-5.3 1.4,0 0,5.4 c 0,0.5 0.1,0.9 0.3,1.2 0.2,0.3 0.4,0.6 0.7,0.8 0.3,0.2 0.7,0.3 1.1,0.3 0.4,0 0.8,-0.1 1.1,-0.3 0.3,-0.2 0.6,-0.5 0.7,-0.8 0.2,-0.3 0.3,-0.7 0.3,-1.2 l 0,-2.9 c 0,-0.5 -0.1,-0.8 -0.3,-1.1 -0.2,-0.3 -0.5,-0.4 -0.9,-0.4 -0.3,0 -0.7,0.1 -1.1,0.3 l -0.2,-0.9 c 0.2,-0.2 0.5,-0.3 0.8,-0.4 0.3,-0.1 0.6,-0.1 0.9,-0.1 0.4,0 0.8,0.1 1.2,0.3 0.3,0.2 0.6,0.5 0.7,0.9 0.2,0.4 0.3,0.8 0.3,1.3 l 0,2.9 c 0,0.7 -0.1,1.3 -0.4,1.8 -0.3,0.5 -0.7,0.9 -1.2,1.2 -0.5,0.3 -1.1,0.4 -1.8,0.4 -0.7,0 -1.5,-0.1 -2,-0.4 z"
         id="path841"
         style="fill:#ffffff" />
      <path
         class="st7"
         d="m 1030.1,381.8 c 0,-0.4 0.2,-0.8 0.3,-1.1 0.2,-0.4 0.4,-0.6 0.6,-0.8 0,0 0.1,0 0.1,-0.1 l 0,0 c -0.2,0 -0.5,0.1 -0.8,0.2 -0.3,0.1 -0.6,0.2 -0.9,0.3 l -0.3,-1 c 0.6,-0.2 1.2,-0.4 1.9,-0.5 0.7,-0.1 1.3,-0.2 1.9,-0.2 1.2,0 2,0.3 2.7,0.9 0.6,0.6 0.9,1.5 0.9,2.7 l 0,5.1 -3.6,0 0,-1.1 2.2,0 0,-4.2 c 0,-0.8 -0.2,-1.4 -0.5,-1.8 -0.3,-0.4 -0.8,-0.6 -1.5,-0.6 -0.5,0 -0.9,0.2 -1.2,0.5 -0.3,0.3 -0.5,0.9 -0.6,1.5 l -0.7,5.6 -1.3,0 0.8,-5.4 z"
         id="path843"
         style="fill:#ffffff" />
      <path
         class="st7"
         d="m 1040.7,386.9 c -0.5,-0.3 -1,-0.8 -1.3,-1.4 -0.3,-0.6 -0.5,-1.3 -0.5,-2.1 l 0,-0.9 c 0,-0.4 0.1,-0.7 0.2,-1.1 0.1,-0.4 0.3,-0.7 0.4,-1 0.2,-0.3 0.4,-0.5 0.6,-0.7 0,0 0.1,0 0.1,-0.1 l 0,0 c -0.3,0 -0.8,0.1 -1.5,0.4 l -0.3,-1 c 0.6,-0.2 1.2,-0.3 1.9,-0.4 0.7,-0.1 1.4,-0.2 2,-0.2 0.8,0 1.5,0.2 2.1,0.5 0.6,0.3 1,0.8 1.3,1.4 0.3,0.6 0.5,1.3 0.5,2.1 l 0,1 c 0,0.8 -0.2,1.5 -0.5,2.1 -0.3,0.6 -0.7,1.1 -1.3,1.4 -0.6,0.3 -1.2,0.5 -1.9,0.5 -0.6,0 -1.2,-0.1 -1.8,-0.5 z m 3.1,-1 c 0.3,-0.2 0.6,-0.6 0.8,-1 0.2,-0.4 0.3,-0.9 0.3,-1.5 l 0,-1 c 0,-0.6 -0.1,-1.1 -0.3,-1.5 -0.2,-0.4 -0.5,-0.8 -0.8,-1 -0.4,-0.2 -0.8,-0.3 -1.3,-0.3 -0.4,0 -0.8,0.1 -1.1,0.3 -0.3,0.2 -0.6,0.6 -0.8,1 -0.2,0.4 -0.3,1 -0.3,1.5 l 0,1 c 0,0.6 0.1,1 0.3,1.5 0.2,0.5 0.5,0.8 0.8,1 0.3,0.2 0.7,0.3 1.2,0.3 0.5,0 0.9,0 1.2,-0.3 z"
         id="path845"
         style="fill:#ffffff" />
    </g>
  </g>
</svg>
