<?xml version="1.0" encoding="UTF-8" standalone="no"?>
<svg
   xmlns:dc="http://purl.org/dc/elements/1.1/"
   xmlns:cc="http://creativecommons.org/ns#"
   xmlns:rdf="http://www.w3.org/1999/02/22-rdf-syntax-ns#"
   xmlns:svg="http://www.w3.org/2000/svg"
   xmlns="http://www.w3.org/2000/svg"
   version="1.1"
   id="svg7773"
   viewBox="0 0 80.599997 65.49998"
   height="18.48555mm"
   width="22.74711mm">
  <defs
     id="defs7775" />
  <metadata
     id="metadata7778">
    <rdf:RDF>
      <cc:Work
         rdf:about="">
        <dc:format>image/svg+xml</dc:format>
        <dc:type
           rdf:resource="http://purl.org/dc/dcmitype/StillImage" />
        <dc:title></dc:title>
      </cc:Work>
    </rdf:RDF>
  </metadata>
  <g
     transform="translate(-353.98572,-482.46936)"
     id="layer1">
    <path
       id="path429_2_"
       class="st8"
       d="m 407.38572,521.06934 c 0,7.2 -13.1,26.9 -13.1,26.9 0,0 -13.1,-19.7 -13.1,-26.9 0,-7.2 5.9,-13.1 13.1,-13.1 7.2,0.1 13.1,5.9 13.1,13.1"
       style="fill:#1076b3" />
    <path
       style="fill:#ffffff;enable-background:new"
       d="m 398.82059,516.47229 c 1.32379,-0.0427 2.56218,-1.23838 2.8611,-2.51947 -1.32379,0 -2.60488,1.28109 -2.8611,2.51947 z m -2.81839,-1.4519 c -1.58001,1.87893 -3.92867,2.64758 -5.97842,3.80056 -1.87892,0.85406 -3.54434,2.43407 -5.63678,2.56218 -0.0427,1.32379 0.51243,2.56218 0.68324,3.84327 1.32379,-0.42703 1.92164,-0.29892 2.56218,0.98216 1.28109,1.62272 4.3557,0.68325 4.48381,-1.32379 1.87893,0.0427 3.71516,-0.0427 5.46598,-0.12811 0.68324,0.68325 2.73299,0.59784 2.26325,-0.76865 -0.51243,-2.9038 -1.40919,-5.7649 -2.26325,-8.626 -0.12811,-0.64054 -1.06758,-0.17081 -1.58001,-0.34162 z"
       class="st49"
       id="path6-3-7_1_" />
    <path
       style="fill:#1076b3"
       d="m 396.0022,517.88149 c -2.73299,1.58001 -5.46598,3.16002 -8.32708,4.56921 0.29892,0.68325 2.13515,0.29892 3.07462,0.42703 2.22055,0 4.4838,0 6.70436,0 -0.29892,-1.70811 -0.64055,-3.54434 -1.4519,-4.99624 z"
       class="st8"
       id="path8-6-3_1_" />
    <path
       style="fill:#ffffff;enable-background:new"
       d="m 400.57141,519.58961 c 1.23839,0 2.34867,-0.34163 3.50165,-0.68325 0.29892,-1.70812 -1.62272,-0.76865 -2.51948,-0.42703 -0.46973,0.21351 -0.98217,0.55514 -0.98217,1.11028 m 0,2.86109 c 0.64055,0.85406 2.26326,1.58001 3.28813,0.93947 0.68325,-1.06757 -1.70812,-0.93947 -2.43407,-1.23839 -0.34162,0 -0.55514,0.12811 -0.85406,0.29892 l 0,0 z"
       class="st49"
       id="path10-3-4_1_" />
    <path
       style="fill:#1076b3"
       d="m 387.88864,524.97018 c 0.51243,1.06757 1.70812,1.87893 2.64758,0.85406 1.4946,-1.4092 -1.32379,-0.68325 -2.22055,-0.85406 -0.17081,0 -0.25622,0 -0.42703,0 z"
       class="st8"
       id="path12-1-9_1_" />
    <rect
       id="rect311_2_"
       x="353.98572"
       y="482.46936"
       class="st8"
       width="80.599998"
       height="21.700001"
       style="fill:#1076b3" />
    <g
       id="g733"
       transform="translate(126.68572,-4.2306554)">
      <path
         class="st7"
         d="m 244.7,502 0,-9 -2.7,1 0,-1.2 3.9,-1.5 0.2,0 0,10.7 -1.4,0 z"
         id="path735"
         style="fill:#ffffff" />
      <path
         class="st7"
         d="m 260,494.2 -3.2,7.8 -1.5,0 3.1,-7.5 -5.1,0 0,-3.7 1.4,0 0,2.6 5.2,0 0,0.8 z"
         id="path737"
         style="fill:#ffffff" />
      <path
         class="st7"
         d="m 262.3,494.5 -1,0 0,-1.1 2.4,0 0,8.6 -1.4,0 0,-7.5 z"
         id="path739"
         style="fill:#ffffff" />
      <path
         class="st7"
         d="m 265.6,501.7 0.2,-1 c 0.8,0.2 1.5,0.3 2.1,0.3 0.8,0 1.4,-0.2 1.9,-0.6 0.4,-0.4 0.6,-1 0.6,-1.7 l 0,-4.3 -4.5,0 0,-1.1 5.8,0 0,5.1 c 0,1.2 -0.3,2.1 -1,2.8 -0.7,0.7 -1.6,0.9 -2.7,0.9 -0.7,0 -1.5,-0.1 -2.4,-0.4 z"
         id="path741"
         style="fill:#ffffff" />
      <path
         class="st7"
         d="m 275.7,500.5 c 0.5,0.2 1,0.4 1.5,0.5 0.5,0.1 1,0.2 1.5,0.2 0.7,0 1.3,-0.1 1.9,-0.3 0.6,-0.2 1,-0.5 1.3,-0.9 0.3,-0.4 0.5,-0.9 0.5,-1.5 l 0,-5 1.3,0 0,5.1 c 0,0.8 -0.2,1.5 -0.7,2.1 -0.4,0.6 -1,1 -1.8,1.3 -0.8,0.3 -1.6,0.4 -2.5,0.4 -0.7,0 -1.4,-0.1 -2.2,-0.3 -0.8,-0.2 -1.5,-0.4 -2.1,-0.7 l 0,-7.8 1.3,0 0,6.9 z m 2.5,-1.7 c 0.1,-0.3 0.1,-0.7 0.1,-1.2 l 0,-4.3 1.3,0 0,4.1 c 0,0.5 -0.1,0.9 -0.2,1.3 -0.1,0.4 -0.3,0.7 -0.6,0.9 l -1.1,0 c 0.2,-0.2 0.4,-0.4 0.5,-0.8 z"
         id="path743"
         style="fill:#ffffff" />
      <path
         class="st7"
         d="m 291.1,498.2 2.7,3.8 -1.5,0 -3.8,-5.3 c -0.5,0.3 -0.8,0.9 -0.8,1.7 l 0,3.6 -1.3,0 0,-3.1 c 0,-0.7 0.1,-1.4 0.4,-1.8 0.3,-0.5 0.6,-0.8 1.2,-1.1 l -1.9,-2.6 1.5,0 2.7,3.7 2.1,-3.7 1.5,0 -2.8,4.8 z"
         id="path745"
         style="fill:#ffffff" />
    </g>
  </g>
</svg>
