<?xml version="1.0" encoding="UTF-8" standalone="no"?>
<svg
   xmlns:dc="http://purl.org/dc/elements/1.1/"
   xmlns:cc="http://creativecommons.org/ns#"
   xmlns:rdf="http://www.w3.org/1999/02/22-rdf-syntax-ns#"
   xmlns:svg="http://www.w3.org/2000/svg"
   xmlns="http://www.w3.org/2000/svg"
   width="33.302223mm"
   height="27.206228mm"
   viewBox="0 0 118 96.400021"
   id="svg4267"
   version="1.1">
  <defs
     id="defs4269" />
  <metadata
     id="metadata4272">
    <rdf:RDF>
      <cc:Work
         rdf:about="">
        <dc:format>image/svg+xml</dc:format>
        <dc:type
           rdf:resource="http://purl.org/dc/dcmitype/StillImage" />
        <dc:title></dc:title>
      </cc:Work>
    </rdf:RDF>
  </metadata>
  <g
     id="layer1"
     transform="translate(-329.57143,-664.1622)">
    <g
       id="g4331">
      <rect
         style="fill:#4b1a26"
         height="31.799999"
         width="118"
         class="st933"
         y="664.16217"
         x="329.57144"
         id="rect311_3_" />
      <g
         transform="translate(-0.49999,0)"
         id="g4323">
        <path
           id="path429_3_"
           class="st933"
           d="m 408.17142,721.26222 c 0,10.5 -19.1,39.3 -19.1,39.3 0,0 -19.1,-28.8 -19.1,-39.3 0,-10.5 8.6,-19.1 19.1,-19.1 10.6,0 19.1,8.6 19.1,19.1"
           style="fill:#f07741;fill-opacity:1" />
        <g
           id="g4679-4_3_"
           transform="matrix(0.42702949,0,0,0.42702949,-80.431691,-67.13175)">
          <path
             id="path6-3_3_"
             class="st941"
             d="m 1115.8,1830.5 c 4.6,-0.2 8.8,-4.2 9.8,-8.6 -4.4,0 -8.8,4.4 -9.8,8.6 z m -9.5,-4.9 c -5.4,6.4 -13.4,9 -20.5,13 -6.4,2.9 -12.2,8.3 -19.3,8.8 -0.2,4.6 1.7,8.8 2.4,13.2 4.6,-1.5 6.6,-1 8.8,3.4 4.4,5.6 14.9,2.4 15.4,-4.6 6.4,0.2 12.7,-0.2 18.8,-0.5 2.4,2.4 9.3,2 7.8,-2.7 -1.7,-10 -4.9,-19.8 -7.8,-29.6 -0.7,-2 -3.9,-0.5 -5.6,-1 z"
             style="opacity:1;fill:#ffffff" />
          <path
             id="path8-6_3_"
             class="st933"
             d="m 1106.3,1835.4 c -9.3,5.4 -18.8,10.8 -28.6,15.6 1,2.4 7.3,1 10.5,1.5 7.6,0 15.4,0 23,0 -1,-5.9 -2.2,-12.2 -4.9,-17.1 z"
             style="fill:#f07741;fill-opacity:1" />
          <path
             id="path10-3_3_"
             class="st941"
             d="m 1121.9,1841.2 c 4.2,0 8.1,-1.2 12,-2.4 1,-5.9 -5.6,-2.7 -8.6,-1.5 -1.7,0.8 -3.4,2 -3.4,3.9 m 0,9.8 c 2.2,2.9 7.8,5.4 11.2,3.2 2.4,-3.7 -5.9,-3.2 -8.3,-4.2 -1.2,0 -1.9,0.5 -2.9,1 l 0,0 z"
             style="opacity:1;fill:#ffffff" />
          <path
             id="path12-1_3_"
             class="st933"
             d="m 1078.4,1859.6 c 1.7,3.7 5.9,6.4 9,2.9 5.1,-4.9 -4.6,-2.4 -7.6,-2.9 -0.4,0 -0.9,0 -1.4,0 z"
             style="fill:#f07741;fill-opacity:1" />
        </g>
      </g>
      <g
         id="g7088"
         transform="translate(-183.32858,-386.43778)">
        <path
           style="fill:#bfc6cf"
           id="path7090"
           d="m 531.2,1075.5 0,-15.1 -4.5,1.7 0,-2 6.5,-2.4 0.4,0 0,17.9 -2.4,0 z"
           class="st951" />
        <path
           style="fill:#bfc6cf"
           id="path7092"
           d="m 558.6,1062.5 -5.3,13 -2.4,0 5.2,-12.6 -8.4,0 0,-6.2 2.3,0 0,4.4 8.7,0 0,1.4 z"
           class="st951" />
        <path
           style="fill:#bfc6cf"
           id="path7094"
           d="m 563,1062.9 -1.7,0 0,-1.8 3.9,0 0,14.4 -2.2,0 0,-12.6 z"
           class="st951" />
        <path
           style="fill:#bfc6cf"
           id="path7096"
           d="m 569.1,1075.1 0.4,-1.7 c 1.3,0.3 2.4,0.5 3.4,0.5 1.4,0 2.4,-0.3 3.1,-1 0.7,-0.7 1.1,-1.6 1.1,-2.8 l 0,-7.1 -7.5,0 0,-1.8 9.7,0 0,8.4 c 0,2 -0.5,3.6 -1.6,4.6 -1.1,1 -2.6,1.6 -4.5,1.6 -1.2,-0.1 -2.6,-0.3 -4.1,-0.7 z"
           class="st951" />
        <path
           style="fill:#bfc6cf"
           id="path7098"
           d="m 586.6,1073 c 0.8,0.3 1.6,0.6 2.5,0.8 0.9,0.2 1.7,0.3 2.5,0.3 1.2,0 2.2,-0.2 3.1,-0.5 0.9,-0.3 1.6,-0.8 2.2,-1.5 0.5,-0.7 0.8,-1.5 0.8,-2.5 l 0,-8.3 2.2,0 0,8.5 c 0,1.4 -0.4,2.5 -1.1,3.4 -0.7,0.9 -1.7,1.6 -2.9,2.1 -1.2,0.5 -2.6,0.7 -4.2,0.7 -1.2,0 -2.4,-0.1 -3.7,-0.4 -1.3,-0.3 -2.4,-0.7 -3.6,-1.2 l 0,-13.1 2.2,0 0,11.7 z m 4.1,-2.8 c 0.2,-0.6 0.2,-1.2 0.2,-1.9 l 0,-7.2 2.2,0 0,6.8 c 0,0.8 -0.1,1.6 -0.3,2.2 -0.2,0.6 -0.5,1.1 -0.9,1.6 l -1.9,-0.1 c 0.4,-0.4 0.6,-0.8 0.7,-1.4 z"
           class="st951" />
        <path
           style="fill:#bfc6cf"
           id="path7100"
           d="m 612.9,1069.2 4.6,6.3 -2.5,0 -6.4,-8.8 c -0.9,0.5 -1.3,1.5 -1.3,2.8 l 0,6 -2.3,0 0,-5.2 c 0,-1.2 0.2,-2.3 0.6,-3.1 0.4,-0.8 1.1,-1.4 2,-1.8 l -3.1,-4.3 2.5,0 4.5,6.2 3.5,-6.2 2.6,0 -4.7,8.1 z"
           class="st951" />
      </g>
    </g>
  </g>
</svg>
