<?xml version="1.0" encoding="UTF-8" standalone="no"?>
<svg
   xmlns:dc="http://purl.org/dc/elements/1.1/"
   xmlns:cc="http://creativecommons.org/ns#"
   xmlns:rdf="http://www.w3.org/1999/02/22-rdf-syntax-ns#"
   xmlns:svg="http://www.w3.org/2000/svg"
   xmlns="http://www.w3.org/2000/svg"
   version="1.1"
   id="svg5646"
   viewBox="0 0 117.94 68.620004"
   height="68.620003"
   width="117.94">
  <defs
     id="defs5648" />
  <metadata
     id="metadata5651">
    <rdf:RDF>
      <cc:Work
         rdf:about="">
        <dc:format>image/svg+xml</dc:format>
        <dc:type
           rdf:resource="http://purl.org/dc/dcmitype/StillImage" />
        <dc:title></dc:title>
      </cc:Work>
    </rdf:RDF>
  </metadata>
  <g
     transform="translate(-297.09286,-415.1951)"
     id="layer1">
    <polygon
       class="st943"
       points="-326.75,2037.02 -267.78,2105.64 -278.07,2058.3 "
       id="polygon7943"
       style="fill:#b48e59"
       transform="translate(682.81286,-1621.8249)" />
    <polygon
       class="st944"
       points="-278.07,2058.3 -267.78,2105.64 -336.74,2105.64 -343.56,2056.63 "
       id="polygon7945"
       style="fill:#d68a2a;fill-opacity:1"
       transform="translate(682.81286,-1621.8249)" />
    <g
       id="g7947"
       transform="translate(682.81286,-1621.8249)">
      <path
         class="st946"
         d="m -324.22,2072.49 c 0,-0.5 0.04,-0.89 0.13,-1.17 0.09,-0.28 0.2,-0.53 0.34,-0.76 l 1.55,0 c -0.11,0.45 -0.17,1.03 -0.17,1.75 l 0,3.26 -1.86,0 0,-3.08 z m 5.33,-2.66 c 0,-0.61 -0.15,-1.05 -0.44,-1.33 -0.29,-0.28 -0.75,-0.42 -1.37,-0.42 l -3.51,0 0,-1.51 3.63,0 c 1.16,0 2.05,0.29 2.67,0.86 0.62,0.57 0.93,1.4 0.93,2.49 l 0,5.67 -1.92,0 0,-5.76 z"
         id="path7949"
         style="fill:#ffffff" />
      <path
         class="st946"
         d="m -307.92,2066.56 0,1.51 -1.55,0 0,7.51 -1.93,0 0,-7.51 -4.04,0 0,-1.51 7.52,0 z"
         id="path7951"
         style="fill:#ffffff" />
      <path
         class="st946"
         d="m -305.56,2070.2 c 0.05,-0.41 0.16,-0.8 0.33,-1.17 0.17,-0.37 0.37,-0.65 0.6,-0.86 0.04,-0.04 0.08,-0.07 0.13,-0.1 l -0.02,-0.03 c -0.21,0.04 -0.46,0.1 -0.77,0.18 -0.31,0.08 -0.58,0.17 -0.81,0.25 l -0.42,-1.41 c 0.59,-0.21 1.26,-0.38 2.02,-0.51 0.76,-0.13 1.47,-0.19 2.13,-0.19 1.3,0 2.29,0.34 2.97,1.01 0.68,0.67 1.02,1.67 1.03,2.98 l 0,5.24 -3.84,0 0,-1.51 1.91,0 0,-3.97 c 0,-0.7 -0.15,-1.23 -0.45,-1.61 -0.3,-0.37 -0.73,-0.56 -1.28,-0.56 -0.46,0 -0.82,0.18 -1.11,0.53 -0.28,0.35 -0.46,0.85 -0.53,1.5 l -0.6,5.61 -1.9,0 0.61,-5.38 z"
         id="path7953"
         style="fill:#ffffff" />
      <path
         class="st946"
         d="m -289.23,2066.56 0,5.28 c 0,0.84 -0.18,1.56 -0.53,2.15 -0.35,0.59 -0.84,1.04 -1.48,1.34 -0.63,0.3 -1.37,0.46 -2.21,0.46 -1.12,0 -2.25,-0.22 -3.41,-0.65 l 0.42,-1.42 c 0.82,0.31 1.57,0.51 2.23,0.58 -0.18,-0.18 -0.34,-0.39 -0.48,-0.63 -0.14,-0.24 -0.24,-0.49 -0.3,-0.77 l -1.44,-6.34 1.93,0 1.39,6.5 c 0.1,0.47 0.23,0.84 0.39,1.13 0.5,-0.16 0.88,-0.43 1.15,-0.81 0.27,-0.38 0.41,-0.87 0.41,-1.46 l 0,-5.36 1.93,0 z"
         id="path7955"
         style="fill:#ffffff" />
      <path
         class="st946"
         d="m -325.42,2091.14 c 0,-0.5 0.04,-0.89 0.13,-1.17 0.09,-0.28 0.2,-0.53 0.34,-0.76 l 1.55,0 c -0.11,0.45 -0.17,1.03 -0.17,1.75 l 0,3.26 -1.86,0 0,-3.08 z m 5.33,-2.66 c 0,-0.61 -0.15,-1.05 -0.44,-1.33 -0.29,-0.28 -0.75,-0.42 -1.37,-0.42 l -3.51,0 0,-1.51 3.63,0 c 1.16,0 2.05,0.29 2.67,0.86 0.62,0.57 0.93,1.4 0.93,2.49 l 0,5.67 -1.92,0 0,-5.76 z"
         id="path7957"
         style="fill:#ffffff" />
      <path
         class="st946"
         d="m -313.93,2092.32 c 0.46,0.2 0.95,0.35 1.46,0.46 0.51,0.11 1,0.17 1.46,0.17 0.72,0 1.36,-0.1 1.92,-0.31 0.56,-0.21 0.99,-0.52 1.3,-0.94 0.31,-0.42 0.47,-0.95 0.47,-1.59 l 0,-4.91 1.86,0 0,5.11 c 0,0.9 -0.24,1.66 -0.73,2.29 -0.49,0.63 -1.14,1.09 -1.96,1.4 -0.82,0.31 -1.75,0.47 -2.77,0.47 -0.79,0 -1.61,-0.09 -2.46,-0.28 -0.85,-0.19 -1.65,-0.47 -2.41,-0.83 l 0,-8.16 1.86,0 0,7.12 z m 2.22,-1.61 c 0.08,-0.35 0.11,-0.75 0.11,-1.19 l 0,-4.32 1.87,0 0,3.94 c 0,0.52 -0.06,0.98 -0.19,1.4 -0.13,0.42 -0.3,0.75 -0.53,1.01 l -1.58,-0.03 c 0.14,-0.19 0.25,-0.46 0.32,-0.81 z"
         id="path7959"
         style="fill:#ffffff" />
      <path
         class="st946"
         d="m -302.23,2086.72 -1.52,0 0,-1.51 3.45,0 0,5.09 -1.93,0 0,-3.58 z"
         id="path7961"
         style="fill:#ffffff" />
      <path
         class="st946"
         d="m -299,2094.27 0,-1.74 c 0.17,0.03 0.37,0.04 0.59,0.04 0.64,-0.01 1.16,-0.19 1.57,-0.52 0.41,-0.33 0.7,-0.78 0.87,-1.35 l 0,-3.98 -2.01,0 0,-1.51 3.9,0 0,4.61 c 0,0.48 0.05,0.95 0.14,1.42 l 0.62,3 -1.79,0 -0.53,-2.39 -0.05,0 c -0.07,0.45 -0.24,0.86 -0.5,1.24 -0.26,0.38 -0.6,0.68 -1.01,0.9 -0.41,0.22 -0.85,0.33 -1.33,0.33 -0.18,-0.01 -0.34,-0.02 -0.47,-0.05 z"
         id="path7963"
         style="fill:#ffffff" />
      <path
         class="st946"
         d="m -291.38,2094.33 c -0.25,-0.03 -0.52,-0.08 -0.82,-0.14 l 0.02,-1.46 c 0.34,0.06 0.71,0.08 1.11,0.08 0.38,0 0.66,-0.11 0.85,-0.32 0.19,-0.21 0.28,-0.54 0.28,-0.99 l 0,-4.79 -1.67,0 0,-1.51 3.59,0 0,6.45 c 0,0.87 -0.23,1.54 -0.68,2.01 -0.45,0.47 -1.08,0.71 -1.9,0.71 -0.28,0.01 -0.54,-0.01 -0.78,-0.04 z"
         id="path7965"
         style="fill:#ffffff" />
    </g>
  </g>
</svg>
