<?xml version="1.0" encoding="UTF-8" standalone="no"?>
<svg
   xmlns:dc="http://purl.org/dc/elements/1.1/"
   xmlns:cc="http://creativecommons.org/ns#"
   xmlns:rdf="http://www.w3.org/1999/02/22-rdf-syntax-ns#"
   xmlns:svg="http://www.w3.org/2000/svg"
   xmlns="http://www.w3.org/2000/svg"
   version="1.1"
   id="svg8425"
   viewBox="0 0 80.599997 65.899985"
   height="18.59844mm"
   width="22.74711mm">
  <defs
     id="defs8427" />
  <metadata
     id="metadata8430">
    <rdf:RDF>
      <cc:Work
         rdf:about="">
        <dc:format>image/svg+xml</dc:format>
        <dc:type
           rdf:resource="http://purl.org/dc/dcmitype/StillImage" />
        <dc:title></dc:title>
      </cc:Work>
    </rdf:RDF>
  </metadata>
  <g
     transform="translate(-285.41428,-533.69794)"
     id="layer1">
    <path
       id="path443_2_"
       class="st8"
       d="m 338.76428,572.69792 c 0,7.2 -13.1,26.9 -13.1,26.9 0,0 -13,-19.7 -13,-26.9 0,-7.2 5.9,-13.1 13.1,-13.1 7.2,0.1 13,5.9 13,13.1"
       style="fill:#e93214;fill-opacity:1" />
    <path
       style="fill:#ffffff;enable-background:new"
       d="m 330.80089,568.35383 c 1.32379,-0.0427 2.56217,-1.23838 2.86109,-2.51947 -1.32379,0 -2.60488,1.28109 -2.86109,2.51947 z m -2.8184,-1.4519 c -1.58001,1.87893 -3.92867,2.64758 -5.97841,3.80056 -1.87893,0.85406 -3.54435,2.43407 -5.63679,2.56218 -0.0427,1.32379 0.51243,2.56218 0.68325,3.84327 1.32379,-0.42703 1.92163,-0.29893 2.56217,0.98216 1.28109,1.62272 4.3557,0.68325 4.48381,-1.32379 1.87893,0.0427 3.71516,-0.0427 5.46598,-0.12811 0.68325,0.68325 2.73299,0.59784 2.26326,-0.76865 -0.51244,-2.9038 -1.4092,-5.7649 -2.26326,-8.626 -0.12811,-0.64054 -1.06757,-0.17081 -1.58001,-0.34162 z"
       class="st49"
       id="path6-3-7_4_" />
    <path
       style="fill:#e93214;fill-opacity:1"
       d="m 327.98249,569.76303 c -2.73299,1.58001 -5.46598,3.16002 -8.32707,4.56921 0.29892,0.68325 2.13514,0.29892 3.07461,0.42703 2.22055,0 4.48381,0 6.70436,0 -0.29892,-1.70811 -0.64054,-3.54434 -1.4519,-4.99624 z"
       class="st8"
       id="path8-6-3_4_" />
    <path
       style="fill:#ffffff;enable-background:new"
       d="m 332.59441,571.47115 c 1.23838,0 2.34866,-0.34163 3.50164,-0.68325 0.29892,-1.70812 -1.62271,-0.76865 -2.51947,-0.42703 -0.51244,0.21351 -0.98217,0.55514 -0.98217,1.11028 m 0,2.86109 c 0.64054,0.85406 2.26326,1.58001 3.28813,0.93947 0.68324,-1.06758 -1.70812,-0.93947 -2.43407,-1.23839 -0.38433,0 -0.59784,0.12811 -0.85406,0.29892 l 0,0 z"
       class="st49"
       id="path10-3-4_4_" />
    <path
       style="fill:#e93214;fill-opacity:1"
       d="m 319.86893,576.85172 c 0.51244,1.06757 1.70812,1.87893 2.64758,0.85406 1.49461,-1.4092 -1.32379,-0.68325 -2.22055,-0.85406 -0.12811,0 -0.25622,0 -0.42703,0 z"
       class="st8"
       id="path12-1-9_4_" />
    <rect
       id="rect313_2_"
       x="285.41428"
       y="533.69794"
       class="st8"
       width="80.599998"
       height="21.700001"
       style="fill:#e93214;fill-opacity:1" />
    <g
       id="g719"
       transform="translate(38.214286,145.39792)">
      <path
         class="st7"
         d="m 261.5,403.5 0,-1 3.5,-3.9 c 0.4,-0.5 0.8,-0.9 1,-1.2 0.2,-0.3 0.4,-0.6 0.5,-0.9 0.1,-0.3 0.1,-0.5 0.1,-0.8 0,-0.4 -0.1,-0.7 -0.2,-1 -0.1,-0.3 -0.4,-0.5 -0.6,-0.7 -0.3,-0.2 -0.6,-0.3 -1,-0.3 -0.7,0 -1.2,0.2 -1.6,0.6 -0.4,0.4 -0.5,0.9 -0.5,1.6 l -1.4,0 c 0,-0.6 0.1,-1.2 0.4,-1.7 0.3,-0.5 0.7,-0.9 1.2,-1.2 0.5,-0.3 1.2,-0.4 1.9,-0.4 0.7,0 1.2,0.1 1.7,0.4 0.5,0.3 0.9,0.6 1.1,1 0.2,0.4 0.4,0.9 0.4,1.5 0,0.6 -0.2,1.2 -0.5,1.8 -0.4,0.6 -0.8,1.3 -1.5,1.9 l -2.9,3.1 5.3,0 0,1.1 -6.9,0 z"
         id="path721"
         style="fill:#ffffff" />
      <path
         class="st7"
         d="m 279.9,395.8 -3.2,7.8 -1.5,0 3.1,-7.5 -5.1,0 0,-3.7 1.4,0 0,2.6 5.2,0 0,0.8 z"
         id="path723"
         style="fill:#ffffff" />
      <path
         class="st7"
         d="m 282.2,396 -1,0 0,-1.1 2.4,0 0,8.6 -1.4,0 0,-7.5 z"
         id="path725"
         style="fill:#ffffff" />
      <path
         class="st7"
         d="m 285.5,403.3 0.2,-1 c 0.8,0.2 1.5,0.3 2.1,0.3 0.8,0 1.4,-0.2 1.9,-0.6 0.5,-0.4 0.6,-1 0.6,-1.7 l 0,-4.3 -4.5,0 0,-1.1 5.8,0 0,5.1 c 0,1.2 -0.3,2.1 -1,2.8 -0.7,0.7 -1.6,0.9 -2.7,0.9 -0.7,0 -1.5,-0.2 -2.4,-0.4 z"
         id="path727"
         style="fill:#ffffff" />
      <path
         class="st7"
         d="m 295.6,402 c 0.5,0.2 1,0.4 1.5,0.5 0.5,0.1 1,0.2 1.5,0.2 0.7,0 1.3,-0.1 1.9,-0.3 0.6,-0.2 1,-0.5 1.3,-0.9 0.3,-0.4 0.5,-0.9 0.5,-1.5 l 0,-5 1.3,0 0,5.1 c 0,0.8 -0.2,1.5 -0.7,2.1 -0.4,0.6 -1,1 -1.8,1.3 -0.8,0.3 -1.6,0.4 -2.5,0.4 -0.7,0 -1.4,-0.1 -2.2,-0.3 -0.8,-0.2 -1.5,-0.4 -2.1,-0.7 l 0,-7.8 1.3,0 0,6.9 z m 2.5,-1.6 c 0.1,-0.3 0.1,-0.7 0.1,-1.2 l 0,-4.3 1.3,0 0,4.1 c 0,0.5 -0.1,0.9 -0.2,1.3 -0.1,0.4 -0.3,0.7 -0.6,0.9 l -1.1,0 c 0.2,-0.2 0.4,-0.5 0.5,-0.8 z"
         id="path729"
         style="fill:#ffffff" />
      <path
         class="st7"
         d="m 311,399.8 2.7,3.8 -1.5,0 -3.8,-5.3 c -0.5,0.3 -0.8,0.9 -0.8,1.7 l 0,3.6 -1.3,0 0,-3.1 c 0,-0.7 0.1,-1.4 0.4,-1.8 0.3,-0.5 0.6,-0.8 1.2,-1.1 l -1.9,-2.6 1.5,0 2.7,3.7 2.1,-3.7 1.5,0 -2.8,4.8 z"
         id="path731"
         style="fill:#ffffff" />
    </g>
  </g>
</svg>
