<?xml version="1.0" encoding="UTF-8" standalone="no"?>
<svg
   xmlns:dc="http://purl.org/dc/elements/1.1/"
   xmlns:cc="http://creativecommons.org/ns#"
   xmlns:rdf="http://www.w3.org/1999/02/22-rdf-syntax-ns#"
   xmlns:svg="http://www.w3.org/2000/svg"
   xmlns="http://www.w3.org/2000/svg"
   width="47.921333mm"
   height="23.057554mm"
   viewBox="0 0 169.8 81.699995"
   id="svg3965"
   version="1.1">
  <defs
     id="defs3967" />
  <metadata
     id="metadata3970">
    <rdf:RDF>
      <cc:Work
         rdf:about="">
        <dc:format>image/svg+xml</dc:format>
        <dc:type
           rdf:resource="http://purl.org/dc/dcmitype/StillImage" />
        <dc:title></dc:title>
      </cc:Work>
    </rdf:RDF>
  </metadata>
  <g
     id="layer1"
     transform="translate(-243.67143,-717.2265)">
    <g
       id="g4018">
      <path
         id="path1011_3_"
         class="st936"
         d="m 342.47143,770.02649 c 0,7.7 -13.9,28.9 -13.9,28.9 0,0 -13.9,-21 -13.9,-28.9 0,-7.7 6.2,-13.9 13.9,-13.9 7.7,0 13.9,6.2 13.9,13.9"
         style="fill:#f07741;fill-opacity:1" />
      <rect
         id="rect863_5_"
         x="243.67143"
         y="717.2265"
         class="st933"
         width="169.8"
         height="32.200001"
         style="fill:#4b1a26" />
      <g
         id="g6601"
         transform="translate(-291.42855,207.02649)">
        <path
           class="st939"
           d="m 562.6,519.9 9.2,0 0,11.5 -9.2,0 0,-11.5 z m 7.4,10 0,-8.6 -5.6,0 0,8.6 5.6,0 z"
           id="path6603"
           style="fill:#f48166" />
        <path
           class="st939"
           d="m 576.7,521.3 -2.1,0 0,-1.5 3.9,0 0,6.4 -1.8,0 0,-4.9 z"
           id="path6605"
           style="fill:#f48166" />
        <path
           class="st939"
           d="m 581.2,531.3 0,-1.4 c 0.4,0.1 0.9,0.1 1.4,0.1 0.5,0 0.9,-0.2 1.2,-0.5 0.3,-0.3 0.4,-0.8 0.4,-1.4 l 0,-6.9 -2.2,0 0,-1.5 4.1,0 0,8.5 c 0,1.1 -0.3,1.9 -0.8,2.4 -0.5,0.5 -1.3,0.8 -2.2,0.8 -0.6,0.2 -1.3,0.1 -1.9,-0.1 z"
           id="path6607"
           style="fill:#f48166" />
        <path
           class="st939"
           d="m 590.9,524.1 c 0.1,-0.5 0.2,-1 0.5,-1.5 0.3,-0.5 0.5,-0.8 0.8,-1.1 0,0 0.1,-0.1 0.2,-0.1 l 0,0 c -0.3,0.1 -0.7,0.1 -1.1,0.2 -0.4,0.1 -0.8,0.2 -1.2,0.4 l -0.4,-1.4 c 0.8,-0.3 1.6,-0.5 2.5,-0.6 0.9,-0.1 1.8,-0.2 2.6,-0.2 1.5,0 2.7,0.4 3.5,1.2 0.8,0.8 1.2,2 1.2,3.6 l 0,6.9 -4.7,0 0,-1.5 2.9,0 0,-5.6 c 0,-1 -0.2,-1.8 -0.7,-2.3 -0.5,-0.5 -1.1,-0.8 -2,-0.8 -0.6,0 -1.2,0.2 -1.6,0.7 -0.4,0.5 -0.7,1.1 -0.8,2 l -0.9,7.5 -1.7,0 0.9,-7.4 z"
           id="path6609"
           style="fill:#f48166" />
        <path
           class="st939"
           d="m 609.7,526.3 3.6,5 -2,0 -5.1,-7.1 c -0.7,0.4 -1,1.2 -1,2.2 l 0,4.8 -1.8,0 0,-4.2 c 0,-1 0.2,-1.8 0.5,-2.4 0.3,-0.6 0.9,-1.1 1.6,-1.4 l -2.5,-3.4 2,0 3.6,4.9 2.8,-4.9 2,0 -3.7,6.5 z"
           id="path6611"
           style="fill:#f48166" />
        <path
           class="st939"
           d="m 623.3,524.2 c 0,-1 -0.2,-1.7 -0.7,-2.2 -0.5,-0.5 -1.2,-0.7 -2.2,-0.7 l -4.2,0 0,-1.5 4.3,0 c 1.5,0 2.6,0.4 3.4,1.1 0.8,0.7 1.2,1.8 1.2,3.2 l 0,7.2 -1.8,0 0,-7.1 z m -7,3.2 c 0,-0.6 0,-1.1 0.1,-1.4 0.1,-0.3 0.2,-0.7 0.4,-1 l 1.5,0 c -0.1,0.3 -0.1,0.6 -0.2,1 -0.1,0.4 -0.1,0.8 -0.1,1.3 l 0,4 -1.8,0 0,-3.9 z"
           id="path6613"
           style="fill:#f48166" />
        <path
           class="st939"
           d="m 642.5,521 c 0.8,0.7 1.1,1.8 1.1,3.3 l 0,7.1 -1.8,0 0,-7.2 c 0,-1 -0.2,-1.7 -0.6,-2.2 -0.4,-0.5 -1.1,-0.7 -2.1,-0.7 l -1.6,0 c -0.2,0.4 -0.4,0.8 -0.5,1.4 -0.1,0.6 -0.2,1.1 -0.2,1.7 l 0,3.9 c 0,1.1 -0.3,1.9 -0.8,2.4 -0.5,0.5 -1.2,0.8 -2.2,0.8 -0.3,0 -0.7,0 -1.1,-0.1 l 0,-1.5 c 0.2,0 0.4,0 0.7,0 0.6,0 1,-0.1 1.2,-0.4 0.2,-0.3 0.4,-0.8 0.4,-1.4 l 0,-3.6 c 0,-0.6 0.1,-1.2 0.2,-1.8 0.1,-0.6 0.4,-1.1 0.6,-1.4 l -2.2,0 0,-1.5 5.4,0 c 1.6,0.1 2.7,0.4 3.5,1.2 z"
           id="path6615"
           style="fill:#f48166" />
        <path
           class="st939"
           d="m 649.5,531 c -0.7,-0.4 -1.2,-0.9 -1.6,-1.6 -0.4,-0.7 -0.6,-1.5 -0.6,-2.4 l 0,-7.1 1.8,0 0,7.2 c 0,0.6 0.1,1.1 0.3,1.6 0.2,0.5 0.6,0.8 1,1.1 0.4,0.3 0.9,0.4 1.5,0.4 0.5,0 1,-0.1 1.5,-0.4 0.5,-0.3 0.7,-0.6 1,-1.1 0.3,-0.5 0.3,-1 0.3,-1.6 l 0,-3.9 c 0,-0.6 -0.1,-1.1 -0.4,-1.5 -0.3,-0.4 -0.7,-0.5 -1.2,-0.5 -0.4,0 -0.9,0.1 -1.4,0.4 l -0.3,-1.2 c 0.3,-0.2 0.7,-0.4 1.1,-0.5 0.4,-0.1 0.8,-0.2 1.1,-0.2 0.6,0 1.1,0.1 1.5,0.4 0.4,0.3 0.8,0.7 1,1.2 0.2,0.5 0.3,1.1 0.3,1.8 l 0,3.9 c 0,0.9 -0.2,1.7 -0.6,2.4 -0.4,0.7 -0.9,1.2 -1.6,1.6 -0.7,0.4 -1.5,0.6 -2.4,0.6 -0.9,0 -1.6,-0.2 -2.3,-0.6 z"
           id="path6617"
           style="fill:#f48166" />
        <path
           class="st939"
           d="m 661,524.1 c 0.1,-0.5 0.2,-1 0.5,-1.5 0.3,-0.5 0.5,-0.8 0.8,-1.1 0,0 0.1,-0.1 0.2,-0.1 l 0,0 c -0.3,0.1 -0.7,0.1 -1.1,0.2 -0.4,0.1 -0.8,0.2 -1.2,0.4 l -0.4,-1.4 c 0.8,-0.3 1.6,-0.5 2.5,-0.6 0.9,-0.1 1.8,-0.2 2.6,-0.2 1.5,0 2.7,0.4 3.5,1.2 0.8,0.8 1.2,2 1.2,3.6 l 0,6.9 -4.7,0 0,-1.5 2.9,0 0,-5.6 c 0,-1 -0.2,-1.8 -0.7,-2.3 -0.5,-0.5 -1.1,-0.8 -2,-0.8 -0.6,0 -1.2,0.2 -1.6,0.7 -0.4,0.5 -0.7,1.1 -0.8,2 l -0.9,7.5 -1.8,0 1,-7.4 z"
           id="path6619"
           style="fill:#f48166" />
        <path
           class="st939"
           d="m 675.6,530.9 c -0.7,-0.4 -1.3,-1.1 -1.7,-1.9 -0.4,-0.8 -0.6,-1.7 -0.6,-2.8 l 0,-1.2 c 0,-0.5 0.1,-1 0.2,-1.5 0.1,-0.5 0.3,-0.9 0.6,-1.3 0.3,-0.4 0.5,-0.7 0.8,-0.9 0.1,0 0.1,-0.1 0.1,-0.1 l 0,0 c -0.3,0 -1,0.2 -2.1,0.5 l -0.4,-1.4 c 0.8,-0.2 1.6,-0.4 2.6,-0.5 1,-0.1 1.8,-0.2 2.6,-0.2 1.1,0 2,0.2 2.8,0.6 0.8,0.4 1.4,1 1.8,1.8 0.4,0.8 0.6,1.7 0.6,2.8 l 0,1.4 c 0,1 -0.2,2 -0.6,2.8 -0.4,0.8 -1,1.4 -1.7,1.9 -0.7,0.5 -1.6,0.7 -2.5,0.7 -0.9,0 -1.8,-0.2 -2.5,-0.7 z m 4.1,-1.3 c 0.5,-0.3 0.8,-0.7 1.1,-1.3 0.3,-0.6 0.4,-1.2 0.4,-2 l 0,-1.4 c 0,-0.8 -0.1,-1.4 -0.4,-2 -0.3,-0.6 -0.6,-1 -1.1,-1.3 -0.5,-0.3 -1,-0.5 -1.7,-0.5 -0.6,0 -1.1,0.2 -1.5,0.5 -0.4,0.3 -0.8,0.8 -1,1.3 -0.2,0.5 -0.4,1.3 -0.4,2.1 l 0,1.3 c 0,0.7 0.1,1.4 0.4,2 0.3,0.6 0.6,1 1.1,1.3 0.5,0.3 1,0.5 1.6,0.5 0.6,0 1.1,-0.2 1.5,-0.5 z"
           id="path6621"
           style="fill:#f48166" />
      </g>
    </g>
  </g>
</svg>
