<?xml version="1.0" encoding="UTF-8" standalone="no"?>
<svg
   xmlns:dc="http://purl.org/dc/elements/1.1/"
   xmlns:cc="http://creativecommons.org/ns#"
   xmlns:rdf="http://www.w3.org/1999/02/22-rdf-syntax-ns#"
   xmlns:svg="http://www.w3.org/2000/svg"
   xmlns="http://www.w3.org/2000/svg"
   xmlns:xlink="http://www.w3.org/1999/xlink"
   version="1.1"
   id="svg8652"
   viewBox="0 0 80 38.566452"
   height="10.88431mm"
   width="22.577778mm">
  <defs
     id="defs8654">
    <clipPath
       id="SVGID_40_-1">
      <use
         height="100%"
         width="100%"
         y="0"
         x="0"
         xlink:href="#SVGID_39_"
         style="overflow:visible"
         id="use345-4" />
    </clipPath>
  </defs>
  <metadata
     id="metadata8657">
    <rdf:RDF>
      <cc:Work
         rdf:about="">
        <dc:format>image/svg+xml</dc:format>
        <dc:type
           rdf:resource="http://purl.org/dc/dcmitype/StillImage" />
        <dc:title></dc:title>
      </cc:Work>
    </rdf:RDF>
  </metadata>
  <g
     transform="translate(-333.25137,-414.48682)"
     id="layer1">
    <rect
       style="fill:#411025"
       id="rect309"
       x="333.25137"
       y="414.48682"
       class="st10"
       width="80"
       height="13" />
    <path
       style="fill:#37d7e3"
       id="path385"
       class="st2"
       d="m 340.35137,417.98682 2.2,0.5 0,0.1 0,0.1 c 0,0.1 0,0.2 0,0.3 0,0.1 0,0.2 0,0.3 -0.1,0.3 -0.2,0.6 -0.3,0.9 -0.1,0.3 -0.3,0.5 -0.4,0.8 -0.2,0.3 -0.4,0.5 -0.7,0.8 -0.3,0.2 -0.6,0.5 -0.9,0.7 l 0.5,1.2 c 0.1,0.2 0.1,0.3 0.2,0.5 0.1,0.1 0.1,0.2 0.1,0.3 0.1,0.2 0.2,0.3 0.2,0.4 0.1,0.1 0.2,0.2 0.3,0.3 -0.2,0.2 -0.3,0.3 -0.5,0.5 -0.2,0.2 -0.3,0.3 -0.5,0.5 l -0.2,-0.2 c -0.1,-0.1 -0.2,-0.2 -0.3,-0.3 -0.1,-0.1 -0.2,-0.2 -0.2,-0.3 -0.1,-0.1 -0.1,-0.2 -0.2,-0.3 -0.1,-0.1 -0.1,-0.3 -0.2,-0.4 l -2.6,-6 1.4,-0.6 1.4,3.3 c 0.2,-0.1 0.4,-0.3 0.5,-0.5 0.1,-0.2 0.3,-0.4 0.4,-0.6 0.1,-0.1 0.1,-0.3 0.2,-0.5 0.1,-0.2 0.1,-0.3 0.1,-0.5 l -0.9,-0.2 0.4,-1.1 0,0 z m 4.3,1.5 c -0.2,0 -0.4,0 -0.5,0 -0.1,0 -0.3,0 -0.4,0 -0.1,0 -0.3,0 -0.4,-0.1 -0.1,0 -0.3,-0.1 -0.5,-0.1 0.1,-0.2 0.1,-0.4 0.2,-0.6 0.1,-0.2 0.1,-0.4 0.2,-0.6 0.2,0.1 0.4,0.1 0.5,0.1 0.1,0 0.3,0.1 0.4,0.1 0.1,0 0.3,0 0.4,0 0.1,0 0.3,0 0.5,0 l 0.7,0 c 0.2,0 0.5,0 0.7,0.1 0.2,0.1 0.4,0.2 0.6,0.3 0.2,0.1 0.3,0.3 0.4,0.6 0.1,0.3 0.2,0.6 0.2,1 l 0,3.9 -1.5,0 0,-3.5 c 0,-0.2 0,-0.4 0,-0.6 0,-0.1 -0.1,-0.3 -0.1,-0.3 -0.1,-0.1 -0.2,-0.1 -0.3,-0.2 -0.1,0 -0.3,0 -0.5,0 l -0.6,-0.1 0,0 z m 6,-1.2 0,5.9 -1.5,0 0,-4.6 -1,0 0,-1.2 2.5,-0.1 0,0 z m 3.2,0 0,5.9 -1.5,0 0,-4.6 -1,0 0,-1.2 2.5,-0.1 0,0 z m 2.4,4.7 c 0.1,0 0.2,0 0.2,0 0.1,0 0.2,0 0.3,0 0.2,0 0.5,0 0.7,-0.1 0.2,0 0.5,-0.1 0.7,-0.2 0.2,-0.1 0.4,-0.2 0.6,-0.4 0.2,-0.2 0.4,-0.4 0.5,-0.7 0.2,-0.4 0.4,-0.8 0.4,-1.2 0.1,-0.4 0.1,-0.8 0.1,-1.2 0,-0.2 0,-0.3 0,-0.5 0,-0.2 0,-0.3 0,-0.5 0.2,0 0.3,-0.1 0.4,-0.1 0.1,0 0.2,-0.1 0.3,-0.1 0.1,0 0.2,0 0.3,-0.1 0.1,-0.1 0.3,0 0.4,-0.1 0,0.2 0.1,0.3 0.1,0.5 0,0.2 0,0.4 0,0.6 0,0.2 0,0.4 0,0.5 0,0.2 0,0.3 0,0.5 -0.2,1.4 -0.7,2.4 -1.5,3.1 -0.8,0.7 -1.9,1 -3.4,1 -0.2,0 -0.5,0 -0.8,0 -0.3,0 -0.5,0 -0.8,-0.1 l -0.3,-3.4 c 0,-0.2 0,-0.4 0,-0.5 0,-0.1 0,-0.3 0,-0.4 0,-0.1 0,-0.2 0,-0.3 0,-0.1 0,-0.2 -0.1,-0.3 0,-0.1 -0.1,-0.2 -0.1,-0.3 0,-0.1 -0.1,-0.2 -0.1,-0.4 0.2,-0.1 0.4,-0.2 0.7,-0.3 0.2,-0.1 0.5,-0.2 0.7,-0.3 0.1,0.2 0.2,0.4 0.2,0.6 0.1,0.2 0.1,0.4 0.1,0.5 0,0.2 0.1,0.4 0.1,0.6 0,0.2 0,0.4 0.1,0.7 l 0.2,2.9 0,0 z m 0.6,-2.8 c 0.1,-0.2 0.1,-0.3 0.1,-0.4 0,-0.1 0.1,-0.2 0.1,-0.3 0,-0.1 0,-0.2 0.1,-0.2 0,-0.1 0,-0.2 0,-0.2 l 0,-0.1 0,-0.1 c 0,-0.1 0,-0.1 0,-0.2 0,-0.1 0,-0.1 0,-0.2 0.2,-0.1 0.5,-0.1 0.7,-0.2 0.2,-0.1 0.5,-0.1 0.7,-0.2 0,0.2 0.1,0.3 0.1,0.5 0,0.1 0,0.3 0,0.4 0,0.1 0,0.2 0,0.3 0,0.1 0,0.2 -0.1,0.4 0,0.1 -0.1,0.3 -0.1,0.4 0,0.1 -0.1,0.3 -0.2,0.5 l -0.4,1 c -0.2,0 -0.3,-0.1 -0.4,-0.1 -0.1,0 -0.2,-0.1 -0.3,-0.1 -0.1,0 -0.2,-0.1 -0.3,-0.1 -0.1,0 -0.2,-0.1 -0.4,-0.2 l 0.4,-0.9 0,0 z m 11,-1.9 c 0.2,0 0.5,0 0.7,0.1 0.2,0.1 0.4,0.2 0.6,0.3 0.2,0.1 0.3,0.3 0.4,0.6 0.1,0.3 0.2,0.6 0.2,1 l 0,3.9 -5.5,0 0,-3.2 c 0,-0.2 0,-0.5 0,-0.7 0,-0.2 0.1,-0.5 0.1,-0.7 -0.1,0 -0.3,0 -0.4,-0.1 -0.1,0 -0.3,-0.1 -0.5,-0.1 0.1,-0.2 0.1,-0.4 0.2,-0.6 0.1,-0.2 0.1,-0.4 0.2,-0.6 0.2,0.1 0.4,0.1 0.5,0.1 0.1,0 0.3,0.1 0.4,0.1 0.1,0 0.3,0 0.4,0 0.1,0 0.3,0 0.5,0 l 2.2,-0.1 0,0 z m 0.4,4.6 0,-2.3 c 0,-0.2 0,-0.4 0,-0.6 0,-0.1 -0.1,-0.3 -0.1,-0.3 -0.1,-0.1 -0.2,-0.1 -0.3,-0.2 -0.1,0 -0.3,0 -0.5,0 l -1.3,0 c -0.1,0.3 -0.1,0.5 -0.1,0.7 0,0.2 0,0.4 0,0.7 l 0,2 2.3,0 0,0 z m 4.6,-4.6 0,5.9 -1.5,0 0,-4.6 -1,0 0,-1.2 2.5,-0.1 0,0 z m 3.3,0 0,2.1 c 0,0.2 0,0.4 0,0.5 0,0.1 0,0.3 0,0.4 0,0.1 0,0.2 0,0.3 0,0.1 0,0.2 -0.1,0.3 l -1.5,-0.2 c 0,-0.1 0,-0.2 0.1,-0.3 0,-0.1 0,-0.2 0,-0.3 0,-0.1 0,-0.2 0,-0.4 0,-0.2 0,-0.3 0,-0.5 l 0,-0.8 -1.3,0 0,-1.2 2.8,0 0,0.1 z m 2.1,1.2 c -0.2,0 -0.4,0 -0.5,0 -0.1,0 -0.3,0 -0.4,0 -0.1,0 -0.3,0 -0.4,-0.1 -0.1,0 -0.3,-0.1 -0.5,-0.1 0.1,-0.2 0.1,-0.4 0.2,-0.6 0.1,-0.2 0.1,-0.4 0.2,-0.6 0.2,0.1 0.4,0.1 0.5,0.1 0.1,0 0.3,0.1 0.4,0.1 0.1,0 0.3,0 0.4,0 0.1,0 0.3,0 0.5,0 l 0.7,0 c 0.2,0 0.5,0 0.7,0.1 0.2,0.1 0.4,0.2 0.6,0.3 0.2,0.1 0.3,0.3 0.4,0.6 0.1,0.3 0.2,0.6 0.2,1 l 0,3.9 -1.5,0 0,-3.5 c 0,-0.2 0,-0.4 0,-0.6 0,-0.1 -0.1,-0.3 -0.1,-0.3 -0.1,-0.1 -0.2,-0.1 -0.3,-0.2 -0.1,0 -0.3,0 -0.5,0 l -0.6,-0.1 0,0 z m 6,-1.2 0,5.9 -1.5,0 0,-4.6 -1,0 0,-1.2 2.5,-0.1 0,0 z m 3,1.9 c 0.1,-0.3 0.2,-0.7 0.3,-1 0.1,-0.4 0.2,-0.7 0.4,-1 0.2,0 0.4,0 0.7,0.1 0.3,0 0.5,0.1 0.8,0.1 0.3,0 0.5,0.1 0.8,0.1 0.3,0 0.5,0.1 0.7,0.2 0.1,0.2 0.1,0.4 0.1,0.7 0,0.2 0,0.5 0,0.7 0,0.6 -0.1,1.1 -0.2,1.6 -0.1,0.5 -0.4,0.9 -0.7,1.3 -0.2,0.3 -0.4,0.5 -0.7,0.7 -0.3,0.2 -0.5,0.3 -0.8,0.4 -0.3,0.1 -0.6,0.2 -0.9,0.2 -0.3,0 -0.6,0.1 -0.9,0.1 -0.2,0 -0.5,0 -0.7,0 -0.2,0 -0.5,-0.1 -0.7,-0.1 l -0.3,-3.4 c 0,-0.2 0,-0.4 0,-0.5 0,-0.1 0,-0.3 0,-0.4 0,-0.1 0,-0.2 0,-0.3 0,-0.1 0,-0.2 -0.1,-0.3 0,-0.1 -0.1,-0.2 -0.1,-0.3 0,-0.1 -0.1,-0.2 -0.1,-0.4 0.2,-0.1 0.4,-0.2 0.7,-0.3 0.2,-0.1 0.5,-0.2 0.7,-0.3 0.1,0.2 0.2,0.4 0.2,0.6 0.1,0.2 0.1,0.4 0.1,0.5 0,0.2 0.1,0.4 0.1,0.6 0,0.2 0,0.4 0.1,0.7 l 0.2,2.6 0.1,0 c 0,0 0,0 0.1,0 0.3,0 0.5,0 0.8,-0.1 0.2,-0.1 0.5,-0.1 0.7,-0.3 0.2,-0.1 0.4,-0.3 0.5,-0.5 0.2,-0.2 0.3,-0.4 0.4,-0.7 0.1,-0.2 0.2,-0.5 0.2,-0.7 0,-0.3 0.1,-0.5 0.1,-0.8 0,-0.1 0,-0.2 0,-0.3 0,-0.1 0,-0.2 0,-0.3 -0.1,0 -0.3,-0.1 -0.4,-0.1 -0.1,0 -0.3,0 -0.4,-0.1 -0.1,0.2 -0.1,0.4 -0.2,0.6 -0.1,0.2 -0.1,0.4 -0.2,0.5 l -1.4,-0.1 0,0 z m 6.8,-1.9 0,2.1 c 0,0.2 0,0.4 0,0.5 0,0.1 0,0.3 0,0.4 0,0.1 0,0.2 0,0.3 0,0.1 0,0.2 -0.1,0.3 l -1.5,-0.2 c 0,-0.1 0,-0.2 0.1,-0.3 0,-0.1 0,-0.2 0,-0.3 0,-0.1 0,-0.2 0,-0.4 0,-0.1 0,-0.3 0,-0.5 l 0,-0.8 -1.3,0 0,-1.2 2.8,0 0,0.1 z m 2.2,1.2 c -0.2,0 -0.4,0 -0.5,0 -0.1,0 -0.3,0 -0.4,0 -0.1,0 -0.3,0 -0.4,-0.1 -0.1,0 -0.3,-0.1 -0.5,-0.1 0.1,-0.2 0.1,-0.4 0.2,-0.6 0.1,-0.2 0.1,-0.4 0.2,-0.6 0.2,0.1 0.4,0.1 0.5,0.1 0.1,0 0.3,0.1 0.4,0.1 0.1,0 0.3,0 0.4,0 0.1,0 0.3,0 0.5,0 l 3.2,0 0,1.2 -1.1,0 0,4.6 -1.5,0 0,-4.6 -1,0 0,0 z m 6.5,-1.2 0,5.9 -1.5,0 0,-4.6 -1,0 0,-1.2 2.5,-0.1 0,0 z m 6.1,2 c -0.1,0.2 -0.1,0.4 -0.2,0.6 -0.1,0.2 -0.1,0.4 -0.2,0.5 -0.1,0.2 -0.2,0.3 -0.3,0.4 -0.1,0.1 -0.3,0.3 -0.4,0.4 l 1.2,1.4 -1,0.9 -2.9,-3.4 c -0.1,0.1 -0.1,0.2 -0.1,0.4 0,0.2 -0.1,0.3 -0.1,0.5 0,0.2 0,0.4 0,0.6 0,0.2 0,0.4 0,0.5 0,0.1 0,0.1 0,0.2 0,0.1 0,0.2 0,0.3 0,0.1 0,0.2 0,0.3 0,0.1 0,0.2 0,0.3 l -1.4,0 c 0,-0.1 0,-0.2 0,-0.3 0,-0.1 0,-0.3 0,-0.4 0,-0.1 0,-0.3 0,-0.5 0,-0.2 0,-0.4 0,-0.6 0,-0.2 0,-0.4 0,-0.6 0,-0.2 0.1,-0.4 0.1,-0.6 0.1,-0.2 0.1,-0.4 0.2,-0.5 0.1,-0.2 0.2,-0.3 0.4,-0.5 -0.1,-0.1 -0.2,-0.2 -0.3,-0.4 -0.1,-0.1 -0.1,-0.2 -0.2,-0.4 -0.1,-0.1 -0.1,-0.3 -0.2,-0.4 -0.1,-0.1 -0.1,-0.3 -0.2,-0.5 0.2,-0.1 0.4,-0.2 0.7,-0.3 0.2,-0.1 0.5,-0.2 0.7,-0.2 0.1,0.2 0.2,0.4 0.2,0.6 0.1,0.2 0.2,0.3 0.2,0.5 0.1,0.1 0.2,0.3 0.3,0.4 0.1,0.1 0.2,0.3 0.4,0.5 l 1.1,1.2 c 0.1,-0.1 0.2,-0.2 0.2,-0.3 0,-0.1 0.1,-0.3 0.2,-0.4 0,-0.1 0,-0.1 0.1,-0.2 0,-0.1 0,-0.2 0.1,-0.2 l 0.1,-0.7 -0.8,-0.1 0.2,-1.2 2.1,0.4 0,0.7 -0.2,1.1 0,0 z" />
    <g
       id="g3369"
       transform="translate(1.82377,0)">
      <g
         transform="translate(823.5276,-520.24673)"
         id="g387">
        <g
           id="g339">
          <defs
             id="defs341">
            <rect
               height="1157.5"
               width="554"
               y="457.5"
               x="-658.29999"
               id="SVGID_39_" />
          </defs>
          <clipPath
             id="clipPath9242">
            <use
               id="use9244"
               style="overflow:visible"
               xlink:href="#SVGID_39_"
               x="0"
               y="0"
               width="100%"
               height="100%" />
          </clipPath>
          <path
             clip-path="url(#SVGID_40_-1)"
             d="m -444.3,957.2 c 0,4.3 -7.8,16.1 -7.8,16.1 0,0 -7.8,-11.8 -7.8,-16.1 0,-4.3 3.5,-7.8 7.8,-7.8 4.3,0.1 7.8,3.5 7.8,7.8"
             class="st27"
             id="path395"
             style="fill:#c31a3b;fill-opacity:1" />
        </g>
      </g>
      <g
         transform="matrix(0.42702949,0,0,0.42702949,875.80067,-66.636701)"
         id="g4679-4-9">
        <path
           d="m -1174.9,1172.3 c 1.9,-0.1 3.6,-1.7 4,-3.5 -1.8,0 -3.6,1.8 -4,3.5 z m -3.9,-2 c -2.2,2.6 -5.5,3.7 -8.4,5.3 -2.6,1.2 -5,3.4 -7.9,3.6 -0.1,1.9 0.7,3.6 1,5.4 1.9,-0.6 2.7,-0.4 3.6,1.4 1.8,2.3 6.1,1 6.3,-1.9 2.6,0.1 5.2,-0.1 7.7,-0.2 1,1 3.8,0.8 3.2,-1.1 -0.7,-4.1 -2,-8.1 -3.2,-12.1 -0.3,-0.8 -1.6,-0.2 -2.3,-0.4 z"
           class="st3"
           id="path6-3-7"
           style="fill:#ffffff" />
        <path
           d="m -1178.8,1174.3 c -3.8,2.2 -7.7,4.4 -11.7,6.4 0.4,1 3,0.4 4.3,0.6 3.1,0 6.3,0 9.4,0 -0.4,-2.4 -0.9,-5 -2,-7 z"
           class="st10"
           id="path8-6-3"
           style="fill:#c31a3b;fill-opacity:1" />
        <path
           d="m -1172.4,1176.7 c 1.7,0 3.3,-0.5 4.9,-1 0.4,-2.4 -2.3,-1.1 -3.5,-0.6 -0.7,0.3 -1.4,0.8 -1.4,1.6 m 0,4 c 0.9,1.2 3.2,2.2 4.6,1.3 1,-1.5 -2.4,-1.3 -3.4,-1.7 -0.5,0 -0.8,0.2 -1.2,0.4 l 0,0 z"
           class="st3"
           id="path10-3-4"
           style="fill:#ffffff" />
        <path
           d="m -1190.2,1184.2 c 0.7,1.5 2.4,2.6 3.7,1.2 2.1,-2 -1.9,-1 -3.1,-1.2 -0.2,0 -0.4,0 -0.6,0 z"
           class="st10"
           id="path12-1-9"
           style="fill:#c31a3b;fill-opacity:1" />
      </g>
    </g>
  </g>
</svg>
