<?xml version="1.0" encoding="UTF-8" standalone="no"?>
<svg
   xmlns:dc="http://purl.org/dc/elements/1.1/"
   xmlns:cc="http://creativecommons.org/ns#"
   xmlns:rdf="http://www.w3.org/1999/02/22-rdf-syntax-ns#"
   xmlns:svg="http://www.w3.org/2000/svg"
   xmlns="http://www.w3.org/2000/svg"
   version="1.1"
   id="svg7188"
   viewBox="0 0 122.09999 166.00001"
   height="46.848892mm"
   width="34.459332mm">
  <defs
     id="defs7190" />
  <metadata
     id="metadata7193">
    <rdf:RDF>
      <cc:Work
         rdf:about="">
        <dc:format>image/svg+xml</dc:format>
        <dc:type
           rdf:resource="http://purl.org/dc/dcmitype/StillImage" />
        <dc:title></dc:title>
      </cc:Work>
    </rdf:RDF>
  </metadata>
  <g
     transform="translate(-270.37857,-460.79077)"
     id="layer1">
    <rect
       id="rect807_2_"
       x="270.37857"
       y="460.79077"
       class="st48"
       width="122.1"
       height="116.1"
       style="fill:#18304e" />
    <path
       id="path877_1_"
       class="st48"
       d="m 344.62857,599.59078 c 0,7.2 -13.2,27.2 -13.2,27.2 0,0 -13.2,-20 -13.2,-27.2 0,-7.2 5.9,-13.2 13.2,-13.2 7.3,0 13.2,6 13.2,13.2"
       style="fill:#18304e" />
    <path
       id="path973_1_"
       class="st64"
       d="m 337.02857,597.39078 c -0.7,0 -1.2,-0.5 -1.2,-1.2 0,-0.7 0.5,-1.2 1.2,-1.2 0.7,0 1.2,0.5 1.2,1.2 0,0.7 -0.5,1.2 -1.2,1.2 m -2.2,2.7 c -0.7,0 -1.2,-0.5 -1.2,-1.2 0,-0.7 0.5,-1.2 1.2,-1.2 0.7,0 1.2,0.5 1.2,1.2 0,0.7 -0.6,1.2 -1.2,1.2 m -4.4,-2.2 c 0,0.3 -0.3,0.7 -0.7,0.7 l -1.5,0 0,1.5 c 0,0.3 -0.3,0.7 -0.7,0.7 l -0.5,0 c -0.3,0 -0.7,-0.3 -0.7,-0.7 l 0,-1.5 -1.5,0 c -0.3,0 -0.7,-0.3 -0.7,-0.7 l 0,-0.5 c 0,-0.3 0.3,-0.7 0.7,-0.7 l 1.5,0 0,-1.5 c 0,-0.3 0.3,-0.7 0.7,-0.7 l 0.5,0 c 0.3,0 0.7,0.3 0.7,0.7 l 0,1.5 1.5,0 c 0.3,0 0.7,0.3 0.7,0.7 l 0,0.5 z m 11,0.3 c -1,-4.6 -2.4,-5.7 -3.3,-6.3 -1.4,-0.7 -3.1,-0.3 -3.6,0 -0.7,0.3 -1,0.8 -1.7,1.2 -0.7,0.3 -1.7,0.3 -2.4,0 -0.5,-0.3 -1,-0.8 -1.8,-1.2 -0.8,-0.3 -2.4,-0.8 -3.9,0.1 -0.3,0.1 -2.9,2.4 -3.6,8.8 -0.5,4 1.7,5.3 1.7,5.3 0.5,0.3 1.8,1 3.6,0 1.2,-0.7 2.1,-2.2 2.1,-2.2 0,0 0.3,-0.8 1,-1.2 0.3,-0.1 1,0 1,0 l 2.1,0 c 0,0 0.7,0 1.2,0.1 0.5,0.1 0.7,0.7 0.7,0.7 0,0 1.4,1.7 2.7,2.7 0.5,0.3 2.9,0.8 3.9,-0.5 0.6,-0.7 1.1,-3.6 0.3,-7.5"
       style="fill:#f6f6f6" />
    <g
       id="g1029"
       transform="translate(-670.02144,367.19078)">
      <path
         class="st7"
         d="m 971,112.1 c 0,-0.5 0,-0.9 0.1,-1.1 0.1,-0.3 0.2,-0.5 0.3,-0.7 l 1.5,0 c -0.1,0.4 -0.2,1 -0.2,1.7 l 0,3.1 -1.7,0 0,-3 z m 5.1,-2.6 c 0,-0.6 -0.1,-1 -0.4,-1.3 -0.3,-0.3 -0.7,-0.4 -1.3,-0.4 l -3.4,0 0,-1.5 3.5,0 c 1.1,0 2,0.3 2.6,0.8 0.6,0.6 0.9,1.4 0.9,2.4 l 0,5.5 -1.9,0 0,-5.5 z"
         id="path1031"
         style="fill:#ffffff" />
      <path
         class="st7"
         d="m 980.9,107.8 -1.5,0 0,-1.5 3.3,0 0,4.9 -1.9,0 0,-3.4 z"
         id="path1033"
         style="fill:#ffffff" />
      <path
         class="st7"
         d="m 985.7,107.8 -1.5,0 0,-1.5 3.3,0 0,4.9 -1.9,0 0,-3.4 z"
         id="path1035"
         style="fill:#ffffff" />
      <path
         class="st7"
         d="m 993,113.6 c 0.7,0 1.2,-0.2 1.6,-0.6 0.4,-0.4 0.6,-0.9 0.6,-1.7 l 0,-3.5 -5.2,0 0,-1.5 7.1,0 0,5 c 0,0.8 -0.2,1.4 -0.5,2 -0.3,0.6 -0.8,1 -1.4,1.3 -0.6,0.3 -1.3,0.5 -2.1,0.5 l 0,-1.5 z m -2.9,-1.7 c 0,-0.5 0,-0.9 0.1,-1.1 0.1,-0.3 0.2,-0.5 0.3,-0.7 l 1.5,0 c -0.1,0.4 -0.2,1 -0.2,1.7 l 0,6.4 -1.8,0 0,-6.3 z"
         id="path1037"
         style="fill:#ffffff" />
      <path
         class="st7"
         d="m 999.6,106.3 3.6,0 c 2.3,0 3.4,1.1 3.5,3.3 l 0,5.4 -1.9,0 0,-5.5 c 0,-0.6 -0.1,-1 -0.4,-1.3 -0.3,-0.3 -0.7,-0.4 -1.2,-0.4 l -1.7,0 0,7.3 -1.9,0 0,-8.8 z"
         id="path1039"
         style="fill:#ffffff" />
      <path
         class="st7"
         d="m 1010.7,113.2 c 0.4,0.2 0.9,0.3 1.4,0.4 0.5,0.1 1,0.2 1.4,0.2 0.7,0 1.3,-0.1 1.8,-0.3 0.5,-0.2 1,-0.5 1.3,-0.9 0.3,-0.4 0.5,-0.9 0.5,-1.5 l 0,-4.7 1.8,0 0,4.9 c 0,0.9 -0.2,1.6 -0.7,2.2 -0.5,0.6 -1.1,1.1 -1.9,1.4 -0.8,0.3 -1.7,0.5 -2.7,0.5 -0.8,0 -1.6,-0.1 -2.4,-0.3 -0.8,-0.2 -1.6,-0.5 -2.3,-0.8 l 0,-7.9 1.8,0 0,6.8 z m 2.1,-1.6 c 0.1,-0.3 0.1,-0.7 0.1,-1.1 l 0,-4.2 1.8,0 0,3.8 c 0,0.5 -0.1,0.9 -0.2,1.4 -0.1,0.4 -0.3,0.7 -0.5,1 l -1.5,0 c 0.2,-0.3 0.3,-0.5 0.3,-0.9 z"
         id="path1041"
         style="fill:#ffffff" />
      <path
         class="st7"
         d="m 1021.9,109.8 c 0,-0.4 0.2,-0.8 0.3,-1.1 0.2,-0.4 0.4,-0.6 0.6,-0.8 0,0 0.1,-0.1 0.1,-0.1 l 0,0 c -0.2,0 -0.4,0.1 -0.7,0.2 -0.3,0.1 -0.6,0.2 -0.8,0.2 l -0.4,-1.4 c 0.6,-0.2 1.2,-0.4 1.9,-0.5 0.7,-0.1 1.4,-0.2 2.1,-0.2 1.3,0 2.2,0.3 2.9,1 0.7,0.7 1,1.6 1,2.9 l 0,5.1 -3.7,0 0,-1.5 1.8,0 0,-3.8 c 0,-0.7 -0.1,-1.2 -0.4,-1.5 -0.3,-0.4 -0.7,-0.5 -1.2,-0.5 -0.4,0 -0.8,0.2 -1.1,0.5 -0.3,0.3 -0.4,0.8 -0.5,1.4 l -0.6,5.4 -1.8,0 0.5,-5.3 z"
         id="path1043"
         style="fill:#ffffff" />
      <path
         class="st7"
         d="m 981.7,133.4 c 0.5,0.5 0.8,1.4 0.8,2.5 l 0,5.2 -0.4,0 0,-5.2 c 0,-0.7 -0.1,-1.3 -0.3,-1.7 -0.2,-0.4 -0.5,-0.7 -0.9,-0.9 -0.4,-0.2 -1,-0.3 -1.7,-0.3 l -1.3,0 c -0.2,0.3 -0.4,0.6 -0.6,1.1 -0.2,0.5 -0.2,1 -0.2,1.6 l 0,3.3 c 0,0.7 -0.1,1.2 -0.4,1.5 -0.3,0.3 -0.7,0.5 -1.3,0.5 -0.2,0 -0.4,0 -0.6,0 l 0,-0.4 c 0.2,0 0.4,0 0.5,0 0.5,0 0.8,-0.1 1.1,-0.4 0.3,-0.3 0.3,-0.7 0.3,-1.2 l 0,-3.3 c 0,-0.6 0.1,-1.1 0.2,-1.6 0.1,-0.5 0.3,-0.9 0.6,-1.2 l -1.9,0 0,-0.4 3.6,0 c 1.1,0.1 2,0.3 2.5,0.9 z"
         id="path1045"
         style="fill:#ffffff" />
      <path
         class="st7"
         d="m 985.8,133 -1.2,0 0,-0.4 1.7,0 0,8.5 -0.4,0 0,-8.1 z"
         id="path1047"
         style="fill:#ffffff" />
      <path
         class="st7"
         d="m 994.3,132.8 -3.4,8.2 -0.5,0 3.4,-8.1 -5.4,0 0,-3.2 0.4,0 0,2.8 5.5,0 0,0.3 z"
         id="path1049"
         style="fill:#ffffff" />
      <path
         class="st7"
         d="m 997,133 -1.2,0 0,-0.4 1.7,0 0,8.5 -0.5,0 0,-8.1 z"
         id="path1051"
         style="fill:#ffffff" />
      <path
         class="st7"
         d="m 1001.8,140.7 c -0.5,-0.3 -0.9,-0.8 -1.2,-1.3 -0.3,-0.6 -0.4,-1.2 -0.4,-2 l 0,-1.2 c 0,-0.7 0.1,-1.3 0.4,-1.9 0.3,-0.6 0.6,-1 1.1,-1.2 0,0 0.1,0 0.1,-0.1 0.1,0 0.1,0 0.2,-0.1 l 0,0 c -0.4,0 -1.1,0.2 -2.1,0.5 l -0.1,-0.4 c 0.6,-0.2 1.2,-0.3 1.8,-0.4 0.7,-0.1 1.3,-0.2 1.8,-0.2 0.7,0 1.3,0.2 1.8,0.5 0.5,0.3 0.9,0.7 1.2,1.3 0.3,0.6 0.4,1.2 0.4,1.9 l 0,1.2 c 0,0.8 -0.1,1.4 -0.4,2 -0.3,0.6 -0.7,1 -1.2,1.3 -0.5,0.3 -1.1,0.5 -1.8,0.5 -0.7,0 -1.1,-0.1 -1.6,-0.4 z m 3.3,-0.4 c 0.4,-0.3 0.8,-0.7 1,-1.2 0.2,-0.5 0.4,-1.1 0.4,-1.8 l 0,-1.2 c 0,-0.6 -0.1,-1.2 -0.4,-1.7 -0.3,-0.5 -0.6,-0.9 -1.1,-1.2 -0.5,-0.3 -1,-0.4 -1.6,-0.4 -0.5,0 -1,0.1 -1.4,0.4 -0.4,0.3 -0.7,0.7 -1,1.2 -0.2,0.5 -0.4,1.1 -0.4,1.7 l 0,1.2 c 0,0.7 0.1,1.3 0.4,1.8 0.3,0.5 0.6,0.9 1,1.2 0.4,0.3 1,0.4 1.5,0.4 0.5,0 1.1,-0.1 1.6,-0.4 z"
         id="path1053"
         style="fill:#ffffff" />
      <path
         class="st7"
         d="m 1008.3,141.1 0.1,-0.4 c 0.3,0.1 0.6,0.1 1.1,0.1 0.9,0 1.4,-0.6 1.4,-1.7 l 0,-6.1 -2.1,0 0,-0.4 2.5,0 0,6.6 c 0,0.7 -0.2,1.2 -0.5,1.5 -0.3,0.3 -0.8,0.5 -1.4,0.5 -0.4,0 -0.8,-0.1 -1.1,-0.1 z"
         id="path1055"
         style="fill:#ffffff" />
      <path
         class="st7"
         d="m 1014.6,133 -1.2,0 0,-0.4 1.7,0 0,8.5 -0.4,0 0,-8.1 z"
         id="path1057"
         style="fill:#ffffff" />
      <path
         class="st7"
         d="m 1020.4,140.6 c 0.5,0 1,-0.1 1.4,-0.4 0.4,-0.2 0.7,-0.5 1,-0.9 0.2,-0.4 0.3,-0.8 0.3,-1.2 l 0,-5.1 -5.5,0 0,-0.4 5.9,0 0,5.6 c 0,0.6 -0.1,1.1 -0.4,1.5 -0.3,0.4 -0.6,0.8 -1.1,1 -0.5,0.2 -1,0.4 -1.7,0.4 l 0,-0.5 z m -2.5,-3 c 0,-0.4 0,-0.7 0.1,-1 0.1,-0.3 0.1,-0.5 0.2,-0.8 l 0.4,0 c -0.1,0.2 -0.1,0.5 -0.2,0.8 0,0.3 0,0.6 0,1 l 0,6.4 -0.4,0 0,-6.4 z"
         id="path1059"
         style="fill:#ffffff" />
      <path
         class="st7"
         d="m 974.4,153.9 c 0,-0.7 -0.1,-1.3 -0.3,-1.7 -0.2,-0.4 -0.5,-0.7 -0.9,-0.9 -0.4,-0.2 -1,-0.3 -1.7,-0.3 l -2.6,0 0,-0.4 2.6,0 c 1.1,0 2,0.3 2.5,0.8 0.5,0.5 0.8,1.4 0.8,2.5 l 0,5.2 -0.4,0 0,-5.2 z m -5.5,2.3 c 0,-0.4 0,-0.7 0.1,-1 0.1,-0.3 0.1,-0.5 0.2,-0.8 l 0.4,0 c -0.1,0.2 -0.1,0.5 -0.2,0.8 0,0.3 0,0.6 0,1 l 0,2.8 -0.4,0 0,-2.8 z"
         id="path1061"
         style="fill:#ffffff" />
      <path
         class="st7"
         d="m 982.8,150.8 -3.4,8.2 -0.5,0 3.4,-8.1 -5.4,0 0,-3.2 0.4,0 0,2.8 5.5,0 0,0.3 z"
         id="path1063"
         style="fill:#ffffff" />
      <path
         class="st7"
         d="m 985,158.7 0.1,-0.4 c 0.8,0.2 1.5,0.4 2.2,0.4 0.6,0 1.1,-0.1 1.6,-0.3 0.4,-0.2 0.8,-0.5 1,-0.9 0.2,-0.4 0.4,-0.9 0.4,-1.5 l 0,-5 -4.3,0 c -0.2,0.3 -0.4,0.7 -0.6,1.2 -0.1,0.5 -0.2,1 -0.2,1.6 l 0,0.8 c 0.2,0.1 0.5,0.2 0.7,0.2 0.2,0 0.6,0.1 1.2,0.1 l 0,0.4 c -0.6,0 -1,0 -1.3,-0.1 -0.3,-0.1 -0.6,-0.2 -1,-0.3 l 0,-1.1 c 0,-0.5 0.1,-1 0.2,-1.5 0.1,-0.5 0.3,-0.9 0.6,-1.3 l -0.9,0 0,-0.4 6,0 0,5.2 c 0,0.7 -0.1,1.3 -0.4,1.8 -0.3,0.5 -0.7,0.9 -1.2,1.1 -0.5,0.3 -1.1,0.4 -1.8,0.4 -0.7,0 -1.5,-0.1 -2.3,-0.4 z"
         id="path1065"
         style="fill:#ffffff" />
      <path
         class="st7"
         d="m 992.5,159.1 0.1,-0.4 c 0.3,0.1 0.6,0.1 1.1,0.1 0.9,0 1.4,-0.6 1.4,-1.7 l 0,-6.1 -2.1,0 0,-0.4 2.5,0 0,6.6 c 0,0.7 -0.2,1.2 -0.5,1.5 -0.3,0.3 -0.8,0.5 -1.4,0.5 -0.4,0 -0.8,-0.1 -1.1,-0.1 z"
         id="path1067"
         style="fill:#ffffff" />
      <path
         class="st7"
         d="m 997,159 0,-0.4 0.1,0 0.1,0 c 0.6,0 1.1,-0.2 1.5,-0.4 0.4,-0.3 0.8,-0.6 1,-1.1 0.2,-0.5 0.4,-0.9 0.4,-1.4 l 0,-4.7 -2,0 0,-0.4 2.4,0 0,4.5 c 0,0.2 0,0.4 0,0.6 0,0.2 0.1,0.4 0.1,0.6 l 0.6,2.8 -0.5,0 -0.5,-2.6 -0.1,0 c 0,0.4 -0.2,0.9 -0.5,1.3 -0.3,0.4 -0.7,0.7 -1.1,1 -0.5,0.3 -1,0.4 -1.5,0.4 0.1,-0.1 0,-0.1 0,-0.2 z"
         id="path1069"
         style="fill:#ffffff" />
      <path
         class="st7"
         d="m 1012.7,151.4 c 0.5,0.5 0.8,1.4 0.8,2.5 l 0,5.2 -0.4,0 0,-5.2 c 0,-0.7 -0.1,-1.3 -0.3,-1.7 -0.2,-0.4 -0.5,-0.7 -0.9,-0.9 -0.4,-0.2 -1,-0.3 -1.7,-0.3 l -1.3,0 c -0.2,0.3 -0.4,0.6 -0.6,1.1 -0.2,0.5 -0.2,1 -0.2,1.6 l 0,3.3 c 0,0.7 -0.1,1.2 -0.4,1.5 -0.3,0.3 -0.7,0.5 -1.3,0.5 -0.2,0 -0.4,0 -0.6,0 l 0,-0.4 c 0.2,0 0.4,0 0.5,0 0.5,0 0.8,-0.1 1.1,-0.4 0.3,-0.3 0.3,-0.7 0.3,-1.2 l 0,-3.3 c 0,-0.6 0.1,-1.1 0.2,-1.6 0.1,-0.5 0.3,-0.9 0.6,-1.2 l -1.9,0 0,-0.4 3.6,0 c 1.1,0.1 2,0.3 2.5,0.9 z"
         id="path1071"
         style="fill:#ffffff" />
      <path
         class="st7"
         d="m 1015.3,159.1 0.1,-0.4 c 0.3,0.1 0.6,0.1 1.1,0.1 0.9,0 1.4,-0.6 1.4,-1.7 l 0,-6.1 -2.1,0 0,-0.4 2.5,0 0,6.6 c 0,0.7 -0.2,1.2 -0.5,1.5 -0.3,0.3 -0.8,0.5 -1.4,0.5 -0.4,0 -0.8,-0.1 -1.1,-0.1 z"
         id="path1073"
         style="fill:#ffffff" />
      <path
         class="st7"
         d="m 1021.9,151 -1.8,0 0,-0.4 2.2,0 0,4.6 -0.4,0 0,-4.2 z"
         id="path1075"
         style="fill:#ffffff" />
      <path
         class="st7"
         d="m 1025,158.7 0.1,-0.4 c 0.8,0.2 1.5,0.4 2.2,0.4 0.6,0 1.1,-0.1 1.6,-0.3 0.4,-0.2 0.8,-0.5 1,-0.9 0.2,-0.4 0.4,-0.9 0.4,-1.5 l 0,-5 -4.2,0 c -0.2,0.3 -0.4,0.7 -0.6,1.2 -0.1,0.5 -0.2,1 -0.2,1.6 l 0,0.8 c 0.2,0.1 0.5,0.2 0.7,0.2 0.2,0 0.6,0.1 1.2,0.1 l 0,0.4 c -0.6,0 -1,0 -1.3,-0.1 -0.3,-0.1 -0.6,-0.2 -1,-0.3 l 0,-1.1 c 0,-0.5 0.1,-1 0.2,-1.5 0.1,-0.5 0.3,-0.9 0.6,-1.3 l -0.9,0 0,-0.4 6,0 0,5.2 c 0,0.7 -0.1,1.3 -0.4,1.8 -0.3,0.5 -0.7,0.9 -1.2,1.1 -0.5,0.3 -1.1,0.4 -1.8,0.4 -0.7,0 -1.5,-0.1 -2.4,-0.4 z"
         id="path1077"
         style="fill:#ffffff" />
      <path
         class="st7"
         d="m 982.3,169 -1.2,0 0,-0.4 1.7,0 0,8.5 -0.4,0 0,-8.1 z"
         id="path1079"
         style="fill:#ffffff" />
      <path
         class="st7"
         d="m 984.3,177 0,-0.4 0.1,0 0.1,0 c 0.6,0 1.1,-0.2 1.5,-0.4 0.4,-0.3 0.8,-0.6 1,-1.1 0.2,-0.5 0.4,-0.9 0.4,-1.4 l 0,-4.7 -2,0 0,-0.4 2.4,0 0,4.5 c 0,0.2 0,0.4 0,0.6 0,0.2 0.1,0.4 0.1,0.6 l 0.6,2.8 -0.5,0 -0.5,-2.6 -0.1,0 c 0,0.4 -0.2,0.9 -0.5,1.3 -0.3,0.4 -0.7,0.7 -1.1,1 -0.5,0.3 -1,0.4 -1.5,0.4 0,-0.1 0,-0.1 0,-0.2 z"
         id="path1081"
         style="fill:#ffffff" />
      <path
         class="st7"
         d="m 1000,169.4 c 0.5,0.5 0.8,1.4 0.8,2.5 l 0,5.2 -0.4,0 0,-5.2 c 0,-0.7 -0.1,-1.3 -0.3,-1.7 -0.2,-0.4 -0.5,-0.7 -0.9,-0.9 -0.4,-0.2 -1,-0.3 -1.7,-0.3 l -1.3,0 c -0.2,0.3 -0.4,0.6 -0.6,1.1 -0.2,0.5 -0.2,1 -0.2,1.6 l 0,3.3 c 0,0.7 -0.1,1.2 -0.4,1.5 -0.3,0.3 -0.7,0.5 -1.3,0.5 -0.2,0 -0.4,0 -0.6,0 l 0,-0.4 c 0.2,0 0.4,0 0.5,0 0.5,0 0.8,-0.1 1.1,-0.4 0.3,-0.3 0.3,-0.7 0.3,-1.2 l 0,-3.3 c 0,-0.6 0.1,-1.1 0.2,-1.6 0.1,-0.5 0.3,-0.9 0.6,-1.2 l -1.9,0 0,-0.4 3.6,0 c 1.1,0.1 1.9,0.3 2.5,0.9 z"
         id="path1083"
         style="fill:#ffffff" />
      <path
         class="st7"
         d="m 1002.5,177.1 0.1,-0.4 c 0.3,0.1 0.6,0.1 1.1,0.1 0.9,0 1.4,-0.6 1.4,-1.7 l 0,-6.1 -2.1,0 0,-0.4 2.5,0 0,6.6 c 0,0.7 -0.2,1.2 -0.5,1.5 -0.3,0.3 -0.8,0.5 -1.4,0.5 -0.3,0 -0.7,-0.1 -1.1,-0.1 z"
         id="path1085"
         style="fill:#ffffff" />
      <path
         class="st7"
         d="m 1009.1,169 -1.8,0 0,-0.4 2.2,0 0,4.6 -0.4,0 0,-4.2 z"
         id="path1087"
         style="fill:#ffffff" />
      <path
         class="st7"
         d="m 1012.3,176.7 0.1,-0.4 c 0.8,0.2 1.5,0.4 2.2,0.4 0.6,0 1.1,-0.1 1.6,-0.3 0.4,-0.2 0.8,-0.5 1,-0.9 0.2,-0.4 0.4,-0.9 0.4,-1.5 l 0,-5 -4.2,0 c -0.2,0.3 -0.4,0.7 -0.6,1.2 -0.1,0.5 -0.2,1 -0.2,1.6 l 0,0.8 c 0.2,0.1 0.5,0.2 0.7,0.2 0.2,0 0.6,0.1 1.2,0.1 l 0,0.4 c -0.6,0 -1,0 -1.3,-0.1 -0.3,-0.1 -0.6,-0.2 -1,-0.3 l 0,-1.1 c 0,-0.5 0.1,-1 0.2,-1.5 0.1,-0.5 0.3,-0.9 0.6,-1.3 l -0.9,0 0,-0.4 6,0 0,5.2 c 0,0.7 -0.1,1.3 -0.4,1.8 -0.3,0.5 -0.7,0.9 -1.2,1.1 -0.5,0.3 -1.1,0.4 -1.8,0.4 -0.7,0 -1.5,-0.1 -2.4,-0.4 z"
         id="path1089"
         style="fill:#ffffff" />
      <path
         class="st7"
         d="m 969.1,186.6 2.7,0 c 1.1,0 2,0.3 2.5,0.8 0.5,0.5 0.8,1.4 0.8,2.5 l 0,5.2 -0.4,0 0,-5.2 c 0,-0.7 -0.1,-1.3 -0.3,-1.7 -0.2,-0.4 -0.5,-0.7 -0.9,-0.9 -0.4,-0.2 -1,-0.3 -1.7,-0.3 l -2.3,0 0,8.1 -0.4,0 0,-8.5 z"
         id="path1091"
         style="fill:#ffffff" />
      <path
         class="st7"
         d="m 978.3,187 -1.2,0 0,-0.4 1.7,0 0,8.5 -0.4,0 0,-8.1 z"
         id="path1093"
         style="fill:#ffffff" />
      <path
         class="st7"
         d="m 986.8,186.8 -3.4,8.2 -0.5,0 3.4,-8.1 -5.4,0 0,-3.2 0.4,0 0,2.8 5.5,0 0,0.3 z"
         id="path1095"
         style="fill:#ffffff" />
      <path
         class="st7"
         d="m 993.4,187 -1.8,0 0,-0.4 2.2,0 0,4.6 -0.4,0 0,-4.2 z"
         id="path1097"
         style="fill:#ffffff" />
      <path
         class="st7"
         d="m 999.1,194.6 c 0.5,0 1,-0.1 1.4,-0.4 0.4,-0.2 0.7,-0.5 1,-0.9 0.2,-0.4 0.3,-0.8 0.3,-1.2 l 0,-5.1 -5.5,0 0,-0.4 5.9,0 0,5.6 c 0,0.6 -0.1,1.1 -0.4,1.5 -0.3,0.4 -0.6,0.8 -1.1,1 -0.5,0.2 -1,0.4 -1.7,0.4 l 0,-0.5 z m -2.5,-3 c 0,-0.4 0,-0.7 0.1,-1 0.1,-0.3 0.1,-0.5 0.2,-0.8 l 0.4,0 c -0.1,0.2 -0.1,0.5 -0.2,0.8 0,0.3 0,0.6 0,1 l 0,6.4 -0.4,0 0,-6.4 z"
         id="path1099"
         style="fill:#ffffff" />
      <path
         class="st7"
         d="m 1005.1,186.6 2.7,0 c 1.1,0 2,0.3 2.5,0.8 0.5,0.5 0.8,1.4 0.8,2.5 l 0,5.2 -0.4,0 0,-5.2 c 0,-0.7 -0.1,-1.3 -0.3,-1.7 -0.2,-0.4 -0.5,-0.7 -0.9,-0.9 -0.4,-0.2 -1,-0.3 -1.7,-0.3 l -2.3,0 0,8.1 -0.4,0 0,-8.5 z"
         id="path1101"
         style="fill:#ffffff" />
      <path
         class="st7"
         d="m 1014.2,194.1 c 0.5,0.2 1,0.4 1.6,0.5 0.6,0.1 1.1,0.2 1.6,0.2 0.7,0 1.4,-0.1 1.9,-0.3 0.6,-0.2 1,-0.5 1.4,-0.9 0.3,-0.4 0.5,-0.9 0.5,-1.5 l 0,-5.4 0.4,0 0,5.4 c 0,0.7 -0.2,1.3 -0.6,1.8 -0.4,0.5 -0.9,0.8 -1.5,1.1 -0.6,0.2 -1.4,0.4 -2.2,0.4 -0.6,0 -1.2,-0.1 -1.9,-0.2 -0.6,-0.1 -1.2,-0.4 -1.8,-0.6 l 0,-7.8 0.4,0 0,7.3 z m 3.1,-1.7 c 0.1,-0.3 0.2,-0.7 0.2,-1.2 l 0,-4.6 0.4,0 0,4.6 c 0,0.5 -0.1,0.9 -0.2,1.2 -0.1,0.3 -0.3,0.6 -0.7,0.9 l -0.4,-0.1 c 0.4,-0.3 0.6,-0.5 0.7,-0.8 z"
         id="path1103"
         style="fill:#ffffff" />
      <path
         class="st7"
         d="m 1025.2,189 c 0.1,-0.4 0.2,-0.8 0.4,-1.2 0.2,-0.4 0.4,-0.6 0.7,-0.8 0,0 0.1,-0.1 0.2,-0.1 l 0,0 c -0.3,0 -0.6,0.1 -0.9,0.2 -0.3,0.1 -0.8,0.2 -1.3,0.4 l -0.1,-0.4 c 0.6,-0.2 1.2,-0.3 1.8,-0.5 0.7,-0.1 1.2,-0.2 1.7,-0.2 1,0 1.8,0.3 2.3,0.8 0.5,0.6 0.8,1.4 0.8,2.4 l 0,5.3 -3.3,0 0,-0.4 2.8,0 0,-4.9 c 0,-0.9 -0.2,-1.7 -0.7,-2.1 -0.5,-0.4 -1.1,-0.7 -2,-0.7 -0.4,0 -0.7,0.1 -1,0.3 -0.3,0.2 -0.5,0.4 -0.7,0.8 -0.2,0.3 -0.3,0.7 -0.4,1.1 l -0.8,6 -0.4,0 0.9,-6 z"
         id="path1105"
         style="fill:#ffffff" />
    </g>
  </g>
</svg>
