<?xml version="1.0" encoding="UTF-8" standalone="no"?>
<svg
   xmlns:dc="http://purl.org/dc/elements/1.1/"
   xmlns:cc="http://creativecommons.org/ns#"
   xmlns:rdf="http://www.w3.org/1999/02/22-rdf-syntax-ns#"
   xmlns:svg="http://www.w3.org/2000/svg"
   xmlns="http://www.w3.org/2000/svg"
   width="135.08"
   height="98.040001"
   viewBox="0 0 135.08001 98.040003"
   id="svg3823"
   version="1.1">
  <defs
     id="defs3825" />
  <metadata
     id="metadata3828">
    <rdf:RDF>
      <cc:Work
         rdf:about="">
        <dc:format>image/svg+xml</dc:format>
        <dc:type
           rdf:resource="http://purl.org/dc/dcmitype/StillImage" />
        <dc:title></dc:title>
      </cc:Work>
    </rdf:RDF>
  </metadata>
  <g
     id="layer1"
     transform="translate(-249.07429,-423.34221)">
    <polygon
       class="st943"
       points="1110.32,399.29 1053.05,496.9 1120.59,468.23 "
       id="polygon7226"
       style="fill:#b48e59"
       transform="translate(-736.43571,24.482205)" />
    <polygon
       class="st958"
       points="1003.71,469.24 1007.22,401.5 1110.32,398.86 1120.59,468.23 "
       id="polygon7228"
       style="fill:#804029;fill-opacity:1"
       transform="translate(-736.43571,24.482205)" />
    <g
       id="g7260"
       transform="translate(-736.43571,24.482205)">
      <path
         class="st959"
         d="m 1027.01,415.45 15.02,0 0,17.61 -15.02,0 0,-17.61 z m 10.41,14 0,-10.43 -5.8,0 0,10.43 5.8,0 z"
         id="path7262"
         style="fill:#f1f2f2" />
      <path
         class="st959"
         d="m 1060.53,418.4 -5.83,14.66 -4.88,0 5.76,-14.02 -9.44,0 0,-8.53 4.61,0 0,4.95 9.78,0 0,2.94 z"
         id="path7264"
         style="fill:#f1f2f2" />
      <path
         class="st959"
         d="m 1064.96,419.03 -1.54,0 0,-3.58 6.15,0 0,17.61 -4.61,0 0,-14.03 z"
         id="path7266"
         style="fill:#f1f2f2" />
      <path
         class="st959"
         d="m 1086.52,425.64 5.14,7.42 -5.14,0 -6.55,-9.46 c -0.33,0.43 -0.5,0.98 -0.5,1.65 l 0,7.81 -4.45,0 0,-5.83 c 0,-1.63 0.25,-2.93 0.75,-3.91 0.5,-0.98 1.31,-1.74 2.42,-2.28 l -3.89,-5.6 5.15,0 4.24,6.12 2.97,-6.12 5.17,0 -5.31,10.2 z"
         id="path7268"
         style="fill:#f1f2f2" />
      <path
         class="st959"
         d="m 1025.38,441.08 -2.76,0 0,-3.58 7.37,0 0,10.04 -4.61,0 0,-6.46 z"
         id="path7270"
         style="fill:#f1f2f2" />
      <path
         class="st959"
         d="m 1039.81,450.86 c 0.85,0.36 1.76,0.65 2.72,0.87 0.96,0.22 1.86,0.32 2.68,0.32 2.12,0 3.81,-0.45 5.07,-1.36 1.25,-0.91 1.88,-2.27 1.88,-4.1 l 0,-9.09 4.45,0 0,9.6 c 0,1.85 -0.5,3.42 -1.49,4.7 -0.99,1.28 -2.33,2.24 -4.02,2.89 -1.69,0.65 -3.58,0.96 -5.69,0.96 -1.63,0 -3.33,-0.2 -5.07,-0.59 -1.75,-0.39 -3.4,-0.96 -4.97,-1.72 l 0,-15.84 4.45,0 0,13.36 z m 3.71,-2.94 c 0.1,-0.69 0.15,-1.44 0.15,-2.25 l 0,-8.16 4.46,0 0,7.2 c 0,1 -0.12,1.93 -0.34,2.8 -0.23,0.87 -0.55,1.54 -0.96,2.02 l -3.75,-0.01 c 0.19,-0.39 0.33,-0.91 0.44,-1.6 z"
         id="path7272"
         style="fill:#f1f2f2" />
      <path
         class="st959"
         d="m 1073.57,447.69 5.14,7.42 -5.14,0 -6.55,-9.46 c -0.33,0.43 -0.5,0.98 -0.5,1.65 l 0,7.81 -4.45,0 0,-5.83 c 0,-1.63 0.25,-2.93 0.75,-3.91 0.5,-0.98 1.31,-1.74 2.42,-2.28 l -3.89,-5.6 5.15,0 4.24,6.12 2.97,-6.12 5.17,0 -5.31,10.2 z"
         id="path7274"
         style="fill:#f1f2f2" />
      <path
         class="st959"
         d="m 1089.11,443.48 c 0,-0.78 -0.22,-1.38 -0.66,-1.78 -0.44,-0.41 -1.08,-0.61 -1.91,-0.61 l -5.3,0 0,-3.58 5.64,0 c 1.42,0 2.64,0.25 3.67,0.74 1.03,0.49 1.81,1.21 2.36,2.14 0.54,0.93 0.82,2.04 0.82,3.33 l 0,11.4 -4.61,0 0,-11.64 z"
         id="path7276"
         style="fill:#f1f2f2" />
    </g>
  </g>
</svg>
