<?xml version="1.0" encoding="UTF-8" standalone="no"?>
<svg
   xmlns:dc="http://purl.org/dc/elements/1.1/"
   xmlns:cc="http://creativecommons.org/ns#"
   xmlns:rdf="http://www.w3.org/1999/02/22-rdf-syntax-ns#"
   xmlns:svg="http://www.w3.org/2000/svg"
   xmlns="http://www.w3.org/2000/svg"
   version="1.1"
   id="svg9313"
   viewBox="0 0 148.4 100.11"
   height="100.11"
   width="148.39999">
  <defs
     id="defs9315" />
  <metadata
     id="metadata9318">
    <rdf:RDF>
      <cc:Work
         rdf:about="">
        <dc:format>image/svg+xml</dc:format>
        <dc:type
           rdf:resource="http://purl.org/dc/dcmitype/StillImage" />
        <dc:title></dc:title>
      </cc:Work>
    </rdf:RDF>
  </metadata>
  <g
     transform="translate(-245.96143,-385.1643)"
     id="layer1">
    <polygon
       class="st943"
       points="-658.18,1891.03 -732.38,1952.86 -704.41,1991.14 "
       id="polygon7627"
       style="fill:#b48e59"
       transform="translate(978.34143,-1505.8657)" />
    <polygon
       class="st944"
       points="-653.24,1943.9 -647.16,1974.31 -704.41,1991.14 -732.08,1952.03 "
       id="polygon7629"
       style="fill:#d68a2a;fill-opacity:1"
       transform="translate(978.34143,-1505.8657)" />
    <g
       id="g7825"
       transform="translate(978.34143,-1505.8657)">
      <path
         class="st946"
         d="m -697.34,1957.99 c 0,-0.34 -0.1,-0.6 -0.29,-0.79 -0.19,-0.19 -0.47,-0.28 -0.83,-0.28 l -2.21,0 0,-1.17 2.3,0 c 0.52,0 0.97,0.09 1.35,0.28 0.38,0.19 0.67,0.45 0.87,0.8 0.2,0.35 0.3,0.77 0.3,1.25 l 0,4.63 -1.49,0 0,-4.72 z"
         id="path7827"
         style="fill:#ffffff" />
      <path
         class="st946"
         d="m -688.82,1961.6 0,1.12 -5.87,0 0,-1.17 3.56,0 0,-3.27 c 0,-0.47 -0.11,-0.81 -0.34,-1.03 -0.23,-0.22 -0.58,-0.33 -1.06,-0.33 l -1.79,0 0,-1.17 1.88,0 c 0.9,0 1.59,0.22 2.07,0.67 0.48,0.45 0.72,1.08 0.72,1.92 l 0,3.16 0.83,0.1 z"
         id="path7829"
         style="fill:#ffffff" />
      <path
         class="st946"
         d="m -682.34,1955.75 0,4.08 c 0,0.65 -0.14,1.21 -0.41,1.66 -0.27,0.45 -0.65,0.8 -1.14,1.03 -0.49,0.23 -1.06,0.35 -1.71,0.35 -0.86,0 -1.74,-0.17 -2.63,-0.5 l 0.33,-1.1 c 0.64,0.24 1.21,0.39 1.72,0.45 -0.14,-0.14 -0.26,-0.3 -0.37,-0.49 -0.11,-0.19 -0.18,-0.38 -0.23,-0.59 l -1.11,-4.9 1.49,0 1.07,5.02 c 0.08,0.36 0.18,0.65 0.3,0.87 0.38,-0.12 0.68,-0.33 0.89,-0.62 0.21,-0.29 0.31,-0.67 0.31,-1.13 l 0,-4.14 1.49,0 z"
         id="path7831"
         style="fill:#ffffff" />
      <path
         class="st946"
         d="m -679.89,1958.55 c 0.04,-0.32 0.12,-0.62 0.25,-0.9 0.13,-0.28 0.28,-0.5 0.46,-0.67 0.03,-0.03 0.06,-0.05 0.1,-0.08 l -0.01,-0.02 c -0.16,0.03 -0.36,0.07 -0.6,0.14 -0.24,0.07 -0.45,0.13 -0.63,0.2 l -0.33,-1.09 c 0.45,-0.16 0.97,-0.3 1.56,-0.4 0.59,-0.1 1.13,-0.15 1.64,-0.15 1,0 1.77,0.26 2.29,0.78 0.52,0.52 0.79,1.29 0.79,2.3 l 0,4.04 -2.96,0 0,-1.17 1.48,0 0,-3.06 c 0,-0.54 -0.12,-0.95 -0.35,-1.24 -0.23,-0.29 -0.56,-0.43 -0.99,-0.43 -0.35,0 -0.64,0.14 -0.86,0.41 -0.22,0.27 -0.36,0.66 -0.41,1.15 l -0.46,4.34 -1.47,0 0.5,-4.15 z"
         id="path7833"
         style="fill:#ffffff" />
      <path
         class="st946"
         d="m -696.52,1975.64 c 0.36,0.15 0.73,0.27 1.13,0.36 0.4,0.09 0.77,0.13 1.13,0.13 0.56,0 1.05,-0.08 1.48,-0.24 0.43,-0.16 0.76,-0.4 1,-0.73 0.24,-0.33 0.36,-0.73 0.36,-1.23 l 0,-3.79 1.44,0 0,3.95 c 0,0.7 -0.19,1.28 -0.56,1.77 -0.37,0.49 -0.88,0.84 -1.52,1.08 -0.64,0.24 -1.35,0.36 -2.14,0.36 -0.61,0 -1.25,-0.07 -1.9,-0.22 -0.65,-0.15 -1.27,-0.36 -1.86,-0.64 l 0,-6.3 1.44,0 0,5.5 z m 1.72,-1.24 c 0.06,-0.27 0.09,-0.58 0.09,-0.92 l 0,-3.33 1.44,0 0,3.04 c 0,0.4 -0.05,0.76 -0.14,1.08 -0.09,0.32 -0.23,0.58 -0.41,0.78 l -1.22,-0.02 c 0.1,-0.15 0.18,-0.36 0.24,-0.63 z"
         id="path7835"
         style="fill:#ffffff" />
      <path
         class="st946"
         d="m -687.49,1971.31 -1.18,0 0,-1.17 2.67,0 0,3.93 -1.49,0 0,-2.76 z"
         id="path7837"
         style="fill:#ffffff" />
      <path
         class="st946"
         d="m -684.99,1977.15 0,-1.35 c 0.13,0.02 0.29,0.04 0.46,0.04 0.49,-0.01 0.9,-0.15 1.22,-0.4 0.32,-0.25 0.54,-0.6 0.67,-1.04 l 0,-3.08 -1.55,0 0,-1.17 3.01,0 0,3.56 c 0,0.37 0.04,0.73 0.11,1.1 l 0.48,2.31 -1.38,0 -0.41,-1.85 -0.04,0 c -0.05,0.35 -0.18,0.67 -0.39,0.96 -0.21,0.29 -0.46,0.52 -0.78,0.7 -0.32,0.18 -0.66,0.26 -1.03,0.26 -0.15,-0.01 -0.27,-0.02 -0.37,-0.04 z"
         id="path7839"
         style="fill:#ffffff" />
      <path
         class="st946"
         d="m -679.11,1977.2 c -0.19,-0.02 -0.4,-0.06 -0.64,-0.11 l 0.02,-1.13 c 0.27,0.04 0.55,0.06 0.86,0.06 0.29,0 0.51,-0.08 0.66,-0.25 0.15,-0.17 0.22,-0.42 0.22,-0.76 l 0,-3.7 -1.29,0 0,-1.17 2.77,0 0,4.98 c 0,0.67 -0.17,1.19 -0.52,1.55 -0.35,0.36 -0.84,0.55 -1.47,0.55 -0.22,0.01 -0.42,0 -0.61,-0.02 z"
         id="path7841"
         style="fill:#ffffff" />
    </g>
  </g>
</svg>
