<?xml version="1.0" encoding="UTF-8" standalone="no"?>
<svg
   xmlns:dc="http://purl.org/dc/elements/1.1/"
   xmlns:cc="http://creativecommons.org/ns#"
   xmlns:rdf="http://www.w3.org/1999/02/22-rdf-syntax-ns#"
   xmlns:svg="http://www.w3.org/2000/svg"
   xmlns="http://www.w3.org/2000/svg"
   xmlns:xlink="http://www.w3.org/1999/xlink"
   xml:space="preserve"
   enable-background="new 0 0 841.889 1190.549"
   viewBox="0 0 848.39504 502.86403"
   height="502.86401"
   width="848.39502"
   y="0px"
   x="0px"
   id="Layer_1"
   version="1.1"><metadata
     id="metadata1010"><rdf:RDF><cc:Work
         rdf:about=""><dc:format>image/svg+xml</dc:format><dc:type
           rdf:resource="http://purl.org/dc/dcmitype/StillImage" /><dc:title></dc:title></cc:Work></rdf:RDF></metadata><defs
     id="defs1008" /><polygon
     transform="translate(4.539,-343.69199)"
     style="fill:#fede9c"
     points="558.385,473.643 424.953,427.955 204.383,530.223 286.076,573.641 "
     id="polygon495_1_" /><polygon
     transform="translate(4.539,-343.69199)"
     style="fill:#ffffff"
     points="429.795,435.671 203.324,533.4 203.324,514.641 429.795,417.215 "
     id="polygon497_1_" /><polygon
     transform="translate(4.539,-343.69199)"
     style="fill:none;stroke:#141132;stroke-width:0.23999999"
     points="429.795,435.671 203.324,533.4 203.324,514.641 429.795,417.215 "
     id="polygon499_1_" /><polygon
     transform="translate(4.539,-343.69199)"
     style="fill:#ffffff"
     points="415.12,510.556 346.135,472.584 346.135,452.917 427.072,495.731 "
     id="polygon501_1_" /><polygon
     transform="translate(4.539,-343.69199)"
     style="fill:none;stroke:#141132;stroke-width:0.23999999"
     points="415.12,510.556 346.135,472.584 346.135,452.917 427.072,495.731 "
     id="polygon503_1_" /><polygon
     transform="translate(4.539,-343.69199)"
     style="fill:#ffffff"
     points="553.241,473.643 429.795,435.671 429.795,417.215 553.241,456.094 "
     id="polygon505_1_" /><polygon
     transform="translate(4.539,-343.69199)"
     style="fill:none;stroke:#141132;stroke-width:0.23999999"
     points="553.241,473.643 429.795,435.671 429.795,417.215 553.241,456.094 "
     id="polygon507_1_" /><polygon
     transform="translate(4.539,-343.69199)"
     style="fill:#fede9c"
     points="514.059,483.628 383.805,525.836 384.561,522.205 271.553,559.42 207.258,531.131 153.249,556.243 108.621,540.813 17.246,579.693 57.942,610.705 93.191,595.275 127.834,612.823 102.721,637.937 496.813,827.192 571.547,776.965 509.823,751.247 675.478,629.314 827.821,543.838 625.252,443.537 534.18,475.61 "
     id="polygon509_1_" /><polygon
     transform="translate(4.539,-343.69199)"
     style="fill:#ffffff"
     points="121.782,616.606 93.191,601.931 93.191,595.275 123.749,610.251 "
     id="polygon511_1_" /><polygon
     transform="translate(4.539,-343.69199)"
     style="fill:none;stroke:#141132;stroke-width:0.23999999"
     points="121.782,616.606 93.191,601.931 93.191,595.275 123.749,610.251 "
     id="polygon513_1_" /><polygon
     transform="translate(4.539,-343.69199)"
     style="fill:#fd4d69"
     points="590.003,491.797 460.656,524.474 300.145,561.538 503.016,659.721 633.724,591.19 699.23,541.57 "
     id="polygon515_1_" /><polygon
     transform="translate(4.539,-343.69199)"
     style="fill:#ffffff"
     points="108.621,624.926 83.811,611.462 83.811,605.259 108.621,616.606 "
     id="polygon517_1_" /><polygon
     transform="translate(4.539,-343.69199)"
     style="fill:none;stroke:#141132;stroke-width:0.23999999"
     points="108.621,624.926 83.811,611.462 83.811,605.259 108.621,616.606 "
     id="polygon519_1_" /><polygon
     transform="translate(4.539,-343.69199)"
     style="fill:#ffffff"
     points="100.906,635.819 75.188,622.052 75.188,614.942 100.906,628.406 "
     id="polygon521_1_" /><polygon
     transform="translate(4.539,-343.69199)"
     style="fill:none;stroke:#141132;stroke-width:0.23999999"
     points="100.906,635.819 75.188,622.052 75.188,614.942 100.906,628.406 "
     id="polygon523_1_" /><polyline
     transform="translate(4.539,-343.69199)"
     style="fill:#ffffff"
     points="443.562,785.286 491.215,748.222 491.366,771.066 500.746,764.107   500.444,741.112 655.358,620.69 828.576,522.205 827.821,543.838 659.14,645.652 500.746,764.107 490.308,771.822 443.562,806.919   "
     id="polyline525_1_" /><g
     transform="translate(62.670428,-108.64275)"
     id="g527_1_"><g
       id="g563"><g
         id="g565"><g
           id="g567"><defs
             id="defs569"><rect
               height="1751.1"
               width="838.10699"
               y="121.576"
               x="-67.462997"
               id="SVGID_59_" /></defs><clipPath
             id="SVGID_60_"><use
               height="100%"
               width="100%"
               y="0"
               x="0"
               style="overflow:visible"
               id="use573"
               overflow="visible"
               xlink:href="#SVGID_59_" /></clipPath><polyline
             style="fill:none;stroke:#141132;stroke-width:0.23999999"
             points="      385.477,550.311 433.132,513.247 433.283,536.091 442.663,529.132 442.36,506.137 597.273,385.716 770.493,287.23       769.736,308.864 601.055,410.678 442.663,529.132 432.224,536.847 385.477,571.945     "
             clip-path="url(#SVGID_60_)"
             id="polyline535_1_" /></g></g></g></g><polygon
     transform="translate(4.539,-343.69199)"
     style="fill:#ffffff"
     points="510.126,757.148 572,779.537 572,762.744 509.369,739.448 "
     id="polygon537_1_" /><polygon
     transform="translate(4.539,-343.69199)"
     style="fill:none;stroke:#141132;stroke-width:0.23999999"
     points="510.126,757.148 572,779.537 572,762.744 509.369,739.448 "
     id="polygon539_1_" /><polygon
     transform="translate(4.539,-343.69199)"
     style="fill:#ffffff"
     points="497.115,830.974 496.964,811.61 571.849,763.198 571.849,779.991 "
     id="polygon541_1_" /><polygon
     transform="translate(4.539,-343.69199)"
     style="fill:none;stroke:#141132;stroke-width:0.23999999"
     points="497.115,830.974 496.964,811.61 571.849,763.198 571.849,779.991 "
     id="polygon543_1_" /><polygon
     transform="translate(4.539,-343.69199)"
     style="fill:#ffffff"
     points="426.164,643.533 409.674,649.131 329.343,612.672 375.332,599.057 "
     id="polygon545_1_" /><polygon
     transform="translate(4.539,-343.69199)"
     style="fill:none;stroke:#141132;stroke-width:0.47999999"
     points="426.164,643.533 409.674,649.131 329.343,612.672 375.332,599.057 "
     id="polygon547_1_" /><polygon
     transform="translate(4.539,-343.69199)"
     style="fill:#ffffff"
     points="589.852,492.403 589.852,470.769 300.296,550.797 300.296,571.674 "
     id="polygon549_1_" /><polygon
     transform="translate(4.539,-343.69199)"
     style="fill:none;stroke:#141132;stroke-width:0.23999999"
     points="589.852,492.403 589.852,470.769 300.296,550.797 300.296,571.674 "
     id="polygon551_1_" /><polygon
     transform="translate(4.539,-343.69199)"
     style="fill:#ffffff"
     points="114.823,620.69 83.659,605.259 93.191,601.931 121.782,616.606 "
     id="polygon553_1_" /><polygon
     transform="translate(4.539,-343.69199)"
     style="fill:none;stroke:#141132;stroke-width:0.23999999"
     points="114.823,620.69 83.659,605.259 93.191,601.931 121.782,616.606 "
     id="polygon555_1_" /><polygon
     transform="translate(4.539,-343.69199)"
     style="fill:#ffffff"
     points="102.872,629.767 75.188,614.942 83.811,611.462 108.621,624.926 "
     id="polygon557_1_" /><polygon
     transform="translate(4.539,-343.69199)"
     style="fill:none;stroke:#141132;stroke-width:0.23999999"
     points="102.872,629.767 75.188,614.942 83.811,611.462 108.621,624.926 "
     id="polygon559_1_" /><polygon
     transform="translate(4.539,-343.69199)"
     style="fill:#ffffff"
     points="431.156,641.568 422.987,644.29 354.305,612.975 361.566,609.949 "
     id="polygon561_1_" /><polygon
     transform="translate(4.539,-343.69199)"
     style="fill:none;stroke:#141132;stroke-width:0.47999999"
     points="431.156,641.568 422.987,644.29 354.305,612.975 361.566,609.949 "
     id="polygon563_1_" /><polygon
     transform="translate(4.539,-343.69199)"
     style="fill:#ffffff"
     points="416.33,646.711 423.441,644.29 351.279,611.311 343.261,613.882 "
     id="polygon565_1_" /><polygon
     transform="translate(4.539,-343.69199)"
     style="fill:none;stroke:#141132;stroke-width:0.47999999"
     points="416.33,646.711 423.441,644.29 351.279,611.311 343.261,613.882 "
     id="polygon567_1_" /><polygon
     transform="translate(4.539,-343.69199)"
     style="fill:#ffffff"
     points="698.624,545.049 698.624,521.297 589.549,470.617 589.549,492.553 "
     id="polygon569_1_" /><polygon
     transform="translate(4.539,-343.69199)"
     style="fill:none;stroke:#141132;stroke-width:0.47999999"
     points="698.624,545.049 698.624,521.297 589.549,470.617 589.549,492.553 "
     id="polygon571_1_" /><polygon
     transform="translate(4.539,-343.69199)"
     style="fill:#99ad63"
     points="465.346,644.896 451.731,650.191 366.256,611.311 373.215,607.377 "
     id="polygon573_1_" /><polygon
     transform="translate(4.539,-343.69199)"
     style="fill:#ffffff"
     points="409.22,649.282 416.179,646.711 340.235,611.765 332.671,614.185 "
     id="polygon575_1_" /><polygon
     transform="translate(4.539,-343.69199)"
     style="fill:none;stroke:#141132;stroke-width:0.47999999"
     points="409.22,649.282 416.179,646.711 340.235,611.765 332.671,614.185 "
     id="polygon577_1_" /><polygon
     transform="translate(4.539,-343.69199)"
     style="fill:#ffffff"
     points="116.336,624.926 99.544,616.606 139.483,597.997 139.937,614.185 "
     id="polygon579_1_" /><polygon
     transform="translate(4.539,-343.69199)"
     style="fill:none;stroke:#141132;stroke-width:0.23999999"
     points="116.336,624.926 99.544,616.606 139.483,597.997 139.937,614.185 "
     id="polygon581_1_" /><polygon
     transform="translate(4.539,-343.69199)"
     style="fill:#ffffff"
     points="503.016,670.462 503.016,648.98 300.145,550.797 300.145,571.674 "
     id="polygon583_1_" /><polygon
     transform="translate(4.539,-343.69199)"
     style="fill:none;stroke:#141132;stroke-width:0.23999999"
     points="503.016,670.462 503.016,648.98 300.145,550.797 300.145,571.674 "
     id="polygon585_1_" /><polygon
     transform="translate(4.539,-343.69199)"
     style="fill:#ffffff"
     points="496.813,830.974 496.813,811.911 99.544,616.606 99.544,638.995 "
     id="polygon587_1_" /><polygon
     transform="translate(4.539,-343.69199)"
     style="fill:none;stroke:#141132;stroke-width:0.23999999"
     points="496.813,830.974 496.813,811.911 99.544,616.606 99.544,638.995 "
     id="polygon589_1_" /><polygon
     transform="translate(4.539,-343.69199)"
     style="fill:#ffffff"
     points="730.394,531.131 730.394,511.161 620.411,458.364 620.411,477.728 "
     id="polygon591_1_" /><polygon
     transform="translate(4.539,-343.69199)"
     style="fill:none;stroke:#141132;stroke-width:0.23999999"
     points="730.394,531.131 730.394,511.161 620.411,458.364 620.411,477.728 "
     id="polygon593_1_" /><polygon
     transform="translate(4.539,-343.69199)"
     style="fill:#ffffff"
     points="763.827,514.187 763.827,494.823 623.891,425.233 623.891,443.387 "
     id="polygon595_1_" /><polygon
     transform="translate(4.539,-343.69199)"
     style="fill:none;stroke:#141132;stroke-width:0.23999999"
     points="763.827,514.187 763.827,494.823 623.891,425.233 623.891,443.387 "
     id="polygon597_1_" /><polygon
     transform="translate(4.539,-343.69199)"
     style="fill:#ffffff"
     points="144.323,560.328 108.621,540.813 108.621,525.231 144.323,542.628 "
     id="polygon599_1_" /><polygon
     transform="translate(4.539,-343.69199)"
     style="fill:none;stroke:#141132;stroke-width:0.23999999"
     points="144.323,560.328 108.621,540.813 108.621,525.231 144.323,542.628 "
     id="polygon601_1_" /><polygon
     transform="translate(4.539,-343.69199)"
     style="fill:#ffffff"
     points="503.016,648.98 633.724,573.944 699.23,521.146 699.23,545.654 633.724,596.485 503.016,670.462 "
     id="polygon603_1_" /><polygon
     transform="translate(4.539,-343.69199)"
     style="fill:none;stroke:#141132;stroke-width:0.23999999"
     points="503.016,648.98 633.724,573.944 699.23,521.146 699.23,545.654 633.724,596.485 503.016,670.462 "
     id="polygon605_1_" /><polygon
     transform="translate(4.539,-343.69199)"
     style="fill:#ffffff"
     points="763.827,514.035 730.394,531.131 730.394,511.161 763.827,494.823 "
     id="polygon607_1_" /><polygon
     transform="translate(4.539,-343.69199)"
     style="fill:none;stroke:#141132;stroke-width:0.23999999"
     points="763.827,514.035 730.394,531.131 730.394,511.161 763.827,494.823 "
     id="polygon609_1_" /><polygon
     transform="translate(4.539,-343.69199)"
     style="fill:#ffffff"
     points="709.063,485.594 693.178,493.764 677.899,485.897 709.668,468.045 "
     id="polygon611_1_" /><polygon
     transform="translate(4.539,-343.69199)"
     style="fill:none;stroke:#141132;stroke-width:0.23999999"
     points="709.063,485.594 693.178,493.764 677.899,485.897 709.668,468.045 "
     id="polygon613_1_" /><polygon
     transform="translate(4.539,-343.69199)"
     style="fill:#ffffff"
     points="638.263,466.987 620.411,458.364 655.358,441.269 655.358,458.364 "
     id="polygon615_1_" /><polygon
     transform="translate(4.539,-343.69199)"
     style="fill:none;stroke:#141132;stroke-width:0.23999999"
     points="638.263,466.987 620.411,458.364 655.358,441.269 655.358,458.364 "
     id="polygon617_1_" /><polyline
     transform="translate(4.539,-343.69199)"
     style="fill:#ffffff"
     points="204.837,532.644 83.811,588.467 83.811,571.221 204.837,514.035 "
     id="polyline619_1_" /><polyline
     transform="translate(4.539,-343.69199)"
     style="fill:none;stroke:#141132;stroke-width:0.23999999"
     points="204.837,532.644 83.811,588.467   83.811,571.221 204.837,514.035 "
     id="polyline621_1_" /><polygon
     transform="translate(4.539,-343.69199)"
     style="fill:#ffffff"
     points="45.688,605.259 45.688,588.467 64.598,579.693 64.598,596.939 "
     id="polygon623_1_" /><polygon
     transform="translate(4.539,-343.69199)"
     style="fill:none;stroke:#141132;stroke-width:0.23999999"
     points="45.688,605.259 45.688,588.467 64.598,579.693 64.598,596.939 "
     id="polygon625_1_" /><polygon
     transform="translate(4.539,-343.69199)"
     style="fill:#ffffff"
     points="108.621,540.813 17.246,579.693 17.246,565.169 108.621,525.231 "
     id="polygon627_1_" /><polygon
     transform="translate(4.539,-343.69199)"
     style="fill:none;stroke:#141132;stroke-width:0.23999999"
     points="108.621,540.813 17.246,579.693 17.246,565.169 108.621,525.231 "
     id="polygon629_1_" /><polygon
     transform="translate(4.539,-343.69199)"
     style="fill:#ffffff"
     points="45.688,605.259 17.246,582.415 17.246,565.169 45.688,588.467 "
     id="polygon631_1_" /><polygon
     transform="translate(4.539,-343.69199)"
     style="fill:none;stroke:#141132;stroke-width:0.23999999"
     points="45.688,605.259 17.246,582.415 17.246,565.169 45.688,588.467 "
     id="polygon633_1_" /><polygon
     transform="translate(4.539,-343.69199)"
     style="fill:#fd4d69"
     points="422.835,640.508 441.141,634.91 336.453,584.533 320.266,588.921 "
     id="polygon635_1_" /><g
     transform="translate(62.670428,-108.64275)"
     id="g637_1_"><g
       id="g627"><g
         id="g629"><g
           id="g631"><defs
             id="defs633"><rect
               height="1751.1"
               width="838.10699"
               y="121.576"
               x="-67.462997"
               id="SVGID_61_" /></defs><clipPath
             id="SVGID_62_"><use
               height="100%"
               width="100%"
               y="0"
               x="0"
               style="overflow:visible"
               id="use637"
               overflow="visible"
               xlink:href="#SVGID_61_" /></clipPath><path
             style="fill:#fd4d69"
             d="M 479.424,409.315 444.78,426.562 C 424.962,416.728 370.046,393.43 370.046,393.43 l -5.446,6.808 67.321,35.098 -42.359,17.549 12.708,4.993 27.836,-11.649 12.405,5.598 55.975,-36.61 -19.062,-5.902 z"
             clip-path="url(#SVGID_62_)"
             id="path645_1_" /></g></g></g></g><polygon
     transform="translate(4.539,-343.69199)"
     style="fill:#ffffff"
     points="492.426,672.732 426.92,638.088 426.466,632.944 492.426,666.227 "
     id="polygon647_1_" /><polygon
     transform="translate(4.539,-343.69199)"
     style="fill:none;stroke:#141132;stroke-width:0.47999999"
     points="492.426,672.732 426.92,638.088 426.466,632.944 492.426,666.227 "
     id="polygon649_1_" /><polygon
     transform="translate(4.539,-343.69199)"
     style="fill:#d29839"
     points="73.675,594.972 66.867,605.562 63.388,603.292 63.539,616.303 76.246,611.159 73.07,609.193 79.726,598.906 "
     id="polygon663_1_" /><polygon
     transform="translate(4.539,-343.69199)"
     style="fill:#fd4d69"
     points="457.328,674.85 425.862,633.852 420.567,637.029 453.395,678.934 "
     id="polygon669_1_" /><g
     transform="translate(62.670428,-108.64275)"
     id="g671_1_"><g
       id="g674"><g
         id="g676"><g
           id="g678"><defs
             id="defs680"><rect
               height="1751.1"
               width="838.10699"
               y="121.576"
               x="-67.462997"
               id="SVGID_67_" /></defs><clipPath
             id="SVGID_68_"><use
               height="100%"
               width="100%"
               y="0"
               x="0"
               style="overflow:visible"
               id="use684"
               overflow="visible"
               xlink:href="#SVGID_67_" /></clipPath><path
             style="fill:#411025"
             d="m 581.087,129.139 0,17.246 -3.479,0 0,-14.371 -2.572,0 0,-2.724 6.052,0 0,-0.151 z m 9.077,0 0,13.313 -3.479,0 0,-10.438 -2.27,0 0,-2.724 5.749,0 0,-0.151 z m 9.53,0 0,4.842 c 0,0.453 0,0.907 0,1.21 0,0.303 0,0.604 0,0.907 0,0.303 0,0.454 -0.151,0.757 0,0.303 -0.151,0.454 -0.151,0.756 l -3.479,-0.453 c 0,-0.303 0.151,-0.454 0.151,-0.757 0,-0.151 0,-0.454 0.151,-0.605 0,-0.302 0,-0.453 0,-0.756 0,-0.303 0,-0.605 0,-1.059 l 0,-1.967 -2.874,0 0,-2.724 6.353,-0.151 0,0 z m 6.203,-3.63 0,3.782 7.261,0 c 0,0.151 0.151,0.303 0.151,0.454 0,0.151 0,0.303 0.151,0.454 0,0.151 0,0.453 0.151,0.604 0,0.151 0,0.454 0,0.605 l 0,2.723 c 0,1.06 -0.151,1.967 -0.604,2.875 -0.454,0.907 -1.06,1.815 -1.815,2.723 l -3.329,3.631 -2.42,-2.118 1.513,-1.664 c 0.605,-0.756 1.059,-1.21 1.513,-1.664 0.454,-0.454 0.757,-0.907 1.059,-1.21 0.303,-0.303 0.454,-0.757 0.605,-1.059 0.151,-0.303 0.151,-0.757 0.151,-1.211 l 0,-2.42 -7.564,0 0,-6.506 3.177,0 0,0.001 z m 18.153,5.9 c 0.151,-0.454 0.303,-0.908 0.454,-1.361 0.151,-0.454 0.303,-0.908 0.454,-1.361 l 4.992,1.361 c 0,0.303 0,0.604 0,0.907 0,0.303 0,0.605 0,0.908 -0.151,0.604 -0.151,1.361 -0.303,1.815 -0.151,0.604 -0.303,1.21 -0.454,1.664 -0.303,0.907 -0.756,1.815 -1.21,2.571 -0.454,0.757 -1.059,1.513 -1.664,1.967 -0.605,0.605 -1.21,1.06 -1.967,1.513 -0.757,0.454 -1.361,0.908 -2.118,1.211 -0.756,0.302 -1.513,0.604 -2.269,0.907 -0.757,0.303 -1.664,0.454 -2.421,0.757 l -0.908,-2.875 c 0.908,-0.302 1.665,-0.453 2.421,-0.756 0.757,-0.303 1.513,-0.454 2.118,-0.757 -0.454,-1.059 -0.757,-2.27 -1.21,-3.328 -0.454,-1.059 -0.757,-2.118 -1.211,-3.328 -0.151,-0.151 -0.151,-0.454 -0.303,-0.605 0,-0.151 -0.15,-0.302 -0.302,-0.302 -0.151,-0.151 -0.151,-0.151 -0.303,-0.303 -0.151,0 -0.303,-0.151 -0.454,-0.151 l -1.513,-0.605 c 0.151,-0.454 0.454,-0.907 0.604,-1.361 0.151,-0.454 0.454,-0.908 0.605,-1.361 0.303,0.151 0.605,0.151 0.757,0.303 0.303,0.15 0.604,0.15 0.756,0.302 0.454,0.151 0.757,0.303 1.06,0.454 0.303,0.151 0.604,0.303 0.756,0.605 0.151,0.151 0.454,0.454 0.454,0.604 0.151,0.151 0.303,0.454 0.303,0.757 0.151,0.454 0.303,0.907 0.454,1.21 0.15,0.454 0.302,0.757 0.453,1.362 0.151,0.453 0.303,1.059 0.605,1.664 0.151,0.604 0.454,1.361 0.756,2.269 0.454,-0.453 0.757,-0.756 1.06,-1.21 0.303,-0.454 0.454,-0.757 0.757,-1.21 0.302,-0.605 0.453,-1.211 0.604,-1.815 0.151,-0.605 0.303,-1.362 0.454,-1.967 l -2.267,-0.455 0,0 z m 24.055,-2.27 c 0.604,0 1.059,0 1.513,0.151 0.453,0.151 0.907,0.303 1.361,0.757 0.454,0.303 0.757,0.756 0.907,1.361 0.303,0.605 0.303,1.361 0.454,2.27 0,0.151 0,0.303 0,0.604 0,0.151 0,0.454 0,0.605 0,0.303 0,0.454 0,0.757 0,0.302 0,0.604 0,1.059 0,0.907 -0.151,1.664 -0.454,2.421 -0.302,0.756 -0.756,1.361 -1.21,1.815 -0.605,0.604 -1.21,0.907 -1.967,1.21 -0.756,0.303 -1.513,0.454 -2.42,0.454 -0.908,0 -1.664,-0.151 -2.421,-0.454 -0.757,-0.303 -1.361,-0.757 -1.815,-1.21 -0.605,-0.605 -0.907,-1.211 -1.21,-1.815 -0.303,-0.757 -0.454,-1.514 -0.454,-2.421 0,-0.151 0,-0.151 0,-0.303 0,-0.152 0,-0.151 0,-0.303 0,-0.453 0,-0.756 0,-1.21 0,-0.454 0.151,-0.908 0.303,-1.361 0.151,-0.303 0.151,-0.605 0.303,-0.908 0.152,-0.303 0.303,-0.604 0.453,-0.907 -0.302,0 -0.756,-0.151 -1.059,-0.151 -0.303,-0.151 -0.757,-0.151 -1.21,-0.454 0.151,-0.454 0.303,-0.907 0.453,-1.361 0.151,-0.454 0.303,-0.908 0.454,-1.361 0.454,0.151 0.757,0.151 1.06,0.303 0.302,0 0.604,0.15 0.756,0.15 0.303,0 0.605,0 0.757,0.151 0.303,0 0.604,0 0.907,0 l 0.454,0 4.085,0.151 0,0 z m -3.48,2.875 c -0.15,0.302 -0.302,0.453 -0.302,0.604 -0.151,0.151 -0.151,0.454 -0.303,0.605 -0.151,0.454 -0.151,0.907 -0.303,1.361 0,0.454 -0.151,0.908 -0.151,1.361 0,0.303 0,0.454 0,0.757 0,0.303 0,0.454 0,0.605 0,0.453 0.151,0.756 0.303,1.059 0.152,0.303 0.303,0.605 0.605,0.757 0.15,0.302 0.453,0.453 0.756,0.604 0.303,0.151 0.605,0.151 0.908,0.151 0.302,0 0.756,0 1.059,-0.151 0.303,-0.151 0.605,-0.303 0.757,-0.604 0.302,-0.303 0.453,-0.454 0.604,-0.757 0.151,-0.303 0.303,-0.605 0.303,-1.059 0,-0.151 0,-0.454 0,-0.605 0,-0.151 0,-0.454 0,-0.757 0,-0.302 0,-0.604 0,-0.756 0,-0.303 0,-0.454 0,-0.757 0,-0.454 -0.151,-0.907 -0.151,-1.361 0,-0.454 -0.151,-0.605 -0.303,-0.757 -0.151,-0.15 -0.303,-0.302 -0.604,-0.453 -0.303,0 -0.757,-0.151 -1.211,-0.151 l -1.967,0 0,0.304 0,0 z m 13.919,-6.505 0,3.782 7.261,0 c 0,0.151 0.151,0.303 0.151,0.454 0,0.151 0,0.303 0.151,0.454 0,0.151 0,0.453 0.151,0.604 0,0.151 0,0.454 0,0.605 l 0,2.723 c 0,1.06 -0.151,1.967 -0.604,2.875 -0.454,0.907 -1.06,1.815 -1.815,2.723 l -3.329,3.631 -2.42,-2.118 1.513,-1.664 c 0.605,-0.756 1.059,-1.21 1.513,-1.664 0.454,-0.454 0.757,-0.907 1.059,-1.21 0.303,-0.303 0.454,-0.757 0.605,-1.059 0.151,-0.303 0.151,-0.757 0.151,-1.211 l 0,-2.42 -7.564,0 0,-6.506 3.177,0 0,0.001 z m 13.615,2.875 c 0.756,0.151 1.513,0.303 2.118,0.453 0.604,0.151 1.21,0.303 1.664,0.454 0.453,0.151 0.907,0.303 1.361,0.454 0.454,0.151 0.907,0.303 1.21,0.454 0.454,0.151 0.757,0.303 1.06,0.604 0.302,0.303 0.453,0.454 0.756,0.757 0.151,0.303 0.303,0.605 0.303,1.059 0,0.454 0.151,0.757 0.151,1.211 l 0,5.144 c 0,0.151 0,0.453 0,0.604 0,0.151 0,0.454 0,0.605 0,0.303 -0.151,0.605 -0.151,0.907 -0.151,0.303 -0.151,0.757 -0.303,1.362 l -11.497,0 0,-2.724 8.774,0 0,-5.295 c 0,-0.303 0,-0.604 0,-0.756 0,-0.152 0,-0.454 -0.151,-0.605 -0.151,-0.151 -0.151,-0.303 -0.303,-0.454 -0.152,-0.151 -0.303,-0.151 -0.605,-0.303 -0.303,-0.15 -0.756,-0.302 -1.059,-0.302 -0.454,-0.151 -0.908,-0.303 -1.361,-0.454 l -1.211,2.421 1.664,1.059 -1.513,2.571 -4.084,-2.42 3.177,-6.806 0,0 z m 11.648,1.815 c 0.454,-0.303 0.908,-0.605 1.361,-0.908 0.454,-0.303 0.908,-0.604 1.362,-0.756 0.15,0.302 0.453,0.453 0.453,0.756 0.151,0.151 0.303,0.454 0.454,0.605 0.151,0.151 0.151,0.303 0.303,0.604 0.151,0.151 0.151,0.303 0.303,0.605 0.756,-0.756 1.513,-1.21 2.269,-1.664 0.757,-0.303 1.514,-0.454 2.27,-0.454 0.605,0 1.06,0.151 1.513,0.303 0.454,0.151 0.908,0.454 1.362,0.757 0.453,0.303 0.756,0.756 1.059,1.059 0.303,0.454 0.454,0.908 0.605,1.513 0.15,0.454 0.15,0.908 0.15,1.513 0,0.605 0,1.211 0,1.967 0,0.303 0,0.605 0,1.06 0,0.302 0,0.756 0,1.361 0,0.604 0,1.21 0,1.664 0,0.605 0,0.907 0,1.361 0,0.151 0,0.454 0,0.605 0,0.151 0,0.454 -0.15,0.604 l -6.657,0 0,-2.723 3.479,0 c 0,0 0,-0.151 0,-0.303 0,-0.152 0,-0.303 0,-0.605 0,-0.302 0,-0.604 0,-1.059 0,-0.455 0,-0.907 0,-1.513 0,-0.151 0,-0.454 0,-0.605 0,-0.303 0,-0.453 0,-0.756 0,-0.303 0,-0.605 0,-0.757 0,-0.303 0,-0.454 0,-0.604 -0.151,-0.757 -0.303,-1.211 -0.604,-1.514 -0.303,-0.302 -0.757,-0.453 -1.362,-0.453 -0.302,0 -0.604,0 -0.907,0.151 -0.303,0.151 -0.605,0.302 -1.059,0.604 -0.151,0.151 -0.454,0.303 -0.605,0.454 -0.151,0.151 -0.303,0.303 -0.605,0.605 -0.151,0.907 -0.303,1.815 -0.303,2.42 -0.151,0.757 -0.151,1.211 -0.302,1.815 -0.151,0.454 -0.151,0.908 -0.151,1.361 0,0.454 -0.151,0.757 -0.151,1.211 0,0.303 -0.151,0.756 -0.151,1.21 0,0.454 -0.151,0.908 -0.151,1.361 l -3.479,0 0.303,-2.269 c 0.151,-0.605 0.151,-1.06 0.303,-1.514 0.151,-0.453 0.151,-0.907 0.302,-1.513 0.151,-0.453 0.151,-0.907 0.303,-1.513 0.151,-0.454 0.151,-1.059 0.303,-1.513 0,-0.151 0,-0.303 0,-0.454 0,-0.151 0,-0.303 0,-0.303 0,-0.302 0,-0.453 0,-0.604 0,-0.151 -0.151,-0.303 -0.151,-0.605 0,-0.151 -0.151,-0.303 -0.303,-0.604 -0.151,-0.151 -0.151,-0.454 -0.302,-0.605 l -1.064,-1.358 0,0 z"
             clip-path="url(#SVGID_68_)"
             id="path679_1_" /></g></g></g></g><path
     style="fill:#411025"
     d="m 679.261,51.58701 0,3.177 c 0,0.303 0,0.605 0,0.908 0,0.303 0,0.454 0,0.605 0,0.15 0,0.453 -0.151,0.604 0,0.151 -0.151,0.454 -0.151,0.605 l -1.664,-0.303 c 0,-0.151 0,-0.454 0.151,-0.605 0,-0.151 0,-0.302 0,-0.453 0,-0.151 0,-0.454 0,-0.605 0,-0.303 0,-0.454 0,-0.908 l 0,-1.664 -2.27,0 0,-1.513 4.085,0.152 0,0 z m 3.328,4.84 c 0,-0.604 -0.151,-1.21 -0.151,-1.513 0,-0.453 0,-0.756 -0.151,-1.059 0,-0.303 -0.151,-0.605 -0.151,-0.908 0,-0.302 -0.151,-0.604 -0.303,-0.907 0.303,-0.151 0.454,-0.303 0.757,-0.303 0.303,-0.151 0.454,-0.151 0.756,-0.303 0.151,0.303 0.303,0.454 0.303,0.757 0.151,0.151 0.151,0.454 0.151,0.756 0,0.303 0.151,0.605 0.151,0.908 0,0.303 0,0.756 0.151,1.21 l 0.454,5.598 c 0.303,0 0.454,0 0.756,0 1.06,0 2.118,-0.151 2.875,-0.454 0.907,-0.303 1.513,-0.756 2.118,-1.513 0.604,-0.604 0.907,-1.361 1.21,-2.27 0.303,-0.907 0.454,-1.815 0.454,-2.874 0,-0.303 0,-0.605 0,-0.907 0,-0.303 0,-0.605 -0.151,-0.908 0.302,0 0.604,-0.151 0.756,-0.151 0.303,0 0.605,-0.151 0.908,-0.151 0,0.303 0.151,0.605 0.151,0.908 0,0.303 0,0.604 0,0.907 0,1.513 -0.151,2.724 -0.605,3.782 -0.454,1.06 -0.908,1.967 -1.664,2.724 -0.757,0.756 -1.664,1.361 -2.724,1.664 -1.059,0.302 -2.269,0.604 -3.63,0.604 -0.303,0 -0.605,0 -1.06,0 -0.303,0 -0.605,0 -1.059,-0.151 l -0.302,-5.446 0,0 z m 6.052,-5.143 c 0.15,0.303 0.15,0.605 0.15,0.908 0,0.151 0,0.454 0,0.605 0,0.15 0,0.453 -0.15,0.604 -0.151,0.303 -0.151,0.605 -0.303,1.06 -0.151,0.302 -0.303,0.604 -0.454,1.059 l -1.06,2.421 -1.513,-0.605 1.06,-2.421 c 0.151,-0.453 0.303,-0.756 0.453,-1.059 0.151,-0.303 0.151,-0.454 0.303,-0.757 0,-0.151 0,-0.453 0,-0.604 0,-0.151 0,-0.454 0,-0.757 l 1.514,-0.454 0,0 z m 7.412,10.741 c 0,-0.151 0,-0.453 0,-0.604 0,-0.303 0,-0.454 0,-0.757 0,-0.303 0,-0.605 0,-0.907 0,-0.303 0,-0.605 0,-0.908 0,-0.454 0,-0.907 0.151,-1.361 0,-0.454 0.151,-0.757 0.303,-1.06 0.151,-0.302 0.303,-0.604 0.454,-0.907 0.151,-0.303 0.303,-0.605 0.604,-0.757 -0.302,-0.302 -0.453,-0.604 -0.604,-0.907 -0.151,-0.303 -0.303,-0.454 -0.454,-0.757 -0.151,-0.302 -0.151,-0.453 -0.303,-0.756 0,-0.303 -0.151,-0.454 -0.151,-0.605 0.303,-0.151 0.454,-0.151 0.757,-0.303 0.303,-0.152 0.604,-0.151 0.907,-0.303 0,0.151 0,0.151 0,0.303 0,0.152 0,0.151 0,0.303 0,0.152 0.151,0.454 0.151,0.605 0.151,0.151 0.151,0.454 0.303,0.756 0.151,0.303 0.303,0.605 0.454,0.908 0.151,0.303 0.453,0.604 0.756,1.059 0.151,0.151 0.151,0.303 0.303,0.454 0.152,0.151 0.151,0.303 0.303,0.454 0.152,0.151 0.303,0.303 0.454,0.604 0.151,0.303 0.454,0.605 0.756,0.908 l 0,0 c 0.303,-0.151 0.454,-0.303 0.605,-0.605 0.151,-0.151 0.303,-0.454 0.454,-0.604 0.151,-0.151 0.151,-0.454 0.303,-0.757 0.15,-0.303 0.15,-0.454 0.302,-0.757 0,-0.302 0.151,-0.453 0.151,-0.756 0,-0.303 0.151,-0.454 0.151,-0.757 l -1.513,-0.303 0.303,-1.361 2.723,0.454 0,1.21 c 0,0.303 -0.151,0.605 -0.302,1.06 -0.151,0.302 -0.151,0.756 -0.303,1.059 -0.151,0.454 -0.303,0.757 -0.303,1.059 -0.151,0.303 -0.303,0.605 -0.454,0.757 -0.151,0.303 -0.303,0.454 -0.454,0.757 -0.151,0.151 -0.453,0.453 -0.756,0.604 l 2.42,2.724 -1.21,1.059 -5.295,-6.051 c -0.151,0.302 -0.303,0.604 -0.453,0.907 -0.151,0.303 -0.151,0.605 -0.151,1.059 0,0.303 0,0.757 0,1.211 0,0.453 0,0.756 0,1.21 0,0.151 0,0.454 0,0.757 0,0.302 0,0.604 0,0.907 l -1.362,0 0,-0.305 0,0 z m 14.221,-8.926 c -0.303,0 -0.605,0 -0.756,0 -0.303,0 -0.454,0 -0.605,0 -0.151,0 -0.454,0 -0.605,-0.151 -0.151,0 -0.453,-0.15 -0.756,-0.302 0.151,-0.303 0.151,-0.454 0.303,-0.757 0.15,-0.303 0.15,-0.454 0.302,-0.757 0.303,0.151 0.454,0.151 0.757,0.151 0.151,0 0.454,0.151 0.605,0.151 0.15,0 0.453,0 0.604,0 0.151,0 0.454,0 0.757,0 l 0.907,0 c 0.454,0 0.757,0 1.211,0.151 0.453,0.151 0.756,0.303 1.059,0.454 0.303,0.303 0.605,0.605 0.757,1.059 0.15,0.454 0.302,1.06 0.302,1.815 l 0,6.808 -1.664,0 0,-6.656 c 0,-0.454 0,-0.756 -0.151,-1.059 0,-0.303 -0.15,-0.454 -0.302,-0.605 -0.152,-0.151 -0.303,-0.303 -0.605,-0.303 -0.302,0 -0.605,-0.151 -0.908,-0.151 l -1.212,0.152 0,0 z m 13.463,3.328 c 0,-0.302 0,-0.604 0,-0.907 0,-0.303 0,-0.605 0,-0.757 0,-0.152 0.151,-0.453 0.151,-0.756 0,-0.303 0.151,-0.605 0.303,-0.908 -0.151,0 -0.453,0 -0.604,-0.151 -0.151,0 -0.454,-0.15 -0.757,-0.302 0.151,-0.303 0.151,-0.454 0.303,-0.757 0.152,-0.303 0.151,-0.454 0.303,-0.757 0.303,0.151 0.453,0.151 0.756,0.151 0.151,0 0.454,0.151 0.605,0.151 0.151,0 0.454,0 0.605,0 0.15,0 0.453,0 0.756,0 l 2.724,0 c 0.453,0 0.756,0 1.21,0.151 0.454,0.151 0.756,0.303 1.059,0.454 0.303,0.303 0.605,0.605 0.757,1.059 0.151,0.454 0.303,1.06 0.303,1.664 l 0,6.809 -8.472,0 -0.002,-5.144 0,0 z m 6.809,-1.21 c 0,-0.454 0,-0.756 -0.151,-1.059 0,-0.303 -0.151,-0.454 -0.303,-0.605 -0.152,-0.151 -0.303,-0.303 -0.605,-0.303 -0.302,0 -0.605,-0.151 -0.907,-0.151 l -2.572,0 c -0.151,0.303 -0.303,0.605 -0.303,0.757 0,0.303 -0.151,0.605 -0.151,0.756 0,0.303 0,0.454 0,0.757 0,0.303 0,0.454 0,0.757 l 0,4.084 5.144,0 0,-4.992 -0.152,0 z m 5.748,-6.504 0,2.874 5.749,0 c 0,0.151 0.151,0.454 0.151,0.605 0,0.151 0,0.303 0.151,0.454 0,0.151 0,0.302 0,0.302 0,0.151 0,0.151 0,0.303 l 0,2.118 c 0,0.757 -0.151,1.513 -0.454,2.27 -0.303,0.756 -0.756,1.361 -1.361,2.118 l -2.421,2.723 -1.21,-1.059 2.27,-2.572 c 0.151,-0.303 0.453,-0.454 0.604,-0.756 0.151,-0.303 0.303,-0.454 0.454,-0.757 0.151,-0.303 0.303,-0.605 0.303,-0.757 0.151,-0.302 0.151,-0.604 0.151,-0.907 l 0,-2.27 -6.052,0 0,-4.387 1.664,0 0,-0.302 10e-4,0 z m 11.801,2.874 0,10.287 -1.665,0 0,-8.774 -1.664,0 0,-1.513 3.329,0 0,0 z m 2.874,10.438 c 0,-0.151 0,-0.453 0,-0.604 0,-0.303 0,-0.454 0,-0.757 0,-0.303 0,-0.605 0,-0.907 0,-0.303 0,-0.605 0,-0.908 0,-0.454 0,-0.907 0.151,-1.361 0,-0.454 0.151,-0.757 0.303,-1.06 0.151,-0.302 0.302,-0.604 0.453,-0.907 0.151,-0.303 0.303,-0.605 0.605,-0.757 -0.303,-0.302 -0.454,-0.604 -0.605,-0.907 -0.151,-0.303 -0.302,-0.454 -0.453,-0.757 -0.151,-0.302 -0.151,-0.453 -0.303,-0.756 0,-0.303 -0.151,-0.454 -0.151,-0.605 0.303,-0.151 0.454,-0.151 0.756,-0.303 0.303,-0.151 0.605,-0.151 0.908,-0.303 0,0.151 0,0.151 0,0.303 0,0.152 0,0.151 0,0.303 0,0.152 0.151,0.454 0.151,0.605 0.151,0.151 0.151,0.454 0.303,0.756 0.151,0.303 0.303,0.605 0.453,0.908 0.151,0.303 0.454,0.604 0.757,1.059 0.151,0.151 0.151,0.303 0.303,0.454 0.152,0.151 0.151,0.303 0.303,0.454 0.152,0.151 0.303,0.303 0.453,0.604 0.151,0.303 0.454,0.605 0.757,0.908 l 0,0 c 0.303,-0.151 0.454,-0.303 0.605,-0.605 0.151,-0.151 0.302,-0.454 0.453,-0.604 0.151,-0.151 0.151,-0.454 0.303,-0.757 0.152,-0.303 0.151,-0.454 0.303,-0.757 0,-0.302 0.151,-0.453 0.151,-0.756 0,-0.303 0.151,-0.454 0.151,-0.757 l -1.513,-0.303 0.303,-1.361 2.723,0.454 0,1.21 c 0,0.303 -0.151,0.605 -0.303,1.06 -0.151,0.302 -0.151,0.756 -0.303,1.059 -0.151,0.454 -0.303,0.757 -0.303,1.059 -0.15,0.303 -0.302,0.605 -0.453,0.757 -0.151,0.303 -0.303,0.454 -0.454,0.757 -0.151,0.151 -0.454,0.453 -0.757,0.604 l 2.421,2.724 -1.21,1.059 -5.295,-6.051 c -0.151,0.302 -0.303,0.604 -0.454,0.907 -0.151,0.303 -0.151,0.605 -0.151,1.059 0,0.454 0,0.757 0,1.211 0,0.453 0,0.756 0,1.21 0,0.151 0,0.454 0,0.757 0,0.302 0,0.604 0,0.907 l -1.361,0 0,-0.305 0,0 z"
     id="path681_1_" /><polygon
     transform="translate(4.539,-343.69199)"
     style="fill:#ffffff"
     points="336.605,584.382 336.605,580.751 319.812,585.29 319.812,588.77 "
     id="polygon683_1_" /><polygon
     transform="translate(4.539,-343.69199)"
     style="fill:none;stroke:#000000;stroke-width:0.23999999"
     points="336.605,584.382 336.605,580.751 319.812,585.29 319.812,588.77 "
     id="polygon685_1_" /><polygon
     transform="translate(4.539,-343.69199)"
     style="fill:#ffffff"
     points="323.443,591.947 323.443,588.164 319.812,585.895 319.812,589.526 "
     id="polygon687_1_" /><polygon
     transform="translate(4.539,-343.69199)"
     style="fill:none;stroke:#000000;stroke-width:0.23999999"
     points="323.443,591.947 323.443,588.164 319.812,585.895 319.812,589.526 "
     id="polygon689_1_" /><polygon
     transform="translate(4.539,-343.69199)"
     style="fill:#ffffff"
     points="323.897,591.795 323.897,588.164 260.812,592.552 260.812,596.031 "
     id="polygon691_1_" /><polygon
     transform="translate(4.539,-343.69199)"
     style="fill:none;stroke:#000000;stroke-width:0.23999999"
     points="323.897,591.795 323.897,588.164 260.812,592.552 260.812,596.031 "
     id="polygon693_1_" /><polygon
     transform="translate(4.539,-343.69199)"
     style="fill:#ffffff"
     points="260.812,598.3 323.897,593.913 422.382,640.508 453.546,678.934 453.092,673.336 423.441,637.029 323.897,590.434 323.897,590.282 260.812,594.821 "
     id="polygon695_1_" /><polygon
     transform="translate(4.539,-343.69199)"
     style="fill:none;stroke:#141132;stroke-width:0.23999999"
     points="260.812,598.3 323.897,593.913 422.382,640.508 453.546,678.934 453.092,673.336 423.441,637.029 323.897,590.434 323.897,590.282 260.812,594.821 "
     id="polygon697_1_" /><polygon
     transform="translate(4.539,-343.69199)"
     style="fill:#ffffff"
     points="450.218,733.698 450.218,698.147 462.623,692.399 462.321,727.042 "
     id="polygon699_1_" /><polyline
     transform="translate(4.539,-343.69199)"
     style="fill:none;stroke:#141132;stroke-width:0.47999999"
     points="462.623,692.399 462.321,727.042   450.218,733.698 450.218,698.147 462.623,692.399 "
     id="polyline701_1_" /><polygon
     transform="translate(4.539,-343.69199)"
     style="fill:#ffffff"
     points="457.177,674.547 457.328,669.857 426.315,632.793 427.072,637.937 "
     id="polygon703_1_" /><polygon
     transform="translate(4.539,-343.69199)"
     style="fill:none;stroke:#141132;stroke-width:0.23999999"
     points="457.177,674.547 457.328,669.857 426.315,632.793 427.072,637.937 "
     id="polygon705_1_" /><polygon
     transform="translate(4.539,-343.69199)"
     style="fill:#ffffff"
     points="450.218,697.995 432.669,690.885 432.669,724.621 450.218,733.698 "
     id="polygon707_1_" /><polygon
     transform="translate(4.539,-343.69199)"
     style="fill:none;stroke:#141132;stroke-width:0.47999999"
     points="450.218,697.995 432.669,690.885 432.669,724.621 450.218,733.698 "
     id="polygon709_1_" /><polygon
     transform="translate(4.539,-343.69199)"
     style="fill:#ffffff"
     points="450.521,698.147 432.669,690.885 445.528,685.741 462.472,692.399 "
     id="polygon711_1_" /><polygon
     transform="translate(4.539,-343.69199)"
     style="fill:none;stroke:#141132;stroke-width:0.47999999"
     points="450.521,698.147 432.669,690.885 445.528,685.741 462.472,692.399 "
     id="polygon713_1_" /><polygon
     transform="translate(4.539,-343.69199)"
     style="fill:#ffffff"
     points="263.384,561.236 263.384,542.628 204.837,514.035 204.837,532.644 "
     id="polygon821_1_" /><polygon
     transform="translate(4.539,-343.69199)"
     style="fill:none;stroke:#141132;stroke-width:0.23999999"
     points="263.384,561.236 263.384,542.628 204.837,514.035 204.837,532.644 "
     id="polygon823_1_" /><path
     style="fill:#ffffff"
     d="m 319.056,183.05101 -9.682,2.724 -41.451,13.313 0,18.305 41.904,-12.707 9.229,-2.724 0,-18.911 0,0 z m 25.718,11.347 119.061,-34.493 0,-17.246 -119.061,33.131 0,18.608 0,0 z m 283.656,-94.553 0,-18.153 -128.288,50.831 -12.557,3.479 0,17.095 11.8,-3.328 129.045,-49.924 0,0 z m 0,-18.304 0,0 0.453,0 -0.453,0 z"
     id="path825_1_" /><path
     style="fill:none;stroke:#141132;stroke-width:0.23999999"
     d="m 319.056,183.05101 -9.682,2.724 -41.451,13.313 0,18.305 41.904,-12.707 9.229,-2.724 0,-18.911 0,0 z m 25.718,11.347 119.061,-34.493 0,-17.246 -119.061,33.131 0,18.608 0,0 z m 283.656,-94.553 0,-18.153 -128.288,50.831 -12.557,3.479 0,17.095 11.8,-3.328 129.045,-49.924 0,0 z m 0,-18.304 0,0 0.453,0 -0.453,0 z"
     id="path827_1_" /><rect
     style="fill:#411025"
     height="13.464"
     width="76.398003"
     y="235.84903"
     x="22.994999"
     id="rect849_1_" /><path
     style="fill:#d29839"
     d="m 31.316,239.32901 c 0.303,0 0.605,0 0.757,0.151 0.303,0 0.454,0.151 0.757,0.303 0.151,0.151 0.302,0.453 0.453,0.604 0.151,0.303 0.151,0.605 0.151,1.06 l 0,4.387 -6.051,0 0,-3.631 c 0,-0.303 0,-0.604 0,-0.756 0,-0.303 0.151,-0.605 0.151,-0.908 -0.151,0 -0.303,0 -0.454,-0.151 -0.151,0 -0.303,-0.151 -0.605,-0.151 0,-0.302 0.151,-0.453 0.151,-0.604 0,-0.151 0.151,-0.454 0.151,-0.605 0.151,0 0.454,0.151 0.605,0.151 0.151,0 0.303,0 0.453,0.151 0.151,0 0.303,0 0.454,0 0.151,0 0.303,0 0.605,0 l 2.422,0 0,-10e-4 z m 0.454,5.295 0,-2.572 c 0,-0.302 0,-0.453 0,-0.604 0,-0.151 0,-0.303 -0.151,-0.454 -0.151,-0.151 -0.151,-0.151 -0.303,-0.151 -0.15,0 -0.302,0 -0.604,0 l -1.361,0 c 0,0.303 -0.151,0.605 -0.151,0.757 0,0.302 0,0.453 0,0.756 l 0,2.27 2.57,0 z m 6.354,-5.295 0,2.421 c 0,0.302 0,0.453 0,0.604 0,0.151 0,0.303 0,0.454 0,0.151 0,0.303 0,0.303 0,0.151 0,0.303 -0.151,0.454 l -1.664,-0.303 c 0,-0.151 0,-0.303 0,-0.303 0,-0.151 0,-0.151 0,-0.303 0,-0.152 0,-0.303 0,-0.454 0,-0.151 0,-0.303 0,-0.604 l 0,-0.908 -1.514,0 0,-1.361 3.329,0 0,0 z m 4.69,0 0,2.421 c 0,0.302 0,0.453 0,0.604 0,0.151 0,0.303 0,0.454 0,0.151 0,0.303 0,0.303 0,0.151 0,0.303 -0.151,0.454 l -1.664,-0.303 c 0,-0.151 0,-0.303 0,-0.303 0,-0.151 0,-0.151 0,-0.303 0,-0.152 0,-0.303 0,-0.454 0,-0.151 0,-0.303 0,-0.604 l 0,-0.908 -1.513,0 0,-1.361 3.328,0 0,0 z m 5.143,0 0,0.907 c 0,0.151 0,0.151 0,0.303 0,0.152 0,0.151 0,0.303 0,0.152 0,0.303 0,0.454 0,0.151 0,0.454 0.151,0.756 0,0.303 0,0.605 0.151,1.06 0,0.454 0.151,0.907 0.151,1.361 l 0,0.151 0,0.151 c 0,0.151 0,0.151 0,0.303 0,0.152 0,0.151 0,0.303 0,0.15 0,0.15 0,0.302 0,0.152 0,0.151 0,0.303 l -4.388,0 0,-1.361 2.724,0 c 0,-0.151 0,-0.303 0,-0.454 0,-0.151 0,-0.454 -0.151,-0.756 0,-0.303 0,-0.605 -0.151,-0.757 0,-0.303 0,-0.605 -0.151,-0.757 0,-0.302 0,-0.453 -0.151,-0.604 -0.151,-0.151 0,-0.303 0,-0.454 l -1.664,0 0,-1.361 3.479,-0.153 0,0 z m 4.992,0 0,2.421 c 0,0.302 0,0.453 0,0.604 0,0.151 0,0.303 0,0.454 0,0.151 0,0.303 0,0.303 0,0.151 0,0.303 -0.151,0.454 l -1.664,-0.303 c 0,-0.151 0,-0.303 0,-0.303 0,-0.151 0,-0.151 0,-0.303 0,-0.152 0,-0.303 0,-0.454 0,-0.151 0,-0.303 0,-0.604 l 0,-0.908 -1.513,0 0,-1.361 3.328,0 0,0 z m 4.993,2.722 c 0,-0.302 0,-0.453 0,-0.604 0,-0.151 0,-0.303 -0.151,-0.454 -0.151,-0.151 -0.151,-0.151 -0.302,-0.151 -0.151,0 -0.303,0 -0.605,0 -0.151,0 -0.454,0 -0.605,0 -0.151,0 -0.303,0 -0.454,0 -0.15,0 -0.302,0 -0.453,-0.151 -0.151,0 -0.303,-0.151 -0.605,-0.151 0,-0.303 0.151,-0.453 0.151,-0.604 0,-0.151 0.151,-0.454 0.151,-0.605 0.151,0 0.454,0.151 0.605,0.151 0.15,0 0.302,0 0.453,0.151 0.151,0 0.303,0 0.454,0 0.151,0 0.303,0 0.605,0 l 0.303,0 c 0.302,0 0.604,0 0.756,0.151 0.303,0 0.454,0.151 0.757,0.303 0.151,0.15 0.303,0.453 0.453,0.604 0.151,0.303 0.151,0.605 0.151,1.06 l 0,3.025 1.211,0 0,1.361 -6.658,0 0,-1.361 3.631,0 0.152,-2.725 0,0 z m 12.102,-2.722 c 0.303,0 0.605,0 0.757,0.151 0.303,0 0.454,0.151 0.757,0.303 0.15,0.151 0.302,0.453 0.453,0.604 0.151,0.303 0.151,0.605 0.151,1.06 l 0,4.387 -1.815,0 0,-3.934 c 0,-0.302 0,-0.453 0,-0.604 0,-0.151 0,-0.303 -0.151,-0.454 -0.151,-0.151 -0.151,-0.151 -0.303,-0.151 -0.15,0 -0.302,0 -0.604,0 l -0.908,0 c -0.151,0.303 -0.302,0.605 -0.302,0.908 0,0.302 -0.151,0.604 -0.151,1.059 0,0.151 0,0.303 0,0.454 0,0.151 0,0.303 0,0.454 0,0.15 0,0.302 0.151,0.453 0,0.151 0.15,0.303 0.15,0.454 l 0.151,0.303 c 0,0.151 0,0.303 0,0.454 0,0.151 0,0.302 -0.151,0.453 l -3.025,0 0,-1.361 1.513,0 c -0.151,-0.303 -0.151,-0.605 -0.303,-0.907 0,-0.303 -0.15,-0.605 -0.15,-0.908 0,-0.303 0,-0.454 0,-0.756 0,-0.303 0.15,-0.454 0.15,-0.757 0,-0.151 0,-0.151 0.151,-0.303 0,-0.151 0.151,-0.151 0.151,-0.303 -0.151,0 -0.303,0 -0.604,-0.151 -0.151,0 -0.454,-0.15 -0.605,-0.15 0,-0.303 0.151,-0.454 0.151,-0.605 0,-0.151 0.151,-0.454 0.151,-0.605 0.151,0 0.454,0.151 0.604,0.151 0.151,0 0.303,0 0.454,0.151 0.151,0 0.303,0 0.454,0 0.151,0 0.303,0 0.605,0 l 2.117,0 0,0.15 z m 3.782,0.454 c 0.151,-0.151 0.454,-0.303 0.605,-0.454 0.151,-0.151 0.454,-0.303 0.756,-0.454 0.151,0.151 0.151,0.303 0.303,0.303 0,0.151 0.151,0.151 0.151,0.303 0,0.152 0.151,0.151 0.151,0.303 0,0.152 0.151,0.151 0.151,0.303 0.303,-0.303 0.757,-0.605 1.059,-0.757 0.454,-0.151 0.757,-0.303 1.211,-0.303 0.303,0 0.453,0 0.756,0.151 0.303,0.151 0.454,0.151 0.605,0.303 0.151,0.152 0.303,0.303 0.454,0.605 0.151,0.15 0.303,0.453 0.303,0.756 0,0.303 0,0.454 0.15,0.757 0,0.302 0,0.604 0,0.907 0,0.151 0,0.303 0,0.454 0,0.151 0,0.454 0,0.605 0,0.302 0,0.604 0,0.907 0,0.303 0,0.454 0,0.605 0,0.151 0,0.151 0,0.303 0,0.15 0,0.15 0,0.302 l -3.328,0 0,-1.361 1.664,0 c 0,0 0,0 0,-0.151 0,0 0,-0.151 0,-0.303 0,-0.152 0,-0.302 0,-0.453 0,-0.151 0,-0.454 0,-0.757 0,-0.151 0,-0.151 0,-0.303 0,-0.152 0,-0.303 0,-0.454 0,-0.15 0,-0.302 0,-0.453 0,-0.151 0,-0.151 0,-0.303 0,-0.303 -0.151,-0.605 -0.302,-0.757 -0.151,-0.151 -0.454,-0.151 -0.605,-0.151 -0.151,0 -0.303,0 -0.454,0.151 -0.151,0 -0.303,0.151 -0.454,0.303 -0.15,0 -0.15,0.151 -0.302,0.151 -0.151,0.151 -0.151,0.151 -0.303,0.303 0,0.454 -0.151,0.907 -0.151,1.21 0,0.303 -0.151,0.605 -0.151,0.908 0,0.303 0,0.453 -0.151,0.604 0,0.151 0,0.454 -0.151,0.605 0,0.151 0,0.303 -0.151,0.605 0,0.151 0,0.453 -0.151,0.756 l -1.664,0 0.151,-1.059 c 0,-0.303 0.151,-0.605 0.151,-0.757 0,-0.303 0.151,-0.454 0.151,-0.756 0,-0.303 0.151,-0.454 0.151,-0.757 0,-0.303 0.151,-0.454 0.151,-0.756 0,-0.151 0,-0.151 0,-0.151 l 0,-0.151 c 0,-0.151 0,-0.151 0,-0.303 0,-0.152 0,-0.151 -0.151,-0.303 0,-0.151 0,-0.151 -0.151,-0.303 0,-0.151 -0.151,-0.151 -0.151,-0.303 l -0.303,-0.45 0,0 z m 11.044,-0.454 0,6.656 -1.815,0 0,-5.295 -1.059,0 0,-1.361 2.874,0 z m 3.783,1.361 c -0.151,0 -0.454,0 -0.605,0 -0.151,0 -0.303,0 -0.454,0 -0.151,0 -0.302,0 -0.453,-0.151 -0.151,0 -0.303,-0.151 -0.605,-0.151 0,-0.302 0.151,-0.453 0.151,-0.604 0,-0.151 0.151,-0.454 0.151,-0.605 0.151,0 0.303,0.151 0.454,0.151 0.15,0 0.302,0 0.453,0.151 0.151,0 0.303,0 0.454,0 0.151,0 0.303,0 0.454,0 l 0.151,0 3.782,0 c 0,0.151 0,0.151 0,0.151 l 0,0.151 c 0,0.151 0,0.151 0,0.303 0,0.15 0,0.15 0,0.302 l 0,1.362 c 0,0.302 0,0.453 0,0.604 0,0.151 0,0.454 -0.151,0.605 0,0.151 -0.151,0.303 -0.151,0.454 -0.151,0.151 -0.151,0.302 -0.303,0.453 -0.152,0.151 -0.303,0.303 -0.454,0.605 -0.151,0.151 -0.303,0.454 -0.454,0.605 -0.151,0.151 -0.302,0.453 -0.604,0.604 -0.151,0.151 -0.303,0.454 -0.454,0.605 l -1.21,-1.059 0.907,-0.908 c 0.151,-0.303 0.454,-0.454 0.605,-0.605 0.151,-0.151 0.303,-0.302 0.303,-0.453 0.151,-0.151 0.151,-0.303 0.151,-0.303 0,-0.151 0.15,-0.151 0.15,-0.303 0,-0.152 0,-0.151 0,-0.303 0,-0.152 0,-0.303 0,-0.454 l 0,-1.21 -2.268,0 0,0.003 z m -1.967,3.328 c 0,-0.151 0,-0.303 0,-0.453 0,-0.151 0,-0.303 0,-0.454 0,-0.151 0,-0.303 0,-0.454 0,-0.151 0,-0.303 0.151,-0.454 0.303,0 0.604,0 0.907,0.151 0.303,0 0.605,0.151 0.908,0.151 0,0.303 -0.151,0.454 -0.151,0.757 0,0.303 0,0.453 0,0.907 l 0,3.934 -1.815,0 0,-4.085 0,0 z"
     id="path851_1_" /></svg>