<?xml version="1.0" encoding="UTF-8" standalone="no"?>
<svg
   xmlns:dc="http://purl.org/dc/elements/1.1/"
   xmlns:cc="http://creativecommons.org/ns#"
   xmlns:rdf="http://www.w3.org/1999/02/22-rdf-syntax-ns#"
   xmlns:svg="http://www.w3.org/2000/svg"
   xmlns="http://www.w3.org/2000/svg"
   width="318.32001"
   height="89.709999"
   viewBox="0 0 318.32001 89.710001"
   id="svg4909"
   version="1.1">
  <defs
     id="defs4911" />
  <metadata
     id="metadata4914">
    <rdf:RDF>
      <cc:Work
         rdf:about="">
        <dc:format>image/svg+xml</dc:format>
        <dc:type
           rdf:resource="http://purl.org/dc/dcmitype/StillImage" />
        <dc:title></dc:title>
      </cc:Work>
    </rdf:RDF>
  </metadata>
  <g
     id="layer1"
     transform="translate(-259.01786,-493.22149)">
    <polygon
       class="st943"
       points="772.97,579.79 704.84,644.27 781.93,626.79 "
       id="polygon7222"
       style="fill:#b48e59"
       transform="translate(-286.66214,-61.33851)" />
    <polygon
       class="st944"
       points="545.68,628.14 558.32,559.8 768.29,554.56 781.93,626.79 "
       id="polygon7224"
       style="fill:#d68a2a;fill-opacity:1"
       transform="translate(-286.66214,-61.33851)" />
    <g
       id="g7230"
       transform="translate(-286.66214,-61.33851)">
      <path
         class="st946"
         d="m 592.04,600.4 11.47,0 0,14.38 -11.47,0 0,-14.38 z m 9.22,12.55 0,-10.73 -6.96,0 0,10.73 6.96,0 z"
         id="path7232"
         style="fill:#ffffff" />
      <path
         class="st946"
         d="m 609.66,602.22 -2.64,0 0,-1.82 4.91,0 0,8.02 -2.27,0 0,-6.2 z"
         id="path7234"
         style="fill:#ffffff" />
      <path
         class="st946"
         d="m 615.26,614.76 0.06,-1.77 c 0.53,0.11 1.12,0.16 1.78,0.16 0.67,0 1.17,-0.19 1.5,-0.57 0.33,-0.38 0.5,-0.97 0.5,-1.77 l 0,-8.58 -2.82,0 0,-1.82 5.09,0 0,10.58 c 0,1.32 -0.33,2.32 -0.98,3.01 -0.65,0.69 -1.59,1.03 -2.81,1.03 -0.74,0 -1.52,-0.09 -2.32,-0.27 z"
         id="path7236"
         style="fill:#ffffff" />
      <path
         class="st946"
         d="m 625.19,614.34 0.37,-1.7 c 1.29,0.35 2.44,0.52 3.44,0.52 1.36,0 2.39,-0.33 3.11,-1 0.71,-0.66 1.07,-1.61 1.07,-2.85 l 0,-7.1 -7.48,0 0,-1.82 9.74,0 0,8.44 c 0,2.03 -0.54,3.57 -1.62,4.6 -1.08,1.03 -2.59,1.55 -4.52,1.55 -1.23,0.01 -2.6,-0.21 -4.11,-0.64 z"
         id="path7238"
         style="fill:#ffffff" />
      <path
         class="st946"
         d="m 641.16,602.22 -1.67,0 0,-1.82 3.94,0 0,14.38 -2.27,0 0,-12.56 z"
         id="path7240"
         style="fill:#ffffff" />
      <path
         class="st946"
         d="m 658.51,600.4 0,1.82 -2.4,0 0,12.56 -2.27,0 0,-12.56 -6.84,0 0,-1.82 11.51,0 z"
         id="path7242"
         style="fill:#ffffff" />
      <path
         class="st946"
         d="m 668.94,600.4 11.47,0 0,14.38 -11.47,0 0,-14.38 z m 9.22,12.55 0,-10.73 -6.96,0 0,10.73 6.96,0 z"
         id="path7244"
         style="fill:#ffffff" />
      <path
         class="st946"
         d="m 685.47,600.4 5.41,0 c 1.9,0 3.33,0.45 4.26,1.36 0.93,0.91 1.41,2.29 1.42,4.14 l 0,8.87 -2.26,0 0,-9.01 c 0,-1.25 -0.27,-2.15 -0.8,-2.71 -0.53,-0.56 -1.4,-0.84 -2.59,-0.84 l -3.17,0 -0.01,12.56 -2.26,0 0,-14.37 z"
         id="path7246"
         style="fill:#ffffff" />
      <path
         class="st946"
         d="m 711.4,601.76 c 0.94,0.91 1.41,2.29 1.41,4.14 l 0,8.87 -2.26,0 -0.01,-9.01 c 0,-1.25 -0.27,-2.15 -0.8,-2.71 -0.53,-0.56 -1.39,-0.84 -2.58,-0.84 l -2.04,0 c -0.27,0.44 -0.48,1 -0.64,1.69 -0.16,0.69 -0.24,1.39 -0.24,2.12 l 0,4.85 c 0,1.32 -0.31,2.32 -0.94,3 -0.63,0.68 -1.54,1.03 -2.73,1.03 -0.35,0 -0.82,-0.04 -1.4,-0.11 l 0,-1.82 c 0.26,0.03 0.54,0.05 0.84,0.05 0.71,0 1.22,-0.18 1.54,-0.55 0.32,-0.37 0.48,-0.94 0.48,-1.73 l 0,-4.54 c 0,-0.74 0.1,-1.48 0.29,-2.22 0.19,-0.74 0.46,-1.32 0.8,-1.76 l -2.7,0 0,-1.82 6.7,0 c 1.91,0 3.34,0.46 4.28,1.36 z"
         id="path7248"
         style="fill:#ffffff" />
      <path
         class="st946"
         d="m 718.47,605.64 c 0.08,-0.67 0.27,-1.3 0.57,-1.89 0.3,-0.59 0.64,-1.04 1.04,-1.36 0.03,-0.02 0.11,-0.08 0.24,-0.17 l -0.02,-0.04 c -0.37,0.07 -0.82,0.17 -1.38,0.31 -0.55,0.14 -1.05,0.29 -1.51,0.45 l -0.53,-1.71 c 0.94,-0.33 2,-0.59 3.17,-0.79 1.17,-0.2 2.25,-0.31 3.23,-0.31 1.94,0 3.42,0.51 4.44,1.54 1.02,1.03 1.54,2.54 1.54,4.54 l 0,8.57 -5.92,0 0,-1.82 3.66,0 0,-7.01 c 0,-1.28 -0.29,-2.25 -0.87,-2.92 -0.58,-0.67 -1.42,-1 -2.52,-1 -0.79,0 -1.45,0.3 -1.98,0.91 -0.53,0.61 -0.86,1.43 -0.98,2.47 l -1.09,9.36 -2.23,0 1.14,-9.13 z"
         id="path7250"
         style="fill:#ffffff" />
    </g>
    <g
       class="st935"
       id="g7252"
       style="opacity:1"
       transform="translate(-286.66214,-61.33851)">
      <path
         class="st943"
         d="m 730.3,573.96 c 0.28,1.26 0.54,2.51 0.84,3.76 0.41,1.73 0.88,3.45 1.26,5.19 0.15,0.66 0.44,0.85 1.11,0.84 6.32,-0.03 12.64,-0.02 18.96,-0.02 2.65,0 5.31,0 7.96,0 1.46,0 1.89,0.53 1.54,1.92 -1.15,4.62 -2.31,9.24 -3.46,13.87 -0.2,0.79 -0.63,1.16 -1.45,1.16 -7.16,-0.01 -14.31,-0.01 -21.47,0 -0.84,0 -1.26,-0.39 -1.45,-1.17 -1.85,-7.44 -3.71,-14.88 -5.54,-22.32 -0.16,-0.64 -0.4,-0.98 -1.08,-0.85 -0.06,0.01 -0.12,0 -0.17,0 -0.71,0.05 -1.34,-0.08 -1.61,-0.85 -0.28,-0.77 0.29,-1.14 0.76,-1.55 1.25,0.02 2.53,0.02 3.8,0.02 z m 2.93,12.16 c 0.13,0.52 0.28,0.93 0.32,1.35 0.08,0.97 0.56,1.22 1.52,1.22 6.11,-0.05 12.22,-0.02 18.34,-0.02 1.56,0 3.11,0.02 4.67,-0.02 0.28,-0.01 0.72,-0.19 0.8,-0.4 0.25,-0.66 0.37,-1.37 0.56,-2.12 -8.76,-0.01 -17.43,-0.01 -26.21,-0.01 z m 1.23,4.87 c 0.13,0.57 0.26,1.04 0.33,1.52 0.11,0.78 0.46,1.05 1.31,1.05 6.43,-0.04 12.86,-0.02 19.29,-0.02 2.37,0 2.37,0 2.76,-2.41 0,-0.03 -0.02,-0.05 -0.04,-0.14 -7.84,0 -15.7,0 -23.65,0 z m 22.42,4.81 c -0.36,0 -0.73,0 -1.1,0 -6.2,0 -12.4,0 -18.6,0 -1.53,0 -1.49,-0.01 -1.19,1.49 0.17,0.84 0.51,1.14 1.42,1.13 5.54,-0.05 11.08,-0.03 16.61,-0.03 2.42,0 2.42,0 2.92,-2.34 0.01,-0.02 -0.01,-0.05 -0.06,-0.25 z"
         id="path7254"
         style="fill:#be8d4b;fill-opacity:1" />
      <path
         class="st943"
         d="m 751.78,612.93 c -0.92,-0.49 -1.97,-0.83 -2.74,-1.5 -1.57,-1.37 -1.86,-3.69 -0.92,-5.54 0.95,-1.86 3.01,-2.93 5.02,-2.62 2.1,0.33 3.7,1.96 4.01,4.07 0.38,2.61 -1.19,4.86 -3.78,5.42 -0.13,0.03 -0.26,0.11 -0.38,0.17 -0.41,0 -0.81,0 -1.21,0 z m 0.61,-7.32 c -1.37,0.01 -2.49,1.14 -2.46,2.48 0.03,1.37 1.15,2.46 2.51,2.45 1.34,-0.01 2.49,-1.17 2.47,-2.49 -0.02,-1.35 -1.16,-2.45 -2.52,-2.44 z"
         id="path7256"
         style="fill:#be8d4b;fill-opacity:1" />
      <path
         class="st943"
         d="m 737.22,612.93 c -1.25,-0.37 -2.43,-0.83 -3.25,-1.94 -1.31,-1.77 -1.33,-4.04 0,-5.86 1.21,-1.65 3.5,-2.32 5.49,-1.6 2.09,0.76 3.29,2.73 3.12,5.12 -0.14,1.92 -1.73,3.64 -3.76,4.1 -0.13,0.03 -0.25,0.12 -0.37,0.18 -0.42,0 -0.82,0 -1.23,0 z m 0.61,-2.4 c 1.35,-0.01 2.5,-1.18 2.47,-2.5 -0.04,-1.38 -1.14,-2.44 -2.52,-2.43 -1.35,0.01 -2.49,1.17 -2.47,2.49 0.02,1.35 1.17,2.46 2.52,2.44 z"
         id="path7258"
         style="fill:#be8d4b;fill-opacity:1" />
    </g>
    <g
       id="g7441"
       transform="translate(-286.66214,-61.33851)">
      <path
         class="st946"
         d="m 586.55,573.5 11.47,0 0,14.38 -11.47,0 0,-14.38 z m 9.22,12.55 0,-10.73 -6.96,0 0,10.73 6.96,0 z"
         id="path7443"
         style="fill:#ffffff" />
      <path
         class="st946"
         d="m 604.17,575.32 -2.64,0 0,-1.82 4.91,0 0,8.02 -2.27,0 0,-6.2 z"
         id="path7445"
         style="fill:#ffffff" />
      <path
         class="st946"
         d="m 609.76,587.85 0.06,-1.77 c 0.53,0.11 1.12,0.16 1.78,0.16 0.67,0 1.17,-0.19 1.5,-0.57 0.33,-0.38 0.5,-0.97 0.5,-1.77 l 0,-8.58 -2.82,0 0,-1.82 5.09,0 0,10.58 c 0,1.32 -0.33,2.32 -0.98,3.01 -0.65,0.69 -1.59,1.03 -2.81,1.03 -0.74,0 -1.51,-0.09 -2.32,-0.27 z"
         id="path7447"
         style="fill:#ffffff" />
      <path
         class="st946"
         d="m 621.9,578.74 c 0.08,-0.67 0.27,-1.3 0.57,-1.89 0.3,-0.59 0.64,-1.04 1.04,-1.36 0.03,-0.02 0.11,-0.08 0.24,-0.17 l -0.02,-0.04 c -0.37,0.07 -0.82,0.17 -1.37,0.31 -0.55,0.14 -1.05,0.29 -1.51,0.45 l -0.53,-1.71 c 0.94,-0.33 2,-0.59 3.17,-0.79 1.17,-0.2 2.25,-0.31 3.23,-0.31 1.94,0 3.42,0.51 4.44,1.54 1.02,1.03 1.54,2.54 1.54,4.54 l 0,8.57 -5.92,0 0,-1.82 3.66,0 0,-7.01 c 0,-1.28 -0.29,-2.25 -0.87,-2.92 -0.58,-0.67 -1.42,-1 -2.52,-1 -0.79,0 -1.45,0.3 -1.98,0.91 -0.53,0.61 -0.86,1.43 -0.98,2.47 l -1.09,9.36 -2.23,0 1.13,-9.13 z"
         id="path7449"
         style="fill:#ffffff" />
      <path
         class="st946"
         d="m 645.45,581.59 4.55,6.29 -2.53,0 -6.41,-8.84 c -0.87,0.55 -1.31,1.48 -1.31,2.81 l 0,6.03 -2.2,0 0,-5.21 c 0,-1.25 0.21,-2.26 0.63,-3.06 0.42,-0.79 1.08,-1.39 1.97,-1.8 l -3.11,-4.31 2.54,0 4.46,6.15 3.47,-6.15 2.55,0 -4.61,8.09 z"
         id="path7451"
         style="fill:#ffffff" />
      <path
         class="st946"
         d="m 662.43,578.86 c 0,-1.25 -0.28,-2.15 -0.84,-2.7 -0.56,-0.56 -1.46,-0.84 -2.71,-0.84 l -5.21,0 0,-1.82 5.32,0 c 1.88,0 3.3,0.46 4.27,1.37 0.96,0.91 1.45,2.26 1.45,4.05 l 0,8.96 -2.27,0 0,-9.02 z m -8.74,4.11 c 0,-0.74 0.05,-1.32 0.17,-1.75 0.11,-0.43 0.27,-0.86 0.47,-1.29 l 1.86,0 c -0.1,0.37 -0.17,0.79 -0.22,1.25 -0.05,0.46 -0.07,1 -0.07,1.65 l 0,5.05 -2.2,0 0,-4.91 z"
         id="path7453"
         style="fill:#ffffff" />
      <path
         class="st946"
         d="m 686.36,574.86 c 0.94,0.91 1.41,2.29 1.41,4.14 l 0,8.87 -2.26,0 -0.01,-9.01 c 0,-1.25 -0.27,-2.15 -0.8,-2.71 -0.53,-0.56 -1.39,-0.84 -2.58,-0.84 l -2.04,0 c -0.27,0.44 -0.48,1 -0.64,1.69 -0.16,0.69 -0.24,1.39 -0.24,2.12 l 0,4.85 c 0,1.32 -0.31,2.32 -0.94,3 -0.63,0.68 -1.54,1.03 -2.73,1.03 -0.35,0 -0.82,-0.04 -1.4,-0.11 l 0,-1.82 c 0.26,0.03 0.54,0.05 0.84,0.05 0.71,0 1.22,-0.18 1.54,-0.55 0.32,-0.37 0.48,-0.94 0.48,-1.73 l 0,-4.54 c 0,-0.74 0.1,-1.48 0.29,-2.22 0.19,-0.74 0.46,-1.32 0.81,-1.76 l -2.7,0 0,-1.82 6.7,0 c 1.9,0 3.33,0.45 4.27,1.36 z"
         id="path7455"
         style="fill:#ffffff" />
      <path
         class="st946"
         d="m 698.39,577.84 c 0,-0.78 -0.23,-1.4 -0.69,-1.85 -0.46,-0.45 -1.09,-0.68 -1.89,-0.68 l -4.83,0 0,-1.82 4.91,0 c 0.98,0 1.83,0.18 2.55,0.54 0.72,0.36 1.26,0.88 1.64,1.55 0.38,0.68 0.57,1.49 0.57,2.43 l 0,9.86 -2.26,0 0,-10.03 z"
         id="path7457"
         style="fill:#ffffff" />
      <path
         class="st946"
         d="m 715.38,573.5 0,1.82 -2.41,0 0,12.56 -2.27,0 0,-12.56 -6.84,0 0,-1.82 11.52,0 z"
         id="path7459"
         style="fill:#ffffff" />
      <path
         class="st946"
         d="m 721.2,585.33 c 0.78,0.33 1.6,0.59 2.47,0.78 0.86,0.19 1.68,0.28 2.46,0.28 1.17,0 2.22,-0.17 3.14,-0.51 0.92,-0.34 1.64,-0.85 2.17,-1.54 0.53,-0.69 0.79,-1.54 0.79,-2.54 l 0,-8.3 2.2,0 0,8.51 c 0,1.35 -0.36,2.49 -1.09,3.42 -0.73,0.93 -1.71,1.63 -2.95,2.09 -1.24,0.46 -2.62,0.7 -4.15,0.7 -1.19,0 -2.41,-0.14 -3.66,-0.42 -1.25,-0.28 -2.45,-0.69 -3.58,-1.24 l 0,-13.06 2.2,0 0,11.83 z m 4.13,-2.73 c 0.15,-0.56 0.23,-1.21 0.23,-1.95 l 0,-7.15 2.21,0 0,6.75 c 0,0.83 -0.1,1.55 -0.3,2.17 -0.2,0.62 -0.52,1.14 -0.94,1.57 l -1.88,-0.07 c 0.3,-0.33 0.53,-0.76 0.68,-1.32 z"
         id="path7461"
         style="fill:#ffffff" />
    </g>
  </g>
</svg>
