<?xml version="1.0" encoding="UTF-8" standalone="no"?>
<svg
   xmlns:dc="http://purl.org/dc/elements/1.1/"
   xmlns:cc="http://creativecommons.org/ns#"
   xmlns:rdf="http://www.w3.org/1999/02/22-rdf-syntax-ns#"
   xmlns:svg="http://www.w3.org/2000/svg"
   xmlns="http://www.w3.org/2000/svg"
   height="788.26996"
   width="1403.0651"
   id="svg2"
   xml:space="preserve"
   viewBox="0 0 1403.0651 788.26996"
   y="0px"
   x="0px"
   version="1.1"><metadata
     id="metadata7214"><rdf:RDF><cc:Work
         rdf:about=""><dc:format>image/svg+xml</dc:format><dc:type
           rdf:resource="http://purl.org/dc/dcmitype/StillImage" /><dc:title></dc:title></cc:Work></rdf:RDF></metadata><defs
     id="defs7212" /><style
     id="style4"
     type="text/css">
	.st923{opacity:1;fill:#FFFFFF;stroke:#000000;stroke-width:0.5;stroke-miterlimit:10;}
	.st924{opacity:1;}
	.st925{fill:#7B3B23;}
	.st926{opacity:1;fill:#2D7ABD;}
	.st927{fill:#8FAA6B;}
	.st928{opacity:1;fill:#FFFFFF;stroke:#000000;stroke-width:0.5;}
	.st929{fill:#F07741;}
	.st930{fill:#FCB75A;stroke:#FFFFFF;stroke-miterlimit:10;}
	.st931{opacity:1;}
	.st932{opacity:1;fill:#FFFFFF;stroke:#000000;stroke-width:0.5;stroke-miterlimit:10;}
	.st933{fill:#4B1A26;}
	.st934{opacity:1;fill:#FFFFFF;}
	.st935{fill:#F1F2F2;}
	.st936{fill:#511D51;}
	.st937{fill:#F48166;}
	.st938{fill:#57C8DF;}
	.st939{fill:#f48166;}
	.st940{fill:#D16A4E;}
	.st941{opacity:1;fill:#FFFFFF;}
	.st942{fill:#FFFFFF;}
</style><g
     id="g4702"><polygon
       transform="translate(-88,-84.599998)"
       style="opacity:1;fill:#ffffff;stroke:#000000;stroke-width:0.5;stroke-miterlimit:10"
       points="828.7,216 458.3,375.8 458.3,345.1 828.7,185.8 "
       class="st923"
       id="polygon497_3_" /><polygon
       transform="translate(-88,-84.599998)"
       style="opacity:1;fill:#ffffff;stroke:#000000;stroke-width:0.5;stroke-miterlimit:10"
       points="828.7,185.8 1030.6,249.4 1030.6,273.6 1027.7,274.6 1024,276.1 828.7,216 "
       class="st923"
       id="polygon505_3_" /><g
       transform="translate(-88,-84.599998)"
       style="opacity:1"
       id="g6406"
       class="st924"><g
         id="g6410"><polygon
           style="fill:#bd8c56;fill-opacity:1"
           id="polygon6412"
           points="463.8,372.6 376.4,413.2 303.5,387.9 154,451.5 220.6,502.2 278.2,477 334.9,505.7 293.8,546.8 938.3,856.3 1060.5,774.1 959.6,732.1 1230.5,532.7 1479.6,392.9 1148.3,228.9 1023.5,272.8 820.8,203.4 460.1,370.6 "
           class="st925" /></g></g><polygon
       transform="translate(-88,-84.599998)"
       style="opacity:1;fill:#ffffff;stroke:#000000;stroke-width:0.5;stroke-miterlimit:10"
       points="804.7,338.5 691.9,276.4 691.9,244.2 824.2,314.2 "
       class="st923"
       id="polygon501_3_" /><polygon
       transform="translate(-88,-84.599998)"
       style="opacity:1;fill:#ffffff;stroke:#000000;stroke-width:0.5;stroke-miterlimit:10"
       points="325,511.9 278.2,487.9 278.2,477 328.2,501.5 "
       class="st923"
       id="polygon511_3_" /><polygon
       transform="translate(-88,-84.599998)"
       style="opacity:1;fill:#5c83a4;fill-opacity:1"
       points="1118.6,493.2 1121.5,502 1141.5,490.7 1140.2,481.8 1162.2,470.3 1269.3,389.2 1090.7,307.8 879.2,361.2 616.7,421.8 948.4,582.4 1095.6,505.2 1095.6,505.2 1099,514.8 1118.9,503.5 "
       class="st926"
       id="polygon515_3_" /><polygon
       transform="translate(-88,-84.599998)"
       style="opacity:1;fill:#ffffff;stroke:#000000;stroke-width:0.5;stroke-miterlimit:10"
       points="303.5,525.5 262.9,503.5 262.9,493.3 303.5,511.9 "
       class="st923"
       id="polygon517_3_" /><polygon
       transform="translate(-88,-84.599998)"
       style="opacity:1;fill:#ffffff;stroke:#000000;stroke-width:0.5;stroke-miterlimit:10"
       points="290.8,543.3 248.8,520.8 248.8,509.2 290.8,531.2 "
       class="st923"
       id="polygon521_3_" /><polyline
       transform="translate(-88,-84.599998)"
       style="opacity:1;fill:#ffffff;stroke:#000000;stroke-width:0.5;stroke-miterlimit:10"
       points="851.2,787.7 929.1,727.1 929.4,764.5 944.7,753.1 944.2,715.5 1197.6,518.6    1480.8,357.5 1479.6,392.9 1203.7,559.4 944.7,753.1 927.7,765.7 851.2,823.1  "
       class="st923"
       id="polyline525_3_" /><polygon
       transform="translate(-88,-84.599998)"
       style="opacity:1;fill:#ffffff;stroke:#000000;stroke-width:0.5;stroke-miterlimit:10"
       points="960.1,741.7 1061.2,778.3 1061.2,750.9 958.8,712.8 "
       class="st923"
       id="polygon537_3_" /><polygon
       transform="translate(-88,-84.599998)"
       style="opacity:1;fill:#ffffff;stroke:#000000;stroke-width:0.5;stroke-miterlimit:10"
       points="938.8,862.4 938.5,830.8 1061,751.6 1061,779.1 "
       class="st923"
       id="polygon541_3_" /><polygon
       transform="translate(-88,-84.599998)"
       style="opacity:1;fill:#ffffff;stroke:#000000;stroke-width:0.5;stroke-miterlimit:10"
       points="822.8,555.9 795.8,565.1 664.4,505.5 739.6,483.2 "
       class="st923"
       id="polygon545_3_" /><polygon
       transform="translate(-88,-84.599998)"
       style="opacity:1;fill:#ffffff;stroke:#000000;stroke-width:0.5;stroke-miterlimit:10"
       points="1090.4,308.8 1090.4,273.4 616.9,404.3 616.9,438.4 "
       class="st923"
       id="polygon549_3_" /><polygon
       transform="translate(-88,-84.599998)"
       style="opacity:1;fill:#ffffff;stroke:#000000;stroke-width:0.5;stroke-miterlimit:10"
       points="313.6,518.6 262.6,493.3 278.2,487.9 325,511.9 "
       class="st923"
       id="polygon553_3_" /><polygon
       transform="translate(-88,-84.599998)"
       style="opacity:1;fill:#ffffff;stroke:#000000;stroke-width:0.5;stroke-miterlimit:10"
       points="294.1,533.4 248.8,509.2 262.9,503.5 303.5,525.5 "
       class="st923"
       id="polygon557_3_" /><polygon
       transform="translate(-88,-84.599998)"
       style="opacity:1;fill:#ffffff;stroke:#000000;stroke-width:0.5;stroke-miterlimit:10"
       points="830.9,552.7 817.6,557.2 705.2,505.9 717.1,501 "
       class="st923"
       id="polygon561_3_" /><polygon
       transform="translate(-88,-84.599998)"
       style="opacity:1;fill:#ffffff;stroke:#000000;stroke-width:0.5;stroke-miterlimit:10"
       points="806.7,561.1 818.3,557.2 700.3,503.2 687.2,507.4 "
       class="st923"
       id="polygon565_3_" /><polygon
       transform="translate(-88,-84.599998)"
       style="opacity:1;fill:#ffffff;stroke:#000000;stroke-width:0.5;stroke-miterlimit:10"
       points="1347.6,433 1380.8,414.4 1089.9,273.1 1089.9,309 "
       class="st923"
       id="polygon569_3_" /><polygon
       transform="translate(-88,-84.599998)"
       style="fill:#8faa6b"
       points="886.8,558.1 864.6,566.8 724.8,503.2 736.2,496.8 "
       class="st927"
       id="polygon573_3_" /><polygon
       transform="translate(-88,-84.599998)"
       style="opacity:1;fill:#ffffff;stroke:#000000;stroke-width:0.5;stroke-miterlimit:10"
       points="795,565.3 806.4,561.1 682.2,504 669.9,507.9 "
       class="st923"
       id="polygon575_3_" /><polygon
       transform="translate(-88,-84.599998)"
       style="opacity:1;fill:#ffffff;stroke:#000000;stroke-width:0.5;stroke-miterlimit:10"
       points="316.1,525.5 288.6,511.9 353.9,481.5 354.7,507.9 "
       class="st923"
       id="polygon579_3_" /><polygon
       transform="translate(-88,-84.599998)"
       style="opacity:1;fill:#ffffff;stroke:#000000;stroke-width:0.5;stroke-miterlimit:10"
       points="948.4,600 948.4,564.8 616.7,404.3 616.7,438.4 "
       class="st923"
       id="polygon583_3_" /><polygon
       transform="translate(-88,-84.599998)"
       style="opacity:1;fill:#ffffff;stroke:#000000;stroke-width:0.5;stroke-miterlimit:10"
       points="938.3,862.4 938.3,831.3 288.6,511.9 288.6,548.5 "
       class="st923"
       id="polygon587_3_" /><polygon
       transform="translate(-88,-84.599998)"
       style="opacity:1;fill:#ffffff;stroke:#000000;stroke-width:0.5;stroke-miterlimit:10"
       id="polygon6433"
       points="1147.7,288.1 1140.4,284.8 1140.4,253.1 1320.3,339.4 1320.3,372.1 1156,292.3 1156.6,275.6 1148.2,272.3 "
       class="st923" /><polygon
       transform="translate(-88,-84.599998)"
       style="opacity:1;fill:#ffffff;stroke:#000000;stroke-width:0.5;stroke-miterlimit:10"
       points="1374.9,344.4 1374.9,312.7 1146.1,198.9 1146.1,228.6 "
       class="st923"
       id="polygon595_3_" /><polygon
       transform="translate(-88,-84.599998)"
       style="opacity:1;fill:#ffffff;stroke:#000000;stroke-width:0.5;stroke-miterlimit:10"
       points="361.8,419.9 303.5,387.9 303.5,362.5 361.8,390.9 "
       class="st923"
       id="polygon599_3_" /><polygon
       transform="translate(-88,-84.599998)"
       style="opacity:1;fill:#ffffff;stroke:#000000;stroke-width:0.5;stroke-miterlimit:10"
       id="polygon6437"
       points="1117.5,486.6 1121.5,502 1122.6,501.4 1118.9,503.5 1114.4,488.2 1094.9,499.4 1099,514.8 948.4,600 948.4,564.8 1162.2,442.1 1269.3,360.2 1269.3,395.9 1162.2,479 1141.5,490.7 1136.9,475.4 "
       class="st923" /><polygon
       transform="translate(-88,-84.599998)"
       style="opacity:1;fill:#ffffff;stroke:#000000;stroke-width:0.5;stroke-miterlimit:10"
       points="1374.9,344.1 1320.3,372.1 1320.3,339.4 1374.9,312.7 "
       class="st923"
       id="polygon607_3_" /><polygon
       transform="translate(-88,-84.599998)"
       style="opacity:1;fill:#ffffff;stroke:#000000;stroke-width:0.5;stroke-miterlimit:10"
       points="1285.4,297.6 1259.4,311 1234.4,298.1 1286.4,268.9 "
       class="st923"
       id="polygon611_9_" /><polygon
       transform="translate(-88,-84.599998)"
       style="opacity:1;fill:#ffffff;stroke:#000000;stroke-width:0.5"
       points="1241.9,276.6 1215.9,290 1190.9,277.1 1242.9,247.9 "
       class="st928"
       id="polygon611_8_" /><polygon
       transform="translate(-88,-84.599998)"
       style="opacity:1;fill:#ffffff;stroke:#000000;stroke-width:0.5"
       points="1186.4,307.1 1176.3,312.6 1151.1,301.3 1190.4,277.6 "
       class="st928"
       id="polygon611_7_" /><polygon
       transform="translate(-88,-84.599998)"
       style="opacity:1;fill:#ffffff;stroke:#000000;stroke-width:0.5;stroke-miterlimit:10"
       points="1169.6,267.2 1140.4,253.1 1197.6,225.1 1197.6,253.1 "
       class="st923"
       id="polygon615_3_" /><polyline
       transform="translate(-88,-84.599998)"
       style="opacity:1;fill:#ffffff;stroke:#000000;stroke-width:0.5;stroke-miterlimit:10"
       points="460.8,374.6 262.9,465.9 262.9,437.7 460.8,344.1  "
       class="st923"
       id="polyline619_3_" /><polygon
       transform="translate(-88,-84.599998)"
       style="opacity:1;fill:#ffffff;stroke:#000000;stroke-width:0.5;stroke-miterlimit:10"
       points="303.5,387.9 154,451.5 154,427.8 303.5,362.5 "
       class="st923"
       id="polygon627_3_" /><polygon
       transform="translate(-88,-84.599998)"
       style="opacity:1;fill:#ffffff;stroke:#000000;stroke-width:0.5;stroke-miterlimit:10"
       points="200.5,493.3 154,456 154,427.8 200.5,465.9 "
       class="st923"
       id="polygon631_3_" /><polygon
       transform="translate(-88,-84.599998)"
       style="opacity:1;fill:#5c83a3;fill-opacity:1"
       points="817.3,551 847.2,541.8 676,459.4 649.6,466.6 "
       class="st926"
       id="polygon635_3_" /><path
       style="opacity:1;fill:#5c83a3;fill-opacity:1"
       d="m 916.9,472.7 -56.7,28.2 C 827.9,484.8 738,446.7 738,446.7 l -8.9,11.1 110.1,57.4 -69.2,28.7 20.8,8.2 45.5,-19 20.3,9.2 91.5,-59.9 -31.2,-9.7 z"
       class="st926"
       id="path645_3_" /><polygon
       transform="translate(-88,-84.599998)"
       style="opacity:1;fill:#ffffff;stroke:#000000;stroke-width:0.5;stroke-miterlimit:10"
       points="931.1,603.7 824,547 823.2,538.6 931.1,593 "
       class="st923"
       id="polygon647_3_" /><polygon
       transform="translate(-88,-84.599998)"
       style="fill:#fcb75a;stroke:#ffffff;stroke-miterlimit:10"
       points="229.7,511.4 250.5,503 245.3,499.8 256.2,482.9 246.3,476.5 235.2,493.8 229.5,490.1 "
       class="st930"
       id="polygon663_3_" /><polygon
       transform="translate(-88,-84.599998)"
       style="opacity:1;fill:#5c83a3;fill-opacity:1"
       points="873.7,607.1 822.3,540.1 813.6,545.3 867.3,613.8 "
       class="st926"
       id="polygon669_3_" /><polygon
       transform="translate(-88,-84.599998)"
       style="opacity:1;fill:#ffffff;stroke:#000000;stroke-width:0.5;stroke-miterlimit:10"
       points="676.3,459.2 676.3,453.2 648.8,460.7 648.8,466.4 "
       class="st923"
       id="polygon683_3_" /><polygon
       transform="translate(-88,-84.599998)"
       style="opacity:1;fill:#ffffff;stroke:#000000;stroke-width:0.5;stroke-miterlimit:10"
       points="654.8,471.6 654.8,465.4 648.8,461.7 648.8,467.6 "
       class="st923"
       id="polygon687_3_" /><polygon
       transform="translate(-88,-84.599998)"
       style="opacity:1;fill:#ffffff;stroke:#000000;stroke-width:0.5;stroke-miterlimit:10"
       points="655.5,471.3 655.5,465.4 552.3,472.5 552.3,478.2 "
       class="st923"
       id="polygon691_3_" /><polygon
       transform="translate(-88,-84.599998)"
       style="opacity:1;fill:#ffffff;stroke:#000000;stroke-width:0.5;stroke-miterlimit:10"
       points="818.3,545.3 655.5,469.1 655.5,468.8 552.3,476.3 552.3,481.9 655.5,474.8 816.6,551 867.5,613.8 866.8,604.7 "
       class="st923"
       id="polygon695_3_" /><polygon
       transform="translate(-88,-84.599998)"
       style="opacity:1;fill:#ffffff;stroke:#000000;stroke-width:0.5;stroke-miterlimit:10"
       points="862.1,703.4 862.1,645.2 882.4,635.8 881.9,692.5 "
       class="st923"
       id="polygon699_9_" /><polygon
       transform="translate(-88,-84.599998)"
       style="opacity:1;fill:#ffffff;stroke:#000000;stroke-width:0.5;stroke-miterlimit:10"
       points="873.5,606.6 873.7,599 823,538.4 824.2,546.8 "
       class="st923"
       id="polygon703_3_" /><polygon
       transform="translate(-88,-84.599998)"
       style="opacity:1;fill:#ffffff;stroke:#000000;stroke-width:0.5;stroke-miterlimit:10"
       points="862.1,645 833.4,633.4 833.4,688.5 862.1,703.4 "
       class="st923"
       id="polygon707_9_" /><polygon
       transform="translate(-88,-84.599998)"
       style="opacity:1;fill:#ffffff;stroke:#000000;stroke-width:0.5;stroke-miterlimit:10"
       points="862.6,645.2 833.4,633.4 854.4,624.9 882.1,635.8 "
       class="st923"
       id="polygon711_9_" /><g
       transform="translate(-88,-84.599998)"
       style="opacity:1"
       id="g6461"
       class="st931"><polygon
         style="opacity:1;fill:#ffffff;stroke:#000000;stroke-width:0.5;stroke-miterlimit:10"
         points="642.9,598 711.3,612.5 712.5,632.6 643.7,617.8 "
         class="st932"
         id="polygon699_8_" /><polygon
         style="opacity:1;fill:#ffffff;stroke:#000000;stroke-width:0.5;stroke-miterlimit:10"
         points="711.6,612.6 743.1,595.3 670.9,581.3 642.9,598 "
         class="st932"
         id="polygon707_8_" /><polygon
         style="opacity:1;fill:#ffffff;stroke:#000000;stroke-width:0.5;stroke-miterlimit:10"
         points="711.3,613 743.1,595.3 743.6,612.9 712.6,632.4 "
         class="st932"
         id="polygon711_8_" /></g><g
       transform="translate(-88,-84.599998)"
       style="opacity:1"
       id="g6466"
       class="st931"><polygon
         style="opacity:1;fill:#ffffff;stroke:#000000;stroke-width:0.5;stroke-miterlimit:10"
         points="496.6,542.7 562.5,566 561.1,586.1 494.8,562.4 "
         class="st932"
         id="polygon699_7_" /><polygon
         style="opacity:1;fill:#ffffff;stroke:#000000;stroke-width:0.5;stroke-miterlimit:10"
         points="562.7,566.1 596.2,553 526.5,529.7 496.6,542.7 "
         class="st932"
         id="polygon707_7_" /><polygon
         style="opacity:1;fill:#ffffff;stroke:#000000;stroke-width:0.5;stroke-miterlimit:10"
         points="562.4,566.5 596.2,553 594.4,570.5 561.1,585.8 "
         class="st932"
         id="polygon711_7_" /></g><polygon
       transform="translate(-88,-84.599998)"
       style="opacity:1;fill:#ffffff;stroke:#000000;stroke-width:0.5;stroke-miterlimit:10"
       points="556.6,421.3 556.6,390.9 460.8,344.1 460.8,374.6 "
       class="st923"
       id="polygon821_3_" /><path
       style="opacity:1;fill:#ffffff;stroke:#000000;stroke-width:0.5;stroke-miterlimit:10"
       d="m 552.2,280.3 -15.8,4.5 -67.8,21.8 0,29.9 68.5,-20.8 15.1,-4.5 0,-30.9 0,0 z m 42,18.6 194.7,-56.4 0,-28.2 -194.7,54.2 0,30.4 0,0 z m 463.9,-154.6 0,-29.7 -209.8,83.1 -20.5,5.7 0,28 19.3,-5.4 211,-81.7 0,0 z m 0,-30 0,0 0.7,0 -0.7,0 z"
       class="st923"
       id="path825_3_" /><polygon
       transform="translate(-88,-84.599998)"
       style="opacity:1;fill:#ffffff;stroke:#000000;stroke-width:0.5;stroke-miterlimit:10"
       id="polygon6492"
       points="1152.6,274 1148.2,272.3 1148.1,275.8 "
       class="st923" /><polygon
       transform="translate(-88,-84.599998)"
       style="fill:#4b1a26"
       points="223,515.4 98,515.4 98,487.9 118.6,487.9 119,471.6 197,471.6 197,487.9 223,486.8 "
       class="st933"
       id="rect849_2_" /><g
       transform="translate(-88,-84.599998)"
       id="g6650"><path
         style="fill:#f1f2f2"
         id="path6652"
         d="m 141.2,483.7 c 0,-0.6 -0.2,-1.1 -0.6,-1.5 -0.4,-0.4 -0.9,-0.5 -1.5,-0.5 l -3.9,0 0,-1.5 3.9,0 c 0.8,0 1.5,0.1 2,0.4 0.5,0.3 1,0.7 1.3,1.2 0.3,0.5 0.5,1.2 0.5,1.9 l 0,7.9 -1.8,0 0,-7.9 z"
         class="st935" /><path
         style="fill:#f1f2f2"
         id="path6654"
         d="m 155.1,490.3 0,1.4 -9.5,0 0,-1.5 6.3,0 0,-5.8 c 0,-1 -0.2,-1.7 -0.7,-2.2 -0.5,-0.5 -1.2,-0.7 -2.2,-0.7 l -2.8,0 0,-1.5 2.9,0 c 1.5,0 2.6,0.4 3.4,1.1 0.8,0.7 1.1,1.8 1.1,3.2 l 0,5.6 1.5,0.4 z"
         class="st935" /><path
         style="fill:#f1f2f2"
         id="path6656"
         d="m 165.9,480.2 0,6.9 c 0,1 -0.2,1.9 -0.6,2.6 -0.4,0.7 -1,1.3 -1.8,1.7 -0.8,0.4 -1.7,0.6 -2.7,0.6 -1.3,0 -2.7,-0.3 -4.1,-0.8 l 0.4,-1.3 c 1.1,0.4 2.2,0.7 3.1,0.7 -0.5,-0.6 -0.8,-1.2 -1,-1.9 l -1.9,-8.4 1.8,0 1.9,8.5 c 0.1,0.4 0.2,0.7 0.3,1 0.1,0.3 0.2,0.5 0.3,0.8 0.8,-0.2 1.4,-0.5 1.8,-1.1 0.4,-0.6 0.7,-1.3 0.7,-2.2 l 0,-7 1.8,0 z"
         class="st935" /><path
         style="fill:#f1f2f2"
         id="path6658"
         d="m 170.7,484.4 c 0.1,-0.5 0.2,-1 0.5,-1.5 0.3,-0.5 0.5,-0.8 0.8,-1.1 0,0 0.1,-0.1 0.2,-0.1 l 0,0 c -0.3,0.1 -0.7,0.1 -1.1,0.2 -0.4,0.1 -0.8,0.2 -1.2,0.4 l -0.4,-1.4 c 0.8,-0.3 1.6,-0.5 2.5,-0.6 0.9,-0.1 1.8,-0.2 2.6,-0.2 1.5,0 2.7,0.4 3.5,1.2 0.8,0.8 1.2,2 1.2,3.6 l 0,6.9 -4.7,0 0,-1.5 2.9,0 0,-5.6 c 0,-1 -0.2,-1.8 -0.7,-2.3 -0.5,-0.5 -1.1,-0.8 -2,-0.8 -0.6,0 -1.2,0.2 -1.6,0.7 -0.4,0.5 -0.7,1.1 -0.8,2 l -0.9,7.5 -1.8,0 1,-7.4 z"
         class="st935" /><path
         style="fill:#f1f2f2"
         id="path6660"
         d="m 123.8,497.2 c 0.8,0.7 1.1,1.8 1.1,3.3 l 0,7.1 -1.8,0 0,-7.2 c 0,-1 -0.2,-1.7 -0.6,-2.2 -0.4,-0.5 -1.1,-0.7 -2.1,-0.7 l -1.6,0 c -0.2,0.4 -0.4,0.8 -0.5,1.4 -0.1,0.6 -0.2,1.1 -0.2,1.7 l 0,3.9 c 0,1.1 -0.3,1.9 -0.8,2.4 -0.5,0.5 -1.2,0.8 -2.2,0.8 -0.3,0 -0.7,0 -1.1,-0.1 l 0,-1.5 c 0.2,0 0.4,0 0.7,0 0.6,0 1,-0.1 1.2,-0.4 0.2,-0.3 0.4,-0.8 0.4,-1.4 l 0,-3.6 c 0,-0.6 0.1,-1.2 0.2,-1.8 0.1,-0.6 0.4,-1.1 0.6,-1.4 l -2.1,0 0,-1.5 5.4,0 c 1.5,0.1 2.6,0.5 3.4,1.2 z"
         class="st935" /><path
         style="fill:#f1f2f2"
         id="path6662"
         d="m 129.2,497.6 -1.3,0 0,-1.5 3.2,0 0,11.5 -1.8,0 0,-10 z"
         class="st935" /><path
         style="fill:#f1f2f2"
         id="path6664"
         d="m 142.8,497.3 -4.2,10.4 -1.9,0 4.2,-10 -6.7,0 0,-5 1.8,0 0,3.5 6.9,0 0,1.1 z"
         class="st935" /><path
         style="fill:#f1f2f2"
         id="path6666"
         d="m 146.4,497.6 -1.4,0 0,-1.5 3.2,0 0,11.5 -1.8,0 0,-10 z"
         class="st935" /><path
         style="fill:#f1f2f2"
         id="path6668"
         d="m 151.2,507.3 0.3,-1.4 c 1,0.3 2,0.4 2.8,0.4 1.1,0 1.9,-0.3 2.5,-0.8 0.6,-0.5 0.9,-1.3 0.9,-2.3 l 0,-5.7 -6,0 0,-1.5 7.8,0 0,6.7 c 0,1.6 -0.4,2.9 -1.3,3.7 -0.9,0.8 -2.1,1.2 -3.6,1.2 -1.1,0.2 -2.2,0 -3.4,-0.3 z"
         class="st935" /><path
         style="fill:#f1f2f2"
         id="path6670"
         d="m 165.2,505.6 c 0.6,0.3 1.3,0.5 2,0.6 0.7,0.1 1.3,0.2 2,0.2 0.9,0 1.8,-0.1 2.5,-0.4 0.7,-0.3 1.3,-0.7 1.7,-1.2 0.4,-0.5 0.6,-1.2 0.6,-2 l 0,-6.6 1.8,0 0,6.8 c 0,1.1 -0.3,2 -0.9,2.7 -0.6,0.7 -1.4,1.3 -2.4,1.7 -1,0.4 -2.1,0.6 -3.3,0.6 -1,0 -1.9,-0.1 -2.9,-0.3 -1,-0.2 -2,-0.6 -2.9,-1 l 0,-10.4 1.8,0 0,9.3 z m 3.3,-2.2 c 0.1,-0.4 0.2,-1 0.2,-1.6 l 0,-5.7 1.8,0 0,5.4 c 0,0.7 -0.1,1.2 -0.2,1.7 -0.1,0.5 -0.4,0.9 -0.8,1.3 l -1.5,-0.1 c 0.2,-0.2 0.4,-0.5 0.5,-1 z"
         class="st935" /><path
         style="fill:#f1f2f2"
         id="path6672"
         d="m 186.3,502.6 3.6,5 -2,0 -5.1,-7.1 c -0.7,0.4 -1,1.2 -1,2.2 l 0,4.8 -1.8,0 0,-4.2 c 0,-1 0.2,-1.8 0.5,-2.4 0.3,-0.6 0.9,-1.1 1.6,-1.4 l -2.5,-3.4 2,0 3.6,4.9 2.8,-4.9 2,0 -3.7,6.5 z"
         class="st935" /><path
         style="fill:#f1f2f2"
         id="path6674"
         d="m 201,497.3 -4.2,10.4 -1.9,0 4.2,-10 -6.7,0 0,-5 1.8,0 0,3.5 6.9,0 0,1.1 z"
         class="st935" /></g><polygon
       transform="translate(-88,-84.599998)"
       style="fill:#4b1a26"
       id="polygon6676"
       points="1118.9,503.5 1119.1,504.1 1099,514.8 "
       class="st933" /><polygon
       transform="translate(-88,-84.599998)"
       style="fill:#4b1a26"
       id="polygon6678"
       points="1141.5,490.7 1141.6,491.3 1122.8,501.3 "
       class="st933" /></g></svg>