<?xml version="1.0" encoding="UTF-8" standalone="no"?>
<svg
   xmlns:dc="http://purl.org/dc/elements/1.1/"
   xmlns:cc="http://creativecommons.org/ns#"
   xmlns:rdf="http://www.w3.org/1999/02/22-rdf-syntax-ns#"
   xmlns:svg="http://www.w3.org/2000/svg"
   xmlns="http://www.w3.org/2000/svg"
   version="1.1"
   id="svg7760"
   viewBox="0 0 60.252501 104.19419"
   height="29.405916mm"
   width="17.004595mm">
  <defs
     id="defs7762">
    <clipPath
       id="clipPath4338"
       clipPathUnits="userSpaceOnUse">
      <path
         id="path4340"
         d="m 75.061,386.67 612.187,0 0,338.935 -612.187,0 0,-338.935 z" />
    </clipPath>
    <clipPath
       id="clipPath4338-6"
       clipPathUnits="userSpaceOnUse">
      <path
         id="path4340-8"
         d="m 75.061,386.67 612.187,0 0,338.935 -612.187,0 0,-338.935 z" />
    </clipPath>
  </defs>
  <metadata
     id="metadata7765">
    <rdf:RDF>
      <cc:Work
         rdf:about="">
        <dc:format>image/svg+xml</dc:format>
        <dc:type
           rdf:resource="http://purl.org/dc/dcmitype/StillImage" />
        <dc:title></dc:title>
      </cc:Work>
    </rdf:RDF>
  </metadata>
  <g
     transform="translate(-3.71386,-3.497085)"
     id="layer1">
    <g
       id="g4334"
       transform="matrix(1.25,0,0,-1.25,-721.22539,903.15696)">
      <g
         clip-path="url(#clipPath4338-6)"
         id="g4336">
        <g
           transform="translate(627.6499,691.5974)"
           id="g4342">
          <path
             id="path4344"
             style="fill:#db982e;fill-opacity:1;fill-rule:nonzero;stroke:none"
             d="m 0,0 c 0,-18.86 -23.598,-54.332 -23.598,-54.332 0,0 -23.597,33.681 -23.597,54.332 0,15.258 10.565,27.627 23.597,27.627 C -10.565,27.627 0,15.258 0,0" />
        </g>
        <g
           transform="translate(627.6499,691.5974)"
           id="g4346">
          <path
             id="path4348"
             style="fill:none;stroke:#937b33;stroke-width:1.00699997;stroke-linecap:butt;stroke-linejoin:miter;stroke-miterlimit:10;stroke-dasharray:none;stroke-opacity:1"
             d="m 0,0 c 0,-18.86 -23.598,-54.332 -23.598,-54.332 0,0 -23.597,33.681 -23.597,54.332 0,15.258 10.565,27.627 23.597,27.627 C -10.565,27.627 0,15.258 0,0 Z" />
        </g>
      </g>
    </g>
    <text
       id="text4350"
       style="font-variant:normal;font-weight:normal;font-stretch:normal;font-size:20.14837456px;font-family:'Abigail';-inkscape-font-specification:Abigail;writing-mode:lr-tb;fill:#ffffff;fill-opacity:1;fill-rule:nonzero;stroke:none"
       x="12.69779"
       y="41.302341">
      <tspan
         id="tspan4352"
         y="41.302341"
         x="12.69779 16.969244 27.003134 31.435781 39.958542 44.229996">אירועי</tspan>
      <tspan
         id="tspan4354"
         y="58.085945"
         x="19.18556 23.819693 32.725285 37.157928">תוכן</tspan>
    </text>
  </g>
</svg>
