<?xml version="1.0" encoding="UTF-8" standalone="no"?>
<svg
   xmlns:dc="http://purl.org/dc/elements/1.1/"
   xmlns:cc="http://creativecommons.org/ns#"
   xmlns:rdf="http://www.w3.org/1999/02/22-rdf-syntax-ns#"
   xmlns:svg="http://www.w3.org/2000/svg"
   xmlns="http://www.w3.org/2000/svg"
   width="727.52386"
   height="418.33884"
   viewBox="0 0 727.52389 418.33883"
   id="svg5713"
   version="1.1">
  <defs
     id="defs5715">
    <clipPath
       clipPathUnits="userSpaceOnUse"
       id="clipPath4580">
      <path
         d="m 75.061,386.67 612.187,0 0,338.935 -612.187,0 0,-338.935 z"
         id="path4582" />
    </clipPath>
    <clipPath
       clipPathUnits="userSpaceOnUse"
       id="clipPath4560">
      <path
         d="m 75.061,386.67 612.187,0 0,338.935 -612.187,0 0,-338.935 z"
         id="path4562" />
    </clipPath>
    <clipPath
       clipPathUnits="userSpaceOnUse"
       id="clipPath4430">
      <path
         d="m 75.061,386.67 612.187,0 0,338.935 -612.187,0 0,-338.935 z"
         id="path4432" />
    </clipPath>
    <linearGradient
       x1="0"
       y1="0"
       x2="1"
       y2="0"
       gradientUnits="userSpaceOnUse"
       gradientTransform="matrix(8.6135683,15.539289,15.539289,-8.6135683,298.99314,512.4405)"
       spreadMethod="pad"
       id="linearGradient4406">
      <stop
         style="stop-opacity:1;stop-color:#a599d4"
         offset="0"
         id="stop4408" />
      <stop
         style="stop-opacity:1;stop-color:#a599d4"
         offset="0.0913979"
         id="stop4410" />
      <stop
         style="stop-opacity:1;stop-color:#3c2a73"
         offset="0.77329306"
         id="stop4412" />
      <stop
         style="stop-opacity:1;stop-color:#3c2a73"
         offset="0.919355"
         id="stop4414" />
      <stop
         style="stop-opacity:1;stop-color:#3c2a73"
         offset="1"
         id="stop4416" />
    </linearGradient>
    <clipPath
       clipPathUnits="userSpaceOnUse"
       id="clipPath4376">
      <path
         d="m 75.061,386.67 612.187,0 0,338.935 -612.187,0 0,-338.935 z"
         id="path4378" />
    </clipPath>
    <clipPath
       clipPathUnits="userSpaceOnUse"
       id="clipPath4338">
      <path
         d="m 75.061,386.67 612.187,0 0,338.935 -612.187,0 0,-338.935 z"
         id="path4340" />
    </clipPath>
    <linearGradient
       x1="0"
       y1="0"
       x2="1"
       y2="0"
       gradientUnits="userSpaceOnUse"
       gradientTransform="matrix(29.854604,53.859132,53.859132,-29.854604,361.30862,427.73518)"
       spreadMethod="pad"
       id="linearGradient4136">
      <stop
         style="stop-opacity:1;stop-color:#a599d4"
         offset="0"
         id="stop4138" />
      <stop
         style="stop-opacity:1;stop-color:#a599d4"
         offset="0.0913979"
         id="stop4140" />
      <stop
         style="stop-opacity:1;stop-color:#3c2a73"
         offset="0.77329306"
         id="stop4142" />
      <stop
         style="stop-opacity:1;stop-color:#3c2a73"
         offset="0.919355"
         id="stop4144" />
      <stop
         style="stop-opacity:1;stop-color:#3c2a73"
         offset="1"
         id="stop4146" />
    </linearGradient>
    <linearGradient
       x1="0"
       y1="0"
       x2="1"
       y2="0"
       gradientUnits="userSpaceOnUse"
       gradientTransform="matrix(17.274746,29.920736,29.920736,-17.274746,357.80184,478.71681)"
       spreadMethod="pad"
       id="linearGradient4098">
      <stop
         style="stop-opacity:1;stop-color:#a599d4"
         offset="0"
         id="stop4100" />
      <stop
         style="stop-opacity:1;stop-color:#a599d4"
         offset="0.532258"
         id="stop4102" />
      <stop
         style="stop-opacity:1;stop-color:#a599d4"
         offset="0.58085982"
         id="stop4104" />
      <stop
         style="stop-opacity:1;stop-color:#3c2a73"
         offset="0.870968"
         id="stop4106" />
      <stop
         style="stop-opacity:1;stop-color:#3c2a73"
         offset="1"
         id="stop4108" />
    </linearGradient>
    <linearGradient
       x1="0"
       y1="0"
       x2="1"
       y2="0"
       gradientUnits="userSpaceOnUse"
       gradientTransform="matrix(16.623718,29.989982,29.989982,-16.623718,253.38843,520.26046)"
       spreadMethod="pad"
       id="linearGradient4072">
      <stop
         style="stop-opacity:1;stop-color:#a599d4"
         offset="0"
         id="stop4074" />
      <stop
         style="stop-opacity:1;stop-color:#a599d4"
         offset="0.0913979"
         id="stop4076" />
      <stop
         style="stop-opacity:1;stop-color:#3c2a73"
         offset="0.77329306"
         id="stop4078" />
      <stop
         style="stop-opacity:1;stop-color:#3c2a73"
         offset="0.919355"
         id="stop4080" />
      <stop
         style="stop-opacity:1;stop-color:#3c2a73"
         offset="1"
         id="stop4082" />
    </linearGradient>
  </defs>
  <metadata
     id="metadata5718">
    <rdf:RDF>
      <cc:Work
         rdf:about="">
        <dc:format>image/svg+xml</dc:format>
        <dc:type
           rdf:resource="http://purl.org/dc/dcmitype/StillImage" />
        <dc:title></dc:title>
      </cc:Work>
    </rdf:RDF>
  </metadata>
  <g
     transform="matrix(1.2005,0,0,-1.2005,584.94854,83.514707)"
     id="g3988">
    <path
       id="path3990"
       style="fill:#ffffff;fill-opacity:1;fill-rule:nonzero;stroke:none"
       d="m 0,0 39.346,-19.701 -52.61,-22.611 -40.885,23.086 13.433,2.772 2.183,0.419 L 0,0 Z" />
  </g>
  <g
     transform="matrix(1.2005,0,0,-1.2005,677.40073,126.78435)"
     id="g3992">
    <path
       id="path3994"
       style="fill:#ffffff;fill-opacity:1;fill-rule:nonzero;stroke:none"
       d="m 0,0 39.346,-19.701 -52.61,-22.611 -40.885,23.086 13.432,2.772 2.183,0.419 L 0,0 Z" />
  </g>
  <g
     transform="matrix(1.2005,0,0,-1.2005,631.88017,106.86273)"
     id="g3996">
    <path
       id="path3998"
       style="fill:#db2e38;fill-opacity:1;fill-rule:nonzero;stroke:none"
       d="m 0,0 39.737,-19.701 -56.163,-21.939 -39.793,19.561 18.384,6.939 2.183,0.421 L 0,0 Z" />
  </g>
  <g
     transform="matrix(1.2005,0,0,-1.2005,584.94854,69.001857)"
     id="g4000">
    <path
       id="path4002"
       style="fill:#ffffff;fill-opacity:1;fill-rule:nonzero;stroke:none"
       d="m 0,0 39.346,-19.701 0,-12.089 L 0,-12.089 0,0 Z" />
  </g>
  <g
     transform="matrix(1.2005,0,0,-1.2005,584.94854,69.001857)"
     id="g4004">
    <path
       id="path4006"
       style="fill:none;stroke:#231f20;stroke-width:0.67199999;stroke-linecap:round;stroke-linejoin:round;stroke-miterlimit:10;stroke-dasharray:none;stroke-opacity:1"
       d="m 0,0 39.346,-19.701 0,-12.089 L 0,-12.089 0,0 Z" />
  </g>
  <g
     transform="matrix(1.2005,0,0,-1.2005,566.50502,134.37668)"
     id="g4008">
    <path
       id="path4010"
       style="fill:#ffffff;fill-opacity:1;fill-rule:nonzero;stroke:none"
       d="m 0,0 0,13.853 54.708,20.903 0,-12.089 L 0,0 Z" />
  </g>
  <g
     transform="matrix(1.2005,0,0,-1.2005,566.50502,134.37668)"
     id="g4012">
    <path
       id="path4014"
       style="fill:none;stroke:#231f20;stroke-width:0.67199999;stroke-linecap:round;stroke-linejoin:round;stroke-miterlimit:10;stroke-dasharray:none;stroke-opacity:1"
       d="m 0,0 0,13.853 54.708,20.903 0,-12.089 L 0,0 Z" />
  </g>
  <g
     transform="matrix(1.2005,0,0,-1.2005,679.63474,116.27774)"
     id="g4016">
    <path
       id="path4018"
       style="fill:#ffffff;fill-opacity:1;fill-rule:nonzero;stroke:none"
       d="m 0,0 39.555,-19.385 0,-12.089 L 0,-12.089 0,0 Z" />
  </g>
  <g
     transform="matrix(1.2005,0,0,-1.2005,679.63474,116.27774)"
     id="g4020">
    <path
       id="path4022"
       style="fill:none;stroke:#231f20;stroke-width:0.67199999;stroke-linecap:round;stroke-linejoin:round;stroke-miterlimit:10;stroke-dasharray:none;stroke-opacity:1"
       d="m 0,0 39.555,-19.385 0,-12.089 L 0,-12.089 0,0 Z" />
  </g>
  <g
     transform="matrix(1.2005,0,0,-1.2005,661.47694,181.27481)"
     id="g4024">
    <path
       id="path4026"
       style="fill:#ffffff;fill-opacity:1;fill-rule:nonzero;stroke:none"
       d="m 0,0 0,13.657 54.68,21.099 0,-12.089 L 0,0 Z" />
  </g>
  <g
     transform="matrix(1.2005,0,0,-1.2005,661.47694,181.27481)"
     id="g4028">
    <path
       id="path4030"
       style="fill:none;stroke:#231f20;stroke-width:0.67199999;stroke-linecap:round;stroke-linejoin:round;stroke-miterlimit:10;stroke-dasharray:none;stroke-opacity:1"
       d="m 0,0 0,13.657 54.68,21.099 0,-12.089 L 0,0 Z" />
  </g>
  <g
     transform="matrix(1.2005,0,0,-1.2005,631.84656,92.518087)"
     id="g4032">
    <path
       id="path4034"
       style="fill:#ffffff;fill-opacity:1;fill-rule:nonzero;stroke:none"
       d="m 0,0 39.737,-19.701 0,-12.089 L 0,-12.089 0,0 Z" />
  </g>
  <g
     transform="matrix(1.2005,0,0,-1.2005,631.84656,92.518087)"
     id="g4036">
    <path
       id="path4038"
       style="fill:none;stroke:#231f20;stroke-width:0.67199999;stroke-linecap:round;stroke-linejoin:round;stroke-miterlimit:10;stroke-dasharray:none;stroke-opacity:1"
       d="m 0,0 39.737,-19.701 0,-12.089 L 0,-12.089 0,0 Z" />
  </g>
  <g
     transform="matrix(1.2005,0,0,-1.2005,612.05919,156.85148)"
     id="g4040">
    <path
       id="path4042"
       style="fill:#ffffff;fill-opacity:1;fill-rule:nonzero;stroke:none"
       d="m 0,0 0,12.313 56.219,21.575 0,-12.089 L 0,0 Z" />
  </g>
  <g
     transform="matrix(1.2005,0,0,-1.2005,612.05919,156.85148)"
     id="g4044">
    <path
       id="path4046"
       style="fill:none;stroke:#231f20;stroke-width:0.67199999;stroke-linecap:round;stroke-linejoin:round;stroke-miterlimit:10;stroke-dasharray:none;stroke-opacity:1"
       d="m 0,0 0,12.313 56.219,21.575 0,-12.089 L 0,0 Z" />
  </g>
  <g
     transform="matrix(1.2005,0,0,-1.2005,437.40121,127.45628)"
     id="g4048">
    <path
       id="path4050"
       style="fill:#db2e38;fill-opacity:1;fill-rule:nonzero;stroke:none"
       d="m 0,0 83.055,-39.961 -30.669,-25.017 -0.225,-5.43 -94.137,-48.131 -150.329,71.415 L 0,0 Z" />
  </g>
  <g
     transform="matrix(1.2005,0,0,-1.2005,58.353903,221.35303)"
     id="g4052">
    <path
       id="path4054"
       style="fill:#a599d4;fill-opacity:1;fill-rule:nonzero;stroke:none"
       d="M 0,0 -17.126,-0.336 -25.101,-5.877 -8.563,-7.052 0,0 Z" />
  </g>
  <g
     transform="matrix(1.2005,0,0,-1.2005,631.96409,193.28486)"
     id="g4056">
    <path
       id="path4058"
       style="fill:#a599d4;fill-opacity:1;fill-rule:nonzero;stroke:none"
       d="m 0,0 24.619,10.033 -118.447,58.786 29.983,12.712 -42.564,21.239 -33.72,-12.229 -276.479,-81.712 -108.047,-54.793 266.994,-133.482 145.515,110.144 -43.094,18.246 -49.364,-30.335 -37.386,18.582 -37.162,-21.044 -1.581,3.064 5.386,15.741 -23.058,10.746 -33.357,0 -2.91,2.239 16.79,7.835 -25.074,11.641 18.134,7.164 -51.267,27.536 233.721,67.385 L 0,0 Z" />
  </g>
  <g
     id="g4060"
     transform="matrix(1.2005,0,0,-1.2005,-95.90468,890.03335)">
    <g
       id="g4062">
      <g
         id="g4068">
        <g
           id="g4070">
          <path
             id="path4084"
             style="fill:url(#linearGradient4072);stroke:none"
             d="m 219.806,540.967 1.68,-3.022 42.759,1.119 39.708,-8.87 -34.56,20.399 -49.587,-9.626 z" />
        </g>
      </g>
    </g>
  </g>
  <g
     id="g4086"
     transform="matrix(1.2005,0,0,-1.2005,-95.90468,890.03335)">
    <g
       id="g4088">
      <g
         id="g4094">
        <g
           id="g4096">
          <path
             id="path4110"
             style="fill:url(#linearGradient4098);stroke:none"
             d="m 345.929,504.252 11.557,-25.354 1.961,6.297 -7.893,14.691 30.671,-13.432 16.007,8.815 -49.531,21.156 -2.772,-12.173 z" />
        </g>
      </g>
    </g>
  </g>
  <g
     transform="matrix(1.2005,0,0,-1.2005,519.10328,110.65907)"
     id="g4112">
    <path
       id="path4114"
       style="fill:#ffffff;fill-opacity:1;fill-rule:nonzero;stroke:none"
       d="m 0,0 0,13.656 54.848,21.043 0,-12.089 L 0,0 Z" />
  </g>
  <g
     transform="matrix(1.2005,0,0,-1.2005,519.10328,110.65907)"
     id="g4116">
    <path
       id="path4118"
       style="fill:none;stroke:#231f20;stroke-width:0.67199999;stroke-linecap:round;stroke-linejoin:round;stroke-miterlimit:10;stroke-dasharray:none;stroke-opacity:1"
       d="m 0,0 0,13.656 54.848,21.043 0,-12.089 L 0,0 Z" />
  </g>
  <g
     transform="matrix(1.2005,0,0,-1.2005,301.04098,271.67776)"
     id="g4120">
    <path
       id="path4122"
       style="fill:#231f20;fill-opacity:1;fill-rule:nonzero;stroke:none"
       d="M 0,0 -8.478,-15.489 -3.064,-18.554 23.758,-4.282 0,0 Z" />
  </g>
  <g
     id="g4124"
     transform="matrix(1.2005,0,0,-1.2005,-95.90468,890.03335)">
    <g
       id="g4126">
      <g
         id="g4132">
        <g
           id="g4134">
          <path
             id="path4148"
             style="fill:url(#linearGradient4136);stroke:none"
             d="m 336.555,441.456 9.626,-4.813 39.374,23.451 13.236,-5.428 17.126,13.207 -21.044,5.373 -58.318,-31.79 z" />
        </g>
      </g>
    </g>
  </g>
  <g
     transform="matrix(1.2005,0,0,-1.2005,358.11815,346.627)"
     id="g4150">
    <path
       id="path4152"
       style="fill:#ffffff;fill-opacity:1;fill-rule:nonzero;stroke:#231f20;stroke-width:0.67199999;stroke-linecap:round;stroke-linejoin:round;stroke-miterlimit:10;stroke-dasharray:none;stroke-opacity:1"
       d="m 0,0 -2.294,1.455 0,15.783 4.743,3.456" />
  </g>
  <g
     transform="matrix(1.2005,0,0,-1.2005,361.88075,322.97655)"
     id="g4154">
    <path
       id="path4156"
       style="fill:#ffffff;fill-opacity:1;fill-rule:nonzero;stroke:none"
       d="m 0,0 0,-17.909 -3.134,-1.792 0,18.246 L 0,0 Z" />
  </g>
  <g
     transform="matrix(1.2005,0,0,-1.2005,361.88075,322.97655)"
     id="g4158">
    <path
       id="path4160"
       style="fill:none;stroke:#231f20;stroke-width:0.67199999;stroke-linecap:round;stroke-linejoin:round;stroke-miterlimit:10;stroke-dasharray:none;stroke-opacity:1"
       d="m 0,0 0,-17.909 -3.134,-1.792 0,18.246 L 0,0 Z" />
  </g>
  <g
     transform="matrix(1.2005,0,0,-1.2005,249.64133,246.38104)"
     id="g4162">
    <path
       id="path4164"
       style="fill:#231f20;fill-opacity:1;fill-rule:nonzero;stroke:none"
       d="m 0,0 -17.063,-7.702 3.77,-2.372 34.03,-0.251 L 0,0 Z" />
  </g>
  <g
     transform="matrix(1.2005,0,0,-1.2005,445.59823,254.57806)"
     id="g4166">
    <path
       id="path4168"
       style="fill:#db2e38;fill-opacity:1;fill-rule:nonzero;stroke:none"
       d="m 0,0 -49.363,-30.334 -159.844,78.579 -13.04,-4.815 36.994,-16.005 -1.343,-3.358 -1.119,-5.598 71.079,-34.476 2.798,-3.134 1.375,0.621 18.885,-31.907 8.844,3.862 -20.729,31.201 3.042,1.372 39.401,-22.835 -58.653,-29.102 16.119,-9.18 35.818,18.134 39.625,-16.566 73.206,55.296 L 0,0 Z" />
  </g>
  <g
     transform="matrix(1.2005,0,0,-1.2005,445.59823,254.57806)"
     id="g4170">
    <path
       id="path4172"
       style="fill:none;stroke:#231f20;stroke-width:0.67199999;stroke-linecap:round;stroke-linejoin:round;stroke-miterlimit:10;stroke-dasharray:none;stroke-opacity:1"
       d="m 0,0 -49.363,-30.334 -159.844,78.579 -13.04,-4.815 36.994,-16.005 -1.343,-3.358 -1.119,-5.598 71.079,-34.476 2.798,-3.134 1.375,0.621 18.885,-31.907 8.844,3.862 -20.729,31.201 3.042,1.372 39.401,-22.835 -58.653,-29.102 16.119,-9.18 35.818,18.134 39.625,-16.566 73.206,55.296 L 0,0 Z" />
  </g>
  <g
     transform="matrix(1.2005,0,0,-1.2005,318.93011,265.78185)"
     id="g4174">
    <path
       id="path4176"
       style="fill:#ffffff;fill-opacity:1;fill-rule:nonzero;stroke:none"
       d="M 0,0 2.266,0.84 2.309,-6.674 0.798,-7.346 0,0 Z" />
  </g>
  <g
     transform="matrix(1.2005,0,0,-1.2005,318.93011,265.78185)"
     id="g4178">
    <path
       id="path4180"
       style="fill:none;stroke:#231f20;stroke-width:0.67199999;stroke-linecap:round;stroke-linejoin:round;stroke-miterlimit:10;stroke-dasharray:none;stroke-opacity:1"
       d="M 0,0 2.266,0.84 2.309,-6.674 0.798,-7.346 0,0 Z" />
  </g>
  <g
     transform="matrix(1.2005,0,0,-1.2005,369.9013,289.64239)"
     id="g4182">
    <path
       id="path4184"
       style="fill:#ffffff;fill-opacity:1;fill-rule:nonzero;stroke:none"
       d="m 0,0 -40.15,20.674 0,-7.473 L 0.021,-7.639 0,0 Z" />
  </g>
  <g
     transform="matrix(1.2005,0,0,-1.2005,369.9013,289.64239)"
     id="g4186">
    <path
       id="path4188"
       style="fill:none;stroke:#231f20;stroke-width:0.67199999;stroke-linecap:round;stroke-linejoin:round;stroke-miterlimit:10;stroke-dasharray:none;stroke-opacity:1"
       d="m 0,0 -40.15,20.674 0,-7.473 L 0.021,-7.639 0,0 Z" />
  </g>
  <g
     transform="matrix(1.2005,0,0,-1.2005,318.87969,265.78185)"
     id="g4190">
    <path
       id="path4192"
       style="fill:#ffffff;fill-opacity:1;fill-rule:nonzero;stroke:none"
       d="m 0,0 0.083,-6.086 20.737,-31.147 0,8.395 L 0,0 Z" />
  </g>
  <g
     transform="matrix(1.2005,0,0,-1.2005,318.87969,265.78185)"
     id="g4194">
    <path
       id="path4196"
       style="fill:none;stroke:#231f20;stroke-width:0.67199999;stroke-linecap:round;stroke-linejoin:round;stroke-miterlimit:10;stroke-dasharray:none;stroke-opacity:1"
       d="m 0,0 0.083,-6.086 20.737,-31.147 0,8.395 L 0,0 Z" />
  </g>
  <g
     transform="matrix(1.2005,0,0,-1.2005,172.74342,228.03837)"
     id="g4198">
    <path
       id="path4200"
       style="fill:#ffffff;fill-opacity:1;fill-rule:nonzero;stroke:none"
       d="M 0,0 40.8,7.891 40.8,0.168 0,-7.891 0,0 Z" />
  </g>
  <g
     transform="matrix(1.2005,0,0,-1.2005,172.74342,228.03837)"
     id="g4202">
    <path
       id="path4204"
       style="fill:none;stroke:#231f20;stroke-width:0.67199999;stroke-linecap:round;stroke-linejoin:round;stroke-miterlimit:10;stroke-dasharray:none;stroke-opacity:1"
       d="M 0,0 40.8,7.891 40.8,0.168 0,-7.891 0,0 Z" />
  </g>
  <g
     transform="matrix(1.2005,0,0,-1.2005,221.7243,218.56474)"
     id="g4206">
    <path
       id="path4208"
       style="fill:#ffffff;fill-opacity:1;fill-rule:nonzero;stroke:none"
       d="m 0,0 1.679,1.175 0,-5.037 L 0,-7.724 0,0 Z" />
  </g>
  <g
     transform="matrix(1.2005,0,0,-1.2005,221.7243,218.56474)"
     id="g4210">
    <path
       id="path4212"
       style="fill:none;stroke:#231f20;stroke-width:0.67199999;stroke-linecap:round;stroke-linejoin:round;stroke-miterlimit:10;stroke-dasharray:none;stroke-opacity:1"
       d="m 0,0 1.679,1.175 0,-5.037 L 0,-7.724 0,0 Z" />
  </g>
  <g
     transform="matrix(1.2005,0,0,-1.2005,170.5261,242.34965)"
     id="g4214">
    <path
       id="path4216"
       style="fill:#ffffff;fill-opacity:1;fill-rule:nonzero;stroke:none"
       d="m 0,0 0.84,6.716 41.723,8.227 70.603,-34.084 22.49,-34.93 -0.102,-6.542 -23.059,34.42 L 42.469,7.772 0,0 Z" />
  </g>
  <g
     transform="matrix(1.2005,0,0,-1.2005,170.5261,242.34965)"
     id="g4218">
    <path
       id="path4220"
       style="fill:none;stroke:#231f20;stroke-width:0.67199999;stroke-linecap:round;stroke-linejoin:round;stroke-miterlimit:10;stroke-dasharray:none;stroke-opacity:1"
       d="m 0,0 0.84,6.716 41.723,8.227 70.603,-34.084 22.49,-34.93 -0.102,-6.542 -23.059,34.42 L 42.469,7.772 0,0 Z" />
  </g>
  <g
     transform="matrix(1.2005,0,0,-1.2005,55.700078,200.57249)"
     id="g4222">
    <path
       id="path4224"
       style="fill:#ffffff;fill-opacity:1;fill-rule:nonzero;stroke:none"
       d="m 0,0 -18.777,-3.038 0,-14.859 L 0,-17.389 0,0 Z" />
  </g>
  <g
     transform="matrix(1.2005,0,0,-1.2005,55.700078,200.57249)"
     id="g4226">
    <path
       id="path4228"
       style="fill:none;stroke:#231f20;stroke-width:0.67199999;stroke-linecap:round;stroke-linejoin:round;stroke-miterlimit:10;stroke-dasharray:none;stroke-opacity:1"
       d="m 0,0 -18.777,-3.038 0,-14.859 L 0,-17.389 0,0 Z" />
  </g>
  <g
     transform="matrix(1.2005,0,0,-1.2005,41.388821,207.94164)"
     id="g4230">
    <path
       id="path4232"
       style="fill:#ffffff;fill-opacity:1;fill-rule:nonzero;stroke:none"
       d="m 0,0 -13.264,-2.86 0,-14.832 L 0,-17.321 0,0 Z" />
  </g>
  <g
     transform="matrix(1.2005,0,0,-1.2005,41.388821,207.94164)"
     id="g4234">
    <path
       id="path4236"
       style="fill:none;stroke:#231f20;stroke-width:0.67199999;stroke-linecap:round;stroke-linejoin:round;stroke-miterlimit:10;stroke-dasharray:none;stroke-opacity:1"
       d="m 0,0 -13.264,-2.86 0,-14.832 L 0,-17.321 0,0 Z" />
  </g>
  <g
     transform="matrix(1.2005,0,0,-1.2005,0.40336799,229.04607)"
     id="g4238">
    <path
       id="path4240"
       style="fill:#ffffff;fill-opacity:1;fill-rule:nonzero;stroke:none"
       d="m 0,0 0,-17.126 34.141,17.384 0,17.322 L 0,0 Z" />
  </g>
  <g
     transform="matrix(1.2005,0,0,-1.2005,0.40336799,229.04607)"
     id="g4242">
    <path
       id="path4244"
       style="fill:none;stroke:#231f20;stroke-width:0.67199999;stroke-linecap:round;stroke-linejoin:round;stroke-miterlimit:10;stroke-dasharray:none;stroke-opacity:1"
       d="m 0,0 0,-17.126 34.141,17.384 0,17.322 L 0,0 Z" />
  </g>
  <g
     transform="matrix(1.2005,0,0,-1.2005,519.00244,94.433007)"
     id="g4246">
    <path
       id="path4248"
       style="fill:#ffffff;fill-opacity:1;fill-rule:nonzero;stroke:none"
       d="M 0,0 118.735,-58.626 118.694,-72.268 -0.056,-13.656 0,0 Z" />
  </g>
  <g
     transform="matrix(1.2005,0,0,-1.2005,519.00244,94.433007)"
     id="g4250">
    <path
       id="path4252"
       style="fill:none;stroke:#231f20;stroke-width:0.67199999;stroke-linecap:round;stroke-linejoin:round;stroke-miterlimit:10;stroke-dasharray:none;stroke-opacity:1"
       d="M 0,0 118.735,-58.626 118.694,-72.268 -0.056,-13.656 0,0 Z" />
  </g>
  <g
     transform="matrix(1.2005,0,0,-1.2005,437.40121,111.33097)"
     id="g4254">
    <path
       id="path4256"
       style="fill:#ffffff;fill-opacity:1;fill-rule:nonzero;stroke:none"
       d="m 0,0 -214.02,-49.699 0,-16.455 L 0,-13.432 0,0 Z" />
  </g>
  <g
     transform="matrix(1.2005,0,0,-1.2005,437.40121,111.33097)"
     id="g4258">
    <path
       id="path4260"
       style="fill:none;stroke:#231f20;stroke-width:0.67199999;stroke-linecap:round;stroke-linejoin:round;stroke-miterlimit:10;stroke-dasharray:none;stroke-opacity:1"
       d="m 0,0 -214.02,-49.699 0,-16.455 L 0,-13.432 0,0 Z" />
  </g>
  <g
     transform="matrix(1.2005,0,0,-1.2005,437.40121,111.33097)"
     id="g4262">
    <path
       id="path4264"
       style="fill:#ffffff;fill-opacity:1;fill-rule:nonzero;stroke:none"
       d="M 0,0 21.995,6.156 21.939,-12.929 0,-13.432 0,0 Z" />
  </g>
  <g
     transform="matrix(1.2005,0,0,-1.2005,437.40121,111.33097)"
     id="g4266">
    <path
       id="path4268"
       style="fill:none;stroke:#231f20;stroke-width:0.67199999;stroke-linecap:round;stroke-linejoin:round;stroke-miterlimit:10;stroke-dasharray:none;stroke-opacity:1"
       d="M 0,0 21.995,6.156 21.939,-12.929 0,-13.432 0,0 Z" />
  </g>
  <g
     transform="matrix(1.2005,0,0,-1.2005,180.4702,190.74843)"
     id="g4270">
    <path
       id="path4272"
       style="fill:#ffffff;fill-opacity:1;fill-rule:nonzero;stroke:none"
       d="m 0,0 0,16.454 172.044,-82.272 0,-17.686 L 0,0 Z" />
  </g>
  <g
     transform="matrix(1.2005,0,0,-1.2005,180.4702,190.74843)"
     id="g4274">
    <path
       id="path4276"
       style="fill:none;stroke:#231f20;stroke-width:0.67199999;stroke-linecap:round;stroke-linejoin:round;stroke-miterlimit:10;stroke-dasharray:none;stroke-opacity:1"
       d="m 0,0 0,16.454 172.044,-82.272 0,-17.686 L 0,0 Z" />
  </g>
  <g
     transform="matrix(1.2005,0,0,-1.2005,0.40336799,229.0463)"
     id="g4278">
    <path
       id="path4280"
       style="fill:#ffffff;fill-opacity:1;fill-rule:nonzero;stroke:none"
       d="M 0,0 270.212,-132.979 268.42,-149.658 0,-17.126 0,0 Z" />
  </g>
  <g
     transform="matrix(1.2005,0,0,-1.2005,0.40336799,229.0463)"
     id="g4282">
    <path
       id="path4284"
       style="fill:none;stroke:#231f20;stroke-width:0.67199999;stroke-linecap:round;stroke-linejoin:round;stroke-miterlimit:10;stroke-dasharray:none;stroke-opacity:1"
       d="M 0,0 270.212,-132.979 268.42,-149.658 0,-17.126 0,0 Z" />
  </g>
  <g
     transform="matrix(1.2005,0,0,-1.2005,463.80656,103.94012)"
     id="g4286">
    <path
       id="path4288"
       style="fill:#ffffff;fill-opacity:1;fill-rule:nonzero;stroke:none"
       d="M 0,0 91.283,-44.774 91.361,-60.432 -0.056,-19.085 0,0 Z" />
  </g>
  <g
     transform="matrix(1.2005,0,0,-1.2005,463.80656,103.94012)"
     id="g4290">
    <path
       id="path4292"
       style="fill:none;stroke:#231f20;stroke-width:0.67199999;stroke-linecap:round;stroke-linejoin:round;stroke-miterlimit:10;stroke-dasharray:none;stroke-opacity:1"
       d="M 0,0 91.283,-44.774 91.361,-60.432 -0.056,-19.085 0,0 Z" />
  </g>
  <g
     transform="matrix(1.2005,0,0,-1.2005,437.40121,111.33097)"
     id="g4294">
    <path
       id="path4296"
       style="fill:#ffffff;fill-opacity:1;fill-rule:nonzero;stroke:none"
       d="m 0,0 91.183,-44.306 0,-13.117 L 0,-13.432 0,0 Z" />
  </g>
  <g
     transform="matrix(1.2005,0,0,-1.2005,437.40121,111.33097)"
     id="g4298">
    <path
       id="path4300"
       style="fill:none;stroke:#231f20;stroke-width:0.67199999;stroke-linecap:round;stroke-linejoin:round;stroke-miterlimit:10;stroke-dasharray:none;stroke-opacity:1"
       d="m 0,0 91.183,-44.306 0,-13.117 L 0,-13.432 0,0 Z" />
  </g>
  <g
     transform="matrix(1.2005,0,0,-1.2005,560.96195,153.66007)"
     id="g4302">
    <path
       id="path4304"
       style="fill:#ffffff;fill-opacity:1;fill-rule:nonzero;stroke:none"
       d="m 0,0 -50.539,-43.151 0,-15.783 L 0.007,-18.023 0,0 Z" />
  </g>
  <g
     transform="matrix(1.2005,0,0,-1.2005,560.96195,153.66007)"
     id="g4306">
    <path
       id="path4308"
       style="fill:none;stroke:#231f20;stroke-width:0.67199999;stroke-linecap:round;stroke-linejoin:round;stroke-miterlimit:10;stroke-dasharray:none;stroke-opacity:1"
       d="m 0,0 -50.539,-43.151 0,-15.783 L 0.007,-18.023 0,0 Z" />
  </g>
  <g
     transform="matrix(1.2005,0,0,-1.2005,573.39204,157.69135)"
     id="g4310">
    <path
       id="path4312"
       style="fill:#ffffff;fill-opacity:1;fill-rule:nonzero;stroke:none"
       d="m 0,0 -49.475,-44.102 0,-15.336 L 0.056,-15.657 0,0 Z" />
  </g>
  <g
     transform="matrix(1.2005,0,0,-1.2005,573.39204,157.69135)"
     id="g4314">
    <path
       id="path4316"
       style="fill:none;stroke:#231f20;stroke-width:0.67199999;stroke-linecap:round;stroke-linejoin:round;stroke-miterlimit:10;stroke-dasharray:none;stroke-opacity:1"
       d="m 0,0 -49.475,-44.102 0,-15.336 L 0.056,-15.657 0,0 Z" />
  </g>
  <g
     transform="matrix(1.2005,0,0,-1.2005,387.00938,269.76283)"
     id="g4318">
    <path
       id="path4320"
       style="fill:#ffffff;fill-opacity:1;fill-rule:nonzero;stroke:none"
       d="m 0,0 98.615,51.938 0,-16.567 L 0,-17.686 0,0 Z" />
  </g>
  <g
     transform="matrix(1.2005,0,0,-1.2005,387.00938,269.76283)"
     id="g4322">
    <path
       id="path4324"
       style="fill:none;stroke:#231f20;stroke-width:0.67199999;stroke-linecap:round;stroke-linejoin:round;stroke-miterlimit:10;stroke-dasharray:none;stroke-opacity:1"
       d="m 0,0 98.615,51.938 0,-16.567 L 0,-17.686 0,0 Z" />
  </g>
  <g
     transform="matrix(1.2005,0,0,-1.2005,513.99683,210.6364)"
     id="g4326">
    <path
       id="path4328"
       style="fill:#ffffff;fill-opacity:1;fill-rule:nonzero;stroke:none"
       d="m 0,0 -7.163,2.686 0,-16.566 L 0,-15.336 0,0 Z" />
  </g>
  <g
     transform="matrix(1.2005,0,0,-1.2005,513.99683,210.6364)"
     id="g4330">
    <path
       id="path4332"
       style="fill:none;stroke:#231f20;stroke-width:0.67199999;stroke-linecap:round;stroke-linejoin:round;stroke-miterlimit:10;stroke-dasharray:none;stroke-opacity:1"
       d="m 0,0 -7.163,2.686 0,-16.566 L 0,-15.336 0,0 Z" />
  </g>
  <text
     id="text4350"
     style="font-variant:normal;font-weight:normal;font-stretch:normal;font-size:19.3504982px;font-family:Abigail;-inkscape-font-specification:Abigail;writing-mode:lr-tb;fill:#ffffff;fill-opacity:1;fill-rule:nonzero;stroke:none"
     x="608.95508"
     y="62.308273">
    <tspan
       id="tspan4352"
       y="62.308273"
       x="608.95508 613.05743 622.69397 626.95105 635.13629 639.23865">אירועי</tspan>
    <tspan
       id="tspan4354"
       y="78.427177"
       x="615.18591 619.6366 628.18951 632.44659">תוכן</tspan>
  </text>
  <g
     transform="matrix(1.2005,0,0,-1.2005,178.79034,195.78765)"
     id="g4356">
    <path
       id="path4358"
       style="fill:#ffffff;fill-opacity:1;fill-rule:nonzero;stroke:none"
       d="M 0,0 11.753,4.254 11.81,-1.119 0,-5.541 0,0 Z" />
  </g>
  <g
     transform="matrix(1.2005,0,0,-1.2005,178.79034,195.78765)"
     id="g4360">
    <path
       id="path4362"
       style="fill:none;stroke:#231f20;stroke-width:0.67199999;stroke-linecap:round;stroke-linejoin:round;stroke-miterlimit:10;stroke-dasharray:none;stroke-opacity:1"
       d="M 0,0 11.753,4.254 11.81,-1.119 0,-5.541 0,0 Z" />
  </g>
  <g
     transform="matrix(1.2005,0,0,-1.2005,223.73994,223.20083)"
     id="g4364">
    <path
       id="path4366"
       style="fill:#ffffff;fill-opacity:1;fill-rule:nonzero;stroke:none"
       d="m 0,0 0,5.037 -37.442,17.798 0,-5.541 L 0,0 Z" />
  </g>
  <g
     transform="matrix(1.2005,0,0,-1.2005,223.73994,223.20083)"
     id="g4368">
    <path
       id="path4370"
       style="fill:none;stroke:#231f20;stroke-width:0.67199999;stroke-linecap:round;stroke-linejoin:round;stroke-miterlimit:10;stroke-dasharray:none;stroke-opacity:1"
       d="m 0,0 0,5.037 -37.442,17.798 0,-5.541 L 0,0 Z" />
  </g>
  <g
     id="g4372"
     transform="matrix(1.2005,0,0,-1.2005,-95.90468,890.03335)">
    <g
       clip-path="url(#clipPath4376)"
       id="g4374">
      <g
         transform="translate(667.6107,669.4342)"
         id="g4380">
        <path
           id="path4382"
           style="fill:#ffffff;fill-opacity:1;fill-rule:nonzero;stroke:none"
           d="m 0,0 c 0,-18.86 -23.598,-54.332 -23.598,-54.332 0,0 -23.597,33.681 -23.597,54.332 0,15.258 10.565,27.627 23.597,27.627 C -10.564,27.627 0,15.258 0,0" />
      </g>
      <g
         transform="translate(667.6107,669.4342)"
         id="g4384">
        <path
           id="path4386"
           style="fill:none;stroke:#231f20;stroke-width:1.00699997;stroke-linecap:butt;stroke-linejoin:round;stroke-miterlimit:10;stroke-dasharray:none;stroke-opacity:1"
           d="m 0,0 c 0,-18.86 -23.598,-54.332 -23.598,-54.332 0,0 -23.597,33.681 -23.597,54.332 0,15.258 10.565,27.627 23.597,27.627 C -10.564,27.627 0,15.258 0,0 Z" />
      </g>
    </g>
  </g>
  <text
     id="text4388"
     style="font-variant:normal;font-weight:normal;font-stretch:normal;font-size:19.3504982px;font-family:Abigail;-inkscape-font-specification:Abigail;writing-mode:lr-tb;fill:#231f20;fill-opacity:1;fill-rule:nonzero;stroke:none"
     x="656.91864"
     y="88.915085">
    <tspan
       id="tspan4390"
       y="88.915085"
       x="656.91864 667.15509 671.41217 681.41638 685.51868">שיפוט</tspan>
    <tspan
       id="tspan4392"
       y="105.03403"
       x="653.39691 657.49915 665.81989 675.8241 686.25403 690.51111">קוספלי</tspan>
  </text>
  <g
     id="g4394"
     transform="matrix(1.2005,0,0,-1.2005,-95.90468,890.03335)">
    <g
       id="g4396">
      <g
         id="g4402">
        <g
           id="g4404">
          <path
             id="path4418"
             style="fill:url(#linearGradient4406);stroke:none"
             d="m 274.57,526.081 48.888,-27.201 8.136,15.803 -30.298,14.642 -26.726,-3.244 z" />
        </g>
      </g>
    </g>
  </g>
  <text
     id="text4420"
     style="font-variant:normal;font-weight:normal;font-stretch:normal;font-size:19.35046577px;font-family:Abigail;-inkscape-font-specification:Abigail;writing-mode:lr-tb;fill:#231f20;fill-opacity:1;fill-rule:nonzero;stroke:none"
     transform="matrix(0.87461926,0.48481043,-0.48481043,0.87461926,0,0)"
     x="316.66492"
     y="130.95108">
    <tspan
       id="tspan4422"
       y="130.95108"
       x="316.66492 326.70786 334.64151 344.2587 354.76599 362.69974 366.70523 376.22568 384.72055 388.43582 396.23404">ירידה למפלס</tspan>
    <tspan
       id="tspan4424"
       y="150.30156"
       x="331.50671 335.57031 339.4404 350.19931 360.80334 371.56223 381.08261">התחתון</tspan>
  </text>
  <g
     id="g4426"
     transform="matrix(1.2005,0,0,-1.2005,-95.90468,890.03335)">
    <g
       clip-path="url(#clipPath4430)"
       id="g4428">
      <text
         id="text4434"
         style="font-variant:normal;font-weight:normal;font-stretch:normal;font-size:16.11867905px;font-family:Abigail;-inkscape-font-specification:Abigail;writing-mode:lr-tb;fill:#231f20;fill-opacity:1;fill-rule:nonzero;stroke:none"
         transform="matrix(0.80901795,0.58778393,0.58778393,-0.80901795,390.0856,392.198)">
        <tspan
           id="tspan4436"
           y="0"
           x="0 8.7846794 11.879466 20.841452 24.065186 30.561014">שרותים</tspan>
      </text>
    </g>
  </g>
  <text
     id="text4438"
     style="font-variant:normal;font-weight:normal;font-stretch:normal;font-size:19.35045052px;font-family:Abigail;-inkscape-font-specification:Abigail;writing-mode:lr-tb;fill:#231f20;fill-opacity:1;fill-rule:nonzero;stroke:none"
     transform="matrix(0.82903922,-0.55919047,0.55919047,0.82903922,0,0)"
     x="-116.16739"
     y="182.36559">
    <tspan
       id="tspan4440"
       y="182.36559"
       x="-116.16739 -105.62137 -101.90609 -91.14727 -87.277153 -79.478905">שרותים</tspan>
  </text>
  <text
     id="text4442"
     style="font-variant:normal;font-weight:normal;font-stretch:normal;font-size:14.51287365px;font-family:Abigail;-inkscape-font-specification:Abigail;writing-mode:lr-tb;fill:#ffffff;fill-opacity:1;fill-rule:nonzero;stroke:none"
     transform="matrix(0.89100661,-0.45399032,0.45399032,0.89100661,0,0)"
     x="137.66489"
     y="446.18359">
    <tspan
       id="tspan4444"
       y="446.18359"
       x="137.66489 145.73404 148.52051 154.47078 161.40796">מעלית</tspan>
  </text>
  <g
     transform="matrix(1.2005,0,0,-1.2005,250.34675,224.25896)"
     id="g4446">
    <path
       id="path4448"
       style="fill:none;stroke:#231f20;stroke-width:0.67199999;stroke-linecap:round;stroke-linejoin:round;stroke-miterlimit:10;stroke-dasharray:none;stroke-opacity:1"
       d="m 0,0 0,8.101 35.595,-16.79 0,-8.71" />
  </g>
  <g
     transform="matrix(1.2005,0,0,-1.2005,631.7121,192.93203)"
     id="g4450">
    <path
       id="path4452"
       style="fill:none;stroke:#231f20;stroke-width:0.67199999;stroke-linecap:round;stroke-linejoin:round;stroke-miterlimit:10;stroke-dasharray:none;stroke-opacity:1"
       d="M 0,0 -48.58,23.646" />
  </g>
  <g
     transform="matrix(1.2005,0,0,-1.2005,537.78174,120.60313)"
     id="g4454">
    <path
       id="path4456"
       style="fill:none;stroke:#231f20;stroke-width:0.67199999;stroke-linecap:round;stroke-linejoin:round;stroke-miterlimit:10;stroke-dasharray:none;stroke-opacity:1"
       d="M 0,0 0,7.724 4.03,5.877 3.973,-1.847" />
  </g>
  <g
     transform="matrix(1.2005,0,0,-1.2005,589.78607,145.59739)"
     id="g4458">
    <path
       id="path4460"
       style="fill:none;stroke:#231f20;stroke-width:0.67199999;stroke-linecap:round;stroke-linejoin:round;stroke-miterlimit:10;stroke-dasharray:none;stroke-opacity:1"
       d="M 0,0 0,7.724 4.03,5.877 3.973,-1.847" />
  </g>
  <g
     transform="matrix(1.2005,0,0,-1.2005,639.94284,170.55807)"
     id="g4462">
    <path
       id="path4464"
       style="fill:none;stroke:#231f20;stroke-width:0.67199999;stroke-linecap:round;stroke-linejoin:round;stroke-miterlimit:10;stroke-dasharray:none;stroke-opacity:1"
       d="M 0,0 0,7.724 4.03,5.877 3.973,-1.847" />
  </g>
  <g
     transform="matrix(1.2005,0,0,-1.2005,289.4006,313.09127)"
     id="g4474">
    <path
       id="path4476"
       style="fill:#ffffff;fill-opacity:1;fill-rule:nonzero;stroke:none"
       d="m 0,0 0.021,-44.235 c 0,0 0.643,-3.118 6.107,-3.905 8.017,-1.154 16.748,0.924 18.427,2.156 0.09,0.066 0,43.962 0,43.962 0,0 -10.829,-3.372 -17.756,-2.407 C -0.126,-3.463 0,0 0,0" />
  </g>
  <g
     transform="matrix(1.2005,0,0,-1.2005,289.4006,313.09127)"
     id="g4478">
    <path
       id="path4480"
       style="fill:none;stroke:#231f20;stroke-width:0.67199999;stroke-linecap:round;stroke-linejoin:round;stroke-miterlimit:10;stroke-dasharray:none;stroke-opacity:1"
       d="m 0,0 0.021,-44.235 c 0,0 0.643,-3.118 6.107,-3.905 8.017,-1.154 16.748,0.924 18.427,2.156 0.09,0.066 0,43.962 0,43.962 0,0 -10.829,-3.372 -17.756,-2.407 C -0.126,-3.463 0,0 0,0 Z" />
  </g>
  <g
     transform="matrix(1.2005,0,0,-1.2005,299.52922,304.70109)"
     id="g4482">
    <path
       id="path4484"
       style="fill:#ffffff;fill-opacity:1;fill-rule:nonzero;stroke:none"
       d="m 0,0 c 0,0 -13.208,-5.429 -6.548,-9.963 6.659,-4.533 22.625,1.043 22.625,1.043 L 0,0 Z" />
  </g>
  <g
     transform="matrix(1.2005,0,0,-1.2005,299.52922,304.70109)"
     id="g4486">
    <path
       id="path4488"
       style="fill:none;stroke:#231f20;stroke-width:0.67199999;stroke-linecap:round;stroke-linejoin:round;stroke-miterlimit:10;stroke-dasharray:none;stroke-opacity:1"
       d="m 0,0 c 0,0 -13.208,-5.429 -6.548,-9.963 6.659,-4.533 22.625,1.043 22.625,1.043 L 0,0 Z" />
  </g>
  <g
     transform="matrix(1.2005,0,0,-1.2005,631.81285,192.83118)"
     id="g4490">
    <path
       id="path4492"
       style="fill:none;stroke:#231f20;stroke-width:0.67199999;stroke-linecap:round;stroke-linejoin:round;stroke-miterlimit:10;stroke-dasharray:none;stroke-opacity:1"
       d="M 0,0 24.765,9.654" />
  </g>
  <g
     transform="matrix(1.2005,0,0,-1.2005,374.00836,396.71654)"
     id="g4494">
    <path
       id="path4496"
       style="fill:#a599d4;fill-opacity:1;fill-rule:nonzero;stroke:none"
       d="M 0,0 9.822,6.744 -3.946,19.41 -13.349,12.453 0,0 Z" />
  </g>
  <g
     transform="matrix(1.2005,0,0,-1.2005,504.05288,69.808217)"
     id="g4498">
    <path
       id="path4500"
       style="fill:none;stroke:#231f20;stroke-width:0.67199999;stroke-linecap:butt;stroke-linejoin:miter;stroke-miterlimit:10;stroke-dasharray:none;stroke-opacity:1"
       d="M 0,0 28.179,-14.272" />
  </g>
  <g
     transform="matrix(1.2005,0,0,-1.2005,497.40103,255.72021)"
     id="g4502">
    <path
       id="path4504"
       style="fill:#ffffff;fill-opacity:1;fill-rule:nonzero;stroke:none"
       d="m 0,0 -106.73,-82.219 0,-15.819 L -0.056,-17.294 0,0 Z" />
  </g>
  <g
     transform="matrix(1.2005,0,0,-1.2005,497.40103,255.72021)"
     id="g4506">
    <path
       id="path4508"
       style="fill:none;stroke:#231f20;stroke-width:0.67199999;stroke-linecap:round;stroke-linejoin:round;stroke-miterlimit:10;stroke-dasharray:none;stroke-opacity:1"
       d="m 0,0 -106.73,-82.219 0,-15.819 L -0.056,-17.294 0,0 Z" />
  </g>
  <g
     transform="matrix(1.2005,0,0,-1.2005,357.73186,363.35716)"
     id="g4510">
    <path
       id="path4512"
       style="fill:#ffffff;fill-opacity:1;fill-rule:nonzero;stroke:none"
       d="m 0,0 13.558,-14.943 0,-12.844 L -0.126,-15.279 0,0 Z" />
  </g>
  <g
     transform="matrix(1.2005,0,0,-1.2005,357.73186,363.35716)"
     id="g4514">
    <path
       id="path4516"
       style="fill:none;stroke:#231f20;stroke-width:0.67199999;stroke-linecap:round;stroke-linejoin:round;stroke-miterlimit:10;stroke-dasharray:none;stroke-opacity:1"
       d="m 0,0 13.558,-14.943 0,-12.844 L -0.126,-15.279 0,0 Z" />
  </g>
  <g
     transform="matrix(1.2005,0,0,-1.2005,369.13721,354.42112)"
     id="g4518">
    <path
       id="path4520"
       style="fill:#ffffff;fill-opacity:1;fill-rule:nonzero;stroke:none"
       d="m 0,0 13.88,-13.88 0,-14.607 L 0.196,-15.979 0,0 Z" />
  </g>
  <g
     transform="matrix(1.2005,0,0,-1.2005,369.13721,354.42112)"
     id="g4522">
    <path
       id="path4524"
       style="fill:none;stroke:#231f20;stroke-width:0.67199999;stroke-linecap:round;stroke-linejoin:round;stroke-miterlimit:10;stroke-dasharray:none;stroke-opacity:1"
       d="m 0,0 13.88,-13.88 0,-14.607 L 0.196,-15.979 0,0 Z" />
  </g>
  <g
     transform="matrix(1.2005,0,0,-1.2005,324.79242,388.68735)"
     id="g4526">
    <path
       id="path4528"
       style="fill:#ffffff;fill-opacity:1;fill-rule:nonzero;stroke:none"
       d="m 0,0 -1.791,-16.679 29.216,22.114 0,15.691 L 0,0 Z" />
  </g>
  <g
     transform="matrix(1.2005,0,0,-1.2005,324.79242,388.68735)"
     id="g4530">
    <path
       id="path4532"
       style="fill:none;stroke:#231f20;stroke-width:0.67199999;stroke-linecap:round;stroke-linejoin:round;stroke-miterlimit:10;stroke-dasharray:none;stroke-opacity:1"
       d="m 0,0 -1.791,-16.679 29.216,22.114 0,15.691 L 0,0 Z" />
  </g>
  <g
     transform="matrix(1.2005,0,0,-1.2005,463.8066,68.195467)"
     id="g4534">
    <path
       id="path4536"
       style="fill:#ffffff;fill-opacity:1;fill-rule:nonzero;stroke:none"
       d="m 0,0 -281.013,-79.922 -58.934,-30.346 0,-17.391 63.411,32.29 276.48,81.712 33.72,12.23 0,13.292 L 0,0 Z" />
  </g>
  <g
     transform="matrix(1.2005,0,0,-1.2005,463.8066,68.195467)"
     id="g4538">
    <path
       id="path4540"
       style="fill:none;stroke:#231f20;stroke-width:0.67199999;stroke-linecap:round;stroke-linejoin:round;stroke-miterlimit:10;stroke-dasharray:none;stroke-opacity:1"
       d="m 0,0 -281.013,-79.922 -58.934,-30.346 0,-17.391 63.411,32.29 276.48,81.712 33.72,12.23 0,13.292 L 0,0 Z" />
  </g>
  <g
     id="g4556"
     transform="matrix(1.2005,0,0,-1.2005,-95.90468,890.03335)">
    <g
       clip-path="url(#clipPath4560)"
       id="g4558">
      <g
         transform="translate(226.922,557.9468)"
         id="g4564">
        <path
           id="path4566"
           style="fill:#ffffff;fill-opacity:1;fill-rule:nonzero;stroke:none"
           d="m 0,0 c 0,-18.86 -23.598,-54.332 -23.598,-54.332 0,0 -23.597,33.681 -23.597,54.332 0,15.258 10.565,27.627 23.597,27.627 C -10.564,27.627 0,15.258 0,0" />
      </g>
      <g
         transform="translate(226.922,557.9468)"
         id="g4568">
        <path
           id="path4570"
           style="fill:none;stroke:#231f20;stroke-width:1.00699997;stroke-linecap:butt;stroke-linejoin:round;stroke-miterlimit:10;stroke-dasharray:none;stroke-opacity:1"
           d="m 0,0 c 0,-18.86 -23.598,-54.332 -23.598,-54.332 0,0 -23.597,33.681 -23.597,54.332 0,15.258 10.565,27.627 23.597,27.627 C -10.564,27.627 0,15.258 0,0 Z" />
      </g>
    </g>
  </g>
  <text
     id="text4572"
     style="font-variant:normal;font-weight:normal;font-stretch:normal;font-size:19.3504982px;font-family:Abigail;-inkscape-font-specification:Abigail;writing-mode:lr-tb;fill:#231f20;fill-opacity:1;fill-rule:nonzero;stroke:none"
     x="125.34976"
     y="222.75568">
    <tspan
       id="tspan4574"
       y="222.75568"
       x="125.34976 136.28275 140.38509 146.36438 154.91728 159.17444">דוכנים</tspan>
  </text>
  <g
     id="g4576"
     transform="matrix(1.2005,0,0,-1.2005,-95.90468,890.03335)">
    <g
       clip-path="url(#clipPath4580)"
       id="g4578">
      <g
         transform="translate(190.8787,619.0634)"
         id="g4584">
        <path
           id="path4586"
           style="fill:#ffffff;fill-opacity:1;fill-rule:nonzero;stroke:none"
           d="m 0,0 c 0,-18.86 -23.598,-54.332 -23.598,-54.332 0,0 -23.597,33.681 -23.597,54.332 0,15.258 10.565,27.627 23.597,27.627 C -10.564,27.627 0,15.258 0,0" />
      </g>
      <g
         transform="translate(190.8787,619.0634)"
         id="g4588">
        <path
           id="path4590"
           style="fill:none;stroke:#231f20;stroke-width:1.00699997;stroke-linecap:butt;stroke-linejoin:round;stroke-miterlimit:10;stroke-dasharray:none;stroke-opacity:1"
           d="m 0,0 c 0,-18.86 -23.598,-54.332 -23.598,-54.332 0,0 -23.597,33.681 -23.597,54.332 0,15.258 10.565,27.627 23.597,27.627 C -10.564,27.627 0,15.258 0,0 Z" />
      </g>
    </g>
  </g>
  <text
     id="text4592"
     style="font-variant:normal;font-weight:normal;font-stretch:normal;font-size:19.3504982px;font-family:Abigail;-inkscape-font-specification:Abigail;writing-mode:lr-tb;fill:#231f20;fill-opacity:1;fill-rule:nonzero;stroke:none"
     x="84.60157"
     y="149.38522">
    <tspan
       id="tspan4594"
       y="149.38522"
       x="84.60157 94.838005 99.095085 109.09927 113.20161">שיפוט</tspan>
    <tspan
       id="tspan4596"
       y="165.50418"
       x="85.723877 90.174522 94.431602 105.01636 115.83327 120.09041">ווקאון</tspan>
  </text>
</svg>
