<?xml version="1.0" encoding="UTF-8" standalone="no"?>
<svg
   xmlns:dc="http://purl.org/dc/elements/1.1/"
   xmlns:cc="http://creativecommons.org/ns#"
   xmlns:rdf="http://www.w3.org/1999/02/22-rdf-syntax-ns#"
   xmlns:svg="http://www.w3.org/2000/svg"
   xmlns="http://www.w3.org/2000/svg"
   width="44.703999mm"
   height="68.779655mm"
   viewBox="0 0 158.39999 243.70744"
   id="svg8905"
   version="1.1">
  <defs
     id="defs8907" />
  <metadata
     id="metadata8910">
    <rdf:RDF>
      <cc:Work
         rdf:about="">
        <dc:format>image/svg+xml</dc:format>
        <dc:type
           rdf:resource="http://purl.org/dc/dcmitype/StillImage" />
        <dc:title></dc:title>
      </cc:Work>
    </rdf:RDF>
  </metadata>
  <g
     id="layer1"
     transform="translate(-277.94286,-459.07991)">
    <g
       id="g9477">
      <path
         style="fill:#6f4d80;fill-opacity:1"
         d="m 436.34286,538.28736 c 0,44 -79.2,164.5 -79.2,164.5 0,0 -79.2,-120.4 -79.2,-164.5 0,-44 35.7,-79.2 79.2,-79.2 43.8,-0.6 79.2,35.1 79.2,79.2"
         class="st30"
         id="path659_1_" />
      <g
         transform="translate(-2097.4571,-145.61264)"
         id="XMLID_921_">
        <path
           style="fill:#f6f6f6"
           d="m 2421.3,647.7 c 1.8,1.8 2.7,4.5 2.7,8.3 l 0,22.4 -8.5,0 -18.3,0 -1.8,0 0,-33.4 8.5,0 10.1,0 c 3.1,0 5.5,0.8 7.3,2.7 z m -5.6,24.4 0,-16.4 c 0,-2.8 -1.3,-4.3 -4,-4.3 l -7.8,0 0,20.8 11.8,0 z"
           class="st14"
           id="XMLID_978_" />
        <path
           style="fill:#f6f6f6"
           d="m 2455.7,645 0,7 -10.5,26.4 -8.5,0 10.5,-27.1 -16.9,0 0,-15 7.6,0 0,8.5 17.8,0 0,0.2 z"
           class="st14"
           id="XMLID_977_" />
        <path
           style="fill:#f6f6f6"
           d="m 2462.7,651.8 -0.7,-6.8 8.5,0 0.7,6.8 0,26.6 -8.5,0 0,-26.6 z"
           class="st14"
           id="XMLID_976_" />
        <path
           style="fill:#f6f6f6"
           d="m 2501.2,678.4 -11,-17.1 -5.1,17.1 -8.1,0 6.5,-20.1 1.8,-4.5 -5.5,-8.8 8.5,0 4.7,7.6 4.2,6.3 1.7,-5.3 2.3,-8.6 8,0 -7,21.3 8.1,12.1 -9.1,0 0,0 z"
           class="st14"
           id="XMLID_975_" />
        <path
           style="fill:#f6f6f6"
           d="m 2393.7,694.7 -0.7,-6.8 8.5,0 0.7,6.8 0,9.1 0,3.7 -8.3,1.5 0,-14.3 -0.2,0 z"
           class="st14"
           id="XMLID_974_" />
        <path
           style="fill:#f6f6f6"
           d="m 2437.2,715.8 c -4.7,4.2 -12,6.1 -21.9,6.1 l -1.8,0 -4.3,-34.1 8,0 1.7,14.5 c 1.5,-0.8 2.7,-2 3.2,-3.5 0.5,-1.5 0.8,-3.8 0.8,-7 l 0,-4 8,0 0,3.7 c 0,4.3 -1,7.8 -2.5,10.5 -1.7,2.7 -4.5,4.7 -8.6,6.1 l 0.8,6.8 c 5.6,-0.3 9.6,-2 12,-4.8 2.3,-2.8 3.5,-6.8 3.5,-12 l -0.2,-10.3 8.5,0 0,9.8 c -0.2,8 -2.5,14 -7.2,18.2 z"
           class="st14"
           id="XMLID_925_" />
        <path
           style="fill:#f6f6f6"
           d="m 2473.3,721.2 -11,-17.1 -5.1,17.1 -8,0 6.5,-20.1 1.8,-4.5 -5.5,-8.8 8.5,0 4.7,7.6 4.2,6.3 1.7,-5.3 2.3,-8.6 8,0 -7,21.3 8.1,12.1 -9.2,0 0,0 z"
           class="st14"
           id="XMLID_924_" />
        <path
           style="fill:#f6f6f6"
           d="m 2502.5,698.5 c 0,-2.8 -1.3,-4.3 -4,-4.3 l -11.5,0 0,-6.3 13.6,0 c 3.2,0 5.6,0.8 7.5,2.7 1.8,1.8 2.7,4.5 2.7,8.3 l 0,22.4 -8.5,0 0,-22.8 0.2,0 z"
           class="st14"
           id="XMLID_923_" />
      </g>
    </g>
  </g>
</svg>
