<?xml version="1.0" encoding="UTF-8" standalone="no"?>
<svg
   xmlns:dc="http://purl.org/dc/elements/1.1/"
   xmlns:cc="http://creativecommons.org/ns#"
   xmlns:rdf="http://www.w3.org/1999/02/22-rdf-syntax-ns#"
   xmlns:svg="http://www.w3.org/2000/svg"
   xmlns="http://www.w3.org/2000/svg"
   version="1.1"
   id="svg4369"
   viewBox="0 0 94.300001 73.200027"
   height="20.658674mm"
   width="26.613556mm">
  <defs
     id="defs4371" />
  <metadata
     id="metadata4374">
    <rdf:RDF>
      <cc:Work
         rdf:about="">
        <dc:format>image/svg+xml</dc:format>
        <dc:type
           rdf:resource="http://purl.org/dc/dcmitype/StillImage" />
        <dc:title></dc:title>
      </cc:Work>
    </rdf:RDF>
  </metadata>
  <g
     transform="translate(-307.13572,-664.33362)"
     id="layer1">
    <g
       transform="translate(-1035.2643,92.733646)"
       id="g317">
      <g
         transform="translate(-0.04998,0)"
         id="g319">
        <path
           style="fill:#401225"
           d="m 1403.4,616.3 c 0,7.6 -13.8,28.5 -13.8,28.5 0,0 -13.8,-21 -13.8,-28.5 0,-7.5 6.2,-13.8 13.8,-13.8 7.6,0 13.8,6.3 13.8,13.8"
           class="st4259"
           id="path355_7_" />
        <path
           style="opacity:0.8;fill:#ffffff"
           d="m 1381.3,626.6 c 0,0.7 0.2,0.9 0.9,0.9 0.7,0 0.9,-0.2 0.9,-0.9 l 0,-8 0.9,0 0,8 c 0,0.7 0.2,0.9 0.9,0.9 0.7,0 0.9,-0.2 0.9,-0.9 l 0,-13.6 0.4,0 0,4.9 c 0,0.2 0,0.4 0.2,0.7 0.2,0.2 0.4,0.2 0.7,0 0.2,-0.2 0.4,-0.4 0.4,-0.7 l 0,-5.4 c 0,-0.7 -0.2,-1.1 -0.7,-1.3 -0.4,-0.2 -0.9,-0.4 -1.6,-0.4 l -3.6,0 c -0.7,0 -1.1,0.2 -1.6,0.4 -0.5,0.2 -0.7,0.7 -0.7,1.3 l 0,5.6 c 0,0.2 0.2,0.4 0.4,0.4 0.2,0.2 0.4,0.2 0.7,0 0.2,-0.2 0.2,-0.2 0.2,-0.4 l 0,-5.1 0.4,0 0,13.6 z"
           class="st4262"
           id="path357_7_" />
        <path
           style="opacity:0.8;fill:#ffffff"
           d="m 1398.7,620.1 -2.5,-7.1 0,0 c 0,-0.2 0,-0.2 0.2,-0.2 0,0 0.2,0 0.2,0.2 l 1.8,4.5 c 0.2,0.2 0.4,0.4 0.9,0.4 0.2,0 0.2,-0.2 0.4,-0.4 0,-0.2 0,-0.4 0,-0.4 l -1.8,-4.5 c 0,-0.4 -0.2,-0.9 -0.7,-1.3 -0.4,-0.4 -0.9,-0.4 -1.6,-0.4 l -2.2,0 c -0.7,0 -1.1,0.2 -1.6,0.7 -0.4,0.4 -0.7,0.9 -0.9,1.3 l -1.6,4.5 c 0,0 0,0.2 0,0.4 0,0.2 0.2,0.4 0.4,0.4 0.4,0 0.9,-0.2 0.9,-0.4 l 1.8,-4.7 c 0,0 0,-0.2 0.2,-0.2 0.2,0 0.2,0 0.2,0.2 l 0,0 -2.5,7.1 0,0.4 c 0,0 0,0.2 0.2,0.2 0.2,0.2 0.2,0.2 0.2,0.2 l 1.6,0 0,5.6 c 0,0.2 0,0.4 0.2,0.7 0.2,0.2 0.4,0.2 0.7,0.2 0.3,0 0.4,0 0.7,-0.2 0.2,-0.2 0.2,-0.4 0.2,-0.7 l 0,-5.6 c 0,0 0,0 0.2,0 0.2,0 0.2,0 0.4,0 0.2,0 0.2,0 0.2,0 l 0,5.6 c 0,0.2 0,0.4 0.2,0.7 0.2,0.2 0.4,0.2 0.7,0.2 0.2,0 0.4,0 0.7,-0.2 0.2,-0.2 0.2,-0.4 0.2,-0.7 l 0,-5.4 1.6,0 c 0,0 0.2,0 0.2,-0.2 0.2,-0.2 0.2,-0.2 0.2,-0.2 l 0,-0.7 0,0 z"
           class="st4262"
           id="path359_7_" />
        <path
           style="opacity:0.8;fill:#ffffff"
           d="m 1381.7,608.3 c 0,0.4 0.2,0.9 0.4,1.3 0.4,0.4 0.7,0.4 1.3,0.4 0.4,0 0.9,-0.2 1.3,-0.4 0.4,-0.4 0.4,-0.9 0.4,-1.3 0,-0.4 -0.2,-0.9 -0.4,-1.3 -0.4,-0.4 -0.7,-0.4 -1.3,-0.4 -0.4,0 -0.9,0.2 -1.3,0.4 -0.4,0.4 -0.4,0.9 -0.4,1.3"
           class="st4262"
           id="path361_7_" />
        <path
           style="opacity:0.8;fill:#ffffff"
           d="m 1392.4,608.3 c 0,0.4 0.2,0.9 0.4,1.3 0.4,0.4 0.7,0.4 1.3,0.4 0.7,0 0.9,-0.2 1.3,-0.4 0.4,-0.4 0.4,-0.7 0.4,-1.3 0,-0.4 -0.2,-0.9 -0.4,-1.3 -0.4,-0.4 -0.7,-0.4 -1.3,-0.4 -0.6,0 -0.9,0.2 -1.3,0.4 -0.1,0.4 -0.4,0.9 -0.4,1.3"
           class="st4262"
           id="path363_7_" />
      </g>
      <rect
         style="fill:#401225"
         height="29"
         width="94.300003"
         class="st4259"
         y="571.59998"
         x="1342.4"
         id="rect475_8_" />
      <g
         id="g327">
        <path
           style="fill:#ffffff"
           id="path329"
           d="m 1360,580.3 c 0.8,0.8 1.2,1.9 1.2,3.5 l 0,9.5 -3.6,0 -7.8,0 -0.7,0 0,-14.1 3.6,0 4.3,0 c 1.2,0 2.3,0.3 3,1.1 z m -2.4,10.3 0,-7 c 0,-1.2 -0.6,-1.8 -1.7,-1.8 l -3.3,0 0,8.8 5,0 z"
           class="st4270" />
        <path
           style="fill:#ffffff"
           id="path331"
           d="m 1364.6,582.1 -0.3,-2.9 3.6,0 0.3,2.9 0,3.9 0,1.6 -3.5,0.6 0,-6.1 z"
           class="st4270" />
        <path
           style="fill:#ffffff"
           id="path333"
           d="m 1370.5,591.3 c 0.6,-0.1 1.1,-0.2 1.4,-0.4 0.3,-0.2 0.5,-0.4 0.6,-0.8 0.1,-0.4 0.2,-0.8 0.1,-1.4 l 0,-9.6 7.5,0 c 1.3,0 2.4,0.4 3.1,1.1 0.8,0.8 1.1,1.9 1.1,3.5 l 0,9.5 -3.6,0 0,-9.7 c 0,-1.2 -0.6,-1.8 -1.7,-1.8 l -2.9,0 0,6.5 c 0,1.3 -0.2,2.3 -0.6,3 -0.4,0.7 -1,1.3 -1.8,1.7 -0.8,0.4 -1.8,0.6 -3.2,0.7 l 0,-2.3 z"
           class="st4270" />
        <path
           style="fill:#ffffff"
           id="path335"
           d="m 1388,582.1 -0.3,-2.9 3.6,0 0.3,2.9 0,11.2 -3.6,0 0,-11.2 z"
           class="st4270" />
        <path
           style="fill:#ffffff"
           id="path337"
           d="m 1400.7,583.7 c 0,-1.2 -0.6,-1.8 -1.7,-1.8 l -4.8,0 0,-2.7 5.8,0 c 1.3,0 2.4,0.4 3.1,1.1 0.8,0.8 1.2,1.9 1.2,3.5 l 0,9.5 -3.6,0 0,-9.6 z"
           class="st4270" />
        <path
           style="fill:#ffffff"
           id="path339"
           d="m 1407.7,582.1 -0.3,-2.9 3.6,0 0.3,2.9 0,3.9 0,1.6 -3.5,0.6 0,-6.1 z"
           class="st4270" />
        <path
           style="fill:#ffffff"
           id="path341"
           d="m 1426.1,591 c -2,1.7 -5.1,2.6 -9.3,2.6 l -0.8,0 -1.9,-14.4 3.4,0 0.7,6.1 c 0.7,-0.3 1.1,-0.8 1.3,-1.5 0.2,-0.7 0.3,-1.7 0.3,-3 l 0,-1.6 3.4,0 0,1.6 c 0,1.8 -0.4,3.3 -1.1,4.4 -0.7,1.1 -1.9,2 -3.7,2.6 l 0.3,2.8 c 2.4,-0.1 4,-0.8 5.1,-2 1,-1.2 1.5,-2.9 1.5,-5.1 l 0,-4.3 3.6,0 0,4.1 c 0.2,3.4 -0.8,5.9 -2.8,7.7 z"
           class="st4270" />
      </g>
    </g>
  </g>
</svg>
