<?xml version="1.0" encoding="UTF-8" standalone="no"?>
<svg
   xmlns:dc="http://purl.org/dc/elements/1.1/"
   xmlns:cc="http://creativecommons.org/ns#"
   xmlns:rdf="http://www.w3.org/1999/02/22-rdf-syntax-ns#"
   xmlns:svg="http://www.w3.org/2000/svg"
   xmlns="http://www.w3.org/2000/svg"
   xmlns:xlink="http://www.w3.org/1999/xlink"
   height="114.80002"
   width="229.39999"
   xml:space="preserve"
   viewBox="0 0 229.39999 114.80001"
   y="0px"
   x="0px"
   id="Layer_1"
   version="1.1"><metadata
     id="metadata439"><rdf:RDF><cc:Work
         rdf:about=""><dc:format>image/svg+xml</dc:format><dc:type
           rdf:resource="http://purl.org/dc/dcmitype/StillImage" /><dc:title></dc:title></cc:Work></rdf:RDF></metadata><defs
     id="defs437" /><style
     id="style3"
     type="text/css">
	.st0{fill:#B5B0C1;}
	.st1{fill:#FFFFFF;}
	.st2{fill:none;stroke:#141032;stroke-width:0.25;}
	.st3{fill:#43255C;}
	.st4{clip-path:url(#SVGID_2_);fill:none;stroke:#141032;stroke-width:0.25;}
	.st5{fill:none;stroke:#141032;stroke-width:0.5;}
	.st6{fill:#99AC64;}
	.st7{clip-path:url(#SVGID_4_);fill:none;stroke:#141032;stroke-width:0.25;}
	.st8{clip-path:url(#SVGID_6_);fill:#43255C;}
	.st9{clip-path:url(#SVGID_8_);fill:#FBB65A;}
	.st10{clip-path:url(#SVGID_8_);fill:none;stroke:#141032;stroke-width:0.5;stroke-miterlimit:10;}
	.st11{fill:#F7D685;}
	.st12{clip-path:url(#SVGID_10_);fill:#141032;}
	.st13{fill:#141032;}
	.st14{fill:none;stroke:#231F20;stroke-width:0.25;}
	.st15{clip-path:url(#SVGID_12_);fill:#141032;}
	.st16{clip-path:url(#SVGID_12_);fill:#FFFFFF;}
	.st17{clip-path:url(#SVGID_14_);fill:#141032;}
	.st18{clip-path:url(#SVGID_14_);fill:#FFFFFF;}
	.st19{fill:#D81278;}
	.st20{clip-path:url(#SVGID_16_);fill:#141032;}
	.st21{clip-path:url(#SVGID_18_);fill:#141032;}
	.st22{clip-path:url(#SVGID_18_);fill:#FFFFFF;}
	.st23{clip-path:url(#SVGID_20_);fill:#141032;}
	.st24{clip-path:url(#SVGID_22_);fill:#141032;}
	.st25{clip-path:url(#SVGID_24_);fill:#FFFFFF;}
	.st26{clip-path:url(#SVGID_26_);fill:#FFFFFF;}
	.st27{clip-path:url(#SVGID_28_);fill:#141032;}
	.st28{clip-path:url(#SVGID_30_);fill:#141032;}
	.st29{clip-path:url(#SVGID_32_);fill:#FFFFFF;}
	.st30{clip-path:url(#SVGID_34_);fill:#FFFFFF;}
	.st31{fill:#8ACDAB;}
	.st32{clip-path:url(#SVGID_36_);fill:#141032;}
	.st33{clip-path:url(#SVGID_38_);fill:#FFFFFF;}
</style><rect
     transform="matrix(0,-1,1,0,0,0)"
     style="fill:#141032;fill-opacity:1"
     id="rect313"
     height="229.39999"
     width="38.099998"
     class="st13"
     y="0"
     x="-38.099998" /><path
     style="fill:#d81278;fill-opacity:1"
     id="path327"
     d="m 27.300004,12.800023 0,6.1 c 0,0.6 0,1.1 0,1.4 0,0.4 0,0.7 -0.1,1.1 0,0.3 -0.1,0.6 -0.1,0.9 -0.1,0.3 -0.1,0.6 -0.2,1 l -4.3,-0.6 c 0.1,-0.3 0.1,-0.6 0.1,-0.9 0,-0.3 0.1,-0.5 0.1,-0.8 0,-0.3 0.1,-0.6 0.1,-1 0,-0.4 0,-0.8 0,-1.3 l 0,-2.3 -3.7,0 0,-3.5 8.1,0 z m 11.6,0 0,6.1 c 0,0.6 0,1.1 0,1.4 0,0.4 0,0.7 -0.1,1.1 -0.1,0.4 -0.1,0.6 -0.1,0.9 -0.1,0.3 -0.1,0.6 -0.2,1 l -4.3,-0.6 c 0.1,-0.3 0.1,-0.6 0.1,-0.9 0,-0.3 0.1,-0.5 0.1,-0.8 0,-0.3 0.1,-0.6 0.1,-1 0,-0.4 0,-0.8 0,-1.3 l 0,-2.3 -3.7,0 0,-3.5 8.1,0 z m 7.9,-4.6 0,4.7 9.1,0 c 0.1,0.2 0.1,0.4 0.2,0.6 0,0.2 0.1,0.3 0.1,0.5 0.1,0.3 0.1,0.5 0.1,0.7 0,0.2 0,0.5 0,0.8 l 0,3.5 c 0,1.3 -0.3,2.4 -0.8,3.6 -0.5,1.1 -1.3,2.2 -2.3,3.4 l -4.1,4.5 -3.1,-2.6 1.8,-2 c 0.8,-0.9 1.4,-1.6 1.9,-2.2 0.5,-0.6 0.9,-1.1 1.2,-1.5 0.3,-0.5 0.5,-0.9 0.7,-1.3 0.1,-0.4 0.2,-0.9 0.2,-1.5 l 0,-2.9 -9.5,0 0,-8.1 4.5,0 z m 17,3.7 c 1,0.2 1.9,0.5 2.6,0.7 0.8,0.2 1.5,0.4 2.1,0.6 0.6,0.2 1.2,0.4 1.8,0.5 0.5,0.2 1.1,0.4 1.6,0.6 0.5,0.2 1,0.5 1.4,0.8 0.4,0.3 0.7,0.6 0.9,1 0.2,0.4 0.4,0.8 0.5,1.3 0.1,0.5 0.1,1 0.1,1.6 l 0,6.4 c 0,0.3 0,0.5 0,0.8 0,0.2 0,0.5 -0.1,0.8 -0.1,0.3 -0.1,0.7 -0.2,1.1 -0.1,0.4 -0.2,1 -0.4,1.6 l -14.4,0 0,-3.5 10.9,0 0,-6.6 c 0,-0.4 0,-0.7 0,-1 0,-0.3 -0.1,-0.5 -0.2,-0.7 -0.1,-0.2 -0.2,-0.3 -0.4,-0.5 -0.2,-0.1 -0.4,-0.3 -0.8,-0.4 -0.4,-0.1 -0.9,-0.3 -1.4,-0.5 -0.5,-0.2 -1.1,-0.3 -1.7,-0.5 l -1.5,3.1 2.1,1.2 -1.9,3.2 -5.1,-3 4.1,-8.6 z m 25.1,0.9 c 0.7,0 1.3,0.1 2,0.2 0.7,0.1 1.2,0.4 1.7,0.9 0.5,0.4 0.9,1 1.2,1.7 0.3,0.7 0.5,1.7 0.5,2.8 0,0.2 0,0.5 0,0.7 0,0.2 0,0.5 0,0.8 0,0.3 0,0.7 0,1 0,0.4 0,0.8 0,1.4 0,1.1 -0.2,2.1 -0.6,3 -0.4,0.9 -0.9,1.7 -1.6,2.4 -0.7,0.7 -1.5,1.2 -2.4,1.6 -0.9,0.4 -1.9,0.6 -3,0.6 -1.1,0 -2.1,-0.2 -3,-0.6 -0.9,-0.4 -1.7,-0.9 -2.4,-1.6 -0.7,-0.7 -1.2,-1.5 -1.6,-2.4 -0.4,-0.9 -0.6,-1.9 -0.7,-3 0,-0.1 0,-0.2 0,-0.3 0,-0.1 0,-0.2 0,-0.3 0,-0.5 0,-1 0.1,-1.5 0.1,-0.5 0.2,-1.1 0.3,-1.6 0.1,-0.4 0.3,-0.8 0.4,-1.2 0.2,-0.4 0.4,-0.8 0.6,-1.1 -0.5,0 -0.9,-0.1 -1.4,-0.2 -0.5,-0.1 -1,-0.3 -1.6,-0.5 0.2,-0.6 0.3,-1.1 0.5,-1.7 0.2,-0.6 0.4,-1.1 0.6,-1.7 0.5,0.1 0.9,0.2 1.3,0.3 0.4,0.1 0.7,0.1 1,0.2 0.3,0 0.7,0.1 1,0.1 0.3,0 0.7,0 1.2,0 l 0.5,0 5.4,0 z m -4.3,3.5 c -0.2,0.3 -0.3,0.6 -0.4,0.8 -0.1,0.3 -0.2,0.6 -0.3,0.8 -0.1,0.5 -0.3,1.1 -0.3,1.7 -0.1,0.6 -0.1,1.2 -0.1,1.7 0,0.3 0,0.6 0,0.9 0,0.3 0,0.6 0.1,0.8 0.1,0.5 0.2,1 0.4,1.4 0.2,0.4 0.4,0.7 0.7,1 0.3,0.3 0.6,0.5 1,0.7 0.4,0.2 0.8,0.2 1.2,0.2 0.4,0 0.9,-0.1 1.2,-0.2 0.4,-0.2 0.7,-0.4 1,-0.7 0.3,-0.3 0.5,-0.6 0.7,-1 0.2,-0.4 0.3,-0.8 0.3,-1.3 0,-0.2 0,-0.5 0,-0.8 0,-0.3 0,-0.6 0,-0.9 0,-0.3 0,-0.7 0,-1 0,-0.3 0,-0.7 0,-1 -0.1,-0.7 -0.1,-1.2 -0.2,-1.6 -0.1,-0.4 -0.2,-0.7 -0.4,-1 -0.2,-0.2 -0.5,-0.4 -0.8,-0.5 -0.4,-0.1 -0.9,-0.1 -1.5,-0.1 l -2.6,0 z m 20.799996,-3.5 0,16.6 -4.4,0 0,-13.2 -2.8,0 0,-3.5 7.2,0 z m 9.4,3.5 c -0.5,0 -1,0 -1.4,0 -0.4,0 -0.8,0 -1.2,-0.1 -0.4,0 -0.8,-0.1 -1.2,-0.2 -0.4,-0.1 -0.9,-0.2 -1.4,-0.4 0.2,-0.6 0.3,-1.1 0.5,-1.7 0.2,-0.6 0.4,-1.1 0.6,-1.7 0.5,0.1 0.9,0.2 1.3,0.3 0.4,0.1 0.7,0.1 1,0.2 0.3,0 0.7,0.1 1,0.1 0.3,0 0.7,0 1.2,0 l 0.5,0 9.5,0 c 0.1,0.2 0.1,0.4 0.1,0.5 0,0.2 0.1,0.3 0.1,0.5 0.1,0.3 0.1,0.6 0.1,0.8 0,0.2 0,0.5 0,0.8 l 0,3.5 c 0,0.6 0,1.1 -0.1,1.7 -0.1,0.5 -0.2,1 -0.3,1.4 -0.1,0.5 -0.3,0.9 -0.6,1.3 -0.2,0.4 -0.5,0.9 -0.8,1.3 -0.2,0.4 -0.6,0.8 -1,1.3 -0.4,0.5 -0.8,1 -1.3,1.6 -0.5,0.5 -0.9,1.1 -1.4,1.6 -0.5,0.5 -0.9,1 -1.2,1.3 l -3.1,-2.6 2.2,-2.4 c 0.5,-0.6 1,-1.1 1.4,-1.6 0.4,-0.4 0.7,-0.9 0.9,-1.2 0.2,-0.3 0.4,-0.6 0.5,-0.8 0.1,-0.3 0.2,-0.5 0.3,-0.8 0.1,-0.3 0.1,-0.5 0.1,-0.8 0,-0.3 0,-0.6 0,-1 l 0,-2.9 -6.3,0 z m -5,8.3 c 0,-0.5 0,-0.9 0,-1.3 0,-0.4 0,-0.7 0.1,-1.1 0,-0.4 0.1,-0.7 0.1,-1 0.1,-0.3 0.1,-0.7 0.2,-1.1 0.7,0.1 1.4,0.2 2.1,0.3 0.7,0.1 1.4,0.3 2.1,0.4 -0.1,0.6 -0.2,1.2 -0.3,1.8 0,0.6 -0.1,1.3 -0.1,2.1 l 0,9.8 -4.4,0 0,-9.9 z m 36.2,-11.8 0,21.7 -4.4,0 0,-18.2 -3.3,0 0,-3.5 7.7,0 z m 11.4,0 0,16.6 -4.4,0 0,-13.2 -2.8,0 0,-3.5 7.2,0 z m 9.4,3.5 c -0.5,0 -1,0 -1.4,0 -0.4,0 -0.8,0 -1.2,-0.1 -0.4,0 -0.8,-0.1 -1.2,-0.2 -0.4,-0.1 -0.9,-0.2 -1.4,-0.4 0.2,-0.6 0.3,-1.1 0.5,-1.7 0.2,-0.6 0.4,-1.1 0.6,-1.7 0.5,0.1 0.9,0.2 1.3,0.3 0.4,0.1 0.7,0.1 1,0.2 0.3,0 0.7,0.1 1,0.1 0.3,0 0.7,0 1.2,0 l 0.5,0 9.5,0 c 0.1,0.2 0.1,0.4 0.1,0.5 0,0.2 0.1,0.3 0.1,0.5 0.1,0.3 0.1,0.6 0.1,0.8 0,0.2 0,0.5 0,0.8 l 0,3.5 c 0,0.6 0,1.1 -0.1,1.7 -0.1,0.5 -0.2,1 -0.3,1.4 -0.1,0.5 -0.3,0.9 -0.6,1.3 -0.2,0.4 -0.5,0.9 -0.8,1.3 -0.2,0.4 -0.6,0.8 -1,1.3 -0.4,0.5 -0.8,1 -1.3,1.6 -0.5,0.5 -0.9,1.1 -1.4,1.6 -0.5,0.5 -0.9,1 -1.2,1.3 l -3.1,-2.6 2.2,-2.4 c 0.5,-0.6 1,-1.1 1.4,-1.6 0.4,-0.4 0.7,-0.9 0.9,-1.2 0.2,-0.3 0.4,-0.6 0.5,-0.8 0.1,-0.3 0.2,-0.5 0.3,-0.8 0.1,-0.3 0.1,-0.5 0.1,-0.8 0,-0.3 0,-0.6 0,-1 l 0,-2.9 -6.3,0 z m -5,8.3 c 0,-0.5 0,-0.9 0,-1.3 0,-0.4 0,-0.7 0.1,-1.1 0,-0.4 0.1,-0.7 0.1,-1 0.1,-0.3 0.1,-0.7 0.2,-1.1 0.7,0.1 1.4,0.2 2.1,0.3 0.7,0.1 1.4,0.3 2.1,0.4 -0.1,0.6 -0.2,1.2 -0.3,1.8 0,0.6 -0.1,1.3 -0.1,2.1 l 0,9.8 -4.4,0 0,-9.9 z m 27.3,-11.8 0,6.1 c 0,0.6 0,1.1 0,1.4 0,0.4 0,0.7 -0.1,1.1 -0.1,0.4 -0.1,0.6 -0.1,0.9 -0.1,0.3 -0.1,0.6 -0.2,1 l -4.3,-0.6 c 0.1,-0.3 0.1,-0.6 0.1,-0.9 0,-0.3 0.1,-0.5 0.1,-0.8 0,-0.3 0.1,-0.6 0.1,-1 0,-0.4 0,-0.8 0,-1.3 l 0,-2.3 -3.7,0 0,-3.5 8.1,0 z m 15.3,0 c 0.7,0 1.3,0.1 2,0.2 0.7,0.1 1.2,0.4 1.8,0.8 0.5,0.4 0.9,1 1.2,1.7 0.3,0.7 0.5,1.6 0.5,2.8 l 0,11.1 -4.4,0 0,-10 c 0,-0.7 0,-1.2 -0.1,-1.6 -0.1,-0.4 -0.2,-0.7 -0.4,-1 -0.2,-0.2 -0.5,-0.4 -0.9,-0.5 -0.4,-0.1 -0.9,-0.1 -1.5,-0.1 l -2.4,0 c -0.4,0.7 -0.6,1.5 -0.7,2.4 -0.1,0.8 -0.2,1.7 -0.2,2.5 0,0.5 0,0.9 0,1.3 0,0.4 0.1,0.8 0.1,1.2 0.1,0.4 0.1,0.8 0.2,1.2 0.1,0.4 0.2,0.8 0.3,1.2 l 0.3,0.9 c 0,0.4 -0.1,0.9 -0.2,1.3 -0.1,0.4 -0.1,0.8 -0.2,1.2 l -7.9,0 0,-3.5 3.7,0 c -0.3,-0.8 -0.5,-1.6 -0.6,-2.4 -0.1,-0.8 -0.2,-1.5 -0.2,-2.2 0,-0.6 0,-1.2 0.1,-1.8 0.1,-0.6 0.2,-1.2 0.4,-1.8 0.1,-0.3 0.2,-0.5 0.3,-0.8 0.1,-0.3 0.2,-0.5 0.3,-0.8 -0.5,0 -0.9,-0.1 -1.4,-0.2 -0.5,-0.1 -1,-0.3 -1.6,-0.5 0.2,-0.6 0.3,-1.1 0.5,-1.7 0.2,-0.6 0.4,-1.1 0.6,-1.7 0.5,0.1 1,0.3 1.4,0.4 0.4,0.1 0.8,0.2 1.1,0.2 0.4,0 0.7,0.1 1.1,0.1 0.4,0 0.9,0 1.4,0 l 5.4,0 z"
     class="st19" /><g
     transform="matrix(0,-1,1,0,-337.4,589.00002)"
     id="g329"><defs
       id="defs331"><rect
         height="1619.8"
         width="953.09998"
         y="119"
         x="65.699997"
         id="SVGID_21_" /></defs><clipPath
       id="SVGID_22_"><use
         height="100%"
         width="100%"
         y="0"
         x="0"
         id="use335"
         style="overflow:visible"
         xlink:href="#SVGID_21_" /></clipPath><path
       style="fill:#fbb65a;fill-opacity:1"
       clip-path="url(#SVGID_22_)"
       id="path337"
       d="m 521.5,475 c -12.6,0 -47.3,-22.9 -47.3,-22.9 0,0 34.6,-22.9 47.3,-22.9 12.6,0 22.9,10.2 22.9,22.9 0,12.7 -10.3,22.9 -22.9,22.9"
       class="st24" /></g><g
     transform="matrix(0,-1,1,0,-337.4,589.00002)"
     id="g339"><defs
       id="defs341"><rect
         height="26"
         width="28.799999"
         y="439.60001"
         x="508.89999"
         id="SVGID_23_" /></defs><clipPath
       id="SVGID_24_"><use
         height="100%"
         width="100%"
         y="0"
         x="0"
         id="use345"
         style="overflow:visible"
         xlink:href="#SVGID_23_" /></clipPath><path
       style="fill:#ffffff"
       clip-path="url(#SVGID_24_)"
       id="path347"
       d="m 527.8,459.7 c 0.5,-1 1.1,-2.1 1.9,-3 0.8,0.6 2.4,1.8 3.7,1.6 0.4,-0.1 0.8,-0.3 1,-0.6 0.2,-0.3 0.3,-0.6 0.3,-0.9 0,-0.7 -0.5,-1.4 -1,-1.9 0.2,0 0.4,0 0.6,0.1 1.6,0.2 2.5,1 2.6,2.1 0,0 0,0.1 0,0.1 0,1.2 -1,2.6 -2.6,3 -1.9,0.4 -4,0.2 -6.5,-0.5 m 2.8,-3.9 c 0.5,-0.4 1.1,-0.7 1.7,-0.8 0.8,0.4 1.4,0.9 1.4,1.5 0,0.2 0,0.3 -0.1,0.4 -0.1,0.2 -0.4,0.3 -0.6,0.4 -0.7,0 -1.6,-0.8 -2.4,-1.5 m -1.3,-1.4 -0.7,-0.9 1.1,0.3 c 0.3,0.1 0.9,0.3 1.5,0.5 -0.4,0.2 -0.8,0.4 -1.2,0.7 -0.3,-0.2 -0.6,-0.5 -0.7,-0.6 m -9.5,11.4 c 0.2,-0.1 5.9,-2.1 7.3,-4.8 0.1,-0.2 0.2,-0.3 0.3,-0.5 2.7,0.8 5,1.1 7,0.5 1.9,-0.5 3.4,-2.3 3.3,-4.1 -0.1,-1.6 -1.3,-2.7 -3.3,-3 -0.6,-0.1 -1.2,-0.1 -1.7,0 -0.5,-0.4 -0.9,-0.6 -1.1,-0.7 l -21.8,-13.7 c -0.2,-0.1 -0.4,-0.2 -0.6,-0.1 l -0.2,0.1 0,0.3 c 0,0.2 0.2,0.4 0.3,0.5 l 19.8,15.8 c -0.9,1 -1.5,2.2 -2.1,3.3 -1.5,-0.5 -3.2,-1.1 -5,-1.9 -5,-2.1 -9.1,-1.1 -10.1,0.4 0,0.1 -0.1,0.2 -0.1,0.2 0,0.1 0.1,0.3 0.2,0.4 0.2,0.1 0.5,0.1 0.6,-0.1 0.7,-1 4.3,-2 9,0 1.8,0.8 3.4,1.4 4.9,1.9 -0.1,0.1 -0.1,0.2 -0.2,0.4 -1.3,2.4 -6.8,4.3 -6.8,4.4 -0.2,0.1 -0.4,0.3 -0.3,0.6 0.1,0 0.4,0.1 0.6,0.1"
       class="st25" /></g></svg>