<?xml version="1.0" encoding="UTF-8" standalone="no"?>
<svg
   xmlns:dc="http://purl.org/dc/elements/1.1/"
   xmlns:cc="http://creativecommons.org/ns#"
   xmlns:rdf="http://www.w3.org/1999/02/22-rdf-syntax-ns#"
   xmlns:svg="http://www.w3.org/2000/svg"
   xmlns="http://www.w3.org/2000/svg"
   version="1.1"
   id="svg6902"
   viewBox="0 0 323.89999 160.30003"
   height="45.240231mm"
   width="91.411774mm">
  <defs
     id="defs6904" />
  <metadata
     id="metadata6907">
    <rdf:RDF>
      <cc:Work
         rdf:about="">
        <dc:format>image/svg+xml</dc:format>
        <dc:type
           rdf:resource="http://purl.org/dc/dcmitype/StillImage" />
        <dc:title></dc:title>
      </cc:Work>
    </rdf:RDF>
  </metadata>
  <g
     transform="translate(-158.05,-549.35504)"
     id="layer1">
    <g
       transform="translate(-7.85005,0)"
       id="g7516">
      <path
         id="path767_1_"
         class="st13"
         d="m 359.95005,643.55506 c 0,17.60001 -32.1,66.10001 -32.1,66.10001 0,0 -32.1,-48.5 -32.1,-66.10001 0,-17.6 14.5,-32.1 32.1,-32.1 17.6,0 32.1,14.3 32.1,32.1"
         style="fill:#6f4d80" />
      <path
         id="path861_1_"
         class="st14"
         d="m 339.35005,634.05506 c -1.7,-0.8 -2.8,-1.7 -4.2,-2.5 0.8,-1.2 2.5,-3.3 2,-5 0,-0.3 -0.3,-1.2 -0.8,-1.7 -0.3,-0.3 -0.8,-0.3 -1.2,-0.3 -0.8,0 -2,0.8 -2.8,1.2 0,-0.3 0,-0.3 0,-0.8 0.3,-2 1.2,-3.7 2.8,-3.7 l 0,0 c 1.7,0 3.7,1.2 4.2,3.7 1.3,2.5 0.8,5.5 0,9.1 m -5.4,-4.1 c -0.3,-0.8 -0.8,-1.7 -1.2,-2.5 0.3,-1.2 1.2,-2 2,-2 0.3,0 0.3,0 0.3,0 0.3,0 0.3,0.3 0.3,0.8 0.6,1.7 -0.5,2.8 -1.4,3.7 m -1.9,2.1 -1.2,0.8 0.3,-1.7 c 0,-0.3 0.3,-1.2 0.8,-2 0.3,0.3 0.8,1.2 1.2,1.7 -0.8,0.7 -1.1,0.7 -1.1,1.2 m 15.9,13.1 c 0,-0.3 -2.8,-8.1 -6.6,-10.3 -0.3,0 -0.3,-0.3 -0.8,-0.3 1.2,-3.7 1.7,-7 0.8,-9.8 -0.8,-2.8 -3.3,-5 -5.8,-4.5 -2,0 -3.7,2 -4.2,4.5 0,0.8 0,1.7 0,2.5 -0.3,0.8 -0.8,1.2 -0.8,1.7 l -19.3,30.40001 c 0,0.3 -0.3,0.3 0,0.8 l 0,0.3 0.3,0 c 0.3,0 0.3,-0.3 0.8,-0.3 l 22.3,-27.60001 c 1.2,1.2 3.3,2 4.5,2.8 -0.8,2 -1.7,4.5 -2.5,7 -2.8,7.00001 -1.7,12.80001 0.3,14.00001 l 0.3,0 c 0,0 0.3,0 0.3,-0.3 0,-0.3 0,-0.8 0,-0.8 -1.7,-0.8 -2.8,-6.10001 0,-12.30001 1.2,-2.5 2,-5 2.5,-7 0,0 0.3,0 0.3,0.3 3.3,1.7 6.1,9.5 6.1,9.5 0,0.3 0.3,0.3 0.8,0.3 0.7,0 0.7,-0.5 0.7,-0.9"
         style="fill:#f6f6f6" />
    </g>
    <rect
       style="fill:#6f4d80"
       height="53.5"
       width="323.89999"
       class="st13"
       y="549.35504"
       x="158.05"
       id="rect755_1_" />
    <g
       transform="translate(-2475.85,153.85507)"
       id="XMLID_1053_">
      <g
         id="XMLID_1511_">
        <g
           id="XMLID_1540_">
          <polygon
             style="fill:#ffffff"
             points="2687.3,413.6 2686.8,409.1 2692.4,409.1 2692.9,413.6 2692.9,419.7 2692.9,422.2 2687.3,423.2 "
             class="st5"
             id="XMLID_1541_" />
        </g>
        <g
           id="XMLID_1538_">
          <polygon
             style="fill:#ffffff"
             points="2698.4,413.6 2697.9,409.1 2703.5,409.1 2704,413.6 2704,419.7 2704,422.2 2698.4,423.2 "
             class="st5"
             id="XMLID_1539_" />
        </g>
        <g
           id="XMLID_1536_">
          <polygon
             style="fill:#ffffff"
             points="2713.5,408.9 2725.3,408.9 2725.3,409.1 2725.3,413.8 2718.3,431.4 2712.7,431.4 2719.6,413.3 2708.3,413.3 2708.3,403.3 2713.5,403.3 "
             class="st5"
             id="XMLID_1537_" />
        </g>
        <g
           id="XMLID_1534_">
          <path
             style="fill:#ffffff"
             d="m 2729.6,427.1 7.8,0 c 1.5,0 2.7,-0.5 3.5,-1.5 0.8,-1 1.3,-2.3 1.3,-4 l 0,-2.8 c 0,-1.7 -0.3,-3 -1.2,-4 -0.7,-1 -1.8,-1.5 -3.3,-1.5 l -2.8,0 -0.7,3.3 c 0,0.3 -0.2,0.7 -0.2,1 0,0.7 0.2,1.2 0.7,1.5 0.3,0.3 1,0.7 2,0.8 l -0.8,3.5 c -2.3,0 -4,-0.5 -5,-1.5 -1,-1 -1.5,-2.3 -1.5,-4 0,-0.7 0,-1.2 0.2,-1.7 l 1.5,-7 8.3,0 c 2.7,0 4.8,0.8 6.3,2.7 1.5,1.9 2.3,4.2 2.3,7.3 l 0,2.3 c 0,3.2 -0.8,5.6 -2.5,7.3 -1.7,1.8 -3.8,2.7 -6.6,2.7 l -9.1,0 0,-4.5 -0.2,0 z"
             class="st5"
             id="XMLID_1535_" />
        </g>
        <g
           id="XMLID_1529_">
          <g
             id="XMLID_1530_">
            <path
               style="fill:#ffffff"
               d="m 2767.7,428.4 c -3,2 -7.5,3.2 -13.1,3.3 l -2.2,-18.4 -0.5,-4.2 12,0 c 2.5,0 4.5,0.7 6,2.2 1.5,1.5 2.2,3.5 2.2,6 l 0,1.3 c 0,4.5 -1.5,7.8 -4.4,9.8 z m -4,-2.8 c 1,-0.7 1.7,-1.5 2.2,-2.7 0.3,-1.2 0.5,-2.7 0.5,-4.5 l 0,-1.2 c 0,-1.2 -0.3,-2.2 -0.8,-2.8 -0.5,-0.7 -1.3,-1 -2.2,-1 l -5.3,0 1.5,13.5 c 1.6,-0.3 3.1,-0.7 4.1,-1.3 z"
               class="st5"
               id="XMLID_1531_" />
          </g>
        </g>
        <g
           id="XMLID_1527_">
          <polygon
             style="fill:#ffffff"
             points="2782.8,431.4 2777.1,431.4 2777.1,413.6 2776.6,409.1 2782.3,409.1 2782.8,413.6 "
             class="st5"
             id="XMLID_1528_" />
        </g>
        <g
           id="XMLID_1522_">
          <g
             id="XMLID_1523_">
            <path
               style="fill:#ffffff"
               d="m 2787.6,420.4 0.8,-2.7 4.8,0 0,21.4 -5.6,0 0,-18.7 z m 7.8,6.8 c 1.8,-0.2 3.2,-0.8 4,-1.8 0.8,-1 1.3,-2.8 1.5,-5.3 l 0.5,-6.8 -13.6,0 0,-4.2 19.6,0 -0.2,3.7 -0.5,5.8 c -0.5,8.5 -4.2,12.8 -11,12.8 l -0.3,-4.2 z"
               class="st5"
               id="XMLID_1524_" />
          </g>
        </g>
        <g
           id="XMLID_1520_">
          <path
             style="fill:#ffffff"
             d="m 2820.1,409.1 5.6,0 2,17.6 c 2.7,-0.3 4.7,-1 5.8,-2.3 1.2,-1.3 1.7,-3.3 1.7,-5.6 l 0,-1.2 c 0,-1.2 -0.3,-2.2 -1,-3 -0.7,-0.8 -1.7,-1.3 -2.8,-1.3 l -2,-0.2 0.5,-4.3 2.3,0.2 c 2.5,0.2 4.5,0.8 6,2.3 1.5,1.3 2.3,3.3 2.5,5.8 l 0,1.2 c 0.2,4.7 -1.3,8 -4.5,10.1 -3.2,2.2 -7.6,3.5 -13.5,3.7 l -2.6,-23 z"
             class="st5"
             id="XMLID_1521_" />
        </g>
        <g
           id="XMLID_1518_">
          <polygon
             style="fill:#ffffff"
             points="2850.7,431.4 2845.1,431.4 2845.1,413.6 2844.6,409.1 2850.2,409.1 2850.7,413.6 "
             class="st5"
             id="XMLID_1519_" />
        </g>
        <g
           id="XMLID_1516_">
          <path
             style="fill:#ffffff"
             d="m 2855.9,427.1 7.8,0 c 1.5,0 2.7,-0.5 3.5,-1.5 0.8,-1 1.3,-2.3 1.3,-4 l 0,-2.8 c 0,-1.7 -0.3,-3 -1.2,-4 -0.7,-1 -1.8,-1.5 -3.3,-1.5 l -2.8,0 -0.7,3.3 c 0,0.3 -0.2,0.7 -0.2,1 0,0.7 0.2,1.2 0.7,1.5 0.3,0.3 1,0.7 2,0.8 l -0.8,3.5 c -2.3,0 -4,-0.5 -5,-1.5 -1,-1 -1.5,-2.3 -1.5,-4 0,-0.7 0,-1.2 0.2,-1.7 l 1.5,-7 8.3,0 c 2.7,0 4.8,0.8 6.3,2.7 1.5,1.9 2.3,4.2 2.3,7.3 l 0,2.3 c 0,3.2 -0.8,5.6 -2.5,7.3 -1.7,1.8 -3.8,2.7 -6.6,2.7 l -9.1,0 0,-4.5 -0.2,0 z"
             class="st5"
             id="XMLID_1517_" />
        </g>
        <g
           id="XMLID_1514_">
          <polygon
             style="fill:#ffffff"
             points="2879,413.6 2878.5,409.1 2884.1,409.1 2884.6,413.6 2884.6,419.7 2884.6,422.2 2879,423.2 "
             class="st5"
             id="XMLID_1515_" />
        </g>
        <g
           id="XMLID_1512_">
          <path
             style="fill:#ffffff"
             d="m 2907.9,427.7 c -3.2,2.7 -8,4.2 -14.6,4.2 l -1.2,0 -3,-22.6 5.3,0 1.2,9.6 c 1,-0.5 1.7,-1.3 2.2,-2.3 0.3,-1 0.5,-2.7 0.5,-4.7 l 0,-2.7 5.3,0 0,2.5 c 0,2.8 -0.7,5.1 -1.7,7 -1.2,1.8 -3,3.2 -5.8,4.2 l 0.5,4.5 c 3.7,-0.2 6.3,-1.3 8,-3.2 1.7,-1.9 2.3,-4.7 2.3,-8 l 0,-6.8 5.6,0 0,6.5 c 0.2,5 -1.5,9 -4.6,11.8 z"
             class="st5"
             id="XMLID_1513_" />
        </g>
      </g>
    </g>
  </g>
</svg>
