<?xml version="1.0" encoding="UTF-8" standalone="no"?>
<svg
   xmlns:dc="http://purl.org/dc/elements/1.1/"
   xmlns:cc="http://creativecommons.org/ns#"
   xmlns:rdf="http://www.w3.org/1999/02/22-rdf-syntax-ns#"
   xmlns:svg="http://www.w3.org/2000/svg"
   xmlns="http://www.w3.org/2000/svg"
   width="47.131111mm"
   height="24.948441mm"
   viewBox="0 0 167 88.399986"
   id="svg4664"
   version="1.1">
  <defs
     id="defs4666" />
  <metadata
     id="metadata4669">
    <rdf:RDF>
      <cc:Work
         rdf:about="">
        <dc:format>image/svg+xml</dc:format>
        <dc:type
           rdf:resource="http://purl.org/dc/dcmitype/StillImage" />
        <dc:title></dc:title>
      </cc:Work>
    </rdf:RDF>
  </metadata>
  <g
     id="layer1"
     transform="translate(-150.78572,-802.44794)">
    <g
       id="g4725">
      <g
         id="g4721">
        <path
           id="path487_2_"
           class="st4259"
           d="m 251.68573,854.94792 c 0,9.6 -17.39999,35.9 -17.39999,35.9 0,0 -17.4,-26.3 -17.4,-35.9 0,-9.6 7.8,-17.4 17.4,-17.4 9.6,0 17.39999,7.9 17.39999,17.4"
           style="fill:#d29839;fill-opacity:1" />
        <path
           id="path489_2_"
           class="st4262"
           d="m 234.28574,863.64792 c -4.9,0 -8.9,-4 -8.9,-8.9 0,-4.9 4,-8.9 8.9,-8.9 4.9,0 8.9,4 8.9,8.9 0,4.9 -4,8.9 -8.9,8.9 m 0,-19.8 c -6,0 -10.9,4.9 -10.9,10.9 0,6 4.9,10.9 10.9,10.9 6,0 10.9,-4.9 10.9,-10.9 0,-6 -4.9,-10.9 -10.9,-10.9 m 0,9.6 c -0.7,0 -1.3,0.7 -1.3,1.3 l 0,4 c 0,0.7 0.7,1.3 1.3,1.3 0.6,0 1.3,-0.7 1.3,-1.3 l 0,-4 c 0,-0.7 -0.6,-1.3 -1.3,-1.3 m 0,-4 c -0.7,0 -1.3,0.7 -1.3,1.3 0,0.7 0.7,1.3 1.3,1.3 0.6,0 1.3,-0.7 1.3,-1.3 0,-0.7 -0.6,-1.3 -1.3,-1.3"
           style="opacity:0.8;fill:#ffffff" />
      </g>
      <g
         id="g4706">
        <rect
           id="rect475_10_"
           x="150.78572"
           y="802.44794"
           class="st4259"
           width="167"
           height="29"
           style="fill:#401225" />
        <g
           id="g449"
           transform="translate(-717.81427,-1.55208)">
          <g
             id="g451">
            <path
               class="st4267"
               d="m 891.9,813.1 c 0.8,0.8 1.2,1.9 1.2,3.5 l 0,9.5 -3.6,0 -7.8,0 -0.7,0 0,-14.1 3.6,0 4.3,0 c 1.2,0 2.3,0.4 3,1.1 z m -2.4,10.4 0,-7 c 0,-1.2 -0.6,-1.8 -1.7,-1.8 l -3.3,0 0,8.8 5,0 z"
               id="path453"
               style="fill:#ef7a8f" />
            <path
               class="st4267"
               d="m 896.5,814.9 -0.3,-2.9 3.6,0 0.3,2.9 0,3.9 0,1.6 -3.5,0.6 0,-6.1 z"
               id="path455"
               style="fill:#ef7a8f" />
            <path
               class="st4267"
               d="m 911.3,820.4 3.3,5.8 -3.6,0 -8.3,0 0,-2.7 6.7,0 -6.4,-11.5 3.6,0 2.8,5 2,-5 3.5,0 -3.6,8.4 z"
               id="path457"
               style="fill:#ef7a8f" />
            <path
               class="st4267"
               d="m 917.8,823.5 5,0 c 1,0 1.7,-0.3 2.2,-0.9 0.5,-0.6 0.8,-1.5 0.8,-2.6 l 0,-1.8 c 0,-1 -0.2,-1.9 -0.7,-2.5 -0.5,-0.6 -1.2,-1 -2.1,-1 l -1.8,0 -0.4,2.1 c 0,0.2 -0.1,0.4 -0.1,0.6 0,0.4 0.1,0.7 0.4,1 0.2,0.2 0.7,0.4 1.2,0.5 l -0.6,2.2 c -1.5,0 -2.5,-0.4 -3.2,-1 -0.7,-0.6 -1,-1.5 -1,-2.6 0,-0.4 0,-0.8 0.1,-1.1 l 1,-4.5 5.2,0 c 1.7,0 3.1,0.6 4,1.7 1,1.1 1.5,2.7 1.5,4.6 l 0,1.5 c 0,2 -0.5,3.5 -1.6,4.7 -1,1.1 -2.4,1.7 -4.2,1.7 l -5.8,0 0,-2.6 z"
               id="path459"
               style="fill:#ef7a8f" />
            <path
               class="st4267"
               d="m 943.2,813.2 c 0.8,0.8 1.2,2 1.2,3.6 l 0,9.4 -3.6,0 0,-9.5 c 0,-1.3 -0.6,-1.9 -1.7,-1.9 l -3.3,0 0,11.5 -3.6,0 0,-12.5 0,-1.8 7.9,0 c 1.3,0 2.3,0.4 3.1,1.2 z"
               id="path461"
               style="fill:#ef7a8f" />
            <path
               class="st4267"
               d="m 952.3,824.2 c 0.6,-0.1 1.1,-0.2 1.4,-0.4 0.3,-0.2 0.5,-0.4 0.6,-0.8 0.1,-0.4 0.2,-0.8 0.1,-1.4 l 0,-9.6 7.5,0 c 1.3,0 2.4,0.4 3.1,1.1 0.8,0.8 1.1,1.9 1.1,3.5 l 0,9.5 -3.6,0 0,-9.7 c 0,-1.2 -0.6,-1.8 -1.7,-1.8 l -2.9,0 0,6.5 c 0,1.3 -0.2,2.3 -0.6,3 -0.4,0.7 -1,1.3 -1.8,1.7 -0.8,0.4 -1.8,0.6 -3.2,0.7 l 0,-2.3 z"
               id="path463"
               style="fill:#ef7a8f" />
            <path
               class="st4267"
               d="m 975.3,816.5 c 0,-1.2 -0.6,-1.8 -1.7,-1.8 l -4.8,0 0,-2.7 5.8,0 c 1.3,0 2.4,0.4 3.1,1.1 0.8,0.8 1.2,1.9 1.2,3.5 l 0,9.5 -3.6,0 0,-9.6 z"
               id="path465"
               style="fill:#ef7a8f" />
            <path
               class="st4267"
               d="m 982.4,814.9 -0.3,-2.9 3.6,0 0.3,2.9 0,3.9 0,1.6 -3.5,0.6 0,-6.1 z"
               id="path467"
               style="fill:#ef7a8f" />
            <path
               class="st4267"
               d="m 1001.3,824.5 c -1.1,1.3 -2.6,2 -4.5,2 -0.7,0 -1.5,-0.1 -2.3,-0.3 l 0.3,-2.7 c 0.6,0.1 1.1,0.2 1.5,0.2 1.1,0 1.9,-0.4 2.4,-1.1 0.5,-0.8 0.7,-1.9 0.7,-3.3 0,-1.6 -0.2,-2.8 -0.7,-3.6 -0.5,-0.7 -1.2,-1.1 -2.1,-1.1 -0.7,0 -1.2,0.2 -1.7,0.6 -0.5,0.4 -0.7,0.9 -0.9,1.6 l -1.5,9.4 -3.5,0 1.7,-9.5 -2,-4.6 3.7,0 1,2.8 c 0.3,-1 0.9,-1.8 1.6,-2.3 0.7,-0.5 1.5,-0.8 2.4,-0.8 1.8,0 3.1,0.6 4,1.8 0.9,1.2 1.4,3 1.4,5.5 0,2.3 -0.5,4.1 -1.5,5.4 z"
               id="path469"
               style="fill:#ef7a8f" />
            <path
               class="st4267"
               d="m 1017.3,823.8 c -2,1.7 -5.1,2.6 -9.3,2.6 l -0.8,0 -1.9,-14.4 3.4,0 0.7,6.1 c 0.7,-0.3 1.1,-0.8 1.3,-1.5 0.2,-0.7 0.3,-1.7 0.3,-3 l 0,-1.6 3.4,0 0,1.6 c 0,1.8 -0.4,3.3 -1.1,4.4 -0.7,1.1 -1.9,2 -3.7,2.6 l 0.3,2.8 c 2.4,-0.1 4,-0.8 5.1,-2 1,-1.2 1.5,-2.9 1.5,-5.1 l 0,-4.3 3.6,0 0,4.1 c 0.2,3.4 -0.8,6 -2.8,7.7 z"
               id="path471"
               style="fill:#ef7a8f" />
          </g>
        </g>
      </g>
    </g>
  </g>
</svg>
