<svg width="169.6" height="145.9" viewBox="0 0 44.873 38.602" xmlns="http://www.w3.org/2000/svg">
    <path style="fill:#0b608c;fill-opacity:1" d="M2062.8 361.6h165v50.2h-165z" transform="translate(-545.776 -95.672) scale(.26458)"/>
    <path d="M2077.5 402.6v-22.7l-.4-4h5l.4 4v22.7zm9.2-6.2-1.8-3.9c1.7-.6 3-1.2 4.1-2.1 1.1-.8 1.9-1.8 2.5-2.9l1.7 2.6c-.4 1-1 1.9-1.5 2.8-.6.8-1.2 1.5-2.1 2.1-.8.4-1.8.9-2.9 1.4zm6.1-.7-1.4-7.9V382c0-.8-.1-1.4-.4-1.8-.3-.4-.7-.6-1.2-.7l-2.2-.3.6-3.7 4.1.6c1.4.1 2.5.7 3.2 1.5.7.8 1 2.1 1 3.7v6.6l1.1 7.7zm8.2 0v-15.8l-.4-4h5l.4 4v15.8zm8.4 0 2.4-13.3-2.8-6.4h5.3l2.4 6.6-2.1 13.1zm7.6.1.4-3.7c1.7.4 3 .4 4 0s1.7-1.1 1.9-2.2c.4-1.1.6-2.5.6-4 0-1.4-.1-2.6-.4-3.5-.3-1-.7-1.5-1.2-1.9-.6-.4-1.2-.6-2.1-.6-.6 0-1.2.1-1.7.4-.6.3-1 .7-1.2 1.1-.2.4-.6 1.1-.6 1.8l-1.1-2.1c.4-1.8 1.2-3 2.2-3.9 1.1-.8 2.2-1.2 3.5-1.2 1.2 0 2.4.1 3.2.6 1 .4 1.7 1 2.4 1.8s1.1 1.9 1.5 3.2c.3 1.2.6 2.8.6 4.4 0 2.5-.4 4.7-1.4 6.4-1 1.7-2.2 2.9-4 3.6-1.9.2-4.1.4-6.6-.2zm30.4-.1v-13.6c0-.8-.1-1.5-.6-1.9-.5-.4-1-.6-1.8-.6h-6.8v-3.7h8.2c1.1 0 2.2.3 3 .7.8.4 1.7 1.1 2.1 2.1.6 1 .8 2.2.8 3.7v13.3zm-9.1 0V392h16.5v3.7zm31.3 0v-13.3c0-1.8-.8-2.8-2.4-2.8h-9.7v-3.7h10.9c1.1 0 2.2.3 3.2.7.8.4 1.7 1.2 2.1 2.2.4 1 .7 2.2.7 3.9v13.1zm-11.9 0v-17.4h5v17.4zm28.6 0v-13.6c0-.8-.1-1.5-.6-1.9-.4-.4-1-.6-1.7-.6h-6.8v-3.7h8c1.1 0 2.2.3 3 .7.8.4 1.7 1.1 2.1 2.1.4 1 .8 2.2.8 3.7v13.3zm8.4 0 2.4-13.3-2.8-6.4h5.3l2.4 6.6-2.1 13.1zm7.7.1.4-3.7c1.7.4 3 .4 4 0s1.7-1.1 1.9-2.2c.4-1.1.6-2.5.6-4 0-1.4-.1-2.6-.4-3.5-.3-1-.7-1.5-1.2-1.9-.6-.4-1.2-.6-2.1-.6-.6 0-1.2.1-1.7.4-.6.3-1 .7-1.2 1.1-.3.4-.6 1.1-.6 1.8l-1.1-2.1c.4-1.8 1.2-3 2.2-3.9 1.1-.8 2.2-1.2 3.5-1.2 1.2 0 2.4.1 3.2.6 1 .4 1.7 1 2.4 1.8s1.1 1.9 1.5 3.2c.3 1.2.6 2.8.6 4.4 0 2.5-.4 4.7-1.4 6.4-1 1.7-2.2 2.9-4 3.6-1.9.2-4.2.4-6.6-.2z" style="fill:#fff" transform="translate(-545.776 -95.672) scale(.26458)"/>
    <path d="M132.267 188.984c0 3.73-6.72 14.155-6.72 14.155s-6.72-10.319-6.72-14.155c0-3.73 2.99-6.72 6.72-6.72 3.73-.16 6.72 2.857 6.72 6.72" style="fill:#0b608c;stroke-width:.26458;fill-opacity:1" transform="translate(-103.11 -164.537)"/>
</svg>
