<?xml version="1.0" encoding="UTF-8" standalone="no"?>
<svg
   xmlns:dc="http://purl.org/dc/elements/1.1/"
   xmlns:cc="http://creativecommons.org/ns#"
   xmlns:rdf="http://www.w3.org/1999/02/22-rdf-syntax-ns#"
   xmlns:svg="http://www.w3.org/2000/svg"
   xmlns="http://www.w3.org/2000/svg"
   version="1.1"
   id="svg4973"
   viewBox="0 0 171.80004 137.49999"
   height="137.5"
   width="171.80003">
  <defs
     id="defs4975" />
  <metadata
     id="metadata4978">
    <rdf:RDF>
      <cc:Work
         rdf:about="">
        <dc:format>image/svg+xml</dc:format>
        <dc:type
           rdf:resource="http://purl.org/dc/dcmitype/StillImage" />
        <dc:title></dc:title>
      </cc:Work>
    </rdf:RDF>
  </metadata>
  <path
     style="fill:#e04c26;fill-opacity:1"
     d="m 113.10001,81.499979 c 0,15 -27.200004,56.000011 -27.200004,56.000011 0,0 -27.2,-41.100011 -27.2,-56.000011 0,-14.9 12.3,-27.2 27.2,-27.2 14.900004,0 27.200004,12.3 27.200004,27.2"
     class="st3"
     id="path457_2_" />
  <g
     transform="matrix(0.42702949,0,0,0.42702949,-275.45068,-805.82354)"
     id="g4679-4-9_3_">
    <path
       style="fill:#ffffff;enable-background:new"
       d="m 870.5,2056.6 c 6.6,-0.3 12.5,-6 14,-12.3 -6.4,0 -12.7,6.3 -14,12.3 z m -13.7,-7 c -7.7,9.1 -19.1,12.8 -29.2,18.5 -9.1,4.1 -17.4,11.8 -27.5,12.5 -0.3,6.6 2.4,12.5 3.4,18.8 6.6,-2.1 9.4,-1.4 12.5,4.8 6.3,8 21.2,3.4 22,-6.6 9.1,0.3 18.1,-0.3 26.8,-0.7 3.4,3.4 13.3,2.9 11.1,-3.9 -2.4,-14.3 -7,-28.2 -11.1,-42.2 -1,-2.6 -5.5,-0.5 -8,-1.2 z"
       class="st18"
       id="path6-3-7_3_" />
    <path
       style="fill:#e04c26;fill-opacity:1"
       d="m 856.8,2063.6 c -13.3,7.7 -26.8,15.4 -40.8,22.2 1.4,3.4 10.4,1.4 15,2.1 10.8,0 22,0 32.8,0 -1.4,-8.3 -3.1,-17.3 -7,-24.3 z"
       class="st3"
       id="path8-6-3_3_" />
    <path
       style="fill:#ffffff;enable-background:new"
       d="m 879.2,2071.9 c 6,0 11.6,-1.7 17.1,-3.4 1.4,-8.4 -8,-3.9 -12.3,-2.1 -2.4,1 -4.8,2.7 -4.8,5.5 m 0,13.9 c 3.1,4.1 11.1,7.7 16,4.6 3.4,-5.3 -8.4,-4.6 -11.8,-6 -1.8,0 -2.9,0.7 -4.2,1.4 l 0,0 z"
       class="st18"
       id="path10-3-4_3_" />
    <path
       style="fill:#e04c26;fill-opacity:1"
       d="m 817.2,2098.1 c 2.4,5.3 8.4,9.1 12.8,4.1 7.3,-7 -6.6,-3.4 -10.8,-4.1 -0.7,0 -1.3,0 -2,0 z"
       class="st3"
       id="path12-1-9_3_" />
  </g>
  <rect
     style="fill:#1076b3"
     height="45.300003"
     width="168.30002"
     class="st39"
     y="-7.6293945e-006"
     x="3.50002"
     id="rect323_1_" />
  <g
     transform="translate(-425.69998,-1139.9999)"
     id="g1150">
    <path
       style="fill:#ffffff"
       id="path1152"
       d="m 471.8,1162.5 c 0.6,0.9 0.9,2 0.9,3.2 0,1.4 -0.3,2.5 -0.9,3.5 -0.6,1 -1.4,1.7 -2.5,2.2 -1.1,0.5 -2.3,0.8 -3.6,0.8 -1.3,0 -2.5,-0.2 -3.6,-0.7 -1.1,-0.5 -1.9,-1.2 -2.5,-2.1 -0.6,-0.9 -0.9,-2 -0.9,-3.3 l 2.9,0 c 0,0.8 0.2,1.5 0.5,2 0.3,0.5 0.8,1 1.5,1.4 0.7,0.4 1.4,0.5 2.2,0.5 1.3,0 2.3,-0.4 3.1,-1.1 0.7,-0.7 1.1,-1.7 1.1,-3.1 0,-1.4 -0.4,-2.4 -1.2,-3 -0.8,-0.7 -2,-1 -3.5,-1 l -2,0 0,-1.7 0,-0.6 2,0 c 0.9,0 1.8,-0.2 2.4,-0.5 0.7,-0.3 1.1,-0.8 1.5,-1.4 0.3,-0.6 0.5,-1.2 0.5,-2 0,-1.3 -0.3,-2.3 -1,-2.9 -0.7,-0.6 -1.6,-1 -2.9,-1 -0.8,0 -1.5,0.2 -2.1,0.5 -0.6,0.3 -1.1,0.8 -1.4,1.3 -0.3,0.5 -0.5,1.3 -0.5,2 l -2.9,0 c 0,-1.1 0.3,-2.2 0.9,-3.1 0.6,-0.9 1.4,-1.7 2.4,-2.2 1,-0.5 2.2,-0.8 3.6,-0.8 1.4,0 2.5,0.2 3.5,0.7 1,0.5 1.8,1.2 2.3,2.1 0.6,0.9 0.8,2.1 0.8,3.4 0,0.6 -0.1,1.2 -0.4,1.8 -0.3,0.6 -0.6,1.2 -1.2,1.7 -0.5,0.5 -1.2,1 -1.9,1.3 1.3,0.5 2.3,1.2 2.9,2.1 z"
       class="st21" />
    <path
       style="fill:#ffffff"
       id="path1154"
       d="m 497.4,1155.7 -6.6,16.2 -3,0 6.5,-15.7 -10.6,0 0,-7.7 2.8,0 0,5.5 10.9,0 0,1.7 z"
       class="st21" />
    <path
       style="fill:#ffffff"
       id="path1156"
       d="m 502.2,1156.2 -2.1,0 0,-2.3 4.9,0 0,18 -2.8,0 0,-15.7 z"
       class="st21" />
    <path
       style="fill:#ffffff"
       id="path1158"
       d="m 509,1171.3 0.5,-2.1 c 1.6,0.4 3.1,0.7 4.3,0.7 1.7,0 3,-0.4 3.9,-1.2 0.9,-0.8 1.3,-2 1.3,-3.6 l 0,-8.9 -9.4,0 0,-2.3 12.2,0 0,10.6 c 0,2.5 -0.7,4.5 -2,5.8 -1.4,1.3 -3.2,1.9 -5.7,1.9 -1.5,-0.1 -3.2,-0.3 -5.1,-0.9 z"
       class="st21" />
    <path
       style="fill:#ffffff"
       id="path1160"
       d="m 530.1,1168.7 c 1,0.4 2,0.7 3.1,1 1.1,0.2 2.1,0.4 3.1,0.4 1.5,0 2.8,-0.2 3.9,-0.6 1.1,-0.4 2.1,-1.1 2.7,-1.9 0.7,-0.9 1,-1.9 1,-3.2 l 0,-10.4 2.8,0 0,10.7 c 0,1.7 -0.5,3.1 -1.4,4.3 -0.9,1.2 -2.1,2 -3.7,2.6 -1.5,0.6 -3.3,0.9 -5.2,0.9 -1.5,0 -3,-0.2 -4.6,-0.5 -1.6,-0.4 -3.1,-0.9 -4.5,-1.6 l 0,-16.4 2.8,0 0,14.7 z m 5.2,-3.4 c 0.2,-0.7 0.3,-1.5 0.3,-2.4 l 0,-9 2.8,0 0,8.5 c 0,1 -0.1,1.9 -0.4,2.7 -0.3,0.8 -0.6,1.4 -1.2,2 l -2.4,-0.1 c 0.4,-0.5 0.7,-1 0.9,-1.7 z"
       class="st21" />
    <path
       style="fill:#ffffff"
       id="path1162"
       d="m 562.3,1164 5.7,7.9 -3.2,0 -8,-11.1 c -1.1,0.7 -1.6,1.9 -1.6,3.5 l 0,7.5 -2.8,0 0,-6.5 c 0,-1.6 0.3,-2.8 0.8,-3.8 0.5,-1 1.3,-1.7 2.5,-2.3 l -3.9,-5.4 3.2,0 5.6,7.7 4.3,-7.7 3.2,0 -5.8,10.2 z"
       class="st21" />
  </g>
</svg>
