<?xml version="1.0" encoding="UTF-8" standalone="no"?>
<!-- Created with Inkscape (http://www.inkscape.org/) -->

<svg
   width="220.2"
   height="261.60001"
   viewBox="0 0 58.260515 69.21413"
   version="1.1"
   id="svg2792"
   xmlns="http://www.w3.org/2000/svg"
   xmlns:svg="http://www.w3.org/2000/svg">
  <defs
     id="defs2789" />
  <g
     id="layer1"
     transform="translate(-70.952916,-72.8399)">
    <g
       id="g1733"
       transform="matrix(0.26458,0,0,0.26458,-182.43535,-317.15102)">
      <path
         id="rect807_2_"
         style="fill:#a22442"
         d="m 957.7,1474 h 216.5 v 180.9 H 957.7 Z" />
      <path
         id="path819_2_"
         d="m 1091.2,1687.4 c 0,12.8 -23.4,48.2 -23.4,48.2 0,0 -23.4,-35.4 -23.4,-48.2 0,-12.8 10.5,-23.4 23.4,-23.4 12.9,0 23.4,10.4 23.4,23.4"
         style="fill:#0b8e36;fill-opacity:1" />
      <g
         id="g829_1_"
         transform="translate(58.131,235.05)">
        <g
           id="g106">
          <g
             id="g104">
            <g
               id="g102">
              <g
                 id="g100">
                <path
                   id="path837_1_"
                   d="m 1015.6,1448.2 c -1.2,-0.6 -2.1,-1.2 -3,-1.8 0.6,-0.8 1.8,-2.4 1.5,-3.6 0,-0.2 -0.2,-0.8 -0.6,-1.2 -0.2,-0.2 -0.6,-0.2 -0.8,-0.2 -0.6,0 -1.5,0.6 -2.1,0.8 v -0.6 c 0.2,-1.5 0.8,-2.7 2.1,-2.7 1.2,0 2.7,0.8 3,2.7 0.9,2 0.5,4.1 -0.1,6.6 m -3.9,-2.8 c -0.2,-0.6 -0.6,-1.2 -0.8,-1.8 0.2,-0.8 0.8,-1.5 1.5,-1.5 h 0.2 c 0.2,0 0.2,0.2 0.2,0.6 0.5,0.9 -0.5,1.8 -1.1,2.7 m -1.4,1.2 -0.8,0.6 0.2,-1.2 c 0,-0.2 0.2,-0.8 0.6,-1.5 0.2,0.2 0.6,0.8 0.8,1.2 -0.6,0.6 -0.8,0.9 -0.8,0.9 m 11.6,9.9 c 0,-0.2 -2.1,-5.9 -4.8,-7.5 -0.2,0 -0.2,-0.2 -0.6,-0.2 0.8,-2.7 1.2,-5.1 0.6,-7.2 -0.6,-2.1 -2.4,-3.6 -4.2,-3.3 -1.5,0 -2.7,1.5 -3,3.3 v 1.8 c -0.2,0.6 -0.6,0.8 -0.6,1.2 l -14.1,22.2 c 0,0.2 -0.2,0.2 0,0.6 v 0.2 h 0.2 c 0.2,0 0.2,-0.2 0.6,-0.2 l 16.2,-20.1 c 0.8,0.8 2.4,1.5 3.3,2.1 -0.6,1.5 -1.2,3.3 -1.8,5.1 -2.1,5.1 -1.2,9.3 0.2,10.2 h 0.2 c 0,0 0.2,0 0.2,-0.2 v -0.6 c -1.2,-0.6 -2.1,-4.5 0,-9 0.8,-1.8 1.5,-3.6 1.8,-5.1 0,0 0.2,0 0.2,0.2 2.4,1.2 4.5,6.9 4.5,6.9 0,0.2 0.2,0.2 0.6,0.2 0.3,-0.3 0.5,-0.6 0.5,-0.6"
                   style="opacity:1;fill:#ffffcc;enable-background:new" />
              </g>
            </g>
          </g>
        </g>
      </g>
      <g
         id="g344">
        <path
           d="m 982,1505.1 h -2.3 v -3.8 h 7.2 v 9.1 H 982 Z"
           id="path254"
           style="fill:#fffffd" />
        <path
           d="m 991.7,1505.1 h -2.3 v -3.8 h 7.2 v 9.1 h -4.9 z"
           id="path256"
           style="fill:#fffffd" />
        <path
           d="m 1012.6,1504.5 -4.9,12.6 h -5.2 l 4.9,-11.9 h -8 v -8 h 4.9 v 4.2 h 8.4 v 3.1 z"
           id="path258"
           style="fill:#fffffd" />
        <path
           d="m 1018.5,1517.1 c -1.1,-0.2 -2.1,-0.4 -3.1,-0.8 l 0.9,-3.6 c 0.9,0.2 1.7,0.4 2.6,0.6 0.9,0.1 1.6,0.2 2.3,0.2 1.2,0 2,-0.3 2.6,-0.7 0.6,-0.5 0.9,-1.2 0.9,-2.2 v -5.5 h -3.9 c -0.1,0.5 -0.2,0.9 -0.3,1.3 0,0.3 -0.1,0.7 -0.1,1.2 v 0.5 c 0.3,0.1 0.6,0.1 0.9,0.1 h 0.2 v 3 c -0.6,0.2 -1.2,0.2 -1.9,0.2 -0.7,0 -1.5,-0.1 -2.2,-0.3 -0.7,-0.2 -1.3,-0.4 -1.8,-0.8 v -1.1 c 0,-0.8 0.1,-1.6 0.2,-2.3 0.2,-0.7 0.4,-1.3 0.7,-1.8 h -1.5 v -3.8 h 14.5 v 8.7 c 0,1.7 -0.4,3.1 -1.1,4.2 -0.7,1.1 -1.7,1.9 -2.9,2.4 -1.2,0.5 -2.5,0.8 -4,0.8 -0.8,0 -1.9,-0.1 -3,-0.3 z"
           id="path260"
           style="fill:#fffffd" />
        <path
           d="m 1036.7,1516.4 c -1.1,-0.6 -1.9,-1.5 -2.6,-2.6 -0.6,-1.1 -0.9,-2.4 -1,-3.9 v -0.6 c 0,-0.6 0.1,-1.3 0.4,-2.1 0.2,-0.8 0.5,-1.4 0.8,-1.9 0,0 0.1,-0.1 0.2,-0.3 v -0.1 c -0.3,0.1 -0.8,0.2 -1.7,0.4 l -0.9,-3.5 c 1.1,-0.3 2.3,-0.6 3.7,-0.7 1.4,-0.2 2.8,-0.3 4.1,-0.3 2.6,0 4.5,0.6 5.9,1.9 1.3,1.3 2,3.2 2,5.7 v 1.4 c 0,1.5 -0.3,2.8 -0.9,3.9 -0.6,1.1 -1.5,2 -2.5,2.6 -1.1,0.6 -2.4,0.9 -3.8,0.9 -1.3,0.2 -2.6,-0.1 -3.7,-0.8 z m 5,-3.5 c 0.4,-0.3 0.6,-0.7 0.8,-1.2 0.2,-0.5 0.3,-1.1 0.3,-1.8 v -1.3 c 0,-2.5 -0.8,-3.8 -2.3,-3.8 -0.8,0 -1.4,0.3 -1.8,1 -0.4,0.7 -0.6,1.7 -0.6,3 v 1 c 0,0.7 0.1,1.3 0.3,1.8 0.2,0.5 0.5,0.9 0.8,1.2 0.4,0.3 0.8,0.4 1.2,0.4 0.5,0.1 0.9,0 1.3,-0.3 z"
           id="path262"
           style="fill:#fffffd" />
        <path
           d="m 1050.8,1505.1 h -1.2 v -3.8 h 6.1 v 15.7 h -4.9 z"
           id="path264"
           style="fill:#fffffd" />
        <path
           d="m 1065.7,1513.3 c 1,-0.1 1.7,-0.3 2.2,-0.9 0.5,-0.5 0.7,-1.4 0.7,-2.5 v -4.9 h -8.8 v -3.8 h 13.8 v 8.6 c 0,2.3 -0.7,4 -2,5.2 -1.4,1.2 -3.3,1.9 -5.8,2 v -3.7 z m -5.9,-1.6 c 0,-0.7 0.1,-1.3 0.2,-1.8 0.1,-0.5 0.3,-0.9 0.4,-1.1 0.2,-0.3 0.3,-0.4 0.4,-0.5 h 3.9 c -0.1,0.7 -0.2,1.7 -0.2,2.8 v 11.3 h -4.7 z"
           id="path266"
           style="fill:#fffffd" />
        <path
           d="m 1084.2,1501.3 h 13.8 v 15.7 h -13.8 z m 8.9,11.9 v -8.1 h -4 v 8.1 z"
           id="path268"
           style="fill:#fffffd" />
        <path
           d="m 1102,1501.3 h 7.3 c 2,0 3.6,0.5 4.7,1.5 1.1,1 1.6,2.5 1.6,4.4 v 9.8 h -4.9 v -10.2 c 0,-0.5 -0.1,-1 -0.4,-1.2 -0.2,-0.3 -0.6,-0.4 -1,-0.4 h -2.4 v 11.9 h -4.9 z"
           id="path270"
           style="fill:#fffffd" />
        <path
           d="m 1131.5,1502.8 c 1.1,1 1.6,2.5 1.6,4.4 v 9.8 h -4.9 v -10.2 c 0,-0.5 -0.1,-1 -0.4,-1.2 -0.2,-0.3 -0.6,-0.4 -1,-0.4 h -1.9 c -0.1,1 -0.2,1.9 -0.2,2.8 v 4.1 c 0,1.1 -0.2,2.1 -0.6,2.9 -0.4,0.8 -1,1.4 -1.8,1.8 -0.8,0.4 -1.7,0.6 -2.8,0.6 -0.7,0 -1.4,-0.1 -2.2,-0.2 v -3.8 h 0.8 c 0.5,0 1,-0.1 1.3,-0.4 0.3,-0.3 0.5,-0.7 0.5,-1.3 v -3.3 c 0,-0.5 0.1,-1 0.2,-1.6 0.1,-0.6 0.3,-1.1 0.6,-1.6 h -2.2 v -3.8 h 8.3 c 2,-0.1 3.6,0.4 4.7,1.4 z"
           id="path272"
           style="fill:#fffffd" />
        <path
           d="m 1137.5,1508.8 c 0.1,-0.7 0.2,-1.4 0.5,-2 0.2,-0.6 0.5,-1.1 0.9,-1.5 0.1,-0.1 0.1,-0.1 0.2,-0.1 v -0.1 c -0.3,0.1 -0.7,0.1 -1.1,0.3 -0.4,0.1 -0.8,0.2 -1,0.4 l -1,-3.5 c 1,-0.4 2.2,-0.7 3.6,-0.9 1.4,-0.2 2.7,-0.4 4,-0.4 2.5,0 4.4,0.6 5.7,1.9 1.3,1.3 2,3.1 2,5.6 v 8.7 h -7.1 v -3.8 h 2.2 v -5.6 c 0,-0.9 -0.2,-1.6 -0.5,-2.1 -0.3,-0.5 -0.8,-0.8 -1.3,-0.8 -0.7,0 -1.2,0.3 -1.5,0.8 -0.3,0.5 -0.6,1.3 -0.7,2.4 l -0.8,9 h -4.9 z"
           id="path274"
           style="fill:#fffffd" />
        <path
           d="m 994,1549.8 h -2.8 v -1.9 h 5.2 v 8.5 H 994 Z"
           id="path276"
           style="fill:#fffffd" />
        <path
           d="m 1002,1549.8 h -2.8 v -1.9 h 5.2 v 8.5 h -2.4 z"
           id="path278"
           style="fill:#fffffd" />
        <path
           d="m 1019.2,1549.4 -5.6,13.8 h -2.6 l 5.5,-13.4 h -9 v -6.6 h 2.4 v 4.7 h 9.2 v 1.5 z"
           id="path280"
           style="fill:#fffffd" />
        <path
           d="m 1025.3,1563.2 c -0.9,-0.1 -1.7,-0.4 -2.6,-0.6 l 0.5,-1.8 c 0.8,0.2 1.5,0.4 2.3,0.5 0.8,0.1 1.5,0.2 2.1,0.2 1.4,0 2.5,-0.4 3.3,-1.1 0.8,-0.7 1.2,-1.7 1.2,-3 v -7.6 h -6.1 c -0.3,0.5 -0.5,1.1 -0.7,1.8 -0.2,0.7 -0.3,1.5 -0.3,2.2 v 1.2 c 0.2,0.1 0.4,0.1 0.8,0.2 0.3,0 0.7,0.1 1.3,0.1 v 2.1 c -1.1,0 -1.9,-0.1 -2.5,-0.2 -0.6,-0.1 -1.2,-0.4 -1.8,-0.7 l -0.1,-2 c 0,-0.9 0.1,-1.7 0.3,-2.6 0.2,-0.8 0.5,-1.5 0.9,-2.1 h -1.9 v -1.9 h 12.5 v 9 c 0,1.4 -0.3,2.6 -0.8,3.6 -0.6,1 -1.3,1.7 -2.3,2.2 -1,0.5 -2.2,0.7 -3.5,0.7 -0.9,0 -1.7,-0.1 -2.6,-0.2 z"
           id="path282"
           style="fill:#fffffd" />
        <path
           d="m 1042.2,1562.6 c -1,-0.6 -1.7,-1.4 -2.3,-2.5 -0.5,-1.1 -0.8,-2.3 -0.8,-3.7 v -1.6 c 0,-0.7 0.1,-1.3 0.3,-2 0.2,-0.7 0.4,-1.3 0.8,-1.8 0.3,-0.5 0.7,-0.9 1.1,-1.2 0.1,-0.1 0.1,-0.1 0.2,-0.1 -0.5,0.1 -1.4,0.3 -2.7,0.6 l -0.5,-1.8 c 1,-0.3 2.2,-0.5 3.4,-0.7 1.3,-0.2 2.4,-0.3 3.5,-0.3 1.4,0 2.6,0.3 3.7,0.8 1,0.6 1.8,1.4 2.4,2.4 0.5,1.1 0.8,2.3 0.8,3.8 v 1.8 c 0,1.4 -0.3,2.6 -0.8,3.7 -0.5,1.1 -1.3,1.9 -2.3,2.5 -1,0.6 -2.1,0.9 -3.4,0.9 -1.3,0 -2.5,-0.3 -3.4,-0.8 z m 5.5,-1.8 c 0.6,-0.4 1.1,-1 1.4,-1.7 0.3,-0.8 0.5,-1.6 0.5,-2.6 v -1.8 c 0,-1 -0.2,-1.9 -0.5,-2.7 -0.3,-0.8 -0.8,-1.3 -1.5,-1.7 -0.6,-0.4 -1.4,-0.6 -2.2,-0.6 -0.8,0 -1.4,0.2 -2,0.6 -0.6,0.4 -1,1 -1.4,1.8 -0.3,0.8 -0.5,1.7 -0.5,2.7 v 1.7 c 0,1 0.2,1.9 0.5,2.6 0.3,0.8 0.8,1.3 1.4,1.7 0.6,0.4 1.3,0.6 2.1,0.6 0.8,0 1.5,-0.2 2.2,-0.6 z"
           id="path284"
           style="fill:#fffffd" />
        <path
           d="m 1056.9,1549.8 h -1.8 v -1.9 h 4.2 v 15.3 h -2.4 z"
           id="path286"
           style="fill:#fffffd" />
        <path
           d="m 1069.1,1561.3 c 0.9,0 1.6,-0.2 2.2,-0.6 0.6,-0.4 1.1,-0.9 1.5,-1.5 0.4,-0.6 0.5,-1.4 0.5,-2.3 v -7.1 h -9.4 v -1.9 h 11.9 v 9 c 0,1.3 -0.3,2.4 -0.8,3.3 -0.6,0.9 -1.3,1.7 -2.3,2.2 -1,0.5 -2.2,0.8 -3.5,0.8 v -1.9 z m -4.8,-3.9 c 0,-0.8 0.1,-1.4 0.2,-1.8 0.1,-0.5 0.3,-0.9 0.5,-1.4 h 2 c -0.1,0.4 -0.2,0.8 -0.2,1.3 0,0.5 -0.1,1.1 -0.1,1.8 v 11.3 h -2.3 v -11.2 z"
           id="path288"
           style="fill:#fffffd" />
        <path
           d="m 1087.7,1549.8 h -1.8 v -1.9 h 4.2 v 20.7 h -2.4 z"
           id="path290"
           style="fill:#fffffd" />
        <path
           d="m 1095.5,1549.8 h -1.8 v -1.9 h 4.2 v 15.3 h -2.4 z"
           id="path292"
           style="fill:#fffffd" />
        <path
           d="m 1107.8,1561.3 c 0.9,0 1.6,-0.2 2.2,-0.6 0.6,-0.4 1.1,-0.9 1.5,-1.5 0.4,-0.6 0.5,-1.4 0.5,-2.3 v -7.1 h -9.4 v -1.9 h 11.9 v 9 c 0,1.3 -0.3,2.4 -0.8,3.3 -0.6,0.9 -1.3,1.7 -2.3,2.2 -1,0.5 -2.2,0.8 -3.5,0.8 v -1.9 z m -4.9,-3.9 c 0,-0.8 0.1,-1.4 0.2,-1.8 0.1,-0.5 0.3,-0.9 0.5,-1.4 h 2 c -0.1,0.4 -0.2,0.8 -0.2,1.3 0,0.5 -0.1,1.1 -0.1,1.8 v 11.3 h -2.3 v -11.2 z"
           id="path294"
           style="fill:#fffffd" />
        <path
           d="m 1120.3,1549.8 h -2.8 v -1.9 h 5.2 v 8.5 h -2.4 z"
           id="path296"
           style="fill:#fffffd" />
        <path
           d="m 1138,1549.3 c 1,1 1.5,2.4 1.5,4.4 v 9.4 h -2.4 v -9.6 c 0,-1.3 -0.3,-2.3 -0.9,-2.9 -0.6,-0.6 -1.5,-0.9 -2.7,-0.9 h -2.2 c -0.3,0.5 -0.5,1.1 -0.7,1.8 -0.2,0.7 -0.3,1.5 -0.3,2.3 v 5.2 c 0,1.4 -0.3,2.5 -1,3.2 -0.7,0.7 -1.6,1.1 -2.9,1.1 -0.4,0 -0.9,0 -1.5,-0.1 v -1.9 c 0.3,0 0.6,0.1 0.9,0.1 0.8,0 1.3,-0.2 1.6,-0.6 0.3,-0.4 0.5,-1 0.5,-1.8 v -4.8 c 0,-0.8 0.1,-1.6 0.3,-2.4 0.2,-0.8 0.5,-1.4 0.9,-1.9 h -2.9 v -1.9 h 7.1 c 2.2,-0.2 3.7,0.3 4.7,1.3 z"
           id="path298"
           style="fill:#fffffd" />
        <path
           d="m 1009,1579.8 h 12.2 v 15.3 H 1009 Z m 9.8,13.3 v -11.4 h -7.4 v 11.4 z"
           id="path300"
           style="fill:#fffffd" />
        <path
           d="m 1026.7,1581.7 h -1.8 v -1.9 h 4.2 v 15.3 h -2.4 z"
           id="path302"
           style="fill:#fffffd" />
        <path
           d="m 1044.1,1581.3 -5.6,13.8 h -2.6 l 5.5,-13.4 h -9 v -6.6 h 2.4 v 4.7 h 9.2 v 1.5 z"
           id="path304"
           style="fill:#fffffd" />
        <path
           d="m 1048.6,1581.7 h -2.8 v -1.9 h 5.2 v 8.5 h -2.4 z"
           id="path306"
           style="fill:#fffffd" />
        <path
           d="m 1062.1,1588 4,5.8 v 1.2 h -11.3 v -1.9 h 8.2 l -9.1,-13.4 h 2.7 l 4.1,6.2 3.4,-6.2 h 2.7 z"
           id="path308"
           style="fill:#fffffd" />
        <path
           d="m 1087.4,1581.2 c 1,1 1.5,2.4 1.5,4.4 v 9.4 h -2.4 v -9.6 c 0,-1.3 -0.3,-2.3 -0.9,-2.9 -0.6,-0.6 -1.5,-0.9 -2.7,-0.9 h -2.2 c -0.3,0.5 -0.5,1.1 -0.7,1.8 -0.2,0.7 -0.3,1.5 -0.3,2.3 v 5.2 c 0,1.4 -0.3,2.5 -1,3.2 -0.7,0.7 -1.6,1.1 -2.9,1.1 -0.4,0 -0.9,0 -1.5,-0.1 v -1.9 c 0.3,0 0.6,0.1 0.9,0.1 0.8,0 1.3,-0.2 1.6,-0.6 0.3,-0.4 0.5,-1 0.5,-1.8 v -4.8 c 0,-0.8 0.1,-1.6 0.3,-2.4 0.2,-0.8 0.5,-1.4 0.9,-1.9 h -2.9 v -1.9 h 7.1 c 2.2,-0.1 3.7,0.4 4.7,1.3 z"
           id="path310"
           style="fill:#fffffd" />
        <path
           d="m 1091.6,1595.1 0.1,-1.9 c 0.6,0.1 1.2,0.2 1.9,0.2 0.7,0 1.2,-0.2 1.6,-0.6 0.4,-0.4 0.5,-1 0.5,-1.9 v -9.1 h -3 v -1.9 h 5.4 v 11.3 c 0,1.4 -0.3,2.5 -1,3.2 -0.7,0.7 -1.7,1.1 -3,1.1 -0.8,-0.2 -1.6,-0.3 -2.5,-0.4 z"
           id="path312"
           style="fill:#fffffd" />
        <path
           d="m 1104,1581.7 h -2.8 v -1.9 h 5.2 v 8.5 h -2.4 z"
           id="path314"
           style="fill:#fffffd" />
        <path
           d="m 1113.7,1595.1 c -0.9,-0.1 -1.7,-0.4 -2.6,-0.6 l 0.5,-1.8 c 0.8,0.2 1.5,0.4 2.3,0.5 0.8,0.1 1.5,0.2 2.1,0.2 1.4,0 2.5,-0.4 3.3,-1.1 0.8,-0.7 1.2,-1.7 1.2,-3 v -7.6 h -6.1 c -0.3,0.5 -0.5,1.1 -0.7,1.8 -0.2,0.7 -0.3,1.5 -0.3,2.2 v 1.2 c 0.2,0.1 0.4,0.1 0.8,0.2 0.3,0 0.7,0.1 1.3,0.1 v 2.1 c -1.1,0 -1.9,-0.1 -2.5,-0.2 -0.6,-0.1 -1.2,-0.4 -1.8,-0.7 l -0.1,-2 c 0,-0.9 0.1,-1.7 0.3,-2.6 0.2,-0.8 0.5,-1.5 0.9,-2.1 h -1.9 v -1.9 h 12.5 v 9 c 0,1.4 -0.3,2.6 -0.8,3.6 -0.6,1 -1.3,1.7 -2.3,2.2 -1,0.5 -2.2,0.7 -3.5,0.7 -0.9,0 -1.7,0 -2.6,-0.2 z"
           id="path316"
           style="fill:#fffffd" />
        <path
           d="m 990.6,1613.6 h -2.8 v -1.9 h 5.2 v 8.5 h -2.4 z"
           id="path318"
           style="fill:#fffffd" />
        <path
           d="m 998.1,1613.6 h -1.8 v -1.9 h 4.2 v 15.3 h -2.4 z"
           id="path320"
           style="fill:#fffffd" />
        <path
           d="m 1006,1613.6 h -1.8 v -1.9 h 4.2 v 15.3 h -2.4 z"
           id="path322"
           style="fill:#fffffd" />
        <path
           d="m 1011.5,1627 0.1,-1.9 c 0.6,0.1 1.2,0.2 1.9,0.2 0.7,0 1.2,-0.2 1.6,-0.6 0.4,-0.4 0.5,-1 0.5,-1.9 v -9.1 h -3 v -1.9 h 5.4 v 11.3 c 0,1.4 -0.3,2.5 -1,3.2 -0.7,0.7 -1.7,1.1 -3,1.1 -0.8,-0.1 -1.6,-0.2 -2.5,-0.4 z"
           id="path324"
           style="fill:#fffffd" />
        <path
           d="m 1031.3,1620.3 4.8,6.7 h -2.7 l -6.8,-9.4 c -0.9,0.6 -1.4,1.6 -1.4,3 v 6.4 h -2.3 v -5.5 c 0,-1.3 0.2,-2.4 0.7,-3.3 0.5,-0.8 1.1,-1.5 2.1,-1.9 l -3.3,-4.6 h 2.7 l 4.7,6.5 3.7,-6.5 h 2.7 z"
           id="path326"
           style="fill:#fffffd" />
        <path
           d="m 1046.1,1616.3 c 0,-0.8 -0.2,-1.5 -0.7,-2 -0.5,-0.5 -1.2,-0.7 -2,-0.7 h -5.1 v -1.9 h 5.2 c 1,0 2,0.2 2.7,0.6 0.8,0.4 1.3,0.9 1.7,1.7 0.4,0.8 0.6,1.6 0.6,2.6 v 10.5 h -2.4 z"
           id="path328"
           style="fill:#fffffd" />
        <path
           d="m 1060.6,1613.6 h -2.8 v -1.9 h 5.2 v 8.5 h -2.4 z"
           id="path330"
           style="fill:#fffffd" />
        <path
           d="m 1068.7,1613.6 h -2.8 v -1.9 h 5.2 v 8.5 h -2.4 z"
           id="path332"
           style="fill:#fffffd" />
        <path
           d="m 1085.9,1613.2 -5.6,13.8 h -2.6 l 5.5,-13.4 h -9 v -6.6 h 2.4 v 4.7 h 9.2 v 1.5 z"
           id="path334"
           style="fill:#fffffd" />
        <path
           d="m 1092,1627 c -0.9,-0.1 -1.7,-0.4 -2.6,-0.6 l 0.5,-1.8 c 0.8,0.2 1.5,0.4 2.3,0.5 0.8,0.1 1.5,0.2 2.1,0.2 1.4,0 2.5,-0.4 3.3,-1.1 0.8,-0.7 1.2,-1.7 1.2,-3 v -7.6 h -6.1 c -0.3,0.5 -0.5,1.1 -0.7,1.8 -0.2,0.7 -0.3,1.5 -0.3,2.2 v 1.2 c 0.2,0.1 0.4,0.1 0.8,0.2 0.3,0 0.7,0.1 1.3,0.1 v 2.1 c -1.1,0 -1.9,-0.1 -2.5,-0.2 -0.6,-0.1 -1.2,-0.4 -1.8,-0.7 l -0.1,-2 c 0,-0.9 0.1,-1.7 0.3,-2.6 0.2,-0.8 0.5,-1.5 0.9,-2.1 h -1.9 v -1.9 h 12.5 v 9 c 0,1.4 -0.3,2.6 -0.8,3.6 -0.6,1 -1.3,1.7 -2.3,2.2 -1,0.5 -2.2,0.7 -3.5,0.7 -0.9,0.1 -1.7,0 -2.6,-0.2 z"
           id="path336"
           style="fill:#fffffd" />
        <path
           d="m 1108.8,1626.4 c -1,-0.6 -1.7,-1.4 -2.3,-2.5 -0.5,-1.1 -0.8,-2.3 -0.8,-3.7 v -1.6 c 0,-0.7 0.1,-1.3 0.3,-2 0.2,-0.7 0.4,-1.3 0.8,-1.8 0.3,-0.5 0.7,-0.9 1.1,-1.2 0.1,-0.1 0.1,-0.1 0.2,-0.1 -0.5,0.1 -1.4,0.3 -2.7,0.6 l -0.5,-1.8 c 1,-0.3 2.2,-0.5 3.4,-0.7 1.3,-0.2 2.4,-0.3 3.5,-0.3 1.4,0 2.6,0.3 3.7,0.8 1,0.6 1.8,1.4 2.4,2.4 0.5,1.1 0.8,2.3 0.8,3.8 v 1.8 c 0,1.4 -0.3,2.6 -0.8,3.7 -0.5,1.1 -1.3,1.9 -2.3,2.5 -1,0.6 -2.1,0.9 -3.4,0.9 -1.3,0.1 -2.4,-0.2 -3.4,-0.8 z m 5.5,-1.8 c 0.6,-0.4 1.1,-1 1.4,-1.7 0.3,-0.8 0.5,-1.6 0.5,-2.6 v -1.8 c 0,-1 -0.2,-1.9 -0.5,-2.7 -0.3,-0.8 -0.8,-1.3 -1.5,-1.7 -0.6,-0.4 -1.4,-0.6 -2.2,-0.6 -0.8,0 -1.4,0.2 -2,0.6 -0.6,0.4 -1,1 -1.4,1.8 -0.3,0.8 -0.5,1.7 -0.5,2.7 v 1.7 c 0,1 0.2,1.9 0.5,2.6 0.3,0.8 0.8,1.3 1.4,1.7 0.6,0.4 1.3,0.6 2.1,0.6 0.9,0 1.6,-0.2 2.2,-0.6 z"
           id="path338"
           style="fill:#fffffd" />
        <path
           d="m 1123.6,1613.6 h -1.8 v -1.9 h 4.2 v 15.3 h -2.4 z"
           id="path340"
           style="fill:#fffffd" />
        <path
           d="m 1135.8,1625.1 c 0.9,0 1.6,-0.2 2.2,-0.6 0.6,-0.4 1.1,-0.9 1.5,-1.5 0.4,-0.6 0.5,-1.4 0.5,-2.3 v -7.1 h -9.4 v -1.9 h 11.9 v 9 c 0,1.3 -0.3,2.4 -0.8,3.3 -0.6,0.9 -1.3,1.7 -2.3,2.2 -1,0.5 -2.2,0.8 -3.5,0.8 v -1.9 z m -4.9,-3.8 c 0,-0.8 0.1,-1.4 0.2,-1.8 0.1,-0.5 0.3,-0.9 0.5,-1.4 h 2 c -0.1,0.4 -0.2,0.8 -0.2,1.3 0,0.5 -0.1,1.1 -0.1,1.8 v 11.3 h -2.3 v -11.2 z"
           id="path342"
           style="fill:#fffffd" />
      </g>
    </g>
  </g>
</svg>
