<?xml version="1.0" encoding="UTF-8" standalone="no"?>
<svg
   xmlns:dc="http://purl.org/dc/elements/1.1/"
   xmlns:cc="http://creativecommons.org/ns#"
   xmlns:rdf="http://www.w3.org/1999/02/22-rdf-syntax-ns#"
   xmlns:svg="http://www.w3.org/2000/svg"
   xmlns="http://www.w3.org/2000/svg"
   version="1.1"
   id="svg3858"
   viewBox="0 0 570.60018 102.80002"
   height="102.80002"
   width="570.60016">
  <defs
     id="defs3860" />
  <metadata
     id="metadata3863">
    <rdf:RDF>
      <cc:Work
         rdf:about="">
        <dc:format>image/svg+xml</dc:format>
        <dc:type
           rdf:resource="http://purl.org/dc/dcmitype/StillImage" />
        <dc:title></dc:title>
      </cc:Work>
    </rdf:RDF>
  </metadata>
  <rect
     style="fill:#c52036"
     height="41.299999"
     width="250.10001"
     class="st6"
     y="0"
     x="320.50012"
     id="rect755_2_" />
  <path
     style="fill:#e04c26;fill-opacity:1"
     d="m 312.80008,46.000007 c 0,15.1 -27.5,56.800013 -27.5,56.800013 0,0 -27.50002,-41.600013 -27.50002,-56.800013 0,-15.2 12.40002,-27.5 27.50002,-27.5 15.1,0 27.5,12.2 27.5,27.5"
     class="st6"
     id="path767_2_" />
  <path
     style="fill:#f6f6f6"
     d="m 293.60008,42.100007 c -1.4,-0.7 -2.4,-1.4 -3.6,-2.1 0.7,-1 2.1,-2.9 1.7,-4.3 0,-0.3 -0.3,-1 -0.7,-1.4 -0.3,-0.3 -0.7,-0.3 -1,-0.3 -0.7,0 -1.7,0.7 -2.4,1 0,-0.3 0,-0.3 0,-0.7 0.3,-1.7 1,-3.1 2.4,-3.1 l 0,0 c 1.4,0 3.1,1 3.6,3.1 1.1,2.1 0.7,4.6 0,7.8 m -4.6,-3.6 c -0.3,-0.7 -0.7,-1.4 -1,-2.1 0.3,-1 1,-1.7 1.7,-1.7 0.3,0 0.3,0 0.3,0 0.3,0 0.3,0.3 0.3,0.7 0.5,1.4 -0.5,2.4 -1.3,3.1 m -1.7,1.8 -1,0.7 0.3,-1.4 c 0,-0.3 0.3,-1 0.7,-1.7 0.3,0.3 0.7,1 1,1.4 -0.7,0.6 -1,0.6 -1,1 m 13.7,11.3 c 0,-0.3 -2.4,-7 -5.7,-8.8 -0.3,0 -0.3,-0.3 -0.7,-0.3 1,-3.1 1.4,-6 0.7,-8.4 -0.7,-2.4 -2.9,-4.3 -5,-3.9 -1.7,0 -3.1,1.7 -3.6,3.9 0,0.7 0,1.4 0,2.1 -0.3,0.7 -0.7,1 -0.7,1.4 l -16.50002,26.1 c 0,0.3 -0.3,0.3 0,0.7 l 0,0.3 0.3,0 c 0.3,0 0.3,-0.3 0.70002,-0.3 l 19.1,-23.7 c 1,1 2.9,1.7 3.9,2.4 -0.7,1.7 -1.4,3.9 -2.1,6 -2.4,6 -1.4,11 0.3,12 l 0.3,0 c 0,0 0.3,0 0.3,-0.3 0,-0.3 0,-0.7 0,-0.7 -1.4,-0.7 -2.4,-5.3 0,-10.6 1,-2.1 1.7,-4.3 2.1,-6 0,0 0.3,0 0.3,0.3 2.9,1.4 5.3,8.1 5.3,8.1 0,0.3 0.3,0.3 0.7,0.3 0.3,0.1 0.3,-0.3 0.3,-0.6"
     class="st41"
     id="path861_1_" />
  <g
     id="g812"
     transform="translate(-2569.7999,-451.5)">
    <path
       style="fill:#ffffff"
       id="path814"
       d="m 2959.1,460.4 -5.4,22.3 -2.1,0 -0.6,0 -4.6,-16.2 -0.3,-1.7 -0.4,1.7 -4.7,16.2 -2.2,0 -0.6,0 -5.4,-22.3 3,0 3.5,15.3 0.4,2.9 0.6,-2.6 4.4,-15.5 2.2,0 0.3,0 4.3,15.5 0.6,2.7 0.5,-3 3.4,-15.2 3.1,0 z"
       class="st21" />
    <path
       style="fill:#ffffff"
       id="path816"
       d="m 2977.6,479.4 c -0.7,1.1 -1.6,2 -2.8,2.6 -1.2,0.6 -2.7,0.9 -4.4,0.9 -1.7,0 -3.2,-0.4 -4.6,-1.3 -1.3,-0.9 -2.3,-2.1 -3.1,-3.6 -0.7,-1.6 -1.1,-3.4 -1.1,-5.4 l 0,-2.2 c 0,-2.1 0.4,-3.9 1.1,-5.4 0.7,-1.6 1.8,-2.8 3.1,-3.6 1.4,-0.9 2.9,-1.3 4.8,-1.3 1.6,0 3,0.3 4.2,0.9 1.2,0.6 2.1,1.5 2.7,2.6 0.6,1.1 1.1,2.4 1.2,3.9 l -3,0 c -0.2,-1.7 -0.8,-2.9 -1.6,-3.8 -0.8,-0.9 -2,-1.3 -3.7,-1.3 -1.3,0 -2.4,0.3 -3.3,1 -0.9,0.7 -1.6,1.6 -2,2.8 -0.5,1.2 -0.7,2.6 -0.7,4.2 l 0,2.3 c 0,1.5 0.2,2.9 0.6,4 0.4,1.2 1.1,2.1 1.9,2.8 0.8,0.7 1.9,1 3.2,1 1.2,0 2.2,-0.2 2.9,-0.6 0.7,-0.4 1.3,-0.9 1.7,-1.7 0.4,-0.7 0.7,-1.6 0.8,-2.8 l 3,0 c 0.1,1.6 -0.3,2.9 -0.9,4 z"
       class="st21" />
    <path
       style="fill:#ffffff"
       id="path818"
       d="m 2984,470.1 c -1.2,-1 -1.8,-2.4 -1.8,-4 0,-1.2 0.3,-2.2 0.9,-3.1 0.6,-0.9 1.5,-1.6 2.7,-2.2 1.2,-0.6 2.5,-0.8 4,-0.8 1.6,0 3,0.3 4.2,0.9 1.2,0.6 2.1,1.4 2.7,2.5 0.6,1 0.9,2.1 0.9,3.3 l -3,0 c 0,-1.3 -0.4,-2.4 -1.2,-3.1 -0.8,-0.8 -2,-1.2 -3.7,-1.2 -1.5,0 -2.6,0.3 -3.4,1 -0.8,0.7 -1.2,1.5 -1.2,2.6 0,0.6 0.2,1.2 0.5,1.7 0.4,0.5 0.9,0.9 1.7,1.3 0.8,0.4 1.7,0.8 3,1.1 1.7,0.5 3.1,1 4.2,1.7 1.1,0.7 1.9,1.4 2.4,2.2 0.5,0.8 0.8,1.8 0.8,3 0,1.2 -0.3,2.2 -1,3.1 -0.6,0.9 -1.5,1.6 -2.7,2.1 -1.2,0.5 -2.5,0.7 -4.1,0.7 -1.4,0 -2.8,-0.3 -4.1,-0.8 -1.3,-0.5 -2.3,-1.3 -3.1,-2.3 -0.8,-1 -1.2,-2.2 -1.2,-3.7 l 3,0 c 0,1 0.2,1.8 0.7,2.4 0.5,0.7 1.2,1.1 2,1.5 0.8,0.3 1.7,0.5 2.7,0.5 1.5,0 2.7,-0.3 3.5,-0.9 0.8,-0.6 1.3,-1.5 1.3,-2.6 0,-0.7 -0.2,-1.3 -0.5,-1.8 -0.3,-0.5 -0.8,-0.9 -1.6,-1.3 -0.8,-0.4 -1.8,-0.8 -3.3,-1.2 -2.3,-0.7 -4.1,-1.6 -5.3,-2.6 z"
       class="st21" />
    <path
       style="fill:#ffffff"
       id="path820"
       d="m 3012.7,482.1 c -1.1,-0.6 -1.9,-1.4 -2.5,-2.5 -0.6,-1.1 -0.9,-2.4 -0.9,-3.8 l 0,-11.1 2.8,0 0,11.3 c 0,0.9 0.2,1.8 0.5,2.5 0.4,0.7 0.9,1.3 1.5,1.7 0.7,0.4 1.4,0.6 2.3,0.6 0.9,0 1.6,-0.2 2.3,-0.6 0.7,-0.4 1.2,-1 1.5,-1.7 0.3,-0.7 0.5,-1.6 0.5,-2.5 l 0,-6 c 0,-1 -0.2,-1.7 -0.7,-2.3 -0.4,-0.5 -1,-0.8 -1.8,-0.8 -0.7,0 -1.4,0.2 -2.2,0.6 l -0.4,-1.9 c 0.5,-0.3 1.1,-0.6 1.7,-0.8 0.6,-0.2 1.2,-0.3 1.8,-0.3 0.9,0 1.7,0.2 2.4,0.6 0.7,0.4 1.2,1 1.6,1.8 0.4,0.8 0.5,1.7 0.5,2.8 l 0,6.1 c 0,1.4 -0.3,2.7 -0.9,3.8 -0.6,1.1 -1.4,1.9 -2.5,2.5 -1.1,0.6 -2.3,0.9 -3.8,0.9 -1.3,0 -2.6,-0.3 -3.7,-0.9 z"
       class="st21" />
    <path
       style="fill:#ffffff"
       id="path822"
       d="m 3029.5,466.9 -2.1,0 0,-2.3 4.9,0 0,18 -2.8,0 0,-15.7 z"
       class="st21" />
    <path
       style="fill:#ffffff"
       id="path824"
       d="m 3041.1,482.7 c -1,-0.2 -2.1,-0.4 -3,-0.8 l 0.6,-2.1 c 0.9,0.3 1.8,0.5 2.7,0.6 0.9,0.1 1.8,0.2 2.5,0.2 1.7,0 3,-0.4 3.9,-1.3 0.9,-0.8 1.4,-2 1.4,-3.5 l 0,-8.9 -7.2,0 c -0.3,0.6 -0.6,1.3 -0.8,2.1 -0.2,0.9 -0.3,1.7 -0.3,2.6 l 0,1.4 c 0.2,0.1 0.5,0.2 0.9,0.2 0.4,0 0.9,0.1 1.5,0.1 l 0,2.4 c -1.3,0 -2.3,-0.1 -3,-0.2 -0.7,-0.1 -1.4,-0.4 -2.2,-0.8 l -0.1,-2.3 c 0,-1 0.1,-2 0.4,-3 0.3,-1 0.6,-1.8 1.1,-2.4 l -2.2,0 0,-2.3 14.7,0 0,10.6 c 0,1.7 -0.3,3.1 -1,4.3 -0.7,1.1 -1.6,2 -2.8,2.6 -1.2,0.6 -2.5,0.8 -4.1,0.8 -0.9,-0.1 -1.9,-0.2 -3,-0.3 z"
       class="st21" />
    <path
       style="fill:#ffffff"
       id="path826"
       d="m 3058.8,466.9 -3.3,0 0,-2.3 6.1,0 0,10 -2.8,0 0,-7.7 z"
       class="st21" />
    <path
       style="fill:#ffffff"
       id="path828"
       d="m 3069.7,479.4 c 1,0.4 2,0.7 3.1,1 1.1,0.3 2.1,0.4 3.1,0.4 1.5,0 2.8,-0.2 3.9,-0.6 1.1,-0.4 2.1,-1.1 2.7,-1.9 0.7,-0.9 1,-1.9 1,-3.2 l 0,-10.4 2.8,0 0,10.7 c 0,1.7 -0.5,3.1 -1.4,4.3 -0.9,1.2 -2.1,2 -3.7,2.6 -1.5,0.6 -3.3,0.9 -5.2,0.9 -1.5,0 -3,-0.2 -4.6,-0.5 -1.6,-0.4 -3.1,-0.9 -4.5,-1.6 l 0,-16.4 2.8,0 0,14.7 z m 5.1,-3.4 c 0.2,-0.7 0.3,-1.5 0.3,-2.4 l 0,-9 2.8,0 0,8.5 c 0,1 -0.1,1.9 -0.4,2.7 -0.3,0.8 -0.6,1.4 -1.2,2 l -2.4,-0.1 c 0.5,-0.4 0.7,-1 0.9,-1.7 z"
       class="st21" />
  </g>
</svg>
