<?xml version="1.0" encoding="UTF-8" standalone="no"?>
<svg
   xmlns:dc="http://purl.org/dc/elements/1.1/"
   xmlns:cc="http://creativecommons.org/ns#"
   xmlns:rdf="http://www.w3.org/1999/02/22-rdf-syntax-ns#"
   xmlns:svg="http://www.w3.org/2000/svg"
   xmlns="http://www.w3.org/2000/svg"
   width="259"
   height="349"
   viewBox="0 0 259.00001 349.00001"
   id="svg4172"
   version="1.1">
  <defs
     id="defs4174" />
  <metadata
     id="metadata4177">
    <rdf:RDF>
      <cc:Work
         rdf:about="">
        <dc:format>image/svg+xml</dc:format>
        <dc:type
           rdf:resource="http://purl.org/dc/dcmitype/StillImage" />
        <dc:title></dc:title>
      </cc:Work>
    </rdf:RDF>
  </metadata>
  <g
     id="layer1"
     transform="translate(-232.65001,-229.29077)">
    <rect
       style="fill:#c52036"
       height="254"
       width="254.7"
       class="st6"
       y="229.29077"
       x="232.65001"
       id="rect807_4_" />
    <path
       style="fill:#c52036"
       d="m 389.65005,521.49078 c 0,15.1 -27.5,56.8 -27.5,56.8 0,0 -27.5,-41.6 -27.5,-56.8 0,-15.1 12.4,-27.5 27.5,-27.5 15.3,0 27.5,12.2 27.5,27.5"
       class="st6"
       id="path819_1_" />
    <g
       transform="translate(-1907.7185,235.24001)"
       id="g829_2_">
      <g
         id="g532">
        <g
           id="g534">
          <g
             id="g536">
            <g
               id="g538">
              <path
                 style="opacity:1;fill:#ffffff;enable-background:new"
                 d="m 2276.9,281.3 c -1.4,-0.7 -2.4,-1.4 -3.6,-2.1 0.7,-1 2.1,-2.9 1.7,-4.3 0,-0.3 -0.3,-1 -0.7,-1.4 -0.3,-0.3 -0.7,-0.3 -1,-0.3 -0.7,0 -1.7,0.7 -2.4,1 0,-0.3 0,-0.3 0,-0.7 0.3,-1.7 1,-3.1 2.4,-3.1 l 0,0 c 1.4,0 3.1,1 3.6,3.1 1.2,2.4 0.7,5 0,7.8 m -4.6,-3.2 c -0.3,-0.7 -0.7,-1.4 -1,-2.1 0.3,-1 1,-1.7 1.7,-1.7 0.3,0 0.3,0 0.3,0 0.3,0 0.3,0.3 0.3,0.7 0.6,0.9 -0.5,2.1 -1.3,3.1 m -1.7,1.4 -1,0.7 0.3,-1.4 c 0,-0.3 0.3,-1 0.7,-1.7 0.3,0.3 0.7,1 1,1.4 -0.7,0.7 -1,1 -1,1 m 13.7,11.7 c 0,-0.3 -2.4,-7 -5.7,-8.8 -0.3,0 -0.3,-0.3 -0.7,-0.3 1,-3.1 1.4,-6 0.7,-8.4 -0.7,-2.4 -2.9,-4.3 -5,-3.9 -1.7,0 -3.1,1.7 -3.6,3.9 0,0.7 0,1.4 0,2.1 -0.3,0.7 -0.7,1 -0.7,1.4 l -16.5,26.1 c 0,0.3 -0.3,0.3 0,0.7 l 0,0.3 0.3,0 c 0.3,0 0.3,-0.3 0.7,-0.3 l 19.1,-23.7 c 1,1 2.9,1.7 3.9,2.4 -0.7,1.7 -1.4,3.9 -2.1,6 -2.4,6 -1.4,11 0.3,12 l 0.3,0 c 0,0 0.3,0 0.3,-0.3 0,-0.3 0,-0.7 0,-0.7 -1.4,-0.7 -2.4,-5.3 0,-10.6 1,-2.1 1.7,-4.3 2.1,-6 0,0 0.3,0 0.3,0.3 2.9,1.4 5.3,8.1 5.3,8.1 0,0.3 0.3,0.3 0.7,0.3 0,-0.3 0.3,-0.6 0.3,-0.6"
                 class="st40"
                 id="path837_2_" />
            </g>
          </g>
        </g>
      </g>
    </g>
    <g
       id="g874"
       transform="translate(-1965.8499,0.19076615)">
      <path
         style="fill:#ffffff"
         id="path876"
         d="m 2229.1,268.2 -3.1,0 0,-3 7,0 0,10.3 -3.9,0 0,-7.3 z"
         class="st21" />
      <path
         style="fill:#ffffff"
         id="path878"
         d="m 2239.2,268.2 -3.1,0 0,-3 7,0 0,10.3 -3.9,0 0,-7.3 z"
         class="st21" />
      <path
         style="fill:#ffffff"
         id="path880"
         d="m 2261,267.6 -6.3,15.7 -4.1,0 6.3,-15.1 -10.2,0 0,-8.3 3.9,0 0,5.3 10.5,0 0,2.4 z"
         class="st21" />
      <path
         style="fill:#ffffff"
         id="path882"
         d="m 2268.1,283.4 c -1.2,-0.2 -2.2,-0.5 -3.2,-0.8 l 0.7,-2.9 c 0.9,0.3 1.9,0.5 2.9,0.6 1,0.1 1.8,0.2 2.5,0.2 1.6,0 2.7,-0.4 3.6,-1.1 0.9,-0.7 1.2,-1.8 1.2,-3.2 l 0,-8.1 -6.3,0 c -0.3,0.6 -0.5,1.2 -0.6,1.9 -0.1,0.7 -0.2,1.4 -0.2,2.1 l 0,1.1 c 0.4,0.1 1.1,0.2 2,0.2 l 0,2.9 c -0.4,0 -0.9,0.1 -1.3,0.1 -0.9,0 -1.7,-0.1 -2.4,-0.3 -0.7,-0.2 -1.4,-0.4 -2,-0.8 l 0,-2 c 0,-1 0.1,-2 0.3,-2.9 0.2,-0.9 0.5,-1.7 1,-2.3 l -2.1,0 0,-3 15.6,0 0,10.5 c 0,1.8 -0.4,3.3 -1.1,4.5 -0.7,1.2 -1.7,2.1 -3,2.7 -1.3,0.6 -2.7,0.9 -4.3,0.9 -1,0 -2.1,-0.1 -3.3,-0.3 z"
         class="st21" />
      <path
         style="fill:#ffffff"
         id="path884"
         d="m 2288.5,282.6 c -1.2,-0.7 -2.1,-1.7 -2.8,-3 -0.7,-1.3 -1,-2.7 -1,-4.4 l 0,-1.5 c 0,-0.7 0.1,-1.4 0.3,-2.1 0.2,-0.7 0.5,-1.4 0.8,-2 0.3,-0.6 0.7,-1.1 1.1,-1.4 0.1,-0.1 0.1,-0.1 0.2,-0.2 l 0,-0.1 c -0.3,0.1 -0.7,0.1 -1.3,0.3 -0.5,0.1 -1,0.3 -1.5,0.4 l -0.7,-2.9 c 1.2,-0.4 2.6,-0.6 4.2,-0.9 1.6,-0.2 3,-0.3 4.4,-0.3 1.8,0 3.3,0.3 4.6,1 1.3,0.7 2.2,1.6 2.9,2.9 0.7,1.3 1,2.8 1,4.6 l 0,2 c 0,1.7 -0.3,3.1 -1,4.4 -0.7,1.3 -1.6,2.3 -2.8,3 -1.2,0.7 -2.6,1.1 -4.2,1.1 -1.6,0.2 -3,-0.2 -4.2,-0.9 z m 6.3,-2.8 c 0.6,-0.4 1.1,-1 1.4,-1.8 0.3,-0.8 0.5,-1.7 0.5,-2.7 l 0,-1.9 c 0,-1.7 -0.4,-3 -1.1,-4 -0.7,-0.9 -1.8,-1.4 -3.1,-1.4 -1.2,0 -2.2,0.5 -2.9,1.5 -0.7,1 -1.1,2.4 -1.1,4.1 l 0,1.7 c 0,1 0.2,1.9 0.5,2.7 0.3,0.8 0.8,1.4 1.4,1.8 0.6,0.4 1.3,0.6 2.1,0.6 1,0 1.7,-0.2 2.3,-0.6 z"
         class="st21" />
      <path
         style="fill:#ffffff"
         id="path886"
         d="m 2305.7,268.2 -1.8,0 0,-3 5.7,0 0,18.2 -3.9,0 0,-15.2 z"
         class="st21" />
      <path
         style="fill:#ffffff"
         id="path888"
         d="m 2321.2,280.3 c 1.4,-0.1 2.5,-0.5 3.3,-1.3 0.8,-0.8 1.2,-2 1.2,-3.5 l 0,-7.4 -10.9,0 0,-3 14.7,0 0,10.3 c 0,1.6 -0.3,3 -1,4.1 -0.7,1.1 -1.6,2.1 -2.9,2.7 -1.3,0.6 -2.7,1 -4.5,1 l 0,-2.9 z m -6.1,-3.6 c 0,-1 0.1,-1.8 0.3,-2.3 0.2,-0.6 0.4,-1.1 0.7,-1.5 l 3.1,0 c -0.2,0.8 -0.3,2 -0.3,3.5 l 0,13.3 -3.7,0 0,-13 z"
         class="st21" />
      <path
         style="fill:#ffffff"
         id="path890"
         d="m 2342.6,265.1 15,0 0,18.2 -15,0 0,-18.2 z m 11.2,15.1 0,-12.1 -7.3,0 0,12.1 7.3,0 z"
         class="st21" />
      <path
         style="fill:#ffffff"
         id="path892"
         d="m 2362.9,265.1 7.4,0 c 4.8,0 7.2,2.3 7.2,6.9 l 0,11.3 -3.9,0 0,-11.5 c 0,-1.2 -0.3,-2.1 -0.8,-2.7 -0.5,-0.6 -1.4,-0.9 -2.5,-0.9 l -3.6,0 0,15.1 -3.9,0 0.1,-18.2 z"
         class="st21" />
      <path
         style="fill:#ffffff"
         id="path894"
         d="m 2395.7,266.9 c 1.2,1.2 1.8,2.9 1.8,5.2 l 0,11.3 -3.9,0 0,-11.5 c 0,-1.2 -0.3,-2.2 -0.8,-2.7 -0.5,-0.6 -1.4,-0.9 -2.5,-0.9 l -2.5,0 c -0.2,0.6 -0.4,1.2 -0.6,2 -0.2,0.8 -0.2,1.5 -0.2,2.2 l 0,5.6 c 0,1.8 -0.4,3.1 -1.3,4.1 -0.9,0.9 -2.1,1.4 -3.8,1.4 -0.6,0 -1.3,-0.1 -2.1,-0.2 l 0,-3 c 0.4,0 0.7,0 1,0 0.8,0 1.4,-0.2 1.8,-0.6 0.4,-0.4 0.6,-1.1 0.6,-2 l 0,-5 c 0,-0.8 0.1,-1.6 0.3,-2.5 0.2,-0.9 0.5,-1.6 0.9,-2.1 l -3.1,0 0,-3 8.9,0 c 2.4,-0.1 4.2,0.5 5.5,1.7 z"
         class="st21" />
      <path
         style="fill:#ffffff"
         id="path896"
         d="m 2403.4,272.5 c 0.1,-0.8 0.3,-1.6 0.7,-2.3 0.3,-0.7 0.7,-1.3 1.2,-1.7 0.1,-0.1 0.2,-0.1 0.3,-0.2 l 0,-0.1 c -0.4,0.1 -0.9,0.2 -1.6,0.4 -0.6,0.2 -1.2,0.3 -1.6,0.5 l -0.9,-2.8 c 1.2,-0.4 2.5,-0.8 4.1,-1 1.6,-0.2 3,-0.4 4.3,-0.4 2.6,0 4.6,0.7 6,2 1.4,1.3 2.1,3.4 2.1,6 l 0,10.5 -7.7,0 0,-3 3.9,0 0,-8 c 0,-1.4 -0.3,-2.5 -0.9,-3.2 -0.6,-0.7 -1.5,-1.1 -2.6,-1.1 -0.9,0 -1.7,0.4 -2.2,1.1 -0.6,0.7 -0.9,1.7 -1.1,3 l -1.2,11.3 -3.8,0 1,-11 z"
         class="st21" />
      <path
         style="fill:#ffffff"
         id="path898"
         d="m 2245.9,320.7 -3.7,0 0,-0.8 4.6,0 0,9.6 -0.9,0 0,-8.8 z"
         class="st21" />
      <path
         style="fill:#ffffff"
         id="path900"
         d="m 2254.2,320.7 -3.7,0 0,-0.8 4.6,0 0,9.6 -0.9,0 0,-8.8 z"
         class="st21" />
      <path
         style="fill:#ffffff"
         id="path902"
         d="m 2271.8,320.4 -7.1,17.1 -1,0 7,-16.8 -11.3,0 0,-6.6 0.9,0 0,5.8 11.5,0 0,0.5 z"
         class="st21" />
      <path
         style="fill:#ffffff"
         id="path904"
         d="m 2276.3,336.9 0.2,-0.8 c 1.7,0.5 3.2,0.8 4.6,0.8 1.3,0 2.4,-0.2 3.3,-0.7 0.9,-0.4 1.6,-1.1 2.1,-1.9 0.5,-0.8 0.7,-1.9 0.7,-3.1 l 0,-10.5 -8.8,0 c -0.5,0.7 -0.9,1.5 -1.2,2.6 -0.3,1.1 -0.5,2.2 -0.5,3.3 l 0,1.8 c 0.5,0.2 1,0.4 1.5,0.5 0.5,0.1 1.3,0.1 2.4,0.1 l 0,0.9 c -1.2,0 -2.2,-0.1 -2.8,-0.2 -0.6,-0.1 -1.3,-0.3 -2,-0.7 l 0,-2.4 c 0,-1.1 0.2,-2.1 0.5,-3.2 0.3,-1.1 0.7,-2 1.2,-2.6 l -1.8,0 0,-0.8 12.5,0 0,10.9 c 0,1.5 -0.3,2.8 -0.8,3.8 -0.6,1 -1.4,1.8 -2.4,2.4 -1.1,0.5 -2.3,0.8 -3.8,0.8 -1.5,0 -3.1,-0.4 -4.9,-1 z"
         class="st21" />
      <path
         style="fill:#ffffff"
         id="path906"
         d="m 2297.2,336.9 c -1.1,-0.7 -1.9,-1.6 -2.5,-2.8 -0.6,-1.2 -0.9,-2.6 -0.9,-4.2 l 0,-2.5 c 0,-1.4 0.3,-2.7 0.8,-3.9 0.5,-1.2 1.3,-2 2.3,-2.6 0.1,0 0.2,-0.1 0.3,-0.1 0.1,-0.1 0.2,-0.1 0.4,-0.1 l 0,-0.1 c -0.8,0.1 -2.2,0.4 -4.3,1 l -0.2,-0.8 c 1.2,-0.3 2.4,-0.6 3.8,-0.8 1.4,-0.2 2.6,-0.3 3.7,-0.3 1.4,0 2.7,0.3 3.8,1 1.1,0.6 2,1.5 2.6,2.7 0.6,1.2 0.9,2.5 0.9,4 l 0,2.5 c 0,1.6 -0.3,3 -0.9,4.2 -0.6,1.2 -1.4,2.1 -2.5,2.8 -1.1,0.7 -2.3,1 -3.7,1 -1.4,0 -2.5,-0.4 -3.6,-1 z m 6.9,-0.8 c 0.9,-0.6 1.6,-1.4 2.1,-2.5 0.5,-1.1 0.8,-2.3 0.8,-3.7 l 0,-2.5 c 0,-1.4 -0.3,-2.5 -0.8,-3.6 -0.5,-1 -1.3,-1.8 -2.3,-2.4 -1,-0.6 -2.1,-0.9 -3.4,-0.9 -1.1,0 -2.1,0.3 -3,0.9 -0.9,0.6 -1.5,1.4 -2,2.4 -0.5,1 -0.8,2.2 -0.8,3.6 l 0,2.5 c 0,1.4 0.3,2.6 0.8,3.7 0.5,1.1 1.2,1.9 2.1,2.5 0.9,0.6 2,0.9 3.2,0.9 1.3,0 2.4,-0.3 3.3,-0.9 z"
         class="st21" />
      <path
         style="fill:#ffffff"
         id="path908"
         d="m 2314,320.7 -2.6,0 0,-0.8 3.5,0 0,17.7 -0.9,0 0,-16.9 z"
         class="st21" />
      <path
         style="fill:#ffffff"
         id="path910"
         d="m 2326.1,336.7 c 1.1,-0.1 2.1,-0.3 3,-0.7 0.9,-0.4 1.5,-1 2,-1.8 0.5,-0.8 0.7,-1.6 0.7,-2.6 l 0,-10.9 -11.4,0 0,-0.8 12.3,0 0,11.7 c 0,1.2 -0.3,2.2 -0.8,3.1 -0.5,0.9 -1.3,1.6 -2.3,2.1 -1,0.5 -2.2,0.8 -3.6,0.8 l 0,-0.9 z m -5.3,-6.2 c 0,-0.8 0,-1.5 0.1,-2 0.1,-0.5 0.2,-1.1 0.4,-1.6 l 0.9,0 c -0.2,0.5 -0.3,1 -0.3,1.6 0,0.6 -0.1,1.3 -0.1,2.2 l 0,13.3 -0.9,0 0,-13.5 z"
         class="st21" />
      <path
         style="fill:#ffffff"
         id="path912"
         d="m 2347.3,320.7 -2.6,0 0,-0.8 3.5,0 0,24 -0.9,0 0,-23.2 z"
         class="st21" />
      <path
         style="fill:#ffffff"
         id="path914"
         d="m 2355.2,320.7 -2.6,0 0,-0.8 3.5,0 0,17.7 -0.9,0 0,-16.9 z"
         class="st21" />
      <path
         style="fill:#ffffff"
         id="path916"
         d="m 2367.3,336.7 c 1.1,-0.1 2.1,-0.3 3,-0.7 0.9,-0.4 1.5,-1 2,-1.8 0.5,-0.8 0.7,-1.6 0.7,-2.6 l 0,-10.9 -11.4,0 0,-0.8 12.3,0 0,11.7 c 0,1.2 -0.3,2.2 -0.8,3.1 -0.5,0.9 -1.3,1.6 -2.3,2.1 -1,0.5 -2.2,0.8 -3.6,0.8 l 0,-0.9 z m -5.3,-6.2 c 0,-0.8 0,-1.5 0.1,-2 0.1,-0.5 0.2,-1.1 0.4,-1.6 l 0.9,0 c -0.2,0.5 -0.3,1 -0.3,1.6 0,0.6 -0.1,1.3 -0.1,2.2 l 0,13.3 -0.9,0 0,-13.5 z"
         class="st21" />
      <path
         style="fill:#ffffff"
         id="path918"
         d="m 2381.4,320.7 -3.7,0 0,-0.8 4.6,0 0,9.6 -0.9,0 0,-8.8 z"
         class="st21" />
      <path
         style="fill:#ffffff"
         id="path920"
         d="m 2399.5,321.5 c 1.1,1.1 1.7,2.8 1.7,5.2 l 0,10.8 -0.9,0 0,-10.8 c 0,-1.5 -0.2,-2.6 -0.6,-3.5 -0.4,-0.9 -1,-1.5 -1.9,-1.9 -0.9,-0.4 -2,-0.6 -3.5,-0.6 l -2.8,0 c -0.5,0.5 -0.9,1.3 -1.2,2.4 -0.3,1.1 -0.5,2.2 -0.5,3.4 l 0,6.9 c 0,1.4 -0.3,2.5 -0.9,3.2 -0.6,0.7 -1.5,1 -2.8,1 -0.4,0 -0.8,0 -1.2,-0.1 l 0,-0.8 c 0.4,0.1 0.8,0.1 1.1,0.1 1,0 1.8,-0.3 2.2,-0.8 0.4,-0.5 0.6,-1.4 0.6,-2.6 l 0,-6.9 c 0,-1.2 0.2,-2.3 0.5,-3.4 0.3,-1.1 0.7,-1.9 1.2,-2.4 l -3.9,0 0,-0.8 7.5,0 c 2.5,0 4.3,0.5 5.4,1.6 z"
         class="st21" />
      <path
         style="fill:#ffffff"
         id="path922"
         d="m 2261,357.4 13.1,0 0,17.7 -13.1,0 0,-17.7 z m 12.3,16.9 0,-16 -11.3,0 0,16 11.3,0 z"
         class="st21" />
      <path
         style="fill:#ffffff"
         id="path924"
         d="m 2281.2,358.3 -2.6,0 0,-0.8 3.5,0 0,17.7 -0.9,0 0,-16.9 z"
         class="st21" />
      <path
         style="fill:#ffffff"
         id="path926"
         d="m 2298.9,358 -7.1,17.1 -1,0 7,-16.8 -11.3,0 0,-6.6 0.9,0 0,5.8 11.5,0 0,0.5 z"
         class="st21" />
      <path
         style="fill:#ffffff"
         id="path928"
         d="m 2305.1,358.3 -3.7,0 0,-0.8 4.6,0 0,9.6 -0.9,0 0,-8.8 z"
         class="st21" />
      <path
         style="fill:#ffffff"
         id="path930"
         d="m 2317.5,366.6 5.4,7.8 0,0.7 -12.2,0 0,-0.8 11,0 -11.6,-16.8 1.1,0 5.8,8.3 5.2,-8.3 1.1,0 -5.8,9.1 z"
         class="st21" />
      <path
         style="fill:#ffffff"
         id="path932"
         d="m 2346.4,359.1 c 1.1,1.1 1.7,2.8 1.7,5.2 l 0,10.8 -0.9,0 0,-10.8 c 0,-1.5 -0.2,-2.6 -0.6,-3.5 -0.4,-0.9 -1,-1.5 -1.9,-1.9 -0.9,-0.4 -2,-0.6 -3.5,-0.6 l -2.8,0 c -0.5,0.5 -0.9,1.3 -1.2,2.4 -0.3,1.1 -0.5,2.2 -0.5,3.4 l 0,6.9 c 0,1.4 -0.3,2.5 -0.9,3.2 -0.6,0.7 -1.5,1 -2.8,1 -0.4,0 -0.8,0 -1.2,-0.1 l 0,-0.8 c 0.4,0.1 0.8,0.1 1.1,0.1 1,0 1.8,-0.3 2.2,-0.8 0.4,-0.5 0.6,-1.4 0.6,-2.6 l 0,-6.9 c 0,-1.2 0.2,-2.3 0.5,-3.4 0.3,-1.1 0.7,-1.9 1.2,-2.4 l -3.9,0 0,-0.8 7.5,0 c 2.5,-0.1 4.3,0.5 5.4,1.6 z"
         class="st21" />
      <path
         style="fill:#ffffff"
         id="path934"
         d="m 2351.7,375.2 0.1,-0.8 c 0.5,0.2 1.3,0.2 2.2,0.2 1.9,0 2.9,-1.2 2.9,-3.5 l 0,-12.8 -4.3,0 0,-0.8 5.2,0 0,13.7 c 0,1.4 -0.3,2.5 -1,3.2 -0.6,0.7 -1.6,1 -2.9,1 -0.7,0 -1.5,-0.1 -2.2,-0.2 z"
         class="st21" />
      <path
         style="fill:#ffffff"
         id="path936"
         d="m 2365.5,358.3 -3.7,0 0,-0.8 4.6,0 0,9.6 -0.9,0 0,-8.8 z"
         class="st21" />
      <path
         style="fill:#ffffff"
         id="path938"
         d="m 2372.1,374.5 0.2,-0.8 c 1.7,0.5 3.2,0.8 4.6,0.8 1.3,0 2.4,-0.2 3.3,-0.7 0.9,-0.4 1.6,-1.1 2.1,-1.9 0.5,-0.8 0.7,-1.9 0.7,-3.1 l 0,-10.5 -8.8,0 c -0.5,0.7 -0.9,1.5 -1.2,2.6 -0.3,1.1 -0.5,2.2 -0.5,3.3 l 0,1.8 c 0.5,0.2 1,0.4 1.5,0.5 0.5,0.1 1.3,0.1 2.4,0.1 l 0,0.9 c -1.2,0 -2.2,-0.1 -2.8,-0.2 -0.6,-0.1 -1.3,-0.3 -2,-0.7 l 0,-2.4 c 0,-1.1 0.2,-2.1 0.5,-3.2 0.3,-1.1 0.7,-2 1.2,-2.6 l -1.8,0 0,-0.8 12.5,0 0,10.9 c 0,1.5 -0.3,2.8 -0.8,3.8 -0.6,1 -1.4,1.8 -2.4,2.4 -1.1,0.5 -2.3,0.8 -3.8,0.8 -1.5,0 -3.1,-0.5 -4.9,-1 z"
         class="st21" />
      <path
         style="fill:#ffffff"
         id="path940"
         d="m 2242.4,395.8 -3.7,0 0,-0.8 4.6,0 0,9.6 -0.9,0 0,-8.8 z"
         class="st21" />
      <path
         style="fill:#ffffff"
         id="path942"
         d="m 2250.2,395.8 -2.6,0 0,-0.8 3.5,0 0,17.7 -0.9,0 0,-16.9 z"
         class="st21" />
      <path
         style="fill:#ffffff"
         id="path944"
         d="m 2258.1,395.8 -2.6,0 0,-0.8 3.5,0 0,17.7 -0.9,0 0,-16.9 z"
         class="st21" />
      <path
         style="fill:#ffffff"
         id="path946"
         d="m 2262.8,412.7 0.1,-0.8 c 0.5,0.2 1.3,0.2 2.2,0.2 1.9,0 2.9,-1.2 2.9,-3.5 l 0,-12.8 -4.3,0 0,-0.8 5.2,0 0,13.7 c 0,1.4 -0.3,2.5 -1,3.2 -0.6,0.7 -1.6,1 -2.9,1 -0.7,0.1 -1.5,0 -2.2,-0.2 z"
         class="st21" />
      <path
         style="fill:#ffffff"
         id="path948"
         d="m 2287.9,412.7 -9.2,-12.1 c -1.8,0.8 -2.8,2.6 -2.8,5.2 l 0,7 -0.9,0 0,-7 c 0,-1.4 0.3,-2.6 0.8,-3.6 0.5,-1 1.3,-1.7 2.4,-2.2 l -3.8,-5 1,0 6.7,8.9 5.6,-8.9 1.1,0 -6,9.6 6.1,8 -1,0 z"
         class="st21" />
      <path
         style="fill:#ffffff"
         id="path950"
         d="m 2301.9,399.7 c 0,-0.8 -0.2,-1.4 -0.5,-2 -0.3,-0.6 -0.7,-1 -1.3,-1.4 -0.6,-0.3 -1.2,-0.5 -2,-0.5 l -6.6,0 0,-0.8 6.4,0 c 1.5,0 2.7,0.4 3.6,1.3 0.9,0.9 1.3,2 1.3,3.6 l 0,12.8 -0.9,0 0,-13 z"
         class="st21" />
      <path
         style="fill:#ffffff"
         id="path952"
         d="m 2317.7,395.8 -3.7,0 0,-0.8 4.6,0 0,9.6 -0.9,0 0,-8.8 z"
         class="st21" />
      <path
         style="fill:#ffffff"
         id="path954"
         d="m 2326,395.8 -3.7,0 0,-0.8 4.6,0 0,9.6 -0.9,0 0,-8.8 z"
         class="st21" />
      <path
         style="fill:#ffffff"
         id="path956"
         d="m 2343.6,395.5 -7.1,17.1 -1,0 7,-16.8 -11.3,0 0,-6.6 0.9,0 0,5.8 11.5,0 0,0.5 z"
         class="st21" />
      <path
         style="fill:#ffffff"
         id="path958"
         d="m 2348.1,412 0.2,-0.8 c 1.7,0.5 3.2,0.8 4.6,0.8 1.3,0 2.4,-0.2 3.3,-0.7 0.9,-0.4 1.6,-1.1 2.1,-1.9 0.5,-0.8 0.7,-1.9 0.7,-3.1 l 0,-10.5 -8.8,0 c -0.5,0.7 -0.9,1.5 -1.2,2.6 -0.3,1.1 -0.5,2.2 -0.5,3.3 l 0,1.8 c 0.5,0.2 1,0.4 1.5,0.5 0.5,0.1 1.3,0.1 2.4,0.1 l 0,0.9 c -1.2,0 -2.2,-0.1 -2.8,-0.2 -0.6,-0.1 -1.3,-0.3 -2,-0.7 l 0,-2.4 c 0,-1.1 0.2,-2.1 0.5,-3.2 0.3,-1.1 0.7,-2 1.2,-2.6 l -1.8,0 0,-0.9 12.5,0 0,10.9 c 0,1.5 -0.3,2.8 -0.8,3.8 -0.6,1 -1.4,1.8 -2.4,2.4 -1.1,0.5 -2.3,0.8 -3.8,0.8 -1.5,0 -3.1,-0.3 -4.9,-0.9 z"
         class="st21" />
      <path
         style="fill:#ffffff"
         id="path960"
         d="m 2369,412 c -1.1,-0.7 -1.9,-1.6 -2.5,-2.8 -0.6,-1.2 -0.9,-2.6 -0.9,-4.2 l 0,-2.5 c 0,-1.4 0.3,-2.7 0.8,-3.9 0.5,-1.2 1.3,-2 2.3,-2.6 0.1,0 0.2,-0.1 0.3,-0.1 0.1,-0.1 0.2,-0.1 0.4,-0.1 l 0,-0.1 c -0.8,0.1 -2.2,0.4 -4.3,1 l -0.2,-0.8 c 1.2,-0.3 2.4,-0.6 3.8,-0.8 1.4,-0.2 2.6,-0.3 3.7,-0.3 1.4,0 2.7,0.3 3.8,1 1.1,0.6 2,1.5 2.6,2.7 0.6,1.2 0.9,2.5 0.9,4 l 0,2.5 c 0,1.6 -0.3,3 -0.9,4.2 -0.6,1.2 -1.4,2.1 -2.5,2.8 -1.1,0.7 -2.3,1 -3.7,1 -1.4,0 -2.5,-0.3 -3.6,-1 z m 6.9,-0.8 c 0.9,-0.6 1.6,-1.4 2.1,-2.5 0.5,-1.1 0.8,-2.3 0.8,-3.7 l 0,-2.5 c 0,-1.4 -0.3,-2.5 -0.8,-3.6 -0.5,-1 -1.3,-1.8 -2.3,-2.4 -1,-0.6 -2.1,-0.9 -3.4,-0.9 -1.1,0 -2.1,0.3 -3,0.9 -0.9,0.6 -1.5,1.4 -2,2.4 -0.5,1 -0.8,2.2 -0.8,3.6 l 0,2.5 c 0,1.4 0.3,2.6 0.8,3.7 0.5,1.1 1.2,1.9 2.1,2.5 0.9,0.6 2,0.9 3.2,0.9 1.3,0 2.4,-0.3 3.3,-0.9 z"
         class="st21" />
      <path
         style="fill:#ffffff"
         id="path962"
         d="m 2385.8,395.8 -2.6,0 0,-0.8 3.5,0 0,17.7 -0.9,0 0,-16.9 z"
         class="st21" />
      <path
         style="fill:#ffffff"
         id="path964"
         d="m 2397.9,411.8 c 1.1,-0.1 2.1,-0.3 3,-0.7 0.9,-0.4 1.5,-1 2,-1.8 0.5,-0.8 0.7,-1.6 0.7,-2.6 l 0,-10.9 -11.4,0 0,-0.8 12.3,0 0,11.7 c 0,1.2 -0.3,2.2 -0.8,3.1 -0.5,0.9 -1.3,1.6 -2.3,2.1 -1,0.5 -2.2,0.8 -3.6,0.8 l 0,-0.9 z m -5.3,-6.2 c 0,-0.8 0,-1.5 0.1,-2 0.1,-0.5 0.2,-1.1 0.4,-1.6 l 0.9,0 c -0.2,0.5 -0.3,1 -0.3,1.6 0,0.6 -0.1,1.3 -0.1,2.2 l 0,13.2 -0.9,0 0,-13.4 z"
         class="st21" />
    </g>
  </g>
</svg>
