<svg height="804.69" width="1297.97" id="svg404" xml:space="preserve" viewBox="0 0 1297.97 804.69" y="0" x="0" version="1.1" xmlns="http://www.w3.org/2000/svg">
    <style id="style2" type="text/css">
        .st0{enable-background:new}.st1{clip-path:url(#SVGID_2_)}.st2{fill:#ec2426}.st3{fill:#ffc}
    </style>
    <path transform="translate(-364.55 -231.26)" style="fill:#9ae3d5;fill-opacity:1" id="polygon69" d="m1031.77 1025.84 620.75-370.24-653.51-386.01-623.87 363.48z"/>
    <path transform="translate(-364.55 -231.26)" style="fill:#8c4330" id="polygon71" d="m1129.4 544.15-1.71 32.43-73.59-43.37 1.19-32.75z"/>
    <path transform="translate(-364.55 -231.26)" style="fill:#ffc;enable-background:new" id="polygon73" d="M802.78 384.73v-70.72l653.24 382.27v73.85l-263.86-155.67.9-56.94-53.58-28.87-1.55 53.82-150.91-89.04.86-54.09-53.52-32.5-1.58 54.59z"/>
    <path transform="translate(-364.55 -231.26)" style="fill:#ffc;enable-background:new" id="polygon75" d="m688.62 822.41-2.35-43.95 440.31-245.65-1.99 44.8z"/>
    <path transform="translate(-364.55 -231.26)" style="fill:#3d256e;fill-opacity:1" id="polygon77" d="M947.24 822.4 753.88 941.62l-38.89-23.97 468.15-277.89 71.8 40.69-239.64 148.33 1.44 2.33 240.19-149.53 123.16 69.83-210.12 124.13-63.24-40.78 157.59-100.92-1.48-2.3-158.11 101.25-73.46 46.22-88.95-50.36 233.22-143.34-1.43-2.33z"/>
    <path style="fill:#3d256e;fill-opacity:1" id="path79" d="m655.11 348-127.94-78.01-37.46 21.84 87.37 52.54-41.42 23.4-206.65-122.23-77.23 44.59 208.64 124.52-3.14 1.75L249.8 291.26l-78.25 45.18 205.66 122.55-1.4 2.35-206.85-123.25-78.68 45.27 113.38 69.17-113.38 62.33 42.9 26.52 149.71-85.97-122.06-71.03 1.39-2.37 214.07 124.77 159.4-90.77L323.38 292.1l1.39-2.37 213.44 124.59zM452.09 461.35 240.23 336.52l1.4-2.36 211.85 124.82z"/>
    <path transform="translate(-364.55 -231.26)" style="fill:#ffc;enable-background:new" id="polygon81" d="M775.73 800.99v73.17L559.82 746.21v-76.46z"/>
    <path transform="translate(-364.55 -231.26)" style="fill:#ffc;enable-background:new" id="polygon83" d="M1031.62 952.17v73.16l-196.6-114.94v-76.46z"/>
    <path transform="translate(-364.55 -231.26)" style="fill:#ffc;enable-background:new" id="polygon85" d="M512.56 640.63v73.16l-138.01-78.71v-76.45z"/>
    <path transform="translate(-364.55 -231.26)" style="fill:#ffc;enable-background:new" id="polygon87" d="M802.77 384.74V314L375.25 559.32v73.85z"/>
    <path transform="translate(-364.55 -231.26)" style="fill:#fff" id="polygon89" d="m1167.63 814-17.17 11.52 3.65 2.6 6.41-3.64 7.11 16.13-25.31-5.03 5.72-3.47-10.06-6.59 24.27-15.08z"/>
    <path transform="translate(-364.55 -231.26)" style="fill:#fff" id="polygon91" d="m585.24 694.98-11.18 16.9-6.37-3.9-17.43 12.22-7.15-4.55 19.38-11.31-5.21-4.03z"/>
    <path transform="translate(-364.55 -231.26)" style="fill:#6786cd;stroke:#ffc;stroke-width:1.22000003;stroke-miterlimit:10" id="polygon93" d="m1061.08 405.07-74.11-40.74 45.54-20.75 77.65 39.08z"/>
    <g transform="translate(-364.55 -231.26)" id="g101">
        <path style="fill:#6786cd;stroke:#ffc;stroke-width:1.22000003;stroke-miterlimit:10" id="polygon95" d="m886.57 429.29-74.11-40.74 24.63-11.22 71.88 40.87z"/>
        <path style="fill:#6786cd;stroke:#ffc;stroke-width:1.22000003;stroke-miterlimit:10" id="polygon97" d="m886.57 429.29-1.71 32.43-73.58-43.37 1.18-29.8z"/>
        <path style="fill:#6786cd;stroke:#ffc;stroke-width:1.22000003;stroke-miterlimit:10" id="polygon99" d="m884.86 461.72 1.71-32.43 22.89-10.57-.49 30.27z"/>
    </g>
    <g transform="translate(-364.55 -231.26)" id="g109">
        <path style="fill:#6786cd;stroke:#ffc;stroke-width:1.22000003;stroke-miterlimit:10" id="polygon103" d="m1058.6 537.45-74.11-40.74 24.63-11.22 71.88 40.87z"/>
        <path style="fill:#6786cd;stroke:#ffc;stroke-width:1.22000003;stroke-miterlimit:10" id="polygon105" d="m1058.6 537.45-1.71 32.44-73.58-43.38 1.18-29.8z"/>
        <path style="fill:#6786cd;stroke:#ffc;stroke-width:1.22000003;stroke-miterlimit:10" id="polygon107" d="m1056.89 569.89 1.71-32.44 22.89-10.57-.49 30.27z"/>
    </g>
    <path transform="translate(-364.55 -231.26)" style="fill:#6786cd;stroke:#ffc;stroke-width:1.22000003;stroke-miterlimit:10" id="polygon111" d="m1061.09 405.16-1.71 32.44-73.58-43.38 1.18-29.8z"/>
    <path transform="translate(-364.55 -231.26)" style="fill:#6786cd;stroke:#ffc;stroke-width:1.22000003;stroke-miterlimit:10" id="polygon113" d="m1059.38 437.6 1.71-32.44 49.07-22.5-.44 27.47z"/>
    <path transform="translate(-364.55 -231.26)" style="fill:#fff" id="polygon115" d="m804.3 897.94 10.84-16.64-26.79 5.55 4.6 3.46-17.86 10.23 6.15 4.34 17.08-11.27z"/>
    <g transform="translate(-364.55 -231.26)" id="g123">
        <path style="fill:#6786cd;stroke:#ffc;stroke-width:1.22000003;stroke-miterlimit:10" id="polygon117" d="m1068.92 936.99-28.17-16.46 66.37-36.53 26.13 17.9z"/>
        <path style="fill:#6786cd;stroke:#ffc;stroke-width:1.22000003;stroke-miterlimit:10" id="polygon119" d="m1068.92 936.99-28.17-16.46.3 28.37 26.44 17.97z"/>
        <path style="fill:#6786cd;stroke:#ffc;stroke-width:1.22000003;stroke-miterlimit:10" id="polygon121" d="m1067.49 966.87 1.43-29.88 64.33-35.09-.15 26.53z"/>
    </g>
    <g transform="translate(-364.55 -231.26)" id="g131">
        <path style="fill:#6786cd;stroke:#ffc;stroke-width:1.22000003;stroke-miterlimit:10" id="polygon125" d="m1328.52 777.38-28.73-15.48 65.06-38.82 26.74 16.98z"/>
        <path style="fill:#6786cd;stroke:#ffc;stroke-width:1.22000003;stroke-miterlimit:10" id="polygon127" d="m1328.52 777.38-28.73-15.48 1.3 28.35 27.04 17.03z"/>
        <path style="fill:#6786cd;stroke:#ffc;stroke-width:1.22000003;stroke-miterlimit:10" id="polygon129" d="m1328.13 807.28.39-29.9 63.07-37.32.78 26.52z"/>
    </g>
    <g transform="translate(-364.55 -231.26)" id="g139">
        <path style="fill:#6786cd;stroke:#ffc;stroke-width:1.22000003;stroke-miterlimit:10" id="polygon133" d="m1246.69 828.37-28.73-15.47 65.06-38.83 26.74 16.99z"/>
        <path style="fill:#6786cd;stroke:#ffc;stroke-width:1.22000003;stroke-miterlimit:10" id="polygon135" d="m1246.69 828.37-28.73-15.47 1.3 28.35 27.04 17.03z"/>
        <path style="fill:#6786cd;stroke:#ffc;stroke-width:1.22000003;stroke-miterlimit:10" id="polygon137" d="m1246.3 858.28.39-29.91 63.07-37.31.78 26.51z"/>
    </g>
    <g transform="translate(-364.55 -231.26)" id="g147">
        <path style="fill:#6786cd;stroke:#ffc;stroke-width:1.22000003;stroke-miterlimit:10" id="polygon141" d="m1161.22 881.63-28.73-15.47 1.3 28.34 27.04 17.03z"/>
        <path style="fill:#6786cd;stroke:#ffc;stroke-width:1.22000003;stroke-miterlimit:10" id="polygon143" d="m1161.22 881.63-28.73-15.47 65.06-38.83 26.74 16.98z"/>
        <path style="fill:#6786cd;stroke:#ffc;stroke-width:1.22000003;stroke-miterlimit:10" id="polygon145" d="m1160.83 911.53.39-29.9 63.07-37.32.78 26.52z"/>
    </g>
    <path transform="translate(-364.55 -231.26)" style="fill:#ffc;enable-background:new;fill-opacity:1" id="polygon149" d="M1032.4 952.79v73.16l424.4-255.2V696.9z"/>
    <path transform="translate(-364.55 -231.26)" style="fill:#6786cd;stroke:#ffc;stroke-width:1.22000003;stroke-miterlimit:10" id="polygon151" d="m1350.3 438.14-74.96-41.24 1.3 28.35 73.26 42.79z"/>
    <path transform="translate(-364.55 -231.26)" style="fill:#6786cd;stroke:#ffc;stroke-width:1.22000003;stroke-miterlimit:10" id="polygon153" d="m1349.9 468.04.4-29.9 123.67-76.25v28.99z"/>
    <path transform="translate(-364.55 -231.26)" style="fill:#6786cd;stroke:#ffc;stroke-width:1.22000003;stroke-miterlimit:10;fill-opacity:1" id="polygon155" d="m1473.97 361.89-27.52-14.51-103.53 62.41-42.95-23.61-24.63 11.22 74.12 40.74.4-.24.43.24 20.83-12.84z"/>
</svg>
