<?xml version="1.0" encoding="UTF-8" standalone="no"?>
<svg
   xmlns:dc="http://purl.org/dc/elements/1.1/"
   xmlns:cc="http://creativecommons.org/ns#"
   xmlns:rdf="http://www.w3.org/1999/02/22-rdf-syntax-ns#"
   xmlns:svg="http://www.w3.org/2000/svg"
   xmlns="http://www.w3.org/2000/svg"
   width="48.937332mm"
   height="23.960661mm"
   viewBox="0 0 173.4 84.899979"
   id="svg4430"
   version="1.1">
  <defs
     id="defs4432" />
  <metadata
     id="metadata4435">
    <rdf:RDF>
      <cc:Work
         rdf:about="">
        <dc:format>image/svg+xml</dc:format>
        <dc:type
           rdf:resource="http://purl.org/dc/dcmitype/StillImage" />
        <dc:title></dc:title>
      </cc:Work>
    </rdf:RDF>
  </metadata>
  <g
     id="layer1"
     transform="translate(-293.30002,-678.48364)">
    <g
       id="g4534">
      <g
         transform="translate(-18.95003,0)"
         id="g4516">
        <path
           id="path897_2_"
           class="st4259"
           d="m 416.30005,727.48362 c 0,9.6 -17.4,35.9 -17.4,35.9 0,0 -17.3,-26.3 -17.3,-35.9 0,-9.6 7.8,-17.4 17.4,-17.4 9.5,0 17.3,7.8 17.3,17.4"
           style="fill:#d29839;fill-opacity:1" />
        <path
           id="path899_2_"
           class="st4262"
           d="m 404.30005,724.98362 0,8.2 -12.7,0 0,-12.7 8.2,0 2.5,-2.5 -13.4,0 0,17.8 17.8,0 0,-13.4 -2.4,2.6 z m -8.9,1.8 -0.9,3.6 3.6,-0.9 8.9,-8.9 -2.7,-2.7 -8.9,8.9 0,0 z m 13.3,-10.9 c 0.7,0.7 0.7,2 0,2.7 l -0.9,0.9 -2.7,-2.7 0.9,-0.9 c 0.7,-0.7 2.1,-0.7 2.7,0"
           style="opacity:0.8;fill:#ffffff" />
      </g>
      <g
         id="g4520">
        <rect
           id="rect901_4_"
           x="293.30002"
           y="678.48364"
           class="st4259"
           width="173.39999"
           height="29"
           style="fill:#401225" />
        <g
           id="g247"
           transform="translate(-767.4,53.083617)">
          <path
             class="st4271"
             d="m 1079.1,645.3 c 0.6,-0.1 1.1,-0.2 1.4,-0.4 0.3,-0.2 0.5,-0.4 0.6,-0.8 0.1,-0.4 0.2,-0.8 0.1,-1.4 l 0,-9.6 7.5,0 c 1.3,0 2.4,0.4 3.1,1.1 0.8,0.8 1.1,1.9 1.1,3.5 l 0,9.5 -3.6,0 0,-9.7 c 0,-1.2 -0.6,-1.8 -1.7,-1.8 l -2.9,0 0,6.5 c 0,1.3 -0.2,2.3 -0.6,3 -0.4,0.7 -1,1.3 -1.8,1.7 -0.8,0.4 -1.8,0.6 -3.2,0.7 l 0,-2.3 z"
             id="path249"
             style="fill:#36a9e1" />
          <path
             class="st4271"
             d="m 1096.5,636.1 -0.3,-2.9 3.6,0 0.3,2.9 0,11.2 -3.6,0 0,-11.2 z"
             id="path251"
             style="fill:#36a9e1" />
          <path
             class="st4271"
             d="m 1115.4,645.7 c -1.1,1.3 -2.6,2 -4.5,2 -0.7,0 -1.5,-0.1 -2.3,-0.3 l 0.3,-2.7 c 0.6,0.1 1.1,0.2 1.5,0.2 1.1,0 1.9,-0.4 2.4,-1.1 0.5,-0.8 0.7,-1.9 0.7,-3.3 0,-1.6 -0.2,-2.8 -0.7,-3.6 -0.5,-0.7 -1.2,-1.1 -2.1,-1.1 -0.7,0 -1.2,0.2 -1.7,0.6 -0.5,0.4 -0.7,0.9 -0.9,1.6 l -1.5,9.4 -3.6,0 1.7,-9.5 -2,-4.6 3.7,0 1,2.8 c 0.3,-1 0.9,-1.8 1.6,-2.3 0.7,-0.5 1.5,-0.8 2.4,-0.8 1.8,0 3.1,0.6 4,1.8 0.9,1.2 1.4,3 1.4,5.5 0.2,2.2 -0.4,4 -1.4,5.4 z"
             id="path253"
             style="fill:#36a9e1" />
          <path
             class="st4271"
             d="m 1119,645.3 c 0.6,-0.1 1.1,-0.2 1.4,-0.4 0.3,-0.2 0.5,-0.4 0.6,-0.8 0.1,-0.4 0.2,-0.8 0.1,-1.4 l 0,-9.6 7.5,0 c 1.3,0 2.4,0.4 3.1,1.1 0.8,0.8 1.1,1.9 1.1,3.5 l 0,9.5 -3.6,0 0,-9.7 c 0,-1.2 -0.6,-1.8 -1.7,-1.8 l -2.9,0 0,6.5 c 0,1.3 -0.2,2.3 -0.6,3 -0.4,0.7 -1,1.3 -1.8,1.7 -0.8,0.4 -1.8,0.6 -3.2,0.7 l 0,-2.3 z"
             id="path255"
             style="fill:#36a9e1" />
          <path
             class="st4271"
             d="m 1147.2,634.3 c 0.8,0.8 1.2,2 1.2,3.6 l 0,9.4 -3.6,0 0,-9.5 c 0,-1.3 -0.6,-1.9 -1.7,-1.9 l -3.3,0 0,11.5 -3.6,0 0,-12.5 0,-1.6 7.9,0 c 1.3,-0.1 2.4,0.3 3.1,1 z"
             id="path257"
             style="fill:#36a9e1" />
          <path
             class="st4271"
             d="m 1151.5,640.5 0.5,-1.7 3.1,0 0,8.4 -3.6,0 0,-6.7 z m 8.2,-2.9 c 0,-1.2 -0.6,-1.8 -1.7,-1.8 l -6.5,0 0,-2.7 7.4,0 c 1.3,0 2.4,0.4 3.1,1.1 0.8,0.8 1.2,1.9 1.2,3.5 l 0,9.5 -3.6,0 0,-9.6 z"
             id="path259"
             style="fill:#36a9e1" />
          <path
             class="st4271"
             d="m 1177.9,637.6 c 0,-1.2 -0.6,-1.8 -1.7,-1.8 l -4.8,0 0,-2.7 5.8,0 c 1.3,0 2.4,0.4 3.1,1.1 0.8,0.8 1.2,1.9 1.2,3.5 l 0,9.5 -3.6,0 0,-9.6 z"
             id="path261"
             style="fill:#36a9e1" />
          <path
             class="st4271"
             d="m 1184.9,636.1 -0.3,-2.9 3.6,0 0.3,2.9 0,11.2 -3.6,0 0,-11.2 z"
             id="path263"
             style="fill:#36a9e1" />
          <path
             class="st4271"
             d="m 1192.9,638.7 c 0,-0.6 0.1,-1.2 0.2,-1.7 0.1,-0.5 0.3,-0.9 0.5,-1.2 l -2.2,0 0,-2.7 7.4,0 0,2.7 -1.9,0 c -0.2,0.4 -0.3,0.8 -0.3,1.2 0,0.5 -0.1,1 -0.1,1.7 l 0,8.6 -3.6,0 0,-8.6 z"
             id="path265"
             style="fill:#36a9e1" />
          <path
             class="st4271"
             d="m 1211.1,647.3 -4.7,-7.2 -2.2,7.2 -3.4,0 2.8,-8.5 0.8,-1.9 -2.3,-3.7 3.6,0 2,3.2 1.8,2.7 0.7,-2.3 1,-3.7 3.4,0 -3,9 3.4,5.1 -3.9,0 z"
             id="path267"
             style="fill:#36a9e1" />
        </g>
      </g>
    </g>
  </g>
</svg>
