<?xml version="1.0" encoding="UTF-8" standalone="no"?>
<svg
   xmlns:dc="http://purl.org/dc/elements/1.1/"
   xmlns:cc="http://creativecommons.org/ns#"
   xmlns:rdf="http://www.w3.org/1999/02/22-rdf-syntax-ns#"
   xmlns:svg="http://www.w3.org/2000/svg"
   xmlns="http://www.w3.org/2000/svg"
   xmlns:xlink="http://www.w3.org/1999/xlink"
   version="1.1"
   id="Layer_1"
   x="0px"
   y="0px"
   viewBox="0 0 1636.2324 965.33521"
   xml:space="preserve"
   width="1636.2324"
   height="965.33521"><metadata
     id="metadata439"><rdf:RDF><cc:Work
         rdf:about=""><dc:format>image/svg+xml</dc:format><dc:type
           rdf:resource="http://purl.org/dc/dcmitype/StillImage" /><dc:title></dc:title></cc:Work></rdf:RDF></metadata><defs
     id="defs437" /><style
     type="text/css"
     id="style3">
	.st0{fill:#B5B0C1;}
	.st1{fill:#FFFFFF;}
	.st2{fill:none;stroke:#141032;stroke-width:0.25;}
	.st3{fill:#43255C;}
	.st4{clip-path:url(#SVGID_2_);fill:none;stroke:#141032;stroke-width:0.25;}
	.st5{fill:none;stroke:#141032;stroke-width:0.5;}
	.st6{fill:#99AC64;}
	.st7{clip-path:url(#SVGID_4_);fill:none;stroke:#141032;stroke-width:0.25;}
	.st8{clip-path:url(#SVGID_6_);fill:#43255C;}
	.st9{clip-path:url(#SVGID_8_);fill:#FBB65A;}
	.st10{clip-path:url(#SVGID_8_);fill:none;stroke:#141032;stroke-width:0.5;stroke-miterlimit:10;}
	.st11{fill:#F7D685;}
	.st12{clip-path:url(#SVGID_10_);fill:#141032;}
	.st13{fill:#141032;}
	.st14{fill:none;stroke:#231F20;stroke-width:0.25;}
	.st15{clip-path:url(#SVGID_12_);fill:#141032;}
	.st16{clip-path:url(#SVGID_12_);fill:#FFFFFF;}
	.st17{clip-path:url(#SVGID_14_);fill:#141032;}
	.st18{clip-path:url(#SVGID_14_);fill:#FFFFFF;}
	.st19{fill:#D81278;}
	.st20{clip-path:url(#SVGID_16_);fill:#141032;}
	.st21{clip-path:url(#SVGID_18_);fill:#141032;}
	.st22{clip-path:url(#SVGID_18_);fill:#FFFFFF;}
	.st23{clip-path:url(#SVGID_20_);fill:#141032;}
	.st24{clip-path:url(#SVGID_22_);fill:#141032;}
	.st25{clip-path:url(#SVGID_24_);fill:#FFFFFF;}
	.st26{clip-path:url(#SVGID_26_);fill:#FFFFFF;}
	.st27{clip-path:url(#SVGID_28_);fill:#141032;}
	.st28{clip-path:url(#SVGID_30_);fill:#141032;}
	.st29{clip-path:url(#SVGID_32_);fill:#FFFFFF;}
	.st30{clip-path:url(#SVGID_34_);fill:#FFFFFF;}
	.st31{fill:#8ACDAB;}
	.st32{clip-path:url(#SVGID_36_);fill:#141032;}
	.st33{clip-path:url(#SVGID_38_);fill:#FFFFFF;}
</style><polygon
     class="st0"
     points="756.7,771.5 672.4,930.6 761,1213.4 849.6,954.2 "
     id="polygon5"
     style="fill:#b5b0c1"
     transform="matrix(0,-1,1,0,-112.29999,1021.5)" /><polyline
     class="st1"
     points="789.3,753 870.5,963.7 834.6,963.7 741,753 "
     id="polyline7"
     style="fill:#ffffff"
     transform="matrix(0,-1,1,0,-112.29999,1021.5)" /><polyline
     class="st2"
     points="789.3,753 870.5,963.7 834.6,963.7 741,753 "
     id="polyline9"
     style="fill:none;stroke:#141032;stroke-width:0.25"
     transform="matrix(0,-1,1,0,-112.29999,1021.5)" /><polygon
     class="st1"
     points="789.3,753 705.9,908.3 669.3,889.1 741,753 "
     id="polygon11"
     style="fill:#ffffff"
     transform="matrix(0,-1,1,0,-112.29999,1021.5)" /><polygon
     class="st2"
     points="789.3,753 705.9,908.3 669.3,889.1 741,753 "
     id="polygon13"
     style="fill:none;stroke:#141032;stroke-width:0.25"
     transform="matrix(0,-1,1,0,-112.29999,1021.5)" /><polygon
     class="st1"
     points="870.5,963.7 795.1,1203.6 761,1203.6 834.6,963.7 "
     id="polygon15"
     style="fill:#ffffff"
     transform="matrix(0,-1,1,0,-112.29999,1021.5)" /><polygon
     class="st2"
     points="870.5,963.7 795.1,1203.6 761,1203.6 834.6,963.7 "
     id="polygon17"
     style="fill:none;stroke:#141032;stroke-width:0.25"
     transform="matrix(0,-1,1,0,-112.29999,1021.5)" /><polygon
     class="st0"
     points="171.6,1239.2 221.5,1119.2 458.5,1440.9 624.5,1737 819.4,1343.3 757.1,1166.4 741.4,1127.5 659.5,874.1 666.4,875.6 594.2,656.1 649.1,531.2 600.4,426.2 630.3,339.5 554.8,161.9 494.6,241 524.5,309.4 490.4,376.7 441.8,328.1 73.9,1093.7 "
     id="polygon19"
     style="fill:#b5b0c1"
     transform="matrix(0,-1,1,0,-112.29999,1021.5)" /><polygon
     class="st1"
     points="524.5,309.4 495.4,368.8 483,365.2 511.6,309.4 "
     id="polygon21"
     style="fill:#ffffff"
     transform="matrix(0,-1,1,0,-112.29999,1021.5)" /><polygon
     class="st2"
     points="524.5,309.4 495.4,368.8 483,365.2 511.6,309.4 "
     id="polygon23"
     style="fill:none;stroke:#141032;stroke-width:0.25"
     transform="matrix(0,-1,1,0,-112.29999,1021.5)" /><polygon
     class="st3"
     points="725.7,1274.9 662.2,1023.6 590,711.7 399.4,1105.9 532.5,1360 628.9,1487.1 "
     id="polygon25"
     style="fill:#43255c"
     transform="matrix(0,-1,1,0,-112.29999,1021.5)" /><polygon
     class="st1"
     points="505.1,291.1 483,339.6 467,339.6 493.2,291.1 "
     id="polygon27"
     style="fill:#ffffff"
     transform="matrix(0,-1,1,0,-112.29999,1021.5)" /><polygon
     class="st2"
     points="505.1,291.1 483,339.6 467,339.6 493.2,291.1 "
     id="polygon29"
     style="fill:none;stroke:#141032;stroke-width:0.25"
     transform="matrix(0,-1,1,0,-112.29999,1021.5)" /><polygon
     class="st1"
     points="486.4,274.6 460,324.4 445.7,324.4 472.6,274.6 "
     id="polygon31"
     style="fill:#ffffff"
     transform="matrix(0,-1,1,0,-112.29999,1021.5)" /><polygon
     class="st2"
     points="486.4,274.6 460,324.4 445.7,324.4 472.6,274.6 "
     id="polygon33"
     style="fill:none;stroke:#141032;stroke-width:0.25"
     transform="matrix(0,-1,1,0,-112.29999,1021.5)" /><path
     class="st1"
     d="m 971.10001,838.6 0,0 18.2,-13.6 -18.2,13.6 z m -93,27.7 0,41.9 90.9,-68 2.1,-1.6 -0.4,-44.4 -92.6,72.1 z M 1289.7,546.4 l -301.09999,234 0.7,44.5 L 1296.9,594.7 1624.7,397 l 1.4,-41.9 -336.4,191.3 z"
     id="path35"
     style="fill:#ffffff" /><polyline
     class="st2"
     points="155.2,990.4 227.2,1083 182.9,1083.4 196.5,1101.6 241.1,1100.9 475.1,1402 666.4,1738.4 624.5,1737   426.7,1409.2 196.5,1101.6 181.3,1081.3 113.3,990.4 "
     id="polyline37"
     style="fill:none;stroke:#141032;stroke-width:0.25"
     transform="matrix(0,-1,1,0,-112.29999,1021.5)" /><polygon
     class="st1"
     points="199.1,1240 244.3,1118.2 210.1,1119.7 166.5,1240 "
     id="polygon39"
     style="fill:#ffffff"
     transform="matrix(0,-1,1,0,-112.29999,1021.5)" /><polygon
     class="st2"
     points="199.1,1240 244.3,1118.2 210.1,1119.7 166.5,1240 "
     id="polygon41"
     style="fill:none;stroke:#141032;stroke-width:0.25"
     transform="matrix(0,-1,1,0,-112.29999,1021.5)" /><polygon
     class="st1"
     points="104.1,1094.1 66.4,1094.5 165.6,1239.6 198.4,1239.6 "
     id="polygon43"
     style="fill:#ffffff"
     transform="matrix(0,-1,1,0,-112.29999,1021.5)" /><g
     id="g45"
     transform="matrix(0,-1,1,0,-112.29999,1021.5)"><defs
       id="defs47"><rect
         id="SVGID_1_"
         x="65.699997"
         y="119"
         width="953.09998"
         height="1619.8" /></defs><clipPath
       id="SVGID_2_"><use
         xlink:href="#SVGID_1_"
         style="overflow:visible"
         id="use51"
         x="0"
         y="0"
         width="100%"
         height="100%" /></clipPath><polygon
       class="st4"
       points="198.4,1239.6 165.6,1239.6 66.4,1094.5 104.1,1094.1 "
       id="polygon53"
       clip-path="url(#SVGID_2_)"
       style="fill:none;stroke:#141032;stroke-width:0.25" /></g><polygon
     class="st1"
     points="490.7,768.4 517.1,857.8 430.8,956.7 419.9,924.6 "
     id="polygon55"
     style="fill:#ffffff"
     transform="matrix(0,-1,1,0,-112.29999,1021.5)" /><polygon
     class="st5"
     points="490.7,768.4 517.1,857.8 430.8,956.7 419.9,924.6 "
     id="polygon57"
     style="fill:none;stroke:#141032;stroke-width:0.5"
     transform="matrix(0,-1,1,0,-112.29999,1021.5)" /><polygon
     class="st1"
     points="610.9,711.9 570.4,711.9 724.5,1274.6 766.4,1274.6 "
     id="polygon59"
     style="fill:#ffffff"
     transform="matrix(0,-1,1,0,-112.29999,1021.5)" /><polygon
     class="st2"
     points="610.9,711.9 570.4,711.9 724.5,1274.6 766.4,1274.6 "
     id="polygon61"
     style="fill:none;stroke:#141032;stroke-width:0.25"
     transform="matrix(0,-1,1,0,-112.29999,1021.5)" /><polygon
     class="st1"
     points="511.6,309.3 483,365.2 475,351.5 505,291.1 "
     id="polygon63"
     style="fill:#ffffff"
     transform="matrix(0,-1,1,0,-112.29999,1021.5)" /><polygon
     class="st2"
     points="511.6,309.3 483,365.2 475,351.5 505,291.1 "
     id="polygon65"
     style="fill:none;stroke:#141032;stroke-width:0.25"
     transform="matrix(0,-1,1,0,-112.29999,1021.5)" /><polygon
     class="st1"
     points="493.2,291.1 467,339.6 457.3,328.2 486.4,274.5 "
     id="polygon67"
     style="fill:#ffffff"
     transform="matrix(0,-1,1,0,-112.29999,1021.5)" /><polygon
     class="st2"
     points="493.2,291.1 467,339.6 457.3,328.2 486.4,274.5 "
     id="polygon69"
     style="fill:none;stroke:#141032;stroke-width:0.25"
     transform="matrix(0,-1,1,0,-112.29999,1021.5)" /><polygon
     class="st1"
     points="490.2,816.9 495.9,831.1 434.7,966.4 429.4,950.5 "
     id="polygon71"
     style="fill:#ffffff"
     transform="matrix(0,-1,1,0,-112.29999,1021.5)" /><polygon
     class="st5"
     points="490.2,816.9 495.9,831.1 434.7,966.4 429.4,950.5 "
     id="polygon73"
     style="fill:none;stroke:#141032;stroke-width:0.5"
     transform="matrix(0,-1,1,0,-112.29999,1021.5)" /><polygon
     class="st1"
     points="493.4,811 488.3,795.4 424.5,937.6 429.1,951.3 "
     id="polygon75"
     style="fill:#ffffff"
     transform="matrix(0,-1,1,0,-112.29999,1021.5)" /><polygon
     class="st5"
     points="493.4,811 488.3,795.4 424.5,937.6 429.1,951.3 "
     id="polygon77"
     style="fill:none;stroke:#141032;stroke-width:0.5"
     transform="matrix(0,-1,1,0,-112.29999,1021.5)" /><polygon
     class="st1"
     points="766.8,1274.1 724.2,1274.1 622,1485.9 668.3,1485.9 "
     id="polygon79"
     style="fill:#ffffff"
     transform="matrix(0,-1,1,0,-112.29999,1021.5)" /><polygon
     class="st5"
     points="766.8,1274.1 724.2,1274.1 622,1485.9 668.3,1485.9 "
     id="polygon81"
     style="fill:none;stroke:#141032;stroke-width:0.5"
     transform="matrix(0,-1,1,0,-112.29999,1021.5)" /><polygon
     class="st6"
     points="493.3,840 500.9,853.6 428.2,1032.8 417.7,1006.3 "
     id="polygon83"
     style="fill:#99ac64"
     transform="matrix(0,-1,1,0,-112.29999,1021.5)" /><polygon
     class="st1"
     points="492.6,789.4 487.9,774.7 419.5,923.8 424.5,937.2 "
     id="polygon85"
     style="fill:#ffffff"
     transform="matrix(0,-1,1,0,-112.29999,1021.5)" /><polygon
     class="st5"
     points="492.6,789.4 487.9,774.7 419.5,923.8 424.5,937.2 "
     id="polygon87"
     style="fill:none;stroke:#141032;stroke-width:0.5"
     transform="matrix(0,-1,1,0,-112.29999,1021.5)" /><polygon
     class="st1"
     points="519.3,399.5 487.8,400.2 467,354.4 483,321.8 "
     id="polygon89"
     style="fill:#ffffff"
     transform="matrix(0,-1,1,0,-112.29999,1021.5)" /><polygon
     class="st2"
     points="519.3,399.5 487.8,400.2 467,354.4 483,321.8 "
     id="polygon91"
     style="fill:none;stroke:#141032;stroke-width:0.25"
     transform="matrix(0,-1,1,0,-112.29999,1021.5)" /><polygon
     class="st1"
     points="610.8,711.7 570.4,711.7 378.3,1106 420.2,1106 "
     id="polygon93"
     style="fill:#ffffff"
     transform="matrix(0,-1,1,0,-112.29999,1021.5)" /><polygon
     class="st2"
     points="610.8,711.7 570.4,711.7 378.3,1106 420.2,1106 "
     id="polygon95"
     style="fill:none;stroke:#141032;stroke-width:0.25"
     transform="matrix(0,-1,1,0,-112.29999,1021.5)" /><polygon
     class="st1"
     points="439.7,321.8 66.4,1093.9 103.5,1093.9 483,321.8 "
     id="polygon97"
     style="fill:#ffffff"
     transform="matrix(0,-1,1,0,-112.29999,1021.5)" /><g
     id="g99"
     transform="matrix(0,-1,1,0,-112.29999,1021.5)"><defs
       id="defs101"><rect
         id="SVGID_3_"
         x="65.699997"
         y="119"
         width="953.09998"
         height="1619.8" /></defs><clipPath
       id="SVGID_4_"><use
         xlink:href="#SVGID_3_"
         style="overflow:visible"
         id="use105"
         x="0"
         y="0"
         width="100%"
         height="100%" /></clipPath><polygon
       class="st7"
       points="483,321.8 439.7,321.8 66.4,1093.9 103.5,1093.9 "
       id="polygon107"
       clip-path="url(#SVGID_4_)"
       style="fill:none;stroke:#141032;stroke-width:0.25" /></g><polygon
     class="st1"
     points="790.6,1334.1 753,1334.1 649,1547.8 688,1547.8 "
     id="polygon109"
     style="fill:#ffffff"
     transform="matrix(0,-1,1,0,-112.29999,1021.5)" /><polygon
     class="st2"
     points="790.6,1334.1 753,1334.1 649,1547.8 688,1547.8 "
     id="polygon111"
     style="fill:none;stroke:#141032;stroke-width:0.25"
     transform="matrix(0,-1,1,0,-112.29999,1021.5)" /><polygon
     class="st1"
     points="855,1340.8 819.7,1340.8 682.2,1612.8 719.8,1612.8 "
     id="polygon113"
     style="fill:#ffffff"
     transform="matrix(0,-1,1,0,-112.29999,1021.5)" /><polygon
     class="st2"
     points="855,1340.8 819.7,1340.8 682.2,1612.8 719.8,1612.8 "
     id="polygon115"
     style="fill:none;stroke:#141032;stroke-width:0.25"
     transform="matrix(0,-1,1,0,-112.29999,1021.5)" /><polygon
     class="st1"
     points="682.4,526.5 646.2,526.5 590.7,640.2 626.9,640.2 "
     id="polygon117"
     style="fill:#ffffff"
     transform="matrix(0,-1,1,0,-112.29999,1021.5)" /><polygon
     class="st2"
     points="682.4,526.5 646.2,526.5 590.7,640.2 626.9,640.2 "
     id="polygon119"
     style="fill:none;stroke:#141032;stroke-width:0.25"
     transform="matrix(0,-1,1,0,-112.29999,1021.5)" /><polygon
     class="st1"
     points="660.7,339.5 626.8,408.9 592.3,408.9 630.3,339.5 "
     id="polygon121"
     style="fill:#ffffff"
     transform="matrix(0,-1,1,0,-112.29999,1021.5)" /><polygon
     class="st2"
     points="660.7,339.5 626.8,408.9 592.3,408.9 630.3,339.5 "
     id="polygon123"
     style="fill:none;stroke:#141032;stroke-width:0.25"
     transform="matrix(0,-1,1,0,-112.29999,1021.5)" /><polygon
     class="st1"
     points="420.2,1105.9 565.9,1360 668.6,1487.2 620.9,1487.2 522.1,1360 378.3,1105.9 "
     id="polygon125"
     style="fill:#ffffff"
     transform="matrix(0,-1,1,0,-112.29999,1021.5)" /><polygon
     class="st2"
     points="420.2,1105.9 565.9,1360 668.6,1487.2 620.9,1487.2 522.1,1360 378.3,1105.9 "
     id="polygon127"
     style="fill:none;stroke:#141032;stroke-width:0.25"
     transform="matrix(0,-1,1,0,-112.29999,1021.5)" /><polygon
     class="st1"
     points="688.1,1547.8 719.9,1612.8 682.3,1612.8 649,1547.8 "
     id="polygon129"
     style="fill:#ffffff"
     transform="matrix(0,-1,1,0,-112.29999,1021.5)" /><polygon
     class="st2"
     points="688.1,1547.8 719.9,1612.8 682.3,1612.8 649,1547.8 "
     id="polygon131"
     style="fill:none;stroke:#141032;stroke-width:0.25"
     transform="matrix(0,-1,1,0,-112.29999,1021.5)" /><polygon
     class="st1"
     points="737,1445.7 771.8,1507.4 737.6,1506.2 721.8,1475.5 "
     id="polygon133"
     style="fill:#ffffff"
     transform="matrix(0,-1,1,0,-112.29999,1021.5)" /><polygon
     class="st2"
     points="737,1445.7 771.8,1507.4 737.6,1506.2 721.8,1475.5 "
     id="polygon135"
     style="fill:none;stroke:#141032;stroke-width:0.25"
     transform="matrix(0,-1,1,0,-112.29999,1021.5)" /><polygon
     class="st1"
     points="823.8,1402 790.6,1402 773.9,1368.7 790.6,1334 "
     id="polygon137"
     style="fill:#ffffff"
     transform="matrix(0,-1,1,0,-112.29999,1021.5)" /><polygon
     class="st2"
     points="823.8,1402 790.6,1402 773.9,1368.7 790.6,1334 "
     id="polygon139"
     style="fill:none;stroke:#141032;stroke-width:0.25"
     transform="matrix(0,-1,1,0,-112.29999,1021.5)" /><polyline
     class="st1"
     points="646.2,526.5 537.8,291.1 571.3,291.1 682.3,526.5 "
     id="polyline141"
     style="fill:#ffffff"
     transform="matrix(0,-1,1,0,-112.29999,1021.5)" /><polyline
     class="st2"
     points="646.2,526.5 537.8,291.1 571.3,291.1 682.3,526.5 "
     id="polyline143"
     style="fill:none;stroke:#141032;stroke-width:0.25"
     transform="matrix(0,-1,1,0,-112.29999,1021.5)" /><polygon
     class="st1"
     points="554.9,254 521.4,254 505,217.1 537.9,217.1 "
     id="polygon145"
     style="fill:#ffffff"
     transform="matrix(0,-1,1,0,-112.29999,1021.5)" /><polygon
     class="st2"
     points="554.9,254 521.4,254 505,217.1 537.9,217.1 "
     id="polygon147"
     style="fill:none;stroke:#141032;stroke-width:0.25"
     transform="matrix(0,-1,1,0,-112.29999,1021.5)" /><polygon
     class="st1"
     points="583,161.9 660.7,339.5 630.3,339.5 554.8,161.9 "
     id="polygon149"
     style="fill:#ffffff"
     transform="matrix(0,-1,1,0,-112.29999,1021.5)" /><polygon
     class="st2"
     points="583,161.9 660.7,339.5 630.3,339.5 554.8,161.9 "
     id="polygon151"
     style="fill:none;stroke:#141032;stroke-width:0.25"
     transform="matrix(0,-1,1,0,-112.29999,1021.5)" /><polygon
     class="st1"
     points="583.1,161.9 537.9,217.2 505,217.2 549.4,161.9 "
     id="polygon153"
     style="fill:#ffffff"
     transform="matrix(0,-1,1,0,-112.29999,1021.5)" /><polygon
     class="st2"
     points="583.1,161.9 537.9,217.2 505,217.2 549.4,161.9 "
     id="polygon155"
     style="fill:none;stroke:#141032;stroke-width:0.25"
     transform="matrix(0,-1,1,0,-112.29999,1021.5)" /><polygon
     class="st3"
     points="545.4,782.3 536.9,750.7 436.7,950.2 447.5,985.8 "
     id="polygon157"
     style="fill:#43255c"
     transform="matrix(0,-1,1,0,-112.29999,1021.5)" /><g
     id="g159"
     transform="matrix(0,-1,1,0,-112.29999,1021.5)"><defs
       id="defs161"><rect
         id="SVGID_5_"
         x="65.699997"
         y="119"
         width="953.09998"
         height="1619.8" /></defs><clipPath
       id="SVGID_6_"><use
         xlink:href="#SVGID_5_"
         style="overflow:visible"
         id="use165"
         x="0"
         y="0"
         width="100%"
         height="100%" /></clipPath><path
       class="st8"
       d="m 429.2,1172.9 -33.5,-67.3 C 414.8,1067 460,960.4 460,960.4 l -13.3,-10.6 -68.3,130.7 -34.2,-82.3 -9.6,24.7 22.5,54 -10.8,24.2 71.1,108.8 11.8,-37 z"
       id="path167"
       clip-path="url(#SVGID_6_)"
       style="fill:#43255c" /></g><polygon
     class="st1"
     points="451.4,957.2 386.6,1085.3 374.1,1085.3 441.4,958 "
     id="polygon169"
     style="fill:#ffffff"
     transform="matrix(0,-1,1,0,-112.29999,1021.5)" /><polygon
     class="st5"
     points="451.4,957.2 386.6,1085.3 374.1,1085.3 441.4,958 "
     id="polygon171"
     style="fill:none;stroke:#141032;stroke-width:0.5"
     transform="matrix(0,-1,1,0,-112.29999,1021.5)" /><polygon
     class="st11"
     points="530.7,332.5 534.9,325.9 509.7,326 519.8,350.7 523.6,344.6 543.6,357.5 551.2,345.7 "
     id="polygon185"
     style="fill:#f7d685"
     transform="matrix(0,-1,1,0,-112.29999,1021.5)" /><polygon
     class="st3"
     points="443.3,945.8 362.1,1009.5 369.8,1017.2 449.6,955.8 "
     id="polygon191"
     style="fill:#43255c"
     transform="matrix(0,-1,1,0,-112.29999,1021.5)" /><g
     id="g193"
     transform="matrix(0,-1,1,0,-112.29999,1021.5)"><defs
       id="defs195"><rect
         id="SVGID_9_"
         x="65.699997"
         y="119"
         width="953.09998"
         height="1619.8" /></defs><clipPath
       id="SVGID_10_"><use
         xlink:href="#SVGID_9_"
         style="overflow:visible"
         id="use199"
         x="0"
         y="0"
         width="100%"
         height="100%" /></clipPath><path
       class="st12"
       d="m 1004.5,1242.9 -32.5,0 0,-6.5 27.3,0 0,-4.9 5.2,0 0,11.4 z m 0,17.1 -25,0 0,-6.6 19.7,0 0,-4.2 5.2,0 0,10.8 z m 0,17.8 -9.1,0 c -0.9,0 -1.6,0 -2.2,0 -0.6,0 -1.1,0 -1.6,-0.1 -0.5,-0.1 -0.9,-0.1 -1.4,-0.2 -0.4,-0.1 -0.9,-0.2 -1.5,-0.3 l 0.9,-6.5 c 0.5,0.1 0.9,0.2 1.3,0.2 0.4,0.1 0.8,0.1 1.3,0.2 0.4,0 1,0.1 1.5,0.1 0.6,0 1.2,0 2,0 l 3.5,0 0,-5.5 5.2,0 0,12.1 z m 7,11.9 -7,0 0,13.6 c -0.4,0.1 -0.7,0.2 -0.9,0.3 -0.3,0.1 -0.5,0.1 -0.7,0.2 -0.4,0.1 -0.7,0.1 -1.1,0.1 -0.3,0 -0.7,0 -1.2,0 l -5.2,0 c -1.9,0 -3.7,-0.4 -5.4,-1.1 -1.7,-0.8 -3.4,-1.9 -5,-3.4 l -6.8,-6.1 4,-4.7 3.1,2.7 c 1.3,1.2 2.4,2.1 3.2,2.9 0.9,0.8 1.6,1.4 2.3,1.9 0.7,0.5 1.3,0.8 2,1 0.6,0.2 1.4,0.3 2.2,0.3 l 4.3,0 0,-14.2 12.2,0 0,6.5 z m -11.1,34 c 0.9,0.2 1.7,0.5 2.5,0.7 0.8,0.3 1.7,0.5 2.5,0.8 l -2.4,9.3 c -0.6,0 -1.1,0.1 -1.7,0.1 -0.6,0 -1.1,0.1 -1.7,0.1 -1.2,-0.2 -2.4,-0.4 -3.6,-0.6 -1.1,-0.3 -2.2,-0.6 -3.2,-1 -1.8,-0.7 -3.5,-1.5 -4.9,-2.4 -1.4,-0.9 -2.7,-1.9 -3.8,-3.1 -1.1,-1.1 -2.1,-2.3 -2.9,-3.6 -0.8,-1.3 -1.6,-2.7 -2.2,-4.1 -0.6,-1.4 -1.2,-2.9 -1.7,-4.4 -0.5,-1.5 -0.9,-3 -1.3,-4.6 l 5.5,-1.7 c 0.4,1.7 0.9,3.2 1.3,4.7 0.5,1.4 1,2.7 1.5,3.9 2.1,-0.8 4.1,-1.6 6.2,-2.3 2.1,-0.8 4.1,-1.5 6.2,-2.3 0.4,-0.2 0.8,-0.3 1,-0.5 0.3,-0.1 0.5,-0.3 0.7,-0.4 0.2,-0.2 0.3,-0.3 0.5,-0.5 0.1,-0.2 0.2,-0.5 0.3,-0.8 l 1.2,-2.9 c 0.8,0.4 1.7,0.7 2.5,1.1 0.8,0.4 1.6,0.8 2.4,1.2 -0.2,0.5 -0.4,1 -0.6,1.5 -0.2,0.5 -0.4,1 -0.6,1.5 -0.3,0.8 -0.6,1.5 -1,2.1 -0.3,0.6 -0.7,1 -1,1.4 -0.4,0.4 -0.7,0.7 -1.2,1 -0.4,0.3 -0.9,0.5 -1.4,0.7 -0.8,0.3 -1.6,0.6 -2.4,0.9 -0.8,0.3 -1.6,0.5 -2.5,0.9 -0.9,0.3 -1.9,0.7 -3.1,1 -1.2,0.4 -2.7,0.9 -4.4,1.5 0.7,0.8 1.5,1.5 2.2,2 0.8,0.5 1.5,0.9 2.4,1.3 1.1,0.5 2.2,0.9 3.4,1.2 1.2,0.4 2.5,0.6 3.8,0.8 l 1.5,-4.5 z m 4.1,45.2 c 0,1 -0.1,2 -0.3,3 -0.2,1 -0.7,1.8 -1.3,2.6 -0.6,0.8 -1.5,1.4 -2.6,1.8 -1.1,0.4 -2.5,0.7 -4.3,0.8 -0.3,0 -0.7,0 -1.1,0 -0.4,0 -0.8,0 -1.2,0 -0.5,0 -1,0 -1.6,0 -0.6,0 -1.3,0 -2.1,0 -1.6,0 -3.1,-0.3 -4.5,-0.9 -1.4,-0.6 -2.5,-1.4 -3.5,-2.4 -1,-1 -1.8,-2.2 -2.3,-3.6 -0.6,-1.4 -0.8,-2.9 -0.8,-4.5 0,-1.6 0.3,-3.1 0.8,-4.4 0.6,-1.4 1.3,-2.5 2.3,-3.6 1,-1 2.2,-1.8 3.5,-2.4 1.4,-0.6 2.8,-0.9 4.5,-1 0.2,0 0.3,0 0.5,0 0.2,0 0.3,0 0.5,0 0.8,0 1.5,0 2.3,0.1 0.8,0.1 1.6,0.3 2.4,0.5 0.6,0.2 1.2,0.4 1.8,0.7 0.6,0.3 1.2,0.6 1.7,0.9 0.1,-0.7 0.2,-1.4 0.3,-2.1 0.2,-0.7 0.4,-1.5 0.7,-2.4 0.9,0.3 1.7,0.5 2.6,0.8 0.8,0.3 1.7,0.5 2.5,0.9 -0.2,0.8 -0.4,1.4 -0.5,1.9 -0.1,0.5 -0.2,1.1 -0.3,1.6 -0.1,0.5 -0.1,1 -0.1,1.5 0,0.5 0,1.1 0,1.8 l 0,0.8 0,7.6 z m -5.2,-6.5 c -0.4,-0.3 -0.9,-0.5 -1.3,-0.7 -0.4,-0.2 -0.8,-0.3 -1.2,-0.4 -0.8,-0.2 -1.6,-0.4 -2.5,-0.5 -0.9,-0.1 -1.8,-0.2 -2.6,-0.2 -0.5,0 -0.9,0 -1.4,0 -0.4,0 -0.9,0.1 -1.2,0.1 -0.8,0.1 -1.4,0.3 -2,0.6 -0.6,0.3 -1.1,0.6 -1.5,1 -0.4,0.4 -0.8,0.9 -1,1.5 -0.2,0.6 -0.3,1.2 -0.3,1.8 0,0.7 0.1,1.3 0.3,1.9 0.2,0.6 0.6,1.1 1,1.5 0.4,0.4 0.9,0.8 1.5,1 0.6,0.3 1.3,0.4 2,0.5 0.3,0 0.7,0.1 1.1,0.1 0.4,0 0.9,0 1.3,0 0.5,0 1,0 1.5,0 0.5,0 1,0 1.4,-0.1 1,-0.1 1.8,-0.2 2.4,-0.3 0.6,-0.1 1.1,-0.3 1.5,-0.6 0.4,-0.3 0.6,-0.7 0.7,-1.2 0.1,-0.6 0.2,-1.3 0.2,-2.3 l 0,-3.7 z m 12.2,26.2 -7,0 0,13.6 c -0.4,0.1 -0.7,0.2 -0.9,0.3 -0.3,0.1 -0.5,0.1 -0.7,0.2 -0.4,0.1 -0.7,0.1 -1.1,0.1 -0.3,0 -0.7,0 -1.2,0 l -5.2,0 c -1.9,0 -3.7,-0.4 -5.4,-1.1 -1.7,-0.8 -3.4,-1.9 -5,-3.4 l -6.8,-6.1 4,-4.7 3.1,2.7 c 1.3,1.2 2.4,2.1 3.2,2.9 0.9,0.8 1.6,1.4 2.3,1.9 0.7,0.5 1.3,0.8 2,1 0.6,0.2 1.4,0.3 2.2,0.3 l 4.3,0 0,-14.3 12.2,0 0,6.6 z m -5.6,25.5 c -0.4,1.5 -0.7,2.8 -1,4 -0.3,1.2 -0.6,2.2 -0.8,3.2 -0.3,0.9 -0.5,1.8 -0.8,2.6 -0.3,0.8 -0.5,1.6 -0.8,2.4 -0.3,0.8 -0.7,1.5 -1.2,2.1 -0.4,0.6 -1,1 -1.5,1.3 -0.6,0.3 -1.2,0.6 -1.9,0.7 -0.7,0.1 -1.5,0.2 -2.3,0.2 l -9.6,0 c -0.4,0 -0.8,0 -1.2,0 -0.4,0 -0.7,-0.1 -1.2,-0.1 -0.5,-0.1 -1,-0.2 -1.7,-0.3 -0.6,-0.1 -1.4,-0.3 -2.4,-0.6 l 0,-21.6 5.2,0 0,16.4 9.9,0 c 0.6,0 1,0 1.4,-0.1 0.4,0 0.7,-0.1 1,-0.3 0.3,-0.1 0.5,-0.4 0.7,-0.6 0.2,-0.3 0.4,-0.7 0.6,-1.1 0.2,-0.6 0.5,-1.3 0.7,-2.1 0.2,-0.8 0.5,-1.6 0.8,-2.6 l -4.7,-2.3 -1.9,3.1 -4.8,-2.9 4.5,-7.6 13,6.2 z m -3.3,21.9 c 0.6,0.8 1.1,1.7 1.6,2.5 0.5,0.8 1,1.7 1.5,2.6 -0.5,0.4 -1,0.7 -1.4,1 -0.4,0.3 -0.8,0.5 -1.1,0.7 -0.3,0.2 -0.7,0.4 -1,0.6 -0.3,0.2 -0.7,0.3 -1.1,0.5 1.4,1.3 2.4,2.8 3,4.2 0.7,1.5 1,3 1,4.4 0,1 -0.2,2 -0.5,2.9 -0.3,0.9 -0.7,1.8 -1.3,2.5 -0.6,0.7 -1.3,1.4 -2.1,1.9 -0.8,0.5 -1.8,0.9 -2.9,1.1 -0.9,0.2 -1.8,0.3 -2.9,0.3 -1.1,0 -2.3,0.1 -3.6,0.1 -0.6,0 -1.2,0 -1.9,0 -0.7,0 -1.5,0 -2.4,0 -1.1,0 -2.2,0 -3.2,-0.1 -1,0 -1.8,-0.1 -2.5,-0.1 -0.4,0 -0.7,-0.1 -1.1,-0.1 -0.4,0 -0.8,-0.1 -1.2,-0.1 l 0,-12.6 5.2,0 0,6.4 c 0.1,0 0.3,0 0.5,0 0.2,0 0.6,0 1.1,0 0.5,0 1.1,0 1.9,0 0.8,0 1.7,0 2.9,0 0.3,0 0.7,0 1.2,0 0.5,0 1,0 1.5,0 0.5,0 1,0 1.5,0 0.5,0 0.8,0 1.2,-0.1 1.3,-0.2 2.2,-0.6 2.8,-1.2 0.5,-0.6 0.8,-1.4 0.8,-2.5 0,-0.6 -0.1,-1.2 -0.3,-1.8 -0.2,-0.6 -0.6,-1.2 -1,-1.9 -0.3,-0.4 -0.5,-0.7 -0.9,-1.1 -0.3,-0.3 -0.7,-0.7 -1.1,-1 -1.8,-0.3 -3.3,-0.5 -4.6,-0.7 -1.3,-0.2 -2.4,-0.4 -3.4,-0.5 -1,-0.1 -1.8,-0.3 -2.5,-0.4 -0.7,-0.1 -1.4,-0.2 -2.1,-0.3 -0.7,-0.1 -1.4,-0.2 -2.2,-0.3 -0.7,-0.1 -1.6,-0.2 -2.6,-0.4 l 0,-6.5 4.2,0.6 c 1,0.1 2,0.3 2.9,0.4 0.9,0.1 1.8,0.3 2.7,0.4 0.9,0.1 1.8,0.3 2.8,0.4 0.9,0.2 1.9,0.3 3,0.5 0.3,0 0.6,0.1 0.8,0.1 0.2,0 0.5,0 0.7,0 0.4,0 0.8,0 1.2,-0.1 0.4,-0.1 0.7,-0.2 1,-0.3 0.3,-0.1 0.7,-0.3 1,-0.5 0.3,-0.2 0.7,-0.4 1.1,-0.6 l 1.8,-0.9 z"
       id="path201"
       clip-path="url(#SVGID_10_)"
       style="fill:#141032" /></g><path
     class="st13"
     d="m 1197.4,77.6 0,6 c 0,0.7 0,1.2 0,1.7 0,0.4 0,0.9 -0.1,1.2 0,0.4 -0.1,0.7 -0.1,1.1 -0.1,0.3 -0.1,0.7 -0.2,1.2 l -3.2,-0.5 c 0.1,-0.4 0.1,-0.7 0.2,-1 0,-0.3 0.1,-0.6 0.1,-1 0,-0.3 0.1,-0.7 0.1,-1.2 0,-0.4 0,-1 0,-1.6 l 0,-3.1 -4.3,0 0,-2.8 7.5,0 z m 6.4,9.1 c -0.1,-1.2 -0.2,-2.2 -0.2,-3 0,-0.8 -0.1,-1.5 -0.2,-2.1 -0.1,-0.6 -0.2,-1.2 -0.3,-1.7 -0.1,-0.5 -0.3,-1 -0.6,-1.6 0.4,-0.2 0.9,-0.5 1.4,-0.7 0.5,-0.2 1,-0.4 1.4,-0.6 0.2,0.4 0.4,0.9 0.6,1.3 0.2,0.4 0.3,0.9 0.4,1.4 0.1,0.5 0.2,1 0.2,1.7 0.1,0.6 0.1,1.4 0.2,2.2 l 0.8,10.4 c 0.4,0 0.9,0.1 1.3,0.1 2.1,0 4,-0.3 5.5,-1 1.6,-0.6 2.9,-1.6 3.9,-2.7 1,-1.2 1.8,-2.6 2.3,-4.2 0.5,-1.6 0.8,-3.4 0.8,-5.3 0,-0.5 0,-1.1 -0.1,-1.6 0,-0.5 -0.1,-1.1 -0.1,-1.6 0.5,-0.1 1,-0.3 1.5,-0.4 0.5,-0.1 1.1,-0.2 1.6,-0.3 0.1,0.5 0.2,1.1 0.2,1.7 0,0.6 0.1,1.2 0.1,1.8 0,2.7 -0.4,5.1 -1.1,7.2 -0.7,2.1 -1.8,3.8 -3.2,5.2 -1.4,1.4 -3.1,2.4 -5.1,3.1 -2,0.7 -4.3,1 -6.8,1 -0.6,0 -1.2,0 -1.9,0 -0.6,0 -1.3,-0.1 -1.9,-0.2 l -0.7,-10.1 z m 11.3,-9.5 c 0.2,0.6 0.3,1.2 0.3,1.8 0,0.4 0,0.7 -0.1,1.1 -0.1,0.4 -0.1,0.7 -0.2,1.1 -0.2,0.6 -0.4,1.2 -0.6,1.9 -0.2,0.6 -0.5,1.2 -0.8,1.9 l -2.1,4.5 -2.8,-1.2 2,-4.5 c 0.3,-0.8 0.6,-1.4 0.8,-1.9 0.2,-0.5 0.4,-1 0.5,-1.4 0.1,-0.4 0.1,-0.7 0.1,-1.2 0,-0.4 0,-0.9 -0.1,-1.4 l 3,-0.7 z m 13.9,19.9 c 0,-0.3 0,-0.7 0,-1.2 0,-0.4 0,-0.9 0,-1.4 0,-0.5 0,-1 0,-1.6 0,-0.5 0,-1.1 0,-1.6 0,-0.9 0.1,-1.8 0.2,-2.5 0.1,-0.7 0.3,-1.4 0.5,-2 0.2,-0.6 0.5,-1.2 0.8,-1.7 0.3,-0.5 0.7,-1 1.1,-1.5 -0.4,-0.6 -0.8,-1.2 -1.1,-1.7 -0.3,-0.5 -0.6,-1 -0.7,-1.4 -0.2,-0.4 -0.4,-0.9 -0.5,-1.3 -0.1,-0.4 -0.3,-0.9 -0.4,-1.3 0.4,-0.2 0.9,-0.4 1.5,-0.6 0.5,-0.2 1,-0.3 1.6,-0.4 0,0.1 0.1,0.3 0.1,0.4 0,0.1 0.1,0.3 0.1,0.4 0.1,0.4 0.3,0.8 0.4,1.2 0.2,0.4 0.4,0.8 0.6,1.3 0.2,0.5 0.6,1 0.9,1.6 0.4,0.6 0.9,1.2 1.4,1.9 0.2,0.3 0.4,0.5 0.6,0.7 0.2,0.2 0.4,0.5 0.7,0.8 0.3,0.3 0.6,0.7 1,1.1 0.4,0.4 0.9,1 1.5,1.7 l 0.1,0.1 c 0.4,-0.3 0.8,-0.7 1.1,-1 0.3,-0.4 0.5,-0.7 0.7,-1.2 0.2,-0.4 0.4,-0.9 0.5,-1.3 0.2,-0.5 0.3,-1 0.5,-1.5 0.1,-0.5 0.3,-1 0.4,-1.5 0.1,-0.5 0.3,-1 0.4,-1.5 l -2.7,-0.5 0.5,-2.6 5.2,0.9 0.1,2.4 c -0.1,0.6 -0.3,1.3 -0.5,2 -0.2,0.7 -0.4,1.4 -0.6,2 -0.2,0.8 -0.4,1.5 -0.7,2 -0.2,0.6 -0.5,1.1 -0.7,1.5 -0.3,0.5 -0.6,0.9 -1,1.3 -0.4,0.4 -0.8,0.8 -1.4,1.2 l 4.5,5.2 -2.3,2 -10,-11.5 c -0.4,0.5 -0.7,1 -0.8,1.6 -0.2,0.6 -0.3,1.3 -0.4,2 -0.1,0.7 -0.1,1.4 -0.1,2.1 0,0.7 0,1.5 0,2.2 0,0.4 0,0.8 0,1.3 0,0.5 0,1 0,1.7 l -3.1,0 z m 26.7,-16.7 c -0.5,0 -1,0 -1.5,0 -0.4,0 -0.9,0 -1.3,-0.1 -0.4,0 -0.8,-0.1 -1.2,-0.2 -0.4,-0.1 -0.9,-0.3 -1.3,-0.4 0.2,-0.4 0.3,-0.9 0.5,-1.3 0.2,-0.4 0.3,-0.9 0.5,-1.4 0.5,0.2 1,0.3 1.4,0.4 0.4,0.1 0.8,0.2 1.2,0.2 0.4,0 0.8,0.1 1.2,0.1 0.4,0 0.9,0 1.5,0 l 1.8,0 c 0.8,0 1.6,0.1 2.3,0.3 0.8,0.2 1.5,0.5 2.1,1 0.6,0.5 1.1,1.2 1.5,2 0.4,0.9 0.6,2 0.6,3.3 l 0,12.8 -3.2,0 0,-12.6 c 0,-0.8 -0.1,-1.4 -0.2,-2 -0.1,-0.5 -0.3,-1 -0.6,-1.3 -0.3,-0.3 -0.7,-0.5 -1.2,-0.7 -0.5,-0.1 -1.1,-0.2 -1.8,-0.2 l -2.3,0 z m 25.3,6.2 c 0,-0.6 0,-1.2 0,-1.7 0,-0.5 0.1,-1 0.1,-1.5 0.1,-0.5 0.2,-1 0.3,-1.5 0.1,-0.5 0.3,-1 0.6,-1.6 -0.4,0 -0.8,-0.1 -1.2,-0.2 -0.4,-0.1 -0.9,-0.3 -1.4,-0.4 0.2,-0.4 0.3,-0.9 0.5,-1.3 0.2,-0.4 0.3,-0.9 0.5,-1.4 0.5,0.2 1,0.3 1.4,0.4 0.4,0.1 0.8,0.2 1.2,0.2 0.4,0 0.8,0.1 1.2,0.1 0.4,0 0.9,0 1.5,0 l 5,0 c 0.8,0 1.6,0.1 2.3,0.3 0.8,0.2 1.5,0.5 2.1,1 0.6,0.5 1.1,1.1 1.5,2 0.4,0.8 0.6,1.9 0.6,3.3 l 0,12.9 -16,0 0,-10.6 z m 12.8,-2.1 c 0,-0.8 -0.1,-1.5 -0.2,-2 -0.1,-0.5 -0.3,-0.9 -0.6,-1.3 -0.3,-0.3 -0.7,-0.5 -1.2,-0.7 -0.5,-0.1 -1.1,-0.2 -1.8,-0.2 l -4.9,0 c -0.2,0.5 -0.4,1 -0.6,1.6 -0.1,0.5 -0.2,1 -0.3,1.5 -0.1,0.5 -0.1,1 -0.1,1.5 0,0.5 0,0.9 0,1.4 l 0,7.8 9.6,0 0,-9.6 z m 10.9,-12.2 0,5.3 10.8,0 c 0.1,0.4 0.2,0.8 0.3,1 0.1,0.3 0.1,0.5 0.1,0.7 0,0.2 0,0.4 0,0.6 0,0.2 0,0.4 0,0.6 l 0,4 c 0,1.5 -0.3,2.9 -0.9,4.2 -0.6,1.3 -1.5,2.6 -2.6,3.9 l -4.6,5 -2.3,-2 4.3,-4.8 c 0.4,-0.5 0.8,-0.9 1.1,-1.4 0.4,-0.4 0.7,-0.9 0.9,-1.4 0.3,-0.5 0.5,-1 0.6,-1.6 0.1,-0.6 0.2,-1.2 0.2,-1.8 l 0,-4.3 -11.2,0 0,-8.1 3.3,0 z m 22.2,5.3 0,19.4 -3.2,0 0,-16.6 -3.3,0 0,-2.8 6.5,0 z m 5.4,19.5 c 0,-0.3 0,-0.7 0,-1.2 0,-0.4 0,-0.9 0,-1.4 0,-0.5 0,-1 0,-1.6 0,-0.5 0,-1.1 0,-1.6 0,-0.9 0.1,-1.8 0.2,-2.5 0.1,-0.7 0.3,-1.4 0.5,-2 0.2,-0.6 0.5,-1.2 0.8,-1.7 0.3,-0.5 0.7,-1 1.1,-1.5 -0.4,-0.6 -0.8,-1.2 -1.1,-1.7 -0.3,-0.5 -0.6,-1 -0.7,-1.4 -0.2,-0.4 -0.4,-0.9 -0.5,-1.3 -0.1,-0.4 -0.3,-0.9 -0.4,-1.3 0.4,-0.2 0.9,-0.4 1.5,-0.6 0.5,-0.2 1,-0.3 1.6,-0.4 0,0.1 0.1,0.3 0.1,0.4 0,0.1 0.1,0.3 0.1,0.4 0.1,0.4 0.3,0.8 0.4,1.2 0.2,0.4 0.4,0.8 0.6,1.3 0.2,0.5 0.6,1 0.9,1.6 0.4,0.6 0.9,1.2 1.4,1.9 0.2,0.3 0.4,0.5 0.6,0.7 0.2,0.2 0.4,0.5 0.7,0.8 0.3,0.3 0.6,0.7 1,1.1 0.4,0.4 0.9,1 1.5,1.7 l 0.1,0.1 c 0.4,-0.3 0.8,-0.7 1.1,-1 0.3,-0.4 0.5,-0.7 0.7,-1.2 0.2,-0.4 0.4,-0.9 0.5,-1.3 0.2,-0.5 0.3,-1 0.5,-1.5 0.1,-0.5 0.3,-1 0.4,-1.5 0.1,-0.5 0.3,-1 0.4,-1.5 l -2.7,-0.5 0.5,-2.6 5.2,0.9 0.1,2.4 c -0.1,0.6 -0.3,1.3 -0.5,2 -0.2,0.7 -0.4,1.4 -0.6,2 -0.2,0.8 -0.4,1.5 -0.7,2 -0.2,0.6 -0.5,1.1 -0.7,1.5 -0.3,0.5 -0.6,0.9 -1,1.3 -0.4,0.4 -0.8,0.8 -1.4,1.2 l 4.5,5.2 -2.3,2 -10,-11.5 c -0.4,0.5 -0.7,1 -0.8,1.6 -0.2,0.6 -0.3,1.3 -0.4,2 -0.1,0.7 -0.1,1.4 -0.1,2.1 0,0.7 0,1.5 0,2.2 0,0.4 0,0.8 0,1.3 0,0.5 0,1 0,1.7 l -3.1,0 z"
     id="path203"
     style="fill:#141032" /><polygon
     class="st1"
     points="543.9,750 537.1,750 545.6,782.5 552.7,782.5 "
     id="polygon205"
     style="fill:#ffffff"
     transform="matrix(0,-1,1,0,-112.29999,1021.5)" /><polygon
     class="st14"
     points="543.9,750 537.1,750 545.6,782.5 552.7,782.5 "
     id="polygon207"
     style="fill:none;stroke:#231f20;stroke-width:0.25"
     transform="matrix(0,-1,1,0,-112.29999,1021.5)" /><polygon
     class="st1"
     points="542.7,750 535.8,750 531.1,757 538.2,757 "
     id="polygon209"
     style="fill:#ffffff"
     transform="matrix(0,-1,1,0,-112.29999,1021.5)" /><polygon
     class="st14"
     points="542.7,750 535.8,750 531.1,757 538.2,757 "
     id="polygon211"
     style="fill:none;stroke:#231f20;stroke-width:0.25"
     transform="matrix(0,-1,1,0,-112.29999,1021.5)" /><polygon
     class="st1"
     points="529.7,635.3 522.9,635.3 531.4,757.8 538.4,757.8 "
     id="polygon213"
     style="fill:#ffffff"
     transform="matrix(0,-1,1,0,-112.29999,1021.5)" /><polygon
     class="st14"
     points="529.7,635.3 522.9,635.3 531.4,757.8 538.4,757.8 "
     id="polygon215"
     style="fill:none;stroke:#231f20;stroke-width:0.25"
     transform="matrix(0,-1,1,0,-112.29999,1021.5)" /><polygon
     class="st1"
     points="361.8,1009.7 372.8,1008.8 443.5,951.4 533.9,757.7 534.1,757.7 525.5,635.4 518.8,635.4 527.1,757.7 436.6,949.1 "
     id="polygon217"
     style="fill:#ffffff"
     transform="matrix(0,-1,1,0,-112.29999,1021.5)" /><polygon
     class="st2"
     points="361.8,1009.7 372.8,1008.8 443.5,951.4 533.9,757.7 534.1,757.7 525.5,635.4 518.8,635.4 527.1,757.7 436.6,949.1 "
     id="polygon219"
     style="fill:none;stroke:#141032;stroke-width:0.25"
     transform="matrix(0,-1,1,0,-112.29999,1021.5)" /><polygon
     class="st1"
     points="335.9,1027.3 268.6,1026.8 255.6,1003.4 324.7,1003.4 "
     id="polygon221"
     style="fill:#ffffff"
     transform="matrix(0,-1,1,0,-112.29999,1021.5)" /><polyline
     class="st5"
     points="335.9,1027.3 268.6,1026.8 255.6,1003.4 324.7,1003.4 335.9,1027.3 "
     id="polyline223"
     style="fill:none;stroke:#141032;stroke-width:0.5"
     transform="matrix(0,-1,1,0,-112.29999,1021.5)" /><polygon
     class="st1"
     points="451.6,956.9 441.7,958.2 370.6,1016.8 379.5,1017 "
     id="polygon225"
     style="fill:#ffffff"
     transform="matrix(0,-1,1,0,-112.29999,1021.5)" /><polygon
     class="st2"
     points="451.6,956.9 441.7,958.2 370.6,1016.8 379.5,1017 "
     id="polygon227"
     style="fill:none;stroke:#141032;stroke-width:0.25"
     transform="matrix(0,-1,1,0,-112.29999,1021.5)" /><polygon
     class="st1"
     points="273.3,969.3 255.6,1003.4 324.8,1003.4 338.8,969.3 "
     id="polygon229"
     style="fill:#ffffff"
     transform="matrix(0,-1,1,0,-112.29999,1021.5)" /><polygon
     class="st5"
     points="273.3,969.3 255.6,1003.4 324.8,1003.4 338.8,969.3 "
     id="polygon231"
     style="fill:none;stroke:#141032;stroke-width:0.5"
     transform="matrix(0,-1,1,0,-112.29999,1021.5)" /><polygon
     class="st1"
     points="348.8,994.1 335.8,1027.2 324.5,1003.8 338.7,969.2 "
     id="polygon233"
     style="fill:#ffffff"
     transform="matrix(0,-1,1,0,-112.29999,1021.5)" /><polygon
     class="st5"
     points="348.8,994.1 335.8,1027.2 324.5,1003.8 338.7,969.2 "
     id="polygon235"
     style="fill:none;stroke:#141032;stroke-width:0.5"
     transform="matrix(0,-1,1,0,-112.29999,1021.5)" /><path
     class="st1"
     d="m 609.30001,405.7 299.2,-86.7 0,-33.6 -300,83.6 -110.8,34.6 0,37.6 111.6,-35.5 z M 1228.5,202.1 l 0,-35.4 -249.19999,98.9 -24.5,6.8 0,33.1 22.8,-6.6 L 1228.5,202.1 Z m 0,-35.7 0,0.3 0.7,-0.3 -0.7,0 z"
     id="path237"
     style="fill:#ffffff" /><path
     class="st2"
     d="m 609.30001,405.7 299.2,-86.7 0,-33.6 -300,83.6 -110.8,34.6 0,37.6 111.6,-35.5 z M 1228.5,202.1 l 0,-35.4 -249.19999,98.9 -24.5,6.8 0,33.1 22.8,-6.6 L 1228.5,202.1 Z m 0,-35.7 0,0.3 0.7,-0.3 -0.7,0 z"
     id="path239"
     style="fill:none;stroke:#141032;stroke-width:0.25" /><g
     id="g349"
     transform="matrix(0,-1,1,0,-112.29999,1021.5)"><defs
       id="defs351"><rect
         id="SVGID_25_"
         x="659.5"
         y="526.90002"
         width="27.9"
         height="27.9" /></defs><clipPath
       id="SVGID_26_"><use
         xlink:href="#SVGID_25_"
         style="overflow:visible"
         id="use355"
         x="0"
         y="0"
         width="100%"
         height="100%" /></clipPath></g><rect
     x="-554.09998"
     y="9.9999981"
     class="st13"
     width="26.200001"
     height="148.39999"
     id="rect395"
     style="fill:#141032"
     transform="matrix(0,-1,1,0,0,0)" /><path
     class="st11"
     d="m 30.30001,534.3 c 0.5,0 1,0.1 1.5,0.2 0.5,0.1 0.9,0.3 1.3,0.6 0.4,0.3 0.7,0.7 0.9,1.3 0.2,0.5 0.4,1.2 0.4,2.1 l 0,8.3 -11.7,0 0,-6.9 c 0,-0.5 0,-1 0.1,-1.5 0.1,-0.5 0.2,-1 0.3,-1.6 -0.3,0 -0.6,-0.1 -0.9,-0.2 -0.3,-0.1 -0.6,-0.2 -1,-0.3 0.1,-0.4 0.3,-0.9 0.4,-1.3 0.1,-0.4 0.3,-0.8 0.4,-1.2 0.4,0.1 0.8,0.2 1,0.3 0.3,0.1 0.6,0.1 0.8,0.1 0.3,0 0.5,0.1 0.8,0.1 0.3,0 0.7,0 1.1,0 l 4.6,0 z m 0.8,9.9 0,-4.9 c 0,-0.5 0,-0.9 -0.1,-1.2 0,-0.3 -0.1,-0.6 -0.3,-0.7 -0.2,-0.2 -0.4,-0.3 -0.7,-0.4 -0.3,-0.1 -0.7,-0.1 -1.2,-0.1 l -2.7,0 c -0.1,0.6 -0.2,1.1 -0.2,1.5 0,0.5 0,0.9 0,1.4 l 0,4.3 5.2,0 z m 12,-9.9 0,4.6 c 0,0.4 0,0.8 0,1.1 0,0.3 0,0.6 0,0.8 0,0.2 -0.1,0.5 -0.1,0.7 0,0.2 -0.1,0.5 -0.2,0.7 l -3.2,-0.5 c 0,-0.2 0.1,-0.5 0.1,-0.7 0,-0.2 0.1,-0.4 0.1,-0.6 0,-0.2 0,-0.5 0.1,-0.8 0,-0.3 0,-0.6 0,-1 l 0,-1.7 -2.7,0 0,-2.6 5.9,0 z m 8.7,0 0,4.6 c 0,0.4 0,0.8 0,1.1 0,0.3 0,0.6 0,0.8 0,0.2 -0.1,0.5 -0.1,0.7 0,0.2 -0.1,0.5 -0.2,0.7 l -3.2,-0.5 c 0,-0.2 0.1,-0.5 0.1,-0.7 0,-0.2 0.1,-0.4 0.1,-0.6 0,-0.2 0,-0.5 0.1,-0.8 0,-0.3 0,-0.6 0,-1 l 0,-1.7 -2.9,0 0,-2.6 6.1,0 z m 9.8,0 0,1.7 c 0,0.2 0,0.3 0,0.5 0,0.2 0,0.4 0.1,0.7 0,0.3 0.1,0.6 0.1,1 0,0.4 0.1,0.9 0.2,1.4 0.1,0.5 0.1,1.2 0.2,1.9 0.1,0.7 0.2,1.6 0.3,2.6 0,0.1 0,0.3 0,0.4 0,0.1 0,0.2 0,0.3 0,0.2 0,0.3 0,0.5 0,0.2 0,0.3 0,0.5 0,0.2 0,0.3 -0.1,0.5 0,0.2 -0.1,0.4 -0.1,0.6 l -8.1,0 0,-2.6 5.2,0 c 0,-0.2 0,-0.5 -0.1,-0.8 -0.1,-0.3 -0.1,-0.8 -0.1,-1.3 -0.1,-0.5 -0.1,-1 -0.2,-1.5 -0.1,-0.5 -0.1,-1 -0.2,-1.5 -0.1,-0.5 -0.1,-0.9 -0.1,-1.3 0,-0.4 -0.1,-0.6 -0.1,-0.8 l -3.1,0 0,-2.6 6.1,0 z m 9.4,0 0,4.6 c 0,0.4 0,0.8 0,1.1 0,0.3 0,0.6 0,0.8 0,0.2 -0.1,0.5 -0.1,0.7 0,0.2 -0.1,0.5 -0.2,0.7 l -3.2,-0.5 c 0,-0.2 0.1,-0.5 0.1,-0.7 0,-0.2 0.1,-0.4 0.1,-0.6 0,-0.2 0,-0.5 0.1,-0.8 0,-0.3 0,-0.6 0,-1 l 0,-1.7 -2.7,0 0,-2.6 5.9,0 z m 9.4,5.1 c 0,-0.5 0,-0.9 -0.1,-1.2 0,-0.3 -0.1,-0.6 -0.3,-0.7 -0.2,-0.2 -0.4,-0.3 -0.7,-0.4 -0.3,-0.1 -0.7,-0.1 -1.2,-0.1 -0.4,0 -0.8,0 -1.1,0 -0.3,0 -0.6,0 -0.9,-0.1 -0.3,0 -0.6,-0.1 -0.9,-0.2 -0.3,-0.1 -0.6,-0.2 -1,-0.3 0.1,-0.4 0.3,-0.9 0.4,-1.3 0.1,-0.4 0.3,-0.8 0.4,-1.2 0.4,0.1 0.8,0.2 1,0.3 0.3,0.1 0.6,0.1 0.8,0.1 0.3,0 0.5,0.1 0.8,0.1 0.3,0 0.7,0 1.1,0 l 0.6,0 c 0.5,0 1,0.1 1.5,0.2 0.5,0.1 0.9,0.3 1.3,0.6 0.4,0.3 0.7,0.7 0.9,1.3 0.2,0.5 0.4,1.2 0.4,2.1 l 0,5.7 2.2,0 0,2.6 -12.4,0 0,-2.6 7,0 0,-4.9 z m 22.8,-5.1 c 0.5,0 1,0.1 1.5,0.2 0.5,0.1 0.9,0.3 1.3,0.6 0.4,0.3 0.7,0.7 0.9,1.3 0.2,0.5 0.4,1.2 0.4,2.1 l 0,8.3 -3.3,0 0,-7.5 c 0,-0.5 0,-0.9 -0.1,-1.2 0,-0.3 -0.1,-0.6 -0.3,-0.7 -0.2,-0.2 -0.4,-0.3 -0.7,-0.4 -0.3,-0.1 -0.7,-0.1 -1.2,-0.1 l -1.8,0 c -0.3,0.6 -0.4,1.1 -0.6,1.8 -0.1,0.6 -0.2,1.3 -0.2,1.9 0,0.4 0,0.7 0,1 0,0.3 0,0.6 0.1,0.9 0,0.3 0.1,0.6 0.2,0.9 0.1,0.3 0.1,0.6 0.2,0.9 l 0.2,0.7 c 0,0.3 -0.1,0.7 -0.1,1 0,0.3 -0.1,0.6 -0.2,0.9 l -5.9,0 0,-2.6 2.8,0 c -0.2,-0.6 -0.4,-1.2 -0.5,-1.8 -0.1,-0.6 -0.2,-1.1 -0.2,-1.7 0,-0.4 0,-0.9 0.1,-1.3 0.1,-0.4 0.2,-0.9 0.3,-1.3 0.1,-0.2 0.1,-0.4 0.2,-0.6 0.1,-0.2 0.1,-0.4 0.2,-0.6 -0.4,0 -0.7,-0.1 -1,-0.2 -0.3,-0.1 -0.7,-0.2 -1.2,-0.4 0.1,-0.4 0.3,-0.9 0.4,-1.3 0.1,-0.4 0.3,-0.8 0.4,-1.2 0.4,0.1 0.8,0.2 1,0.3 0.3,0.1 0.6,0.1 0.8,0.1 0.3,0 0.5,0.1 0.8,0.1 0.3,0 0.7,0 1.1,0 l 4.4,0 z m 6.9,1 c 0.4,-0.3 0.8,-0.5 1.3,-0.8 0.4,-0.3 0.8,-0.5 1.3,-0.8 0.2,0.3 0.4,0.5 0.5,0.7 0.1,0.2 0.3,0.4 0.4,0.6 0.1,0.2 0.2,0.3 0.3,0.5 0.1,0.2 0.2,0.4 0.2,0.5 0.7,-0.7 1.4,-1.2 2.1,-1.5 0.7,-0.3 1.5,-0.5 2.2,-0.5 0.5,0 1,0.1 1.5,0.2 0.5,0.2 0.9,0.4 1.3,0.7 0.4,0.3 0.7,0.6 0.9,1.1 0.3,0.4 0.4,0.9 0.6,1.4 0.1,0.4 0.1,0.9 0.2,1.5 0,0.5 0,1.1 0,1.8 0,0.3 0,0.6 0,1 0,0.3 0,0.7 0,1.2 0,0.6 0,1.1 0,1.6 0,0.5 0,0.9 -0.1,1.3 0,0.2 0,0.4 0,0.6 0,0.2 0,0.4 -0.1,0.6 l -6.3,0 0,-2.6 3.2,0 c 0,0 0,-0.1 0,-0.3 0,-0.1 0,-0.3 0,-0.6 0,-0.2 0,-0.6 0,-0.9 0,-0.3 0,-0.9 0,-1.4 0,-0.2 0,-0.4 0,-0.6 0,-0.2 0,-0.5 0,-0.7 0,-0.3 0,-0.5 0,-0.7 0,-0.2 0,-0.4 0,-0.6 -0.1,-0.6 -0.3,-1.1 -0.6,-1.4 -0.3,-0.3 -0.7,-0.4 -1.3,-0.4 -0.3,0 -0.6,0.1 -0.9,0.2 -0.3,0.1 -0.6,0.3 -0.9,0.5 -0.2,0.1 -0.4,0.3 -0.5,0.4 -0.2,0.2 -0.3,0.3 -0.5,0.5 -0.1,0.9 -0.3,1.7 -0.3,2.3 -0.1,0.6 -0.2,1.2 -0.3,1.7 -0.1,0.5 -0.1,0.9 -0.2,1.3 -0.1,0.4 -0.1,0.7 -0.2,1.1 -0.1,0.3 -0.1,0.7 -0.2,1.1 -0.1,0.4 -0.1,0.8 -0.2,1.3 l -3.3,0 0.3,-2.1 c 0.1,-0.5 0.1,-1 0.2,-1.5 0.1,-0.5 0.1,-0.9 0.2,-1.4 0.1,-0.5 0.1,-0.9 0.2,-1.4 0.1,-0.5 0.2,-1 0.2,-1.5 0,-0.1 0,-0.3 0,-0.4 0,-0.1 0,-0.2 0,-0.3 0,-0.2 0,-0.4 0,-0.6 0,-0.2 -0.1,-0.3 -0.1,-0.5 -0.1,-0.2 -0.1,-0.3 -0.2,-0.5 -0.1,-0.2 -0.2,-0.4 -0.3,-0.6 l -0.6,-1.1 z m 20.9,-1 0,12.5 -3.3,0 0,-9.9 -2.1,0 0,-2.6 5.4,0 z m 7.1,2.7 c -0.4,0 -0.8,0 -1.1,0 -0.3,0 -0.6,0 -0.9,-0.1 -0.3,0 -0.6,-0.1 -0.9,-0.2 -0.3,-0.1 -0.6,-0.2 -1,-0.3 0.1,-0.4 0.3,-0.9 0.4,-1.3 0.1,-0.4 0.3,-0.8 0.4,-1.2 0.4,0.1 0.7,0.2 1,0.2 0.3,0.1 0.5,0.1 0.8,0.1 0.2,0 0.5,0.1 0.8,0.1 0.3,0 0.6,0 0.9,0 l 0.4,0 7.1,0 c 0,0.1 0.1,0.3 0.1,0.4 0,0.1 0.1,0.2 0.1,0.3 0,0.2 0.1,0.4 0.1,0.6 0,0.2 0,0.4 0,0.6 l 0,2.6 c 0,0.4 0,0.9 -0.1,1.2 -0.1,0.4 -0.1,0.7 -0.2,1.1 -0.1,0.3 -0.2,0.7 -0.4,1 -0.2,0.3 -0.4,0.6 -0.6,1 -0.2,0.3 -0.4,0.6 -0.7,1 -0.3,0.4 -0.6,0.8 -1,1.2 -0.3,0.4 -0.7,0.8 -1,1.2 -0.3,0.4 -0.6,0.7 -0.9,1 l -2.3,-2 1.6,-1.8 c 0.4,-0.5 0.7,-0.8 1,-1.2 0.3,-0.3 0.5,-0.6 0.7,-0.9 0.2,-0.2 0.3,-0.4 0.4,-0.6 0.1,-0.2 0.2,-0.4 0.2,-0.6 0.1,-0.2 0.1,-0.4 0.1,-0.6 0,-0.2 0,-0.5 0,-0.7 l 0,-2.1 -5,0 z m -3.8,6.2 c 0,-0.3 0,-0.7 0,-0.9 0,-0.3 0,-0.6 0,-0.8 0,-0.3 0,-0.5 0.1,-0.8 0,-0.3 0.1,-0.5 0.2,-0.8 0.5,0.1 1.1,0.1 1.6,0.2 0.5,0.1 1.1,0.2 1.6,0.3 -0.1,0.4 -0.2,0.9 -0.2,1.3 0,0.5 -0.1,1 -0.1,1.6 l 0,7.3 -3.3,0 0,-7.4 z"
     id="path397"
     style="fill:#f7d685" /></svg>