<svg width="115.6" height="177.805" viewBox="0 0 30.585 47.044" xmlns="http://www.w3.org/2000/svg">
    <path d="M1310.7 1817.2c0 32.1-57.8 120-57.8 120s-57.8-87.9-57.8-120c0-32.1 26.1-57.8 57.8-57.8 31.9-.4 57.8 25.7 57.8 57.8" style="fill:#0b8e36;fill-opacity:1" transform="translate(-316.2 -465.5) scale(.26458)"/>
    <path d="M1225.6 1784.5h13.4v15.6h-13.4zm9.2 12.3v-9h-4.9v9zm19.9-9.6-5.1 12.9h-4.5l5.1-12.3h-8.3v-7.6h4.2v4.4h8.6zm3.2.5h-1.3v-3.3h5.6v15.6h-4.2v-12.3zm18.7 5.8 4.5 6.5h-4.7l-5.7-8.2c-.2.3-.4.8-.4 1.3v7h-4.1v-5.1c0-1.4.2-2.6.7-3.5.4-.9 1.2-1.5 2.1-2l-3.4-5h4.7l3.7 5.3 2.5-5.3h4.7zm-52.5 26.2h-2.4v-3.3h6.6v8.9h-4.2zm12.4 8.4c.7.3 1.5.6 2.4.8.9.2 1.6.3 2.4.3 1.9 0 3.4-.4 4.5-1.2 1.1-.8 1.6-2 1.6-3.6v-8h4.1v8.4c0 1.7-.4 3.1-1.3 4.2s-2.1 2-3.6 2.6c-1.5.6-3.2.9-5.1.9-1.5 0-3-.2-4.6-.5-1.6-.4-3-.9-4.4-1.5v-14h4.1v11.6zm3.1-2.5c.1-.6.1-1.3.1-2v-7.2h4.1v6.3c0 .9-.1 1.7-.3 2.5-.2.8-.5 1.4-.8 1.8h-3.4c.1-.4.2-.8.3-1.4zm26.2-.2 4.5 6.5h-4.7l-5.7-8.2c-.2.3-.4.8-.4 1.3v7h-4.1v-5.1c0-1.4.2-2.6.7-3.5.4-.9 1.2-1.5 2.1-2l-3.4-5h4.7l3.7 5.3 2.5-5.3h4.7zm12.9-3.7c0-.7-.2-1.2-.6-1.5-.4-.4-.9-.5-1.6-.5h-4.7v-3.3h5c1.3 0 2.4.2 3.3.7.9.4 1.6 1.1 2.1 1.9.5.8.7 1.8.7 3v10h-4.2z" style="fill:#fffffd" transform="translate(-316.2 -465.5) scale(.26458)"/>
</svg>
