<?xml version="1.0" encoding="UTF-8" standalone="no"?>
<svg
   xmlns:dc="http://purl.org/dc/elements/1.1/"
   xmlns:cc="http://creativecommons.org/ns#"
   xmlns:rdf="http://www.w3.org/1999/02/22-rdf-syntax-ns#"
   xmlns:svg="http://www.w3.org/2000/svg"
   xmlns="http://www.w3.org/2000/svg"
   xmlns:xlink="http://www.w3.org/1999/xlink"
   id="svg4799"
   version="1.1"
   viewBox="0 0 36.036252 30.903335"
   height="116.8"
   width="136.20001">
  <defs
     id="defs4793">
    <clipPath
       id="SVGID_14_">
      <use
         id="use1474"
         style="overflow:visible"
         xlink:href="#SVGID_13_"
         x="0"
         y="0"
         width="100%"
         height="100%" />
    </clipPath>
    <clipPath
       id="SVGID_16_">
      <use
         id="use1486"
         style="overflow:visible"
         xlink:href="#SVGID_15_"
         x="0"
         y="0"
         width="100%"
         height="100%" />
    </clipPath>
    <rect
       height="25.200001"
       width="36.799999"
       y="422"
       x="1138.8"
       id="SVGID_13_" />
    <rect
       height="25.200001"
       width="36.799999"
       y="422"
       x="1138.8"
       id="SVGID_15_" />
  </defs>
  <metadata
     id="metadata4796">
    <rdf:RDF>
      <cc:Work
         rdf:about="">
        <dc:format>image/svg+xml</dc:format>
        <dc:type
           rdf:resource="http://purl.org/dc/dcmitype/StillImage" />
        <dc:title></dc:title>
      </cc:Work>
    </rdf:RDF>
  </metadata>
  <g
     transform="translate(-80.601532,-125.06619)"
     id="layer1">
    <g
       transform="matrix(0.26458333,0,0,0.26458333,-207.55616,28.255151)"
       id="g2596">
      <path
         d="m 1180.4,435.1 c 0,12.7 -23.2,47.6 -23.2,47.6 0,0 -23.2,-34.9 -23.2,-47.6 0,-12.7 10.4,-23.2 23.2,-23.2 12.8,0.1 23.2,10.5 23.2,23.2"
         class="st2"
         id="path457_3_"
         style="fill:#2ca5e8;fill-opacity:1" />
      <rect
         height="38.5"
         width="133.10001"
         class="st2"
         y="365.89999"
         x="1092.2"
         id="rect323_7_"
         style="fill:#ec2426" />
      <g
         id="g1195">
        <g
           id="g1193">
          <path
             id="path1181"
             d="m 1121.6,385.7 c 0.5,0.8 0.8,1.7 0.8,2.7 0,1.2 -0.3,2.1 -0.9,3 -0.6,0.9 -1.4,1.5 -2.5,1.9 -1,0.4 -2.2,0.7 -3.5,0.7 -1.1,0 -2.2,-0.2 -3.2,-0.6 -1,-0.4 -1.8,-1 -2.4,-1.8 -0.6,-0.8 -0.9,-1.8 -0.9,-3.1 h 4.1 c 0,0.4 0.1,0.8 0.3,1.1 0.2,0.3 0.5,0.6 0.9,0.8 0.4,0.2 0.8,0.3 1.3,0.3 0.6,0 1,-0.1 1.4,-0.3 0.4,-0.2 0.7,-0.5 0.9,-0.8 0.2,-0.4 0.3,-0.8 0.3,-1.2 0,-0.9 -0.2,-1.6 -0.7,-2 -0.5,-0.4 -1.2,-0.6 -2.2,-0.6 h -2.1 v -2.1 -1 h 2.1 c 0.9,0 1.5,-0.2 2,-0.7 0.4,-0.4 0.7,-1 0.7,-1.8 0,-0.6 -0.2,-1.2 -0.6,-1.6 -0.4,-0.4 -1,-0.6 -1.8,-0.6 -0.4,0 -0.8,0.1 -1.2,0.2 -0.4,0.1 -0.6,0.4 -0.9,0.7 -0.2,0.3 -0.3,0.6 -0.3,1 h -4 c 0,-1 0.3,-1.9 0.8,-2.7 0.6,-0.8 1.3,-1.4 2.3,-1.8 1,-0.4 2,-0.6 3.2,-0.6 1.3,0 2.5,0.2 3.4,0.6 1,0.4 1.8,1 2.3,1.8 0.5,0.8 0.8,1.8 0.8,2.9 0,0.8 -0.3,1.6 -0.8,2.4 -0.5,0.7 -1.2,1.3 -2.1,1.7 1.2,0.2 2,0.8 2.5,1.5 z"
             class="st11"
             style="fill:#fffffd" />
          <path
             id="path1183"
             d="m 1143.9,380.9 -5.1,12.9 h -4.5 l 5.1,-12.3 h -8.3 v -7.6 h 4.2 v 4.4 h 8.6 z"
             class="st11"
             style="fill:#fffffd" />
          <path
             id="path1185"
             d="m 1147,381.4 h -1.3 v -3.3 h 5.6 v 15.6 h -4.2 v -12.3 z"
             class="st11"
             style="fill:#fffffd" />
          <path
             id="path1187"
             d="m 1154.2,393.4 0.6,-3.1 c 1.3,0.3 2.4,0.4 3.3,0.4 1.2,0 2.2,-0.3 2.7,-0.8 0.6,-0.5 0.9,-1.3 0.9,-2.4 v -6.1 h -7 v -3.3 h 11.2 v 8.6 c 0,2.5 -0.6,4.3 -1.9,5.5 -1.3,1.2 -3.1,1.7 -5.4,1.7 -1.2,0.1 -2.7,-0.1 -4.4,-0.5 z"
             class="st11"
             style="fill:#fffffd" />
          <path
             id="path1189"
             d="m 1174.3,389.9 c 0.7,0.3 1.5,0.6 2.4,0.8 0.9,0.2 1.6,0.3 2.4,0.3 1.9,0 3.4,-0.4 4.5,-1.2 1.1,-0.8 1.6,-2 1.6,-3.6 v -8 h 4.1 v 8.4 c 0,1.7 -0.4,3.1 -1.3,4.2 -0.9,1.1 -2.1,2 -3.6,2.6 -1.5,0.6 -3.2,0.9 -5.1,0.9 -1.5,0 -3,-0.2 -4.6,-0.5 -1.6,-0.4 -3,-0.9 -4.4,-1.5 v -14 h 4.1 v 11.6 z m 3.2,-2.6 c 0.1,-0.6 0.1,-1.3 0.1,-2 v -7.2 h 4.1 v 6.3 c 0,0.9 -0.1,1.7 -0.3,2.5 -0.2,0.8 -0.5,1.4 -0.8,1.8 h -3.4 c 0.1,-0.3 0.2,-0.8 0.3,-1.4 z"
             class="st11"
             style="fill:#fffffd" />
          <path
             id="path1191"
             d="m 1203.6,387.2 4.5,6.5 h -4.7 l -5.7,-8.2 c -0.2,0.3 -0.4,0.8 -0.4,1.3 v 7 h -4.1 v -5.1 c 0,-1.4 0.2,-2.6 0.7,-3.5 0.4,-0.9 1.2,-1.5 2.1,-2 l -3.4,-5 h 4.7 l 3.7,5.3 2.5,-5.3 h 4.7 z"
             class="st11"
             style="fill:#fffffd" />
        </g>
      </g>
      <g
         id="g1495">
        <g
           id="g1479">
          <defs
             id="defs1472" />
          <clipPath
             id="clipPath4777">
            <use
               id="use4775"
               style="overflow:visible"
               xlink:href="#SVGID_13_"
               x="0"
               y="0"
               width="100%"
               height="100%" />
          </clipPath>
          <path
             id="path1477"
             clip-path="url(#SVGID_14_)"
             d="m 1167.3,439.7 -3.6,-13.4 -0.2,-0.9 c -0.3,-1 -1.3,-1.6 -2.3,-1.3 -0.8,0.2 -1.3,0.9 -1.4,1.7 l -19.5,10.6 c -0.2,-0.2 -0.5,-0.3 -0.9,-0.2 -0.5,0.1 -0.8,0.6 -0.7,1.1 l 0.4,1.3 0.7,2.7 0.4,1.3 c 0.1,0.5 0.6,0.8 1.1,0.7 0.3,-0.1 0.5,-0.3 0.6,-0.6 h 1.5 c 0.4,2.3 2.4,4.1 4.9,4.1 0.4,0 0.9,-0.1 1.3,-0.2 0.8,-0.2 1.6,-0.7 2.2,-1.3 0.8,-0.8 1.3,-1.8 1.4,-2.9 l 10.9,-0.3 c 0.4,0.7 1.2,1 2,0.8 1,-0.3 1.6,-1.3 1.3,-2.3 z m -16.7,4.3 c -0.6,0.6 -1.4,0.9 -2.2,0.9 -1.4,0 -2.6,-1 -3,-2.3 l 6,-0.2 c -0.1,0.6 -0.3,1.1 -0.8,1.6 z m -7.2,-5.1 17.3,-9.4 2.4,8.9 z m 0,0"
             class="st24"
             style="fill:#fbf2de;enable-background:new" />
        </g>
        <path
           id="path1481"
           d="m 1170.1,432.8 4.5,-1.2 c 0.5,-0.1 0.8,-0.6 0.7,-1.1 -0.1,-0.5 -0.6,-0.8 -1.1,-0.7 l -4.5,1.2 c -0.5,0.1 -0.8,0.6 -0.7,1.1 0.1,0.5 0.6,0.8 1.1,0.7 z m 0,0"
           class="st7"
           style="fill:#fbf2de;enable-background:new" />
        <g
           id="g1493">
          <defs
             id="defs1484" />
          <clipPath
             id="clipPath4786">
            <use
               id="use4784"
               style="overflow:visible"
               xlink:href="#SVGID_15_"
               x="0"
               y="0"
               width="100%"
               height="100%" />
          </clipPath>
          <path
             id="path1489"
             clip-path="url(#SVGID_16_)"
             d="m 1174.7,438.6 -4.5,-1.2 c -0.5,-0.1 -1,0.2 -1.1,0.7 -0.1,0.5 0.2,1 0.7,1.1 l 4.5,1.2 c 0.2,0 0.3,0 0.5,0 0.3,-0.1 0.6,-0.3 0.7,-0.7 -0.1,-0.5 -0.4,-1 -0.8,-1.1 z m 0,0"
             class="st25"
             style="fill:#fbf2de;enable-background:new" />
          <path
             id="path1491"
             clip-path="url(#SVGID_16_)"
             d="m 1166.9,427.1 c 0.2,0 0.3,-0.1 0.4,-0.2 l 3.3,-3.3 c 0.4,-0.4 0.4,-0.9 0,-1.3 -0.4,-0.4 -0.9,-0.4 -1.3,0 l -3.3,3.3 c -0.4,0.4 -0.4,0.9 0,1.3 0.3,0.2 0.6,0.3 0.9,0.2 z m 0,0"
             class="st25"
             style="fill:#fbf2de;enable-background:new" />
        </g>
      </g>
    </g>
  </g>
</svg>
