<svg xmlns="http://www.w3.org/2000/svg" viewBox="0 0 58.891 27.715" height="104.75" width="222.58">
    <path class="st2" d="M130.985 138.534c0 3.022-5.496 11.306-5.496 11.306s-5.495-8.284-5.495-11.306c0-3.021 2.474-5.495 5.495-5.495 3.048.031 5.496 2.476 5.496 5.495" style="fill:#0b608c;stroke-width:.26458332;fill-opacity:1" transform="translate(-96.044 -122.125)"/>
    <path class="st2" style="fill:#0b608c;stroke-width:.26458332" d="M96.044 122.125h58.888v9.149H96.044z" transform="translate(-96.044 -122.125)"/>
    <path class="st8" d="M994.75 714.85c.75.32 1.53.57 2.35.75.82.18 1.61.27 2.35.27 1.12 0 2.12-.16 3-.48.88-.32 1.57-.81 2.07-1.47.5-.66.76-1.47.76-2.43v-7.92h2.1v8.12c0 1.29-.35 2.38-1.04 3.27-.7.89-1.63 1.56-2.81 2-1.18.44-2.5.66-3.96.66-1.13 0-2.3-.13-3.5-.4-1.2-.27-2.33-.66-3.41-1.18v-12.47h2.1v11.28zm3.95-2.6c.15-.53.22-1.15.22-1.86v-6.83h2.11V710c0 .79-.1 1.48-.29 2.07-.19.59-.49 1.09-.9 1.5l-1.79-.07c.28-.3.5-.72.65-1.25zm20.58-.96 4.35 6h-2.41l-6.12-8.44c-.83.52-1.25 1.41-1.25 2.68v5.76h-2.1v-4.98c0-1.19.2-2.16.61-2.92.4-.76 1.03-1.33 1.88-1.72l-2.97-4.11h2.42l4.25 5.87 3.31-5.87h2.44zm13.29-3.58c0-.75-.22-1.33-.66-1.77-.44-.43-1.04-.65-1.8-.65h-4.61v-1.74h4.68c.94 0 1.75.17 2.44.51.69.34 1.21.83 1.57 1.48.36.65.54 1.42.54 2.32v9.42h-2.16zm6.98.85c.08-.64.26-1.24.54-1.8s.62-1 1-1.3c.03-.02.11-.08.23-.16l-.02-.04c-.35.06-.79.16-1.31.3-.52.14-1 .28-1.44.43l-.5-1.63c.9-.31 1.91-.56 3.03-.76 1.12-.19 2.15-.29 3.09-.29 1.85 0 3.26.49 4.24 1.47.97.98 1.47 2.43 1.47 4.33v8.18h-5.65v-1.74h3.5v-6.69c0-1.22-.28-2.15-.83-2.79-.55-.64-1.35-.96-2.4-.96-.75 0-1.38.29-1.89.87-.51.58-.82 1.37-.93 2.36l-1.04 8.94h-2.13zm28.11.12c0-1.19-.27-2.05-.8-2.58-.54-.53-1.4-.8-2.59-.8h-4.98v-1.74h5.08c1.79 0 3.15.44 4.07 1.3.92.87 1.38 2.16 1.38 3.87v8.55h-2.17v-8.6zm-8.34 3.93c0-.71.05-1.26.16-1.67.1-.41.25-.82.45-1.23h1.77c-.09.36-.16.75-.21 1.19-.05.43-.07.96-.07 1.57v4.82h-2.1zm12.98 4.66.06-1.69c.5.1 1.07.15 1.7.15.64 0 1.11-.18 1.43-.55.32-.37.48-.93.48-1.69v-8.19h-2.69v-1.74h4.86v10.1c0 1.26-.31 2.22-.93 2.87-.62.66-1.52.99-2.68.99-.72 0-1.46-.08-2.23-.25zm10.99-8.71c.08-.64.26-1.24.54-1.8s.62-1 1-1.3c.03-.02.11-.08.23-.16l-.02-.04c-.35.06-.79.16-1.31.3-.52.14-1 .28-1.44.43l-.5-1.63c.9-.31 1.91-.56 3.03-.76 1.12-.19 2.15-.29 3.09-.29 1.85 0 3.26.49 4.24 1.47.97.98 1.47 2.43 1.47 4.33v8.18h-5.65v-1.74h3.5v-6.69c0-1.22-.28-2.15-.83-2.79-.55-.64-1.35-.96-2.4-.96-.75 0-1.38.29-1.89.87-.51.58-.82 1.37-.93 2.36l-1.04 8.94h-2.13zm13.95-3.17-.97-.16v-1.67h6.67l-.01 1.74h-3.54l1.95 11.99h-2.23zm16.67 3.29c0-1.19-.27-2.05-.8-2.58-.54-.53-1.4-.8-2.59-.8h-4.98v-1.74h5.08c1.79 0 3.15.44 4.07 1.3.92.87 1.38 2.16 1.38 3.87v8.55h-2.17v-8.6zm-8.34 3.93c0-.71.05-1.26.16-1.67.1-.41.25-.82.45-1.23h1.77c-.09.36-.16.75-.21 1.19-.05.43-.07.96-.07 1.57v4.82h-2.1zm20.3-9.05h10.95v13.73h-10.95zm8.8 11.98V705.3h-6.64v10.24zm6.38-11.98h5.16c1.82 0 3.17.43 4.07 1.3.89.87 1.34 2.19 1.35 3.96v8.47h-2.16v-8.6c0-1.19-.26-2.05-.77-2.59s-1.34-.8-2.47-.8h-3.03l-.01 11.99h-2.16zm24.15 1.3c.9.87 1.35 2.19 1.35 3.96v8.47h-2.16l-.01-8.6c0-1.19-.25-2.05-.76-2.59s-1.33-.8-2.46-.8h-1.95c-.26.42-.46.96-.61 1.61a9 9 0 0 0-.23 2.02v4.63c0 1.26-.3 2.21-.9 2.87-.6.65-1.47.98-2.61.98-.33 0-.78-.03-1.34-.1v-1.74c.25.03.52.05.8.05.68 0 1.17-.17 1.47-.52.3-.35.46-.9.46-1.66v-4.33c0-.71.09-1.41.28-2.12.19-.71.44-1.26.77-1.68h-2.58v-1.74h6.4c1.83-.01 3.19.43 4.08 1.29zm6.16 3.7c.08-.64.26-1.24.54-1.8s.62-1 1-1.3c.03-.02.11-.08.23-.16l-.02-.04c-.35.06-.79.16-1.31.3-.52.14-1 .28-1.44.43l-.5-1.63c.9-.31 1.91-.56 3.03-.76 1.12-.19 2.15-.29 3.09-.29 1.85 0 3.26.49 4.24 1.47.97.98 1.47 2.43 1.47 4.33v8.18h-5.65v-1.74h3.5v-6.69c0-1.22-.28-2.15-.83-2.79-.55-.64-1.35-.96-2.4-.96-.75 0-1.38.29-1.89.87-.51.58-.82 1.37-.93 2.36l-1.04 8.94h-2.13z" style="fill:#fff" transform="translate(-258.157 -183.568) scale(.26458)"/>
</svg>
