<?xml version="1.0" encoding="UTF-8" standalone="no"?>
<svg
   xmlns:dc="http://purl.org/dc/elements/1.1/"
   xmlns:cc="http://creativecommons.org/ns#"
   xmlns:rdf="http://www.w3.org/1999/02/22-rdf-syntax-ns#"
   xmlns:svg="http://www.w3.org/2000/svg"
   xmlns="http://www.w3.org/2000/svg"
   version="1.1"
   id="svg5189"
   viewBox="0 0 161.5 162.30002"
   height="45.804672mm"
   width="45.578888mm">
  <defs
     id="defs5191" />
  <metadata
     id="metadata5194">
    <rdf:RDF>
      <cc:Work
         rdf:about="">
        <dc:format>image/svg+xml</dc:format>
        <dc:type
           rdf:resource="http://purl.org/dc/dcmitype/StillImage" />
        <dc:title></dc:title>
      </cc:Work>
    </rdf:RDF>
  </metadata>
  <g
     transform="translate(-207.82143,-414.06934)"
     id="layer1">
    <rect
       id="rect475_5_"
       x="207.82143"
       y="414.06934"
       class="st13"
       width="161.5"
       height="49.700001"
       style="fill:#6f4d80" />
    <g
       transform="translate(-2626.2787,333.46935)"
       id="XMLID_647_">
      <path
         id="XMLID_6_"
         class="st5"
         d="m 2843.5,110.2 c 0.8,-0.1 1.3,-0.2 1.7,-0.4 0.4,-0.2 0.6,-0.5 0.8,-0.9 0.1,-0.4 0.2,-0.9 0.2,-1.7 l 0,-11.6 9.1,0 c 1.6,0 2.9,0.5 3.8,1.4 0.9,0.9 1.4,2.3 1.4,4.3 l 0,11.5 -4.3,0 0,-11.8 c 0,-1.5 -0.7,-2.2 -2,-2.2 l -3.5,0 0,7.8 c 0,1.5 -0.2,2.7 -0.7,3.6 -0.5,0.9 -1.2,1.6 -2.1,2 -0.9,0.4 -2.2,0.7 -3.8,0.9 l -0.6,-2.9 z"
         style="fill:#ffffff" />
      <path
         id="XMLID_8_"
         class="st5"
         d="m 2863.7,99.1 -0.4,-3.5 4.3,0 0.4,3.5 0,13.6 -4.3,0 0,-13.6 z"
         style="fill:#ffffff" />
      <path
         id="XMLID_10_"
         class="st5"
         d="m 2882.7,112.7 -5.6,-8.7 -2.7,8.7 -4.1,0 3.3,-10.3 0.9,-2.3 -2.8,-4.5 4.3,0 2.4,3.9 2.2,3.3 0.8,-2.7 1.2,-4.4 4.1,0 -3.6,10.9 4.1,6.2 -4.5,0 z"
         style="fill:#ffffff" />
      <path
         id="XMLID_12_"
         class="st5"
         d="m 2889.3,109.4 4.4,0 0,-8.6 c 0,-0.7 -0.1,-1.2 -0.4,-1.5 -0.3,-0.3 -0.7,-0.5 -1.2,-0.6 l -2.1,-0.3 0.5,-3.2 3.7,0.5 c 1.2,0.2 2.1,0.7 2.8,1.6 0.6,0.9 1,2 1,3.4 l 0,12 -8.7,0 0,-3.3 z"
         style="fill:#ffffff" />
      <path
         id="XMLID_14_"
         class="st5"
         d="m 2907.4,102.3 c 0,-0.8 0.1,-1.4 0.2,-2 0.1,-0.6 0.4,-1.1 0.6,-1.5 l -7.7,0 0,-3.2 14,0 0,3.2 -2.3,0 c -0.4,0.9 -0.6,2 -0.6,3.5 l 0,10.3 -4.3,0 0,-10.3 z"
         style="fill:#ffffff" />
      <path
         id="XMLID_16_"
         class="st5"
         d="m 2929.1,110.4 c -2.3,1.6 -5.7,2.4 -10.1,2.6 l -1.6,-14.1 -0.4,-3.2 9.2,0 c 2,0 3.5,0.6 4.5,1.7 1,1.1 1.6,2.6 1.7,4.6 l 0,1 c 0.1,3.3 -1,5.8 -3.3,7.4 z m -3.1,-2.1 c 0.8,-0.5 1.3,-1.2 1.6,-2.1 0.3,-0.9 0.4,-2 0.4,-3.5 l 0,-0.9 c 0,-0.9 -0.2,-1.6 -0.6,-2.2 -0.4,-0.5 -1,-0.8 -1.7,-0.8 l -4.1,0 1.1,10.3 c 1.5,-0.1 2.6,-0.4 3.3,-0.8 z"
         style="fill:#ffffff" />
      <path
         id="XMLID_21_"
         class="st5"
         d="m 2948.5,101 c 0,-1.5 -0.7,-2.2 -2,-2.2 l -5.8,0 0,-3.2 7,0 c 1.6,0 2.9,0.5 3.8,1.4 0.9,0.9 1.4,2.3 1.4,4.3 l 0,11.5 -4.3,0 0,-11.8 z"
         style="fill:#ffffff" />
      <path
         id="XMLID_23_"
         class="st5"
         d="m 2962.2,102.3 c 0,-0.8 0.1,-1.4 0.2,-2 0.1,-0.6 0.4,-1.1 0.6,-1.5 l -7.7,0 0,-3.2 14,0 0,3.2 -2.3,0 c -0.4,0.9 -0.6,2 -0.6,3.5 l 0,10.3 -4.3,0 0,-10.3 z"
         style="fill:#ffffff" />
      <path
         id="XMLID_25_"
         class="st5"
         d="m 2985.5,97 c 0.9,1 1.4,2.4 1.4,4.3 l 0,11.3 -4.3,0 0,-11.5 c 0,-1.6 -0.7,-2.3 -2,-2.3 l -4,0 0,13.8 -4.3,0 0,-15.1 0,-1.9 9.5,0 c 1.5,0 2.7,0.5 3.7,1.4 z"
         style="fill:#ffffff" />
    </g>
    <path
       id="path819_4_"
       class="st13"
       d="m 256.47143,510.26935 c 0,-17.8 14.3,-32.1 32.1,-32.1 17.6,0 32.1,14.5 32.1,32.1 0,17.6 -32.1,66.1 -32.1,66.1 0,0 -32.1,-48.5 -32.1,-66.1"
       style="fill:#6f4d80" />
  </g>
</svg>
