<?xml version="1.0" encoding="UTF-8" standalone="no"?>
<svg
   xmlns:dc="http://purl.org/dc/elements/1.1/"
   xmlns:cc="http://creativecommons.org/ns#"
   xmlns:rdf="http://www.w3.org/1999/02/22-rdf-syntax-ns#"
   xmlns:svg="http://www.w3.org/2000/svg"
   xmlns="http://www.w3.org/2000/svg"
   width="89.125771mm"
   height="43.603329mm"
   viewBox="0 0 315.79997 154.49998"
   id="svg6097"
   version="1.1">
  <defs
     id="defs6099" />
  <metadata
     id="metadata6102">
    <rdf:RDF>
      <cc:Work
         rdf:about="">
        <dc:format>image/svg+xml</dc:format>
        <dc:type
           rdf:resource="http://purl.org/dc/dcmitype/StillImage" />
        <dc:title></dc:title>
      </cc:Work>
    </rdf:RDF>
  </metadata>
  <g
     id="layer1"
     transform="translate(-224.95715,-475.11221)">
    <g
       id="g6710"
       transform="translate(-34.500035,0)">
      <path
         id="path897_2_"
         class="st13"
         d="m 449.05717,564.3122 c 0,17.4 -31.7,65.3 -31.7,65.3 0,0 -31.7,-47.8 -31.7,-65.3 0,-17.5 14.3,-31.7 31.7,-31.7 17.4,0.1 31.7,14.2 31.7,31.7"
         style="fill:#f8b119;fill-opacity:1" />
      <path
         id="path899_2_"
         class="st8"
         d="m 427.15717,559.8122 0,15 -23.1,0 0,-23.2 15,0 4.5,-4.5 -24.4,0 0,32.6 32.6,0 0,-24.4 -4.6,4.5 z m -16.3,3.3 -1.7,6.5 6.5,-1.7 16.3,-16.3 -4.8,-4.8 -16.3,16.3 0,0 z m 24.4,-19.9 c 1.2,1.2 1.2,3.7 0,4.8 l -1.7,1.7 -4.8,-4.8 1.7,-1.7 c 1.2,-1.2 3.5,-1.2 4.8,0"
         style="opacity:1;fill:#ffffff;enable-background:new" />
    </g>
    <rect
       style="fill:#6f4d80"
       height="52.799999"
       width="315.79999"
       class="st13"
       y="475.11221"
       x="224.95715"
       id="rect901_4_" />
    <g
       id="XMLID_2147_"
       transform="translate(-1391.7428,-1400.3876)">
      <g
         id="XMLID_970_">
        <path
           style="fill:#bbbade"
           d="m 1650.3,1911.7 c 1.2,-0.2 2,-0.3 2.5,-0.7 0.5,-0.4 1,-0.8 1.2,-1.3 0.2,-0.7 0.3,-1.5 0.3,-2.5 l 0,-17.6 13.6,0 c 2.3,0 4.3,0.7 5.6,2 1.3,1.3 2,3.5 2,6.5 l 0,17.3 -6.5,0 0,-17.6 c 0,-2.2 -1,-3.3 -3,-3.3 l -5.3,0 0,11.8 c 0,2.3 -0.3,4.2 -1,5.5 -0.7,1.3 -1.8,2.3 -3.2,3 -1.5,0.7 -3.3,1.2 -5.8,1.3 l -0.4,-4.4 z"
           class="st1"
           id="XMLID_992_" />
        <path
           style="fill:#bbbade"
           d="m 1682,1894.9 -0.5,-5.3 6.5,0 0.5,5.3 0,20.4 -6.5,0 0,-20.4 z"
           class="st1"
           id="XMLID_991_" />
        <path
           style="fill:#bbbade"
           d="m 1716.4,1912.3 c -2,2.3 -4.7,3.7 -8.1,3.7 -1.3,0 -2.7,-0.2 -4.2,-0.5 l 0.7,-4.8 c 1.2,0.2 2,0.3 2.8,0.3 2,0 3.5,-0.7 4.3,-2 0.8,-1.3 1.3,-3.3 1.3,-6.1 0,-3 -0.3,-5.1 -1.2,-6.5 -0.8,-1.3 -2.2,-2 -3.8,-2 -1.2,0 -2.2,0.3 -3,1.2 -0.8,0.9 -1.3,1.7 -1.5,3 l -2.8,17.1 -6.5,0 3.2,-17.4 -3.7,-8.5 6.8,0 1.8,5.1 c 0.7,-1.8 1.7,-3.3 2.8,-4.2 1.3,-1 2.7,-1.3 4.3,-1.3 3.2,0 5.6,1.2 7.3,3.3 1.7,2.2 2.5,5.5 2.5,10 -0.2,4 -1.2,7.3 -3,9.6 z"
           class="st1"
           id="XMLID_990_" />
        <path
           style="fill:#bbbade"
           d="m 1722.9,1911.7 c 1.2,-0.2 2,-0.3 2.5,-0.7 0.5,-0.3 1,-0.8 1.2,-1.3 0.2,-0.7 0.3,-1.5 0.3,-2.5 l 0,-17.6 13.6,0 c 2.3,0 4.3,0.7 5.6,2 1.3,1.3 2,3.5 2,6.5 l 0,17.3 -6.5,0 0,-17.6 c 0,-2.2 -1,-3.3 -3,-3.3 l -5.3,0 0,11.8 c 0,2.3 -0.3,4.2 -1,5.5 -0.7,1.3 -1.8,2.3 -3.2,3 -1.5,0.7 -3.3,1.2 -5.8,1.3 l -0.4,-4.4 z"
           class="st1"
           id="XMLID_989_" />
        <path
           style="fill:#bbbade"
           d="m 1774.3,1891.7 c 1.3,1.5 2.2,3.7 2.2,6.5 l 0,17.1 -6.5,0 0,-17.4 c 0,-2.3 -1,-3.5 -3,-3.5 l -6,0 0,20.9 -6.5,0 0,-22.8 0,-3 14.3,0 c 2.2,0.1 4.1,0.9 5.5,2.2 z"
           class="st1"
           id="XMLID_988_" />
        <path
           style="fill:#bbbade"
           d="m 1782,1903 0.8,-3 5.6,0 0,15.3 -6.5,0 0,-12.3 z m 15.1,-5.3 c 0,-2.2 -1,-3.3 -3,-3.3 l -11.8,0 0,-4.8 13.5,0 c 2.3,0 4.3,0.7 5.6,2 1.3,1.3 2.2,3.5 2.2,6.5 l 0,17.3 -6.5,0 0,-17.7 z"
           class="st1"
           id="XMLID_985_" />
        <path
           style="fill:#bbbade"
           d="m 1830,1897.7 c 0,-2.2 -1,-3.3 -3,-3.3 l -8.8,0 0,-4.8 10.6,0 c 2.3,0 4.3,0.7 5.6,2 1.3,1.3 2.2,3.5 2.2,6.5 l 0,17.3 -6.5,0 0,-17.6 -0.1,0 z"
           class="st1"
           id="XMLID_984_" />
        <path
           style="fill:#bbbade"
           d="m 1843,1894.9 -0.5,-5.3 6.5,0 0.5,5.3 0,20.4 -6.5,0 0,-20.4 z"
           class="st1"
           id="XMLID_973_" />
        <path
           style="fill:#bbbade"
           d="m 1857.6,1899.7 c 0,-1.2 0.2,-2.2 0.3,-3.2 0.2,-1 0.5,-1.7 1,-2.2 l -4,0 0,-4.8 13.5,0 0,4.8 -3.3,0 c -0.3,0.7 -0.5,1.5 -0.7,2.3 -0.2,0.8 -0.2,1.8 -0.2,3 l 0,15.6 -6.5,0 0,-15.6 -0.1,0 z"
           class="st1"
           id="XMLID_972_" />
        <path
           style="fill:#bbbade"
           d="m 1890.6,1915.3 -8.5,-13.1 -4,13.1 -6.1,0 5,-15.4 1.3,-3.5 -4.2,-6.8 6.5,0 3.7,5.8 3.3,5 1.2,-4.2 1.8,-6.6 6.1,0 -5.5,16.4 6.1,9.3 -6.7,0 0,0 z"
           class="st1"
           id="XMLID_971_" />
      </g>
    </g>
  </g>
</svg>
