<svg version="1.1" id="Capa_1" x="0" y="0" viewBox="0 0 1637 834" xml:space="preserve" width="1637" height="834" xmlns:xlink="http://www.w3.org/1999/xlink" xmlns="http://www.w3.org/2000/svg">
    <style type="text/css" id="style2">
        .st1{clip-path:url(#SVGID_1_)}.st4{opacity:1;enable-background:new}.st4,.st5{fill:#51dfc3;stroke:#ffc;stroke-width:1.275;stroke-miterlimit:10}.st11,.st9{fill:#ffc;enable-background:new}.st9{stroke:#231f20;stroke-width:.425;stroke-miterlimit:10}.st11{opacity:1}.st13{fill:#fff}.st14,.st15{clip-path:url(#SVGID_7_);fill:#ffc;enable-background:new}.st15{clip-path:url(#SVGID_9_)}.st16{clip-path:url(#SVGID_10_)}.st22{opacity:1;fill:#6786cd;stroke:#ffc;stroke-width:1.275;stroke-miterlimit:10;enable-background:new}
    </style>
    <path id="polygon748" style="fill:#9ae3d5" d="m1443 202.6-99.4 49.3-181.9-97.6 75.9-48.3z"/>
    <g id="g762" transform="translate(-829.6 -338.8)">
        <g id="g760" style="enable-background:new">
            <defs id="defs751">
                <path id="SVGID_3_" style="enable-background:new" d="m1399 973.2 182.7 91.6-152.4 88-182.7-91.6z"/>
            </defs>
            <clipPath id="SVGID_11_">
                <use xlink:href="#SVGID_3_" style="overflow:visible" id="use753" x="0" y="0" width="100%" height="100%"/>
            </clipPath>
            <g clip-path="url(#SVGID_11_)" id="g758">
                <path id="polyline756" style="fill:#c82742" d="m1399 973.2-152.4 88 182.7 91.6 152.4-88-182.7-91.6"/>
            </g>
        </g>
    </g>
    <path id="polygon3_3_" style="fill:#9ae3d5" d="m779.8 737.5-252.2-117 113.9-80.3L383.4 414l-130.3 67.9L51.9 361.3l450.6-211.5 313.7 137.1 110.5-65.7 99-47.2-54.3-26.3 102.5-49.2 333 142.8 45.6-13 159.7 81.1-79.1 40.6-84.4-38.5-332.1 170.4L999.9 622l36.7 31.7-69.3 49.4 58.4 42.1L911.3 803l-148.2-61.3Z"/>
    <path id="polygon273_6_" style="fill:#ffc;enable-background:new" d="m410.3 273.8-37.8-19.3v27l37.8 21.9z"/>
    <path id="polygon281_2_" style="fill:#ffc;enable-background:new" d="m372.5 281.5 1.3-39.4L215.5 319l-.2 38.4z"/>
    <path id="polygon9_3_" style="fill:#ffc;enable-background:new" d="m1306.2 234.2-247.7-109.6v32.6l247.7 108.1z"/>
    <path id="polygon19_3_" style="fill:#ffc;enable-background:new" d="m509.6 153.9 306.6 134.2v-29.6L508.4 125.3Z"/>
    <path id="polygon5_3_" style="fill:#3d256e" d="m553.3 324.1-101 60.4-99.6-48.2 98.8-59.9z"/>
    <path id="polygon17_3_" style="fill:#ffc;enable-background:new" d="m553.4 290.9-101.9-45v30.5l101.9 47.7z"/>
    <path id="polygon23_3_" style="fill:#ffc;enable-background:new" d="M553.6 323.8v-33.4L458.1 355v32.3z"/>
    <path id="polygon31_3_" style="fill:#ffc;enable-background:new" d="M253.1 442.8 51.9 323.7v37.6l201.2 120.6z"/>
    <path id="polygon35_3_" style="fill:#ffc;enable-background:new" d="M641.5 540.2 383.4 414v-33.4l257.7 128z"/>
    <path id="path45_3_" d="m701.2 701.1 78.8 36.5 11.3-21.6-90.1-42.7ZM602.9 627l-75.3-35.5v29.1l75.3 34.9z" style="fill:#ffc;enable-background:new"/>
    <path id="polygon49_3_" style="fill:#ffc;enable-background:new" d="m1036.6 730.8-89.7-40.6.8 25.4 88.9 42.9z"/>
    <path id="polygon53_3_" style="fill:#ffc;enable-background:new" d="M1052.8 637.1 991.6 606l.5 31.7 60.7 30.8z"/>
    <path id="polygon57_3_" style="fill:#ffc;enable-background:new" d="m1627 295.3-176-89.5v22.8l156.7 80z"/>
    <path id="polygon59_3_" style="fill:#ffc;enable-background:new" d="m1533.1 337.8-72.6-36.1v26.6l72.6 37.1z"/>
    <path id="polygon69_3_" style="fill:#ffc;enable-background:new" d="m641.5 540.2-.4-31.6-113.5 82.9 25.2 11.3z"/>
    <path id="polygon71_3_" style="fill:#ffc;enable-background:new" d="M828.6 714.8v-27.9l-72 36.7v28.1z"/>
    <path id="polygon77_3_" style="fill:#ffc;enable-background:new" d="m896.7 793.5-140.1-69.3v27.3L896.7 824Z"/>
    <path id="polygon81_3_" style="fill:#ffc;enable-background:new" d="M896.7 824v-30.5l139.9-62.7v27.7z"/>
    <path id="polygon85_3_" style="fill:#ffc;enable-background:new" d="m975.3 703.1-28.8-12.9 106.3-53.1v31.4z"/>
    <path id="polygon89_3_" style="fill:#ffc;enable-background:new" d="M1012 616.3 991.6 606l133.6-149.9 335.3-155.3v26.7l-324.4 157.9z"/>
    <path id="polygon91_3_" style="fill:#ffc;enable-background:new" d="m1005.5 498.3-1-34.6 56.7-42.9 305.1-142.4v27.2l-294.4 144.3z"/>
    <path id="polygon97_3_" style="fill:#ffc;enable-background:new" d="M1532.5 365.4v-27.5l93.3-44.1v27.8z"/>
    <path id="polygon101_3_" style="fill:#ffc;enable-background:new" d="M1426.2 242.2v-26.7l-16.9 8.4v26z"/>
    <path id="polygon105_3_" style="fill:#ffc;enable-background:new" d="m903.9 199.3 118.8-53.6 3 32.5-110.8 54.3-98.7 54.4v-28.4z"/>
    <path id="polygon107_3_" style="fill:#ffc;enable-background:new" d="m509.6 153.9-1.2-25.2-456.5 195 35.7 21.5z"/>
    <path id="polygon113_3_" style="fill:#ffc;enable-background:new" d="M383.4 414v-33.4l-130.3 62.2v39.1z"/>
    <path id="polygon123_3_" style="fill:#ffc;enable-background:new" d="m824.7 448.1 1.1-28.5-30.8-18.9-116.7 62.8V494L795 431.2Z"/>
    <path id="polygon153_3_" style="fill:none;stroke:#3d256e;stroke-width:.408" d="m990 330.5-170.2-75.9-71.2 33.5 172.1 72z"/>
    <g id="g804" transform="translate(-829.6 -338.8)">
        <path id="polygon127_3_" style="fill:#6786cd;stroke:#ffc;stroke-width:1.275;stroke-miterlimit:10" d="m1888.7 662.4-165.4-75.3-18 8.9 168 74.2z"/>
        <path id="path141_3_" d="m1691.6 597.6 166.6 72.5 13.3-6.8-164.2-73.7z" style="fill:#6786cd;stroke:#ffc;stroke-width:1.275;stroke-miterlimit:10"/>
        <path id="polygon143_3_" style="fill:#6786cd;stroke:#ffc;stroke-width:1.275;stroke-miterlimit:10" d="m1854.2 664.9-165.3-73.5-15.2 6.8 165.3 73.3z"/>
        <path id="polygon147_7_" style="fill:#6786cd;stroke:#ffc;stroke-width:1.275;stroke-miterlimit:10" d="m1837.5 666.4-167.7-74.2-16.9 8 167.6 73z"/>
        <path id="polygon151_3_" style="fill:#6786cd;stroke:#ffc;stroke-width:1.275;stroke-miterlimit:10" d="m1819.6 669.3-170.2-75.9-71.2 33.5 172.1 72z"/>
        <path id="polygon155_3_" style="fill:#6786cd;stroke:#ffc;stroke-width:1.275;stroke-miterlimit:10" d="m1755.3 691.3-167.9-74.7-13.3 5.3 167.6 75.3z"/>
        <path id="polygon161_3_" style="fill:#6786cd;stroke:#ffc;stroke-width:1.275;stroke-miterlimit:10" d="M1736.1 693.9 1565.2 616l-14.8 7.4 173.1 75.9z"/>
        <path id="polygon165_3_" style="fill:#6786cd;stroke:#ffc;stroke-width:1.275;stroke-miterlimit:10" d="m1716.6 695.3-169.9-77.6-18 4.8 173.7 77.9z"/>
        <path id="polygon167_3_" style="fill:#6786cd;stroke:#ffc;stroke-width:1.275;stroke-miterlimit:10" d="m1698.9 694.7-169.4-74.6-19.5 6.8 174.1 75.1z"/>
        <path id="polygon171_3_" style="fill:#6786cd;stroke:#ffc;stroke-width:1.275;stroke-miterlimit:10" d="M1681.1 696.6 1502.5 616l-16.2 7.6 178.5 80.8z"/>
    </g>
    <path id="polygon175_3_" style="fill:#ffc;enable-background:new" d="m990 321.3-70.4 30.2-100.5 7L818 454l243.8-130.8z"/>
    <path id="polygon243_3_" style="fill:#3d256e" d="M423.6 94.4 209 175.1 391.8 272l206-104.1Z"/>
    <path id="polygon255_3_" style="fill:#ffc;enable-background:new" d="M422.8 95V65.7L209 143.3v32.1z"/>
    <path id="polygon259_3_" style="fill:#ffc;enable-background:new" d="m597.8 137-175-71.7V95l142.8 58.1z"/>
    <path id="polygon263_3_" style="fill:#ffc;enable-background:new" d="m429.1 125.1-73.8-33.7v28.5l73.3 35z"/>
    <path id="polygon267_3_" style="fill:#ffc;enable-background:new" d="m391.8 272 .1-29.2L597.8 137v30.9z"/>
    <path id="polygon273_5_" style="fill:#ffc;enable-background:new" d="m344.5 166.2-82.5-41-1.7 29 84.2 41.6z"/>
    <path id="polygon813" style="fill:#ffc;enable-background:new" d="M451.5 276.4v-30.5l-98.8 57.2v33.2z"/>
    <path id="polygon815" style="fill:#ffc;enable-background:new" d="M367.3 184.6V163l14.2-7.3v22l47.1-22.8.5-29.8-84.6 41.1v29.6z"/>
    <g id="g860" transform="translate(-829.6 -338.8)">
        <g id="g858" style="enable-background:new">
            <defs id="defs841">
                <path id="SVGID_2_" style="enable-background:new" d="m1518.2 1069-36.8 21.4-128.1-74 36.8-21.4z"/>
            </defs>
            <clipPath id="SVGID_12_">
                <use xlink:href="#SVGID_2_" style="overflow:visible" id="use843" x="0" y="0" width="100%" height="100%"/>
            </clipPath>
            <g clip-path="url(#SVGID_12_)" id="g856">
                <path d="m1378.6 1010.5-5.6-3c-1.3.2-2.5.5-3.8.9-1.2.4-2.7 1.1-4.4 2.2l-10.2 6.5 6.8 3.6 10.8-6.9c2.4-1.4 4.5-2.5 6.4-3.3m20.3-4.7c-.3-.2-.7-.4-1-.6l-13.2-7-5 3.2 12.8 6.8.6.3c1.9 1.1 2.9 2.2 3 3.2.1 1.2-.8 2.4-2.8 3.7l-19.1 12.1 7 3.7 18.8-11.9c3.6-2.3 5.2-4.6 4.8-7-.4-2.3-2.4-4.4-5.9-6.5" id="path846" style="fill:#ffc"/>
                <path d="M1408 1039.9c-1.3-.7-2.1-1.6-2.4-2.5-.4-1-.2-2.1.4-3.3.7-1.1 1.9-2.3 3.6-3.3l2.8-1.8c3-1.8 5.9-2.9 8.8-3.3 2.9-.4 5.4.1 7.7 1.2.1.1.3.2.4.2 2.1 1.2 3 2.6 2.8 4.2-.2 1.7-1.7 3.4-4.5 5.2l-3.2 2c-1.7 1.1-3.5 1.9-5.4 2.3-1.9.5-3.8.7-5.6.5-1.8-.1-3.5-.6-4.9-1.4-.3.1-.4.1-.5 0m26.3-16.1c-.4-.2-.7-.4-1.1-.6-2.4-1.3-5.2-2.6-8.4-3.8-3.2-1.3-6.2-2.3-9-3.1l-3.3 3.7c1 .3 2.1.6 3.3 1l2.7.9-.1.1h-.7c-1.2 0-2.6.1-4.2.4-1.6.3-3.1.7-4.7 1.3-1.5.6-2.8 1.2-3.9 1.9l-2.4 1.5c-2.7 1.8-4.5 3.6-5.4 5.6-.9 2-.8 3.9.2 5.8.9 1.7 2.5 3.2 4.9 4.6.3.1.5.3.8.4 2.8 1.5 5.9 2.5 9.2 2.9 3.3.4 6.6.3 9.9-.4 3.3-.7 6.3-1.9 9.1-3.7l3.2-2.1c3-1.9 4.9-3.8 5.8-5.8.9-2 .7-3.9-.5-5.8-.9-1.7-2.8-3.3-5.4-4.8" id="path848" style="fill:#ffc"/>
                <path id="polyline850" style="fill:#ffc" d="m1465.3 1041-12.5-6.7-5 3.2 5.5 2.9-11.9 7.6 7.1 3.7 16.8-10.7"/>
                <path d="m1486.5 1052.2-13.1-6.9-5 3.2 6.1 3.2-15.9 10.1c-1.5.9-2.9 1.5-4.3 1.5-1.4.1-2.8-.2-4.1-1-.4-.2-.8-.5-1.2-.7-.9-.5-1.8-1.1-2.5-1.6l-4.9 3c.9.7 1.7 1.3 2.5 1.9.5.3 1 .7 1.6 1 .3.2.7.4 1.1.6 3 1.6 6.1 2.3 9.3 2.2 3.2-.1 6.2-1.1 9.1-2.9l21.3-13.6" id="path852" style="fill:#ffc"/>
                <path d="m1517.4 1068.5-22.9-12.1-5 3.2 15.9 8.4-13.2 8.4c-2.3 1.5-4.8 2.2-7.4 2.2-2.6 0-5.3-.7-8.2-2.2-.3-.2-.6-.3-1-.5-1.9-1.1-3.8-2.4-5.6-4.1l-5.8 2.4c2.3 2 4.6 3.7 7 5.1.4.2.8.5 1.2.7 4.6 2.4 9.3 3.7 14.1 3.6 4.8 0 9.4-1.5 13.9-4.3l17-10.8" id="path854" style="fill:#ffc"/>
            </g>
        </g>
    </g>
    <g id="g884" transform="translate(-829.6 -338.8)">
        <g id="g878">
            <path id="polygon185_5_" style="fill:#6786cd;stroke:#ffc;stroke-width:1.275;stroke-miterlimit:10" d="m1042.7 558.2 12.6-5.4 56.4 28.5-10 4.5z"/>
            <path id="polygon189_5_" style="fill:#6786cd;stroke:#ffc;stroke-width:1.275;stroke-miterlimit:10" d="M1054.5 553.2v-13.9l58.5 29.2-1.3 12.8z"/>
            <path id="polygon193_5_" style="fill:#6786cd;stroke:#ffc;stroke-width:1.275;stroke-miterlimit:10" d="m1055.3 538.4 16-6.8 56.4 29-14.7 7.9z"/>
            <path id="polygon201_5_" style="fill:#6786cd;stroke:#ffc;stroke-width:1.275;stroke-miterlimit:10" d="m984.9 632.2 16.6-8 57.2 29.1-13.3 6.8z"/>
            <path id="polygon213_5_" style="fill:#6786cd;stroke:#ffc;stroke-width:1.275;stroke-miterlimit:10" d="m1012.4 607.4.6-11.5 57.2 28.1v12.4z"/>
            <path id="polygon221_5_" style="fill:#6786cd;stroke:#ffc;stroke-width:1.275;stroke-miterlimit:10" d="m968.9 650.3 16-5.9 56.2 26.4-12.1 7.1z"/>
            <path id="polygon225_5_" style="fill:#6786cd;stroke:#ffc;stroke-width:1.275;stroke-miterlimit:10" d="M984.9 644.4v-12.2l56.2 24.6v14z"/>
            <path id="polygon229_5_" style="fill:#6786cd;stroke:#ffc;stroke-width:1.275;stroke-miterlimit:10" d="m1013 596.1 16-6.5 55.8 27.8-14.3 6.8z"/>
            <path id="polygon233_5_" style="fill:#6786cd;stroke:#ffc;stroke-width:1.275;stroke-miterlimit:10" d="M1026.9 591.1v-13l58.1 26.3v13.7z"/>
            <path id="polygon237_5_" style="fill:#6786cd;stroke:#ffc;stroke-width:1.275;stroke-miterlimit:10" d="m1026.9 578.1 16-6 55.4 26.1-13.3 6.5z"/>
        </g>
        <path id="polygon181_5_" style="fill:#6786cd;stroke:#ffc;stroke-width:1.275;stroke-miterlimit:10" d="m1042.9 572.1-.2-13.9 58.5 28.1-.8 12.2z"/>
        <path id="polygon205_5_" style="fill:#6786cd;stroke:#ffc;stroke-width:1.275;stroke-miterlimit:10" d="M996.4 626.7v-13.4l62.3 29v11.6z"/>
        <path id="polygon209_5_" style="fill:#6786cd;stroke:#ffc;stroke-width:1.275;stroke-miterlimit:10" d="m996.4 613.3 16-5.9 57.8 29-11.3 5.7z"/>
        <path id="polygon217_5_" style="fill:#6786cd;stroke:#ffc;stroke-width:1.275;stroke-miterlimit:10" d="M968.9 663.4v-13.1l60.1 27.6-2.1 12.8z"/>
    </g>
    <path id="polygon886" style="fill:#ffc;enable-background:new" d="M421.8 178.3v-20.9l14.6 7.9v20.6l63 32.8v-30.4l-97.6-49.9v29.4z"/>
    <path id="polygon888" style="fill:#ffc;enable-background:new" d="M517.1 415.9 678.4 494v-30.5L352.7 303.1v33.2l38.7 18.7v-25.2l15.1 7.2v25.3l95.6 46.3z"/>
    <path id="polygon890" style="fill:#ffc" d="m1175.8 146.8 61.8-34V85.7l-61.8 34.1z"/>
    <path id="polygon892" style="fill:#ffc" d="m1447.5 205.4-209.9-92.6V85.7l210.8 93.2z"/>
    <path id="polygon894" style="fill:#ffc" d="M1315 208.5v-27.2l61.2-36.2-.9 27.3z"/>
    <path id="polygon896" style="fill:#ffc" d="M1240.3 176.1V149l62-36.3v26.5z"/>
    <path id="rect901" style="fill:none" d="M10 78.7h182.9v57.4H10Z"/>
    <path id="rect323_6_" style="fill:#a22442" d="M56.4 71.8h90.1v38.5H56.4Z"/>
    <path id="rect323_5_" style="fill:#a22442" d="M40.2 101.3h122.6v38.5H40.2Z"/>
    <g id="g985" transform="translate(-829.6 -338.8)">
        <path d="M907.2 425.8c0-.7-.2-1.2-.6-1.5-.4-.3-.9-.5-1.7-.5h-4.6v-3.3h5c1.3 0 2.4.2 3.3.7.9.4 1.6 1.1 2.1 1.9.5.8.7 1.8.7 3v10h-4.2z" id="path965" style="fill:#fffffd"/>
        <path d="M927.3 432.9v3.2h-13.5v-3.3h7.4V426c0-1.5-.8-2.2-2.4-2.2h-4.2v-3.3h4.5c1.3 0 2.4.2 3.4.7.9.4 1.7 1.1 2.2 1.9.5.8.7 1.9.7 3.1v6.5z" id="path967" style="fill:#fffffd"/>
        <path d="M942.4 420.4v8.9c0 1.5-.3 2.8-1 3.9-.6 1.1-1.5 1.9-2.7 2.4-1.2.5-2.5.8-4 .8-2.1 0-4.2-.4-6.2-1.2l.9-3.1c1.2.5 2.4.8 3.5 1-.3-.3-.6-.6-.8-1-.2-.4-.4-.8-.5-1.2l-2.4-10.5h4.2l2.3 11c.1.6.3 1.1.5 1.5.6-.3 1.1-.7 1.5-1.3.4-.6.5-1.2.5-2.1v-9.1z" id="path969" style="fill:#fffffd"/>
        <path d="M947.4 427.4c.1-.7.2-1.4.5-2 .3-.6.6-1.1.9-1.5l.2-.2v-.1c-.3.1-.7.2-1.2.3-.5.1-.9.3-1.2.4l-.9-3.1c1-.4 2.2-.7 3.5-.9 1.4-.2 2.6-.3 3.9-.3 2.4 0 4.2.6 5.5 1.8 1.2 1.2 1.9 3 1.9 5.4v8.8h-6.9v-3.3h2.6v-6.1c0-1-.2-1.8-.6-2.4-.4-.6-1-.8-1.7-.8-1.4 0-2.2 1.1-2.4 3.3l-.9 9.2h-4.2z" id="path971" style="fill:#fffffd"/>
        <path d="M883.8 468v-2.8l6.1-6.4c.8-.9 1.4-1.7 1.8-2.4.4-.7.5-1.3.5-1.8 0-.8-.2-1.5-.6-1.9-.4-.4-1-.7-1.7-.7-.5 0-1 .1-1.3.4-.4.3-.7.6-.9 1.1-.2.5-.3 1-.3 1.6h-4.1c0-1.2.3-2.2.8-3.2s1.3-1.7 2.4-2.3c1-.6 2.2-.8 3.5-.8 1.3 0 2.5.2 3.4.6.9.4 1.6 1.1 2.1 1.9.5.8.7 1.8.7 2.9 0 .8-.2 1.6-.5 2.4-.3.8-.8 1.5-1.4 2.3-.6.8-1.4 1.7-2.4 2.7l-2.9 3h7.8v3.3h-13z" id="path973" style="fill:#fffffd"/>
        <path d="M906.4 462.6c0-1.6.3-2.7.9-3.4h3.4c-.2.8-.2 1.7-.2 2.9v5.8h-4.1zm8.9-4.7c0-1.5-.8-2.2-2.4-2.2h-6.5v-3.3h6.8c1.3 0 2.4.2 3.4.7.9.4 1.7 1.1 2.1 1.9.5.9.7 1.9.7 3.1v9.9h-4.2v-10.1z" id="path975" style="fill:#fffffd"/>
        <path d="M924.2 459.3c.1-.7.2-1.4.5-2 .3-.6.6-1.1.9-1.5l.2-.2v-.1c-.3.1-.7.2-1.2.3-.5.1-.9.3-1.2.4l-.9-3.1c1-.4 2.2-.7 3.5-.9 1.4-.2 2.6-.3 3.9-.3 2.4 0 4.2.6 5.5 1.8 1.2 1.2 1.9 3 1.9 5.4v8.8h-6.9v-3.3h2.6v-6.1c0-1-.2-1.8-.6-2.4-.4-.6-1-.8-1.7-.8-1.4 0-2.2 1.1-2.4 3.3l-.9 9.2h-4.2z" id="path977" style="fill:#fffffd"/>
        <path d="M941.3 455.6H940v-3.3h5.6V468h-4.2v-12.4z" id="path979" style="fill:#fffffd"/>
        <path d="M955.4 464.8c1.1 0 1.9-.4 2.5-1 .6-.6.9-1.5.9-2.7v-5.5h-9v-3.3H963v8.7c0 1.4-.3 2.7-.9 3.7-.6 1-1.5 1.8-2.6 2.3-1.1.5-2.5.8-4.1.9zm-5.6-2.3c0-.9.1-1.7.3-2.2.2-.5.4-.9.7-1.2h3.4c-.2.7-.2 1.7-.2 2.9v11.3h-4.1v-10.8z" id="path981" style="fill:#fffffd"/>
        <path d="m978.7 455.1-5.1 12.9h-4.5l5.1-12.3h-8.3V448h4.2v4.4h8.6z" id="path983" style="fill:#fffffd"/>
    </g>
    <path id="polygon1259" style="fill:#ffc" d="M1385.3 238.8v-23.6l61.2-36.3-.9 27.4z"/>
    <g id="g1350" transform="translate(-829.6 -338.8)">
        <g id="g1338">
            <defs id="defs1333">
                <path id="SVGID_21_" d="M1402.8 663.8h36.8V689h-36.8z"/>
            </defs>
            <clipPath id="SVGID_22_">
                <use xlink:href="#SVGID_21_" style="overflow:visible" id="use1335" x="0" y="0" width="100%" height="100%"/>
            </clipPath>
        </g>
        <g id="g1348">
            <defs id="defs1341">
                <path id="SVGID_23_" d="M1402.8 663.8h36.8V689h-36.8z"/>
            </defs>
            <clipPath id="SVGID_24_">
                <use xlink:href="#SVGID_23_" style="overflow:visible" id="use1343" x="0" y="0" width="100%" height="100%"/>
            </clipPath>
        </g>
    </g>
    <path id="polygon1421" style="fill:#ffc;enable-background:new" d="M1343.5 221v-20.1l13.7 5.6V227l52.1 22.9v-26.6L1124 96.5v28.1l73.4 32.2V136l13.7 5.7v21.2l57.9 25.4v-21.1l13.8 5.7v21.4z"/>
</svg>
