<?xml version="1.0" encoding="UTF-8" standalone="no"?>
<svg
   xmlns:dc="http://purl.org/dc/elements/1.1/"
   xmlns:cc="http://creativecommons.org/ns#"
   xmlns:rdf="http://www.w3.org/1999/02/22-rdf-syntax-ns#"
   xmlns:svg="http://www.w3.org/2000/svg"
   xmlns="http://www.w3.org/2000/svg"
   xmlns:xlink="http://www.w3.org/1999/xlink"
   version="1.1"
   x="0px"
   y="0px"
   viewBox="0 0 192.9 139.00003"
   xml:space="preserve"
   id="svg2"
   width="192.89999"
   height="139.00003"><metadata
     id="metadata1012"><rdf:RDF><cc:Work
         rdf:about=""><dc:format>image/svg+xml</dc:format><dc:type
           rdf:resource="http://purl.org/dc/dcmitype/StillImage" /><dc:title></dc:title></cc:Work></rdf:RDF></metadata><defs
     id="defs1010"><defs
       id="defs978"><rect
         id="SVGID_79_"
         x="-128.60001"
         y="136.39999"
         width="1105.5"
         height="1672.2" /></defs><clipPath
       id="SVGID_80_"><use
         xlink:href="#SVGID_79_"
         style="overflow:visible"
         id="use982"
         x="0"
         y="0"
         width="100%"
         height="100%" /></clipPath></defs><style
     type="text/css"
     id="style4">
	.st0{display:none;}
	.st1{display:inline;fill:#B5B0C1;}
	.st2{display:inline;fill:#FFFFFF;}
	.st3{display:inline;fill:none;stroke:#141032;stroke-width:0.25;}
	.st4{display:inline;fill:#43255C;}
	.st5{display:inline;}
	.st6{clip-path:url(#SVGID_2_);fill:none;stroke:#141032;stroke-width:0.25;}
	.st7{display:inline;fill:none;stroke:#141032;stroke-width:0.5;}
	.st8{display:inline;fill:#99AC64;}
	.st9{clip-path:url(#SVGID_4_);fill:none;stroke:#141032;stroke-width:0.25;}
	.st10{clip-path:url(#SVGID_6_);fill:#43255C;}
	.st11{clip-path:url(#SVGID_8_);fill:#FBB65A;}
	.st12{clip-path:url(#SVGID_8_);fill:none;stroke:#141032;stroke-width:0.5;stroke-miterlimit:10;}
	.st13{display:inline;fill:#F7D685;}
	.st14{clip-path:url(#SVGID_10_);fill:#141032;}
	.st15{display:inline;fill:#141032;}
	.st16{display:inline;fill:none;stroke:#231F20;stroke-width:0.25;}
	.st17{clip-path:url(#SVGID_12_);fill:#141032;}
	.st18{clip-path:url(#SVGID_12_);fill:#FFFFFF;}
	.st19{clip-path:url(#SVGID_14_);fill:#141032;}
	.st20{clip-path:url(#SVGID_14_);fill:#FFFFFF;}
	.st21{display:inline;fill:#D81278;}
	.st22{clip-path:url(#SVGID_16_);fill:#141032;}
	.st23{clip-path:url(#SVGID_18_);fill:#141032;}
	.st24{clip-path:url(#SVGID_18_);fill:#FFFFFF;}
	.st25{clip-path:url(#SVGID_20_);fill:#141032;}
	.st26{clip-path:url(#SVGID_22_);fill:#141032;}
	.st27{clip-path:url(#SVGID_24_);fill:#FFFFFF;}
	.st28{clip-path:url(#SVGID_26_);fill:#FFFFFF;}
	.st29{clip-path:url(#SVGID_28_);fill:#141032;}
	.st30{clip-path:url(#SVGID_30_);fill:#141032;}
	.st31{clip-path:url(#SVGID_32_);fill:#FFFFFF;}
	.st32{clip-path:url(#SVGID_34_);fill:#FFFFFF;}
	.st33{display:inline;fill:#8ACDAB;}
	.st34{clip-path:url(#SVGID_36_);fill:#141032;}
	.st35{clip-path:url(#SVGID_38_);fill:#FFFFFF;}
	.st36{fill:#B5B0C1;}
	.st37{fill:#2BC0D6;}
	.st38{fill:#FFFFFF;}
	.st39{fill:none;stroke:#141032;stroke-width:0.25;}
	.st40{clip-path:url(#SVGID_40_);fill:none;stroke:#141032;stroke-width:0.25;}
	.st41{clip-path:url(#SVGID_42_);fill:none;stroke:#141032;stroke-width:0.25;}
	.st42{clip-path:url(#SVGID_44_);fill:none;stroke:#141032;stroke-width:0.25;}
	.st43{clip-path:url(#SVGID_46_);fill:none;stroke:#141032;stroke-width:0.25;}
	.st44{fill:none;stroke:#141032;stroke-width:0.5;}
	.st45{clip-path:url(#SVGID_48_);fill:#FFFFFF;}
	.st46{clip-path:url(#SVGID_48_);fill:none;stroke:#141032;stroke-width:0.5;}
	.st47{clip-path:url(#SVGID_50_);fill:#2BC0D6;}
	.st48{fill:#F7D685;}
	.st49{fill:#141032;}
	.st50{clip-path:url(#SVGID_52_);fill:#141032;}
	.st51{clip-path:url(#SVGID_54_);fill:#141032;}
	.st52{clip-path:url(#SVGID_54_);fill:#FFFFFF;}
	.st53{clip-path:url(#SVGID_56_);fill:#141032;}
	.st54{clip-path:url(#SVGID_56_);fill:#FFFFFF;}
	.st55{clip-path:url(#SVGID_58_);fill:#141032;}
	.st56{clip-path:url(#SVGID_58_);fill:#FFFFFF;}
	.st57{clip-path:url(#SVGID_60_);fill:#141032;}
	.st58{font-family:'Alef-Bold';}
	.st59{font-size:33.113px;}
	.st60{clip-path:url(#SVGID_64_);fill:#141032;}
	.st61{clip-path:url(#SVGID_68_);fill:#141032;}
	.st62{clip-path:url(#SVGID_70_);}
	.st63{clip-path:url(#SVGID_74_);fill:#141032;}
	.st64{clip-path:url(#SVGID_76_);}
	.st65{clip-path:url(#SVGID_80_);fill:#141032;}
	.st66{clip-path:url(#SVGID_80_);fill:#FFFFFF;}
	.st67{clip-path:url(#SVGID_82_);fill:#141032;}
	.st68{clip-path:url(#SVGID_82_);fill:#FFFFFF;}
</style><g
     transform="translate(-626.57343,-412.09998)"
     id="g3876"><rect
       transform="matrix(0,-1,1,0,0,0)"
       x="-450.59998"
       y="650.47339"
       class="st49"
       width="38.5"
       height="143.60001"
       id="rect784"
       style="fill:#141032;fill-opacity:1" /><rect
       transform="matrix(0,-1,1,0,0,0)"
       x="-474"
       y="626.57343"
       class="st49"
       width="38.5"
       height="192.89999"
       id="rect786"
       style="fill:#141032;fill-opacity:1" /><path
       class="st48"
       d="m 678.67343,421.7 0,21.9 -4.4,0 0,-18.4 -3.3,0 0,-3.5 7.7,0 z m 11.9,0 0,6.1 c 0,0.6 0,1.1 0,1.5 0,0.4 0,0.7 -0.1,1.1 -0.1,0.4 -0.1,0.6 -0.1,0.9 -0.1,0.3 -0.1,0.6 -0.2,1 l -4.3,-0.6 c 0.1,-0.3 0.1,-0.6 0.1,-0.9 0,-0.3 0.1,-0.6 0.1,-0.9 0,-0.3 0.1,-0.6 0.1,-1 0,-0.4 0,-0.8 0,-1.4 l 0,-2.3 -3.7,0 0,-3.5 8.1,0 z m 13.4,2.8 c 0.2,-0.6 0.3,-1.2 0.5,-1.7 0.2,-0.6 0.4,-1.1 0.5,-1.7 l 6.3,1.6 c 0,0.4 0,0.8 0.1,1.1 0,0.4 0,0.8 0,1.1 -0.1,0.8 -0.3,1.6 -0.4,2.4 -0.2,0.8 -0.4,1.5 -0.6,2.2 -0.5,1.2 -1,2.3 -1.6,3.3 -0.6,1 -1.3,1.8 -2.1,2.6 -0.8,0.7 -1.6,1.4 -2.4,2 -0.9,0.6 -1.8,1.1 -2.7,1.5 -1,0.4 -1.9,0.8 -3,1.1 -1,0.3 -2.1,0.6 -3.1,0.9 l -1.2,-3.7 c 1.1,-0.3 2.2,-0.6 3.1,-0.9 1,-0.3 1.8,-0.6 2.7,-1 -0.5,-1.4 -1.1,-2.8 -1.6,-4.2 -0.5,-1.4 -1,-2.8 -1.6,-4.2 -0.1,-0.3 -0.2,-0.5 -0.3,-0.7 -0.1,-0.2 -0.2,-0.3 -0.3,-0.5 -0.1,-0.1 -0.2,-0.2 -0.4,-0.3 -0.1,-0.1 -0.3,-0.2 -0.5,-0.2 l -1.9,-0.8 c 0.2,-0.6 0.5,-1.1 0.8,-1.7 0.3,-0.5 0.5,-1.1 0.8,-1.6 0.3,0.1 0.7,0.2 1,0.4 0.3,0.1 0.7,0.3 1,0.4 0.5,0.2 1,0.4 1.4,0.6 0.4,0.2 0.7,0.4 1,0.7 0.3,0.2 0.5,0.5 0.7,0.8 0.2,0.3 0.3,0.6 0.5,1 0.2,0.6 0.4,1.1 0.6,1.6 0.2,0.5 0.4,1.1 0.6,1.7 0.2,0.6 0.4,1.3 0.7,2.1 0.3,0.8 0.6,1.8 1,3 0.5,-0.5 1,-1 1.3,-1.5 0.3,-0.5 0.6,-1 0.9,-1.6 0.3,-0.7 0.6,-1.5 0.8,-2.3 0.2,-0.8 0.4,-1.7 0.5,-2.6 l -3.1,-0.9 z m 18.6,-2.8 0,6.1 c 0,0.6 0,1.1 0,1.5 0,0.4 0,0.7 -0.1,1.1 0,0.3 -0.1,0.6 -0.1,0.9 -0.1,0.3 -0.1,0.6 -0.2,1 l -4.3,-0.6 c 0.1,-0.3 0.1,-0.6 0.1,-0.9 0,-0.3 0.1,-0.6 0.1,-0.9 0,-0.3 0.1,-0.6 0.1,-1 0,-0.4 0,-0.8 0,-1.4 l 0,-2.3 -3.7,0 0,-3.5 8.1,0 z m 8.9,3.5 c -0.5,0 -1,0 -1.5,0 -0.4,0 -0.8,0 -1.2,-0.1 -0.4,0 -0.8,-0.1 -1.2,-0.2 -0.4,-0.1 -0.9,-0.2 -1.4,-0.4 0.2,-0.6 0.3,-1.2 0.5,-1.7 0.2,-0.6 0.4,-1.1 0.6,-1.7 0.5,0.2 1,0.3 1.4,0.4 0.4,0.1 0.8,0.2 1.1,0.2 0.4,0 0.7,0.1 1.1,0.1 0.4,0 0.9,0 1.5,0 l 9.3,0 0,3.5 -3.3,0 0,13.2 -4.4,0 0,-13.3 -2.5,0 z m 20.9,-3.5 0,16.8 -4.4,0 0,-13.3 -2.8,0 0,-3.5 7.2,0 z m 4.1,1.2 c 0.6,-0.4 1.1,-0.7 1.7,-1.1 0.6,-0.3 1.1,-0.7 1.7,-1 0.3,0.3 0.5,0.6 0.7,0.9 0.2,0.3 0.3,0.5 0.5,0.7 0.1,0.2 0.3,0.5 0.4,0.7 0.1,0.2 0.2,0.5 0.3,0.7 0.9,-0.9 1.9,-1.6 2.9,-2 1,-0.4 2,-0.7 3,-0.7 0.7,0 1.3,0.1 2,0.3 0.6,0.2 1.2,0.5 1.7,0.9 0.5,0.4 0.9,0.9 1.3,1.4 0.4,0.6 0.6,1.2 0.8,1.9 0.1,0.6 0.2,1.2 0.2,2 0,0.7 0,1.5 0,2.4 0,0.4 0,0.8 0,1.3 0,0.5 0,1 0,1.6 0,0.7 0,1.5 0,2.1 0,0.7 -0.1,1.2 -0.1,1.7 0,0.2 0,0.5 -0.1,0.7 0,0.3 -0.1,0.5 -0.1,0.8 l -8.5,0 0,-3.5 4.3,0 c 0,-0.1 0,-0.2 0,-0.3 0,-0.2 0,-0.4 0,-0.7 0,-0.3 0,-0.8 0,-1.3 0,-0.5 0,-1.2 0,-1.9 0,-0.2 0,-0.5 0,-0.8 0,-0.3 0,-0.6 0,-1 0,-0.3 0,-0.7 0,-1 0,-0.3 0,-0.6 0,-0.8 -0.1,-0.9 -0.4,-1.5 -0.8,-1.9 -0.4,-0.4 -1,-0.5 -1.7,-0.5 -0.4,0 -0.8,0.1 -1.2,0.2 -0.4,0.2 -0.8,0.4 -1.3,0.7 -0.2,0.2 -0.5,0.4 -0.7,0.6 -0.2,0.2 -0.5,0.5 -0.7,0.7 -0.2,1.2 -0.3,2.2 -0.5,3.1 -0.1,0.9 -0.2,1.6 -0.3,2.3 -0.1,0.6 -0.2,1.2 -0.3,1.7 -0.1,0.5 -0.1,1 -0.2,1.4 -0.1,0.5 -0.1,1 -0.2,1.5 -0.1,0.5 -0.2,1.1 -0.3,1.7 l -4.4,0 0.4,-2.8 c 0.1,-0.7 0.2,-1.3 0.3,-2 0.1,-0.6 0.2,-1.2 0.3,-1.9 0.1,-0.6 0.2,-1.2 0.3,-1.9 0.1,-0.6 0.2,-1.3 0.3,-2 0,-0.2 0,-0.4 0,-0.5 0,-0.2 0,-0.3 0,-0.5 0,-0.3 0,-0.6 -0.1,-0.8 0,-0.2 -0.1,-0.5 -0.2,-0.7 -0.1,-0.2 -0.2,-0.4 -0.3,-0.7 -0.1,-0.2 -0.3,-0.5 -0.4,-0.8 l -0.7,-0.9 z"
       id="path788"
       style="fill:#f7d685;fill-opacity:1" /><path
       class="st48"
       d="m 647.47343,446.5 0,6.1 c 0,0.6 0,1.1 0,1.5 0,0.4 0,0.7 -0.1,1.1 -0.1,0.4 -0.1,0.6 -0.1,0.9 -0.1,0.3 -0.1,0.6 -0.2,1 l -4.3,-0.6 c 0.1,-0.3 0.1,-0.6 0.1,-0.9 0,-0.3 0.1,-0.6 0.1,-0.9 0,-0.3 0.1,-0.6 0.1,-1 0,-0.4 0,-0.8 0,-1.4 l 0,-2.3 -3.7,0 0,-3.5 8.1,0 z m 3.8,-5.8 c 0.4,-0.3 0.9,-0.6 1.4,-0.7 0.5,-0.2 1,-0.3 1.5,-0.3 0.3,0 0.6,0 0.9,0.1 0.3,0.1 0.6,0.2 0.8,0.4 0.2,0.2 0.4,0.4 0.5,0.7 0.1,0.3 0.2,0.6 0.2,1 0,0.5 -0.1,0.9 -0.2,1.3 -0.1,0.4 -0.3,0.8 -0.6,1.3 -0.3,0.5 -0.6,1 -1,1.6 -0.4,0.6 -0.9,1.3 -1.4,2.2 l -2.8,0 1.7,-4.7 -1,-2.9 z m 7.2,0 c 0.4,-0.3 0.9,-0.6 1.4,-0.7 0.5,-0.2 1,-0.3 1.5,-0.3 0.3,0 0.6,0 0.9,0.1 0.3,0.1 0.6,0.2 0.8,0.4 0.2,0.2 0.4,0.4 0.5,0.7 0.1,0.3 0.2,0.6 0.2,1 0,0.5 -0.1,0.9 -0.2,1.3 -0.1,0.4 -0.3,0.8 -0.6,1.3 -0.3,0.5 -0.6,1 -1,1.6 -0.4,0.6 -0.9,1.3 -1.4,2.2 l -2.8,0 1.7,-4.7 -1,-2.9 z m 24.1,11.5 c -0.2,0.7 -0.3,1.3 -0.5,1.8 -0.2,0.5 -0.4,1 -0.6,1.4 -0.2,0.4 -0.5,0.8 -0.9,1.2 -0.3,0.4 -0.7,0.7 -1.2,1.1 l 3.6,4.1 -2.8,2.5 -8.4,-9.7 c -0.2,0.3 -0.3,0.6 -0.4,1.1 -0.1,0.4 -0.2,0.9 -0.2,1.4 0,0.5 -0.1,1 -0.1,1.6 0,0.5 0,1.1 0,1.6 0,0.2 0,0.4 0,0.6 0,0.3 0,0.5 0,0.8 0,0.3 0,0.6 0,0.9 0,0.3 0,0.6 0,0.9 l -4.1,0 c 0,-0.3 0,-0.6 0,-1 0,-0.4 0,-0.7 0,-1.2 0,-0.4 0,-0.9 0,-1.4 0,-0.5 0,-1.1 0.1,-1.8 0,-0.7 0.1,-1.3 0.1,-1.8 0.1,-0.6 0.2,-1.1 0.4,-1.6 0.2,-0.5 0.4,-1 0.7,-1.5 0.3,-0.5 0.7,-1 1.1,-1.4 -0.3,-0.4 -0.5,-0.7 -0.8,-1 -0.2,-0.3 -0.4,-0.7 -0.6,-1 -0.2,-0.4 -0.4,-0.7 -0.5,-1.1 -0.2,-0.4 -0.4,-0.8 -0.6,-1.3 0.6,-0.2 1.2,-0.5 1.9,-0.7 0.7,-0.2 1.3,-0.5 1.9,-0.7 0.2,0.6 0.5,1.1 0.7,1.6 0.2,0.5 0.4,0.9 0.7,1.4 0.3,0.4 0.5,0.9 0.9,1.3 0.3,0.4 0.7,0.9 1.1,1.4 l 3.1,3.6 c 0.3,-0.3 0.5,-0.5 0.7,-0.9 0.2,-0.3 0.4,-0.7 0.6,-1.2 0.1,-0.2 0.1,-0.4 0.2,-0.6 0.1,-0.2 0.1,-0.5 0.2,-0.7 l 0.4,-1.9 -2.4,-0.4 0.6,-3.4 6,1 0,2.1 -0.9,2.9 z m 4.5,-4.4 c 0.6,-0.4 1.1,-0.7 1.7,-1.1 0.6,-0.3 1.1,-0.7 1.7,-1 0.3,0.3 0.5,0.6 0.7,0.9 0.2,0.3 0.3,0.5 0.5,0.7 0.1,0.2 0.3,0.5 0.4,0.7 0.1,0.2 0.2,0.5 0.3,0.7 0.9,-0.9 1.9,-1.6 2.9,-2 1,-0.4 2,-0.7 3,-0.7 0.7,0 1.3,0.1 2,0.3 0.6,0.2 1.2,0.5 1.7,0.9 0.5,0.4 0.9,0.9 1.3,1.4 0.4,0.6 0.6,1.2 0.8,1.9 0.1,0.6 0.2,1.2 0.2,2 0,0.7 0,1.5 0,2.4 0,0.4 0,0.8 0,1.3 0,0.5 0,1 0,1.6 0,0.7 0,1.5 0,2.1 0,0.7 -0.1,1.2 -0.1,1.7 0,0.2 0,0.5 -0.1,0.7 0,0.3 -0.1,0.5 -0.1,0.8 l -8.5,0 0,-3.5 4.3,0 c 0,-0.1 0,-0.2 0,-0.3 0,-0.2 0,-0.4 0,-0.7 0,-0.3 0,-0.8 0,-1.3 0,-0.5 0,-1.2 0,-1.9 0,-0.2 0,-0.5 0,-0.8 0,-0.3 0,-0.6 0,-1 0,-0.3 0,-0.7 0,-1 0,-0.3 0,-0.6 0,-0.8 -0.1,-0.9 -0.4,-1.5 -0.8,-1.9 -0.4,-0.4 -1,-0.5 -1.7,-0.5 -0.4,0 -0.8,0.1 -1.2,0.2 -0.4,0.2 -0.8,0.4 -1.3,0.7 -0.2,0.2 -0.5,0.4 -0.7,0.6 -0.2,0.2 -0.5,0.5 -0.7,0.7 -0.2,1.2 -0.3,2.2 -0.5,3.1 -0.1,0.9 -0.2,1.6 -0.3,2.3 -0.1,0.6 -0.2,1.2 -0.3,1.7 -0.1,0.5 -0.1,1 -0.2,1.4 -0.1,0.5 -0.1,1 -0.2,1.5 -0.1,0.5 -0.2,1.1 -0.3,1.7 l -4.4,0 0.4,-2.8 c 0.1,-0.7 0.2,-1.3 0.3,-2 0.1,-0.6 0.2,-1.2 0.3,-1.9 0.1,-0.7 0.2,-1.2 0.3,-1.9 0.1,-0.6 0.2,-1.3 0.3,-2 0,-0.2 0,-0.4 0,-0.5 0,-0.2 0,-0.3 0,-0.5 0,-0.3 0,-0.6 -0.1,-0.8 0,-0.2 -0.1,-0.5 -0.2,-0.7 -0.1,-0.2 -0.2,-0.4 -0.3,-0.7 -0.1,-0.2 -0.3,-0.5 -0.4,-0.8 l -0.7,-0.9 z m 36.7,4.4 c -0.2,0.7 -0.3,1.3 -0.5,1.8 -0.2,0.5 -0.4,1 -0.6,1.4 -0.2,0.4 -0.5,0.8 -0.9,1.2 -0.3,0.4 -0.7,0.7 -1.2,1.1 l 3.6,4.1 -2.8,2.5 -8.4,-9.7 c -0.2,0.3 -0.3,0.6 -0.4,1.1 -0.1,0.4 -0.2,0.9 -0.2,1.4 0,0.5 -0.1,1 -0.1,1.6 0,0.5 0,1.1 0,1.6 0,0.2 0,0.4 0,0.6 0,0.3 0,0.5 0,0.8 0,0.3 0,0.6 0,0.9 0,0.3 0,0.6 0,0.9 l -4.1,0 c 0,-0.3 0,-0.6 0,-1 0,-0.4 0,-0.7 0,-1.2 0,-0.4 0,-0.9 0,-1.4 0,-0.5 0,-1.1 0.1,-1.8 0,-0.7 0.1,-1.3 0.1,-1.8 0.1,-0.6 0.2,-1.1 0.4,-1.6 0.2,-0.5 0.4,-1 0.7,-1.5 0.3,-0.5 0.7,-1 1.1,-1.4 -0.3,-0.4 -0.5,-0.7 -0.8,-1 -0.2,-0.3 -0.4,-0.7 -0.6,-1 -0.2,-0.4 -0.4,-0.7 -0.5,-1.1 -0.2,-0.4 -0.4,-0.8 -0.6,-1.3 0.6,-0.2 1.2,-0.5 1.9,-0.7 0.7,-0.2 1.3,-0.5 1.9,-0.7 0.2,0.6 0.5,1.1 0.7,1.6 0.2,0.5 0.4,0.9 0.7,1.4 0.3,0.4 0.5,0.9 0.9,1.3 0.3,0.4 0.7,0.9 1.1,1.4 l 3.1,3.6 c 0.3,-0.3 0.5,-0.5 0.7,-0.9 0.2,-0.3 0.4,-0.7 0.6,-1.2 0.1,-0.2 0.1,-0.4 0.2,-0.6 0.1,-0.2 0.1,-0.5 0.2,-0.7 l 0.4,-1.9 -2.4,-0.4 0.6,-3.4 6,1 0,2.1 -0.9,2.9 z m 21.4,-5.7 0,21.9 -4.4,0 0,-18.4 -3.3,0 0,-3.5 7.7,0 z m 9.7,3.5 c -0.5,0 -1,0 -1.5,0 -0.4,0 -0.8,0 -1.2,-0.1 -0.4,0 -0.8,-0.1 -1.2,-0.2 -0.4,-0.1 -0.9,-0.2 -1.4,-0.4 0.2,-0.6 0.3,-1.2 0.5,-1.7 0.2,-0.6 0.4,-1.1 0.6,-1.7 0.5,0.2 1,0.3 1.4,0.4 0.4,0.1 0.8,0.2 1.1,0.2 0.4,0 0.7,0.1 1.1,0.1 0.4,0 0.9,0 1.5,0 l 1.4,0 c 0.7,0 1.3,0.1 1.9,0.3 0.6,0.2 1.2,0.5 1.7,0.9 0.5,0.4 0.9,1 1.3,1.7 0.3,0.7 0.5,1.7 0.6,2.8 0,0.6 0.1,1.2 0.1,1.8 0,0.6 0,1.2 0,1.9 0,0.6 0,1.3 0,2 0,0.7 0,1.4 0,2.2 0,0.3 0,0.5 0,0.7 0,0.2 0,0.4 -0.1,0.7 0,0.2 -0.1,0.5 -0.1,0.8 -0.1,0.3 -0.1,0.6 -0.2,1 l -14.1,0 0,-3.5 10.2,0 c 0,-0.5 0,-1 0,-1.6 0,-0.6 0,-1.1 0,-1.7 0,-0.6 0,-1.1 0,-1.7 0,-0.6 0,-1.1 0,-1.6 0,-0.7 0,-1.2 -0.1,-1.6 -0.1,-0.4 -0.2,-0.7 -0.4,-1 -0.2,-0.2 -0.5,-0.4 -0.9,-0.5 -0.4,-0.1 -0.9,-0.1 -1.6,-0.1 l -0.6,0 z m 19.5,-3.5 0,16.8 -4.4,0 0,-13.3 -2.8,0 0,-3.5 7.2,0 z m 9.2,3.5 c -0.5,0 -1,0 -1.5,0 -0.4,0 -0.8,0 -1.2,-0.1 -0.4,0 -0.8,-0.1 -1.2,-0.2 -0.4,-0.1 -0.9,-0.2 -1.4,-0.4 0.2,-0.6 0.3,-1.2 0.5,-1.7 0.2,-0.6 0.4,-1.1 0.6,-1.7 0.5,0.2 1,0.3 1.4,0.4 0.4,0.1 0.8,0.2 1.1,0.2 0.4,0 0.7,0.1 1.1,0.1 0.4,0 0.9,0 1.5,0 l 9.3,0 0,3.5 -3.3,0 0,13.3 -4.3,0 0,-13.3 -2.6,0 z m 20.9,-3.5 0,16.8 -4.4,0 0,-13.3 -2.8,0 0,-3.5 7.2,0 z"
       id="path790"
       style="fill:#f7d685;fill-opacity:1" /><path
       transform="matrix(0,-1,1,0,-126.07657,979.5)"
       style="fill:#fbb65a;fill-opacity:1"
       clip-path="url(#SVGID_80_)"
       id="path984"
       d="m 476.2,872.2 c -12.8,0 -47.8,-23.1 -47.8,-23.1 0,0 35,-23.1 47.8,-23.1 12.8,0 23.1,10.4 23.1,23.1 0,12.7 -10.3,23.1 -23.1,23.1"
       class="st65" /><path
       transform="matrix(0,-1,1,0,-126.82657,979.5)"
       style="fill:#ffffff"
       clip-path="url(#SVGID_80_)"
       id="path986"
       d="m 464.5,849.1 c 0,-6.5 5.3,-11.9 11.9,-11.9 6.5,0 11.9,5.3 11.9,11.9 0,6.5 -5.3,11.9 -11.9,11.9 -6.6,-0.1 -11.9,-5.4 -11.9,-11.9 m 26.5,0 c 0,-8 -6.5,-14.6 -14.6,-14.6 -8,0 -14.6,6.6 -14.6,14.6 0,8 6.5,14.6 14.6,14.6 8,0 14.6,-6.6 14.6,-14.6 m -12.8,0 c 0,-1 -0.8,-1.8 -1.8,-1.8 l -5.5,0 c -1,0 -1.8,0.8 -1.8,1.8 0,1 0.8,1.8 1.8,1.8 l 5.5,0 c 1,0 1.8,-0.8 1.8,-1.8 m 5.5,0 c 0,-1 -0.8,-1.8 -1.8,-1.8 -1,0 -1.8,0.8 -1.8,1.8 0,1 0.8,1.8 1.8,1.8 0.9,0 1.8,-0.8 1.8,-1.8"
       class="st66" /></g></svg>