<svg width="175.2" height="94.4" viewBox="0 0 46.354 24.976" xmlns="http://www.w3.org/2000/svg">
    <path d="M129.159 101.83c0 2.434-4.392 9.181-4.392 9.181s-4.392-6.667-4.392-9.18a4.381 4.381 0 0 1 4.392-4.393c2.434-.08 4.392 1.879 4.392 4.392M101.59 86.035h45.27V96.22h-45.27z" style="fill:#0b608c;stroke-width:.26458;fill-opacity:1" transform="translate(-101.59 -86.035)"/>
    <path d="M1821.3 533.6h13.4v15.6h-13.4zm9.2 12.3v-9h-4.9v9zm8.7-9.1h-2.4v-3.3h6.6v8.9h-4.2zm7.9 12.5c-.5-.1-1-.2-1.6-.3v-3.2c.6.1 1.3.1 1.9.1.6 0 1-.2 1.3-.5.3-.3.4-.8.4-1.5v-7.2h-2.7v-3.3h7v10.8c0 1-.2 2-.6 2.7-.4.8-.9 1.3-1.7 1.7-.7.4-1.6.6-2.6.6-.5.2-1 .2-1.4.1zm8.5-.5.6-3.1c1.3.3 2.4.4 3.3.4 1.2 0 2.2-.3 2.7-.8.6-.5.9-1.3.9-2.4v-6.1h-7v-3.3h11.2v8.6c0 2.5-.6 4.3-1.9 5.5-1.3 1.2-3.1 1.7-5.4 1.7-1.2.1-2.7-.1-4.4-.5zm15.5-12h-1.3v-3.3h5.6v15.6h-4.2zm20-3.2v3.3h-2.8v12.3h-4.2v-12.3h-6.5v-3.3zm8.2 0h13.4v15.6h-13.4zm9.2 12.3v-9h-4.9v9zm7.8-12.3h6.9c2 0 3.6.5 4.6 1.5 1 1 1.6 2.5 1.6 4.4v9.7h-4.2v-10.1c0-1.5-.7-2.3-2-2.3h-2.7v12.3h-4.2zm28 1.5c1.1 1 1.6 2.5 1.6 4.4v9.7h-4.2v-10.1c0-1.5-.7-2.3-2-2.3h-2c-.1.5-.2 1-.3 1.6-.1.6-.1 1.1-.1 1.6v4.4c0 1.1-.2 2-.6 2.7-.4.8-.9 1.3-1.6 1.7-.7.4-1.6.6-2.6.6-.6 0-1.3-.1-2-.2V546h.8c1.2 0 1.9-.7 1.9-2v-3.7c0-.6.1-1.2.2-1.8.1-.6.4-1.2.6-1.7h-2.4v-3.3h8c2.2.1 3.7.6 4.7 1.6zm5.7 5.4c.1-.7.2-1.4.5-2 .3-.6.6-1.1.9-1.5l.2-.2v-.1c-.3.1-.7.2-1.2.3-.5.1-.9.3-1.2.4l-.9-3.1c1-.4 2.2-.7 3.5-.9 1.4-.2 2.6-.3 3.9-.3 2.4 0 4.2.6 5.5 1.8 1.2 1.2 1.9 3 1.9 5.4v8.8h-6.9v-3.3h2.6v-6.1c0-1-.2-1.8-.6-2.4-.4-.6-1-.8-1.7-.8-1.4 0-2.2 1.1-2.4 3.3l-.9 9.2h-4.2z" style="fill:#fffffd" transform="translate(-477.937 -138.375) scale(.26458)"/>
</svg>
