<?xml version="1.0" encoding="UTF-8" standalone="no"?>
<svg
   xmlns:dc="http://purl.org/dc/elements/1.1/"
   xmlns:cc="http://creativecommons.org/ns#"
   xmlns:rdf="http://www.w3.org/1999/02/22-rdf-syntax-ns#"
   xmlns:svg="http://www.w3.org/2000/svg"
   xmlns="http://www.w3.org/2000/svg"
   version="1.1"
   id="svg6706"
   viewBox="0 0 321.29998 301.10003"
   height="84.977119mm"
   width="90.677994mm">
  <defs
     id="defs6708" />
  <metadata
     id="metadata6711">
    <rdf:RDF>
      <cc:Work
         rdf:about="">
        <dc:format>image/svg+xml</dc:format>
        <dc:type
           rdf:resource="http://purl.org/dc/dcmitype/StillImage" />
        <dc:title></dc:title>
      </cc:Work>
    </rdf:RDF>
  </metadata>
  <g
     transform="translate(-199.35001,-676.0979)"
     id="layer1">
    <g
       transform="translate(-8.45005,0)"
       id="g7372">
      <path
         id="path819_8_"
         class="st14"
         d="m 400.55006,911.09792 c 0,17.6 -32.1,66.1 -32.1,66.1 0,0 -32.1,-48.5 -32.1,-66.1 0,-17.6 14.5,-32.1 32.1,-32.1 17.8,0 32.1,14.3 32.1,32.1"
         style="fill:#6f4d80" />
      <g
         id="g829_1_"
         transform="translate(-1774.2185,640.14716)">
        <g
           id="XMLID_1448_">
          <g
             id="XMLID_1449_">
            <g
               id="XMLID_1450_">
              <g
                 id="XMLID_1451_">
                <path
                   id="path837_1_"
                   class="st32"
                   d="m 2150.9,265.2 c -1.7,-0.8 -2.8,-1.7 -4.2,-2.5 0.8,-1.2 2.5,-3.3 2,-5 0,-0.3 -0.3,-1.2 -0.8,-1.7 -0.3,-0.3 -0.8,-0.3 -1.2,-0.3 -0.8,0 -2,0.8 -2.8,1.2 0,-0.3 0,-0.3 0,-0.8 0.3,-2 1.2,-3.7 2.8,-3.7 l 0,0 c 1.7,0 3.7,1.2 4.2,3.7 1.3,2.8 0.9,5.8 0,9.1 m -5.3,-3.8 c -0.3,-0.8 -0.8,-1.7 -1.2,-2.5 0.3,-1.2 1.2,-2 2,-2 0.3,0 0.3,0 0.3,0 0.3,0 0.3,0.3 0.3,0.8 0.8,1.2 -0.6,2.5 -1.4,3.7 m -2,1.6 -1.2,0.8 0.3,-1.7 c 0,-0.3 0.3,-1.2 0.8,-2 0.3,0.3 0.8,1.2 1.2,1.7 -0.8,0.9 -1.1,1.2 -1.1,1.2 m 16,13.6 c 0,-0.3 -2.8,-8.1 -6.6,-10.3 -0.3,0 -0.3,-0.3 -0.8,-0.3 1.2,-3.7 1.7,-7 0.8,-9.8 -0.9,-2.8 -3.3,-5 -5.8,-4.5 -2,0 -3.7,2 -4.2,4.5 0,0.8 0,1.7 0,2.5 -0.3,0.8 -0.8,1.2 -0.8,1.7 l -19.3,30.4 c 0,0.3 -0.3,0.3 0,0.8 l 0,0.3 0.3,0 c 0.3,0 0.3,-0.3 0.8,-0.3 l 22.3,-27.6 c 1.2,1.2 3.3,2 4.5,2.8 -0.8,2 -1.7,4.5 -2.5,7 -2.8,7 -1.7,12.8 0.3,14 l 0.3,0 c 0,0 0.3,0 0.3,-0.3 0,-0.3 0,-0.8 0,-0.8 -1.7,-0.8 -2.8,-6.1 0,-12.3 1.2,-2.5 2,-5 2.5,-7 0,0 0.3,0 0.3,0.3 3.3,1.7 6.1,9.5 6.1,9.5 0,0.3 0.3,0.3 0.8,0.3 0.3,-0.5 0.7,-0.9 0.7,-0.9"
                   style="opacity:0.9;fill:#ffffff;enable-background:new" />
              </g>
            </g>
          </g>
        </g>
      </g>
    </g>
    <rect
       style="fill:#6f4d80"
       height="181.10001"
       width="321.29999"
       class="st14"
       y="676.0979"
       x="199.35001"
       id="rect807_2_" />
    <g
       id="XMLID_1600_"
       transform="translate(-1832.35,405.09792)">
      <g
         id="XMLID_645_">
        <path
           style="fill:#f58020"
           d="m 2064.8,291.6 -0.5,-4.9 6.1,0 0.5,4.9 0,6.7 0,2.7 -6.1,1.1 0,-10.5 z"
           class="st13"
           id="XMLID_786_" />
        <path
           style="fill:#f58020"
           d="m 2076.8,291.6 -0.5,-4.9 6.1,0 0.5,4.9 0,6.7 0,2.7 -6.1,1.1 0,-10.5 z"
           class="st13"
           id="XMLID_785_" />
        <path
           style="fill:#f58020"
           d="m 2105.8,286.6 0,5 -7.6,19.3 -6.1,0 7.6,-19.6 -12.2,0 0,-10.8 5.6,0 0,6.1 12.7,0 z"
           class="st13"
           id="XMLID_784_" />
        <path
           style="fill:#f58020"
           d="m 2110.5,306.2 8.5,0 c 1.6,0 2.9,-0.5 3.8,-1.6 0.9,-1.1 1.4,-2.5 1.4,-4.3 l 0,-3.1 c 0,-1.8 -0.4,-3.2 -1.3,-4.3 -0.7,-1.1 -2,-1.6 -3.6,-1.6 l -3.1,0 -0.7,3.6 c 0,0.4 -0.2,0.7 -0.2,1.1 0,0.7 0.2,1.3 0.7,1.6 0.4,0.4 1.1,0.7 2.2,0.9 l -0.9,3.8 c -2.5,0 -4.3,-0.5 -5.4,-1.6 -1.1,-1.1 -1.6,-2.5 -1.6,-4.3 0,-0.7 0,-1.3 0.2,-1.8 l 1.6,-7.6 9,0 c 2.9,0 5.2,0.9 6.8,2.9 1.6,2 2.5,4.5 2.5,7.9 l 0,2.5 c 0,3.4 -0.9,6.1 -2.7,7.9 -1.8,2 -4.1,2.9 -7.2,2.9 l -9.9,0 0,-4.9 -0.1,0 z"
           class="st13"
           id="XMLID_783_" />
        <path
           style="fill:#f58020"
           d="m 2151.8,307.6 c -3.2,2.2 -8.1,3.4 -14.2,3.6 l -2.3,-20 -0.5,-4.5 13,0 c 2.7,0 4.9,0.7 6.5,2.3 1.6,1.6 2.3,3.8 2.3,6.5 l 0,1.4 c -0.1,5 -1.5,8.6 -4.8,10.7 z m -4.3,-3 c 1.1,-0.7 1.8,-1.6 2.3,-2.9 0.4,-1.3 0.5,-2.9 0.5,-4.9 l 0,-1.3 c 0,-1.3 -0.4,-2.3 -0.9,-3.1 -0.5,-0.7 -1.4,-1.1 -2.3,-1.1 l -5.8,0 1.6,14.6 c 1.9,-0.3 3.5,-0.6 4.6,-1.3 z"
           class="st13"
           id="XMLID_780_" />
        <path
           style="fill:#f58020"
           d="m 2162.1,291.6 -0.5,-4.9 6.1,0 0.5,4.9 0,19.3 -6.1,0 0,-19.3 z"
           class="st13"
           id="XMLID_779_" />
        <path
           style="fill:#f58020"
           d="m 2173.3,299 0.9,-2.9 5.2,0 0,23.2 -6.1,0 0,-20.3 z m 8.6,7.2 c 2,-0.2 3.4,-0.9 4.3,-2 0.9,-1.1 1.4,-3.1 1.6,-5.8 l 0.5,-7.4 -14.8,0 0,-4.5 21.2,0 -0.2,4 -0.5,6.3 c -0.5,9.2 -4.5,13.9 -11.9,13.9 l -0.2,-4.5 z"
           class="st13"
           id="XMLID_776_" />
        <path
           style="fill:#f58020"
           d="m 2228,288.6 c 1.3,1.3 2,3.2 2,5.9 l 0,16.2 -6.1,0 -13.3,0 -1.3,0 0,-24.1 6.1,0 7.2,0 c 2.3,0 4.1,0.7 5.4,2 z m -4.2,17.6 0,-11.9 c 0,-2 -0.9,-3.1 -2.9,-3.1 l -5.6,0 0,14.9 8.5,0 z"
           class="st13"
           id="XMLID_773_" />
        <path
           style="fill:#f58020"
           d="m 2254,288.7 c 1.3,1.4 2,3.4 2,6.1 l 0,16 -6.1,0 0,-16.2 c 0,-2.2 -0.9,-3.2 -2.9,-3.2 l -5.6,0 0,19.6 -6.1,0 0,-21.6 0,-2.9 13.3,0 c 2.4,0.1 4.2,0.8 5.4,2.2 z"
           class="st13"
           id="XMLID_772_" />
        <path
           style="fill:#f58020"
           d="m 2260,307.4 c 1.1,-0.2 1.8,-0.4 2.3,-0.7 0.5,-0.4 0.9,-0.7 1.1,-1.3 0.2,-0.5 0.4,-1.3 0.2,-2.3 l 0,-16.6 12.8,0 c 2.3,0 4,0.7 5.4,2 1.3,1.3 2,3.2 2,5.9 l 0,16.2 -6.1,0 0,-16.6 c 0,-2 -0.9,-3.1 -2.9,-3.1 l -5,0 0,11.2 c 0,2.2 -0.4,3.8 -1.1,5 -0.7,1.3 -1.6,2.2 -3.1,2.9 -1.4,0.7 -3.1,1.1 -5.4,1.3 l -0.2,-3.9 z"
           class="st13"
           id="XMLID_771_" />
        <path
           style="fill:#f58020"
           d="m 2310,308 c -1.8,2.2 -4.3,3.4 -7.7,3.4 -1.3,0 -2.5,-0.2 -4,-0.5 l 0.5,-4.5 c 1.1,0.2 2,0.4 2.7,0.4 2,0 3.2,-0.7 4.1,-2 0.9,-1.3 1.3,-3.2 1.3,-5.8 0,-2.9 -0.4,-4.9 -1.1,-6.1 -0.7,-1.3 -2,-1.8 -3.6,-1.8 -1.1,0 -2.2,0.4 -2.9,1.1 -0.7,0.7 -1.3,1.6 -1.4,2.7 l -2.7,16 -6.1,0 2.9,-16.2 -3.4,-7.9 6.3,0 1.6,4.9 c 0.5,-1.8 1.4,-3.1 2.7,-4 1.3,-0.9 2.5,-1.3 4.1,-1.3 3.1,0 5.4,1.1 6.8,3.1 1.6,2.2 2.3,5.2 2.3,9.4 0.3,3.7 -0.6,6.9 -2.4,9.1 z"
           class="st13"
           id="XMLID_770_" />
        <path
           style="fill:#f58020"
           d="m 2062.1,315 0,-2.2 252.3,0 0,2.2 -252.3,0 z"
           class="st13"
           id="XMLID_769_" />
        <path
           style="fill:#f58020"
           d="m 2089.9,336.1 -0.5,-4.5 4,0 0.5,4.5 0,5.8 0,2.3 -4,0.7 0,-8.8 z"
           class="st13"
           id="XMLID_768_" />
        <path
           style="fill:#f58020"
           d="m 2100,336.1 -0.5,-4.5 4,0 0.5,4.5 0,5.8 0,2.3 -4,0.7 0,-8.8 z"
           class="st13"
           id="XMLID_767_" />
        <path
           style="fill:#f58020"
           d="m 2124.3,331.7 0,3.4 -7.2,18 -4.1,0 7.2,-18.2 -11.5,0 0,-9 3.8,0 0,5.9 11.9,0 0,-0.1 z"
           class="st13"
           id="XMLID_766_" />
        <path
           style="fill:#f58020"
           d="m 2129.4,349.9 6.8,0 c 1.8,0 3.1,-0.5 4.1,-1.6 1.1,-1.1 1.4,-2.7 1.4,-4.7 l 0,-2.5 c 0,-2 -0.4,-3.6 -1.3,-4.7 -0.9,-1.1 -2,-1.6 -3.6,-1.6 l -3.4,0 -0.9,3.8 c -0.2,0.5 -0.2,1.1 -0.2,1.4 0,0.7 0.2,1.4 0.7,1.8 0.4,0.4 1.1,0.7 2.2,0.9 l -0.7,2.7 c -2,-0.2 -3.4,-0.5 -4.3,-1.4 -0.9,-0.9 -1.4,-2.2 -1.4,-3.6 0,-0.7 0,-1.4 0.2,-2 l 1.4,-6.5 7.2,0 c 2.5,0 4.5,0.9 5.9,2.5 1.4,1.6 2.2,4 2.2,7 l 0,2.2 c 0,3.2 -0.9,5.6 -2.5,7.2 -1.6,1.6 -3.8,2.5 -6.5,2.5 l -7.7,0 0,-3.4 0.4,0 z"
           class="st13"
           id="XMLID_765_" />
        <path
           style="fill:#f58020"
           d="m 2165,350.3 c -2.9,2 -6.8,3.1 -11.9,3.2 l -2.2,-18.7 -0.4,-3.1 11,0 c 2.3,0 4.1,0.7 5.6,2.2 1.3,1.4 2,3.2 2.2,5.8 l 0,1.3 c -0.2,4 -1.6,7.3 -4.3,9.3 z m -2,-2.9 c 1.4,-1.4 2.2,-3.6 2,-6.7 l 0,-1.1 c 0,-1.4 -0.4,-2.5 -1.1,-3.4 -0.7,-0.9 -1.6,-1.3 -2.9,-1.3 l -6.1,0 1.8,14.9 c 2.7,-0.3 4.9,-1.2 6.3,-2.4 z"
           class="st13"
           id="XMLID_762_" />
        <path
           style="fill:#f58020"
           d="m 2174.5,336.1 -0.5,-4.5 4,0 0.5,4.5 0,17.1 -4.1,0 0,-17.1 0.1,0 z"
           class="st13"
           id="XMLID_761_" />
        <path
           style="fill:#f58020"
           d="m 2183.9,342.3 0.5,-2.5 3.4,0 0,20.9 -4.1,0 0,-18.4 0.2,0 z m 6.8,7.6 c 1.3,-0.2 2.3,-0.4 3.1,-0.9 0.9,-0.5 1.6,-1.3 2,-2.3 0.5,-1.1 0.9,-2.7 0.9,-4.5 l 0.5,-7.4 -13.5,0 0,-3.1 17.8,0 -0.2,2.7 -0.5,6.8 c -0.2,3.8 -1.1,6.7 -2.7,8.6 -1.6,2 -4.1,3.1 -7.2,3.2 l -0.2,-3.1 z"
           class="st13"
           id="XMLID_758_" />
        <path
           style="fill:#f58020"
           d="m 2215.5,336.1 -0.5,-4.5 4,0 0.5,4.5 0,24.5 -4.1,0 0,-24.5 0.1,0 z"
           class="st13"
           id="XMLID_757_" />
        <path
           style="fill:#f58020"
           d="m 2225.6,336.1 -0.5,-4.5 4,0 0.5,4.5 0,17.1 -4.1,0 0,-17.1 0.1,0 z"
           class="st13"
           id="XMLID_755_" />
        <path
           style="fill:#f58020"
           d="m 2235.1,342.3 0.5,-2.5 3.4,0 0,20.9 -4.1,0 0,-18.4 0.2,0 z m 6.9,7.6 c 1.3,-0.2 2.3,-0.4 3.1,-0.9 0.9,-0.5 1.6,-1.3 2,-2.3 0.5,-1.1 0.9,-2.7 0.9,-4.5 l 0.5,-7.4 -13.5,0 0,-3.1 17.8,0 -0.2,2.7 -0.5,6.8 c -0.2,3.8 -1.1,6.7 -2.7,8.6 -1.6,2 -4.1,3.1 -7.2,3.2 l -0.2,-3.1 z"
           class="st13"
           id="XMLID_752_" />
        <path
           style="fill:#f58020"
           d="m 2258.4,336.1 -0.5,-4.5 4,0 0.5,4.5 0,5.8 0,2.3 -4,0.7 0,-8.8 z"
           class="st13"
           id="XMLID_751_" />
        <path
           style="fill:#f58020"
           d="m 2266.5,350.8 c 1.4,-0.2 2.5,-0.5 2.9,-1.3 0.5,-0.7 0.7,-1.6 0.7,-3.1 l 0,-14.9 10.3,0 c 2,0 3.6,0.5 4.7,1.8 1.1,1.1 1.8,2.9 1.8,5.4 l 0,14.4 -4.1,0 0,-14.4 c 0,-1.3 -0.4,-2.3 -0.9,-2.9 -0.5,-0.5 -1.4,-0.9 -2.5,-0.9 l -5.2,0 0,11.3 c 0,2.5 -0.5,4.3 -1.8,5.4 -1.1,1.1 -3.1,1.8 -5.8,2.2 l 0,-3 z"
           class="st13"
           id="XMLID_750_" />
        <path
           style="fill:#f58020"
           d="m 2124.9,411.6 c 1.1,1.1 1.8,2.9 1.8,5.4 l 0,14.2 -4.1,0 -12.4,0 -1.1,0 0,-21.4 4.1,0 7,0 c 2,0.1 3.6,0.7 4.7,1.8 z m -2.4,16.5 0,-11.3 c 0,-1.3 -0.4,-2.3 -0.9,-2.9 -0.5,-0.5 -1.4,-0.9 -2.5,-0.9 l -5.9,0 0,15.1 9.3,0 0,0 z"
           class="st13"
           id="XMLID_747_" />
        <path
           style="fill:#f58020"
           d="m 2132.4,414.3 -0.5,-4.5 4,0 0.5,4.5 0,16.9 -4,0 0,-16.9 z"
           class="st13"
           id="XMLID_746_" />
        <path
           style="fill:#f58020"
           d="m 2156.9,409.9 0,3.4 -7.2,18 -4.1,0 7.2,-18.2 -11.3,0 0,-9 3.8,0 0,5.9 11.7,0 0,-0.1 z"
           class="st13"
           id="XMLID_745_" />
        <path
           style="fill:#f58020"
           d="m 2161.9,414.3 -0.5,-4.5 4,0 0.5,4.5 0,5.8 0,2.3 -4,0.7 0,-8.8 z"
           class="st13"
           id="XMLID_744_" />
        <path
           style="fill:#f58020"
           d="m 2182.6,422 5.4,9.2 -4.1,0 -13.1,0 0,-3.1 11.2,0 -10.6,-18.2 4.1,0 4.9,8.5 3.6,-8.5 4.1,0 -5.5,12.1 z"
           class="st13"
           id="XMLID_742_" />
        <path
           style="fill:#f58020"
           d="m 2200.1,429 c 1.4,-0.2 2.5,-0.5 2.9,-1.3 0.5,-0.7 0.7,-1.6 0.7,-3.1 l 0,-14.9 10.3,0 c 2,0 3.6,0.5 4.7,1.8 1.1,1.1 1.8,2.9 1.8,5.4 l 0,14.2 -4.1,0 0,-14.4 c 0,-1.3 -0.4,-2.3 -0.9,-2.9 -0.5,-0.5 -1.4,-0.9 -2.5,-0.9 l -5.2,0 0,11.3 c 0,2.5 -0.5,4.3 -1.8,5.4 -1.1,1.1 -3.1,1.8 -5.8,2.2 l 0,-2.8 z"
           class="st13"
           id="XMLID_741_" />
        <path
           style="fill:#f58020"
           d="m 2225.4,428.1 6.1,0 0,-11.9 c 0,-1.1 -0.2,-1.8 -0.7,-2.3 -0.4,-0.5 -1.1,-0.7 -2,-0.9 l -2.5,-0.4 0.5,-3.1 4,0.5 c 1.4,0.2 2.7,0.9 3.6,2 0.9,1.1 1.3,2.5 1.3,4.1 l 0,15.1 -10.3,0 0,-3.1 z"
           class="st13"
           id="XMLID_739_" />
        <path
           style="fill:#f58020"
           d="m 2241.6,414.3 -0.5,-4.5 4,0 0.5,4.5 0,5.8 0,2.3 -4,0.7 0,-8.8 z"
           class="st13"
           id="XMLID_738_" />
        <path
           style="fill:#f58020"
           d="m 2251.5,428.1 6.8,0 c 1.8,0 3.1,-0.5 4.1,-1.6 1.1,-1.1 1.4,-2.7 1.4,-4.7 l 0,-2.5 c 0,-2 -0.4,-3.6 -1.3,-4.7 -0.9,-1.1 -2,-1.6 -3.6,-1.6 l -3.4,0 -0.9,3.8 c -0.2,0.5 -0.2,1.1 -0.2,1.4 0,0.7 0.2,1.4 0.7,1.8 0.4,0.4 1.1,0.7 2.2,0.9 l -0.7,2.7 c -2,-0.2 -3.4,-0.5 -4.3,-1.4 -0.9,-0.9 -1.4,-2.2 -1.4,-3.6 0,-0.7 0,-1.4 0.2,-2 l 1.4,-6.5 7.2,0 c 2.5,0 4.5,0.9 5.9,2.5 1.4,1.6 2.2,4 2.2,7 l 0,2.2 c 0,3.2 -0.9,5.6 -2.5,7.2 -1.6,1.6 -3.8,2.5 -6.5,2.5 l -7.7,0 0,-3.4 0.4,0 z"
           class="st13"
           id="XMLID_737_" />
        <g
           id="XMLID_649_">
          <path
             style="fill:#f58020"
             d="m 2084.3,389.3 c -2.9,2 -6.9,3.1 -12.1,3.2 l -2.2,-18.8 -0.4,-3.1 11.1,0 c 2.4,0 4.2,0.7 5.5,2.1 1.3,1.4 2,3.3 2.1,5.8 l 0,1.2 c 0.2,4.4 -1.1,7.6 -4,9.6 z m -2,-3 c 1.4,-1.4 2.1,-3.6 2,-6.7 l 0,-1 c 0,-1.4 -0.3,-2.6 -1,-3.5 -0.7,-0.9 -1.7,-1.3 -2.9,-1.3 l -6.3,0 1.7,15.1 c 2.9,-0.3 5.1,-1.2 6.5,-2.6 z"
             class="st13"
             id="XMLID_733_" />
          <path
             style="fill:#f58020"
             d="m 2093,375.1 -0.5,-4.5 4.1,0 0.5,4.5 0,5.8 0,2.4 -4.1,0.8 0,-9 z"
             class="st13"
             id="XMLID_731_" />
          <path
             style="fill:#f58020"
             d="m 2102.2,375.1 -0.5,-4.5 4.1,0 0.5,4.5 0,5.8 0,2.4 -4.1,0.8 0,-9 z"
             class="st13"
             id="XMLID_729_" />
          <path
             style="fill:#f58020"
             d="m 2110.7,381.3 0.6,-2.6 3.5,0 0,21.1 -4.1,0 0,-18.5 z m 6.9,7.7 c 1.3,-0.1 2.3,-0.4 3.2,-0.9 0.9,-0.5 1.5,-1.3 2.1,-2.4 0.5,-1.1 0.9,-2.6 1,-4.6 l 0.6,-7.4 -13.6,0 0,-3.1 18,0 -0.2,2.8 -0.5,6.8 c -0.2,3.8 -1.1,6.7 -2.8,8.8 -1.7,2.1 -4.1,3.2 -7.3,3.3 l -0.5,-3.3 z"
             class="st13"
             id="XMLID_726_" />
          <path
             style="fill:#f58020"
             d="m 2133.2,375.1 -0.5,-4.5 4.1,0 0.5,4.5 0,17.1 -4.1,0 0,-17.1 z"
             class="st13"
             id="XMLID_697_" />
          <path
             style="fill:#f58020"
             d="m 2156.6,392.2 -8.1,-12.2 -3.8,12.2 -3.9,0 4.2,-13.2 1.1,-2.7 -3.5,-5.6 4.2,0 3.2,5.2 3.2,4.8 1,-3.3 2,-6.7 4,0 -4.5,13.6 5.3,8 -4.4,0 z"
             class="st13"
             id="XMLID_695_" />
          <path
             style="fill:#f58020"
             d="m 2164.9,375.1 -0.5,-4.5 4.1,0 0.5,4.5 0,17.1 -4.1,0 0,-17.1 z"
             class="st13"
             id="XMLID_693_" />
          <path
             style="fill:#f58020"
             d="m 2190.1,388.6 c -3.1,2.7 -7.8,4 -14.1,3.9 l -2.8,-22 3.9,0 1.2,10.2 c 1.4,-0.7 2.4,-1.6 2.9,-2.7 0.5,-1.1 0.8,-2.8 0.8,-5.1 l 0,-2.4 3.9,0 0,2.3 c -0.1,2.8 -0.6,5.1 -1.7,6.8 -1.1,1.7 -2.9,3.1 -5.5,4.1 l 0.6,5.2 c 3.9,-0.3 6.7,-1.4 8.5,-3.5 1.8,-2 2.7,-5 2.7,-8.9 l -0.1,-6.1 4.1,0 0,5.9 c 0.2,5.6 -1.3,9.6 -4.4,12.3 z"
             class="st13"
             id="XMLID_691_" />
          <path
             style="fill:#f58020"
             d="m 2206.3,381.7 0.6,-2.6 3.5,0 0,13 -4.1,0 0,-10.4 z m 13,-4.1 c 0,-1.4 -0.3,-2.3 -0.9,-2.9 -0.6,-0.6 -1.4,-0.9 -2.6,-0.9 l -9.4,0 0,-3.1 10.5,0 c 2,0 3.6,0.6 4.8,1.7 1.2,1.2 1.7,3 1.7,5.5 l 0,14.4 -4.1,0 0,-14.7 z"
             class="st13"
             id="XMLID_688_" />
          <path
             style="fill:#f58020"
             d="m 2245.3,389.6 c -1.6,2 -3.8,3 -6.8,3 -1.1,0 -2.2,-0.1 -3.3,-0.4 l 0.4,-3.1 c 1,0.2 1.8,0.3 2.5,0.3 1.9,0 3.4,-0.7 4.3,-2 0.9,-1.4 1.3,-3.3 1.3,-6 0,-2.8 -0.4,-4.8 -1.3,-6 -0.9,-1.2 -2.1,-1.8 -3.7,-1.8 -1.2,0 -2.2,0.4 -3,1.1 -0.8,0.7 -1.3,1.6 -1.6,2.8 l -2.6,14.7 -4.1,0 2.8,-14.9 -3,-6.7 4.3,0 1.7,4.5 c 0.5,-1.6 1.4,-2.8 2.5,-3.6 1.1,-0.8 2.4,-1.2 3.8,-1.2 2.6,0 4.6,0.9 6,2.7 1.4,1.8 2.2,4.6 2.2,8.4 0,3.5 -0.8,6.3 -2.4,8.2 z"
             class="st13"
             id="XMLID_686_" />
          <path
             style="fill:#f58020"
             d="m 2268.1,388.6 c -3.1,2.7 -7.8,4 -14.1,3.9 l -2.8,-22 3.9,0 1.2,10.2 c 1.4,-0.7 2.4,-1.6 2.9,-2.7 0.5,-1.1 0.8,-2.8 0.8,-5.1 l 0,-2.4 3.9,0 0,2.3 c -0.1,2.8 -0.6,5.1 -1.7,6.8 -1.1,1.7 -2.9,3.1 -5.5,4.1 l 0.6,5.2 c 3.9,-0.3 6.7,-1.4 8.5,-3.5 1.8,-2 2.7,-5 2.7,-8.9 l -0.1,-6.1 4.1,0 0,5.9 c 0.2,5.6 -1.3,9.6 -4.4,12.3 z"
             class="st13"
             id="XMLID_675_" />
          <path
             style="fill:#f58020"
             d="m 2286.4,377.6 c 0,-1.4 -0.3,-2.3 -0.9,-2.9 -0.6,-0.6 -1.4,-0.9 -2.6,-0.9 l -7.1,0 0,-3.1 8.1,0 c 2,0 3.6,0.6 4.8,1.7 1.2,1.2 1.7,3 1.7,5.5 l 0,14.4 -4.1,0 0,-14.7 z"
             class="st13"
             id="XMLID_670_" />
          <path
             style="fill:#f58020"
             d="m 2295,381.7 0.6,-2.6 3.5,0 0,13 -4.1,0 0,-10.4 z m 13,-4.1 c 0,-1.4 -0.3,-2.3 -0.9,-2.9 -0.6,-0.6 -1.4,-0.9 -2.6,-0.9 l -9.4,0 0,-3.1 10.5,0 c 2,0 3.6,0.6 4.8,1.7 1.2,1.2 1.7,3 1.7,5.5 l 0,14.4 -4.1,0 0,-14.7 z"
             class="st13"
             id="XMLID_651_" />
        </g>
      </g>
    </g>
  </g>
</svg>
