<?xml version="1.0" encoding="UTF-8" standalone="no"?>
<svg
   xmlns:dc="http://purl.org/dc/elements/1.1/"
   xmlns:cc="http://creativecommons.org/ns#"
   xmlns:rdf="http://www.w3.org/1999/02/22-rdf-syntax-ns#"
   xmlns:svg="http://www.w3.org/2000/svg"
   xmlns="http://www.w3.org/2000/svg"
   width="41.712444mm"
   height="20.065994mm"
   viewBox="0 0 147.8 71.099979"
   id="svg4573"
   version="1.1">
  <defs
     id="defs4575" />
  <metadata
     id="metadata4578">
    <rdf:RDF>
      <cc:Work
         rdf:about="">
        <dc:format>image/svg+xml</dc:format>
        <dc:type
           rdf:resource="http://purl.org/dc/dcmitype/StillImage" />
        <dc:title></dc:title>
      </cc:Work>
    </rdf:RDF>
  </metadata>
  <g
     id="layer1"
     transform="translate(-283.24286,-573.95508)">
    <g
       id="g4625">
      <path
         style="fill:#d29839;fill-opacity:1"
         d="m 369.64286,618.95506 c 0,6.9 -12.5,26.1 -12.5,26.1 0,0 -12.5,-18.9 -12.5,-26.1 0,-6.9 5.6,-12.5 12.5,-12.5 6.9,-0.2 12.5,5.4 12.5,12.5"
         class="st4267"
         id="path307_2_" />
      <g
         id="g4611">
        <rect
           id="rect901_3_"
           x="283.24286"
           y="573.95508"
           class="st4259"
           width="147.8"
           height="29"
           style="fill:#401225" />
        <g
           id="g269"
           transform="translate(-677.35712,21.955063)">
          <path
             class="st4270"
             d="m 979.8,561.2 c 0.8,0.8 1.2,1.9 1.2,3.5 l 0,9.5 -3.6,0 -7.8,0 -0.7,0 0,-14.1 3.6,0 4.3,0 c 1.2,0 2.3,0.4 3,1.1 z m -2.4,10.4 0,-7 c 0,-1.2 -0.6,-1.8 -1.7,-1.8 l -3.3,0 0,8.8 5,0 z"
             id="path271"
             style="fill:#ffffff" />
          <path
             class="st4270"
             d="m 984.4,563 -0.3,-2.9 3.6,0 0.3,2.9 0,3.9 0,1.6 -3.5,0.6 0,-6.1 z"
             id="path273"
             style="fill:#ffffff" />
          <path
             class="st4270"
             d="m 990.8,571.6 3.6,0 0,-7.2 c 0,-0.6 -0.1,-1 -0.3,-1.3 -0.2,-0.2 -0.6,-0.4 -1,-0.5 l -1.7,-0.2 0.4,-2.6 3.1,0.4 c 1,0.1 1.8,0.6 2.3,1.3 0.5,0.7 0.8,1.7 0.8,2.8 l 0,9.9 -7.2,0 0,-2.6 z"
             id="path275"
             style="fill:#ffffff" />
          <path
             class="st4270"
             d="m 1000.7,571.6 4,0 c 1,0 1.7,-0.3 2.1,-0.9 0.5,-0.6 0.7,-1.5 0.7,-2.5 l 0,-1.9 c 0,-1.1 -0.2,-1.9 -0.7,-2.5 -0.5,-0.6 -1.2,-0.9 -2.1,-0.9 l -4,0 0,-2.7 4.9,0 c 1.8,0 3.1,0.6 4,1.7 0.9,1.1 1.4,2.7 1.4,4.6 l 0,1.5 c 0,2 -0.5,3.5 -1.4,4.6 -0.9,1.1 -2.3,1.7 -4,1.7 l -4.9,0 0,-2.7 z"
             id="path277"
             style="fill:#ffffff" />
          <path
             class="st4270"
             d="m 1014.1,563 -0.3,-2.9 3.6,0 0.3,2.9 0,11.2 -3.6,0 0,-11.2 z"
             id="path279"
             style="fill:#ffffff" />
          <path
             class="st4270"
             d="m 1026.1,565.7 c 0,-0.6 0.1,-1.2 0.2,-1.7 0.1,-0.5 0.3,-0.9 0.5,-1.2 l -6.3,0 0,-2.7 11.6,0 0,2.7 -1.9,0 c -0.3,0.7 -0.5,1.7 -0.5,2.9 l 0,8.6 -3.6,0 0,-8.6 z"
             id="path281"
             style="fill:#ffffff" />
          <path
             class="st4270"
             d="m 1051.5,561.2 c 0.8,0.8 1.2,1.9 1.2,3.5 l 0,9.5 -3.6,0 -7.8,0 -0.7,0 0,-14.1 3.6,0 4.3,0 c 1.2,0 2.2,0.4 3,1.1 z m -2.4,10.4 0,-7 c 0,-1.2 -0.6,-1.8 -1.7,-1.8 l -3.3,0 0,8.8 5,0 z"
             id="path283"
             style="fill:#ffffff" />
          <path
             class="st4270"
             d="m 1066.8,561.3 c 0.8,0.8 1.2,2 1.2,3.6 l 0,9.4 -3.6,0 0,-9.5 c 0,-1.3 -0.6,-1.9 -1.7,-1.9 l -3.3,0 0,11.5 -3.6,0 0,-12.5 0,-1.6 7.9,0 c 1.3,-0.2 2.4,0.2 3.1,1 z"
             id="path285"
             style="fill:#ffffff" />
          <path
             class="st4270"
             d="m 1070.3,572.2 c 0.6,-0.1 1.1,-0.2 1.4,-0.4 0.3,-0.2 0.5,-0.4 0.6,-0.8 0.1,-0.4 0.2,-0.8 0.1,-1.4 l 0,-9.6 7.5,0 c 1.3,0 2.4,0.4 3.1,1.1 0.8,0.8 1.1,1.9 1.1,3.5 l 0,9.5 -3.6,0 0,-9.7 c 0,-1.2 -0.6,-1.8 -1.7,-1.8 l -2.9,0 0,6.5 c 0,1.3 -0.2,2.3 -0.6,3 -0.4,0.7 -1,1.3 -1.8,1.7 -0.8,0.4 -1.8,0.6 -3.2,0.7 l 0,-2.3 z"
             id="path287"
             style="fill:#ffffff" />
          <path
             class="st4270"
             d="m 1099.6,572.6 c -1.1,1.3 -2.6,2 -4.5,2 -0.7,0 -1.5,-0.1 -2.3,-0.3 l 0.3,-2.7 c 0.6,0.1 1.1,0.2 1.5,0.2 1.1,0 1.9,-0.4 2.4,-1.1 0.5,-0.8 0.7,-1.9 0.7,-3.3 0,-1.6 -0.2,-2.8 -0.7,-3.6 -0.5,-0.7 -1.2,-1.1 -2.1,-1.1 -0.7,0 -1.2,0.2 -1.7,0.6 -0.5,0.4 -0.7,0.9 -0.9,1.6 l -1.5,9.4 -3.6,0 1.7,-9.5 -2,-4.6 3.7,0 1,2.8 c 0.3,-1 0.9,-1.8 1.6,-2.3 0.7,-0.5 1.5,-0.8 2.4,-0.8 1.8,0 3.1,0.6 4,1.8 0.9,1.2 1.4,3 1.4,5.5 0.2,2.3 -0.4,4.1 -1.4,5.4 z"
             id="path289"
             style="fill:#ffffff" />
        </g>
      </g>
    </g>
  </g>
</svg>
