<?xml version="1.0" encoding="UTF-8" standalone="no"?>
<svg
   xmlns:dc="http://purl.org/dc/elements/1.1/"
   xmlns:cc="http://creativecommons.org/ns#"
   xmlns:rdf="http://www.w3.org/1999/02/22-rdf-syntax-ns#"
   xmlns:svg="http://www.w3.org/2000/svg"
   xmlns="http://www.w3.org/2000/svg"
   width="242.8"
   height="163.89992"
   viewBox="0 0 242.79999 163.89992"
   id="svg4582"
   version="1.1">
  <defs
     id="defs4584" />
  <metadata
     id="metadata4587">
    <rdf:RDF>
      <cc:Work
         rdf:about="">
        <dc:format>image/svg+xml</dc:format>
        <dc:type
           rdf:resource="http://purl.org/dc/dcmitype/StillImage" />
        <dc:title></dc:title>
      </cc:Work>
    </rdf:RDF>
  </metadata>
  <path
     id="path1011_2_"
     class="st6"
     d="m 141.19989,122.69991 c 0,11 -19.8,41.2 -19.8,41.2 0,0 -19.8,-29.9 -19.8,-41.2 0,-11 8.8,-19.8 19.8,-19.8 11,0 19.8,8.8 19.8,19.8"
     style="fill:#c52036" />
  <rect
     id="rect863_2_"
     x="-7.6293945e-006"
     y="0"
     class="st6"
     width="242.10001"
     height="93.400002"
     style="fill:#c52036" />
  <g
     transform="translate(-1910.3,-857.9001)"
     id="g730">
    <path
       class="st21"
       d="m 1951.2,877 14.4,0 0,18 -14.4,0 0,-18 z m 11.5,15.7 0,-13.4 -8.7,0 0,13.4 8.7,0 z"
       id="path732"
       style="fill:#ffffff" />
    <path
       class="st21"
       d="m 1972.4,879.3 -3.3,0 0,-2.3 6.1,0 0,10 -2.8,0 0,-7.7 z"
       id="path734"
       style="fill:#ffffff" />
    <path
       class="st21"
       d="m 1987.9,882.4 c 0,-1 -0.3,-1.8 -0.9,-2.3 -0.6,-0.6 -1.4,-0.8 -2.4,-0.8 l -6.1,0 0,-2.3 6.1,0 c 1.2,0 2.3,0.2 3.2,0.7 0.9,0.4 1.6,1.1 2.1,1.9 0.5,0.8 0.7,1.9 0.7,3 l 0,12.4 -2.8,0 0,-12.6 z"
       id="path736"
       style="fill:#ffffff" />
    <path
       class="st21"
       d="m 1997.2,879.3 -3.3,0 0,-2.3 6.1,0 0,10 -2.8,0 0,-7.7 z"
       id="path738"
       style="fill:#ffffff" />
    <path
       class="st21"
       d="m 2006.7,879.3 -3.3,0 0,-2.3 6.1,0 0,10 -2.8,0 0,-7.7 z"
       id="path740"
       style="fill:#ffffff" />
    <path
       class="st21"
       d="m 2022.6,886.7 4.8,6.9 0,1.4 -13.4,0 0,-2.3 9.7,0 -10.8,-15.7 3.2,0 4.8,7.2 4,-7.2 3.2,0 -5.5,9.7 z"
       id="path742"
       style="fill:#ffffff" />
    <path
       class="st21"
       d="m 2052.3,878.7 c 1.2,1.1 1.8,2.9 1.8,5.2 l 0,11.1 -2.8,0 0,-11.3 c 0,-1.6 -0.3,-2.7 -1,-3.4 -0.7,-0.7 -1.7,-1.1 -3.2,-1.1 l -2.6,0 c -0.3,0.5 -0.6,1.3 -0.8,2.1 -0.2,0.9 -0.3,1.7 -0.3,2.7 l 0,6.1 c 0,1.7 -0.4,2.9 -1.2,3.8 -0.8,0.9 -1.9,1.3 -3.4,1.3 -0.4,0 -1,0 -1.8,-0.1 l 0,-2.3 c 0.3,0 0.7,0.1 1.1,0.1 0.9,0 1.5,-0.2 1.9,-0.7 0.4,-0.5 0.6,-1.2 0.6,-2.2 l 0,-5.7 c 0,-0.9 0.1,-1.9 0.4,-2.8 0.2,-0.9 0.6,-1.7 1,-2.2 l -3.4,0 0,-2.3 8.4,0 c 2.4,0 4.1,0.6 5.3,1.7 z"
       id="path744"
       style="fill:#ffffff" />
    <path
       class="st21"
       d="m 2066.6,882.4 c 0,-1 -0.3,-1.8 -0.9,-2.3 -0.6,-0.6 -1.4,-0.8 -2.4,-0.8 l -6.1,0 0,-2.3 6.1,0 c 1.2,0 2.3,0.2 3.2,0.7 0.9,0.4 1.6,1.1 2.1,1.9 0.5,0.8 0.7,1.9 0.7,3 l 0,12.4 -2.8,0 0,-12.6 z"
       id="path746"
       style="fill:#ffffff" />
    <path
       class="st21"
       d="m 2087.1,877 0,2.3 -3,0 0,15.7 -2.8,0 0,-15.7 -8.6,0 0,-2.3 14.4,0 z"
       id="path748"
       style="fill:#ffffff" />
    <path
       class="st21"
       d="m 2093.6,891.8 c 1,0.4 2,0.7 3.1,1 1.1,0.3 2.1,0.4 3.1,0.4 1.5,0 2.8,-0.2 3.9,-0.6 1.1,-0.4 2.1,-1.1 2.7,-1.9 0.7,-0.9 1,-1.9 1,-3.2 l 0,-10.5 2.8,0 0,10.7 c 0,1.7 -0.5,3.1 -1.4,4.3 -0.9,1.2 -2.1,2 -3.7,2.6 -1.5,0.6 -3.3,0.9 -5.2,0.9 -1.5,0 -3,-0.2 -4.6,-0.5 -1.6,-0.4 -3.1,-0.9 -4.5,-1.6 l 0,-16.4 2.8,0 0,14.8 z m 5.2,-3.4 c 0.2,-0.7 0.3,-1.5 0.3,-2.4 l 0,-9 2.8,0 0,8.5 c 0,1 -0.1,1.9 -0.4,2.7 -0.3,0.8 -0.6,1.4 -1.2,2 l -2.4,-0.1 c 0.4,-0.5 0.7,-1 0.9,-1.7 z"
       id="path750"
       style="fill:#ffffff" />
    <path
       class="st21"
       d="m 1944.3,914.5 14.4,0 0,18 -14.4,0 0,-18 z m 11.5,15.8 0,-13.4 -8.7,0 0,13.4 8.7,0 z"
       id="path752"
       style="fill:#ffffff" />
    <path
       class="st21"
       d="m 1965.5,916.8 -3.3,0 0,-2.3 6.1,0 0,10 -2.8,0 0,-7.7 z"
       id="path754"
       style="fill:#ffffff" />
    <path
       class="st21"
       d="m 1971.8,932.5 0.1,-2.2 c 0.7,0.1 1.4,0.2 2.2,0.2 0.8,0 1.5,-0.2 1.9,-0.7 0.4,-0.5 0.6,-1.2 0.6,-2.2 l 0,-10.7 -3.5,0 0,-2.3 6.4,0 0,13.3 c 0,1.7 -0.4,2.9 -1.2,3.8 -0.8,0.9 -2,1.3 -3.5,1.3 -1.1,-0.1 -2,-0.3 -3,-0.5 z"
       id="path756"
       style="fill:#ffffff" />
    <path
       class="st21"
       d="m 1983.4,932 0.5,-2.1 c 1.6,0.4 3.1,0.7 4.3,0.7 1.7,0 3,-0.4 3.9,-1.2 0.9,-0.8 1.3,-2 1.3,-3.6 l 0,-8.9 -9.4,0 0,-2.3 12.2,0 0,10.6 c 0,2.5 -0.7,4.5 -2,5.8 -1.4,1.3 -3.2,1.9 -5.7,1.9 -1.5,-0.1 -3.2,-0.4 -5.1,-0.9 z"
       id="path758"
       style="fill:#ffffff" />
    <path
       class="st21"
       d="m 2002.6,916.8 -2.1,0 0,-2.3 4.9,0 0,18 -2.8,0 0,-15.7 z"
       id="path760"
       style="fill:#ffffff" />
    <path
       class="st21"
       d="m 2023.6,914.5 0,2.3 -3,0 0,15.7 -2.8,0 0,-15.7 -8.6,0 0,-2.3 14.4,0 z"
       id="path762"
       style="fill:#ffffff" />
    <path
       class="st21"
       d="m 2035.1,914.5 14.4,0 0,18 -14.4,0 0,-18 z m 11.5,15.8 0,-13.4 -8.7,0 0,13.4 8.7,0 z"
       id="path764"
       style="fill:#ffffff" />
    <path
       class="st21"
       d="m 2055,914.5 6.8,0 c 2.4,0 4.2,0.6 5.3,1.7 1.1,1.1 1.8,2.9 1.8,5.2 l 0,11.1 -2.8,0 0,-11.3 c 0,-1.6 -0.3,-2.7 -1,-3.4 -0.7,-0.7 -1.8,-1.1 -3.2,-1.1 l -4,0 0,15.7 -2.8,0 -0.1,-17.9 z"
       id="path766"
       style="fill:#ffffff" />
    <path
       class="st21"
       d="m 2086.7,916.3 c 1.2,1.1 1.8,2.9 1.8,5.2 l 0,11.1 -2.8,0 0,-11.3 c 0,-1.6 -0.3,-2.7 -1,-3.4 -0.7,-0.7 -1.7,-1.1 -3.2,-1.1 l -2.6,0 c -0.3,0.5 -0.6,1.3 -0.8,2.1 -0.2,0.9 -0.3,1.7 -0.3,2.7 l 0,6.1 c 0,1.7 -0.4,2.9 -1.2,3.8 -0.8,0.9 -1.9,1.3 -3.4,1.3 -0.4,0 -1,0 -1.8,-0.1 l 0,-2.3 c 0.3,0 0.7,0.1 1.1,0.1 0.9,0 1.5,-0.2 1.9,-0.7 0.4,-0.5 0.6,-1.2 0.6,-2.2 l 0,-5.7 c 0,-0.9 0.1,-1.9 0.4,-2.8 0.2,-0.9 0.6,-1.7 1,-2.2 l -3.4,0 0,-2.3 8.4,0 c 2.3,-0.1 4.1,0.5 5.3,1.7 z"
       id="path768"
       style="fill:#ffffff" />
    <path
       class="st21"
       d="m 2094.7,921.1 c 0.1,-0.8 0.3,-1.6 0.7,-2.4 0.4,-0.8 0.8,-1.3 1.3,-1.7 0,0 0.1,-0.1 0.3,-0.2 l 0,0 c -0.5,0.1 -1,0.2 -1.7,0.4 -0.7,0.2 -1.3,0.4 -1.9,0.6 l -0.7,-2.1 c 1.2,-0.4 2.5,-0.7 4,-1 1.5,-0.3 2.8,-0.4 4,-0.4 2.4,0 4.3,0.6 5.6,1.9 1.3,1.3 1.9,3.2 1.9,5.7 l 0,10.7 -7.4,0 0,-2.3 4.6,0 0,-8.8 c 0,-1.6 -0.4,-2.8 -1.1,-3.7 -0.7,-0.9 -1.8,-1.3 -3.1,-1.3 -1,0 -1.8,0.4 -2.5,1.1 -0.7,0.8 -1.1,1.8 -1.2,3.1 l -1.4,11.7 -2.8,0 1.4,-11.3 z"
       id="path770"
       style="fill:#ffffff" />
    <path
       class="st21"
       d="m 2114.2,916.8 -2.1,0 0,-2.3 4.9,0 0,18 -2.8,0 0,-15.7 z"
       id="path772"
       style="fill:#ffffff" />
  </g>
</svg>
