<?xml version="1.0" encoding="UTF-8" standalone="no"?>
<svg
   xmlns:dc="http://purl.org/dc/elements/1.1/"
   xmlns:cc="http://creativecommons.org/ns#"
   xmlns:rdf="http://www.w3.org/1999/02/22-rdf-syntax-ns#"
   xmlns:svg="http://www.w3.org/2000/svg"
   xmlns="http://www.w3.org/2000/svg"
   id="svg248"
   version="1.1"
   viewBox="0 0 44.820676 36.11827"
   height="136.50999"
   width="169.40099">
  <defs
     id="defs242" />
  <metadata
     id="metadata245">
    <rdf:RDF>
      <cc:Work
         rdf:about="">
        <dc:format>image/svg+xml</dc:format>
        <dc:type
           rdf:resource="http://purl.org/dc/dcmitype/StillImage" />
        <dc:title></dc:title>
      </cc:Work>
    </rdf:RDF>
  </metadata>
  <g
     transform="translate(-73.595746,-147.40515)"
     id="layer1">
    <g
       transform="matrix(1.0475894,0,0,1.0545,12.827706,-9.3045168)"
       id="g371">
      <path
         style="fill:#ec2426;stroke-width:0.19261441"
         d="m 84.646486,172.07555 c 0,2.88922 -5.246818,10.78641 -5.246818,10.78641 0,0 -5.244888,-7.91068 -5.244888,-10.78641 a 5.2468167,5.2468167 0 0 1 10.491706,0"
         class="cls-4"
         id="path471" />
      <path
         style="isolation:isolate;fill:#fbf2de;stroke-width:0.19261441"
         d="m 79.403519,174.74134 a 2.6966019,2.6966019 0 1 1 2.696604,-2.69661 2.6966019,2.6966019 0 0 1 -2.696604,2.69661 m 0,-5.96142 a 3.2975588,3.2975588 0 1 0 3.297563,3.29563 3.3052634,3.3052634 0 0 0 -3.297563,-3.29563 m 0,2.88921 a 0.44301316,0.44301316 0 0 0 -0.412189,0.41028 v 1.21154 a 0.41219485,0.41219485 0 0 0 0.824385,0 v -1.20962 a 0.42182557,0.42182557 0 0 0 -0.412196,-0.41027 m 0,-1.26355 a 0.41219485,0.41219485 0 1 0 0.412196,0.41027 0.42182557,0.42182557 0 0 0 -0.412196,-0.41604"
         class="cls-9"
         id="path473" />
    </g>
    <g
       transform="matrix(0.26458333,0,0,0.26458333,-277.56983,83.571777)"
       id="g320">
      <rect
         id="rect311_8_"
         x="1337.98"
         y="241.25999"
         class="st2"
         width="147.91"
         height="34.580002"
         style="fill:#ec2426" />
      <rect
         id="rect311_12_"
         x="1327.24"
         y="266.95999"
         class="st2"
         width="169.39999"
         height="34.580002"
         style="fill:#ec2426" />
      <g
         id="g318">
        <path
           class="st8"
           d="m 1349.38,252.86 h -1.35 v -2.19 h 4.11 v 17.67 h -2.75 v -15.48 z"
           id="path268"
           style="fill:#ffffff" />
        <path
           class="st8"
           d="m 1356.83,252.86 h -2.21 v -2.19 h 5.01 v 7.39 h -2.79 v -5.2 z"
           id="path270"
           style="fill:#ffffff" />
        <path
           class="st8"
           d="m 1373.06,250.67 v 7.66 c 0,1.23 -0.25,2.27 -0.76,3.12 -0.51,0.85 -1.23,1.5 -2.15,1.94 -0.92,0.44 -1.99,0.66 -3.21,0.66 -1.62,0 -3.27,-0.31 -4.94,-0.94 l 0.62,-2.06 c 1.2,0.46 2.28,0.73 3.24,0.84 -0.26,-0.26 -0.5,-0.57 -0.69,-0.91 -0.2,-0.35 -0.34,-0.72 -0.43,-1.11 l -2.09,-9.2 h 2.81 l 2.01,9.43 c 0.15,0.68 0.33,1.22 0.56,1.64 0.72,-0.23 1.28,-0.62 1.67,-1.17 0.39,-0.55 0.59,-1.26 0.59,-2.12 v -7.78 z"
           id="path272"
           style="fill:#ffffff" />
        <path
           class="st8"
           d="m 1377.75,252.86 h -2.21 v -2.19 h 5.01 v 7.39 h -2.79 v -5.2 z"
           id="path274"
           style="fill:#ffffff" />
        <path
           class="st8"
           d="m 1393.82,250.67 v 2.19 h -2.25 v 10.9 h -2.8 v -10.9 h -5.86 v -2.19 z"
           id="path276"
           style="fill:#ffffff" />
        <path
           class="st8"
           d="m 1396.83,252.86 h -1.32 v -2.19 h 4.12 v 13.09 h -2.8 z"
           id="path278"
           style="fill:#ffffff" />
        <path
           class="st8"
           d="m 1404.23,255.94 c 0.07,-0.59 0.23,-1.16 0.48,-1.69 0.25,-0.53 0.53,-0.95 0.86,-1.25 0.05,-0.05 0.11,-0.1 0.19,-0.14 l -0.02,-0.04 c -0.3,0.05 -0.68,0.14 -1.12,0.26 -0.44,0.12 -0.84,0.24 -1.18,0.37 l -0.62,-2.05 c 0.85,-0.31 1.83,-0.56 2.93,-0.74 1.1,-0.19 2.13,-0.28 3.08,-0.28 1.89,0 3.32,0.49 4.31,1.47 0.99,0.98 1.48,2.42 1.49,4.32 v 7.59 h -5.57 v -2.19 h 2.77 v -5.76 c 0,-1.01 -0.22,-1.79 -0.65,-2.33 -0.43,-0.54 -1.05,-0.81 -1.86,-0.81 -0.66,0 -1.2,0.26 -1.61,0.77 -0.41,0.51 -0.67,1.24 -0.77,2.17 l -0.87,8.15 h -2.76 z"
           id="path280"
           style="fill:#ffffff" />
        <path
           class="st8"
           d="m 1433.28,251.92 c 0.87,0.83 1.3,2.07 1.3,3.73 v 8.11 h -2.78 l -0.01,-8.31 c 0,-0.9 -0.19,-1.55 -0.57,-1.96 -0.38,-0.41 -0.98,-0.62 -1.8,-0.62 h -1.77 c -0.17,0.4 -0.3,0.88 -0.41,1.43 -0.1,0.55 -0.15,1.09 -0.15,1.62 v 4.06 c 0,1.27 -0.32,2.24 -0.96,2.92 -0.64,0.68 -1.54,1.02 -2.72,1.02 -0.45,0 -0.94,-0.04 -1.49,-0.12 v -2.19 c 0.26,0.02 0.5,0.03 0.74,0.03 0.58,0 1.01,-0.15 1.29,-0.45 0.28,-0.3 0.42,-0.77 0.42,-1.41 v -3.62 c 0,-0.57 0.08,-1.16 0.23,-1.78 0.15,-0.61 0.37,-1.12 0.64,-1.51 H 1423 v -2.19 h 6.39 c 1.72,-0.01 3.02,0.41 3.89,1.24 z"
           id="path282"
           style="fill:#ffffff" />
        <path
           class="st8"
           d="m 1447.71,250.67 v 2.19 h -2.25 v 10.9 h -2.8 v -10.9 h -5.86 v -2.19 z"
           id="path284"
           style="fill:#ffffff" />
        <path
           class="st8"
           d="m 1451.14,255.94 c 0.07,-0.59 0.23,-1.16 0.48,-1.69 0.25,-0.53 0.53,-0.95 0.86,-1.25 0.05,-0.05 0.11,-0.1 0.19,-0.14 l -0.02,-0.04 c -0.3,0.05 -0.68,0.14 -1.12,0.26 -0.44,0.12 -0.84,0.24 -1.18,0.37 l -0.62,-2.05 c 0.85,-0.31 1.83,-0.56 2.93,-0.74 1.1,-0.19 2.13,-0.28 3.08,-0.28 1.89,0 3.32,0.49 4.31,1.47 0.99,0.98 1.48,2.42 1.49,4.32 v 7.59 h -5.57 v -2.19 h 2.77 v -5.76 c 0,-1.01 -0.22,-1.79 -0.65,-2.33 -0.43,-0.54 -1.05,-0.81 -1.86,-0.81 -0.66,0 -1.2,0.26 -1.61,0.77 -0.41,0.51 -0.67,1.24 -0.77,2.17 l -0.87,8.15 h -2.76 z"
           id="path286"
           style="fill:#ffffff" />
        <path
           class="st8"
           d="m 1474.83,250.67 v 7.66 c 0,1.23 -0.25,2.27 -0.76,3.12 -0.51,0.85 -1.23,1.5 -2.15,1.94 -0.92,0.44 -1.99,0.66 -3.21,0.66 -1.62,0 -3.27,-0.31 -4.94,-0.94 l 0.62,-2.06 c 1.2,0.46 2.28,0.73 3.24,0.84 -0.26,-0.26 -0.5,-0.57 -0.69,-0.91 -0.2,-0.35 -0.34,-0.72 -0.43,-1.11 l -2.09,-9.2 h 2.81 l 2.01,9.43 c 0.15,0.68 0.33,1.22 0.56,1.64 0.72,-0.23 1.28,-0.62 1.67,-1.17 0.39,-0.55 0.59,-1.26 0.59,-2.12 v -7.78 z"
           id="path288"
           style="fill:#ffffff" />
        <path
           class="st8"
           d="m 1343.3,279.91 h -2.21 v -2.19 h 5.01 v 7.39 h -2.79 v -5.2 z"
           id="path290"
           style="fill:#ffffff" />
        <path
           class="st8"
           d="m 1352.28,290.3 c -0.86,-0.51 -1.53,-1.22 -2.01,-2.14 -0.48,-0.92 -0.73,-1.98 -0.74,-3.18 v -1.05 c -0.01,-0.48 0.06,-0.98 0.2,-1.5 0.14,-0.52 0.33,-0.99 0.57,-1.41 0.24,-0.43 0.5,-0.76 0.78,-1 0.05,-0.04 0.1,-0.08 0.15,-0.12 l -0.02,-0.04 c -0.23,0.04 -0.53,0.1 -0.91,0.19 -0.38,0.09 -0.73,0.19 -1.06,0.28 l -0.54,-2.06 c 0.87,-0.26 1.87,-0.46 3,-0.62 1.13,-0.16 2.18,-0.24 3.15,-0.24 1.28,0 2.38,0.24 3.3,0.72 0.92,0.48 1.62,1.18 2.1,2.1 0.48,0.92 0.72,2.03 0.72,3.33 v 1.42 c 0,1.2 -0.24,2.26 -0.71,3.18 -0.48,0.92 -1.15,1.63 -2.01,2.14 -0.87,0.51 -1.86,0.76 -2.99,0.76 -1.14,0 -2.12,-0.25 -2.98,-0.76 z m 4.5,-2.03 c 0.44,-0.31 0.79,-0.75 1.03,-1.31 0.25,-0.56 0.37,-1.22 0.37,-1.96 v -1.39 c 0,-1.23 -0.26,-2.18 -0.79,-2.86 -0.53,-0.68 -1.27,-1.02 -2.21,-1.02 -0.88,0 -1.57,0.35 -2.08,1.06 -0.51,0.71 -0.77,1.7 -0.78,2.98 V 285 c 0,0.74 0.12,1.39 0.37,1.96 0.25,0.57 0.59,1 1.03,1.31 0.44,0.31 0.95,0.47 1.53,0.47 0.57,0 1.08,-0.16 1.53,-0.47 z"
           id="path292"
           style="fill:#ffffff" />
        <path
           class="st8"
           d="m 1364.18,290.96 c -0.36,-0.04 -0.75,-0.11 -1.19,-0.21 l 0.03,-2.12 c 0.5,0.08 1.03,0.12 1.61,0.12 0.55,0 0.96,-0.15 1.23,-0.46 0.27,-0.31 0.41,-0.79 0.41,-1.43 v -6.95 h -2.42 v -2.19 h 5.21 v 9.36 c 0,1.26 -0.33,2.24 -0.98,2.92 -0.65,0.69 -1.57,1.03 -2.76,1.03 -0.4,0 -0.78,-0.02 -1.14,-0.07 z"
           id="path294"
           style="fill:#ffffff" />
        <path
           class="st8"
           d="m 1371.73,290.47 0.44,-2.06 c 1.14,0.28 2.14,0.42 3.02,0.42 1.13,-0.01 1.98,-0.28 2.54,-0.81 0.56,-0.53 0.84,-1.29 0.84,-2.31 v -5.8 h -6.34 v -2.19 h 9.14 v 7.46 c 0,1.97 -0.52,3.43 -1.55,4.39 -1.03,0.96 -2.47,1.44 -4.31,1.44 -1.13,0 -2.39,-0.18 -3.78,-0.54 z"
           id="path296"
           style="fill:#ffffff" />
        <path
           class="st8"
           d="m 1390.48,280.01 -0.84,-0.18 v -2.11 h 6.85 l -0.01,2.19 h -3.26 l 1.73,10.9 h -2.87 z"
           id="path298"
           style="fill:#ffffff" />
        <path
           class="st8"
           d="m 1400.05,279.91 h -2.21 v -2.19 h 5.01 v 7.39 h -2.79 v -5.2 z"
           id="path300"
           style="fill:#ffffff" />
        <path
           class="st8"
           d="m 1407.36,279.91 h -2.21 v -2.19 h 5.01 v 7.39 h -2.79 v -5.2 z"
           id="path302"
           style="fill:#ffffff" />
        <path
           class="st8"
           d="m 1423.42,277.72 v 2.19 h -2.25 v 10.9 h -2.8 v -10.9 h -5.86 v -2.19 z"
           id="path304"
           style="fill:#ffffff" />
        <path
           class="st8"
           d="m 1426.01,290.96 c -0.36,-0.04 -0.75,-0.11 -1.19,-0.21 l 0.03,-2.12 c 0.5,0.08 1.03,0.12 1.61,0.12 0.55,0 0.96,-0.15 1.23,-0.46 0.27,-0.31 0.41,-0.79 0.41,-1.43 v -6.95 h -2.42 v -2.19 h 5.21 v 9.36 c 0,1.26 -0.33,2.24 -0.98,2.92 -0.65,0.69 -1.57,1.03 -2.76,1.03 -0.41,0 -0.79,-0.02 -1.14,-0.07 z"
           id="path306"
           style="fill:#ffffff" />
        <path
           class="st8"
           d="m 1434.43,275.47 c 0.37,-0.77 0.86,-1.39 1.45,-1.88 l 1.38,0.86 c -0.33,0.49 -0.58,0.99 -0.75,1.51 -0.17,0.51 -0.26,1.08 -0.26,1.69 v 1.53 h -2.38 v -1.52 c 0,-0.69 0.19,-1.42 0.56,-2.19 z"
           id="path308"
           style="fill:#ffffff" />
        <path
           class="st8"
           d="m 1446.03,284.91 3.17,4.59 v 1.31 h -10.04 v -2.2 h 6.45 l -7.4,-10.89 h 3.13 l 3.05,4.75 2.41,-4.75 h 3.14 z"
           id="path310"
           style="fill:#ffffff" />
        <path
           class="st8"
           d="m 1457.37,281.94 c 0,-0.64 -0.18,-1.14 -0.55,-1.49 -0.37,-0.36 -0.88,-0.53 -1.55,-0.53 h -4.16 v -2.19 h 4.31 c 0.98,0 1.83,0.17 2.54,0.52 0.71,0.35 1.26,0.85 1.63,1.51 0.38,0.66 0.57,1.44 0.57,2.35 v 8.71 h -2.8 v -8.88 z"
           id="path312"
           style="fill:#ffffff" />
        <path
           class="st8"
           d="m 1464.44,282.99 c 0.07,-0.59 0.23,-1.16 0.48,-1.69 0.25,-0.53 0.53,-0.95 0.86,-1.25 0.05,-0.05 0.11,-0.1 0.19,-0.14 l -0.02,-0.04 c -0.3,0.05 -0.68,0.14 -1.12,0.26 -0.44,0.12 -0.84,0.24 -1.18,0.37 l -0.62,-2.05 c 0.85,-0.31 1.83,-0.56 2.93,-0.74 1.1,-0.19 2.13,-0.28 3.08,-0.28 1.89,0 3.32,0.49 4.31,1.47 0.99,0.98 1.48,2.42 1.49,4.32 v 7.59 h -5.57 v -2.19 h 2.77 v -5.76 c 0,-1.01 -0.22,-1.79 -0.65,-2.33 -0.43,-0.54 -1.05,-0.81 -1.86,-0.81 -0.66,0 -1.2,0.26 -1.61,0.77 -0.41,0.51 -0.67,1.24 -0.77,2.17 l -0.87,8.15 h -2.76 z"
           id="path314"
           style="fill:#ffffff" />
        <path
           class="st8"
           d="m 1478.69,279.91 h -1.32 v -2.19 h 4.12 v 13.09 h -2.8 z"
           id="path316"
           style="fill:#ffffff" />
      </g>
    </g>
  </g>
</svg>
