<svg width="217.8" height="256.9" viewBox="0 0 57.626 67.971" xmlns="http://www.w3.org/2000/svg">
    <path style="fill:#3696c9;stroke-width:.26458" d="M67.74 69.892h57.282v43.127H67.74Zm34.66 55.218c0 3.386-6.191 12.753-6.191 12.753s-6.191-9.367-6.191-12.753c0-3.387 2.778-6.191 6.191-6.191 3.387 0 6.191 2.804 6.191 6.19" transform="translate(-67.396 -69.892)"/>
    <path d="M98.828 124.078c-.317 0-.555-.212-.555-.556 0-.317.211-.555.555-.555.344 0 .556.211.556.555a.543.543 0 0 1-.556.556m-1.005 1.27c-.318 0-.556-.212-.556-.556 0-.317.212-.555.556-.555.344 0 .556.211.556.555-.027.318-.291.556-.556.556m-2.09-1.032a.341.341 0 0 1-.318.318h-.714v.714a.341.341 0 0 1-.318.317h-.211a.341.341 0 0 1-.318-.317v-.714h-.714a.341.341 0 0 1-.318-.318v-.212c0-.158.16-.317.318-.317h.714v-.714c0-.16.159-.318.318-.318h.211c.16 0 .318.159.318.318v.714h.714c.159 0 .318.159.318.317zm5.16.159c-.477-2.143-1.112-2.699-1.562-2.963-.635-.318-1.455-.16-1.667 0-.317.158-.476.396-.794.555a1.356 1.356 0 0 1-1.11 0c-.212-.159-.477-.397-.874-.555-.397-.16-1.111-.397-1.825.052-.16.053-1.35 1.112-1.667 4.128-.212 1.905.793 2.46.793 2.46.212.16.874.477 1.667 0 .556-.317.953-1.031.953-1.031s.158-.397.476-.556c.159-.053.476 0 .476 0h.953s.317 0 .555.053c.212.053.318.317.318.317s.635.794 1.27 1.27c.211.16 1.35.397 1.825-.211.37-.344.582-1.694.212-3.52" style="fill:#fff;stroke-width:.26458" transform="translate(-67.396 -69.892)"/>
    <path d="M761.5 1587.7c0-.7.1-1.3.2-1.8s.3-.9.4-1.1c.2-.3.3-.4.4-.5h3.9c-.1.8-.2 1.8-.2 2.8v6h-4.7zm8.8-4.9c0-.5-.2-.9-.5-1.2-.3-.3-.8-.4-1.3-.4h-6.9v-3.8h7.2c1.3 0 2.5.2 3.4.7 1 .5 1.7 1.1 2.2 2 .5.9.8 1.9.8 3v10h-4.9zm9.4-1.6h-2.3v-3.8h7.2v9.1h-4.9zm9.7 0h-2.3v-3.8h7.2v9.1h-4.9zm14.7 8.2c1-.1 1.7-.3 2.2-.9.5-.5.7-1.4.7-2.5v-4.9h-8.8v-3.8H812v8.6c0 2.3-.7 4-2 5.2-1.4 1.2-3.3 1.9-5.8 2v-3.7zm-5.8-1.6c0-.7.1-1.3.2-1.8s.3-.9.4-1.1c.2-.3.3-.4.4-.5h3.9c-.1.7-.2 1.7-.2 2.8v11.3h-4.7zm17.7-10.4h7.3c2 0 3.6.5 4.7 1.5s1.6 2.5 1.6 4.4v9.8h-4.9v-10.2c0-.5-.1-1-.4-1.2-.2-.3-.6-.4-1-.4h-2.4v11.9H816Zm22 11.4c.7.3 1.5.5 2.3.7.8.2 1.6.3 2.3.3 1.9 0 3.3-.4 4.4-1.2 1.1-.8 1.6-2 1.6-3.6v-7.6h4.8v8.2c0 1.7-.5 3.2-1.4 4.4-.9 1.2-2.2 2.1-3.8 2.7-1.6.6-3.4.9-5.3.9-1.5 0-3.1-.2-4.8-.6-1.7-.4-3.2-.9-4.7-1.6v-14.1h4.7zm2.7-2.5c.1-.6.1-1.3.1-1.9v-7h4.8v6c0 .9-.1 1.7-.3 2.6-.2.8-.5 1.4-.8 1.9h-4c0-.5.1-.9.2-1.6zm17.3-1.5c.1-.7.2-1.4.5-2 .2-.6.5-1.1.9-1.5.1-.1.1-.1.2-.1v-.1c-.3.1-.7.1-1.1.3-.4.1-.8.2-1 .4l-1-3.5c1-.4 2.2-.7 3.6-.9 1.4-.2 2.7-.4 4-.4 2.5 0 4.4.6 5.7 1.9 1.3 1.3 2 3.1 2 5.6v8.7h-7.1v-3.8h2.2v-5.6c0-.9-.2-1.6-.5-2.1s-.8-.8-1.3-.8c-.7 0-1.2.3-1.5.8-.3.5-.6 1.3-.7 2.4l-.8 9h-4.9zm-76.3 34.7H780v-1.9h4.2v15.3h-2.4zm5.1 13.4v-2.2c.2 0 .5.1.8.1 1.2 0 2.3-.4 3-1.1.8-.7 1.3-1.7 1.5-2.8v-7.3h-3.5v-1.9h5.8v7.9c0 .8.1 1.6.2 2.3l1.1 5.1h-2.3l-.9-4.3h-.1c-.1.8-.4 1.5-.9 2.2-.5.7-1.1 1.2-1.8 1.6-.7.4-1.5.6-2.4.6-.2-.1-.4-.1-.5-.2zm29.7-13.9c1 1 1.5 2.4 1.5 4.4v9.4h-2.4v-9.6c0-1.3-.3-2.3-.9-2.9-.6-.6-1.5-.9-2.7-.9h-2.2c-.3.5-.5 1.1-.7 1.8-.2.7-.3 1.5-.3 2.3v5.2c0 1.4-.3 2.5-1 3.2-.7.7-1.6 1.1-2.9 1.1-.4 0-.9 0-1.5-.1v-1.9c.3 0 .6.1.9.1.8 0 1.3-.2 1.6-.6.3-.4.5-1 .5-1.8v-4.8c0-.8.1-1.6.3-2.4.2-.8.5-1.4.9-1.9h-2.9v-1.9h7.1c2.2-.1 3.7.3 4.7 1.3zm4.3 13.8.1-1.9c.6.1 1.2.2 1.9.2s1.2-.2 1.6-.6c.4-.4.5-1 .5-1.9v-9.1h-3v-1.9h5.4v11.3c0 1.4-.3 2.5-1 3.2-.7.7-1.7 1.1-3 1.1-.8-.1-1.7-.2-2.5-.4zm12.4-13.3h-2.8v-1.9h5.2v8.5h-2.4zm9.6 13.4c-.9-.1-1.7-.4-2.6-.6l.5-1.8c.8.2 1.5.4 2.3.5.8.1 1.5.2 2.1.2 1.4 0 2.5-.4 3.3-1.1.8-.7 1.2-1.7 1.2-3v-7.6h-6.1c-.3.5-.5 1.1-.7 1.8-.2.7-.3 1.5-.3 2.2v1.2c.2.1.4.1.8.2.3 0 .7.1 1.3.1v2.1c-1.1 0-1.9-.1-2.5-.2-.6-.1-1.2-.4-1.8-.7l-.1-2c0-.9.1-1.7.3-2.6.2-.8.5-1.5.9-2.1h-1.9v-1.9H852v9c0 1.4-.3 2.6-.8 3.6-.6 1-1.3 1.7-2.3 2.2-1 .5-2.2.7-3.5.7-.8 0-1.7 0-2.6-.2zm-85.4 16.6h5.8c2 0 3.5.5 4.5 1.4 1 1 1.5 2.4 1.5 4.4v9.4h-2.4v-9.6c0-1.3-.3-2.3-.9-2.9-.6-.6-1.5-.9-2.8-.9h-3.4v13.4h-2.4zm16.8 1.9h-1.8v-1.9h4.2v15.3h-2.4zm17.5-.4-5.6 13.8h-2.6l5.5-13.4h-9v-6.6h2.4v4.7h9.2zm11.1.4H800v-1.9h5.2v8.5h-2.4zm12 11.5c.9 0 1.6-.2 2.2-.6.6-.4 1.1-.9 1.5-1.5.4-.6.5-1.4.5-2.3v-7.1h-9.4v-1.9h11.9v9c0 1.3-.3 2.4-.8 3.3-.6.9-1.3 1.7-2.3 2.2-1 .5-2.2.8-3.5.8v-1.9zm-4.9-3.8c0-.8.1-1.4.2-1.8.1-.5.3-.9.5-1.4h2c-.1.4-.2.8-.2 1.3s-.1 1.1-.1 1.8v11.3H810Zm16.3-9.6h5.8c2 0 3.5.5 4.5 1.4 1 1 1.5 2.4 1.5 4.4v9.4h-2.4v-9.6c0-1.3-.3-2.3-.9-2.9-.6-.6-1.5-.9-2.8-.9h-3.4v13.4h-2.4zm18.5 12.6c.8.4 1.7.6 2.6.8.9.2 1.8.3 2.6.3 1.2 0 2.4-.2 3.3-.5 1-.4 1.7-.9 2.3-1.6.6-.7.8-1.6.8-2.7v-8.8h2.3v9.1c0 1.4-.4 2.7-1.2 3.6-.8 1-1.8 1.7-3.1 2.2-1.3.5-2.8.7-4.4.7-1.3 0-2.6-.1-3.9-.4-1.3-.3-2.6-.7-3.8-1.3v-13.9h2.3v12.5zm4.4-2.9c.2-.6.2-1.3.2-2.1v-7.6h2.4v7.2c0 .9-.1 1.7-.3 2.3-.2.7-.5 1.2-1 1.7l-2-.1c.3-.4.5-.8.7-1.4zm15.4-4.1c.1-.7.3-1.4.6-2 .3-.6.7-1.1 1.1-1.4 0 0 .1-.1.3-.2-.4.1-.9.2-1.5.3-.6.2-1.1.3-1.6.5l-.6-1.8c1-.3 2.1-.6 3.4-.8 1.3-.2 2.4-.3 3.4-.3 2.1 0 3.6.5 4.7 1.6s1.6 2.7 1.6 4.8v9.1h-6.3v-1.9h3.9v-7.5c0-1.4-.3-2.4-.9-3.1-.6-.7-1.5-1.1-2.7-1.1-.8 0-1.5.3-2.1 1-.6.6-.9 1.5-1 2.6l-1.2 10h-2.4z" style="fill:#fffffd" transform="translate(-187.058 -411.686) scale(.26458)"/>
    <path d="M769.1 1687.2c0-.9-.3-1.7-.8-2.2-.6-.5-1.3-.8-2.3-.8h-5.8v-2.2h5.9c1.2 0 2.2.2 3.1.6.9.4 1.5 1 2 1.9.5.9.7 1.8.7 2.9v11.8h-2.7v-12zm8.4-3h-2v-2.2h4.7v17.3h-2.7zm9.3 0h-3.2v-2.2h5.9v9.6h-2.7zm15.2 7.1 4.6 6.6v1.4h-12.8v-2.2h9.3l-10.3-15.1h3.1l4.6 6.9 3.8-6.9h3.1zm28.6-7.7c1.1 1.1 1.7 2.7 1.7 5v10.6h-2.7v-10.8c0-1.5-.3-2.6-1-3.3-.7-.7-1.7-1-3.1-1H823c-.3.5-.6 1.2-.8 2-.2.8-.3 1.7-.3 2.5v5.8c0 1.6-.4 2.8-1.1 3.6-.7.8-1.8 1.2-3.3 1.2-.4 0-1 0-1.7-.1v-2.2c.3 0 .6.1 1 .1.8 0 1.5-.2 1.9-.7.4-.5.6-1.1.6-2.1v-5.4c0-.9.1-1.8.4-2.7.2-.9.6-1.6 1-2.1h-3.2v-2.2h8c2.2.2 3.9.7 5.1 1.8zm4.8 15.6.1-2.1c.6.1 1.3.2 2.1.2s1.4-.2 1.8-.7c.4-.5.6-1.2.6-2.1v-10.3h-3.4v-2.2h6.1v12.7c0 1.6-.4 2.8-1.2 3.6-.8.8-1.9 1.2-3.4 1.2-.8 0-1.8-.1-2.7-.3zm13.9-15h-3.2v-2.2h5.9v9.6h-2.7zm10.9 15.1c-1-.2-2-.4-2.9-.7l.5-2c.9.3 1.7.5 2.6.6.9.1 1.7.2 2.4.2 1.6 0 2.8-.4 3.7-1.2.9-.8 1.3-1.9 1.3-3.4v-8.5h-6.9c-.3.5-.6 1.2-.8 2-.2.8-.3 1.6-.3 2.5v1.3c.2.1.5.2.9.2s.8.1 1.4.1v2.3c-1.2 0-2.2-.1-2.9-.2-.7-.1-1.4-.4-2.1-.8l-.1-2.2c0-1 .1-2 .4-2.9.3-.9.6-1.7 1-2.3h-2.1v-2.2h14.1v10.2c0 1.6-.3 3-1 4.1-.6 1.1-1.5 1.9-2.6 2.5-1.1.5-2.4.8-3.9.8-.7-.2-1.7-.3-2.7-.4z" style="fill:#fff" transform="translate(-187.058 -411.686) scale(.26458)"/>
</svg>
