<?xml version="1.0" encoding="UTF-8" standalone="no"?>
<svg
   xmlns:dc="http://purl.org/dc/elements/1.1/"
   xmlns:cc="http://creativecommons.org/ns#"
   xmlns:rdf="http://www.w3.org/1999/02/22-rdf-syntax-ns#"
   xmlns:svg="http://www.w3.org/2000/svg"
   xmlns="http://www.w3.org/2000/svg"
   id="svg10172"
   version="1.1"
   viewBox="0 0 70.080176 36.144731"
   height="136.61"
   width="264.86996">
  <defs
     id="defs10166">
    <clipPath
       id="clip-path-11">
      <rect
         class="cls-1"
         x="2523.3401"
         y="796.76001"
         width="43.310001"
         height="29.700001"
         id="rect25"
         style="fill:none" />
    </clipPath>
  </defs>
  <metadata
     id="metadata10169">
    <rdf:RDF>
      <cc:Work
         rdf:about="">
        <dc:format>image/svg+xml</dc:format>
        <dc:type
           rdf:resource="http://purl.org/dc/dcmitype/StillImage" />
        <dc:title></dc:title>
      </cc:Work>
    </rdf:RDF>
  </metadata>
  <g
     transform="translate(-56.428826,-104.30264)"
     id="layer1">
    <g
       id="g5062"
       transform="matrix(0.26458333,0,0,0.26458333,-581.74352,-89.570799)">
      <path
         id="path395"
         class="cls-4"
         d="m 2571.66,813.36 c 0,15 -27.23,56 -27.23,56 0,0 -27.24,-41.07 -27.24,-56 a 27.32,27.32 0 0 1 27.24,-27.24 c 15.11,0.43 27.23,12.26 27.23,27.24"
         style="fill:#2ca5e8;fill-opacity:1" />
      <rect
         id="rect309"
         class="cls-4"
         x="2412"
         y="732.75"
         width="264.85999"
         height="45.349998"
         style="fill:#ec2426" />
      <path
         class="cls-13"
         d="m 2438.59,755.6 a 6,6 0 0 1 0.73,1.57 6.57,6.57 0 0 1 0.22,1.74 v 11 h -4.72 v -11.53 a 3.06,3.06 0 0 0 -0.13,-0.88 3.3,3.3 0 0 0 -0.44,-0.85 l -7.72,-11.44 h 5.54 l 3.6,6 2.72,-6 h 5.61 z"
         id="path801"
         style="fill:#fffffd" />
      <path
         class="cls-13"
         d="m 2453,751.49 a 2.38,2.38 0 0 0 -0.67,-1.81 2.79,2.79 0 0 0 -1.94,-0.62 h -5.48 v -3.85 h 5.84 a 8.92,8.92 0 0 1 3.88,0.78 5.52,5.52 0 0 1 2.48,2.24 6.88,6.88 0 0 1 0.86,3.52 v 11.81 h -5 z"
         id="path803"
         style="fill:#fffffd" />
      <path
         class="cls-13"
         d="m 2462.65,749.06 h -1.56 v -3.85 h 6.54 v 18.35 h -5 z"
         id="path805"
         style="fill:#fffffd" />
      <path
         class="cls-13"
         d="m 2472.76,749.06 h -1.55 v -3.85 h 6.54 v 18.35 h -5 z"
         id="path807"
         style="fill:#fffffd" />
      <path
         class="cls-13"
         d="m 2487.48,759 a 16.27,16.27 0 0 0 2.79,0.88 12.44,12.44 0 0 0 2.77,0.34 8.7,8.7 0 0 0 5.25,-1.41 4.93,4.93 0 0 0 1.94,-4.28 v -9.36 h 4.77 v 9.93 a 7.84,7.84 0 0 1 -1.56,4.94 9.45,9.45 0 0 1 -4.24,3 16.86,16.86 0 0 1 -6,1 25.22,25.22 0 0 1 -10.58,-2.42 v -16.5 h 4.8 z m 3.73,-3 a 17.26,17.26 0 0 0 0.15,-2.34 v -8.45 h 4.82 v 7.39 a 11,11 0 0 1 -0.37,2.93 5.58,5.58 0 0 1 -1,2.12 h -4 a 6.33,6.33 0 0 0 0.4,-1.65 z"
         id="path809"
         style="fill:#fffffd" />
      <path
         class="cls-13"
         d="m 2517.79,745.21 h 15.72 v 18.35 h -15.72 z m 10.76,14.48 v -10.63 h -5.8 v 10.63 z"
         id="path811"
         style="fill:#fffffd" />
      <path
         class="cls-13"
         d="m 2538.67,749.06 h -1.56 v -3.85 h 6.54 v 18.35 h -5 z"
         id="path813"
         style="fill:#fffffd" />
      <path
         class="cls-13"
         d="m 2549.71,749.06 h -2.84 v -3.85 h 7.81 v 10.48 h -5 z"
         id="path815"
         style="fill:#fffffd" />
      <path
         class="cls-13"
         d="m 2565.58,751.49 a 2.38,2.38 0 0 0 -0.67,-1.81 2.8,2.8 0 0 0 -1.95,-0.62 h -5.47 v -3.85 h 5.84 a 8.92,8.92 0 0 1 3.88,0.78 5.52,5.52 0 0 1 2.48,2.24 6.87,6.87 0 0 1 0.85,3.52 v 11.81 h -5 z"
         id="path817"
         style="fill:#fffffd" />
      <path
         class="cls-13"
         d="m 2575.24,749.06 h -1.56 v -3.85 h 6.54 v 18.35 h -5 z"
         id="path820"
         style="fill:#fffffd" />
      <path
         class="cls-13"
         d="m 2589,762.93 a 7.06,7.06 0 0 1 -2.84,-2.79 8.42,8.42 0 0 1 -1,-4.16 v -10.77 h 5 v 11.35 a 4.43,4.43 0 0 0 0.38,1.87 3,3 0 0 0 5.4,0 4.43,4.43 0 0 0 0.38,-1.87 v -5.21 a 2.68,2.68 0 0 0 -0.5,-1.76 2,2 0 0 0 -1.55,-0.58 8.32,8.32 0 0 0 -1.62,0.21 l -0.45,-3.17 a 8.49,8.49 0 0 1 1.89,-0.77 7.48,7.48 0 0 1 1.91,-0.28 5.42,5.42 0 0 1 2.82,0.71 4.62,4.62 0 0 1 1.81,2.06 7.44,7.44 0 0 1 0.63,3.19 v 5 a 8.42,8.42 0 0 1 -1,4.16 7,7 0 0 1 -2.83,2.79 9.36,9.36 0 0 1 -8.42,0 z"
         id="path822"
         style="fill:#fffffd" />
      <path
         class="cls-13"
         d="m 2606.34,749.06 h -2.84 v -3.85 h 7.8 v 10.48 h -5 z"
         id="path824"
         style="fill:#fffffd" />
      <path
         class="cls-13"
         d="m 2630.42,745.21 v 3.85 h -3.24 v 14.5 h -5 v -14.5 h -7.69 v -3.85 z"
         id="path826"
         style="fill:#fffffd" />
      <path
         class="cls-13"
         d="m 2634.15,749.06 h -1.56 v -3.85 h 6.55 v 18.35 h -5 z"
         id="path828"
         style="fill:#fffffd" />
      <path
         class="cls-13"
         d="m 2656.08,755.86 5.32,7.7 h -5.53 l -6.71,-9.7 a 2.57,2.57 0 0 0 -0.41,1.51 v 8.19 H 2644 v -6 a 9,9 0 0 1 0.78,-4.08 5.18,5.18 0 0 1 2.51,-2.37 l -4,-5.86 h 5.54 l 4.33,6.25 3,-6.25 h 5.56 z"
         id="path830"
         style="fill:#fffffd" />
      <g
         class="cls-27"
         clip-path="url(#clip-path-11)"
         id="g1093">
        <path
           class="cls-9"
           d="m 2556.84,817.58 -4.22,-15.78 -0.29,-1 a 2.17,2.17 0 0 0 -4.27,0.47 l -22.9,12.43 a 1.06,1.06 0 0 0 -1,-0.28 1.09,1.09 0 0 0 -0.77,1.34 l 0.42,1.57 0.85,3.16 0.42,1.58 a 1.08,1.08 0 0 0 2.08,0 h 1.74 a 5.83,5.83 0 0 0 5.73,4.82 5.92,5.92 0 0 0 1.52,-0.2 5.77,5.77 0 0 0 4.25,-4.93 l 12.8,-0.33 a 2.17,2.17 0 0 0 3.93,-1.73 z m -19.63,5 a 3.64,3.64 0 0 1 -6.1,-1.63 l 7.08,-0.19 a 3.65,3.65 0 0 1 -1,1.82 z m -8.44,-5.93 20.35,-11 2.8,10.43 z m 0,0"
           id="path1091"
           style="isolation:isolate;fill:#fbf2de" />
      </g>
      <path
         class="cls-9"
         d="m 2560.07,809.38 5.26,-1.4 a 1.0915242,1.0915242 0 0 0 -0.56,-2.11 l -5.26,1.41 a 1.09,1.09 0 0 0 0.56,2.1 z m 0,0"
         id="path1095"
         style="isolation:isolate;fill:#fbf2de" />
      <g
         class="cls-27"
         clip-path="url(#clip-path-11)"
         id="g1101">
        <path
           class="cls-9"
           d="m 2565.48,816.26 -5.26,-1.41 a 1.09,1.09 0 0 0 -0.56,2.1 l 5.26,1.41 a 1.06,1.06 0 0 0 0.56,0 1.09,1.09 0 0 0 0,-2.1 z m 0,0"
           id="path1097"
           style="isolation:isolate;fill:#fbf2de" />
        <path
           class="cls-9"
           d="m 2556.42,802.75 a 0.94,0.94 0 0 0 0.48,-0.28 l 3.85,-3.85 a 1.08,1.08 0 0 0 0,-1.54 1.1,1.1 0 0 0 -1.54,0 l -3.85,3.85 a 1.09,1.09 0 0 0 1.06,1.82 z m 0,0"
           id="path1099"
           style="isolation:isolate;fill:#fbf2de" />
      </g>
    </g>
  </g>
</svg>
