<?xml version="1.0" encoding="UTF-8" standalone="no"?>
<!-- Created with Inkscape (http://www.inkscape.org/) -->

<svg
   width="115.6"
   height="177.80453"
   viewBox="0 0 30.585448 47.043524"
   version="1.1"
   id="svg2792"
   xmlns="http://www.w3.org/2000/svg"
   xmlns:svg="http://www.w3.org/2000/svg">
  <defs
     id="defs2789" />
  <g
     id="layer1"
     transform="translate(-101.79234,-124.26243)">
    <g
       id="g1677"
       transform="matrix(0.26458,0,0,0.26458,-214.40722,-341.23842)">
      <path
         id="path659_1_"
         d="m 1310.7,1817.2 c 0,32.1 -57.8,120 -57.8,120 0,0 -57.8,-87.9 -57.8,-120 0,-32.1 26.1,-57.8 57.8,-57.8 31.9,-0.4 57.8,25.7 57.8,57.8"
         style="fill:#a22442;fill-opacity:1" />
      <g
         id="g252">
        <path
           d="m 1225.6,1784.5 h 13.4 v 15.6 h -13.4 z m 9.2,12.3 v -9 h -4.9 v 9 z"
           id="path236"
           style="fill:#fffffd" />
        <path
           d="m 1254.7,1787.2 -5.1,12.9 h -4.5 l 5.1,-12.3 h -8.3 v -7.6 h 4.2 v 4.4 h 8.6 z"
           id="path238"
           style="fill:#fffffd" />
        <path
           d="m 1257.9,1787.7 h -1.3 v -3.3 h 5.6 v 15.6 h -4.2 v -12.3 z"
           id="path240"
           style="fill:#fffffd" />
        <path
           d="m 1276.6,1793.5 4.5,6.5 h -4.7 l -5.7,-8.2 c -0.2,0.3 -0.4,0.8 -0.4,1.3 v 7 h -4.1 v -5.1 c 0,-1.4 0.2,-2.6 0.7,-3.5 0.4,-0.9 1.2,-1.5 2.1,-2 l -3.4,-5 h 4.7 l 3.7,5.3 2.5,-5.3 h 4.7 z"
           id="path242"
           style="fill:#fffffd" />
        <path
           d="m 1224.1,1819.7 h -2.4 v -3.3 h 6.6 v 8.9 h -4.2 z"
           id="path244"
           style="fill:#fffffd" />
        <path
           d="m 1236.5,1828.1 c 0.7,0.3 1.5,0.6 2.4,0.8 0.9,0.2 1.6,0.3 2.4,0.3 1.9,0 3.4,-0.4 4.5,-1.2 1.1,-0.8 1.6,-2 1.6,-3.6 v -8 h 4.1 v 8.4 c 0,1.7 -0.4,3.1 -1.3,4.2 -0.9,1.1 -2.1,2 -3.6,2.6 -1.5,0.6 -3.2,0.9 -5.1,0.9 -1.5,0 -3,-0.2 -4.6,-0.5 -1.6,-0.4 -3,-0.9 -4.4,-1.5 v -14 h 4.1 v 11.6 z m 3.1,-2.5 c 0.1,-0.6 0.1,-1.3 0.1,-2 v -7.2 h 4.1 v 6.3 c 0,0.9 -0.1,1.7 -0.3,2.5 -0.2,0.8 -0.5,1.4 -0.8,1.8 h -3.4 c 0.1,-0.4 0.2,-0.8 0.3,-1.4 z"
           id="path246"
           style="fill:#fffffd" />
        <path
           d="m 1265.8,1825.4 4.5,6.5 h -4.7 l -5.7,-8.2 c -0.2,0.3 -0.4,0.8 -0.4,1.3 v 7 h -4.1 v -5.1 c 0,-1.4 0.2,-2.6 0.7,-3.5 0.4,-0.9 1.2,-1.5 2.1,-2 l -3.4,-5 h 4.7 l 3.7,5.3 2.5,-5.3 h 4.7 z"
           id="path248"
           style="fill:#fffffd" />
        <path
           d="m 1278.7,1821.7 c 0,-0.7 -0.2,-1.2 -0.6,-1.5 -0.4,-0.4 -0.9,-0.5 -1.6,-0.5 h -4.7 v -3.3 h 5 c 1.3,0 2.4,0.2 3.3,0.7 0.9,0.4 1.6,1.1 2.1,1.9 0.5,0.8 0.7,1.8 0.7,3 v 10 h -4.2 z"
           id="path250"
           style="fill:#fffffd" />
      </g>
    </g>
  </g>
</svg>
