<svg width="180.6" height="134.7" viewBox="0 0 47.783 35.639" xmlns="http://www.w3.org/2000/svg">
    <path d="M92.792 114.914s-5.291-7.963-5.291-10.847c0-2.91 2.381-5.292 5.291-5.292 2.91 0 5.292 2.381 5.292 5.292m0 0c0 2.91-5.292 10.847-5.292 10.847m-2.645-35.639h26.537V96.42H90.147Z" style="fill:#0b608c;stroke-width:.26458;fill-opacity:1" transform="translate(-68.9 -79.275)"/>
    <path d="M93.56 89.038h3.545v4.128H93.56zm2.407 3.255v-2.381h-1.296v2.38zm2.487-2.381h-.634v-.874h1.746v2.355h-1.112zm4.445 1.455.9 1.323v.502h-3.28v-.873h1.851l-2.196-3.254h1.244l.82 1.323.609-1.323h1.243zm2.7 1.825a5.444 5.444 0 0 1-.768-.185l.212-.82c.211.053.45.106.661.132.238.027.423.053.582.053.318 0 .582-.08.74-.211.16-.133.239-.344.239-.635v-1.614h-1.19c-.053.132-.08.264-.106.37-.027.106-.027.238-.027.37v.186c.106.026.238.026.344.026v.74a2.316 2.316 0 0 1-.423.054c-.186 0-.37-.027-.556-.053a1.77 1.77 0 0 1-.45-.185v-.37c0-.212.027-.424.08-.636a1.84 1.84 0 0 1 .185-.502h-.423v-.874h3.677v2.329c0 .423-.08.794-.264 1.085a1.646 1.646 0 0 1-.715.635 2.473 2.473 0 0 1-1.032.211c-.211-.026-.476-.053-.767-.106zm3.915-4.154h1.826c.529 0 .952.133 1.217.397.264.265.423.662.423 1.164v2.567h-1.111v-2.672c0-.397-.186-.609-.53-.609h-.714v3.28h-1.111zM96.84 83.085c.29.265.423.662.423 1.165v2.566h-1.111v-2.672c0-.397-.186-.609-.53-.609h-.529c-.026.132-.053.265-.079.424-.027.158-.027.29-.027.423v1.164c0 .291-.052.53-.158.714a1 1 0 0 1-.424.45 1.392 1.392 0 0 1-.687.159c-.16 0-.344-.027-.53-.053v-.873h.212c.318 0 .503-.185.503-.53v-.978c0-.159.026-.318.053-.476.026-.16.105-.318.158-.45h-.635v-.873h2.117c.556.053.953.185 1.244.45zm2.804 1.032c0-.185-.053-.317-.159-.397-.105-.105-.238-.132-.45-.132h-1.243v-.873h1.323c.344 0 .635.053.873.185.238.106.423.291.556.503.132.212.185.476.185.794v2.645h-1.111zm2.381-.555h-.635v-.873h1.747v2.354h-1.112zm2.408.952c.026-.185.053-.37.132-.529.08-.159.159-.291.238-.397l.053-.053v-.026c-.08.026-.185.053-.317.08-.132.026-.238.078-.318.105l-.238-.82c.265-.106.582-.185.926-.238.37-.053.688-.08 1.032-.08.635 0 1.111.159 1.455.476.318.318.503.794.503 1.43v2.328h-1.826v-.874h.688v-1.614c0-.264-.053-.476-.158-.635-.106-.158-.265-.211-.45-.211-.37 0-.582.29-.635.873l-.238 2.434h-1.112zm5.556 1.297c.185.079.397.158.635.211.238.053.423.08.635.08.503 0 .9-.106 1.19-.318.292-.212.424-.529.424-.952v-2.117h1.085v2.222c0 .45-.106.82-.344 1.112-.238.29-.556.529-.953.688a3.608 3.608 0 0 1-1.349.238 6.58 6.58 0 0 1-1.217-.133 7.518 7.518 0 0 1-1.164-.396V82.74h1.085zm.847-.688c.026-.16.026-.344.026-.53V82.69h1.085v1.666c0 .239-.026.45-.08.662a1.34 1.34 0 0 1-.211.476h-.9a2.81 2.81 0 0 0 .08-.37z" style="fill:#fffffd;stroke-width:.26458" transform="translate(-68.9 -79.275)"/>
</svg>
