<svg width="217.8" height="256.9" viewBox="0 0 57.626 67.971" xmlns="http://www.w3.org/2000/svg">
    <path style="fill:#3696c9;stroke-width:.26458" d="M63.457 98.449h57.282v43.127H63.457zm34.66 55.218c0 3.387-6.192 12.753-6.192 12.753s-6.19-9.366-6.19-12.753c0-3.386 2.777-6.191 6.19-6.191 3.387 0 6.192 2.805 6.192 6.191" transform="translate(-63.113 -98.45)"/>
    <path d="M94.545 152.635c-.318 0-.556-.211-.556-.555 0-.318.212-.556.556-.556.344 0 .555.212.555.556a.543.543 0 0 1-.555.555m-1.006 1.27c-.317 0-.555-.211-.555-.555 0-.318.211-.556.555-.556.344 0 .556.212.556.556-.026.317-.291.555-.556.555m-2.09-1.032a.341.341 0 0 1-.317.318h-.715v.714a.341.341 0 0 1-.317.318h-.212a.341.341 0 0 1-.317-.318v-.714h-.715a.341.341 0 0 1-.317-.318v-.211c0-.159.159-.318.317-.318h.715v-.714c0-.159.158-.318.317-.318h.212c.159 0 .317.16.317.318v.714h.715c.158 0 .317.159.317.318zm5.16.16c-.477-2.144-1.112-2.7-1.562-2.964-.635-.318-1.455-.159-1.666 0-.318.159-.477.397-.794.556a1.356 1.356 0 0 1-1.111 0c-.212-.16-.477-.397-.873-.556-.397-.159-1.112-.397-1.826.053-.159.053-1.35 1.111-1.667 4.127-.212 1.905.794 2.46.794 2.46.211.16.873.477 1.667 0 .555-.317.952-1.031.952-1.031s.159-.397.476-.556c.16-.053.477 0 .477 0h.952s.318 0 .556.053c.211.053.317.318.317.318s.635.794 1.27 1.27c.212.158 1.35.397 1.826-.212.37-.344.582-1.693.211-3.519" style="fill:#fff;stroke-width:.26458" transform="translate(-63.113 -98.45)"/>
    <path d="M761.5 1587.7c0-.7.1-1.3.2-1.8s.3-.9.4-1.1c.2-.3.3-.4.4-.5h3.9c-.1.8-.2 1.8-.2 2.8v6h-4.7zm8.8-4.9c0-.5-.2-.9-.5-1.2-.3-.3-.8-.4-1.3-.4h-6.9v-3.8h7.2c1.3 0 2.5.2 3.4.7 1 .5 1.7 1.1 2.2 2 .5.9.8 1.9.8 3v10h-4.9zm9.4-1.6h-2.3v-3.8h7.2v9.1h-4.9zm9.7 0h-2.3v-3.8h7.2v9.1h-4.9zm14.7 8.2c1-.1 1.7-.3 2.2-.9.5-.5.7-1.4.7-2.5v-4.9h-8.8v-3.8H812v8.6c0 2.3-.7 4-2 5.2-1.4 1.2-3.3 1.9-5.8 2v-3.7zm-5.8-1.6c0-.7.1-1.3.2-1.8s.3-.9.4-1.1c.2-.3.3-.4.4-.5h3.9c-.1.7-.2 1.7-.2 2.8v11.3h-4.7zm17.7-10.4h7.3c2 0 3.6.5 4.7 1.5s1.6 2.5 1.6 4.4v9.8h-4.9v-10.2c0-.5-.1-1-.4-1.2-.2-.3-.6-.4-1-.4h-2.4v11.9H816Zm22 11.4c.7.3 1.5.5 2.3.7.8.2 1.6.3 2.3.3 1.9 0 3.3-.4 4.4-1.2 1.1-.8 1.6-2 1.6-3.6v-7.6h4.8v8.2c0 1.7-.5 3.2-1.4 4.4-.9 1.2-2.2 2.1-3.8 2.7-1.6.6-3.4.9-5.3.9-1.5 0-3.1-.2-4.8-.6-1.7-.4-3.2-.9-4.7-1.6v-14.1h4.7zm2.7-2.5c.1-.6.1-1.3.1-1.9v-7h4.8v6c0 .9-.1 1.7-.3 2.6-.2.8-.5 1.4-.8 1.9h-4c0-.5.1-.9.2-1.6zm17.3-1.5c.1-.7.2-1.4.5-2 .2-.6.5-1.1.9-1.5.1-.1.1-.1.2-.1v-.1c-.3.1-.7.1-1.1.3-.4.1-.8.2-1 .4l-1-3.5c1-.4 2.2-.7 3.6-.9 1.4-.2 2.7-.4 4-.4 2.5 0 4.4.6 5.7 1.9 1.3 1.3 2 3.1 2 5.6v8.7h-7.1v-3.8h2.2v-5.6c0-.9-.2-1.6-.5-2.1s-.8-.8-1.3-.8c-.7 0-1.2.3-1.5.8-.3.5-.6 1.3-.7 2.4l-.8 9h-4.9z" style="fill:#fffffd" transform="translate(-187.058 -411.686) scale(.26458)"/>
    <path d="M748.2 1619.8c1.8 0 3.2.4 4.1 1.3.9.9 1.4 2.2 1.4 4v8.5h-2.2v-8.6c0-1.2-.3-2.1-.8-2.6s-1.3-.8-2.5-.8h-2c-.3.4-.5 1-.6 1.6-.1.6-.2 1.3-.2 2v4.7c0 1.3-.3 2.2-.9 2.9-.6.7-1.5 1-2.6 1h-.7c-.2 0-.4 0-.7-.1v-1.7h.8c.7 0 1.2-.2 1.5-.5.3-.3.5-.9.5-1.7v-4.4c0-.7.1-1.4.3-2.1.2-.7.4-1.3.8-1.7h-2.6v-1.7h6.4zm10 13.8v-12.1h-1.6v-1.7h3.8v13.8zm5.2-12.1v-5.9h2.2v4.2h7.5v1.7zm10.5-.4-5.1 12.4h-2.3l5.7-13.8h1.7zm3.7 12.5v-12.1H776v-1.7h3.8v13.8zm12.1.2c-1.1 0-2.2-.3-3-.8-.8-.5-1.6-1.3-2-2.2-.4-.9-.7-2.1-.8-3.3v-1.4c0-.6.1-1.2.3-1.8.2-.6.4-1.1.7-1.6.3-.5.6-.8 1-1.1l.1-.1c.1-.1.1 0 .1 0-.3 0-.7.1-1.1.2-.4.1-.9.2-1.3.4l-.4-1.6c.6-.2 1.3-.3 2-.5s1.5-.2 2.2-.3c.7-.1 1.4-.1 2.1-.1 1.3 0 2.4.3 3.3.8.9.5 1.6 1.2 2.1 2.2.5 1 .7 2.1.7 3.4v1.7c0 1.3-.2 2.4-.7 3.3-.5.9-1.2 1.7-2 2.2-.8.5-2.1.6-3.3.6zm0-1.8c.7 0 1.4-.2 1.9-.6.5-.4 1-.9 1.3-1.6.3-.7.5-1.5.5-2.4v-1.6c0-.9-.2-1.7-.5-2.4s-.7-1.2-1.3-1.6c-.6-.4-1.2-.5-2-.5-.7 0-1.3.2-1.8.6-.5.4-.9.9-1.2 1.6-.3.7-.5 1.5-.5 2.5v1.5c0 .9.2 1.7.5 2.4s.7 1.2 1.3 1.6c.6.4 1.1.5 1.8.5zm10.4 1.8c-.4 0-.8 0-1.1-.1-.3-.1-.7-.1-1.1-.2l.1-1.7c.5.1 1.1.2 1.7.2.6 0 1.1-.2 1.4-.5.3-.3.5-.9.5-1.7v-8.2h-2.7v-1.7h4.9v10.2c0 1.3-.3 2.2-.9 2.9-.6.7-1.6.8-2.8.8zm8.5-.2v-12.1H807v-1.7h3.8v13.8zm11.1 0v-1.7c1.2 0 2.1-.4 2.8-1.1.7-.7 1.1-1.6 1.1-2.8v-6.4H815v-1.7h10.7v8.1c0 1.2-.3 2.2-.8 3-.5.8-1.2 1.5-2.1 2-.9.5-1.9.5-3.1.6zm-4.4 4.8v-10.1c0-.8.1-1.4.2-1.8.1-.4.3-.8.4-1.1h1.8c-.1.4-.2.7-.2 1.2s-.1 1-.1 1.6v10.2zm20.6-4.8v-13.8h11v13.8zm2.2-1.8h6.7v-10.3h-6.7zm13.1 1.8v-13.8h5.2c1.8 0 3.2.4 4.1 1.3.9.9 1.4 2.2 1.4 4v8.5h-2.2v-8.6c0-1.2-.3-2.1-.8-2.6s-1.3-.8-2.5-.8h-3v12.1zm20.2-13.8c1.8 0 3.2.4 4.1 1.3.9.9 1.4 2.2 1.4 4v8.5h-2.2v-8.6c0-1.2-.3-2.1-.8-2.6s-1.3-.8-2.5-.8h-2c-.3.4-.5 1-.6 1.6-.1.6-.2 1.3-.2 2v4.7c0 1.3-.3 2.2-.9 2.9-.6.7-1.5 1-2.6 1h-.7c-.2 0-.4 0-.7-.1v-1.7h.8c.7 0 1.2-.2 1.5-.5.3-.3.5-.9.5-1.7v-4.4c0-.7.1-1.4.3-2.1.2-.7.4-1.3.8-1.7H865v-1.7h6.4zm9.2 13.8 1.1-8.8c.1-.6.3-1.3.6-1.8s.6-1 1-1.3l.1-.1.1-.1c-.3.1-.8.2-1.3.3-.5.1-1 .3-1.5.4l-.5-1.6c.6-.2 1.3-.4 2-.6.7-.2 1.4-.3 2.2-.4.8-.1 1.4-.1 2-.1 1.9 0 3.3.5 4.3 1.5s1.5 2.4 1.5 4.4v8.2h-5.7v-1.7h3.5v-6.7c0-1.2-.3-2.2-.8-2.8-.5-.6-1.4-1-2.4-1-.8 0-1.4.3-1.9.9-.5.6-.8 1.4-.9 2.4l-1 9h-2.4zm-127.8 22.7v-6h-2.5v-1.7h4.7v7.7zm7 6.3c-.4 0-.8 0-1.1-.1-.3-.1-.7-.1-1.1-.2l.1-1.7c.5.1 1.1.2 1.7.2.6 0 1.1-.2 1.4-.5.3-.3.5-.9.5-1.7v-8.2h-2.7v-1.7h4.9v10.2c0 1.3-.3 2.2-.9 2.9-.6.7-1.6.8-2.8.8zm7.9-.2v-13.8h5.2c1.8 0 3.2.4 4.1 1.3.9.9 1.4 2.2 1.4 4v8.5h-2.2v-8.6c0-1.2-.3-2.1-.8-2.6s-1.3-.8-2.5-.8h-3v12.1zm13.4-12.1v-5.9h2.2v4.2h7.5v1.7zm10.5-.4-5.1 12.4h-2.3l5.7-13.8h1.7zm3.7 12.5v-12.1h-1.6v-1.7h3.8v13.8zm8.5-13.8v11.4c.7.3 1.5.6 2.4.7.9.1 1.6.3 2.4.3 1.1 0 2.1-.2 3-.5.9-.3 1.6-.8 2.1-1.5s.8-1.5.8-2.5v-8h2.1v8.2c0 1-.2 1.9-.6 2.6-.4.7-1 1.4-1.7 1.9s-1.6.9-2.5 1.1c-.9.2-2 .4-3 .4-1.1 0-2.3-.1-3.5-.4-1.2-.3-2.4-.7-3.5-1.2v-12.5zm3.3 10c.3-.3.5-.7.7-1.3.2-.6.2-1.2.2-1.9v-6.9h2.1v6.5c0 .8-.1 1.5-.3 2.1-.2.6-.5 1.1-.9 1.5zm19.6 3.8v-13.8h11v13.8zm2.1-1.8h6.7v-10.3h-6.7zm13.1 1.8v-13.8h5.2c1.8 0 3.2.4 4.1 1.3.9.9 1.4 2.2 1.4 4v8.5h-2.2v-8.6c0-1.2-.3-2.1-.8-2.6s-1.3-.8-2.5-.8h-3v12.1zm20.2-13.8c1.8 0 3.2.4 4.1 1.3.9.9 1.4 2.2 1.4 4v8.5h-2.2v-8.6c0-1.2-.3-2.1-.8-2.6s-1.3-.8-2.5-.8h-2c-.3.4-.5 1-.6 1.6-.1.6-.2 1.3-.2 2v4.7c0 1.3-.3 2.2-.9 2.9-.6.7-1.5 1-2.6 1h-.7c-.2 0-.4 0-.7-.1v-1.7h.8c.7 0 1.2-.2 1.5-.5.3-.3.5-.9.5-1.7v-4.4c0-.7.1-1.4.3-2.1.2-.7.4-1.3.8-1.7h-2.6v-1.7h6.4zm9.3 13.8 1.1-8.8c.1-.6.3-1.3.6-1.8s.6-1 1-1.3l.1-.1.1-.1c-.3.1-.8.2-1.3.3-.5.1-1 .3-1.5.4l-.5-1.6c.6-.2 1.3-.4 2-.6.7-.2 1.4-.3 2.2-.4.8-.1 1.4-.1 2-.1 1.9 0 3.3.5 4.3 1.5s1.5 2.4 1.5 4.4v8.2h-5.7v-1.7h3.5v-6.7c0-1.2-.3-2.2-.8-2.8-.5-.6-1.4-1-2.4-1-.8 0-1.4.3-1.9.9-.5.6-.8 1.4-.9 2.4l-1 9h-2.4zM738 1685.1v-6h-2.5v-1.7h4.7v7.7zm11.9-7.7c1.8 0 3.2.4 4.1 1.3.9.9 1.4 2.2 1.4 4v8.5h-2.2v-8.6c0-1.2-.3-2.1-.8-2.6s-1.3-.8-2.5-.8h-2c-.3.4-.5 1-.6 1.6-.1.6-.2 1.3-.2 2v4.7c0 1.3-.3 2.2-.9 2.9-.6.7-1.5 1-2.6 1h-.7c-.2 0-.4 0-.7-.1v-1.7h.8c.7 0 1.2-.2 1.5-.5.3-.3.5-.9.5-1.7v-4.4c0-.7.1-1.4.3-2.1.2-.7.4-1.3.8-1.7h-2.6v-1.7h6.4zm15 13.8v-9.6c0-.8-.2-1.3-.7-1.8-.5-.5-1-.7-1.8-.7h-4.6v-1.7h4.7c1.4 0 2.5.4 3.4 1.1.9.7 1.2 1.8 1.2 3.2v9.5zm4.7 0v-1.8h7.5l2.2-.1 1.7.2v1.7zm7.5-.5v-8.2c0-1.2-.3-2.1-.8-2.6s-1.4-.8-2.6-.8h-3.3v-1.7h3.5c1.8 0 3.2.4 4.1 1.3.9.9 1.4 2.2 1.4 3.9v8.1zm6.5.5v-13.8h5.2c1.8 0 3.2.4 4.1 1.3.9.9 1.4 2.2 1.4 4v8.5h-2.2v-8.6c0-1.2-.3-2.1-.8-2.6s-1.3-.8-2.5-.8h-3v12.1zm28.6 0v-8.7c0-1.2-.3-2.1-.8-2.6s-1.4-.8-2.6-.8h-5v-1.7h5.1c1.8 0 3.2.4 4.1 1.3.9.9 1.4 2.2 1.4 3.9v8.6zm-8.4 0v-4.7c0-.8.1-1.4.2-1.8.1-.4.3-.8.4-1.1h1.8c-.1.4-.2.7-.2 1.2s-.1 1-.1 1.6v4.9zm19.2.2c-.7 0-1.4-.1-2.2-.2-.8-.1-1.6-.3-2.3-.6l.4-1.6c.7.2 1.4.4 2.1.5.7.1 1.3.2 1.9.2 1.3 0 2.3-.3 3-1 .7-.7 1-1.5 1-2.7v-6.8h-5.5c-.3.4-.5 1-.6 1.6-.1.6-.2 1.3-.2 2v1.1c.2.1.4.1.7.2.3.1.7 0 1.1 0v1.9c-.6 0-1.2 0-1.7-.1s-.9-.1-1.2-.2c-.3-.1-.7-.3-1.1-.5v-1.8c0-.8.1-1.6.3-2.3.2-.7.5-1.4.8-1.9h-1.7v-1.7h11.3v8.2c0 1.3-.3 2.4-.8 3.3-.5.9-1.2 1.5-2.2 1.9-1 .4-1.9.5-3.1.5zm14.9-.2v-1.7c1.2 0 2.1-.4 2.8-1.1.7-.7 1.1-1.6 1.1-2.8v-6.4h-8.5v-1.7H844v8.1c0 1.2-.3 2.2-.8 3-.5.8-1.2 1.5-2.1 2-.9.5-1.9.5-3.2.6zm-4.3 4.8v-10c0-.8.1-1.4.2-1.8.1-.4.3-.8.4-1.1h1.8c-.1.4-.2.7-.2 1.2s-.1 1-.1 1.6v10.2zm28.6-4.8v-8.7c0-1.2-.3-2.1-.8-2.6s-1.4-.8-2.6-.8h-5v-1.7h5.1c1.8 0 3.2.4 4.1 1.3.9.9 1.4 2.2 1.4 3.9v8.6zm-8.4 0v-4.7c0-.8.1-1.4.2-1.8.1-.4.3-.8.4-1.1h1.8c-.1.4-.2.7-.2 1.2s-.1 1-.1 1.6v4.9zm13.2.1h-.6v-2h.7c.8 0 1.5-.2 2-.5s1-.7 1.4-1.3c.4-.6.6-1.1.7-1.8v-6.6h-3.1v-1.7h5.3v7.1c0 .7.1 1.4.2 2.1l1 4.6h-2.1l-.8-3.9h-.1c-.1.7-.4 1.3-.8 1.9-.4.6-1 1.1-1.6 1.5-.6.4-1.4.6-2.2.6zm11.4.1c-.4 0-.8 0-1.1-.1-.3-.1-.7-.1-1.1-.2l.1-1.7c.5.1 1.1.2 1.7.2.6 0 1.1-.2 1.4-.5.3-.3.5-.9.5-1.7v-8.2h-2.7v-1.7h4.9v10.2c0 1.3-.3 2.2-.9 2.9-.6.7-1.6.8-2.8.8zm7.7-.2 1.1-8.8c.1-.6.3-1.3.6-1.8s.6-1 1-1.3l.1-.1.1-.1c-.3.1-.8.2-1.3.3-.5.1-1 .3-1.5.4l-.5-1.6c.6-.2 1.3-.4 2-.6.7-.2 1.4-.3 2.2-.4.8-.1 1.4-.1 2-.1 1.9 0 3.3.5 4.3 1.5s1.5 2.4 1.5 4.4v8.2H892v-1.7h3.5v-6.7c0-1.2-.3-2.2-.8-2.8-.5-.6-1.4-1-2.4-1-.8 0-1.4.3-1.9.9-.5.6-.8 1.4-.9 2.4l-1 9h-2.4z" style="fill:#fff" transform="translate(-187.058 -411.686) scale(.26458)"/>
</svg>
