<?xml version="1.0" encoding="UTF-8" standalone="no"?>
<svg
   xmlns:dc="http://purl.org/dc/elements/1.1/"
   xmlns:cc="http://creativecommons.org/ns#"
   xmlns:rdf="http://www.w3.org/1999/02/22-rdf-syntax-ns#"
   xmlns:svg="http://www.w3.org/2000/svg"
   xmlns="http://www.w3.org/2000/svg"
   xmlns:xlink="http://www.w3.org/1999/xlink"
   version="1.1"
   id="svg5840"
   viewBox="0 0 63.900002 26.399996"
   height="26.399996"
   width="63.900002">
  <defs
     id="defs5842">
    <clipPath
       id="SVGID_6_">
      <use
         height="100%"
         width="100%"
         y="0"
         x="0"
         style="overflow:visible"
         xlink:href="#SVGID_5_"
         overflow="visible"
         id="use305" />
    </clipPath>
  </defs>
  <metadata
     id="metadata5845">
    <rdf:RDF>
      <cc:Work
         rdf:about="">
        <dc:format>image/svg+xml</dc:format>
        <dc:type
           rdf:resource="http://purl.org/dc/dcmitype/StillImage" />
        <dc:title></dc:title>
      </cc:Work>
    </rdf:RDF>
  </metadata>
  <g
     transform="translate(-322.33571,-490.59078)"
     id="layer1">
    <path
       style="fill:#141132"
       d="m 326.73571,490.99078 c 0.2,0 0.5,0 0.7,0.1 0.2,0.1 0.4,0.2 0.6,0.3 0.2,0.1 0.3,0.3 0.4,0.6 0.1,0.3 0.2,0.6 0.2,1 l 0,3.9 -5.5,0 0,-3.2 c 0,-0.2 0,-0.5 0,-0.7 0,-0.2 0.1,-0.5 0.1,-0.7 -0.1,0 -0.3,0 -0.4,-0.1 -0.1,0 -0.3,-0.1 -0.5,-0.1 0.1,-0.2 0.1,-0.4 0.2,-0.6 0.1,-0.2 0.1,-0.4 0.2,-0.6 0.2,0.1 0.4,0.1 0.5,0.1 0.1,0 0.3,0.1 0.4,0.1 0.1,0 0.3,0 0.4,0 0.1,0 0.3,0 0.5,0 l 2.2,0 z m 0.4,4.6 0,-2.3 c 0,-0.2 0,-0.4 0,-0.6 0,-0.1 -0.1,-0.3 -0.1,-0.3 -0.1,-0.1 -0.2,-0.1 -0.3,-0.2 -0.1,0 -0.3,0 -0.5,0 l -1.3,0 c -0.1,0.3 -0.1,0.5 -0.1,0.7 0,0.2 0,0.4 0,0.7 l 0,2 2.3,0 z m 5.6,-4.6 0,2.1 c 0,0.2 0,0.4 0,0.5 0,0.1 0,0.3 0,0.4 0,0.1 0,0.2 0,0.3 0,0.1 0,0.2 -0.1,0.3 l -1.5,-0.2 c 0,-0.1 0,-0.2 0.1,-0.3 0,-0.1 0,-0.2 0,-0.3 0,-0.1 0,-0.2 0,-0.4 0,-0.1 0,-0.3 0,-0.5 l 0,-0.8 -1.3,0 0,-1.1 2.8,0 z m 4.6,0 0,0.8 c 0,0.1 0,0.2 0,0.2 0,0.1 0,0.2 0,0.3 0,0.1 0,0.3 0.1,0.5 0,0.2 0,0.4 0.1,0.7 0,0.3 0.1,0.6 0.1,0.9 0,0.3 0.1,0.7 0.1,1.2 0,0.1 0,0.1 0,0.2 0,0.1 0,0.1 0,0.2 0,0.1 0,0.2 0,0.2 0,0.1 0,0.1 0,0.2 0,0.1 0,0.1 0,0.2 0,0.1 0,0.2 0,0.3 l -3.8,0 0,-1.2 2.4,0 c 0,-0.1 0,-0.2 0,-0.4 0,-0.2 0,-0.4 -0.1,-0.6 0,-0.2 -0.1,-0.5 -0.1,-0.7 0,-0.3 -0.1,-0.5 -0.1,-0.7 0,-0.2 -0.1,-0.4 -0.1,-0.6 0,-0.2 0,-0.3 0,-0.4 l -1.4,0 0,-1.3 2.8,0 z m 3.7,1.2 c -0.2,0 -0.4,0 -0.5,0 -0.1,0 -0.3,0 -0.4,0 -0.1,0 -0.3,0 -0.4,-0.1 -0.1,0 -0.3,-0.1 -0.5,-0.1 0.1,-0.2 0.1,-0.4 0.2,-0.6 0.1,-0.2 0.1,-0.4 0.2,-0.6 0.2,0.1 0.4,0.1 0.5,0.1 0.1,0 0.3,0.1 0.4,0.1 0.1,0 0.3,0 0.4,0 0.1,0 0.3,0 0.5,0 l 0.5,0 c 0.2,0 0.5,0 0.7,0.1 0.2,0.1 0.4,0.2 0.6,0.3 0.2,0.2 0.3,0.4 0.4,0.6 0.1,0.3 0.2,0.6 0.2,1 0,0.2 0,0.4 0,0.6 0,0.2 0,0.4 0,0.6 0,0.2 0,0.5 0,0.7 0,0.2 0,0.5 0,0.8 0,0.1 0,0.2 0,0.2 0,0.1 0,0.2 0,0.2 0,0.1 0,0.2 0,0.3 0,0.1 0,0.2 -0.1,0.4 l -4.9,0 0,-1.2 3.5,0 c 0,-0.2 0,-0.4 0,-0.6 0,-0.2 0,-0.4 0,-0.6 0,-0.2 0,-0.4 0,-0.6 0,-0.2 0,-0.4 0,-0.6 0,-0.2 0,-0.4 0,-0.6 0,-0.1 -0.1,-0.3 -0.1,-0.3 -0.1,-0.1 -0.2,-0.1 -0.3,-0.2 -0.1,0 -0.3,0 -0.5,0 l -0.4,0 z m 6.7,-1.2 0,5.8 -1.5,0 0,-4.6 -1,0 0,-1.2 2.5,0 z m 3.2,1.2 c -0.2,0 -0.4,0 -0.5,0 -0.1,0 -0.3,0 -0.4,0 -0.1,0 -0.3,0 -0.4,-0.1 -0.1,0 -0.3,-0.1 -0.5,-0.1 0.1,-0.2 0.1,-0.4 0.2,-0.6 0.1,-0.2 0.1,-0.4 0.2,-0.6 0.2,0.1 0.4,0.1 0.5,0.1 0.1,0 0.3,0.1 0.4,0.1 0.1,0 0.3,0 0.4,0 0.1,0 0.3,0 0.5,0 l 3.2,0 0,1.2 -1.1,0 0,4.6 -1.5,0 0,-4.6 -1,0 z m 11.6,-1.2 c 0.2,0 0.5,0 0.7,0.1 0.2,0.1 0.4,0.2 0.6,0.3 0.2,0.1 0.3,0.3 0.4,0.6 0.1,0.3 0.2,0.6 0.2,1 l 0,3.9 -5.4,0 0,-3.2 c 0,-0.2 0,-0.5 0,-0.7 0,-0.2 0.1,-0.5 0.1,-0.7 -0.1,0 -0.3,0 -0.4,-0.1 -0.1,0 -0.3,-0.1 -0.5,-0.1 0.1,-0.2 0.1,-0.4 0.2,-0.6 0.1,-0.2 0.1,-0.4 0.2,-0.6 0.2,0.1 0.4,0.1 0.5,0.1 0.1,0 0.3,0.1 0.4,0.1 0.1,0 0.3,0 0.4,0 0.1,0 0.3,0 0.5,0 l 2.1,0 z m 0.4,4.6 0,-2.3 c 0,-0.2 0,-0.4 0,-0.6 0,-0.1 -0.1,-0.3 -0.1,-0.3 -0.1,-0.1 -0.2,-0.1 -0.3,-0.2 -0.1,0 -0.3,0 -0.5,0 l -1.3,0 c -0.1,0.3 -0.1,0.5 -0.1,0.7 0,0.2 0,0.4 0,0.7 l 0,2 2.3,0 z m 6.8,-4.6 c 0.2,0 0.5,0 0.7,0.1 0.2,0.1 0.4,0.2 0.6,0.3 0.2,0.1 0.3,0.3 0.4,0.6 0.1,0.3 0.2,0.6 0.2,1 l 0,3.9 -1.5,0 0,-3.5 c 0,-0.2 0,-0.4 0,-0.6 0,-0.1 -0.1,-0.3 -0.1,-0.3 -0.1,-0.1 -0.2,-0.1 -0.3,-0.2 -0.1,0 -0.3,0 -0.5,0 l -1.1,0 c -0.1,0.3 -0.1,0.5 -0.1,0.7 0,0.2 0,0.4 0,0.7 l 0,3.3 -1.5,0 0,-3.2 c 0,-0.2 0,-0.5 0,-0.7 0,-0.2 0.1,-0.5 0.1,-0.7 -0.1,0 -0.3,0 -0.4,-0.1 -0.1,0 -0.3,-0.1 -0.5,-0.1 0.1,-0.2 0.1,-0.4 0.2,-0.6 0.1,-0.2 0.1,-0.4 0.2,-0.6 0.2,0.1 0.4,0.1 0.5,0.1 0.1,0 0.3,0.1 0.4,0.1 0.1,0 0.3,0 0.4,0 0.1,0 0.3,0 0.5,0 l 1.8,0 z m 7.3,0 c 0.2,0 0.5,0 0.7,0.1 0.2,0.1 0.4,0.2 0.6,0.3 0.2,0.1 0.3,0.3 0.4,0.6 0.1,0.3 0.2,0.6 0.2,1 l 0,3.9 -1.5,0 0,-3.5 c 0,-0.2 0,-0.4 0,-0.6 0,-0.1 -0.1,-0.3 -0.1,-0.3 -0.1,-0.1 -0.2,-0.1 -0.3,-0.2 -0.1,0 -0.3,0 -0.5,0 l -0.8,0 c -0.1,0.3 -0.2,0.5 -0.3,0.8 0,0.3 -0.1,0.6 -0.1,0.9 0,0.2 0,0.3 0,0.5 0,0.1 0,0.3 0,0.4 0,0.1 0,0.3 0.1,0.4 0,0.1 0.1,0.3 0.1,0.4 l 0.1,0.3 c 0,0.2 0,0.3 -0.1,0.5 0,0.1 0,0.3 -0.1,0.4 l -2.8,0 0,-1.2 1.3,0 c -0.1,-0.3 -0.2,-0.6 -0.2,-0.8 0,-0.3 -0.1,-0.5 -0.1,-0.8 0,-0.2 0,-0.4 0,-0.6 0,-0.2 0.1,-0.4 0.1,-0.6 0,-0.1 0.1,-0.2 0.1,-0.3 0,-0.1 0.1,-0.2 0.1,-0.3 -0.2,0 -0.3,0 -0.5,-0.1 -0.2,0 -0.3,-0.1 -0.6,-0.2 0.1,-0.2 0.1,-0.4 0.2,-0.6 0.1,-0.2 0.1,-0.4 0.2,-0.6 0.2,0.1 0.4,0.1 0.5,0.1 0.1,0 0.3,0.1 0.4,0.1 0.1,0 0.3,0 0.4,0 0.1,0 0.3,0 0.5,0 l 2,0 z m 3.3,0.4 c 0.2,-0.1 0.4,-0.3 0.6,-0.4 0.2,-0.1 0.4,-0.2 0.6,-0.4 0.1,0.1 0.2,0.2 0.2,0.3 0.1,0.1 0.1,0.2 0.2,0.3 0,0.1 0.1,0.2 0.1,0.2 0,0.1 0.1,0.2 0.1,0.3 0.3,-0.3 0.6,-0.6 1,-0.7 0.3,-0.2 0.7,-0.2 1,-0.2 0.2,0 0.5,0 0.7,0.1 0.2,0.1 0.4,0.2 0.6,0.3 0.2,0.1 0.3,0.3 0.4,0.5 0.1,0.2 0.2,0.4 0.3,0.7 0,0.2 0.1,0.4 0.1,0.7 0,0.3 0,0.5 0,0.8 0,0.1 0,0.3 0,0.5 0,0.2 0,0.3 0,0.6 0,0.3 0,0.5 0,0.7 0,0.2 0,0.4 0,0.6 0,0.1 0,0.2 0,0.3 0,0.1 0,0.2 0,0.3 l -3,0 0,-1.2 1.5,0 c 0,0 0,-0.1 0,-0.1 0,-0.1 0,-0.1 0,-0.3 0,-0.1 0,-0.3 0,-0.4 0,-0.1 0,-0.4 0,-0.7 0,-0.1 0,-0.2 0,-0.3 0,-0.1 0,-0.2 0,-0.3 0,-0.1 0,-0.2 0,-0.3 0,-0.1 0,-0.2 0,-0.3 0,-0.3 -0.1,-0.5 -0.3,-0.6 -0.1,-0.1 -0.3,-0.2 -0.6,-0.2 -0.1,0 -0.3,0 -0.4,0.1 -0.1,0.1 -0.3,0.1 -0.4,0.2 -0.1,0.1 -0.2,0.1 -0.3,0.2 -0.1,0.1 -0.2,0.2 -0.2,0.3 -0.1,0.4 -0.1,0.8 -0.2,1.1 0,0.3 -0.1,0.6 -0.1,0.8 0,0.2 -0.1,0.4 -0.1,0.6 0,0.2 -0.1,0.3 -0.1,0.5 0,0.2 0,0.3 -0.1,0.5 0,0.2 -0.1,0.4 -0.1,0.6 l -1.5,0 0.1,-1 c 0,-0.2 0.1,-0.5 0.1,-0.7 0,-0.2 0.1,-0.4 0.1,-0.6 0,-0.2 0.1,-0.4 0.1,-0.6 0,-0.2 0.1,-0.4 0.1,-0.7 0,-0.1 0,-0.1 0,-0.2 0,-0.1 0,-0.1 0,-0.2 0,-0.1 0,-0.2 0,-0.3 0,-0.1 0,-0.2 -0.1,-0.2 0,-0.1 -0.1,-0.2 -0.1,-0.2 0,-0.1 -0.1,-0.2 -0.1,-0.3 l -0.2,-0.7 z"
       id="path297" />
    <g
       transform="translate(-32.81429,-46.009224)"
       id="g299">
      <defs
         id="defs301">
        <rect
           id="SVGID_5_"
           x="24.700001"
           y="79.099998"
           width="554"
           height="1157.5" />
      </defs>
      <clipPath
         id="clipPath6859">
        <use
           height="100%"
           width="100%"
           y="0"
           x="0"
           style="overflow:visible"
           xlink:href="#SVGID_5_"
           overflow="visible"
           id="use6861" />
      </clipPath>
      <path
         style="fill:#fcb65a;fill-opacity:1"
         clip-path="url(#SVGID_6_)"
         d="m 392.7,551.3 c 0,3.1 -5.6,11.7 -5.6,11.7 0,0 -5.6,-8.5 -5.6,-11.7 0,-3.1 2.5,-5.6 5.6,-5.6 3.1,-0.1 5.6,2.4 5.6,5.6"
         id="path307" />
    </g>
  </g>
</svg>
