<svg width="141.4" height="94.6" viewBox="0 0 37.412 25.029" xmlns="http://www.w3.org/2000/svg">
    <path d="M1556.9 1704.7c0 9.5-17.2 35.6-17.2 35.6s-17.2-26.2-17.2-35.6c0-9.5 7.8-17.2 17.2-17.2 9.5-.2 17.2 7.7 17.2 17.2" style="fill:#0b8e36;fill-opacity:1" transform="translate(-388.668 -435.42) scale(.26458)"/>
    <path style="fill:#a22442" d="M1469 1645.7h134.8v38.5H1469Z" transform="translate(-388.668 -435.42) scale(.26458)"/>
    <path d="M1479.8 1657.4h13.4v15.6h-13.4zm9.2 12.3v-9h-4.9v9zm9.4-9.1h-2.4v-3.3h6.6v8.9h-4.2zm13.5 2.1c0-.7-.2-1.2-.6-1.5-.4-.4-.9-.5-1.7-.5h-4.7v-3.3h5c1.3 0 2.4.2 3.3.7.9.4 1.6 1.1 2.1 1.9.5.8.7 1.8.7 3v10h-4.2v-10.3zm8.2-2.1h-1.3v-3.3h5.6v15.6h-4.2v-12.3zm8.1 7c0-1.5.3-2.7.9-3.4h3.4c-.2.8-.2 1.7-.2 2.9v5.8h-4.1zm9-4.7c0-1.5-.8-2.2-2.4-2.2h-6.5v-3.3h6.8c1.3 0 2.4.2 3.4.7.9.4 1.7 1.1 2.1 1.9.5.9.7 1.9.7 3.1v9.9h-4.2v-10.1zm19.8-.2c0-.7-.2-1.2-.6-1.5-.4-.4-.9-.5-1.6-.5h-4.7v-3.3h5c1.3 0 2.4.2 3.3.7.9.4 1.6 1.1 2.1 1.9.5.8.7 1.8.7 3v10h-4.2zm20.2-5.3v3.3h-2.8v12.3h-4.2v-12.3h-6.5v-3.3zm3.1 0h6.9c2 0 3.6.5 4.6 1.5 1 1 1.6 2.5 1.6 4.4v9.7h-4.2v-10.1c0-1.5-.7-2.3-2-2.3h-2.7v12.3h-4.2z" style="fill:#fffffd" transform="translate(-388.668 -435.42) scale(.26458)"/>
    <path d="M1539.6 1712.1c-.1.2-.3.4-.5.5-.8.8-1.9 1.2-3 1.2s-2.2-.4-3-1.2c-1.7-1.7-1.7-4.4 0-6l.5-.5c-.4-.7-.8-1.3-1.1-2v-.1c-.5.3-.9.6-1.3 1a6.64 6.64 0 0 0 0 9.4c1.3 1.3 2.9 1.9 4.7 1.9 1.8 0 3.4-.7 4.7-1.9.4-.4.7-.8 1-1.3h-.1c-.5-.2-1.2-.6-1.9-1z" style="fill:#fff" transform="translate(-388.668 -435.42) scale(.26458)"/>
    <path d="M1545.4 1706.4c-1 .1-1.9.5-2.6 1.2-.3.3-.8.5-1.2.5-.5 0-.9-.2-1.2-.5l-2.2-2.2c-.7-.7-.7-1.8 0-2.5l.1-.1c.6-.6 1-1.5 1.2-2.4-.9-.5-1.7-.9-2.5-1.1-1.8-.5-2.7-.1-3.2.4-.8.8-.8 2.3-.1 4.1.7 1.6 1.9 3.4 3.5 4.9 1.5 1.5 3.3 2.8 4.9 3.5.9.4 1.7.6 2.4.6s1.3-.2 1.7-.6c.5-.5.9-1.4.4-3.2-.2-.9-.6-1.8-1.2-2.6z" style="fill:#fff" transform="translate(-388.668 -435.42) scale(.26458)"/>
    <path d="M1548.6 1697.1c-.9-.9-2.1-1.3-3.4-1.3-1.3 0-2.4.5-3.3 1.4-.8.8-1.2 1.8-1.3 2.9-.1 1.3-.6 2.5-1.5 3.5l-.1.1c-.2.2-.2.6 0 .8l2.2 2.2c.1.1.3.2.4.2.1 0 .3-.1.4-.2.9-.9 2.2-1.5 3.6-1.6 1.1-.1 2.2-.6 3-1.4.9-.9 1.4-2.1 1.4-3.4 0-1.1-.5-2.3-1.4-3.2z" style="fill:#fff" transform="translate(-388.668 -435.42) scale(.26458)"/>
</svg>
