<?xml version="1.0" encoding="UTF-8" standalone="no"?>
<svg
   xmlns:dc="http://purl.org/dc/elements/1.1/"
   xmlns:cc="http://creativecommons.org/ns#"
   xmlns:rdf="http://www.w3.org/1999/02/22-rdf-syntax-ns#"
   xmlns:svg="http://www.w3.org/2000/svg"
   xmlns="http://www.w3.org/2000/svg"
   xmlns:xlink="http://www.w3.org/1999/xlink"
   version="1.1"
   id="svg5245"
   viewBox="0 0 71.599994 38.099965"
   height="38.099964"
   width="71.599998">
  <defs
     id="defs5247">
    <clipPath
       id="SVGID_62_">
      <use
         height="100%"
         width="100%"
         y="0"
         x="0"
         style="overflow:visible"
         xlink:href="#SVGID_61_"
         overflow="visible"
         id="use895" />
    </clipPath>
  </defs>
  <metadata
     id="metadata5250">
    <rdf:RDF>
      <cc:Work
         rdf:about="">
        <dc:format>image/svg+xml</dc:format>
        <dc:type
           rdf:resource="http://purl.org/dc/dcmitype/StillImage" />
        <dc:title></dc:title>
      </cc:Work>
    </rdf:RDF>
  </metadata>
  <g
     transform="translate(-307.05713,-516.16937)"
     id="layer1">
    <g
       transform="translate(-102.34287,-47.830662)"
       id="g889">
      <defs
         id="defs891">
        <rect
           id="SVGID_61_"
           x="24.700001"
           y="79.099998"
           width="554"
           height="1157.5" />
      </defs>
      <clipPath
         id="clipPath7011">
        <use
           height="100%"
           width="100%"
           y="0"
           x="0"
           style="overflow:visible"
           xlink:href="#SVGID_61_"
           overflow="visible"
           id="use7013" />
      </clipPath>
      <path
         style="fill:#141132"
         clip-path="url(#SVGID_62_)"
         d="m 453,586 c 0,4.3 -7.8,16.1 -7.8,16.1 0,0 -7.8,-11.8 -7.8,-16.1 0,-4.3 3.5,-7.8 7.8,-7.8 4.3,0 7.8,3.5 7.8,7.8"
         id="path897" />
      <path
         style="fill:#ffffff"
         clip-path="url(#SVGID_62_)"
         d="m 447.6,584.9 0,3.7 -5.7,0 0,-5.7 3.7,0 1.1,-1.1 -6,0 0,8 8,0 0,-6 -1.1,1.1 z m -4,0.8 -0.4,1.6 1.6,-0.4 4,-4 -1.2,-1.2 -4,4 z m 6,-4.9 c 0.3,0.3 0.3,0.9 0,1.2 l -0.4,0.4 -1.2,-1.2 0.4,-0.4 c 0.3,-0.3 0.9,-0.3 1.2,0"
         id="path899" />
    </g>
    <rect
       style="fill:#141132"
       x="307.05713"
       y="516.16937"
       width="71.599998"
       height="13"
       id="rect901" />
    <path
       style="fill:#2cc1d7"
       d="m 316.45715,520.96934 c 0.2,0 0.5,0 0.7,0.1 0.2,0.1 0.4,0.2 0.6,0.3 0.2,0.1 0.3,0.3 0.4,0.6 0.1,0.3 0.2,0.6 0.2,1 l 0,3.9 -1.5,0 0,-3.5 c 0,-0.2 0,-0.4 0,-0.6 0,-0.1 -0.1,-0.3 -0.1,-0.3 -0.1,-0.1 -0.2,-0.1 -0.3,-0.2 -0.1,0 -0.3,0 -0.5,0 l -1.1,0 c -0.1,0.3 -0.1,0.5 -0.1,0.7 0,0.2 0,0.4 0,0.7 l 0,3.3 -1.7,0 0,-3.2 c 0,-0.2 0,-0.5 0,-0.7 0,-0.2 0.1,-0.5 0.1,-0.7 -0.1,0 -0.3,0 -0.4,-0.1 -0.1,0 -0.3,-0.1 -0.5,-0.1 0.1,-0.2 0.1,-0.4 0.2,-0.6 0.1,-0.2 0.1,-0.4 0.2,-0.6 0.2,0.1 0.4,0.1 0.5,0.1 0.1,0 0.3,0.1 0.4,0.1 0.1,0 0.3,0 0.4,0 0.1,0 0.3,0 0.5,0 l 2,0 z m 5,1.2 c -0.2,0 -0.4,0 -0.5,0 -0.1,0 -0.3,0 -0.4,0 -0.1,0 -0.3,0 -0.4,-0.1 -0.1,0 -0.3,-0.1 -0.5,-0.1 0.1,-0.2 0.1,-0.4 0.2,-0.6 0.1,-0.2 0.1,-0.4 0.2,-0.6 0.2,0.1 0.4,0.1 0.5,0.1 0.1,0 0.3,0.1 0.4,0.1 0.1,0 0.3,0 0.4,0 0.1,0 0.3,0 0.5,0 l 0.7,0 c 0.2,0 0.5,0 0.7,0.1 0.2,0.1 0.4,0.2 0.6,0.3 0.2,0.1 0.3,0.3 0.4,0.6 0.1,0.3 0.2,0.6 0.2,1 l 0,3.9 -1.5,0 0,-3.5 c 0,-0.2 0,-0.4 0,-0.6 0,-0.1 -0.1,-0.3 -0.1,-0.3 -0.1,-0.1 -0.2,-0.1 -0.3,-0.2 -0.1,0 -0.3,0 -0.5,0 l -0.6,0 z m 6.9,-1.2 0,5.8 -1.5,0 0,-4.6 -1,0 0,-1.2 2.5,0 z m 7,1.9 c -0.1,0.2 -0.1,0.4 -0.2,0.6 -0.1,0.2 -0.1,0.4 -0.2,0.5 -0.1,0.1 -0.2,0.3 -0.3,0.4 -0.1,0.1 -0.3,0.3 -0.4,0.4 l 1.2,1.4 -1,0.9 -2.9,-3.4 c -0.1,0.1 -0.1,0.2 -0.1,0.4 0,0.2 -0.1,0.3 -0.1,0.5 0,0.2 0,0.4 0,0.6 0,0.2 0,0.4 0,0.5 0,0.1 0,0.1 0,0.2 0,0.1 0,0.2 0,0.3 0,0.1 0,0.2 0,0.3 0,0.1 0,0.2 0,0.3 l -1.4,0 c 0,-0.1 0,-0.2 0,-0.3 0,-0.1 0,-0.3 0,-0.4 0,-0.1 0,-0.3 0,-0.5 0,-0.2 0,-0.4 0,-0.6 0,-0.2 0,-0.4 0,-0.6 0,-0.2 0.1,-0.4 0.1,-0.6 0.1,-0.2 0.1,-0.4 0.2,-0.5 0.1,-0.2 0.2,-0.3 0.4,-0.5 -0.1,-0.1 -0.2,-0.2 -0.3,-0.4 -0.1,-0.1 -0.1,-0.2 -0.2,-0.4 -0.1,-0.1 -0.1,-0.3 -0.2,-0.4 -0.1,-0.1 -0.1,-0.3 -0.2,-0.5 0.2,-0.1 0.4,-0.2 0.7,-0.3 0.2,-0.1 0.5,-0.2 0.7,-0.2 0.1,0.2 0.2,0.4 0.2,0.6 0.1,0.2 0.2,0.3 0.2,0.5 0.1,0.1 0.2,0.3 0.3,0.4 0.1,0.1 0.2,0.3 0.4,0.5 l 1.1,1.2 c 0.1,-0.1 0.2,-0.2 0.2,-0.3 0.1,-0.1 0.1,-0.3 0.2,-0.4 0,-0.1 0,-0.1 0.1,-0.2 0.1,-0.1 0,-0.2 0.1,-0.2 l 0.1,-0.7 -0.8,-0.1 0.2,-1.2 2.1,0.4 0,0.7 -0.2,1.1 z m 8.8,-1.9 c 0.2,0 0.5,0 0.7,0.1 0.2,0.1 0.4,0.2 0.6,0.3 0.2,0.1 0.3,0.3 0.4,0.6 0.1,0.3 0.2,0.6 0.2,1 l 0,3.9 -1.5,0 0,-3.5 c 0,-0.2 0,-0.4 0,-0.6 0,-0.1 -0.1,-0.3 -0.1,-0.3 -0.1,-0.1 -0.2,-0.1 -0.3,-0.2 -0.1,0 -0.3,0 -0.5,0 l -0.8,0 c -0.1,0.3 -0.2,0.5 -0.3,0.8 0,0.3 -0.1,0.6 -0.1,0.9 0,0.2 0,0.3 0,0.5 0,0.1 0,0.3 0,0.4 0,0.1 0,0.3 0.1,0.4 0,0.1 0.1,0.3 0.1,0.4 l 0.1,0.3 c 0,0.2 0,0.3 -0.1,0.5 0,0.1 0,0.3 -0.1,0.4 l -2.8,0 0,-1.2 1.3,0 c -0.1,-0.3 -0.2,-0.6 -0.2,-0.8 0,-0.3 -0.1,-0.5 -0.1,-0.8 0,-0.2 0,-0.4 0,-0.6 0,-0.2 0.1,-0.4 0.1,-0.6 0,-0.1 0.1,-0.2 0.1,-0.3 0,-0.1 0.1,-0.2 0.1,-0.3 -0.2,0 -0.3,0 -0.5,-0.1 -0.2,0 -0.3,-0.1 -0.6,-0.2 0.1,-0.2 0.1,-0.4 0.2,-0.6 0.1,-0.2 0.1,-0.4 0.2,-0.6 0.2,0.1 0.4,0.1 0.5,0.1 0.1,0 0.3,0.1 0.4,0.1 0.1,0 0.3,0 0.4,0 0.1,0 0.3,0 0.5,0 l 2,0 z m 3.2,0.4 c 0.2,-0.1 0.4,-0.3 0.6,-0.4 0.2,-0.1 0.4,-0.2 0.6,-0.4 0.1,0.1 0.2,0.2 0.2,0.3 0.1,0.1 0.1,0.2 0.2,0.3 0,0.1 0.1,0.2 0.1,0.2 0,0.1 0.1,0.2 0.1,0.3 0.3,-0.3 0.6,-0.6 1,-0.7 0.3,-0.2 0.7,-0.2 1,-0.2 0.2,0 0.5,0 0.7,0.1 0.2,0.1 0.4,0.2 0.6,0.3 0.2,0.1 0.3,0.3 0.4,0.5 0.1,0.2 0.2,0.4 0.3,0.7 0,0.2 0.1,0.4 0.1,0.7 0,0.3 0,0.5 0,0.8 0,0.1 0,0.3 0,0.5 0,0.2 0,0.3 0,0.6 0,0.3 0,0.5 0,0.7 0,0.2 0,0.4 0,0.6 0,0.1 0,0.2 0,0.3 0,0.1 0,0.2 0,0.3 l -3,0 0,-1.2 1.5,0 c 0,0 0,-0.1 0,-0.1 0,-0.1 0,-0.1 0,-0.3 0,-0.1 0,-0.3 0,-0.4 0,-0.1 0,-0.4 0,-0.7 0,-0.1 0,-0.2 0,-0.3 0,-0.1 0,-0.2 0,-0.3 0,-0.1 0,-0.2 0,-0.3 0,-0.1 0,-0.2 0,-0.3 0,-0.3 -0.1,-0.5 -0.3,-0.6 -0.1,-0.1 -0.3,-0.2 -0.6,-0.2 -0.1,0 -0.3,0 -0.4,0.1 -0.1,0.1 -0.3,0.1 -0.4,0.2 -0.1,0.1 -0.2,0.1 -0.3,0.2 -0.1,0.1 -0.2,0.2 -0.2,0.3 -0.1,0.4 -0.1,0.8 -0.2,1.1 0,0.3 -0.1,0.6 -0.1,0.8 0,0.2 -0.1,0.4 -0.1,0.6 0,0.2 -0.1,0.3 -0.1,0.5 0,0.2 0,0.3 -0.1,0.5 0,0.2 -0.1,0.4 -0.1,0.6 l -1.5,0 0.1,-1 c 0,-0.2 0.1,-0.5 0.1,-0.7 0,-0.2 0.1,-0.4 0.1,-0.6 0,-0.2 0.1,-0.4 0.1,-0.6 0,-0.2 0.1,-0.5 0.1,-0.7 0,-0.1 0,-0.1 0,-0.2 0,-0.1 0,-0.1 0,-0.2 0,-0.1 0,-0.2 0,-0.3 0,-0.1 0,-0.2 -0.1,-0.2 0,-0.1 -0.1,-0.2 -0.1,-0.2 0,-0.1 -0.1,-0.2 -0.1,-0.3 l -0.2,-0.7 z m 11.3,-0.4 c 0.2,0 0.5,0 0.7,0.1 0.2,0.1 0.4,0.2 0.6,0.3 0.2,0.1 0.3,0.3 0.4,0.6 0.1,0.3 0.2,0.6 0.2,1 l 0,3.9 -1.5,0 0,-3.5 c 0,-0.2 0,-0.4 0,-0.6 0,-0.1 -0.1,-0.3 -0.1,-0.3 -0.1,-0.1 -0.2,-0.1 -0.3,-0.2 -0.1,0 -0.3,0 -0.5,0 l -0.8,0 c -0.1,0.3 -0.2,0.5 -0.3,0.8 0,0.3 -0.1,0.6 -0.1,0.9 0,0.2 0,0.3 0,0.5 0,0.1 0,0.3 0,0.4 0,0.1 0,0.3 0.1,0.4 0,0.1 0.1,0.3 0.1,0.4 l 0.1,0.3 c 0,0.2 0,0.3 -0.1,0.5 0,0.1 0,0.3 -0.1,0.4 l -2.8,0 0,-1.2 1.3,0 c -0.1,-0.3 -0.2,-0.6 -0.2,-0.8 0,-0.3 -0.1,-0.5 -0.1,-0.8 0,-0.2 0,-0.4 0,-0.6 0,-0.2 0.1,-0.4 0.1,-0.6 0,-0.1 0.1,-0.2 0.1,-0.3 0,-0.1 0.1,-0.2 0.1,-0.3 -0.2,0 -0.3,0 -0.5,-0.1 -0.2,0 -0.3,-0.1 -0.6,-0.2 0.1,-0.2 0.1,-0.4 0.2,-0.6 0.1,-0.2 0.1,-0.4 0.2,-0.6 0.2,0.1 0.4,0.1 0.5,0.1 0.1,0 0.3,0.1 0.4,0.1 0.1,0 0.3,0 0.4,0 0.1,0 0.3,0 0.5,0 l 2,0 z m 7.1,0 c 0.2,0 0.5,0 0.7,0.1 0.2,0.1 0.4,0.2 0.6,0.3 0.2,0.1 0.3,0.3 0.4,0.6 0.1,0.3 0.2,0.6 0.2,1 l 0,3.9 -1.5,0 0,-3.5 c 0,-0.2 0,-0.4 0,-0.6 0,-0.1 -0.1,-0.3 -0.1,-0.3 -0.1,-0.1 -0.2,-0.1 -0.3,-0.2 -0.1,0 -0.3,0 -0.5,0 l -1.1,0 c -0.1,0.3 -0.1,0.5 -0.1,0.7 0,0.2 0,0.4 0,0.7 l 0,3.3 -1.5,0 0,-3.2 c 0,-0.2 0,-0.5 0,-0.7 0,-0.2 0.1,-0.5 0.1,-0.7 -0.1,0 -0.3,0 -0.4,-0.1 -0.1,0 -0.3,-0.1 -0.5,-0.1 0.1,-0.2 0.1,-0.4 0.2,-0.6 0.1,-0.2 0.1,-0.4 0.2,-0.6 0.2,0.1 0.4,0.1 0.5,0.1 0.1,0 0.3,0.1 0.4,0.1 0.1,0 0.3,0 0.4,0 0.1,0 0.3,0 0.5,0 l 1.8,0 z m 5.2,1.2 c -0.2,0 -0.4,0 -0.5,0 -0.1,0 -0.3,0 -0.4,0 -0.1,0 -0.3,0 -0.4,-0.1 -0.1,0 -0.3,-0.1 -0.5,-0.1 0.1,-0.2 0.1,-0.4 0.2,-0.6 0.1,-0.2 0.1,-0.4 0.2,-0.6 0.2,0.1 0.4,0.1 0.5,0.1 0.1,0 0.3,0.1 0.4,0.1 0.1,0 0.3,0 0.4,0 0.1,0 0.3,0 0.5,0 l 1.2,0 c 0.2,0 0.5,0 0.7,0.1 0.2,0.1 0.4,0.2 0.6,0.3 0.2,0.1 0.3,0.3 0.4,0.6 0.1,0.3 0.2,0.6 0.2,1 l 0,3.9 -1.5,0 0,-3.5 c 0,-0.2 0,-0.4 0,-0.6 0,-0.1 -0.1,-0.3 -0.1,-0.3 -0.1,-0.1 -0.2,-0.1 -0.3,-0.2 -0.1,0 -0.3,0 -0.5,0 l -1.1,0 z m -1.7,2.9 c 0,-0.2 0,-0.3 0,-0.4 0,-0.1 0,-0.3 0,-0.4 0,-0.1 0,-0.2 0,-0.4 0,-0.1 0,-0.2 0.1,-0.4 0.3,0 0.5,0.1 0.8,0.1 0.3,0 0.5,0.1 0.8,0.2 0,0.2 -0.1,0.4 -0.1,0.6 0,0.2 0,0.5 0,0.7 l 0,1.7 -1.5,0 0,-1.7 z"
       id="path903" />
  </g>
</svg>
