<?xml version="1.0" encoding="UTF-8" standalone="no"?>
<svg
   xmlns:dc="http://purl.org/dc/elements/1.1/"
   xmlns:cc="http://creativecommons.org/ns#"
   xmlns:rdf="http://www.w3.org/1999/02/22-rdf-syntax-ns#"
   xmlns:svg="http://www.w3.org/2000/svg"
   xmlns="http://www.w3.org/2000/svg"
   xmlns:xlink="http://www.w3.org/1999/xlink"
   height="50.799999"
   width="136"
   xml:space="preserve"
   viewBox="0 0 136 50.8"
   y="0px"
   x="0px"
   id="Layer_1"
   version="1.1"><metadata
     id="metadata439"><rdf:RDF><cc:Work
         rdf:about=""><dc:format>image/svg+xml</dc:format><dc:type
           rdf:resource="http://purl.org/dc/dcmitype/StillImage" /><dc:title></dc:title></cc:Work></rdf:RDF></metadata><defs
     id="defs437" /><style
     id="style3"
     type="text/css">
	.st0{fill:#B5B0C1;}
	.st1{fill:#FFFFFF;}
	.st2{fill:none;stroke:#141032;stroke-width:0.25;}
	.st3{fill:#43255C;}
	.st4{clip-path:url(#SVGID_2_);fill:none;stroke:#141032;stroke-width:0.25;}
	.st5{fill:none;stroke:#141032;stroke-width:0.5;}
	.st6{fill:#99AC64;}
	.st7{clip-path:url(#SVGID_4_);fill:none;stroke:#141032;stroke-width:0.25;}
	.st8{clip-path:url(#SVGID_6_);fill:#43255C;}
	.st9{clip-path:url(#SVGID_8_);fill:#FBB65A;}
	.st10{clip-path:url(#SVGID_8_);fill:none;stroke:#141032;stroke-width:0.5;stroke-miterlimit:10;}
	.st11{fill:#F7D685;}
	.st12{clip-path:url(#SVGID_10_);fill:#141032;}
	.st13{fill:#141032;}
	.st14{fill:none;stroke:#231F20;stroke-width:0.25;}
	.st15{clip-path:url(#SVGID_12_);fill:#141032;}
	.st16{clip-path:url(#SVGID_12_);fill:#FFFFFF;}
	.st17{clip-path:url(#SVGID_14_);fill:#141032;}
	.st18{clip-path:url(#SVGID_14_);fill:#FFFFFF;}
	.st19{fill:#D81278;}
	.st20{clip-path:url(#SVGID_16_);fill:#141032;}
	.st21{clip-path:url(#SVGID_18_);fill:#141032;}
	.st22{clip-path:url(#SVGID_18_);fill:#FFFFFF;}
	.st23{clip-path:url(#SVGID_20_);fill:#141032;}
	.st24{clip-path:url(#SVGID_22_);fill:#141032;}
	.st25{clip-path:url(#SVGID_24_);fill:#FFFFFF;}
	.st26{clip-path:url(#SVGID_26_);fill:#FFFFFF;}
	.st27{clip-path:url(#SVGID_28_);fill:#141032;}
	.st28{clip-path:url(#SVGID_30_);fill:#141032;}
	.st29{clip-path:url(#SVGID_32_);fill:#FFFFFF;}
	.st30{clip-path:url(#SVGID_34_);fill:#FFFFFF;}
	.st31{fill:#8ACDAB;}
	.st32{clip-path:url(#SVGID_36_);fill:#141032;}
	.st33{clip-path:url(#SVGID_38_);fill:#FFFFFF;}
</style><path
     style="fill:#141032"
     id="path359"
     d="m 9,0.6 c 0.5,0 1,0.1 1.5,0.2 0.5,0.1 0.9,0.3 1.3,0.6 0.4,0.3 0.7,0.7 0.9,1.3 0.2,0.5 0.4,1.2 0.4,2.1 l 0,8.3 -11.6,0 0,-6.9 c 0,-0.5 0,-1 0.1,-1.5 C 1.7,4.2 1.8,3.7 1.9,3.1 1.6,3.1 1.3,3 1,2.9 0.7,2.8 0.4,2.7 0,2.6 0.1,2.2 0.3,1.7 0.4,1.3 0.5,0.9 0.7,0.5 0.8,0.1 c 0.4,0.1 0.8,0.2 1,0.3 0.3,0.1 0.6,0.1 0.8,0.1 0.3,0 0.5,0.1 0.8,0.1 0.3,0 0.7,0 1.1,0 l 4.5,0 z m 0.9,9.9 0,-4.9 C 9.9,5.1 9.9,4.7 9.8,4.4 9.8,4.1 9.7,3.8 9.5,3.7 9.3,3.5 9.1,3.4 8.8,3.3 8.5,3.2 8.1,3.2 7.6,3.2 l -2.7,0 C 4.8,3.8 4.7,4.3 4.7,4.7 c 0,0.5 0,0.9 0,1.4 l 0,4.3 5.2,0 z m 11.9,-9.9 0,4.6 c 0,0.4 0,0.8 0,1.1 0,0.3 0,0.6 0,0.8 0,0.2 -0.1,0.5 -0.1,0.7 0,0.2 -0.1,0.5 -0.2,0.7 L 18.3,8 c 0,-0.2 0.1,-0.5 0.1,-0.7 0,-0.2 0.1,-0.4 0.1,-0.6 0,-0.2 0,-0.5 0.1,-0.8 0,-0.3 0,-0.6 0,-1 l 0,-1.7 -2.7,0 0,-2.6 5.9,0 z m 9.8,0 0,1.7 c 0,0.2 0,0.3 0,0.5 0,0.2 0,0.4 0.1,0.7 0,0.3 0.1,0.6 0.1,1 0,0.4 0.1,0.9 0.2,1.4 0.1,0.5 0.1,1.2 0.2,1.9 0.1,0.7 0.2,1.6 0.3,2.6 0,0.1 0,0.3 0,0.4 0,0.1 0,0.2 0,0.3 0,0.2 0,0.3 0,0.5 0,0.2 0,0.3 0,0.5 0,0.2 0,0.3 -0.1,0.5 0,0.2 -0.1,0.4 -0.1,0.6 l -8.1,0 0,-2.6 5.2,0 c 0,-0.2 0,-0.5 -0.1,-0.8 C 29.2,9.5 29.2,9 29.2,8.5 29.1,8 29.1,7.5 29,7 28.9,6.5 28.9,6 28.8,5.5 28.7,5 28.7,4.6 28.7,4.2 28.7,3.8 28.6,3.6 28.6,3.4 l -3.1,0 0,-2.6 6.1,0 z m 7.8,2.6 c -0.4,0 -0.8,0 -1.1,0 -0.3,0 -0.6,0 -0.9,-0.1 C 37.1,3.1 36.8,3 36.5,2.9 36.2,2.8 35.9,2.7 35.5,2.6 35.6,2.2 35.8,1.7 35.9,1.3 36,0.9 36.2,0.5 36.3,0.1 c 0.4,0.1 0.8,0.2 1,0.3 0.3,0.1 0.6,0.1 0.8,0.1 0.3,0 0.5,0.1 0.8,0.1 0.3,0 0.7,0 1.1,0 l 1.1,0 c 0.5,0 1,0.1 1.4,0.2 0.5,0.1 0.9,0.3 1.3,0.7 0.4,0.3 0.7,0.8 1,1.3 0.3,0.5 0.4,1.2 0.4,2.1 0,0.4 0,0.9 0,1.3 0,0.4 0,0.9 0,1.4 0,0.5 0,1 0,1.5 0,0.5 0,1.1 0,1.7 0,0.2 0,0.4 0,0.5 0,0.2 0,0.3 0,0.5 0,0.2 -0.1,0.4 -0.1,0.6 0,0.2 -0.1,0.5 -0.2,0.8 l -10.5,0 0,-2.6 7.6,0 C 42,10.2 42,9.8 42,9.4 42,9 42,8.6 42,8.2 42,7.8 42,7.4 42,6.9 42,6.5 42,6.1 42,5.7 42,5.2 42,4.8 41.9,4.5 41.9,4.2 41.8,3.9 41.6,3.8 41.4,3.6 41.2,3.5 40.9,3.4 40.6,3.3 40.2,3.3 39.7,3.3 l -0.3,0 z m 14.5,-2.6 0,12.5 -3.3,0 0,-9.9 -2.1,0 0,-2.6 5.4,0 z m 6.8,2.6 c -0.4,0 -0.8,0 -1.1,0 -0.3,0 -0.6,0 -0.9,-0.1 -0.3,0 -0.6,-0.1 -0.9,-0.2 -0.3,-0.1 -0.6,-0.2 -1,-0.3 0.1,-0.4 0.3,-0.9 0.4,-1.3 0.1,-0.4 0.3,-0.8 0.4,-1.2 0.4,0.1 0.8,0.2 1,0.3 0.3,0.1 0.6,0.1 0.8,0.1 0.3,0 0.5,0.1 0.8,0.1 0.3,0 0.7,0 1.1,0 l 6.9,0 0,2.6 -2.4,0 0,9.9 -3.3,0 0,-9.9 -1.8,0 z M 85.4,0.6 c 0.5,0 1,0.1 1.5,0.2 0.5,0.1 0.9,0.3 1.3,0.6 0.4,0.3 0.7,0.7 0.9,1.3 0.2,0.6 0.4,1.2 0.4,2.1 l 0,8.3 -11.6,0 0,-6.9 c 0,-0.5 0,-1 0.1,-1.5 0.1,-0.5 0.2,-1 0.3,-1.6 C 78,3.1 77.7,3 77.4,2.9 77.1,2.8 76.8,2.7 76.4,2.6 c 0.1,-0.4 0.3,-0.9 0.4,-1.3 0.1,-0.4 0.3,-0.8 0.4,-1.2 0.4,0.1 0.8,0.2 1,0.3 0.3,0.1 0.6,0.1 0.8,0.1 0.3,0 0.5,0.1 0.8,0.1 0.3,0 0.7,0 1.1,0 l 4.5,0 z m 0.9,9.9 0,-4.9 c 0,-0.5 0,-0.9 -0.1,-1.2 C 86.2,4.1 86.1,3.8 85.9,3.7 85.7,3.5 85.5,3.4 85.2,3.3 84.9,3.2 84.5,3.2 84,3.2 l -2.7,0 c -0.1,0.6 -0.2,1.1 -0.2,1.5 0,0.5 0,0.9 0,1.4 l 0,4.3 5.2,0 z m 14.4,-9.9 c 0.5,0 1,0.1 1.5,0.2 0.5,0.1 0.9,0.3 1.3,0.6 0.4,0.3 0.7,0.7 0.9,1.3 0.2,0.6 0.4,1.2 0.4,2.1 l 0,8.3 -3.3,0 0,-7.5 c 0,-0.5 0,-0.9 -0.1,-1.2 0,-0.3 -0.1,-0.6 -0.3,-0.7 -0.2,-0.2 -0.4,-0.3 -0.7,-0.4 -0.3,-0.1 -0.7,-0.1 -1.2,-0.1 l -2.4,0 c -0.1,0.6 -0.2,1.1 -0.2,1.5 0,0.5 0,0.9 0,1.4 l 0,6.9 -3.3,0 0,-6.9 c 0,-0.5 0,-1 0.1,-1.5 C 93.5,4.1 93.6,3.6 93.7,3 93.4,3 93.1,2.9 92.8,2.8 92.5,2.7 92.2,2.6 91.8,2.5 91.9,2.1 92.1,1.6 92.2,1.2 92.3,0.8 92.5,0.4 92.6,0 c 0.4,0.1 0.8,0.2 1,0.3 0.3,0.1 0.6,0.1 0.8,0.1 0.3,0 0.5,0.1 0.8,0.1 0.3,0 0.7,0 1.1,0 l 4.4,0 z m 15.6,0 c 0.5,0 1,0.1 1.5,0.2 0.5,0.1 0.9,0.3 1.3,0.6 0.4,0.3 0.7,0.7 0.9,1.3 0.2,0.5 0.4,1.2 0.4,2.1 l 0,8.3 -3.3,0 0,-7.5 c 0,-0.5 0,-0.9 -0.1,-1.2 0,-0.3 -0.1,-0.6 -0.3,-0.7 -0.2,-0.2 -0.4,-0.3 -0.7,-0.4 -0.3,-0.1 -0.7,-0.1 -1.2,-0.1 l -1.8,0 c -0.3,0.6 -0.4,1.1 -0.6,1.8 -0.1,0.6 -0.2,1.3 -0.2,1.9 0,0.4 0,0.7 0,1 0,0.3 0,0.6 0.1,0.9 0,0.3 0.1,0.6 0.2,0.9 0.1,0.3 0.1,0.6 0.2,0.9 l 0.2,0.7 c 0,0.3 -0.1,0.7 -0.1,1 0,0.3 -0.1,0.6 -0.2,0.9 l -5.9,0 0,-2.6 2.8,0 C 109.3,10 109.1,9.4 109,8.8 c -0.1,-0.6 -0.2,-1.1 -0.2,-1.7 0,-0.4 0,-0.9 0.1,-1.3 0.1,-0.4 0.2,-0.9 0.3,-1.3 0.1,-0.2 0.1,-0.4 0.2,-0.6 0.1,-0.2 0.1,-0.4 0.2,-0.6 -0.4,0 -0.7,-0.1 -1,-0.2 -0.3,-0.1 -0.7,-0.2 -1.2,-0.4 0.1,-0.4 0.3,-0.9 0.4,-1.3 0.1,-0.4 0.3,-0.8 0.4,-1.2 0.4,0.1 0.8,0.2 1,0.3 0.3,0.1 0.6,0.1 0.8,0.1 0.3,0 0.5,0.1 0.8,0.1 0.3,0 0.7,0 1.1,0 l 4.4,0 z m 6.9,1 c 0.4,-0.3 0.8,-0.5 1.3,-0.8 0.4,-0.3 0.8,-0.5 1.3,-0.8 0.2,0.3 0.4,0.5 0.5,0.7 0.1,0.2 0.3,0.4 0.4,0.6 0.1,0.2 0.2,0.3 0.3,0.5 0.1,0.2 0.2,0.4 0.2,0.5 0.7,-0.7 1.4,-1.2 2.1,-1.5 0.7,-0.3 1.5,-0.5 2.2,-0.5 0.5,0 1,0.1 1.5,0.2 0.5,0.2 0.9,0.4 1.3,0.7 0.4,0.3 0.7,0.6 0.9,1.1 0.3,0.4 0.4,0.9 0.6,1.4 0.1,0.4 0.1,0.9 0.2,1.5 0,0.5 0,1.1 0,1.8 0,0.3 0,0.6 0,1 0,0.3 0,0.7 0,1.2 0,0.6 0,1.1 0,1.6 0,0.5 0,0.9 -0.1,1.3 0,0.2 0,0.4 0,0.6 0,0.2 0,0.4 -0.1,0.6 l -6.3,0 0,-2.6 3.2,0 c 0,0 0,-0.1 0,-0.3 0,-0.1 0,-0.3 0,-0.6 0,-0.2 0,-0.6 0,-0.9 0,-0.3 0,-0.9 0,-1.4 0,-0.2 0,-0.4 0,-0.6 0,-0.2 0,-0.5 0,-0.7 0,-0.3 0,-0.5 0,-0.7 0,-0.2 0,-0.4 0,-0.6 -0.1,-0.6 -0.3,-1.1 -0.6,-1.4 -0.3,-0.3 -0.7,-0.4 -1.3,-0.4 -0.3,0 -0.6,0.1 -0.9,0.2 -0.3,0.1 -0.6,0.3 -0.9,0.5 -0.2,0.1 -0.4,0.3 -0.5,0.4 -0.2,0.2 -0.3,0.3 -0.5,0.5 -0.1,0.9 -0.3,1.7 -0.3,2.3 -0.1,0.6 -0.2,1.2 -0.3,1.7 -0.1,0.5 -0.1,0.9 -0.2,1.3 -0.1,0.4 -0.1,0.7 -0.2,1.1 -0.1,0.3 -0.1,0.7 -0.2,1.1 -0.1,0.4 -0.1,0.8 -0.2,1.3 l -3.3,0 0.3,-2.1 c 0.1,-0.5 0.1,-1 0.2,-1.5 0.1,-0.5 0.1,-0.9 0.2,-1.4 0.1,-0.5 0.1,-0.9 0.2,-1.4 0.1,-0.5 0.2,-1 0.2,-1.5 0,-0.1 0,-0.3 0,-0.4 0,-0.1 0,-0.2 0,-0.3 0,-0.2 0,-0.4 0,-0.6 0,-0.2 -0.1,-0.3 -0.1,-0.5 -0.1,-0.2 -0.1,-0.3 -0.2,-0.5 -0.1,-0.2 -0.2,-0.4 -0.3,-0.6 l -0.6,-1.1 z"
     class="st13" /><g
     transform="matrix(0,-1,1,0,-631.5,440.8)"
     id="g361"><defs
       id="defs363"><rect
         height="1619.8"
         width="953.09998"
         y="119"
         x="65.699997"
         id="SVGID_27_" /></defs><clipPath
       id="SVGID_28_"><use
         height="100%"
         width="100%"
         y="0"
         x="0"
         id="use367"
         style="overflow:visible"
         xlink:href="#SVGID_27_" /></clipPath><path
       style="fill:#141032"
       clip-path="url(#SVGID_28_)"
       id="path369"
       d="m 410,709.2 c -5.4,0 -20,-9.7 -20,-9.7 0,0 14.7,-9.7 20,-9.7 5.4,0 9.7,4.3 9.7,9.7 -0.1,5.4 -4.4,9.7 -9.7,9.7"
       class="st27" /></g></svg>