<?xml version="1.0" encoding="UTF-8" standalone="no"?>
<svg
   xmlns:dc="http://purl.org/dc/elements/1.1/"
   xmlns:cc="http://creativecommons.org/ns#"
   xmlns:rdf="http://www.w3.org/1999/02/22-rdf-syntax-ns#"
   xmlns:svg="http://www.w3.org/2000/svg"
   xmlns="http://www.w3.org/2000/svg"
   width="79.614891mm"
   height="38.297546mm"
   viewBox="0 0 282.10001 135.69997"
   id="svg9512"
   version="1.1">
  <defs
     id="defs9514" />
  <metadata
     id="metadata9517">
    <rdf:RDF>
      <cc:Work
         rdf:about="">
        <dc:format>image/svg+xml</dc:format>
        <dc:type
           rdf:resource="http://purl.org/dc/dcmitype/StillImage" />
        <dc:title></dc:title>
      </cc:Work>
    </rdf:RDF>
  </metadata>
  <g
     id="layer1"
     transform="translate(-201.80714,-435.9408)">
    <path
       id="path1011_1_"
       class="st7"
       d="m 365.95714,523.64077 c 0,12.8 -23.1,48 -23.1,48 0,0 -23.1,-34.9 -23.1,-48 0,-12.8 10.3,-23.1 23.1,-23.1 12.8,0 23.1,10.3 23.1,23.1"
       style="fill:#f8b119;fill-opacity:1" />
    <rect
       id="rect863_1_"
       x="201.80714"
       y="435.9408"
       class="st13"
       width="282.10001"
       height="53.5"
       style="fill:#6f4d80" />
    <g
       id="XMLID_1133_"
       transform="translate(-1512.4929,-517.35923)">
      <g
         id="XMLID_1333_">
        <path
           id="XMLID_1348_"
           class="st5"
           d="m 1762.1,967.9 c 1.2,1.2 1.8,3 1.8,5.5 l 0,15 -5.6,0 -12.3,0 -1.2,0 0,-22.3 5.6,0 6.6,0 c 2.2,0.2 3.8,0.7 5.1,1.8 z m -3.8,16.3 0,-11 c 0,-1.8 -0.8,-2.8 -2.7,-2.8 l -5.1,0 0,13.8 7.8,0 0,0 z"
           style="fill:#ffffff" />
        <path
           id="XMLID_1347_"
           class="st5"
           d="m 1769.3,970.8 -0.5,-4.5 5.6,0 0.5,4.5 0,6.1 0,2.5 -5.6,0.8 0,-9.4 z"
           style="fill:#ffffff" />
        <g
           id="XMLID_1345_">
          <path
             id="XMLID_1346_"
             class="st5"
             d="m 1779.4,984.2 5.6,0 0,-11.3 c 0,-1 -0.2,-1.7 -0.5,-2 -0.3,-0.3 -0.8,-0.7 -1.7,-0.7 l -2.7,-0.3 0.7,-4.2 4.8,0.7 c 1.7,0.2 2.8,0.8 3.7,2 0.8,1.2 1.3,2.7 1.3,4.5 l 0,15.6 -11.3,0 0,-4.3 z"
             style="fill:#ffffff" />
        </g>
        <path
           id="XMLID_1344_"
           class="st5"
           d="m 1814.8,985.9 c -1.7,2 -4,3.2 -7.1,3.2 -1.2,0 -2.3,-0.2 -3.7,-0.5 l 0.5,-4.2 c 1,0.2 1.8,0.3 2.5,0.3 1.8,0 3,-0.7 3.8,-1.8 0.8,-1.1 1.2,-3 1.2,-5.3 0,-2.7 -0.3,-4.5 -1,-5.6 -0.7,-1.2 -1.8,-1.7 -3.3,-1.7 -1,0 -2,0.3 -2.7,1 -0.7,0.7 -1.2,1.5 -1.3,2.5 l -2.5,14.8 -5.6,0 2.7,-15 -3.2,-7.3 5.8,0 1.5,4.5 c 0.5,-1.7 1.3,-2.8 2.5,-3.7 1.2,-0.9 2.3,-1.2 3.8,-1.2 2.8,0 5,1 6.3,2.8 1.5,2 2.2,4.8 2.2,8.6 0.1,3.8 -0.7,6.6 -2.4,8.6 z"
           style="fill:#ffffff" />
        <path
           id="XMLID_1343_"
           class="st5"
           d="m 1836.7,988.5 -7.3,-11.3 -3.5,11.3 -5.3,0 4.3,-13.5 1.2,-3 -3.7,-5.8 5.6,0 3.2,5.1 2.8,4.3 1,-3.5 1.5,-5.8 5.3,0 -4.7,14.3 5.3,8.1 -5.8,0 0,-0.2 z"
           style="fill:#ffffff" />
        <path
           id="XMLID_1340_"
           class="st5"
           d="m 1846.7,977.9 0.8,-2.7 4.8,0 0,13.3 -5.6,0 0,-10.6 z m 13.1,-4.7 c 0,-1.8 -0.8,-2.8 -2.7,-2.8 l -10.1,0 0,-4.2 11.6,0 c 2.2,0 3.7,0.7 5,1.8 1.2,1.2 1.8,3 1.8,5.5 l 0,15 -5.6,0 0,-15.3 z"
           style="fill:#ffffff" />
        <path
           id="XMLID_1339_"
           class="st5"
           d="m 1877.6,985.4 c 1,-0.2 1.7,-0.3 2.2,-0.7 0.5,-0.3 0.8,-0.7 1,-1.2 0.2,-0.5 0.3,-1.2 0.2,-2.2 l 0,-15.1 11.8,0 c 2.2,0 3.7,0.7 5,1.8 1.2,1.2 1.8,3 1.8,5.5 l 0,15 -5.6,0 0,-15.3 c 0,-1.8 -0.8,-2.8 -2.7,-2.8 l -4.7,0 0,10.3 c 0,2 -0.3,3.5 -1,4.7 -0.7,1.2 -1.5,2 -2.8,2.7 -1.3,0.7 -2.8,1 -5,1.2 l -0.2,-3.9 z"
           style="fill:#ffffff" />
        <path
           id="XMLID_1338_"
           class="st5"
           d="m 1904.3,966.3 5.6,0 2,17.6 c 2.7,-0.3 4.7,-1 5.8,-2.3 1.1,-1.3 1.7,-3.3 1.7,-5.6 l 0,-1.2 c 0,-1.2 -0.3,-2.2 -1,-3 -0.7,-0.8 -1.7,-1.3 -2.8,-1.3 l -2,-0.2 0.5,-4.3 2.3,0.2 c 2.5,0.2 4.5,0.8 6,2.3 1.5,1.3 2.3,3.3 2.5,5.8 l 0,1.2 c 0.2,4.7 -1.3,8 -4.5,10.1 -3.2,2.2 -7.6,3.5 -13.5,3.7 l -2.6,-23 z"
           style="fill:#ffffff" />
        <path
           id="XMLID_1337_"
           class="st5"
           d="m 1947.9,985.9 c -1.7,2 -4,3.2 -7.1,3.2 -1.2,0 -2.3,-0.2 -3.7,-0.5 l 0.5,-4.2 c 1,0.2 1.8,0.3 2.5,0.3 1.8,0 3,-0.7 3.8,-1.8 0.8,-1.1 1.2,-3 1.2,-5.3 0,-2.7 -0.3,-4.5 -1,-5.6 -0.7,-1.1 -1.8,-1.7 -3.3,-1.7 -1,0 -2,0.3 -2.7,1 -0.7,0.7 -1.2,1.5 -1.3,2.5 l -2.5,14.8 -5.6,0 2.7,-15 -3.2,-7.3 5.8,0 1.5,4.5 c 0.5,-1.7 1.3,-2.8 2.5,-3.7 1.2,-0.9 2.3,-1.2 3.8,-1.2 2.8,0 5,1 6.3,2.8 1.5,2 2.2,4.8 2.2,8.6 0.1,3.8 -0.8,6.6 -2.4,8.6 z"
           style="fill:#ffffff" />
        <path
           id="XMLID_1334_"
           class="st5"
           d="m 1970.3,985.5 c -3,2 -7.5,3.2 -13.1,3.3 l -2.2,-18.4 -0.5,-4.2 12,0 c 2.5,0 4.5,0.7 6,2.2 1.5,1.5 2.2,3.5 2.2,6 l 0,1.3 c -0.1,4.5 -1.4,7.8 -4.4,9.8 z m -4,-2.8 c 1,-0.7 1.7,-1.5 2.2,-2.7 0.3,-1.2 0.5,-2.7 0.5,-4.5 l 0,-1.2 c 0,-1.2 -0.3,-2.2 -0.8,-2.8 -0.5,-0.7 -1.3,-1 -2.2,-1 l -5.3,0 1.5,13.5 c 1.6,-0.3 3.1,-0.6 4.1,-1.3 z"
           style="fill:#ffffff" />
      </g>
    </g>
  </g>
</svg>
