<?xml version="1.0" encoding="UTF-8" standalone="no"?>
<svg
   xmlns:dc="http://purl.org/dc/elements/1.1/"
   xmlns:cc="http://creativecommons.org/ns#"
   xmlns:rdf="http://www.w3.org/1999/02/22-rdf-syntax-ns#"
   xmlns:svg="http://www.w3.org/2000/svg"
   xmlns="http://www.w3.org/2000/svg"
   xmlns:xlink="http://www.w3.org/1999/xlink"
   width="2121.365"
   height="1279.1"
   viewBox="0 0 2121.365 1279.1"
   id="svg11030"
   version="1.1">
  <defs
     id="defs11032">
    <linearGradient
       y2="895.38397"
       x2="1354.9209"
       y1="978.12207"
       x1="1288.6132"
       gradientUnits="userSpaceOnUse"
       id="SVGID_10_">
      <stop
         id="stop353"
         style="stop-color:#FFFFFF"
         offset="0" />
      <stop
         id="stop355"
         style="stop-color:#D7DBE0"
         offset="0.1284" />
      <stop
         id="stop357"
         style="stop-color:#949EAB"
         offset="0.3636" />
      <stop
         id="stop359"
         style="stop-color:#5F6E81"
         offset="0.5765" />
      <stop
         id="stop361"
         style="stop-color:#384B62"
         offset="0.7598" />
      <stop
         id="stop363"
         style="stop-color:#213650"
         offset="0.9061" />
      <stop
         id="stop365"
         style="stop-color:#182E49"
         offset="0.9972" />
    </linearGradient>
    <linearGradient
       y2="897.00952"
       x2="1356.9491"
       y1="979.74762"
       x1="1290.6414"
       gradientUnits="userSpaceOnUse"
       id="SVGID_11_">
      <stop
         id="stop370"
         style="stop-color:#FFFFFF"
         offset="0" />
      <stop
         id="stop372"
         style="stop-color:#D7DBE0"
         offset="0.1284" />
      <stop
         id="stop374"
         style="stop-color:#949EAB"
         offset="0.3636" />
      <stop
         id="stop376"
         style="stop-color:#5F6E81"
         offset="0.5765" />
      <stop
         id="stop378"
         style="stop-color:#384B62"
         offset="0.7598" />
      <stop
         id="stop380"
         style="stop-color:#213650"
         offset="0.9061" />
      <stop
         id="stop382"
         style="stop-color:#182E49"
         offset="0.9972" />
    </linearGradient>
    <linearGradient
       y2="896.30591"
       x2="1356.0713"
       y1="979.04388"
       x1="1289.7634"
       gradientUnits="userSpaceOnUse"
       id="SVGID_12_">
      <stop
         id="stop387"
         style="stop-color:#FFFFFF"
         offset="0" />
      <stop
         id="stop389"
         style="stop-color:#D7DBE0"
         offset="0.1284" />
      <stop
         id="stop391"
         style="stop-color:#949EAB"
         offset="0.3636" />
      <stop
         id="stop393"
         style="stop-color:#5F6E81"
         offset="0.5765" />
      <stop
         id="stop395"
         style="stop-color:#384B62"
         offset="0.7598" />
      <stop
         id="stop397"
         style="stop-color:#213650"
         offset="0.9061" />
      <stop
         id="stop399"
         style="stop-color:#182E49"
         offset="0.9972" />
    </linearGradient>
  </defs>
  <metadata
     id="metadata11035">
    <rdf:RDF>
      <cc:Work
         rdf:about="">
        <dc:format>image/svg+xml</dc:format>
        <dc:type
           rdf:resource="http://purl.org/dc/dcmitype/StillImage" />
        <dc:title></dc:title>
      </cc:Work>
    </rdf:RDF>
  </metadata>
  <g
     id="layer1"
     transform="translate(692.111,135.75922)">
    <g
       id="g346"
       transform="translate(-1839.911,-282.25922)">
      <g
         id="g348">
        <g
           id="g350">
          <linearGradient
             y2="895.38397"
             x2="1354.9209"
             y1="978.12207"
             x1="1288.6132"
             gradientUnits="userSpaceOnUse"
             id="linearGradient10567">
            <stop
               id="stop10569"
               style="stop-color:#FFFFFF"
               offset="0" />
            <stop
               id="stop10571"
               style="stop-color:#D7DBE0"
               offset="0.1284" />
            <stop
               id="stop10573"
               style="stop-color:#949EAB"
               offset="0.3636" />
            <stop
               id="stop10575"
               style="stop-color:#5F6E81"
               offset="0.5765" />
            <stop
               id="stop10577"
               style="stop-color:#384B62"
               offset="0.7598" />
            <stop
               id="stop10579"
               style="stop-color:#213650"
               offset="0.9061" />
            <stop
               id="stop10581"
               style="stop-color:#182E49"
               offset="0.9972" />
          </linearGradient>
          <polygon
             style="opacity:1;fill:url(#SVGID_10_);enable-background:new"
             id="polygon367"
             points="1330.9,863.3 1401.3,897.8 1412,890.5 1414.6,875.4 1428.8,867.1 1428.4,866.9 1428.4,850.7 1362.5,821.8 1362.5,836 1343.7,843 1343.7,858.3 "
             class="st26" />
          <linearGradient
             y2="897.00952"
             x2="1356.9491"
             y1="979.74762"
             x1="1290.6414"
             gradientUnits="userSpaceOnUse"
             id="linearGradient10584">
            <stop
               id="stop10586"
               style="stop-color:#FFFFFF"
               offset="0" />
            <stop
               id="stop10588"
               style="stop-color:#D7DBE0"
               offset="0.1284" />
            <stop
               id="stop10590"
               style="stop-color:#949EAB"
               offset="0.3636" />
            <stop
               id="stop10592"
               style="stop-color:#5F6E81"
               offset="0.5765" />
            <stop
               id="stop10594"
               style="stop-color:#384B62"
               offset="0.7598" />
            <stop
               id="stop10596"
               style="stop-color:#213650"
               offset="0.9061" />
            <stop
               id="stop10598"
               style="stop-color:#182E49"
               offset="0.9972" />
          </linearGradient>
          <polygon
             style="opacity:1;fill:url(#SVGID_11_);enable-background:new"
             id="polygon384"
             points="1261.9,965.7 1243,972.6 1243,988 1311.3,1020.1 1313.8,1005.2 1328,996.7 1328,981.9 1333,984.2 1347.9,976.6 1348.7,976.9 1348.7,963.2 1275.4,929.2 1275.4,944.8 1275.4,944.9 1261.9,951.4 "
             class="st27" />
          <linearGradient
             y2="896.30591"
             x2="1356.0713"
             y1="979.04388"
             x1="1289.7634"
             gradientUnits="userSpaceOnUse"
             id="linearGradient10601">
            <stop
               id="stop10603"
               style="stop-color:#FFFFFF"
               offset="0" />
            <stop
               id="stop10605"
               style="stop-color:#D7DBE0"
               offset="0.1284" />
            <stop
               id="stop10607"
               style="stop-color:#949EAB"
               offset="0.3636" />
            <stop
               id="stop10609"
               style="stop-color:#5F6E81"
               offset="0.5765" />
            <stop
               id="stop10611"
               style="stop-color:#384B62"
               offset="0.7598" />
            <stop
               id="stop10613"
               style="stop-color:#213650"
               offset="0.9061" />
            <stop
               id="stop10615"
               style="stop-color:#182E49"
               offset="0.9972" />
          </linearGradient>
          <polygon
             style="opacity:1;fill:url(#SVGID_12_);enable-background:new"
             id="polygon401"
             points="1330.2,880.7 1311.3,887.7 1311.3,902.2 1295.3,908.8 1294.9,908.6 1294.2,922.2 1275.4,929.2 1349,962.9 1362.2,956.2 1362.2,941.8 1362.5,942 1378.7,934.3 1379.6,934.7 1379.6,919 1395.1,911.4 1395.8,911.8 1395.8,895.4 1330.9,863.3 "
             class="st28" />
        </g>
        <polygon
           style="fill:none;stroke:#1a1631;stroke-width:0.23999999"
           points="1401.3,897.8 1330.9,863.3 1349.7,856 1412,890.5 "
           class="st14"
           id="polygon185_1_" />
        <polygon
           style="fill:none;stroke:#1a1631;stroke-width:0.23999999"
           points="1412,890.5 1343.7,858.4 1343.7,843 1414.6,875.4 "
           class="st14"
           id="polygon189_1_" />
        <polygon
           style="fill:none;stroke:#1a1631;stroke-width:0.23999999"
           points="1414.6,875.4 1343.7,843 1362.5,836 1428.8,867.1 "
           class="st14"
           id="polygon193_1_" />
        <polygon
           style="fill:none;stroke:#1a1631;stroke-width:0.23999999"
           points="1333,984.2 1261.9,951.4 1281.4,942 1348.7,976.2 "
           class="st14"
           id="polygon201_1_" />
        <polygon
           style="fill:none;stroke:#1a1631;stroke-width:0.23999999"
           points="1362.2,956.2 1294.2,922.2 1294.9,908.6 1362.2,941.7 "
           class="st14"
           id="polygon213_1_" />
        <polygon
           style="fill:none;stroke:#1a1631;stroke-width:0.23999999"
           points="1313.8,1005.2 1243,972.6 1261.9,965.7 1328,996.7 "
           class="st14"
           id="polygon221_1_" />
        <polygon
           style="fill:none;stroke:#1a1631;stroke-width:0.23999999"
           points="1328,996.7 1261.9,965.7 1261.9,951.4 1328,980.3 "
           class="st14"
           id="polygon225_1_" />
        <polygon
           style="fill:none;stroke:#1a1631;stroke-width:0.23999999"
           points="1362.5,942 1294.9,908.9 1313.8,901.2 1379.4,934 "
           class="st14"
           id="polygon229_1_" />
        <polygon
           style="fill:none;stroke:#1a1631;stroke-width:0.23999999"
           points="1379.6,934.7 1311.3,903.1 1311.3,887.7 1379.6,918.6 "
           class="st14"
           id="polygon233_1_" />
        <polygon
           style="fill:none;stroke:#1a1631;stroke-width:0.23999999"
           points="1379.6,919 1311.3,887.7 1330.2,880.7 1395.3,911.3 "
           class="st14"
           id="polygon237_1_" />
      </g>
      <polygon
         style="fill:none;stroke:#1a1631;stroke-width:0.23999999"
         points="1395.8,911.8 1330.2,880.7 1330.9,863.3 1395.8,895.4 "
         class="st14"
         id="polygon181_1_" />
      <polygon
         style="fill:none;stroke:#1a1631;stroke-width:0.23999999"
         points="1428.4,867.1 1362.5,836 1362.5,821.8 1428.4,850.7 "
         class="st14"
         id="polygon197_1_" />
      <polygon
         style="fill:none;stroke:#1a1631;stroke-width:0.23999999"
         points="1348.7,976.9 1275.4,944.8 1275.4,929.2 1348.7,963.2 "
         class="st14"
         id="polygon205_1_" />
      <polygon
         style="fill:none;stroke:#1a1631;stroke-width:0.23999999"
         points="1349,962.9 1275.4,929.2 1294.2,922.2 1362.2,956.2 "
         class="st14"
         id="polygon209_1_" />
      <polygon
         style="fill:none;stroke:#1a1631;stroke-width:0.23999999"
         points="1311.3,1020.1 1243,988 1243,972.6 1313.8,1005.2 "
         class="st14"
         id="polygon217_1_" />
    </g>
    <polygon
       style="opacity:1;fill:#ffffff;stroke:#000000;stroke-width:0.5;enable-background:new"
       id="polygon439"
       points="2957.4,258.4 2957.2,213.8 2621.6,379.8 2621.8,426.1 "
       class="st34"
       transform="translate(-1839.911,-282.25922)" />
    <polygon
       style="fill:#182e49"
       id="polygon441"
       points="2954.6,258.4 2619.2,423.5 2775.2,494.4 3076.2,320.7 "
       class="st8"
       transform="translate(-1839.911,-282.25922)" />
    <polygon
       style="opacity:1;fill:#ffffff;stroke:#000000;stroke-width:0.5;enable-background:new"
       id="polygon443"
       points="3076.2,272.4 2954.6,211.2 2954.6,258.4 3076.2,320.7 "
       class="st34"
       transform="translate(-1839.911,-282.25922)" />
    <polyline
       style="fill:#225991"
       id="polyline445"
       points="2954.6,258.4 3075.4,317.3 2864.7,425.3 2740.8,359.6  "
       class="st12"
       transform="translate(-1839.911,-282.25922)" />
    <polygon
       style="opacity:1;fill:#ffffff;stroke:#000000;stroke-width:0.5;enable-background:new"
       id="polygon447"
       points="2864.7,377 2743.1,315.8 2743.1,363 2864.7,425.3 "
       class="st34"
       transform="translate(-1839.911,-282.25922)" />
    <polygon
       style="opacity:1;fill:#ffffff;stroke:#000000;stroke-width:0.5;enable-background:new"
       id="polygon449"
       points="2740.8,437.5 2619.2,376.3 2619.2,423.5 2740.8,485.8 "
       class="st34"
       transform="translate(-1839.911,-282.25922)" />
    <polygon
       style="fill:#182e49"
       id="polygon451"
       points="3115.2,332.3 3076.2,313.5 2726.8,488.1 2781.6,504.2 2814.3,522.1 2976.7,448 2919.7,428.1 "
       class="st8"
       transform="translate(-1839.911,-282.25922)" />
    <polygon
       style="opacity:1;fill:#ffffff;stroke:#000000;stroke-width:0.5;enable-background:new"
       id="polygon453"
       points="2787.9,462.2 2787.7,417.6 2736.8,437.1 2737,483.3 "
       class="st34"
       transform="translate(-1839.911,-282.25922)" />
    <polygon
       style="opacity:1;fill:#ffffff;stroke:#000000;stroke-width:0.5;enable-background:new"
       id="polygon455"
       points="2864.7,420.9 2864.5,376.4 2813.6,402.2 2813.7,448.5 "
       class="st34"
       transform="translate(-1839.911,-282.25922)" />
    <polygon
       style="opacity:1;fill:#ffffff;stroke:#000000;stroke-width:0.5;enable-background:new"
       id="polygon457"
       points="3075.4,317.3 3075.2,272.7 2998.7,309.9 2998.9,356.1 "
       class="st34"
       transform="translate(-1839.911,-282.25922)" />
    <polygon
       style="opacity:1;fill:#ffffff;stroke:#000000;stroke-width:0.5;enable-background:new"
       id="polygon459"
       points="2970.1,367.5 2969.9,322.9 2864.7,376.2 2864.8,422.4 "
       class="st34"
       transform="translate(-1839.911,-282.25922)" />
    <polygon
       style="opacity:1;fill:#ffffff;stroke:#000000;stroke-width:0.5;stroke-miterlimit:10;enable-background:new"
       id="polygon461"
       points="2781.6,504.2 2726.8,488.1 2728.8,448 2782.6,461.4 "
       class="st35"
       transform="translate(-1839.911,-282.25922)" />
    <polygon
       style="fill:#182e49"
       points="2628.9,574.4 2317.7,467.8 1803.4,706.3 1993.9,807.5 "
       class="st8"
       id="polygon495_2_"
       transform="translate(-1839.911,-282.25922)" />
    <polygon
       style="opacity:1;fill:#ffffff;stroke:#000000;stroke-width:0.5;stroke-miterlimit:10;enable-background:new"
       points="2294.8,660.5 2133.9,571.9 2133.9,526 2322.6,625.8 "
       class="st35"
       id="polygon501_2_"
       transform="translate(-1839.911,-282.25922)" />
    <polygon
       style="opacity:1;fill:#ffffff;stroke:#000000;stroke-width:0.5;stroke-miterlimit:10;enable-background:new"
       points="2329,442.7 2616.9,533.4 2616.9,567.9 2612.8,569.5 2607.5,571.5 2329,485.8 "
       class="st35"
       id="polygon505_2_"
       transform="translate(-1839.911,-282.25922)" />
    <g
       id="polygon509_2_"
       transform="translate(-1839.911,-282.25922)">
      <image
         style="display:none;overflow:visible;enable-background:new"
         width="5654"
         height="2746"
         transform="matrix(0.3419,0,0,0.3415,1409.4771,635.7098)"
         id="image490"
         xlink:href="F:\conventions app\convention resources\harucon 2019\from design\map\32FCF02F.png" />
      <g
         id="g492">
        <g
           id="g494">
          <polygon
             style="fill:#182e49"
             id="polygon496"
             points="1578.2,954.9 2485.3,1398.9 2659.6,1281.6 2515.7,1221.7 2902,937.4 3257.2,738.1 2784.8,504.2 2572.4,578.9 2525.5,597.6 2221.8,696.1 2223.5,687.6 1960,774.4 1810.1,708.4 1684,767 1580.1,730.9 1366.9,821.6 1461.9,893.9 "
             class="st8" />
        </g>
      </g>
    </g>
    <polygon
       style="fill:#e04c26;stroke:#000000;stroke-miterlimit:10"
       points="2371.8,958.5 2352.7,964.9 2192.6,891.9 2209.5,884.8 "
       class="st16"
       id="polygon561_3_"
       transform="translate(-1839.911,-282.25922)" />
    <polygon
       style="fill:#225991"
       points="2714.5,911.9 2742.8,895.8 2742.4,881.1 2746.5,893.6 2774.9,877.5 2773.2,865 2804.6,848.4 2957.3,732.8 2702.6,616.7 2401,692.9 2026.7,779.3 2499.7,1008.3 2709.6,898.2 2709.6,898.2 "
       class="st12"
       id="polygon515_2_"
       transform="translate(-1839.911,-282.25922)" />
    <polygon
       style="opacity:1;fill:#ffffff;stroke:#000000;stroke-width:0.5;stroke-miterlimit:10;enable-background:new"
       points="2329,485.8 1663.2,776.6 1663.2,732.8 2329,442.7 "
       class="st35"
       id="polygon497_2_"
       transform="translate(-1839.911,-282.25922)" />
    <polyline
       style="opacity:1;fill:#ffffff;stroke:#000000;stroke-width:0.5;stroke-miterlimit:10;enable-background:new"
       points="2361.1,1301 2472.2,1214.6 2472.6,1268 2494.4,1251.7 2493.7,1198.1    2855.1,917.3 3258.9,687.6 3257.2,738.1 2863.8,975.5 2494.4,1251.7 2470,1269.7 2361.1,1351.5  "
       class="st35"
       id="polyline525_2_"
       transform="translate(-1839.911,-282.25922)" />
    <polygon
       style="opacity:1;fill:#ffffff;stroke:#000000;stroke-width:0.5;stroke-miterlimit:10;enable-background:new"
       points="2516.4,1235.4 2660.6,1287.6 2660.6,1248.6 2514.5,1194.2 "
       class="st35"
       id="polygon537_2_"
       transform="translate(-1839.911,-282.25922)" />
    <polygon
       style="opacity:1;fill:#ffffff;stroke:#000000;stroke-width:0.5;stroke-miterlimit:10;enable-background:new"
       points="2486,1407.7 2485.6,1362.5 2660.3,1249.6 2660.3,1288.8 "
       class="st35"
       id="polygon541_2_"
       transform="translate(-1839.911,-282.25922)" />
    <polygon
       style="opacity:1;fill:#ffffff;stroke:#000000;stroke-width:0.5;stroke-miterlimit:10;enable-background:new"
       points="2702.2,618.1 2702.2,567.6 2027,754.3 2027,802.9 "
       class="st35"
       id="polygon549_2_"
       transform="translate(-1839.911,-282.25922)" />
    <polygon
       style="fill:#e04c26;stroke:#000000;stroke-miterlimit:10"
       points="2332.1,965.9 2313,972.3 2152.9,899.3 2169.9,892.2 "
       class="st16"
       id="polygon561_2_"
       transform="translate(-1839.911,-282.25922)" />
    <polygon
       style="fill:#e04c26;stroke:#000000;stroke-miterlimit:10"
       points="2352.8,961.2 2333.7,967.6 2173.6,894.6 2190.5,887.5 "
       class="st16"
       id="polygon561_1_"
       transform="translate(-1839.911,-282.25922)" />
    <polygon
       style="fill:#e04c26;stroke:#000000;stroke-miterlimit:10"
       points="2297.6,977.9 2314.2,972.3 2145.9,895.3 2127.2,901.3 "
       class="st16"
       id="polygon565_2_"
       transform="translate(-1839.911,-282.25922)" />
    <polygon
       style="opacity:1;fill:#ffffff;stroke:#000000;stroke-width:0.5;stroke-miterlimit:10;enable-background:new"
       points="3069,795.2 3116.3,768.7 2701.5,567.4 2701.5,618.4 "
       class="st35"
       id="polygon569_2_"
       transform="translate(-1839.911,-282.25922)" />
    <polygon
       style="fill:#e04c26;stroke:#000000;stroke-miterlimit:10"
       points="2281,983.9 2297.2,977.9 2120.1,896.5 2102.6,902 "
       class="st16"
       id="polygon575_2_"
       transform="translate(-1839.911,-282.25922)" />
    <polygon
       style="opacity:1;fill:#ffffff;stroke:#000000;stroke-width:0.5;stroke-miterlimit:10;enable-background:new"
       points="2499.7,1033.4 2499.7,983.2 2026.7,754.3 2026.7,802.9 "
       class="st35"
       id="polygon583_2_"
       transform="translate(-1839.911,-282.25922)" />
    <polygon
       style="opacity:1;fill:#ffffff;stroke:#000000;stroke-width:0.5;stroke-miterlimit:10;enable-background:new"
       points="2485.3,1407.7 2485.3,1363.2 1433.2,829 1433.2,881.2 "
       class="st35"
       id="polygon587_2_"
       transform="translate(-1839.911,-282.25922)" />
    <polygon
       style="opacity:1;fill:#ffffff;stroke:#000000;stroke-width:0.5;stroke-miterlimit:10;enable-background:new"
       id="polygon512"
       points="3030,708.4 3000.5,694.1 3001.9,675 2987.7,667.8 2984.7,686.8 2890.3,640.3 2890.6,621.3 2876.1,613.5 2875.6,633.5 2795.7,594.7 2796.6,570.8 2784.6,566.1 2783.9,588.6 2773.5,583.9 2773.5,538.7 3030,661.9 "
       class="st35"
       transform="translate(-1839.911,-282.25922)" />
    <polygon
       style="opacity:1;fill:#ffffff;stroke:#000000;stroke-width:0.5;stroke-miterlimit:10;enable-background:new"
       points="3107.9,668.9 3107.9,623.7 2845.5,498.2 2845.5,540.6 "
       class="st35"
       id="polygon595_1_"
       transform="translate(-1839.911,-282.25922)" />
    <polygon
       style="opacity:1;fill:#ffffff;stroke:#000000;stroke-width:0.5;stroke-miterlimit:10;enable-background:new"
       points="1663.2,776.6 1580.1,730.9 1580.1,694.7 1663.2,735.2 "
       class="st35"
       id="polygon599_2_"
       transform="translate(-1839.911,-282.25922)" />
    <polygon
       style="opacity:1;fill:#ffffff;stroke:#000000;stroke-width:0.5;stroke-miterlimit:10;enable-background:new"
       id="polygon516"
       points="2804.6,860.8 2774.9,877.5 2768.5,855.8 2740.8,871.7 2746.5,893.6 2748.1,892.8 2742.8,895.8 2736.4,874 2708.6,889.9 2714.5,911.9 2499.7,1033.4 2499.7,983.2 2804.6,808.2 2957.3,691.6 2957.3,742.3 "
       class="st35"
       transform="translate(-1839.911,-282.25922)" />
    <polygon
       style="opacity:1;fill:#ffffff;stroke:#000000;stroke-width:0.5;stroke-miterlimit:10;enable-background:new"
       points="3107.9,668.6 3030,708.4 3030,661.9 3107.9,623.7 "
       class="st35"
       id="polygon607_1_"
       transform="translate(-1839.911,-282.25922)" />
    <polygon
       style="opacity:1;fill:#ffffff;stroke:#000000;stroke-width:0.5;stroke-miterlimit:10;enable-background:new"
       points="3027.3,625 2990.2,644.1 2954.6,625.7 3028.7,584 "
       class="st35"
       id="polygon611_2_"
       transform="translate(-1839.911,-282.25922)" />
    <polygon
       style="opacity:1;fill:#ffffff;stroke:#000000;stroke-width:0.5;enable-background:new"
       points="2918.2,572.2 2881.2,591.3 2845.5,572.9 2919.7,531.3 "
       class="st34"
       id="polygon611_1_"
       transform="translate(-1839.911,-282.25922)" />
    <polygon
       style="opacity:1;fill:#ffffff;stroke:#000000;stroke-width:0.5;stroke-miterlimit:10;enable-background:new"
       points="2815.1,558.8 2773.5,538.7 2855.1,498.9 2855.1,538.7 "
       class="st35"
       id="polygon615_1_"
       transform="translate(-1839.911,-282.25922)" />
    <polyline
       style="opacity:1;fill:#ffffff;stroke:#000000;stroke-width:0.5;stroke-miterlimit:10;enable-background:new"
       points="1590.8,813.4 1434.1,885.8 1434.1,845.6 1590.8,770  "
       class="st35"
       id="polyline619_2_"
       transform="translate(-1839.911,-282.25922)" />
    <polygon
       style="opacity:1;fill:#ffffff;stroke:#000000;stroke-width:0.5;stroke-miterlimit:10;enable-background:new"
       points="1580.1,730.9 1371.4,819.8 1371.4,786 1580.1,694.7 "
       class="st35"
       id="polygon627_4_"
       transform="translate(-1839.911,-282.25922)" />
    <polygon
       style="fill:#1076b3"
       points="1325.3,801.5 1318.5,808.4 1348.3,814.4 1342.7,782.9 1336.7,789.2 1316.4,769 1304.5,780.9 "
       class="st39"
       id="polygon663_1_"
       transform="translate(-1839.911,-282.25922)" />
    <polygon
       style="opacity:1;fill:#ffffff;stroke:#000000;stroke-width:0.5;stroke-miterlimit:10;enable-background:new"
       points="1940.9,778.6 1940.9,735.2 1804.4,668.6 1804.4,712 "
       class="st35"
       id="polygon821_2_"
       transform="translate(-1839.911,-282.25922)" />
    <path
       style="opacity:1;fill:#ffffff;stroke:#000000;stroke-width:0.5;stroke-miterlimit:10;enable-background:new"
       d="m 220.28893,415.84079 -22.5,6.4 -96.7,31.1 0,42.6 97.7,-29.7 21.5,-6.4 0,-44 0,0 z m 59.9,26.6 277.60005,-80.4 0,-40.3 -277.60005,77.3 0,43.4 0,0 z m 661.50005,-220.5 0,-42.4 -299.2,118.5 -29.2,8.1 0,39.9 27.5,-7.7 300.9,-116.4 0,0 z m 0,-42.8 0,0 1,0 -1,0 z"
       class="st35"
       id="path825_2_" />
    <polygon
       style="opacity:1;fill:#ffffff;stroke:#000000;stroke-width:0.5;stroke-miterlimit:10;enable-background:new"
       id="polygon550"
       points="2790.9,568.5 2784.6,566.1 2784.5,571.1 "
       class="st35"
       transform="translate(-1839.911,-282.25922)" />
    <polygon
       style="fill:#1076b3"
       points="1187.8,680.9 1298.9,680.9 1298.9,709.5 1335.9,707.4 1335.9,757.5 1157.8,757.5 1157.8,709.5 1187.2,709.5 "
       class="st39"
       id="rect849_1_"
       transform="translate(-1839.911,-282.25922)" />
    <polygon
       style="fill:#401225"
       id="polygon556"
       points="2742.8,895.8 2743.1,896.6 2714.5,911.9 "
       class="st42"
       transform="translate(-1839.911,-282.25922)" />
    <polygon
       style="fill:#401225"
       id="polygon558"
       points="2774.9,877.5 2775.2,878.4 2748.4,892.6 "
       class="st42"
       transform="translate(-1839.911,-282.25922)" />
    <g
       id="g1044"
       transform="translate(-1839.911,-282.25922)">
      <path
         style="fill:#ffffff"
         id="path1046"
         d="m 1218.8,698 c 0,-1 -0.3,-1.8 -0.9,-2.3 -0.6,-0.5 -1.4,-0.8 -2.4,-0.8 l -6.1,0 0,-2.3 6.1,0 c 1.2,0 2.3,0.2 3.2,0.7 0.9,0.4 1.6,1.1 2.1,1.9 0.5,0.8 0.7,1.9 0.7,3 l 0,12.3 -2.8,0 0,-12.5 z"
         class="st21" />
      <path
         style="fill:#ffffff"
         id="path1048"
         d="m 1239.7,708.4 0,2.2 -14.8,0 0,-2.3 9.8,0 0,-9 c 0,-1.6 -0.3,-2.7 -1,-3.4 -0.7,-0.7 -1.8,-1 -3.4,-1 l -4.4,0 0,-2.3 4.5,0 c 2.4,0 4.1,0.6 5.3,1.7 1.2,1.1 1.8,2.8 1.8,5.1 l 0,8.8 2.2,0.2 z"
         class="st21" />
      <path
         style="fill:#ffffff"
         id="path1050"
         d="m 1255.8,692.6 0,10.8 c 0,1.6 -0.3,3 -1,4.1 -0.7,1.1 -1.6,2 -2.8,2.6 -1.2,0.6 -2.6,0.9 -4.2,0.9 -2,0 -4.2,-0.4 -6.4,-1.3 l 0.7,-2.1 c 1.8,0.7 3.4,1.1 4.8,1.2 -0.8,-0.9 -1.3,-1.9 -1.5,-3 l -3,-13.1 2.8,0 2.9,13.3 c 0.1,0.6 0.3,1.1 0.4,1.6 0.1,0.4 0.3,0.8 0.5,1.2 1.2,-0.3 2.2,-0.9 2.9,-1.7 0.7,-0.9 1,-2 1,-3.4 l 0,-10.9 2.9,0 z"
         class="st21" />
      <path
         style="fill:#ffffff"
         id="path1052"
         d="m 1262.6,699.1 c 0.1,-0.8 0.3,-1.6 0.7,-2.4 0.4,-0.7 0.8,-1.3 1.3,-1.7 0,0 0.1,-0.1 0.3,-0.2 l 0,0 c -0.5,0.1 -1,0.2 -1.7,0.4 -0.7,0.2 -1.3,0.4 -1.9,0.6 l -0.7,-2.1 c 1.2,-0.4 2.5,-0.7 4,-1 1.5,-0.3 2.8,-0.4 4.1,-0.4 2.4,0 4.3,0.6 5.6,1.9 1.3,1.3 1.9,3.2 1.9,5.7 l 0,10.7 -7.4,0 0,-2.3 4.6,0 0,-8.8 c 0,-1.6 -0.4,-2.8 -1.1,-3.7 -0.7,-0.8 -1.8,-1.3 -3.1,-1.3 -1,0 -1.8,0.4 -2.5,1.1 -0.7,0.8 -1.1,1.8 -1.2,3.1 l -1.4,11.7 -2.8,0 1.3,-11.3 z"
         class="st21" />
      <path
         style="fill:#ffffff"
         id="path1054"
         d="m 1193,731.8 c 1.2,1.1 1.8,2.9 1.8,5.2 l 0,11.1 -2.8,0 0,-11.3 c 0,-1.6 -0.3,-2.7 -1,-3.4 -0.7,-0.7 -1.7,-1.1 -3.2,-1.1 l -2.6,0 c -0.3,0.5 -0.6,1.3 -0.8,2.1 -0.2,0.8 -0.3,1.7 -0.3,2.7 l 0,6.1 c 0,1.7 -0.4,2.9 -1.2,3.8 -0.8,0.9 -1.9,1.3 -3.4,1.3 -0.4,0 -1,0 -1.8,-0.1 l 0,-2.3 c 0.3,0 0.7,0.1 1.1,0.1 0.9,0 1.5,-0.2 1.9,-0.7 0.4,-0.5 0.6,-1.2 0.6,-2.2 l 0,-5.7 c 0,-0.9 0.1,-1.9 0.4,-2.8 0.2,-0.9 0.6,-1.7 1,-2.2 l -3.4,0 0,-2.3 8.4,0 c 2.4,0 4.2,0.6 5.3,1.7 z"
         class="st21" />
      <path
         style="fill:#ffffff"
         id="path1056"
         d="m 1200.7,732.4 -2.1,0 0,-2.3 4.9,0 0,18 -2.8,0 0,-15.7 z"
         class="st21" />
      <path
         style="fill:#ffffff"
         id="path1058"
         d="m 1221.3,731.9 -6.6,16.2 -3,0 6.5,-15.7 -10.6,0 0,-7.7 2.8,0 0,5.5 10.9,0 0,1.7 z"
         class="st21" />
      <path
         style="fill:#ffffff"
         id="path1060"
         d="m 1226,732.4 -2.1,0 0,-2.3 4.9,0 0,18 -2.8,0 0,-15.7 z"
         class="st21" />
      <path
         style="fill:#ffffff"
         id="path1062"
         d="m 1232.9,747.6 0.5,-2.1 c 1.6,0.4 3.1,0.7 4.3,0.7 1.7,0 3,-0.4 3.9,-1.2 0.9,-0.8 1.3,-2 1.3,-3.6 l 0,-8.9 -9.4,0 0,-2.3 12.2,0 0,10.6 c 0,2.5 -0.7,4.5 -2,5.8 -1.4,1.3 -3.2,1.9 -5.7,1.9 -1.5,-0.1 -3.2,-0.4 -5.1,-0.9 z"
         class="st21" />
      <path
         style="fill:#ffffff"
         id="path1064"
         d="m 1254,745 c 1,0.4 2,0.7 3.1,1 1.1,0.2 2.1,0.4 3.1,0.4 1.5,0 2.8,-0.2 3.9,-0.6 1.1,-0.4 2.1,-1.1 2.7,-1.9 0.7,-0.9 1,-1.9 1,-3.2 l 0,-10.4 2.8,0 0,10.7 c 0,1.7 -0.5,3.1 -1.4,4.3 -0.9,1.2 -2.1,2 -3.7,2.6 -1.5,0.6 -3.3,0.9 -5.2,0.9 -1.5,0 -3,-0.2 -4.6,-0.5 -1.6,-0.4 -3.1,-0.9 -4.5,-1.6 l 0,-16.4 2.8,0 0,14.7 z m 5.2,-3.5 c 0.2,-0.7 0.3,-1.5 0.3,-2.4 l 0,-9 2.8,0 0,8.5 c 0,1 -0.1,1.9 -0.4,2.7 -0.3,0.8 -0.6,1.4 -1.2,2 l -2.4,-0.1 c 0.4,-0.4 0.7,-1 0.9,-1.7 z"
         class="st21" />
      <path
         style="fill:#ffffff"
         id="path1066"
         d="m 1286.2,740.3 5.7,7.9 -3.2,0 -8,-11.1 c -1.1,0.7 -1.6,1.9 -1.6,3.5 l 0,7.5 -2.8,0 0,-6.5 c 0,-1.6 0.3,-2.8 0.8,-3.8 0.5,-1 1.3,-1.7 2.5,-2.3 l -3.9,-5.4 3.2,0 5.6,7.7 4.3,-7.7 3.2,0 -5.8,10.2 z"
         class="st21" />
      <path
         style="fill:#ffffff"
         id="path1068"
         d="m 1308.4,731.9 -6.6,16.2 -3,0 6.5,-15.7 -10.6,0 0,-7.7 2.8,0 0,5.5 10.9,0 0,1.7 z"
         class="st21" />
    </g>
  </g>
</svg>
