<svg width="141.2" height="127.8" viewBox="0 0 37.359 33.813" xmlns="http://www.w3.org/2000/svg">
    <path d="M115.227 106.261c0 2.699-4.868 10.24-4.868 10.24s-4.868-7.462-4.868-10.24a4.855 4.855 0 0 1 4.868-4.868c2.699-.106 4.868 2.064 4.868 4.868" style="fill:#3696c9;stroke-width:.26458" transform="translate(-91.68 -82.687)"/>
    <path style="fill:#3696c9" d="M2069.9 384h100.3v64.8h-100.3z" transform="translate(-547.654 -101.599) scale(.26458)"/>
    <path d="M2082.8 420.9h13.4v15.6h-13.4zm9.1 12.3v-9h-4.9v9zm9.4-9h-2.4v-3.3h6.6v8.9h-4.2zm16.8 5.5 3.4 5v1.9h-12.4v-3.3h7l-8.3-12.3h4.7l3.1 5 2.3-5h4.7zm10.2 6.9c-1.1-.2-2-.4-2.9-.7l.8-3.1c.8.2 1.7.4 2.5.5.9.1 1.6.2 2.2.2 1.2 0 2.2-.3 2.8-.8.6-.5.9-1.3.9-2.4v-6.1h-4.5c-.2.5-.3 1-.4 1.4-.1.4-.1.9-.1 1.4v.7c.4.1.9.1 1.3.1v2.8c-.5.1-1.1.2-1.6.2-.7 0-1.4-.1-2.1-.2-.7-.2-1.2-.4-1.7-.7v-1.4c0-.8.1-1.6.3-2.4.2-.8.4-1.4.7-1.9h-1.6v-3.3h13.9v8.8c0 1.6-.3 3-1 4.1-.7 1.1-1.6 1.9-2.7 2.4s-2.4.8-3.9.8c-.8-.1-1.8-.2-2.9-.4zm14.8-15.7h6.9c2 0 3.6.5 4.6 1.5 1 1 1.6 2.5 1.6 4.4v9.7h-4.2v-10.1c0-1.5-.7-2.3-2-2.3h-2.7v12.4h-4.2zm-47.9-22.5c1.1 1 1.6 2.5 1.6 4.4v9.7h-4.2v-10.1c0-1.5-.7-2.3-2-2.3h-2c-.1.5-.2 1-.3 1.6-.1.6-.1 1.1-.1 1.6v4.4c0 1.1-.2 2-.6 2.7-.4.8-.9 1.3-1.6 1.7-.7.4-1.6.6-2.6.6-.6 0-1.3-.1-2-.2v-3.3h.8c1.2 0 1.9-.7 1.9-2v-3.7c0-.6.1-1.2.2-1.8.1-.6.4-1.2.6-1.7h-2.4v-3.3h8c2.1.2 3.6.7 4.7 1.7zm10.6 3.9c0-.7-.2-1.2-.6-1.5-.4-.4-.9-.5-1.7-.5h-4.7V397h5c1.3 0 2.4.2 3.3.7.9.4 1.6 1.1 2.1 1.9.5.8.7 1.8.7 3v10h-4.2zm9-2.1h-2.4v-3.3h6.6v8.9h-4.2zm9.1 3.6c.1-.7.2-1.4.5-2 .3-.6.6-1.1.9-1.5l.2-.2v-.1c-.3.1-.7.2-1.2.3-.5.1-.9.3-1.2.4l-.9-3.1c1-.4 2.2-.7 3.5-.9 1.4-.2 2.6-.3 3.9-.3 2.4 0 4.2.6 5.5 1.8 1.2 1.2 1.9 3 1.9 5.4v8.8h-6.9v-3.3h2.6V403c0-1-.2-1.8-.6-2.4-.4-.6-1-.8-1.7-.8-1.4 0-2.2 1.1-2.4 3.3l-.9 9.2h-4.2zm21 4.9c.7.3 1.5.6 2.4.8.9.2 1.6.3 2.4.3 1.9 0 3.4-.4 4.5-1.2 1.1-.8 1.6-2 1.6-3.6v-8h4.1v8.4c0 1.7-.4 3.1-1.3 4.2s-2.1 2-3.6 2.6c-1.5.6-3.2.9-5.1.9-1.5 0-3-.2-4.6-.5-1.6-.4-3-.9-4.4-1.5v-14h4.1zm3.2-2.6c.1-.6.1-1.3.1-2v-7.2h4.1v6.3c0 .9-.1 1.7-.3 2.5-.2.8-.5 1.4-.8 1.8h-3.4c.1-.3.2-.8.3-1.4z" style="fill:#fffffd" transform="translate(-547.654 -101.599) scale(.26458)"/>
</svg>
