<?xml version="1.0" encoding="UTF-8" standalone="no"?>
<svg
   xmlns:dc="http://purl.org/dc/elements/1.1/"
   xmlns:cc="http://creativecommons.org/ns#"
   xmlns:rdf="http://www.w3.org/1999/02/22-rdf-syntax-ns#"
   xmlns:svg="http://www.w3.org/2000/svg"
   xmlns="http://www.w3.org/2000/svg"
   width="38.382221mm"
   height="59.041985mm"
   viewBox="0 0 136 209.20388"
   id="svg4078"
   version="1.1">
  <defs
     id="defs4080" />
  <metadata
     id="metadata4083">
    <rdf:RDF>
      <cc:Work
         rdf:about="">
        <dc:format>image/svg+xml</dc:format>
        <dc:type
           rdf:resource="http://purl.org/dc/dcmitype/StillImage" />
        <dc:title></dc:title>
      </cc:Work>
    </rdf:RDF>
  </metadata>
  <g
     id="layer1"
     transform="translate(-274.85714,-356.33169)">
    <path
       style="fill:#e04c26;fill-opacity:1"
       d="m 410.85714,424.33557 c 0,37.8 -68,141.2 -68,141.2 0,0 -68,-103.4 -68,-141.2 0,-37.8 30.7,-68 68,-68 37.6,-0.4 68,30.2 68,68"
       class="st3"
       id="path659_2_" />
    <g
       id="g856"
       transform="translate(-2202.9429,-249.66444)">
      <path
         style="fill:#ffffff"
         id="path858"
         d="m 2504.5,637.1 18.2,0 0,22.8 -18.2,0 0,-22.8 z m 14.6,19.9 0,-17 -11,0 0,17 11,0 z"
         class="st21" />
      <path
         style="fill:#ffffff"
         id="path860"
         d="m 2545.2,639.4 -8.4,20.5 -3.9,0 8.3,-19.9 -13.4,0 0,-9.8 3.6,0 0,6.9 13.7,0 0,2.3 z"
         class="st21" />
      <path
         style="fill:#ffffff"
         id="path862"
         d="m 2551.2,640 -2.7,0 0,-2.9 6.3,0 0,22.8 -3.6,0 0,-19.9 z"
         class="st21" />
      <path
         style="fill:#ffffff"
         id="path864"
         d="m 2574.5,650 7.2,10 -4,0 -10.2,-14 c -1.4,0.9 -2.1,2.3 -2.1,4.5 l 0,9.6 -3.5,0 0,-8.3 c 0,-2 0.3,-3.6 1,-4.8 0.7,-1.2 1.7,-2.2 3.1,-2.9 l -4.9,-6.8 4,0 7.1,9.8 5.5,-9.8 4,0 -7.2,12.7 z"
         class="st21" />
      <path
         style="fill:#ffffff"
         id="path866"
         d="m 2503.5,687.6 -4.2,0 0,-2.9 7.8,0 0,12.7 -3.6,0 0,-9.8 z"
         class="st21" />
      <path
         style="fill:#ffffff"
         id="path868"
         d="m 2517.2,703.5 c 1.2,0.5 2.5,0.9 3.9,1.2 1.4,0.3 2.7,0.4 3.9,0.4 1.9,0 3.5,-0.3 5,-0.8 1.5,-0.5 2.6,-1.3 3.4,-2.4 0.8,-1.1 1.3,-2.4 1.3,-4 l 0,-13.2 3.5,0 0,13.5 c 0,2.1 -0.6,4 -1.7,5.4 -1.2,1.5 -2.7,2.6 -4.7,3.3 -2,0.7 -4.2,1.1 -6.6,1.1 -1.9,0 -3.8,-0.2 -5.8,-0.7 -2,-0.5 -3.9,-1.1 -5.7,-2 l 0,-20.7 3.5,0 0,18.9 z m 6.5,-4.3 c 0.2,-0.9 0.4,-1.9 0.4,-3.1 l 0,-11.3 3.5,0 0,10.7 c 0,1.3 -0.2,2.5 -0.5,3.4 -0.3,1 -0.8,1.8 -1.5,2.5 l -3,-0.1 c 0.5,-0.6 0.9,-1.3 1.1,-2.1 z"
         class="st21" />
      <path
         style="fill:#ffffff"
         id="path870"
         d="m 2557.9,697.6 7.2,10 -4,0 -10.2,-14 c -1.4,0.9 -2.1,2.3 -2.1,4.5 l 0,9.6 -3.5,0 0,-8.3 c 0,-2 0.3,-3.6 1,-4.8 0.7,-1.2 1.7,-2.2 3.1,-2.9 l -4.9,-6.8 4,0 7.1,9.8 5.5,-9.8 4,0 -7.2,12.7 z"
         class="st21" />
      <path
         style="fill:#ffffff"
         id="path872"
         d="m 2580,691.6 c 0,-1.2 -0.4,-2.2 -1.1,-2.9 -0.7,-0.7 -1.7,-1.1 -3,-1.1 l -7.7,0 0,-2.9 7.8,0 c 1.6,0 2.9,0.3 4,0.9 1.1,0.6 2,1.4 2.6,2.5 0.6,1.1 0.9,2.4 0.9,3.9 l 0,15.6 -3.6,0 0,-16 z"
         class="st21" />
    </g>
  </g>
</svg>
