<svg width="40.005" height="27.728" viewBox="0 0 40.005 27.728" xmlns="http://www.w3.org/2000/svg">
    <path style="fill:#a22442;stroke-width:.264583" d="M106.38 103.222h37.835v15.505h-37.836z" transform="translate(-104.21 -103.222)"/>
    <path d="M2109.5 434.3h13.4v15.6h-13.4zm9.1 12.3v-9h-4.9v9zm9.4-9h-2.4v-3.3h6.6v8.9h-4.2zm8.6 12.5c-.5-.1-1-.2-1.6-.3v-3.2c.6.1 1.3.1 1.9.1.6 0 1-.2 1.3-.5.3-.3.4-.8.4-1.5v-7.2h-2.7v-3.3h7V445c0 1-.2 2-.6 2.7-.4.8-.9 1.3-1.7 1.7-.7.4-1.6.6-2.6.6-.5.2-1 .1-1.4.1zm15.6-10.5c0-.7-.2-1.2-.6-1.5-.4-.4-.9-.5-1.7-.5h-4.7v-3.3h5c1.3 0 2.4.2 3.3.7.9.4 1.6 1.1 2.1 1.9.5.8.7 1.8.7 3v10h-4.2v-10.3zm8.2-2h-1.3v-3.3h5.6v15.6h-4.2v-12.3zm18.7 5.8 4.5 6.5h-4.7l-5.7-8.2c-.2.3-.4.8-.4 1.3v7h-4.1v-5.1c0-1.4.2-2.6.7-3.5.4-.9 1.2-1.5 2.1-2l-3.4-5h4.7l3.7 5.3 2.5-5.3h4.7zm-89-32.6h12.5v14.6h-12.5zm8.6 11.7v-8.7h-4.8v8.7zm8.1-8.7h-1.3v-3h5.1v14.6h-3.8zm8.7 0h-2.3v-3h6.1v8.3h-3.8zm12.6 2c0-.7-.2-1.1-.5-1.5-.4-.3-.9-.5-1.6-.5h-4.4v-3h4.7c1.2 0 2.2.2 3.1.6.9.4 1.5 1 2 1.8s.7 1.7.7 2.8v9.5h-3.8v-9.7zm7.7-2h-1.3v-3h5.1v14.6h-3.8zm10.9 11.2c-1-.5-1.7-1.3-2.2-2.2-.5-1-.8-2.1-.8-3.3v-8.6h3.8v9.1c0 .6.1 1.1.3 1.5.2.4.5.8.9 1 .4.2.8.4 1.3.4s1-.1 1.3-.4c.3-.3.7-.6.9-1 .2-.4.3-1 .3-1.5v-4.2c0-1.3-.6-1.9-1.7-1.9-.3 0-.8.1-1.3.2l-.4-2.5c.4-.3.9-.5 1.5-.6.6-.2 1.1-.2 1.6-.2.9 0 1.6.2 2.2.6.6.4 1.1.9 1.4 1.6.3.7.5 1.6.5 2.5v4.1c0 1.2-.3 2.3-.8 3.3s-1.3 1.7-2.2 2.2c-1 .5-2.1.8-3.3.8-1.2 0-2.4-.4-3.3-.9zm13.8-11.2h-2.3v-3h6.1v8.3h-3.8zm19-3v3h-2.6v11.7h-3.8v-11.7h-6.2v-3zm3.1 3h-1.3v-3h5.1v14.6h-3.8zm17.3 5.5 4.3 6.2h-4.3l-5.4-7.9c-.3.4-.4.8-.4 1.4v6.5h-3.7v-4.8c0-1.4.2-2.4.6-3.2.4-.8 1.1-1.4 2-1.9l-3.2-4.7h4.3l3.5 5.1 2.5-5.1h4.3z" style="fill:#fffffd" transform="translate(-546.735 -105.833) scale(.26458)"/>
    <path d="M127.123 124.839c0 1.614-2.91 6.112-2.91 6.112s-2.911-4.445-2.911-6.112a2.902 2.902 0 0 1 2.91-2.91c1.614-.053 2.91 1.243 2.91 2.91" style="fill:#0b8e36;fill-opacity:1;stroke-width:.264583" transform="translate(-104.21 -103.222)"/>
</svg>
