<svg width="140.2" height="98.8" viewBox="0 0 37.094 26.141" version="1.1" id="svg2792" xmlns="http://www.w3.org/2000/svg">
    <style type="text/css" id="style2">
        .st0{enable-background:new}.st3{fill:#3a536b}.st4{fill:#95c760;stroke:#0b608c;stroke-width:1.275;stroke-miterlimit:10}.st5{fill:#fbcfd5}.st6{fill:#f0717c}.st7{fill:#d0efff}.st11{fill:#fffffd}.st16{fill:#97c85f}.st17{fill:#3c536b}.st18{fill:#d2f0ff}.st21{fill:#f2717c}.st24{fill:#97c85f;stroke:#3c536b;stroke-width:1.275;stroke-miterlimit:10}.st26{fill:none}
    </style>
    <g id="layer1" transform="translate(-92.113 -113.296)">
        <g id="g773" transform="translate(-263.033 -395.782) scale(.26458)">
            <g id="g771">
                <path id="path355_1_" d="M1429.6 1987.3c0 9.5-17.2 35.6-17.2 35.6s-17.2-26.2-17.2-35.6c0-9.5 7.8-17.2 17.2-17.2 9.4-.1 17.2 7.8 17.2 17.2" style="fill:#3696c9"/>
            </g>
        </g>
        <path id="rect475_2_" style="fill:#3696c9;stroke-width:.26458" d="M92.113 113.296h37.094v10.186H92.113z"/>
        <g id="g796" transform="translate(-263.033 -395.782) scale(.26458)">
            <path d="M1352.7 1950v-6.8l.5-1.7h3.1v8.5zm8.3 0v-9.8c0-.7-.1-1.1-.4-1.4-.3-.3-.7-.4-1.2-.4h-6.5v-2.7h7.5c.8 0 1.6.2 2.2.5.6.3 1.2.8 1.5 1.5.3.7.6 1.6.6 2.7v9.6z" id="path776" style="fill:#fff"/>
            <path d="m1368.7 1950.3-1.9-14.5h3.4l1.4 11.6c1.3-.1 2.3-.3 3.2-.7.8-.4 1.5-.9 2-1.5s.9-1.3 1.1-2.2c.2-.9.3-1.8.3-2.8l-.1-4.4h3.6v4.2c0 2.3-.4 4.2-1.3 5.8-.9 1.6-2.3 2.7-4.3 3.5-2 .8-4.4 1-7.4 1zm2.1-5.8-.9-2.3c.8-.2 1.3-.5 1.7-.9.4-.4.7-.9.8-1.5.1-.7.2-1.5.2-2.5v-1.7h3.4v1.6c0 1.2-.2 2.2-.5 3.2-.3.9-.8 1.7-1.6 2.4-.7.8-1.8 1.3-3.1 1.7z" id="path778" style="fill:#fff"/>
            <path d="M1384.3 1944.8v-6.1l-.3-2.9h3.6l.3 2.9v5.5z" id="path780" style="fill:#fff"/>
            <path d="m1391 1950.5-1.3-2.8c1.2-.4 2.2-.9 3-1.5.8-.6 1.4-1.3 1.8-2.2l1.2 1.9c-.3.7-.7 1.4-1.1 2-.4.6-.9 1.1-1.5 1.5-.6.4-1.3.8-2.1 1.1zm4.4-.5-1-5.7v-4.3c0-.6-.1-1-.3-1.3-.2-.3-.5-.4-.9-.5l-1.6-.2.4-2.7 3 .4c1 .1 1.8.5 2.3 1.1.5.6.7 1.5.7 2.7v4.8l.8 5.6h-3.4z" id="path782" style="fill:#fff"/>
            <path d="M1400.8 1950v-2.7h3.7v-7.2c0-.7-.1-1.1-.4-1.3-.2-.2-.6-.4-1-.4l-1.8-.3.5-2.7 3.1.4c1 .1 1.8.6 2.3 1.3.5.7.8 1.7.8 2.8v10h-7.2z" id="path784" style="fill:#fff"/>
            <path d="M1415.5 1950v-6.8l.5-1.7h3.1v8.5zm8.4 0v-9.8c0-.7-.1-1.1-.4-1.4-.3-.3-.7-.4-1.2-.4h-6.5v-2.7h7.5c.8 0 1.6.2 2.2.5.6.3 1.2.8 1.5 1.5.3.7.6 1.6.6 2.7v9.6z" id="path786" style="fill:#fff"/>
            <path d="m1431.4 1950.3-1.4-11.8 3.4-1.6 1.1 10.2c.7-.1 1.3-.2 1.9-.3.5-.2 1-.4 1.3-.7.4-.3.6-.6.8-1 .2-.4.3-.9.4-1.4.1-.5.1-1.2.1-1.9v-.8c0-.5-.1-1-.2-1.3-.2-.4-.4-.7-.7-.9-.3-.2-.6-.3-1-.3h-7.1l-.3-2.7h7.7c1.7 0 2.9.5 3.8 1.4.9.9 1.4 2.2 1.4 3.8v.8c0 1.5-.2 2.9-.7 3.9-.5 1.1-1.3 1.9-2.3 2.6-1 .7-2.2 1.1-3.6 1.5-1.3.2-2.9.4-4.6.5z" id="path788" style="fill:#fff"/>
            <path d="M1445.3 1944.8v-6.1l-.3-2.9h3.6l.3 2.9v5.5z" id="path790" style="fill:#fff"/>
            <path d="M1451.2 1950v-2.7h3.7v-7.2c0-.7-.1-1.1-.4-1.3-.2-.2-.6-.4-1-.4l-1.8-.3.5-2.7 3.1.4c1 .1 1.8.6 2.3 1.3.5.7.8 1.7.8 2.8v10h-7.2z" id="path792" style="fill:#fff"/>
            <path d="M1460.5 1950v-2.7h4c.7 0 1.2-.1 1.6-.5.4-.3.7-.7.9-1.3.2-.5.3-1.1.3-1.8v-1.9c0-.7-.1-1.3-.3-1.8-.2-.5-.5-.9-.9-1.3s-1-.5-1.6-.5h-4v-2.7h5c1.2 0 2.2.3 3 .8.8.5 1.4 1.3 1.8 2.2.4.9.6 2.1.6 3.4v1.5c0 1.3-.2 2.4-.6 3.4-.4 1-1 1.7-1.8 2.2-.8.5-1.8.8-3 .8h-5z" id="path794" style="fill:#fff"/>
        </g>
    </g>
</svg>
