<?xml version="1.0" encoding="UTF-8" standalone="no"?>
<svg
   xmlns:dc="http://purl.org/dc/elements/1.1/"
   xmlns:cc="http://creativecommons.org/ns#"
   xmlns:rdf="http://www.w3.org/1999/02/22-rdf-syntax-ns#"
   xmlns:svg="http://www.w3.org/2000/svg"
   xmlns="http://www.w3.org/2000/svg"
   version="1.1"
   id="svg7305"
   viewBox="0 0 154.2 93.69999"
   height="26.44422mm"
   width="43.518665mm">
  <defs
     id="defs7307" />
  <metadata
     id="metadata7310">
    <rdf:RDF>
      <cc:Work
         rdf:about="">
        <dc:format>image/svg+xml</dc:format>
        <dc:type
           rdf:resource="http://purl.org/dc/dcmitype/StillImage" />
        <dc:title></dc:title>
      </cc:Work>
    </rdf:RDF>
  </metadata>
  <g
     transform="translate(-242.90001,-691.2265)"
     id="layer1">
    <g
       transform="translate(-0.69998,0)"
       id="g7903">
      <path
         id="path877_2_"
         class="st4259"
         d="m 339.39999,746.32649 c 0,10.3 -18.7,38.6 -18.7,38.6 0,0 -18.7,-28.3 -18.7,-38.6 0,-10.3 8.4,-18.7 18.7,-18.7 10.3,0 18.7,8.3 18.7,18.7"
         style="fill:#401225" />
      <path
         id="path973_2_"
         class="st4183"
         d="m 328.59999,743.12649 c -1,0 -1.7,-0.7 -1.7,-1.7 0,-1 0.7,-1.7 1.7,-1.7 1,0 1.7,0.7 1.7,1.7 0,1 -0.7,1.7 -1.7,1.7 m -3.1,3.9 c -1,0 -1.7,-0.7 -1.7,-1.7 0,-1 0.7,-1.7 1.7,-1.7 1,0 1.7,0.7 1.7,1.7 0,1 -0.7,1.7 -1.7,1.7 m -6.2,-3.1 c 0,0.5 -0.5,1 -1,1 l -2.2,0 0,2.2 c 0,0.5 -0.5,1 -1,1 l -0.7,0 c -0.5,0 -1,-0.5 -1,-1 l 0,-2.3 -2,0 c -0.5,0 -1,-0.5 -1,-1 l 0,-0.7 c 0,-0.5 0.5,-1 1,-1 l 2.2,0 0,-2.2 c 0,-0.5 0.5,-1 1,-1 l 0.7,0 c 0.5,0 1,0.5 1,1 l 0,2.2 2.2,0 c 0.5,0 1,0.5 1,1 l 0,0.8 z m 15.6,0.4 c -1.4,-6.5 -3.4,-8.2 -4.8,-8.9 -1.9,-1 -4.3,-0.5 -5,0 -1,0.5 -1.4,1.2 -2.4,1.7 -1,0.5 -2.4,0.5 -3.4,0 -0.7,-0.5 -1.4,-1.2 -2.6,-1.7 -1.2,-0.5 -3.4,-1.2 -5.5,0.2 -0.5,0.2 -4.1,3.4 -5,12.5 -0.7,5.8 2.4,7.4 2.4,7.4 0.7,0.5 2.6,1.4 5,0 1.7,-1 2.9,-3.1 2.9,-3.1 0,0 0.5,-1.2 1.4,-1.7 0.5,-0.2 1.4,0 1.4,0 l 2.9,0 c 0,0 1,0 1.7,0.2 0.7,0.2 1,1 1,1 0,0 1.9,2.4 3.8,3.8 0.7,0.5 4.1,1.2 5.5,-0.7 1.2,-1.1 1.9,-5.1 0.7,-10.7"
         style="fill:#f6f6f6" />
    </g>
    <g
       id="g7892">
      <rect
         id="rect863_4_"
         x="242.90001"
         y="691.2265"
         class="st4259"
         width="154.2"
         height="31.200001"
         style="fill:#401225" />
      <g
         id="g261"
         transform="translate(-202.60001,502.82649)">
        <path
           class="st4269"
           d="m 478.2,202.7 0.5,-1.5 2.8,0 0,7.7 -3.3,0 0,-6.2 z m 7.7,-2.6 c 0,-1.1 -0.5,-1.7 -1.5,-1.7 l -5.9,0 0,-2.5 6.8,0 c 1.2,0 2.2,0.3 2.9,1 0.7,0.7 1.1,1.8 1.1,3.2 l 0,8.7 -3.3,0 0,-8.7 z"
           id="path263"
           style="fill:#68c6e0" />
        <path
           class="st4269"
           d="m 492.2,198.6 -0.3,-2.7 3.3,0 0.3,2.7 0,3.6 0,1.4 -3.3,0.6 0,-5.6 z"
           id="path265"
           style="fill:#68c6e0" />
        <path
           class="st4269"
           d="m 498.6,198.6 -0.3,-2.7 3.3,0 0.3,2.7 0,3.6 0,1.4 -3.3,0.6 0,-5.6 z"
           id="path267"
           style="fill:#68c6e0" />
        <path
           class="st4269"
           d="m 504.7,202.6 0.5,-1.6 2.8,0 0,12.5 -3.3,0 0,-10.9 z m 4.6,3.9 c 1,-0.1 1.8,-0.4 2.3,-1 0.5,-0.6 0.8,-1.6 0.9,-3.1 l 0.3,-4 -7.9,0 0,-2.5 11.5,0 -0.1,2.1 -0.3,3.4 c -0.2,4.9 -2.4,7.4 -6.4,7.5 l -0.3,-2.4 z"
           id="path269"
           style="fill:#68c6e0" />
        <path
           class="st4269"
           d="m 529.1,197 c 0.7,0.7 1.1,1.8 1.1,3.3 l 0,8.6 -3.3,0 0,-8.8 c 0,-1.2 -0.5,-1.8 -1.5,-1.8 l -3.1,0 0,10.7 -3.3,0 0,-11.5 0,-1.5 7.2,0 c 1.2,-0.1 2.2,0.3 2.9,1 z"
           id="path271"
           style="fill:#68c6e0" />
        <path
           class="st4269"
           d="m 543.7,206.8 c -1.8,1.6 -4.7,2.4 -8.5,2.4 l -0.7,0 -1.7,-13.2 3.1,0 0.7,5.6 c 0.6,-0.3 1,-0.8 1.2,-1.4 0.2,-0.6 0.3,-1.5 0.3,-2.7 l 0,-1.5 3.1,0 0,1.4 c 0,1.7 -0.4,3 -1,4.1 -0.6,1 -1.8,1.8 -3.4,2.4 l 0.3,2.6 c 2.2,-0.1 3.7,-0.8 4.6,-1.9 0.9,-1.1 1.4,-2.7 1.4,-4.7 l 0,-4 3.3,0 0,3.8 c 0.1,3.2 -0.8,5.5 -2.7,7.1 z"
           id="path273"
           style="fill:#68c6e0" />
        <path
           class="st4269"
           d="m 560.2,207.4 c -1,1.2 -2.4,1.8 -4.1,1.8 -0.6,0 -1.3,-0.1 -2.1,-0.3 l 0.3,-2.5 c 0.6,0.1 1,0.2 1.4,0.2 1,0 1.8,-0.3 2.2,-1 0.4,-0.7 0.7,-1.7 0.7,-3.1 0,-1.5 -0.2,-2.6 -0.6,-3.3 -0.4,-0.7 -1.1,-1 -1.9,-1 -0.6,0 -1.1,0.2 -1.5,0.5 -0.4,0.4 -0.7,0.9 -0.8,1.5 l -1.4,8.6 -3.3,0 1.6,-8.8 -1.8,-4.2 3.4,0 0.9,2.6 c 0.3,-0.9 0.8,-1.6 1.4,-2.1 0.6,-0.5 1.4,-0.7 2.2,-0.7 1.6,0 2.9,0.6 3.7,1.7 0.9,1.1 1.3,2.8 1.3,5 -0.2,2.3 -0.7,3.9 -1.6,5.1 z"
           id="path275"
           style="fill:#68c6e0" />
      </g>
    </g>
  </g>
</svg>
