<svg width="125.2" height="97.3" viewBox="0 0 33.126 25.744" xmlns="http://www.w3.org/2000/svg">
    <path class="st10" d="M116.205 142.398c0 2.672-4.869 10.028-4.869 10.028s-4.868-7.382-4.868-10.028c0-2.646 2.17-4.869 4.868-4.869 2.673.027 4.869 2.223 4.869 4.869" style="fill:#0b8e36;fill-opacity:1;stroke-width:.264583" transform="translate(-94.774 -126.682)"/>
    <path class="st7" d="M108.426 145.996c0 .212.053.318.318.318.264 0 .317-.053.317-.318v-2.83h.318v2.83c0 .212.052.318.317.318.212 0 .318-.053.318-.318v-4.762h.158v1.72c0 .052 0 .158.053.211a.161.161 0 0 0 .212 0c.053-.053.159-.159.159-.212v-1.905c0-.211-.053-.396-.212-.476-.159-.053-.318-.159-.556-.159h-1.243a.978.978 0 0 0-.556.16c-.159.052-.211.21-.211.475v1.958c0 .053.052.16.158.16a.161.161 0 0 0 .212 0c.053-.054.053-.054.053-.16v-1.799h.159v4.79zm6.138-2.249-.873-2.513c0-.053 0-.053.053-.053 0 0 .053 0 .053.053l.635 1.56c.053.054.159.16.318.16.052 0 .052-.053.158-.16v-.158l-.635-1.561a.646.646 0 0 0-.211-.476c-.16-.16-.318-.16-.556-.16h-.767a.737.737 0 0 0-.556.213c-.159.158-.212.317-.317.476l-.556 1.56v.16c0 .053.053.158.159.158.158 0 .317-.053.317-.158l.635-1.64s0-.054.053-.054.053 0 .053.053l-.873 2.514v.158s0 .053.053.053l.053.053h.555v1.958c0 .053 0 .159.053.212.053.053.159.053.212.053.053 0 .159 0 .212-.053.052-.053.052-.159.052-.212v-1.958h.265v1.958c0 .053 0 .159.053.212.053.053.159.053.212.053.052 0 .158 0 .211-.053.053-.053.053-.159.053-.212v-1.905h.556s.053 0 .053-.053l.053-.053v-.211h.264zm-5.979-4.154a.85.85 0 0 0 .159.476c.158.16.211.16.476.16a.853.853 0 0 0 .476-.16c.159-.158.159-.317.159-.476a.853.853 0 0 0-.159-.476c-.159-.159-.212-.159-.476-.159a.853.853 0 0 0-.476.159c-.16.159-.16.317-.16.476m3.758 0a.85.85 0 0 0 .159.476c.158.16.211.16.476.16.212 0 .317-.054.476-.16.159-.158.159-.211.159-.476a.853.853 0 0 0-.159-.476c-.159-.159-.212-.159-.476-.159-.212 0-.318.053-.476.159-.053.159-.16.317-.16.476" style="fill:#ffc;stroke-width:.264583;enable-background:new" transform="translate(-94.774 -126.682)"/>
    <path class="st10" style="fill:#a22442;stroke-width:.264583" d="M94.774 126.682H127.9v10.186H94.774z" transform="translate(-94.774 -126.682)"/>
    <path class="st12" d="M98.875 129.486h3.545v4.128h-3.545zm2.434 3.255v-2.382h-1.297v2.382zm2.487-2.381h-.635v-.874h1.746v2.355h-1.111zm5.318-.477c.291.265.423.661.423 1.164v2.567h-1.11v-2.673c0-.397-.186-.608-.53-.608h-.53a15.5 15.5 0 0 0-.079.423c-.026.159-.026.291-.026.423v1.165c0 .29-.053.529-.159.714a1 1 0 0 1-.423.45 1.392 1.392 0 0 1-.688.159c-.159 0-.344-.027-.53-.053v-.873h.212c.318 0 .503-.186.503-.53v-.979c0-.158.027-.317.053-.476.026-.159.106-.317.159-.45h-.635v-.873h2.116c.556.053.953.185 1.244.45zm1.482.477h-.344v-.874h1.481v4.128h-1.11v-3.255zm3.598.555c0-.185-.053-.318-.159-.397-.106-.106-.238-.132-.45-.132h-1.243v-.873h1.323c.344 0 .635.053.873.185.238.106.423.29.556.503.132.211.185.476.185.793v2.646h-1.111v-2.725zm2.381-.555h-.635v-.874h1.746v2.355h-1.11zm3.255 2.248c.185.08.396.159.635.212.238.053.423.08.635.08.502 0 .9-.107 1.19-.318.291-.212.424-.53.424-.953v-2.116h1.084v2.222c0 .45-.105.82-.344 1.111-.238.291-.555.53-.952.688a3.608 3.608 0 0 1-1.35.238 6.58 6.58 0 0 1-1.217-.132 7.517 7.517 0 0 1-1.164-.397v-3.704h1.085v3.07zm.846-.688c.027-.158.027-.344.027-.529v-1.905h1.085v1.667c0 .238-.027.45-.08.661a1.34 1.34 0 0 1-.211.477h-.9c.026-.08.053-.212.08-.37z" style="fill:#fffffd;stroke-width:.264583" transform="translate(-94.774 -126.682)"/>
</svg>
