<?xml version="1.0" encoding="UTF-8" standalone="no"?>
<svg
   id="svg3090"
   version="1.1"
   viewBox="0 0 55.880002 27.717755"
   height="104.76003"
   width="211.20001"
   xmlns="http://www.w3.org/2000/svg"
   xmlns:svg="http://www.w3.org/2000/svg"
   xmlns:rdf="http://www.w3.org/1999/02/22-rdf-syntax-ns#"
   xmlns:cc="http://creativecommons.org/ns#"
   xmlns:dc="http://purl.org/dc/elements/1.1/">
  <defs
     id="defs3084" />
  <metadata
     id="metadata3087">
    <rdf:RDF>
      <cc:Work
         rdf:about="">
        <dc:format>image/svg+xml</dc:format>
        <dc:type
           rdf:resource="http://purl.org/dc/dcmitype/StillImage" />
      </cc:Work>
    </rdf:RDF>
  </metadata>
  <g
     transform="translate(-81.671773,-133.46255)"
     id="layer1">
    <g
       transform="matrix(0.26458333,0,0,0.26458333,-45.232974,-15.061295)"
       id="g231">
      <path
         style="fill:#a22442;fill-opacity:1"
         d="m 606.01,623.38 c 0,11.42 -20.77,42.73 -20.77,42.73 0,0 -20.77,-31.31 -20.77,-42.73 0,-11.42 9.35,-20.77 20.77,-20.77 11.53,0.11 20.77,9.36 20.77,20.77"
         class="st2"
         id="path429_6_" />
      <rect
         style="fill:#a22442"
         height="34.580002"
         width="211.19"
         class="st2"
         y="561.34998"
         x="479.64999"
         id="rect311_6_" />
      <g
         id="g229">
        <path
           style="fill:#ffffff"
           id="path201"
           d="m 493.24,571.12 h 10.95 v 13.73 h -10.95 z m 8.8,11.98 v -10.24 h -6.64 v 10.24 z"
           class="st8" />
        <path
           style="fill:#ffffff"
           id="path203"
           d="m 509.07,572.86 h -1.6 v -1.74 h 3.76 v 13.73 h -2.17 v -11.99 z"
           class="st8" />
        <path
           style="fill:#ffffff"
           id="path205"
           d="m 520.07,583.15 c 0.77,-0.02 1.44,-0.19 2.02,-0.51 0.58,-0.32 1.02,-0.77 1.34,-1.35 0.32,-0.58 0.48,-1.26 0.48,-2.06 v -6.37 h -8.47 v -1.74 h 10.64 v 8.06 c 0,1.14 -0.25,2.13 -0.74,2.98 -0.49,0.84 -1.19,1.5 -2.1,1.96 -0.9,0.46 -1.96,0.71 -3.16,0.73 v -1.7 z m -4.37,-3.45 c 0,-0.7 0.05,-1.25 0.16,-1.66 0.1,-0.4 0.25,-0.81 0.45,-1.22 h 1.77 c -0.1,0.35 -0.17,0.74 -0.22,1.17 -0.04,0.43 -0.06,0.96 -0.06,1.58 v 10.13 h -2.1 z"
           class="st8" />
        <path
           style="fill:#ffffff"
           id="path207"
           d="m 531.22,576.12 c 0.08,-0.64 0.26,-1.24 0.54,-1.8 0.28,-0.56 0.62,-1 1,-1.3 0.03,-0.02 0.11,-0.08 0.23,-0.16 l -0.02,-0.04 c -0.35,0.06 -0.79,0.16 -1.31,0.3 -0.52,0.14 -1,0.28 -1.44,0.43 l -0.5,-1.63 c 0.9,-0.31 1.91,-0.56 3.03,-0.76 1.12,-0.19 2.15,-0.29 3.09,-0.29 1.85,0 3.26,0.49 4.24,1.47 0.98,0.98 1.47,2.43 1.47,4.33 v 8.18 h -5.65 v -1.74 h 3.5 v -6.69 c 0,-1.22 -0.28,-2.15 -0.83,-2.79 -0.55,-0.64 -1.35,-0.96 -2.4,-0.96 -0.75,0 -1.38,0.29 -1.89,0.87 -0.51,0.58 -0.82,1.37 -0.93,2.36 l -1.04,8.94 h -2.13 z"
           class="st8" />
        <path
           style="fill:#ffffff"
           id="path209"
           d="m 555.31,583.19 v 1.65 h -11.28 v -1.75 h 7.46 v -6.86 c 0,-1.19 -0.27,-2.05 -0.8,-2.58 -0.53,-0.53 -1.4,-0.8 -2.59,-0.8 h -3.32 v -1.74 h 3.44 c 1.79,0 3.15,0.44 4.06,1.3 0.91,0.87 1.37,2.16 1.37,3.87 V 583 Z"
           class="st8" />
        <path
           style="fill:#ffffff"
           id="path211"
           d="m 571.9,576.24 c 0,-1.19 -0.27,-2.05 -0.8,-2.58 -0.54,-0.53 -1.4,-0.8 -2.59,-0.8 h -4.98 v -1.74 h 5.08 c 1.79,0 3.15,0.44 4.07,1.3 0.92,0.87 1.38,2.16 1.38,3.87 v 8.55 h -2.17 v -8.6 z m -8.34,3.92 c 0,-0.71 0.05,-1.26 0.16,-1.67 0.1,-0.41 0.25,-0.82 0.45,-1.23 h 1.77 c -0.09,0.36 -0.16,0.75 -0.21,1.19 -0.05,0.43 -0.07,0.96 -0.07,1.57 v 4.82 h -2.1 z"
           class="st8" />
        <path
           style="fill:#ffffff"
           id="path213"
           d="m 579,572.86 h -2.52 v -1.74 h 4.68 v 7.66 H 579 Z"
           class="st8" />
        <path
           style="fill:#ffffff"
           id="path215"
           d="m 586.2,572.86 h -2.52 v -1.74 h 4.68 v 7.66 h -2.17 v -5.92 z"
           class="st8" />
        <path
           style="fill:#ffffff"
           id="path217"
           d="m 590.94,584.83 0.06,-1.69 c 0.5,0.1 1.07,0.15 1.7,0.15 0.64,0 1.11,-0.18 1.43,-0.55 0.32,-0.37 0.48,-0.93 0.48,-1.69 v -8.19 h -2.69 v -1.74 h 4.86 v 10.1 c 0,1.26 -0.31,2.22 -0.93,2.87 -0.62,0.66 -1.52,0.99 -2.68,0.99 -0.71,0 -1.46,-0.08 -2.23,-0.25 z"
           class="st8" />
        <path
           style="fill:#ffffff"
           id="path219"
           d="m 605.62,583.15 c 0.77,-0.02 1.44,-0.19 2.02,-0.51 0.58,-0.32 1.02,-0.77 1.34,-1.35 0.32,-0.58 0.48,-1.26 0.48,-2.06 v -6.37 h -8.47 v -1.74 h 10.64 v 8.06 c 0,1.14 -0.25,2.13 -0.74,2.98 -0.49,0.84 -1.19,1.5 -2.1,1.96 -0.9,0.46 -1.96,0.71 -3.16,0.73 v -1.7 z m -4.37,-3.45 c 0,-0.7 0.05,-1.25 0.16,-1.66 0.1,-0.4 0.25,-0.81 0.45,-1.22 h 1.77 c -0.1,0.35 -0.17,0.74 -0.22,1.17 -0.04,0.43 -0.06,0.96 -0.06,1.58 v 10.13 h -2.1 z"
           class="st8" />
        <path
           style="fill:#ffffff"
           id="path221"
           d="m 621.74,571.12 h 10.95 v 13.73 h -10.95 z m 8.8,11.98 v -10.24 h -6.64 v 10.24 z"
           class="st8" />
        <path
           style="fill:#ffffff"
           id="path223"
           d="m 636.93,571.12 h 5.16 c 1.82,0 3.17,0.43 4.07,1.3 0.89,0.87 1.34,2.19 1.35,3.96 v 8.47 h -2.16 v -8.6 c 0,-1.19 -0.26,-2.05 -0.77,-2.59 -0.51,-0.54 -1.34,-0.8 -2.47,-0.8 h -3.03 l -0.01,11.99 h -2.16 z"
           class="st8" />
        <path
           style="fill:#ffffff"
           id="path225"
           d="m 661.08,572.42 c 0.9,0.87 1.35,2.19 1.35,3.96 v 8.47 h -2.16 l -0.01,-8.6 c 0,-1.19 -0.25,-2.05 -0.76,-2.59 -0.51,-0.54 -1.33,-0.8 -2.46,-0.8 h -1.95 c -0.26,0.42 -0.46,0.96 -0.61,1.61 -0.15,0.66 -0.23,1.33 -0.23,2.02 v 4.63 c 0,1.26 -0.3,2.21 -0.9,2.87 -0.6,0.66 -1.47,0.98 -2.61,0.98 -0.33,0 -0.78,-0.03 -1.34,-0.1 v -1.74 c 0.25,0.03 0.52,0.05 0.8,0.05 0.68,0 1.17,-0.17 1.47,-0.52 0.31,-0.35 0.46,-0.9 0.46,-1.66 v -4.33 c 0,-0.71 0.09,-1.41 0.28,-2.12 0.19,-0.71 0.44,-1.26 0.77,-1.68 h -2.58 v -1.74 h 6.4 c 1.83,-0.01 3.18,0.42 4.08,1.29 z"
           class="st8" />
        <path
           style="fill:#ffffff"
           id="path227"
           d="m 667.24,576.12 c 0.08,-0.64 0.26,-1.24 0.54,-1.8 0.28,-0.56 0.62,-1 1,-1.3 0.03,-0.02 0.11,-0.08 0.23,-0.16 l -0.02,-0.04 c -0.35,0.06 -0.79,0.16 -1.31,0.3 -0.52,0.14 -1,0.28 -1.44,0.43 l -0.5,-1.63 c 0.9,-0.31 1.91,-0.56 3.03,-0.76 1.12,-0.19 2.15,-0.29 3.09,-0.29 1.85,0 3.26,0.49 4.24,1.47 0.98,0.98 1.47,2.43 1.47,4.33 v 8.18 h -5.65 v -1.74 h 3.5 v -6.69 c 0,-1.22 -0.28,-2.15 -0.83,-2.79 -0.55,-0.64 -1.35,-0.96 -2.4,-0.96 -0.75,0 -1.38,0.29 -1.89,0.87 -0.51,0.58 -0.82,1.37 -0.93,2.36 l -1.04,8.94 h -2.13 z"
           class="st8" />
      </g>
    </g>
  </g>
</svg>
