<?xml version="1.0" encoding="UTF-8" standalone="no"?>
<svg
   xmlns:dc="http://purl.org/dc/elements/1.1/"
   xmlns:cc="http://creativecommons.org/ns#"
   xmlns:rdf="http://www.w3.org/1999/02/22-rdf-syntax-ns#"
   xmlns:svg="http://www.w3.org/2000/svg"
   xmlns="http://www.w3.org/2000/svg"
   xmlns:xlink="http://www.w3.org/1999/xlink"
   width="20.207111mm"
   height="11.034886mm"
   viewBox="0 0 71.600001 39.099991"
   id="svg4620"
   version="1.1">
  <defs
     id="defs4622">
    <clipPath
       id="SVGID_44_">
      <use
         id="use779"
         overflow="visible"
         xlink:href="#SVGID_43_"
         style="overflow:visible"
         x="0"
         y="0"
         width="100%"
         height="100%" />
    </clipPath>
    <clipPath
       id="SVGID_46_">
      <use
         id="use789"
         overflow="visible"
         xlink:href="#SVGID_45_"
         style="overflow:visible"
         x="0"
         y="0"
         width="100%"
         height="100%" />
    </clipPath>
  </defs>
  <metadata
     id="metadata4625">
    <rdf:RDF>
      <cc:Work
         rdf:about="">
        <dc:format>image/svg+xml</dc:format>
        <dc:type
           rdf:resource="http://purl.org/dc/dcmitype/StillImage" />
        <dc:title></dc:title>
      </cc:Work>
    </rdf:RDF>
  </metadata>
  <g
     id="layer1"
     transform="translate(-304.20001,-458.52649)">
    <rect
       id="rect769"
       height="13"
       width="71.599998"
       y="458.52649"
       x="304.20001"
       style="fill:#141132" />
    <path
       id="path771"
       d="m 310.30005,463.22648 0,7.6 -1.5,0 0,-6.4 -1.2,0 0,-1.2 2.7,0 z m 4,0 0,5.8 -1.5,0 0,-4.6 -1,0 0,-1.2 2.5,0 z m 7,2 c -0.1,0.2 -0.1,0.4 -0.2,0.6 -0.1,0.2 -0.1,0.4 -0.2,0.5 -0.1,0.1 -0.2,0.3 -0.3,0.4 -0.1,0.1 -0.3,0.3 -0.4,0.4 l 1.2,1.4 -1,0.9 -2.9,-3.4 c -0.1,0.1 -0.1,0.2 -0.1,0.4 0,0.2 -0.1,0.3 -0.1,0.5 0,0.2 0,0.4 0,0.6 0,0.2 0,0.4 0,0.5 0,0.1 0,0.1 0,0.2 0,0.1 0,0.2 0,0.3 0,0.1 0,0.2 0,0.3 0,0.1 0,0.2 0,0.3 l -1.4,0 c 0,-0.1 0,-0.2 0,-0.3 0,-0.1 0,-0.3 0,-0.4 0,-0.1 0,-0.3 0,-0.5 0,-0.2 0,-0.4 0,-0.6 0,-0.2 0,-0.4 0,-0.6 0,-0.2 0.1,-0.4 0.1,-0.6 0.1,-0.2 0.1,-0.4 0.2,-0.5 0.1,-0.2 0.2,-0.3 0.4,-0.5 -0.1,-0.1 -0.2,-0.2 -0.3,-0.4 -0.1,-0.1 -0.1,-0.2 -0.2,-0.4 -0.1,-0.1 -0.1,-0.3 -0.2,-0.4 -0.1,-0.1 -0.1,-0.3 -0.2,-0.5 0.2,-0.1 0.4,-0.2 0.7,-0.3 0.2,-0.1 0.5,-0.2 0.7,-0.2 0.1,0.2 0.2,0.4 0.2,0.6 0.1,0.2 0.2,0.3 0.2,0.5 0.1,0.1 0.2,0.3 0.3,0.4 0.1,0.1 0.2,0.3 0.4,0.5 l 1.1,1.2 c 0.1,-0.1 0.2,-0.2 0.2,-0.3 0.1,-0.1 0.1,-0.3 0.2,-0.4 0,-0.1 0,-0.1 0.1,-0.2 0,-0.1 0,-0.2 0.1,-0.2 l 0.1,-0.7 -0.8,-0.1 0.2,-1.2 2.1,0.4 0,0.7 -0.2,1.1 z m 6.6,0.2 0,1.1 -4.6,0 0,-1.1 4.6,0 z m 3.7,-1 c -0.2,0 -0.4,0 -0.5,0 -0.1,0 -0.3,0 -0.4,0 -0.1,0 -0.3,0 -0.4,-0.1 -0.1,0 -0.3,-0.1 -0.5,-0.1 0.1,-0.2 0.1,-0.4 0.2,-0.6 0.1,-0.2 0.1,-0.4 0.2,-0.6 0.2,0 0.3,0.1 0.5,0.1 0.1,0 0.2,0.1 0.4,0.1 0.1,0 0.2,0 0.4,0 0.1,0 0.3,0 0.4,0 l 0.2,0 3.3,0 c 0,0.1 0,0.1 0.1,0.2 0,0.1 0,0.1 0,0.2 0,0.1 0,0.2 0,0.3 0,0.1 0,0.2 0,0.3 l 0,1.2 c 0,0.2 0,0.4 0,0.6 0,0.2 -0.1,0.3 -0.1,0.5 0,0.2 -0.1,0.3 -0.2,0.5 -0.1,0.1 -0.2,0.3 -0.3,0.5 -0.1,0.1 -0.2,0.3 -0.3,0.5 -0.1,0.2 -0.3,0.4 -0.5,0.6 -0.2,0.2 -0.3,0.4 -0.5,0.6 -0.2,0.2 -0.3,0.3 -0.4,0.5 l -1.1,-0.9 0.8,-0.9 c 0.2,-0.2 0.4,-0.4 0.5,-0.6 0.1,-0.2 0.2,-0.3 0.3,-0.4 0.1,-0.1 0.1,-0.2 0.2,-0.3 0,-0.1 0.1,-0.2 0.1,-0.3 0,-0.1 0,-0.2 0.1,-0.3 0,-0.1 0,-0.2 0,-0.3 l 0,-1 -2.5,0 z m -1.7,3 c 0,-0.2 0,-0.3 0,-0.4 0,-0.1 0,-0.3 0,-0.4 0,-0.1 0,-0.2 0,-0.4 0,-0.1 0,-0.2 0.1,-0.4 0.3,0 0.5,0.1 0.8,0.1 0.3,0 0.5,0.1 0.8,0.2 0,0.2 -0.1,0.4 -0.1,0.6 0,0.2 0,0.5 0,0.7 l 0,3.4 -1.6,0 0,-3.4 z m 9.4,-4.2 0,5.8 -1.5,0 0,-4.6 -1,0 0,-1.2 2.5,0 z m 4.1,0 0,5.8 -1.5,0 0,-4.6 -1,0 0,-1.2 2.5,0 z m 10.2,2 c -0.1,0.2 -0.1,0.4 -0.2,0.6 -0.1,0.2 -0.1,0.4 -0.2,0.5 -0.1,0.1 -0.2,0.3 -0.3,0.4 -0.1,0.1 -0.3,0.3 -0.4,0.4 l 1.2,1.4 -1,0.9 -2.9,-3.4 c -0.1,0.1 -0.1,0.2 -0.1,0.4 0,0.2 -0.1,0.3 -0.1,0.5 0,0.2 0,0.4 0,0.6 0,0.2 0,0.4 0,0.5 0,0.1 0,0.1 0,0.2 0,0.1 0,0.2 0,0.3 0,0.1 0,0.2 0,0.3 0,0.1 0,0.2 0,0.3 l -1.4,0 c 0,-0.1 0,-0.2 0,-0.3 0,-0.1 0,-0.3 0,-0.4 0,-0.1 0,-0.3 0,-0.5 0,-0.2 0,-0.4 0,-0.6 0,-0.2 0,-0.4 0,-0.6 0,-0.2 0.1,-0.4 0.1,-0.6 0.1,-0.2 0.1,-0.4 0.2,-0.5 0.1,-0.2 0.2,-0.3 0.4,-0.5 -0.1,-0.1 -0.2,-0.2 -0.3,-0.4 -0.1,-0.1 -0.1,-0.2 -0.2,-0.4 -0.1,-0.1 -0.1,-0.3 -0.2,-0.4 -0.1,-0.1 -0.1,-0.3 -0.2,-0.5 0.2,-0.1 0.4,-0.2 0.7,-0.3 0.2,-0.1 0.5,-0.2 0.7,-0.2 0.1,0.2 0.2,0.4 0.2,0.6 0.1,0.2 0.2,0.3 0.2,0.5 0.1,0.1 0.2,0.3 0.3,0.4 0.1,0.1 0.2,0.3 0.4,0.5 l 1.1,1.2 c 0.1,-0.1 0.2,-0.2 0.2,-0.3 0.1,-0.1 0.1,-0.3 0.2,-0.4 0,-0.1 0,-0.1 0.1,-0.2 0,-0.1 0,-0.2 0.1,-0.2 l 0.1,-0.7 -0.8,-0.1 0.2,-1.2 2.1,0.4 0,0.7 -0.2,1.1 z m 4.2,-2 0,5.8 -1.5,0 0,-4.6 -1,0 0,-1.2 2.5,0 z m 3.2,1.2 c -0.2,0 -0.4,0 -0.5,0 -0.1,0 -0.3,0 -0.4,0 -0.1,0 -0.3,0 -0.4,-0.1 -0.1,0 -0.3,-0.1 -0.5,-0.1 0.1,-0.2 0.1,-0.4 0.2,-0.6 0.1,-0.2 0.1,-0.4 0.2,-0.6 0.2,0.1 0.4,0.1 0.5,0.1 0.1,0 0.3,0.1 0.4,0.1 0.1,0 0.3,0 0.4,0 0.1,0 0.3,0 0.5,0 l 3.2,0 0,1.2 -1.1,0 0,4.6 -1.6,0 0,-4.6 -0.9,0 z m 7.4,-1.2 0,2.1 c 0,0.2 0,0.4 0,0.5 0,0.1 0,0.3 0,0.4 0,0.1 0,0.2 0,0.3 0,0.1 0,0.2 -0.1,0.3 l -1.5,-0.2 c 0,-0.1 0,-0.2 0.1,-0.3 0,-0.1 0,-0.2 0,-0.3 0,-0.1 0,-0.2 0,-0.4 0,-0.1 0,-0.3 0,-0.5 l 0,-0.8 -1.3,0 0,-1.2 2.8,0 z m 3.9,0 0,5.8 -1.5,0 0,-4.6 -1,0 0,-1.2 2.5,0 z"
       style="fill:#d91378" />
    <g
       transform="translate(0.09996,0)"
       id="g4668">
      <g
         transform="translate(-148.09995,-84.97352)"
         id="g773">
        <defs
           id="defs775">
          <rect
             id="SVGID_43_"
             x="24.700001"
             y="79.099998"
             width="554"
             height="1157.5" />
        </defs>
        <clipPath
           id="clipPath6995">
          <use
             height="100%"
             width="100%"
             y="0"
             x="0"
             style="overflow:visible"
             xlink:href="#SVGID_43_"
             overflow="visible"
             id="use6997" />
        </clipPath>
        <path
           style="fill:#fcb65a;fill-opacity:1"
           clip-path="url(#SVGID_44_)"
           d="m 495.8,566.5 c 0,4.3 -7.8,16.1 -7.8,16.1 0,0 -7.8,-11.8 -7.8,-16.1 0,-4.3 3.5,-7.8 7.8,-7.8 4.4,0 7.8,3.5 7.8,7.8"
           id="path781" />
      </g>
      <g
         transform="translate(-148.09995,-84.97352)"
         id="g783">
        <defs
           id="defs785">
          <rect
             id="SVGID_45_"
             x="484.29999"
             y="561.79999"
             width="9.1000004"
             height="9.1000004" />
        </defs>
        <clipPath
           id="clipPath7003">
          <use
             height="100%"
             width="100%"
             y="0"
             x="0"
             style="overflow:visible"
             xlink:href="#SVGID_45_"
             overflow="visible"
             id="use7005" />
        </clipPath>
        <path
           style="fill:#ffffff"
           clip-path="url(#SVGID_46_)"
           d="m 491.1,566.1 0,3.7 -5.7,0 0,-5.8 3.7,0 1.1,-1.1 -6,0 0,8 8,0 0,-6 -1.1,1.2 z m -4,0.8 -0.4,1.6 1.6,-0.4 4,-4 -1.2,-1.2 -4,4 z m 6.1,-4.9 c 0.3,0.3 0.3,0.9 0,1.2 l -0.4,0.4 -1.2,-1.2 0.4,-0.4 c 0.3,-0.3 0.8,-0.3 1.2,0"
           id="path791" />
      </g>
    </g>
  </g>
</svg>
