<svg xmlns="http://www.w3.org/2000/svg" width="142.51" height="114.037" viewBox="0 0 142.51 114.037">
    <path fill="#99004a" d="M1251.51 921.255c0 8.445-15.25 31.782-15.25 31.782S1221 929.882 1221 921.255A15.23 15.23 0 0 1 1236.26 906c8.44 0 15.25 6.81 15.25 15.255" style="fill:#0fa993;fill-opacity:1" transform="translate(-1165 -839)"/>
    <path fill="#e60012" d="M142 0H0v63h142z"/>
    <path fill="#fff" d="m38.43 33.813-5.18-8.243h-3.74v11.822h3.71v-8.244l5.21 8.244h3.7V25.57h-3.71zm29.45-4.268v-1.17h-1.96v-1.589h-3.61v1.592h-1.97v1.167h1.97v7.847h3.61v-7.847zM44.2 37.392h3.61v-7.861H44.2zm0-9.407h3.61v-2.418h-3.62zm63.26 1.01c-2.91 0-5.27 1.975-5.27 4.414s2.36 4.415 5.27 4.415c2.92 0 5.28-1.979 5.28-4.415s-2.36-4.414-5.28-4.414m1.45 6.069c0 1.251-.75 1.77-1.47 1.77-.73 0-1.48-.519-1.48-1.77V31.73c0-1.247.75-1.763 1.47-1.763s1.48.516 1.48 1.763v1.672c.01.018 0 1.202 0 1.662m-11.46-5.142a4.86 4.86 0 0 0-2.04-.697c-2.61-.227-4.6 2.042-4.6 4.118-.02.817.2 1.621.64 2.313a4.25 4.25 0 0 0 1.83 1.582c.66.298 1.39.427 2.12.375a4.4 4.4 0 0 0 2.04-.671v.45h3.57V25.57h-3.56zm.02 3.484v1.393c0 1.213-.85 1.533-1.41 1.533s-1.42-.32-1.42-1.533v-2.787c0-1.216.85-1.526 1.42-1.526s1.41.31 1.41 1.526c0 .422.01 1.408.01 1.408zm-41.21-4.237c-1.07.03-2.1.453-2.88 1.185v-.826h-3.59v7.864h3.58v-5.164c0-.697.74-1.449 1.72-1.449.41-.014.81.129 1.12.399s.5.646.53 1.05v5.164h3.59v-4.279c.02-3.111-2.72-3.982-4.07-3.944m29.34 0c-1.07.03-2.1.452-2.88 1.185v-.826h-3.56v7.864h3.58v-5.164c0-.697.73-1.449 1.72-1.449.41-.014.81.129 1.12.399.3.27.49.646.53 1.05v5.164h3.58v-4.279c0-3.111-2.75-3.982-4.09-3.944m-7.55 4.327c0-2.438-2.4-4.459-5.33-4.459-2.94 0-5.31 1.975-5.31 4.414s2.38 4.415 5.31 4.415c2.44 0 4.49-1.37 5.12-3.227h-3.6v.478c0 1.435-.96 1.742-1.49 1.742-.54 0-1.51-.321-1.51-1.742v-1.624zm-6.57-2.769a1.48 1.48 0 0 1 1.27-.714 1.48 1.48 0 0 1 1.27.714c.23.393.24.857.24 1.543h-3.02c0-.686.01-1.15.24-1.543m42.71-3.697c0-.383-.29-.578-.88-.578h-.8v2.013h.5v-.829h.24l.39.826h.55l-.46-.899a.57.57 0 0 0 .33-.184.56.56 0 0 0 .13-.349m-.94.317h-.24v-.589h.22c.29 0 .44.091.44.303 0 .213-.14.286-.43.286zm0-1.683c-.36 0-.72.107-1.02.307-.31.199-.54.483-.68.816s-.18.698-.11 1.051c.07.352.25.676.51.931.25.254.58.427.94.498a1.87 1.87 0 0 0 1.9-.774c.2-.299.31-.65.31-1.01 0-.481-.19-.943-.54-1.284a1.85 1.85 0 0 0-1.3-.535zm0 3.289c-.29 0-.58-.086-.83-.248a1.56 1.56 0 0 1-.55-.66 1.45 1.45 0 0 1-.08-.849c.06-.285.2-.547.41-.753a1.503 1.503 0 0 1 2.29.223c.17.242.26.526.26.817 0 .389-.16.761-.44 1.037s-.66.431-1.05.433zm-4.02-10.006H32.77c-8.09-.021-13.53 5.71-13.53 12.577 0 6.868 5.42 12.543 13.54 12.543h76.45c8.12 0 13.54-5.665 13.54-12.543s-5.45-12.598-13.54-12.577m-.03 22.033H32.81c-6.45.021-10.37-4.24-10.37-9.473s3.94-9.445 10.37-9.473h76.39c6.42 0 10.36 4.243 10.36 9.473s-3.91 9.494-10.36 9.473"/>
</svg>
