<?xml version="1.0" encoding="UTF-8" standalone="no"?>
<svg
   xmlns:dc="http://purl.org/dc/elements/1.1/"
   xmlns:cc="http://creativecommons.org/ns#"
   xmlns:rdf="http://www.w3.org/1999/02/22-rdf-syntax-ns#"
   xmlns:svg="http://www.w3.org/2000/svg"
   xmlns="http://www.w3.org/2000/svg"
   xmlns:xlink="http://www.w3.org/1999/xlink"
   height="175.10344"
   width="114.3"
   xml:space="preserve"
   viewBox="0 0 114.3 175.10344"
   y="0px"
   x="0px"
   id="Layer_1"
   version="1.1"><metadata
     id="metadata439"><rdf:RDF><cc:Work
         rdf:about=""><dc:format>image/svg+xml</dc:format><dc:type
           rdf:resource="http://purl.org/dc/dcmitype/StillImage" /><dc:title></dc:title></cc:Work></rdf:RDF></metadata><defs
     id="defs437" /><style
     id="style3"
     type="text/css">
	.st0{fill:#B5B0C1;}
	.st1{fill:#FFFFFF;}
	.st2{fill:none;stroke:#141032;stroke-width:0.25;}
	.st3{fill:#43255C;}
	.st4{clip-path:url(#SVGID_2_);fill:none;stroke:#141032;stroke-width:0.25;}
	.st5{fill:none;stroke:#141032;stroke-width:0.5;}
	.st6{fill:#99AC64;}
	.st7{clip-path:url(#SVGID_4_);fill:none;stroke:#141032;stroke-width:0.25;}
	.st8{clip-path:url(#SVGID_6_);fill:#43255C;}
	.st9{clip-path:url(#SVGID_8_);fill:#FBB65A;}
	.st10{clip-path:url(#SVGID_8_);fill:none;stroke:#141032;stroke-width:0.5;stroke-miterlimit:10;}
	.st11{fill:#F7D685;}
	.st12{clip-path:url(#SVGID_10_);fill:#141032;}
	.st13{fill:#141032;}
	.st14{fill:none;stroke:#231F20;stroke-width:0.25;}
	.st15{clip-path:url(#SVGID_12_);fill:#141032;}
	.st16{clip-path:url(#SVGID_12_);fill:#FFFFFF;}
	.st17{clip-path:url(#SVGID_14_);fill:#141032;}
	.st18{clip-path:url(#SVGID_14_);fill:#FFFFFF;}
	.st19{fill:#D81278;}
	.st20{clip-path:url(#SVGID_16_);fill:#141032;}
	.st21{clip-path:url(#SVGID_18_);fill:#141032;}
	.st22{clip-path:url(#SVGID_18_);fill:#FFFFFF;}
	.st23{clip-path:url(#SVGID_20_);fill:#141032;}
	.st24{clip-path:url(#SVGID_22_);fill:#141032;}
	.st25{clip-path:url(#SVGID_24_);fill:#FFFFFF;}
	.st26{clip-path:url(#SVGID_26_);fill:#FFFFFF;}
	.st27{clip-path:url(#SVGID_28_);fill:#141032;}
	.st28{clip-path:url(#SVGID_30_);fill:#141032;}
	.st29{clip-path:url(#SVGID_32_);fill:#FFFFFF;}
	.st30{clip-path:url(#SVGID_34_);fill:#FFFFFF;}
	.st31{fill:#8ACDAB;}
	.st32{clip-path:url(#SVGID_36_);fill:#141032;}
	.st33{clip-path:url(#SVGID_38_);fill:#FFFFFF;}
</style><g
     transform="matrix(0,-1,1,0,-1086.85,735.25)"
     id="g173"><defs
       id="defs175"><rect
         height="1619.8"
         width="953.09998"
         y="119"
         x="65.699997"
         id="SVGID_7_" /></defs><clipPath
       id="SVGID_8_"><use
         height="100%"
         width="100%"
         y="0"
         x="0"
         id="use179"
         style="overflow:visible"
         xlink:href="#SVGID_7_" /></clipPath><path
       style="fill:#141032;fill-opacity:1"
       clip-path="url(#SVGID_8_)"
       id="path181"
       d="m 678.1,1200.9 c -31.4,0 -117.5,-56.9 -117.5,-56.9 0,0 86.1,-56.9 117.5,-56.9 31.4,0 56.9,25.5 56.9,56.9 0,31.5 -25.5,56.9 -56.9,56.9"
       class="st9" /><path
       style="fill:none;stroke:#141032;stroke-width:0.5;stroke-miterlimit:10"
       clip-path="url(#SVGID_8_)"
       id="path183"
       d="m 678.1,1200.9 c -31.4,0 -117.5,-56.9 -117.5,-56.9 0,0 86.1,-56.9 117.5,-56.9 31.4,0 56.9,25.5 56.9,56.9 0,31.5 -25.5,56.9 -56.9,56.9 z"
       class="st10" /></g><path
     style="fill:#ffffff"
     id="path187"
     d="m 35.14999,33.75 c 0.7,0 1.3,0.1 2,0.2 0.7,0.1 1.2,0.4 1.8,0.8 0.5,0.4 0.9,1 1.2,1.7 0.3,0.7 0.5,1.7 0.5,2.8 l 0,11.1 -15.49999,0 0,-9.1 c 0,-0.7 0,-1.3 0.1,-2 0.1,-0.7 0.19999,-1.4 0.39999,-2.1 C 25.25,37.05 24.85,37.05 24.55,36.95 c -0.4,-0.1 -0.8,-0.2 -1.3,-0.4 0.2,-0.6 0.3,-1.1 0.5,-1.7 0.2,-0.6 0.4,-1.1 0.6,-1.7 0.5,0.1 1,0.3 1.39999,0.4 0.4,0.1 0.8,0.2 1.1,0.2 0.4,0 0.7,0.1 1.1,0.1 0.4,0 0.9,0 1.4,0 l 5.8,0 z m 1.1,13.2 0,-6.5 c 0,-0.7 0,-1.2 -0.1,-1.6 -0.1,-0.4 -0.2,-0.7 -0.4,-1 -0.2,-0.2 -0.5,-0.4 -0.9,-0.5 -0.4,-0.1 -0.9,-0.1 -1.5,-0.1 l -3.6,0 c -0.2,0.7 -0.3,1.4 -0.3,2 0,0.6 0,1.2 0,1.9 l 0,5.8 6.8,0 z m 12.3,-17.8 0,4.7 9.1,0 c 0.1,0.2 0.1,0.4 0.2,0.6 0,0.2 0.1,0.3 0.1,0.5 0.1,0.3 0.1,0.5 0.1,0.7 0,0.2 0,0.5 0,0.8 l 0,3.5 c 0,1.3 -0.3,2.4 -0.8,3.6 -0.5,1.1 -1.3,2.2 -2.3,3.4 l -4.1,4.5 -3.1,-2.6 1.8,-2 c 0.8,-0.9 1.4,-1.6 1.9,-2.2 0.5,-0.6 0.9,-1.1 1.2,-1.5 0.3,-0.5 0.5,-0.9 0.7,-1.3 0.1,-0.4 0.2,-0.9 0.2,-1.5 l 0,-2.9 -9.5,0 0,-8.1 4.5,0 z m 20.6,4.6 0,16.6 -4.4,0 0,-13.1 -2.8,0 0,-3.5 7.2,0 z m 20,5.6 c -0.1,0.7 -0.3,1.3 -0.5,1.8 -0.2,0.5 -0.4,1 -0.6,1.4 -0.2,0.4 -0.5,0.8 -0.9,1.2 -0.3,0.4 -0.7,0.7 -1.2,1.1 l 3.5,4.1 -2.8,2.5 -8.3,-9.6 c -0.2,0.3 -0.3,0.6 -0.4,1.1 -0.1,0.4 -0.2,0.9 -0.2,1.4 0,0.5 -0.1,1 -0.1,1.6 0,0.5 0,1.1 0,1.5 0,0.2 0,0.4 0,0.6 0,0.3 0,0.5 0,0.8 0,0.3 0,0.6 0,0.9 0,0.3 0,0.6 0,0.9 l -4.1,0 c 0,-0.3 0,-0.6 0,-1 0,-0.3 0,-0.7 0,-1.2 0,-0.4 0,-0.9 0,-1.4 0,-0.5 0,-1.1 0.1,-1.7 0,-0.7 0.1,-1.3 0.1,-1.8 0.1,-0.6 0.2,-1.1 0.4,-1.6 0.2,-0.5 0.4,-1 0.7,-1.5 0.3,-0.5 0.7,-1 1.1,-1.4 -0.3,-0.4 -0.5,-0.7 -0.7,-1 -0.2,-0.3 -0.4,-0.7 -0.6,-1 -0.2,-0.4 -0.4,-0.7 -0.5,-1.1 -0.2,-0.4 -0.4,-0.8 -0.6,-1.3 0.6,-0.2 1.2,-0.5 1.9,-0.7 0.7,-0.2 1.3,-0.5 1.9,-0.7 0.2,0.6 0.5,1.1 0.7,1.6 0.2,0.5 0.4,0.9 0.7,1.3 0.3,0.4 0.5,0.8 0.8,1.3 0.3,0.4 0.7,0.9 1.1,1.4 l 3.1,3.5 c 0.3,-0.3 0.5,-0.5 0.7,-0.9 0.2,-0.3 0.4,-0.7 0.6,-1.2 0.1,-0.2 0.1,-0.4 0.2,-0.6 0.1,-0.2 0.1,-0.5 0.2,-0.7 l 0.4,-1.9 -2.3,-0.4 0.6,-3.3 5.9,1 0,2.1 -0.9,2.9 z"
     class="st1" /><path
     style="fill:#ffffff"
     id="path189"
     d="m 30.84999,58.35 0,6.1 c 0,0.6 0,1.1 0,1.4 0,0.4 0,0.7 -0.1,1.1 -0.1,0.4 -0.1,0.6 -0.1,0.9 -0.1,0.3 -0.1,0.6 -0.2,1 l -4.3,-0.6 c 0.1,-0.3 0.1,-0.6 0.1,-0.9 0,-0.3 0.1,-0.5 0.1,-0.8 0,-0.3 0.1,-0.6 0.1,-1 0,-0.4 0,-0.8 0,-1.3 l 0,-2.3 -3.69999,0 0,-3.5 8.09999,0 z m 9.1,13.4 c 0.2,0 0.4,0 0.6,0 0.2,0 0.5,0 0.7,0 0.6,0 1.3,-0.1 2,-0.2 0.7,-0.1 1.3,-0.3 2,-0.6 0.7,-0.3 1.2,-0.7 1.8,-1.2 0.6,-0.5 1.1,-1.1 1.5,-1.9 0.6,-1.1 1,-2.2 1.3,-3.3 0.2,-1.1 0.3,-2.3 0.3,-3.4 0,-0.5 0,-0.9 0,-1.4 0,-0.4 -0.1,-0.9 -0.1,-1.4 0.5,-0.1 0.9,-0.2 1.2,-0.3 0.3,-0.1 0.7,-0.1 1,-0.2 0.3,-0.1 0.6,-0.1 1,-0.2 0.4,-0.1 0.8,-0.1 1.3,-0.2 0.1,0.5 0.2,1 0.2,1.5 0,0.5 0.1,1.1 0.1,1.7 0,0.5 0,1 -0.1,1.5 0,0.5 -0.1,1 -0.1,1.4 -0.5,3.9 -2,6.9 -4.3,8.8 -2.3,1.9 -5.5,2.9 -9.6,2.9 -0.7,0 -1.4,0 -2.2,-0.1 -0.8,-0.1 -1.5,-0.1 -2.4,-0.2 l -0.7,-9.6 c 0,-0.6 -0.1,-1 -0.1,-1.5 0,-0.4 -0.1,-0.8 -0.1,-1.1 0,-0.3 -0.1,-0.6 -0.1,-0.9 0,-0.3 -0.1,-0.6 -0.2,-0.8 -0.1,-0.3 -0.2,-0.6 -0.3,-0.9 -0.1,-0.3 -0.2,-0.7 -0.4,-1.1 0.6,-0.2 1.3,-0.5 1.9,-0.8 0.6,-0.3 1.3,-0.5 1.9,-0.7 0.3,0.6 0.5,1.2 0.7,1.7 0.2,0.5 0.3,1 0.4,1.6 0.1,0.5 0.1,1.1 0.2,1.7 0,0.6 0.1,1.3 0.1,2 l 0.5,7.2 z m 1.6,-7.9 c 0.2,-0.4 0.3,-0.8 0.4,-1.1 0.1,-0.3 0.2,-0.6 0.3,-0.8 0.1,-0.2 0.1,-0.5 0.2,-0.7 0,-0.2 0,-0.5 0,-0.7 0,-0.1 0,-0.2 0,-0.2 0,-0.1 0,-0.2 0,-0.3 0,-0.2 0,-0.4 0,-0.5 0,-0.2 -0.1,-0.4 -0.1,-0.7 0.7,-0.2 1.4,-0.4 2.1,-0.6 0.7,-0.2 1.4,-0.3 2.1,-0.5 0.1,0.5 0.2,0.9 0.3,1.3 0.1,0.4 0.1,0.8 0.1,1.1 0,0.3 0,0.6 -0.1,0.9 0,0.3 -0.1,0.6 -0.2,1 -0.1,0.4 -0.2,0.7 -0.4,1.2 -0.1,0.4 -0.3,0.9 -0.5,1.4 l -1.1,2.8 c -0.4,-0.1 -0.8,-0.2 -1.1,-0.3 -0.3,-0.1 -0.6,-0.2 -0.9,-0.3 -0.3,-0.1 -0.6,-0.2 -0.8,-0.3 -0.3,-0.1 -0.6,-0.3 -1.1,-0.5 l 0.8,-2.2 z m 32.2,0.1 c -0.1,0.7 -0.3,1.3 -0.5,1.8 -0.2,0.5 -0.4,1 -0.6,1.4 -0.2,0.4 -0.5,0.8 -0.9,1.2 -0.3,0.4 -0.7,0.7 -1.2,1.1 l 3.5,4.1 -2.8,2.5 -8.3,-9.6 c -0.2,0.3 -0.3,0.6 -0.4,1.1 -0.1,0.4 -0.2,0.9 -0.2,1.4 0,0.5 -0.1,1 -0.1,1.6 0,0.5 0,1.1 0,1.5 0,0.2 0,0.4 0,0.6 0,0.3 0,0.5 0,0.8 0,0.3 0,0.6 0,0.9 0,0.3 0,0.6 0,0.9 l -4.1,0 c 0,-0.3 0,-0.6 0,-1 0,-0.3 0,-0.7 0,-1.2 0,-0.4 0,-0.9 0,-1.4 0,-0.5 0,-1.1 0.1,-1.7 0,-0.7 0.1,-1.3 0.1,-1.8 0.1,-0.6 0.2,-1.1 0.4,-1.6 0.2,-0.5 0.4,-1 0.7,-1.5 0.3,-0.5 0.7,-1 1.1,-1.4 -0.3,-0.4 -0.5,-0.7 -0.7,-1 -0.2,-0.3 -0.4,-0.7 -0.6,-1 -0.2,-0.4 -0.4,-0.7 -0.5,-1.1 -0.2,-0.4 -0.4,-0.8 -0.6,-1.3 0.6,-0.2 1.2,-0.5 1.9,-0.7 0.7,-0.2 1.3,-0.5 1.9,-0.7 0.2,0.6 0.5,1.1 0.7,1.6 0.2,0.5 0.4,0.9 0.7,1.3 0.3,0.4 0.5,0.8 0.8,1.3 0.3,0.4 0.7,0.9 1.1,1.4 l 3.1,3.5 c 0.3,-0.3 0.5,-0.5 0.7,-0.9 0.2,-0.3 0.4,-0.7 0.6,-1.2 0.1,-0.2 0.1,-0.4 0.2,-0.6 0.1,-0.2 0.1,-0.5 0.2,-0.7 l 0.4,-1.9 -2.3,-0.4 0.6,-3.3 5.9,1 0,2.1 -0.9,2.9 z m 9.2,-2.1 c -0.5,0 -1,0 -1.4,0 -0.4,0 -0.8,0 -1.2,-0.1 -0.4,0 -0.8,-0.1 -1.2,-0.2 -0.4,-0.1 -0.9,-0.2 -1.4,-0.4 0.2,-0.6 0.3,-1.1 0.5,-1.7 0.2,-0.6 0.4,-1.1 0.6,-1.7 0.5,0.1 1,0.3 1.4,0.4 0.4,0.1 0.8,0.2 1.1,0.2 0.4,0 0.7,0.1 1.1,0.1 0.4,0 0.9,0 1.4,0 l 1.9,0 c 0.7,0 1.3,0.1 2,0.2 0.7,0.1 1.2,0.4 1.8,0.8 0.5,0.4 0.9,1 1.2,1.7 0.3,0.7 0.5,1.6 0.5,2.8 l 0,11.1 -4.4,0 0,-10 c 0,-0.7 0,-1.2 -0.1,-1.6 -0.1,-0.4 -0.2,-0.7 -0.4,-1 -0.2,-0.2 -0.5,-0.4 -0.9,-0.5 -0.4,-0.1 -0.9,-0.1 -1.5,-0.1 l -1,0 z"
     class="st1" /></svg>