<?xml version="1.0" encoding="UTF-8" standalone="no"?>
<svg
   xmlns:dc="http://purl.org/dc/elements/1.1/"
   xmlns:cc="http://creativecommons.org/ns#"
   xmlns:rdf="http://www.w3.org/1999/02/22-rdf-syntax-ns#"
   xmlns:svg="http://www.w3.org/2000/svg"
   xmlns="http://www.w3.org/2000/svg"
   version="1.1"
   id="svg7410"
   viewBox="0 0 2224.615 1478.3701"
   height="1478.3701"
   width="2224.615">
  <defs
     id="defs7412" />
  <metadata
     id="metadata7415">
    <rdf:RDF>
      <cc:Work
         rdf:about="">
        <dc:format>image/svg+xml</dc:format>
        <dc:type
           rdf:resource="http://purl.org/dc/dcmitype/StillImage" />
        <dc:title></dc:title>
      </cc:Work>
    </rdf:RDF>
  </metadata>
  <polygon
     style="fill:#bbbade"
     points="2589.1,399.1 2954,211.6 3071.8,276.9 2701.5,456.5 "
     class="st1"
     id="XMLID_653_"
     transform="translate(-1070.95,-70.599997)" />
  <polygon
     style="opacity:1;fill:#ffffff;stroke:#010101;stroke-width:0.5;stroke-miterlimit:10;enable-background:new"
     points="3071.8,211.6 3071.8,276.9 2964.1,329.1 2965.7,290.4 2938.3,304.2 2936.5,342.5 2816.4,400.1 2815.8,362.2 2786.9,375.2 2788.4,413.7 2701.5,456.5 2701.5,389.5 "
     class="st0"
     id="XMLID_652_"
     transform="translate(-1070.95,-70.599997)" />
  <polygon
     style="opacity:1;fill:#ffffff;stroke:#010101;stroke-width:0.5;stroke-miterlimit:10;enable-background:new"
     points="2954,154.2 2589.1,334.3 2589.1,399.5 2954,211.6 "
     class="st0"
     id="polygon595_3_"
     transform="translate(-1070.95,-70.599997)" />
  <polygon
     style="opacity:1;fill:#ffffff;stroke:#010101;stroke-width:0.5;stroke-miterlimit:10;enable-background:new"
     points="2701.5,389.5 2701.5,456.5 2589.1,399.1 2589.1,334.3 "
     class="st0"
     id="polygon607_3_"
     transform="translate(-1070.95,-70.599997)" />
  <polygon
     style="opacity:1;fill:#ffffff;stroke:#010101;stroke-width:0.5;stroke-miterlimit:10;enable-background:new"
     points="2850.8,317.6 2783.3,350.4 2732.7,327.3 2730.6,266.6 "
     class="st0"
     id="polygon611_1_"
     transform="translate(-1070.95,-70.599997)" />
  <polygon
     style="opacity:1;fill:#ffffff;stroke:#010101;stroke-width:0.5;stroke-miterlimit:10;enable-background:new"
     points="2954,154.2 3071.8,211.6 3011.7,240.7 2954,211.6 "
     class="st0"
     id="polygon615_3_"
     transform="translate(-1070.95,-70.599997)" />
  <polygon
     id="polygon707_9_"
     class="st25"
     points="1490.2,786 1466,777.2 1409.8,799.7 1436.9,809.3 "
     style="display:none;opacity:1;fill:#ffffff;stroke:#010101;stroke-width:0.5;stroke-miterlimit:10;enable-background:new"
     transform="translate(-1070.95,-70.599997)" />
  <polygon
     id="polygon711_9_"
     class="st26"
     points="1495.4,756.3 1492.4,785.4 1437.1,810.8 1439,778.6 "
     style="opacity:1;fill:#ffffff;stroke:#010101;stroke-width:0.5;stroke-miterlimit:10;enable-background:new"
     transform="translate(-1070.95,-70.599997)" />
  <polygon
     id="polygon707_8_"
     class="st26"
     points="1529.9,766.3 1489.5,757 1439.9,778.6 1474.6,791.7 "
     style="opacity:1;fill:#ffffff;stroke:#010101;stroke-width:0.5;stroke-miterlimit:10;enable-background:new"
     transform="translate(-1070.95,-70.599997)" />
  <polygon
     id="polygon711_8_"
     class="st26"
     points="1532.7,737 1529.9,766.3 1474.6,791.7 1476.6,759.5 "
     style="opacity:1;fill:#ffffff;stroke:#010101;stroke-width:0.5;stroke-miterlimit:10;enable-background:new"
     transform="translate(-1070.95,-70.599997)" />
  <polygon
     id="polygon707_7_"
     class="st26"
     points="1565.3,747.7 1526.3,737.9 1476.6,759.3 1510,772.9 "
     style="opacity:1;fill:#ffffff;stroke:#010101;stroke-width:0.5;stroke-miterlimit:10;enable-background:new"
     transform="translate(-1070.95,-70.599997)" />
  <polygon
     id="polygon711_7_"
     class="st26"
     points="1568.3,718.4 1565.3,747.7 1510,772.9 1512.1,740.8 "
     style="opacity:1;fill:#ffffff;stroke:#010101;stroke-width:0.5;stroke-miterlimit:10;enable-background:new"
     transform="translate(-1070.95,-70.599997)" />
  <polygon
     id="polygon707_4_"
     class="st26"
     points="1592.5,727.2 1568.3,718.4 1512.1,740.8 1539.2,750.5 "
     style="opacity:1;fill:#ffffff;stroke:#010101;stroke-width:0.5;stroke-miterlimit:10;enable-background:new"
     transform="translate(-1070.95,-70.599997)" />
  <polygon
     id="polygon495_1_"
     class="st1"
     points="2188.9,443.7 1589.7,721.4 1811.6,839.4 2551.4,567.8 "
     style="fill:#bbbade"
     transform="translate(-1070.95,-70.599997)" />
  <polygon
     id="polygon497_1_"
     class="st0"
     points="1586.7,730.1 1586.7,679.1 2202,414.4 2202,464.6 "
     style="opacity:1;fill:#ffffff;stroke:#010101;stroke-width:0.5;stroke-miterlimit:10;enable-background:new"
     transform="translate(-1070.95,-70.599997)" />
  <polygon
     id="polygon501_1_"
     class="st0"
     points="1974.8,564.9 1974.8,511.4 2194.5,627.7 2162.2,668.1 "
     style="opacity:1;fill:#ffffff;stroke:#010101;stroke-width:0.5;stroke-miterlimit:10;enable-background:new"
     transform="translate(-1070.95,-70.599997)" />
  <polygon
     id="polygon505_1_"
     class="st0"
     points="2532.6,562.1 2526.5,564.4 2202,464.6 2202,414.4 2537.4,520.1 2537.4,560.3 "
     style="opacity:1;fill:#ffffff;stroke:#010101;stroke-width:0.5;stroke-miterlimit:10;enable-background:new"
     transform="translate(-1070.95,-70.599997)" />
  <g
     id="polygon509_1_"
     transform="translate(-1070.95,-70.599997)">
    <g
       id="XMLID_1484_">
      <g
         id="XMLID_614_">
        <polygon
           id="XMLID_618_"
           class="st1"
           points="2732.9,486 2485.6,573.1 2430.9,594.8 2077.1,709.6 2079.1,699.7 1772.1,800.8 1597.5,723.9 1450.7,792.2 1329.6,750.2 1081.2,855.8 1191.9,940 1287.5,898.2 1381.7,945.8 1313.5,1014.1 2384.1,1528.2 2587.1,1391.7 2419.5,1321.9 2869.5,990.7 3283.3,758.5 "
           style="fill:#bbbade" />
      </g>
    </g>
  </g>
  <polygon
     id="polygon515_1_"
     class="st27"
     points="2285.9,705.8 1849.9,806.5 2400.9,1073.2 2645.4,945 2645.4,945 2651,961 2684.1,942.2 2683.6,925.1 2688.4,939.7 2721.5,920.9 2719.5,906.3 2756,887 2933.9,752.3 2637.3,617.1 "
     style="fill:#839cca"
     transform="translate(-1070.95,-70.599997)" />
  <polyline
     id="polyline525_1_"
     class="st0"
     points="2239.4,1414.3 2368.8,1313.6 2369.3,1375.8 2394.7,1356.8 2393.9,1294.4       2814.8,967.3 3285.3,699.7 3283.3,758.5 2825,1035 2394.7,1356.8 2366.3,1377.7 2239.4,1473.1     "
     style="opacity:1;fill:#ffffff;stroke:#010101;stroke-width:0.5;stroke-miterlimit:10;enable-background:new"
     transform="translate(-1070.95,-70.599997)" />
  <polygon
     id="polygon537_1_"
     class="st0"
     points="2588.2,1398.7 2588.2,1353.2 2418.1,1289.9 2420.3,1337.9 "
     style="opacity:1;fill:#ffffff;stroke:#010101;stroke-width:0.5;stroke-miterlimit:10;enable-background:new"
     transform="translate(-1070.95,-70.599997)" />
  <polygon
     id="polygon541_1_"
     class="st0"
     points="2384.4,1485.9 2587.9,1354.3 2587.9,1400 2384.9,1538.5 "
     style="opacity:1;fill:#ffffff;stroke:#010101;stroke-width:0.5;stroke-miterlimit:10;enable-background:new"
     transform="translate(-1070.95,-70.599997)" />
  <polygon
     id="polygon545_1_"
     class="st0"
     points="2147.4,1044.5 1929.1,945.5 2054,908.5 2192.1,1029.2 "
     style="opacity:1;fill:#ffffff;stroke:#010101;stroke-width:0.5;stroke-miterlimit:10;enable-background:new"
     transform="translate(-1070.95,-70.599997)" />
  <polygon
     id="polygon549_1_"
     class="st0"
     points="2636.8,559.9 1850.2,777.4 1850.2,834 2636.8,618.8 "
     style="opacity:1;fill:#ffffff;stroke:#010101;stroke-width:0.5;stroke-miterlimit:10;enable-background:new"
     transform="translate(-1070.95,-70.599997)" />
  <polygon
     id="polygon561_1_"
     class="st0"
     points="2183.4,1031.4 1996.9,946.3 2016.6,938 2205.7,1023.9 "
     style="opacity:1;fill:#ffffff;stroke:#010101;stroke-width:0.5;stroke-miterlimit:10;enable-background:new"
     transform="translate(-1070.95,-70.599997)" />
  <polygon
     id="polygon565_1_"
     class="st0"
     points="2184.7,1031.4 1988.7,941.7 1967,948.7 2165.5,1037.9 "
     style="opacity:1;fill:#ffffff;stroke:#010101;stroke-width:0.5;stroke-miterlimit:10;enable-background:new"
     transform="translate(-1070.95,-70.599997)" />
  <polygon
     id="polygon569_1_"
     class="st0"
     points="2933.9,704.3 2635.9,559.6 2635.9,619.1 2933.9,763.4 "
     style="opacity:1;fill:#ffffff;stroke:#010101;stroke-width:0.5;stroke-miterlimit:10;enable-background:new"
     transform="translate(-1070.95,-70.599997)" />
  <polygon
     id="polygon573_1_"
     class="st28"
     points="2261.7,1047.3 2029.4,941.7 2048.4,931.1 2298.5,1033 "
     style="fill:#9aad63"
     transform="translate(-1070.95,-70.599997)" />
  <polygon
     id="polygon575_1_"
     class="st0"
     points="2165,1037.9 1958.7,943 1938.2,949.5 2146,1044.8 "
     style="opacity:1;fill:#ffffff;stroke:#010101;stroke-width:0.5;stroke-miterlimit:10;enable-background:new"
     transform="translate(-1070.95,-70.599997)" />
  <polygon
     id="polygon579_1_"
     class="st0"
     points="1304.8,956.1 1413.3,905.6 1414.6,949.5 1350.5,978.7 "
     style="opacity:1;fill:#ffffff;stroke:#010101;stroke-width:0.5;stroke-miterlimit:10;enable-background:new"
     transform="translate(-1070.95,-70.599997)" />
  <polygon
     id="polygon583_1_"
     class="st0"
     points="2400.9,1044 1849.9,777.4 1849.9,834 2400.9,1102.5 "
     style="opacity:1;fill:#ffffff;stroke:#010101;stroke-width:0.5;stroke-miterlimit:10;enable-background:new"
     transform="translate(-1070.95,-70.599997)" />
  <polygon
     id="polygon587_1_"
     class="st0"
     points="2384.1,1486.7 1304.8,956.1 1304.8,1016.9 2384.1,1538.5 "
     style="opacity:1;fill:#ffffff;stroke:#010101;stroke-width:0.5;stroke-miterlimit:10;enable-background:new"
     transform="translate(-1070.95,-70.599997)" />
  <polygon
     id="XMLID_1481_"
     class="st0"
     points="2745.7,591.5 2746.7,563.6 2732.8,558.1 2731.9,584.4 2719.8,578.9 2719.8,526.2 3018.7,669.7 3018.7,723.9 "
     style="opacity:1;fill:#ffffff;stroke:#010101;stroke-width:0.5;stroke-miterlimit:10;enable-background:new"
     transform="translate(-1070.95,-70.599997)" />
  <polygon
     id="polygon595_4_"
     class="st0"
     points="3109.4,625.2 2793.2,467.4 2787.1,506.6 3109.4,677.9 "
     style="opacity:1;fill:#ffffff;stroke:#010101;stroke-width:0.5;stroke-miterlimit:10;enable-background:new"
     transform="translate(-1070.95,-70.599997)" />
  <polygon
     id="polygon599_1_"
     class="st0"
     points="1329.6,750.2 1329.6,708 1426.4,755.1 1426.4,803.3 "
     style="opacity:1;fill:#ffffff;stroke:#010101;stroke-width:0.5;stroke-miterlimit:10;enable-background:new"
     transform="translate(-1070.95,-70.599997)" />
  <polygon
     id="XMLID_1480_"
     class="st0"
     points="2651,961 2400.9,1102.5 2400.9,1044 2756,840.2 2933.9,704.3 2933.9,763.4 2756,901.5 2721.5,920.9 2714,895.7 2681.8,914.1 2688.4,939.7 2690.2,938.7 2684.1,942.2 2676.6,916.8 2644.2,935.4 "
     style="opacity:1;fill:#ffffff;stroke:#010101;stroke-width:0.5;stroke-miterlimit:10;enable-background:new"
     transform="translate(-1070.95,-70.599997)" />
  <polygon
     id="polygon607_4_"
     class="st0"
     points="3018.7,723.9 3018.7,669.7 3109.4,625.2 3109.4,677.6 "
     style="opacity:1;fill:#ffffff;stroke:#010101;stroke-width:0.5;stroke-miterlimit:10;enable-background:new"
     transform="translate(-1070.95,-70.599997)" />
  <polygon
     id="polygon611_4_"
     class="st0"
     points="2972.3,649 2930.8,627.6 3017.2,579 3015.5,626.7 "
     style="opacity:1;fill:#ffffff;stroke:#010101;stroke-width:0.5;stroke-miterlimit:10;enable-background:new"
     transform="translate(-1070.95,-70.599997)" />
  <polygon
     id="polygon611_3_"
     class="st29"
     points="2845.2,587.5 2803.7,566.1 2890.1,517.6 2888.4,565.3 "
     style="opacity:1;fill:#ffffff;stroke:#010101;stroke-width:0.5;enable-background:new"
     transform="translate(-1070.95,-70.599997)" />
  <polygon
     id="polygon615_4_"
     class="st0"
     points="2719.8,526.2 2814.8,479.9 2814.8,526.2 2768.3,549.6 "
     style="opacity:1;fill:#ffffff;stroke:#010101;stroke-width:0.5;stroke-miterlimit:10;enable-background:new"
     transform="translate(-1070.95,-70.599997)" />
  <polyline
     id="polyline619_1_"
     class="st0"
     points="1513,764.9 1330.4,849.3 1330.4,802.5 1513,714.4     "
     style="opacity:1;fill:#ffffff;stroke:#010101;stroke-width:0.5;stroke-miterlimit:10;enable-background:new"
     transform="translate(-1070.95,-70.599997)" />
  <polygon
     id="polygon627_1_"
     class="st0"
     points="1081.2,855.8 1081.2,816.4 1329.6,708 1329.6,750.2 "
     style="opacity:1;fill:#ffffff;stroke:#010101;stroke-width:0.5;stroke-miterlimit:10;enable-background:new"
     transform="translate(-1070.95,-70.599997)" />
  <polygon
     id="polygon631_1_"
     class="st0"
     points="1081.2,863.3 1081.2,816.4 1158.5,879.7 1158.5,925.2 "
     style="opacity:1;fill:#ffffff;stroke:#010101;stroke-width:0.5;stroke-miterlimit:10;enable-background:new"
     transform="translate(-1070.95,-70.599997)" />
  <polygon
     id="polygon635_1_"
     class="st27"
     points="2232.8,1005.8 1948.4,868.9 1904.5,880.9 2183.1,1021.1 "
     style="fill:#839cca"
     transform="translate(-1070.95,-70.599997)" />
  <path
     id="path645_1_"
     class="st27"
     d="m 1423.75,961 -94.2,46.8 c -53.8,-26.7 -203,-90 -203,-90 l -14.8,18.4 182.9,95.4 -115.1,47.7 34.6,13.6 75.6,-31.7 33.7,15.3 152,-99.5 -51.7,-16 z"
     style="fill:#839cca" />
  <polygon
     id="polygon647_1_"
     class="st27"
     points="2194.2,1014.4 2192.9,1000.5 2372.1,1090.9 2372.1,1108.6 "
     style="fill:#839cca"
     transform="translate(-1070.95,-70.599997)" />
  <polygon
     id="polygon663_2_"
     class="st30"
     points="1517.3,706.5 1551.8,692.5 1543.2,687.2 1561.3,659.1 1544.9,648.5 1526.4,677.2 1517,671.1 "
     style="fill:#f8b119"
     transform="translate(-1070.95,-70.599997)" />
  <polygon
     id="polygon669_1_"
     class="st27"
     points="2191.4,1003 2176.9,1011.6 2266.1,1125.4 2276.8,1114.3 "
     style="fill:#839cca"
     transform="translate(-1070.95,-70.599997)" />
  <polygon
     id="polygon683_1_"
     class="st0"
     points="1948.9,858.8 1903.2,871.1 1903.2,880.6 1948.9,868.6 "
     style="opacity:1;fill:#ffffff;stroke:#010101;stroke-width:0.5;stroke-miterlimit:10;enable-background:new"
     transform="translate(-1070.95,-70.599997)" />
  <polygon
     id="polygon687_1_"
     class="st0"
     points="1913.1,878.9 1903.2,872.7 1903.2,882.5 1913.1,889.2 "
     style="opacity:1;fill:#ffffff;stroke:#010101;stroke-width:0.5;stroke-miterlimit:10;enable-background:new"
     transform="translate(-1070.95,-70.599997)" />
  <polygon
     id="polygon691_1_"
     class="st0"
     points="1914.3,878.9 1742.9,890.9 1742.9,900.2 1914.3,888.7 "
     style="opacity:1;fill:#ffffff;stroke:#010101;stroke-width:0.5;stroke-miterlimit:10;enable-background:new"
     transform="translate(-1070.95,-70.599997)" />
  <polygon
     id="polygon695_1_"
     class="st0"
     points="1742.9,897 1742.9,906.5 1914.3,894.5 2181.9,1021.1 2266.5,1125.4 2265.3,1110.3 2184.7,1011.6 1914.3,885 1914.3,884.5 "
     style="opacity:1;fill:#ffffff;stroke:#010101;stroke-width:0.5;stroke-miterlimit:10;enable-background:new"
     transform="translate(-1070.95,-70.599997)" />
  <polygon
     id="polygon699_4_"
     class="st0"
     points="2257.5,1177.6 2291.2,1162 2290.4,1256.1 2257.5,1274.3 "
     style="opacity:1;fill:#ffffff;stroke:#010101;stroke-width:0.5;stroke-miterlimit:10;enable-background:new"
     transform="translate(-1070.95,-70.599997)" />
  <polygon
     id="polygon703_1_"
     class="st0"
     points="2276.8,1100.8 2192.6,1000.2 2194.5,1014.1 2276.4,1113.5 "
     style="opacity:1;fill:#ffffff;stroke:#010101;stroke-width:0.5;stroke-miterlimit:10;enable-background:new"
     transform="translate(-1070.95,-70.599997)" />
  <polygon
     id="polygon707_3_"
     class="st0"
     points="2209.8,1158 2209.8,1249.5 2257.5,1274.3 2257.5,1177.2 "
     style="opacity:1;fill:#ffffff;stroke:#010101;stroke-width:0.5;stroke-miterlimit:10;enable-background:new"
     transform="translate(-1070.95,-70.599997)" />
  <polygon
     id="polygon711_4_"
     class="st0"
     points="2209.8,1158 2244.7,1144 2290.7,1162 2258.3,1177.6 "
     style="opacity:1;fill:#ffffff;stroke:#010101;stroke-width:0.5;stroke-miterlimit:10;enable-background:new"
     transform="translate(-1070.95,-70.599997)" />
  <g
     id="XMLID_1467_"
     class="st31"
     style="opacity:1"
     transform="translate(-1070.95,-70.599997)">
    <polygon
       id="polygon699_3_"
       class="st26"
       points="2007,1123.4 2009,1156.8 1894.7,1132.1 1893.4,1099.2 "
       style="opacity:1;fill:#ffffff;stroke:#010101;stroke-width:0.5;stroke-miterlimit:10;enable-background:new" />
    <polygon
       id="polygon707_2_"
       class="st26"
       points="2059.7,1094.7 1939.9,1071.4 1893.4,1099.2 2007.5,1123.4 "
       style="opacity:1;fill:#ffffff;stroke:#010101;stroke-width:0.5;stroke-miterlimit:10;enable-background:new" />
    <polygon
       id="polygon711_3_"
       class="st26"
       points="2059.7,1094.7 2060.7,1123.9 2009.2,1156.3 2007,1124.1 "
       style="opacity:1;fill:#ffffff;stroke:#010101;stroke-width:0.5;stroke-miterlimit:10;enable-background:new" />
  </g>
  <g
     id="XMLID_1466_"
     class="st31"
     style="opacity:1"
     transform="translate(-1070.95,-70.599997)">
    <polygon
       id="polygon699_1_"
       class="st26"
       points="1759.8,1046 1757.5,1079.4 1647.4,1040 1650.2,1007.3 "
       style="opacity:1;fill:#ffffff;stroke:#010101;stroke-width:0.5;stroke-miterlimit:10;enable-background:new" />
    <polygon
       id="polygon707_1_"
       class="st26"
       points="1815.8,1024.4 1699.8,985.7 1650.2,1007.3 1760.1,1046.2 "
       style="opacity:1;fill:#ffffff;stroke:#010101;stroke-width:0.5;stroke-miterlimit:10;enable-background:new" />
    <polygon
       id="polygon711_1_"
       class="st26"
       points="1815.8,1024.4 1812.8,1053.6 1757.5,1079.1 1759.7,1046.8 "
       style="opacity:1;fill:#ffffff;stroke:#010101;stroke-width:0.5;stroke-miterlimit:10;enable-background:new" />
  </g>
  <polygon
     id="polygon821_1_"
     class="st0"
     points="1749.9,755.1 1590.9,677.6 1590.9,728.1 1749.9,805.6 "
     style="opacity:1;fill:#ffffff;stroke:#010101;stroke-width:0.5;stroke-miterlimit:10;enable-background:new"
     transform="translate(-1070.95,-70.599997)" />
  <path
     id="path825_1_"
     class="st0"
     d="m 817.95,641.3 -26.2,7.5 -112.7,36.2 0,49.7 113.8,-34.6 25.1,-7.5 0,-51.3 0,0 z m 69.8,30.9 323.4,-93.7 0,-46.8 -323.4,90 0,50.5 0,0 z m 770.6,-306.1 -348.5,138 -34.1,9.5 0,46.5 32.1,-9 350.5,-135.7 0,-49.3 z m 0,-0.5 0,0 1.2,0 -1.2,0 z"
     style="opacity:1;fill:#ffffff;stroke:#010101;stroke-width:0.5;stroke-miterlimit:10;enable-background:new" />
  <polygon
     id="XMLID_1431_"
     class="st0"
     points="2740.1,560.9 2732.8,558.1 2732.6,563.9 "
     style="opacity:1;fill:#ffffff;stroke:#010101;stroke-width:0.5;stroke-miterlimit:10;enable-background:new"
     transform="translate(-1070.95,-70.599997)" />
  <polygon
     id="rect849_2_"
     class="st13"
     points="1599.7,568.1 1599.7,595.3 1642.9,593.3 1642.9,641 1435.4,641 1435.4,595.3 1469.6,595.3 1470.3,568.1 "
     style="fill:#6f4d80"
     transform="translate(-1070.95,-70.599997)" />
  <g
     id="XMLID_983_"
     transform="translate(-1070.95,-70.599997)">
    <path
       id="XMLID_1050_"
       class="st14"
       d="m 1500.5,586.4 c 0,-1.8 -0.8,-2.8 -2.7,-2.8 l -7.6,0 0,-4.2 9.1,0 c 2.2,0 3.7,0.7 5,1.8 1.2,1.2 1.8,3 1.8,5.5 l 0,15 -5.6,0 0,-15.3 z"
       style="fill:#f6f6f6" />
    <path
       id="XMLID_1049_"
       class="st14"
       d="m 1529.2,597.5 0,4.2 -8.3,0 -10.3,0 0,-4.2 10.3,0 0,-11 c 0,-1.8 -0.8,-2.8 -2.7,-2.8 l -7.6,0 0,-4.2 9.1,0 c 2.2,0 3.7,0.7 5,1.8 1.2,1.2 1.8,3 1.8,5.5 l 0,10.8 2.7,0 0,-0.1 z"
       style="fill:#f6f6f6" />
    <path
       id="XMLID_1048_"
       class="st14"
       d="m 1552.2,579.4 c 0,5.1 -0.2,9.1 -0.7,11.8 -0.3,2.7 -1.3,4.8 -3,6.6 -1.7,1.8 -4.2,3 -7.8,3.8 l -8.3,1.7 -0.8,-4.5 6.1,-1.2 -4.5,-18.3 5.6,0 4,16.9 c 1.2,-0.5 2,-1.5 2.5,-2.7 0.5,-1.2 0.8,-2.7 1,-4.3 0.2,-1.7 0.2,-4.2 0.2,-7.6 l 0,-2.5 5.6,0 0,0.3 z"
       style="fill:#f6f6f6" />
    <path
       id="XMLID_1047_"
       class="st14"
       d="m 1575.9,599 c -1.7,2 -4,3.2 -7.1,3.2 -1.2,0 -2.3,-0.2 -3.7,-0.5 l 0.5,-4.2 c 1,0.2 1.8,0.3 2.5,0.3 1.8,0 3,-0.7 3.8,-1.8 0.8,-1.1 1.2,-3 1.2,-5.3 0,-2.7 -0.3,-4.5 -1,-5.6 -0.7,-1.1 -1.8,-1.7 -3.3,-1.7 -1,0 -2,0.3 -2.7,1 -0.7,0.7 -1.2,1.5 -1.3,2.5 l -2.5,14.8 -5.6,0 2.7,-15 -3.2,-7.3 5.8,0 1.5,4.5 c 0.5,-1.7 1.3,-2.8 2.5,-3.7 1.2,-0.8 2.3,-1.2 3.8,-1.2 2.8,0 5,1 6.3,2.8 1.5,2 2.2,4.8 2.2,8.6 0.1,3.8 -0.7,6.6 -2.4,8.6 z"
       style="fill:#f6f6f6" />
    <path
       id="XMLID_1046_"
       class="st14"
       d="m 1455.2,624.9 c 1,-0.2 1.7,-0.3 2.2,-0.7 0.5,-0.4 0.8,-0.7 1,-1.2 0.2,-0.5 0.3,-1.2 0.2,-2.2 l 0,-15.1 11.8,0 c 2.2,0 3.7,0.7 5,1.8 1.2,1.2 1.8,3 1.8,5.5 l 0,15 -5.6,0 0,-15.3 c 0,-1.8 -0.8,-2.8 -2.7,-2.8 l -4.7,0 0,10.3 c 0,2 -0.3,3.5 -1,4.7 -0.7,1.2 -1.5,2 -2.8,2.7 -1.2,0.7 -2.8,1 -5,1.2 l -0.2,-3.9 z"
       style="fill:#f6f6f6" />
    <path
       id="XMLID_1045_"
       class="st14"
       d="m 1482.6,610.4 -0.5,-4.5 5.6,0 0.5,4.5 0,17.6 -5.6,0 0,-17.6 z"
       style="fill:#f6f6f6" />
    <path
       id="XMLID_1044_"
       class="st14"
       d="m 1509.5,605.8 0,4.7 -7,17.6 -5.6,0 7,-18.1 -11.3,0 0,-10 5.1,0 0,5.6 11.8,0 0,0.2 z"
       style="fill:#f6f6f6" />
    <path
       id="XMLID_1025_"
       class="st14"
       d="m 1514.1,610.4 -0.5,-4.5 5.6,0 0.5,4.5 0,17.6 -5.6,0 0,-17.6 z"
       style="fill:#f6f6f6" />
    <path
       id="XMLID_1024_"
       class="st14"
       d="m 1523.9,623.9 6.3,0 c 1.5,0 2.7,-0.5 3.3,-1.5 0.6,-1 1,-2.3 1,-4 l 0,-3 c 0,-1.7 -0.3,-3 -1,-4 -0.7,-1 -1.8,-1.5 -3.3,-1.5 l -6.3,0 0,-4.2 7.8,0 c 2.8,0 5,0.8 6.3,2.7 1.5,1.8 2.2,4.2 2.2,7.3 l 0,2.3 c 0,3.2 -0.7,5.5 -2.2,7.3 -1.5,1.8 -3.7,2.7 -6.3,2.7 l -7.8,0 0,-4.1 z"
       style="fill:#f6f6f6" />
    <path
       id="XMLID_1023_"
       class="st14"
       d="m 1563,624.4 c -3.2,2.7 -8,4.2 -14.6,4.2 l -1.2,0 -3,-22.6 5.3,0 1.2,9.6 c 1,-0.5 1.7,-1.3 2.2,-2.3 0.3,-1 0.5,-2.7 0.5,-4.7 l 0,-2.5 5.3,0 0,2.5 c 0,2.8 -0.7,5.1 -1.7,7 -1.2,1.8 -3,3.2 -5.8,4.2 l 0.5,4.5 c 3.7,-0.2 6.3,-1.3 8,-3.2 1.7,-1.8 2.3,-4.7 2.3,-8 l 0,-6.8 5.6,0 0,6.5 c 0.2,4.8 -1.5,8.9 -4.6,11.6 z"
       style="fill:#f6f6f6" />
    <path
       id="XMLID_1022_"
       class="st14"
       d="m 1587.1,628.1 -7.3,-11.3 -3.5,11.3 -5.3,0 4.3,-13.5 1.2,-3 -3.7,-5.8 5.6,0 3.2,5.1 2.8,4.3 1,-3.5 1.5,-5.8 5.3,0 -4.7,14.3 5.3,8.1 -5.8,0 0,-0.2 z"
       style="fill:#f6f6f6" />
    <path
       id="XMLID_1021_"
       class="st14"
       d="m 1613.5,605.8 0,4.7 -7,17.6 -5.6,0 7,-18.1 -11.3,0 0,-10 5.1,0 0,5.6 11.8,0 0,0.2 z"
       style="fill:#f6f6f6" />
  </g>
  <polygon
     id="XMLID_982_"
     class="st33"
     points="2684.1,942.2 2684.4,943.2 2651,961 "
     style="fill:#401326"
     transform="translate(-1070.95,-70.599997)" />
  <polygon
     id="XMLID_981_"
     class="st33"
     points="2721.5,920.9 2721.8,921.9 2690.6,938.5 "
     style="fill:#401326"
     transform="translate(-1070.95,-70.599997)" />
  <g
     id="XMLID_657_"
     transform="translate(-1070.95,-70.599997)" />
</svg>
