<?xml version="1.0" encoding="UTF-8" standalone="no"?>
<svg
   xmlns:dc="http://purl.org/dc/elements/1.1/"
   xmlns:cc="http://creativecommons.org/ns#"
   xmlns:rdf="http://www.w3.org/1999/02/22-rdf-syntax-ns#"
   xmlns:svg="http://www.w3.org/2000/svg"
   xmlns="http://www.w3.org/2000/svg"
   width="48.429337mm"
   height="37.648453mm"
   viewBox="0 0 171.60001 133.40003"
   id="svg5503"
   version="1.1">
  <defs
     id="defs5505" />
  <metadata
     id="metadata5508">
    <rdf:RDF>
      <cc:Work
         rdf:about="">
        <dc:format>image/svg+xml</dc:format>
        <dc:type
           rdf:resource="http://purl.org/dc/dcmitype/StillImage" />
        <dc:title></dc:title>
      </cc:Work>
    </rdf:RDF>
  </metadata>
  <g
     id="layer1"
     transform="translate(-237.05715,-548.51938)">
    <g
       id="XMLID_2108_"
       transform="translate(-1892.7429,-1229.0806)">
      <g
         id="XMLID_2119_">
        <path
           style="fill:#f8b119;fill-opacity:1"
           d="m 2240.8,1859 c 0,13.8 -25.2,52 -25.2,52 0,0 -25.2,-38.2 -25.2,-52 0,-13.8 11.3,-25.2 25.2,-25.2 13.7,0 25.2,11.4 25.2,25.2"
           class="st13"
           id="path355_7_" />
        <path
           style="opacity:1;fill:#ffffff;enable-background:new"
           d="m 2200.6,1877.6 c 0,1.2 0.3,1.7 1.7,1.7 1.2,0 1.7,-0.3 1.7,-1.7 l 0,-14.6 1.7,0 0,14.6 c 0,1.2 0.3,1.7 1.7,1.7 1.3,0 1.7,-0.3 1.7,-1.7 l 0,-24.8 0.8,0 0,9 c 0,0.3 0,0.8 0.3,1.2 0.3,0.3 0.8,0.3 1.2,0 0.3,-0.3 0.8,-0.8 0.8,-1.2 l 0,-9.8 c 0,-1.2 -0.3,-2 -1.2,-2.5 -0.8,-0.3 -1.7,-0.8 -2.8,-0.8 l -6.5,0 c -1.2,0 -2,0.3 -2.8,0.8 -0.8,0.3 -1.2,1.2 -1.2,2.5 l 0,10.1 c 0,0.3 0.3,0.8 0.8,0.8 0.3,0.3 0.8,0.3 1.2,0 0.3,-0.3 0.3,-0.3 0.3,-0.8 l 0,-9.3 0.8,0 0,24.8 -0.2,0 z"
           class="st8"
           id="path357_7_" />
        <path
           style="opacity:1;fill:#ffffff;enable-background:new"
           d="m 2232.2,1865.8 -4.5,-13 0,0 c 0,-0.3 0,-0.3 0.3,-0.3 0,0 0.3,0 0.3,0.3 l 3.3,8.1 c 0.3,0.3 0.8,0.8 1.7,0.8 0.3,0 0.3,-0.3 0.8,-0.8 0,-0.3 0,-0.8 0,-0.8 l -3.3,-8.1 c 0,-0.8 -0.3,-1.7 -1.2,-2.5 -0.9,-0.8 -1.7,-0.8 -2.8,-0.8 l -4,0 c -1.2,0 -2,0.3 -2.8,1.2 -0.8,0.9 -1.2,1.7 -1.7,2.5 l -2.8,8.1 c 0,0 0,0.3 0,0.8 0,0.3 0.3,0.8 0.8,0.8 0.8,0 1.7,-0.3 1.7,-0.8 l 3.3,-8.5 c 0,0 0,-0.3 0.3,-0.3 0.3,0 0.3,0 0.3,0.3 l 0,0 -4.5,13 0,0.8 c 0,0 0,0.3 0.3,0.3 0.3,0.3 0.3,0.3 0.3,0.3 l 2.8,0 0,10.1 c 0,0.3 0,0.8 0.3,1.2 0.3,0.3 0.8,0.3 1.2,0.3 0.3,0 0.8,0 1.2,-0.3 0.3,-0.3 0.3,-0.8 0.3,-1.2 l 0,-10.1 c 0,0 0,0 0.3,0 0.3,0 0.3,0 0.8,0 0.5,0 0.3,0 0.3,0 l 0,10.1 c 0,0.3 0,0.8 0.3,1.2 0.3,0.3 0.8,0.3 1.2,0.3 0.3,0 0.8,0 1.2,-0.3 0.3,-0.3 0.3,-0.8 0.3,-1.2 l 0,-9.8 2.8,0 c 0,0 0.3,0 0.3,-0.3 0.3,-0.3 0.3,-0.3 0.3,-0.3 l 0,-1.2 0.6,0 z"
           class="st8"
           id="path359_7_" />
        <path
           style="opacity:1;fill:#ffffff;enable-background:new"
           d="m 2201.4,1844.4 c 0,0.8 0.3,1.7 0.8,2.5 0.8,0.8 1.2,0.8 2.5,0.8 0.8,0 1.7,-0.3 2.5,-0.8 0.8,-0.8 0.8,-1.7 0.8,-2.5 0,-0.8 -0.3,-1.7 -0.8,-2.5 -0.8,-0.8 -1.2,-0.8 -2.5,-0.8 -0.8,0 -1.7,0.3 -2.5,0.8 -0.8,0.8 -0.8,1.7 -0.8,2.5"
           class="st8"
           id="path361_7_" />
        <path
           style="opacity:1;fill:#ffffff;enable-background:new"
           d="m 2220.9,1844.4 c 0,0.8 0.3,1.7 0.8,2.5 0.8,0.8 1.2,0.8 2.5,0.8 1.2,0 1.7,-0.3 2.5,-0.8 0.8,-0.8 0.8,-1.2 0.8,-2.5 0,-0.8 -0.3,-1.7 -0.8,-2.5 -0.8,-0.8 -1.2,-0.8 -2.5,-0.8 -1.2,0 -1.7,0.3 -2.5,0.8 -0.5,0.8 -0.8,1.7 -0.8,2.5"
           class="st8"
           id="path363_7_" />
      </g>
      <rect
         style="fill:#6f4d80"
         height="52.799999"
         width="171.60001"
         class="st13"
         y="1777.6"
         x="2129.8"
         id="rect475_8_" />
      <g
         id="XMLID_2109_">
        <path
           style="fill:#ffffff"
           d="m 2161.9,1793.4 c 1.3,1.3 2.2,3.5 2.2,6.5 l 0,17.1 -6.5,0 -14.1,0 -1.3,0 0,-25.7 6.5,0 7.8,0 c 2.1,-0.1 3.9,0.6 5.4,2.1 z m -4.5,18.8 0,-12.8 c 0,-2.2 -1,-3.3 -3,-3.3 l -6,0 0,15.9 9,0 0,0.2 z"
           class="st5"
           id="XMLID_2116_" />
        <path
           style="fill:#ffffff"
           d="m 2170,1796.6 -0.5,-5.3 6.5,0 0.5,5.3 0,7 0,2.8 -6.5,1.2 0,-11 z"
           class="st5"
           id="XMLID_2115_" />
        <path
           style="fill:#ffffff"
           d="m 2181,1813.3 c 1.2,-0.2 2,-0.3 2.5,-0.7 0.5,-0.3 1,-0.8 1.2,-1.3 0.2,-0.7 0.3,-1.5 0.3,-2.5 l 0,-17.6 13.6,0 c 2.3,0 4.3,0.7 5.6,2 1.3,1.3 2,3.5 2,6.5 l 0,17.3 -6.5,0 0,-17.6 c 0,-2.2 -1,-3.3 -3,-3.3 l -5.3,0 0,11.8 c 0,2.3 -0.3,4.2 -1,5.5 -0.7,1.3 -1.8,2.3 -3.2,3 -1.5,0.7 -3.3,1.2 -5.8,1.3 l -0.4,-4.4 z"
           class="st5"
           id="XMLID_2114_" />
        <path
           style="fill:#ffffff"
           d="m 2212.7,1796.6 -0.5,-5.3 6.5,0 0.5,5.3 0,20.4 -6.5,0 0,-20.4 z"
           class="st5"
           id="XMLID_2113_" />
        <path
           style="fill:#ffffff"
           d="m 2235.8,1799.4 c 0,-2.2 -1,-3.3 -3,-3.3 l -8.8,0 0,-4.8 10.6,0 c 2.3,0 4.3,0.7 5.6,2 1.3,1.3 2.2,3.5 2.2,6.5 l 0,17.3 -6.5,0 0,-17.6 -0.1,0 z"
           class="st5"
           id="XMLID_2112_" />
        <path
           style="fill:#ffffff"
           d="m 2248.6,1796.6 -0.5,-5.3 6.5,0 0.5,5.3 0,7 0,2.8 -6.5,1.2 0,-11 z"
           class="st5"
           id="XMLID_2111_" />
        <path
           style="fill:#ffffff"
           d="m 2282.2,1812.8 c -3.7,3.2 -9.3,4.7 -16.9,4.7 l -1.3,0 -3.3,-26.2 6.1,0 1.3,11.1 c 1.2,-0.7 2,-1.5 2.5,-2.7 0.5,-1.2 0.7,-3 0.7,-5.5 l 0,-3 6.1,0 0,2.8 c 0,3.3 -0.7,6 -2,8 -1.3,2 -3.5,3.7 -6.6,4.7 l 0.7,5.1 c 4.3,-0.3 7.3,-1.5 9.1,-3.7 1.8,-2.2 2.7,-5.3 2.7,-9.3 l -0.2,-8 6.5,0 0,7.5 c 0.1,6.7 -1.8,11.4 -5.4,14.5 z"
           class="st5"
           id="XMLID_2110_" />
      </g>
    </g>
  </g>
</svg>
