<?xml version="1.0" encoding="UTF-8" standalone="no"?>
<svg
   xmlns:dc="http://purl.org/dc/elements/1.1/"
   xmlns:cc="http://creativecommons.org/ns#"
   xmlns:rdf="http://www.w3.org/1999/02/22-rdf-syntax-ns#"
   xmlns:svg="http://www.w3.org/2000/svg"
   xmlns="http://www.w3.org/2000/svg"
   version="1.1"
   id="svg4410"
   viewBox="0 0 256.19999 346.39995"
   height="346.39996"
   width="256.19998">
  <defs
     id="defs4412" />
  <metadata
     id="metadata4415">
    <rdf:RDF>
      <cc:Work
         rdf:about="">
        <dc:format>image/svg+xml</dc:format>
        <dc:type
           rdf:resource="http://purl.org/dc/dcmitype/StillImage" />
        <dc:title></dc:title>
      </cc:Work>
    </rdf:RDF>
  </metadata>
  <rect
     style="fill:#c52036"
     height="242.3"
     width="254.7"
     class="st6"
     y="-1.5258789e-005"
     x="1.4999901"
     id="rect807_3_" />
  <path
     style="fill:#e04c26;fill-opacity:1"
     d="m 155.59996,289.59997 c 0,15.1 -27.5,56.8 -27.5,56.8 0,0 -27.50001,-41.6 -27.50001,-56.8 0,-15.1 12.40001,-27.5 27.50001,-27.5 15.1,0 27.5,12.4 27.5,27.5"
     class="st6"
     id="path877_2_" />
  <path
     style="fill:#f6f6f6"
     d="m 139.79996,284.99997 c -1.4,0 -2.4,-1 -2.4,-2.4 0,-1.4 1,-2.4 2.4,-2.4 1.4,0 2.4,1 2.4,2.4 0,1.3 -1,2.4 -2.4,2.4 m -4.6,5.6 c -1.4,0 -2.4,-1 -2.4,-2.4 0,-1.4 1,-2.4 2.4,-2.4 1.4,0 2.4,1 2.4,2.4 0,1.4 -1.1,2.4 -2.4,2.4 m -9.2,-4.6 c 0,0.7 -0.7,1.4 -1.4,1.4 l -3.1,0 0,3.1 c 0,0.7 -0.7,1.4 -1.4,1.4 l -1,0 c -0.7,0 -1.4,-0.7 -1.4,-1.4 l 0,-3.1 -3.1,0 c -0.7,0 -1.4,-0.7 -1.4,-1.4 l 0,-1 c 0,-0.7 0.7,-1.4 1.4,-1.4 l 3.1,0 0,-3.1 c 0,-0.7 0.7,-1.4 1.4,-1.4 l 1,0 c 0.7,0 1.4,0.7 1.4,1.4 l 0,3.1 3.1,0 c 0.7,0 1.4,0.7 1.4,1.4 l 0,1 z m 22.9,0.7 c -2.1,-9.6 -5,-12 -7,-13.1 -2.9,-1.4 -6.4,-0.7 -7.4,0 -1.4,0.7 -2.1,1.7 -3.6,2.4 -1.4,0.7 -3.6,0.7 -5,0 -1,-0.7 -2.1,-1.7 -3.9,-2.4 -1.8,-0.7 -5,-1.7 -8.1,0.3 -0.7,0.3 -6,5 -7.4,18.4 -1,8.4 3.6,11 3.6,11 1,0.7 3.9,2.1 7.4,0 2.4,-1.4 4.3,-4.6 4.3,-4.6 0,0 0.7,-1.7 2.1,-2.4 0.7,-0.3 2.1,0 2.1,0 l 4.3,0 c 0,0 1.4,0 2.4,0.3 1,0.3 1.4,1.4 1.4,1.4 0,0 2.9,3.6 5.7,5.7 1,0.7 6,1.7 8.1,-1 1.7,-1.9 2.7,-7.8 1,-16"
     class="st41"
     id="path973_2_" />
  <g
     id="g966"
     transform="translate(-1903.6,-322.70004)">
    <path
       style="fill:#ffffff"
       id="path968"
       d="m 1968.8,361.2 c 0,-1 0.1,-1.8 0.3,-2.4 0.2,-0.6 0.4,-1.1 0.7,-1.5 l 3.1,0 c -0.2,0.9 -0.3,2.1 -0.3,3.5 l 0,6.6 -3.7,0 0,-6.2 z m 10.7,-5.4 c 0,-1.2 -0.3,-2.1 -0.9,-2.7 -0.6,-0.6 -1.5,-0.9 -2.8,-0.9 l -7.1,0 0,-3 7.3,0 c 2.3,0 4.1,0.6 5.4,1.7 1.2,1.2 1.9,2.8 1.9,5 l 0,11.4 -3.9,0 0,-11.5 z"
       class="st21" />
    <path
       style="fill:#ffffff"
       id="path970"
       d="m 1989.4,352.3 -3.1,0 0,-3 7,0 0,10.3 -3.9,0 0,-7.3 z"
       class="st21" />
    <path
       style="fill:#ffffff"
       id="path972"
       d="m 1999.6,352.3 -3.1,0 0,-3 7,0 0,10.3 -3.9,0 0,-7.3 z"
       class="st21" />
    <path
       style="fill:#ffffff"
       id="path974"
       d="m 2014.9,364.4 c 1.4,-0.1 2.5,-0.5 3.3,-1.3 0.8,-0.8 1.2,-2 1.2,-3.5 l 0,-7.4 -10.9,0 0,-3 14.7,0 0,10.3 c 0,1.6 -0.3,3 -1,4.1 -0.7,1.1 -1.6,2.1 -2.9,2.7 -1.3,0.6 -2.7,1 -4.5,1 l 0,-2.9 z m -6.2,-3.6 c 0,-1 0.1,-1.8 0.3,-2.3 0.2,-0.6 0.4,-1.1 0.7,-1.5 l 3.1,0 c -0.2,0.8 -0.3,2 -0.3,3.5 l 0,13.3 -3.7,0 0,-13 z"
       class="st21" />
    <path
       style="fill:#ffffff"
       id="path976"
       d="m 2028.5,349.2 7.4,0 c 4.8,0 7.2,2.3 7.2,6.9 l 0,11.3 -3.9,0 0,-11.5 c 0,-1.2 -0.3,-2.1 -0.8,-2.7 -0.5,-0.6 -1.4,-0.9 -2.5,-0.9 l -3.6,0 0,15.1 -3.9,0 0.1,-18.2 z"
       class="st21" />
    <path
       style="fill:#ffffff"
       id="path978"
       d="m 2051.7,363.6 c 0.9,0.4 1.9,0.7 2.9,0.9 1,0.2 2,0.3 2.9,0.3 1.5,0 2.7,-0.2 3.9,-0.6 1.1,-0.4 2,-1 2.6,-1.9 0.6,-0.9 0.9,-1.9 0.9,-3.2 l 0,-9.9 3.7,0 0,10.3 c 0,1.8 -0.5,3.3 -1.5,4.6 -1,1.3 -2.3,2.2 -4,2.8 -1.7,0.6 -3.5,0.9 -5.6,0.9 -1.6,0 -3.3,-0.2 -5,-0.6 -1.7,-0.4 -3.3,-0.9 -4.8,-1.7 l 0,-16.4 3.7,0 0,14.5 z m 4.4,-3.3 c 0.2,-0.7 0.2,-1.5 0.2,-2.4 l 0,-8.7 3.8,0 0,7.9 c 0,1 -0.1,2 -0.4,2.8 -0.3,0.8 -0.6,1.5 -1.1,2 l -3.2,-0.1 c 0.4,-0.2 0.6,-0.8 0.7,-1.5 z"
       class="st21" />
    <path
       style="fill:#ffffff"
       id="path980"
       d="m 2075.1,356.5 c 0.1,-0.8 0.3,-1.6 0.7,-2.3 0.3,-0.7 0.7,-1.3 1.2,-1.7 0.1,-0.1 0.2,-0.1 0.3,-0.2 l 0,-0.1 c -0.4,0.1 -0.9,0.2 -1.6,0.4 -0.6,0.2 -1.2,0.3 -1.6,0.5 l -0.9,-2.8 c 1.2,-0.4 2.5,-0.8 4.1,-1 1.6,-0.2 3,-0.4 4.3,-0.4 2.6,0 4.6,0.7 6,2 1.4,1.3 2.1,3.4 2.1,6 l 0,10.5 -7.7,0 0,-3 3.9,0 0,-8 c 0,-1.4 -0.3,-2.5 -0.9,-3.2 -0.6,-0.7 -1.5,-1.1 -2.6,-1.1 -0.9,0 -1.7,0.4 -2.2,1.1 -0.6,0.7 -0.9,1.7 -1.1,3 l -1.2,11.3 -3.8,0 1,-11 z"
       class="st21" />
    <path
       style="fill:#ffffff"
       id="path982"
       d="m 1991.2,405.6 c 1.1,1.1 1.7,2.8 1.7,5.2 l 0,10.8 -0.9,0 0,-10.8 c 0,-1.5 -0.2,-2.6 -0.6,-3.5 -0.4,-0.9 -1,-1.5 -1.9,-1.9 -0.9,-0.4 -2,-0.6 -3.5,-0.6 l -2.8,0 c -0.5,0.5 -0.9,1.3 -1.2,2.4 -0.3,1.1 -0.5,2.2 -0.5,3.4 l 0,6.9 c 0,1.4 -0.3,2.5 -0.9,3.2 -0.6,0.7 -1.5,1 -2.8,1 -0.4,0 -0.8,0 -1.2,-0.1 l 0,-0.8 c 0.4,0.1 0.8,0.1 1.1,0.1 1,0 1.8,-0.3 2.2,-0.8 0.4,-0.5 0.6,-1.4 0.6,-2.6 l 0,-6.9 c 0,-1.2 0.2,-2.3 0.5,-3.4 0.3,-1.1 0.7,-1.9 1.2,-2.4 l -3.9,0 0,-0.8 7.5,0 c 2.5,0 4.3,0.5 5.4,1.6 z"
       class="st21" />
    <path
       style="fill:#ffffff"
       id="path984"
       d="m 1999.7,404.8 -2.6,0 0,-0.8 3.5,0 0,17.7 -0.9,0 0,-16.9 z"
       class="st21" />
    <path
       style="fill:#ffffff"
       id="path986"
       d="m 2017.5,404.5 -7.1,17.1 -1,0 7,-16.8 -11.3,0 0,-6.6 0.9,0 0,5.8 11.5,0 0,0.5 z"
       class="st21" />
    <path
       style="fill:#ffffff"
       id="path988"
       d="m 2023.1,404.8 -2.6,0 0,-0.8 3.5,0 0,17.7 -0.9,0 0,-16.9 z"
       class="st21" />
    <path
       style="fill:#ffffff"
       id="path990"
       d="m 2033,421 c -1.1,-0.7 -1.9,-1.6 -2.5,-2.8 -0.6,-1.2 -0.9,-2.6 -0.9,-4.2 l 0,-2.5 c 0,-1.4 0.3,-2.7 0.8,-3.9 0.5,-1.2 1.3,-2 2.3,-2.6 0.1,0 0.2,-0.1 0.3,-0.1 0.1,-0.1 0.2,-0.1 0.4,-0.1 l 0,-0.1 c -0.8,0.1 -2.2,0.4 -4.3,1 l -0.2,-0.8 c 1.2,-0.3 2.4,-0.6 3.8,-0.8 1.4,-0.2 2.6,-0.3 3.7,-0.3 1.4,0 2.7,0.3 3.8,1 1.1,0.6 2,1.5 2.6,2.7 0.6,1.2 0.9,2.5 0.9,4 l 0,2.5 c 0,1.6 -0.3,3 -0.9,4.2 -0.6,1.2 -1.4,2.1 -2.5,2.8 -1.1,0.7 -2.3,1 -3.7,1 -1.4,0 -2.5,-0.4 -3.6,-1 z m 6.9,-0.8 c 0.9,-0.6 1.6,-1.4 2.1,-2.5 0.5,-1.1 0.8,-2.3 0.8,-3.7 l 0,-2.5 c 0,-1.4 -0.3,-2.5 -0.8,-3.6 -0.5,-1 -1.3,-1.8 -2.3,-2.4 -1,-0.6 -2.1,-0.9 -3.4,-0.9 -1.1,0 -2.1,0.3 -3,0.9 -0.9,0.6 -1.5,1.4 -2,2.4 -0.5,1 -0.8,2.2 -0.8,3.6 l 0,2.5 c 0,1.4 0.3,2.6 0.8,3.7 0.5,1.1 1.2,1.9 2.1,2.5 0.9,0.6 2,0.9 3.2,0.9 1.3,0 2.4,-0.3 3.3,-0.9 z"
       class="st21" />
    <path
       style="fill:#ffffff"
       id="path992"
       d="m 2046.6,421.7 0.1,-0.8 c 0.5,0.2 1.3,0.2 2.2,0.2 1.9,0 2.9,-1.2 2.9,-3.5 l 0,-12.8 -4.3,0 0,-0.8 5.2,0 0,13.7 c 0,1.4 -0.3,2.5 -1,3.2 -0.6,0.7 -1.6,1 -2.9,1 -0.7,0 -1.5,0 -2.2,-0.2 z"
       class="st21" />
    <path
       style="fill:#ffffff"
       id="path994"
       d="m 2059.9,404.8 -2.6,0 0,-0.8 3.5,0 0,17.7 -0.9,0 0,-16.9 z"
       class="st21" />
    <path
       style="fill:#ffffff"
       id="path996"
       d="m 2071.9,420.8 c 1.1,-0.1 2.1,-0.3 3,-0.7 0.9,-0.4 1.5,-1 2,-1.8 0.5,-0.8 0.7,-1.6 0.7,-2.6 l 0,-10.9 -11.4,0 0,-0.8 12.3,0 0,11.7 c 0,1.2 -0.3,2.2 -0.8,3.1 -0.5,0.9 -1.3,1.6 -2.3,2.1 -1,0.5 -2.2,0.8 -3.6,0.8 l 0,-0.9 z m -5.2,-6.2 c 0,-0.8 0,-1.5 0.1,-2 0.1,-0.5 0.2,-1.1 0.4,-1.6 l 0.9,0 c -0.2,0.5 -0.3,1 -0.3,1.6 0,0.6 -0.1,1.3 -0.1,2.2 l 0,13.2 -0.9,0 0,-13.4 z"
       class="st21" />
    <path
       style="fill:#ffffff"
       id="path998"
       d="m 1975.9,448.4 c 0,-1.5 -0.2,-2.6 -0.6,-3.5 -0.4,-0.9 -1,-1.5 -1.9,-1.9 -0.9,-0.4 -2,-0.6 -3.5,-0.6 l -5.5,0 0,-0.8 5.4,0 c 2.4,0 4.1,0.6 5.2,1.7 1.1,1.1 1.7,2.8 1.7,5.2 l 0,10.8 -0.9,0 0,-10.9 z m -11.3,4.8 c 0,-0.8 0,-1.5 0.1,-2 0.1,-0.5 0.2,-1.1 0.4,-1.6 l 0.9,0 c -0.2,0.5 -0.3,1.1 -0.4,1.6 -0.1,0.6 -0.1,1.3 -0.1,2.2 l 0,5.9 -0.9,0 0,-6.1 z"
       class="st21" />
    <path
       style="fill:#ffffff"
       id="path1000"
       d="m 1993.5,442.1 -7.1,17.1 -1,0 7,-16.8 -11.3,0 0,-6.6 0.9,0 0,5.8 11.5,0 0,0.5 z"
       class="st21" />
    <path
       style="fill:#ffffff"
       id="path1002"
       d="m 1998,458.5 0.2,-0.8 c 1.7,0.5 3.2,0.8 4.6,0.8 1.3,0 2.4,-0.2 3.3,-0.7 0.9,-0.4 1.6,-1.1 2.1,-1.9 0.5,-0.8 0.7,-1.9 0.7,-3.1 l 0,-10.5 -8.8,0 c -0.5,0.7 -0.9,1.5 -1.2,2.6 -0.3,1.1 -0.5,2.2 -0.5,3.3 l 0,1.8 c 0.5,0.2 1,0.4 1.5,0.5 0.5,0.1 1.3,0.1 2.4,0.1 l 0,0.9 c -1.2,0 -2.2,-0.1 -2.8,-0.2 -0.6,-0.1 -1.3,-0.3 -2,-0.7 l 0,-2.4 c 0,-1.1 0.2,-2.1 0.5,-3.2 0.3,-1.1 0.7,-2 1.2,-2.6 l -1.8,0 0,-0.8 12.5,0 0,10.9 c 0,1.5 -0.3,2.8 -0.8,3.8 -0.6,1 -1.4,1.8 -2.4,2.4 -1.1,0.5 -2.3,0.8 -3.8,0.8 -1.5,0 -3.1,-0.4 -4.9,-1 z"
       class="st21" />
    <path
       style="fill:#ffffff"
       id="path1004"
       d="m 2013.8,459.3 0.1,-0.8 c 0.5,0.2 1.3,0.2 2.2,0.2 1.9,0 2.9,-1.2 2.9,-3.5 l 0,-12.8 -4.3,0 0,-0.8 5.2,0 0,13.7 c 0,1.4 -0.3,2.5 -1,3.2 -0.6,0.7 -1.6,1 -2.9,1 -0.8,0 -1.5,-0.1 -2.2,-0.2 z"
       class="st21" />
    <path
       style="fill:#ffffff"
       id="path1006"
       d="m 2023.1,459.2 0,-0.9 0.2,0 0.2,0 c 1.2,-0.1 2.2,-0.4 3.1,-0.9 0.9,-0.6 1.6,-1.3 2.1,-2.2 0.5,-0.9 0.8,-1.9 0.9,-3 l 0,-9.8 -4.1,0 0,-0.8 5,0 0,9.3 c 0,0.4 0,0.8 0.1,1.3 0.1,0.5 0.1,0.9 0.2,1.3 l 1.3,5.8 -1,0 -1,-5.4 -0.1,0 c -0.1,0.9 -0.4,1.8 -1,2.6 -0.6,0.9 -1.4,1.5 -2.4,2.1 -1,0.5 -2,0.8 -3.1,0.8 -0.3,-0.2 -0.3,-0.2 -0.4,-0.2 z"
       class="st21" />
    <path
       style="fill:#ffffff"
       id="path1008"
       d="m 2055.9,443.2 c 1.1,1.1 1.7,2.8 1.7,5.2 l 0,10.8 -0.9,0 0,-10.8 c 0,-1.5 -0.2,-2.6 -0.6,-3.5 -0.4,-0.9 -1,-1.5 -1.9,-1.9 -0.9,-0.4 -2,-0.6 -3.5,-0.6 l -2.8,0 c -0.5,0.5 -0.9,1.3 -1.2,2.4 -0.3,1.1 -0.5,2.2 -0.5,3.4 l 0,6.9 c 0,1.4 -0.3,2.5 -0.9,3.2 -0.6,0.7 -1.5,1 -2.8,1 -0.4,0 -0.8,0 -1.2,-0.1 l 0,-0.8 c 0.4,0.1 0.8,0.1 1.1,0.1 1,0 1.8,-0.3 2.2,-0.8 0.4,-0.5 0.6,-1.4 0.6,-2.6 l 0,-6.9 c 0,-1.2 0.2,-2.3 0.5,-3.4 0.3,-1.1 0.7,-1.9 1.2,-2.4 l -3.9,0 0,-0.8 7.5,0 c 2.5,-0.1 4.3,0.5 5.4,1.6 z"
       class="st21" />
    <path
       style="fill:#ffffff"
       id="path1010"
       d="m 2061.2,459.3 0.1,-0.8 c 0.5,0.2 1.3,0.2 2.2,0.2 1.9,0 2.9,-1.2 2.9,-3.5 l 0,-12.8 -4.3,0 0,-0.8 5.2,0 0,13.7 c 0,1.4 -0.3,2.5 -1,3.2 -0.6,0.7 -1.6,1 -2.9,1 -0.7,0 -1.5,-0.1 -2.2,-0.2 z"
       class="st21" />
    <path
       style="fill:#ffffff"
       id="path1012"
       d="m 2075,442.4 -3.7,0 0,-0.8 4.6,0 0,9.6 -0.9,0 0,-8.8 z"
       class="st21" />
    <path
       style="fill:#ffffff"
       id="path1014"
       d="m 2081.6,458.5 0.2,-0.8 c 1.7,0.5 3.2,0.8 4.6,0.8 1.3,0 2.4,-0.2 3.3,-0.7 0.9,-0.4 1.6,-1.1 2.1,-1.9 0.5,-0.8 0.7,-1.9 0.7,-3.1 l 0,-10.5 -8.8,0 c -0.5,0.7 -0.9,1.5 -1.2,2.6 -0.3,1.1 -0.5,2.2 -0.5,3.3 l 0,1.8 c 0.5,0.2 1,0.4 1.5,0.5 0.5,0.1 1.3,0.1 2.4,0.1 l 0,0.9 c -1.2,0 -2.2,-0.1 -2.8,-0.2 -0.6,-0.1 -1.3,-0.3 -2,-0.7 l 0,-2.4 c 0,-1.1 0.2,-2.1 0.5,-3.2 0.3,-1.1 0.7,-2 1.2,-2.6 l -1.8,0 0,-0.8 12.5,0 0,10.9 c 0,1.5 -0.3,2.8 -0.8,3.8 -0.6,1 -1.4,1.8 -2.4,2.4 -1.1,0.5 -2.3,0.8 -3.8,0.8 -1.5,0 -3.1,-0.4 -4.9,-1 z"
       class="st21" />
    <path
       style="fill:#ffffff"
       id="path1016"
       d="m 1992.5,479.9 -2.6,0 0,-0.8 3.5,0 0,17.7 -0.9,0 0,-16.9 z"
       class="st21" />
    <path
       style="fill:#ffffff"
       id="path1018"
       d="m 1996.6,496.8 0,-0.9 0.2,0 0.2,0 c 1.2,-0.1 2.2,-0.4 3.1,-0.9 0.9,-0.6 1.6,-1.3 2.1,-2.2 0.5,-0.9 0.8,-1.9 0.9,-3 l 0,-9.8 -4.1,0 0,-0.8 5,0 0,9.3 c 0,0.4 0,0.8 0.1,1.3 0.1,0.5 0.1,0.9 0.2,1.3 l 1.3,5.8 -1,0 -1,-5.4 -0.1,0 c -0.1,0.9 -0.4,1.8 -1,2.6 -0.6,0.9 -1.4,1.5 -2.4,2.1 -1,0.5 -2,0.8 -3.1,0.8 -0.3,-0.2 -0.4,-0.2 -0.4,-0.2 z"
       class="st21" />
    <path
       style="fill:#ffffff"
       id="path1020"
       d="m 2029.3,480.7 c 1.1,1.1 1.7,2.8 1.7,5.2 l 0,10.8 -0.9,0 0,-10.7 c 0,-1.5 -0.2,-2.6 -0.6,-3.5 -0.4,-0.9 -1,-1.5 -1.9,-1.9 -0.9,-0.4 -2,-0.6 -3.5,-0.6 l -2.8,0 c -0.5,0.5 -0.9,1.3 -1.2,2.4 -0.3,1.1 -0.5,2.2 -0.5,3.4 l 0,6.9 c 0,1.4 -0.3,2.5 -0.9,3.2 -0.6,0.7 -1.5,1 -2.8,1 -0.4,0 -0.8,0 -1.2,-0.1 l 0,-0.8 c 0.4,0.1 0.8,0.1 1.1,0.1 1,0 1.8,-0.3 2.2,-0.8 0.4,-0.5 0.6,-1.4 0.6,-2.6 l 0,-6.9 c 0,-1.2 0.2,-2.3 0.5,-3.4 0.3,-1.1 0.7,-1.9 1.2,-2.4 l -3.9,0 0,-0.8 7.5,0 c 2.6,-0.1 4.3,0.4 5.4,1.5 z"
       class="st21" />
    <path
       style="fill:#ffffff"
       id="path1022"
       d="m 2034.7,496.8 0.1,-0.8 c 0.5,0.2 1.3,0.2 2.2,0.2 1.9,0 2.9,-1.2 2.9,-3.5 l 0,-12.8 -4.3,0 0,-0.8 5.2,0 0,13.7 c 0,1.4 -0.3,2.5 -1,3.2 -0.6,0.7 -1.6,1 -2.9,1 -0.7,0.1 -1.5,0 -2.2,-0.2 z"
       class="st21" />
    <path
       style="fill:#ffffff"
       id="path1024"
       d="m 2048.4,479.9 -3.7,0 0,-0.8 4.6,0 0,9.6 -0.9,0 0,-8.8 z"
       class="st21" />
    <path
       style="fill:#ffffff"
       id="path1026"
       d="m 2055.1,496.1 0.2,-0.8 c 1.7,0.5 3.2,0.8 4.6,0.8 1.3,0 2.4,-0.2 3.3,-0.7 0.9,-0.4 1.6,-1.1 2.1,-1.9 0.5,-0.8 0.7,-1.9 0.7,-3.1 l 0,-10.5 -8.8,0 c -0.5,0.7 -0.9,1.5 -1.2,2.6 -0.3,1.1 -0.5,2.2 -0.5,3.3 l 0,1.8 c 0.5,0.2 1,0.4 1.5,0.5 0.5,0.1 1.3,0.1 2.4,0.1 l 0,0.9 c -1.2,0 -2.2,-0.1 -2.8,-0.2 -0.6,-0.1 -1.3,-0.3 -2,-0.7 l 0,-2.4 c 0,-1.1 0.2,-2.1 0.5,-3.2 0.3,-1.1 0.7,-2 1.2,-2.6 l -1.8,0 0,-0.8 12.5,0 0,10.8 c 0,1.5 -0.3,2.8 -0.8,3.8 -0.6,1 -1.4,1.8 -2.4,2.4 -1.1,0.5 -2.3,0.8 -3.8,0.8 -1.5,0 -3.1,-0.3 -4.9,-0.9 z"
       class="st21" />
    <path
       style="fill:#ffffff"
       id="path1028"
       d="m 1964.8,516.6 5.6,0 c 2.4,0 4.1,0.6 5.2,1.7 1.1,1.1 1.7,2.8 1.7,5.2 l 0,10.8 -0.9,0 0,-10.8 c 0,-1.5 -0.2,-2.6 -0.6,-3.5 -0.4,-0.9 -1,-1.5 -1.9,-1.9 -0.9,-0.4 -2,-0.6 -3.5,-0.6 l -4.7,0 0,16.8 -0.9,0 0,-17.7 z"
       class="st21" />
    <path
       style="fill:#ffffff"
       id="path1030"
       d="m 1984.2,517.5 -2.6,0 0,-0.8 3.5,0 0,17.7 -0.9,0 0,-16.9 z"
       class="st21" />
    <path
       style="fill:#ffffff"
       id="path1032"
       d="m 2001.9,517.2 -7.1,17.1 -1,0 7,-16.8 -11.3,0 0,-6.6 0.9,0 0,5.8 11.5,0 0,0.5 z"
       class="st21" />
    <path
       style="fill:#ffffff"
       id="path1034"
       d="m 2015.6,517.5 -3.7,0 0,-0.8 4.6,0 0,9.6 -0.9,0 0,-8.8 z"
       class="st21" />
    <path
       style="fill:#ffffff"
       id="path1036"
       d="m 2027.5,533.5 c 1.1,-0.1 2.1,-0.3 3,-0.7 0.9,-0.4 1.5,-1 2,-1.8 0.5,-0.8 0.7,-1.6 0.7,-2.6 l 0,-10.9 -11.4,0 0,-0.8 12.3,0 0,11.7 c 0,1.2 -0.3,2.2 -0.8,3.1 -0.5,0.9 -1.3,1.6 -2.3,2.1 -1,0.5 -2.2,0.8 -3.6,0.8 l 0,-0.9 z m -5.3,-6.3 c 0,-0.8 0,-1.5 0.1,-2 0.1,-0.5 0.2,-1.1 0.4,-1.6 l 0.9,0 c -0.2,0.5 -0.3,1 -0.3,1.6 0,0.6 -0.1,1.3 -0.1,2.2 l 0,13.3 -0.9,0 0,-13.5 z"
       class="st21" />
    <path
       style="fill:#ffffff"
       id="path1038"
       d="m 2040,516.6 5.6,0 c 2.4,0 4.1,0.6 5.2,1.7 1.1,1.1 1.7,2.8 1.7,5.2 l 0,10.8 -0.9,0 0,-10.8 c 0,-1.5 -0.2,-2.6 -0.6,-3.5 -0.4,-0.9 -1,-1.5 -1.9,-1.9 -0.9,-0.4 -2,-0.6 -3.5,-0.6 l -4.7,0 0,16.8 -0.9,0 0,-17.7 z"
       class="st21" />
    <path
       style="fill:#ffffff"
       id="path1040"
       d="m 2059,532.3 c 1.1,0.5 2.2,0.8 3.3,1.1 1.2,0.3 2.3,0.4 3.4,0.4 1.5,0 2.8,-0.2 4.1,-0.7 1.2,-0.4 2.2,-1.1 2.9,-2 0.7,-0.9 1.1,-1.9 1.1,-3.2 l 0,-11.3 0.9,0 0,11.3 c 0,1.5 -0.4,2.7 -1.2,3.7 -0.8,1 -1.9,1.7 -3.2,2.2 -1.3,0.5 -2.8,0.7 -4.5,0.7 -1.3,0 -2.6,-0.2 -3.9,-0.5 -1.3,-0.3 -2.6,-0.7 -3.8,-1.3 l 0,-16.2 0.9,0 0,15.8 z m 6.5,-3.6 c 0.3,-0.7 0.4,-1.5 0.4,-2.5 l 0,-9.6 0.9,0 0,9.6 c 0,1 -0.1,1.8 -0.4,2.5 -0.3,0.7 -0.7,1.3 -1.4,1.8 l -0.8,-0.2 c 0.6,-0.4 1,-0.9 1.3,-1.6 z"
       class="st21" />
    <path
       style="fill:#ffffff"
       id="path1042"
       d="m 2081.9,521.8 c 0.1,-0.9 0.4,-1.7 0.8,-2.4 0.4,-0.7 0.9,-1.3 1.5,-1.6 0.1,0 0.2,-0.1 0.5,-0.2 l 0,-0.1 c -0.6,0.1 -1.2,0.2 -1.9,0.4 -0.7,0.2 -1.6,0.4 -2.6,0.8 l -0.3,-0.8 c 1.2,-0.4 2.4,-0.7 3.8,-0.9 1.4,-0.2 2.6,-0.4 3.6,-0.4 2.1,0 3.7,0.6 4.8,1.7 1.1,1.2 1.7,2.9 1.7,5.1 l 0,11.1 -6.8,0 0,-0.8 5.9,0 0,-10.2 c 0,-2 -0.5,-3.5 -1.4,-4.4 -0.9,-1 -2.3,-1.5 -4.2,-1.5 -0.8,0 -1.5,0.2 -2.1,0.6 -0.6,0.4 -1.1,0.9 -1.6,1.6 -0.4,0.7 -0.7,1.5 -0.8,2.4 l -1.6,12.5 -0.9,0 1.6,-12.9 z"
       class="st21" />
  </g>
</svg>
