<?xml version="1.0" encoding="UTF-8" standalone="no"?>
<svg
   xmlns:dc="http://purl.org/dc/elements/1.1/"
   xmlns:cc="http://creativecommons.org/ns#"
   xmlns:rdf="http://www.w3.org/1999/02/22-rdf-syntax-ns#"
   xmlns:svg="http://www.w3.org/2000/svg"
   xmlns="http://www.w3.org/2000/svg"
   version="1.1"
   id="svg5839"
   viewBox="0 0 2230.0624 1164.2634"
   height="328.58099mm"
   width="629.37317mm">
  <defs
     id="defs5841" />
  <metadata
     id="metadata5844">
    <rdf:RDF>
      <cc:Work
         rdf:about="">
        <dc:format>image/svg+xml</dc:format>
        <dc:type
           rdf:resource="http://purl.org/dc/dcmitype/StillImage" />
        <dc:title></dc:title>
      </cc:Work>
    </rdf:RDF>
  </metadata>
  <g
     transform="translate(755.03122,28.340845)"
     id="layer1">
    <g
       id="maps_1_"
       transform="translate(-771.92175,-1205.2413)">
      <g
         id="layer1_2_"
         transform="translate(-133.01366,-313.26645)">
        <polygon
           id="polygon3_2_"
           class="st1"
           points="1183.1,2500.4 837.6,2339.9 993.6,2230 639.9,2057 461.4,2150.1 185.6,1984.8 803.2,1694.9 1233.1,1882.8 1384.5,1792.7 1520.2,1728.1 1445.8,1692.1 1586.3,1624.6 2042.6,1820.3 2105.1,1802.5 2324,1913.7 2215.6,1969.3 2099.9,1916.5 1644.8,2150.1 1484.8,2342.1 1535.1,2385.4 1440.1,2453.2 1520.2,2510.9 1363.4,2590.1 1160.4,2506.1 "
           style="fill:#bbbade" />
        <polygon
           id="polygon5_2_"
           class="st7"
           points="782.5,2019.7 641.6,1940.9 756,1874.3 837.6,1901.5 1002.9,1981.1 889.3,2067.2 "
           style="fill:#ee2148" />
        <polygon
           id="polygon7_2_"
           class="st8"
           points="1904.6,1810.5 1565.2,1660.3 1565.2,1705 1904.6,1853.2 "
           style="opacity:1;fill:#ffffff;enable-background:new" />
        <polygon
           id="polygon9_2_"
           class="st9"
           points="1904.6,1810.5 1565.2,1660.3 1565.2,1705 1904.6,1853.2 "
           style="fill:none;stroke:#1a1631;stroke-width:0.23999999" />
        <polygon
           id="polygon11_2_"
           class="st8"
           points="808,2095.2 826.6,2084.6 826.6,2128.5 808,2135.4 "
           style="opacity:1;fill:#ffffff;enable-background:new" />
        <polygon
           id="polygon13_2_"
           class="st9"
           points="808,2095.2 826.6,2084.6 826.6,2128.5 808,2135.4 "
           style="fill:none;stroke:#1a1631;stroke-width:0.23999999" />
        <polygon
           id="polygon15_2_"
           class="st8"
           points="1022,1961.2 757.7,1840.6 757.7,1885.3 1022,2006.7 "
           style="opacity:1;fill:#ffffff;enable-background:new" />
        <polygon
           id="polygon17_2_"
           class="st9"
           points="1022,1961.2 757.7,1840.6 757.7,1885.3 1022,2006.7 "
           style="fill:none;stroke:#1a1631;stroke-width:0.23999999" />
        <polygon
           id="polygon19_2_"
           class="st8"
           points="812.9,1700.5 1233.1,1884.4 1233.1,1843.9 811.2,1666 "
           style="opacity:1;fill:#ffffff;enable-background:new" />
        <polygon
           id="polygon21_2_"
           class="st9"
           points="812.9,1700.5 1233.1,1884.4 1233.1,1843.9 811.2,1666 "
           style="fill:none;stroke:#1a1631;stroke-width:0.23999999" />
        <polygon
           id="polygon23_2_"
           class="st8"
           points="1022.3,2006.7 1022.3,1960.9 868.2,2048.6 909,2069.2 "
           style="opacity:1;fill:#ffffff;enable-background:new" />
        <polygon
           id="polygon25_2_"
           class="st9"
           points="1022.3,2006.7 1022.3,1960.9 868.2,2048.6 909,2069.2 "
           style="fill:none;stroke:#1a1631;stroke-width:0.23999999" />
        <polygon
           id="polygon27_2_"
           class="st8"
           points="2046,1795.6 1654.9,1621.8 1654.9,1660.3 2046,1832.1 "
           style="opacity:1;fill:#ffffff;enable-background:new" />
        <polygon
           id="polygon29_2_"
           class="st9"
           points="2046,1795.6 1654.9,1621.8 1654.9,1660.3 2046,1832.1 "
           style="fill:none;stroke:#1a1631;stroke-width:0.23999999" />
        <polygon
           id="polygon31_2_"
           class="st8"
           points="461.4,2096.4 185.6,1927.5 185.6,1984.8 461.4,2150.1 "
           style="opacity:1;fill:#ffffff;enable-background:new" />
        <polygon
           id="polygon33_2_"
           class="st9"
           points="461.4,2096.4 185.6,1927.5 185.6,1984.8 461.4,2150.1 "
           style="fill:none;stroke:#1a1631;stroke-width:0.23999999" />
        <polygon
           id="polygon35_2_"
           class="st8"
           points="993.6,2230 639.9,2057 639.9,2011.2 993.1,2186.6 "
           style="opacity:1;fill:#ffffff;enable-background:new" />
        <polygon
           id="polygon37_2_"
           class="st9"
           points="993.6,2230 639.9,2057 639.9,2011.2 993.1,2186.6 "
           style="fill:none;stroke:#1a1631;stroke-width:0.23999999" />
        <polygon
           id="polygon39_2_"
           class="st8"
           points="882.3,1941.7 882.3,1899.9 741.4,1978.3 782.5,1998.6 "
           style="opacity:1;fill:#ffffff;enable-background:new" />
        <polygon
           id="polygon41_2_"
           class="st9"
           points="882.3,1941.7 882.3,1899.9 741.4,1978.3 782.5,1998.6 "
           style="fill:none;stroke:#1a1631;stroke-width:0.23999999" />
        <path
           id="path43_2_"
           class="st8"
           d="m 1075.5,2450.4 108,50 15.4,-29.6 -123.4,-58.5 0,38.1 z m -134.7,-101.5 -103.2,-48.7 0,39.9 103.2,47.8 0,-39 z"
           style="opacity:1;fill:#ffffff;enable-background:new" />
        <path
           id="path45_2_"
           class="st9"
           d="m 1075.5,2450.4 108,50 15.4,-29.6 -123.4,-58.5 0,38.1 z m -134.7,-101.5 -103.2,-48.7 0,39.9 103.2,47.8 0,-39 z"
           style="fill:none;stroke:#1a1631;stroke-width:0.23999999" />
        <polygon
           id="polygon47_2_"
           class="st8"
           points="1535.1,2491.1 1412.2,2435.5 1413.4,2470.3 1535.1,2529.1 "
           style="opacity:1;fill:#ffffff;enable-background:new" />
        <polygon
           id="polygon49_2_"
           class="st9"
           points="1535.1,2491.1 1412.2,2435.5 1413.4,2470.3 1535.1,2529.1 "
           style="fill:none;stroke:#1a1631;stroke-width:0.23999999" />
        <polygon
           id="polygon51_2_"
           class="st8"
           points="1557.4,2362.7 1473.5,2320.2 1474.2,2363.5 1557.4,2405.7 "
           style="opacity:1;fill:#ffffff;enable-background:new" />
        <polygon
           id="polygon53_2_"
           class="st9"
           points="1557.4,2362.7 1473.5,2320.2 1474.2,2363.5 1557.4,2405.7 "
           style="fill:none;stroke:#1a1631;stroke-width:0.23999999" />
        <polygon
           id="polygon55_2_"
           class="st10"
           points="2344.3,1894.2 2103.1,1771.6 2103.1,1802.9 2317.9,1912.5 "
           style="opacity:1;fill:#ffffff;enable-background:new" />
        <polygon
           id="polygon57_2_"
           class="st9"
           points="2344.3,1894.2 2103.1,1771.6 2103.1,1802.9 2317.9,1912.5 "
           style="fill:none;stroke:#1a1631;stroke-width:0.23999999" />
        <polygon
           id="polygon59_2_"
           class="st8"
           points="2215.6,1951.4 2116.1,1901.9 2116.1,1938.4 2215.6,1989.3 "
           style="opacity:1;fill:#ffffff;enable-background:new" />
        <polygon
           id="polygon61_2_"
           class="st9"
           points="2215.6,1951.4 2116.1,1901.9 2116.1,1938.4 2215.6,1989.3 "
           style="fill:none;stroke:#1a1631;stroke-width:0.23999999" />
        <polygon
           id="polygon63_2_"
           class="st8"
           points="1044.3,2124.8 589.3,1899.1 589.3,1944.6 1044.3,2166.7 "
           style="opacity:1;fill:#ffffff;enable-background:new" />
        <polygon
           id="polygon65_2_"
           class="st9"
           points="1044.3,2124.8 589.3,1899.1 589.3,1944.6 1044.3,2166.7 "
           style="fill:none;stroke:#1a1631;stroke-width:0.23999999" />
        <polygon
           id="polygon67_2_"
           class="st8"
           points="993.6,2230 993.1,2186.6 837.6,2300.2 872.2,2315.7 "
           style="opacity:1;fill:#ffffff;enable-background:new" />
        <polygon
           id="polygon69_2_"
           class="st9"
           points="993.6,2230 993.1,2186.6 837.6,2300.2 872.2,2315.7 "
           style="fill:none;stroke:#1a1631;stroke-width:0.23999999" />
        <polygon
           id="polygon71_2_"
           class="st8"
           points="1250.1,2469.2 1250.1,2421.7 1151.4,2481.3 1151.4,2519.8 "
           style="opacity:1;fill:#ffffff;enable-background:new" />
        <polygon
           id="polygon73_2_"
           class="st9"
           points="1250.1,2469.2 1250.1,2421.7 1151.4,2481.3 1151.4,2519.8 "
           style="fill:none;stroke:#1a1631;stroke-width:0.23999999" />
        <polygon
           id="polygon75_2_"
           class="st8"
           points="1343.4,2577.1 1151.4,2482.1 1151.4,2519.5 1343.4,2618.8 "
           style="opacity:1;fill:#ffffff;enable-background:new" />
        <polygon
           id="polygon77_2_"
           class="st9"
           points="1343.4,2577.1 1151.4,2482.1 1151.4,2519.5 1343.4,2618.8 "
           style="fill:none;stroke:#1a1631;stroke-width:0.23999999" />
        <polygon
           id="polygon79_2_"
           class="st8"
           points="1343.4,2618.8 1343.4,2577.1 1535.1,2491.1 1535.1,2529.1 "
           style="opacity:1;fill:#ffffff;enable-background:new" />
        <polygon
           id="polygon81_2_"
           class="st9"
           points="1343.4,2618.8 1343.4,2577.1 1535.1,2491.1 1535.1,2529.1 "
           style="fill:none;stroke:#1a1631;stroke-width:0.23999999" />
        <polygon
           id="polygon83_2_"
           class="st8"
           points="1451.1,2453.2 1411.7,2435.5 1557.4,2362.7 1557.4,2405.7 "
           style="opacity:1;fill:#ffffff;enable-background:new" />
        <polygon
           id="polygon85_2_"
           class="st9"
           points="1451.1,2453.2 1411.7,2435.5 1557.4,2362.7 1557.4,2405.7 "
           style="fill:none;stroke:#1a1631;stroke-width:0.23999999" />
        <polygon
           id="polygon87_2_"
           class="st8"
           points="1501.4,2334.3 1473.5,2320.2 1656.6,2114.7 2116.1,1901.9 2116.1,1938.4 1671.5,2154.9 "
           style="opacity:1;fill:#ffffff;enable-background:new" />
        <polygon
           id="polygon89_2_"
           class="st9"
           points="1501.4,2334.3 1473.5,2320.2 1656.6,2114.7 2116.1,1901.9 2116.1,1938.4 1671.5,2154.9 "
           style="fill:none;stroke:#1a1631;stroke-width:0.23999999" />
        <polygon
           id="polygon91_2_"
           class="st8"
           points="1504.2,2184.1 1502.7,2140.3 1568.9,2066.3 1987,1871.1 1987,1908.4 1583.5,2106.2 "
           style="opacity:1;fill:#ffffff;enable-background:new" />
        <polygon
           id="polygon93_2_"
           class="st9"
           points="1504.2,2184.1 1502.7,2140.3 1568.9,2066.3 1987,1871.1 1987,1908.4 1583.5,2106.2 "
           style="fill:none;stroke:#1a1631;stroke-width:0.23999999" />
        <polygon
           id="polygon95_2_"
           class="st8"
           points="2214.7,1990.4 2214.7,1952.7 2342.6,1892.2 2342.6,1930.3 "
           style="opacity:1;fill:#ffffff;enable-background:new" />
        <polygon
           id="polygon97_2_"
           class="st9"
           points="2214.7,1990.4 2214.7,1952.7 2342.6,1892.2 2342.6,1930.3 "
           style="fill:none;stroke:#1a1631;stroke-width:0.23999999" />
        <polygon
           id="polygon99_2_"
           class="st8"
           points="2069,1821.5 2069,1784.9 2046,1796.4 2046,1832.1 "
           style="opacity:1;fill:#ffffff;enable-background:new" />
        <polygon
           id="polygon101_2_"
           class="st9"
           points="2069,1821.5 2069,1784.9 2046,1796.4 2046,1832.1 "
           style="fill:none;stroke:#1a1631;stroke-width:0.23999999" />
        <polygon
           id="polygon103_2_"
           class="st8"
           points="1353.2,1762.7 1516,1689.2 1520.2,1733.8 1368.4,1808.2 1233.1,1882.8 1233.1,1843.9 "
           style="opacity:1;fill:#ffffff;enable-background:new" />
        <polygon
           id="polygon105_2_"
           class="st9"
           points="1353.2,1762.7 1516,1689.2 1520.2,1733.8 1368.4,1808.2 1233.1,1882.8 1233.1,1843.9 "
           style="fill:none;stroke:#1a1631;stroke-width:0.23999999" />
        <polygon
           id="polygon107_2_"
           class="st8"
           points="812.9,1700.5 811.2,1666 185.6,1927.5 239.3,1960.4 "
           style="opacity:1;fill:#ffffff;enable-background:new" />
        <polygon
           id="polygon109_2_"
           class="st9"
           points="812.9,1700.5 811.2,1666 185.6,1927.5 239.3,1960.4 "
           style="fill:none;stroke:#1a1631;stroke-width:0.23999999" />
        <polygon
           id="polygon111_2_"
           class="st8"
           points="639.9,2057 639.9,2011.2 461.4,2096.4 461.4,2150.1 "
           style="opacity:1;fill:#ffffff;enable-background:new" />
        <polygon
           id="polygon113_2_"
           class="st9"
           points="639.9,2057 639.9,2011.2 461.4,2096.4 461.4,2150.1 "
           style="fill:none;stroke:#1a1631;stroke-width:0.23999999" />
        <polygon
           id="polygon115_2_"
           class="st8"
           points="663.5,1935.6 623.7,1915.7 758,1841.4 758,1887.3 "
           style="opacity:1;fill:#ffffff;enable-background:new" />
        <polygon
           id="polygon117_2_"
           class="st9"
           points="663.5,1935.6 623.7,1915.7 758,1841.4 758,1887.3 "
           style="fill:none;stroke:#1a1631;stroke-width:0.23999999" />
        <polygon
           id="polygon119_2_"
           class="st8"
           points="861.2,2052.2 879.8,2041.3 879.8,2085.1 861.2,2098.1 "
           style="opacity:1;fill:#ffffff;enable-background:new" />
        <polygon
           id="polygon121_2_"
           class="st9"
           points="861.2,2052.2 879.8,2041.3 879.8,2085.1 861.2,2098.1 "
           style="fill:none;stroke:#1a1631;stroke-width:0.23999999" />
        <polygon
           id="polygon123_2_"
           class="st8"
           points="1244.9,2103.7 1246.4,2064.7 1204.2,2038.8 1044.3,2124.8 1044.3,2166.7 1204.2,2080.6 "
           style="opacity:1;fill:#ffffff;enable-background:new" />
        <polygon
           id="polygon125_2_"
           class="st9"
           points="1244.9,2103.7 1246.4,2064.7 1204.2,2038.8 1044.3,2124.8 1044.3,2166.7 1204.2,2080.6 "
           style="fill:none;stroke:#1a1631;stroke-width:0.23999999" />
        <polygon
           id="polygon127_2_"
           class="st8"
           points="1592.8,1948.2 1354.4,1836.9 1331,1847.9 1571.7,1951.9 "
           style="opacity:1;fill:#ffffff;enable-background:new" />
        <polygon
           id="polygon129_2_"
           class="st11"
           points="1592.8,1948.2 1354.4,1836.9 1331,1847.9 1571.7,1951.9 "
           style="fill:none;stroke:#1a1631;stroke-width:0.47999999" />
        <path
           id="path139_2_"
           class="st8"
           d="m 1326.8,1836.8 -23.9,9.8 250.5,113.3 18.3,-8.1 c 1.1,1.6 -244.9,-115 -244.9,-115"
           style="opacity:1;fill:#ffffff;enable-background:new" />
        <path
           id="path141_2_"
           class="st11"
           d="m 1326.8,1836.8 -23.9,9.8 250.5,113.3 18.3,-8.1 c 1.1,1.6 -244.9,-115 -244.9,-115 l 0,0 z"
           style="fill:none;stroke:#1a1631;stroke-width:0.47999999" />
        <polygon
           id="polygon143_2_"
           class="st8"
           points="1530.3,1942.6 1296.8,1836.9 1263.2,1853.2 1509.6,1962 "
           style="opacity:1;fill:#ffffff;enable-background:new" />
        <polygon
           id="polygon145_2_"
           class="st11"
           points="1530.3,1942.6 1296.8,1836.9 1263.2,1853.2 1509.6,1962 "
           style="fill:none;stroke:#1a1631;stroke-width:0.47999999" />
        <polygon
           id="polygon147_2_"
           class="st8"
           points="1509.6,1951.9 1266,1836.9 1242.8,1847.9 1491,1960 "
           style="opacity:1;fill:#ffffff;enable-background:new" />
        <polygon
           id="polygon149_2_"
           class="st11"
           points="1509.6,1951.9 1266,1836.9 1242.8,1847.9 1491,1960 "
           style="fill:none;stroke:#1a1631;stroke-width:0.47999999" />
        <polygon
           id="polygon151_2_"
           class="st8"
           points="1471.4,1942.6 1238,1838.6 1140.4,1884.4 1376.3,1983.1 "
           style="opacity:1;fill:#ffffff;enable-background:new" />
        <polygon
           id="polygon153_2_"
           class="st11"
           points="1471.4,1942.6 1238,1838.6 1140.4,1884.4 1376.3,1983.1 "
           style="fill:none;stroke:#1a1631;stroke-width:0.47999999" />
        <polygon
           id="polygon155_2_"
           class="st8"
           points="1397.9,1980.6 1153.1,1870.3 1134.8,1877.6 1379.3,1988.8 "
           style="opacity:1;fill:#ffffff;enable-background:new" />
        <polygon
           id="polygon157_2_"
           class="st11"
           points="1397.9,1980.6 1153.1,1870.3 1134.8,1877.6 1379.3,1988.8 "
           style="fill:none;stroke:#1a1631;stroke-width:0.47999999" />
        <polygon
           id="polygon159_2_"
           class="st8"
           points="1356.9,1977.5 1122.7,1869.5 1102.4,1879.6 1335.8,1981.1 "
           style="opacity:1;fill:#ffffff;enable-background:new" />
        <polygon
           id="polygon161_2_"
           class="st11"
           points="1356.9,1977.5 1122.7,1869.5 1102.4,1879.6 1335.8,1981.1 "
           style="fill:none;stroke:#1a1631;stroke-width:0.47999999" />
        <polygon
           id="polygon163_2_"
           class="st8"
           points="1335.8,1981.1 1091.4,1869.5 1072.7,1878.5 1317.5,1989.3 "
           style="opacity:1;fill:#ffffff;enable-background:new" />
        <polygon
           id="polygon165_2_"
           class="st11"
           points="1335.8,1981.1 1091.4,1869.5 1072.7,1878.5 1317.5,1989.3 "
           style="fill:none;stroke:#1a1631;stroke-width:0.47999999" />
        <polygon
           id="polygon167_2_"
           class="st8"
           points="1294.4,1971.8 1062.2,1869.5 1032.1,1880.8 1273.3,1991.3 "
           style="opacity:1;fill:#ffffff;enable-background:new" />
        <polygon
           id="polygon169_2_"
           class="st11"
           points="1294.4,1971.8 1062.2,1869.5 1032.1,1880.8 1273.3,1991.3 "
           style="fill:none;stroke:#1a1631;stroke-width:0.47999999" />
        <polygon
           id="polygon171_2_"
           class="st8"
           points="1273.3,1981.1 1028.5,1870.7 1010.5,1878.5 1255.1,1989.3 "
           style="opacity:1;fill:#ffffff;enable-background:new" />
        <polygon
           id="polygon173_2_"
           class="st11"
           points="1273.3,1981.1 1028.5,1870.7 1010.5,1878.5 1255.1,1989.3 "
           style="fill:none;stroke:#1a1631;stroke-width:0.47999999" />
        <polygon
           id="polygon175_2_"
           class="st8"
           points="1471.4,1930 1374.8,1971.3 1251.4,1961.2 1244.9,2103.7 1592.8,1948.2 "
           style="opacity:1;fill:#ffffff;enable-background:new" />
        <polygon
           id="polygon177_2_"
           class="st9"
           points="1471.4,1930 1374.8,1971.3 1251.4,1961.2 1244.9,2103.7 1592.8,1948.2 "
           style="fill:none;stroke:#1a1631;stroke-width:0.23999999" />
        <polygon
           id="polygon179_2_"
           class="st8"
           points="406.9,1809.4 407.7,1789.1 483.3,1826.5 483.3,1845.6 "
           style="opacity:1;fill:#ffffff;enable-background:new" />
        <polygon
           id="polygon181_2_"
           class="st9"
           points="406.9,1809.4 407.7,1789.1 483.3,1826.5 483.3,1845.6 "
           style="fill:none;stroke:#1a1631;stroke-width:0.23999999" />
        <polygon
           id="polygon183_2_"
           class="st8"
           points="407.7,1789.1 429.6,1780.6 502.2,1820.8 489.8,1829.3 "
           style="opacity:1;fill:#ffffff;enable-background:new" />
        <polygon
           id="polygon185_2_"
           class="st9"
           points="407.7,1789.1 429.6,1780.6 502.2,1820.8 489.8,1829.3 "
           style="fill:none;stroke:#1a1631;stroke-width:0.23999999" />
        <polygon
           id="polygon187_2_"
           class="st8"
           points="422.6,1783.4 422.6,1765.5 505.2,1803.2 502.2,1820.8 "
           style="opacity:1;fill:#ffffff;enable-background:new" />
        <polygon
           id="polygon189_2_"
           class="st9"
           points="422.6,1783.4 422.6,1765.5 505.2,1803.2 502.2,1820.8 "
           style="fill:none;stroke:#1a1631;stroke-width:0.23999999" />
        <polygon
           id="polygon191_2_"
           class="st8"
           points="422.6,1765.5 444.6,1757.4 521.8,1793.6 505.2,1803.2 "
           style="opacity:1;fill:#ffffff;enable-background:new" />
        <polygon
           id="polygon193_2_"
           class="st9"
           points="422.6,1765.5 444.6,1757.4 521.8,1793.6 505.2,1803.2 "
           style="fill:none;stroke:#1a1631;stroke-width:0.23999999" />
        <polygon
           id="polygon195_2_"
           class="st8"
           points="444.6,1757.4 444.6,1740.7 521.3,1774.5 521.3,1793.6 "
           style="opacity:1;fill:#ffffff;enable-background:new" />
        <polygon
           id="polygon197_2_"
           class="st9"
           points="444.6,1757.4 444.6,1740.7 521.3,1774.5 521.3,1793.6 "
           style="fill:none;stroke:#1a1631;stroke-width:0.23999999" />
        <polygon
           id="polygon199_2_"
           class="st8"
           points="327.3,1891.7 350.1,1880.8 428.5,1920.7 410.2,1930 "
           style="opacity:1;fill:#ffffff;enable-background:new" />
        <polygon
           id="polygon201_2_"
           class="st9"
           points="327.3,1891.7 350.1,1880.8 428.5,1920.7 410.2,1930 "
           style="fill:none;stroke:#1a1631;stroke-width:0.23999999" />
        <polygon
           id="polygon203_2_"
           class="st8"
           points="343.1,1884.1 343.1,1865.8 428.5,1905.5 428.5,1921.5 "
           style="opacity:1;fill:#ffffff;enable-background:new" />
        <polygon
           id="polygon205_2_"
           class="st9"
           points="343.1,1884.1 343.1,1865.8 428.5,1905.5 428.5,1921.5 "
           style="fill:none;stroke:#1a1631;stroke-width:0.23999999" />
        <polygon
           id="polygon207_2_"
           class="st8"
           points="343.1,1865.8 365,1857.7 444.2,1897.4 428.8,1905.2 "
           style="opacity:1;fill:#ffffff;enable-background:new" />
        <polygon
           id="polygon209_2_"
           class="st9"
           points="343.1,1865.8 365,1857.7 444.2,1897.4 428.8,1905.2 "
           style="fill:none;stroke:#1a1631;stroke-width:0.23999999" />
        <polygon
           id="polygon211_2_"
           class="st8"
           points="365,1857.7 365.8,1841.9 444.2,1880.5 444.2,1897.4 "
           style="opacity:1;fill:#ffffff;enable-background:new" />
        <polygon
           id="polygon213_2_"
           class="st9"
           points="365,1857.7 365.8,1841.9 444.2,1880.5 444.2,1897.4 "
           style="fill:none;stroke:#1a1631;stroke-width:0.23999999" />
        <polygon
           id="polygon215_2_"
           class="st8"
           points="305.4,1934.4 305.4,1916.5 387.8,1954.4 384.9,1971.8 "
           style="opacity:1;fill:#ffffff;enable-background:new" />
        <polygon
           id="polygon217_2_"
           class="st9"
           points="305.4,1934.4 305.4,1916.5 387.8,1954.4 384.9,1971.8 "
           style="fill:none;stroke:#1a1631;stroke-width:0.23999999" />
        <polygon
           id="polygon219_2_"
           class="st8"
           points="305.4,1916.5 327.3,1908.4 404.4,1944.6 387.8,1954.4 "
           style="opacity:1;fill:#ffffff;enable-background:new" />
        <polygon
           id="polygon221_2_"
           class="st9"
           points="305.4,1916.5 327.3,1908.4 404.4,1944.6 387.8,1954.4 "
           style="fill:none;stroke:#1a1631;stroke-width:0.23999999" />
        <polygon
           id="polygon223_2_"
           class="st8"
           points="327.3,1908.4 327.3,1891.7 404.4,1925.5 404.4,1944.6 "
           style="opacity:1;fill:#ffffff;enable-background:new" />
        <polygon
           id="polygon225_2_"
           class="st9"
           points="327.3,1908.4 327.3,1891.7 404.4,1925.5 404.4,1944.6 "
           style="fill:none;stroke:#1a1631;stroke-width:0.23999999" />
        <polygon
           id="polygon227_2_"
           class="st8"
           points="365.8,1842.2 387.8,1833.3 464.2,1871.5 444.6,1880.8 "
           style="opacity:1;fill:#ffffff;enable-background:new" />
        <polygon
           id="polygon229_2_"
           class="st9"
           points="365.8,1842.2 387.8,1833.3 464.2,1871.5 444.6,1880.8 "
           style="fill:none;stroke:#1a1631;stroke-width:0.23999999" />
        <polygon
           id="polygon231_2_"
           class="st8"
           points="384.9,1835.4 384.9,1817.5 464.5,1853.5 464.5,1872.3 "
           style="opacity:1;fill:#ffffff;enable-background:new" />
        <polygon
           id="polygon233_2_"
           class="st9"
           points="384.9,1835.4 384.9,1817.5 464.5,1853.5 464.5,1872.3 "
           style="fill:none;stroke:#1a1631;stroke-width:0.23999999" />
        <polygon
           id="polygon235_2_"
           class="st8"
           points="384.9,1817.5 406.9,1809.4 482.8,1845.1 464.5,1854 "
           style="opacity:1;fill:#ffffff;enable-background:new" />
        <polygon
           id="polygon237_2_"
           class="st9"
           points="384.9,1817.5 406.9,1809.4 482.8,1845.1 464.5,1854 "
           style="fill:none;stroke:#1a1631;stroke-width:0.23999999" />
        <polygon
           id="polygon239_2_"
           class="st8"
           points="589.3,1944.6 589.3,1899.1 461.4,1910.5 383.3,1935.6 383.3,1983.1 461.4,1954.4 "
           style="opacity:1;fill:#ffffff;enable-background:new" />
        <polygon
           id="polygon241_2_"
           class="st9"
           points="589.3,1944.6 589.3,1899.1 461.4,1910.5 383.3,1935.6 383.3,1983.1 461.4,1954.4 "
           style="fill:none;stroke:#1a1631;stroke-width:0.23999999" />
        <polygon
           id="polygon243_2_"
           class="st1"
           points="933.5,1711.2 695.1,1619 404.4,1725 444.6,1740.7 521.3,1774.5 442.3,1817.2 504.7,1849.2 592.1,1891.4 "
           style="fill:#bbbade" />
        <path
           id="path253_2_"
           class="st7"
           d="m 482,1687.1 c 0,0 63,32.6 65,32.6 2,0 50.3,-13 50.3,-13 l 53.2,-30.4 122.3,49.5 70.3,31.2 65,-48.7 -14.3,-29.2 c 0,0 -213.6,-73.9 -215.6,-73.9 C 676,1605 482,1687.1 482,1687.1"
           style="fill:#ee2148" />
        <polygon
           id="polygon255_2_"
           class="st8"
           points="693.9,1619.8 693.9,1579.6 404.4,1687.1 404.4,1725.3 "
           style="opacity:1;fill:#ffffff;enable-background:new" />
        <polygon
           id="polygon257_2_"
           class="st9"
           points="693.9,1619.8 693.9,1579.6 404.4,1687.1 404.4,1725.3 "
           style="fill:none;stroke:#1a1631;stroke-width:0.23999999" />
        <polygon
           id="polygon259_2_"
           class="st8"
           points="936.8,1675.8 693.9,1579.1 693.9,1619.8 889.6,1699.4 "
           style="opacity:1;fill:#ffffff;enable-background:new" />
        <polygon
           id="polygon261_2_"
           class="st9"
           points="936.8,1675.8 693.9,1579.1 693.9,1619.8 889.6,1699.4 "
           style="fill:none;stroke:#1a1631;stroke-width:0.23999999" />
        <polygon
           id="polygon263_2_"
           class="st8"
           points="832.3,1728.1 601.4,1614.8 601.4,1653.9 832.3,1772.5 "
           style="opacity:1;fill:#ffffff;enable-background:new" />
        <polygon
           id="polygon265_2_"
           class="st9"
           points="832.3,1728.1 601.4,1614.8 601.4,1653.9 832.3,1772.5 "
           style="fill:none;stroke:#1a1631;stroke-width:0.23999999" />
        <polygon
           id="polygon267_2_"
           class="st8"
           points="592.1,1891.4 594.4,1849.2 936.8,1675.8 933.8,1719.6 "
           style="opacity:1;fill:#ffffff;enable-background:new" />
        <polygon
           id="polygon269_2_"
           class="st9"
           points="592.1,1891.4 594.4,1849.2 936.8,1675.8 933.8,1719.6 "
           style="fill:none;stroke:#1a1631;stroke-width:0.23999999" />
        <polygon
           id="polygon271_2_"
           class="st12"
           points="523.8,1798.9 516.5,1794.4 494.9,1823.1 551.1,1809.9 540.1,1806.2 562.9,1793.6 546.1,1784.9 "
           style="fill:#f58020" />
        <polygon
           id="polygon273_2_"
           class="st8"
           points="555.9,1701 474.6,1661.5 474.6,1698.6 555.9,1741.6 "
           style="opacity:1;fill:#ffffff;enable-background:new" />
        <polygon
           id="polygon275_2_"
           class="st9"
           points="555.9,1701 474.6,1661.5 474.6,1698.6 555.9,1741.6 "
           style="fill:none;stroke:#1a1631;stroke-width:0.23999999" />
        <polygon
           id="polygon277_2_"
           class="st8"
           points="726.8,1718 711.4,1710.3 711.4,1688.4 726.8,1694.9 "
           style="opacity:1;fill:#ffffff;enable-background:new" />
        <polygon
           id="polygon279_2_"
           class="st11"
           points="726.8,1718 711.4,1710.3 711.4,1688.4 726.8,1694.9 "
           style="fill:none;stroke:#1a1631;stroke-width:0.47999999" />
        <polygon
           id="polygon281_2_"
           class="st8"
           points="668,1687.1 668,1646.9 555.9,1701 555.9,1741.6 "
           style="opacity:1;fill:#ffffff;enable-background:new" />
        <polygon
           id="polygon283_2_"
           class="st9"
           points="668,1687.1 668,1646.9 555.9,1701 555.9,1741.6 "
           style="fill:none;stroke:#1a1631;stroke-width:0.23999999" />
        <polygon
           id="polygon285_2_"
           class="st8"
           points="715.8,2005 695.9,1995.2 695.9,1964.8 715.8,1975 "
           style="opacity:1;fill:#ffffff;enable-background:new" />
        <polygon
           id="polygon287_2_"
           class="st11"
           points="715.8,2005 695.9,1995.2 695.9,1964.8 715.8,1975 "
           style="fill:none;stroke:#1a1631;stroke-width:0.47999999" />
        <polygon
           id="polygon289_2_"
           class="st8"
           points="828.6,2061.5 809.2,2051.7 809.2,2021.3 828.6,2031.5 "
           style="opacity:1;fill:#ffffff;enable-background:new" />
        <polygon
           id="polygon291_2_"
           class="st11"
           points="828.6,2061.5 809.2,2051.7 809.2,2021.3 828.6,2031.5 "
           style="fill:none;stroke:#1a1631;stroke-width:0.47999999" />
        <polygon
           id="polygon293_2_"
           class="st8"
           points="631.5,1682.3 611.9,1690.4 611.9,1714 631.5,1705 "
           style="opacity:1;fill:#ffffff;enable-background:new" />
        <polygon
           id="polygon295_2_"
           class="st11"
           points="631.5,1682.3 611.9,1690.4 611.9,1714 631.5,1705 "
           style="fill:none;stroke:#1a1631;stroke-width:0.47999999" />
        <path
           id="path307_2_"
           class="st12"
           d="m 1595.9,1823.8 c 0,12.6 -22.8,47.5 -22.8,47.5 0,0 -22.8,-34.6 -22.8,-47.5 0,-12.6 10.1,-22.8 22.8,-22.8 12.7,-0.3 22.8,9.8 22.8,22.8"
           style="fill:#f58020" />
        <rect
           id="rect309_2_"
           x="797.70001"
           y="1844.2"
           class="st13"
           width="347.39999"
           height="52.799999"
           style="fill:#6f4d80" />
        <rect
           id="rect311_2_"
           x="647.20001"
           y="1779.3"
           class="st13"
           width="196"
           height="52.799999"
           style="fill:#6f4d80" />
        <rect
           id="rect313_2_"
           x="691.90002"
           y="1525.6"
           class="st13"
           width="196"
           height="52.799999"
           style="fill:#6f4d80" />
        <rect
           id="rect315_2_"
           x="1060.2"
           y="2011"
           class="st13"
           width="196"
           height="52.799999"
           style="fill:#6f4d80" />
        <rect
           id="rect317_2_"
           x="1027.6"
           y="2050.8999"
           class="st13"
           width="263.5"
           height="52.799999"
           style="fill:#6f4d80" />
        <rect
           id="rect323_2_"
           x="465.29999"
           y="1525.6"
           class="st13"
           width="196"
           height="52.799999"
           style="fill:#6f4d80" />
        <path
           id="path395_2_"
           class="st13"
           d="m 970.7,1935.4 c 0,17.4 -31.7,65.3 -31.7,65.3 0,0 -31.7,-47.8 -31.7,-65.3 0,-17.5 14.3,-31.7 31.7,-31.7 17.6,0.5 31.7,14.3 31.7,31.7"
           style="fill:#6f4d80" />
        <path
           id="path429_2_"
           class="st13"
           d="m 777.8,1874.1 c 0,17.4 -31.7,65.3 -31.7,65.3 0,0 -31.7,-47.8 -31.7,-65.3 0,-17.5 14.3,-31.7 31.7,-31.7 17.6,0.2 31.7,14.3 31.7,31.7"
           style="fill:#6f4d80" />
        <path
           id="path443_2_"
           class="st13"
           d="m 821.7,1621.6 c 0,17.4 -31.7,65.3 -31.7,65.3 0,0 -31.6,-47.8 -31.6,-65.3 0,-17.4 14.3,-31.7 31.7,-31.7 17.4,0 31.6,14.3 31.6,31.7"
           style="fill:#6f4d80" />
        <path
           id="path457_2_"
           class="st13"
           d="m 595.2,1621.6 c 0,17.4 -31.7,65.3 -31.7,65.3 0,0 -31.7,-47.8 -31.7,-65.3 0,-17.4 14.3,-31.7 31.7,-31.7 17.5,0 31.7,14.3 31.7,31.7"
           style="fill:#6f4d80" />
        <rect
           id="rect459_2_"
           x="454.39999"
           y="1743.2"
           class="st13"
           width="188.7"
           height="36.200001"
           style="fill:#6f4d80" />
        <path
           id="path471_2_"
           class="st13"
           d="m 1189.9,2143.4 c 0,17.4 -31.7,65.3 -31.7,65.3 0,0 -31.7,-47.8 -31.7,-65.3 0,-17.5 14.3,-31.7 31.7,-31.7 17.6,0.3 31.7,14.3 31.7,31.7"
           style="fill:#6f4d80" />
        <path
           id="path473_2_"
           class="st8"
           d="m 1158.2,2159.5 c -9,0 -16.3,-7.3 -16.3,-16.3 0,-9 7.3,-16.3 16.3,-16.3 9,0 16.3,7.3 16.3,16.3 0,9 -7.3,16.3 -16.3,16.3 m 0,-36 c -11,0 -19.9,9 -19.9,19.9 0,11 9,19.9 19.9,19.9 11,0 19.9,-9 19.9,-19.9 0.1,-10.9 -8.9,-19.9 -19.9,-19.9 m 0,17.4 c -1.2,0 -2.5,1.2 -2.5,2.5 l 0,7.3 c 0,1.2 1.2,2.5 2.5,2.5 1.2,0 2.5,-1.2 2.5,-2.5 l 0,-7.3 c 0,-1.3 -1.2,-2.5 -2.5,-2.5 m 0,-7.6 c -1.2,0 -2.5,1.2 -2.5,2.5 0,1.2 1.2,2.5 2.5,2.5 1.2,0 2.5,-1.2 2.5,-2.5 0,-1.4 -1.2,-2.5 -2.5,-2.5"
           style="opacity:1;fill:#ffffff;enable-background:new" />
        <rect
           id="rect475_10_"
           x="1266.9"
           y="2200.7"
           class="st13"
           width="304.20001"
           height="52.799999"
           style="fill:#6f4d80" />
        <path
           id="path487_2_"
           class="st13"
           d="m 1450.6,2296.4 c 0,17.4 -31.7,65.3 -31.7,65.3 0,0 -31.7,-47.8 -31.7,-65.3 0,-17.5 14.3,-31.7 31.7,-31.7 17.6,0 31.7,14.3 31.7,31.7"
           style="fill:#6f4d80" />
        <path
           id="path489_2_"
           class="st8"
           d="m 1418.9,2312.2 c -9,0 -16.3,-7.3 -16.3,-16.3 0,-9 7.3,-16.3 16.3,-16.3 9,0 16.3,7.3 16.3,16.3 -0.1,9 -7.4,16.3 -16.3,16.3 m 0,-36.1 c -11,0 -19.9,9 -19.9,19.9 0,11 9,19.9 19.9,19.9 11,0 19.9,-9 19.9,-19.9 0,-10.9 -9,-19.9 -19.9,-19.9 m 0,17.5 c -1.2,0 -2.5,1.2 -2.5,2.5 l 0,7.3 c 0,1.2 1.2,2.5 2.5,2.5 1.2,0 2.5,-1.2 2.5,-2.5 l 0,-7.3 c -0.1,-1.4 -1.2,-2.5 -2.5,-2.5 m 0,-7.3 c -1.2,0 -2.5,1.2 -2.5,2.5 0,1.2 1.2,2.5 2.5,2.5 1.2,0 2.5,-1.2 2.5,-2.5 -0.1,-1.4 -1.2,-2.5 -2.5,-2.5"
           style="opacity:1;fill:#ffffff;enable-background:new" />
        <path
           id="path897_2_"
           class="st13"
           d="m 1840.8,1964.7 c 0,17.4 -31.7,65.3 -31.7,65.3 0,0 -31.7,-47.8 -31.7,-65.3 0,-17.5 14.3,-31.7 31.7,-31.7 17.4,0.1 31.7,14.2 31.7,31.7"
           style="fill:#6f4d80" />
        <path
           id="path899_2_"
           class="st8"
           d="m 1818.9,1960.2 0,15 -23.1,0 0,-23.2 15,0 4.5,-4.5 -24.4,0 0,32.6 32.6,0 0,-24.4 -4.6,4.5 z m -16.3,3.3 -1.7,6.5 6.5,-1.7 16.3,-16.3 -4.8,-4.8 -16.3,16.3 0,0 z m 24.4,-19.9 c 1.2,1.2 1.2,3.7 0,4.8 l -1.7,1.7 -4.8,-4.8 1.7,-1.7 c 1.2,-1.2 3.5,-1.2 4.8,0"
           style="opacity:1;fill:#ffffff;enable-background:new" />
        <rect
           id="rect901_4_"
           x="1616.7"
           y="1875.5"
           class="st13"
           width="315.79999"
           height="52.799999"
           style="fill:#6f4d80" />
        <rect
           id="rect901_3_"
           x="1434.5"
           y="1741.7"
           class="st13"
           width="269.29999"
           height="52.799999"
           style="fill:#6f4d80" />
        <g
           id="g4679-4_2_"
           transform="matrix(0.42702949,0,0,0.42702949,102.89689,319.30603)">
          <path
             id="path6-3_2_"
             class="st8"
             d="m 1533.2,3615.1 c 7.6,-0.3 14.6,-7 16.3,-14.3 -7.3,0.2 -14.6,7.5 -16.3,14.3 z m -15.8,-8.2 c -9,10.6 -22.3,15 -34.1,21.6 -10.6,4.8 -20.3,13.8 -32.1,14.6 -0.3,7.6 2.8,14.6 4,21.9 7.6,-2.5 11,-1.7 14.6,5.6 7.3,9.3 24.8,4 25.6,-7.6 10.6,0.3 21.1,-0.3 31.2,-0.8 4,4 15.4,3.3 13,-4.5 -2.8,-16.6 -8.1,-32.9 -13,-49.2 -1,-3.2 -6.3,-0.7 -9.2,-1.6 z"
             style="opacity:1;fill:#ffffff;enable-background:new" />
          <path
             id="path8-6_2_"
             class="st13"
             d="m 1517.4,3623.2 c -15.4,9 -31.2,17.9 -47.5,25.9 1.7,4 12.1,1.7 17.4,2.5 12.6,0 25.6,0 38.2,0 -1.6,-9.8 -3.6,-20.2 -8.1,-28.4 z"
             style="fill:#6f4d80" />
          <path
             id="path10-3_2_"
             class="st8"
             d="m 1543.4,3633 c 7,0 13.5,-2 19.9,-4 1.7,-9.8 -9.3,-4.5 -14.3,-2.5 -2.7,1.2 -5.6,3.2 -5.6,6.5 m 0,16.1 c 3.7,4.8 13,9 18.6,5.3 4,-6.1 -9.8,-5.3 -13.8,-7 -1.9,0.2 -3.2,0.9 -4.8,1.7 l 0,0 z"
             style="opacity:1;fill:#ffffff;enable-background:new" />
          <path
             id="path12-1_2_"
             class="st13"
             d="m 1471.1,3663.4 c 2.8,6.1 9.8,10.6 15,4.8 8.5,-8.1 -7.6,-4 -12.6,-4.8 -0.7,0 -1.6,0 -2.4,0 z"
             style="fill:#6f4d80" />
        </g>
        <g
           id="g4679-4-9_2_"
           transform="matrix(0.42702949,0,0,0.42702949,150.2493,334.17648)">
          <path
             id="path6-3-7_2_"
             class="st8"
             d="m 1872.7,3721.7 c 7.6,-0.3 14.6,-7 16.3,-14.3 -7.5,0 -14.8,7.3 -16.3,14.3 z m -16,-8.2 c -9,10.6 -22.3,15 -34.1,21.6 -10.6,4.8 -20.3,13.8 -32.1,14.6 -0.3,7.6 2.8,14.6 4,21.9 7.6,-2.5 11,-1.7 14.6,5.6 7.3,9.3 24.8,4 25.6,-7.6 10.6,0.3 21.1,-0.3 31.2,-0.8 4,4 15.4,3.3 13,-4.5 -2.8,-16.6 -8.1,-32.9 -13,-49.2 -1,-3.2 -6.4,-0.7 -9.2,-1.6 z"
             style="opacity:1;fill:#ffffff;enable-background:new" />
          <path
             id="path8-6-3_2_"
             class="st13"
             d="m 1856.7,3729.8 c -15.4,9 -31.2,17.9 -47.5,25.9 1.7,4 12.1,1.7 17.4,2.5 12.6,0 25.6,0 38.2,0 -1.6,-9.8 -3.6,-20.3 -8.1,-28.4 z"
             style="fill:#6f4d80" />
          <path
             id="path10-3-4_2_"
             class="st8"
             d="m 1882.8,3739.4 c 7,0 13.5,-2 19.9,-4 1.7,-9.8 -9.3,-4.5 -14.3,-2.5 -2.8,1.4 -5.6,3.4 -5.6,6.5 m 0,16.3 c 3.7,4.8 13,9 18.6,5.3 4,-6.1 -9.8,-5.3 -13.8,-7 -2,0.1 -3.3,0.9 -4.8,1.7 l 0,0 z"
             style="opacity:1;fill:#ffffff;enable-background:new" />
          <path
             id="path12-1-9_2_"
             class="st13"
             d="m 1810.5,3770 c 2.8,6.1 9.8,10.6 15,4.8 8.5,-8.1 -7.6,-4 -12.6,-4.8 -0.9,0 -1.5,0 -2.4,0 z"
             style="fill:#6f4d80" />
        </g>
        <g
           id="g4679-4-3_2_"
           transform="matrix(0.42702949,0,0,0.42702949,113.60351,256.76426)">
          <path
             id="path6-3-6_2_"
             class="st8"
             d="m 1609.9,3166.9 c 7.6,-0.3 14.6,-7 16.3,-14.3 -7.3,0.2 -14.6,7.5 -16.3,14.3 z m -15.7,-8.1 c -9,10.6 -22.3,15 -34.1,21.6 -10.6,4.8 -20.3,13.8 -32.1,14.6 -0.3,7.6 2.8,14.6 4,21.9 7.6,-2.5 11,-1.7 14.6,5.6 7.3,9.3 24.8,4 25.6,-7.6 10.6,0.3 21.1,-0.3 31.2,-0.8 4,4 15.4,3.3 13,-4.5 -2.8,-16.6 -8.1,-32.9 -13,-49.2 -1.1,-3.1 -6.4,-0.8 -9.2,-1.6 z"
             style="opacity:1;fill:#ffffff;enable-background:new" />
          <path
             id="path8-6-2_2_"
             class="st13"
             d="m 1594.2,3175.1 c -15.4,9 -31.2,17.9 -47.5,25.9 1.7,4 12.1,1.7 17.4,2.5 12.6,0 25.6,0 38.2,0 -1.7,-9.8 -3.7,-20.3 -8.1,-28.4 z"
             style="fill:#6f4d80" />
          <path
             id="path10-3-7_2_"
             class="st8"
             d="m 1620.2,3184.9 c 7,0 13.5,-2 19.9,-4 1.7,-9.8 -9.3,-4.5 -14.3,-2.5 -2.7,1.1 -5.6,3.1 -5.6,6.5 m 0,16.1 c 3.7,4.8 13,9 18.6,5.3 4,-6.1 -9.8,-5.3 -13.8,-7 -1.9,0.2 -3.3,1 -4.8,1.7 l 0,0 z"
             style="opacity:1;fill:#ffffff;enable-background:new" />
          <path
             id="path12-1-2_2_"
             class="st13"
             d="m 1547.8,3215.3 c 2.8,6.1 9.8,10.6 15,4.8 8.5,-8.1 -7.6,-4 -12.6,-4.8 -0.7,0 -1.6,0 -2.4,0 z"
             style="fill:#6f4d80" />
        </g>
        <g
           id="g4679-4-4_2_"
           transform="matrix(0.42702949,0,0,0.42702949,57.834698,257.08431)">
          <path
             id="path6-3-2_2_"
             class="st8"
             d="m 1210.5,3169.2 c 7.6,-0.3 14.6,-7 16.3,-14.3 -7.5,0 -14.8,7.4 -16.3,14.3 z m -16,-8.1 c -9,10.6 -22.3,15 -34.1,21.6 -10.6,4.8 -20.3,13.8 -32.1,14.6 -0.3,7.6 2.8,14.6 4,21.9 7.6,-2.5 11,-1.7 14.6,5.6 7.3,9.3 24.8,4 25.6,-7.6 10.6,0.3 21.1,-0.3 31.2,-0.8 4,4 15.4,3.3 13,-4.5 -2.8,-16.6 -8.1,-32.9 -13,-49.2 -1.1,-3.3 -6.4,-0.8 -9.2,-1.6 z"
             style="opacity:1;fill:#ffffff;enable-background:new" />
          <path
             id="path8-6-1_2_"
             class="st13"
             d="m 1194.5,3177.4 c -15.4,9 -31.2,17.9 -47.5,25.9 1.7,4 12.1,1.7 17.4,2.5 12.6,0 25.6,0 38.2,0 -1.6,-9.8 -3.6,-20.3 -8.1,-28.4 z"
             style="fill:#6f4d80" />
          <path
             id="path10-3-3_2_"
             class="st8"
             d="m 1220.6,3187.2 c 7,0 13.5,-2 19.9,-4 1.7,-9.8 -9.3,-4.5 -14.3,-2.5 -2.8,1.2 -5.6,3.2 -5.6,6.5 m 0,16.1 c 3.7,4.8 13,9 18.6,5.3 4,-6.1 -9.8,-5.3 -13.8,-7 -2,0.2 -3.3,0.9 -4.8,1.7 l 0,0 z"
             style="opacity:1;fill:#ffffff;enable-background:new" />
          <path
             id="path12-1-27_2_"
             class="st13"
             d="m 1148.3,3217.6 c 2.8,6.1 9.8,10.6 15,4.8 8.5,-8.1 -7.6,-4 -12.6,-4.8 -0.9,0 -1.5,0 -2.4,0 z"
             style="fill:#6f4d80" />
        </g>
        <g
           id="XMLID_2147_">
          <g
             id="XMLID_970_">
            <path
               id="XMLID_992_"
               class="st1"
               d="m 1650.3,1911.7 c 1.2,-0.2 2,-0.3 2.5,-0.7 0.5,-0.4 1,-0.8 1.2,-1.3 0.2,-0.7 0.3,-1.5 0.3,-2.5 l 0,-17.6 13.6,0 c 2.3,0 4.3,0.7 5.6,2 1.3,1.3 2,3.5 2,6.5 l 0,17.3 -6.5,0 0,-17.6 c 0,-2.2 -1,-3.3 -3,-3.3 l -5.3,0 0,11.8 c 0,2.3 -0.3,4.2 -1,5.5 -0.7,1.3 -1.8,2.3 -3.2,3 -1.5,0.7 -3.3,1.2 -5.8,1.3 l -0.4,-4.4 z"
               style="fill:#bbbade" />
            <path
               id="XMLID_991_"
               class="st1"
               d="m 1682,1894.9 -0.5,-5.3 6.5,0 0.5,5.3 0,20.4 -6.5,0 0,-20.4 z"
               style="fill:#bbbade" />
            <path
               id="XMLID_990_"
               class="st1"
               d="m 1716.4,1912.3 c -2,2.3 -4.7,3.7 -8.1,3.7 -1.3,0 -2.7,-0.2 -4.2,-0.5 l 0.7,-4.8 c 1.2,0.2 2,0.3 2.8,0.3 2,0 3.5,-0.7 4.3,-2 0.8,-1.3 1.3,-3.3 1.3,-6.1 0,-3 -0.3,-5.1 -1.2,-6.5 -0.8,-1.3 -2.2,-2 -3.8,-2 -1.2,0 -2.2,0.3 -3,1.2 -0.8,0.9 -1.3,1.7 -1.5,3 l -2.8,17.1 -6.5,0 3.2,-17.4 -3.7,-8.5 6.8,0 1.8,5.1 c 0.7,-1.8 1.7,-3.3 2.8,-4.2 1.3,-1 2.7,-1.3 4.3,-1.3 3.2,0 5.6,1.2 7.3,3.3 1.7,2.2 2.5,5.5 2.5,10 -0.2,4 -1.2,7.3 -3,9.6 z"
               style="fill:#bbbade" />
            <path
               id="XMLID_989_"
               class="st1"
               d="m 1722.9,1911.7 c 1.2,-0.2 2,-0.3 2.5,-0.7 0.5,-0.3 1,-0.8 1.2,-1.3 0.2,-0.7 0.3,-1.5 0.3,-2.5 l 0,-17.6 13.6,0 c 2.3,0 4.3,0.7 5.6,2 1.3,1.3 2,3.5 2,6.5 l 0,17.3 -6.5,0 0,-17.6 c 0,-2.2 -1,-3.3 -3,-3.3 l -5.3,0 0,11.8 c 0,2.3 -0.3,4.2 -1,5.5 -0.7,1.3 -1.8,2.3 -3.2,3 -1.5,0.7 -3.3,1.2 -5.8,1.3 l -0.4,-4.4 z"
               style="fill:#bbbade" />
            <path
               id="XMLID_988_"
               class="st1"
               d="m 1774.3,1891.7 c 1.3,1.5 2.2,3.7 2.2,6.5 l 0,17.1 -6.5,0 0,-17.4 c 0,-2.3 -1,-3.5 -3,-3.5 l -6,0 0,20.9 -6.5,0 0,-22.8 0,-3 14.3,0 c 2.2,0.1 4.1,0.9 5.5,2.2 z"
               style="fill:#bbbade" />
            <path
               id="XMLID_985_"
               class="st1"
               d="m 1782,1903 0.8,-3 5.6,0 0,15.3 -6.5,0 0,-12.3 z m 15.1,-5.3 c 0,-2.2 -1,-3.3 -3,-3.3 l -11.8,0 0,-4.8 13.5,0 c 2.3,0 4.3,0.7 5.6,2 1.3,1.3 2.2,3.5 2.2,6.5 l 0,17.3 -6.5,0 0,-17.7 z"
               style="fill:#bbbade" />
            <path
               id="XMLID_984_"
               class="st1"
               d="m 1830,1897.7 c 0,-2.2 -1,-3.3 -3,-3.3 l -8.8,0 0,-4.8 10.6,0 c 2.3,0 4.3,0.7 5.6,2 1.3,1.3 2.2,3.5 2.2,6.5 l 0,17.3 -6.5,0 0,-17.6 -0.1,0 z"
               style="fill:#bbbade" />
            <path
               id="XMLID_973_"
               class="st1"
               d="m 1843,1894.9 -0.5,-5.3 6.5,0 0.5,5.3 0,20.4 -6.5,0 0,-20.4 z"
               style="fill:#bbbade" />
            <path
               id="XMLID_972_"
               class="st1"
               d="m 1857.6,1899.7 c 0,-1.2 0.2,-2.2 0.3,-3.2 0.2,-1 0.5,-1.7 1,-2.2 l -4,0 0,-4.8 13.5,0 0,4.8 -3.3,0 c -0.3,0.7 -0.5,1.5 -0.7,2.3 -0.2,0.8 -0.2,1.8 -0.2,3 l 0,15.6 -6.5,0 0,-15.6 -0.1,0 z"
               style="fill:#bbbade" />
            <path
               id="XMLID_971_"
               class="st1"
               d="m 1890.6,1915.3 -8.5,-13.1 -4,13.1 -6.1,0 5,-15.4 1.3,-3.5 -4.2,-6.8 6.5,0 3.7,5.8 3.3,5 1.2,-4.2 1.8,-6.6 6.1,0 -5.5,16.4 6.1,9.3 -6.7,0 0,0 z"
               style="fill:#bbbade" />
          </g>
        </g>
        <g
           id="XMLID_2132_">
          <path
             id="XMLID_2144_"
             class="st5"
             d="m 1469.5,1758.5 c 1.3,1.3 2.2,3.5 2.2,6.5 l 0,17.3 -6.5,0 -14.1,0 -1.3,0 0,-25.7 6.5,0 7.8,0 c 2.1,-0.1 3.9,0.6 5.4,1.9 z m -4.5,19 0,-12.8 c 0,-2.2 -1,-3.3 -3,-3.3 l -6,0 0,15.9 9,0 0,0.2 z"
             style="fill:#ffffff" />
          <path
             id="XMLID_2143_"
             class="st5"
             d="m 1477.7,1761.8 -0.5,-5.3 6.5,0 0.5,5.3 0,7 0,2.8 -6.5,1.2 0,-11 z"
             style="fill:#ffffff" />
          <path
             id="XMLID_2142_"
             class="st5"
             d="m 1489.5,1777.5 6.6,0 0,-13 c 0,-1.2 -0.2,-1.8 -0.7,-2.3 -0.3,-0.5 -1,-0.7 -1.8,-0.8 l -3.2,-0.5 0.8,-4.8 5.6,0.7 c 1.8,0.2 3.3,1 4.2,2.3 1,1.3 1.5,3 1.5,5.1 l 0,18.1 -13.1,0 0,-4.8 z"
             style="fill:#ffffff" />
          <path
             id="XMLID_2141_"
             class="st5"
             d="m 1507.4,1777.5 7.1,0 c 1.7,0 3,-0.5 3.8,-1.7 0.8,-1.2 1.2,-2.7 1.2,-4.7 l 0,-3.3 c 0,-2 -0.3,-3.5 -1.2,-4.7 -0.8,-1.2 -2.2,-1.7 -3.8,-1.7 l -7.1,0 0,-4.8 9,0 c 3.2,0 5.6,1 7.3,3.2 1.7,2.2 2.5,4.8 2.5,8.5 l 0,2.7 c 0,3.7 -0.8,6.5 -2.5,8.5 -1.7,2 -4.2,3.2 -7.3,3.2 l -9,0 0,-5.2 z"
             style="fill:#ffffff" />
          <path
             id="XMLID_2140_"
             class="st5"
             d="m 1531.8,1761.8 -0.5,-5.3 6.5,0 0.5,5.3 0,20.4 -6.5,0 0,-20.4 z"
             style="fill:#ffffff" />
          <path
             id="XMLID_2139_"
             class="st5"
             d="m 1553.7,1766.7 c 0,-1.2 0.2,-2.2 0.3,-3.2 0.2,-1 0.5,-1.7 1,-2.2 l -11.6,0 0,-4.8 21.1,0 0,4.8 -3.5,0 c -0.5,1.3 -0.8,3 -0.8,5.3 l 0,15.6 -6.5,0 0,-15.5 0,0 z"
             style="fill:#ffffff" />
          <path
             id="XMLID_2136_"
             class="st5"
             d="m 1599.9,1758.5 c 1.3,1.3 2.2,3.5 2.2,6.5 l 0,17.3 -6.5,0 -14.1,0 -1.3,0 0,-25.7 6.5,0 7.8,0 c 2.1,-0.1 4.1,0.6 5.4,1.9 z m -4.3,19 0,-12.8 c 0,-2.2 -1,-3.3 -3,-3.3 l -6,0 0,15.9 9,0 0,0.2 z"
             style="fill:#ffffff" />
          <path
             id="XMLID_2135_"
             class="st5"
             d="m 1627.8,1758.7 c 1.3,1.5 2.2,3.7 2.2,6.5 l 0,17.1 -6.5,0 0,-17.4 c 0,-2.3 -1,-3.5 -3,-3.5 l -6,0 0,20.9 -6.5,0 0,-22.8 0,-3 14.3,0 c 2.4,0 4.2,0.7 5.5,2.2 z"
             style="fill:#ffffff" />
          <path
             id="XMLID_2134_"
             class="st5"
             d="m 1634.3,1778.6 c 1.2,-0.2 2,-0.3 2.5,-0.7 0.5,-0.4 1,-0.8 1.2,-1.3 0.2,-0.7 0.3,-1.5 0.3,-2.5 l 0,-17.6 13.6,0 c 2.3,0 4.3,0.7 5.6,2 1.3,1.3 2,3.5 2,6.5 l 0,17.3 -6.5,0 0,-17.6 c 0,-2.2 -1,-3.3 -3,-3.3 l -5.3,0 0,11.8 c 0,2.3 -0.3,4.2 -1,5.5 -0.7,1.3 -1.8,2.3 -3.2,3 -1.5,0.7 -3.3,1.2 -5.8,1.3 l -0.4,-4.4 z"
             style="fill:#ffffff" />
          <path
             id="XMLID_2133_"
             class="st5"
             d="m 1687.5,1779.3 c -2,2.3 -4.7,3.7 -8.1,3.7 -1.3,0 -2.7,-0.2 -4.2,-0.5 l 0.7,-4.8 c 1.2,0.2 2,0.3 2.8,0.3 2,0 3.5,-0.7 4.3,-2 0.8,-1.3 1.3,-3.3 1.3,-6.1 0,-3 -0.3,-5.1 -1.2,-6.5 -0.8,-1.3 -2.2,-2 -3.8,-2 -1.2,0 -2.2,0.3 -3,1.2 -0.8,0.9 -1.3,1.7 -1.5,3 l -2.8,17.1 -6.5,0 3.2,-17.4 -3.7,-8.5 6.8,0 1.8,5.1 c 0.7,-1.8 1.7,-3.3 2.8,-4.2 1.3,-1 2.7,-1.3 4.3,-1.3 3.2,0 5.6,1.2 7.3,3.3 1.7,2.2 2.5,5.5 2.5,10 0,3.9 -1,7.3 -3,9.6 z"
             style="fill:#ffffff" />
        </g>
        <g
           id="XMLID_2120_">
          <g
             id="XMLID_2131_">
            <path
               id="path355_1_"
               class="st13"
               d="m 1393.1,2452.6 c 0,13.8 -25.2,52 -25.2,52 0,0 -25.2,-38.2 -25.2,-52 0,-13.8 11.3,-25.3 25.2,-25.3 13.9,0.2 25.2,11.5 25.2,25.3"
               style="fill:#6f4d80" />
            <path
               id="path357_8_"
               class="st8"
               d="m 1352.9,2471.2 c 0,1.2 0.3,1.7 1.7,1.7 1.3,0 1.7,-0.3 1.7,-1.7 l 0,-14.6 1.7,0 0,14.6 c 0,1.2 0.3,1.7 1.7,1.7 1.2,0 1.7,-0.3 1.7,-1.7 l 0,-24.8 0.8,0 0,9 c 0,0.3 0,0.8 0.3,1.2 0.3,0.3 0.8,0.3 1.2,0 0.3,-0.3 0.8,-0.8 0.8,-1.2 l 0,-9.8 c 0,-1.2 -0.3,-2 -1.2,-2.5 -0.8,-0.3 -1.7,-0.8 -2.8,-0.8 l -6.5,0 c -1.2,0 -2,0.3 -2.8,0.8 -0.8,0.3 -1.2,1.2 -1.2,2.5 l 0,10.1 c 0,0.3 0.3,0.8 0.8,0.8 0.3,0.3 0.8,0.3 1.2,0 0.3,-0.3 0.3,-0.3 0.3,-0.8 l 0,-9.3 0.8,0 0,24.8 -0.2,0 z"
               style="opacity:1;fill:#ffffff;enable-background:new" />
            <path
               id="path359_8_"
               class="st8"
               d="m 1384.6,2459.5 -4.5,-13 0,0 c 0,-0.3 0,-0.3 0.3,-0.3 0,0 0.3,0 0.3,0.3 l 3.3,8.1 c 0.3,0.3 0.8,0.8 1.7,0.8 0.3,0 0.3,-0.3 0.8,-0.8 0,-0.3 0,-0.8 0,-0.8 l -3.3,-8.1 c 0,-0.8 -0.3,-1.7 -1.2,-2.5 -0.9,-0.8 -1.7,-0.8 -2.8,-0.8 l -4,0 c -1.2,0 -2,0.3 -2.8,1.2 -0.8,0.8 -1.2,1.7 -1.7,2.5 l -2.8,8.1 c 0,0 0,0.3 0,0.8 0,0.3 0.3,0.8 0.8,0.8 0.8,0 1.7,-0.3 1.7,-0.8 l 3.3,-8.5 c 0,0 0,-0.3 0.3,-0.3 0.3,0 0.3,0 0.3,0.3 l 0,0 -4.5,13 0,0.8 c 0,0 0,0.3 0.3,0.3 0.3,0.3 0.3,0.3 0.3,0.3 l 2.8,0 0,10.1 c 0,0.3 0,0.8 0.3,1.2 0.3,0.3 0.8,0.3 1.2,0.3 0.4,0 0.8,0 1.2,-0.3 0.3,-0.3 0.3,-0.8 0.3,-1.2 l 0,-10 c 0,0 0,0 0.3,0 0.3,0 0.3,0 0.8,0 0.3,0 0.3,0 0.3,0 l 0,10.1 c 0,0.3 0,0.8 0.3,1.2 0.3,0.3 0.8,0.3 1.2,0.3 0.4,0 0.8,0 1.2,-0.3 0.3,-0.3 0.3,-0.8 0.3,-1.2 l 0,-9.8 2.8,0 c 0,0 0.3,0 0.3,-0.3 0.3,-0.3 0.3,-0.3 0.3,-0.3 l 0,-1.2 0.6,0 z"
               style="opacity:1;fill:#ffffff;enable-background:new" />
            <path
               id="path361_8_"
               class="st8"
               d="m 1353.7,2437.9 c 0,0.8 0.3,1.7 0.8,2.5 0.8,0.8 1.2,0.8 2.5,0.8 0.8,0 1.7,-0.3 2.5,-0.8 0.8,-0.8 0.8,-1.7 0.8,-2.5 0,-0.8 -0.3,-1.7 -0.8,-2.5 -0.8,-0.8 -1.2,-0.8 -2.5,-0.8 -0.8,0 -1.7,0.3 -2.5,0.8 -0.8,0.9 -0.8,1.7 -0.8,2.5"
               style="opacity:1;fill:#ffffff;enable-background:new" />
            <path
               id="path363_8_"
               class="st8"
               d="m 1373.2,2437.9 c 0,0.8 0.3,1.7 0.8,2.5 0.8,0.8 1.2,0.8 2.5,0.8 1.2,0 1.7,-0.3 2.5,-0.8 0.8,-0.8 0.8,-1.2 0.8,-2.5 0,-0.8 -0.3,-1.7 -0.8,-2.5 -0.8,-0.8 -1.2,-0.8 -2.5,-0.8 -1.2,0 -1.7,0.3 -2.5,0.8 -0.3,0.9 -0.8,1.7 -0.8,2.5"
               style="opacity:1;fill:#ffffff;enable-background:new" />
          </g>
          <rect
             id="rect475_1_"
             x="1282.1"
             y="2371.2"
             class="st13"
             width="171.60001"
             height="52.799999"
             style="fill:#6f4d80" />
          <g
             id="XMLID_2121_">
            <path
               id="XMLID_2128_"
               class="st5"
               d="m 1314.2,2386.9 c 1.3,1.3 2.2,3.5 2.2,6.5 l 0,17.3 -6.5,0 -14.1,0 -1.3,0 0,-25.7 6.5,0 7.8,0 c 2.1,0 4.1,0.6 5.4,1.9 z m -4.5,18.8 0,-12.8 c 0,-2.2 -1,-3.3 -3,-3.3 l -6,0 0,15.9 9,0 0,0.2 z"
               style="fill:#ffffff" />
            <path
               id="XMLID_2127_"
               class="st5"
               d="m 1322.5,2390.1 -0.5,-5.3 6.5,0 0.5,5.3 0,7 0,2.8 -6.5,1.2 0,-11 z"
               style="fill:#ffffff" />
            <path
               id="XMLID_2126_"
               class="st5"
               d="m 1333.3,2407 c 1.2,-0.2 2,-0.3 2.5,-0.7 0.5,-0.4 1,-0.8 1.2,-1.3 0.2,-0.7 0.3,-1.5 0.3,-2.5 l 0,-17.5 13.6,0 c 2.3,0 4.3,0.7 5.6,2 1.3,1.3 2,3.5 2,6.5 l 0,17.3 -6.5,0 0,-17.6 c 0,-2.2 -1,-3.3 -3,-3.3 l -5.3,0 0,11.8 c 0,2.3 -0.3,4.2 -1,5.5 -0.7,1.3 -1.8,2.3 -3.2,3 -1.5,0.7 -3.3,1.2 -5.8,1.3 l -0.4,-4.5 z"
               style="fill:#ffffff" />
            <path
               id="XMLID_2125_"
               class="st5"
               d="m 1365,2390.1 -0.5,-5.3 6.5,0 0.5,5.3 0,20.4 -6.5,0 0,-20.4 z"
               style="fill:#ffffff" />
            <path
               id="XMLID_2124_"
               class="st5"
               d="m 1388.1,2393.1 c 0,-2.2 -1,-3.3 -3,-3.3 l -8.8,0 0,-4.8 10.6,0 c 2.3,0 4.3,0.7 5.6,2 1.3,1.3 2.2,3.5 2.2,6.5 l 0,17.3 -6.5,0 0,-17.6 -0.1,0 z"
               style="fill:#ffffff" />
            <path
               id="XMLID_2123_"
               class="st5"
               d="m 1401.1,2390.1 -0.5,-5.3 6.5,0 0.5,5.3 0,7 0,2.8 -6.5,1.2 0,-11 z"
               style="fill:#ffffff" />
            <path
               id="XMLID_2122_"
               class="st5"
               d="m 1434.6,2406.4 c -3.7,3.2 -9.3,4.7 -16.9,4.7 l -1.3,0 -3.3,-26.2 6.1,0 1.3,11.1 c 1.2,-0.7 2,-1.5 2.5,-2.7 0.5,-1.2 0.7,-3 0.7,-5.5 l 0,-3 6.1,0 0,2.8 c 0,3.3 -0.7,6 -2,8 -1.3,2 -3.5,3.7 -6.6,4.7 l 0.7,5.1 c 4.3,-0.3 7.3,-1.5 9.1,-3.7 1.8,-2.2 2.7,-5.3 2.7,-9.3 l -0.2,-8 6.5,0 0,7.5 c 0,6.7 -1.9,11.3 -5.4,14.5 z"
               style="fill:#ffffff" />
          </g>
        </g>
        <g
           id="XMLID_2108_">
          <g
             id="XMLID_2119_">
            <path
               id="path355_7_"
               class="st13"
               d="m 2240.8,1859 c 0,13.8 -25.2,52 -25.2,52 0,0 -25.2,-38.2 -25.2,-52 0,-13.8 11.3,-25.2 25.2,-25.2 13.7,0 25.2,11.4 25.2,25.2"
               style="fill:#6f4d80" />
            <path
               id="path357_7_"
               class="st8"
               d="m 2200.6,1877.6 c 0,1.2 0.3,1.7 1.7,1.7 1.2,0 1.7,-0.3 1.7,-1.7 l 0,-14.6 1.7,0 0,14.6 c 0,1.2 0.3,1.7 1.7,1.7 1.3,0 1.7,-0.3 1.7,-1.7 l 0,-24.8 0.8,0 0,9 c 0,0.3 0,0.8 0.3,1.2 0.3,0.3 0.8,0.3 1.2,0 0.3,-0.3 0.8,-0.8 0.8,-1.2 l 0,-9.8 c 0,-1.2 -0.3,-2 -1.2,-2.5 -0.8,-0.3 -1.7,-0.8 -2.8,-0.8 l -6.5,0 c -1.2,0 -2,0.3 -2.8,0.8 -0.8,0.3 -1.2,1.2 -1.2,2.5 l 0,10.1 c 0,0.3 0.3,0.8 0.8,0.8 0.3,0.3 0.8,0.3 1.2,0 0.3,-0.3 0.3,-0.3 0.3,-0.8 l 0,-9.3 0.8,0 0,24.8 -0.2,0 z"
               style="opacity:1;fill:#ffffff;enable-background:new" />
            <path
               id="path359_7_"
               class="st8"
               d="m 2232.2,1865.8 -4.5,-13 0,0 c 0,-0.3 0,-0.3 0.3,-0.3 0,0 0.3,0 0.3,0.3 l 3.3,8.1 c 0.3,0.3 0.8,0.8 1.7,0.8 0.3,0 0.3,-0.3 0.8,-0.8 0,-0.3 0,-0.8 0,-0.8 l -3.3,-8.1 c 0,-0.8 -0.3,-1.7 -1.2,-2.5 -0.9,-0.8 -1.7,-0.8 -2.8,-0.8 l -4,0 c -1.2,0 -2,0.3 -2.8,1.2 -0.8,0.9 -1.2,1.7 -1.7,2.5 l -2.8,8.1 c 0,0 0,0.3 0,0.8 0,0.3 0.3,0.8 0.8,0.8 0.8,0 1.7,-0.3 1.7,-0.8 l 3.3,-8.5 c 0,0 0,-0.3 0.3,-0.3 0.3,0 0.3,0 0.3,0.3 l 0,0 -4.5,13 0,0.8 c 0,0 0,0.3 0.3,0.3 0.3,0.3 0.3,0.3 0.3,0.3 l 2.8,0 0,10.1 c 0,0.3 0,0.8 0.3,1.2 0.3,0.3 0.8,0.3 1.2,0.3 0.3,0 0.8,0 1.2,-0.3 0.3,-0.3 0.3,-0.8 0.3,-1.2 l 0,-10.1 c 0,0 0,0 0.3,0 0.3,0 0.3,0 0.8,0 0.5,0 0.3,0 0.3,0 l 0,10.1 c 0,0.3 0,0.8 0.3,1.2 0.3,0.3 0.8,0.3 1.2,0.3 0.3,0 0.8,0 1.2,-0.3 0.3,-0.3 0.3,-0.8 0.3,-1.2 l 0,-9.8 2.8,0 c 0,0 0.3,0 0.3,-0.3 0.3,-0.3 0.3,-0.3 0.3,-0.3 l 0,-1.2 0.6,0 z"
               style="opacity:1;fill:#ffffff;enable-background:new" />
            <path
               id="path361_7_"
               class="st8"
               d="m 2201.4,1844.4 c 0,0.8 0.3,1.7 0.8,2.5 0.8,0.8 1.2,0.8 2.5,0.8 0.8,0 1.7,-0.3 2.5,-0.8 0.8,-0.8 0.8,-1.7 0.8,-2.5 0,-0.8 -0.3,-1.7 -0.8,-2.5 -0.8,-0.8 -1.2,-0.8 -2.5,-0.8 -0.8,0 -1.7,0.3 -2.5,0.8 -0.8,0.8 -0.8,1.7 -0.8,2.5"
               style="opacity:1;fill:#ffffff;enable-background:new" />
            <path
               id="path363_7_"
               class="st8"
               d="m 2220.9,1844.4 c 0,0.8 0.3,1.7 0.8,2.5 0.8,0.8 1.2,0.8 2.5,0.8 1.2,0 1.7,-0.3 2.5,-0.8 0.8,-0.8 0.8,-1.2 0.8,-2.5 0,-0.8 -0.3,-1.7 -0.8,-2.5 -0.8,-0.8 -1.2,-0.8 -2.5,-0.8 -1.2,0 -1.7,0.3 -2.5,0.8 -0.5,0.8 -0.8,1.7 -0.8,2.5"
               style="opacity:1;fill:#ffffff;enable-background:new" />
          </g>
          <rect
             id="rect475_8_"
             x="2129.8"
             y="1777.6"
             class="st13"
             width="171.60001"
             height="52.799999"
             style="fill:#6f4d80" />
          <g
             id="XMLID_2109_">
            <path
               id="XMLID_2116_"
               class="st5"
               d="m 2161.9,1793.4 c 1.3,1.3 2.2,3.5 2.2,6.5 l 0,17.1 -6.5,0 -14.1,0 -1.3,0 0,-25.7 6.5,0 7.8,0 c 2.1,-0.1 3.9,0.6 5.4,2.1 z m -4.5,18.8 0,-12.8 c 0,-2.2 -1,-3.3 -3,-3.3 l -6,0 0,15.9 9,0 0,0.2 z"
               style="fill:#ffffff" />
            <path
               id="XMLID_2115_"
               class="st5"
               d="m 2170,1796.6 -0.5,-5.3 6.5,0 0.5,5.3 0,7 0,2.8 -6.5,1.2 0,-11 z"
               style="fill:#ffffff" />
            <path
               id="XMLID_2114_"
               class="st5"
               d="m 2181,1813.3 c 1.2,-0.2 2,-0.3 2.5,-0.7 0.5,-0.3 1,-0.8 1.2,-1.3 0.2,-0.7 0.3,-1.5 0.3,-2.5 l 0,-17.6 13.6,0 c 2.3,0 4.3,0.7 5.6,2 1.3,1.3 2,3.5 2,6.5 l 0,17.3 -6.5,0 0,-17.6 c 0,-2.2 -1,-3.3 -3,-3.3 l -5.3,0 0,11.8 c 0,2.3 -0.3,4.2 -1,5.5 -0.7,1.3 -1.8,2.3 -3.2,3 -1.5,0.7 -3.3,1.2 -5.8,1.3 l -0.4,-4.4 z"
               style="fill:#ffffff" />
            <path
               id="XMLID_2113_"
               class="st5"
               d="m 2212.7,1796.6 -0.5,-5.3 6.5,0 0.5,5.3 0,20.4 -6.5,0 0,-20.4 z"
               style="fill:#ffffff" />
            <path
               id="XMLID_2112_"
               class="st5"
               d="m 2235.8,1799.4 c 0,-2.2 -1,-3.3 -3,-3.3 l -8.8,0 0,-4.8 10.6,0 c 2.3,0 4.3,0.7 5.6,2 1.3,1.3 2.2,3.5 2.2,6.5 l 0,17.3 -6.5,0 0,-17.6 -0.1,0 z"
               style="fill:#ffffff" />
            <path
               id="XMLID_2111_"
               class="st5"
               d="m 2248.6,1796.6 -0.5,-5.3 6.5,0 0.5,5.3 0,7 0,2.8 -6.5,1.2 0,-11 z"
               style="fill:#ffffff" />
            <path
               id="XMLID_2110_"
               class="st5"
               d="m 2282.2,1812.8 c -3.7,3.2 -9.3,4.7 -16.9,4.7 l -1.3,0 -3.3,-26.2 6.1,0 1.3,11.1 c 1.2,-0.7 2,-1.5 2.5,-2.7 0.5,-1.2 0.7,-3 0.7,-5.5 l 0,-3 6.1,0 0,2.8 c 0,3.3 -0.7,6 -2,8 -1.3,2 -3.5,3.7 -6.6,4.7 l 0.7,5.1 c 4.3,-0.3 7.3,-1.5 9.1,-3.7 1.8,-2.2 2.7,-5.3 2.7,-9.3 l -0.2,-8 6.5,0 0,7.5 c 0.1,6.7 -1.8,11.4 -5.4,14.5 z"
               style="fill:#ffffff" />
          </g>
        </g>
        <g
           id="XMLID_2096_">
          <g
             id="XMLID_2107_">
            <path
               id="path355_6_"
               class="st13"
               d="m 499.9,2009.4 c 0,13.8 -25.2,52 -25.2,52 0,0 -25.2,-38.2 -25.2,-52 0,-13.8 11.3,-25.2 25.2,-25.2 13.7,0.1 25.2,11.4 25.2,25.2"
               style="fill:#6f4d80" />
            <path
               id="path357_6_"
               class="st8"
               d="m 459.7,2028.1 c 0,1.2 0.3,1.7 1.7,1.7 1.4,0 1.7,-0.3 1.7,-1.7 l 0,-14.6 1.7,0 0,14.6 c 0,1.2 0.3,1.7 1.7,1.7 1.2,0 1.7,-0.3 1.7,-1.7 l 0,-24.8 0.8,0 0,9 c 0,0.3 0,0.8 0.3,1.2 0.3,0.4 0.8,0.3 1.2,0 0.4,-0.3 0.8,-0.8 0.8,-1.2 l 0,-9.8 c 0,-1.2 -0.3,-2 -1.2,-2.5 -0.8,-0.3 -1.7,-0.8 -2.8,-0.8 l -6.5,0 c -1.2,0 -2,0.3 -2.8,0.8 -0.8,0.5 -1.2,1.2 -1.2,2.5 l 0,10.1 c 0,0.3 0.3,0.8 0.8,0.8 0.3,0.3 0.8,0.3 1.2,0 0.3,-0.3 0.3,-0.3 0.3,-0.8 l 0,-9.3 0.8,0 0,24.8 -0.2,0 z"
               style="opacity:1;fill:#ffffff;enable-background:new" />
            <path
               id="path359_6_"
               class="st8"
               d="m 491.4,2016.3 -4.5,-13 0,0 c 0,-0.3 0,-0.3 0.3,-0.3 0,0 0.3,0 0.3,0.3 l 3.3,8.1 c 0.3,0.3 0.8,0.8 1.7,0.8 0.3,0 0.3,-0.3 0.8,-0.8 0,-0.3 0,-0.8 0,-0.8 l -3.3,-8.1 c 0,-0.8 -0.3,-1.7 -1.2,-2.5 -0.9,-0.8 -1.7,-0.8 -2.8,-0.8 l -4,0 c -1.2,0 -2,0.3 -2.8,1.2 -0.8,0.8 -1.2,1.7 -1.7,2.5 l -2.8,8.1 c 0,0 0,0.3 0,0.8 0,0.5 0.3,0.8 0.8,0.8 0.8,0 1.7,-0.3 1.7,-0.8 l 3.3,-8.5 c 0,0 0,-0.3 0.3,-0.3 0.3,0 0.3,0 0.3,0.3 l 0,0 -4.5,13 0,0.8 c 0,0 0,0.3 0.3,0.3 0.3,0.3 0.3,0.3 0.3,0.3 l 2.8,0 0,10.1 c 0,0.3 0,0.8 0.3,1.2 0.3,0.3 0.8,0.3 1.2,0.3 0.4,0 0.8,0 1.2,-0.3 0.4,-0.3 0.3,-0.8 0.3,-1.2 l 0,-10 c 0,0 0,0 0.3,0 0.3,0 0.3,0 0.8,0 0.3,0 0.3,0 0.3,0 l 0,10.1 c 0,0.3 0,0.8 0.3,1.2 0.3,0.3 0.8,0.3 1.2,0.3 0.3,0 0.8,0 1.2,-0.3 0.3,-0.3 0.3,-0.8 0.3,-1.2 l 0,-9.8 2.8,0 c 0,0 0.3,0 0.3,-0.3 0.3,-0.3 0.3,-0.3 0.3,-0.3 l 0,-1.3 0.6,0 z"
               style="opacity:1;fill:#ffffff;enable-background:new" />
            <path
               id="path361_6_"
               class="st8"
               d="m 460.5,1994.7 c 0,0.8 0.3,1.7 0.8,2.5 0.8,0.8 1.2,0.8 2.5,0.8 0.8,0 1.7,-0.3 2.5,-0.8 0.8,-0.8 0.8,-1.7 0.8,-2.5 0,-0.8 -0.3,-1.7 -0.8,-2.5 -0.8,-0.8 -1.2,-0.8 -2.5,-0.8 -0.8,0 -1.7,0.3 -2.5,0.8 -0.8,1 -0.8,1.9 -0.8,2.5"
               style="opacity:1;fill:#ffffff;enable-background:new" />
            <path
               id="path363_6_"
               class="st8"
               d="m 480,1994.7 c 0,0.8 0.3,1.7 0.8,2.5 0.8,0.8 1.2,0.8 2.5,0.8 1.2,0 1.7,-0.3 2.5,-0.8 0.8,-0.8 0.8,-1.2 0.8,-2.5 0,-0.8 -0.3,-1.7 -0.8,-2.5 -0.8,-0.8 -1.2,-0.8 -2.5,-0.8 -1.3,0 -1.7,0.3 -2.5,0.8 -0.3,1 -0.8,1.9 -0.8,2.5"
               style="opacity:1;fill:#ffffff;enable-background:new" />
          </g>
          <rect
             id="rect475_7_"
             x="388.89999"
             y="1928"
             class="st13"
             width="171.60001"
             height="52.799999"
             style="fill:#6f4d80" />
          <g
             id="XMLID_2097_">
            <path
               id="XMLID_2104_"
               class="st5"
               d="m 421,1943.7 c 1.3,1.3 2.2,3.5 2.2,6.5 l 0,17.3 -6.5,0 -14.1,0 -1.3,0 0,-25.7 6.5,0 7.8,0 c 2.1,-0.1 3.9,0.6 5.4,1.9 z m -4.5,19 0,-12.8 c 0,-2.2 -1,-3.3 -3,-3.3 l -6,0 0,15.9 9,0 0,0.2 z"
               style="fill:#ffffff" />
            <path
               id="XMLID_2103_"
               class="st5"
               d="m 429.1,1947.1 -0.5,-5.3 6.5,0 0.5,5.3 0,7 0,2.8 -6.5,1.2 0,-11 z"
               style="fill:#ffffff" />
            <path
               id="XMLID_2102_"
               class="st5"
               d="m 440.1,1963.8 c 1.2,-0.2 2,-0.3 2.5,-0.7 0.5,-0.3 1,-0.8 1.2,-1.3 0.2,-0.7 0.3,-1.5 0.3,-2.5 l 0,-17.6 13.6,0 c 2.3,0 4.3,0.7 5.6,2 1.3,1.3 2,3.5 2,6.5 l 0,17.3 -6.5,0 0,-17.6 c 0,-2.2 -1,-3.3 -3,-3.3 l -5.3,0 0,11.8 c 0,2.3 -0.3,4.2 -1,5.5 -0.7,1.3 -1.8,2.3 -3.2,3 -1.5,0.7 -3.3,1.2 -5.8,1.3 l -0.4,-4.4 z"
               style="fill:#ffffff" />
            <path
               id="XMLID_2101_"
               class="st5"
               d="m 471.8,1947.1 -0.5,-5.3 6.5,0 0.5,5.3 0,20.4 -6.5,0 0,-20.4 z"
               style="fill:#ffffff" />
            <path
               id="XMLID_2100_"
               class="st5"
               d="m 494.9,1949.9 c 0,-2.2 -1,-3.3 -3,-3.3 l -8.8,0 0,-4.8 10.6,0 c 2.3,0 4.3,0.7 5.6,2 1.3,1.3 2.2,3.5 2.2,6.5 l 0,17.3 -6.5,0 0,-17.6 -0.1,0 z"
               style="fill:#ffffff" />
            <path
               id="XMLID_2099_"
               class="st5"
               d="m 507.7,1947.1 -0.5,-5.3 6.5,0 0.5,5.3 0,7 0,2.8 -6.5,1.2 0,-11 z"
               style="fill:#ffffff" />
            <path
               id="XMLID_2098_"
               class="st5"
               d="m 541.3,1963.2 c -3.7,3.2 -9.3,4.7 -16.9,4.7 l -1.4,0 -3.3,-26.2 6.1,0 1.3,11.1 c 1.2,-0.7 2,-1.5 2.5,-2.7 0.5,-1.2 0.7,-3 0.7,-5.5 l 0,-3 6.1,0 0,2.8 c 0,3.3 -0.7,6 -2,8 -1.3,2 -3.5,3.7 -6.6,4.7 l 0.7,5.1 c 4.3,-0.3 7.3,-1.5 9.1,-3.7 1.8,-2.2 2.7,-5.3 2.7,-9.3 l -0.2,-8 6.5,0 0,7.5 c 0.1,6.7 -1.7,11.3 -5.3,14.5 z"
               style="fill:#ffffff" />
          </g>
        </g>
        <g
           id="XMLID_2084_">
          <path
             id="XMLID_2095_"
             class="st14"
             d="m 477.6,1754.2 -0.3,-4 4.8,0 0.3,4 0,22.1 -4.8,0 0,-22.1 z"
             style="fill:#f6f6f6" />
          <path
             id="XMLID_2094_"
             class="st14"
             d="m 487.1,1754.2 -0.3,-4 4.8,0 0.3,4 0,15.3 -4.8,0 0,-15.3 z"
             style="fill:#f6f6f6" />
          <path
             id="XMLID_2093_"
             class="st14"
             d="m 496.7,1754.2 -0.3,-4 4.8,0 0.3,4 0,5.3 0,2.2 -4.8,0.8 0,-8.3 z"
             style="fill:#f6f6f6" />
          <path
             id="XMLID_2092_"
             class="st14"
             d="m 520.2,1750.4 0,4 -6.1,15.3 -4.8,0 6,-15.6 -9.8,0 0,-8.6 4.3,0 0,5 10.4,0 z"
             style="fill:#f6f6f6" />
          <path
             id="XMLID_2091_"
             class="st14"
             d="m 540.1,1750.4 c 0,4.5 -0.2,7.8 -0.5,10.1 -0.3,2.3 -1.2,4.2 -2.7,5.8 -1.3,1.5 -3.7,2.7 -6.8,3.3 l -7.3,1.5 -0.7,-3.8 5.3,-1 -3.8,-15.8 4.8,0 3.5,14.8 c 1,-0.5 1.8,-1.3 2.2,-2.3 0.5,-1 0.7,-2.3 0.8,-3.7 0.2,-1.5 0.2,-3.7 0.2,-6.6 l 0,-2.2 5,0 0,-0.1 z"
             style="fill:#f6f6f6" />
          <path
             id="XMLID_2088_"
             class="st14"
             d="m 565.2,1767 c -2.7,1.8 -6.5,2.7 -11.5,2.8 l -1.8,-15.9 -0.5,-3.7 10.5,0 c 2.2,0 4,0.7 5.1,1.8 1.2,1.3 1.8,3 2,5.1 l 0,1.2 c 0,4.2 -1.3,7 -3.8,8.7 z m -3.5,-2.3 c 0.8,-0.5 1.5,-1.3 1.8,-2.3 0.3,-1 0.5,-2.3 0.5,-4 l 0,-1 c 0,-1 -0.2,-1.8 -0.7,-2.5 -0.5,-0.7 -1.2,-0.8 -2,-0.8 l -4.7,0 1.3,11.6 c 1.6,-0.2 2.8,-0.5 3.8,-1 z"
             style="fill:#f6f6f6" />
          <path
             id="XMLID_2087_"
             class="st14"
             d="m 587.1,1750.4 0,4 -6.1,15.3 -4.8,0 6,-15.6 -9.8,0 0,-8.6 4.3,0 0,5 10.4,0 z"
             style="fill:#f6f6f6" />
          <path
             id="XMLID_2086_"
             class="st14"
             d="m 590.8,1766 6.8,0 c 1.3,0 2.3,-0.5 3,-1.3 0.7,-0.8 1.2,-2 1.2,-3.5 l 0,-2.5 c 0,-1.5 -0.3,-2.5 -1,-3.5 -0.7,-1 -1.7,-1.3 -2.8,-1.3 l -2.3,0 -0.7,2.8 c 0,0.3 -0.2,0.5 -0.2,0.8 0,0.5 0.2,1 0.5,1.3 0.3,0.3 0.8,0.5 1.7,0.7 l -0.8,3 c -2,0 -3.5,-0.5 -4.3,-1.3 -0.8,-0.8 -1.3,-2 -1.3,-3.5 0,-0.5 0,-1 0.2,-1.5 l 1.3,-6.1 7.1,0 c 2.3,0 4.2,0.8 5.5,2.3 1.3,1.5 2,3.7 2,6.3 l 0,2 c 0,2.7 -0.7,4.8 -2.2,6.3 -1.5,1.5 -3.3,2.3 -5.8,2.3 l -8,0 0,-3.3 0.1,0 z"
             style="fill:#f6f6f6" />
          <path
             id="XMLID_2085_"
             class="st14"
             d="m 627,1767.3 c -1.5,1.8 -3.5,2.7 -6.1,2.7 -1,0 -2,-0.2 -3.2,-0.3 l 0.5,-3.7 c 0.8,0.2 1.5,0.3 2.2,0.3 1.5,0 2.7,-0.5 3.3,-1.5 0.6,-1 1,-2.5 1,-4.5 0,-2.2 -0.3,-3.8 -1,-4.8 -0.7,-1 -1.5,-1.5 -2.8,-1.5 -0.8,0 -1.7,0.3 -2.3,0.8 -0.7,0.5 -1,1.3 -1.2,2.2 l -2.2,12.8 -4.8,0 2.3,-13 -2.7,-6.3 5.1,0 1.3,3.8 c 0.5,-1.3 1.2,-2.5 2.2,-3.2 1,-0.7 2,-1 3.3,-1 2.5,0 4.3,0.8 5.5,2.5 1.3,1.7 1.8,4.2 1.8,7.5 -0.1,3.1 -0.9,5.4 -2.2,7.2 z"
             style="fill:#f6f6f6" />
        </g>
        <g
           id="XMLID_2069_">
          <g
             id="XMLID_861_">
            <path
               id="XMLID_867_"
               class="st1"
               d="m 713.9,1564.2 c 3.2,-3 5.5,-5.3 7.1,-7 1.7,-1.7 3,-3.3 4,-5 1,-1.5 1.5,-3 1.5,-4.3 0,-1.5 -0.3,-2.5 -1.2,-3.3 -0.8,-0.8 -1.8,-1.2 -3.2,-1.2 -1,0 -1.8,0.3 -2.7,0.8 -0.8,0.5 -1.7,1.3 -2.5,2.2 l -3.3,-3.3 c 1.5,-1.5 2.8,-2.7 4.3,-3.5 1.5,-0.7 3.2,-1.2 5.1,-1.2 2.8,0 5,0.8 6.8,2.5 1.7,1.7 2.5,3.8 2.5,6.6 0,2.2 -0.8,4.5 -2.5,7 -1.7,2.3 -4,5.1 -7.1,8.5 1.7,-0.2 3.3,-0.3 4.8,-0.3 l 6.1,0 0,5.1 -19.9,0 0,-3.6 z"
               style="fill:#bbbade" />
            <path
               id="XMLID_866_"
               class="st1"
               d="m 769.2,1542.1 0,5.3 -8.1,20.4 -6.5,0 8.1,-20.9 -13.1,0 0,-11.5 5.8,0 0,6.6 13.8,0 z"
               style="fill:#bbbade" />
            <path
               id="XMLID_865_"
               class="st1"
               d="m 774.5,1547.2 -0.5,-5.3 6.5,0 0.5,5.3 0,20.6 -6.5,0 0,-20.6 z"
               style="fill:#bbbade" />
            <path
               id="XMLID_864_"
               class="st1"
               d="m 785.8,1562.8 7.1,0 c 1.7,0 3,-0.5 3.8,-1.7 0.8,-1.2 1.2,-2.7 1.2,-4.7 l 0,-3.3 c 0,-2 -0.3,-3.5 -1.2,-4.7 -0.8,-1.2 -2.2,-1.7 -3.8,-1.7 l -7.1,0 0,-4.8 9,0 c 3.2,0 5.6,1 7.3,3.2 1.7,2.2 2.5,4.8 2.5,8.5 l 0,2.7 c 0,3.7 -0.8,6.5 -2.5,8.5 -1.7,2 -4.2,3.2 -7.3,3.2 l -9,0 0,-5.2 z"
               style="fill:#bbbade" />
            <path
               id="XMLID_863_"
               class="st1"
               d="m 831,1563.5 c -3.7,3.2 -9.3,4.7 -16.9,4.7 l -1.3,0 -3.3,-26.2 6.1,0 1.3,11.1 c 1.2,-0.7 2,-1.5 2.5,-2.7 0.5,-1.2 0.7,-3 0.7,-5.5 l 0,-3 6.1,0 0,2.8 c 0,3.3 -0.7,6 -2,8 -1.3,2 -3.5,3.7 -6.6,4.7 l 0.7,5.1 c 4.3,-0.3 7.3,-1.5 9.1,-3.7 1.8,-2.2 2.7,-5.3 2.7,-9.3 l -0.2,-8 6.5,0 0,7.5 c 0,6.7 -1.8,11.3 -5.4,14.5 z"
               style="fill:#bbbade" />
            <path
               id="XMLID_862_"
               class="st1"
               d="m 858.9,1567.8 -8.5,-13.1 -4,13.1 -6.1,0 5,-15.4 1.3,-3.5 -4.2,-6.8 6.5,0 3.7,5.8 3.3,5 1.2,-4.2 1.8,-6.6 6.1,0 -5.5,16.4 6.1,9.3 -6.7,0 z"
               style="fill:#bbbade" />
          </g>
        </g>
        <g
           id="XMLID_2054_">
          <g
             id="XMLID_833_">
            <path
               id="XMLID_876_"
               class="st1"
               d="m 670,1815.7 6.3,0 0,-17.3 -5.3,0 0,-3.8 c 1.5,-0.3 2.8,-0.7 3.8,-1 1.2,-0.3 2.2,-0.8 3.2,-1.5 l 4.5,0 0,23.8 5.5,0 0,5 -18,0 0,-5.2 z"
               style="fill:#bbbade" />
            <path
               id="XMLID_860_"
               class="st1"
               d="m 723.3,1794.9 0,5.3 -8.1,20.4 -6.5,0 8.1,-20.9 -13.3,0 0,-11.5 5.8,0 0,6.6 14,0 z"
               style="fill:#bbbade" />
            <path
               id="XMLID_859_"
               class="st1"
               d="m 728.6,1800.2 -0.5,-5.3 6.5,0 0.5,5.3 0,20.4 -6.5,0 0,-20.4 z"
               style="fill:#bbbade" />
            <path
               id="XMLID_857_"
               class="st1"
               d="m 739.9,1815.8 7.1,0 c 1.7,0 3,-0.5 3.8,-1.7 0.8,-1.2 1.2,-2.7 1.2,-4.7 l 0,-3.3 c 0,-2 -0.3,-3.5 -1.2,-4.7 -0.8,-1.2 -2.2,-1.7 -3.8,-1.7 l -7.1,0 0,-4.8 9,0 c 3.2,0 5.6,1 7.3,3.2 1.7,2.2 2.5,4.8 2.5,8.5 l 0,2.7 c 0,3.7 -0.8,6.5 -2.5,8.5 -1.7,2 -4.2,3.2 -7.3,3.2 l -9,0 0,-5.2 z"
               style="fill:#bbbade" />
            <path
               id="XMLID_835_"
               class="st1"
               d="m 785.1,1816.5 c -3.7,3.2 -9.3,4.7 -16.9,4.7 l -1.3,0 -3.3,-26.2 6.1,0 1.3,11.1 c 1.2,-0.7 2,-1.5 2.5,-2.7 0.5,-1.2 0.7,-3 0.7,-5.5 l 0,-3 6.1,0 0,2.8 c 0,3.3 -0.7,6 -2,8 -1.3,2 -3.5,3.7 -6.6,4.7 l 0.7,5.1 c 4.3,-0.3 7.3,-1.5 9.1,-3.7 1.8,-2.2 2.7,-5.3 2.7,-9.3 l -0.2,-8 6.5,0 0,7.5 c 0.1,6.7 -1.7,11.3 -5.4,14.5 z"
               style="fill:#bbbade" />
            <path
               id="XMLID_834_"
               class="st1"
               d="m 813,1820.8 -8.5,-13.1 -4,13.1 -6.1,0 5,-15.4 1.3,-3.5 -4.2,-6.8 6.5,0 3.7,5.8 3.3,5 1.2,-4.2 1.8,-6.6 6.1,0 -5.5,16.4 6.1,9.3 -6.7,0 0,0 z"
               style="fill:#bbbade" />
          </g>
        </g>
        <g
           id="XMLID_2017_">
          <g
             id="XMLID_1063_">
            <path
               id="XMLID_1081_"
               class="st1"
               d="m 828.1,1877.3 4.5,14.1 -6.1,0 -10.8,-34.7 6.1,0 4,12.6 5.3,-12.6 6.1,0 -9.1,20.6 z"
               style="fill:#bbbade" />
            <path
               id="XMLID_1080_"
               class="st1"
               d="m 852.4,1864.8 c 0,-2.2 -1,-3.3 -3,-3.3 l -8.8,0 0,-4.8 10.6,0 c 2.3,0 4.3,0.7 5.6,2 1.3,1.3 2.2,3.5 2.2,6.5 l 0,17.3 -6.5,0 0,-17.6 -0.1,0 z"
               style="fill:#bbbade" />
            <path
               id="XMLID_1079_"
               class="st1"
               d="m 865.2,1862 -0.5,-5.3 6.5,0 0.5,5.3 0,20.4 -6.5,0 0,-20.4 z"
               style="fill:#bbbade" />
            <path
               id="XMLID_1078_"
               class="st1"
               d="m 878,1862 -0.5,-5.3 6.5,0 0.5,5.3 0,20.4 -6.5,0 0,-20.4 z"
               style="fill:#bbbade" />
            <path
               id="XMLID_1077_"
               class="st1"
               d="m 911.5,1878.1 c -3.7,3.2 -9.3,4.7 -16.9,4.7 l -1.3,0 -3.3,-26.2 6.1,0 1.3,11.1 c 1.2,-0.7 2,-1.5 2.5,-2.7 0.5,-1.2 0.7,-3 0.7,-5.5 l 0,-3 6.1,0 0,2.8 c 0,3.3 -0.7,6 -2,8 -1.3,2 -3.5,3.7 -6.6,4.7 l 0.7,5.1 c 4.3,-0.3 7.3,-1.5 9.1,-3.7 1.8,-2.2 2.7,-5.3 2.7,-9.3 l -0.2,-8 6.5,0 0,7.5 c 0.1,6.7 -1.7,11.4 -5.4,14.5 z"
               style="fill:#bbbade" />
            <path
               id="XMLID_1074_"
               class="st1"
               d="m 952.2,1858.7 c 1.3,1.3 2.2,3.5 2.2,6.5 l 0,17.3 -6.6,0 -14.1,0 -1.3,0 0,-25.7 6.5,0 7.8,0 c 2.2,-0.1 4.2,0.6 5.5,1.9 z m -4.5,18.9 0,-12.8 c 0,-2.2 -1,-3.3 -3,-3.3 l -6,0 0,15.9 9,0 0,0.2 z"
               style="fill:#bbbade" />
            <path
               id="XMLID_1073_"
               class="st1"
               d="m 960.5,1862 -0.5,-5.3 6.5,0 0.5,5.3 0,20.4 -6.5,0 0,-20.4 z"
               style="fill:#bbbade" />
            <path
               id="XMLID_1072_"
               class="st1"
               d="m 973.3,1862 -0.5,-5.3 6.5,0 0.5,5.3 0,7 0,2.8 -6.5,1.2 0,-11 z"
               style="fill:#bbbade" />
            <path
               id="XMLID_1071_"
               class="st1"
               d="m 996.4,1864.8 c 0,-2.2 -1,-3.3 -3,-3.3 l -8.8,0 0,-4.8 10.6,0 c 2.3,0 4.3,0.7 5.6,2 1.3,1.3 2.2,3.5 2.2,6.5 l 0,17.3 -6.5,0 0,-17.6 -0.1,0 z"
               style="fill:#bbbade" />
            <path
               id="XMLID_1070_"
               class="st1"
               d="m 1009.2,1862 -0.5,-5.3 6.5,0 0.5,5.3 0,20.4 -6.5,0 0,-20.4 z"
               style="fill:#bbbade" />
            <path
               id="XMLID_1068_"
               class="st1"
               d="m 1021.2,1856.7 6.5,0 2.2,20.4 c 3.2,-0.3 5.3,-1.2 6.6,-2.8 1.3,-1.7 2,-3.8 1.8,-6.6 l 0,-1.3 c 0,-1.3 -0.3,-2.5 -1.2,-3.5 -0.7,-1 -1.8,-1.5 -3.3,-1.5 l -2.2,-0.2 0.5,-5 2.8,0.2 c 2.8,0.2 5.1,1 6.8,2.7 1.8,1.7 2.7,3.8 2.8,6.8 l 0,1.3 c 0.2,5.3 -1.5,9.1 -5.1,11.8 -3.7,2.5 -8.8,4 -15.6,4.2 l -2.6,-26.5 z"
               style="fill:#bbbade" />
            <path
               id="XMLID_1067_"
               class="st1"
               d="m 1049.9,1862 -0.5,-5.3 6.5,0 0.5,5.3 0,7 0,2.8 -6.5,1.2 0,-11 z"
               style="fill:#bbbade" />
            <path
               id="XMLID_1066_"
               class="st1"
               d="m 1071.8,1866.8 c 0,-1.2 0.2,-2.2 0.3,-3.2 0.2,-1 0.5,-1.7 1,-2.2 l -11.6,0 0,-4.8 21.1,0 0,4.8 -3.5,0 c -0.5,1.3 -0.8,3 -0.8,5.3 l 0,15.6 -6.5,0 0,-15.5 z"
               style="fill:#bbbade" />
            <path
               id="XMLID_1065_"
               class="st1"
               d="m 1088.3,1862 -0.5,-5.3 6.5,0 0.5,5.3 0,20.4 -6.5,0 0,-20.4 z"
               style="fill:#bbbade" />
            <path
               id="XMLID_1064_"
               class="st1"
               d="m 1117.9,1882.4 -8.5,-13.1 -4,13.1 -6.1,0 5,-15.4 1.3,-3.5 -4.2,-6.8 6.5,0 3.7,5.8 3.3,5 1.2,-4.2 1.8,-6.6 6.1,0 -5.5,16.4 6.1,9.3 -6.7,0 0,0 z"
               style="fill:#bbbade" />
          </g>
        </g>
        <g
           id="XMLID_1988_">
          <g
             id="XMLID_1003_">
            <g
               id="XMLID_1004_">
              <path
                 id="XMLID_1014_"
                 class="st12"
                 d="m 1309.4,2217.3 c 1.3,1.3 2.2,3.5 2.2,6.5 l 0,17.3 -6.5,0 -14.1,0 -1.3,0 0,-25.7 6.5,0 7.8,0 c 2.1,-0.1 4.1,0.6 5.4,1.9 z m -4.5,19 0,-12.8 c 0,-2.2 -1,-3.3 -3,-3.3 l -6,0 0,15.9 9,0 0,0.2 z"
                 style="fill:#f58020" />
              <path
                 id="XMLID_1013_"
                 class="st12"
                 d="m 1317.7,2220.7 -0.5,-5.3 6.5,0 0.5,5.3 0,7 0,2.8 -6.5,1.2 0,-11 z"
                 style="fill:#f58020" />
              <path
                 id="XMLID_1012_"
                 class="st12"
                 d="m 1344.6,2230.6 6,10.6 -6.5,0 -15,0 0,-4.8 12.3,0 -11.8,-20.9 6.5,0 5.1,9.1 3.7,-9.1 6.5,0 -6.8,15.1 z"
                 style="fill:#f58020" />
              <path
                 id="XMLID_1011_"
                 class="st12"
                 d="m 1356.4,2236.3 9.1,0 c 1.7,0 3.2,-0.5 4.2,-1.7 1,-1.2 1.5,-2.7 1.5,-4.7 l 0,-3.3 c 0,-1.8 -0.5,-3.5 -1.3,-4.7 -0.8,-1.2 -2.2,-1.7 -3.8,-1.7 l -3.3,0 -0.8,3.8 c -0.2,0.3 -0.2,0.8 -0.2,1.2 0,0.8 0.2,1.3 0.7,1.7 0.5,0.4 1.2,0.7 2.2,1 l -1,4 c -2.7,0 -4.7,-0.7 -5.8,-1.8 -1.2,-1.2 -1.8,-2.7 -1.8,-4.7 0,-0.7 0,-1.3 0.2,-2 l 1.8,-8.1 9.5,0 c 3.2,0 5.6,1 7.3,3.2 1.7,2.2 2.7,4.8 2.7,8.5 l 0,2.7 c 0,3.7 -1,6.5 -2.8,8.5 -1.8,2 -4.5,3 -7.6,3 l -10.6,0 0,-4.8 -0.2,0 z"
                 style="fill:#f58020" />
              <path
                 id="XMLID_1010_"
                 class="st12"
                 d="m 1402.7,2217.5 c 1.3,1.5 2.2,3.7 2.2,6.5 l 0,17.1 -6.5,0 0,-17.4 c 0,-2.3 -1,-3.5 -3,-3.5 l -6,0 0,20.9 -6.5,0 0,-22.8 0,-3 14.3,0 c 2.2,0 4.2,0.7 5.5,2.2 z"
                 style="fill:#f58020" />
              <path
                 id="XMLID_1009_"
                 class="st12"
                 d="m 1419.2,2237.4 c 1.2,-0.2 2,-0.3 2.5,-0.7 0.5,-0.3 1,-0.8 1.2,-1.3 0.2,-0.7 0.3,-1.5 0.3,-2.5 l 0,-17.6 13.6,0 c 2.3,0 4.3,0.7 5.6,2 1.3,1.3 2,3.5 2,6.5 l 0,17.3 -6.5,0 0,-17.6 c 0,-2.2 -1,-3.3 -3,-3.3 l -5.3,0 0,11.8 c 0,2.3 -0.3,4.2 -1,5.5 -0.7,1.3 -1.8,2.3 -3.2,3 -1.5,0.7 -3.3,1.2 -5.8,1.3 l -0.4,-4.4 z"
                 style="fill:#f58020" />
              <path
                 id="XMLID_1008_"
                 class="st12"
                 d="m 1461.2,2223.5 c 0,-2.2 -1,-3.3 -3,-3.3 l -8.8,0 0,-4.8 10.6,0 c 2.3,0 4.3,0.7 5.6,2 1.3,1.3 2.2,3.5 2.2,6.5 l 0,17.3 -6.5,0 0,-17.6 -0.1,0 z"
                 style="fill:#f58020" />
              <path
                 id="XMLID_1007_"
                 class="st12"
                 d="m 1474.2,2220.7 -0.5,-5.3 6.5,0 0.5,5.3 0,7 0,2.8 -6.5,1.2 0,-11 z"
                 style="fill:#f58020" />
              <path
                 id="XMLID_1006_"
                 class="st12"
                 d="m 1508.4,2238.1 c -2,2.3 -4.7,3.7 -8.1,3.7 -1.3,0 -2.7,-0.2 -4.2,-0.5 l 0.7,-4.8 c 1.2,0.2 2,0.3 2.8,0.3 2,0 3.5,-0.7 4.3,-2 0.8,-1.3 1.3,-3.3 1.3,-6.1 0,-3 -0.3,-5.1 -1.2,-6.5 -0.8,-1.3 -2.2,-2 -3.8,-2 -1.2,0 -2.2,0.3 -3,1.2 -0.8,0.8 -1.3,1.7 -1.5,3 l -2.8,17.1 -6.5,0 3.2,-17.4 -3.7,-8.5 6.8,0 1.8,5.1 c 0.7,-1.8 1.7,-3.3 2.8,-4.2 1.3,-1 2.7,-1.3 4.3,-1.3 3.2,0 5.6,1.2 7.3,3.3 1.7,2.2 2.5,5.5 2.5,10 0,4 -1,7.3 -3,9.6 z"
                 style="fill:#f58020" />
              <path
                 id="XMLID_1005_"
                 class="st12"
                 d="m 1537.8,2236.8 c -3.7,3.2 -9.3,4.7 -16.9,4.7 l -1.3,0 -3.3,-26.2 6.1,0 1.3,11.1 c 1.2,-0.7 2,-1.5 2.5,-2.7 0.5,-1.2 0.7,-3 0.7,-5.5 l 0,-3 6.1,0 0,2.8 c 0,3.3 -0.7,6 -2,8 -1.3,2 -3.5,3.7 -6.6,4.7 l 0.7,5.1 c 4.3,-0.3 7.3,-1.5 9.1,-3.7 1.8,-2.2 2.7,-5.3 2.7,-9.3 l -0.2,-8 6.5,0 0,7.5 c -0.1,6.8 -1.7,11.5 -5.4,14.5 z"
                 style="fill:#f58020" />
            </g>
          </g>
        </g>
        <g
           id="XMLID_1971_">
          <g
             id="XMLID_884_">
            <g
               id="XMLID_885_">
              <path
                 id="XMLID_892_"
                 class="st1"
                 d="m 485.3,1562 2.8,-4 c 2,2 4.2,3 6.5,3 1.5,0 2.7,-0.3 3.5,-1 0.8,-0.7 1.3,-1.5 1.3,-2.7 0,-1.5 -0.5,-2.5 -1.7,-3.3 -1.2,-0.7 -3.2,-1.2 -6.1,-1.2 l 0,-4.5 c 2.5,0 4.3,-0.3 5.3,-1 1,-0.7 1.7,-1.7 1.7,-3 0,-1.2 -0.3,-2 -1,-2.5 -0.7,-0.7 -1.7,-0.8 -2.8,-0.8 -1,0 -2,0.2 -2.8,0.7 -0.8,0.5 -1.8,1 -2.7,2 l -3.2,-3.8 c 2.8,-2.5 5.8,-3.7 9,-3.7 3,0 5.3,0.7 7,2 1.7,1.3 2.7,3.3 2.7,5.8 0,3 -1.7,5.1 -4.8,6.5 l 0,0.2 c 1.7,0.5 3.2,1.3 4.2,2.5 1,1.2 1.7,2.7 1.7,4.5 0,1.7 -0.5,3.2 -1.3,4.5 -1,1.3 -2.2,2.2 -3.8,2.8 -1.7,0.7 -3.3,1 -5.3,1 -4.6,0 -7.7,-1.3 -10.2,-4 z"
                 style="fill:#bbbade" />
              <path
                 id="XMLID_891_"
                 class="st1"
                 d="m 541.3,1539.7 0,5.3 -8.1,20.4 -6.5,0 8.1,-20.9 -13.1,0 0,-11.5 5.8,0 0,6.6 13.8,0 z"
                 style="fill:#bbbade" />
              <path
                 id="XMLID_890_"
                 class="st1"
                 d="m 546.6,1545.1 -0.5,-5.3 6.5,0 0.5,5.3 0,20.4 -6.5,0 0,-20.4 z"
                 style="fill:#bbbade" />
              <path
                 id="XMLID_888_"
                 class="st1"
                 d="m 558,1560.7 7.1,0 c 1.7,0 3,-0.5 3.8,-1.7 0.8,-1.2 1.2,-2.7 1.2,-4.7 l 0,-3.3 c 0,-2 -0.3,-3.5 -1.2,-4.7 -0.8,-1.2 -2.2,-1.7 -3.8,-1.7 l -7.1,0 0,-4.8 9,0 c 3.2,0 5.6,1 7.3,3.2 1.7,2.2 2.5,4.8 2.5,8.5 l 0,2.7 c 0,3.7 -0.8,6.5 -2.5,8.5 -1.7,2 -4.2,3.2 -7.3,3.2 l -9,0 0,-5.2 z"
                 style="fill:#bbbade" />
              <path
                 id="XMLID_887_"
                 class="st1"
                 d="m 603.2,1561.3 c -3.7,3.2 -9.3,4.7 -16.9,4.7 l -1.3,0 -3.3,-26.2 6.1,0 1.3,11.1 c 1.2,-0.7 2,-1.5 2.5,-2.7 0.5,-1.2 0.7,-3 0.7,-5.5 l 0,-3 6.1,0 0,2.8 c 0,3.3 -0.7,6 -2,8 -1.3,2 -3.5,3.7 -6.6,4.7 l 0.7,5.1 c 4.3,-0.3 7.3,-1.5 9.1,-3.7 1.8,-2.2 2.7,-5.3 2.7,-9.3 l -0.2,-8 6.5,0 0,7.5 c -0.1,6.7 -1.7,11.4 -5.4,14.5 z"
                 style="fill:#bbbade" />
              <path
                 id="XMLID_886_"
                 class="st1"
                 d="m 631,1565.5 -8.5,-13.1 -4,13.1 -6.1,0 5,-15.4 1.3,-3.5 -4.2,-6.8 6.5,0 3.7,5.8 3.3,5 1.2,-4.2 1.8,-6.6 6.1,0 -5.5,16.4 6.1,9.3 -6.7,0 z"
                 style="fill:#bbbade" />
            </g>
          </g>
        </g>
        <g
           id="XMLID_1930_">
          <g
             id="XMLID_1126_">
            <path
               id="XMLID_1148_"
               class="st12"
               d="m 1093.6,2027.8 -0.5,-5.3 6.5,0 0.5,5.3 0,29.6 -6.5,0 0,-29.6 z"
               style="fill:#f58020" />
            <path
               id="XMLID_1147_"
               class="st12"
               d="m 1106.4,2027.8 -0.5,-5.3 6.5,0 0.5,5.3 0,7 0,2.8 -6.5,1.2 0,-11 z"
               style="fill:#f58020" />
            <path
               id="XMLID_1146_"
               class="st12"
               d="m 1140.6,2022.5 c 0,6 -0.3,10.5 -0.7,13.6 -0.5,3 -1.7,5.6 -3.5,7.6 -1.8,2.2 -4.8,3.5 -9,4.3 l -9.6,1.8 -0.8,-5.1 7.1,-1.3 -5.1,-21.1 6.5,0 4.5,19.6 c 1.3,-0.7 2.3,-1.7 3,-3 0.7,-1.3 1,-3 1.2,-5 0.2,-2 0.2,-4.8 0.2,-8.8 l 0,-3 6.3,0 0,0.4 z"
               style="fill:#f58020" />
            <path
               id="XMLID_1145_"
               class="st12"
               d="m 1146.3,2027.8 -0.5,-5.3 6.5,0 0.5,5.3 0,7 0,2.8 -6.5,1.2 0,-11 z"
               style="fill:#f58020" />
            <path
               id="XMLID_1144_"
               class="st12"
               d="m 1168.2,2032.6 c 0,-1.2 0.2,-2.2 0.3,-3.2 0.2,-1 0.5,-1.7 1,-2.2 l -11.6,0 0,-4.8 21.1,0 0,4.8 -3.5,0 c -0.5,1.3 -0.8,3 -0.8,5.3 l 0,15.6 -6.5,0 0,-15.5 z"
               style="fill:#f58020" />
            <path
               id="XMLID_1143_"
               class="st12"
               d="m 1184.8,2027.8 -0.5,-5.3 6.5,0 0.5,5.3 0,20.4 -6.5,0 0,-20.4 z"
               style="fill:#f58020" />
            <path
               id="XMLID_1142_"
               class="st12"
               d="m 1219,2045.2 c -2,2.3 -4.7,3.7 -8.1,3.7 -1.3,0 -2.7,-0.2 -4.2,-0.5 l 0.7,-4.8 c 1.2,0.2 2,0.3 2.8,0.3 2,0 3.5,-0.7 4.3,-2 0.8,-1.3 1.3,-3.3 1.3,-6.1 0,-3 -0.3,-5.1 -1.2,-6.5 -0.8,-1.3 -2.2,-2 -3.8,-2 -1.2,0 -2.2,0.3 -3,1.2 -0.8,0.8 -1.3,1.7 -1.5,3 l -2.8,17.1 -6.5,0 3.2,-17.4 -3.7,-8.5 6.8,0 1.8,5.1 c 0.7,-1.8 1.7,-3.3 2.8,-4.2 1.3,-1 2.7,-1.3 4.3,-1.3 3.2,0 5.6,1.2 7.3,3.3 1.7,2.2 2.5,5.5 2.5,10 0,4 -1,7.3 -3,9.6 z"
               style="fill:#f58020" />
            <path
               id="XMLID_1141_"
               class="st12"
               d="m 1049.2,2070.7 -0.5,-5.3 6.5,0 0.5,5.3 0,7 0,2.8 -6.5,1.2 0,-11 z"
               style="fill:#f58020" />
            <path
               id="XMLID_1138_"
               class="st12"
               d="m 1068.2,2069.5 c 0.7,0.5 1,1.3 1,2.3 0,1.2 -0.3,2 -0.8,2.5 -0.7,0.7 -1.3,1 -2.3,1 -1.3,0 -2.3,-0.5 -3,-1.5 -0.7,-1 -1,-2.3 -1,-4.2 0,-4.2 2,-7.3 6.1,-9.3 l 1.3,2.7 c -1.3,0.7 -2.3,1.5 -3,2.3 -0.7,0.8 -1,2 -1,3.3 0.2,0 0.2,0 0.3,0 1.1,-0.1 1.7,0.2 2.4,0.9 z m 10.3,0 c 0.7,0.5 1,1.3 1,2.3 0,1.2 -0.3,2 -0.8,2.5 -0.7,0.7 -1.3,1 -2.3,1 -1.3,0 -2.3,-0.5 -3,-1.5 -0.7,-1 -1,-2.3 -1,-4.2 0,-4.2 2,-7.3 6.1,-9.3 l 1.3,2.7 c -1.3,0.7 -2.3,1.5 -3,2.3 -0.7,0.8 -1,2 -1,3.3 0.2,0 0.2,0 0.3,0 0.9,-0.1 1.7,0.2 2.4,0.9 z"
               style="fill:#f58020" />
            <path
               id="XMLID_1137_"
               class="st12"
               d="m 1103.6,2091.1 -8.5,-13.1 -4,13.1 -6.1,0 5,-15.4 1.3,-3.5 -4.2,-6.8 6.5,0 3.7,5.8 3.3,5 1.2,-4.2 1.8,-6.6 6.1,0 -5.5,16.4 6.1,9.3 -6.7,0 0,0 z"
               style="fill:#f58020" />
            <path
               id="XMLID_1136_"
               class="st12"
               d="m 1137.1,2088.1 c -2,2.3 -4.7,3.7 -8.1,3.7 -1.3,0 -2.7,-0.2 -4.2,-0.5 l 0.7,-4.8 c 1.2,0.2 2,0.3 2.8,0.3 2,0 3.5,-0.7 4.3,-2 0.8,-1.3 1.3,-3.3 1.3,-6.1 0,-3 -0.3,-5.1 -1.2,-6.5 -0.9,-1.4 -2.2,-2 -3.8,-2 -1.2,0 -2.2,0.3 -3,1.2 -0.8,0.9 -1.3,1.7 -1.5,3 l -2.8,17.1 -6.5,0 3.2,-17.4 -3.7,-8.5 6.8,0 1.8,5.1 c 0.7,-1.8 1.7,-3.3 2.8,-4.2 1.3,-1 2.7,-1.3 4.3,-1.3 3.2,0 5.6,1.2 7.3,3.3 1.7,2.2 2.5,5.5 2.5,10 0,4 -1,7.3 -3,9.6 z"
               style="fill:#f58020" />
            <path
               id="XMLID_1135_"
               class="st12"
               d="m 1162.5,2091.1 -8.5,-13.1 -4,13.1 -6.1,0 5,-15.4 1.3,-3.5 -4.2,-6.8 6.5,0 3.7,5.8 3.3,5 1.2,-4.2 1.8,-6.6 6.1,0 -5.5,16.4 6.1,9.3 -6.7,0 0,0 z"
               style="fill:#f58020" />
            <path
               id="XMLID_1134_"
               class="st12"
               d="m 1184.8,2070.7 -0.5,-5.3 6.5,0 0.5,5.3 0,29.6 -6.5,0 0,-29.6 z"
               style="fill:#f58020" />
            <path
               id="XMLID_1132_"
               class="st12"
               d="m 1196.3,2086.3 7.1,0 c 1.7,0 3,-0.5 3.8,-1.7 0.8,-1.2 1.2,-2.7 1.2,-4.7 l 0,-3.3 c 0,-2 -0.3,-3.5 -1.2,-4.7 -0.8,-1.2 -2.2,-1.7 -3.8,-1.7 l -7.1,0 0,-4.8 9,0 c 3.2,0 5.6,1 7.3,3.2 1.7,2.2 2.5,4.8 2.5,8.5 l 0,2.7 c 0,3.7 -0.8,6.5 -2.5,8.5 -1.7,2 -4.2,3.2 -7.3,3.2 l -9,0 0,-5.2 z"
               style="fill:#f58020" />
            <path
               id="XMLID_1131_"
               class="st12"
               d="m 1220.7,2070.7 -0.5,-5.3 6.5,0 0.5,5.3 0,20.4 -6.5,0 0,-20.4 0,0 z"
               style="fill:#f58020" />
            <path
               id="XMLID_1129_"
               class="st12"
               d="m 1242.6,2075.5 c 0,-1.2 0.2,-2.2 0.3,-3.2 0.2,-1 0.5,-1.7 1,-2.2 l -11.6,0 0,-4.8 21.1,0 0,4.8 -3.5,0 c -0.5,1.3 -0.8,3 -0.8,5.3 l 0,15.6 -6.5,0 0,-15.5 0,0 z"
               style="fill:#f58020" />
            <path
               id="XMLID_1128_"
               class="st12"
               d="m 1259.1,2070.7 -0.5,-5.3 6.5,0 0.5,5.3 0,20.4 -6.5,0 0,-20.4 z"
               style="fill:#f58020" />
          </g>
        </g>
      </g>
    </g>
  </g>
</svg>
