<?xml version="1.0" encoding="UTF-8" standalone="no"?>
<svg
   xmlns:dc="http://purl.org/dc/elements/1.1/"
   xmlns:cc="http://creativecommons.org/ns#"
   xmlns:rdf="http://www.w3.org/1999/02/22-rdf-syntax-ns#"
   xmlns:svg="http://www.w3.org/2000/svg"
   xmlns="http://www.w3.org/2000/svg"
   version="1.1"
   id="svg8640"
   viewBox="0 0 347.4 156.50004"
   height="44.167789mm"
   width="98.043999mm">
  <defs
     id="defs8642" />
  <metadata
     id="metadata8645">
    <rdf:RDF>
      <cc:Work
         rdf:about="">
        <dc:format>image/svg+xml</dc:format>
        <dc:type
           rdf:resource="http://purl.org/dc/dcmitype/StillImage" />
        <dc:title></dc:title>
      </cc:Work>
    </rdf:RDF>
  </metadata>
  <g
     transform="translate(-132.01428,-574.11218)"
     id="layer1">
    <rect
       id="rect309_2_"
       x="132.01428"
       y="574.11218"
       class="st13"
       width="347.39999"
       height="52.799999"
       style="fill:#6f4d80" />
    <g
       transform="translate(32.40002,0)"
       id="g9240">
      <path
         style="fill:#6f4d80"
         d="m 305.01426,665.31223 c 0,17.39999 -31.7,65.29999 -31.7,65.29999 0,0 -31.7,-47.8 -31.7,-65.29999 0,-17.5 14.3,-31.7 31.7,-31.7 17.6,0.5 31.7,14.3 31.7,31.7"
         class="st13"
         id="path395_2_" />
      <g
         transform="matrix(0.42702944,0,0,0.42702944,-515.43644,-935.91122)"
         id="g4679-4-9_2_">
        <path
           style="opacity:1;fill:#ffffff;enable-background:new"
           d="m 1872.7,3721.7 c 7.6,-0.3 14.6,-7 16.3,-14.3 -7.5,0 -14.8,7.3 -16.3,14.3 z m -16,-8.2 c -9,10.6 -22.3,15 -34.1,21.6 -10.6,4.8 -20.3,13.8 -32.1,14.6 -0.3,7.6 2.8,14.6 4,21.9 7.6,-2.5 11,-1.7 14.6,5.6 7.3,9.3 24.8,4 25.6,-7.6 10.6,0.3 21.1,-0.3 31.2,-0.8 4,4 15.4,3.3 13,-4.5 -2.8,-16.6 -8.1,-32.9 -13,-49.2 -1,-3.2 -6.4,-0.7 -9.2,-1.6 z"
           class="st8"
           id="path6-3-7_2_" />
        <path
           style="fill:#6f4d80"
           d="m 1856.7,3729.8 c -15.4,9 -31.2,17.9 -47.5,25.9 1.7,4 12.1,1.7 17.4,2.5 12.6,0 25.6,0 38.2,0 -1.6,-9.8 -3.6,-20.3 -8.1,-28.4 z"
           class="st13"
           id="path8-6-3_2_" />
        <path
           style="opacity:1;fill:#ffffff;enable-background:new"
           d="m 1882.8,3739.4 c 7,0 13.5,-2 19.9,-4 1.7,-9.8 -9.3,-4.5 -14.3,-2.5 -2.8,1.4 -5.6,3.4 -5.6,6.5 m 0,16.3 c 3.7,4.8 13,9 18.6,5.3 4,-6.1 -9.8,-5.3 -13.8,-7 -2,0.1 -3.3,0.9 -4.8,1.7 l 0,0 z"
           class="st8"
           id="path10-3-4_2_" />
        <path
           style="fill:#6f4d80"
           d="m 1810.5,3770 c 2.8,6.1 9.8,10.6 15,4.8 8.5,-8.1 -7.6,-4 -12.6,-4.8 -0.9,0 -1.5,0 -2.4,0 z"
           class="st13"
           id="path12-1-9_2_" />
      </g>
    </g>
    <g
       transform="translate(-665.68572,-1270.0876)"
       id="XMLID_2017_">
      <g
         id="XMLID_1063_">
        <path
           id="XMLID_1081_"
           class="st1"
           d="m 828.1,1877.3 4.5,14.1 -6.1,0 -10.8,-34.7 6.1,0 4,12.6 5.3,-12.6 6.1,0 -9.1,20.6 z"
           style="fill:#bbbade" />
        <path
           id="XMLID_1080_"
           class="st1"
           d="m 852.4,1864.8 c 0,-2.2 -1,-3.3 -3,-3.3 l -8.8,0 0,-4.8 10.6,0 c 2.3,0 4.3,0.7 5.6,2 1.3,1.3 2.2,3.5 2.2,6.5 l 0,17.3 -6.5,0 0,-17.6 -0.1,0 z"
           style="fill:#bbbade" />
        <path
           id="XMLID_1079_"
           class="st1"
           d="m 865.2,1862 -0.5,-5.3 6.5,0 0.5,5.3 0,20.4 -6.5,0 0,-20.4 z"
           style="fill:#bbbade" />
        <path
           id="XMLID_1078_"
           class="st1"
           d="m 878,1862 -0.5,-5.3 6.5,0 0.5,5.3 0,20.4 -6.5,0 0,-20.4 z"
           style="fill:#bbbade" />
        <path
           id="XMLID_1077_"
           class="st1"
           d="m 911.5,1878.1 c -3.7,3.2 -9.3,4.7 -16.9,4.7 l -1.3,0 -3.3,-26.2 6.1,0 1.3,11.1 c 1.2,-0.7 2,-1.5 2.5,-2.7 0.5,-1.2 0.7,-3 0.7,-5.5 l 0,-3 6.1,0 0,2.8 c 0,3.3 -0.7,6 -2,8 -1.3,2 -3.5,3.7 -6.6,4.7 l 0.7,5.1 c 4.3,-0.3 7.3,-1.5 9.1,-3.7 1.8,-2.2 2.7,-5.3 2.7,-9.3 l -0.2,-8 6.5,0 0,7.5 c 0.1,6.7 -1.7,11.4 -5.4,14.5 z"
           style="fill:#bbbade" />
        <path
           id="XMLID_1074_"
           class="st1"
           d="m 952.2,1858.7 c 1.3,1.3 2.2,3.5 2.2,6.5 l 0,17.3 -6.6,0 -14.1,0 -1.3,0 0,-25.7 6.5,0 7.8,0 c 2.2,-0.1 4.2,0.6 5.5,1.9 z m -4.5,18.9 0,-12.8 c 0,-2.2 -1,-3.3 -3,-3.3 l -6,0 0,15.9 9,0 0,0.2 z"
           style="fill:#bbbade" />
        <path
           id="XMLID_1073_"
           class="st1"
           d="m 960.5,1862 -0.5,-5.3 6.5,0 0.5,5.3 0,20.4 -6.5,0 0,-20.4 z"
           style="fill:#bbbade" />
        <path
           id="XMLID_1072_"
           class="st1"
           d="m 973.3,1862 -0.5,-5.3 6.5,0 0.5,5.3 0,7 0,2.8 -6.5,1.2 0,-11 z"
           style="fill:#bbbade" />
        <path
           id="XMLID_1071_"
           class="st1"
           d="m 996.4,1864.8 c 0,-2.2 -1,-3.3 -3,-3.3 l -8.8,0 0,-4.8 10.6,0 c 2.3,0 4.3,0.7 5.6,2 1.3,1.3 2.2,3.5 2.2,6.5 l 0,17.3 -6.5,0 0,-17.6 -0.1,0 z"
           style="fill:#bbbade" />
        <path
           id="XMLID_1070_"
           class="st1"
           d="m 1009.2,1862 -0.5,-5.3 6.5,0 0.5,5.3 0,20.4 -6.5,0 0,-20.4 z"
           style="fill:#bbbade" />
        <path
           id="XMLID_1068_"
           class="st1"
           d="m 1021.2,1856.7 6.5,0 2.2,20.4 c 3.2,-0.3 5.3,-1.2 6.6,-2.8 1.3,-1.7 2,-3.8 1.8,-6.6 l 0,-1.3 c 0,-1.3 -0.3,-2.5 -1.2,-3.5 -0.7,-1 -1.8,-1.5 -3.3,-1.5 l -2.2,-0.2 0.5,-5 2.8,0.2 c 2.8,0.2 5.1,1 6.8,2.7 1.8,1.7 2.7,3.8 2.8,6.8 l 0,1.3 c 0.2,5.3 -1.5,9.1 -5.1,11.8 -3.7,2.5 -8.8,4 -15.6,4.2 l -2.6,-26.5 z"
           style="fill:#bbbade" />
        <path
           id="XMLID_1067_"
           class="st1"
           d="m 1049.9,1862 -0.5,-5.3 6.5,0 0.5,5.3 0,7 0,2.8 -6.5,1.2 0,-11 z"
           style="fill:#bbbade" />
        <path
           id="XMLID_1066_"
           class="st1"
           d="m 1071.8,1866.8 c 0,-1.2 0.2,-2.2 0.3,-3.2 0.2,-1 0.5,-1.7 1,-2.2 l -11.6,0 0,-4.8 21.1,0 0,4.8 -3.5,0 c -0.5,1.3 -0.8,3 -0.8,5.3 l 0,15.6 -6.5,0 0,-15.5 z"
           style="fill:#bbbade" />
        <path
           id="XMLID_1065_"
           class="st1"
           d="m 1088.3,1862 -0.5,-5.3 6.5,0 0.5,5.3 0,20.4 -6.5,0 0,-20.4 z"
           style="fill:#bbbade" />
        <path
           id="XMLID_1064_"
           class="st1"
           d="m 1117.9,1882.4 -8.5,-13.1 -4,13.1 -6.1,0 5,-15.4 1.3,-3.5 -4.2,-6.8 6.5,0 3.7,5.8 3.3,5 1.2,-4.2 1.8,-6.6 6.1,0 -5.5,16.4 6.1,9.3 -6.7,0 0,0 z"
           style="fill:#bbbade" />
      </g>
    </g>
  </g>
</svg>
