<?xml version="1.0" encoding="UTF-8" standalone="no"?>
<svg
   xmlns:dc="http://purl.org/dc/elements/1.1/"
   xmlns:cc="http://creativecommons.org/ns#"
   xmlns:rdf="http://www.w3.org/1999/02/22-rdf-syntax-ns#"
   xmlns:svg="http://www.w3.org/2000/svg"
   xmlns="http://www.w3.org/2000/svg"
   version="1.1"
   id="svg7337"
   viewBox="0 0 304.20002 161.00004"
   height="45.43779mm"
   width="85.852005mm">
  <defs
     id="defs7339" />
  <metadata
     id="metadata7342">
    <rdf:RDF>
      <cc:Work
         rdf:about="">
        <dc:format>image/svg+xml</dc:format>
        <dc:type
           rdf:resource="http://purl.org/dc/dcmitype/StillImage" />
        <dc:title></dc:title>
      </cc:Work>
    </rdf:RDF>
  </metadata>
  <g
     transform="translate(-153.61427,-474.71933)"
     id="layer1">
    <rect
       id="rect475_10_"
       x="153.61427"
       y="474.71933"
       class="st13"
       width="304.20001"
       height="52.799999"
       style="fill:#6f4d80" />
    <g
       transform="translate(0.10004,0)"
       id="g7921">
      <path
         style="fill:#6f4d80"
         d="m 337.31423,570.41937 c 0,17.4 -31.7,65.3 -31.7,65.3 0,0 -31.7,-47.8 -31.7,-65.3 0,-17.5 14.3,-31.7 31.7,-31.7 17.6,0 31.7,14.3 31.7,31.7"
         class="st13"
         id="path487_2_" />
      <path
         style="opacity:1;fill:#ffffff;enable-background:new"
         d="m 305.61423,586.21937 c -9,0 -16.3,-7.3 -16.3,-16.3 0,-9 7.3,-16.3 16.3,-16.3 9,0 16.3,7.3 16.3,16.3 -0.1,9 -7.4,16.3 -16.3,16.3 m 0,-36.1 c -11,0 -19.9,9 -19.9,19.9 0,11 9,19.9 19.9,19.9 11,0 19.9,-9 19.9,-19.9 0,-10.9 -9,-19.9 -19.9,-19.9 m 0,17.5 c -1.2,0 -2.5,1.2 -2.5,2.5 l 0,7.3 c 0,1.2 1.2,2.5 2.5,2.5 1.2,0 2.5,-1.2 2.5,-2.5 l 0,-7.3 c -0.1,-1.4 -1.2,-2.5 -2.5,-2.5 m 0,-7.3 c -1.2,0 -2.5,1.2 -2.5,2.5 0,1.2 1.2,2.5 2.5,2.5 1.2,0 2.5,-1.2 2.5,-2.5 -0.1,-1.4 -1.2,-2.5 -2.5,-2.5"
         class="st8"
         id="path489_2_" />
    </g>
    <g
       transform="translate(-1113.2857,-1725.9805)"
       id="XMLID_1988_">
      <g
         id="XMLID_1003_">
        <g
           id="XMLID_1004_">
          <path
             id="XMLID_1014_"
             class="st12"
             d="m 1309.4,2217.3 c 1.3,1.3 2.2,3.5 2.2,6.5 l 0,17.3 -6.5,0 -14.1,0 -1.3,0 0,-25.7 6.5,0 7.8,0 c 2.1,-0.1 4.1,0.6 5.4,1.9 z m -4.5,19 0,-12.8 c 0,-2.2 -1,-3.3 -3,-3.3 l -6,0 0,15.9 9,0 0,0.2 z"
             style="fill:#f58020" />
          <path
             id="XMLID_1013_"
             class="st12"
             d="m 1317.7,2220.7 -0.5,-5.3 6.5,0 0.5,5.3 0,7 0,2.8 -6.5,1.2 0,-11 z"
             style="fill:#f58020" />
          <path
             id="XMLID_1012_"
             class="st12"
             d="m 1344.6,2230.6 6,10.6 -6.5,0 -15,0 0,-4.8 12.3,0 -11.8,-20.9 6.5,0 5.1,9.1 3.7,-9.1 6.5,0 -6.8,15.1 z"
             style="fill:#f58020" />
          <path
             id="XMLID_1011_"
             class="st12"
             d="m 1356.4,2236.3 9.1,0 c 1.7,0 3.2,-0.5 4.2,-1.7 1,-1.2 1.5,-2.7 1.5,-4.7 l 0,-3.3 c 0,-1.8 -0.5,-3.5 -1.3,-4.7 -0.8,-1.2 -2.2,-1.7 -3.8,-1.7 l -3.3,0 -0.8,3.8 c -0.2,0.3 -0.2,0.8 -0.2,1.2 0,0.8 0.2,1.3 0.7,1.7 0.5,0.4 1.2,0.7 2.2,1 l -1,4 c -2.7,0 -4.7,-0.7 -5.8,-1.8 -1.2,-1.2 -1.8,-2.7 -1.8,-4.7 0,-0.7 0,-1.3 0.2,-2 l 1.8,-8.1 9.5,0 c 3.2,0 5.6,1 7.3,3.2 1.7,2.2 2.7,4.8 2.7,8.5 l 0,2.7 c 0,3.7 -1,6.5 -2.8,8.5 -1.8,2 -4.5,3 -7.6,3 l -10.6,0 0,-4.8 -0.2,0 z"
             style="fill:#f58020" />
          <path
             id="XMLID_1010_"
             class="st12"
             d="m 1402.7,2217.5 c 1.3,1.5 2.2,3.7 2.2,6.5 l 0,17.1 -6.5,0 0,-17.4 c 0,-2.3 -1,-3.5 -3,-3.5 l -6,0 0,20.9 -6.5,0 0,-22.8 0,-3 14.3,0 c 2.2,0 4.2,0.7 5.5,2.2 z"
             style="fill:#f58020" />
          <path
             id="XMLID_1009_"
             class="st12"
             d="m 1419.2,2237.4 c 1.2,-0.2 2,-0.3 2.5,-0.7 0.5,-0.3 1,-0.8 1.2,-1.3 0.2,-0.7 0.3,-1.5 0.3,-2.5 l 0,-17.6 13.6,0 c 2.3,0 4.3,0.7 5.6,2 1.3,1.3 2,3.5 2,6.5 l 0,17.3 -6.5,0 0,-17.6 c 0,-2.2 -1,-3.3 -3,-3.3 l -5.3,0 0,11.8 c 0,2.3 -0.3,4.2 -1,5.5 -0.7,1.3 -1.8,2.3 -3.2,3 -1.5,0.7 -3.3,1.2 -5.8,1.3 l -0.4,-4.4 z"
             style="fill:#f58020" />
          <path
             id="XMLID_1008_"
             class="st12"
             d="m 1461.2,2223.5 c 0,-2.2 -1,-3.3 -3,-3.3 l -8.8,0 0,-4.8 10.6,0 c 2.3,0 4.3,0.7 5.6,2 1.3,1.3 2.2,3.5 2.2,6.5 l 0,17.3 -6.5,0 0,-17.6 -0.1,0 z"
             style="fill:#f58020" />
          <path
             id="XMLID_1007_"
             class="st12"
             d="m 1474.2,2220.7 -0.5,-5.3 6.5,0 0.5,5.3 0,7 0,2.8 -6.5,1.2 0,-11 z"
             style="fill:#f58020" />
          <path
             id="XMLID_1006_"
             class="st12"
             d="m 1508.4,2238.1 c -2,2.3 -4.7,3.7 -8.1,3.7 -1.3,0 -2.7,-0.2 -4.2,-0.5 l 0.7,-4.8 c 1.2,0.2 2,0.3 2.8,0.3 2,0 3.5,-0.7 4.3,-2 0.8,-1.3 1.3,-3.3 1.3,-6.1 0,-3 -0.3,-5.1 -1.2,-6.5 -0.8,-1.3 -2.2,-2 -3.8,-2 -1.2,0 -2.2,0.3 -3,1.2 -0.8,0.8 -1.3,1.7 -1.5,3 l -2.8,17.1 -6.5,0 3.2,-17.4 -3.7,-8.5 6.8,0 1.8,5.1 c 0.7,-1.8 1.7,-3.3 2.8,-4.2 1.3,-1 2.7,-1.3 4.3,-1.3 3.2,0 5.6,1.2 7.3,3.3 1.7,2.2 2.5,5.5 2.5,10 0,4 -1,7.3 -3,9.6 z"
             style="fill:#f58020" />
          <path
             id="XMLID_1005_"
             class="st12"
             d="m 1537.8,2236.8 c -3.7,3.2 -9.3,4.7 -16.9,4.7 l -1.3,0 -3.3,-26.2 6.1,0 1.3,11.1 c 1.2,-0.7 2,-1.5 2.5,-2.7 0.5,-1.2 0.7,-3 0.7,-5.5 l 0,-3 6.1,0 0,2.8 c 0,3.3 -0.7,6 -2,8 -1.3,2 -3.5,3.7 -6.6,4.7 l 0.7,5.1 c 4.3,-0.3 7.3,-1.5 9.1,-3.7 1.8,-2.2 2.7,-5.3 2.7,-9.3 l -0.2,-8 6.5,0 0,7.5 c -0.1,6.8 -1.7,11.5 -5.4,14.5 z"
             style="fill:#f58020" />
        </g>
      </g>
    </g>
  </g>
</svg>
