<?xml version="1.0" encoding="UTF-8" standalone="no"?>
<svg
   xmlns:dc="http://purl.org/dc/elements/1.1/"
   xmlns:cc="http://creativecommons.org/ns#"
   xmlns:rdf="http://www.w3.org/1999/02/22-rdf-syntax-ns#"
   xmlns:svg="http://www.w3.org/2000/svg"
   xmlns="http://www.w3.org/2000/svg"
   height="804.69"
   width="1297.97"
   id="svg404"
   xml:space="preserve"
   viewBox="0 0 1297.97 804.69"
   y="0px"
   x="0px"
   version="1.1"><metadata
   id="metadata410"><rdf:RDF><cc:Work
       rdf:about=""><dc:format>image/svg+xml</dc:format><dc:type
         rdf:resource="http://purl.org/dc/dcmitype/StillImage" /><dc:title></dc:title></cc:Work></rdf:RDF></metadata><defs
   id="defs408" />
<style
   id="style2"
   type="text/css">
	.st0{enable-background:new    ;}
	.st1{clip-path:url(#SVGID_2_);}
	.st2{fill:#EC2426;}
	.st3{fill:#FBF2DE;}
	.st4{fill:#F5AEC6;}
	.st5{fill:#8C4330;}
	.st6{fill:#FBF2DE;enable-background:new    ;}
	.st7{fill:#202656;}
	.st8{fill:#FFFFFF;}
	.st9{fill:#79D1ED;stroke:#FBF2DE;stroke-width:1.22;stroke-miterlimit:10;}
</style>



<polygon
   transform="translate(-364.55,-231.25999)"
   style="fill:#f5aec6"
   id="polygon69"
   points="1031.77,1025.84 1652.52,655.6 999.01,269.59 375.14,633.07 "
   class="st4" /><polygon
   transform="translate(-364.55,-231.25999)"
   style="fill:#8c4330"
   id="polygon71"
   points="1129.4,544.15 1127.69,576.58 1054.1,533.21 1055.29,500.46 "
   class="st5" /><polygon
   transform="translate(-364.55,-231.25999)"
   style="fill:#fbf2de;enable-background:new"
   id="polygon73"
   points="802.78,384.73 802.78,314.01 1456.02,696.28 1456.02,770.13 1192.16,614.46 1193.06,557.52 1139.48,528.65 1137.93,582.47 987.02,493.43 987.88,439.34 934.36,406.84 932.78,461.43 "
   class="st6" /><polygon
   transform="translate(-364.55,-231.25999)"
   style="fill:#fbf2de;enable-background:new"
   id="polygon75"
   points="688.62,822.41 686.27,778.46 1126.58,532.81 1124.59,577.61 "
   class="st6" /><polygon
   transform="translate(-364.55,-231.25999)"
   style="fill:#202656"
   id="polygon77"
   points="947.24,822.4 753.88,941.62 714.99,917.65 1183.14,639.76 1254.94,680.45 1015.3,828.78 1016.74,831.11 1256.93,681.58 1380.09,751.41 1169.97,875.54 1106.73,834.76 1264.32,733.84 1262.84,731.54 1104.73,832.79 1031.27,879.01 942.32,828.65 1175.54,685.31 1174.11,682.98 "
   class="st7" /><path
   style="fill:#202656"
   id="path79"
   d="m 655.11,348.00001 -127.94,-78.01 -37.46,21.84 87.37,52.54 -41.42,23.4 -206.65,-122.23 -77.23,44.59 208.64,124.52 -3.14,1.75 -207.48,-125.14 -78.25,45.18 205.66,122.55 -1.4,2.35 -206.85,-123.25 -78.68,45.27 113.38,69.17 -113.38,62.33 42.9,26.52 149.71,-85.97 -122.06,-71.03 1.39,-2.37 214.07,124.77 159.4,-90.77 -212.31,-123.91 1.39,-2.37 213.44,124.59 z m -203.02,113.35 -211.86,-124.83 1.4,-2.36 211.85,124.82 z"
   class="st7" /><polygon
   transform="translate(-364.55,-231.25999)"
   style="fill:#fbf2de;enable-background:new"
   id="polygon81"
   points="775.73,800.99 775.73,874.16 559.82,746.21 559.82,669.75 "
   class="st6" /><polygon
   transform="translate(-364.55,-231.25999)"
   style="fill:#fbf2de;enable-background:new"
   id="polygon83"
   points="1031.62,952.17 1031.62,1025.33 835.02,910.39 835.02,833.93 "
   class="st6" /><polygon
   transform="translate(-364.55,-231.25999)"
   style="fill:#fbf2de;enable-background:new"
   id="polygon85"
   points="512.56,640.63 512.56,713.79 374.55,635.08 374.55,558.63 "
   class="st6" /><polygon
   transform="translate(-364.55,-231.25999)"
   style="fill:#fbf2de;enable-background:new"
   id="polygon87"
   points="802.77,384.74 802.77,314 375.25,559.32 375.25,633.17 "
   class="st6" /><polygon
   transform="translate(-364.55,-231.25999)"
   style="fill:#ffffff"
   id="polygon89"
   points="1167.63,814 1150.46,825.52 1154.11,828.12 1160.52,824.48 1167.63,840.61 1142.32,835.58 1148.04,832.11 1137.98,825.52 1162.25,810.44 "
   class="st8" /><polygon
   transform="translate(-364.55,-231.25999)"
   style="fill:#ffffff"
   id="polygon91"
   points="585.24,694.98 574.06,711.88 567.69,707.98 550.26,720.2 543.11,715.65 562.49,704.34 557.28,700.31 "
   class="st8" /><polygon
   transform="translate(-364.55,-231.25999)"
   style="fill:#79d1ed;stroke:#fbf2de;stroke-width:1.22000003;stroke-miterlimit:10"
   id="polygon93"
   points="1061.08,405.07 986.97,364.33 1032.51,343.58 1110.16,382.66 "
   class="st9" /><g
   transform="translate(-364.55,-231.25999)"
   id="g101">
			<polygon
   style="fill:#79d1ed;stroke:#fbf2de;stroke-width:1.22000003;stroke-miterlimit:10"
   id="polygon95"
   points="886.57,429.29 812.46,388.55 837.09,377.33 908.97,418.2 "
   class="st9" />
			<polygon
   style="fill:#79d1ed;stroke:#fbf2de;stroke-width:1.22000003;stroke-miterlimit:10"
   id="polygon97"
   points="886.57,429.29 884.86,461.72 811.28,418.35 812.46,388.55 "
   class="st9" />
			<polygon
   style="fill:#79d1ed;stroke:#fbf2de;stroke-width:1.22000003;stroke-miterlimit:10"
   id="polygon99"
   points="884.86,461.72 886.57,429.29 909.46,418.72 908.97,448.99 "
   class="st9" />
		</g><g
   transform="translate(-364.55,-231.25999)"
   id="g109">
			<polygon
   style="fill:#79d1ed;stroke:#fbf2de;stroke-width:1.22000003;stroke-miterlimit:10"
   id="polygon103"
   points="1058.6,537.45 984.49,496.71 1009.12,485.49 1081,526.36 "
   class="st9" />
			<polygon
   style="fill:#79d1ed;stroke:#fbf2de;stroke-width:1.22000003;stroke-miterlimit:10"
   id="polygon105"
   points="1058.6,537.45 1056.89,569.89 983.31,526.51 984.49,496.71 "
   class="st9" />
			<polygon
   style="fill:#79d1ed;stroke:#fbf2de;stroke-width:1.22000003;stroke-miterlimit:10"
   id="polygon107"
   points="1056.89,569.89 1058.6,537.45 1081.49,526.88 1081,557.15 "
   class="st9" />
		</g><polygon
   transform="translate(-364.55,-231.25999)"
   style="fill:#79d1ed;stroke:#fbf2de;stroke-width:1.22000003;stroke-miterlimit:10"
   id="polygon111"
   points="1061.09,405.16 1059.38,437.6 985.8,394.22 986.98,364.42 "
   class="st9" /><polygon
   transform="translate(-364.55,-231.25999)"
   style="fill:#79d1ed;stroke:#fbf2de;stroke-width:1.22000003;stroke-miterlimit:10"
   id="polygon113"
   points="1059.38,437.6 1061.09,405.16 1110.16,382.66 1109.72,410.13 "
   class="st9" /><polygon
   transform="translate(-364.55,-231.25999)"
   style="fill:#ffffff"
   id="polygon115"
   points="804.3,897.94 815.14,881.3 788.35,886.85 792.95,890.31 775.09,900.54 781.24,904.88 798.32,893.61 "
   class="st8" /><g
   transform="translate(-364.55,-231.25999)"
   id="g123">
			<polygon
   style="fill:#79d1ed;stroke:#fbf2de;stroke-width:1.22000003;stroke-miterlimit:10"
   id="polygon117"
   points="1068.92,936.99 1040.75,920.53 1107.12,884 1133.25,901.9 "
   class="st9" />
			<polygon
   style="fill:#79d1ed;stroke:#fbf2de;stroke-width:1.22000003;stroke-miterlimit:10"
   id="polygon119"
   points="1068.92,936.99 1040.75,920.53 1041.05,948.9 1067.49,966.87 "
   class="st9" />
			<polygon
   style="fill:#79d1ed;stroke:#fbf2de;stroke-width:1.22000003;stroke-miterlimit:10"
   id="polygon121"
   points="1067.49,966.87 1068.92,936.99 1133.25,901.9 1133.1,928.43 "
   class="st9" />
		</g><g
   transform="translate(-364.55,-231.25999)"
   id="g131">
			<polygon
   style="fill:#79d1ed;stroke:#fbf2de;stroke-width:1.22000003;stroke-miterlimit:10"
   id="polygon125"
   points="1328.52,777.38 1299.79,761.9 1364.85,723.08 1391.59,740.06 "
   class="st9" />
			<polygon
   style="fill:#79d1ed;stroke:#fbf2de;stroke-width:1.22000003;stroke-miterlimit:10"
   id="polygon127"
   points="1328.52,777.38 1299.79,761.9 1301.09,790.25 1328.13,807.28 "
   class="st9" />
			<polygon
   style="fill:#79d1ed;stroke:#fbf2de;stroke-width:1.22000003;stroke-miterlimit:10"
   id="polygon129"
   points="1328.13,807.28 1328.52,777.38 1391.59,740.06 1392.37,766.58 "
   class="st9" />
		</g><g
   transform="translate(-364.55,-231.25999)"
   id="g139">
			<polygon
   style="fill:#79d1ed;stroke:#fbf2de;stroke-width:1.22000003;stroke-miterlimit:10"
   id="polygon133"
   points="1246.69,828.37 1217.96,812.9 1283.02,774.07 1309.76,791.06 "
   class="st9" />
			<polygon
   style="fill:#79d1ed;stroke:#fbf2de;stroke-width:1.22000003;stroke-miterlimit:10"
   id="polygon135"
   points="1246.69,828.37 1217.96,812.9 1219.26,841.25 1246.3,858.28 "
   class="st9" />
			<polygon
   style="fill:#79d1ed;stroke:#fbf2de;stroke-width:1.22000003;stroke-miterlimit:10"
   id="polygon137"
   points="1246.3,858.28 1246.69,828.37 1309.76,791.06 1310.54,817.57 "
   class="st9" />
		</g><g
   transform="translate(-364.55,-231.25999)"
   id="g147">
			<polygon
   style="fill:#79d1ed;stroke:#fbf2de;stroke-width:1.22000003;stroke-miterlimit:10"
   id="polygon141"
   points="1161.22,881.63 1132.49,866.16 1133.79,894.5 1160.83,911.53 "
   class="st9" />
			<polygon
   style="fill:#79d1ed;stroke:#fbf2de;stroke-width:1.22000003;stroke-miterlimit:10"
   id="polygon143"
   points="1161.22,881.63 1132.49,866.16 1197.55,827.33 1224.29,844.31 "
   class="st9" />
			<polygon
   style="fill:#79d1ed;stroke:#fbf2de;stroke-width:1.22000003;stroke-miterlimit:10"
   id="polygon145"
   points="1160.83,911.53 1161.22,881.63 1224.29,844.31 1225.07,870.83 "
   class="st9" />
		</g><polygon
   transform="translate(-364.55,-231.25999)"
   style="fill:#fbf2de;enable-background:new"
   id="polygon149"
   points="1032.4,952.79 1032.4,1025.95 1456.8,770.75 1456.8,696.9 "
   class="st6" /><polygon
   transform="translate(-364.55,-231.25999)"
   style="fill:#79d1ed;stroke:#fbf2de;stroke-width:1.22000003;stroke-miterlimit:10"
   id="polygon151"
   points="1350.3,438.14 1275.34,396.9 1276.64,425.25 1349.9,468.04 "
   class="st9" /><polygon
   transform="translate(-364.55,-231.25999)"
   style="fill:#79d1ed;stroke:#fbf2de;stroke-width:1.22000003;stroke-miterlimit:10"
   id="polygon153"
   points="1349.9,468.04 1350.3,438.14 1473.97,361.89 1473.97,390.88 "
   class="st9" /><polygon
   transform="translate(-364.55,-231.25999)"
   style="fill:#79d1ed;stroke:#fbf2de;stroke-width:1.22000003;stroke-miterlimit:10"
   id="polygon155"
   points="1473.97,361.89 1446.45,347.38 1342.92,409.79 1299.97,386.18 1275.34,397.4 1349.46,438.14 1349.86,437.9 1350.29,438.14 1371.12,425.3 "
   class="st9" />
</svg>