<?xml version="1.0" encoding="UTF-8" standalone="no"?>
<svg
   xmlns:dc="http://purl.org/dc/elements/1.1/"
   xmlns:cc="http://creativecommons.org/ns#"
   xmlns:rdf="http://www.w3.org/1999/02/22-rdf-syntax-ns#"
   xmlns:svg="http://www.w3.org/2000/svg"
   xmlns="http://www.w3.org/2000/svg"
   width="222.58"
   height="104.75003"
   viewBox="0 0 58.890957 27.715113"
   version="1.1"
   id="svg5405">
  <defs
     id="defs5399" />
  <metadata
     id="metadata5402">
    <rdf:RDF>
      <cc:Work
         rdf:about="">
        <dc:format>image/svg+xml</dc:format>
        <dc:type
           rdf:resource="http://purl.org/dc/dcmitype/StillImage" />
        <dc:title></dc:title>
      </cc:Work>
    </rdf:RDF>
  </metadata>
  <g
     id="layer1"
     transform="translate(-96.043938,-122.12459)">
    <path
       style="fill:#ec2426;stroke-width:0.26458332"
       d="m 130.98481,138.53405 c 0,3.02154 -5.4954,11.30565 -5.4954,11.30565 0,0 -5.4954,-8.28411 -5.4954,-11.30565 0,-3.02154 2.47386,-5.4954 5.4954,-5.4954 3.048,0.0318 5.4954,2.4765 5.4954,5.4954"
       class="st2"
       id="path429_5_" />
    <rect
       style="fill:#ec2426;stroke-width:0.26458332"
       height="9.149292"
       width="58.888313"
       class="st2"
       y="122.12459"
       x="96.043938"
       id="rect311_5_" />
    <g
       id="g190"
       transform="matrix(0.26458333,0,0,0.26458333,-162.11267,-61.443322)">
      <path
         style="fill:#ffffff"
         id="path164"
         d="m 994.75,714.85 c 0.75,0.32 1.53,0.57 2.35,0.75 0.82,0.18 1.61,0.27 2.35,0.27 1.12,0 2.12,-0.16 3,-0.48 0.88,-0.32 1.57,-0.81 2.07,-1.47 0.5,-0.66 0.76,-1.47 0.76,-2.43 v -7.92 h 2.1 v 8.12 c 0,1.29 -0.35,2.38 -1.04,3.27 -0.7,0.89 -1.63,1.56 -2.81,2 -1.18,0.44 -2.5,0.66 -3.96,0.66 -1.13,0 -2.3,-0.13 -3.5,-0.4 -1.2,-0.27 -2.33,-0.66 -3.41,-1.18 v -12.47 h 2.1 v 11.28 z m 3.95,-2.6 c 0.15,-0.53 0.22,-1.15 0.22,-1.86 v -6.83 h 2.11 V 710 c 0,0.79 -0.1,1.48 -0.29,2.07 -0.19,0.59 -0.49,1.09 -0.9,1.5 l -1.79,-0.07 c 0.28,-0.3 0.5,-0.72 0.65,-1.25 z"
         class="st8" />
      <path
         style="fill:#ffffff"
         id="path166"
         d="m 1019.28,711.29 4.35,6 h -2.41 l -6.12,-8.44 c -0.83,0.52 -1.25,1.41 -1.25,2.68 v 5.76 h -2.1 v -4.98 c 0,-1.19 0.2,-2.16 0.61,-2.92 0.4,-0.76 1.03,-1.33 1.88,-1.72 l -2.97,-4.11 h 2.42 l 4.25,5.87 3.31,-5.87 h 2.44 z"
         class="st8" />
      <path
         style="fill:#ffffff"
         id="path168"
         d="m 1032.57,707.71 c 0,-0.75 -0.22,-1.33 -0.66,-1.77 -0.44,-0.43 -1.04,-0.65 -1.8,-0.65 h -4.61 v -1.74 h 4.68 c 0.94,0 1.75,0.17 2.44,0.51 0.69,0.34 1.21,0.83 1.57,1.48 0.36,0.65 0.54,1.42 0.54,2.32 v 9.42 h -2.16 z"
         class="st8" />
      <path
         style="fill:#ffffff"
         id="path170"
         d="m 1039.55,708.56 c 0.08,-0.64 0.26,-1.24 0.54,-1.8 0.28,-0.56 0.62,-1 1,-1.3 0.03,-0.02 0.11,-0.08 0.23,-0.16 l -0.02,-0.04 c -0.35,0.06 -0.79,0.16 -1.31,0.3 -0.52,0.14 -1,0.28 -1.44,0.43 l -0.5,-1.63 c 0.9,-0.31 1.91,-0.56 3.03,-0.76 1.12,-0.19 2.15,-0.29 3.09,-0.29 1.85,0 3.26,0.49 4.24,1.47 0.97,0.98 1.47,2.43 1.47,4.33 v 8.18 h -5.65 v -1.74 h 3.5 v -6.69 c 0,-1.22 -0.28,-2.15 -0.83,-2.79 -0.55,-0.64 -1.35,-0.96 -2.4,-0.96 -0.75,0 -1.38,0.29 -1.89,0.87 -0.51,0.58 -0.82,1.37 -0.93,2.36 l -1.04,8.94 h -2.13 z"
         class="st8" />
      <path
         style="fill:#ffffff"
         id="path172"
         d="m 1067.66,708.68 c 0,-1.19 -0.27,-2.05 -0.8,-2.58 -0.54,-0.53 -1.4,-0.8 -2.59,-0.8 h -4.98 v -1.74 h 5.08 c 1.79,0 3.15,0.44 4.07,1.3 0.92,0.87 1.38,2.16 1.38,3.87 v 8.55 h -2.17 v -8.6 z m -8.34,3.93 c 0,-0.71 0.05,-1.26 0.16,-1.67 0.1,-0.41 0.25,-0.82 0.45,-1.23 h 1.77 c -0.09,0.36 -0.16,0.75 -0.21,1.19 -0.05,0.43 -0.07,0.96 -0.07,1.57 v 4.82 h -2.1 z"
         class="st8" />
      <path
         style="fill:#ffffff"
         id="path174"
         d="m 1072.3,717.27 0.06,-1.69 c 0.5,0.1 1.07,0.15 1.7,0.15 0.64,0 1.11,-0.18 1.43,-0.55 0.32,-0.37 0.48,-0.93 0.48,-1.69 v -8.19 h -2.69 v -1.74 h 4.86 v 10.1 c 0,1.26 -0.31,2.22 -0.93,2.87 -0.62,0.66 -1.52,0.99 -2.68,0.99 -0.72,0 -1.46,-0.08 -2.23,-0.25 z"
         class="st8" />
      <path
         style="fill:#ffffff"
         id="path176"
         d="m 1083.29,708.56 c 0.08,-0.64 0.26,-1.24 0.54,-1.8 0.28,-0.56 0.62,-1 1,-1.3 0.03,-0.02 0.11,-0.08 0.23,-0.16 l -0.02,-0.04 c -0.35,0.06 -0.79,0.16 -1.31,0.3 -0.52,0.14 -1,0.28 -1.44,0.43 l -0.5,-1.63 c 0.9,-0.31 1.91,-0.56 3.03,-0.76 1.12,-0.19 2.15,-0.29 3.09,-0.29 1.85,0 3.26,0.49 4.24,1.47 0.97,0.98 1.47,2.43 1.47,4.33 v 8.18 h -5.65 v -1.74 h 3.5 v -6.69 c 0,-1.22 -0.28,-2.15 -0.83,-2.79 -0.55,-0.64 -1.35,-0.96 -2.4,-0.96 -0.75,0 -1.38,0.29 -1.89,0.87 -0.51,0.58 -0.82,1.37 -0.93,2.36 l -1.04,8.94 h -2.13 z"
         class="st8" />
      <path
         style="fill:#ffffff"
         id="path178"
         d="m 1097.24,705.39 -0.97,-0.16 v -1.67 h 6.67 l -0.01,1.74 h -3.54 l 1.95,11.99 h -2.23 z"
         class="st8" />
      <path
         style="fill:#ffffff"
         id="path180"
         d="m 1113.91,708.68 c 0,-1.19 -0.27,-2.05 -0.8,-2.58 -0.54,-0.53 -1.4,-0.8 -2.59,-0.8 h -4.98 v -1.74 h 5.08 c 1.79,0 3.15,0.44 4.07,1.3 0.92,0.87 1.38,2.16 1.38,3.87 v 8.55 h -2.17 v -8.6 z m -8.34,3.93 c 0,-0.71 0.05,-1.26 0.16,-1.67 0.1,-0.41 0.25,-0.82 0.45,-1.23 h 1.77 c -0.09,0.36 -0.16,0.75 -0.21,1.19 -0.05,0.43 -0.07,0.96 -0.07,1.57 v 4.82 h -2.1 z"
         class="st8" />
      <path
         style="fill:#ffffff"
         id="path182"
         d="m 1125.87,703.56 h 10.95 v 13.73 h -10.95 z m 8.8,11.98 V 705.3 h -6.64 v 10.24 z"
         class="st8" />
      <path
         style="fill:#ffffff"
         id="path184"
         d="m 1141.05,703.56 h 5.16 c 1.82,0 3.17,0.43 4.07,1.3 0.89,0.87 1.34,2.19 1.35,3.96 v 8.47 h -2.16 v -8.6 c 0,-1.19 -0.26,-2.05 -0.77,-2.59 -0.51,-0.54 -1.34,-0.8 -2.47,-0.8 h -3.03 l -0.01,11.99 h -2.16 z"
         class="st8" />
      <path
         style="fill:#ffffff"
         id="path186"
         d="m 1165.2,704.86 c 0.9,0.87 1.35,2.19 1.35,3.96 v 8.47 h -2.16 l -0.01,-8.6 c 0,-1.19 -0.25,-2.05 -0.76,-2.59 -0.51,-0.54 -1.33,-0.8 -2.46,-0.8 h -1.95 c -0.26,0.42 -0.46,0.96 -0.61,1.61 -0.15,0.65 -0.23,1.33 -0.23,2.02 v 4.63 c 0,1.26 -0.3,2.21 -0.9,2.87 -0.6,0.65 -1.47,0.98 -2.61,0.98 -0.33,0 -0.78,-0.03 -1.34,-0.1 v -1.74 c 0.25,0.03 0.52,0.05 0.8,0.05 0.68,0 1.17,-0.17 1.47,-0.52 0.3,-0.35 0.46,-0.9 0.46,-1.66 v -4.33 c 0,-0.71 0.09,-1.41 0.28,-2.12 0.19,-0.71 0.44,-1.26 0.77,-1.68 h -2.58 v -1.74 h 6.4 c 1.83,-0.01 3.19,0.43 4.08,1.29 z"
         class="st8" />
      <path
         style="fill:#ffffff"
         id="path188"
         d="m 1171.36,708.56 c 0.08,-0.64 0.26,-1.24 0.54,-1.8 0.28,-0.56 0.62,-1 1,-1.3 0.03,-0.02 0.11,-0.08 0.23,-0.16 l -0.02,-0.04 c -0.35,0.06 -0.79,0.16 -1.31,0.3 -0.52,0.14 -1,0.28 -1.44,0.43 l -0.5,-1.63 c 0.9,-0.31 1.91,-0.56 3.03,-0.76 1.12,-0.19 2.15,-0.29 3.09,-0.29 1.85,0 3.26,0.49 4.24,1.47 0.97,0.98 1.47,2.43 1.47,4.33 v 8.18 h -5.65 v -1.74 h 3.5 v -6.69 c 0,-1.22 -0.28,-2.15 -0.83,-2.79 -0.55,-0.64 -1.35,-0.96 -2.4,-0.96 -0.75,0 -1.38,0.29 -1.89,0.87 -0.51,0.58 -0.82,1.37 -0.93,2.36 l -1.04,8.94 h -2.13 z"
         class="st8" />
    </g>
  </g>
</svg>
