<?xml version="1.0" encoding="UTF-8" standalone="no"?>
<!-- Created with Inkscape (http://www.inkscape.org/) -->

<svg
   width="167.2"
   height="133.60001"
   viewBox="0 0 44.237775 35.34789"
   version="1.1"
   id="svg2792"
   xmlns:xlink="http://www.w3.org/1999/xlink"
   xmlns="http://www.w3.org/2000/svg"
   xmlns:svg="http://www.w3.org/2000/svg">
  <defs
     id="defs2789">
    <clipPath
       id="SVGID_7_">
      <use
         xlink:href="#SVGID_6_"
         style="overflow:visible"
         id="use699"
         x="0"
         y="0"
         width="100%"
         height="100%" />
    </clipPath>
    <clipPath
       id="SVGID_9_">
      <use
         xlink:href="#SVGID_8_"
         style="overflow:visible"
         id="use711"
         x="0"
         y="0"
         width="100%"
         height="100%" />
    </clipPath>
    <path
       id="SVGID_6_"
       d="m 1538.3,1443.6 h 36.8 v 25.2 h -36.8 z" />
    <path
       id="SVGID_8_"
       d="m 1538.3,1443.6 h 36.8 v 25.2 h -36.8 z" />
  </defs>
  <g
     id="layer1"
     transform="translate(-108.12103,-88.345156)">
    <g
       id="g1630"
       transform="matrix(0.26458,0,0,0.26458,-281.63177,-277.6219)">
      <path
         id="path767_6_"
         d="m 1584.7,1459.1 c 0,15.4 -28,57.7 -28,57.7 0,0 -28,-42.3 -28,-57.7 0,-15.4 12.6,-28 28,-28 15.4,0 28,12.5 28,28"
         style="fill:#a22442" />
      <path
         id="rect755_6_"
         style="fill:#a22442"
         d="m 1473.5,1383.2 h 166.8 v 39 h -166.8 z" />
      <g
         id="g208">
        <path
           d="m 1501.4,1396.8 c 1.1,1 1.6,2.5 1.6,4.4 v 9.7 h -4.2 v -10.1 c 0,-1.5 -0.7,-2.3 -2,-2.3 h -2 c -0.1,0.5 -0.2,1 -0.3,1.6 -0.1,0.6 -0.1,1.1 -0.1,1.6 v 4.4 c 0,1.1 -0.2,2 -0.6,2.7 -0.4,0.8 -0.9,1.3 -1.6,1.7 -0.7,0.4 -1.6,0.6 -2.6,0.6 -0.6,0 -1.3,-0.1 -2,-0.2 v -3.3 h 0.8 c 1.2,0 1.9,-0.7 1.9,-2 v -3.7 c 0,-0.6 0.1,-1.2 0.2,-1.8 0.1,-0.7 0.4,-1.2 0.6,-1.7 h -2.4 v -3.3 h 8 c 2.1,0.2 3.7,0.7 4.7,1.7 z"
           id="path190"
           style="fill:#fffffd" />
        <path
           d="m 1507,1398.6 h -1.3 v -3.3 h 5.6 v 15.6 h -4.2 v -12.3 z"
           id="path192"
           style="fill:#fffffd" />
        <path
           d="m 1525.6,1404.4 4.5,6.5 h -4.7 l -5.7,-8.2 c -0.2,0.3 -0.3,0.8 -0.3,1.3 v 7 h -4.1 v -5.1 c 0,-1.4 0.2,-2.6 0.7,-3.5 0.4,-0.9 1.2,-1.5 2.1,-2 l -3.4,-5 h 4.7 l 3.7,5.3 2.5,-5.3 h 4.7 z"
           id="path194"
           style="fill:#fffffd" />
        <path
           d="m 1533.6,1411.1 c -0.5,-0.1 -1,-0.2 -1.6,-0.3 v -3.2 c 0.6,0.1 1.3,0.1 1.9,0.1 0.6,0 1,-0.2 1.3,-0.5 0.3,-0.3 0.4,-0.8 0.4,-1.5 v -7.2 h -2.7 v -3.3 h 7 v 10.8 c 0,1 -0.2,2 -0.6,2.7 -0.4,0.8 -0.9,1.3 -1.7,1.7 -0.7,0.4 -1.6,0.6 -2.6,0.6 -0.4,0.2 -0.9,0.1 -1.4,0.1 z"
           id="path196"
           style="fill:#fffffd" />
        <path
           d="m 1556.3,1395.3 v 3.3 h -2.8 v 12.3 h -4.2 v -12.3 h -6.5 v -3.3 z"
           id="path198"
           style="fill:#fffffd" />
        <path
           d="m 1562.4,1410.3 c -1.1,-0.6 -1.9,-1.5 -2.5,-2.6 -0.6,-1.1 -0.9,-2.4 -0.9,-3.8 v -0.9 c 0,-0.7 0.1,-1.5 0.4,-2.3 0.3,-0.8 0.6,-1.5 1,-1.9 l 0.2,-0.2 v -0.1 c -0.5,0.1 -1.2,0.3 -1.9,0.5 l -0.8,-3.1 c 1,-0.3 2.3,-0.5 3.7,-0.7 1.4,-0.2 2.7,-0.3 3.9,-0.3 2.5,0 4.3,0.6 5.6,1.9 1.3,1.3 2,3.1 2,5.6 v 1.5 c 0,1.5 -0.3,2.7 -0.9,3.8 -0.6,1.1 -1.4,2 -2.5,2.6 -1.1,0.6 -2.3,0.9 -3.7,0.9 -1.3,0 -2.6,-0.3 -3.6,-0.9 z m 5.1,-3 c 0.4,-0.3 0.8,-0.8 1,-1.3 0.2,-0.5 0.4,-1.2 0.4,-2 v -1.5 c 0,-1.3 -0.2,-2.4 -0.7,-3.1 -0.5,-0.7 -1.2,-1.1 -2.1,-1.1 -0.9,0 -1.6,0.4 -2.1,1.1 -0.5,0.7 -0.7,1.8 -0.7,3.2 v 1.2 c 0,0.8 0.1,1.4 0.4,2 0.2,0.6 0.6,1 1,1.3 0.4,0.3 0.9,0.5 1.5,0.5 0.4,0.1 0.9,0 1.3,-0.3 z"
           id="path200"
           style="fill:#fffffd" />
        <path
           d="m 1588.3,1400.7 c 0,-0.7 -0.2,-1.2 -0.6,-1.5 -0.4,-0.3 -0.9,-0.5 -1.7,-0.5 h -4.7 v -3.3 h 5 c 1.3,0 2.4,0.2 3.3,0.7 0.9,0.4 1.6,1.1 2.1,1.9 0.5,0.8 0.7,1.8 0.7,3 v 10 h -4.2 v -10.3 z"
           id="path202"
           style="fill:#fffffd" />
        <path
           d="m 1608.5,1395.3 v 3.3 h -2.8 v 12.3 h -4.2 v -12.3 h -6.5 v -3.3 z"
           id="path204"
           style="fill:#fffffd" />
        <path
           d="m 1611.6,1395.3 h 6.9 c 2,0 3.6,0.5 4.6,1.5 1,1 1.6,2.5 1.6,4.4 v 9.7 h -4.2 v -10.1 c 0,-1.5 -0.7,-2.3 -2,-2.3 h -2.7 v 12.3 h -4.2 z"
           id="path206"
           style="fill:#fffffd" />
      </g>
      <g
         id="g720">
        <g
           id="g704">
          <defs
             id="defs697" />
          <clipPath
             id="clipPath2267">
            <use
               xlink:href="#SVGID_6_"
               style="overflow:visible"
               id="use2265"
               x="0"
               y="0"
               width="100%"
               height="100%" />
          </clipPath>
          <path
             d="m 1566.8,1461.3 -3.6,-13.4 -0.2,-0.9 c -0.3,-1 -1.3,-1.6 -2.3,-1.3 -0.8,0.2 -1.3,0.9 -1.4,1.7 l -19.5,10.6 c -0.2,-0.2 -0.5,-0.3 -0.9,-0.2 -0.5,0.1 -0.8,0.6 -0.7,1.1 l 0.4,1.3 0.7,2.7 0.4,1.3 c 0.1,0.5 0.6,0.8 1.1,0.7 0.3,-0.1 0.5,-0.3 0.6,-0.6 h 1.5 c 0.4,2.3 2.4,4.1 4.9,4.1 0.4,0 0.9,-0.1 1.3,-0.2 0.8,-0.2 1.6,-0.7 2.2,-1.3 0.8,-0.8 1.3,-1.8 1.4,-2.9 l 10.9,-0.3 c 0.4,0.7 1.2,1 2,0.8 1,-0.3 1.6,-1.3 1.3,-2.3 z m -16.7,4.2 c -0.6,0.6 -1.4,0.9 -2.2,0.9 -1.4,0 -2.6,-1 -3,-2.3 l 6,-0.2 c -0.1,0.7 -0.4,1.2 -0.8,1.6 z m -7.2,-5 17.3,-9.4 2.4,8.9 z m 0,0"
             clip-path="url(#SVGID_7_)"
             id="path702"
             style="fill:#ffffcc;enable-background:new" />
        </g>
        <path
           d="m 1569.5,1454.3 4.5,-1.2 c 0.5,-0.1 0.8,-0.6 0.7,-1.1 -0.1,-0.5 -0.6,-0.8 -1.1,-0.7 l -4.5,1.2 c -0.5,0.1 -0.8,0.6 -0.7,1.1 0.1,0.6 0.6,0.9 1.1,0.7 z m 0,0"
           id="path706"
           style="fill:#ffffcc;enable-background:new" />
        <g
           id="g718">
          <defs
             id="defs709" />
          <clipPath
             id="clipPath2276">
            <use
               xlink:href="#SVGID_8_"
               style="overflow:visible"
               id="use2274"
               x="0"
               y="0"
               width="100%"
               height="100%" />
          </clipPath>
          <path
             d="m 1574.1,1460.2 -4.5,-1.2 c -0.5,-0.1 -1,0.2 -1.1,0.7 -0.1,0.5 0.2,1 0.7,1.1 l 4.5,1.2 h 0.5 c 0.3,-0.1 0.6,-0.3 0.7,-0.7 0,-0.5 -0.3,-1 -0.8,-1.1 z m 0,0"
             clip-path="url(#SVGID_9_)"
             id="path714"
             style="fill:#ffffcc;enable-background:new" />
          <path
             d="m 1566.4,1448.7 c 0.2,0 0.3,-0.1 0.4,-0.2 l 3.3,-3.3 c 0.4,-0.4 0.4,-0.9 0,-1.3 -0.4,-0.4 -0.9,-0.4 -1.3,0 l -3.3,3.3 c -0.4,0.4 -0.4,0.9 0,1.3 0.3,0.2 0.6,0.3 0.9,0.2 z m 0,0"
             clip-path="url(#SVGID_9_)"
             id="path716"
             style="fill:#ffffcc;enable-background:new" />
        </g>
      </g>
    </g>
  </g>
</svg>
