<?xml version="1.0" encoding="UTF-8" standalone="no"?>
<!-- Created with Inkscape (http://www.inkscape.org/) -->

<svg
   width="131"
   height="116.8"
   viewBox="0 0 34.65998 30.902943"
   version="1.1"
   id="svg2792"
   xmlns:xlink="http://www.w3.org/1999/xlink"
   xmlns="http://www.w3.org/2000/svg"
   xmlns:svg="http://www.w3.org/2000/svg">
  <defs
     id="defs2789">
    <clipPath
       id="SVGID_26_">
      <use
         xlink:href="#SVGID_25_"
         style="overflow:visible"
         id="use1355"
         x="0"
         y="0"
         width="100%"
         height="100%" />
    </clipPath>
    <clipPath
       id="SVGID_28_">
      <use
         xlink:href="#SVGID_27_"
         style="overflow:visible"
         id="use1367"
         x="0"
         y="0"
         width="100%"
         height="100%" />
    </clipPath>
    <path
       id="SVGID_25_"
       d="m 1261.9,604.1 h 36.8 v 25.2 h -36.8 z" />
    <path
       id="SVGID_27_"
       d="m 1261.9,604.1 h 36.8 v 25.2 h -36.8 z" />
  </defs>
  <g
     id="layer1"
     transform="translate(-77.37179,-75.575026)">
    <g
       id="g3045"
       transform="matrix(0.26458,0,0,0.26458,-24.49151,20.0926)">
      <path
         id="path429_3_"
         d="m 473.7,278.9 c 0,12.7 -23.2,47.6 -23.2,47.6 0,0 -23.2,-34.9 -23.2,-47.6 0,-12.7 10.4,-23.2 23.2,-23.2 12.9,0.1 23.2,10.4 23.2,23.2"
         style="fill:#a22442" />
      <path
         id="rect311_2_"
         style="fill:#a22442"
         d="M 386.9,209.7 H 516 v 38.5 H 386.9 Z" />
      <g
         id="g941"
         transform="translate(-829.6,-338.8)">
        <path
           d="m 1239.4,576.4 v -14.1 l -4.4,1.3 v -3.2 l 8.1,-2.9 h 0.4 v 18.9 z"
           id="path929"
           style="fill:#fffffd" />
        <path
           d="m 1266.5,563.5 -5.1,12.9 h -4.5 l 5.1,-12.3 h -8.3 v -7.6 h 4.2 v 4.4 h 8.6 z"
           id="path931"
           style="fill:#fffffd" />
        <path
           d="m 1269,564.1 h -1.3 v -3.3 h 5.6 v 15.6 h -4.2 v -12.3 z"
           id="path933"
           style="fill:#fffffd" />
        <path
           d="m 1275.5,576 0.6,-3.1 c 1.3,0.3 2.4,0.4 3.3,0.4 1.2,0 2.2,-0.3 2.7,-0.8 0.6,-0.5 0.9,-1.3 0.9,-2.4 V 564 h -7 v -3.3 h 11.2 v 8.6 c 0,2.5 -0.6,4.3 -1.9,5.5 -1.3,1.2 -3.1,1.7 -5.4,1.7 -1.2,0.1 -2.7,-0.1 -4.4,-0.5 z"
           id="path935"
           style="fill:#fffffd" />
        <path
           d="m 1294.9,572.5 c 0.7,0.3 1.5,0.6 2.4,0.8 0.9,0.2 1.6,0.3 2.4,0.3 1.9,0 3.4,-0.4 4.5,-1.2 1.1,-0.8 1.6,-2 1.6,-3.6 v -8 h 4.1 v 8.4 c 0,1.7 -0.4,3.1 -1.3,4.2 -0.9,1.1 -2.1,2 -3.6,2.6 -1.5,0.6 -3.2,0.9 -5.1,0.9 -1.5,0 -3,-0.2 -4.6,-0.5 -1.6,-0.4 -3,-0.9 -4.4,-1.5 v -14 h 4.1 v 11.6 z m 3.2,-2.5 c 0.1,-0.6 0.1,-1.3 0.1,-2 v -7.2 h 4.1 v 6.3 c 0,0.9 -0.1,1.7 -0.3,2.5 -0.2,0.8 -0.5,1.4 -0.8,1.8 h -3.4 c 0.1,-0.4 0.2,-0.8 0.3,-1.4 z"
           id="path937"
           style="fill:#fffffd" />
        <path
           d="m 1323.6,569.8 4.5,6.5 h -4.7 l -5.7,-8.2 c -0.2,0.3 -0.4,0.8 -0.4,1.3 v 7 h -4.1 v -5.1 c 0,-1.4 0.2,-2.6 0.7,-3.5 0.4,-0.9 1.2,-1.5 2.1,-2 l -3.4,-5 h 4.7 l 3.7,5.3 2.5,-5.3 h 4.7 z"
           id="path939"
           style="fill:#fffffd" />
      </g>
      <g
         id="g1376"
         transform="translate(-829.6,-338.8)">
        <g
           id="g1360">
          <defs
             id="defs1353" />
          <clipPath
             id="clipPath3483">
            <use
               xlink:href="#SVGID_25_"
               style="overflow:visible"
               id="use3481"
               x="0"
               y="0"
               width="100%"
               height="100%" />
          </clipPath>
          <path
             d="m 1290.4,621.8 -3.6,-13.4 -0.2,-0.9 c -0.3,-1 -1.3,-1.6 -2.3,-1.3 -0.8,0.2 -1.3,0.9 -1.4,1.7 l -19.5,10.6 c -0.2,-0.2 -0.5,-0.3 -0.9,-0.2 -0.5,0.1 -0.8,0.6 -0.7,1.1 l 0.4,1.3 0.7,2.7 0.4,1.3 c 0.1,0.5 0.6,0.8 1.1,0.7 0.3,-0.1 0.5,-0.3 0.6,-0.6 h 1.5 c 0.4,2.3 2.4,4.1 4.9,4.1 0.4,0 0.9,-0.1 1.3,-0.2 0.8,-0.2 1.6,-0.7 2.2,-1.3 0.8,-0.8 1.3,-1.8 1.4,-2.9 l 10.9,-0.3 c 0.4,0.7 1.2,1 2,0.8 1,-0.3 1.6,-1.3 1.3,-2.3 z m -16.7,4.3 c -0.6,0.6 -1.4,0.9 -2.2,0.9 -1.4,0 -2.6,-1 -3,-2.3 l 6,-0.2 c -0.1,0.6 -0.3,1.1 -0.8,1.6 z m -7.1,-5.1 17.3,-9.4 2.4,8.9 z m 0,0"
             clip-path="url(#SVGID_26_)"
             id="path1358"
             style="fill:#ffffcc;enable-background:new" />
        </g>
        <path
           d="m 1293.2,614.8 4.5,-1.2 c 0.5,-0.1 0.8,-0.6 0.7,-1.1 -0.1,-0.5 -0.6,-0.8 -1.1,-0.7 l -4.5,1.2 c -0.5,0.1 -0.8,0.6 -0.7,1.1 0.1,0.6 0.6,0.9 1.1,0.7 z m 0,0"
           id="path1362"
           style="fill:#ffffcc;enable-background:new" />
        <g
           id="g1374">
          <defs
             id="defs1365" />
          <clipPath
             id="clipPath3492">
            <use
               xlink:href="#SVGID_27_"
               style="overflow:visible"
               id="use3490"
               x="0"
               y="0"
               width="100%"
               height="100%" />
          </clipPath>
          <path
             d="m 1297.8,620.7 -4.5,-1.2 c -0.5,-0.1 -1,0.2 -1.1,0.7 -0.1,0.5 0.2,1 0.7,1.1 l 4.5,1.2 h 0.5 c 0.3,-0.1 0.6,-0.3 0.7,-0.7 0,-0.5 -0.3,-1 -0.8,-1.1 z m 0,0"
             clip-path="url(#SVGID_28_)"
             id="path1370"
             style="fill:#ffffcc;enable-background:new" />
          <path
             d="m 1290.1,609.2 c 0.2,0 0.3,-0.1 0.4,-0.2 l 3.3,-3.3 c 0.4,-0.4 0.4,-0.9 0,-1.3 -0.4,-0.4 -0.9,-0.4 -1.3,0 l -3.3,3.3 c -0.4,0.4 -0.4,0.9 0,1.3 0.2,0.2 0.6,0.3 0.9,0.2 z m 0,0"
             clip-path="url(#SVGID_28_)"
             id="path1372"
             style="fill:#ffffcc;enable-background:new" />
        </g>
      </g>
    </g>
  </g>
</svg>
