<?xml version="1.0" encoding="UTF-8" standalone="no"?>
<svg
   xmlns:dc="http://purl.org/dc/elements/1.1/"
   xmlns:cc="http://creativecommons.org/ns#"
   xmlns:rdf="http://www.w3.org/1999/02/22-rdf-syntax-ns#"
   xmlns:svg="http://www.w3.org/2000/svg"
   xmlns="http://www.w3.org/2000/svg"
   id="svg1431"
   version="1.1"
   viewBox="0 0 52.027666 41.584583"
   height="157.17007"
   width="196.64">
  <defs
     id="defs1425">
    <clipPath
       id="clip-path-2">
      <rect
         class="cls-1"
         x="1851.04"
         y="1223.62"
         width="43.310001"
         height="29.700001"
         id="rect7"
         style="fill:none" />
    </clipPath>
  </defs>
  <metadata
     id="metadata1428">
    <rdf:RDF>
      <cc:Work
         rdf:about="">
        <dc:format>image/svg+xml</dc:format>
        <dc:type
           rdf:resource="http://purl.org/dc/dcmitype/StillImage" />
        <dc:title></dc:title>
      </cc:Work>
    </rdf:RDF>
  </metadata>
  <g
     transform="translate(-87.319492,-110.65414)"
     id="layer1">
    <g
       id="g1142"
       transform="matrix(0.26458333,0,0,0.26458333,-389.33476,-173.94024)">
      <path
         id="path767"
         class="cls-4"
         d="m 1932.768,1164.9024 c 0,18.09 -32.92,67.9 -32.92,67.9 0,0 -32.92,-49.81 -32.92,-67.9 a 32.92,32.92 0 1 1 65.84,0"
         style="fill:#2ca5e8;fill-opacity:1" />
      <rect
         id="rect755"
         class="cls-4"
         x="1801.9779"
         y="1075.6323"
         width="196.19"
         height="45.919998"
         style="fill:#ec2426" />
      <path
         class="cls-13"
         d="m 1834.778,1091.6224 a 6.8,6.8 0 0 1 1.85,5.19 v 11.4 h -5 v -11.83 q 0,-2.67 -2.31,-2.67 h -2.35 a 18,18 0 0 0 -0.32,1.84 15.28,15.28 0 0 0 -0.12,1.83 v 5.18 a 7,7 0 0 1 -0.68,3.2 4.54,4.54 0 0 1 -1.94,2 6.15,6.15 0 0 1 -3,0.7 16.91,16.91 0 0 1 -2.37,-0.2 v -3.84 h 1 c 1.45,0 2.18,-0.76 2.18,-2.3 v -4.34 a 10,10 0 0 1 0.26,-2.14 6.56,6.56 0 0 1 0.77,-2 h -2.82 v -3.85 h 9.42 a 7.62,7.62 0 0 1 5.43,1.83 z"
         id="path193"
         style="fill:#fffffd" />
      <path
         class="cls-13"
         d="m 1841.328,1093.7124 h -1.56 v -3.85 h 6.54 v 18.35 h -5 z"
         id="path195"
         style="fill:#fffffd" />
      <path
         class="cls-13"
         d="m 1863.258,1100.5124 5.32,7.7 h -5.54 l -6.71,-9.7 a 2.59,2.59 0 0 0 -0.41,1.51 v 8.19 h -4.76 v -6 a 9.05,9.05 0 0 1 0.78,-4.09 5.21,5.21 0 0 1 2.51,-2.36 l -4,-5.87 h 5.55 l 4.32,6.25 3,-6.25 h 5.57 z"
         id="path197"
         style="fill:#fffffd" />
      <path
         class="cls-13"
         d="m 1872.688,1108.4224 c -0.53,-0.07 -1.16,-0.18 -1.88,-0.34 v -3.72 a 18.29,18.29 0 0 0 2.23,0.14 2,2 0 0 0 1.54,-0.57 2.56,2.56 0 0 0 0.49,-1.74 v -8.48 h -3.21 v -3.85 h 8.18 v 12.73 a 7.18,7.18 0 0 1 -0.67,3.19 4.69,4.69 0 0 1 -2,2 6.33,6.33 0 0 1 -3,0.7 12.86,12.86 0 0 1 -1.68,-0.06 z"
         id="path199"
         style="fill:#fffffd" />
      <path
         class="cls-13"
         d="m 1899.328,1089.8624 v 3.85 h -3.24 v 14.5 h -5 v -14.5 h -7.69 v -3.85 z"
         id="path201"
         style="fill:#fffffd" />
      <path
         class="cls-13"
         d="m 1906.518,1107.5024 a 7.65,7.65 0 0 1 -2.92,-3 9.64,9.64 0 0 1 -1.08,-4.52 v -1.05 a 8,8 0 0 1 0.5,-2.73 6.5,6.5 0 0 1 1.2,-2.23 l 0.26,-0.26 v -0.06 c -0.62,0.13 -1.39,0.31 -2.29,0.55 l -0.94,-3.6 a 29.71,29.71 0 0 1 4.31,-0.87 34.59,34.59 0 0 1 4.61,-0.33 9.16,9.16 0 0 1 6.64,2.26 q 2.31,2.25 2.31,6.56 v 1.76 a 9.51,9.51 0 0 1 -1,4.52 7.33,7.33 0 0 1 -2.91,3 8.67,8.67 0 0 1 -4.34,1.07 8.31,8.31 0 0 1 -4.35,-1.07 z m 6,-3.58 a 3.75,3.75 0 0 0 1.17,-1.58 6.32,6.32 0 0 0 0.41,-2.35 v -1.71 a 6.34,6.34 0 0 0 -0.86,-3.6 2.81,2.81 0 0 0 -2.47,-1.25 2.71,2.71 0 0 0 -2.43,1.32 7.22,7.22 0 0 0 -0.86,3.82 v 1.42 a 6.32,6.32 0 0 0 0.41,2.35 3.72,3.72 0 0 0 1.16,1.59 3,3 0 0 0 3.47,0 z"
         id="path203"
         style="fill:#fffffd" />
      <g
         transform="translate(27.157979,-76.947607)"
         class="cls-15"
         clip-path="url(#clip-path-2)"
         id="g608">
        <path
           class="cls-9"
           d="m 1884.53,1244.44 -4.22,-15.78 -0.29,-1.05 a 2.17,2.17 0 0 0 -4.27,0.47 l -22.89,12.43 a 1.07,1.07 0 0 0 -1.79,1.06 l 0.42,1.57 0.85,3.16 0.42,1.58 a 1.1,1.1 0 0 0 1.34,0.77 1.08,1.08 0 0 0 0.74,-0.75 h 1.74 a 5.84,5.84 0 0 0 5.73,4.82 6,6 0 0 0 1.53,-0.2 5.78,5.78 0 0 0 4.24,-4.93 l 12.8,-0.33 a 2.17,2.17 0 0 0 3.93,-1.73 z m -19.63,5 a 3.64,3.64 0 0 1 -6.1,-1.63 l 7.08,-0.19 a 3.54,3.54 0 0 1 -1,1.82 z m -8.44,-5.93 20.35,-11 2.8,10.43 z m 0,0"
           id="path606"
           style="isolation:isolate;fill:#fbf2de" />
      </g>
      <path
         class="cls-13"
         d="m 1937.028,1096.1424 a 2.36,2.36 0 0 0 -0.67,-1.8 2.76,2.76 0 0 0 -2,-0.63 h -5.47 v -3.85 h 5.84 a 8.92,8.92 0 0 1 3.88,0.78 5.63,5.63 0 0 1 2.48,2.24 6.87,6.87 0 0 1 0.85,3.52 v 11.81 h -5 z"
         id="path205"
         style="fill:#fffffd" />
      <path
         class="cls-13"
         d="m 1960.828,1089.8624 v 3.85 h -3.25 v 14.5 h -5 v -14.5 h -7.69 v -3.85 z"
         id="path207"
         style="fill:#fffffd" />
      <path
         class="cls-13"
         d="m 1964.368,1089.8624 h 8.08 a 7.6,7.6 0 0 1 5.45,1.76 6.88,6.88 0 0 1 1.86,5.19 v 11.4 h -4.95 v -11.83 c 0,-1.78 -0.78,-2.67 -2.33,-2.67 h -3.13 v 14.5 h -5 z"
         id="path209"
         style="fill:#fffffd" />
      <path
         class="cls-9"
         d="m 1914.918,1159.2924 5.26,-1.41 a 1.09,1.09 0 0 0 -0.56,-2.1 l -5.26,1.41 a 1.09,1.09 0 1 0 0.56,2.1 z m 0,0"
         id="path610"
         style="isolation:isolate;fill:#fbf2de" />
      <g
         transform="translate(27.157979,-76.947607)"
         class="cls-15"
         clip-path="url(#clip-path-2)"
         id="g616">
        <path
           class="cls-9"
           d="m 1893.18,1243.12 -5.26,-1.41 a 1.09,1.09 0 1 0 -0.57,2.1 l 5.26,1.41 a 1.09,1.09 0 0 0 0.57,-2.1 z m 0,0"
           id="path612"
           style="isolation:isolate;fill:#fbf2de" />
        <path
           class="cls-9"
           d="m 1884.11,1229.61 a 1.1,1.1 0 0 0 0.49,-0.28 l 3.85,-3.85 a 1.09,1.09 0 0 0 -1.54,-1.54 l -3.85,3.85 a 1.08,1.08 0 0 0 0,1.54 1.06,1.06 0 0 0 1,0.28 z m 0,0"
           id="path614"
           style="isolation:isolate;fill:#fbf2de" />
      </g>
    </g>
  </g>
</svg>
