<svg width="1805.652" height="1081.589" viewBox="0 0 1805.652 1081.589" fill="none" xmlns="http://www.w3.org/2000/svg">
    <path d="m828.714 1071.208 966.938-581.718L981.542 10 10.747 583.274Z" fill="#dbf4e4"/>
    <path d="M543.542 274.983v-87.824l813.86 474.77v91.674l-328.76-193.286 1.12-70.682-66.772-35.9-1.993 66.83L773.012 410.01l1.121-67.203-66.649-40.372-1.993 67.825z" fill="#f5556a"/>
    <path d="m401.294 818.425-2.866-54.657 548.385-305.085-2.492 55.65z" fill="#f08993"/>
    <path d="M723.449 818.427 482.518 966.622l-48.46-29.813 549.399-338.613 106.085 61-281.257 167.18 1.744 2.858 282.093-168.574 153.48 86.705-244.722 137.147-78.732-50.682 180.684-115.338-2.94-2.332-180.236 115.186-91.563 57.39-110.873-62.607 282.322-173.144-2.93-1.77zm90.191-301.98-159.333-96.891-46.716 27.08 108.88 65.215-51.575 29.068-257.499-151.797-96.173 55.402L571.09 599.178l-3.861 2.236-258.496-155.4-97.419 56.148 256.129 152.17-1.744 2.98L208.075 504.15l-98.041 56.27 141.269 85.962-141.269 77.389 53.443 32.918 186.491-106.83-152.108-88.195 1.744-2.982 266.718 155.027 198.574-112.792-264.475-153.91 1.744-2.98 265.846 154.778zM560.751 657.313 296.774 502.162l1.744-2.981 263.977 155.15z" fill="#9eddb6"/>
    <path d="M509.799 791.84v90.929L240.838 723.89v-95.028z" fill="#f5556a"/>
    <path d="M543.436 274.835v-87.948L10.872 491.723v91.675z" fill="#f08993"/>
    <path d="m998.013 807.988-21.427 14.286 4.609 3.229 7.973-4.472 8.845 20-31.518-6.211 7.101-4.348-12.582-8.198 30.272-18.758zm-786.2-111.329-13.952 20.993-7.973-4.844-21.676 15.154-8.97-5.59 24.168-14.036-6.478-4.97z" fill="#f5556a"/>
    <path d="m865.216 300.056-92.311-50.558 56.682-25.837 96.796 48.57zm-217.323 30.109-92.311-50.558 30.645-13.913 89.571 50.806z" fill="#fed45e" stroke="#fffcf7" stroke-width="5.978" stroke-miterlimit="10"/>
    <path d="m647.893 330.166-2.118 40.247-91.688-53.911 1.495-37.018z" fill="#fed45e" stroke="#fffcf7" stroke-width="5.978" stroke-miterlimit="10"/>
    <path d="m645.775 370.41 2.118-40.248 28.528-13.167-.623 37.639zm216.388 94.159-92.311-50.558 30.645-13.913 89.571 50.807z" fill="#fed45e" stroke="#fffcf7" stroke-width="5.978" stroke-miterlimit="10"/>
    <path d="m862.162 464.57-2.117 40.248-91.689-53.911 1.495-37.018z" fill="#fed45e" stroke="#fffcf7" stroke-width="5.978" stroke-miterlimit="10"/>
    <path d="m860.045 504.815 2.118-40.248 28.528-13.167-.623 37.639zm309.307 122.814-92.31-50.557 30.64-13.913 89.57 50.806z" fill="#fed45e" stroke="#fffcf7" stroke-width="5.978" stroke-miterlimit="10"/>
    <path d="m1169.352 627.632-2.12 40.247-91.69-53.912 1.49-37.017z" fill="#fed45e" stroke="#fffcf7" stroke-width="5.978" stroke-miterlimit="10"/>
    <path d="m1167.232 667.875 2.12-40.247 28.52-13.167-.62 37.638zM764.348 927.629l-92.311-50.557 30.646-13.913 89.57 50.806z" fill="#fed45e" stroke="#fffcf7" stroke-width="5.978" stroke-miterlimit="10"/>
    <path d="m764.348 927.632-2.118 40.247-91.688-53.912 1.495-37.017z" fill="#fed45e" stroke="#fffcf7" stroke-width="5.978" stroke-miterlimit="10"/>
    <path d="m762.23 967.875 2.118-40.247 28.528-13.167-.623 37.638zm102.986-667.697-2.118 40.247-91.688-53.787 1.495-37.018z" fill="#fed45e" stroke="#fffcf7" stroke-width="5.978" stroke-miterlimit="10"/>
    <path d="m863.098 340.427 2.117-40.247 61.167-27.95-.498 34.16z" fill="#fed45e" stroke="#fffcf7" stroke-width="5.978" stroke-miterlimit="10"/>
    <path d="m519.143 927.98 13.454-20.621-33.386 6.832 5.73 4.348-22.299 12.67 7.724 5.342 21.302-14.037z" fill="#f5556a"/>
    <path d="m874.995 960.83-35.131-20.496 82.719-45.34 32.514 22.235z" fill="#fed45e" stroke="#fffcf7" stroke-width="5.978" stroke-miterlimit="10"/>
    <path d="m874.995 960.83-35.131-20.496.374 35.279 32.888 22.359z" fill="#fed45e" stroke="#fffcf7" stroke-width="5.978" stroke-miterlimit="10"/>
    <path d="m873.249 997.974 1.744-37.142 80.103-43.601-.25 32.918zm325.143-235.399-35.75-19.254 81.1-48.198 33.26 21.118z" fill="#fed45e" stroke="#fffcf7" stroke-width="5.978" stroke-miterlimit="10"/>
    <path d="m1198.392 762.573-35.75-19.254 1.62 35.154 33.63 21.117zm-.5 37.144.5-37.142 78.61-46.334 1 32.918z" fill="#fed45e" stroke="#fffcf7" stroke-width="5.978" stroke-miterlimit="10"/>
    <path d="m1096.492 825.925-35.75-19.254 81.1-48.197 33.26 21.117z" fill="#fed45e" stroke="#fffcf7" stroke-width="5.978" stroke-miterlimit="10"/>
    <path d="m1096.492 825.924-35.75-19.254 1.62 35.154 33.63 21.117zm-.5 37.143.5-37.142 78.61-46.334 1 32.918zm-106.013 28.945-35.753-19.254 1.619 35.154 33.636 21.118z" fill="#fed45e" stroke="#fffcf7" stroke-width="5.978" stroke-miterlimit="10"/>
    <path d="m989.979 892.012-35.753-19.254 81.096-48.197 33.26 21.117z" fill="#fed45e" stroke="#fffcf7" stroke-width="5.978" stroke-miterlimit="10"/>
    <path d="m989.481 929.154.498-37.142 78.603-46.334 1 32.918z" fill="#fed45e" stroke="#fffcf7" stroke-width="5.978" stroke-miterlimit="10"/>
    <path d="M829.587 980.406v90.933l528.705-317.014V662.65z" fill="#f08993"/>
    <path d="m1225.612 341.17-93.43-51.178 1.62 35.278 91.31 53.167z" fill="#fed45e" stroke="#fffcf7" stroke-width="5.978" stroke-miterlimit="10"/>
    <path d="m1225.112 378.312.5-37.141 154.1-94.656v36.024zm154.48-131.922-34.26-18.011-128.94 77.513-53.44-29.316-30.64 13.913 92.31 50.557.49-.248.5.248 25.91-15.9z" fill="#fed45e" stroke="#fffcf7" stroke-width="5.978" stroke-miterlimit="10"/>
    <path d="M829.59 980.662v90.926l-244.917-142.85V833.71zM181.915 592.715v90.929L10 585.758V490.73z" fill="#f5556a"/>
</svg>
