<svg version="1.1" id="Capa_1" x="0" y="0" viewBox="0 0 1657 836.9" xml:space="preserve" width="1657" height="836.9" xmlns:xlink="http://www.w3.org/1999/xlink" xmlns="http://www.w3.org/2000/svg">
    <style type="text/css" id="style2">
        .st1{clip-path:url(#SVGID_00000064323476726713690990000007058786756653739692_)}.st2{fill:#95c760}.st3{fill:#3a536b}.st4{opacity:1;enable-background:new}.st4,.st5{fill:#95c760;stroke:#0b608c;stroke-width:1.275;stroke-miterlimit:10}.st6{fill:#fbcfd5}.st7{fill:#f0717c}.st8{fill:#d0efff}.st9{fill:#39256e}.st11{opacity:1;fill:#fff;enable-background:new}.st14{clip-path:url(#SVGID_00000169556452921690611500000008428788550087895193_);fill:#fff}.st15,.st16{clip-path:url(#SVGID_00000141416196887448795890000008021397929060188827_);fill:#fff}.st16{clip-path:url(#SVGID_00000167387208709267879750000002006956150926520717_)}.st17{clip-path:url(#SVGID_00000014635930976363356600000012142878989868767129_)}.st21{clip-path:url(#SVGID_00000148651801484709359430000008992830675006237346_)}.st27{clip-path:url(#SVGID_00000048472482755828141060000012900427381561482136_)}.st30{clip-path:url(#SVGID_00000137847922597826604760000014795013051033145507_);fill:#fff}.st31,.st32{clip-path:url(#SVGID_00000068641414169128967020000010204389334808082568_);fill:#fff}.st32{clip-path:url(#SVGID_00000108290277086187091470000006071701887771949204_)}.st33{clip-path:url(#SVGID_00000162329631093706712390000006012230865616559493_)}.st33,.st34,.st35{fill:#fffffd}.st34{clip-path:url(#SVGID_00000013158062488758535500000012551579984007483531_)}.st35{clip-path:url(#SVGID_00000142168406307758286270000018048768558349509251_)}.st36{clip-path:url(#SVGID_00000169526864062469674850000000395667483897201049_);fill:#fdfecc}.st37{clip-path:url(#SVGID_00000102507960193078334400000003426592347767965322_)}.st37,.st38,.st39{fill:#fffffd}.st38{clip-path:url(#SVGID_00000085961677031273365880000009857055671334531221_)}.st39{clip-path:url(#SVGID_00000167370317077430160970000012651449627180070016_)}.st40{fill:#99c95e}.st41{fill:#0b608c}.st42{fill:#f4717c}.st43{fill:#fed0d5}.st44{fill:#d4f0ff}.st45{fill:#3e536b}
    </style>
    <path id="polygon788" transform="translate(-819.6 -345.9)" style="fill:#d2f0ff" d="m2272.6 541.4-99.4 49.3-181.9-97.6 75.9-48.3z"/>
    <g id="g811" transform="translate(-819.6 -345.9)">
        <g id="g809">
            <g id="g807" style="enable-background:new">
                <g id="g805">
                    <g id="g791">
                        <path id="SVGID_00000007395811157761596660000015513378176997305515_" style="fill:#97c85f" d="m1399 973.2 182.7 91.6-152.4 88-182.7-91.6z"/>
                    </g>
                    <g id="g803">
                        <defs id="defs794">
                            <path id="SVGID_00000139291731522988466080000006677027273986825370_" d="m1399 973.2 182.7 91.6-152.4 88-182.7-91.6z"/>
                        </defs>
                        <clipPath id="SVGID_00000176011412392950283760000006123046884688254099_">
                            <use xlink:href="#SVGID_00000139291731522988466080000006677027273986825370_" style="overflow:visible" id="use796" x="0" y="0" width="100%" height="100%"/>
                        </clipPath>
                        <g clip-path="url(#SVGID_00000176011412392950283760000006123046884688254099_)" id="g801">
                            <path id="polyline799" style="fill:#97c85f" d="m1399 973.2-152.4 88 182.7 91.6 152.4-88-182.7-91.6"/>
                        </g>
                    </g>
                </g>
            </g>
        </g>
    </g>
    <path id="polygon3_3_" transform="translate(-819.6 -345.9)" style="fill:#fccfd5" d="m1796.9 1041.9 58.4 42.1-114.4 57.8-148.2-61.3 16.7-4.2-252.2-117 113.9-80.3L1213 752.8l-130.3 67.9-201.2-120.6 450.6-211.5 313.7 137.1 110.5-65.7 99-47.2-54.3-26.3 102.5-49.2 333 142.8 45.6-13 159.7 81.1-79.1 40.6-84.4-38.5-332.1 170.4-116.7 140.1 36.7 31.7z"/>
    <path id="polygon273_6_" transform="translate(-819.6 -345.9)" style="fill:#f2717c" d="m1239.9 612.6-37.8-19.3v27l37.8 21.9z"/>
    <path id="polygon281_2_" transform="translate(-819.6 -345.9)" style="fill:#f2717c" d="m1202.1 620.3 1.3-39.4-158.3 76.9-.2 38.4z"/>
    <path id="polygon9_3_" transform="translate(-819.6 -345.9)" style="fill:#f2717c" d="m2135.8 573-247.7-109.6V496l247.7 108.1z"/>
    <path id="polygon19_3_" transform="translate(-819.6 -345.9)" style="fill:#f2717c" d="m1339.2 492.7 306.6 134.2v-29.6L1338 464.1Z"/>
    <path id="polygon5_3_" transform="translate(-819.6 -345.9)" style="fill:#d2f0ff" d="m1382.9 662.9-101 60.4-99.6-48.2 98.8-59.9z"/>
    <path id="polygon17_3_" transform="translate(-819.6 -345.9)" style="fill:#f2717c" d="m1383 629.7-101.9-45v30.5l101.9 47.7z"/>
    <path id="polygon23_3_" transform="translate(-819.6 -345.9)" style="fill:#f2717c" d="M1383.2 662.6v-33.4l-95.5 64.6v32.3z"/>
    <path id="polygon31_3_" transform="translate(-819.6 -345.9)" style="fill:#f2717c" d="M1082.7 781.6 881.5 662.5v37.6l201.2 120.6z"/>
    <path id="polygon35_3_" transform="translate(-819.6 -345.9)" style="fill:#f2717c" d="M1471.1 879 1213 752.8v-33.4l257.7 128z"/>
    <path id="path45_3_" d="m711.2 694 78.8 36.5 11.3-21.6-90.1-42.7zm-98.3-74.1-75.3-35.5v29.1l75.3 34.9z" style="fill:#f2717c"/>
    <path id="polygon49_3_" transform="translate(-819.6 -345.9)" style="fill:#f2717c" d="m1866.2 1069.6-89.7-40.6.8 25.4 88.9 42.9z"/>
    <path id="polygon53_3_" transform="translate(-819.6 -345.9)" style="fill:#f2717c" d="m1882.4 975.9-61.2-31.1.5 31.7 60.7 30.8z"/>
    <path id="polygon57_3_" transform="translate(-819.6 -345.9)" style="fill:#f2717c" d="m2456.6 634.1-176-89.5v22.8l156.7 80z"/>
    <path id="polygon59_3_" transform="translate(-819.6 -345.9)" style="fill:#f2717c" d="m2362.7 676.6-72.6-36.1v26.6l72.6 37.1z"/>
    <path id="polygon69_3_" transform="translate(-819.6 -345.9)" style="fill:#f2717c" d="m1471.1 879-.4-31.6-113.5 82.9 25.2 11.3z"/>
    <path id="polygon71_3_" transform="translate(-819.6 -345.9)" style="fill:#f2717c" d="M1658.2 1053.6v-27.9l-72 36.7v28.1z"/>
    <path id="polygon77_3_" transform="translate(-819.6 -345.9)" style="fill:#f2717c" d="m1726.3 1132.3-140.1-69.3v27.3l140.1 72.5z"/>
    <path id="polygon81_3_" transform="translate(-819.6 -345.9)" style="fill:#f2717c" d="M1726.3 1162.8v-30.5l139.9-62.7v27.7z"/>
    <path id="polygon85_3_" transform="translate(-819.6 -345.9)" style="fill:#f2717c" d="m1804.9 1041.9-28.8-12.9 106.3-53.1v31.4z"/>
    <path id="polygon89_3_" transform="translate(-819.6 -345.9)" style="fill:#f2717c" d="m1954.8 794.9 335.3-155.3v26.7l-324.4 157.9-124.1 130.9-20.4-10.3z"/>
    <path id="polygon91_3_" transform="translate(-819.6 -345.9)" style="fill:#f2717c" d="m1890.8 759.6 305.1-142.4v27.2l-294.4 144.3-66.4 48.4-1-34.6z"/>
    <path id="polygon97_3_" transform="translate(-819.6 -345.9)" style="fill:#f2717c" d="M2362.1 704.2v-27.5l93.3-44.1v27.8z"/>
    <path id="polygon101_3_" transform="translate(-819.6 -345.9)" style="fill:#f2717c" d="M2255.8 581v-26.7l-16.9 8.4v26z"/>
    <path id="polygon105_3_" transform="translate(-819.6 -345.9)" style="fill:#f2717c" d="m1855.3 517-110.8 54.3-98.7 54.4v-28.4l87.7-59.2 118.8-53.6z"/>
    <path id="polygon107_3_" transform="translate(-819.6 -345.9)" style="fill:#f2717c" d="m1339.2 492.7-1.2-25.2-456.5 195 35.7 21.5z"/>
    <path id="polygon113_3_" transform="translate(-819.6 -345.9)" style="fill:#f2717c" d="M1213 752.8v-33.4l-130.3 62.2v39.1z"/>
    <path id="polygon123_3_" transform="translate(-819.6 -345.9)" style="fill:#f2717c" d="m1624.6 739.5-116.7 62.8v30.5l116.7-62.8 29.7 16.9 1.1-28.5z"/>
    <path id="polygon153_3_" transform="translate(-819.6 -345.9)" style="fill:none;stroke:#3b256e;stroke-width:.408" d="m1819.6 669.3-170.2-75.9-71.2 33.5 172.1 72z"/>
    <path id="polygon159_3_" transform="translate(-819.6 -345.9)" style="opacity:1;fill:#fdfecc;enable-background:new" d="M1736.1 694.8 1565.2 616l-14.8 7.4 170.3 74z"/>
    <g id="g853" transform="translate(-819.6 -345.9)">
        <path id="polygon127_3_" style="fill:#97c85f;stroke:#3c536b;stroke-width:1.275;stroke-miterlimit:10" d="m1888.7 662.4-165.4-75.3-18 8.9 168 74.2z"/>
        <path id="path141_3_" d="m1691.6 597.6 166.6 72.5 13.3-6.8-164.2-73.7z" style="fill:#97c85f;stroke:#3c536b;stroke-width:1.275;stroke-miterlimit:10"/>
        <path id="polygon143_3_" style="fill:#97c85f;stroke:#3c536b;stroke-width:1.275;stroke-miterlimit:10" d="m1854.2 664.9-165.3-73.5-15.2 6.8 165.3 73.3z"/>
        <path id="polygon147_7_" style="fill:#97c85f;stroke:#3c536b;stroke-width:1.275;stroke-miterlimit:10" d="m1837.5 666.4-167.7-74.2-16.9 8 167.6 73z"/>
        <path id="polygon151_3_" style="fill:#97c85f;stroke:#3c536b;stroke-width:1.275;stroke-miterlimit:10" d="m1819.6 669.3-170.2-75.9-71.2 33.5 172.1 72z"/>
        <path id="polygon155_3_" style="fill:#97c85f;stroke:#3c536b;stroke-width:1.275;stroke-miterlimit:10" d="m1755.3 691.3-167.9-74.7-13.3 5.3 167.6 75.3z"/>
        <path id="polygon161_3_" style="fill:#97c85f;stroke:#3c536b;stroke-width:1.275;stroke-miterlimit:10" d="M1736.1 693.9 1565.2 616l-14.8 7.4 173.1 75.9z"/>
        <path id="polygon165_3_" style="fill:#97c85f;stroke:#3c536b;stroke-width:1.275;stroke-miterlimit:10" d="m1716.6 695.3-169.9-77.6-18 4.8 173.7 77.9z"/>
        <path id="polygon167_3_" style="fill:#97c85f;stroke:#3c536b;stroke-width:1.275;stroke-miterlimit:10" d="m1698.9 694.7-169.4-74.6-19.5 6.8 174.1 75.1z"/>
        <path id="polygon171_3_" style="fill:#97c85f;stroke:#3c536b;stroke-width:1.275;stroke-miterlimit:10" d="M1681.1 696.6 1502.5 616l-16.2 7.6 178.5 80.8z"/>
    </g>
    <path id="polygon175_3_" transform="translate(-819.6 -345.9)" style="fill:#f2717c" d="m1749.2 690.3-100.5 7-1.1 95.5L1891.4 662l-71.8-1.9z"/>
    <path id="polygon243_3_" transform="translate(-819.6 -345.9)" style="fill:#d2f0ff" d="m1253.2 433.2-214.6 80.7 182.8 96.9 206-104.1z"/>
    <path id="polygon255_3_" transform="translate(-819.6 -345.9)" style="fill:#f2717c" d="M1252.4 433.8v-29.3l-213.8 77.6v32.1z"/>
    <path id="polygon259_3_" transform="translate(-819.6 -345.9)" style="fill:#f2717c" d="m1427.4 475.8-175-71.7v29.7l142.8 58.1z"/>
    <path id="polygon263_3_" transform="translate(-819.6 -345.9)" style="fill:#f2717c" d="m1258.7 463.9-73.8-33.7v28.5l73.3 35z"/>
    <path id="polygon267_3_" transform="translate(-819.6 -345.9)" style="fill:#f2717c" d="m1221.4 610.8.1-29.2 205.9-105.8v30.9z"/>
    <path id="polygon273_5_" transform="translate(-819.6 -345.9)" style="fill:#f2717c" d="m1174.1 505-82.5-41-1.7 29 84.2 41.6z"/>
    <path id="polygon862" transform="translate(-819.6 -345.9)" style="fill:#f2717c" d="M1281.1 615.2v-30.5l-98.8 57.2v33.2z"/>
    <path id="polygon864" transform="translate(-819.6 -345.9)" style="fill:#f2717c" d="m1258.2 493.7.5-29.8-84.6 41.1v29.6l22.8-11.2v-21.6l14.2-7.3v22z"/>
    <g id="g915" transform="translate(-819.6 -345.9)">
        <g id="g913" style="enable-background:new">
            <g id="g911">
                <g id="g909">
                    <defs id="defs890">
                        <path id="SVGID_00000054241814725082141320000009841770799912028595_" d="m1518.2 1069-36.8 21.4-128.1-74 36.8-21.4z"/>
                    </defs>
                    <clipPath id="SVGID_00000031925354666986704950000016809267800834356638_">
                        <use xlink:href="#SVGID_00000054241814725082141320000009841770799912028595_" style="overflow:visible" id="use892" x="0" y="0" width="100%" height="100%"/>
                    </clipPath>
                    <g clip-path="url(#SVGID_00000031925354666986704950000016809267800834356638_)" id="g907">
                        <g id="g905">
                            <path d="m1378.6 1010.5-5.6-3c-1.3.2-2.5.5-3.8.9-1.2.4-2.7 1.1-4.4 2.2l-10.2 6.5 6.8 3.6 10.8-6.9c2.4-1.4 4.5-2.5 6.4-3.3m20.3-4.7c-.3-.2-.7-.4-1-.6l-13.2-7-5 3.2 12.8 6.8.6.3c1.9 1.1 2.9 2.2 3 3.2.1 1.2-.8 2.4-2.8 3.7l-19.1 12.1 7 3.7 18.8-11.9c3.6-2.3 5.2-4.6 4.8-7-.4-2.3-2.4-4.4-5.9-6.5" id="path895" style="fill:#3c536b"/>
                            <path d="M1408 1039.9c-1.3-.7-2.1-1.6-2.4-2.5-.4-1-.2-2.1.4-3.3.7-1.1 1.9-2.3 3.6-3.3l2.8-1.8c3-1.8 5.9-2.9 8.8-3.3 2.9-.4 5.4.1 7.7 1.2.1.1.3.2.4.2 2.1 1.2 3 2.6 2.8 4.2-.2 1.7-1.7 3.4-4.5 5.2l-3.2 2c-1.7 1.1-3.5 1.9-5.4 2.3-1.9.5-3.8.7-5.6.5-1.8-.1-3.5-.6-4.9-1.4-.3.1-.4.1-.5 0m26.3-16.1c-.4-.2-.7-.4-1.1-.6-2.4-1.3-5.2-2.6-8.4-3.8-3.2-1.3-6.2-2.3-9-3.1l-3.3 3.7c1 .3 2.1.6 3.3 1l2.7.9-.1.1h-.7c-1.2 0-2.6.1-4.2.4-1.6.3-3.1.7-4.7 1.3-1.5.6-2.8 1.2-3.9 1.9l-2.4 1.5c-2.7 1.8-4.5 3.6-5.4 5.6-.9 2-.8 3.9.2 5.8.9 1.7 2.5 3.2 4.9 4.6.3.1.5.3.8.4 2.8 1.5 5.9 2.5 9.2 2.9 3.3.4 6.6.3 9.9-.4 3.3-.7 6.3-1.9 9.1-3.7l3.2-2.1c3-1.9 4.9-3.8 5.8-5.8.9-2 .7-3.9-.5-5.8-.9-1.7-2.8-3.3-5.4-4.8" id="path897" style="fill:#3c536b"/>
                            <path id="polyline899" style="fill:#3c536b" d="m1465.3 1041-12.5-6.7-5 3.2 5.5 2.9-11.9 7.6 7.1 3.7 16.8-10.7"/>
                            <path d="m1486.5 1052.2-13.1-6.9-5 3.2 6.1 3.2-15.9 10.1c-1.5.9-2.9 1.5-4.3 1.5-1.4.1-2.8-.2-4.1-1-.4-.2-.8-.5-1.2-.7-.9-.5-1.8-1.1-2.5-1.6l-4.9 3c.9.7 1.7 1.3 2.5 1.9.5.3 1 .7 1.6 1 .3.2.7.4 1.1.6 3 1.6 6.1 2.3 9.3 2.2 3.2-.1 6.2-1.1 9.1-2.9l21.3-13.6" id="path901" style="fill:#3c536b"/>
                            <path d="m1517.4 1068.5-22.9-12.1-5 3.2 15.9 8.4-13.2 8.4c-2.3 1.5-4.8 2.2-7.4 2.2-2.6 0-5.3-.7-8.2-2.2-.3-.2-.6-.3-1-.5-1.9-1.1-3.8-2.4-5.6-4.1l-5.8 2.4c2.3 2 4.6 3.7 7 5.1.4.2.8.5 1.2.7 4.6 2.4 9.3 3.7 14.1 3.6 4.8 0 9.4-1.5 13.9-4.3l17-10.8" id="path903" style="fill:#3c536b"/>
                        </g>
                    </g>
                </g>
            </g>
        </g>
    </g>
    <g id="g939" transform="translate(-819.6 -345.9)">
        <g id="g933">
            <g id="g921">
                <path id="polygon917" style="opacity:1;fill:#97c85f;stroke:#3c536b;stroke-width:1.275;stroke-miterlimit:10;enable-background:new" d="m1029 677.9 12.1-7.1v-12.6l4.3 1.9 12.7-6.4.6.2v-11.6l-62.3-29v13.4l-11.5 5.5v12.2l-16 5.9v13.1l58 27.3z"/>
                <path id="polygon919" style="opacity:1;fill:#97c85f;stroke:#3c536b;stroke-width:1.275;stroke-miterlimit:10;enable-background:new" d="m1058.9 642.1 11.3-5.7v-12.3l.3.1 13.7-6.5.8.4v-13.4l13.1-6.4.6.2v-13.9l-55.2-27.3-.6 14.8-16 6v12.3l-13.6 5.6-.3-.1-.6 11.5-16 5.9z"/>
            </g>
            <path id="polygon185_5_" style="fill:#97c85f;stroke:#3c536b;stroke-width:1.275;stroke-miterlimit:10" d="m1042.7 558.2 12.6-5.4 56.4 28.5-10 4.5z"/>
            <path id="polygon189_5_" style="fill:#97c85f;stroke:#3c536b;stroke-width:1.275;stroke-miterlimit:10" d="M1054.5 553.2v-13.9l58.5 29.2-1.3 12.8z"/>
            <path id="polygon193_5_" style="fill:#97c85f;stroke:#3c536b;stroke-width:1.275;stroke-miterlimit:10" d="m1055.3 538.4 16-6.8 56.4 29-14.7 7.9z"/>
            <path id="polygon201_5_" style="fill:#97c85f;stroke:#3c536b;stroke-width:1.275;stroke-miterlimit:10" d="m984.9 632.2 16.6-8 57.2 29.1-13.3 6.8z"/>
            <path id="polygon213_5_" style="fill:#97c85f;stroke:#3c536b;stroke-width:1.275;stroke-miterlimit:10" d="m1012.4 607.4.6-11.5 57.2 28.1v12.4z"/>
            <path id="polygon221_5_" style="fill:#97c85f;stroke:#3c536b;stroke-width:1.275;stroke-miterlimit:10" d="m968.9 650.3 16-5.9 56.2 26.4-12.1 7.1z"/>
            <path id="polygon225_5_" style="fill:#97c85f;stroke:#3c536b;stroke-width:1.275;stroke-miterlimit:10" d="M984.9 644.4v-12.2l56.2 24.6v14z"/>
            <path id="polygon229_5_" style="fill:#97c85f;stroke:#3c536b;stroke-width:1.275;stroke-miterlimit:10" d="m1013 596.1 16-6.5 55.8 27.8-14.3 6.8z"/>
            <path id="polygon233_5_" style="fill:#97c85f;stroke:#3c536b;stroke-width:1.275;stroke-miterlimit:10" d="M1026.9 591.1v-13l58.1 26.3v13.7z"/>
            <path id="polygon237_5_" style="fill:#97c85f;stroke:#3c536b;stroke-width:1.275;stroke-miterlimit:10" d="m1026.9 578.1 16-6 55.4 26.1-13.3 6.5z"/>
        </g>
        <path id="polygon181_5_" style="fill:#97c85f;stroke:#3c536b;stroke-width:1.275;stroke-miterlimit:10" d="m1042.9 572.1-.2-13.9 58.5 28.1-.8 12.2z"/>
        <path id="polygon205_5_" style="fill:#97c85f;stroke:#3c536b;stroke-width:1.275;stroke-miterlimit:10" d="M996.4 626.7v-13.4l62.3 29v11.6z"/>
        <path id="polygon209_5_" style="fill:#97c85f;stroke:#3c536b;stroke-width:1.275;stroke-miterlimit:10" d="m996.4 613.3 16-5.9 57.8 29-11.3 5.7z"/>
        <path id="polygon217_5_" style="fill:#97c85f;stroke:#3c536b;stroke-width:1.275;stroke-miterlimit:10" d="M968.9 663.4v-13.1l60.1 27.6-2.1 12.8z"/>
    </g>
    <path id="polygon941" transform="translate(-819.6 -345.9)" style="fill:#f2717c" d="M1329 557.5v-30.4l-97.6-49.9v29.4l20 10.5v-20.9l14.6 7.9v20.6z"/>
    <path id="polygon943" transform="translate(-819.6 -345.9)" style="fill:#f2717c" d="m1221 668.6 15.1 7.2v25.3l95.6 46.3 15 7.3 161.3 78.1v-30.5l-325.7-160.4v33.2l38.7 18.7z"/>
    <path id="polygon945" transform="translate(-819.6 -345.9)" style="fill:#f2717c" d="m2005.4 485.6 61.8-34v-27.1l-61.8 34.1z"/>
    <path id="polygon947" transform="translate(-819.6 -345.9)" style="fill:#f2717c" d="m2277.1 544.2-209.9-92.6v-27.1l210.8 93.2Z"/>
    <path id="polygon949" transform="translate(-819.6 -345.9)" style="fill:#f2717c" d="M2144.6 547.3v-27.2l61.2-36.2-.9 27.3z"/>
    <path id="polygon951" transform="translate(-819.6 -345.9)" style="fill:#f2717c" d="M2069.9 514.9v-27.1l62-36.3V478Z"/>
    <path id="rect956" style="fill:none" d="M20 71.6h182.9V129H20Z"/>
    <path id="rect323_6_" style="fill:#3696c9" d="M66.4 64.7h90.1v38.5H66.4Z"/>
    <path id="rect323_5_" style="fill:#3696c9" d="M50.2 94.2h122.6v38.5H50.2Z"/>
    <g id="g1042" transform="translate(-819.6 -345.9)">
        <path d="M907.2 425.8c0-.7-.2-1.2-.6-1.5-.4-.3-.9-.5-1.7-.5h-4.6v-3.3h5c1.3 0 2.4.2 3.3.7.9.4 1.6 1.1 2.1 1.9.5.8.7 1.8.7 3v10h-4.2z" id="path1022" style="fill:#fffffd"/>
        <path d="M927.3 432.9v3.2h-13.5v-3.3h7.4V426c0-1.5-.8-2.2-2.4-2.2h-4.2v-3.3h4.5c1.3 0 2.4.2 3.4.7.9.4 1.7 1.1 2.2 1.9.5.8.7 1.9.7 3.1v6.5z" id="path1024" style="fill:#fffffd"/>
        <path d="M942.4 420.4v8.9c0 1.5-.3 2.8-1 3.9-.6 1.1-1.5 1.9-2.7 2.4-1.2.5-2.5.8-4 .8-2.1 0-4.2-.4-6.2-1.2l.9-3.1c1.2.5 2.4.8 3.5 1-.3-.3-.6-.6-.8-1-.2-.4-.4-.8-.5-1.2l-2.4-10.5h4.2l2.3 11c.1.6.3 1.1.5 1.5.6-.3 1.1-.7 1.5-1.3.4-.6.5-1.2.5-2.1v-9.1z" id="path1026" style="fill:#fffffd"/>
        <path d="M947.4 427.4c.1-.7.2-1.4.5-2 .3-.6.6-1.1.9-1.5l.2-.2v-.1c-.3.1-.7.2-1.2.3-.5.1-.9.3-1.2.4l-.9-3.1c1-.4 2.2-.7 3.5-.9 1.4-.2 2.6-.3 3.9-.3 2.4 0 4.2.6 5.5 1.8 1.2 1.2 1.9 3 1.9 5.4v8.8h-6.9v-3.3h2.6v-6.1c0-1-.2-1.8-.6-2.4-.4-.6-1-.8-1.7-.8-1.4 0-2.2 1.1-2.4 3.3l-.9 9.2h-4.2z" id="path1028" style="fill:#fffffd"/>
        <path d="M883.8 468v-2.8l6.1-6.4c.8-.9 1.4-1.7 1.8-2.4.4-.7.5-1.3.5-1.8 0-.8-.2-1.5-.6-1.9-.4-.4-1-.7-1.7-.7-.5 0-1 .1-1.3.4-.4.3-.7.6-.9 1.1-.2.5-.3 1-.3 1.6h-4.1c0-1.2.3-2.2.8-3.2s1.3-1.7 2.4-2.3c1-.6 2.2-.8 3.5-.8 1.3 0 2.5.2 3.4.6.9.4 1.6 1.1 2.1 1.9.5.8.7 1.8.7 2.9 0 .8-.2 1.6-.5 2.4-.3.8-.8 1.5-1.4 2.3-.6.8-1.4 1.7-2.4 2.7l-2.9 3h7.8v3.3z" id="path1030" style="fill:#fffffd"/>
        <path d="M906.4 462.6c0-1.6.3-2.7.9-3.4h3.4c-.2.8-.2 1.7-.2 2.9v5.8h-4.1zm8.9-4.7c0-1.5-.8-2.2-2.4-2.2h-6.5v-3.3h6.8c1.3 0 2.4.2 3.4.7.9.4 1.7 1.1 2.1 1.9.5.9.7 1.9.7 3.1v9.9h-4.2v-10.1z" id="path1032" style="fill:#fffffd"/>
        <path d="M924.2 459.3c.1-.7.2-1.4.5-2 .3-.6.6-1.1.9-1.5l.2-.2v-.1c-.3.1-.7.2-1.2.3-.5.1-.9.3-1.2.4l-.9-3.1c1-.4 2.2-.7 3.5-.9 1.4-.2 2.6-.3 3.9-.3 2.4 0 4.2.6 5.5 1.8 1.2 1.2 1.9 3 1.9 5.4v8.8h-6.9v-3.3h2.6v-6.1c0-1-.2-1.8-.6-2.4-.4-.6-1-.8-1.7-.8-1.4 0-2.2 1.1-2.4 3.3l-.9 9.2h-4.2z" id="path1034" style="fill:#fffffd"/>
        <path d="M941.3 455.6H940v-3.3h5.6V468h-4.2z" id="path1036" style="fill:#fffffd"/>
        <path d="M955.4 464.8c1.1 0 1.9-.4 2.5-1 .6-.6.9-1.5.9-2.7v-5.5h-9v-3.3H963v8.7c0 1.4-.3 2.7-.9 3.7-.6 1-1.5 1.8-2.6 2.3-1.1.5-2.5.8-4.1.9zm-5.6-2.3c0-.9.1-1.7.3-2.2.2-.5.4-.9.7-1.2h3.4c-.2.7-.2 1.7-.2 2.9v11.3h-4.1v-10.8z" id="path1038" style="fill:#fffffd"/>
        <path d="m978.7 455.1-5.1 12.9h-4.5l5.1-12.3h-8.3V448h4.2v4.4h8.6z" id="path1040" style="fill:#fffffd"/>
    </g>
    <path id="polygon1320" transform="translate(-819.6 -345.9)" style="fill:#f2717c" d="M2214.9 577.6V554l61.2-36.3-.9 27.4z"/>
    <g id="g1426" transform="translate(-819.6 -345.9)">
        <g id="g1424">
            <g id="g1422">
                <g id="g1420">
                    <defs id="defs1413">
                        <path id="SVGID_00000013910300332391845670000002337587737656616842_" d="M1402.8 663.8h36.8V689h-36.8z"/>
                    </defs>
                    <clipPath id="SVGID_00000109010190394184447270000015029634832107668864_">
                        <use xlink:href="#SVGID_00000013910300332391845670000002337587737656616842_" style="overflow:visible" id="use1415" x="0" y="0" width="100%" height="100%"/>
                    </clipPath>
                </g>
            </g>
        </g>
    </g>
    <path id="polygon1512" transform="translate(-819.6 -345.9)" style="fill:#f2717c" d="M2040.7 480.5v21.2l57.9 25.4V506l13.8 5.7v21.4l60.7 26.7v-20.1l13.7 5.6v20.5l52.1 22.9v-26.6l-285.3-126.8v28.1l73.4 32.2v-20.8z"/>
</svg>
