<?xml version="1.0" encoding="UTF-8" standalone="no"?>
<svg
   xmlns:dc="http://purl.org/dc/elements/1.1/"
   xmlns:cc="http://creativecommons.org/ns#"
   xmlns:rdf="http://www.w3.org/1999/02/22-rdf-syntax-ns#"
   xmlns:svg="http://www.w3.org/2000/svg"
   xmlns="http://www.w3.org/2000/svg"
   id="svg5291"
   version="1.1"
   viewBox="0 0 64.243477 43.383739"
   height="163.97003"
   width="242.81">
  <defs
     id="defs5285" />
  <metadata
     id="metadata5288">
    <rdf:RDF>
      <cc:Work
         rdf:about="">
        <dc:format>image/svg+xml</dc:format>
        <dc:type
           rdf:resource="http://purl.org/dc/dcmitype/StillImage" />
        <dc:title></dc:title>
      </cc:Work>
    </rdf:RDF>
  </metadata>
  <g
     transform="translate(-76.069405,-112.02241)"
     id="layer1">
    <g
       id="g1258"
       transform="matrix(0.26458333,0,0,0.26458333,-163.88862,-356.30129)">
      <path
         id="path1011"
         class="cls-4"
         d="m 1048.158,1892.7924 c 0,11 -19.82,41.22 -19.82,41.22 0,0 -19.83,-30 -19.83,-41.22 a 19.83,19.83 0 0 1 39.65,0"
         style="fill:#ec2426" />
      <rect
         id="rect863"
         class="cls-4"
         x="906.92798"
         y="1770.0424"
         width="242.13"
         height="93.379997"
         style="fill:#ec2426" />
      <path
         class="cls-13"
         d="m 938.84798,1788.9824 h 15.73 v 18.36 h -15.73 z m 10.76,14.49 v -10.63 h -5.79 v 10.63 z"
         id="path151"
         style="fill:#fffffd" />
      <path
         class="cls-13"
         d="m 960.65798,1792.8424 h -2.84 v -3.86 h 7.81 v 10.49 h -5 z"
         id="path153"
         style="fill:#fffffd" />
      <path
         class="cls-13"
         d="m 976.52798,1795.2624 a 2.34,2.34 0 0 0 -0.68,-1.8 2.71,2.71 0 0 0 -1.94,-0.62 h -5.47 v -3.86 h 5.84 a 8.85,8.85 0 0 1 3.87,0.78 5.57,5.57 0 0 1 2.49,2.25 6.86,6.86 0 0 1 0.85,3.51 v 11.82 h -5 z"
         id="path155"
         style="fill:#fffffd" />
      <path
         class="cls-13"
         d="m 987.15798,1792.8424 h -2.85 v -3.86 h 7.82 v 10.49 h -5 z"
         id="path157"
         style="fill:#fffffd" />
      <path
         class="cls-13"
         d="m 997.99798,1792.8424 h -2.84 v -3.86 h 7.81002 v 10.49 h -5.00002 z"
         id="path159"
         style="fill:#fffffd" />
      <path
         class="cls-13"
         d="m 1017.778,1799.2724 4,5.84 v 2.23 h -14.55 v -3.87 h 8.21 l -9.77,-14.49 h 5.49 l 3.66,5.87 2.67,-5.87 h 5.67 z"
         id="path161"
         style="fill:#fffffd" />
      <path
         class="cls-13"
         d="m 1048.028,1790.7424 a 6.83,6.83 0 0 1 1.86,5.2 v 11.4 h -5 v -11.83 c 0,-1.78 -0.77,-2.67 -2.3,-2.67 h -2.36 a 18,18 0 0 0 -0.32,1.84 15,15 0 0 0 -0.12,1.82 v 5.18 a 7.21,7.21 0 0 1 -0.67,3.21 4.7,4.7 0 0 1 -1.94,2 6.3,6.3 0 0 1 -3,0.69 16.76,16.76 0 0 1 -2.37,-0.19 v -3.84 h 1 c 1.46,0 2.18,-0.77 2.18,-2.31 v -4.34 a 10.12,10.12 0 0 1 0.26,-2.14 6.5,6.5 0 0 1 0.77,-2 h -2.86 v -3.86 h 9.41 a 7.66,7.66 0 0 1 5.46,1.84 z"
         id="path163"
         style="fill:#fffffd" />
      <path
         class="cls-13"
         d="m 1060.488,1795.2624 a 2.34,2.34 0 0 0 -0.67,-1.8 2.74,2.74 0 0 0 -1.94,-0.62 h -5.47 v -3.86 h 5.84 a 8.91,8.91 0 0 1 3.87,0.78 5.6,5.6 0 0 1 2.48,2.25 6.86,6.86 0 0 1 0.86,3.51 v 11.82 h -5 z"
         id="path165"
         style="fill:#fffffd" />
      <path
         class="cls-13"
         d="m 1084.288,1788.9824 v 3.86 h -3.24 v 14.5 h -5 v -14.5 h -7.69 v -3.86 z"
         id="path167"
         style="fill:#fffffd" />
      <path
         class="cls-13"
         d="m 1092.618,1802.8124 a 15,15 0 0 0 2.79,0.89 12.37,12.37 0 0 0 2.77,0.34 8.74,8.74 0 0 0 5.25,-1.41 4.94,4.94 0 0 0 1.93,-4.28 v -9.37 h 4.8 v 9.94 a 7.87,7.87 0 0 1 -1.57,4.94 9.5,9.5 0 0 1 -4.23,3 16.91,16.91 0 0 1 -6,1 24,24 0 0 1 -5.35,-0.62 24.54,24.54 0 0 1 -5.22,-1.79 v -16.51 h 4.8 z m 3.73,-3 a 17.05,17.05 0 0 0 0.15,-2.34 v -8.45 h 4.81 v 7.4 a 11.47,11.47 0 0 1 -0.36,2.93 5.61,5.61 0 0 1 -1,2.11 h -4 a 6.07,6.07 0 0 0 0.4,-1.69 z"
         id="path169"
         style="fill:#fffffd" />
      <path
         class="cls-13"
         d="m 932.40798,1826.5424 h 15.75 v 18.36 h -15.75 z m 10.75,14.51 v -10.64 h -5.79 v 10.64 z"
         id="path171"
         style="fill:#fffffd" />
      <path
         class="cls-13"
         d="m 954.21798,1830.3924 h -2.84 v -3.85 h 7.78 v 10.51 h -5 z"
         id="path173"
         style="fill:#fffffd" />
      <path
         class="cls-13"
         d="m 964.28798,1845.1024 c -0.53,-0.06 -1.15,-0.18 -1.88,-0.34 v -3.71 a 18.41,18.41 0 0 0 2.23,0.13 1.92,1.92 0 0 0 1.54,-0.56 2.6,2.6 0 0 0 0.5,-1.74 v -8.49 h -3.21 v -3.85 h 8.17 v 12.73 a 7,7 0 0 1 -0.67,3.19 4.69,4.69 0 0 1 -1.95,2 6.19,6.19 0 0 1 -3.05,0.7 12.86,12.86 0 0 1 -1.68,-0.06 z"
         id="path175"
         style="fill:#fffffd" />
      <path
         class="cls-13"
         d="m 975.06798,1844.4924 0.76,-3.63 a 18.72,18.72 0 0 0 3.93,0.51 4.67,4.67 0 0 0 3.22,-1 3.64,3.64 0 0 0 1,-2.85 v -7.17 h -8.22 v -3.85 h 13.2 v 10.17 q 0,4.36 -2.25,6.42 a 9,9 0 0 1 -6.31,2.06 24,24 0 0 1 -5.33,-0.66 z"
         id="path177"
         style="fill:#fffffd" />
      <path
         class="cls-13"
         d="m 994.15798,1830.3924 h -1.56 v -3.85 h 6.56 v 18.36 h -5 z"
         id="path179"
         style="fill:#fffffd" />
      <path
         class="cls-13"
         d="m 1018.378,1826.5424 v 3.85 h -3.22 v 14.51 h -5 v -14.51 h -7.69 v -3.85 z"
         id="path181"
         style="fill:#fffffd" />
      <path
         class="cls-13"
         d="m 1029.698,1826.5424 h 15.73 v 18.36 h -15.73 z m 10.76,14.51 v -10.64 h -5.79 v 10.64 z"
         id="path183"
         style="fill:#fffffd" />
      <path
         class="cls-13"
         d="m 1050.398,1826.5424 h 8.08 a 7.61,7.61 0 0 1 5.44,1.76 6.89,6.89 0 0 1 1.87,5.2 v 11.4 h -5 v -11.83 c 0,-1.78 -0.77,-2.68 -2.32,-2.68 h -3.13 v 14.51 h -5 z"
         id="path185"
         style="fill:#fffffd" />
      <path
         class="cls-13"
         d="m 1084.208,1828.3024 a 6.81,6.81 0 0 1 1.86,5.2 v 11.4 h -5 v -11.83 c 0,-1.78 -0.77,-2.68 -2.31,-2.68 h -2.36 a 18.68,18.68 0 0 0 -0.32,1.85 15,15 0 0 0 -0.12,1.82 v 5.18 a 7,7 0 0 1 -0.67,3.2 4.67,4.67 0 0 1 -1.94,2 6.29,6.29 0 0 1 -3,0.69 15.32,15.32 0 0 1 -2.37,-0.2 v -3.83 h 1 q 2.19,0 2.19,-2.31 v -4.34 a 9.51,9.51 0 0 1 0.26,-2.14 6.4,6.4 0 0 1 0.76,-2 h -2.81 v -3.85 h 9.41 a 7.65,7.65 0 0 1 5.42,1.84 z"
         id="path187"
         style="fill:#fffffd" />
      <path
         class="cls-13"
         d="m 1091.598,1834.6924 a 8.55,8.55 0 0 1 0.6,-2.35 5.48,5.48 0 0 1 1.1,-1.76 l 0.21,-0.19 v -0.07 c -0.4,0.07 -0.87,0.18 -1.42,0.33 -0.55,0.15 -1,0.31 -1.38,0.46 l -1,-3.59 a 21.86,21.86 0 0 1 4.14,-1 27.09,27.09 0 0 1 4.54,-0.4 c 2.82,0 5,0.72 6.43,2.15 1.43,1.43 2.2,3.54 2.2,6.33 v 10.35 h -8.08 v -3.9 h 3.1 v -7.17 a 4.74,4.74 0 0 0 -0.71,-2.78 2.29,2.29 0 0 0 -2,-1 q -2.49,0 -2.88,3.91 l -1.06,10.87 h -4.91 z"
         id="path189"
         style="fill:#fffffd" />
      <path
         class="cls-13"
         d="m 1111.648,1830.3924 h -1.56 v -3.85 h 6.54 v 18.36 h -5 z"
         id="path191"
         style="fill:#fffffd" />
    </g>
  </g>
</svg>
