<svg viewBox="0 0 35.19 27.718" height="104.76" width="133" xmlns="http://www.w3.org/2000/svg">
    <path style="fill:#3696c9;fill-opacity:1" d="M1056.16 471.37c0 11.42-20.77 42.73-20.77 42.73s-20.77-31.31-20.77-42.73c0-11.42 9.35-20.77 20.77-20.77 11.52.11 20.77 9.36 20.77 20.77" class="st2" transform="translate(-256.352 -108.305) scale(.26458)"/>
    <path style="fill:#3696c9" class="st2" d="M968.89 409.34h133v34.58h-133z" transform="translate(-256.352 -108.305) scale(.26458)"/>
    <path style="fill:#fff" d="M988.06 424.23c0-1.19-.27-2.05-.8-2.58-.53-.53-1.4-.8-2.59-.8h-4.98v-1.74h5.08c1.79 0 3.15.44 4.07 1.31.92.87 1.38 2.16 1.38 3.87v8.55h-2.17v-8.61zm-8.35 3.92c0-.71.05-1.26.16-1.67.11-.41.25-.82.45-1.23h1.77c-.09.36-.16.75-.21 1.19-.05.44-.07.96-.07 1.57v4.82h-2.1zm16.49 2.25c.75.32 1.53.57 2.35.75.82.18 1.61.27 2.35.27 1.12 0 2.12-.16 3-.48.88-.32 1.57-.81 2.07-1.47.5-.66.76-1.47.76-2.43v-7.92h2.1v8.12c0 1.29-.35 2.38-1.04 3.27-.69.89-1.63 1.56-2.81 2-1.18.44-2.5.66-3.96.66-1.13 0-2.3-.13-3.5-.4-1.2-.27-2.33-.66-3.41-1.18v-12.47h2.1v11.28zm3.95-2.6c.15-.53.22-1.15.22-1.86v-6.83h2.11v6.44c0 .79-.1 1.48-.29 2.07-.19.59-.49 1.09-.9 1.5l-1.79-.07c.29-.3.51-.72.65-1.25zm13.95-6.95h-2.52v-1.74h4.68v7.66h-2.17v-5.92zm4.28 12.05v-1.99c.21.03.43.05.68.05 1.12-.03 2.03-.37 2.73-1.02.7-.65 1.15-1.48 1.34-2.5v-6.58h-3.1v-1.74h5.23v7.08c0 .72.07 1.42.22 2.1l.96 4.54h-2.04l-.8-3.85h-.08a4.32 4.32 0 0 1-.78 1.95c-.43.61-.97 1.09-1.64 1.45-.67.36-1.38.54-2.16.54-.26 0-.44-.01-.56-.03zm9.7-.09.06-1.69c.5.1 1.07.15 1.7.15.64 0 1.11-.18 1.43-.55.32-.36.48-.93.48-1.69v-8.19h-2.69v-1.74h4.86v10.1c0 1.26-.31 2.22-.93 2.87-.62.66-1.52.98-2.68.98-.72.02-1.46-.06-2.23-.24zm23.96-8.58c0-1.19-.27-2.05-.8-2.58-.53-.53-1.4-.8-2.59-.8h-4.98v-1.74h5.08c1.79 0 3.15.44 4.07 1.31.92.87 1.38 2.16 1.38 3.87v8.55h-2.17v-8.61zm-8.35 3.92c0-.71.05-1.26.16-1.67.11-.41.25-.82.45-1.23h1.77c-.09.36-.16.75-.21 1.19-.05.44-.07.96-.07 1.57v4.82h-2.1zm16.91 4.72c-.8-.13-1.57-.33-2.31-.58l.42-1.62c.68.21 1.38.37 2.08.47.7.1 1.33.16 1.89.16 1.27-.02 2.26-.34 2.95-.97.69-.63 1.04-1.53 1.04-2.7v-6.78h-5.5c-.25.43-.45.97-.6 1.63a8.81 8.81 0 0 0-.23 1.96v1.05c.17.08.4.13.69.16.29.03.66.05 1.13.05v1.86c-.96 0-1.72-.06-2.27-.17-.55-.11-1.1-.32-1.65-.61l-.05-1.77c0-.78.1-1.55.3-2.3.2-.75.47-1.37.81-1.86h-1.67v-1.74h11.2v8.11c0 1.29-.25 2.37-.76 3.25-.51.88-1.21 1.53-2.1 1.96-.9.43-1.94.65-3.13.65-.69-.01-1.44-.07-2.24-.21zm13.1-12.02h-1.6v-1.74h3.76v13.73h-2.17v-11.99zm11 10.29c.77-.02 1.44-.19 2.02-.51.57-.32 1.02-.77 1.34-1.35.32-.58.48-1.26.48-2.06v-6.37h-8.47v-1.74h10.64v8.06c0 1.14-.25 2.13-.74 2.98-.49.85-1.19 1.5-2.1 1.96-.91.46-1.96.71-3.16.73v-1.7zm-4.37-3.45c0-.7.05-1.25.16-1.65.1-.4.25-.81.45-1.22h1.77c-.1.35-.17.74-.22 1.17-.05.43-.06.96-.06 1.58v10.13h-2.1z" class="st8" transform="translate(-256.352 -108.305) scale(.26458)"/>
</svg>
