<svg version="1.1" id="Capa_1" x="0" y="0" viewBox="0 0 1805.9 1081.2" xml:space="preserve" width="1805.9" height="1081.2" xmlns="http://www.w3.org/2000/svg">
    <style type="text/css" id="style2">
        .st0{enable-background:new}.st1{clip-path:url(#SVGID_1_)}.st2{fill:#c82742}.st16{clip-path:url(#SVGID_10_)}.st17{clip-path:url(#SVGID_11_)}.st18{opacity:1;fill:#ffc;enable-background:new}.st19{fill:none;stroke:#3d256e;stroke-width:.408}.st20{fill:#6786cd;stroke:#ffc;stroke-width:1.275;stroke-miterlimit:10}.st21{clip-path:url(#SVGID_12_)}.st22{opacity:1;fill:#6786cd;stroke:#ffc;stroke-width:1.275;stroke-miterlimit:10;enable-background:new}.st23{fill:none}.st24{clip-path:url(#SVGID_14_);fill:#ffc;enable-background:new}.st25{clip-path:url(#SVGID_16_)}.st25,.st26,.st27,.st28,.st29,.st30{fill:#ffc;enable-background:new}.st26{clip-path:url(#SVGID_18_)}.st27{clip-path:url(#SVGID_20_)}.st28{clip-path:url(#SVGID_24_)}.st29{clip-path:url(#SVGID_26_)}.st30{clip-path:url(#SVGID_28_)}
    </style>
    <g id="g722" transform="translate(-63.1 -1373.2)">
        <g id="g53">
            <g id="g46">
                <g id="g34">
                    <path id="polygon28" style="opacity:1;fill:#51dfc3;stroke:#ffc;stroke-width:1.275;stroke-miterlimit:10;enable-background:new" d="m220.2 1978.1 59.9 29.3 9.1-6.2 2.1-12.8 12.2-7.1-.4-.1v-13.8l-56-24.6v12.1l-16 6v13z"/>
                    <path id="polygon30" style="opacity:1;fill:#51dfc3;stroke:#ffc;stroke-width:1.275;stroke-miterlimit:10;enable-background:new" d="m205.6 2098.7 12.2-7.2v-12.6l4.2 2 12.7-6.5.6.3V2063l-62.3-28.9v13.3h.1l-11.6 5.6v12.1l-16 5.9v13.1l58.1 27.3z"/>
                    <path id="polygon32" style="opacity:1;fill:#51dfc3;stroke:#ffc;stroke-width:1.275;stroke-miterlimit:10;enable-background:new" d="m235.6 2062.8 11.3-5.7v-12.2l.2.1 13.8-6.6.7.4v-13.3l13.2-6.5.5.3v-14l-55.1-27.2-.6 14.8-16 5.9v12.4l-13.7 5.5-.3-.1-.6 11.5-16 6z"/>
                </g>
                <path id="polygon185_4_" style="fill:#51dfc3;stroke:#ffc;stroke-width:1.275;stroke-miterlimit:10" d="m220.2 1978.1 16-6.2 53 29.3-9.1 6.2z"/>
                <path id="polygon189_4_" style="fill:#51dfc3;stroke:#ffc;stroke-width:1.275;stroke-miterlimit:10" d="M231.1 1973.9v-13l60.2 27.5-2.1 12.8z"/>
                <path id="polygon193_4_" style="fill:#51dfc3;stroke:#ffc;stroke-width:1.275;stroke-miterlimit:10" d="m231.1 1960.9 16-6 56.4 26.4-12.2 7.1z"/>
                <path id="polygon201_4_" style="fill:#51dfc3;stroke:#ffc;stroke-width:1.275;stroke-miterlimit:10" d="m161.5 2053 16.6-8 57.2 29.1-13.3 6.8z"/>
                <path id="polygon213_4_" style="fill:#51dfc3;stroke:#ffc;stroke-width:1.275;stroke-miterlimit:10" d="m189 2028.1.6-11.5 57.3 28.1v12.4z"/>
                <path id="polygon221_4_" style="fill:#51dfc3;stroke:#ffc;stroke-width:1.275;stroke-miterlimit:10" d="m145.5 2071 16-5.9 56.3 26.4-12.2 7.2z"/>
                <path id="polygon225_4_" style="fill:#51dfc3;stroke:#ffc;stroke-width:1.275;stroke-miterlimit:10" d="M161.5 2065.1V2053l56.3 24.6v13.9z"/>
                <path id="polygon229_4_" style="fill:#51dfc3;stroke:#ffc;stroke-width:1.275;stroke-miterlimit:10" d="m189.6 2016.9 16-6.6 55.8 27.9-14.3 6.8z"/>
                <path id="polygon233_4_" style="fill:#51dfc3;stroke:#ffc;stroke-width:1.275;stroke-miterlimit:10" d="M203.6 2011.9v-13.1l58 26.3v13.7z"/>
                <path id="polygon237_4_" style="fill:#51dfc3;stroke:#ffc;stroke-width:1.275;stroke-miterlimit:10" d="m203.6 1998.8 16-5.9 55.4 26-13.4 6.6z"/>
            </g>
            <path id="polygon181_4_" style="fill:#51dfc3;stroke:#ffc;stroke-width:1.275;stroke-miterlimit:10" d="m219.6 1992.9.6-14.8 55.1 27.2v14z"/>
            <path id="polygon197_2_" style="fill:#51dfc3;stroke:#ffc;stroke-width:1.275;stroke-miterlimit:10" d="M247.1 1954.9v-12.1l56 24.6v13.9z"/>
            <path id="polygon205_4_" style="fill:#51dfc3;stroke:#ffc;stroke-width:1.275;stroke-miterlimit:10" d="M173 2047.4v-13.3l62.3 28.9v11.7z"/>
            <path id="polygon209_4_" style="fill:#51dfc3;stroke:#ffc;stroke-width:1.275;stroke-miterlimit:10" d="m173 2034.1 16-6 57.9 29-11.3 5.7z"/>
            <path id="polygon217_4_" style="fill:#51dfc3;stroke:#ffc;stroke-width:1.275;stroke-miterlimit:10" d="M145.5 2084.1V2071l60.1 27.7-2 12.7z"/>
        </g>
        <path id="polygon55" style="fill:#9ae3d5" d="m1481.1 1688 138-62.9-48.4-16.9 166.1-81.5-33.1-16-298.6 139.1z"/>
        <path id="polygon57" style="fill:#ffc;enable-background:new" d="m1602.6 1426-287.4 138.1.2 39.3 287.3-139.5z"/>
        <path id="polygon59" style="fill:#ffc;enable-background:new" d="M1602.7 1426v40.1L1703 1514l.7-38.2z"/>
        <path id="polygon61" style="fill:#3d256e" d="m1702.1 1512.3-99.4-48.4-287.4 140.3 105.3 48.3z"/>
        <path id="polygon63" style="fill:#ffc;enable-background:new" d="M1420.6 1512.8v38.4l101 52.3v-39.4z"/>
        <path id="polygon65" style="fill:#ffc;enable-background:new" d="M1315.3 1564.1v40.1l138 70v-41z"/>
        <path id="polygon67" style="fill:#ffc;enable-background:new" d="m1461.6 1593.2-46.3 22.6.1 39.3 46.4-22.7z"/>
        <path id="polygon69" style="fill:#ffc;enable-background:new" d="m1702.9 1476.1-50.9 24.4.1 37.3 50.9-24.1z"/>
        <path id="polygon71" style="fill:#ffc;enable-background:new" d="m1613.4 1518.7-123.6 61 .1 39.3 123.7-62.4z"/>
        <path id="polygon495_1_" style="fill:#3d256e" d="m1065.9 1656.7-440.3 194.4 113.2 54.7 564.8-177.4z"/>
        <path id="polygon501_1_" style="fill:#ffc;stroke:#231f20;stroke-width:.425;stroke-miterlimit:10;enable-background:new" d="M902.8 1730.4v-39l160.4 84.8v34.2z"/>
        <path id="polygon505_1_" style="fill:#ffc;enable-background:new" d="M1313.3 1697.7v29.3l-3.5 1.4-4.5 1.7-236.7-72.9v-36.6z"/>
        <g id="g78">
            <path id="polygon76" style="fill:#9ae3d5" d="m1452.6 1671.9-180.4 63.5-39.9 15.9-493.5 154.5-113.2-54.7-122.9 53.3-71.5-40.6-183.7 77.9 83.8 43.3-22.8 10.8L427 2055l771.1 377.4 148.1-99.6-122.3-51 328.4-241.6 301.9-169.5z"/>
        </g>
        <path id="polygon515_4_" style="fill:#3d256e" d="m1213.7 2122.7-381-185.5 553.5-168.7 216.5 106.8-135.4 103.8z"/>
        <path id="polygon497_1_" style="fill:#ffc;enable-background:new" d="M502.7 1904.4v-35.2l565.9-246.5v32.2z"/>
        <path id="polygon537_1_" style="fill:#ffc;enable-background:new" d="M1350.4 2338.8v-33.2l-124.1-46.2 1.6 35z"/>
        <path id="polygon541_1_" style="fill:#ffc;enable-background:new" d="m1197.9 2404.1 152.3-97.7v33.3l-152.3 104.7z"/>
        <path id="polygon569_1_" style="fill:#ffc;enable-background:new" d="m1603.8 1833.2-218.6-106.7v43.4l215.8 104.5z"/>
        <path id="polygon583_1_" style="fill:#ffc;enable-background:new" d="m1213.7 2080-381-184.1v41.3l381 185.5z"/>
        <path id="polygon587_1_" style="fill:#ffc;enable-background:new" d="m1197.9 2404-890-449.5v42.9l890 447z"/>
        <path id="polygon595_2_" style="fill:#ffc;enable-background:new" d="m1730.7 1774.4-223.1-106.6v36l223.1 109z"/>
        <path id="polygon599_1_" style="fill:#ffc;enable-background:new" d="M432 1865.6v-30.8l70.7 34.4v35.2z"/>
        <path id="polygon607_2_" style="fill:#ffc;enable-background:new" d="M1664.5 1846.4v-39.5l66.2-32.5v38.2z"/>
        <path id="polygon615_2_" style="fill:#ffc;enable-background:new" d="m1446.4 1702.2 61.2-34.4.1 37.1-25.9 14.4z"/>
        <path id="polygon627_1_" style="fill:#ffc;enable-background:new" d="M246.9 1943.4v-28.7l185.1-79.9v30.8z"/>
        <path id="polygon663_3_" style="fill:#a22442" d="m230.2 1909.8-5.1 5.3-17.2-17.2-10.1 10.2 17.7 17.5-5.8 5.8 25.3 5.1z"/>
        <path id="polygon821_1_" style="fill:#ffc;enable-background:new" d="m738.7 1869.2-113.1-53.8v35.7l113.1 55z"/>
        <path id="path825_1_" d="m840.1 1837.7-19.2 5.5-82.2 26.4v36.2l83-25.2 18.3-5.5v-37.4zm50.9 22.5 236-72.8v-29.8l-236 65.7zm562.3-227-271.7 102.5-1.5 34.3 273.2-97.1z" style="fill:#ffc;enable-background:new"/>
        <g id="g113">
            <path id="polygon109" style="fill:#ffc;enable-background:new" d="m1523.1 2073.4 334.5-201.8 1.4-42.9-343.2 195.3-307.2 238.7-18.3 14-34 26.4v44.7l52.9-39.6z"/>
            <path id="polygon111" style="fill:#ffc;enable-background:new" d="M1122.5 2373.1v-43.7l-26.6 20.8v42.9z"/>
        </g>
        <path id="polyline120" style="fill:#ffc;enable-background:new" d="M441.1 1898.8v36.8l-133.2 61.6v-42.7l133.2-55.7"/>
        <path id="rect849_3_" style="fill:#a22442" d="M73.1 1888.2v-40.8h25l.5-24.4H193v24.4l31.5-1.8v42.6z"/>
        <path id="polygon139" style="fill:#ffc;enable-background:new" d="m1419.6 2006.1 28-15.9 25.2-14.2 129.9-100.7v-43.2l-129.9 99.2-259.1 148.7v42.7l153.6-87v-29.4l52.3-28.9z"/>
        <path id="polygon141" style="fill:#ffc;enable-background:new" d="M1385.8 1769.7v-42.9l-553.1 169.1v41.3l251.6-76.2v-27.4l56.8-16.4v26.6z"/>
        <g id="g432">
            <path d="M120.8 1838.2c0-.7-.2-1.2-.6-1.5-.4-.4-.9-.5-1.6-.5h-4.7v-3.3h5c1.3 0 2.4.2 3.3.7.9.4 1.6 1.1 2.1 1.9.5.8.7 1.8.7 3v10h-4.2z" id="path408" style="fill:#fffffd"/>
            <path d="M140.2 1845.3v3.2h-13.5v-3.3h7.4v-6.8c0-1.5-.8-2.2-2.4-2.2h-4.2v-3.3h4.5c1.3 0 2.4.2 3.4.7.9.4 1.7 1.1 2.2 1.9.5.9.7 1.9.7 3.1v6.5z" id="path410" style="fill:#fffffd"/>
            <path d="M154.6 1832.8v8.9c0 1.5-.3 2.8-1 3.9-.6 1.1-1.5 1.9-2.7 2.4-1.2.5-2.5.8-4 .8-2.1 0-4.2-.4-6.2-1.2l.9-3.1c1.2.5 2.4.8 3.5 1-.3-.3-.6-.6-.8-1-.2-.4-.4-.8-.5-1.2l-2.4-10.5h4.2l2.3 11c.1.6.3 1.1.5 1.5.6-.3 1.1-.7 1.5-1.3.3-.6.5-1.2.5-2.1v-9.1z" id="path412" style="fill:#fffffd"/>
            <path d="M159 1839.8c.1-.7.2-1.4.5-2 .3-.6.6-1.1.9-1.5l.2-.2v-.1c-.3.1-.7.2-1.2.3-.5.1-.9.3-1.2.4l-.9-3.1c1-.4 2.2-.7 3.5-.9 1.4-.2 2.6-.3 3.9-.3 2.4 0 4.2.6 5.5 1.8 1.2 1.2 1.9 3 1.9 5.4v8.8h-6.9v-3.3h2.6v-6.1c0-1-.2-1.8-.6-2.4-.4-.6-1-.8-1.7-.8-1.4 0-2.2 1.1-2.4 3.3l-.9 9.2H158Z" id="path414" style="fill:#fffffd"/>
            <path d="M100.2 1866.2c1.1 1 1.6 2.5 1.6 4.4v9.7h-4.2v-10.1c0-1.5-.7-2.3-2-2.3h-2c-.1.5-.2 1-.3 1.6-.1.6-.1 1.1-.1 1.6v4.4c0 1.1-.2 2-.6 2.7-.4.8-.9 1.3-1.6 1.7-.7.4-1.6.6-2.6.6-.6 0-1.3-.1-2-.2v-3.3h.8c1.2 0 1.9-.7 1.9-2v-3.7c0-.6.1-1.2.2-1.8.1-.7.4-1.2.6-1.7h-2.4v-3.3h8c2.1.3 3.6.8 4.7 1.7z" id="path416" style="fill:#fffffd"/>
            <path d="M105.1 1868h-1.3v-3.3h5.6v15.6h-4.2V1868Z" id="path418" style="fill:#fffffd"/>
            <path d="m124.4 1867.5-5.1 12.9h-4.5l5.1-12.3h-8.3v-7.6h4.2v4.4h8.6z" id="path420" style="fill:#fffffd"/>
            <path d="M126.9 1868h-1.3v-3.3h5.6v15.6H127V1868Z" id="path422" style="fill:#fffffd"/>
            <path d="m133.4 1880 .6-3.1c1.3.3 2.4.4 3.3.4 1.2 0 2.2-.3 2.7-.8.6-.5.9-1.3.9-2.4v-6.1h-7v-3.3h11.2v8.6c0 2.5-.6 4.3-1.9 5.5-1.3 1.2-3.1 1.7-5.4 1.7-1.2.1-2.7-.1-4.4-.5z" id="path424" style="fill:#fffffd"/>
            <path d="M152.8 1876.5c.7.3 1.5.6 2.4.8.9.2 1.6.3 2.4.3 1.9 0 3.4-.4 4.5-1.2 1.1-.8 1.6-2 1.6-3.6v-8h4.1v8.4c0 1.7-.4 3.1-1.3 4.2s-2.1 2-3.6 2.6c-1.5.6-3.2.9-5.1.9-1.5 0-3-.2-4.6-.5-1.6-.4-3-.9-4.4-1.5v-14h4.1v11.6zm3.2-2.6c.1-.6.1-1.3.1-2v-7.2h4.1v6.3c0 .9-.1 1.7-.3 2.5-.2.8-.5 1.4-.8 1.8h-3.4c.1-.3.2-.8.3-1.4z" id="path426" style="fill:#fffffd"/>
            <path d="m181.5 1873.8 4.5 6.5h-4.7l-5.7-8.2c-.2.3-.4.8-.4 1.3v7h-4.1v-5.1c0-1.4.2-2.6.7-3.5.5-.9 1.2-1.5 2.1-2l-3.4-5h4.7l3.7 5.3 2.5-5.3h4.7z" id="path428" style="fill:#fffffd"/>
            <path d="m200.1 1867.5-5.1 12.9h-4.5l5.1-12.3h-8.3v-7.6h4.2v4.4h8.6z" id="path430" style="fill:#fffffd"/>
        </g>
        <path id="polygon640" style="fill:#ffc" d="M1551.4 1789.5v-37.1l62.3-34.6v37.1z"/>
        <path id="polygon642" style="fill:#ffc;enable-background:new" d="m1510 1771.5 82.6 40v-30.2l20.2 10.2v29.8l51.7 25.1v-39.5l-218.1-104.7v38.4l43.4 21.1v-31.6l20.2 10.2z"/>
    </g>
</svg>
