<?xml version="1.0" encoding="UTF-8" standalone="no"?>
<svg
   xmlns:dc="http://purl.org/dc/elements/1.1/"
   xmlns:cc="http://creativecommons.org/ns#"
   xmlns:rdf="http://www.w3.org/1999/02/22-rdf-syntax-ns#"
   xmlns:svg="http://www.w3.org/2000/svg"
   xmlns="http://www.w3.org/2000/svg"
   xmlns:xlink="http://www.w3.org/1999/xlink"
   version="1.1"
   id="svg7036"
   viewBox="0 0 64.900002 46.800015"
   height="46.800014"
   width="64.900002">
  <defs
     id="defs7038">
    <clipPath
       id="SVGID_26_">
      <use
         height="100%"
         width="100%"
         y="0"
         x="0"
         style="overflow:visible"
         xlink:href="#SVGID_25_"
         overflow="visible"
         id="use469" />
    </clipPath>
  </defs>
  <metadata
     id="metadata7041">
    <rdf:RDF>
      <cc:Work
         rdf:about="">
        <dc:format>image/svg+xml</dc:format>
        <dc:type
           rdf:resource="http://purl.org/dc/dcmitype/StillImage" />
        <dc:title></dc:title>
      </cc:Work>
    </rdf:RDF>
  </metadata>
  <g
     transform="translate(-318.97858,-546.10504)"
     id="layer1">
    <rect
       style="fill:#141132"
       x="326.97858"
       y="546.10504"
       width="48.299999"
       height="13"
       id="rect315" />
    <rect
       style="fill:#141132"
       x="318.97858"
       y="554.00507"
       width="64.900002"
       height="13"
       id="rect317" />
    <path
       style="fill:#f7d786"
       d="m 336.07856,549.50506 0,7.6 -1.5,0 0,-6.4 -1.2,0 0,-1.2 2.7,0 z m 4.1,0 0,2.1 c 0,0.2 0,0.4 0,0.5 0,0.1 0,0.3 0,0.4 0,0.1 0,0.2 0,0.3 0,0.1 0,0.2 -0.1,0.3 l -1.5,-0.2 c 0,-0.1 0,-0.2 0.1,-0.3 0,-0.1 0,-0.2 0,-0.3 0,-0.1 0,-0.2 0,-0.4 0,-0.1 0,-0.3 0,-0.5 l 0,-0.8 -1.3,0 0,-1.2 2.8,0 z m 4.7,1 c 0.1,-0.2 0.1,-0.4 0.2,-0.6 0.1,-0.2 0.1,-0.4 0.2,-0.6 l 2.2,0.6 c 0,0.1 0,0.3 0,0.4 0,0.1 0,0.3 0,0.4 0,0.3 -0.1,0.6 -0.2,0.8 -0.1,0.3 -0.1,0.5 -0.2,0.8 -0.2,0.4 -0.3,0.8 -0.6,1.2 -0.2,0.3 -0.5,0.6 -0.7,0.9 -0.3,0.3 -0.5,0.5 -0.9,0.7 -0.3,0.2 -0.6,0.4 -1,0.5 -0.3,0.1 -0.7,0.3 -1,0.4 -0.4,0.1 -0.7,0.2 -1.1,0.3 l -0.4,-1.3 c 0.4,-0.1 0.8,-0.2 1.1,-0.3 0.3,-0.1 0.6,-0.2 0.9,-0.4 -0.2,-0.5 -0.4,-1 -0.5,-1.5 -0.2,-0.5 -0.4,-1 -0.5,-1.5 0,-0.1 -0.1,-0.2 -0.1,-0.2 0,-0.1 -0.1,-0.1 -0.1,-0.2 0,0 -0.1,-0.1 -0.1,-0.1 0,0 -0.1,-0.1 -0.2,-0.1 l -0.7,-0.3 c 0.1,-0.2 0.2,-0.4 0.3,-0.6 0.1,-0.2 0.2,-0.4 0.3,-0.6 0.1,0 0.2,0.1 0.4,0.1 0.1,0 0.2,0.1 0.4,0.1 0.2,0.1 0.4,0.2 0.5,0.2 0.1,0.1 0.2,0.2 0.3,0.2 0.1,0.1 0.2,0.2 0.2,0.3 0.1,0.1 0.1,0.2 0.2,0.3 0.1,0.2 0.1,0.4 0.2,0.6 0.1,0.2 0.1,0.4 0.2,0.6 0.1,0.2 0.2,0.5 0.2,0.7 0.1,0.3 0.2,0.6 0.3,1 0.2,-0.2 0.3,-0.3 0.5,-0.5 0.1,-0.2 0.2,-0.4 0.3,-0.6 0.1,-0.2 0.2,-0.5 0.3,-0.8 0.1,-0.3 0.1,-0.6 0.2,-0.9 l -1.1,0 z m 6.4,-1 0,2.1 c 0,0.2 0,0.4 0,0.5 0,0.1 0,0.3 0,0.4 0,0.1 0,0.2 0,0.3 0,0.1 0,0.2 -0.1,0.3 l -1.5,-0.2 c 0,-0.1 0,-0.2 0.1,-0.3 0,-0.1 0,-0.2 0,-0.3 0,-0.1 0,-0.2 0,-0.4 0,-0.1 0,-0.3 0,-0.5 l 0,-0.8 -1.3,0 0,-1.2 2.8,0 z m 3.1,1.2 c -0.2,0 -0.4,0 -0.5,0 -0.1,0 -0.3,0 -0.4,0 -0.1,0 -0.3,0 -0.4,-0.1 -0.1,0 -0.3,-0.1 -0.5,-0.1 0.1,-0.2 0.1,-0.4 0.2,-0.6 0.1,-0.2 0.1,-0.4 0.2,-0.6 0.2,0.1 0.4,0.1 0.5,0.1 0.1,0 0.3,0.1 0.4,0.1 0.1,0 0.3,0 0.4,0 0.1,0 0.3,0 0.5,0 l 3.2,0 0,1.2 -1.1,0 0,4.6 -1.6,0 0,-4.6 -0.9,0 z m 7.3,-1.2 0,5.8 -1.5,0 0,-4.6 -1,0 0,-1.2 2.5,0 z m 1.4,0.4 c 0.2,-0.1 0.4,-0.3 0.6,-0.4 0.2,-0.1 0.4,-0.2 0.6,-0.4 0.1,0.1 0.2,0.2 0.2,0.3 0.1,0.1 0.1,0.2 0.2,0.3 0,0.1 0.1,0.2 0.1,0.2 0,0.1 0.1,0.2 0.1,0.3 0.3,-0.3 0.6,-0.6 1,-0.7 0.3,-0.2 0.7,-0.2 1,-0.2 0.2,0 0.5,0 0.7,0.1 0.2,0.1 0.4,0.2 0.6,0.3 0.2,0.1 0.3,0.3 0.4,0.5 0.1,0.2 0.2,0.4 0.3,0.7 0,0.2 0.1,0.4 0.1,0.7 0,0.3 0,0.5 0,0.8 0,0.1 0,0.3 0,0.5 0,0.2 0,0.3 0,0.6 0,0.3 0,0.5 0,0.7 0,0.2 0,0.4 0,0.6 0,0.1 0,0.2 0,0.3 0,0.1 0,0.2 0,0.3 l -3,0 0,-1.2 1.5,0 c 0,0 0,-0.1 0,-0.1 0,-0.1 0,-0.1 0,-0.3 0,-0.1 0,-0.3 0,-0.4 0,-0.1 0,-0.4 0,-0.7 0,-0.1 0,-0.2 0,-0.3 0,-0.1 0,-0.2 0,-0.3 0,-0.1 0,-0.2 0,-0.3 0,-0.1 0,-0.2 0,-0.3 0,-0.3 -0.1,-0.5 -0.3,-0.6 -0.1,-0.1 -0.3,-0.2 -0.6,-0.2 -0.1,0 -0.3,0 -0.4,0.1 -0.1,0.1 -0.3,0.1 -0.4,0.2 -0.1,0.1 -0.2,0.1 -0.3,0.2 -0.1,0.1 -0.2,0.2 -0.2,0.3 -0.1,0.4 -0.1,0.8 -0.2,1.1 0,0.3 -0.1,0.6 -0.1,0.8 0,0.2 -0.1,0.4 -0.1,0.6 0,0.2 -0.1,0.3 -0.1,0.5 0,0.2 0,0.3 -0.1,0.5 0,0.2 -0.1,0.4 -0.1,0.6 l -1.5,0 0.1,-1 c 0,-0.2 0.1,-0.5 0.1,-0.7 0,-0.2 0.1,-0.4 0.1,-0.6 0,-0.2 0.1,-0.4 0.1,-0.6 0,-0.2 0.1,-0.4 0.1,-0.7 0,-0.1 0,-0.1 0,-0.2 0,-0.1 0,-0.1 0,-0.2 0,-0.1 0,-0.2 0,-0.3 0,-0.1 0,-0.2 -0.1,-0.2 0,-0.1 -0.1,-0.2 -0.1,-0.2 0,-0.1 -0.1,-0.2 -0.1,-0.3 l -0.2,-0.7 z"
       id="path319" />
    <path
       style="fill:#f7d786"
       d="m 325.17856,558.10506 0,2.1 c 0,0.2 0,0.4 0,0.5 0,0.1 0,0.3 0,0.4 0,0.1 0,0.2 0,0.3 0,0.1 0,0.2 -0.1,0.3 l -1.5,-0.2 c 0,-0.1 0,-0.2 0.1,-0.3 0,-0.1 0,-0.2 0,-0.3 0,-0.1 0,-0.2 0,-0.4 0,-0.1 0,-0.3 0,-0.5 l 0,-0.8 -1.3,0 0,-1.2 2.8,0 z m 1.3,-2 c 0.1,-0.1 0.3,-0.2 0.5,-0.3 0.2,-0.1 0.3,-0.1 0.5,-0.1 0.1,0 0.2,0 0.3,0 0.1,0 0.2,0.1 0.3,0.1 0.1,0.1 0.1,0.1 0.2,0.2 0,0.1 0.1,0.2 0.1,0.3 0,0.2 0,0.3 -0.1,0.4 -0.1,0.1 -0.1,0.3 -0.2,0.5 -0.1,0.2 -0.2,0.4 -0.3,0.6 -0.1,0.2 -0.3,0.5 -0.5,0.8 l -1,0 0.6,-1.6 -0.4,-0.9 z m 2.5,0 c 0.1,-0.1 0.3,-0.2 0.5,-0.3 0.2,-0.1 0.3,-0.1 0.5,-0.1 0.1,0 0.2,0 0.3,0 0.1,0 0.2,0.1 0.3,0.1 0.1,0.1 0.1,0.1 0.2,0.2 0,0.1 0.1,0.2 0.1,0.3 0,0.2 0,0.3 -0.1,0.4 0,0.1 -0.1,0.3 -0.2,0.5 -0.1,0.2 -0.2,0.4 -0.3,0.6 -0.1,0.2 -0.3,0.5 -0.5,0.8 l -1,0 0.6,-1.6 -0.4,-0.9 z m 8.4,4 c -0.1,0.2 -0.1,0.4 -0.2,0.6 -0.1,0.2 -0.1,0.4 -0.2,0.5 -0.1,0.2 -0.2,0.3 -0.3,0.4 -0.1,0.1 -0.3,0.3 -0.4,0.4 l 1.2,1.4 -1,0.9 -2.9,-3.4 c -0.1,0.1 -0.1,0.2 -0.1,0.4 0,0.2 -0.1,0.3 -0.1,0.5 0,0.2 0,0.4 0,0.6 0,0.2 0,0.4 0,0.5 0,0.1 0,0.1 0,0.2 0,0.1 0,0.2 0,0.3 0,0.1 0,0.2 0,0.3 0,0.1 0,0.2 0,0.3 l -1.4,0 c 0,-0.1 0,-0.2 0,-0.3 0,-0.1 0,-0.3 0,-0.4 0,-0.1 0,-0.3 0,-0.5 0,-0.2 0,-0.4 0,-0.6 0,-0.2 0,-0.4 0,-0.6 0,-0.2 0.1,-0.4 0.1,-0.6 0.1,-0.2 0.1,-0.4 0.2,-0.5 0.1,-0.2 0.2,-0.3 0.4,-0.5 -0.1,-0.1 -0.2,-0.2 -0.3,-0.4 -0.1,-0.1 -0.1,-0.2 -0.2,-0.4 -0.1,-0.1 -0.1,-0.3 -0.2,-0.4 -0.1,-0.1 -0.1,-0.3 -0.2,-0.5 0.2,-0.1 0.4,-0.2 0.7,-0.3 0.2,-0.1 0.5,-0.2 0.7,-0.2 0.1,0.2 0.2,0.4 0.2,0.6 0.1,0.2 0.2,0.3 0.2,0.5 0.1,0.1 0.2,0.3 0.3,0.4 0.1,0.1 0.2,0.3 0.4,0.5 l 1.1,1.2 c 0.1,-0.1 0.2,-0.2 0.2,-0.3 0.1,-0.1 0.1,-0.3 0.2,-0.4 0,-0.1 0,-0.1 0.1,-0.2 0,-0.1 0,-0.2 0.1,-0.2 l 0.1,-0.7 -0.8,-0.1 0.2,-1.2 2.1,0.4 0,0.7 -0.2,1.1 z m 1.6,-1.5 c 0.2,-0.1 0.4,-0.3 0.6,-0.4 0.2,-0.1 0.4,-0.2 0.6,-0.4 0.1,0.1 0.2,0.2 0.2,0.3 0.1,0.1 0.1,0.2 0.2,0.3 0,0.1 0.1,0.2 0.1,0.2 0,0.1 0.1,0.2 0.1,0.3 0.3,-0.3 0.6,-0.6 1,-0.7 0.3,-0.2 0.7,-0.2 1,-0.2 0.2,0 0.5,0 0.7,0.1 0.2,0.1 0.4,0.2 0.6,0.3 0.2,0.1 0.3,0.3 0.4,0.5 0.1,0.2 0.2,0.4 0.3,0.7 0,0.2 0.1,0.4 0.1,0.7 0,0.3 0,0.5 0,0.8 0,0.1 0,0.3 0,0.5 0,0.2 0,0.3 0,0.6 0,0.3 0,0.5 0,0.7 0,0.2 0,0.4 0,0.6 0,0.1 0,0.2 0,0.3 0,0.1 0,0.2 0,0.3 l -3,0 0,-1.3 1.5,0 c 0,0 0,-0.1 0,-0.1 0,-0.1 0,-0.1 0,-0.3 0,-0.1 0,-0.3 0,-0.4 0,-0.1 0,-0.4 0,-0.7 0,-0.1 0,-0.2 0,-0.3 0,-0.1 0,-0.2 0,-0.3 0,-0.1 0,-0.2 0,-0.3 0,-0.1 0,-0.2 0,-0.3 0,-0.3 -0.1,-0.5 -0.3,-0.6 -0.1,-0.1 -0.3,-0.2 -0.6,-0.2 -0.1,0 -0.3,0 -0.4,0.1 -0.1,0.1 -0.3,0.1 -0.4,0.2 -0.1,0.1 -0.2,0.1 -0.3,0.2 -0.1,0.1 -0.2,0.2 -0.2,0.3 -0.1,0.4 -0.1,0.8 -0.2,1.1 0,0.3 -0.1,0.6 -0.1,0.8 0,0.2 -0.1,0.4 -0.1,0.6 0,0.2 -0.1,0.3 -0.1,0.5 0,0.2 0,0.3 -0.1,0.5 0,0.2 -0.1,0.4 -0.1,0.6 l -1.5,0 0.1,-1 c 0,-0.2 0.1,-0.5 0.1,-0.7 0,-0.2 0.1,-0.4 0.1,-0.6 0,-0.2 0.1,-0.4 0.1,-0.6 0,-0.2 0.1,-0.5 0.1,-0.7 0,-0.1 0,-0.1 0,-0.2 0,-0.1 0,-0.1 0,-0.2 0,-0.1 0,-0.2 0,-0.3 0,-0.1 0,-0.2 -0.1,-0.2 0,-0.1 -0.1,-0.2 -0.1,-0.2 0,-0.1 -0.1,-0.2 -0.1,-0.3 l -0.2,-0.6 z m 12.8,1.5 c -0.1,0.2 -0.1,0.4 -0.2,0.6 -0.1,0.2 -0.1,0.4 -0.2,0.5 -0.1,0.2 -0.2,0.3 -0.3,0.4 -0.1,0.1 -0.3,0.3 -0.4,0.4 l 1.2,1.4 -1,0.9 -2.9,-3.4 c -0.1,0.1 -0.1,0.2 -0.1,0.4 0,0.2 -0.1,0.3 -0.1,0.5 0,0.2 0,0.4 0,0.6 0,0.2 0,0.4 0,0.5 0,0.1 0,0.1 0,0.2 0,0.1 0,0.2 0,0.3 0,0.1 0,0.2 0,0.3 0,0.1 0,0.2 0,0.3 l -1.5,0 c 0,-0.1 0,-0.2 0,-0.3 0,-0.1 0,-0.3 0,-0.4 0,-0.1 0,-0.3 0,-0.5 0,-0.2 0,-0.4 0,-0.6 0,-0.2 0,-0.4 0,-0.6 0,-0.2 0.1,-0.4 0.1,-0.6 0.1,-0.2 0.1,-0.4 0.2,-0.5 0.1,-0.2 0.2,-0.3 0.4,-0.5 -0.1,-0.1 -0.2,-0.2 -0.3,-0.4 -0.1,-0.1 -0.1,-0.2 -0.2,-0.4 -0.1,-0.1 -0.1,-0.3 -0.2,-0.4 -0.1,-0.1 -0.1,-0.3 -0.2,-0.5 0.2,-0.1 0.4,-0.2 0.7,-0.3 0.2,-0.1 0.5,-0.2 0.7,-0.2 0.1,0.2 0.2,0.4 0.2,0.6 0.1,0.2 0.2,0.3 0.2,0.5 0.1,0.1 0.2,0.3 0.3,0.4 0.1,0.1 0.2,0.3 0.4,0.5 l 1.1,1.2 c 0.1,-0.1 0.2,-0.2 0.2,-0.3 0.1,-0.1 0.1,-0.3 0.2,-0.4 0,-0.1 0,-0.1 0.1,-0.2 0.1,-0.1 0,-0.2 0.1,-0.2 l 0.1,-0.7 -0.8,-0.1 0.2,-1.2 2.1,0.4 0,0.7 -0.1,1.1 z m 7.4,-2 0,7.6 -1.5,0 0,-6.4 -1.2,0 0,-1.2 2.7,0 z m 3.4,1.3 c -0.2,0 -0.4,0 -0.5,0 -0.1,0 -0.3,0 -0.4,0 -0.1,0 -0.3,0 -0.4,-0.1 -0.1,0 -0.3,-0.1 -0.5,-0.1 0.1,-0.2 0.1,-0.4 0.2,-0.6 0.1,-0.2 0.1,-0.4 0.2,-0.6 0.2,0.1 0.4,0.1 0.5,0.1 0.1,0 0.3,0.1 0.4,0.1 0.1,0 0.3,0 0.4,0 0.1,0 0.3,0 0.5,0 l 0.5,0 c 0.2,0 0.5,0 0.7,0.1 0.2,0.1 0.4,0.2 0.6,0.3 0.2,0.2 0.3,0.4 0.4,0.6 0.1,0.3 0.2,0.6 0.2,1 0,0.2 0,0.4 0,0.6 0,0.2 0,0.4 0,0.6 0,0.2 0,0.5 0,0.7 0,0.2 0,0.5 0,0.8 0,0.1 0,0.2 0,0.2 0,0.1 0,0.2 0,0.2 0,0.1 0,0.2 0,0.3 0,0.1 0,0.2 -0.1,0.4 l -5,0 0,-1.2 3.5,0 c 0,-0.2 0,-0.4 0,-0.6 0,-0.2 0,-0.4 0,-0.6 0,-0.2 0,-0.4 0,-0.6 0,-0.2 0,-0.4 0,-0.6 0,-0.2 0,-0.4 0,-0.6 0,-0.1 -0.1,-0.3 -0.1,-0.3 -0.1,-0.1 -0.2,-0.1 -0.3,-0.2 -0.1,0 -0.3,0 -0.5,0 l -0.3,0 z m 6.8,-1.3 0,5.8 -1.5,0 0,-4.6 -1,0 0,-1.2 2.5,0 z m 3.1,1.3 c -0.2,0 -0.4,0 -0.5,0 -0.1,0 -0.3,0 -0.4,0 -0.1,0 -0.3,0 -0.4,-0.1 -0.1,0 -0.3,-0.1 -0.5,-0.1 0.1,-0.2 0.1,-0.4 0.2,-0.6 0.1,-0.2 0.1,-0.4 0.2,-0.6 0.2,0.1 0.4,0.1 0.5,0.1 0.1,0 0.3,0.1 0.4,0.1 0.1,0 0.3,0 0.4,0 0.1,0 0.3,0 0.5,0 l 3.2,0 0,1.2 -1.1,0 0,4.6 -1.5,0 0,-4.6 -1,0 z m 7.3,-1.3 0,5.8 -1.5,0 0,-4.6 -1,0 0,-1.2 2.5,0 z"
       id="path321" />
    <g
       transform="translate(66.52858,-53.194943)"
       id="g463">
      <defs
         id="defs465">
        <rect
           id="SVGID_25_"
           x="24.700001"
           y="79.099998"
           width="554"
           height="1157.5" />
      </defs>
      <clipPath
         id="clipPath6971">
        <use
           height="100%"
           width="100%"
           y="0"
           x="0"
           style="overflow:visible"
           xlink:href="#SVGID_25_"
           overflow="visible"
           id="use6973" />
      </clipPath>
      <path
         style="fill:#141132"
         clip-path="url(#SVGID_26_)"
         d="m 292.7,630 c 0,4.3 -7.8,16.1 -7.8,16.1 0,0 -7.8,-11.8 -7.8,-16.1 0,-4.3 3.5,-7.8 7.8,-7.8 4.3,0.1 7.8,3.5 7.8,7.8"
         id="path471" />
      <path
         style="fill:#ffffff"
         clip-path="url(#SVGID_26_)"
         d="m 284.9,634 c -2.2,0 -4,-1.8 -4,-4 0,-2.2 1.8,-4 4,-4 2.2,0 4,1.8 4,4 0,2.2 -1.8,4 -4,4 m 0,-8.9 c -2.7,0 -4.9,2.2 -4.9,4.9 0,2.7 2.2,4.9 4.9,4.9 2.7,0 4.9,-2.2 4.9,-4.9 0,-2.7 -2.2,-4.9 -4.9,-4.9 m 0,4.3 c -0.3,0 -0.6,0.3 -0.6,0.6 l 0,1.8 c 0,0.3 0.3,0.6 0.6,0.6 0.3,0 0.6,-0.3 0.6,-0.6 l 0,-1.8 c 0,-0.3 -0.3,-0.6 -0.6,-0.6 m 0,-1.9 c -0.3,0 -0.6,0.3 -0.6,0.6 0,0.3 0.3,0.6 0.6,0.6 0.3,0 0.6,-0.3 0.6,-0.6 0,-0.3 -0.3,-0.6 -0.6,-0.6"
         id="path473" />
    </g>
  </g>
</svg>
