<?xml version="1.0" encoding="UTF-8" standalone="no"?>
<svg
   xmlns:dc="http://purl.org/dc/elements/1.1/"
   xmlns:cc="http://creativecommons.org/ns#"
   xmlns:rdf="http://www.w3.org/1999/02/22-rdf-syntax-ns#"
   xmlns:svg="http://www.w3.org/2000/svg"
   xmlns="http://www.w3.org/2000/svg"
   version="1.1"
   id="svg4341"
   viewBox="0 0 178.99999 169.59985"
   height="169.59985"
   width="179">
  <defs
     id="defs4343" />
  <metadata
     id="metadata4346">
    <rdf:RDF>
      <cc:Work
         rdf:about="">
        <dc:format>image/svg+xml</dc:format>
        <dc:type
           rdf:resource="http://purl.org/dc/dcmitype/StillImage" />
        <dc:title></dc:title>
      </cc:Work>
    </rdf:RDF>
  </metadata>
  <path
     style="fill:#e04c26;fill-opacity:1"
     d="m 116.70002,113.59984 c 0,15 -27.2,56 -27.2,56 0,0 -27.2,-41.1 -27.2,-56 0,-14.899996 12.3,-27.199996 27.2,-27.199996 15.1,0.3 27.2,12.3 27.2,27.199996"
     class="st6"
     id="path471_2_" />
  <path
     style="fill:#ffffff;enable-background:new"
     d="m 89.50002,127.49984 c -7.7,0 -14,-6.3 -14,-14 0,-7.7 6.3,-13.999996 14,-13.999996 7.7,0 14,6.299996 14,13.999996 0,7.7 -6.3,14 -14,14 m 0,-30.999996 c -9.4,0 -17.1,7.699996 -17.1,17.099996 0,9.4 7.7,17.1 17.1,17.1 9.4,0 17.1,-7.7 17.1,-17.1 0,-9.4 -7.7,-17.099996 -17.1,-17.099996 m 0,14.999996 c -1,0 -2.1,1 -2.1,2.1 l 0,6.3 c 0,1 1,2.1 2.1,2.1 1,0 2.1,-1 2.1,-2.1 l 0,-6.3 c 0,-1.1 -1,-2.1 -2.1,-2.1 m 0,-6.6 c -1,0 -2.1,1 -2.1,2.1 0,1 1,2.1 2.1,2.1 1,0 2.1,-1 2.1,-2.1 0,-1.1 -1,-2.1 -2.1,-2.1"
     class="st18"
     id="path473_2_" />
  <g
     transform="translate(-932.6,-1555.8001)"
     id="g611">
    <rect
       style="fill:#c52036"
       height="45.299999"
       width="131.7"
       class="st6"
       y="1555.8"
       x="956.40002"
       id="rect315_1_" />
    <rect
       style="fill:#c52036"
       height="45.299999"
       width="177.10001"
       class="st6"
       y="1590"
       x="934.5"
       id="rect317_1_" />
  </g>
  <g
     transform="translate(-932.6,-1555.8001)"
     id="g1114">
    <path
       style="fill:#ffffff"
       id="path1116"
       d="m 980.8,1570.6 -2.1,0 0,-2.3 4.9,0 0,24.4 -2.8,0 0,-22.1 z"
       class="st21" />
    <path
       style="fill:#ffffff"
       id="path1118"
       d="m 990.5,1570.6 -3.3,0 0,-2.3 6.1,0 0,10 -2.8,0 0,-7.7 z"
       class="st21" />
    <path
       style="fill:#ffffff"
       id="path1120"
       d="m 1011.2,1568.4 0,10.8 c 0,1.6 -0.3,3 -1,4.1 -0.7,1.1 -1.6,2 -2.8,2.6 -1.2,0.6 -2.6,0.9 -4.2,0.9 -2,0 -4.2,-0.4 -6.4,-1.3 l 0.7,-2.1 c 1.8,0.7 3.4,1.1 4.8,1.2 -0.8,-0.9 -1.3,-1.9 -1.5,-3 l -3,-13.1 2.8,0 2.9,13.3 c 0.1,0.6 0.3,1.1 0.4,1.6 0.1,0.4 0.3,0.8 0.5,1.2 1.2,-0.3 2.2,-0.9 2.9,-1.7 0.7,-0.9 1,-2 1,-3.4 l 0,-10.9 2.9,0 z"
       class="st21" />
    <path
       style="fill:#ffffff"
       id="path1122"
       d="m 1018.1,1570.6 -3.3,0 0,-2.3 6.1,0 0,10 -2.8,0 0,-7.7 z"
       class="st21" />
    <path
       style="fill:#ffffff"
       id="path1124"
       d="m 1038.7,1568.4 0,2.3 -3,0 0,15.7 -2.8,0 0,-15.7 -8.6,0 0,-2.3 14.4,0 z"
       class="st21" />
    <path
       style="fill:#ffffff"
       id="path1126"
       d="m 1043.3,1570.6 -2.1,0 0,-2.3 4.9,0 0,18 -2.8,0 0,-15.7 z"
       class="st21" />
    <path
       style="fill:#ffffff"
       id="path1128"
       d="m 1052.9,1574.9 c 0.1,-0.8 0.3,-1.6 0.7,-2.4 0.4,-0.7 0.8,-1.3 1.3,-1.7 0,0 0.1,-0.1 0.3,-0.2 l 0,0 c -0.5,0.1 -1,0.2 -1.7,0.4 -0.7,0.2 -1.3,0.4 -1.9,0.6 l -0.7,-2.1 c 1.2,-0.4 2.5,-0.7 4,-1 1.5,-0.3 2.8,-0.4 4.1,-0.4 2.4,0 4.3,0.6 5.6,1.9 1.3,1.3 1.9,3.2 1.9,5.7 l 0,10.7 -7.4,0 0,-2.3 4.6,0 0,-8.8 c 0,-1.6 -0.4,-2.8 -1.1,-3.7 -0.7,-0.8 -1.8,-1.3 -3.1,-1.3 -1,0 -1.8,0.4 -2.5,1.1 -0.7,0.8 -1.1,1.8 -1.2,3.1 l -1.4,11.7 -2.8,0 1.3,-11.3 z"
       class="st21" />
    <path
       style="fill:#ffffff"
       id="path1130"
       d="m 952.7,1608.2 -3.3,0 0,-2.3 6.1,0 0,10 -2.8,0 0,-7.7 z"
       class="st21" />
    <path
       style="fill:#ffffff"
       id="path1132"
       d="m 960.4,1602.7 c 0.5,-1 1.1,-1.9 2,-2.5 l 1.6,1.1 c -0.5,0.7 -0.9,1.4 -1.1,2.1 -0.2,0.7 -0.4,1.5 -0.4,2.3 l 0,1.9 -2.8,0 0,-1.8 c 0,-1.1 0.2,-2.1 0.7,-3.1 z m 4.8,0 c 0.5,-1 1.1,-1.9 2,-2.5 l 1.6,1.1 c -0.5,0.7 -0.9,1.4 -1.1,2.1 -0.2,0.7 -0.4,1.5 -0.4,2.3 l 0,1.9 -2.8,0 0,-1.8 c 0,-1.1 0.2,-2.1 0.7,-3.1 z"
       class="st21" />
    <path
       style="fill:#ffffff"
       id="path1134"
       d="m 982,1616.1 5.7,7.9 -3.2,0 -8,-11.1 c -1.1,0.7 -1.6,1.9 -1.6,3.5 l 0,7.5 -2.8,0 0,-6.5 c 0,-1.6 0.3,-2.8 0.8,-3.8 0.5,-1 1.3,-1.7 2.5,-2.3 l -3.9,-5.4 3.2,0 5.6,7.7 4.3,-7.7 3.2,0 -5.8,10.2 z"
       class="st21" />
    <path
       style="fill:#ffffff"
       id="path1136"
       d="m 993.2,1612.5 c 0.1,-0.8 0.3,-1.6 0.7,-2.4 0.4,-0.7 0.8,-1.3 1.3,-1.7 0,0 0.1,-0.1 0.3,-0.2 l 0,0 c -0.5,0.1 -1,0.2 -1.7,0.4 -0.7,0.2 -1.3,0.4 -1.9,0.6 l -0.7,-2.1 c 1.2,-0.4 2.5,-0.7 4,-1 1.5,-0.3 2.8,-0.4 4.1,-0.4 2.4,0 4.3,0.6 5.6,1.9 1.3,1.3 1.9,3.2 1.9,5.7 l 0,10.7 -7.4,0 0,-2.3 4.6,0 0,-8.8 c 0,-1.6 -0.4,-2.8 -1.1,-3.7 -0.7,-0.8 -1.8,-1.3 -3.1,-1.3 -1,0 -1.8,0.4 -2.5,1.1 -0.7,0.8 -1.1,1.8 -1.2,3.1 l -1.4,11.7 -2.8,0 1.3,-11.3 z"
       class="st21" />
    <path
       style="fill:#ffffff"
       id="path1138"
       d="m 1021.9,1616.1 5.7,7.9 -3.2,0 -8,-11.1 c -1.1,0.7 -1.6,1.9 -1.6,3.5 l 0,7.5 -2.8,0 0,-6.5 c 0,-1.6 0.3,-2.8 0.8,-3.8 0.5,-1 1.3,-1.7 2.5,-2.3 l -3.9,-5.4 3.2,0 5.6,7.7 4.3,-7.7 3.2,0 -5.8,10.2 z"
       class="st21" />
    <path
       style="fill:#ffffff"
       id="path1140"
       d="m 1040.4,1608.2 -2.1,0 0,-2.3 4.9,0 0,24.4 -2.8,0 0,-22.1 z"
       class="st21" />
    <path
       style="fill:#ffffff"
       id="path1142"
       d="m 1047.2,1623.4 0.5,-2.1 c 1.6,0.4 3.1,0.7 4.3,0.7 1.7,0 3,-0.4 3.9,-1.2 0.9,-0.8 1.3,-2 1.3,-3.6 l 0,-8.9 -9.4,0 0,-2.3 12.2,0 0,10.6 c 0,2.5 -0.7,4.5 -2,5.8 -1.4,1.3 -3.2,1.9 -5.7,1.9 -1.5,-0.1 -3.2,-0.4 -5.1,-0.9 z"
       class="st21" />
    <path
       style="fill:#ffffff"
       id="path1144"
       d="m 1066.4,1608.2 -2.1,0 0,-2.3 4.9,0 0,18 -2.8,0 0,-15.7 z"
       class="st21" />
    <path
       style="fill:#ffffff"
       id="path1146"
       d="m 1087.3,1605.9 0,2.3 -3,0 0,15.7 -2.8,0 0,-15.7 -8.6,0 0,-2.3 14.4,0 z"
       class="st21" />
    <path
       style="fill:#ffffff"
       id="path1148"
       d="m 1091.9,1608.2 -2.1,0 0,-2.3 4.9,0 0,18 -2.8,0 0,-15.7 z"
       class="st21" />
  </g>
</svg>
