<?xml version="1.0" encoding="UTF-8" standalone="no"?>
<svg
   xmlns:dc="http://purl.org/dc/elements/1.1/"
   xmlns:cc="http://creativecommons.org/ns#"
   xmlns:rdf="http://www.w3.org/1999/02/22-rdf-syntax-ns#"
   xmlns:svg="http://www.w3.org/2000/svg"
   xmlns="http://www.w3.org/2000/svg"
   xmlns:xlink="http://www.w3.org/1999/xlink"
   height="880.61444"
   width="1691.3179"
   id="svg2"
   xml:space="preserve"
   viewBox="0 0 1691.3179 880.61444"
   y="0px"
   x="0px"
   version="1.1"><metadata
     id="metadata1012"><rdf:RDF><cc:Work
         rdf:about=""><dc:format>image/svg+xml</dc:format><dc:type
           rdf:resource="http://purl.org/dc/dcmitype/StillImage" /><dc:title></dc:title></cc:Work></rdf:RDF></metadata><defs
     id="defs1010"><defs
       id="defs994"><rect
         height="1672.2"
         width="1105.5"
         y="136.39999"
         x="-128.60001"
         id="SVGID_81_" /></defs><clipPath
       id="SVGID_82_"><use
         height="100%"
         width="100%"
         y="0"
         x="0"
         id="use998"
         style="overflow:visible"
         xlink:href="#SVGID_81_" /></clipPath><defs
       id="defs470"><rect
         height="1672.2"
         width="1105.5"
         y="136.39999"
         x="-128.60001"
         id="SVGID_39_" /></defs><clipPath
       id="SVGID_40_"><use
         height="100%"
         width="100%"
         y="0"
         x="0"
         id="use474"
         style="overflow:visible"
         xlink:href="#SVGID_39_" /></clipPath><defs
       id="defs506"><rect
         height="1672.2"
         width="1105.5"
         y="136.39999"
         x="-128.60001"
         id="SVGID_41_" /></defs><clipPath
       id="SVGID_42_"><use
         height="100%"
         width="100%"
         y="0"
         x="0"
         id="use510"
         style="overflow:visible"
         xlink:href="#SVGID_41_" /></clipPath><defs
       id="defs550"><rect
         height="1672.2"
         width="1105.5"
         y="136.39999"
         x="-128.60001"
         id="SVGID_43_" /></defs><clipPath
       id="SVGID_44_"><use
         height="100%"
         width="100%"
         y="0"
         x="0"
         id="use554"
         style="overflow:visible"
         xlink:href="#SVGID_43_" /></clipPath><defs
       id="defs570"><rect
         height="1672.2"
         width="1105.5"
         y="136.39999"
         x="-128.60001"
         id="SVGID_45_" /></defs><clipPath
       id="SVGID_46_"><use
         height="100%"
         width="100%"
         y="0"
         x="0"
         id="use574"
         style="overflow:visible"
         xlink:href="#SVGID_45_" /></clipPath><defs
       id="defs600"><rect
         height="1672.2"
         width="1105.5"
         y="136.39999"
         x="-128.60001"
         id="SVGID_47_" /></defs><clipPath
       id="SVGID_48_"><use
         height="100%"
         width="100%"
         y="0"
         x="0"
         id="use604"
         style="overflow:visible"
         xlink:href="#SVGID_47_" /></clipPath><defs
       id="defs714"><rect
         height="1672.2"
         width="1105.5"
         y="136.39999"
         x="-128.60001"
         id="SVGID_49_" /></defs><clipPath
       id="SVGID_50_"><use
         height="100%"
         width="100%"
         y="0"
         x="0"
         id="use718"
         style="overflow:visible"
         xlink:href="#SVGID_49_" /></clipPath></defs><style
     id="style4"
     type="text/css">
	.st0{display:none;}
	.st1{display:inline;fill:#B5B0C1;}
	.st2{display:inline;fill:#FFFFFF;}
	.st3{display:inline;fill:none;stroke:#141032;stroke-width:0.25;}
	.st4{display:inline;fill:#43255C;}
	.st5{display:inline;}
	.st6{clip-path:url(#SVGID_2_);fill:none;stroke:#141032;stroke-width:0.25;}
	.st7{display:inline;fill:none;stroke:#141032;stroke-width:0.5;}
	.st8{display:inline;fill:#99AC64;}
	.st9{clip-path:url(#SVGID_4_);fill:none;stroke:#141032;stroke-width:0.25;}
	.st10{clip-path:url(#SVGID_6_);fill:#43255C;}
	.st11{clip-path:url(#SVGID_8_);fill:#FBB65A;}
	.st12{clip-path:url(#SVGID_8_);fill:none;stroke:#141032;stroke-width:0.5;stroke-miterlimit:10;}
	.st13{display:inline;fill:#F7D685;}
	.st14{clip-path:url(#SVGID_10_);fill:#141032;}
	.st15{display:inline;fill:#141032;}
	.st16{display:inline;fill:none;stroke:#231F20;stroke-width:0.25;}
	.st17{clip-path:url(#SVGID_12_);fill:#141032;}
	.st18{clip-path:url(#SVGID_12_);fill:#FFFFFF;}
	.st19{clip-path:url(#SVGID_14_);fill:#141032;}
	.st20{clip-path:url(#SVGID_14_);fill:#FFFFFF;}
	.st21{display:inline;fill:#D81278;}
	.st22{clip-path:url(#SVGID_16_);fill:#141032;}
	.st23{clip-path:url(#SVGID_18_);fill:#141032;}
	.st24{clip-path:url(#SVGID_18_);fill:#FFFFFF;}
	.st25{clip-path:url(#SVGID_20_);fill:#141032;}
	.st26{clip-path:url(#SVGID_22_);fill:#141032;}
	.st27{clip-path:url(#SVGID_24_);fill:#FFFFFF;}
	.st28{clip-path:url(#SVGID_26_);fill:#FFFFFF;}
	.st29{clip-path:url(#SVGID_28_);fill:#141032;}
	.st30{clip-path:url(#SVGID_30_);fill:#141032;}
	.st31{clip-path:url(#SVGID_32_);fill:#FFFFFF;}
	.st32{clip-path:url(#SVGID_34_);fill:#FFFFFF;}
	.st33{display:inline;fill:#8ACDAB;}
	.st34{clip-path:url(#SVGID_36_);fill:#141032;}
	.st35{clip-path:url(#SVGID_38_);fill:#FFFFFF;}
	.st36{fill:#B5B0C1;}
	.st37{fill:#2BC0D6;}
	.st38{fill:#FFFFFF;}
	.st39{fill:none;stroke:#141032;stroke-width:0.25;}
	.st40{clip-path:url(#SVGID_40_);fill:none;stroke:#141032;stroke-width:0.25;}
	.st41{clip-path:url(#SVGID_42_);fill:none;stroke:#141032;stroke-width:0.25;}
	.st42{clip-path:url(#SVGID_44_);fill:none;stroke:#141032;stroke-width:0.25;}
	.st43{clip-path:url(#SVGID_46_);fill:none;stroke:#141032;stroke-width:0.25;}
	.st44{fill:none;stroke:#141032;stroke-width:0.5;}
	.st45{clip-path:url(#SVGID_48_);fill:#FFFFFF;}
	.st46{clip-path:url(#SVGID_48_);fill:none;stroke:#141032;stroke-width:0.5;}
	.st47{clip-path:url(#SVGID_50_);fill:#2BC0D6;}
	.st48{fill:#F7D685;}
	.st49{fill:#141032;}
	.st50{clip-path:url(#SVGID_52_);fill:#141032;}
	.st51{clip-path:url(#SVGID_54_);fill:#141032;}
	.st52{clip-path:url(#SVGID_54_);fill:#FFFFFF;}
	.st53{clip-path:url(#SVGID_56_);fill:#141032;}
	.st54{clip-path:url(#SVGID_56_);fill:#FFFFFF;}
	.st55{clip-path:url(#SVGID_58_);fill:#141032;}
	.st56{clip-path:url(#SVGID_58_);fill:#FFFFFF;}
	.st57{clip-path:url(#SVGID_60_);fill:#141032;}
	.st58{font-family:'Alef-Bold';}
	.st59{font-size:33.113px;}
	.st60{clip-path:url(#SVGID_64_);fill:#141032;}
	.st61{clip-path:url(#SVGID_68_);fill:#141032;}
	.st62{clip-path:url(#SVGID_70_);}
	.st63{clip-path:url(#SVGID_74_);fill:#141032;}
	.st64{clip-path:url(#SVGID_76_);}
	.st65{clip-path:url(#SVGID_80_);fill:#141032;}
	.st66{clip-path:url(#SVGID_80_);fill:#FFFFFF;}
	.st67{clip-path:url(#SVGID_82_);fill:#141032;}
	.st68{clip-path:url(#SVGID_82_);fill:#FFFFFF;}
</style><polygon
     transform="matrix(0,-1,1,0,-126.82657,979.5)"
     class="st36"
     points="332.5,614.3 215.1,867.3 187.8,820.2 116.8,962.8 207.3,1113.7 249.6,1055.4 299.1,1124.8 331.1,1088 471.6,1205 642.5,1538.2 603.7,1622.8 699.6,1788.4 775,1639 712.9,1496.3 856.2,1162.2 806.9,1059.5 780.4,1113.7 733.1,1014.6 667.1,903.6 804.8,589.1 592.6,137.2 471.6,338.9 539.8,469.6 413.2,728.4 "
     id="polygon438"
     style="fill:#b5b0c1" /><polygon
     transform="matrix(0,-1,1,0,-126.82657,979.5)"
     class="st37"
     points="595.3,735.3 532.1,651.9 567,574 624.8,470.8 673.2,554.6 653.4,614.4 "
     id="polygon440"
     style="fill:#2bc0d6" /><polygon
     transform="matrix(0,-1,1,0,-126.82657,979.5)"
     class="st38"
     points="797.2,1146.9 688.7,1395.3 720.1,1395.3 829.9,1146.9 "
     id="polygon442"
     style="fill:#ffffff" /><polygon
     transform="matrix(0,-1,1,0,-126.82657,979.5)"
     class="st39"
     points="797.2,1146.9 688.7,1395.3 720.1,1395.3 829.9,1146.9 "
     id="polygon444"
     style="fill:none;stroke:#141032;stroke-width:0.25" /><polygon
     transform="matrix(0,-1,1,0,-126.82657,979.5)"
     class="st38"
     points="487.4,606.3 482.3,592.6 511.7,592.6 519.5,606.3 "
     id="polygon446"
     style="fill:#ffffff" /><polygon
     transform="matrix(0,-1,1,0,-126.82657,979.5)"
     class="st39"
     points="487.4,606.3 482.3,592.6 511.7,592.6 519.5,606.3 "
     id="polygon448"
     style="fill:none;stroke:#141032;stroke-width:0.25" /><polygon
     transform="matrix(0,-1,1,0,-126.82657,979.5)"
     class="st38"
     points="665.2,555.9 576.4,749.3 609.7,749.3 698.1,555.9 "
     id="polygon450"
     style="fill:#ffffff" /><polygon
     transform="matrix(0,-1,1,0,-126.82657,979.5)"
     class="st39"
     points="665.2,555.9 576.4,749.3 609.7,749.3 698.1,555.9 "
     id="polygon452"
     style="fill:none;stroke:#141032;stroke-width:0.25" /><polygon
     transform="matrix(0,-1,1,0,-126.82657,979.5)"
     class="st38"
     points="695.5,903.7 825.7,594.8 800.7,596 665.9,903.7 "
     id="polygon454"
     style="fill:#ffffff" /><polygon
     transform="matrix(0,-1,1,0,-126.82657,979.5)"
     class="st39"
     points="695.5,903.7 825.7,594.8 800.7,596 665.9,903.7 "
     id="polygon456"
     style="fill:none;stroke:#141032;stroke-width:0.25" /><polygon
     transform="matrix(0,-1,1,0,-126.82657,979.5)"
     class="st38"
     points="545.8,636.5 530.8,666.6 576.4,749.6 610.1,749.6 "
     id="polygon458"
     style="fill:#ffffff" /><polygon
     transform="matrix(0,-1,1,0,-126.82657,979.5)"
     class="st39"
     points="545.8,636.5 530.8,666.6 576.4,749.6 610.1,749.6 "
     id="polygon460"
     style="fill:none;stroke:#141032;stroke-width:0.25" /><polygon
     transform="matrix(0,-1,1,0,-126.82657,979.5)"
     class="st38"
     points="829.9,1212.4 704.3,1498.6 730.9,1498.6 858.3,1212.4 "
     id="polygon462"
     style="fill:#ffffff" /><polygon
     transform="matrix(0,-1,1,0,-126.82657,979.5)"
     class="st39"
     points="829.9,1212.4 704.3,1498.6 730.9,1498.6 858.3,1212.4 "
     id="polygon464"
     style="fill:none;stroke:#141032;stroke-width:0.25" /><polygon
     transform="matrix(0,-1,1,0,-126.82657,979.5)"
     class="st38"
     points="471.5,338.9 510.9,338.9 634.4,137.1 592.6,137.1 "
     id="polygon466"
     style="fill:#ffffff" /><polygon
     transform="matrix(0,-1,1,0,-126.82657,979.5)"
     style="fill:none;stroke:#141032;stroke-width:0.25"
     clip-path="url(#SVGID_40_)"
     id="polygon476"
     points="510.9,338.9 634.4,137.1 592.6,137.1 471.5,338.9 "
     class="st40" /><polygon
     transform="matrix(0,-1,1,0,-126.82657,979.5)"
     class="st38"
     points="573.2,469.6 444.7,728.2 413.1,728.4 539.8,469.6 "
     id="polygon478"
     style="fill:#ffffff" /><polygon
     transform="matrix(0,-1,1,0,-126.82657,979.5)"
     class="st39"
     points="573.2,469.6 444.7,728.2 413.1,728.4 539.8,469.6 "
     id="polygon480"
     style="fill:none;stroke:#141032;stroke-width:0.25" /><polygon
     transform="matrix(0,-1,1,0,-126.82657,979.5)"
     class="st38"
     points="597.3,543.9 582.4,573.9 624.1,646.9 654.8,646.9 "
     id="polygon482"
     style="fill:#ffffff" /><polygon
     transform="matrix(0,-1,1,0,-126.82657,979.5)"
     class="st39"
     points="597.3,543.9 582.4,573.9 624.1,646.9 654.8,646.9 "
     id="polygon484"
     style="fill:none;stroke:#141032;stroke-width:0.25" /><path
     class="st38"
     d="m 661.57343,727.8 78.9,36.6 11.3,-21.6 -90.3,-42.7 0,27.7 z m -98.6,-74.3 -75.5,-35.7 0,29.2 75.5,35 0,-28.5 z"
     id="path486"
     style="fill:#ffffff" /><path
     class="st39"
     d="m 661.57343,727.8 78.9,36.6 11.3,-21.6 -90.3,-42.7 0,27.7 z m -98.6,-74.3 -75.5,-35.7 0,29.2 75.5,35 0,-28.5 z"
     id="path488"
     style="fill:none;stroke:#141032;stroke-width:0.25" /><polygon
     transform="matrix(0,-1,1,0,-126.82657,979.5)"
     class="st38"
     points="187.8,820.2 109.1,959.2 139.8,959.2 215.2,818.8 "
     id="polygon490"
     style="fill:#ffffff" /><polygon
     transform="matrix(0,-1,1,0,-126.82657,979.5)"
     class="st39"
     points="187.8,820.2 109.1,959.2 139.8,959.2 215.2,818.8 "
     id="polygon492"
     style="fill:none;stroke:#141032;stroke-width:0.25" /><polygon
     transform="matrix(0,-1,1,0,-126.82657,979.5)"
     class="st38"
     points="237.2,1035.7 194,1124.8 221.9,1124.8 262.7,1034.6 "
     id="polygon494"
     style="fill:#ffffff" /><polygon
     transform="matrix(0,-1,1,0,-126.82657,979.5)"
     class="st39"
     points="237.2,1035.7 194,1124.8 221.9,1124.8 262.7,1034.6 "
     id="polygon496"
     style="fill:none;stroke:#141032;stroke-width:0.25" /><polygon
     transform="matrix(0,-1,1,0,-126.82657,979.5)"
     class="st38"
     points="315.4,1080.2 284.4,1141.3 315.8,1141.3 347.1,1079.7 "
     id="polygon498"
     style="fill:#ffffff" /><polygon
     transform="matrix(0,-1,1,0,-126.82657,979.5)"
     class="st39"
     points="315.4,1080.2 284.4,1141.3 315.8,1141.3 347.1,1079.7 "
     id="polygon500"
     style="fill:none;stroke:#141032;stroke-width:0.25" /><polygon
     transform="matrix(0,-1,1,0,-126.82657,979.5)"
     class="st38"
     points="700.1,1788.5 713.5,1807.9 790.8,1654.3 767.9,1654.3 "
     id="polygon502"
     style="fill:#ffffff" /><polygon
     transform="matrix(0,-1,1,0,-126.82657,979.5)"
     style="fill:none;stroke:#141032;stroke-width:0.25"
     clip-path="url(#SVGID_42_)"
     id="polygon512"
     points="713.5,1807.9 790.8,1654.3 767.9,1654.3 700.1,1788.5 "
     class="st41" /><polygon
     transform="matrix(0,-1,1,0,-126.82657,979.5)"
     class="st38"
     points="626.5,1550 589.1,1622.8 616.9,1622.8 653,1550 "
     id="polygon514"
     style="fill:#ffffff" /><polygon
     transform="matrix(0,-1,1,0,-126.82657,979.5)"
     class="st39"
     points="626.5,1550 589.1,1622.8 616.9,1622.8 653,1550 "
     id="polygon516"
     style="fill:none;stroke:#141032;stroke-width:0.25" /><polygon
     transform="matrix(0,-1,1,0,-126.82657,979.5)"
     class="st38"
     points="622.1,432.4 459.2,765.6 489.9,765.6 655.3,432.4 "
     id="polygon518"
     style="fill:#ffffff" /><polygon
     transform="matrix(0,-1,1,0,-126.82657,979.5)"
     class="st39"
     points="622.1,432.4 459.2,765.6 489.9,765.6 655.3,432.4 "
     id="polygon520"
     style="fill:none;stroke:#141032;stroke-width:0.25" /><polygon
     transform="matrix(0,-1,1,0,-126.82657,979.5)"
     class="st38"
     points="361.7,614.3 350.3,639.6 413.2,728.4 444.8,728.2 "
     id="polygon522"
     style="fill:#ffffff" /><polygon
     transform="matrix(0,-1,1,0,-126.82657,979.5)"
     class="st39"
     points="361.7,614.3 350.3,639.6 413.2,728.4 444.8,728.2 "
     id="polygon524"
     style="fill:none;stroke:#141032;stroke-width:0.25" /><polygon
     transform="matrix(0,-1,1,0,-126.82657,979.5)"
     class="st38"
     points="215.1,818.8 200.7,845.1 237.9,916.2 272.7,916.2 "
     id="polygon526"
     style="fill:#ffffff" /><polygon
     transform="matrix(0,-1,1,0,-126.82657,979.5)"
     class="st39"
     points="215.1,818.8 200.7,845.1 237.9,916.2 272.7,916.2 "
     id="polygon528"
     style="fill:none;stroke:#141032;stroke-width:0.25" /><polygon
     transform="matrix(0,-1,1,0,-126.82657,979.5)"
     class="st38"
     points="221.9,1124.8 194.1,1124.8 109.1,959.2 139.8,959.2 "
     id="polygon530"
     style="fill:#ffffff" /><polygon
     transform="matrix(0,-1,1,0,-126.82657,979.5)"
     class="st39"
     points="221.9,1124.8 194.1,1124.8 109.1,959.2 139.8,959.2 "
     id="polygon532"
     style="fill:none;stroke:#141032;stroke-width:0.25" /><polygon
     transform="matrix(0,-1,1,0,-126.82657,979.5)"
     class="st38"
     points="315.8,1141.3 284.5,1141.3 249.6,1063.4 262.7,1034.6 "
     id="polygon534"
     style="fill:#ffffff" /><polygon
     transform="matrix(0,-1,1,0,-126.82657,979.5)"
     class="st39"
     points="315.8,1141.3 284.5,1141.3 249.6,1063.4 262.7,1034.6 "
     id="polygon536"
     style="fill:none;stroke:#141032;stroke-width:0.25" /><polygon
     transform="matrix(0,-1,1,0,-126.82657,979.5)"
     class="st38"
     points="626.3,1550 468.2,1224.7 336.6,1100.3 347,1079.7 497.3,1213.8 653,1550 "
     id="polygon538"
     style="fill:#ffffff" /><polygon
     transform="matrix(0,-1,1,0,-126.82657,979.5)"
     class="st39"
     points="626.3,1550 468.2,1224.7 336.6,1100.3 347,1079.7 497.3,1213.8 653,1550 "
     id="polygon540"
     style="fill:none;stroke:#141032;stroke-width:0.25" /><polygon
     transform="matrix(0,-1,1,0,-126.82657,979.5)"
     class="st38"
     points="648.4,1455.7 503.7,1160.3 446.6,1102.4 478.7,1101.1 532.9,1149.4 675.8,1455.7 "
     id="polygon542"
     style="fill:#ffffff" /><polygon
     transform="matrix(0,-1,1,0,-126.82657,979.5)"
     class="st39"
     points="648.4,1455.7 503.7,1160.3 446.6,1102.4 478.7,1101.1 532.9,1149.4 675.8,1455.7 "
     id="polygon544"
     style="fill:none;stroke:#141032;stroke-width:0.25" /><polygon
     transform="matrix(0,-1,1,0,-126.82657,979.5)"
     class="st38"
     points="589.1,1622.8 685.2,1807.8 713,1807.8 616.9,1622.8 "
     id="polygon546"
     style="fill:#ffffff" /><polygon
     transform="matrix(0,-1,1,0,-126.82657,979.5)"
     style="fill:none;stroke:#141032;stroke-width:0.25"
     clip-path="url(#SVGID_44_)"
     id="polygon556"
     points="589.1,1622.8 616.9,1622.8 713,1807.8 685.2,1807.8 "
     class="st42" /><polygon
     transform="matrix(0,-1,1,0,-126.82657,979.5)"
     class="st38"
     points="730.5,1498.6 704.3,1498.6 767.8,1654.4 790.8,1654.4 "
     id="polygon558"
     style="fill:#ffffff" /><polygon
     transform="matrix(0,-1,1,0,-126.82657,979.5)"
     class="st39"
     points="730.5,1498.6 704.3,1498.6 767.8,1654.4 790.8,1654.4 "
     id="polygon560"
     style="fill:none;stroke:#141032;stroke-width:0.25" /><polygon
     transform="matrix(0,-1,1,0,-126.82657,979.5)"
     class="st38"
     points="667,903.6 695.5,903.6 755.1,991.7 809,1111 776.3,1113.8 721.9,1002.7 "
     id="polygon562"
     style="fill:#ffffff" /><polygon
     transform="matrix(0,-1,1,0,-126.82657,979.5)"
     class="st39"
     points="667,903.6 695.5,903.6 755.1,991.7 809,1111 776.3,1113.8 721.9,1002.7 "
     id="polygon564"
     style="fill:none;stroke:#141032;stroke-width:0.25" /><polygon
     transform="matrix(0,-1,1,0,-126.82657,979.5)"
     class="st38"
     points="610.3,176.2 800.7,596.1 825.7,594.9 634.3,137.1 "
     id="polygon566"
     style="fill:#ffffff" /><polygon
     transform="matrix(0,-1,1,0,-126.82657,979.5)"
     style="fill:none;stroke:#141032;stroke-width:0.25"
     clip-path="url(#SVGID_46_)"
     id="polygon576"
     points="800.7,596.1 825.7,594.9 634.3,137.1 610.3,176.2 "
     class="st43" /><polygon
     transform="matrix(0,-1,1,0,-126.82657,979.5)"
     class="st38"
     points="510.9,338.9 471.5,338.9 539.8,469.7 573.2,469.7 "
     id="polygon578"
     style="fill:#ffffff" /><polygon
     transform="matrix(0,-1,1,0,-126.82657,979.5)"
     class="st39"
     points="510.9,338.9 471.5,338.9 539.8,469.7 573.2,469.7 "
     id="polygon580"
     style="fill:none;stroke:#141032;stroke-width:0.25" /><polygon
     transform="matrix(0,-1,1,0,-126.82657,979.5)"
     class="st38"
     points="697.3,555.9 663.8,555.9 628.5,486.8 642.9,457.7 "
     id="polygon582"
     style="fill:#ffffff" /><polygon
     transform="matrix(0,-1,1,0,-126.82657,979.5)"
     class="st39"
     points="697.3,555.9 663.8,555.9 628.5,486.8 642.9,457.7 "
     id="polygon584"
     style="fill:none;stroke:#141032;stroke-width:0.25" /><polygon
     transform="matrix(0,-1,1,0,-126.82657,979.5)"
     class="st38"
     points="519,645.1 509.7,631.4 543.3,631.4 551.1,645.1 "
     id="polygon586"
     style="fill:#ffffff" /><polygon
     transform="matrix(0,-1,1,0,-126.82657,979.5)"
     class="st39"
     points="519,645.1 509.7,631.4 543.3,631.4 551.1,645.1 "
     id="polygon588"
     style="fill:none;stroke:#141032;stroke-width:0.25" /><polygon
     transform="matrix(0,-1,1,0,-126.82657,979.5)"
     class="st38"
     points="459.2,765.6 522.4,882.7 505.4,912.3 533.9,913.6 553,882.7 489.9,765.6 "
     id="polygon590"
     style="fill:#ffffff" /><polygon
     transform="matrix(0,-1,1,0,-126.82657,979.5)"
     class="st39"
     points="459.2,765.6 522.4,882.7 505.4,912.3 533.9,913.6 553,882.7 489.9,765.6 "
     id="polygon592"
     style="fill:none;stroke:#141032;stroke-width:0.25" /><polygon
     transform="matrix(0,-1,1,0,-126.82657,979.5)"
     class="st38"
     points="692.6,975.3 616.6,1151.7 619.2,1167 700.7,992.6 "
     id="polygon594"
     style="fill:#ffffff" /><polygon
     transform="matrix(0,-1,1,0,-126.82657,979.5)"
     class="st44"
     points="692.6,975.3 616.6,1151.7 619.2,1167 700.7,992.6 "
     id="polygon596"
     style="fill:none;stroke:#141032;stroke-width:0.5" /><path
     transform="matrix(0,-1,1,0,-126.82657,979.5)"
     style="fill:#ffffff"
     clip-path="url(#SVGID_48_)"
     id="path606"
     d="m 700.7,972.3 -7.2,-17.7 -82.8,183.4 5.9,13.5 c -1.1,0.9 84.1,-179.2 84.1,-179.2"
     class="st45" /><path
     transform="matrix(0,-1,1,0,-126.82657,979.5)"
     style="fill:none;stroke:#141032;stroke-width:0.5"
     clip-path="url(#SVGID_48_)"
     id="path608"
     d="m 700.7,972.3 -7.2,-17.7 -82.8,183.4 5.9,13.5 c -1.1,0.9 84.1,-179.2 84.1,-179.2 z"
     class="st46" /><polygon
     transform="matrix(0,-1,1,0,-126.82657,979.5)"
     class="st38"
     points="688.8,925.6 609.3,1106 623.4,1121.3 700.7,950.5 "
     id="polygon610"
     style="fill:#ffffff" /><polygon
     transform="matrix(0,-1,1,0,-126.82657,979.5)"
     class="st44"
     points="688.8,925.6 609.3,1106 623.4,1121.3 700.7,950.5 "
     id="polygon612"
     style="fill:none;stroke:#141032;stroke-width:0.5" /><polygon
     transform="matrix(0,-1,1,0,-126.82657,979.5)"
     class="st38"
     points="692.6,910.9 610.7,1092.5 616.6,1106.1 700.7,927.7 "
     id="polygon614"
     style="fill:#ffffff" /><polygon
     transform="matrix(0,-1,1,0,-126.82657,979.5)"
     class="st44"
     points="692.6,910.9 610.7,1092.5 616.6,1106.1 700.7,927.7 "
     id="polygon616"
     style="fill:none;stroke:#141032;stroke-width:0.5" /><polygon
     transform="matrix(0,-1,1,0,-126.82657,979.5)"
     class="st38"
     points="666,835.9 593.7,1008.7 623.4,1078.2 699.6,907.3 "
     id="polygon618"
     style="fill:#ffffff" /><polygon
     transform="matrix(0,-1,1,0,-126.82657,979.5)"
     class="st44"
     points="666,835.9 593.7,1008.7 623.4,1078.2 699.6,907.3 "
     id="polygon620"
     style="fill:none;stroke:#141032;stroke-width:0.5" /><polygon
     transform="matrix(0,-1,1,0,-126.82657,979.5)"
     class="st38"
     points="670.9,831.7 589.5,1010.8 595.5,1024.3 676.4,845 "
     id="polygon622"
     style="fill:#ffffff" /><polygon
     transform="matrix(0,-1,1,0,-126.82657,979.5)"
     class="st44"
     points="670.9,831.7 589.5,1010.8 595.5,1024.3 676.4,845 "
     id="polygon624"
     style="fill:none;stroke:#141032;stroke-width:0.5" /><polygon
     transform="matrix(0,-1,1,0,-126.82657,979.5)"
     class="st38"
     points="669.5,808.1 595.1,979 597.7,994.3 677.1,822.8 "
     id="polygon626"
     style="fill:#ffffff" /><polygon
     transform="matrix(0,-1,1,0,-126.82657,979.5)"
     class="st44"
     points="669.5,808.1 595.1,979 597.7,994.3 677.1,822.8 "
     id="polygon628"
     style="fill:none;stroke:#141032;stroke-width:0.5" /><polygon
     transform="matrix(0,-1,1,0,-126.82657,979.5)"
     class="st38"
     points="670.5,786.4 589.2,965.5 595.1,979 677.1,800.1 "
     id="polygon630"
     style="fill:#ffffff" /><polygon
     transform="matrix(0,-1,1,0,-126.82657,979.5)"
     class="st44"
     points="670.5,786.4 589.2,965.5 595.1,979 677.1,800.1 "
     id="polygon632"
     style="fill:none;stroke:#141032;stroke-width:0.5" /><polygon
     transform="matrix(0,-1,1,0,-126.82657,979.5)"
     class="st38"
     points="668.6,756.7 587.8,933.3 601.9,948.6 677.1,778.6 "
     id="polygon634"
     style="fill:#ffffff" /><polygon
     transform="matrix(0,-1,1,0,-126.82657,979.5)"
     class="st44"
     points="668.6,756.7 587.8,933.3 601.9,948.6 677.1,778.6 "
     id="polygon636"
     style="fill:none;stroke:#141032;stroke-width:0.5" /><polygon
     transform="matrix(0,-1,1,0,-126.82657,979.5)"
     class="st38"
     points="670.5,740.7 589.2,919.8 595.1,933.3 676,754 "
     id="polygon638"
     style="fill:#ffffff" /><polygon
     transform="matrix(0,-1,1,0,-126.82657,979.5)"
     class="st44"
     points="670.5,740.7 589.2,919.8 595.1,933.3 676,754 "
     id="polygon640"
     style="fill:none;stroke:#141032;stroke-width:0.5" /><polygon
     transform="matrix(0,-1,1,0,-126.82657,979.5)"
     class="st38"
     points="602.2,1007.6 609.7,917.1 505.4,912.2 619.3,1167 632.6,1078.1 "
     id="polygon642"
     style="fill:#ffffff" /><polygon
     transform="matrix(0,-1,1,0,-126.82657,979.5)"
     class="st39"
     points="602.2,1007.6 609.7,917.1 505.4,912.2 619.3,1167 632.6,1078.1 "
     id="polygon644"
     style="fill:none;stroke:#141032;stroke-width:0.25" /><polygon
     transform="matrix(0,-1,1,0,-126.82657,979.5)"
     class="st38"
     points="708.3,354.8 694.5,354.8 721,299 735.7,299.5 "
     id="polygon646"
     style="fill:#ffffff" /><polygon
     transform="matrix(0,-1,1,0,-126.82657,979.5)"
     class="st39"
     points="708.3,354.8 694.5,354.8 721,299 735.7,299.5 "
     id="polygon648"
     style="fill:none;stroke:#141032;stroke-width:0.25" /><polygon
     transform="matrix(0,-1,1,0,-126.82657,979.5)"
     class="st38"
     points="712.6,368.8 706.2,359.6 735.7,299.5 742.1,315.5 "
     id="polygon650"
     style="fill:#ffffff" /><polygon
     transform="matrix(0,-1,1,0,-126.82657,979.5)"
     class="st39"
     points="712.6,368.8 706.2,359.6 735.7,299.5 742.1,315.5 "
     id="polygon652"
     style="fill:none;stroke:#141032;stroke-width:0.25" /><polygon
     transform="matrix(0,-1,1,0,-126.82657,979.5)"
     class="st38"
     points="725.3,370.9 712.5,368.8 739.8,310.5 753.1,310.5 "
     id="polygon654"
     style="fill:#ffffff" /><polygon
     transform="matrix(0,-1,1,0,-126.82657,979.5)"
     class="st39"
     points="725.3,370.9 712.5,368.8 739.8,310.5 753.1,310.5 "
     id="polygon656"
     style="fill:none;stroke:#141032;stroke-width:0.25" /><polygon
     transform="matrix(0,-1,1,0,-126.82657,979.5)"
     class="st38"
     points="732.5,383 725.3,370.9 753,310.5 759,326.5 "
     id="polygon658"
     style="fill:#ffffff" /><polygon
     transform="matrix(0,-1,1,0,-126.82657,979.5)"
     class="st39"
     points="732.5,383 725.3,370.9 753,310.5 759,326.5 "
     id="polygon660"
     style="fill:none;stroke:#141032;stroke-width:0.25" /><polygon
     transform="matrix(0,-1,1,0,-126.82657,979.5)"
     class="st38"
     points="746.4,382.9 732.5,382.9 759,326.5 771.2,326.5 "
     id="polygon662"
     style="fill:#ffffff" /><polygon
     transform="matrix(0,-1,1,0,-126.82657,979.5)"
     class="st39"
     points="746.4,382.9 732.5,382.9 759,326.5 771.2,326.5 "
     id="polygon664"
     style="fill:none;stroke:#141032;stroke-width:0.25" /><polygon
     transform="matrix(0,-1,1,0,-126.82657,979.5)"
     class="st38"
     points="639.5,314.8 632.7,301.4 660.6,240.7 668.6,257.3 "
     id="polygon666"
     style="fill:#ffffff" /><polygon
     transform="matrix(0,-1,1,0,-126.82657,979.5)"
     class="st39"
     points="639.5,314.8 632.7,301.4 660.6,240.7 668.6,257.3 "
     id="polygon668"
     style="fill:none;stroke:#141032;stroke-width:0.25" /><polygon
     transform="matrix(0,-1,1,0,-126.82657,979.5)"
     class="st38"
     points="650.4,314.7 638.8,314.7 666.3,252.3 679.5,252.3 "
     id="polygon670"
     style="fill:#ffffff" /><polygon
     transform="matrix(0,-1,1,0,-126.82657,979.5)"
     class="st39"
     points="650.4,314.7 638.8,314.7 666.3,252.3 679.5,252.3 "
     id="polygon672"
     style="fill:none;stroke:#141032;stroke-width:0.25" /><polygon
     transform="matrix(0,-1,1,0,-126.82657,979.5)"
     class="st38"
     points="656.3,326.4 650.6,315 679.5,252.3 685.5,268.3 "
     id="polygon674"
     style="fill:#ffffff" /><polygon
     transform="matrix(0,-1,1,0,-126.82657,979.5)"
     class="st39"
     points="656.3,326.4 650.6,315 679.5,252.3 685.5,268.3 "
     id="polygon676"
     style="fill:none;stroke:#141032;stroke-width:0.25" /><polygon
     transform="matrix(0,-1,1,0,-126.82657,979.5)"
     class="st38"
     points="669,326.3 656.3,326.3 685.5,268.3 697,268.9 "
     id="polygon678"
     style="fill:#ffffff" /><polygon
     transform="matrix(0,-1,1,0,-126.82657,979.5)"
     class="st39"
     points="669,326.3 656.3,326.3 685.5,268.3 697,268.9 "
     id="polygon680"
     style="fill:none;stroke:#141032;stroke-width:0.25" /><polygon
     transform="matrix(0,-1,1,0,-126.82657,979.5)"
     class="st38"
     points="614.8,285.1 602,283 629.3,224.7 642.6,224.7 "
     id="polygon682"
     style="fill:#ffffff" /><polygon
     transform="matrix(0,-1,1,0,-126.82657,979.5)"
     class="st39"
     points="614.8,285.1 602,283 629.3,224.7 642.6,224.7 "
     id="polygon684"
     style="fill:none;stroke:#141032;stroke-width:0.25" /><polygon
     transform="matrix(0,-1,1,0,-126.82657,979.5)"
     class="st38"
     points="622,297.2 614.8,285.1 642.5,224.7 648.5,240.7 "
     id="polygon686"
     style="fill:#ffffff" /><polygon
     transform="matrix(0,-1,1,0,-126.82657,979.5)"
     class="st39"
     points="622,297.2 614.8,285.1 642.5,224.7 648.5,240.7 "
     id="polygon688"
     style="fill:none;stroke:#141032;stroke-width:0.25" /><polygon
     transform="matrix(0,-1,1,0,-126.82657,979.5)"
     class="st38"
     points="635.9,297.2 622,297.2 648.5,240.7 660.7,240.7 "
     id="polygon690"
     style="fill:#ffffff" /><polygon
     transform="matrix(0,-1,1,0,-126.82657,979.5)"
     class="st39"
     points="635.9,297.2 622,297.2 648.5,240.7 660.7,240.7 "
     id="polygon692"
     style="fill:none;stroke:#141032;stroke-width:0.25" /><polygon
     transform="matrix(0,-1,1,0,-126.82657,979.5)"
     class="st38"
     points="675.3,341.1 668.7,326.6 697,268.9 703.4,284.9 "
     id="polygon694"
     style="fill:#ffffff" /><polygon
     transform="matrix(0,-1,1,0,-126.82657,979.5)"
     class="st39"
     points="675.3,341.1 668.7,326.6 697,268.9 703.4,284.9 "
     id="polygon696"
     style="fill:none;stroke:#141032;stroke-width:0.25" /><polygon
     transform="matrix(0,-1,1,0,-126.82657,979.5)"
     class="st38"
     points="688.4,341.1 674.9,341.1 701.8,283 715,283 "
     id="polygon698"
     style="fill:#ffffff" /><polygon
     transform="matrix(0,-1,1,0,-126.82657,979.5)"
     class="st39"
     points="688.4,341.1 674.9,341.1 701.8,283 715,283 "
     id="polygon700"
     style="fill:none;stroke:#141032;stroke-width:0.25" /><polygon
     transform="matrix(0,-1,1,0,-126.82657,979.5)"
     class="st38"
     points="694.7,354.6 688.3,341.1 715,283 721,299 "
     id="polygon702"
     style="fill:#ffffff" /><polygon
     transform="matrix(0,-1,1,0,-126.82657,979.5)"
     class="st39"
     points="694.7,354.6 688.3,341.1 715,283 721,299 "
     id="polygon704"
     style="fill:none;stroke:#141032;stroke-width:0.25" /><polygon
     transform="matrix(0,-1,1,0,-126.82657,979.5)"
     class="st38"
     points="593.8,281.7 614.9,338.9 622.1,432.5 655.3,432.5 646.9,338.9 628.6,281.7 "
     id="polygon706"
     style="fill:#ffffff" /><polygon
     transform="matrix(0,-1,1,0,-126.82657,979.5)"
     class="st39"
     points="593.8,281.7 614.9,338.9 622.1,432.5 655.3,432.5 646.9,338.9 628.6,281.7 "
     id="polygon708"
     style="fill:none;stroke:#141032;stroke-width:0.25" /><polygon
     transform="matrix(0,-1,1,0,-126.82657,979.5)"
     class="st36"
     points="782.7,297.1 771.1,326.5 746.4,382.9 715.2,324.7 691.8,370.7 660.9,434.5 792.9,684.6 860.3,510 "
     id="polygon710"
     style="fill:#b5b0c1" /><path
     transform="matrix(0,-1,1,0,-126.82657,979.5)"
     style="fill:#2bc0d6"
     clip-path="url(#SVGID_50_)"
     id="path720"
     d="m 810.5,354.1 c 0,0 -23.8,46.2 -23.8,47.6 0,1.4 9.5,36.9 9.5,36.9 l 22.3,38.9 -36.2,89.3 -22.7,51.4 35.8,47.6 21.3,-10.4 c 0,0 54.1,-156.4 54.1,-157.7 0,-1.2 -60.3,-143.6 -60.3,-143.6"
     class="st47" /><polygon
     transform="matrix(0,-1,1,0,-126.82657,979.5)"
     class="st38"
     points="810.5,297.2 782.3,297.2 859.8,509.1 889,509.1 "
     id="polygon722"
     style="fill:#ffffff" /><polygon
     transform="matrix(0,-1,1,0,-126.82657,979.5)"
     class="st39"
     points="810.5,297.2 782.3,297.2 859.8,509.1 889,509.1 "
     id="polygon724"
     style="fill:none;stroke:#141032;stroke-width:0.25" /><polygon
     transform="matrix(0,-1,1,0,-126.82657,979.5)"
     class="st38"
     points="859.8,509.1 801.5,652.4 818.8,686.9 889.6,509.1 "
     id="polygon726"
     style="fill:#ffffff" /><polygon
     transform="matrix(0,-1,1,0,-126.82657,979.5)"
     class="st39"
     points="859.8,509.1 801.5,652.4 818.8,686.9 889.6,509.1 "
     id="polygon728"
     style="fill:none;stroke:#141032;stroke-width:0.25" /><polygon
     transform="matrix(0,-1,1,0,-126.82657,979.5)"
     class="st38"
     points="834.7,441.3 747.9,610.5 780.5,610.5 863.2,441.3 "
     id="polygon730"
     style="fill:#ffffff" /><polygon
     transform="matrix(0,-1,1,0,-126.82657,979.5)"
     class="st39"
     points="834.7,441.3 747.9,610.5 780.5,610.5 863.2,441.3 "
     id="polygon732"
     style="fill:none;stroke:#141032;stroke-width:0.25" /><polygon
     transform="matrix(0,-1,1,0,-126.82657,979.5)"
     class="st38"
     points="818.8,686.9 786.5,684.6 660.9,434.5 691.8,436.4 "
     id="polygon734"
     style="fill:#ffffff" /><polygon
     transform="matrix(0,-1,1,0,-126.82657,979.5)"
     class="st39"
     points="818.8,686.9 786.5,684.6 660.9,434.5 691.8,436.4 "
     id="polygon736"
     style="fill:none;stroke:#141032;stroke-width:0.25" /><polygon
     transform="matrix(0,-1,1,0,-126.82657,979.5)"
     class="st48"
     points="728.6,384.6 731.8,379.2 710.8,363.6 720.5,404.5 723.2,396.4 732.4,413.2 738.8,400.8 "
     id="polygon738"
     style="fill:#f7d685" /><text
     y="1111.0413"
     x="151.81042"
     style="font-size:41.3913002px;font-family:Abigail"
     id="text740" />
<polygon
     transform="matrix(0,-1,1,0,-126.82657,979.5)"
     class="st38"
     points="802.1,348.6 770.6,408 800.1,408 829.1,348.6 "
     id="polygon742"
     style="fill:#ffffff" /><polygon
     transform="matrix(0,-1,1,0,-126.82657,979.5)"
     class="st39"
     points="802.1,348.6 770.6,408 800.1,408 829.1,348.6 "
     id="polygon744"
     style="fill:none;stroke:#141032;stroke-width:0.25" /><polygon
     transform="matrix(0,-1,1,0,-126.82657,979.5)"
     class="st38"
     points="809.5,521.7 804.8,533.2 787.8,533.2 793.3,521.7 "
     id="polygon746"
     style="fill:#ffffff" /><polygon
     transform="matrix(0,-1,1,0,-126.82657,979.5)"
     class="st44"
     points="809.5,521.7 804.8,533.2 787.8,533.2 793.3,521.7 "
     id="polygon748"
     style="fill:none;stroke:#141032;stroke-width:0.5" /><polygon
     transform="matrix(0,-1,1,0,-126.82657,979.5)"
     class="st38"
     points="800.1,408 770.6,407.9 810.5,490.1 839.8,490.1 "
     id="polygon750"
     style="fill:#ffffff" /><polygon
     transform="matrix(0,-1,1,0,-126.82657,979.5)"
     class="st39"
     points="800.1,408 770.6,407.9 810.5,490.1 839.8,490.1 "
     id="polygon752"
     style="fill:none;stroke:#141032;stroke-width:0.25" /><polygon
     transform="matrix(0,-1,1,0,-126.82657,979.5)"
     class="st38"
     points="607.2,510.7 599.5,525.2 577.5,525.2 584.7,510.7 "
     id="polygon754"
     style="fill:#ffffff" /><polygon
     transform="matrix(0,-1,1,0,-126.82657,979.5)"
     class="st44"
     points="607.2,510.7 599.5,525.2 577.5,525.2 584.7,510.7 "
     id="polygon756"
     style="fill:none;stroke:#141032;stroke-width:0.5" /><polygon
     transform="matrix(0,-1,1,0,-126.82657,979.5)"
     class="st38"
     points="565.9,593.3 558.3,607.8 536.2,607.8 543.4,593.3 "
     id="polygon758"
     style="fill:#ffffff" /><polygon
     transform="matrix(0,-1,1,0,-126.82657,979.5)"
     class="st44"
     points="565.9,593.3 558.3,607.8 536.2,607.8 543.4,593.3 "
     id="polygon760"
     style="fill:none;stroke:#141032;stroke-width:0.5" /><polygon
     transform="matrix(0,-1,1,0,-126.82657,979.5)"
     class="st38"
     points="790.6,449 797.2,463.3 813.9,463.3 807.9,449 "
     id="polygon762"
     style="fill:#ffffff" /><polygon
     transform="matrix(0,-1,1,0,-126.82657,979.5)"
     class="st44"
     points="790.6,449 797.2,463.3 813.9,463.3 807.9,449 "
     id="polygon764"
     style="fill:none;stroke:#141032;stroke-width:0.5" /><rect
     transform="matrix(0,-1,1,0,0,0)"
     x="-236.59998"
     y="207.07343"
     class="st49"
     width="26.5"
     height="138.2"
     id="rect972"
     style="fill:#141032" /><path
     class="st48"
     d="m 222.37343,218.2 0,16.4 -3.3,0 0,-13.8 -2.5,0 0,-2.6 5.8,0 z m 8.6,0 0,12.6 -3.3,0 0,-10 -2.1,0 0,-2.6 5.4,0 z m 9,0 0,4.6 c 0,0.4 0,0.8 0,1.1 0,0.3 0,0.6 0,0.8 0,0.2 -0.1,0.5 -0.1,0.7 0,0.2 -0.1,0.5 -0.2,0.8 l -3.3,-0.5 c 0,-0.2 0.1,-0.5 0.1,-0.7 0,-0.2 0.1,-0.4 0.1,-0.6 0,-0.2 0,-0.5 0.1,-0.8 0,-0.3 0,-0.6 0,-1 l 0,-1.8 -2.8,0 0,-2.6 6.1,0 z m 6,-3.6 0,3.5 6.9,0 c 0,0.2 0.1,0.3 0.1,0.5 0,0.1 0.1,0.3 0.1,0.4 0,0.2 0.1,0.4 0.1,0.5 0,0.2 0,0.4 0,0.6 l 0,2.6 c 0,1 -0.2,1.9 -0.6,2.7 -0.4,0.8 -1,1.7 -1.7,2.5 l -3.1,3.4 -2.4,-2 1.4,-1.6 c 0.6,-0.7 1.1,-1.2 1.5,-1.6 0.4,-0.4 0.7,-0.8 0.9,-1.2 0.2,-0.3 0.4,-0.7 0.5,-1 0.1,-0.3 0.2,-0.7 0.2,-1.1 l 0,-2.2 -7.2,0 0,-6.2 3.3,0 z m 17.3,5.6 c 0.1,-0.4 0.2,-0.9 0.4,-1.3 0.1,-0.4 0.3,-0.8 0.4,-1.3 l 4.7,1.2 c 0,0.3 0,0.6 0,0.8 0,0.3 0,0.6 0,0.8 -0.1,0.6 -0.2,1.2 -0.3,1.8 -0.1,0.6 -0.3,1.1 -0.5,1.6 -0.3,0.9 -0.7,1.8 -1.2,2.5 -0.5,0.7 -1,1.4 -1.6,1.9 -0.6,0.6 -1.2,1.1 -1.8,1.5 -0.7,0.4 -1.3,0.8 -2.1,1.1 -0.7,0.3 -1.5,0.6 -2.2,0.9 -0.8,0.2 -1.5,0.5 -2.3,0.7 l -0.9,-2.8 c 0.8,-0.2 1.6,-0.4 2.4,-0.7 0.7,-0.2 1.4,-0.5 2,-0.8 -0.4,-1.1 -0.8,-2.1 -1.2,-3.1 -0.4,-1 -0.8,-2.1 -1.2,-3.1 -0.1,-0.2 -0.2,-0.4 -0.2,-0.5 -0.1,-0.1 -0.1,-0.3 -0.2,-0.3 -0.1,-0.1 -0.2,-0.2 -0.3,-0.2 -0.1,-0.1 -0.2,-0.1 -0.4,-0.2 l -1.5,-0.6 c 0.2,-0.4 0.4,-0.8 0.6,-1.3 0.2,-0.4 0.4,-0.8 0.6,-1.2 0.3,0.1 0.5,0.2 0.8,0.3 0.3,0.1 0.5,0.2 0.8,0.3 0.4,0.2 0.8,0.3 1,0.5 0.3,0.2 0.5,0.3 0.7,0.5 0.2,0.2 0.4,0.4 0.5,0.6 0.1,0.2 0.2,0.5 0.4,0.7 0.2,0.4 0.3,0.8 0.5,1.2 0.2,0.4 0.3,0.8 0.4,1.2 0.2,0.5 0.3,1 0.5,1.6 0.2,0.6 0.4,1.3 0.7,2.2 0.4,-0.4 0.7,-0.7 1,-1.1 0.2,-0.4 0.5,-0.8 0.6,-1.2 0.2,-0.5 0.4,-1.1 0.6,-1.7 0.2,-0.6 0.3,-1.3 0.4,-1.9 l -2.1,-0.6 z m 22.8,-2.1 c 0.5,0 1,0.1 1.5,0.2 0.5,0.1 0.9,0.3 1.3,0.7 0.4,0.3 0.7,0.7 0.9,1.3 0.2,0.6 0.4,1.3 0.4,2.2 0,0.2 0,0.3 0,0.5 0,0.2 0,0.4 0,0.6 0,0.2 0,0.5 0,0.8 0,0.3 0,0.6 0,1 0,0.8 -0.2,1.6 -0.5,2.3 -0.3,0.7 -0.7,1.3 -1.2,1.8 -0.5,0.5 -1.1,0.9 -1.8,1.2 -0.7,0.3 -1.4,0.4 -2.2,0.4 -0.8,0 -1.6,-0.1 -2.2,-0.4 -0.7,-0.3 -1.3,-0.7 -1.8,-1.2 -0.5,-0.5 -0.9,-1.1 -1.2,-1.8 -0.3,-0.7 -0.5,-1.4 -0.5,-2.3 0,-0.1 0,-0.2 0,-0.2 0,-0.1 0,-0.2 0,-0.2 0,-0.4 0,-0.8 0.1,-1.2 0,-0.4 0.1,-0.8 0.2,-1.2 0.1,-0.3 0.2,-0.6 0.3,-0.9 0.1,-0.3 0.3,-0.6 0.5,-0.9 -0.4,0 -0.7,-0.1 -1.1,-0.2 -0.3,-0.1 -0.8,-0.2 -1.2,-0.4 0.1,-0.4 0.3,-0.9 0.4,-1.3 0.1,-0.4 0.3,-0.8 0.4,-1.3 0.4,0.1 0.7,0.2 1,0.2 0.3,0.1 0.5,0.1 0.8,0.1 0.3,0 0.5,0.1 0.8,0.1 0.3,0 0.6,0 0.9,0 l 0.4,0 3.8,0 z m -3.3,2.7 c -0.1,0.2 -0.2,0.4 -0.3,0.6 -0.1,0.2 -0.2,0.4 -0.2,0.6 -0.1,0.4 -0.2,0.8 -0.2,1.3 -0.1,0.4 -0.1,0.9 -0.1,1.3 0,0.2 0,0.5 0,0.7 0,0.2 0,0.4 0.1,0.6 0.1,0.4 0.2,0.7 0.3,1 0.1,0.3 0.3,0.6 0.5,0.8 0.2,0.2 0.5,0.4 0.7,0.5 0.3,0.1 0.6,0.2 0.9,0.2 0.3,0 0.7,-0.1 0.9,-0.2 0.3,-0.1 0.5,-0.3 0.8,-0.5 0.3,-0.2 0.4,-0.5 0.5,-0.8 0.1,-0.3 0.2,-0.6 0.3,-1 0,-0.2 0,-0.4 0,-0.6 0,-0.2 0,-0.4 0,-0.7 0,-0.3 0,-0.5 0,-0.8 0,-0.3 0,-0.5 0,-0.7 0,-0.5 -0.1,-0.9 -0.1,-1.2 0,-0.3 -0.1,-0.6 -0.3,-0.7 -0.1,-0.2 -0.4,-0.3 -0.6,-0.4 -0.3,-0.1 -0.7,-0.1 -1.1,-0.1 l -2.1,0 z m 13.2,-6.2 0,3.5 6.9,0 c 0,0.2 0.1,0.3 0.1,0.5 0,0.1 0.1,0.3 0.1,0.4 0,0.2 0.1,0.4 0.1,0.5 0,0.2 0,0.4 0,0.6 l 0,2.6 c 0,1 -0.2,1.9 -0.6,2.7 -0.4,0.8 -1,1.7 -1.7,2.5 l -3.1,3.4 -2.4,-2 1.4,-1.6 c 0.6,-0.7 1.1,-1.2 1.5,-1.6 0.4,-0.4 0.7,-0.8 0.9,-1.2 0.2,-0.3 0.4,-0.7 0.5,-1 0.1,-0.3 0.2,-0.7 0.2,-1.1 l 0,-2.2 -7.2,0 0,-6.2 3.3,0 z m 12.9,2.8 c 0.8,0.2 1.4,0.4 2,0.5 0.6,0.1 1.1,0.3 1.6,0.4 0.5,0.1 0.9,0.3 1.3,0.4 0.4,0.1 0.8,0.3 1.2,0.4 0.4,0.2 0.8,0.4 1,0.6 0.3,0.2 0.5,0.5 0.7,0.8 0.2,0.3 0.3,0.6 0.4,1 0.1,0.4 0.1,0.8 0.1,1.2 l 0,4.8 c 0,0.2 0,0.4 0,0.6 0,0.2 0,0.4 -0.1,0.6 0,0.2 -0.1,0.5 -0.2,0.8 -0.1,0.3 -0.2,0.7 -0.3,1.2 l -10.9,0 0,-2.6 8.3,0 0,-5 c 0,-0.3 0,-0.5 0,-0.7 0,-0.2 -0.1,-0.4 -0.1,-0.5 -0.1,-0.1 -0.2,-0.3 -0.3,-0.4 -0.1,-0.1 -0.3,-0.2 -0.6,-0.3 -0.3,-0.1 -0.7,-0.2 -1,-0.4 -0.4,-0.1 -0.8,-0.3 -1.3,-0.4 l -1.1,2.4 1.6,0.9 -1.5,2.4 -3.9,-2.3 3.1,-6.4 z m 11.1,1.7 c 0.4,-0.3 0.9,-0.6 1.3,-0.8 0.4,-0.3 0.9,-0.5 1.3,-0.8 0.2,0.3 0.4,0.5 0.5,0.7 0.1,0.2 0.3,0.4 0.4,0.6 0.1,0.2 0.2,0.3 0.3,0.5 0.1,0.2 0.2,0.4 0.2,0.6 0.7,-0.7 1.4,-1.2 2.1,-1.5 0.8,-0.3 1.5,-0.5 2.2,-0.5 0.5,0 1,0.1 1.5,0.2 0.5,0.2 0.9,0.4 1.3,0.7 0.4,0.3 0.7,0.6 1,1.1 0.3,0.4 0.5,0.9 0.6,1.4 0.1,0.4 0.1,0.9 0.2,1.5 0,0.6 0,1.2 0,1.8 0,0.3 0,0.6 0,1 0,0.3 0,0.7 0,1.2 0,0.6 0,1.1 0,1.6 0,0.5 0,0.9 -0.1,1.3 0,0.2 0,0.4 0,0.6 0,0.2 0,0.4 -0.1,0.6 l -6.5,0 0,-2.6 3.2,0 c 0,0 0,-0.1 0,-0.3 0,-0.1 0,-0.3 0,-0.6 0,-0.2 0,-0.6 0,-1 0,-0.4 0,-0.9 0,-1.4 0,-0.2 0,-0.4 0,-0.6 0,-0.2 0,-0.5 0,-0.7 0,-0.3 0,-0.5 0,-0.7 0,-0.2 0,-0.4 0,-0.6 -0.1,-0.7 -0.3,-1.1 -0.6,-1.4 -0.3,-0.3 -0.7,-0.4 -1.3,-0.4 -0.3,0 -0.6,0.1 -0.9,0.2 -0.3,0.1 -0.6,0.3 -1,0.5 -0.2,0.1 -0.4,0.3 -0.5,0.4 -0.2,0.2 -0.3,0.3 -0.5,0.5 -0.1,0.9 -0.3,1.7 -0.4,2.3 -0.1,0.6 -0.2,1.2 -0.3,1.7 -0.1,0.5 -0.1,0.9 -0.2,1.3 -0.1,0.4 -0.1,0.7 -0.2,1.1 -0.1,0.4 -0.1,0.7 -0.2,1.1 -0.1,0.4 -0.1,0.8 -0.2,1.3 l -3.3,0 0.3,-2.1 c 0.1,-0.5 0.1,-1 0.2,-1.5 0.1,-0.5 0.1,-0.9 0.2,-1.4 0.1,-0.5 0.1,-0.9 0.2,-1.4 0.1,-0.5 0.2,-1 0.2,-1.5 0,-0.1 0,-0.3 0,-0.4 0,-0.1 0,-0.2 0,-0.4 0,-0.2 0,-0.4 0,-0.6 0,-0.2 -0.1,-0.3 -0.1,-0.5 -0.1,-0.2 -0.1,-0.3 -0.2,-0.5 -0.1,-0.2 -0.2,-0.4 -0.3,-0.6 l -0.3,-1 z"
     id="path974"
     style="fill:#f7d685" /><path
     transform="matrix(0,-1,1,0,-126.82657,979.5)"
     style="fill:#141032"
     clip-path="url(#SVGID_82_)"
     id="path1004"
     d="m 962.4,1466.2 -32.9,0 0,-6.6 27.6,0 0,-5 5.3,0 0,11.6 z m 0,17.2 -25.2,0 0,-6.6 20,0 0,-4.2 5.3,0 0,10.8 z m 0,23.6 c 0,1 -0.1,2 -0.3,3 -0.2,1 -0.7,1.9 -1.3,2.7 -0.6,0.8 -1.5,1.4 -2.5,1.9 -1.1,0.5 -2.5,0.7 -4.2,0.7 l -16.8,0 0,-6.6 15.1,0 c 1,0 1.8,0 2.4,-0.1 0.6,-0.1 1.1,-0.3 1.5,-0.6 0.4,-0.3 0.6,-0.8 0.7,-1.3 0.1,-0.6 0.2,-1.4 0.2,-2.3 l 0,-3.7 c -1.1,-0.5 -2.3,-0.9 -3.6,-1.1 -1.3,-0.2 -2.5,-0.3 -3.8,-0.3 -0.7,0 -1.4,0 -2,0 -0.6,0 -1.2,0.1 -1.8,0.2 -0.6,0.1 -1.2,0.2 -1.8,0.3 -0.6,0.1 -1.2,0.3 -1.8,0.5 l -1.4,0.5 c -0.7,-0.1 -1.3,-0.1 -2,-0.2 -0.6,-0.1 -1.2,-0.2 -1.8,-0.3 l 0,-11.9 5.3,0 0,5.6 c 1.2,-0.4 2.4,-0.7 3.6,-0.9 1.1,-0.2 2.3,-0.3 3.4,-0.3 0.9,0 1.8,0.1 2.7,0.2 0.9,0.1 1.8,0.3 2.7,0.6 0.4,0.1 0.8,0.3 1.2,0.4 0.4,0.1 0.8,0.3 1.2,0.5 0.1,-0.7 0.2,-1.4 0.3,-2.1 0.2,-0.7 0.4,-1.5 0.7,-2.4 0.9,0.3 1.7,0.5 2.6,0.8 0.8,0.3 1.7,0.6 2.5,0.9 -0.2,0.8 -0.4,1.5 -0.5,2.1 -0.1,0.6 -0.2,1.2 -0.3,1.7 -0.1,0.5 -0.1,1.1 -0.1,1.7 0,0.6 0,1.3 0,2.2 l 0,7.6 z m 0,30.8 c 0,1 -0.1,2 -0.3,3 -0.2,1 -0.7,1.9 -1.3,2.7 -0.6,0.8 -1.5,1.4 -2.6,1.9 -1.1,0.5 -2.5,0.7 -4.3,0.7 l -16.8,0 0,-6.6 15.1,0 c 1,0 1.8,0 2.4,-0.1 0.6,-0.1 1.1,-0.3 1.5,-0.6 0.4,-0.3 0.6,-0.8 0.7,-1.3 0.1,-0.6 0.2,-1.4 0.2,-2.3 l 0,-4.9 c -1.1,-0.3 -2.1,-0.4 -3.1,-0.5 -0.9,0 -1.9,-0.1 -2.9,-0.1 l -14,0 0,-6.6 14,0 c 1,0 2,0.1 3.1,0.2 1,0.1 2.1,0.4 3.2,0.6 0.1,-0.6 0.2,-1.1 0.4,-1.7 0.2,-0.6 0.4,-1.3 0.6,-2 0.9,0.3 1.7,0.5 2.6,0.8 0.8,0.3 1.7,0.6 2.5,0.9 -0.2,0.8 -0.4,1.5 -0.5,2.1 -0.1,0.6 -0.2,1.2 -0.3,1.7 -0.1,0.5 -0.1,1.1 -0.1,1.7 0,0.6 0,1.3 0,2.2 l 0,8.2 z m 0,31.6 c 0,1 -0.1,2 -0.3,3 -0.2,1 -0.7,1.9 -1.3,2.7 -0.6,0.8 -1.5,1.4 -2.5,1.9 -1.1,0.5 -2.5,0.7 -4.2,0.7 l -16.8,0 0,-6.6 15.1,0 c 1,0 1.8,0 2.4,-0.1 0.6,-0.1 1.1,-0.3 1.5,-0.6 0.4,-0.3 0.6,-0.8 0.7,-1.3 0.1,-0.6 0.2,-1.4 0.2,-2.3 l 0,-3.7 c -1.1,-0.5 -2.3,-0.9 -3.6,-1.1 -1.3,-0.2 -2.5,-0.3 -3.8,-0.3 -0.7,0 -1.4,0 -2,0 -0.6,0 -1.2,0.1 -1.8,0.2 -0.6,0.1 -1.2,0.2 -1.8,0.3 -0.6,0.1 -1.2,0.3 -1.8,0.5 l -1.4,0.5 c -0.7,-0.1 -1.3,-0.1 -2,-0.2 -0.6,-0.1 -1.2,-0.2 -1.8,-0.3 l 0,-11.9 5.3,0 0,5.6 c 1.2,-0.4 2.4,-0.7 3.6,-0.9 1.1,-0.2 2.3,-0.3 3.4,-0.3 0.9,0 1.8,0.1 2.7,0.2 0.9,0.1 1.8,0.3 2.7,0.6 0.4,0.1 0.8,0.3 1.2,0.4 0.4,0.1 0.8,0.3 1.2,0.5 0.1,-0.7 0.2,-1.4 0.3,-2.1 0.2,-0.7 0.4,-1.5 0.7,-2.4 0.9,0.3 1.7,0.5 2.6,0.8 0.8,0.3 1.7,0.6 2.5,0.9 -0.2,0.8 -0.4,1.5 -0.5,2.1 -0.1,0.6 -0.2,1.2 -0.3,1.7 -0.1,0.5 -0.1,1.1 -0.1,1.7 0,0.6 0,1.3 0,2.2 l 0,7.6 z m 0,43.6 c 0,1 -0.1,2 -0.3,3 -0.2,1 -0.7,1.9 -1.3,2.6 -0.6,0.8 -1.5,1.4 -2.6,1.8 -1.1,0.4 -2.5,0.7 -4.3,0.8 -0.3,0 -0.7,0 -1.1,0 -0.4,0 -0.8,0 -1.3,0 -0.5,0 -1,0 -1.6,0 -0.6,0 -1.3,0 -2.1,0 -1.6,0 -3.1,-0.3 -4.5,-0.9 -1.4,-0.6 -2.6,-1.4 -3.6,-2.4 -1,-1 -1.8,-2.2 -2.4,-3.6 -0.6,-1.4 -0.8,-2.9 -0.8,-4.5 0,-1.6 0.3,-3.1 0.8,-4.5 0.6,-1.4 1.4,-2.6 2.4,-3.6 1,-1 2.2,-1.8 3.6,-2.4 1.4,-0.6 2.9,-0.9 4.5,-1 0.2,0 0.3,0 0.5,0 0.2,0 0.3,0 0.5,0 0.8,0 1.5,0 2.3,0.1 0.8,0.1 1.6,0.3 2.4,0.5 0.6,0.2 1.2,0.4 1.9,0.7 0.6,0.3 1.2,0.6 1.7,0.9 0.1,-0.7 0.2,-1.4 0.3,-2.1 0.2,-0.7 0.4,-1.5 0.7,-2.4 0.9,0.3 1.7,0.5 2.6,0.8 0.8,0.3 1.7,0.6 2.5,0.9 -0.2,0.8 -0.4,1.4 -0.5,2 -0.1,0.5 -0.2,1.1 -0.3,1.6 -0.1,0.5 -0.1,1 -0.1,1.5 0,0.5 0,1.1 0,1.8 l 0,0.8 0,7.6 z m -5.3,-6.5 c -0.4,-0.3 -0.9,-0.5 -1.3,-0.7 -0.4,-0.2 -0.8,-0.3 -1.3,-0.4 -0.8,-0.2 -1.6,-0.4 -2.5,-0.5 -0.9,-0.1 -1.8,-0.2 -2.6,-0.2 -0.5,0 -1,0 -1.4,0 -0.5,0 -0.9,0.1 -1.2,0.1 -0.8,0.1 -1.4,0.3 -2,0.6 -0.6,0.3 -1.1,0.6 -1.6,1.1 -0.4,0.4 -0.8,0.9 -1,1.5 -0.2,0.6 -0.4,1.2 -0.4,1.9 0,0.7 0.1,1.3 0.4,1.9 0.2,0.6 0.6,1.1 1,1.5 0.4,0.4 1,0.8 1.6,1.1 0.6,0.3 1.3,0.4 2,0.5 0.3,0 0.7,0.1 1.2,0.1 0.4,0 0.9,0 1.3,0 0.5,0 1,0 1.6,0 0.5,0 1,0 1.5,-0.1 1,-0.1 1.8,-0.2 2.4,-0.3 0.6,-0.1 1.1,-0.3 1.5,-0.6 0.4,-0.3 0.6,-0.7 0.7,-1.3 0.1,-0.6 0.2,-1.3 0.2,-2.3 l 0,-3.9 z m 12.4,26.4 -7.1,0 0,13.8 c -0.4,0.1 -0.7,0.2 -0.9,0.3 -0.3,0.1 -0.5,0.1 -0.8,0.2 -0.4,0.1 -0.8,0.1 -1.1,0.1 -0.3,0 -0.7,0 -1.2,0 l -5.2,0 c -1.9,0 -3.7,-0.4 -5.4,-1.2 -1.7,-0.8 -3.4,-1.9 -5.1,-3.4 l -6.8,-6.2 4,-4.7 3.1,2.7 c 1.3,1.2 2.4,2.1 3.3,2.9 0.9,0.8 1.6,1.4 2.3,1.9 0.7,0.5 1.4,0.8 2,1 0.6,0.2 1.4,0.3 2.2,0.3 l 4.3,0 0,-14.4 12.3,0 0,6.7 z m -5.6,25.8 c -0.4,1.5 -0.7,2.8 -1,4 -0.3,1.2 -0.6,2.2 -0.8,3.2 -0.3,1 -0.5,1.8 -0.8,2.7 -0.3,0.8 -0.5,1.6 -0.8,2.4 -0.3,0.8 -0.7,1.5 -1.2,2.1 -0.5,0.6 -1,1 -1.6,1.3 -0.6,0.3 -1.2,0.6 -2,0.7 -0.7,0.1 -1.5,0.2 -2.4,0.2 l -9.7,0 c -0.4,0 -0.8,0 -1.2,0 -0.4,0 -0.7,-0.1 -1.2,-0.1 -0.5,-0.1 -1,-0.2 -1.7,-0.3 -0.6,-0.1 -1.5,-0.3 -2.5,-0.6 l 0,-21.8 5.3,0 0,16.6 10,0 c 0.6,0 1,0 1.4,-0.1 0.4,0 0.7,-0.1 1,-0.3 0.3,-0.1 0.5,-0.4 0.7,-0.6 0.2,-0.3 0.4,-0.7 0.6,-1.2 0.2,-0.6 0.5,-1.3 0.7,-2.1 0.2,-0.8 0.5,-1.6 0.8,-2.6 l -4.7,-2.3 -1.9,3.2 -4.8,-2.9 4.6,-7.7 13.2,6.2 z m -3.4,22.2 c 0.6,0.9 1.1,1.7 1.6,2.5 0.5,0.8 1,1.7 1.5,2.6 -0.5,0.4 -1,0.7 -1.4,1 -0.4,0.3 -0.8,0.5 -1.1,0.7 -0.3,0.2 -0.7,0.4 -1,0.6 -0.3,0.2 -0.7,0.3 -1.1,0.5 1.4,1.4 2.4,2.8 3.1,4.3 0.7,1.5 1,3 1,4.4 0,1 -0.2,2 -0.5,2.9 -0.3,0.9 -0.8,1.8 -1.3,2.5 -0.6,0.8 -1.3,1.4 -2.1,1.9 -0.8,0.5 -1.8,0.9 -2.9,1.1 -0.9,0.2 -1.9,0.3 -3,0.3 -1.1,0 -2.3,0.1 -3.6,0.1 -0.6,0 -1.3,0 -1.9,0 -0.7,0 -1.5,0 -2.4,0 -1.1,0 -2.2,0 -3.2,-0.1 -1,0 -1.9,-0.1 -2.5,-0.1 -0.4,0 -0.7,-0.1 -1.1,-0.1 -0.4,0 -0.8,-0.1 -1.2,-0.1 l 0,-12.7 5.3,0 0,6.5 c 0.1,0 0.3,0 0.5,0 0.3,0 0.6,0 1.1,0 0.5,0 1.1,0 1.9,0 0.8,0 1.7,0 2.9,0 0.3,0 0.7,0 1.2,0 0.5,0 1,0 1.5,0 0.5,0 1,0 1.5,0 0.5,0 0.9,0 1.2,-0.1 1.3,-0.2 2.2,-0.6 2.8,-1.2 0.5,-0.6 0.8,-1.5 0.8,-2.6 0,-0.6 -0.1,-1.2 -0.4,-1.8 -0.2,-0.6 -0.6,-1.3 -1,-1.9 -0.3,-0.4 -0.5,-0.7 -0.9,-1.1 -0.3,-0.3 -0.7,-0.7 -1.1,-1 -1.8,-0.3 -3.3,-0.5 -4.6,-0.7 -1.3,-0.2 -2.4,-0.4 -3.4,-0.5 -1,-0.1 -1.8,-0.3 -2.6,-0.4 -0.7,-0.1 -1.5,-0.2 -2.2,-0.3 -0.7,-0.1 -1.4,-0.2 -2.2,-0.3 -0.8,-0.1 -1.6,-0.2 -2.6,-0.4 l 0,-6.6 4.3,0.6 c 1,0.1 2,0.3 2.9,0.4 0.9,0.1 1.9,0.3 2.8,0.4 0.9,0.1 1.9,0.3 2.8,0.4 0.9,0.2 1.9,0.3 3,0.5 0.3,0 0.6,0.1 0.8,0.1 0.2,0 0.5,0 0.7,0 0.5,0 0.9,0 1.2,-0.1 0.4,-0.1 0.7,-0.2 1,-0.3 0.3,-0.1 0.7,-0.3 1,-0.5 0.3,-0.2 0.7,-0.4 1.1,-0.6 l 1.8,-0.8 z"
     class="st67" /><path
     class="st49"
     d="m 1500.6734,81.2 c -0.6,0 -1.1,0 -1.5,0 -0.4,0 -0.9,0 -1.3,-0.1 -0.4,-0.1 -0.8,-0.1 -1.2,-0.2 -0.4,-0.1 -0.9,-0.3 -1.4,-0.4 0.2,-0.5 0.3,-0.9 0.5,-1.4 0.2,-0.5 0.3,-0.9 0.5,-1.4 0.5,0.2 1,0.3 1.4,0.4 0.4,0.1 0.8,0.2 1.2,0.2 0.4,0 0.8,0.1 1.2,0.1 0.4,0 0.9,0 1.5,0 l 3.7,0 c 0.8,0 1.6,0.1 2.3,0.3 0.8,0.2 1.5,0.5 2.1,1 0.6,0.5 1.1,1.2 1.5,2 0.4,0.9 0.6,2 0.6,3.4 l 0,12.9 -3.3,0 0,-12.6 c 0,-0.8 -0.1,-1.5 -0.2,-2 -0.1,-0.5 -0.3,-1 -0.6,-1.3 -0.3,-0.3 -0.7,-0.5 -1.2,-0.7 -0.5,-0.1 -1.1,-0.2 -1.9,-0.2 l -3.9,0 z m -5,10.8 c 0,-0.6 0,-1.1 0,-1.5 0,-0.4 0,-0.8 0.1,-1.2 0,-0.4 0.1,-0.8 0.2,-1.2 0.1,-0.4 0.2,-0.8 0.3,-1.3 0.5,0.1 1.1,0.2 1.6,0.2 0.5,0.1 1.1,0.2 1.6,0.2 -0.1,0.5 -0.1,0.9 -0.2,1.2 -0.1,0.4 -0.1,0.7 -0.1,1.1 0,0.4 -0.1,0.7 -0.1,1.1 0,0.4 0,0.9 0,1.4 l 0,5.8 -3.3,0 0,-5.8 z m 31.3,-13.7 c 1.1,0 2.1,0.1 3,0.4 0.8,0.3 1.5,0.7 2,1.3 0.4,0.4 0.7,0.9 0.9,1.5 0.2,0.6 0.4,1.2 0.5,1.9 0.1,0.7 0.2,1.3 0.3,2 0,0.7 0.1,1.3 0.1,2 0,1 -0.1,2 -0.2,3 -0.2,1.3 -0.4,2.4 -0.9,3.4 -0.4,1 -1,1.8 -1.7,2.5 -0.7,0.7 -1.5,1.2 -2.4,1.5 -0.9,0.4 -2,0.5 -3.1,0.5 -1.5,0 -2.7,-0.2 -3.8,-0.7 -1.1,-0.5 -1.9,-1.2 -2.5,-2 -0.7,-0.8 -1.1,-1.8 -1.4,-3 -0.3,-1.2 -0.5,-2.4 -0.5,-3.7 0,-0.8 0,-1.5 0.1,-2.3 0.1,-0.8 0.3,-1.6 0.5,-2.5 0.2,-0.5 0.3,-1 0.6,-1.5 0.2,-0.5 0.4,-1 0.7,-1.4 -0.6,0 -1.1,-0.1 -1.6,-0.2 -0.5,-0.1 -1.1,-0.3 -1.7,-0.5 0.2,-0.5 0.3,-0.9 0.5,-1.4 0.2,-0.5 0.3,-0.9 0.5,-1.4 0.5,0.2 1,0.3 1.4,0.4 0.4,0.1 0.8,0.2 1.2,0.2 0.4,0 0.8,0.1 1.2,0.1 0.4,0 0.9,0 1.5,0 l 4.8,0 z m -4.5,2.9 c -0.6,0.8 -1,1.7 -1.3,2.7 -0.3,1 -0.5,1.9 -0.5,2.9 0,0.4 0,0.8 -0.1,1.1 0,0.4 0,0.8 0,1.1 0,0.9 0.1,1.7 0.2,2.4 0.1,0.8 0.4,1.4 0.8,2 0.4,0.6 0.9,1.1 1.6,1.5 0.7,0.3 1.4,0.5 2.3,0.5 0.7,0 1.3,-0.1 1.8,-0.3 0.6,-0.2 1,-0.5 1.5,-0.9 0.4,-0.4 0.8,-0.9 1,-1.5 0.3,-0.6 0.5,-1.3 0.6,-2 0.1,-0.6 0.1,-1.1 0.2,-1.6 0,-0.5 0.1,-1 0.1,-1.4 0,-0.7 0,-1.3 -0.1,-1.9 -0.1,-0.6 -0.1,-1.2 -0.2,-1.9 -0.1,-0.5 -0.2,-1 -0.3,-1.3 -0.1,-0.3 -0.4,-0.6 -0.6,-0.9 -0.3,-0.2 -0.6,-0.4 -1.1,-0.5 -0.4,-0.1 -1,-0.1 -1.6,-0.1 l -4.3,0 z m 22.9,-2.9 0,6.1 c 0,0.7 0,1.2 0,1.7 0,0.5 0,0.9 -0.1,1.2 -0.1,0.3 -0.1,0.7 -0.2,1.1 -0.1,0.4 -0.1,0.7 -0.2,1.2 l -3.2,-0.5 c 0.1,-0.4 0.1,-0.7 0.2,-1 0.1,-0.3 0.1,-0.6 0.1,-1 0,-0.4 0.1,-0.7 0.1,-1.2 0,-0.4 0,-1 0,-1.6 l 0,-3.2 -4.3,0 0,-2.9 7.6,0 z m 13.7,0 0.1,0.6 c 0,0.4 0.1,1 0.2,1.7 0.1,0.7 0.2,1.6 0.3,2.6 0.1,1 0.2,2.1 0.3,3.2 0.1,1.1 0.2,2.3 0.4,3.6 0.1,1.2 0.2,2.5 0.4,3.7 0.1,0.6 0.1,1 0.1,1.4 0,0.4 0,0.7 0,1 0,0.3 0,0.6 0,0.8 0,0.3 -0.1,0.6 -0.1,1 l -11.2,0 0,-2.9 8.2,0 -1.5,-13.9 -4.6,0 0,-2.9 7.4,0 z m 12.1,2.9 c -0.6,0 -1.1,0 -1.5,0 -0.4,0 -0.9,0 -1.3,-0.1 -0.4,-0.1 -0.8,-0.1 -1.2,-0.2 -0.4,-0.1 -0.9,-0.3 -1.4,-0.4 0.2,-0.5 0.3,-0.9 0.5,-1.4 0.2,-0.5 0.3,-0.9 0.5,-1.4 0.5,0.2 1,0.3 1.4,0.4 0.4,0.1 0.8,0.2 1.2,0.2 0.4,0 0.8,0.1 1.2,0.1 0.4,0 0.9,0 1.5,0 l 1.1,0 c 0.8,0 1.5,0.1 2.3,0.3 0.7,0.2 1.4,0.5 2,1 0.6,0.5 1.1,1.2 1.5,2 0.4,0.9 0.6,1.9 0.7,3.3 0,0.7 0.1,1.4 0.1,2.1 0,0.7 0,1.4 0,2.2 0,0.7 0,1.5 0,2.3 0,0.8 0,1.7 0,2.6 0,0.3 0,0.6 0,0.8 0,0.2 0,0.5 -0.1,0.8 0,0.3 -0.1,0.6 -0.2,0.9 -0.1,0.3 -0.2,0.7 -0.3,1.2 l -14.4,0 0,-2.9 11.7,0 c 0,-1.5 0,-3.1 0,-4.8 0,-1.7 -0.1,-3.3 -0.1,-4.9 0,-0.8 -0.1,-1.5 -0.2,-2 -0.1,-0.5 -0.3,-1 -0.6,-1.3 -0.3,-0.3 -0.7,-0.5 -1.1,-0.7 -0.5,-0.1 -1.1,-0.2 -1.9,-0.2 l -1.4,0 z"
     id="path1006"
     style="fill:#141032" /></svg>