<?xml version="1.0" encoding="UTF-8" standalone="no"?>
<!-- Created with Inkscape (http://www.inkscape.org/) -->

<svg
   width="201.39999"
   height="116"
   viewBox="0 0 53.286411 30.69128"
   version="1.1"
   id="svg2792"
   xmlns="http://www.w3.org/2000/svg"
   xmlns:svg="http://www.w3.org/2000/svg">
  <defs
     id="defs2789" />
  <g
     id="layer1"
     transform="translate(-111.71478,-134.22339)">
    <g
       id="g1648"
       transform="matrix(0.26458,0,0,0.26458,-236.65771,-250.15843)">
      <path
         id="rect755_5_"
         style="fill:#a22442"
         d="m 1316.7,1452.8 h 197.1 v 35.1 h -197.1 z" />
      <path
         id="path767_5_"
         d="m 1442,1520.6 c 0,12.8 -23.4,48.2 -23.4,48.2 0,0 -23.4,-35.4 -23.4,-48.2 0,-12.8 10.5,-23.4 23.4,-23.4 12.9,0 23.4,10.4 23.4,23.4"
         style="fill:#a22442" />
      <path
         id="path861_3_"
         d="m 1425.7,1517.3 c -1.2,-0.6 -2.1,-1.2 -3,-1.8 0.6,-0.8 1.8,-2.4 1.5,-3.6 0,-0.2 -0.2,-0.8 -0.6,-1.2 -0.2,-0.2 -0.6,-0.2 -0.8,-0.2 -0.6,0 -1.5,0.6 -2.1,0.8 v -0.6 c 0.2,-1.5 0.8,-2.7 2.1,-2.7 1.2,0 2.7,0.8 3,2.7 0.9,1.7 0.5,3.9 -0.1,6.6 m -3.8,-3.1 c -0.2,-0.6 -0.6,-1.2 -0.8,-1.8 0.2,-0.8 0.8,-1.5 1.5,-1.5 h 0.2 c 0.2,0 0.2,0.2 0.2,0.6 0.3,1.3 -0.5,2.1 -1.1,2.7 m -1.5,1.6 -0.8,0.6 0.2,-1.2 c 0,-0.2 0.2,-0.8 0.6,-1.5 0.2,0.2 0.6,0.8 0.8,1.2 -0.6,0.5 -0.8,0.5 -0.8,0.9 m 11.6,9.6 c 0,-0.2 -2.1,-5.9 -4.8,-7.5 -0.2,0 -0.2,-0.2 -0.6,-0.2 0.8,-2.7 1.2,-5.1 0.6,-7.2 -0.6,-2.1 -2.4,-3.6 -4.2,-3.3 -1.5,0 -2.7,1.5 -3,3.3 v 1.8 c -0.2,0.6 -0.6,0.8 -0.6,1.2 l -14.1,22.2 c 0,0.2 -0.2,0.2 0,0.6 v 0.2 h 0.2 c 0.2,0 0.2,-0.2 0.6,-0.2 l 16.2,-20.1 c 0.8,0.8 2.4,1.5 3.3,2.1 -0.6,1.5 -1.2,3.3 -1.8,5.1 -2.1,5.1 -1.2,9.3 0.2,10.2 h 0.2 c 0,0 0.2,0 0.2,-0.2 v -0.6 c -1.2,-0.6 -2.1,-4.5 0,-9 0.8,-1.8 1.5,-3.6 1.8,-5.1 0,0 0.2,0 0.2,0.2 2.4,1.2 4.5,6.9 4.5,6.9 0,0.2 0.2,0.2 0.6,0.2 0.5,0 0.5,-0.4 0.5,-0.6"
         style="fill:#ffffcc" />
      <g
         id="g234">
        <path
           d="m 1330.1,1467 h -2.4 v -3.3 h 6.6 v 8.9 h -4.2 z"
           id="path210"
           style="fill:#fffffd" />
        <path
           d="m 1339.3,1467 h -2.4 v -3.3 h 6.6 v 8.9 h -4.2 z"
           id="path212"
           style="fill:#fffffd" />
        <path
           d="m 1359.2,1466.4 -5.1,12.9 h -4.5 l 5.1,-12.3 h -8.3 v -7.6 h 4.2 v 4.4 h 8.6 z"
           id="path214"
           style="fill:#fffffd" />
        <path
           d="m 1365.2,1479.4 c -1.1,-0.2 -2,-0.4 -2.9,-0.7 l 0.8,-3.1 c 0.8,0.2 1.7,0.4 2.5,0.5 0.9,0.1 1.6,0.2 2.2,0.2 1.2,0 2.2,-0.3 2.8,-0.8 0.6,-0.5 0.9,-1.3 0.9,-2.4 v -6.1 h -4.5 c -0.2,0.5 -0.3,1 -0.4,1.4 -0.1,0.5 -0.1,0.9 -0.1,1.4 v 0.7 c 0.4,0.1 0.9,0.1 1.3,0.1 v 2.8 c -0.5,0.1 -1.1,0.2 -1.6,0.2 -0.7,0 -1.4,-0.1 -2.1,-0.2 -0.7,-0.2 -1.2,-0.4 -1.7,-0.7 v -1.4 c 0,-0.8 0.1,-1.6 0.3,-2.4 0.2,-0.8 0.4,-1.4 0.7,-1.9 h -1.6 v -3.3 h 13.9 v 8.8 c 0,1.6 -0.3,3 -1,4.1 -0.7,1.1 -1.6,1.9 -2.7,2.4 -1.1,0.5 -2.4,0.8 -3.9,0.8 -0.9,-0.1 -1.9,-0.2 -2.9,-0.4 z"
           id="path216"
           style="fill:#fffffd" />
        <path
           d="m 1383,1478.7 c -1.1,-0.6 -1.9,-1.5 -2.5,-2.6 -0.6,-1.1 -0.9,-2.4 -0.9,-3.8 v -0.9 c 0,-0.7 0.1,-1.5 0.4,-2.3 0.3,-0.8 0.6,-1.5 1,-1.9 l 0.2,-0.2 v -0.1 c -0.5,0.1 -1.2,0.3 -1.9,0.5 l -0.8,-3.1 c 1,-0.3 2.3,-0.5 3.7,-0.7 1.4,-0.2 2.7,-0.3 3.9,-0.3 2.5,0 4.3,0.6 5.6,1.9 1.3,1.3 2,3.1 2,5.6 v 1.5 c 0,1.5 -0.3,2.7 -0.9,3.8 -0.6,1.1 -1.4,2 -2.5,2.6 -1.1,0.6 -2.3,0.9 -3.7,0.9 -1.3,0 -2.5,-0.3 -3.6,-0.9 z m 5.1,-3 c 0.4,-0.3 0.8,-0.8 1,-1.3 0.2,-0.6 0.4,-1.2 0.4,-2 v -1.5 c 0,-1.3 -0.2,-2.4 -0.7,-3.1 -0.5,-0.7 -1.2,-1.1 -2.1,-1.1 -0.9,0 -1.6,0.4 -2.1,1.1 -0.5,0.7 -0.7,1.8 -0.7,3.2 v 1.2 c 0,0.8 0.1,1.4 0.3,2 0.2,0.6 0.6,1 1,1.3 0.4,0.3 0.9,0.5 1.5,0.5 0.5,0.2 1,0 1.4,-0.3 z"
           id="path218"
           style="fill:#fffffd" />
        <path
           d="m 1397.3,1467 h -1.3 v -3.3 h 5.6 v 15.6 h -4.2 V 1467 Z"
           id="path220"
           style="fill:#fffffd" />
        <path
           d="m 1411.4,1476.1 c 1.1,0 1.9,-0.4 2.5,-1 0.6,-0.6 0.9,-1.5 0.9,-2.7 v -5.5 h -9 v -3.3 h 13.2 v 8.7 c 0,1.4 -0.3,2.7 -0.9,3.7 -0.6,1 -1.5,1.8 -2.6,2.3 -1.1,0.5 -2.5,0.8 -4.1,0.9 z m -5.6,-2.2 c 0,-0.9 0.1,-1.7 0.3,-2.2 0.2,-0.5 0.4,-0.9 0.7,-1.2 h 3.4 c -0.2,0.7 -0.2,1.7 -0.2,2.9 v 11.3 h -4.1 v -10.8 z"
           id="path222"
           style="fill:#fffffd" />
        <path
           d="m 1433.1,1478.8 c -1,-0.6 -1.8,-1.4 -2.4,-2.4 -0.6,-1 -0.9,-2.2 -0.9,-3.5 v -9.2 h 4.2 v 9.7 c 0,0.6 0.1,1.1 0.3,1.6 0.2,0.5 0.5,0.8 0.9,1.1 0.4,0.3 0.9,0.4 1.4,0.4 0.5,0 1,-0.1 1.4,-0.4 0.4,-0.3 0.7,-0.6 0.9,-1.1 0.2,-0.5 0.3,-1 0.3,-1.6 v -4.4 c 0,-0.7 -0.1,-1.2 -0.4,-1.5 -0.3,-0.3 -0.7,-0.5 -1.3,-0.5 -0.4,0 -0.8,0.1 -1.4,0.2 l -0.4,-2.7 c 0.5,-0.3 1,-0.5 1.6,-0.7 0.6,-0.2 1.1,-0.2 1.7,-0.2 0.9,0 1.7,0.2 2.4,0.6 0.7,0.4 1.2,1 1.5,1.7 0.4,0.8 0.5,1.7 0.5,2.7 v 4.3 c 0,1.3 -0.3,2.5 -0.9,3.5 -0.6,1 -1.4,1.8 -2.4,2.4 -1,0.6 -2.2,0.8 -3.6,0.8 -1.4,0 -2.4,-0.2 -3.4,-0.8 z"
           id="path224"
           style="fill:#fffffd" />
        <path
           d="m 1447,1467 h -1.3 v -3.3 h 5.6 v 15.6 h -4.2 V 1467 Z"
           id="path226"
           style="fill:#fffffd" />
        <path
           d="m 1458.4,1479.4 c -1.1,-0.2 -2,-0.4 -2.9,-0.7 l 0.8,-3.1 c 0.8,0.2 1.7,0.4 2.5,0.5 0.9,0.1 1.6,0.2 2.2,0.2 1.2,0 2.2,-0.3 2.8,-0.8 0.6,-0.5 0.9,-1.3 0.9,-2.4 v -6.1 h -4.5 c -0.2,0.5 -0.3,1 -0.4,1.4 -0.1,0.5 -0.1,0.9 -0.1,1.4 v 0.7 c 0.4,0.1 0.9,0.1 1.3,0.1 v 2.8 c -0.5,0.1 -1.1,0.2 -1.6,0.2 -0.7,0 -1.4,-0.1 -2.1,-0.2 -0.7,-0.2 -1.2,-0.4 -1.7,-0.7 v -1.4 c 0,-0.8 0.1,-1.6 0.3,-2.4 0.2,-0.8 0.4,-1.4 0.7,-1.9 h -1.6 v -3.3 h 13.9 v 8.8 c 0,1.6 -0.3,3 -1,4.1 -0.7,1.1 -1.6,1.9 -2.7,2.4 -1.1,0.5 -2.4,0.8 -3.9,0.8 -0.8,-0.1 -1.8,-0.2 -2.9,-0.4 z"
           id="path228"
           style="fill:#fffffd" />
        <path
           d="m 1474.1,1467 h -2.4 v -3.3 h 6.6 v 8.9 h -4.2 z"
           id="path230"
           style="fill:#fffffd" />
        <path
           d="m 1486.5,1475.5 c 0.7,0.3 1.5,0.6 2.4,0.8 0.9,0.2 1.6,0.3 2.4,0.3 1.9,0 3.4,-0.4 4.5,-1.2 1.1,-0.8 1.6,-2 1.6,-3.6 v -8 h 4.1 v 8.4 c 0,1.7 -0.4,3.1 -1.3,4.2 -0.9,1.1 -2.1,2 -3.6,2.6 -1.5,0.6 -3.2,0.9 -5.1,0.9 -1.5,0 -3,-0.2 -4.6,-0.5 -1.6,-0.4 -3,-0.9 -4.4,-1.5 v -14 h 4.1 v 11.6 z m 3.2,-2.6 c 0.1,-0.6 0.1,-1.3 0.1,-2 v -7.2 h 4.1 v 6.3 c 0,0.9 -0.1,1.7 -0.3,2.5 -0.2,0.8 -0.5,1.4 -0.8,1.8 h -3.4 c 0.1,-0.3 0.2,-0.8 0.3,-1.4 z"
           id="path232"
           style="fill:#fffffd" />
      </g>
    </g>
  </g>
</svg>
