<svg width="206.4" height="139.3" viewBox="0 0 54.609 36.856" xmlns="http://www.w3.org/2000/svg">
    <path d="M89.84 119.47c0 2.461-4.446 9.26-4.446 9.26s-4.445-6.746-4.445-9.26a4.438 4.438 0 0 1 4.445-4.445 4.438 4.438 0 0 1 4.445 4.445M58.09 91.875h54.45v21.007H58.09Z" style="fill:#3696c9;stroke-width:.26458" transform="translate(-58.09 -91.875)"/>
    <path d="M739.9 1989.6h13.4v15.6h-13.4zm9.1 12.3v-9h-4.9v9zm9.4-9.1H756v-3.3h6.6v8.9h-4.2zm13.5 2.1c0-.7-.2-1.2-.6-1.5-.4-.4-.9-.5-1.6-.5H765v-3.3h5c1.3 0 2.4.2 3.3.7.9.4 1.6 1.1 2.1 1.9.5.8.7 1.8.7 3v10h-4.2zm9-2.1h-2.4v-3.3h6.6v8.9h-4.2zm9.2 0h-2.4v-3.3h6.6v8.9h-4.2zm16.9 5.5 3.4 5v1.9H798v-3.3h7l-8.3-12.3h4.7l3.1 5 2.3-5h4.7zm25.7-7.2c1.1 1 1.6 2.5 1.6 4.4v9.7H830v-10.1c0-1.5-.7-2.3-2-2.3h-2c-.1.5-.2 1-.3 1.6-.1.6-.1 1.1-.1 1.6v4.4c0 1.1-.2 2-.6 2.7-.4.8-.9 1.3-1.6 1.7-.7.4-1.6.6-2.6.6-.6 0-1.3-.1-2-.2v-3.3h.8c1.2 0 1.9-.7 1.9-2v-3.7c0-.6.1-1.2.2-1.8.1-.7.4-1.2.6-1.7H820v-3.3h8c2.1.2 3.6.7 4.7 1.7zm10.6 3.8c0-.7-.2-1.2-.6-1.5-.4-.4-.9-.5-1.6-.5h-4.7v-3.3h5c1.3 0 2.4.2 3.3.7.9.4 1.6 1.1 2.1 1.9.5.8.7 1.8.7 3v10h-4.2zm20.2-5.3v3.3h-2.8v12.3h-4.2v-12.3H850v-3.3zm7.1 11.7c.7.3 1.5.6 2.4.8.9.2 1.6.3 2.4.3 1.9 0 3.4-.4 4.5-1.2 1.1-.8 1.6-2 1.6-3.6v-8h4.1v8.4c0 1.7-.4 3.1-1.3 4.2s-2.1 2-3.6 2.6c-1.5.6-3.2.9-5.1.9-1.5 0-3-.2-4.6-.5-1.6-.4-3-.9-4.4-1.5v-14h4.1v11.6zm3.1-2.6c.1-.6.1-1.3.1-2v-7.2h4.1v6.3c0 .9-.1 1.7-.3 2.5-.2.8-.5 1.4-.8 1.8h-3.4c.1-.3.3-.7.3-1.4zm-139.3 22.8h13.4v15.6h-13.4zm9.1 12.3v-9h-4.9v9zm9.4-9h-2.4v-3.3h6.6v8.9h-4.2zm8.6 12.5c-.5-.1-1-.2-1.6-.3v-3.2c.6.1 1.3.1 1.9.1.6 0 1-.2 1.3-.5.3-.3.4-.8.4-1.5v-7.2h-2.7v-3.3h7v10.8c0 1-.2 2-.6 2.7-.4.8-.9 1.3-1.7 1.7-.8.4-1.6.6-2.6.6-.5.2-1 .1-1.4.1zm9.2-.6.6-3.1c1.3.3 2.4.4 3.3.4 1.2 0 2.2-.3 2.7-.8.6-.5.9-1.3.9-2.4v-6.1h-7v-3.3h11.2v8.6c0 2.5-.6 4.3-1.9 5.5-1.3 1.2-3.1 1.7-5.4 1.7-1.2.1-2.8-.1-4.4-.5zm16.2-11.9h-1.3v-3.3h5.6v15.6H787Zm20.6-3.3v3.3h-2.8v12.3h-4.2v-12.3H794v-3.3zm9.6 0h13.4v15.6h-13.4zm9.1 12.3v-9h-4.9v9zm8.5-12.3h6.9c2 0 3.6.5 4.6 1.5 1 1 1.6 2.5 1.6 4.4v9.7h-4.2V2027c0-1.5-.7-2.3-2-2.3h-2.7v12.3h-4.2zm28.7 1.5c1.1 1 1.6 2.5 1.6 4.4v9.7h-4.2V2027c0-1.5-.7-2.3-2-2.3h-2c-.1.5-.2 1-.3 1.6-.1.6-.1 1.1-.1 1.6v4.4c0 1.1-.2 2-.6 2.7-.4.8-.9 1.3-1.6 1.7-.7.4-1.6.6-2.6.6-.6 0-1.3-.1-2-.2v-3.3h.8c1.2 0 1.9-.7 1.9-2v-3.7c0-.6.1-1.2.2-1.8.1-.7.4-1.2.6-1.7h-2.4v-3.3h8c2.1.2 3.7.7 4.7 1.7zm6.3 5.4c.1-.7.2-1.4.5-2 .3-.6.6-1.1.9-1.5l.2-.2v-.1c-.3.1-.7.2-1.2.3-.5.1-.9.3-1.2.4l-.9-3.1c1-.4 2.2-.7 3.5-.9 1.4-.2 2.6-.3 3.9-.3 2.4 0 4.2.6 5.5 1.8 1.2 1.2 1.9 3 1.9 5.4v8.8h-6.9v-3.3h2.6v-6.1c0-1-.2-1.8-.6-2.4-.4-.6-1-.8-1.7-.8-1.4 0-2.2 1.1-2.4 3.3l-.9 9.2h-4.2zm17.1-3.6h-1.3v-3.3h5.6v15.6h-4.2z" style="fill:#fffffd" transform="translate(-188.566 -522.149) scale(.26458)"/>
</svg>
