<?xml version="1.0" encoding="UTF-8" standalone="no"?>
<svg
   xmlns:dc="http://purl.org/dc/elements/1.1/"
   xmlns:cc="http://creativecommons.org/ns#"
   xmlns:rdf="http://www.w3.org/1999/02/22-rdf-syntax-ns#"
   xmlns:svg="http://www.w3.org/2000/svg"
   xmlns="http://www.w3.org/2000/svg"
   xmlns:xlink="http://www.w3.org/1999/xlink"
   version="1.1"
   id="svg5482"
   viewBox="0 0 556.52003 331.22591"
   height="331.22592"
   width="556.52002">
  <defs
     id="defs5484">
    <clipPath
       id="SVGID_36_">
      <use
         id="use677"
         overflow="visible"
         xlink:href="#SVGID_35_"
         style="overflow:visible"
         x="0"
         y="0"
         width="100%"
         height="100%" />
    </clipPath>
    <clipPath
       id="SVGID_32_">
      <use
         id="use643"
         overflow="visible"
         xlink:href="#SVGID_31_"
         style="overflow:visible"
         x="0"
         y="0"
         width="100%"
         height="100%" />
    </clipPath>
    <clipPath
       id="SVGID_30_">
      <use
         id="use533"
         overflow="visible"
         xlink:href="#SVGID_29_"
         style="overflow:visible"
         x="0"
         y="0"
         width="100%"
         height="100%" />
    </clipPath>
  </defs>
  <metadata
     id="metadata5487">
    <rdf:RDF>
      <cc:Work
         rdf:about="">
        <dc:format>image/svg+xml</dc:format>
        <dc:type
           rdf:resource="http://purl.org/dc/dcmitype/StillImage" />
        <dc:title></dc:title>
      </cc:Work>
    </rdf:RDF>
  </metadata>
  <g
     transform="translate(-90.311428,-306.74924)"
     id="layer1">
    <polygon
       id="polygon495"
       points="166,193.9 220,222.6 400,156.5 311.8,126.3 "
       style="fill:#b6b1c1"
       transform="translate(58.131428,235.04924)" />
    <polygon
       id="polygon497"
       points="165.3,183.6 315,119.2 315,131.4 165.3,196 "
       style="fill:#ffffff"
       transform="translate(58.131428,235.04924)" />
    <polygon
       id="polygon499"
       points="165.3,183.6 315,119.2 315,131.4 165.3,196 "
       style="fill:none;stroke:#141132;stroke-width:0.23999999"
       transform="translate(58.131428,235.04924)" />
    <polygon
       id="polygon501"
       points="259.7,142.8 313.2,171.1 305.3,180.9 259.7,155.8 "
       style="fill:#ffffff"
       transform="translate(58.131428,235.04924)" />
    <polygon
       id="polygon503"
       points="259.7,142.8 313.2,171.1 305.3,180.9 259.7,155.8 "
       style="fill:none;stroke:#141132;stroke-width:0.23999999"
       transform="translate(58.131428,235.04924)" />
    <polygon
       id="polygon505"
       points="315,119.2 396.6,144.9 396.6,156.5 315,131.4 "
       style="fill:#ffffff"
       transform="translate(58.131428,235.04924)" />
    <polygon
       id="polygon507"
       points="315,119.2 396.6,144.9 396.6,156.5 315,131.4 "
       style="fill:none;stroke:#141132;stroke-width:0.23999999"
       transform="translate(58.131428,235.04924)" />
    <polygon
       id="polygon509"
       points="408.7,357 367.9,340 477.4,259.4 578.1,202.9 444.2,136.6 384,157.8 370.7,163.1 284.6,191 285.1,188.6 210.4,213.2 167.9,194.5 132.2,211.1 102.7,200.9 42.3,226.6 69.2,247.1 92.5,236.9 115.4,248.5 98.8,265.1 359.3,390.2 "
       style="fill:#b6b1c1"
       transform="translate(58.131428,235.04924)" />
    <polygon
       id="polygon511"
       points="92.5,236.9 112.7,246.8 111.4,251 92.5,241.3 "
       style="fill:#ffffff"
       transform="translate(58.131428,235.04924)" />
    <polygon
       id="polygon513"
       points="92.5,236.9 112.7,246.8 111.4,251 92.5,241.3 "
       style="fill:none;stroke:#141132;stroke-width:0.23999999"
       transform="translate(58.131428,235.04924)" />
    <polygon
       id="polygon515"
       points="420.9,168.5 335.4,190.1 229.3,214.6 363.4,279.5 449.8,234.2 493.1,201.4 "
       style="fill:#44265c"
       transform="translate(58.131428,235.04924)" />
    <polygon
       id="polygon517"
       points="86.3,243.5 102.7,251 102.7,256.5 86.3,247.6 "
       style="fill:#ffffff"
       transform="translate(58.131428,235.04924)" />
    <polygon
       id="polygon519"
       points="86.3,243.5 102.7,251 102.7,256.5 86.3,247.6 "
       style="fill:none;stroke:#141132;stroke-width:0.23999999"
       transform="translate(58.131428,235.04924)" />
    <polygon
       id="polygon521"
       points="80.6,249.9 97.6,258.8 97.6,263.7 80.6,254.6 "
       style="fill:#ffffff"
       transform="translate(58.131428,235.04924)" />
    <polygon
       id="polygon523"
       points="80.6,249.9 97.6,258.8 97.6,263.7 80.6,254.6 "
       style="fill:none;stroke:#141132;stroke-width:0.23999999"
       transform="translate(58.131428,235.04924)" />
    <polyline
       id="polyline525"
       points="324.1,362.5 355.6,338 355.7,353.1 361.9,348.5 361.7,333.3 464.1,253.7 578.6,188.6 578.1,202.9   466.6,270.2 361.9,348.5 355,353.6 324.1,376.8 "
       style="fill:#ffffff"
       transform="translate(58.131428,235.04924)" />
    <g
       id="g527"
       transform="translate(58.131428,235.04924)">
      <defs
         id="defs529">
        <rect
           height="1157.5"
           width="554"
           y="79.099998"
           x="24.700001"
           id="SVGID_29_" />
      </defs>
      <clipPath
         id="clipPath5246">
        <use
           id="use5248"
           overflow="visible"
           xlink:href="#SVGID_29_"
           style="overflow:visible"
           x="0"
           y="0"
           width="100%"
           height="100%" />
      </clipPath>
      <polyline
         id="polyline535"
         points="324.1,362.5 355.6,338    355.7,353.1 361.9,348.5 361.7,333.3 464.1,253.7 578.6,188.6 578.1,202.9 466.6,270.2 361.9,348.5 355,353.6 324.1,376.8  "
         clip-path="url(#SVGID_30_)"
         style="fill:none;stroke:#141132;stroke-width:0.23999999" />
    </g>
    <polygon
       id="polygon537"
       points="409,347.6 367.6,332.2 368.1,343.9 409,358.7 "
       style="fill:#ffffff"
       transform="translate(58.131428,235.04924)" />
    <polygon
       id="polygon539"
       points="409,347.6 367.6,332.2 368.1,343.9 409,358.7 "
       style="fill:none;stroke:#141132;stroke-width:0.23999999"
       transform="translate(58.131428,235.04924)" />
    <polygon
       id="polygon541"
       points="408.9,347.9 408.9,359 359.5,392.7 359.4,379.9 "
       style="fill:#ffffff"
       transform="translate(58.131428,235.04924)" />
    <polygon
       id="polygon543"
       points="408.9,347.9 408.9,359 359.5,392.7 359.4,379.9 "
       style="fill:none;stroke:#141132;stroke-width:0.23999999"
       transform="translate(58.131428,235.04924)" />
    <polygon
       id="polygon545"
       points="248.6,248.4 279,239.4 312.6,268.8 301.7,272.5 "
       style="fill:#ffffff"
       transform="translate(58.131428,235.04924)" />
    <polygon
       id="polygon547"
       points="248.6,248.4 279,239.4 312.6,268.8 301.7,272.5 "
       style="fill:none;stroke:#141132;stroke-width:0.47999999"
       transform="translate(58.131428,235.04924)" />
    <polygon
       id="polygon549"
       points="229.4,207.5 229.4,221.3 420.8,168.9 420.8,154.6 "
       style="fill:#ffffff"
       transform="translate(58.131428,235.04924)" />
    <polygon
       id="polygon551"
       points="229.4,207.5 229.4,221.3 420.8,168.9 420.8,154.6 "
       style="fill:none;stroke:#141132;stroke-width:0.23999999"
       transform="translate(58.131428,235.04924)" />
    <polygon
       id="polygon553"
       points="92.5,241.3 111.4,251 106.8,253.7 86.2,243.5 "
       style="fill:#ffffff"
       transform="translate(58.131428,235.04924)" />
    <polygon
       id="polygon555"
       points="92.5,241.3 111.4,251 106.8,253.7 86.2,243.5 "
       style="fill:none;stroke:#141132;stroke-width:0.23999999"
       transform="translate(58.131428,235.04924)" />
    <polygon
       id="polygon557"
       points="86.3,247.6 102.7,256.5 98.9,259.7 80.6,249.9 "
       style="fill:#ffffff"
       transform="translate(58.131428,235.04924)" />
    <polygon
       id="polygon559"
       points="86.3,247.6 102.7,256.5 98.9,259.7 80.6,249.9 "
       style="fill:none;stroke:#141132;stroke-width:0.23999999"
       transform="translate(58.131428,235.04924)" />
    <polygon
       id="polygon561"
       points="265.1,248.6 269.9,246.6 315.9,267.5 310.5,269.3 "
       style="fill:#ffffff"
       transform="translate(58.131428,235.04924)" />
    <polygon
       id="polygon563"
       points="265.1,248.6 269.9,246.6 315.9,267.5 310.5,269.3 "
       style="fill:none;stroke:#141132;stroke-width:0.47999999"
       transform="translate(58.131428,235.04924)" />
    <polygon
       id="polygon565"
       points="263.1,247.5 257.8,249.2 306.1,270.9 310.8,269.3 "
       style="fill:#ffffff"
       transform="translate(58.131428,235.04924)" />
    <polygon
       id="polygon567"
       points="263.1,247.5 257.8,249.2 306.1,270.9 310.8,269.3 "
       style="fill:none;stroke:#141132;stroke-width:0.47999999"
       transform="translate(58.131428,235.04924)" />
    <polygon
       id="polygon569"
       points="420.6,154.5 420.6,169 492.7,203.7 492.7,188 "
       style="fill:#ffffff"
       transform="translate(58.131428,235.04924)" />
    <polygon
       id="polygon571"
       points="420.6,154.5 420.6,169 492.7,203.7 492.7,188 "
       style="fill:none;stroke:#141132;stroke-width:0.47999999"
       transform="translate(58.131428,235.04924)" />
    <polygon
       id="polygon573"
       points="273,247.5 277.6,244.9 338.5,269.7 329.5,273.2 "
       style="fill:#99ad63"
       transform="translate(58.131428,235.04924)" />
    <polygon
       id="polygon575"
       points="255.8,247.8 250.8,249.4 301.4,272.6 306,270.9 "
       style="fill:#ffffff"
       transform="translate(58.131428,235.04924)" />
    <polygon
       id="polygon577"
       points="255.8,247.8 250.8,249.4 301.4,272.6 306,270.9 "
       style="fill:none;stroke:#141132;stroke-width:0.47999999"
       transform="translate(58.131428,235.04924)" />
    <polygon
       id="polygon579"
       points="123.1,238.7 123.4,249.4 107.8,256.5 96.7,251 "
       style="fill:#ffffff"
       transform="translate(58.131428,235.04924)" />
    <polygon
       id="polygon581"
       points="123.1,238.7 123.4,249.4 107.8,256.5 96.7,251 "
       style="fill:none;stroke:#141132;stroke-width:0.23999999"
       transform="translate(58.131428,235.04924)" />
    <polygon
       id="polygon583"
       points="229.3,207.5 229.3,221.3 363.4,286.6 363.4,272.4 "
       style="fill:#ffffff"
       transform="translate(58.131428,235.04924)" />
    <polygon
       id="polygon585"
       points="229.3,207.5 229.3,221.3 363.4,286.6 363.4,272.4 "
       style="fill:none;stroke:#141132;stroke-width:0.23999999"
       transform="translate(58.131428,235.04924)" />
    <polygon
       id="polygon587"
       points="96.7,251 96.7,265.8 359.3,392.7 359.3,380.1 "
       style="fill:#ffffff"
       transform="translate(58.131428,235.04924)" />
    <polygon
       id="polygon589"
       points="96.7,251 96.7,265.8 359.3,392.7 359.3,380.1 "
       style="fill:none;stroke:#141132;stroke-width:0.23999999"
       transform="translate(58.131428,235.04924)" />
    <polygon
       id="polygon591"
       points="441,146.4 441,159.2 513.7,194.5 513.7,181.3 "
       style="fill:#ffffff"
       transform="translate(58.131428,235.04924)" />
    <polygon
       id="polygon593"
       points="441,146.4 441,159.2 513.7,194.5 513.7,181.3 "
       style="fill:none;stroke:#141132;stroke-width:0.23999999"
       transform="translate(58.131428,235.04924)" />
    <polygon
       id="polygon595"
       points="443.3,124.5 443.3,136.5 535.8,183.3 535.8,170.5 "
       style="fill:#ffffff"
       transform="translate(58.131428,235.04924)" />
    <polygon
       id="polygon597"
       points="443.3,124.5 443.3,136.5 535.8,183.3 535.8,170.5 "
       style="fill:none;stroke:#141132;stroke-width:0.23999999"
       transform="translate(58.131428,235.04924)" />
    <polygon
       id="polygon599"
       points="102.7,190.6 126.3,202.1 126.3,213.8 102.7,200.9 "
       style="fill:#ffffff"
       transform="translate(58.131428,235.04924)" />
    <polygon
       id="polygon601"
       points="102.7,190.6 126.3,202.1 126.3,213.8 102.7,200.9 "
       style="fill:none;stroke:#141132;stroke-width:0.23999999"
       transform="translate(58.131428,235.04924)" />
    <polygon
       id="polygon603"
       points="363.4,272.4 449.8,222.8 493.1,187.9 493.1,204.1 449.8,237.7 363.4,286.6 "
       style="fill:#ffffff"
       transform="translate(58.131428,235.04924)" />
    <polygon
       id="polygon605"
       points="363.4,272.4 449.8,222.8 493.1,187.9 493.1,204.1 449.8,237.7 363.4,286.6 "
       style="fill:none;stroke:#141132;stroke-width:0.23999999"
       transform="translate(58.131428,235.04924)" />
    <polygon
       id="polygon607"
       points="513.7,181.3 535.8,170.5 535.8,183.2 513.7,194.5 "
       style="fill:#ffffff"
       transform="translate(58.131428,235.04924)" />
    <polygon
       id="polygon609"
       points="513.7,181.3 535.8,170.5 535.8,183.2 513.7,194.5 "
       style="fill:none;stroke:#141132;stroke-width:0.23999999"
       transform="translate(58.131428,235.04924)" />
    <polygon
       id="polygon611"
       points="479,164.6 500,152.8 499.6,164.4 489.1,169.8 "
       style="fill:#ffffff"
       transform="translate(58.131428,235.04924)" />
    <polygon
       id="polygon613"
       points="479,164.6 500,152.8 499.6,164.4 489.1,169.8 "
       style="fill:none;stroke:#141132;stroke-width:0.23999999"
       transform="translate(58.131428,235.04924)" />
    <polygon
       id="polygon615"
       points="464.1,135.1 464.1,146.4 452.8,152.1 441,146.4 "
       style="fill:#ffffff"
       transform="translate(58.131428,235.04924)" />
    <polygon
       id="polygon617"
       points="464.1,135.1 464.1,146.4 452.8,152.1 441,146.4 "
       style="fill:none;stroke:#141132;stroke-width:0.23999999"
       transform="translate(58.131428,235.04924)" />
    <polyline
       id="polyline619"
       points="166.3,195.5 86.3,232.4 86.3,221 166.3,183.2 "
       style="fill:#ffffff"
       transform="translate(58.131428,235.04924)" />
    <polyline
       id="polyline621"
       points="166.3,195.5 86.3,232.4 86.3,221 166.3,183.2 "
       style="fill:none;stroke:#141132;stroke-width:0.23999999"
       transform="translate(58.131428,235.04924)" />
    <polygon
       id="polygon623"
       points="73.6,226.6 73.6,238 61.1,243.5 61.1,232.4 "
       style="fill:#ffffff"
       transform="translate(58.131428,235.04924)" />
    <polygon
       id="polygon625"
       points="73.6,226.6 73.6,238 61.1,243.5 61.1,232.4 "
       style="fill:none;stroke:#141132;stroke-width:0.23999999"
       transform="translate(58.131428,235.04924)" />
    <polygon
       id="polygon627"
       points="42.3,217 102.7,190.6 102.7,200.9 42.3,226.6 "
       style="fill:#ffffff"
       transform="translate(58.131428,235.04924)" />
    <polygon
       id="polygon629"
       points="42.3,217 102.7,190.6 102.7,200.9 42.3,226.6 "
       style="fill:none;stroke:#141132;stroke-width:0.23999999"
       transform="translate(58.131428,235.04924)" />
    <polygon
       id="polygon631"
       points="42.3,217 61.1,232.4 61.1,243.5 42.3,228.4 "
       style="fill:#ffffff"
       transform="translate(58.131428,235.04924)" />
    <polygon
       id="polygon633"
       points="42.3,217 61.1,232.4 61.1,243.5 42.3,228.4 "
       style="fill:none;stroke:#141132;stroke-width:0.23999999"
       transform="translate(58.131428,235.04924)" />
    <polygon
       id="polygon635"
       points="253.3,229.8 242.6,232.7 310.4,266.8 322.5,263.1 "
       style="fill:#44265c"
       transform="translate(58.131428,235.04924)" />
    <g
       id="g637"
       transform="translate(58.131428,235.04924)">
      <defs
         id="defs639">
        <rect
           height="1157.5"
           width="554"
           y="79.099998"
           x="24.700001"
           id="SVGID_31_" />
      </defs>
      <clipPath
         id="clipPath5304">
        <use
           id="use5306"
           overflow="visible"
           xlink:href="#SVGID_31_"
           style="overflow:visible"
           x="0"
           y="0"
           width="100%"
           height="100%" />
      </clipPath>
      <path
         id="path645"
         d="m 386.2,269.3 -22.9,11.4 c -13.1,-6.5 -49.4,-21.9 -49.4,-21.9 l -3.6,4.5 44.5,23.2 -28,11.6 8.4,3.3 18.4,-7.7 8.2,3.7 37,-24.2 -12.6,-3.9 z"
         clip-path="url(#SVGID_32_)"
         style="fill:#44265c" />
    </g>
    <polygon
       id="polygon647"
       points="312.8,261.8 356.4,283.8 356.4,288.1 313.1,265.2 "
       style="fill:#ffffff"
       transform="translate(58.131428,235.04924)" />
    <polygon
       id="polygon649"
       points="312.8,261.8 356.4,283.8 356.4,288.1 313.1,265.2 "
       style="fill:none;stroke:#141132;stroke-width:0.47999999"
       transform="translate(58.131428,235.04924)" />
    <polygon
       id="polygon663"
       points="75.1,243.7 72.8,242.2 72.9,250.8 81.3,247.4 79.2,246.1 83.6,239.3 79.6,236.7 "
       style="fill:#f7d786"
       transform="translate(58.131428,235.04924)" />
    <polygon
       id="polygon669"
       points="308.9,264.5 330.6,292.2 333.2,289.5 312.4,262.4 "
       style="fill:#44265c"
       transform="translate(58.131428,235.04924)" />
    <g
       id="g671"
       transform="translate(58.131428,235.04924)">
      <defs
         id="defs673">
        <rect
           height="1157.5"
           width="554"
           y="79.099998"
           x="24.700001"
           id="SVGID_35_" />
      </defs>
      <clipPath
         id="clipPath5327">
        <use
           id="use5329"
           overflow="visible"
           xlink:href="#SVGID_35_"
           style="overflow:visible"
           x="0"
           y="0"
           width="100%"
           height="100%" />
      </clipPath>
      <path
         id="path679"
         d="m 453.4,84.1 0,11.4 -2.3,0 0,-9.5 -1.7,0 0,-1.8 4,0 z m 6,0 0,8.8 -2.3,0 0,-6.9 -1.5,0 0,-1.8 3.8,0 z m 6.3,0 0,3.2 c 0,0.3 0,0.6 0,0.8 0,0.2 0,0.4 0,0.6 0,0.2 0,0.3 -0.1,0.5 0,0.2 -0.1,0.3 -0.1,0.5 l -2.3,-0.3 c 0,-0.2 0.1,-0.3 0.1,-0.5 0,-0.1 0,-0.3 0.1,-0.4 0,-0.2 0,-0.3 0,-0.5 0,-0.2 0,-0.4 0,-0.7 l 0,-1.3 -1.9,0 0,-1.8 4.2,0 z m 4.1,-2.4 0,2.5 4.8,0 c 0,0.1 0.1,0.2 0.1,0.3 0,0.1 0,0.2 0.1,0.3 0,0.1 0,0.3 0.1,0.4 0,0.1 0,0.3 0,0.4 l 0,1.8 c 0,0.7 -0.1,1.3 -0.4,1.9 -0.3,0.6 -0.7,1.2 -1.2,1.8 l -2.2,2.4 -1.6,-1.4 1,-1.1 c 0.4,-0.5 0.7,-0.8 1,-1.1 0.3,-0.3 0.5,-0.6 0.7,-0.8 0.2,-0.2 0.3,-0.5 0.4,-0.7 0.1,-0.2 0.1,-0.5 0.1,-0.8 l 0,-1.6 -5,0 0,-4.3 2.1,0 z m 12,3.9 c 0.1,-0.3 0.2,-0.6 0.3,-0.9 0.1,-0.3 0.2,-0.6 0.3,-0.9 l 3.3,0.9 c 0,0.2 0,0.4 0,0.6 0,0.2 0,0.4 0,0.6 -0.1,0.4 -0.1,0.9 -0.2,1.2 -0.1,0.4 -0.2,0.8 -0.3,1.1 -0.2,0.6 -0.5,1.2 -0.8,1.7 -0.3,0.5 -0.7,1 -1.1,1.3 -0.4,0.4 -0.8,0.7 -1.3,1 -0.5,0.3 -0.9,0.6 -1.4,0.8 -0.5,0.2 -1,0.4 -1.5,0.6 -0.5,0.2 -1.1,0.3 -1.6,0.5 l -0.6,-1.9 c 0.6,-0.2 1.1,-0.3 1.6,-0.5 0.5,-0.2 1,-0.3 1.4,-0.5 -0.3,-0.7 -0.5,-1.5 -0.8,-2.2 -0.3,-0.7 -0.5,-1.4 -0.8,-2.2 -0.1,-0.1 -0.1,-0.3 -0.2,-0.4 0,-0.1 -0.1,-0.2 -0.2,-0.2 -0.1,-0.1 -0.1,-0.1 -0.2,-0.2 -0.1,0 -0.2,-0.1 -0.3,-0.1 l -1,-0.4 c 0.1,-0.3 0.3,-0.6 0.4,-0.9 0.1,-0.3 0.3,-0.6 0.4,-0.9 0.2,0.1 0.4,0.1 0.5,0.2 0.2,0.1 0.4,0.1 0.5,0.2 0.3,0.1 0.5,0.2 0.7,0.3 0.2,0.1 0.4,0.2 0.5,0.4 0.1,0.1 0.3,0.3 0.3,0.4 0.1,0.1 0.2,0.3 0.2,0.5 0.1,0.3 0.2,0.6 0.3,0.8 0.1,0.3 0.2,0.5 0.3,0.9 0.1,0.3 0.2,0.7 0.4,1.1 0.1,0.4 0.3,0.9 0.5,1.5 0.3,-0.3 0.5,-0.5 0.7,-0.8 0.2,-0.3 0.3,-0.5 0.5,-0.8 0.2,-0.4 0.3,-0.8 0.4,-1.2 0.1,-0.4 0.2,-0.9 0.3,-1.3 l -1.5,-0.3 z m 15.9,-1.5 c 0.4,0 0.7,0 1,0.1 0.3,0.1 0.6,0.2 0.9,0.5 0.3,0.2 0.5,0.5 0.6,0.9 0.2,0.4 0.2,0.9 0.3,1.5 0,0.1 0,0.2 0,0.4 0,0.1 0,0.3 0,0.4 0,0.2 0,0.3 0,0.5 0,0.2 0,0.4 0,0.7 0,0.6 -0.1,1.1 -0.3,1.6 -0.2,0.5 -0.5,0.9 -0.8,1.2 -0.4,0.4 -0.8,0.6 -1.3,0.8 -0.5,0.2 -1,0.3 -1.6,0.3 -0.6,0 -1.1,-0.1 -1.6,-0.3 -0.5,-0.2 -0.9,-0.5 -1.2,-0.8 -0.4,-0.4 -0.6,-0.8 -0.8,-1.2 -0.2,-0.5 -0.3,-1 -0.3,-1.6 0,-0.1 0,-0.1 0,-0.2 0,-0.1 0,-0.1 0,-0.2 0,-0.3 0,-0.5 0,-0.8 0,-0.3 0.1,-0.6 0.2,-0.9 0.1,-0.2 0.1,-0.4 0.2,-0.6 0.1,-0.2 0.2,-0.4 0.3,-0.6 -0.2,0 -0.5,-0.1 -0.7,-0.1 -0.2,-0.1 -0.5,-0.1 -0.8,-0.3 0.1,-0.3 0.2,-0.6 0.3,-0.9 0.1,-0.3 0.2,-0.6 0.3,-0.9 0.3,0.1 0.5,0.1 0.7,0.2 0.2,0 0.4,0.1 0.5,0.1 0.2,0 0.4,0 0.5,0.1 0.2,0 0.4,0 0.6,0 l 0.3,0 2.7,0 z m -2.3,1.9 c -0.1,0.2 -0.2,0.3 -0.2,0.4 -0.1,0.1 -0.1,0.3 -0.2,0.4 -0.1,0.3 -0.1,0.6 -0.2,0.9 0,0.3 -0.1,0.6 -0.1,0.9 0,0.2 0,0.3 0,0.5 0,0.2 0,0.3 0,0.4 0,0.3 0.1,0.5 0.2,0.7 0.1,0.2 0.2,0.4 0.4,0.5 0.1,0.2 0.3,0.3 0.5,0.4 0.2,0.1 0.4,0.1 0.6,0.1 0.2,0 0.5,0 0.7,-0.1 0.2,-0.1 0.4,-0.2 0.5,-0.4 0.2,-0.2 0.3,-0.3 0.4,-0.5 0.1,-0.2 0.2,-0.4 0.2,-0.7 0,-0.1 0,-0.3 0,-0.4 0,-0.1 0,-0.3 0,-0.5 0,-0.2 0,-0.4 0,-0.5 0,-0.2 0,-0.3 0,-0.5 0,-0.3 -0.1,-0.6 -0.1,-0.9 0,-0.3 -0.1,-0.4 -0.2,-0.5 -0.1,-0.1 -0.2,-0.2 -0.4,-0.3 -0.2,0 -0.5,-0.1 -0.8,-0.1 l -1.3,0 z m 9.2,-4.3 0,2.5 4.8,0 c 0,0.1 0.1,0.2 0.1,0.3 0,0.1 0,0.2 0.1,0.3 0,0.1 0,0.3 0.1,0.4 0,0.1 0,0.3 0,0.4 l 0,1.8 c 0,0.7 -0.1,1.3 -0.4,1.9 -0.3,0.6 -0.7,1.2 -1.2,1.8 l -2.2,2.4 -1.6,-1.4 1,-1.1 c 0.4,-0.5 0.7,-0.8 1,-1.1 0.3,-0.3 0.5,-0.6 0.7,-0.8 0.2,-0.2 0.3,-0.5 0.4,-0.7 0.1,-0.2 0.1,-0.5 0.1,-0.8 l 0,-1.6 -5,0 0,-4.3 2.1,0 z m 9,1.9 c 0.5,0.1 1,0.2 1.4,0.3 0.4,0.1 0.8,0.2 1.1,0.3 0.3,0.1 0.6,0.2 0.9,0.3 0.3,0.1 0.6,0.2 0.8,0.3 0.3,0.1 0.5,0.2 0.7,0.4 0.2,0.2 0.3,0.3 0.5,0.5 0.1,0.2 0.2,0.4 0.2,0.7 0,0.3 0.1,0.5 0.1,0.8 l 0,3.4 c 0,0.1 0,0.3 0,0.4 0,0.1 0,0.3 0,0.4 0,0.2 -0.1,0.4 -0.1,0.6 -0.1,0.2 -0.1,0.5 -0.2,0.9 l -7.6,0 0,-1.8 5.8,0 0,-3.5 c 0,-0.2 0,-0.4 0,-0.5 0,-0.1 0,-0.3 -0.1,-0.4 -0.1,-0.1 -0.1,-0.2 -0.2,-0.3 -0.1,-0.1 -0.2,-0.1 -0.4,-0.2 -0.2,-0.1 -0.5,-0.2 -0.7,-0.2 -0.3,-0.1 -0.6,-0.2 -0.9,-0.3 l -0.8,1.6 1.1,0.7 -1,1.7 -2.7,-1.6 2.1,-4.5 z m 7.7,1.2 c 0.3,-0.2 0.6,-0.4 0.9,-0.6 0.3,-0.2 0.6,-0.4 0.9,-0.5 0.1,0.2 0.3,0.3 0.3,0.5 0.1,0.1 0.2,0.3 0.3,0.4 0.1,0.1 0.1,0.2 0.2,0.4 0.1,0.1 0.1,0.2 0.2,0.4 0.5,-0.5 1,-0.8 1.5,-1.1 0.5,-0.2 1,-0.3 1.5,-0.3 0.4,0 0.7,0.1 1,0.2 0.3,0.1 0.6,0.3 0.9,0.5 0.3,0.2 0.5,0.5 0.7,0.7 0.2,0.3 0.3,0.6 0.4,1 0.1,0.3 0.1,0.6 0.1,1 0,0.4 0,0.8 0,1.3 0,0.2 0,0.4 0,0.7 0,0.2 0,0.5 0,0.9 0,0.4 0,0.8 0,1.1 0,0.4 0,0.6 0,0.9 0,0.1 0,0.3 0,0.4 0,0.1 0,0.3 -0.1,0.4 l -4.4,0 0,-1.8 2.3,0 c 0,0 0,-0.1 0,-0.2 0,-0.1 0,-0.2 0,-0.4 0,-0.2 0,-0.4 0,-0.7 0,-0.3 0,-0.6 0,-1 0,-0.1 0,-0.3 0,-0.4 0,-0.2 0,-0.3 0,-0.5 0,-0.2 0,-0.4 0,-0.5 0,-0.2 0,-0.3 0,-0.4 -0.1,-0.5 -0.2,-0.8 -0.4,-1 -0.2,-0.2 -0.5,-0.3 -0.9,-0.3 -0.2,0 -0.4,0 -0.6,0.1 -0.2,0.1 -0.4,0.2 -0.7,0.4 -0.1,0.1 -0.3,0.2 -0.4,0.3 -0.1,0.1 -0.2,0.2 -0.4,0.4 -0.1,0.6 -0.2,1.2 -0.2,1.6 -0.1,0.5 -0.1,0.8 -0.2,1.2 -0.1,0.3 -0.1,0.6 -0.1,0.9 0,0.3 -0.1,0.5 -0.1,0.8 0,0.2 -0.1,0.5 -0.1,0.8 0,0.3 -0.1,0.6 -0.1,0.9 l -2.3,0 0.2,-1.5 c 0.1,-0.4 0.1,-0.7 0.2,-1 0.1,-0.3 0.1,-0.6 0.2,-1 0.1,-0.3 0.1,-0.6 0.2,-1 0.1,-0.3 0.1,-0.7 0.2,-1 0,-0.1 0,-0.2 0,-0.3 0,-0.1 0,-0.2 0,-0.2 0,-0.2 0,-0.3 0,-0.4 0,-0.1 -0.1,-0.2 -0.1,-0.4 0,-0.1 -0.1,-0.2 -0.2,-0.4 -0.1,-0.1 -0.1,-0.3 -0.2,-0.4 l -0.7,-0.9 z"
         clip-path="url(#SVGID_36_)"
         style="fill:#141132" />
    </g>
    <path
       id="path681"
       d="m 535.03143,339.74924 0,2.1 c 0,0.2 0,0.4 0,0.6 0,0.2 0,0.3 0,0.4 0,0.1 0,0.3 -0.1,0.4 0,0.1 -0.1,0.3 -0.1,0.4 l -1.1,-0.2 c 0,-0.1 0,-0.3 0.1,-0.4 0,-0.1 0,-0.2 0,-0.3 0,-0.1 0,-0.3 0,-0.4 0,-0.2 0,-0.3 0,-0.6 l 0,-1.1 -1.5,0 0,-1 2.7,0 z m 2.2,3.2 c 0,-0.4 -0.1,-0.8 -0.1,-1 0,-0.3 0,-0.5 -0.1,-0.7 0,-0.2 -0.1,-0.4 -0.1,-0.6 0,-0.2 -0.1,-0.4 -0.2,-0.6 0.2,-0.1 0.3,-0.2 0.5,-0.2 0.2,-0.1 0.3,-0.1 0.5,-0.2 0.1,0.2 0.2,0.3 0.2,0.5 0.1,0.1 0.1,0.3 0.1,0.5 0,0.2 0.1,0.4 0.1,0.6 0,0.2 0,0.5 0.1,0.8 l 0.3,3.7 c 0.2,0 0.3,0 0.5,0 0.7,0 1.4,-0.1 1.9,-0.3 0.6,-0.2 1,-0.5 1.4,-1 0.4,-0.4 0.6,-0.9 0.8,-1.5 0.2,-0.6 0.3,-1.2 0.3,-1.9 0,-0.2 0,-0.4 0,-0.6 0,-0.2 0,-0.4 -0.1,-0.6 0.2,0 0.4,-0.1 0.5,-0.1 0.2,0 0.4,-0.1 0.6,-0.1 0,0.2 0.1,0.4 0.1,0.6 0,0.2 0,0.4 0,0.6 0,1 -0.1,1.8 -0.4,2.5 -0.3,0.7 -0.6,1.3 -1.1,1.8 -0.5,0.5 -1.1,0.9 -1.8,1.1 -0.7,0.2 -1.5,0.4 -2.4,0.4 -0.2,0 -0.4,0 -0.7,0 -0.2,0 -0.4,0 -0.7,-0.1 l -0.2,-3.6 z m 4,-3.4 c 0.1,0.2 0.1,0.4 0.1,0.6 0,0.1 0,0.3 0,0.4 0,0.1 0,0.3 -0.1,0.4 -0.1,0.2 -0.1,0.4 -0.2,0.7 -0.1,0.2 -0.2,0.4 -0.3,0.7 l -0.7,1.6 -1,-0.4 0.7,-1.6 c 0.1,-0.3 0.2,-0.5 0.3,-0.7 0.1,-0.2 0.1,-0.3 0.2,-0.5 0,-0.1 0,-0.3 0,-0.4 0,-0.1 0,-0.3 0,-0.5 l 1,-0.3 z m 4.9,7.1 c 0,-0.1 0,-0.3 0,-0.4 0,-0.2 0,-0.3 0,-0.5 0,-0.2 0,-0.4 0,-0.6 0,-0.2 0,-0.4 0,-0.6 0,-0.3 0,-0.6 0.1,-0.9 0,-0.3 0.1,-0.5 0.2,-0.7 0.1,-0.2 0.2,-0.4 0.3,-0.6 0.1,-0.2 0.2,-0.4 0.4,-0.5 -0.2,-0.2 -0.3,-0.4 -0.4,-0.6 -0.1,-0.2 -0.2,-0.3 -0.3,-0.5 -0.1,-0.2 -0.1,-0.3 -0.2,-0.5 0,-0.2 -0.1,-0.3 -0.1,-0.4 0.2,-0.1 0.3,-0.1 0.5,-0.2 0.2,-0.1 0.4,-0.1 0.6,-0.2 0,0.1 0,0.1 0,0.2 0,0.1 0,0.1 0,0.2 0,0.1 0.1,0.3 0.1,0.4 0.1,0.1 0.1,0.3 0.2,0.5 0.1,0.2 0.2,0.4 0.3,0.6 0.1,0.2 0.3,0.4 0.5,0.7 0.1,0.1 0.1,0.2 0.2,0.3 0.1,0.1 0.1,0.2 0.2,0.3 0.1,0.1 0.2,0.2 0.3,0.4 0.1,0.2 0.3,0.4 0.5,0.6 l 0,0 c 0.2,-0.1 0.3,-0.2 0.4,-0.4 0.1,-0.1 0.2,-0.3 0.3,-0.4 0.1,-0.1 0.1,-0.3 0.2,-0.5 0.1,-0.2 0.1,-0.3 0.2,-0.5 0,-0.2 0.1,-0.3 0.1,-0.5 0,-0.2 0.1,-0.3 0.1,-0.5 l -1,-0.2 0.2,-0.9 1.8,0.3 0,0.8 c 0,0.2 -0.1,0.4 -0.2,0.7 -0.1,0.2 -0.1,0.5 -0.2,0.7 -0.1,0.3 -0.2,0.5 -0.2,0.7 -0.1,0.2 -0.2,0.4 -0.3,0.5 -0.1,0.2 -0.2,0.3 -0.3,0.5 -0.1,0.1 -0.3,0.3 -0.5,0.4 l 1.6,1.8 -0.8,0.7 -3.5,-4 c -0.1,0.2 -0.2,0.4 -0.3,0.6 -0.1,0.2 -0.1,0.4 -0.1,0.7 0,0.2 0,0.5 0,0.8 0,0.3 0,0.5 0,0.8 0,0.1 0,0.3 0,0.5 0,0.2 0,0.4 0,0.6 l -0.9,0 z m 9.4,-5.9 c -0.2,0 -0.4,0 -0.5,0 -0.2,0 -0.3,0 -0.4,0 -0.1,0 -0.3,0 -0.4,-0.1 -0.1,0 -0.3,-0.1 -0.5,-0.2 0.1,-0.2 0.1,-0.3 0.2,-0.5 0.1,-0.2 0.1,-0.3 0.2,-0.5 0.2,0.1 0.3,0.1 0.5,0.1 0.1,0 0.3,0.1 0.4,0.1 0.1,0 0.3,0 0.4,0 0.1,0 0.3,0 0.5,0 l 0.6,0 c 0.3,0 0.5,0 0.8,0.1 0.3,0.1 0.5,0.2 0.7,0.3 0.2,0.2 0.4,0.4 0.5,0.7 0.1,0.3 0.2,0.7 0.2,1.2 l 0,4.5 -1.1,0 0,-4.4 c 0,-0.3 0,-0.5 -0.1,-0.7 0,-0.2 -0.1,-0.3 -0.2,-0.4 -0.1,-0.1 -0.2,-0.2 -0.4,-0.2 -0.2,0 -0.4,-0.1 -0.6,-0.1 l -0.8,0 z m 8.9,2.2 c 0,-0.2 0,-0.4 0,-0.6 0,-0.2 0,-0.4 0,-0.5 0,-0.1 0.1,-0.3 0.1,-0.5 0,-0.2 0.1,-0.4 0.2,-0.6 -0.1,0 -0.3,0 -0.4,-0.1 -0.1,0 -0.3,-0.1 -0.5,-0.2 0.1,-0.2 0.1,-0.3 0.2,-0.5 0.1,-0.2 0.1,-0.3 0.2,-0.5 0.2,0.1 0.3,0.1 0.5,0.1 0.1,0 0.3,0.1 0.4,0.1 0.1,0 0.3,0 0.4,0 0.1,0 0.3,0 0.5,0 l 1.8,0 c 0.3,0 0.5,0 0.8,0.1 0.3,0.1 0.5,0.2 0.7,0.3 0.2,0.2 0.4,0.4 0.5,0.7 0.1,0.3 0.2,0.7 0.2,1.1 l 0,4.5 -5.6,0 0,-3.4 z m 4.5,-0.8 c 0,-0.3 0,-0.5 -0.1,-0.7 0,-0.2 -0.1,-0.3 -0.2,-0.4 -0.1,-0.1 -0.2,-0.2 -0.4,-0.2 -0.2,0 -0.4,-0.1 -0.6,-0.1 l -1.7,0 c -0.1,0.2 -0.2,0.4 -0.2,0.5 0,0.2 -0.1,0.4 -0.1,0.5 0,0.2 0,0.3 0,0.5 0,0.2 0,0.3 0,0.5 l 0,2.7 3.4,0 0,-3.3 z m 3.8,-4.3 0,1.9 3.8,0 c 0,0.1 0.1,0.3 0.1,0.4 0,0.1 0,0.2 0.1,0.3 0,0.1 0,0.2 0,0.2 0,0.1 0,0.1 0,0.2 l 0,1.4 c 0,0.5 -0.1,1 -0.3,1.5 -0.2,0.5 -0.5,0.9 -0.9,1.4 l -1.6,1.8 -0.8,-0.7 1.5,-1.7 c 0.1,-0.2 0.3,-0.3 0.4,-0.5 0.1,-0.2 0.2,-0.3 0.3,-0.5 0.1,-0.2 0.2,-0.4 0.2,-0.5 0.1,-0.2 0.1,-0.4 0.1,-0.6 l 0,-1.5 -4,0 0,-2.9 1.1,0 z m 7.8,1.9 0,6.8 -1.1,0 0,-5.8 -1.1,0 0,-1 2.2,0 z m 1.9,6.9 c 0,-0.1 0,-0.3 0,-0.4 0,-0.2 0,-0.3 0,-0.5 0,-0.2 0,-0.4 0,-0.6 0,-0.2 0,-0.4 0,-0.6 0,-0.3 0,-0.6 0.1,-0.9 0,-0.3 0.1,-0.5 0.2,-0.7 0.1,-0.2 0.2,-0.4 0.3,-0.6 0.1,-0.2 0.2,-0.4 0.4,-0.5 -0.2,-0.2 -0.3,-0.4 -0.4,-0.6 -0.1,-0.2 -0.2,-0.3 -0.3,-0.5 -0.1,-0.2 -0.1,-0.3 -0.2,-0.5 0,-0.2 -0.1,-0.3 -0.1,-0.4 0.2,-0.1 0.3,-0.1 0.5,-0.2 0.2,-0.1 0.4,-0.1 0.6,-0.2 0,0.1 0,0.1 0,0.2 0,0.1 0,0.1 0,0.2 0,0.1 0.1,0.3 0.1,0.4 0.1,0.1 0.1,0.3 0.2,0.5 0.1,0.2 0.2,0.4 0.3,0.6 0.1,0.2 0.3,0.4 0.5,0.7 0.1,0.1 0.1,0.2 0.2,0.3 0.1,0.1 0.1,0.2 0.2,0.3 0.1,0.1 0.2,0.2 0.3,0.4 0.1,0.2 0.3,0.4 0.5,0.6 l 0,0 c 0.2,-0.1 0.3,-0.2 0.4,-0.4 0.1,-0.1 0.2,-0.3 0.3,-0.4 0.1,-0.1 0.1,-0.3 0.2,-0.5 0.1,-0.2 0.1,-0.3 0.2,-0.5 0,-0.2 0.1,-0.3 0.1,-0.5 0,-0.2 0.1,-0.3 0.1,-0.5 l -1,-0.2 0.2,-0.9 1.8,0.3 0,0.8 c 0,0.2 -0.1,0.4 -0.2,0.7 -0.1,0.2 -0.1,0.5 -0.2,0.7 -0.1,0.3 -0.2,0.5 -0.2,0.7 -0.1,0.2 -0.2,0.4 -0.3,0.5 -0.1,0.2 -0.2,0.3 -0.3,0.5 -0.1,0.1 -0.3,0.3 -0.5,0.4 l 1.6,1.8 -0.8,0.7 -3.5,-4 c -0.1,0.2 -0.2,0.4 -0.3,0.6 -0.1,0.2 -0.1,0.4 -0.1,0.7 0,0.3 0,0.5 0,0.8 0,0.3 0,0.5 0,0.8 0,0.1 0,0.3 0,0.5 0,0.2 0,0.4 0,0.6 l -0.9,0 z"
       style="fill:#141132" />
    <polygon
       id="polygon683"
       points="242.3,230.3 242.3,232.6 253.4,229.7 253.4,227.3 "
       style="fill:#ffffff"
       transform="translate(58.131428,235.04924)" />
    <polygon
       id="polygon685"
       points="242.3,230.3 242.3,232.6 253.4,229.7 253.4,227.3 "
       style="fill:none;stroke:#000000;stroke-width:0.23999999"
       transform="translate(58.131428,235.04924)" />
    <polygon
       id="polygon687"
       points="242.3,230.7 242.3,233.1 244.7,234.7 244.7,232.2 "
       style="fill:#ffffff"
       transform="translate(58.131428,235.04924)" />
    <polygon
       id="polygon689"
       points="242.3,230.7 242.3,233.1 244.7,234.7 244.7,232.2 "
       style="fill:none;stroke:#000000;stroke-width:0.23999999"
       transform="translate(58.131428,235.04924)" />
    <polygon
       id="polygon691"
       points="203.3,235.1 203.3,237.4 245,234.6 245,232.2 "
       style="fill:#ffffff"
       transform="translate(58.131428,235.04924)" />
    <polygon
       id="polygon693"
       points="203.3,235.1 203.3,237.4 245,234.6 245,232.2 "
       style="fill:none;stroke:#000000;stroke-width:0.23999999"
       transform="translate(58.131428,235.04924)" />
    <polygon
       id="polygon695"
       points="330.7,292.2 330.4,288.5 310.8,264.5 245,233.7 245,233.6 203.3,236.6 203.3,238.9 245,236 310.1,266.8 "
       style="fill:#ffffff"
       transform="translate(58.131428,235.04924)" />
    <polygon
       id="polygon697"
       points="330.7,292.2 330.4,288.5 310.8,264.5 245,233.7 245,233.6 203.3,236.6 203.3,238.9 245,236 310.1,266.8 "
       style="fill:none;stroke:#141132;stroke-width:0.23999999"
       transform="translate(58.131428,235.04924)" />
    <polygon
       id="polygon699"
       points="336.7,301.1 336.5,324 328.5,328.4 328.5,304.9 "
       style="fill:#ffffff"
       transform="translate(58.131428,235.04924)" />
    <polyline
       id="polyline701"
       points="336.7,301.1 336.5,324 328.5,328.4 328.5,304.9 336.7,301.1 "
       style="fill:none;stroke:#141132;stroke-width:0.47999999"
       transform="translate(58.131428,235.04924)" />
    <polygon
       id="polygon703"
       points="312.7,261.7 313.2,265.1 333.1,289.3 333.2,286.2 "
       style="fill:#ffffff"
       transform="translate(58.131428,235.04924)" />
    <polygon
       id="polygon705"
       points="312.7,261.7 313.2,265.1 333.1,289.3 333.2,286.2 "
       style="fill:none;stroke:#141132;stroke-width:0.23999999"
       transform="translate(58.131428,235.04924)" />
    <polygon
       id="polygon707"
       points="316.9,322.4 328.5,328.4 328.5,304.8 316.9,300.1 "
       style="fill:#ffffff"
       transform="translate(58.131428,235.04924)" />
    <polygon
       id="polygon709"
       points="316.9,322.4 328.5,328.4 328.5,304.8 316.9,300.1 "
       style="fill:none;stroke:#141132;stroke-width:0.47999999"
       transform="translate(58.131428,235.04924)" />
    <polygon
       id="polygon711"
       points="325.4,296.7 336.6,301.1 328.7,304.9 316.9,300.1 "
       style="fill:#ffffff"
       transform="translate(58.131428,235.04924)" />
    <polygon
       id="polygon713"
       points="325.4,296.7 336.6,301.1 328.7,304.9 316.9,300.1 "
       style="fill:none;stroke:#141132;stroke-width:0.47999999"
       transform="translate(58.131428,235.04924)" />
    <polygon
       id="polygon821"
       points="166.3,183.2 166.3,195.5 205,214.4 205,202.1 "
       style="fill:#ffffff"
       transform="translate(58.131428,235.04924)" />
    <polygon
       id="polygon823"
       points="166.3,183.2 166.3,195.5 205,214.4 205,202.1 "
       style="fill:none;stroke:#141132;stroke-width:0.23999999"
       transform="translate(58.131428,235.04924)" />
    <path
       id="path825"
       d="m 296.93143,426.64924 -6.4,1.8 -27.4,8.8 0,12.1 27.7,-8.4 6.1,-1.8 0,-12.5 z m 17,7.5 78.7,-22.8 0,-11.4 -78.7,21.9 0,12.3 z m 187.5,-62.5 0,-12 -84.8,33.6 -8.3,2.3 0,11.3 7.8,-2.2 85.3,-33 z m 0,-12.1 0,0 0.3,0 -0.3,0 z"
       style="fill:#ffffff" />
    <path
       id="path827"
       d="m 296.93143,426.64924 -6.4,1.8 -27.4,8.8 0,12.1 27.7,-8.4 6.1,-1.8 0,-12.5 z m 17,7.5 78.7,-22.8 0,-11.4 -78.7,21.9 0,12.3 z m 187.5,-62.5 0,-12 -84.8,33.6 -8.3,2.3 0,11.3 7.8,-2.2 85.3,-33 z m 0,-12.1 0,0 0.3,0 -0.3,0 z"
       style="fill:none;stroke:#141132;stroke-width:0.23999999" />
    <rect
       id="rect849"
       height="8.8999996"
       width="50.5"
       y="461.54926"
       x="101.23143"
       style="fill:#141132" />
    <path
       id="path851"
       d="m 106.73143,463.84924 c 0.2,0 0.4,0 0.5,0.1 0.2,0 0.3,0.1 0.5,0.2 0.1,0.1 0.2,0.3 0.3,0.4 0.1,0.2 0.1,0.4 0.1,0.7 l 0,2.9 -4,0 0,-2.4 c 0,-0.2 0,-0.4 0,-0.5 0,-0.2 0.1,-0.4 0.1,-0.6 -0.1,0 -0.2,0 -0.3,-0.1 -0.1,0 -0.2,-0.1 -0.4,-0.1 0,-0.2 0.1,-0.3 0.1,-0.4 0,-0.1 0.1,-0.3 0.1,-0.4 0.1,0 0.3,0.1 0.4,0.1 0.1,0 0.2,0 0.3,0.1 0.1,0 0.2,0 0.3,0 0.1,0 0.2,0 0.4,0 l 1.6,0 z m 0.3,3.5 0,-1.7 c 0,-0.2 0,-0.3 0,-0.4 0,-0.1 0,-0.2 -0.1,-0.3 -0.1,-0.1 -0.1,-0.1 -0.2,-0.1 -0.1,0 -0.2,0 -0.4,0 l -0.9,0 c 0,0.2 -0.1,0.4 -0.1,0.5 0,0.2 0,0.3 0,0.5 l 0,1.5 1.7,0 z m 4.2,-3.5 0,1.6 c 0,0.2 0,0.3 0,0.4 0,0.1 0,0.2 0,0.3 0,0.1 0,0.2 0,0.2 0,0.1 0,0.2 -0.1,0.3 l -1.1,-0.2 c 0,-0.1 0,-0.2 0,-0.2 0,-0.1 0,-0.1 0,-0.2 0,-0.1 0,-0.2 0,-0.3 0,-0.1 0,-0.2 0,-0.4 l 0,-0.6 -1,0 0,-0.9 2.2,0 z m 3.1,0 0,1.6 c 0,0.2 0,0.3 0,0.4 0,0.1 0,0.2 0,0.3 0,0.1 0,0.2 0,0.2 0,0.1 0,0.2 -0.1,0.3 l -1.1,-0.2 c 0,-0.1 0,-0.2 0,-0.2 0,-0.1 0,-0.1 0,-0.2 0,-0.1 0,-0.2 0,-0.3 0,-0.1 0,-0.2 0,-0.4 l 0,-0.6 -1,0 0,-0.9 2.2,0 z m 3.4,0 0,0.6 c 0,0.1 0,0.1 0,0.2 0,0.1 0,0.1 0,0.2 0,0.1 0,0.2 0,0.3 0,0.1 0,0.3 0.1,0.5 0,0.2 0,0.4 0.1,0.7 0,0.3 0.1,0.6 0.1,0.9 0,0 0,0.1 0,0.1 0,0 0,0.1 0,0.1 0,0.1 0,0.1 0,0.2 0,0.1 0,0.1 0,0.2 0,0.1 0,0.1 0,0.2 0,0.1 0,0.1 0,0.2 l -2.9,0 0,-0.9 1.8,0 c 0,-0.1 0,-0.2 0,-0.3 0,-0.1 0,-0.3 -0.1,-0.5 0,-0.2 0,-0.4 -0.1,-0.5 0,-0.2 0,-0.4 -0.1,-0.5 0,-0.2 0,-0.3 -0.1,-0.4 -0.1,-0.1 0,-0.2 0,-0.3 l -1.1,0 0,-0.9 2.3,0 z m 3.3,0 0,1.6 c 0,0.2 0,0.3 0,0.4 0,0.1 0,0.2 0,0.3 0,0.1 0,0.2 0,0.2 0,0.1 0,0.2 -0.1,0.3 l -1.1,-0.2 c 0,-0.1 0,-0.2 0,-0.2 0,-0.1 0,-0.1 0,-0.2 0,-0.1 0,-0.2 0,-0.3 0,-0.1 0,-0.2 0,-0.4 l 0,-0.6 -1,0 0,-0.9 2.2,0 z m 3.3,1.8 c 0,-0.2 0,-0.3 0,-0.4 0,-0.1 0,-0.2 -0.1,-0.3 -0.1,-0.1 -0.1,-0.1 -0.2,-0.1 -0.1,0 -0.2,0 -0.4,0 -0.1,0 -0.3,0 -0.4,0 -0.1,0 -0.2,0 -0.3,0 -0.1,0 -0.2,0 -0.3,-0.1 -0.1,0 -0.2,-0.1 -0.4,-0.1 0,-0.2 0.1,-0.3 0.1,-0.4 0,-0.1 0.1,-0.3 0.1,-0.4 0.1,0 0.3,0.1 0.4,0.1 0.1,0 0.2,0 0.3,0.1 0.1,0 0.2,0 0.3,0 0.1,0 0.2,0 0.4,0 l 0.2,0 c 0.2,0 0.4,0 0.5,0.1 0.2,0 0.3,0.1 0.5,0.2 0.1,0.1 0.2,0.3 0.3,0.4 0.1,0.2 0.1,0.4 0.1,0.7 l 0,2 0.8,0 0,0.9 -4.4,0 0,-0.9 2.4,0 0,-1.8 z m 8,-1.8 c 0.2,0 0.4,0 0.5,0.1 0.2,0 0.3,0.1 0.5,0.2 0.1,0.1 0.2,0.3 0.3,0.4 0.1,0.2 0.1,0.4 0.1,0.7 l 0,2.9 -1.2,0 0,-2.6 c 0,-0.2 0,-0.3 0,-0.4 0,-0.1 0,-0.2 -0.1,-0.3 -0.1,-0.1 -0.1,-0.1 -0.2,-0.1 -0.1,0 -0.2,0 -0.4,0 l -0.6,0 c -0.1,0.2 -0.2,0.4 -0.2,0.6 0,0.2 -0.1,0.4 -0.1,0.7 0,0.1 0,0.2 0,0.3 0,0.1 0,0.2 0,0.3 0,0.1 0,0.2 0.1,0.3 0,0.1 0.1,0.2 0.1,0.3 l 0.1,0.2 c 0,0.1 0,0.2 0,0.3 0,0.1 0,0.2 -0.1,0.3 l -2,0 0,-0.9 1,0 c -0.1,-0.2 -0.1,-0.4 -0.2,-0.6 0,-0.2 -0.1,-0.4 -0.1,-0.6 0,-0.2 0,-0.3 0,-0.5 0,-0.2 0.1,-0.3 0.1,-0.5 0,-0.1 0,-0.1 0.1,-0.2 0,-0.1 0.1,-0.1 0.1,-0.2 -0.1,0 -0.2,0 -0.4,-0.1 -0.1,0 -0.3,-0.1 -0.4,-0.1 0,-0.2 0.1,-0.3 0.1,-0.4 0,-0.1 0.1,-0.3 0.1,-0.4 0.1,0 0.3,0.1 0.4,0.1 0.1,0 0.2,0 0.3,0.1 0.1,0 0.2,0 0.3,0 0.1,0 0.2,0 0.4,0 l 1.4,0 z m 2.5,0.3 c 0.1,-0.1 0.3,-0.2 0.4,-0.3 0.1,-0.1 0.3,-0.2 0.5,-0.3 0.1,0.1 0.1,0.2 0.2,0.2 0,0.1 0.1,0.1 0.1,0.2 0,0.1 0.1,0.1 0.1,0.2 0,0.1 0.1,0.1 0.1,0.2 0.2,-0.2 0.5,-0.4 0.7,-0.5 0.3,-0.1 0.5,-0.2 0.8,-0.2 0.2,0 0.3,0 0.5,0.1 0.2,0.1 0.3,0.1 0.4,0.2 0.1,0.1 0.2,0.2 0.3,0.4 0.1,0.1 0.2,0.3 0.2,0.5 0,0.2 0,0.3 0.1,0.5 0,0.2 0,0.4 0,0.6 0,0.1 0,0.2 0,0.3 0,0.1 0,0.3 0,0.4 0,0.2 0,0.4 0,0.6 0,0.2 0,0.3 0,0.4 0,0.1 0,0.1 0,0.2 0,0.1 0,0.1 0,0.2 l -2.2,0 0,-0.9 1.1,0 c 0,0 0,0 0,-0.1 0,0 0,-0.1 0,-0.2 0,-0.1 0,-0.2 0,-0.3 0,-0.1 0,-0.3 0,-0.5 0,-0.1 0,-0.1 0,-0.2 0,-0.1 0,-0.2 0,-0.3 0,-0.1 0,-0.2 0,-0.3 0,-0.1 0,-0.1 0,-0.2 0,-0.2 -0.1,-0.4 -0.2,-0.5 -0.1,-0.1 -0.3,-0.1 -0.4,-0.1 -0.1,0 -0.2,0 -0.3,0.1 -0.1,0 -0.2,0.1 -0.3,0.2 -0.1,0 -0.1,0.1 -0.2,0.1 -0.1,0.1 -0.1,0.1 -0.2,0.2 0,0.3 -0.1,0.6 -0.1,0.8 0,0.2 -0.1,0.4 -0.1,0.6 0,0.2 0,0.3 -0.1,0.4 0,0.1 0,0.3 -0.1,0.4 0,0.1 0,0.2 -0.1,0.4 0,0.1 0,0.3 -0.1,0.5 l -1.1,0 0.1,-0.7 c 0,-0.2 0.1,-0.4 0.1,-0.5 0,-0.2 0.1,-0.3 0.1,-0.5 0,-0.2 0.1,-0.3 0.1,-0.5 0,-0.2 0.1,-0.3 0.1,-0.5 0,-0.1 0,-0.1 0,-0.1 0,0 0,-0.1 0,-0.1 0,-0.1 0,-0.1 0,-0.2 0,-0.1 0,-0.1 -0.1,-0.2 0,-0.1 0,-0.1 -0.1,-0.2 0,-0.1 -0.1,-0.1 -0.1,-0.2 l -0.2,-0.3 z m 7.3,-0.3 0,4.4 -1.2,0 0,-3.5 -0.7,0 0,-0.9 1.9,0 z m 2.5,0.9 c -0.1,0 -0.3,0 -0.4,0 -0.1,0 -0.2,0 -0.3,0 -0.1,0 -0.2,0 -0.3,-0.1 -0.1,0 -0.2,-0.1 -0.4,-0.1 0,-0.2 0.1,-0.3 0.1,-0.4 0,-0.1 0.1,-0.3 0.1,-0.4 0.1,0 0.2,0.1 0.3,0.1 0.1,0 0.2,0 0.3,0.1 0.1,0 0.2,0 0.3,0 0.1,0 0.2,0 0.3,0 l 0.1,0 2.5,0 c 0,0.1 0,0.1 0,0.1 0,0 0,0.1 0,0.1 0,0.1 0,0.1 0,0.2 0,0.1 0,0.1 0,0.2 l 0,0.9 c 0,0.2 0,0.3 0,0.4 0,0.1 0,0.3 -0.1,0.4 0,0.1 -0.1,0.2 -0.1,0.3 -0.1,0.1 -0.1,0.2 -0.2,0.3 -0.1,0.1 -0.2,0.2 -0.3,0.4 -0.1,0.1 -0.2,0.3 -0.3,0.4 -0.1,0.1 -0.2,0.3 -0.4,0.4 -0.1,0.1 -0.2,0.3 -0.3,0.4 l -0.8,-0.7 0.6,-0.6 c 0.1,-0.2 0.3,-0.3 0.4,-0.4 0.1,-0.1 0.2,-0.2 0.2,-0.3 0.1,-0.1 0.1,-0.2 0.1,-0.2 0,-0.1 0.1,-0.1 0.1,-0.2 0,-0.1 0,-0.1 0,-0.2 0,-0.1 0,-0.2 0,-0.3 l 0,-0.8 -1.5,0 z m -1.3,2.2 c 0,-0.1 0,-0.2 0,-0.3 0,-0.1 0,-0.2 0,-0.3 0,-0.1 0,-0.2 0,-0.3 0,-0.1 0,-0.2 0.1,-0.3 0.2,0 0.4,0 0.6,0.1 0.2,0 0.4,0.1 0.6,0.1 0,0.2 -0.1,0.3 -0.1,0.5 0,0.2 0,0.3 0,0.6 l 0,2.6 -1.2,0 0,-2.7 z"
       style="fill:#f7d786" />
  </g>
</svg>
