<svg width="152.4" height="144.2" viewBox="0 0 40.322 38.152" xmlns="http://www.w3.org/2000/svg">
    <path d="M784.7 477.1c0 12.7-23.2 47.6-23.2 47.6s-23.2-34.9-23.2-47.6c0-12.7 10.4-23.2 23.2-23.2 12.9.3 23.2 10.4 23.2 23.2" style="fill:#a22442" transform="translate(-181.317 -100.673) scale(.26458)"/>
    <path d="M761.6 488.8c-6.5 0-11.9-5.3-11.9-11.9 0-6.5 5.3-11.9 11.9-11.9 6.6 0 11.9 5.3 11.9 11.9 0 6.6-5.4 11.9-11.9 11.9m0-26.3c-8 0-14.5 6.5-14.5 14.5s6.5 14.5 14.5 14.5 14.5-6.5 14.5-14.5-6.5-14.5-14.5-14.5m0 12.7c-.8 0-1.8.8-1.8 1.8v5.3c0 .8.8 1.8 1.8 1.8.8 0 1.8-.8 1.8-1.8V477c0-.9-.9-1.8-1.8-1.8m0-5.5c-.8 0-1.8.8-1.8 1.8 0 .8.8 1.8 1.8 1.8.8 0 1.8-.8 1.8-1.8s-.9-1.8-1.8-1.8" style="fill:#ffc;enable-background:new" transform="translate(-181.317 -100.673) scale(.26458)"/>
    <path style="fill:#a22442" d="M1535.4 719.3h112v38.5h-112z" transform="translate(-400.812 -190.312) scale(.26458)"/>
    <path style="fill:#a22442" d="M1516.8 748.4h150.5v38.5h-150.5z" transform="translate(-400.812 -190.312) scale(.26458)"/>
    <path d="M1551.6 731.7h-1.4v-3.3h5.5v21h-4.2v-17.7zm9.4 0h-2.4v-3.3h6.6v8.9h-4.2zm20.8-3.3v8.9c0 1.5-.3 2.8-1 3.9-.6 1.1-1.5 1.9-2.7 2.4-1.2.5-2.5.8-4 .8-2.1 0-4.2-.4-6.2-1.2l.9-3.1c1.2.5 2.4.8 3.5 1-.3-.3-.6-.6-.8-1-.2-.4-.4-.8-.5-1.2l-2.4-10.5h4.2l2.3 11c.1.6.3 1.1.5 1.5.6-.3 1.1-.7 1.5-1.3.4-.6.5-1.2.5-2.1v-9.1zm5.2 3.3h-2.4v-3.3h6.6v8.9h-4.2zm20.5-3.3v3.3h-2.8V744h-4.2v-12.3h-6.5v-3.3zm3.1 3.3h-1.3v-3.3h5.6V744h-4.2v-12.3zm9.3 3.7c.1-.7.2-1.4.5-2 .3-.6.6-1.1.9-1.5l.2-.2v-.1c-.3.1-.7.2-1.2.3-.5.1-.9.3-1.2.4l-.9-3.1c1-.4 2.2-.7 3.5-.9 1.4-.2 2.6-.3 3.9-.3 2.4 0 4.2.6 5.5 1.8 1.2 1.2 1.9 3 1.9 5.4v8.8h-6.9v-3.3h2.6v-6.1c0-1-.2-1.8-.6-2.4-.4-.6-1-.8-1.7-.8-1.4 0-2.2 1.1-2.4 3.3l-.9 9.2h-4.2zm-93 28.2h-2.4v-3.3h6.6v8.9h-4.2zm8.4-5.9c.5-.9 1-1.6 1.7-2.2l1.8 1c-.4.6-.6 1.2-.8 1.8-.2.6-.3 1.3-.3 2v2.1h-3.1v-2.1c0-.8.2-1.7.7-2.6zm4.5 0c.5-.9 1-1.6 1.7-2.2l1.8 1c-.4.6-.6 1.2-.8 1.8-.2.6-.3 1.3-.3 2v2.1h-3.1v-2.1c0-.8.2-1.7.7-2.6zm16.7 11.7 4.5 6.5h-4.7l-5.7-8.2c-.2.3-.4.8-.4 1.3v7h-4.1v-5.1c0-1.4.2-2.6.7-3.5.4-.9 1.2-1.5 2.1-2l-3.4-5h4.7l3.7 5.3 2.5-5.3h4.7zm8.6-2.1c.1-.7.2-1.4.5-2 .3-.6.6-1.1.9-1.5l.2-.2v-.1c-.3.1-.7.2-1.2.3-.5.1-.9.3-1.2.4l-.9-3.1c1-.4 2.2-.7 3.5-.9 1.4-.2 2.6-.3 3.9-.3 2.4 0 4.2.6 5.5 1.8 1.2 1.2 1.9 3 1.9 5.4v8.8h-6.9v-3.3h2.6v-6.1c0-1-.2-1.8-.6-2.4-.4-.6-1-.8-1.7-.8-1.4 0-2.2 1.1-2.4 3.3l-.9 9.2h-4.2zm27.1 2.1 4.5 6.5h-4.7l-5.7-8.2c-.2.3-.4.8-.4 1.3v7h-4.1v-5.1c0-1.4.2-2.6.7-3.5.4-.9 1.2-1.5 2.1-2l-3.4-5h4.7l3.7 5.3 2.5-5.3h4.7zm14.6-5.8h-1.4v-3.3h5.5v21h-4.2v-17.7zm7.1 12 .6-3.1c1.3.3 2.4.4 3.3.4 1.2 0 2.2-.3 2.7-.8.6-.5.9-1.3.9-2.4v-6.1h-7v-3.3h11.2v8.6c0 2.5-.6 4.3-1.9 5.5-1.3 1.2-3.1 1.7-5.4 1.7-1.2.1-2.8-.1-4.4-.5zm16.1-12h-1.3v-3.3h5.6V776h-4.2v-12.4zm20.7-3.2v3.3h-2.8V776h-4.2v-12.3h-6.5v-3.3zm3.1 3.2h-1.3v-3.3h5.6V776h-4.2v-12.4z" style="fill:#fffffd" transform="translate(-400.812 -190.312) scale(.26458)"/>
</svg>
