<?xml version="1.0" encoding="UTF-8" standalone="no"?>
<svg
   xmlns:dc="http://purl.org/dc/elements/1.1/"
   xmlns:cc="http://creativecommons.org/ns#"
   xmlns:rdf="http://www.w3.org/1999/02/22-rdf-syntax-ns#"
   xmlns:svg="http://www.w3.org/2000/svg"
   xmlns="http://www.w3.org/2000/svg"
   version="1.1"
   id="svg7410"
   viewBox="0 0 2224.615 1478.3701"
   height="1478.3701"
   width="2224.615">
  <defs
     id="defs7412" />
  <metadata
     id="metadata7415">
    <rdf:RDF>
      <cc:Work
         rdf:about="">
        <dc:format>image/svg+xml</dc:format>
        <dc:type
           rdf:resource="http://purl.org/dc/dcmitype/StillImage" />
        <dc:title></dc:title>
      </cc:Work>
    </rdf:RDF>
  </metadata>
  <g
     transform="translate(766.5932,229.68002)"
     id="layer1">
    <g
       id="XMLID_1_"
       transform="translate(-1837.5432,-300.28002)">
      <g
         id="XMLID_2_">
        <polygon
           id="XMLID_653_"
           class="st1"
           points="2589.1,399.1 2954,211.6 3071.8,276.9 2701.5,456.5 "
           style="fill:#bbbade" />
        <polygon
           id="XMLID_652_"
           class="st0"
           points="3071.8,211.6 3071.8,276.9 2964.1,329.1 2965.7,290.4 2938.3,304.2 2936.5,342.5 2816.4,400.1 2815.8,362.2 2786.9,375.2 2788.4,413.7 2701.5,456.5 2701.5,389.5 "
           style="opacity:1;fill:#ffffff;stroke:#010101;stroke-width:0.5;stroke-miterlimit:10;enable-background:new" />
        <polygon
           id="polygon595_3_"
           class="st0"
           points="2954,154.2 2589.1,334.3 2589.1,399.5 2954,211.6 "
           style="opacity:1;fill:#ffffff;stroke:#010101;stroke-width:0.5;stroke-miterlimit:10;enable-background:new" />
        <polygon
           id="polygon607_3_"
           class="st0"
           points="2701.5,389.5 2701.5,456.5 2589.1,399.1 2589.1,334.3 "
           style="opacity:1;fill:#ffffff;stroke:#010101;stroke-width:0.5;stroke-miterlimit:10;enable-background:new" />
        <polygon
           id="polygon611_1_"
           class="st0"
           points="2850.8,317.6 2783.3,350.4 2732.7,327.3 2730.6,266.6 "
           style="opacity:1;fill:#ffffff;stroke:#010101;stroke-width:0.5;stroke-miterlimit:10;enable-background:new" />
        <polygon
           id="polygon615_3_"
           class="st0"
           points="2954,154.2 3071.8,211.6 3011.7,240.7 2954,211.6 "
           style="opacity:1;fill:#ffffff;stroke:#010101;stroke-width:0.5;stroke-miterlimit:10;enable-background:new" />
        <rect
           id="rect475_5_"
           x="2834.1001"
           y="80.599998"
           class="st13"
           width="161.5"
           height="49.700001"
           style="fill:#6f4d80" />
        <g
           id="XMLID_177_">
          <path
             id="XMLID_178_"
             class="st5"
             d="m 2843.5,110.2 c 0.8,-0.1 1.3,-0.2 1.7,-0.4 0.4,-0.2 0.6,-0.5 0.8,-0.9 0.1,-0.4 0.2,-0.9 0.2,-1.7 l 0,-11.6 9.1,0 c 1.6,0 2.9,0.5 3.8,1.4 0.9,0.9 1.4,2.3 1.4,4.3 l 0,11.5 -4.3,0 0,-11.8 c 0,-1.5 -0.7,-2.2 -2,-2.2 l -3.5,0 0,7.8 c 0,1.5 -0.2,2.7 -0.7,3.6 -0.5,0.9 -1.2,1.6 -2.1,2 -0.9,0.4 -2.2,0.7 -3.8,0.9 l -0.6,-2.9 z"
             style="fill:#ffffff" />
          <path
             id="XMLID_180_"
             class="st5"
             d="m 2863.7,99.1 -0.4,-3.5 4.3,0 0.4,3.5 0,13.6 -4.3,0 0,-13.6 z"
             style="fill:#ffffff" />
          <path
             id="XMLID_182_"
             class="st5"
             d="m 2882.7,112.7 -5.6,-8.7 -2.7,8.7 -4.1,0 3.3,-10.3 0.9,-2.3 -2.8,-4.5 4.3,0 2.4,3.9 2.2,3.3 0.8,-2.7 1.2,-4.4 4.1,0 -3.6,10.9 4.1,6.2 -4.5,0 z"
             style="fill:#ffffff" />
          <path
             id="XMLID_184_"
             class="st5"
             d="m 2889.3,109.4 4.4,0 0,-8.6 c 0,-0.7 -0.1,-1.2 -0.4,-1.5 -0.3,-0.3 -0.7,-0.5 -1.2,-0.6 l -2.1,-0.3 0.5,-3.2 3.7,0.5 c 1.2,0.2 2.1,0.7 2.8,1.6 0.6,0.9 1,2 1,3.4 l 0,12 -8.7,0 0,-3.3 z"
             style="fill:#ffffff" />
          <path
             id="XMLID_186_"
             class="st5"
             d="m 2907.4,102.3 c 0,-0.8 0.1,-1.4 0.2,-2 0.1,-0.6 0.4,-1.1 0.6,-1.5 l -7.7,0 0,-3.2 14,0 0,3.2 -2.3,0 c -0.4,0.9 -0.6,2 -0.6,3.5 l 0,10.3 -4.3,0 0,-10.3 z"
             style="fill:#ffffff" />
          <path
             id="XMLID_188_"
             class="st5"
             d="m 2929.1,110.4 c -2.3,1.6 -5.7,2.4 -10.1,2.6 l -1.6,-14.1 -0.4,-3.2 9.2,0 c 2,0 3.5,0.6 4.5,1.7 1,1.1 1.6,2.6 1.7,4.6 l 0,1 c 0.1,3.3 -1,5.8 -3.3,7.4 z m -3.1,-2.1 c 0.8,-0.5 1.3,-1.2 1.6,-2.1 0.3,-0.9 0.4,-2 0.4,-3.5 l 0,-0.9 c 0,-0.9 -0.2,-1.6 -0.6,-2.2 -0.4,-0.5 -1,-0.8 -1.7,-0.8 l -4.1,0 1.1,10.3 c 1.5,-0.1 2.6,-0.4 3.3,-0.8 z"
             style="fill:#ffffff" />
          <path
             id="XMLID_191_"
             class="st5"
             d="m 2948.5,101 c 0,-1.5 -0.7,-2.2 -2,-2.2 l -5.8,0 0,-3.2 7,0 c 1.6,0 2.9,0.5 3.8,1.4 0.9,0.9 1.4,2.3 1.4,4.3 l 0,11.5 -4.3,0 0,-11.8 z"
             style="fill:#ffffff" />
          <path
             id="XMLID_193_"
             class="st5"
             d="m 2962.2,102.3 c 0,-0.8 0.1,-1.4 0.2,-2 0.1,-0.6 0.4,-1.1 0.6,-1.5 l -7.7,0 0,-3.2 14,0 0,3.2 -2.3,0 c -0.4,0.9 -0.6,2 -0.6,3.5 l 0,10.3 -4.3,0 0,-10.3 z"
             style="fill:#ffffff" />
          <path
             id="XMLID_195_"
             class="st5"
             d="m 2985.5,97 c 0.9,1 1.4,2.4 1.4,4.3 l 0,11.3 -4.3,0 0,-11.5 c 0,-1.6 -0.7,-2.3 -2,-2.3 l -4,0 0,13.8 -4.3,0 0,-15.1 0,-1.9 9.5,0 c 1.5,0 2.7,0.5 3.7,1.4 z"
             style="fill:#ffffff" />
        </g>
        <g
           id="XMLID_61_">
          <path
             id="XMLID_62_"
             class="st5"
             d="m 2843.5,110.2 c 0.8,-0.1 1.3,-0.2 1.7,-0.4 0.4,-0.2 0.6,-0.5 0.8,-0.9 0.1,-0.4 0.2,-0.9 0.2,-1.7 l 0,-11.6 9.1,0 c 1.6,0 2.9,0.5 3.8,1.4 0.9,0.9 1.4,2.3 1.4,4.3 l 0,11.5 -4.3,0 0,-11.8 c 0,-1.5 -0.7,-2.2 -2,-2.2 l -3.5,0 0,7.8 c 0,1.5 -0.2,2.7 -0.7,3.6 -0.5,0.9 -1.2,1.6 -2.1,2 -0.9,0.4 -2.2,0.7 -3.8,0.9 l -0.6,-2.9 z"
             style="fill:#ffffff" />
          <path
             id="XMLID_64_"
             class="st5"
             d="m 2863.7,99.1 -0.4,-3.5 4.3,0 0.4,3.5 0,13.6 -4.3,0 0,-13.6 z"
             style="fill:#ffffff" />
          <path
             id="XMLID_104_"
             class="st5"
             d="m 2882.7,112.7 -5.6,-8.7 -2.7,8.7 -4.1,0 3.3,-10.3 0.9,-2.3 -2.8,-4.5 4.3,0 2.4,3.9 2.2,3.3 0.8,-2.7 1.2,-4.4 4.1,0 -3.6,10.9 4.1,6.2 -4.5,0 z"
             style="fill:#ffffff" />
          <path
             id="XMLID_118_"
             class="st5"
             d="m 2889.3,109.4 4.4,0 0,-8.6 c 0,-0.7 -0.1,-1.2 -0.4,-1.5 -0.3,-0.3 -0.7,-0.5 -1.2,-0.6 l -2.1,-0.3 0.5,-3.2 3.7,0.5 c 1.2,0.2 2.1,0.7 2.8,1.6 0.6,0.9 1,2 1,3.4 l 0,12 -8.7,0 0,-3.3 z"
             style="fill:#ffffff" />
          <path
             id="XMLID_120_"
             class="st5"
             d="m 2907.4,102.3 c 0,-0.8 0.1,-1.4 0.2,-2 0.1,-0.6 0.4,-1.1 0.6,-1.5 l -7.7,0 0,-3.2 14,0 0,3.2 -2.3,0 c -0.4,0.9 -0.6,2 -0.6,3.5 l 0,10.3 -4.3,0 0,-10.3 z"
             style="fill:#ffffff" />
          <path
             id="XMLID_122_"
             class="st5"
             d="m 2929.1,110.4 c -2.3,1.6 -5.7,2.4 -10.1,2.6 l -1.6,-14.1 -0.4,-3.2 9.2,0 c 2,0 3.5,0.6 4.5,1.7 1,1.1 1.6,2.6 1.7,4.6 l 0,1 c 0.1,3.3 -1,5.8 -3.3,7.4 z m -3.1,-2.1 c 0.8,-0.5 1.3,-1.2 1.6,-2.1 0.3,-0.9 0.4,-2 0.4,-3.5 l 0,-0.9 c 0,-0.9 -0.2,-1.6 -0.6,-2.2 -0.4,-0.5 -1,-0.8 -1.7,-0.8 l -4.1,0 1.1,10.3 c 1.5,-0.1 2.6,-0.4 3.3,-0.8 z"
             style="fill:#ffffff" />
          <path
             id="XMLID_125_"
             class="st5"
             d="m 2948.5,101 c 0,-1.5 -0.7,-2.2 -2,-2.2 l -5.8,0 0,-3.2 7,0 c 1.6,0 2.9,0.5 3.8,1.4 0.9,0.9 1.4,2.3 1.4,4.3 l 0,11.5 -4.3,0 0,-11.8 z"
             style="fill:#ffffff" />
          <path
             id="XMLID_127_"
             class="st5"
             d="m 2962.2,102.3 c 0,-0.8 0.1,-1.4 0.2,-2 0.1,-0.6 0.4,-1.1 0.6,-1.5 l -7.7,0 0,-3.2 14,0 0,3.2 -2.3,0 c -0.4,0.9 -0.6,2 -0.6,3.5 l 0,10.3 -4.3,0 0,-10.3 z"
             style="fill:#ffffff" />
          <path
             id="XMLID_130_"
             class="st5"
             d="m 2985.5,97 c 0.9,1 1.4,2.4 1.4,4.3 l 0,11.3 -4.3,0 0,-11.5 c 0,-1.6 -0.7,-2.3 -2,-2.3 l -4,0 0,13.8 -4.3,0 0,-15.1 0,-1.9 9.5,0 c 1.5,0 2.7,0.5 3.7,1.4 z"
             style="fill:#ffffff" />
        </g>
        <g
           id="XMLID_647_">
          <path
             id="XMLID_6_"
             class="st5"
             d="m 2843.5,110.2 c 0.8,-0.1 1.3,-0.2 1.7,-0.4 0.4,-0.2 0.6,-0.5 0.8,-0.9 0.1,-0.4 0.2,-0.9 0.2,-1.7 l 0,-11.6 9.1,0 c 1.6,0 2.9,0.5 3.8,1.4 0.9,0.9 1.4,2.3 1.4,4.3 l 0,11.5 -4.3,0 0,-11.8 c 0,-1.5 -0.7,-2.2 -2,-2.2 l -3.5,0 0,7.8 c 0,1.5 -0.2,2.7 -0.7,3.6 -0.5,0.9 -1.2,1.6 -2.1,2 -0.9,0.4 -2.2,0.7 -3.8,0.9 l -0.6,-2.9 z"
             style="fill:#ffffff" />
          <path
             id="XMLID_8_"
             class="st5"
             d="m 2863.7,99.1 -0.4,-3.5 4.3,0 0.4,3.5 0,13.6 -4.3,0 0,-13.6 z"
             style="fill:#ffffff" />
          <path
             id="XMLID_10_"
             class="st5"
             d="m 2882.7,112.7 -5.6,-8.7 -2.7,8.7 -4.1,0 3.3,-10.3 0.9,-2.3 -2.8,-4.5 4.3,0 2.4,3.9 2.2,3.3 0.8,-2.7 1.2,-4.4 4.1,0 -3.6,10.9 4.1,6.2 -4.5,0 z"
             style="fill:#ffffff" />
          <path
             id="XMLID_12_"
             class="st5"
             d="m 2889.3,109.4 4.4,0 0,-8.6 c 0,-0.7 -0.1,-1.2 -0.4,-1.5 -0.3,-0.3 -0.7,-0.5 -1.2,-0.6 l -2.1,-0.3 0.5,-3.2 3.7,0.5 c 1.2,0.2 2.1,0.7 2.8,1.6 0.6,0.9 1,2 1,3.4 l 0,12 -8.7,0 0,-3.3 z"
             style="fill:#ffffff" />
          <path
             id="XMLID_14_"
             class="st5"
             d="m 2907.4,102.3 c 0,-0.8 0.1,-1.4 0.2,-2 0.1,-0.6 0.4,-1.1 0.6,-1.5 l -7.7,0 0,-3.2 14,0 0,3.2 -2.3,0 c -0.4,0.9 -0.6,2 -0.6,3.5 l 0,10.3 -4.3,0 0,-10.3 z"
             style="fill:#ffffff" />
          <path
             id="XMLID_16_"
             class="st5"
             d="m 2929.1,110.4 c -2.3,1.6 -5.7,2.4 -10.1,2.6 l -1.6,-14.1 -0.4,-3.2 9.2,0 c 2,0 3.5,0.6 4.5,1.7 1,1.1 1.6,2.6 1.7,4.6 l 0,1 c 0.1,3.3 -1,5.8 -3.3,7.4 z m -3.1,-2.1 c 0.8,-0.5 1.3,-1.2 1.6,-2.1 0.3,-0.9 0.4,-2 0.4,-3.5 l 0,-0.9 c 0,-0.9 -0.2,-1.6 -0.6,-2.2 -0.4,-0.5 -1,-0.8 -1.7,-0.8 l -4.1,0 1.1,10.3 c 1.5,-0.1 2.6,-0.4 3.3,-0.8 z"
             style="fill:#ffffff" />
          <path
             id="XMLID_21_"
             class="st5"
             d="m 2948.5,101 c 0,-1.5 -0.7,-2.2 -2,-2.2 l -5.8,0 0,-3.2 7,0 c 1.6,0 2.9,0.5 3.8,1.4 0.9,0.9 1.4,2.3 1.4,4.3 l 0,11.5 -4.3,0 0,-11.8 z"
             style="fill:#ffffff" />
          <path
             id="XMLID_23_"
             class="st5"
             d="m 2962.2,102.3 c 0,-0.8 0.1,-1.4 0.2,-2 0.1,-0.6 0.4,-1.1 0.6,-1.5 l -7.7,0 0,-3.2 14,0 0,3.2 -2.3,0 c -0.4,0.9 -0.6,2 -0.6,3.5 l 0,10.3 -4.3,0 0,-10.3 z"
             style="fill:#ffffff" />
          <path
             id="XMLID_25_"
             class="st5"
             d="m 2985.5,97 c 0.9,1 1.4,2.4 1.4,4.3 l 0,11.3 -4.3,0 0,-11.5 c 0,-1.6 -0.7,-2.3 -2,-2.3 l -4,0 0,13.8 -4.3,0 0,-15.1 0,-1.9 9.5,0 c 1.5,0 2.7,0.5 3.7,1.4 z"
             style="fill:#ffffff" />
        </g>
        <path
           id="path819_4_"
           class="st13"
           d="m 2885.6,176.8 c 0,-17.8 14.3,-32.1 32.1,-32.1 17.6,0 32.1,14.5 32.1,32.1 0,17.6 -32.1,66.1 -32.1,66.1 0,0 -32.1,-48.5 -32.1,-66.1"
           style="fill:#6f4d80" />
        <rect
           id="rect475_2_"
           x="2618.3999"
           y="198.2"
           class="st13"
           width="161.5"
           height="49.700001"
           style="fill:#6f4d80" />
        <g
           id="XMLID_197_">
          <path
             id="XMLID_198_"
             class="st5"
             d="m 2636.3,217.8 0.6,-2 3.7,0 0,10.2 -4.3,0 0,-8.2 z m 10,-3.5 c 0,-1.5 -0.7,-2.2 -2,-2.2 l -7.8,0 0,-3.2 9,0 c 1.6,0 2.9,0.5 3.8,1.4 0.9,0.9 1.4,2.3 1.4,4.3 l 0,11.4 -4.3,0 0,-11.7 z"
             style="fill:#ffffff" />
          <path
             id="XMLID_201_"
             class="st5"
             d="m 2666.9,210.4 c 0.9,1 1.4,2.4 1.4,4.3 l 0,11.3 -4.3,0 0,-11.5 c 0,-1.6 -0.7,-2.3 -2,-2.3 l -4,0 0,13.8 -4.3,0 0,-15.1 0,-1.9 9.5,0 c 1.5,-0.1 2.8,0.4 3.7,1.4 z"
             style="fill:#ffffff" />
          <path
             id="XMLID_203_"
             class="st5"
             d="m 2671.6,212.4 -0.4,-3.5 4.3,0 0.4,3.5 0,4.7 0,1.9 -4.3,0.7 0,-7.3 z"
             style="fill:#ffffff" />
          <path
             id="XMLID_205_"
             class="st5"
             d="m 2686.2,214.3 c 0,-1.5 -0.7,-2.2 -2,-2.2 l -5.8,0 0,-3.2 7,0 c 1.6,0 2.9,0.5 3.8,1.4 0.9,0.9 1.4,2.3 1.4,4.3 l 0,11.4 -4.3,0 0,-11.7 z"
             style="fill:#ffffff" />
          <path
             id="XMLID_208_"
             class="st5"
             d="m 2707.5,222.8 0,3.2 -6.3,0 -7.9,0 0,-3.2 7.9,0 0,-8.4 c 0,-1.5 -0.7,-2.2 -2,-2.2 l -5.9,0 0,-3.2 7.1,0 c 1.6,0 2.8,0.5 3.8,1.4 0.9,0.9 1.4,2.3 1.4,4.3 l 0,8.2 1.9,0 z"
             style="fill:#ffffff" />
          <path
             id="XMLID_210_"
             class="st5"
             d="m 2723,214.3 c 0,-1.5 -0.7,-2.2 -2,-2.2 l -5.8,0 0,-3.2 7,0 c 1.6,0 2.9,0.5 3.8,1.4 0.9,0.9 1.4,2.3 1.4,4.3 l 0,11.4 -4.3,0 0,-11.7 z"
             style="fill:#ffffff" />
          <path
             id="XMLID_212_"
             class="st5"
             d="m 2736.8,215.7 c 0,-0.8 0.1,-1.4 0.2,-2 0.1,-0.6 0.4,-1.1 0.6,-1.5 l -7.7,0 0,-3.2 14,0 0,3.2 -2.3,0 c -0.4,0.9 -0.6,2 -0.6,3.5 l 0,10.3 -4.3,0 0,-10.3 z"
             style="fill:#ffffff" />
          <path
             id="XMLID_214_"
             class="st5"
             d="m 2760,210.4 c 0.9,1 1.4,2.4 1.4,4.3 l 0,11.3 -4.3,0 0,-11.5 c 0,-1.6 -0.7,-2.3 -2,-2.3 l -4,0 0,13.8 -4.3,0 0,-15.1 0,-1.9 9.5,0 c 1.6,-0.1 2.8,0.4 3.7,1.4 z"
             style="fill:#ffffff" />
        </g>
        <g
           id="XMLID_132_">
          <path
             id="XMLID_133_"
             class="st5"
             d="m 2636.3,217.8 0.6,-2 3.7,0 0,10.2 -4.3,0 0,-8.2 z m 10,-3.5 c 0,-1.5 -0.7,-2.2 -2,-2.2 l -7.8,0 0,-3.2 9,0 c 1.6,0 2.9,0.5 3.8,1.4 0.9,0.9 1.4,2.3 1.4,4.3 l 0,11.4 -4.3,0 0,-11.7 z"
             style="fill:#ffffff" />
          <path
             id="XMLID_136_"
             class="st5"
             d="m 2666.9,210.4 c 0.9,1 1.4,2.4 1.4,4.3 l 0,11.3 -4.3,0 0,-11.5 c 0,-1.6 -0.7,-2.3 -2,-2.3 l -4,0 0,13.8 -4.3,0 0,-15.1 0,-1.9 9.5,0 c 1.5,-0.1 2.8,0.4 3.7,1.4 z"
             style="fill:#ffffff" />
          <path
             id="XMLID_138_"
             class="st5"
             d="m 2671.6,212.4 -0.4,-3.5 4.3,0 0.4,3.5 0,4.7 0,1.9 -4.3,0.7 0,-7.3 z"
             style="fill:#ffffff" />
          <path
             id="XMLID_141_"
             class="st5"
             d="m 2686.2,214.3 c 0,-1.5 -0.7,-2.2 -2,-2.2 l -5.8,0 0,-3.2 7,0 c 1.6,0 2.9,0.5 3.8,1.4 0.9,0.9 1.4,2.3 1.4,4.3 l 0,11.4 -4.3,0 0,-11.7 z"
             style="fill:#ffffff" />
          <path
             id="XMLID_169_"
             class="st5"
             d="m 2707.5,222.8 0,3.2 -6.3,0 -7.9,0 0,-3.2 7.9,0 0,-8.4 c 0,-1.5 -0.7,-2.2 -2,-2.2 l -5.9,0 0,-3.2 7.1,0 c 1.6,0 2.8,0.5 3.8,1.4 0.9,0.9 1.4,2.3 1.4,4.3 l 0,8.2 1.9,0 z"
             style="fill:#ffffff" />
          <path
             id="XMLID_171_"
             class="st5"
             d="m 2723,214.3 c 0,-1.5 -0.7,-2.2 -2,-2.2 l -5.8,0 0,-3.2 7,0 c 1.6,0 2.9,0.5 3.8,1.4 0.9,0.9 1.4,2.3 1.4,4.3 l 0,11.4 -4.3,0 0,-11.7 z"
             style="fill:#ffffff" />
          <path
             id="XMLID_173_"
             class="st5"
             d="m 2736.8,215.7 c 0,-0.8 0.1,-1.4 0.2,-2 0.1,-0.6 0.4,-1.1 0.6,-1.5 l -7.7,0 0,-3.2 14,0 0,3.2 -2.3,0 c -0.4,0.9 -0.6,2 -0.6,3.5 l 0,10.3 -4.3,0 0,-10.3 z"
             style="fill:#ffffff" />
          <path
             id="XMLID_175_"
             class="st5"
             d="m 2760,210.4 c 0.9,1 1.4,2.4 1.4,4.3 l 0,11.3 -4.3,0 0,-11.5 c 0,-1.6 -0.7,-2.3 -2,-2.3 l -4,0 0,13.8 -4.3,0 0,-15.1 0,-1.9 9.5,0 c 1.6,-0.1 2.8,0.4 3.7,1.4 z"
             style="fill:#ffffff" />
        </g>
        <g
           id="XMLID_4_">
          <path
             id="XMLID_27_"
             class="st5"
             d="m 2636.3,217.8 0.6,-2 3.7,0 0,10.2 -4.3,0 0,-8.2 z m 10,-3.5 c 0,-1.5 -0.7,-2.2 -2,-2.2 l -7.8,0 0,-3.2 9,0 c 1.6,0 2.9,0.5 3.8,1.4 0.9,0.9 1.4,2.3 1.4,4.3 l 0,11.4 -4.3,0 0,-11.7 z"
             style="fill:#ffffff" />
          <path
             id="XMLID_30_"
             class="st5"
             d="m 2666.9,210.4 c 0.9,1 1.4,2.4 1.4,4.3 l 0,11.3 -4.3,0 0,-11.5 c 0,-1.6 -0.7,-2.3 -2,-2.3 l -4,0 0,13.8 -4.3,0 0,-15.1 0,-1.9 9.5,0 c 1.5,-0.1 2.8,0.4 3.7,1.4 z"
             style="fill:#ffffff" />
          <path
             id="XMLID_34_"
             class="st5"
             d="m 2671.6,212.4 -0.4,-3.5 4.3,0 0.4,3.5 0,4.7 0,1.9 -4.3,0.7 0,-7.3 z"
             style="fill:#ffffff" />
          <path
             id="XMLID_37_"
             class="st5"
             d="m 2686.2,214.3 c 0,-1.5 -0.7,-2.2 -2,-2.2 l -5.8,0 0,-3.2 7,0 c 1.6,0 2.9,0.5 3.8,1.4 0.9,0.9 1.4,2.3 1.4,4.3 l 0,11.4 -4.3,0 0,-11.7 z"
             style="fill:#ffffff" />
          <path
             id="XMLID_39_"
             class="st5"
             d="m 2707.5,222.8 0,3.2 -6.3,0 -7.9,0 0,-3.2 7.9,0 0,-8.4 c 0,-1.5 -0.7,-2.2 -2,-2.2 l -5.9,0 0,-3.2 7.1,0 c 1.6,0 2.8,0.5 3.8,1.4 0.9,0.9 1.4,2.3 1.4,4.3 l 0,8.2 1.9,0 z"
             style="fill:#ffffff" />
          <path
             id="XMLID_43_"
             class="st5"
             d="m 2723,214.3 c 0,-1.5 -0.7,-2.2 -2,-2.2 l -5.8,0 0,-3.2 7,0 c 1.6,0 2.9,0.5 3.8,1.4 0.9,0.9 1.4,2.3 1.4,4.3 l 0,11.4 -4.3,0 0,-11.7 z"
             style="fill:#ffffff" />
          <path
             id="XMLID_45_"
             class="st5"
             d="m 2736.8,215.7 c 0,-0.8 0.1,-1.4 0.2,-2 0.1,-0.6 0.4,-1.1 0.6,-1.5 l -7.7,0 0,-3.2 14,0 0,3.2 -2.3,0 c -0.4,0.9 -0.6,2 -0.6,3.5 l 0,10.3 -4.3,0 0,-10.3 z"
             style="fill:#ffffff" />
          <path
             id="XMLID_50_"
             class="st5"
             d="m 2760,210.4 c 0.9,1 1.4,2.4 1.4,4.3 l 0,11.3 -4.3,0 0,-11.5 c 0,-1.6 -0.7,-2.3 -2,-2.3 l -4,0 0,13.8 -4.3,0 0,-15.1 0,-1.9 9.5,0 c 1.6,-0.1 2.8,0.4 3.7,1.4 z"
             style="fill:#ffffff" />
        </g>
        <path
           id="path819_1_"
           class="st13"
           d="m 2667.1,287.1 c 0,-17.8 14.3,-32.1 32.1,-32.1 17.6,0 32.1,14.5 32.1,32.1 0,17.6 -32.1,66.1 -32.1,66.1 0,0 -32.1,-48.5 -32.1,-66.1"
           style="fill:#6f4d80" />
      </g>
      <g
         id="maps_2_">
        <g
           id="XMLID_656_">
          <polygon
             id="polygon707_9_"
             class="st25"
             points="1409.8,799.7 1436.9,809.3 1490.2,786 1466,777.2 "
             style="display:none;opacity:1;fill:#ffffff;stroke:#010101;stroke-width:0.5;stroke-miterlimit:10;enable-background:new" />
          <polygon
             id="polygon711_9_"
             class="st26"
             points="1437.1,810.8 1439,778.6 1495.4,756.3 1492.4,785.4 "
             style="opacity:1;fill:#ffffff;stroke:#010101;stroke-width:0.5;stroke-miterlimit:10;enable-background:new" />
          <polygon
             id="polygon707_8_"
             class="st26"
             points="1439.9,778.6 1474.6,791.7 1529.9,766.3 1489.5,757 "
             style="opacity:1;fill:#ffffff;stroke:#010101;stroke-width:0.5;stroke-miterlimit:10;enable-background:new" />
          <polygon
             id="polygon711_8_"
             class="st26"
             points="1474.6,791.7 1476.6,759.5 1532.7,737 1529.9,766.3 "
             style="opacity:1;fill:#ffffff;stroke:#010101;stroke-width:0.5;stroke-miterlimit:10;enable-background:new" />
          <polygon
             id="polygon707_7_"
             class="st26"
             points="1476.6,759.3 1510,772.9 1565.3,747.7 1526.3,737.9 "
             style="opacity:1;fill:#ffffff;stroke:#010101;stroke-width:0.5;stroke-miterlimit:10;enable-background:new" />
          <polygon
             id="polygon711_7_"
             class="st26"
             points="1510,772.9 1512.1,740.8 1568.3,718.4 1565.3,747.7 "
             style="opacity:1;fill:#ffffff;stroke:#010101;stroke-width:0.5;stroke-miterlimit:10;enable-background:new" />
          <polygon
             id="polygon707_4_"
             class="st26"
             points="1512.1,740.8 1539.2,750.5 1592.5,727.2 1568.3,718.4 "
             style="opacity:1;fill:#ffffff;stroke:#010101;stroke-width:0.5;stroke-miterlimit:10;enable-background:new" />
          <polygon
             id="polygon495_1_"
             class="st1"
             points="1811.6,839.4 2551.4,567.8 2188.9,443.7 1589.7,721.4 "
             style="fill:#bbbade" />
          <polygon
             id="polygon497_1_"
             class="st0"
             points="2202,414.4 2202,464.6 1586.7,730.1 1586.7,679.1 "
             style="opacity:1;fill:#ffffff;stroke:#010101;stroke-width:0.5;stroke-miterlimit:10;enable-background:new" />
          <polygon
             id="polygon501_1_"
             class="st0"
             points="2194.5,627.7 2162.2,668.1 1974.8,564.9 1974.8,511.4 "
             style="opacity:1;fill:#ffffff;stroke:#010101;stroke-width:0.5;stroke-miterlimit:10;enable-background:new" />
          <polygon
             id="polygon505_1_"
             class="st0"
             points="2537.4,520.1 2537.4,560.3 2532.6,562.1 2526.5,564.4 2202,464.6 2202,414.4 "
             style="opacity:1;fill:#ffffff;stroke:#010101;stroke-width:0.5;stroke-miterlimit:10;enable-background:new" />
          <g
             id="polygon509_1_">
            <g
               id="XMLID_1484_">
              <g
                 id="XMLID_614_">
                <polygon
                   id="XMLID_618_"
                   class="st1"
                   points="1772.1,800.8 1597.5,723.9 1450.7,792.2 1329.6,750.2 1081.2,855.8 1191.9,940 1287.5,898.2 1381.7,945.8 1313.5,1014.1 2384.1,1528.2 2587.1,1391.7 2419.5,1321.9 2869.5,990.7 3283.3,758.5 2732.9,486 2485.6,573.1 2430.9,594.8 2077.1,709.6 2079.1,699.7 "
                   style="fill:#bbbade" />
              </g>
            </g>
          </g>
          <polygon
             id="polygon515_1_"
             class="st27"
             points="2285.9,705.8 1849.9,806.5 2400.9,1073.2 2645.4,945 2645.4,945 2651,961 2684.1,942.2 2683.6,925.1 2688.4,939.7 2721.5,920.9 2719.5,906.3 2756,887 2933.9,752.3 2637.3,617.1 "
             style="fill:#839cca" />
          <polyline
             id="polyline525_1_"
             class="st0"
             points="2239.4,1414.3 2368.8,1313.6 2369.3,1375.8 2394.7,1356.8 2393.9,1294.4       2814.8,967.3 3285.3,699.7 3283.3,758.5 2825,1035 2394.7,1356.8 2366.3,1377.7 2239.4,1473.1     "
             style="opacity:1;fill:#ffffff;stroke:#010101;stroke-width:0.5;stroke-miterlimit:10;enable-background:new" />
          <polygon
             id="polygon537_1_"
             class="st0"
             points="2418.1,1289.9 2420.3,1337.9 2588.2,1398.7 2588.2,1353.2 "
             style="opacity:1;fill:#ffffff;stroke:#010101;stroke-width:0.5;stroke-miterlimit:10;enable-background:new" />
          <polygon
             id="polygon541_1_"
             class="st0"
             points="2587.9,1400 2384.9,1538.5 2384.4,1485.9 2587.9,1354.3 "
             style="opacity:1;fill:#ffffff;stroke:#010101;stroke-width:0.5;stroke-miterlimit:10;enable-background:new" />
          <polygon
             id="polygon545_1_"
             class="st0"
             points="2054,908.5 2192.1,1029.2 2147.4,1044.5 1929.1,945.5 "
             style="opacity:1;fill:#ffffff;stroke:#010101;stroke-width:0.5;stroke-miterlimit:10;enable-background:new" />
          <polygon
             id="polygon549_1_"
             class="st0"
             points="1850.2,834 2636.8,618.8 2636.8,559.9 1850.2,777.4 "
             style="opacity:1;fill:#ffffff;stroke:#010101;stroke-width:0.5;stroke-miterlimit:10;enable-background:new" />
          <polygon
             id="polygon561_1_"
             class="st0"
             points="2016.6,938 2205.7,1023.9 2183.4,1031.4 1996.9,946.3 "
             style="opacity:1;fill:#ffffff;stroke:#010101;stroke-width:0.5;stroke-miterlimit:10;enable-background:new" />
          <polygon
             id="polygon565_1_"
             class="st0"
             points="1967,948.7 2165.5,1037.9 2184.7,1031.4 1988.7,941.7 "
             style="opacity:1;fill:#ffffff;stroke:#010101;stroke-width:0.5;stroke-miterlimit:10;enable-background:new" />
          <polygon
             id="polygon569_1_"
             class="st0"
             points="2635.9,619.1 2933.9,763.4 2933.9,704.3 2635.9,559.6 "
             style="opacity:1;fill:#ffffff;stroke:#010101;stroke-width:0.5;stroke-miterlimit:10;enable-background:new" />
          <polygon
             id="polygon573_1_"
             class="st28"
             points="2048.4,931.1 2298.5,1033 2261.7,1047.3 2029.4,941.7 "
             style="fill:#9aad63" />
          <polygon
             id="polygon575_1_"
             class="st0"
             points="1938.2,949.5 2146,1044.8 2165,1037.9 1958.7,943 "
             style="opacity:1;fill:#ffffff;stroke:#010101;stroke-width:0.5;stroke-miterlimit:10;enable-background:new" />
          <polygon
             id="polygon579_1_"
             class="st0"
             points="1414.6,949.5 1350.5,978.7 1304.8,956.1 1413.3,905.6 "
             style="opacity:1;fill:#ffffff;stroke:#010101;stroke-width:0.5;stroke-miterlimit:10;enable-background:new" />
          <polygon
             id="polygon583_1_"
             class="st0"
             points="1849.9,834 2400.9,1102.5 2400.9,1044 1849.9,777.4 "
             style="opacity:1;fill:#ffffff;stroke:#010101;stroke-width:0.5;stroke-miterlimit:10;enable-background:new" />
          <polygon
             id="polygon587_1_"
             class="st0"
             points="1304.8,1016.9 2384.1,1538.5 2384.1,1486.7 1304.8,956.1 "
             style="opacity:1;fill:#ffffff;stroke:#010101;stroke-width:0.5;stroke-miterlimit:10;enable-background:new" />
          <polygon
             id="XMLID_1481_"
             class="st0"
             points="2732.8,558.1 2731.9,584.4 2719.8,578.9 2719.8,526.2 3018.7,669.7 3018.7,723.9 2745.7,591.5 2746.7,563.6 "
             style="opacity:1;fill:#ffffff;stroke:#010101;stroke-width:0.5;stroke-miterlimit:10;enable-background:new" />
          <polygon
             id="polygon595_4_"
             class="st0"
             points="2787.1,506.6 3109.4,677.9 3109.4,625.2 2793.2,467.4 "
             style="opacity:1;fill:#ffffff;stroke:#010101;stroke-width:0.5;stroke-miterlimit:10;enable-background:new" />
          <polygon
             id="polygon599_1_"
             class="st0"
             points="1426.4,755.1 1426.4,803.3 1329.6,750.2 1329.6,708 "
             style="opacity:1;fill:#ffffff;stroke:#010101;stroke-width:0.5;stroke-miterlimit:10;enable-background:new" />
          <polygon
             id="XMLID_1480_"
             class="st0"
             points="2400.9,1102.5 2400.9,1044 2756,840.2 2933.9,704.3 2933.9,763.4 2756,901.5 2721.5,920.9 2714,895.7 2681.8,914.1 2688.4,939.7 2690.2,938.7 2684.1,942.2 2676.6,916.8 2644.2,935.4 2651,961 "
             style="opacity:1;fill:#ffffff;stroke:#010101;stroke-width:0.5;stroke-miterlimit:10;enable-background:new" />
          <polygon
             id="polygon607_4_"
             class="st0"
             points="3109.4,625.2 3109.4,677.6 3018.7,723.9 3018.7,669.7 "
             style="opacity:1;fill:#ffffff;stroke:#010101;stroke-width:0.5;stroke-miterlimit:10;enable-background:new" />
          <polygon
             id="polygon611_4_"
             class="st0"
             points="3017.2,579 3015.5,626.7 2972.3,649 2930.8,627.6 "
             style="opacity:1;fill:#ffffff;stroke:#010101;stroke-width:0.5;stroke-miterlimit:10;enable-background:new" />
          <polygon
             id="polygon611_3_"
             class="st29"
             points="2890.1,517.6 2888.4,565.3 2845.2,587.5 2803.7,566.1 "
             style="opacity:1;fill:#ffffff;stroke:#010101;stroke-width:0.5;enable-background:new" />
          <polygon
             id="polygon615_4_"
             class="st0"
             points="2814.8,526.2 2768.3,549.6 2719.8,526.2 2814.8,479.9 "
             style="opacity:1;fill:#ffffff;stroke:#010101;stroke-width:0.5;stroke-miterlimit:10;enable-background:new" />
          <polyline
             id="polyline619_1_"
             class="st0"
             points="1513,764.9 1330.4,849.3 1330.4,802.5 1513,714.4     "
             style="opacity:1;fill:#ffffff;stroke:#010101;stroke-width:0.5;stroke-miterlimit:10;enable-background:new" />
          <polygon
             id="polygon627_1_"
             class="st0"
             points="1329.6,708 1329.6,750.2 1081.2,855.8 1081.2,816.4 "
             style="opacity:1;fill:#ffffff;stroke:#010101;stroke-width:0.5;stroke-miterlimit:10;enable-background:new" />
          <polygon
             id="polygon631_1_"
             class="st0"
             points="1158.5,879.7 1158.5,925.2 1081.2,863.3 1081.2,816.4 "
             style="opacity:1;fill:#ffffff;stroke:#010101;stroke-width:0.5;stroke-miterlimit:10;enable-background:new" />
          <polygon
             id="polygon635_1_"
             class="st27"
             points="1904.5,880.9 2183.1,1021.1 2232.8,1005.8 1948.4,868.9 "
             style="fill:#839cca" />
          <path
             id="path645_1_"
             class="st27"
             d="m 2494.7,1031.6 -94.2,46.8 c -53.8,-26.7 -203,-90 -203,-90 l -14.8,18.4 182.9,95.4 -115.1,47.7 34.6,13.6 75.6,-31.7 33.7,15.3 152,-99.5 -51.7,-16 z"
             style="fill:#839cca" />
          <polygon
             id="polygon647_1_"
             class="st27"
             points="2372.1,1090.9 2372.1,1108.6 2194.2,1014.4 2192.9,1000.5 "
             style="fill:#839cca" />
          <path
             id="path659_1_"
             class="st30"
             d="m 2533.8,683.9 c 0,44 -79.2,164.5 -79.2,164.5 0,0 -79.2,-120.4 -79.2,-164.5 0,-44 35.7,-79.2 79.2,-79.2 43.8,-0.6 79.2,35.1 79.2,79.2"
             style="fill:#f8b119" />
          <polygon
             id="polygon663_2_"
             class="st30"
             points="1517.3,706.5 1551.8,692.5 1543.2,687.2 1561.3,659.1 1544.9,648.5 1526.4,677.2 1517,671.1 "
             style="fill:#f8b119" />
          <polygon
             id="polygon669_1_"
             class="st27"
             points="2266.1,1125.4 2276.8,1114.3 2191.4,1003 2176.9,1011.6 "
             style="fill:#839cca" />
          <polygon
             id="polygon683_1_"
             class="st0"
             points="1903.2,880.6 1948.9,868.6 1948.9,858.8 1903.2,871.1 "
             style="opacity:1;fill:#ffffff;stroke:#010101;stroke-width:0.5;stroke-miterlimit:10;enable-background:new" />
          <polygon
             id="polygon687_1_"
             class="st0"
             points="1903.2,882.5 1913.1,889.2 1913.1,878.9 1903.2,872.7 "
             style="opacity:1;fill:#ffffff;stroke:#010101;stroke-width:0.5;stroke-miterlimit:10;enable-background:new" />
          <polygon
             id="polygon691_1_"
             class="st0"
             points="1742.9,900.2 1914.3,888.7 1914.3,878.9 1742.9,890.9 "
             style="opacity:1;fill:#ffffff;stroke:#010101;stroke-width:0.5;stroke-miterlimit:10;enable-background:new" />
          <polygon
             id="polygon695_1_"
             class="st0"
             points="2266.5,1125.4 2265.3,1110.3 2184.7,1011.6 1914.3,885 1914.3,884.5 1742.9,897 1742.9,906.5 1914.3,894.5 2181.9,1021.1 "
             style="opacity:1;fill:#ffffff;stroke:#010101;stroke-width:0.5;stroke-miterlimit:10;enable-background:new" />
          <polygon
             id="polygon699_4_"
             class="st0"
             points="2290.4,1256.1 2257.5,1274.3 2257.5,1177.6 2291.2,1162 "
             style="opacity:1;fill:#ffffff;stroke:#010101;stroke-width:0.5;stroke-miterlimit:10;enable-background:new" />
          <polygon
             id="polygon703_1_"
             class="st0"
             points="2194.5,1014.1 2276.4,1113.5 2276.8,1100.8 2192.6,1000.2 "
             style="opacity:1;fill:#ffffff;stroke:#010101;stroke-width:0.5;stroke-miterlimit:10;enable-background:new" />
          <polygon
             id="polygon707_3_"
             class="st0"
             points="2257.5,1274.3 2257.5,1177.2 2209.8,1158 2209.8,1249.5 "
             style="opacity:1;fill:#ffffff;stroke:#010101;stroke-width:0.5;stroke-miterlimit:10;enable-background:new" />
          <polygon
             id="polygon711_4_"
             class="st0"
             points="2290.7,1162 2258.3,1177.6 2209.8,1158 2244.7,1144 "
             style="opacity:1;fill:#ffffff;stroke:#010101;stroke-width:0.5;stroke-miterlimit:10;enable-background:new" />
          <g
             id="XMLID_1467_"
             class="st31"
             style="opacity:1">
            <polygon
               id="polygon699_3_"
               class="st26"
               points="1894.7,1132.1 1893.4,1099.2 2007,1123.4 2009,1156.8 "
               style="opacity:1;fill:#ffffff;stroke:#010101;stroke-width:0.5;stroke-miterlimit:10;enable-background:new" />
            <polygon
               id="polygon707_2_"
               class="st26"
               points="1893.4,1099.2 2007.5,1123.4 2059.7,1094.7 1939.9,1071.4 "
               style="opacity:1;fill:#ffffff;stroke:#010101;stroke-width:0.5;stroke-miterlimit:10;enable-background:new" />
            <polygon
               id="polygon711_3_"
               class="st26"
               points="2009.2,1156.3 2007,1124.1 2059.7,1094.7 2060.7,1123.9 "
               style="opacity:1;fill:#ffffff;stroke:#010101;stroke-width:0.5;stroke-miterlimit:10;enable-background:new" />
          </g>
          <g
             id="XMLID_1466_"
             class="st31"
             style="opacity:1">
            <polygon
               id="polygon699_1_"
               class="st26"
               points="1647.4,1040 1650.2,1007.3 1759.8,1046 1757.5,1079.4 "
               style="opacity:1;fill:#ffffff;stroke:#010101;stroke-width:0.5;stroke-miterlimit:10;enable-background:new" />
            <polygon
               id="polygon707_1_"
               class="st26"
               points="1650.2,1007.3 1760.1,1046.2 1815.8,1024.4 1699.8,985.7 "
               style="opacity:1;fill:#ffffff;stroke:#010101;stroke-width:0.5;stroke-miterlimit:10;enable-background:new" />
            <polygon
               id="polygon711_1_"
               class="st26"
               points="1757.5,1079.1 1759.7,1046.8 1815.8,1024.4 1812.8,1053.6 "
               style="opacity:1;fill:#ffffff;stroke:#010101;stroke-width:0.5;stroke-miterlimit:10;enable-background:new" />
          </g>
          <path
             id="path767_1_"
             class="st13"
             d="m 2835.8,489.7 c 0,17.6 -32.1,66.1 -32.1,66.1 0,0 -32.1,-48.5 -32.1,-66.1 0,-17.6 14.5,-32.1 32.1,-32.1 17.6,0 32.1,14.3 32.1,32.1"
             style="fill:#6f4d80" />
          <rect
             id="rect807_1_"
             x="2050"
             y="262.89999"
             class="st13"
             width="296.70001"
             height="198.5"
             style="fill:#6f4d80" />
          <path
             id="path819_8_"
             class="st13"
             d="m 2232.9,506 c 0,17.6 -32.1,66.1 -32.1,66.1 0,0 -32.1,-48.5 -32.1,-66.1 0,-17.6 14.5,-32.1 32.1,-32.1 17.8,0 32.1,14.3 32.1,32.1"
             style="fill:#6f4d80" />
          <polygon
             id="polygon821_1_"
             class="st0"
             points="1590.9,728.1 1749.9,805.6 1749.9,755.1 1590.9,677.6 "
             style="opacity:1;fill:#ffffff;stroke:#010101;stroke-width:0.5;stroke-miterlimit:10;enable-background:new" />
          <path
             id="path825_1_"
             class="st0"
             d="m 1888.9,711.9 -26.2,7.5 -112.7,36.2 0,49.7 113.8,-34.6 25.1,-7.5 0,-51.3 0,0 z m 69.8,30.9 323.4,-93.7 0,-46.8 -323.4,90 0,50.5 0,0 z m 770.6,-306.1 -348.5,138 -34.1,9.5 0,46.5 32.1,-9 350.5,-135.7 0,-49.3 z m 0,-0.5 0,0 1.2,0 -1.2,0 z"
             style="opacity:1;fill:#ffffff;stroke:#010101;stroke-width:0.5;stroke-miterlimit:10;enable-background:new" />
          <g
             id="g829_1_"
             transform="translate(58.131428,235.04924)">
            <g
               id="XMLID_1448_">
              <g
                 id="XMLID_1449_">
                <g
                   id="XMLID_1450_">
                  <g
                     id="XMLID_1451_">
                    <path
                       id="path837_1_"
                       class="st32"
                       d="m 2150.9,265.2 c -1.7,-0.8 -2.8,-1.7 -4.2,-2.5 0.8,-1.2 2.5,-3.3 2,-5 0,-0.3 -0.3,-1.2 -0.8,-1.7 -0.3,-0.3 -0.8,-0.3 -1.2,-0.3 -0.8,0 -2,0.8 -2.8,1.2 0,-0.3 0,-0.3 0,-0.8 0.3,-2 1.2,-3.7 2.8,-3.7 l 0,0 c 1.7,0 3.7,1.2 4.2,3.7 1.3,2.8 0.9,5.8 0,9.1 m -5.3,-3.8 c -0.3,-0.8 -0.8,-1.7 -1.2,-2.5 0.3,-1.2 1.2,-2 2,-2 0.3,0 0.3,0 0.3,0 0.3,0 0.3,0.3 0.3,0.8 0.8,1.2 -0.6,2.5 -1.4,3.7 m -2,1.6 -1.2,0.8 0.3,-1.7 c 0,-0.3 0.3,-1.2 0.8,-2 0.3,0.3 0.8,1.2 1.2,1.7 -0.8,0.9 -1.1,1.2 -1.1,1.2 m 16,13.6 c 0,-0.3 -2.8,-8.1 -6.6,-10.3 -0.3,0 -0.3,-0.3 -0.8,-0.3 1.2,-3.7 1.7,-7 0.8,-9.8 -0.9,-2.8 -3.3,-5 -5.8,-4.5 -2,0 -3.7,2 -4.2,4.5 0,0.8 0,1.7 0,2.5 -0.3,0.8 -0.8,1.2 -0.8,1.7 l -19.3,30.4 c 0,0.3 -0.3,0.3 0,0.8 l 0,0.3 0.3,0 c 0.3,0 0.3,-0.3 0.8,-0.3 l 22.3,-27.6 c 1.2,1.2 3.3,2 4.5,2.8 -0.8,2 -1.7,4.5 -2.5,7 -2.8,7 -1.7,12.8 0.3,14 l 0.3,0 c 0,0 0.3,0 0.3,-0.3 0,-0.3 0,-0.8 0,-0.8 -1.7,-0.8 -2.8,-6.1 0,-12.3 1.2,-2.5 2,-5 2.5,-7 0,0 0.3,0 0.3,0.3 3.3,1.7 6.1,9.5 6.1,9.5 0,0.3 0.3,0.3 0.8,0.3 0.3,-0.5 0.7,-0.9 0.7,-0.9"
                       style="opacity:1;fill:#ffffff;enable-background:new" />
                  </g>
                </g>
              </g>
            </g>
          </g>
          <path
             id="path861_1_"
             class="st14"
             d="m 2815.2,480.2 c -1.7,-0.8 -2.8,-1.7 -4.2,-2.5 0.8,-1.2 2.5,-3.3 2,-5 0,-0.3 -0.3,-1.2 -0.8,-1.7 -0.3,-0.3 -0.8,-0.3 -1.2,-0.3 -0.8,0 -2,0.8 -2.8,1.2 0,-0.3 0,-0.3 0,-0.8 0.3,-2 1.2,-3.7 2.8,-3.7 l 0,0 c 1.7,0 3.7,1.2 4.2,3.7 1.3,2.5 0.8,5.5 0,9.1 m -5.4,-4.1 c -0.3,-0.8 -0.8,-1.7 -1.2,-2.5 0.3,-1.2 1.2,-2 2,-2 0.3,0 0.3,0 0.3,0 0.3,0 0.3,0.3 0.3,0.8 0.6,1.7 -0.5,2.8 -1.4,3.7 m -1.9,2.1 -1.2,0.8 0.3,-1.7 c 0,-0.3 0.3,-1.2 0.8,-2 0.3,0.3 0.8,1.2 1.2,1.7 -0.8,0.7 -1.1,0.7 -1.1,1.2 m 15.9,13.1 c 0,-0.3 -2.8,-8.1 -6.6,-10.3 -0.3,0 -0.3,-0.3 -0.8,-0.3 1.2,-3.7 1.7,-7 0.8,-9.8 -0.8,-2.8 -3.3,-5 -5.8,-4.5 -2,0 -3.7,2 -4.2,4.5 0,0.8 0,1.7 0,2.5 -0.3,0.8 -0.8,1.2 -0.8,1.7 l -19.3,30.4 c 0,0.3 -0.3,0.3 0,0.8 l 0,0.3 0.3,0 c 0.3,0 0.3,-0.3 0.8,-0.3 l 22.3,-27.6 c 1.2,1.2 3.3,2 4.5,2.8 -0.8,2 -1.7,4.5 -2.5,7 -2.8,7 -1.7,12.8 0.3,14 l 0.3,0 c 0,0 0.3,0 0.3,-0.3 0,-0.3 0,-0.8 0,-0.8 -1.7,-0.8 -2.8,-6.1 0,-12.3 1.2,-2.5 2,-5 2.5,-7 0,0 0.3,0 0.3,0.3 3.3,1.7 6.1,9.5 6.1,9.5 0,0.3 0.3,0.3 0.8,0.3 0.7,0 0.7,-0.5 0.7,-0.9"
             style="fill:#f6f6f6" />
          <rect
             id="rect863_4_"
             x="1722.4"
             y="517.59998"
             class="st13"
             width="264.10001"
             height="53.5"
             style="fill:#6f4d80" />
          <path
             id="path877_1_"
             class="st13"
             d="m 1887.7,611.9 c 0,17.6 -32.1,66.1 -32.1,66.1 0,0 -32.1,-48.5 -32.1,-66.1 0,-17.6 14.5,-32.1 32.1,-32.1 17.6,0 32.1,14.5 32.1,32.1"
             style="fill:#6f4d80" />
          <path
             id="path973_1_"
             class="st14"
             d="m 1869.3,606.6 c -1.7,0 -2.8,-1.2 -2.8,-2.8 0,-1.7 1.2,-2.8 2.8,-2.8 1.7,0 2.8,1.2 2.8,2.8 0,1.5 -1.1,2.8 -2.8,2.8 m -5.3,6.5 c -1.7,0 -2.8,-1.2 -2.8,-2.8 0,-1.6 1.2,-2.8 2.8,-2.8 1.6,0 2.8,1.2 2.8,2.8 0,1.6 -1.3,2.8 -2.8,2.8 m -10.8,-5.3 c 0,0.8 -0.8,1.7 -1.7,1.7 l -3.7,0 0,3.7 c 0,0.8 -0.8,1.7 -1.7,1.7 l -1.2,0 c -0.8,0 -1.7,-0.8 -1.7,-1.7 l 0,-3.7 -3.7,0 c -0.8,0 -1.7,-0.8 -1.7,-1.7 l 0,-1.2 c 0,-0.8 0.8,-1.7 1.7,-1.7 l 3.7,0 0,-3.7 c 0,-0.8 0.8,-1.7 1.7,-1.7 l 1.2,0 c 0.8,0 1.7,0.8 1.7,1.7 l 0,3.7 3.7,0 c 0.8,0 1.7,0.8 1.7,1.7 l 0,1.2 z m 26.7,0.8 c -2.5,-11.1 -5.8,-14 -8.1,-15.3 -3.3,-1.7 -7.5,-0.8 -8.6,0 -1.7,0.8 -2.5,2 -4.2,2.8 -1.7,0.8 -4.2,0.8 -5.8,0 -1.2,-0.8 -2.5,-2 -4.5,-2.8 -2,-0.8 -5.8,-2 -9.5,0.3 -0.8,0.3 -7,5.8 -8.6,21.4 -1.2,9.8 4.2,12.8 4.2,12.8 1.2,0.8 4.5,2.5 8.6,0 2.8,-1.7 5,-5.3 5,-5.3 0,0 0.8,-2 2.5,-2.8 0.8,-0.3 2.5,0 2.5,0 l 5,0 c 0,0 1.7,0 2.8,0.3 1.2,0.3 1.7,1.7 1.7,1.7 0,0 3.3,4.2 6.6,6.6 1.2,0.8 7,2 9.5,-1.2 1.8,-2 2.9,-9 0.9,-18.5"
             style="fill:#f6f6f6" />
          <path
             id="path1011_1_"
             class="st7"
             d="m 1878.8,1041 c 0,12.8 -23.1,48 -23.1,48 0,0 -23.1,-34.9 -23.1,-48 0,-12.8 10.3,-23.1 23.1,-23.1 12.8,0 23.1,10.3 23.1,23.1"
             style="fill:#ee2148" />
          <rect
             id="rect755_1_"
             x="2633.8999"
             y="395.5"
             class="st13"
             width="323.89999"
             height="53.5"
             style="fill:#6f4d80" />
          <polygon
             id="XMLID_1431_"
             class="st0"
             points="2732.8,558.1 2732.6,563.9 2740.1,560.9 "
             style="opacity:1;fill:#ffffff;stroke:#010101;stroke-width:0.5;stroke-miterlimit:10;enable-background:new" />
          <g
             id="XMLID_1202_">
            <g
               id="XMLID_1704_">
              <path
                 id="XMLID_1778_"
                 class="st12"
                 d="m 2080.6,278.9 -0.5,-4.5 5.6,0 0.5,4.5 0,6.1 0,2.5 -5.6,1 0,-9.6 z"
                 style="fill:#f58020" />
              <path
                 id="XMLID_1777_"
                 class="st12"
                 d="m 2091.7,278.9 -0.5,-4.5 5.6,0 0.5,4.5 0,6.1 0,2.5 -5.6,1 0,-9.6 z"
                 style="fill:#f58020" />
              <path
                 id="XMLID_1776_"
                 class="st12"
                 d="m 2118.5,274.2 0,4.7 -7,17.8 -5.6,0 7,-18.1 -11.3,0 0,-10 5.1,0 0,5.6 11.8,0 z"
                 style="fill:#f58020" />
              <path
                 id="XMLID_1775_"
                 class="st12"
                 d="m 2122.8,292.3 7.8,0 c 1.5,0 2.7,-0.5 3.5,-1.5 0.8,-1 1.3,-2.3 1.3,-4 l 0,-2.8 c 0,-1.7 -0.3,-3 -1.2,-4 -0.7,-1 -1.8,-1.5 -3.3,-1.5 l -2.8,0 -0.7,3.3 c 0,0.3 -0.2,0.7 -0.2,1 0,0.7 0.2,1.2 0.7,1.5 0.3,0.3 1,0.7 2,0.8 l -0.8,3.5 c -2.3,0 -4,-0.5 -5,-1.5 -1,-1 -1.5,-2.3 -1.5,-4 0,-0.7 0,-1.2 0.2,-1.7 l 1.5,-7 8.3,0 c 2.7,0 4.8,0.8 6.3,2.7 1.5,1.9 2.3,4.2 2.3,7.3 l 0,2.3 c 0,3.2 -0.8,5.6 -2.5,7.3 -1.7,1.8 -3.8,2.7 -6.6,2.7 l -9.1,0 0,-4.5 -0.2,0 z"
                 style="fill:#f58020" />
              <path
                 id="XMLID_1772_"
                 class="st12"
                 d="m 2161,293.7 c -3,2 -7.5,3.2 -13.1,3.3 l -2.2,-18.4 -0.5,-4.2 12,0 c 2.5,0 4.5,0.7 6,2.2 1.5,1.5 2.2,3.5 2.2,6 l 0,1.3 c -0.1,4.4 -1.4,7.8 -4.4,9.8 z m -4,-2.9 c 1,-0.7 1.7,-1.5 2.2,-2.7 0.3,-1.2 0.5,-2.7 0.5,-4.5 l 0,-1.2 c 0,-1.2 -0.3,-2.2 -0.8,-2.8 -0.5,-0.7 -1.3,-1 -2.2,-1 l -5.3,0 1.5,13.5 c 1.6,-0.3 3.1,-0.6 4.1,-1.3 z"
                 style="fill:#f58020" />
              <path
                 id="XMLID_1771_"
                 class="st12"
                 d="m 2170.5,278.9 -0.5,-4.5 5.6,0 0.5,4.5 0,17.8 -5.6,0 0,-17.8 z"
                 style="fill:#f58020" />
              <path
                 id="XMLID_1768_"
                 class="st12"
                 d="m 2180.8,285.7 0.8,-2.7 4.8,0 0,21.4 -5.6,0 0,-18.7 z m 7.9,6.6 c 1.8,-0.2 3.2,-0.8 4,-1.8 0.8,-1 1.3,-2.8 1.5,-5.3 l 0.5,-6.8 -13.6,0 0,-4.2 19.6,0 -0.2,3.7 -0.5,5.8 c -0.5,8.5 -4.2,12.8 -11,12.8 l -0.3,-4.2 z"
                 style="fill:#f58020" />
              <path
                 id="XMLID_1765_"
                 class="st12"
                 d="m 2231.3,276.1 c 1.2,1.2 1.8,3 1.8,5.5 l 0,15 -5.6,0 -12.3,0 -1.2,0 0,-22.3 5.6,0 6.6,0 c 2.2,-0.1 3.9,0.6 5.1,1.8 z m -3.9,16.2 0,-11 c 0,-1.8 -0.8,-2.8 -2.7,-2.8 l -5.1,0 0,13.8 7.8,0 z"
                 style="fill:#f58020" />
              <path
                 id="XMLID_1764_"
                 class="st12"
                 d="m 2255.3,276.2 c 1.2,1.3 1.8,3.2 1.8,5.6 l 0,14.8 -5.6,0 0,-15 c 0,-2 -0.8,-3 -2.7,-3 l -5.1,0 0,18.1 -5.6,0 0,-19.9 0,-2.7 12.3,0 c 2.1,0.1 3.8,0.8 4.9,2.1 z"
                 style="fill:#f58020" />
              <path
                 id="XMLID_1763_"
                 class="st12"
                 d="m 2260.8,293.5 c 1,-0.2 1.7,-0.3 2.2,-0.7 0.5,-0.3 0.8,-0.7 1,-1.2 0.2,-0.5 0.3,-1.2 0.2,-2.2 l 0,-15.3 11.8,0 c 2.2,0 3.7,0.7 5,1.8 1.2,1.2 1.8,3 1.8,5.5 l 0,15 -5.6,0 0,-15.3 c 0,-1.8 -0.8,-2.8 -2.7,-2.8 l -4.7,0 0,10.3 c 0,2 -0.3,3.5 -1,4.7 -0.7,1.2 -1.5,2 -2.8,2.7 -1.3,0.7 -2.8,1 -5,1.2 l -0.2,-3.7 z"
                 style="fill:#f58020" />
              <path
                 id="XMLID_1762_"
                 class="st12"
                 d="m 2307,294 c -1.7,2 -4,3.2 -7.1,3.2 -1.2,0 -2.3,-0.2 -3.7,-0.5 l 0.5,-4.2 c 1,0.2 1.8,0.3 2.5,0.3 1.8,0 3,-0.7 3.8,-1.8 0.8,-1.1 1.2,-3 1.2,-5.3 0,-2.7 -0.3,-4.5 -1,-5.6 -0.7,-1.2 -1.8,-1.7 -3.3,-1.7 -1,0 -2,0.3 -2.7,1 -0.7,0.7 -1.2,1.5 -1.3,2.5 l -2.5,14.8 -5.6,0 2.7,-15 -3.2,-7.3 5.8,0 1.5,4.5 c 0.5,-1.7 1.3,-2.8 2.5,-3.7 1.2,-0.9 2.3,-1.2 3.8,-1.2 2.8,0 5,1 6.3,2.8 1.5,2 2.2,4.8 2.2,8.6 0.1,3.6 -0.7,6.6 -2.4,8.6 z"
                 style="fill:#f58020" />
              <path
                 id="XMLID_1761_"
                 class="st12"
                 d="m 2078.1,300.5 0,-2 232.9,0 0,2 -232.9,0 z"
                 style="fill:#f58020" />
              <path
                 id="XMLID_1760_"
                 class="st12"
                 d="m 2103.8,319.9 -0.5,-4.2 3.7,0 0.5,4.2 0,5.3 0,2.2 -3.7,0.7 0,-8.2 z"
                 style="fill:#f58020" />
              <path
                 id="XMLID_1759_"
                 class="st12"
                 d="m 2113.1,319.9 -0.5,-4.2 3.7,0 0.5,4.2 0,5.3 0,2.2 -3.7,0.7 0,-8.2 z"
                 style="fill:#f58020" />
              <path
                 id="XMLID_1758_"
                 class="st12"
                 d="m 2135.6,315.9 0,3.2 -6.6,16.6 -3.8,0 6.6,-16.8 -10.6,0 0,-8.3 3.5,0 0,5.5 11,0 0,-0.2 z"
                 style="fill:#f58020" />
              <path
                 id="XMLID_1757_"
                 class="st12"
                 d="m 2140.2,332.7 6.3,0 c 1.7,0 2.8,-0.5 3.8,-1.5 1,-1 1.3,-2.5 1.3,-4.3 l 0,-2.3 c 0,-1.8 -0.3,-3.3 -1.2,-4.3 -0.9,-1 -1.8,-1.5 -3.3,-1.5 l -3.2,0 -0.8,3.5 c -0.2,0.5 -0.2,1 -0.2,1.3 0,0.7 0.2,1.3 0.7,1.7 0.3,0.3 1,0.7 2,0.8 l -0.7,2.5 c -1.8,-0.2 -3.2,-0.5 -4,-1.3 -0.8,-0.8 -1.3,-2 -1.3,-3.3 0,-0.7 0,-1.3 0.2,-1.8 l 1.3,-6 6.6,0 c 2.3,0 4.2,0.8 5.5,2.3 1.3,1.5 2,3.7 2,6.5 l 0,2 c 0,3 -0.8,5.1 -2.3,6.6 -1.5,1.5 -3.5,2.3 -6,2.3 l -7.1,0 0,-3.2 0.4,0 z"
                 style="fill:#f58020" />
              <path
                 id="XMLID_1754_"
                 class="st12"
                 d="m 2173.1,333 c -2.7,1.8 -6.3,2.8 -11,3 l -2,-17.3 -0.3,-2.8 10.1,0 c 2.2,0 3.8,0.7 5.1,2 1.2,1.3 1.8,3 2,5.3 l 0,1.2 c -0.1,3.8 -1.4,6.8 -3.9,8.6 z m -1.8,-2.6 c 1.3,-1.3 2,-3.3 1.8,-6.1 l 0,-1 c 0,-1.3 -0.3,-2.3 -1,-3.2 -0.7,-0.8 -1.5,-1.2 -2.7,-1.2 l -5.6,0 1.7,13.8 c 2.5,-0.3 4.5,-1.2 5.8,-2.3 z"
                 style="fill:#f58020" />
              <path
                 id="XMLID_1753_"
                 class="st12"
                 d="m 2181.9,319.9 -0.5,-4.2 3.7,0 0.5,4.2 0,15.8 -3.8,0 0,-15.8 0.1,0 z"
                 style="fill:#f58020" />
              <path
                 id="XMLID_1750_"
                 class="st12"
                 d="m 2190.6,325.7 0.5,-2.3 3.2,0 0,19.3 -3.8,0 0,-16.9 0.1,0 z m 6.3,7 c 1.2,-0.2 2.2,-0.3 2.8,-0.8 0.8,-0.5 1.5,-1.2 1.8,-2.2 0.5,-1 0.8,-2.5 0.8,-4.2 l 0.5,-6.8 -12.5,0 0,-2.8 16.4,0 -0.2,2.5 -0.5,6.3 c -0.2,3.5 -1,6.1 -2.5,8 -1.5,1.9 -3.8,2.8 -6.6,3 l 0,-3 z"
                 style="fill:#f58020" />
              <path
                 id="XMLID_1749_"
                 class="st12"
                 d="m 2219.8,319.9 -0.5,-4.2 3.7,0 0.5,4.2 0,22.6 -3.8,0 0,-22.6 0.1,0 z"
                 style="fill:#f58020" />
              <path
                 id="XMLID_1748_"
                 class="st12"
                 d="m 2229.1,319.9 -0.5,-4.2 3.7,0 0.5,4.2 0,15.8 -3.8,0 0,-15.8 0.1,0 z"
                 style="fill:#f58020" />
              <path
                 id="XMLID_1745_"
                 class="st12"
                 d="m 2237.9,325.7 0.5,-2.3 3.2,0 0,19.3 -3.8,0 0,-16.9 0.1,0 z m 6.3,7 c 1.2,-0.2 2.2,-0.3 2.8,-0.8 0.8,-0.5 1.5,-1.2 1.8,-2.2 0.5,-1 0.8,-2.5 0.8,-4.2 l 0.5,-6.8 -12.5,0 0,-2.8 16.4,0 -0.2,2.5 -0.5,6.3 c -0.2,3.5 -1,6.1 -2.5,8 -1.5,1.9 -3.8,2.8 -6.6,3 l 0,-3 z"
                 style="fill:#f58020" />
              <path
                 id="XMLID_1744_"
                 class="st12"
                 d="m 2259.3,319.9 -0.5,-4.2 3.7,0 0.5,4.2 0,5.3 0,2.2 -3.7,0.7 0,-8.2 z"
                 style="fill:#f58020" />
              <path
                 id="XMLID_1743_"
                 class="st12"
                 d="m 2266.8,333.5 c 1.3,-0.2 2.3,-0.5 2.7,-1.2 0.5,-0.7 0.7,-1.5 0.7,-2.8 l 0,-13.8 9.5,0 c 1.8,0 3.3,0.5 4.3,1.7 1,1 1.7,2.7 1.7,5 l 0,13.3 -3.8,0 0,-13.3 c 0,-1.2 -0.3,-2.2 -0.8,-2.7 -0.5,-0.5 -1.3,-0.8 -2.3,-0.8 l -4.8,0 0,10.5 c 0,2.3 -0.5,4 -1.7,5 -1,1 -2.8,1.7 -5.3,2 l 0,-2.9 z"
                 style="fill:#f58020" />
              <path
                 id="XMLID_1742_"
                 class="st12"
                 d="m 2112.2,358.9 -0.5,-4.2 3.7,0 0.5,4.2 0,22.6 -3.8,0 0,-22.6 0.1,0 z"
                 style="fill:#f58020" />
              <path
                 id="XMLID_1741_"
                 class="st12"
                 d="m 2121.5,358.9 -0.5,-4.2 3.7,0 0.5,4.2 0,15.6 -3.7,0 0,-15.6 z"
                 style="fill:#f58020" />
              <path
                 id="XMLID_1740_"
                 class="st12"
                 d="m 2143.7,374.6 -7.3,-11.1 -3.5,11.1 -3.7,0 3.8,-12.1 1,-2.5 -3.2,-5.1 3.8,0 3,4.8 3,4.5 0.8,-3 1.8,-6.1 3.7,0 -4.2,12.5 4.8,7.3 -4,0 0,-0.3 z"
                 style="fill:#f58020" />
              <path
                 id="XMLID_1737_"
                 class="st12"
                 d="m 2151.5,364.8 0.5,-2.3 3.2,0 0,19.3 -3.8,0 0,-16.9 0.1,0 z m 6.3,6.9 c 1.2,-0.2 2.2,-0.3 2.8,-0.8 0.8,-0.5 1.5,-1.2 1.8,-2.2 0.3,-1 0.8,-2.5 0.8,-4.2 l 0.5,-6.8 -12.5,0 0,-2.7 16.4,0 -0.2,2.5 -0.5,6.3 c -0.2,3.5 -1,6.1 -2.5,8 -1.5,1.8 -3.8,2.8 -6.6,3 l 0,-3.1 z"
                 style="fill:#f58020" />
              <path
                 id="XMLID_1736_"
                 class="st12"
                 d="m 2173,358.9 -0.5,-4.2 3.7,0 0.5,4.2 0,15.6 -3.7,0 0,-15.6 z"
                 style="fill:#f58020" />
              <path
                 id="XMLID_1735_"
                 class="st12"
                 d="m 2182.3,358.9 -0.5,-4.2 3.7,0 0.5,4.2 0,15.6 -3.8,0 0,-15.6 0.1,0 z"
                 style="fill:#f58020" />
              <path
                 id="XMLID_1734_"
                 class="st12"
                 d="m 2198.5,355 3.8,0 1.8,16.6 c 5.5,-0.5 8,-3.3 7.8,-8.5 l 0,-1 c 0,-1.3 -0.3,-2.3 -1,-3.2 -0.7,-0.8 -1.7,-1.3 -3,-1.3 l -1.8,-0.2 0.3,-3 2,0.2 c 2.2,0.2 3.8,0.8 5,2 1.3,1.2 2,2.8 2,5 l 0,1 c 0.2,4.2 -1.2,7.1 -3.8,9.1 -2.7,2 -6.3,3 -11.1,3.3 l -2,-20 z"
                 style="fill:#f58020" />
              <path
                 id="XMLID_1733_"
                 class="st12"
                 d="m 2220.3,358.9 -0.5,-4.2 3.7,0 0.5,4.2 0,15.6 -3.8,0 0,-15.6 0.1,0 z"
                 style="fill:#f58020" />
              <path
                 id="XMLID_1732_"
                 class="st12"
                 d="m 2229.6,371.7 6.3,0 c 1.7,0 2.8,-0.5 3.8,-1.5 1,-1 1.3,-2.5 1.3,-4.3 l 0,-2.3 c 0,-1.8 -0.3,-3.3 -1.2,-4.3 -0.9,-1 -1.8,-1.5 -3.3,-1.5 l -3.2,0 -0.8,3.5 c -0.2,0.5 -0.2,1 -0.2,1.3 0,0.7 0.2,1.3 0.7,1.7 0.3,0.3 1,0.7 2,0.8 l -0.7,2.5 c -1.8,-0.2 -3.2,-0.5 -4,-1.3 -0.8,-0.8 -1.3,-2 -1.3,-3.3 0,-0.7 0,-1.3 0.2,-1.8 l 1.3,-6 6.6,0 c 2.3,0 4.2,0.8 5.5,2.3 1.3,1.5 2,3.7 2,6.5 l 0,2 c 0,3 -0.8,5.1 -2.3,6.6 -1.5,1.5 -3.5,2.3 -6,2.3 l -7.1,0 0,-3.2 0.4,0 z"
                 style="fill:#f58020" />
              <path
                 id="XMLID_1731_"
                 class="st12"
                 d="m 2249.9,358.9 -0.5,-4.2 3.7,0 0.5,4.2 0,5.3 0,2.2 -3.7,0.7 0,-8.2 z"
                 style="fill:#f58020" />
              <path
                 id="XMLID_1730_"
                 class="st12"
                 d="m 2273.8,371.4 c -2.8,2.5 -7.1,3.7 -13,3.7 l -2.5,-20.1 3.7,0 1.2,9.3 c 1.3,-0.7 2.2,-1.5 2.7,-2.5 0.5,-1 0.7,-2.7 0.8,-4.7 l 0,-2.1 3.7,0 0,2.2 c 0,2.7 -0.5,4.7 -1.5,6.1 -1,1.5 -2.7,2.8 -5,3.8 l 0.5,4.8 c 3.5,-0.2 6.1,-1.3 7.8,-3.2 1.7,-1.8 2.5,-4.7 2.5,-8.1 l 0,-5.6 3.8,0 0,5.5 c -0.6,4.8 -1.9,8.4 -4.7,10.9 z"
                 style="fill:#f58020" />
              <path
                 id="XMLID_1729_"
                 class="st12"
                 d="m 2114.5,398 -0.5,-4.2 3.7,0 0.5,4.2 0,22.6 -3.8,0 0,-22.6 0.1,0 z"
                 style="fill:#f58020" />
              <path
                 id="XMLID_1728_"
                 class="st12"
                 d="m 2123.8,398 -0.5,-4.2 3.7,0 0.5,4.2 0,15.6 -3.8,0 0,-15.6 0.1,0 z"
                 style="fill:#f58020" />
              <path
                 id="XMLID_1727_"
                 class="st12"
                 d="m 2146.2,413.6 -7.3,-11.1 -3.5,11.1 -3.7,0 3.8,-12.1 1,-2.5 -3.2,-5.1 3.8,0 3,4.8 3,4.5 0.8,-3 1.8,-6.1 3.7,0 -4.2,12.5 4.8,7.3 -4,0 0,-0.3 z"
                 style="fill:#f58020" />
              <path
                 id="XMLID_1724_"
                 class="st12"
                 d="m 2154,403.8 0.5,-2.3 3.2,0 0,19.3 -3.8,0 0,-16.9 0.1,0 z m 6.3,7 c 1.2,-0.2 2.2,-0.3 2.8,-0.8 0.8,-0.5 1.5,-1.2 1.8,-2.2 0.3,-1 0.8,-2.5 0.8,-4.2 l 0.5,-6.8 -12.5,0 0,-2.8 16.4,0 -0.2,2.5 -0.5,6.3 c -0.2,3.5 -1,6.1 -2.5,8 -1.5,1.8 -3.8,2.8 -6.6,3 l 0,-3 z"
                 style="fill:#f58020" />
              <path
                 id="XMLID_1723_"
                 class="st12"
                 d="m 2175.4,398 -0.5,-4.2 3.7,0 0.5,4.2 0,15.6 -3.8,0 0,-15.6 0.1,0 z"
                 style="fill:#f58020" />
              <path
                 id="XMLID_1722_"
                 class="st12"
                 d="m 2184.7,398 -0.5,-4.2 3.7,0 0.5,4.2 0,15.6 -3.8,0 0,-15.6 0.1,0 z"
                 style="fill:#f58020" />
              <path
                 id="XMLID_1721_"
                 class="st12"
                 d="m 2214.8,413.6 -7.3,-11.1 -3.5,11.1 -3.7,0 3.8,-12.1 1,-2.5 -3.2,-5.1 3.8,0 3,4.8 3,4.5 0.8,-3 1.8,-6.1 3.7,0 -4.2,12.5 4.8,7.3 -4,0 0,-0.3 z"
                 style="fill:#f58020" />
              <path
                 id="XMLID_1720_"
                 class="st12"
                 d="m 2223.5,398 -0.5,-4.2 3.7,0 0.5,4.2 0,15.6 -3.8,0 0,-15.6 0.1,0 z"
                 style="fill:#f58020" />
              <path
                 id="XMLID_1719_"
                 class="st12"
                 d="m 2240.4,401 c 0,-1.8 0.3,-3.2 1,-4.2 l -9.5,0 0,-2.8 15.6,0 0,2.8 -2.7,0 c -0.5,1 -0.8,2.3 -0.8,4.2 l 0,12.8 -3.8,0 0,-12.8 0.2,0 z"
                 style="fill:#f58020" />
              <path
                 id="XMLID_1718_"
                 class="st12"
                 d="m 2252.5,398 -0.5,-4.2 3.7,0 0.5,4.2 0,5.3 0,2.2 -3.7,0.7 0,-8.2 z"
                 style="fill:#f58020" />
              <path
                 id="XMLID_1717_"
                 class="st12"
                 d="m 2261.8,398 -0.5,-4.2 3.7,0 0.5,4.2 0,15.6 -3.8,0 0,-15.6 0.1,0 z"
                 style="fill:#f58020" />
              <path
                 id="XMLID_1716_"
                 class="st12"
                 d="m 2271.1,398 -0.5,-4.2 3.7,0 0.5,4.2 0,15.6 -3.8,0 0,-15.6 0.1,0 z"
                 style="fill:#f58020" />
              <path
                 id="XMLID_1713_"
                 class="st12"
                 d="m 2136.1,434.5 c 1,1 1.7,2.7 1.7,5 l 0,13.1 -3.8,0 -11.5,0 -1,0 0,-19.8 3.8,0 6.5,0 c 1.8,0.2 3.3,0.7 4.3,1.7 z m -2.2,15.3 0,-10.5 c 0,-1.2 -0.3,-2.2 -0.8,-2.7 -0.5,-0.5 -1.3,-0.8 -2.3,-0.8 l -5.5,0 0,14 8.6,0 0,0 z"
                 style="fill:#f58020" />
              <path
                 id="XMLID_1712_"
                 class="st12"
                 d="m 2143.1,437 -0.5,-4.2 3.7,0 0.5,4.2 0,15.6 -3.7,0 0,-15.6 z"
                 style="fill:#f58020" />
              <path
                 id="XMLID_1711_"
                 class="st12"
                 d="m 2165.6,433 0,3.2 -6.6,16.6 -3.8,0 6.6,-16.8 -10.5,0 0,-8.3 3.5,0 0,5.5 10.8,0 0,-0.2 z"
                 style="fill:#f58020" />
              <path
                 id="XMLID_1710_"
                 class="st12"
                 d="m 2170.3,437 -0.5,-4.2 3.7,0 0.5,4.2 0,5.3 0,2.2 -3.7,0.7 0,-8.2 z"
                 style="fill:#f58020" />
              <path
                 id="XMLID_1709_"
                 class="st12"
                 d="m 2189.4,444.2 5,8.5 -3.8,0 -12.1,0 0,-2.8 10.3,0 -9.8,-16.8 3.8,0 4.5,7.8 3.3,-7.8 3.8,0 -5,11.1 z"
                 style="fill:#f58020" />
              <path
                 id="XMLID_1708_"
                 class="st12"
                 d="m 2205.5,450.6 c 1.3,-0.2 2.3,-0.5 2.7,-1.2 0.5,-0.7 0.7,-1.5 0.7,-2.8 l 0,-13.8 9.5,0 c 1.8,0 3.3,0.5 4.3,1.7 1,1 1.7,2.7 1.7,5 l 0,13.1 -3.8,0 0,-13.3 c 0,-1.2 -0.3,-2.2 -0.8,-2.7 -0.5,-0.5 -1.3,-0.8 -2.3,-0.8 l -4.8,0 0,10.5 c 0,2.3 -0.5,4 -1.7,5 -1,1 -2.8,1.7 -5.3,2 l -0.2,-2.7 z"
                 style="fill:#f58020" />
              <path
                 id="XMLID_1707_"
                 class="st12"
                 d="m 2228.9,449.8 5.6,0 0,-11 c 0,-1 -0.2,-1.7 -0.7,-2.2 -0.3,-0.5 -1,-0.7 -1.8,-0.8 l -2.3,-0.3 0.5,-2.8 3.7,0.5 c 1.3,0.2 2.5,0.8 3.3,1.8 0.8,1 1.2,2.3 1.2,3.8 l 0,14 -9.5,0 0,-3 z"
                 style="fill:#f58020" />
              <path
                 id="XMLID_1706_"
                 class="st12"
                 d="m 2243.9,437 -0.5,-4.2 3.7,0 0.5,4.2 0,5.3 0,2.2 -3.7,0.7 0,-8.2 z"
                 style="fill:#f58020" />
              <path
                 id="XMLID_1705_"
                 class="st12"
                 d="m 2253,449.8 6.3,0 c 1.7,0 2.8,-0.5 3.8,-1.5 1,-1 1.3,-2.5 1.3,-4.3 l 0,-2.3 c 0,-1.8 -0.3,-3.3 -1.2,-4.3 -0.8,-1 -1.8,-1.5 -3.3,-1.5 l -3.2,0 -0.8,3.5 c -0.2,0.5 -0.2,1 -0.2,1.3 0,0.7 0.2,1.3 0.7,1.7 0.3,0.3 1,0.7 2,0.8 l -0.7,2.5 c -1.8,-0.2 -3.2,-0.5 -4,-1.3 -0.8,-0.8 -1.3,-2 -1.3,-3.3 0,-0.7 0,-1.3 0.2,-1.8 l 1.3,-6 6.6,0 c 2.3,0 4.2,0.8 5.5,2.3 1.3,1.5 2,3.7 2,6.5 l 0,2 c 0,3 -0.8,5.1 -2.3,6.6 -1.5,1.5 -3.5,2.3 -6,2.3 l -7.1,0 0,-3.2 0.4,0 z"
                 style="fill:#f58020" />
            </g>
          </g>
          <g
             id="XMLID_1173_">
            <g
               id="XMLID_950_">
              <path
                 id="XMLID_960_"
                 class="st12"
                 d="m 1778.4,542.2 0.8,-2.7 4.8,0 0,13.3 -5.6,0 0,-10.6 z m 13.1,-4.5 c 0,-1.8 -0.8,-2.8 -2.7,-2.8 l -10.1,0 0,-4.2 11.6,0 c 2.2,0 3.7,0.7 5,1.8 1.2,1.2 1.8,3 1.8,5.5 l 0,15 -5.6,0 0,-15.3 z"
                 style="fill:#f58020" />
              <path
                 id="XMLID_959_"
                 class="st12"
                 d="m 1802.3,535.2 -0.5,-4.5 5.6,0 0.5,4.5 0,6.1 0,2.5 -5.6,1 0,-9.6 z"
                 style="fill:#f58020" />
              <path
                 id="XMLID_958_"
                 class="st12"
                 d="m 1813.5,535.2 -0.5,-4.5 5.6,0 0.5,4.5 0,6.1 0,2.5 -5.6,1 0,-9.6 z"
                 style="fill:#f58020" />
              <path
                 id="XMLID_955_"
                 class="st12"
                 d="m 1823.8,542 0.8,-2.7 4.8,0 0,21.4 -5.6,0 0,-18.7 z m 7.9,6.6 c 1.8,-0.2 3.2,-0.8 4,-1.8 0.8,-1 1.3,-2.8 1.5,-5.3 l 0.5,-6.8 -13.6,0 0,-4.2 19.6,0 -0.2,3.7 -0.5,5.8 c -0.5,8.5 -4.2,12.8 -11,12.8 l -0.3,-4.2 z"
                 style="fill:#f58020" />
              <path
                 id="XMLID_954_"
                 class="st12"
                 d="m 1865.5,532.5 c 1.2,1.3 1.8,3.2 1.8,5.6 l 0,14.9 -5.6,0 0,-15 c 0,-2 -0.8,-3 -2.7,-3 l -5.1,0 0,18.1 -5.6,0 0,-19.8 0,-2.5 12.3,0 c 2,-0.3 3.7,0.4 4.9,1.7 z"
                 style="fill:#f58020" />
              <path
                 id="XMLID_953_"
                 class="st12"
                 d="m 1890.7,549.1 c -3.2,2.7 -8,4.2 -14.6,4.2 l -1.2,0 -3,-22.6 5.3,0 1.2,9.6 c 1,-0.5 1.7,-1.3 2.2,-2.3 0.3,-1 0.5,-2.7 0.5,-4.7 l 0,-2.7 5.3,0 0,2.5 c 0,2.8 -0.7,5.1 -1.7,7 -1.2,1.8 -3,3.2 -5.8,4.2 l 0.5,4.5 c 3.7,-0.2 6.3,-1.3 8,-3.2 1.7,-1.8 2.3,-4.7 2.3,-8 l 0,-6.8 5.6,0 0,6.5 c 0.1,5.2 -1.4,9.2 -4.6,11.8 z"
                 style="fill:#f58020" />
              <path
                 id="XMLID_951_"
                 class="st12"
                 d="m 1918.8,550.3 c -1.7,2 -4,3.2 -7.1,3.2 -1.2,0 -2.3,-0.2 -3.7,-0.5 l 0.5,-4.2 c 1,0.2 1.8,0.3 2.5,0.3 1.8,0 3,-0.7 3.8,-1.8 0.8,-1.2 1.2,-3 1.2,-5.3 0,-2.7 -0.3,-4.5 -1,-5.6 -0.7,-1.2 -1.8,-1.7 -3.3,-1.7 -1,0 -2,0.3 -2.7,1 -0.7,0.7 -1.2,1.5 -1.3,2.5 l -2.5,14.8 -5.6,0 2.7,-15 -3.2,-7.3 5.8,0 1.5,4.5 c 0.5,-1.7 1.3,-2.8 2.5,-3.7 1.2,-0.8 2.3,-1.2 3.8,-1.2 2.8,0 5,1 6.3,2.8 1.5,2 2.2,4.8 2.2,8.6 0.1,3.6 -0.7,6.5 -2.4,8.6 z"
                 style="fill:#f58020" />
            </g>
          </g>
          <rect
             id="rect863_1_"
             x="1714.3"
             y="953.29999"
             class="st13"
             width="282.10001"
             height="53.5"
             style="fill:#6f4d80" />
          <g
             id="XMLID_1133_">
            <g
               id="XMLID_1333_">
              <path
                 id="XMLID_1348_"
                 class="st5"
                 d="m 1762.1,967.9 c 1.2,1.2 1.8,3 1.8,5.5 l 0,15 -5.6,0 -12.3,0 -1.2,0 0,-22.3 5.6,0 6.6,0 c 2.2,0.2 3.8,0.7 5.1,1.8 z m -3.8,16.3 0,-11 c 0,-1.8 -0.8,-2.8 -2.7,-2.8 l -5.1,0 0,13.8 7.8,0 0,0 z"
                 style="fill:#ffffff" />
              <path
                 id="XMLID_1347_"
                 class="st5"
                 d="m 1769.3,970.8 -0.5,-4.5 5.6,0 0.5,4.5 0,6.1 0,2.5 -5.6,0.8 0,-9.4 z"
                 style="fill:#ffffff" />
              <g
                 id="XMLID_1345_">
                <path
                   id="XMLID_1346_"
                   class="st5"
                   d="m 1779.4,984.2 5.6,0 0,-11.3 c 0,-1 -0.2,-1.7 -0.5,-2 -0.3,-0.3 -0.8,-0.7 -1.7,-0.7 l -2.7,-0.3 0.7,-4.2 4.8,0.7 c 1.7,0.2 2.8,0.8 3.7,2 0.8,1.2 1.3,2.7 1.3,4.5 l 0,15.6 -11.3,0 0,-4.3 z"
                   style="fill:#ffffff" />
              </g>
              <path
                 id="XMLID_1344_"
                 class="st5"
                 d="m 1814.8,985.9 c -1.7,2 -4,3.2 -7.1,3.2 -1.2,0 -2.3,-0.2 -3.7,-0.5 l 0.5,-4.2 c 1,0.2 1.8,0.3 2.5,0.3 1.8,0 3,-0.7 3.8,-1.8 0.8,-1.1 1.2,-3 1.2,-5.3 0,-2.7 -0.3,-4.5 -1,-5.6 -0.7,-1.2 -1.8,-1.7 -3.3,-1.7 -1,0 -2,0.3 -2.7,1 -0.7,0.7 -1.2,1.5 -1.3,2.5 l -2.5,14.8 -5.6,0 2.7,-15 -3.2,-7.3 5.8,0 1.5,4.5 c 0.5,-1.7 1.3,-2.8 2.5,-3.7 1.2,-0.9 2.3,-1.2 3.8,-1.2 2.8,0 5,1 6.3,2.8 1.5,2 2.2,4.8 2.2,8.6 0.1,3.8 -0.7,6.6 -2.4,8.6 z"
                 style="fill:#ffffff" />
              <path
                 id="XMLID_1343_"
                 class="st5"
                 d="m 1836.7,988.5 -7.3,-11.3 -3.5,11.3 -5.3,0 4.3,-13.5 1.2,-3 -3.7,-5.8 5.6,0 3.2,5.1 2.8,4.3 1,-3.5 1.5,-5.8 5.3,0 -4.7,14.3 5.3,8.1 -5.8,0 0,-0.2 z"
                 style="fill:#ffffff" />
              <path
                 id="XMLID_1340_"
                 class="st5"
                 d="m 1846.7,977.9 0.8,-2.7 4.8,0 0,13.3 -5.6,0 0,-10.6 z m 13.1,-4.7 c 0,-1.8 -0.8,-2.8 -2.7,-2.8 l -10.1,0 0,-4.2 11.6,0 c 2.2,0 3.7,0.7 5,1.8 1.2,1.2 1.8,3 1.8,5.5 l 0,15 -5.6,0 0,-15.3 z"
                 style="fill:#ffffff" />
              <path
                 id="XMLID_1339_"
                 class="st5"
                 d="m 1877.6,985.4 c 1,-0.2 1.7,-0.3 2.2,-0.7 0.5,-0.3 0.8,-0.7 1,-1.2 0.2,-0.5 0.3,-1.2 0.2,-2.2 l 0,-15.1 11.8,0 c 2.2,0 3.7,0.7 5,1.8 1.2,1.2 1.8,3 1.8,5.5 l 0,15 -5.6,0 0,-15.3 c 0,-1.8 -0.8,-2.8 -2.7,-2.8 l -4.7,0 0,10.3 c 0,2 -0.3,3.5 -1,4.7 -0.7,1.2 -1.5,2 -2.8,2.7 -1.3,0.7 -2.8,1 -5,1.2 l -0.2,-3.9 z"
                 style="fill:#ffffff" />
              <path
                 id="XMLID_1338_"
                 class="st5"
                 d="m 1904.3,966.3 5.6,0 2,17.6 c 2.7,-0.3 4.7,-1 5.8,-2.3 1.1,-1.3 1.7,-3.3 1.7,-5.6 l 0,-1.2 c 0,-1.2 -0.3,-2.2 -1,-3 -0.7,-0.8 -1.7,-1.3 -2.8,-1.3 l -2,-0.2 0.5,-4.3 2.3,0.2 c 2.5,0.2 4.5,0.8 6,2.3 1.5,1.3 2.3,3.3 2.5,5.8 l 0,1.2 c 0.2,4.7 -1.3,8 -4.5,10.1 -3.2,2.2 -7.6,3.5 -13.5,3.7 l -2.6,-23 z"
                 style="fill:#ffffff" />
              <path
                 id="XMLID_1337_"
                 class="st5"
                 d="m 1947.9,985.9 c -1.7,2 -4,3.2 -7.1,3.2 -1.2,0 -2.3,-0.2 -3.7,-0.5 l 0.5,-4.2 c 1,0.2 1.8,0.3 2.5,0.3 1.8,0 3,-0.7 3.8,-1.8 0.8,-1.1 1.2,-3 1.2,-5.3 0,-2.7 -0.3,-4.5 -1,-5.6 -0.7,-1.1 -1.8,-1.7 -3.3,-1.7 -1,0 -2,0.3 -2.7,1 -0.7,0.7 -1.2,1.5 -1.3,2.5 l -2.5,14.8 -5.6,0 2.7,-15 -3.2,-7.3 5.8,0 1.5,4.5 c 0.5,-1.7 1.3,-2.8 2.5,-3.7 1.2,-0.9 2.3,-1.2 3.8,-1.2 2.8,0 5,1 6.3,2.8 1.5,2 2.2,4.8 2.2,8.6 0.1,3.8 -0.8,6.6 -2.4,8.6 z"
                 style="fill:#ffffff" />
              <path
                 id="XMLID_1334_"
                 class="st5"
                 d="m 1970.3,985.5 c -3,2 -7.5,3.2 -13.1,3.3 l -2.2,-18.4 -0.5,-4.2 12,0 c 2.5,0 4.5,0.7 6,2.2 1.5,1.5 2.2,3.5 2.2,6 l 0,1.3 c -0.1,4.5 -1.4,7.8 -4.4,9.8 z m -4,-2.8 c 1,-0.7 1.7,-1.5 2.2,-2.7 0.3,-1.2 0.5,-2.7 0.5,-4.5 l 0,-1.2 c 0,-1.2 -0.3,-2.2 -0.8,-2.8 -0.5,-0.7 -1.3,-1 -2.2,-1 l -5.3,0 1.5,13.5 c 1.6,-0.3 3.1,-0.6 4.1,-1.3 z"
                 style="fill:#ffffff" />
            </g>
          </g>
          <g
             id="XMLID_1053_">
            <g
               id="XMLID_1511_">
              <g
                 id="XMLID_1540_">
                <polygon
                   id="XMLID_1541_"
                   class="st5"
                   points="2692.9,422.2 2687.3,423.2 2687.3,413.6 2686.8,409.1 2692.4,409.1 2692.9,413.6 2692.9,419.7 "
                   style="fill:#ffffff" />
              </g>
              <g
                 id="XMLID_1538_">
                <polygon
                   id="XMLID_1539_"
                   class="st5"
                   points="2704,422.2 2698.4,423.2 2698.4,413.6 2697.9,409.1 2703.5,409.1 2704,413.6 2704,419.7 "
                   style="fill:#ffffff" />
              </g>
              <g
                 id="XMLID_1536_">
                <polygon
                   id="XMLID_1537_"
                   class="st5"
                   points="2718.3,431.4 2712.7,431.4 2719.6,413.3 2708.3,413.3 2708.3,403.3 2713.5,403.3 2713.5,408.9 2725.3,408.9 2725.3,409.1 2725.3,413.8 "
                   style="fill:#ffffff" />
              </g>
              <g
                 id="XMLID_1534_">
                <path
                   id="XMLID_1535_"
                   class="st5"
                   d="m 2729.6,427.1 7.8,0 c 1.5,0 2.7,-0.5 3.5,-1.5 0.8,-1 1.3,-2.3 1.3,-4 l 0,-2.8 c 0,-1.7 -0.3,-3 -1.2,-4 -0.7,-1 -1.8,-1.5 -3.3,-1.5 l -2.8,0 -0.7,3.3 c 0,0.3 -0.2,0.7 -0.2,1 0,0.7 0.2,1.2 0.7,1.5 0.3,0.3 1,0.7 2,0.8 l -0.8,3.5 c -2.3,0 -4,-0.5 -5,-1.5 -1,-1 -1.5,-2.3 -1.5,-4 0,-0.7 0,-1.2 0.2,-1.7 l 1.5,-7 8.3,0 c 2.7,0 4.8,0.8 6.3,2.7 1.5,1.9 2.3,4.2 2.3,7.3 l 0,2.3 c 0,3.2 -0.8,5.6 -2.5,7.3 -1.7,1.8 -3.8,2.7 -6.6,2.7 l -9.1,0 0,-4.5 -0.2,0 z"
                   style="fill:#ffffff" />
              </g>
              <g
                 id="XMLID_1529_">
                <g
                   id="XMLID_1530_">
                  <path
                     id="XMLID_1531_"
                     class="st5"
                     d="m 2767.7,428.4 c -3,2 -7.5,3.2 -13.1,3.3 l -2.2,-18.4 -0.5,-4.2 12,0 c 2.5,0 4.5,0.7 6,2.2 1.5,1.5 2.2,3.5 2.2,6 l 0,1.3 c 0,4.5 -1.5,7.8 -4.4,9.8 z m -4,-2.8 c 1,-0.7 1.7,-1.5 2.2,-2.7 0.3,-1.2 0.5,-2.7 0.5,-4.5 l 0,-1.2 c 0,-1.2 -0.3,-2.2 -0.8,-2.8 -0.5,-0.7 -1.3,-1 -2.2,-1 l -5.3,0 1.5,13.5 c 1.6,-0.3 3.1,-0.7 4.1,-1.3 z"
                     style="fill:#ffffff" />
                </g>
              </g>
              <g
                 id="XMLID_1527_">
                <polygon
                   id="XMLID_1528_"
                   class="st5"
                   points="2777.1,413.6 2776.6,409.1 2782.3,409.1 2782.8,413.6 2782.8,431.4 2777.1,431.4 "
                   style="fill:#ffffff" />
              </g>
              <g
                 id="XMLID_1522_">
                <g
                   id="XMLID_1523_">
                  <path
                     id="XMLID_1524_"
                     class="st5"
                     d="m 2787.6,420.4 0.8,-2.7 4.8,0 0,21.4 -5.6,0 0,-18.7 z m 7.8,6.8 c 1.8,-0.2 3.2,-0.8 4,-1.8 0.8,-1 1.3,-2.8 1.5,-5.3 l 0.5,-6.8 -13.6,0 0,-4.2 19.6,0 -0.2,3.7 -0.5,5.8 c -0.5,8.5 -4.2,12.8 -11,12.8 l -0.3,-4.2 z"
                     style="fill:#ffffff" />
                </g>
              </g>
              <g
                 id="XMLID_1520_">
                <path
                   id="XMLID_1521_"
                   class="st5"
                   d="m 2820.1,409.1 5.6,0 2,17.6 c 2.7,-0.3 4.7,-1 5.8,-2.3 1.2,-1.3 1.7,-3.3 1.7,-5.6 l 0,-1.2 c 0,-1.2 -0.3,-2.2 -1,-3 -0.7,-0.8 -1.7,-1.3 -2.8,-1.3 l -2,-0.2 0.5,-4.3 2.3,0.2 c 2.5,0.2 4.5,0.8 6,2.3 1.5,1.3 2.3,3.3 2.5,5.8 l 0,1.2 c 0.2,4.7 -1.3,8 -4.5,10.1 -3.2,2.2 -7.6,3.5 -13.5,3.7 l -2.6,-23 z"
                   style="fill:#ffffff" />
              </g>
              <g
                 id="XMLID_1518_">
                <polygon
                   id="XMLID_1519_"
                   class="st5"
                   points="2845.1,413.6 2844.6,409.1 2850.2,409.1 2850.7,413.6 2850.7,431.4 2845.1,431.4 "
                   style="fill:#ffffff" />
              </g>
              <g
                 id="XMLID_1516_">
                <path
                   id="XMLID_1517_"
                   class="st5"
                   d="m 2855.9,427.1 7.8,0 c 1.5,0 2.7,-0.5 3.5,-1.5 0.8,-1 1.3,-2.3 1.3,-4 l 0,-2.8 c 0,-1.7 -0.3,-3 -1.2,-4 -0.7,-1 -1.8,-1.5 -3.3,-1.5 l -2.8,0 -0.7,3.3 c 0,0.3 -0.2,0.7 -0.2,1 0,0.7 0.2,1.2 0.7,1.5 0.3,0.3 1,0.7 2,0.8 l -0.8,3.5 c -2.3,0 -4,-0.5 -5,-1.5 -1,-1 -1.5,-2.3 -1.5,-4 0,-0.7 0,-1.2 0.2,-1.7 l 1.5,-7 8.3,0 c 2.7,0 4.8,0.8 6.3,2.7 1.5,1.9 2.3,4.2 2.3,7.3 l 0,2.3 c 0,3.2 -0.8,5.6 -2.5,7.3 -1.7,1.8 -3.8,2.7 -6.6,2.7 l -9.1,0 0,-4.5 -0.2,0 z"
                   style="fill:#ffffff" />
              </g>
              <g
                 id="XMLID_1514_">
                <polygon
                   id="XMLID_1515_"
                   class="st5"
                   points="2884.6,422.2 2879,423.2 2879,413.6 2878.5,409.1 2884.1,409.1 2884.6,413.6 2884.6,419.7 "
                   style="fill:#ffffff" />
              </g>
              <g
                 id="XMLID_1512_">
                <path
                   id="XMLID_1513_"
                   class="st5"
                   d="m 2907.9,427.7 c -3.2,2.7 -8,4.2 -14.6,4.2 l -1.2,0 -3,-22.6 5.3,0 1.2,9.6 c 1,-0.5 1.7,-1.3 2.2,-2.3 0.3,-1 0.5,-2.7 0.5,-4.7 l 0,-2.7 5.3,0 0,2.5 c 0,2.8 -0.7,5.1 -1.7,7 -1.2,1.8 -3,3.2 -5.8,4.2 l 0.5,4.5 c 3.7,-0.2 6.3,-1.3 8,-3.2 1.7,-1.9 2.3,-4.7 2.3,-8 l 0,-6.8 5.6,0 0,6.5 c 0.2,5 -1.5,9 -4.6,11.8 z"
                   style="fill:#ffffff" />
              </g>
            </g>
          </g>
          <polygon
             id="rect849_2_"
             class="st13"
             points="1642.9,593.3 1642.9,641 1435.4,641 1435.4,595.3 1469.6,595.3 1470.3,568.1 1599.7,568.1 1599.7,595.3 "
             style="fill:#6f4d80" />
          <g
             id="XMLID_983_">
            <path
               id="XMLID_1050_"
               class="st14"
               d="m 1500.5,586.4 c 0,-1.8 -0.8,-2.8 -2.7,-2.8 l -7.6,0 0,-4.2 9.1,0 c 2.2,0 3.7,0.7 5,1.8 1.2,1.2 1.8,3 1.8,5.5 l 0,15 -5.6,0 0,-15.3 z"
               style="fill:#f6f6f6" />
            <path
               id="XMLID_1049_"
               class="st14"
               d="m 1529.2,597.5 0,4.2 -8.3,0 -10.3,0 0,-4.2 10.3,0 0,-11 c 0,-1.8 -0.8,-2.8 -2.7,-2.8 l -7.6,0 0,-4.2 9.1,0 c 2.2,0 3.7,0.7 5,1.8 1.2,1.2 1.8,3 1.8,5.5 l 0,10.8 2.7,0 0,-0.1 z"
               style="fill:#f6f6f6" />
            <path
               id="XMLID_1048_"
               class="st14"
               d="m 1552.2,579.4 c 0,5.1 -0.2,9.1 -0.7,11.8 -0.3,2.7 -1.3,4.8 -3,6.6 -1.7,1.8 -4.2,3 -7.8,3.8 l -8.3,1.7 -0.8,-4.5 6.1,-1.2 -4.5,-18.3 5.6,0 4,16.9 c 1.2,-0.5 2,-1.5 2.5,-2.7 0.5,-1.2 0.8,-2.7 1,-4.3 0.2,-1.7 0.2,-4.2 0.2,-7.6 l 0,-2.5 5.6,0 0,0.3 z"
               style="fill:#f6f6f6" />
            <path
               id="XMLID_1047_"
               class="st14"
               d="m 1575.9,599 c -1.7,2 -4,3.2 -7.1,3.2 -1.2,0 -2.3,-0.2 -3.7,-0.5 l 0.5,-4.2 c 1,0.2 1.8,0.3 2.5,0.3 1.8,0 3,-0.7 3.8,-1.8 0.8,-1.1 1.2,-3 1.2,-5.3 0,-2.7 -0.3,-4.5 -1,-5.6 -0.7,-1.1 -1.8,-1.7 -3.3,-1.7 -1,0 -2,0.3 -2.7,1 -0.7,0.7 -1.2,1.5 -1.3,2.5 l -2.5,14.8 -5.6,0 2.7,-15 -3.2,-7.3 5.8,0 1.5,4.5 c 0.5,-1.7 1.3,-2.8 2.5,-3.7 1.2,-0.8 2.3,-1.2 3.8,-1.2 2.8,0 5,1 6.3,2.8 1.5,2 2.2,4.8 2.2,8.6 0.1,3.8 -0.7,6.6 -2.4,8.6 z"
               style="fill:#f6f6f6" />
            <path
               id="XMLID_1046_"
               class="st14"
               d="m 1455.2,624.9 c 1,-0.2 1.7,-0.3 2.2,-0.7 0.5,-0.4 0.8,-0.7 1,-1.2 0.2,-0.5 0.3,-1.2 0.2,-2.2 l 0,-15.1 11.8,0 c 2.2,0 3.7,0.7 5,1.8 1.2,1.2 1.8,3 1.8,5.5 l 0,15 -5.6,0 0,-15.3 c 0,-1.8 -0.8,-2.8 -2.7,-2.8 l -4.7,0 0,10.3 c 0,2 -0.3,3.5 -1,4.7 -0.7,1.2 -1.5,2 -2.8,2.7 -1.2,0.7 -2.8,1 -5,1.2 l -0.2,-3.9 z"
               style="fill:#f6f6f6" />
            <path
               id="XMLID_1045_"
               class="st14"
               d="m 1482.6,610.4 -0.5,-4.5 5.6,0 0.5,4.5 0,17.6 -5.6,0 0,-17.6 z"
               style="fill:#f6f6f6" />
            <path
               id="XMLID_1044_"
               class="st14"
               d="m 1509.5,605.8 0,4.7 -7,17.6 -5.6,0 7,-18.1 -11.3,0 0,-10 5.1,0 0,5.6 11.8,0 0,0.2 z"
               style="fill:#f6f6f6" />
            <path
               id="XMLID_1025_"
               class="st14"
               d="m 1514.1,610.4 -0.5,-4.5 5.6,0 0.5,4.5 0,17.6 -5.6,0 0,-17.6 z"
               style="fill:#f6f6f6" />
            <path
               id="XMLID_1024_"
               class="st14"
               d="m 1523.9,623.9 6.3,0 c 1.5,0 2.7,-0.5 3.3,-1.5 0.6,-1 1,-2.3 1,-4 l 0,-3 c 0,-1.7 -0.3,-3 -1,-4 -0.7,-1 -1.8,-1.5 -3.3,-1.5 l -6.3,0 0,-4.2 7.8,0 c 2.8,0 5,0.8 6.3,2.7 1.5,1.8 2.2,4.2 2.2,7.3 l 0,2.3 c 0,3.2 -0.7,5.5 -2.2,7.3 -1.5,1.8 -3.7,2.7 -6.3,2.7 l -7.8,0 0,-4.1 z"
               style="fill:#f6f6f6" />
            <path
               id="XMLID_1023_"
               class="st14"
               d="m 1563,624.4 c -3.2,2.7 -8,4.2 -14.6,4.2 l -1.2,0 -3,-22.6 5.3,0 1.2,9.6 c 1,-0.5 1.7,-1.3 2.2,-2.3 0.3,-1 0.5,-2.7 0.5,-4.7 l 0,-2.5 5.3,0 0,2.5 c 0,2.8 -0.7,5.1 -1.7,7 -1.2,1.8 -3,3.2 -5.8,4.2 l 0.5,4.5 c 3.7,-0.2 6.3,-1.3 8,-3.2 1.7,-1.8 2.3,-4.7 2.3,-8 l 0,-6.8 5.6,0 0,6.5 c 0.2,4.8 -1.5,8.9 -4.6,11.6 z"
               style="fill:#f6f6f6" />
            <path
               id="XMLID_1022_"
               class="st14"
               d="m 1587.1,628.1 -7.3,-11.3 -3.5,11.3 -5.3,0 4.3,-13.5 1.2,-3 -3.7,-5.8 5.6,0 3.2,5.1 2.8,4.3 1,-3.5 1.5,-5.8 5.3,0 -4.7,14.3 5.3,8.1 -5.8,0 0,-0.2 z"
               style="fill:#f6f6f6" />
            <path
               id="XMLID_1021_"
               class="st14"
               d="m 1613.5,605.8 0,4.7 -7,17.6 -5.6,0 7,-18.1 -11.3,0 0,-10 5.1,0 0,5.6 11.8,0 0,0.2 z"
               style="fill:#f6f6f6" />
          </g>
          <polygon
             id="XMLID_982_"
             class="st33"
             points="2684.4,943.2 2651,961 2684.1,942.2 "
             style="fill:#401326" />
          <polygon
             id="XMLID_981_"
             class="st33"
             points="2721.8,921.9 2690.6,938.5 2721.5,920.9 "
             style="fill:#401326" />
          <g
             id="XMLID_921_">
            <path
               id="XMLID_978_"
               class="st14"
               d="m 2421.3,647.7 c 1.8,1.8 2.7,4.5 2.7,8.3 l 0,22.4 -8.5,0 -18.3,0 -1.8,0 0,-33.4 8.5,0 10.1,0 c 3.1,0 5.5,0.8 7.3,2.7 z m -5.6,24.4 0,-16.4 c 0,-2.8 -1.3,-4.3 -4,-4.3 l -7.8,0 0,20.8 11.8,0 z"
               style="fill:#f6f6f6" />
            <path
               id="XMLID_977_"
               class="st14"
               d="m 2455.7,645 0,7 -10.5,26.4 -8.5,0 10.5,-27.1 -16.9,0 0,-15 7.6,0 0,8.5 17.8,0 0,0.2 z"
               style="fill:#f6f6f6" />
            <path
               id="XMLID_976_"
               class="st14"
               d="m 2462.7,651.8 -0.7,-6.8 8.5,0 0.7,6.8 0,26.6 -8.5,0 0,-26.6 z"
               style="fill:#f6f6f6" />
            <path
               id="XMLID_975_"
               class="st14"
               d="m 2501.2,678.4 -11,-17.1 -5.1,17.1 -8.1,0 6.5,-20.1 1.8,-4.5 -5.5,-8.8 8.5,0 4.7,7.6 4.2,6.3 1.7,-5.3 2.3,-8.6 8,0 -7,21.3 8.1,12.1 -9.1,0 0,0 z"
               style="fill:#f6f6f6" />
            <path
               id="XMLID_974_"
               class="st14"
               d="m 2393.7,694.7 -0.7,-6.8 8.5,0 0.7,6.8 0,9.1 0,3.7 -8.3,1.5 0,-14.3 -0.2,0 z"
               style="fill:#f6f6f6" />
            <path
               id="XMLID_925_"
               class="st14"
               d="m 2437.2,715.8 c -4.7,4.2 -12,6.1 -21.9,6.1 l -1.8,0 -4.3,-34.1 8,0 1.7,14.5 c 1.5,-0.8 2.7,-2 3.2,-3.5 0.5,-1.5 0.8,-3.8 0.8,-7 l 0,-4 8,0 0,3.7 c 0,4.3 -1,7.8 -2.5,10.5 -1.7,2.7 -4.5,4.7 -8.6,6.1 l 0.8,6.8 c 5.6,-0.3 9.6,-2 12,-4.8 2.3,-2.8 3.5,-6.8 3.5,-12 l -0.2,-10.3 8.5,0 0,9.8 c -0.2,8 -2.5,14 -7.2,18.2 z"
               style="fill:#f6f6f6" />
            <path
               id="XMLID_924_"
               class="st14"
               d="m 2473.3,721.2 -11,-17.1 -5.1,17.1 -8,0 6.5,-20.1 1.8,-4.5 -5.5,-8.8 8.5,0 4.7,7.6 4.2,6.3 1.7,-5.3 2.3,-8.6 8,0 -7,21.3 8.1,12.1 -9.2,0 0,0 z"
               style="fill:#f6f6f6" />
            <path
               id="XMLID_923_"
               class="st14"
               d="m 2502.5,698.5 c 0,-2.8 -1.3,-4.3 -4,-4.3 l -11.5,0 0,-6.3 13.6,0 c 3.2,0 5.6,0.8 7.5,2.7 1.8,1.8 2.7,4.5 2.7,8.3 l 0,22.4 -8.5,0 0,-22.8 0.2,0 z"
               style="fill:#f6f6f6" />
          </g>
          <g
             id="XMLID_904_">
            <g
               id="XMLID_918_">
              <g
                 id="XMLID_111_">
                <path
                   id="path355_14_"
                   class="st5"
                   d="m 2494.2,1318.6 c 0,13 -23.6,48.8 -23.6,48.8 0,0 -23.6,-35.9 -23.6,-48.8 0,-12.9 10.6,-23.6 23.6,-23.6 12.8,-0.1 23.6,10.6 23.6,23.6"
                   style="fill:#ffffff" />
                <path
                   id="path357_12_"
                   class="st8"
                   d="m 2456.3,1336 c 0,1.2 0.3,1.5 1.5,1.5 1.2,0 1.5,-0.3 1.5,-1.5 l 0,-13.6 1.5,0 0,13.8 c 0,1.2 0.3,1.5 1.5,1.5 1.2,0 1.5,-0.3 1.5,-1.5 l 0,-23.2 0.8,0 0,8.5 c 0,0.3 0,0.8 0.3,1.2 0.3,0.4 0.8,0.3 1.2,0 0.4,-0.3 0.8,-0.8 0.8,-1.2 l 0,-9.1 c 0,-1.2 -0.3,-1.8 -1.2,-2.3 -0.8,-0.3 -1.5,-0.8 -2.7,-0.8 l -6.1,0 c -1.2,0 -1.8,0.3 -2.7,0.8 -0.8,0.3 -1.2,1.2 -1.2,2.3 l 0,9.5 c 0,0.3 0.3,0.8 0.8,0.8 0.3,0.3 0.8,0.3 1.2,0 0.3,-0.3 0.3,-0.3 0.3,-0.8 l 0,-8.8 0.8,0 0.2,22.9 0,0 z"
                   style="opacity:1;fill:#ffffff;enable-background:new" />
                <path
                   id="path359_12_"
                   class="st8"
                   d="m 2486.1,1325.1 -4.2,-12.3 0,0 c 0,-0.3 0,-0.3 0.3,-0.3 0,0 0.3,0 0.3,0.3 l 3,7.6 c 0.3,0.3 0.8,0.8 1.5,0.8 0.3,0 0.3,-0.3 0.8,-0.8 0,-0.3 0,-0.8 0,-0.8 l -3,-7.6 c 0,-0.8 -0.3,-1.5 -1.2,-2.3 -0.9,-0.8 -1.5,-0.8 -2.7,-0.8 l -3.8,0 c -1.2,0 -1.8,0.3 -2.7,1.2 -0.9,0.9 -1.2,1.5 -1.5,2.3 l -2.7,7.6 c 0,0 0,0.3 0,0.8 0,0.3 0.3,0.8 0.8,0.8 0.8,0 1.5,-0.3 1.5,-0.8 l 3,-8 c 0,0 0,-0.3 0.3,-0.3 0.3,0 0.3,0 0.3,0.3 l 0,0 -4.2,12.3 0,0.8 c 0,0 0,0.3 0.3,0.3 0.3,0.3 0.3,0.3 0.3,0.3 l 2.7,0 0,9.5 c 0,0.3 0,0.8 0.3,1.2 0.3,0.3 0.8,0.3 1.2,0.3 0.4,0 0.8,0 1.2,-0.3 0.3,-0.3 0.3,-0.8 0.3,-1.2 l 0,-9.5 c 0,0 0,0 0.3,0 0.3,0 0.3,0 0.8,0 0.3,0 0.3,0 0.3,0 l 0,9.5 c 0,0.3 0,0.8 0.3,1.2 0.3,0.3 0.8,0.3 1.2,0.3 0.3,0 0.8,0 1.2,-0.3 0.3,-0.3 0.3,-0.8 0.3,-1.2 l 0,-9.1 2.7,0 c 0,0 0.3,0 0.3,-0.3 0.3,-0.3 0.3,-0.3 0.3,-0.3 l 0,-1.2 0.2,0 z"
                   style="opacity:1;fill:#ffffff;enable-background:new" />
                <path
                   id="path361_12_"
                   class="st8"
                   d="m 2457.2,1304.8 c 0,0.8 0.3,1.5 0.8,2.3 0.8,0.8 1.2,0.8 2.3,0.8 0.8,0 1.5,-0.3 2.3,-0.8 0.8,-0.8 0.8,-1.5 0.8,-2.3 0,-0.8 -0.3,-1.5 -0.8,-2.3 -0.8,-0.8 -1.2,-0.8 -2.3,-0.8 -0.8,0 -1.5,0.3 -2.3,0.8 -0.8,0.8 -0.8,1.5 -0.8,2.3"
                   style="opacity:1;fill:#ffffff;enable-background:new" />
                <path
                   id="path363_12_"
                   class="st8"
                   d="m 2475.5,1304.8 c 0,0.8 0.3,1.5 0.8,2.3 0.8,0.8 1.2,0.8 2.3,0.8 1.1,0 1.5,-0.3 2.3,-0.8 0.8,-0.8 0.8,-1.2 0.8,-2.3 0,-0.8 -0.3,-1.5 -0.8,-2.3 -0.8,-0.8 -1.2,-0.8 -2.3,-0.8 -1.1,0 -1.5,0.3 -2.3,0.8 -0.5,0.8 -0.8,1.5 -0.8,2.3"
                   style="opacity:1;fill:#ffffff;enable-background:new" />
              </g>
            </g>
            <rect
               id="rect475_17_"
               x="2389.7"
               y="1242"
               class="st13"
               width="161.5"
               height="49.700001"
               style="fill:#6f4d80" />
            <g
               id="XMLID_905_">
              <path
                 id="XMLID_913_"
                 class="st5"
                 d="m 2420,1256.8 c 1.3,1.3 2,3.3 2,6 l 0,16.3 -6.1,0 -13.3,0 -1.3,0 0,-24.3 6.1,0 7.3,0 c 2.1,0 3.9,0.7 5.3,2 z m -4.2,17.8 0,-12 c 0,-2 -1,-3.2 -2.8,-3.2 l -5.6,0 0,15.1 8.4,0.1 0,0 z"
                 style="fill:#ffffff" />
              <path
                 id="XMLID_912_"
                 class="st5"
                 d="m 2427.8,1259.8 -0.5,-5 6.1,0 0.5,5 0,6.6 0,2.7 -6.1,1 0,-10.3 z"
                 style="fill:#ffffff" />
              <path
                 id="XMLID_910_"
                 class="st5"
                 d="m 2437.9,1275.7 c 1,-0.2 1.8,-0.3 2.5,-0.7 0.5,-0.3 0.8,-0.7 1.2,-1.3 0.4,-0.6 0.3,-1.3 0.3,-2.3 l 0,-16.4 12.8,0 c 2.3,0 4,0.7 5.3,2 1.3,1.3 2,3.3 2,6 l 0,16.3 -6.1,0 0,-16.6 c 0,-2 -1,-3.2 -2.8,-3.2 l -5,0 0,11.1 c 0,2.2 -0.3,3.8 -1,5.1 -0.7,1.3 -1.7,2.2 -3,2.8 -1.3,0.7 -3.2,1 -5.5,1.3 l -0.7,-4.1 z"
                 style="fill:#ffffff" />
              <path
                 id="XMLID_909_"
                 class="st5"
                 d="m 2467.8,1259.8 -0.5,-5 6.1,0 0.5,5 0,19.3 -6.1,0 0,-19.3 z"
                 style="fill:#ffffff" />
              <path
                 id="XMLID_908_"
                 class="st5"
                 d="m 2489.6,1262.6 c 0,-2 -1,-3.2 -2.8,-3.2 l -8.3,0 0,-4.7 10,0 c 2.3,0 4,0.7 5.3,2 1.3,1.3 2,3.3 2,6 l 0,16.3 -6.1,0 0,-16.4 z"
                 style="fill:#ffffff" />
              <path
                 id="XMLID_907_"
                 class="st5"
                 d="m 2501.5,1259.8 -0.5,-5 6.1,0 0.5,5 0,6.6 0,2.7 -6.1,1 0,-10.3 z"
                 style="fill:#ffffff" />
              <path
                 id="XMLID_906_"
                 class="st5"
                 d="m 2533.1,1275.1 c -3.5,3 -8.8,4.5 -15.9,4.5 l -1.3,0 -3.2,-24.6 5.8,0 1.2,10.5 c 1.2,-0.5 1.8,-1.5 2.3,-2.5 0.5,-1 0.5,-2.8 0.5,-5.1 l 0,-2.8 5.8,0 0,2.7 c 0,3.2 -0.7,5.6 -1.8,7.6 -1.1,2 -3.3,3.5 -6.3,4.5 l 0.7,4.8 c 4,-0.3 7,-1.5 8.6,-3.5 1.7,-2.2 2.5,-5 2.5,-8.6 l -0.2,-7.5 6.1,0 0,7.1 c 0.3,5.6 -1.3,9.9 -4.8,12.9 z"
                 style="fill:#ffffff" />
            </g>
          </g>
          <g
             id="XMLID_657_">
            <g
               id="XMLID_823_">
              <g
                 id="XMLID_900_">
                <path
                   id="path355_13_"
                   class="st13"
                   d="m 1306.2,725.9 c 0,13 -23.6,48.8 -23.6,48.8 0,0 -23.6,-35.9 -23.6,-48.8 0,-12.9 10.6,-23.6 23.6,-23.6 12.9,-0.2 23.6,10.6 23.6,23.6"
                   style="fill:#6f4d80" />
                <g
                   id="XMLID_919_">
                  <path
                     id="XMLID_920_"
                     class="st5"
                     d="m 1268.3,743.3 c 0,1.2 0.3,1.5 1.5,1.5 1.2,0 1.5,-0.3 1.5,-1.5 l 0,-13.8 1.5,0 0,13.8 c 0,1.2 0.3,1.5 1.5,1.5 1.2,0 1.5,-0.3 1.5,-1.5 l 0,-23.3 0.8,0 0,8.5 c 0,0.3 0,0.8 0.3,1.2 0.3,0.3 0.8,0.3 1.2,0 0.3,-0.3 0.8,-0.8 0.8,-1.2 l 0,-9.1 c 0,-1.2 -0.3,-1.8 -1.2,-2.3 -0.8,-0.3 -1.5,-0.8 -2.7,-0.8 l -6.1,0 c -1.2,0 -1.8,0.3 -2.7,0.8 -0.8,0.3 -1.2,1.2 -1.2,2.3 l 0,9.5 c 0,0.3 0.3,0.8 0.8,0.8 0.3,0.3 0.8,0.3 1.2,0 0.3,-0.3 0.3,-0.3 0.3,-0.8 l 0,-8.8 0.8,0 0,23.2 0.2,0 z"
                     style="fill:#ffffff" />
                </g>
                <g
                   id="XMLID_916_">
                  <path
                     id="XMLID_917_"
                     class="st5"
                     d="m 1298.2,732.4 -4.2,-12.3 0,0 c 0,-0.3 0,-0.3 0.3,-0.3 0,0 0.3,0 0.3,0.3 l 3,7.6 c 0.3,0.3 0.8,0.8 1.5,0.8 0.3,0 0.3,-0.3 0.8,-0.8 0,-0.3 0,-0.8 0,-0.8 l -3,-7.6 c 0,-0.8 -0.3,-1.5 -1.2,-2.3 -0.8,-0.8 -1.5,-0.8 -2.7,-0.8 l -3.8,0 c -1.2,0 -1.8,0.3 -2.7,1.2 -0.8,0.8 -1.2,1.5 -1.5,2.3 l -2.7,7.6 c 0,0 0,0.3 0,0.8 0,0.3 0.3,0.8 0.8,0.8 0.8,0 1.5,-0.3 1.5,-0.8 l 3,-8 c 0,0 0,-0.3 0.3,-0.3 0.3,0 0.3,0 0.3,0.3 l 0,0 -4.2,12.3 0,0.8 c 0,0 0,0.3 0.3,0.3 0.3,0.3 0.3,0.3 0.3,0.3 l 2.7,0 0,9.5 c 0,0.3 0,0.8 0.3,1.2 0.3,0.3 0.8,0.3 1.2,0.3 0.4,0 0.8,0 1.2,-0.3 0.4,-0.3 0.3,-0.8 0.3,-1.2 l 0,-9.5 c 0,0 0,0 0.3,0 0.3,0 0.3,0 0.8,0 0.3,0 0.3,0 0.3,0 l 0,9.5 c 0,0.3 0,0.8 0.3,1.2 0.3,0.3 0.8,0.3 1.2,0.3 0.3,0 0.8,0 1.2,-0.3 0.3,-0.3 0.3,-0.8 0.3,-1.2 l 0,-9.1 2.7,0 c 0,0 0.3,0 0.3,-0.3 0.3,-0.3 0.3,-0.3 0.3,-0.3 l 0,-1.2 0.2,0 0,0 z"
                     style="fill:#ffffff" />
                </g>
                <g
                   id="XMLID_903_">
                  <path
                     id="XMLID_911_"
                     class="st13"
                     d="m 1269.1,712.1 c 0,0.8 0.3,1.5 0.8,2.3 0.8,0.8 1.2,0.8 2.3,0.8 0.8,0 1.5,-0.3 2.3,-0.8 0.8,-0.8 0.8,-1.5 0.8,-2.3 0,-0.8 -0.3,-1.5 -0.8,-2.3 -0.8,-0.8 -1.2,-0.8 -2.3,-0.8 -0.8,0 -1.5,0.3 -2.3,0.8 -0.8,0.8 -0.8,1.5 -0.8,2.3"
                     style="fill:#6f4d80" />
                </g>
                <g
                   id="XMLID_901_">
                  <path
                     id="XMLID_902_"
                     class="st13"
                     d="m 1287.4,712.1 c 0,0.8 0.3,1.5 0.8,2.3 0.8,0.8 1.2,0.8 2.3,0.8 1.1,0 1.5,-0.3 2.3,-0.8 0.8,-0.8 0.8,-1.2 0.8,-2.3 0,-0.8 -0.3,-1.5 -0.8,-2.3 -0.8,-0.8 -1.2,-0.8 -2.3,-0.8 -1.1,0 -1.5,0.3 -2.3,0.8 -0.3,0.8 -0.8,1.5 -0.8,2.3"
                     style="fill:#6f4d80" />
                </g>
              </g>
            </g>
            <rect
               id="rect475_9_"
               x="1201.8"
               y="649.29999"
               class="st13"
               width="161.5"
               height="49.700001"
               style="fill:#6f4d80" />
            <g
               id="XMLID_658_">
              <path
                 id="XMLID_666_"
                 class="st5"
                 d="m 1231.9,664.1 c 1.3,1.3 2,3.3 2,6 l 0,16.3 -6.1,0 -13.3,0 -1.3,0 0,-24.3 6.1,0 7.3,0 c 2.3,0 4,0.7 5.3,2 z m -4.2,17.8 0,-12 c 0,-2 -1,-3.2 -2.8,-3.2 l -5.6,0 0,15.1 8.4,0 z"
                 style="fill:#ffffff" />
              <path
                 id="XMLID_664_"
                 class="st5"
                 d="m 1239.7,667.1 -0.5,-5 6.1,0 0.5,5 0,6.6 0,2.7 -6.1,1 0,-10.3 z"
                 style="fill:#ffffff" />
              <path
                 id="XMLID_663_"
                 class="st5"
                 d="m 1249.8,683 c 1,-0.2 1.8,-0.3 2.5,-0.7 0.5,-0.3 0.8,-0.7 1.2,-1.3 0.3,-0.7 0.3,-1.3 0.3,-2.3 l 0,-16.4 12.8,0 c 2.3,0 4,0.7 5.3,2 1.3,1.3 2,3.3 2,6 l 0,16.3 -6.1,0 0,-16.6 c 0,-2 -1,-3.2 -2.8,-3.2 l -5,0 0,11.1 c 0,2.2 -0.3,3.8 -1,5.1 -0.7,1.3 -1.7,2.2 -3,2.8 -1.3,0.7 -3.2,1 -5.5,1.3 l -0.7,-4.1 z"
                 style="fill:#ffffff" />
              <path
                 id="XMLID_662_"
                 class="st5"
                 d="m 1279.7,667.1 -0.5,-5 6.1,0 0.5,5 0,19.3 -6.1,0 0,-19.3 z"
                 style="fill:#ffffff" />
              <path
                 id="XMLID_661_"
                 class="st5"
                 d="m 1301.5,669.9 c 0,-2 -1,-3.2 -2.8,-3.2 l -8.3,0 0,-4.7 10,0 c 2.3,0 4,0.7 5.3,2 1.3,1.3 2,3.3 2,6 l 0,16.3 -6.1,0 0,-16.4 z"
                 style="fill:#ffffff" />
              <path
                 id="XMLID_660_"
                 class="st5"
                 d="m 1313.6,667.1 -0.5,-5 6.1,0 0.5,5 0,6.6 0,2.7 -6.1,1 0,-10.3 z"
                 style="fill:#ffffff" />
              <path
                 id="XMLID_659_"
                 class="st5"
                 d="m 1345.2,682.4 c -3.5,3 -8.8,4.5 -15.9,4.5 l -1.3,0 -3.2,-24.6 5.8,0 1.2,10.5 c 1.2,-0.5 1.8,-1.5 2.3,-2.5 0.5,-1 0.5,-2.8 0.5,-5.1 l 0,-2.8 5.8,0 0,2.7 c 0,3.2 -0.7,5.6 -1.8,7.6 -1.2,2 -3.3,3.5 -6.3,4.5 l 0.7,4.8 c 4,-0.3 7,-1.5 8.6,-3.5 1.7,-2.2 2.5,-5 2.5,-8.6 l -0.2,-7.5 6.1,0 0,7.1 c 0.2,5.6 -1.5,9.9 -4.8,12.9 z"
                 style="fill:#ffffff" />
            </g>
          </g>
        </g>
      </g>
    </g>
  </g>
</svg>
