<?xml version="1.0" encoding="UTF-8" standalone="no"?>
<svg
   xmlns:dc="http://purl.org/dc/elements/1.1/"
   xmlns:cc="http://creativecommons.org/ns#"
   xmlns:rdf="http://www.w3.org/1999/02/22-rdf-syntax-ns#"
   xmlns:svg="http://www.w3.org/2000/svg"
   xmlns="http://www.w3.org/2000/svg"
   width="453.99979"
   height="138.59999"
   viewBox="0 0 453.99978 138.6"
   id="svg3927"
   version="1.1">
  <defs
     id="defs3929" />
  <metadata
     id="metadata3932">
    <rdf:RDF>
      <cc:Work
         rdf:about="">
        <dc:format>image/svg+xml</dc:format>
        <dc:type
           rdf:resource="http://purl.org/dc/dcmitype/StillImage" />
        <dc:title></dc:title>
      </cc:Work>
    </rdf:RDF>
  </metadata>
  <path
     id="path767_1_"
     class="st6"
     d="m 254.49989,81.799994 c 0,15.1 -27.5,56.799986 -27.5,56.799986 0,0 -27.5,-41.599986 -27.5,-56.799986 0,-15.2 12.4,-27.5 27.5,-27.5 15.1,0 27.5,12.2 27.5,27.5"
     style="fill:#c52036" />
  <rect
     id="rect755_1_"
     x="203.89978"
     y="0"
     class="st6"
     width="250.10001"
     height="41.299999"
     style="fill:#c52036" />
  <g
     transform="translate(-2802.5001,-521.90003)"
     id="g794">
    <path
       class="st21"
       d="m 3064,532 14.4,0 0,18 -14.4,0 0,-18 z m 11.5,15.8 0,-13.4 -8.7,0 0,13.4 8.7,0 z"
       id="path796"
       style="fill:#ffffff" />
    <path
       class="st21"
       d="m 3085.3,534.3 -3.3,0 0,-2.3 6.1,0 0,10 -2.8,0 0,-7.7 z"
       id="path798"
       style="fill:#ffffff" />
    <path
       class="st21"
       d="m 3100.8,537.5 c 0,-1 -0.3,-1.8 -0.9,-2.3 -0.6,-0.6 -1.4,-0.8 -2.4,-0.8 l -6.1,0 0,-2.4 6.1,0 c 1.2,0 2.3,0.2 3.2,0.7 0.9,0.4 1.6,1.1 2.1,1.9 0.5,0.8 0.7,1.9 0.7,3 l 0,12.4 -2.8,0 0,-12.5 z"
       id="path800"
       style="fill:#ffffff" />
    <path
       class="st21"
       d="m 3109.5,534.3 -2.1,0 0,-2.3 4.9,0 0,18 -2.8,0 0,-15.7 z"
       id="path802"
       style="fill:#ffffff" />
    <path
       class="st21"
       d="m 3128.4,538.7 c 0,-1.6 -0.4,-2.7 -1.1,-3.4 -0.7,-0.7 -1.8,-1 -3.4,-1 l -6.5,0 0,-2.3 6.7,0 c 2.4,0 4.1,0.6 5.3,1.7 1.2,1.1 1.8,2.8 1.8,5.1 l 0,11.2 -2.8,0 0,-11.3 z m -11,5.2 c 0,-0.9 0.1,-1.7 0.2,-2.2 0.1,-0.5 0.3,-1.1 0.6,-1.6 l 2.3,0 c -0.1,0.5 -0.2,1 -0.3,1.6 -0.1,0.6 -0.1,1.3 -0.1,2.1 l 0,6.3 -2.8,0 0,-6.2 z"
       id="path804"
       style="fill:#ffffff" />
    <path
       class="st21"
       d="m 3151.5,537.5 c 0,-1 -0.3,-1.8 -0.9,-2.3 -0.6,-0.6 -1.4,-0.8 -2.4,-0.8 l -6.1,0 0,-2.4 6.1,0 c 1.2,0 2.3,0.2 3.2,0.7 0.9,0.4 1.6,1.1 2.1,1.9 0.5,0.8 0.7,1.9 0.7,3 l 0,12.4 -2.8,0 0,-12.5 z"
       id="path806"
       style="fill:#ffffff" />
    <path
       class="st21"
       d="m 3172,532 0,2.3 -3,0 0,15.7 -2.8,0 0,-15.7 -8.6,0 0,-2.3 14.4,0 z"
       id="path808"
       style="fill:#ffffff" />
    <path
       class="st21"
       d="m 3175.8,532 6.8,0 c 2.4,0 4.2,0.6 5.3,1.7 1.1,1.1 1.8,2.9 1.8,5.2 l 0,11.1 -2.8,0 0,-11.3 c 0,-1.6 -0.3,-2.7 -1,-3.4 -0.7,-0.7 -1.8,-1.1 -3.2,-1.1 l -4,0 0,15.7 -2.8,0 -0.1,-17.9 z"
       id="path810"
       style="fill:#ffffff" />
  </g>
</svg>
