<?xml version="1.0" encoding="UTF-8" standalone="no"?>
<svg
   xmlns:dc="http://purl.org/dc/elements/1.1/"
   xmlns:cc="http://creativecommons.org/ns#"
   xmlns:rdf="http://www.w3.org/1999/02/22-rdf-syntax-ns#"
   xmlns:svg="http://www.w3.org/2000/svg"
   xmlns="http://www.w3.org/2000/svg"
   width="171.59999"
   height="136.49998"
   viewBox="0 0 171.59999 136.49999"
   id="svg4816"
   version="1.1">
  <defs
     id="defs4818" />
  <metadata
     id="metadata4821">
    <rdf:RDF>
      <cc:Work
         rdf:about="">
        <dc:format>image/svg+xml</dc:format>
        <dc:type
           rdf:resource="http://purl.org/dc/dcmitype/StillImage" />
        <dc:title></dc:title>
      </cc:Work>
    </rdf:RDF>
  </metadata>
  <path
     id="path429_2_"
     class="st3"
     d="m 113.00001,80.49999 c 0,15 -27.200012,56 -27.200012,56 0,0 -27.2,-41.1 -27.2,-56 0,-14.9 12.3,-27.20001 27.2,-27.20001 15.000012,0.1 27.200012,12.20001 27.200012,27.20001"
     style="fill:#5188b3" />
  <g
     id="g4679-4-9_1_"
     transform="matrix(0.42702949,0,0,0.42702949,-430.75069,-1011.3235)">
    <path
       id="path6-3-7_1_"
       class="st18"
       d="m 1231.6,2534.2 c 6.6,-0.3 12.5,-6 14,-12.3 -6.5,0 -12.8,6.3 -14,12.3 z m -13.7,-7 c -7.7,9.1 -19.1,12.8 -29.2,18.5 -9.1,4.1 -17.4,11.8 -27.5,12.5 -0.3,6.6 2.4,12.5 3.4,18.8 6.6,-2.1 9.4,-1.4 12.5,4.8 6.3,8 21.2,3.4 22,-6.6 9.1,0.3 18.1,-0.3 26.8,-0.7 3.4,3.4 13.3,2.9 11.1,-3.9 -2.4,-14.3 -7,-28.2 -11.1,-42.2 -1,-2.6 -5.6,-0.5 -8,-1.2 z"
       style="fill:#ffffff;enable-background:new" />
    <path
       id="path8-6-3_1_"
       class="st3"
       d="m 1217.9,2541.2 c -13.3,7.7 -26.8,15.4 -40.8,22.2 1.4,3.4 10.4,1.4 15,2.1 10.8,0 22,0 32.8,0 -1.5,-8.3 -3.2,-17.3 -7,-24.3 z"
       style="fill:#5188b3" />
    <path
       id="path10-3-4_1_"
       class="st18"
       d="m 1240.3,2549.5 c 6,0 11.6,-1.7 17.1,-3.4 1.4,-8.4 -8,-3.9 -12.3,-2.1 -2.4,1 -4.8,2.8 -4.8,5.5 m 0,13.9 c 3.1,4.1 11.1,7.7 16,4.6 3.4,-5.3 -8.4,-4.6 -11.8,-6 -1.8,0 -3,0.7 -4.2,1.4 l 0,0 z"
       style="fill:#ffffff;enable-background:new" />
    <path
       id="path12-1-9_1_"
       class="st3"
       d="m 1178.2,2575.7 c 2.4,5.3 8.4,9.1 12.8,4.1 7.3,-7 -6.6,-3.4 -10.8,-4.1 -0.7,0 -1.3,0 -2,0 z"
       style="fill:#5188b3" />
  </g>
  <rect
     id="rect311_1_"
     x="0"
     y="0"
     class="st39"
     width="168.30002"
     height="45.300003"
     style="fill:#1076b3" />
  <g
     id="g640"
     transform="translate(-580.99999,-1345.4999)">
    <path
       class="st21"
       d="m 617.2,1377.4 0,-18.9 -5.7,2.1 0,-2.6 8.1,-3 0.4,0 0,22.4 -2.8,0 z"
       id="path642"
       style="fill:#ffffff" />
    <path
       class="st21"
       d="m 649.2,1361.1 -6.6,16.2 -3,0 6.5,-15.7 -10.6,0 0,-7.7 2.8,0 0,5.5 10.9,0 0,1.7 z"
       id="path644"
       style="fill:#ffffff" />
    <path
       class="st21"
       d="m 654,1361.6 -2.1,0 0,-2.3 4.9,0 0,18 -2.8,0 0,-15.7 z"
       id="path646"
       style="fill:#ffffff" />
    <path
       class="st21"
       d="m 660.8,1376.8 0.5,-2.1 c 1.6,0.4 3.1,0.7 4.3,0.7 1.7,0 3,-0.4 3.9,-1.2 0.9,-0.8 1.3,-2 1.3,-3.6 l 0,-8.9 -9.4,0 0,-2.3 12.2,0 0,10.6 c 0,2.5 -0.7,4.5 -2,5.8 -1.4,1.3 -3.2,1.9 -5.7,1.9 -1.5,-0.1 -3.2,-0.4 -5.1,-0.9 z"
       id="path648"
       style="fill:#ffffff" />
    <path
       class="st21"
       d="m 681.9,1374.2 c 1,0.4 2,0.7 3.1,1 1.1,0.2 2.1,0.4 3.1,0.4 1.5,0 2.8,-0.2 3.9,-0.6 1.1,-0.4 2.1,-1.1 2.7,-1.9 0.7,-0.9 1,-1.9 1,-3.2 l 0,-10.4 2.8,0 0,10.7 c 0,1.7 -0.5,3.1 -1.4,4.3 -0.9,1.2 -2.1,2 -3.7,2.6 -1.5,0.6 -3.3,0.9 -5.2,0.9 -1.5,0 -3,-0.2 -4.6,-0.5 -1.6,-0.4 -3.1,-0.9 -4.5,-1.6 l 0,-16.4 2.8,0 0,14.7 z m 5.2,-3.5 c 0.2,-0.7 0.3,-1.5 0.3,-2.4 l 0,-9 2.8,0 0,8.5 c 0,1 -0.1,1.9 -0.4,2.7 -0.3,0.8 -0.6,1.4 -1.2,2 l -2.4,-0.1 c 0.4,-0.4 0.7,-1 0.9,-1.7 z"
       id="path650"
       style="fill:#ffffff" />
    <path
       class="st21"
       d="m 714.1,1369.5 5.7,7.9 -3.2,0 -8,-11.1 c -1.1,0.7 -1.6,1.9 -1.6,3.5 l 0,7.5 -2.8,0 0,-6.5 c 0,-1.6 0.3,-2.8 0.8,-3.8 0.5,-1 1.3,-1.7 2.5,-2.3 l -3.9,-5.4 3.2,0 5.6,7.7 4.3,-7.7 3.2,0 -5.8,10.2 z"
       id="path652"
       style="fill:#ffffff" />
  </g>
</svg>
