<?xml version="1.0" encoding="UTF-8" standalone="no"?>
<svg
   xmlns:dc="http://purl.org/dc/elements/1.1/"
   xmlns:cc="http://creativecommons.org/ns#"
   xmlns:rdf="http://www.w3.org/1999/02/22-rdf-syntax-ns#"
   xmlns:svg="http://www.w3.org/2000/svg"
   xmlns="http://www.w3.org/2000/svg"
   id="svg7162"
   version="1.1"
   viewBox="0 0 54.48035 29.368751"
   height="111"
   width="205.90999">
  <defs
     id="defs7156" />
  <metadata
     id="metadata7159">
    <rdf:RDF>
      <cc:Work
         rdf:about="">
        <dc:format>image/svg+xml</dc:format>
        <dc:type
           rdf:resource="http://purl.org/dc/dcmitype/StillImage" />
        <dc:title></dc:title>
      </cc:Work>
    </rdf:RDF>
  </metadata>
  <g
     transform="translate(-95.840591,-115.25015)"
     id="layer1">
    <g
       id="g4966"
       transform="matrix(0.26458333,0,0,0.26458333,-697.44373,-51.733682)">
      <path
         id="path702"
         class="cls-4"
         d="m 3120.73,701.33 c 0,10.84 -19.53,40.79 -19.53,40.79 0,0 -19.54,-29.66 -19.54,-40.79 a 19.48,19.48 0 0 1 19.54,-19.53 c 10.83,-0.29 19.53,8.41 19.53,19.53"
         style="fill:#ec2426" />
      <rect
         id="rect901"
         class="cls-4"
         x="2998.24"
         y="631.12"
         width="201.25"
         height="45.349998"
         style="fill:#ec2426" />
      <path
         class="cls-13"
         d="m 3015.73,643.58 h 15.73 v 18.35 h -15.73 z m 10.76,14.48 v -10.63 h -5.79 v 10.63 z"
         id="path832"
         style="fill:#fffffd" />
      <path
         class="cls-13"
         d="m 3036.76,647.43 h -2.85 v -3.85 h 7.81 v 10.48 h -5 z"
         id="path834"
         style="fill:#fffffd" />
      <path
         class="cls-13"
         d="m 3046.05,662.14 a 19.07,19.07 0 0 1 -1.88,-0.35 v -3.71 a 18.16,18.16 0 0 0 2.23,0.14 1.92,1.92 0 0 0 1.53,-0.57 2.6,2.6 0 0 0 0.5,-1.74 v -8.48 h -3.21 v -3.85 h 8.18 v 12.73 a 7,7 0 0 1 -0.68,3.18 4.61,4.61 0 0 1 -1.94,2 6.25,6.25 0 0 1 -3.05,0.71 14.88,14.88 0 0 1 -1.68,-0.06 z"
         id="path836"
         style="fill:#fffffd" />
      <path
         class="cls-13"
         d="m 3056,661.52 0.76,-3.63 a 18.72,18.72 0 0 0 3.93,0.51 4.67,4.67 0 0 0 3.22,-1 3.64,3.64 0 0 0 1,-2.85 v -7.16 h -8.22 v -3.85 H 3070 v 10.16 q 0,4.37 -2.25,6.42 a 9,9 0 0 1 -6.31,2.06 23.43,23.43 0 0 1 -5.44,-0.66 z"
         id="path838"
         style="fill:#fffffd" />
      <path
         class="cls-13"
         d="m 3074.31,647.43 h -1.56 v -3.85 h 6.54 v 18.35 h -5 z"
         id="path840"
         style="fill:#fffffd" />
      <path
         class="cls-13"
         d="m 3097.79,643.58 v 3.85 h -3.25 v 14.5 h -5 v -14.5 h -7.69 v -3.85 z"
         id="path842"
         style="fill:#fffffd" />
      <path
         class="cls-13"
         d="m 3107.54,643.58 h 15.73 v 18.35 h -15.73 z m 10.76,14.48 v -10.63 h -5.79 v 10.63 z"
         id="path844"
         style="fill:#fffffd" />
      <path
         class="cls-13"
         d="m 3127.46,643.58 h 8.08 a 7.62,7.62 0 0 1 5.44,1.75 6.94,6.94 0 0 1 1.87,5.2 v 11.4 h -5 V 650.1 c 0,-1.78 -0.77,-2.67 -2.32,-2.67 h -3.13 v 14.5 h -5 z"
         id="path846"
         style="fill:#fffffd" />
      <path
         class="cls-13"
         d="m 3160.49,645.33 a 6.86,6.86 0 0 1 1.85,5.2 v 11.4 h -5 V 650.1 q 0,-2.67 -2.31,-2.67 h -2.35 a 18,18 0 0 0 -0.32,1.84 15,15 0 0 0 -0.12,1.82 v 5.19 a 7.06,7.06 0 0 1 -0.68,3.2 4.54,4.54 0 0 1 -1.94,2 6.26,6.26 0 0 1 -3,0.7 16.91,16.91 0 0 1 -2.37,-0.2 v -3.84 h 1 c 1.45,0 2.18,-0.77 2.18,-2.31 v -4.34 a 10.12,10.12 0 0 1 0.26,-2.14 6.35,6.35 0 0 1 0.77,-2 h -2.82 v -3.85 h 9.36 a 7.66,7.66 0 0 1 5.49,1.83 z"
         id="path848"
         style="fill:#fffffd" />
      <path
         class="cls-13"
         d="m 3167.09,651.72 a 8.5,8.5 0 0 1 0.61,-2.34 5.53,5.53 0 0 1 1.09,-1.77 1.1,1.1 0 0 1 0.21,-0.18 v -0.08 a 13.42,13.42 0 0 0 -1.42,0.34 14.08,14.08 0 0 0 -1.38,0.45 l -1,-3.59 a 22.64,22.64 0 0 1 4.14,-1 27.18,27.18 0 0 1 4.54,-0.4 q 4.24,0 6.43,2.15 2.19,2.15 2.21,6.33 v 10.35 h -8.09 v -3.85 h 3.11 v -7.17 a 4.69,4.69 0 0 0 -0.7,-2.77 2.3,2.3 0 0 0 -2,-1 c -1.66,0 -2.62,1.31 -2.87,3.91 l -1.07,10.87 h -4.91 z"
         id="path850"
         style="fill:#fffffd" />
    </g>
  </g>
</svg>
