<?xml version="1.0" encoding="UTF-8" standalone="no"?>
<!-- Created with Inkscape (http://www.inkscape.org/) -->

<svg
   xmlns:dc="http://purl.org/dc/elements/1.1/"
   xmlns:cc="http://creativecommons.org/ns#"
   xmlns:rdf="http://www.w3.org/1999/02/22-rdf-syntax-ns#"
   xmlns:svg="http://www.w3.org/2000/svg"
   xmlns="http://www.w3.org/2000/svg"
   xmlns:xlink="http://www.w3.org/1999/xlink"
   xmlns:sodipodi="http://sodipodi.sourceforge.net/DTD/sodipodi-0.dtd"
   xmlns:inkscape="http://www.inkscape.org/namespaces/inkscape"
   width="131.00002"
   height="116.8"
   viewBox="0 0 34.66042 30.903333"
   version="1.1"
   id="svg4130"
   inkscape:version="0.92.4 (5da689c313, 2019-01-14)"
   sodipodi:docname="harucon2020_marker_eshkol1_selected.svg">
  <defs
     id="defs4124">
    <clipPath
       id="SVGID_26_">
      <use
         height="100%"
         width="100%"
         y="0"
         x="0"
         xlink:href="#SVGID_25_"
         style="overflow:visible"
         id="use1552" />
    </clipPath>
    <clipPath
       id="SVGID_28_">
      <use
         height="100%"
         width="100%"
         y="0"
         x="0"
         xlink:href="#SVGID_27_"
         style="overflow:visible"
         id="use1564" />
    </clipPath>
    <rect
       id="SVGID_25_"
       x="1261.9"
       y="604.09998"
       width="36.799999"
       height="25.200001" />
    <rect
       id="SVGID_27_"
       x="1261.9"
       y="604.09998"
       width="36.799999"
       height="25.200001" />
  </defs>
  <sodipodi:namedview
     id="base"
     pagecolor="#ffffff"
     bordercolor="#666666"
     borderopacity="1.0"
     inkscape:pageopacity="0.0"
     inkscape:pageshadow="2"
     inkscape:zoom="1.4"
     inkscape:cx="-46.884467"
     inkscape:cy="36.91821"
     inkscape:document-units="px"
     inkscape:current-layer="g2633"
     showgrid="false"
     units="px"
     fit-margin-top="0"
     fit-margin-left="1.9"
     fit-margin-right="0"
     fit-margin-bottom="0"
     inkscape:window-width="1920"
     inkscape:window-height="1018"
     inkscape:window-x="-8"
     inkscape:window-y="-8"
     inkscape:window-maximized="1" />
  <metadata
     id="metadata4127">
    <rdf:RDF>
      <cc:Work
         rdf:about="">
        <dc:format>image/svg+xml</dc:format>
        <dc:type
           rdf:resource="http://purl.org/dc/dcmitype/StillImage" />
        <dc:title></dc:title>
      </cc:Work>
    </rdf:RDF>
  </metadata>
  <g
     inkscape:label="Layer 1"
     inkscape:groupmode="layer"
     id="layer1"
     transform="translate(-60.281533,-111.45905)">
    <g
       id="g2633"
       transform="matrix(0.26458333,0,0,0.26458333,-261.08138,-33.664909)">
      <path
         inkscape:connector-curvature="0"
         style="fill:#2ca5e8;fill-opacity:1"
         id="path429_3_"
         class="st2"
         d="m 1303.3,617.7 c 0,12.7 -23.2,47.6 -23.2,47.6 0,0 -23.2,-34.9 -23.2,-47.6 0,-12.7 10.4,-23.2 23.2,-23.2 12.9,0.1 23.2,10.4 23.2,23.2" />
      <rect
         style="fill:#ec2426"
         id="rect311_2_"
         x="1216.5"
         y="548.5"
         class="st2"
         width="129.10001"
         height="38.5" />
      <g
         id="g1035">
        <g
           id="g1033">
          <path
             style="fill:#fffffd"
             inkscape:connector-curvature="0"
             class="st11"
             d="m 1239.4,576.4 v -14.1 l -4.4,1.3 v -3.2 l 8.1,-2.9 h 0.4 v 18.9 z"
             id="path1021" />
          <path
             style="fill:#fffffd"
             inkscape:connector-curvature="0"
             class="st11"
             d="m 1266.5,563.5 -5.1,12.9 h -4.5 l 5.1,-12.3 h -8.3 v -7.6 h 4.2 v 4.4 h 8.6 z"
             id="path1023" />
          <path
             style="fill:#fffffd"
             inkscape:connector-curvature="0"
             class="st11"
             d="m 1269,564.1 h -1.3 v -3.3 h 5.6 v 15.6 h -4.2 v -12.3 z"
             id="path1025" />
          <path
             style="fill:#fffffd"
             inkscape:connector-curvature="0"
             class="st11"
             d="m 1275.5,576 0.6,-3.1 c 1.3,0.3 2.4,0.4 3.3,0.4 1.2,0 2.2,-0.3 2.7,-0.8 0.6,-0.5 0.9,-1.3 0.9,-2.4 V 564 h -7 v -3.3 h 11.2 v 8.6 c 0,2.5 -0.6,4.3 -1.9,5.5 -1.3,1.2 -3.1,1.7 -5.4,1.7 -1.2,0.1 -2.7,-0.1 -4.4,-0.5 z"
             id="path1027" />
          <path
             style="fill:#fffffd"
             inkscape:connector-curvature="0"
             class="st11"
             d="m 1294.9,572.5 c 0.7,0.3 1.5,0.6 2.4,0.8 0.9,0.2 1.6,0.3 2.4,0.3 1.9,0 3.4,-0.4 4.5,-1.2 1.1,-0.8 1.6,-2 1.6,-3.6 v -8 h 4.1 v 8.4 c 0,1.7 -0.4,3.1 -1.3,4.2 -0.9,1.1 -2.1,2 -3.6,2.6 -1.5,0.6 -3.2,0.9 -5.1,0.9 -1.5,0 -3,-0.2 -4.6,-0.5 -1.6,-0.4 -3,-0.9 -4.4,-1.5 v -14 h 4.1 v 11.6 z m 3.2,-2.5 c 0.1,-0.6 0.1,-1.3 0.1,-2 v -7.2 h 4.1 v 6.3 c 0,0.9 -0.1,1.7 -0.3,2.5 -0.2,0.8 -0.5,1.4 -0.8,1.8 h -3.4 c 0.1,-0.4 0.2,-0.8 0.3,-1.4 z"
             id="path1029" />
          <path
             style="fill:#fffffd"
             inkscape:connector-curvature="0"
             class="st11"
             d="m 1323.6,569.8 4.5,6.5 h -4.7 l -5.7,-8.2 c -0.2,0.3 -0.4,0.8 -0.4,1.3 v 7 h -4.1 v -5.1 c 0,-1.4 0.2,-2.6 0.7,-3.5 0.4,-0.9 1.2,-1.5 2.1,-2 l -3.4,-5 h 4.7 l 3.7,5.3 2.5,-5.3 h 4.7 z"
             id="path1031" />
        </g>
      </g>
      <g
         id="g1573">
        <g
           id="g1557">
          <defs
             id="defs1550" />
          <clipPath
             id="clipPath4108">
            <use
               height="100%"
               width="100%"
               y="0"
               x="0"
               xlink:href="#SVGID_25_"
               style="overflow:visible"
               id="use4106" />
          </clipPath>
          <path
             style="fill:#fbf2de;enable-background:new"
             inkscape:connector-curvature="0"
             class="st30"
             d="m 1290.4,621.8 -3.6,-13.4 -0.2,-0.9 c -0.3,-1 -1.3,-1.6 -2.3,-1.3 -0.8,0.2 -1.3,0.9 -1.4,1.7 l -19.5,10.6 c -0.2,-0.2 -0.5,-0.3 -0.9,-0.2 -0.5,0.1 -0.8,0.6 -0.7,1.1 l 0.4,1.3 0.7,2.7 0.4,1.3 c 0.1,0.5 0.6,0.8 1.1,0.7 0.3,-0.1 0.5,-0.3 0.6,-0.6 h 1.5 c 0.4,2.3 2.4,4.1 4.9,4.1 0.4,0 0.9,-0.1 1.3,-0.2 0.8,-0.2 1.6,-0.7 2.2,-1.3 0.8,-0.8 1.3,-1.8 1.4,-2.9 l 10.9,-0.3 c 0.4,0.7 1.2,1 2,0.8 1,-0.3 1.6,-1.3 1.3,-2.3 z m -16.7,4.3 c -0.6,0.6 -1.4,0.9 -2.2,0.9 -1.4,0 -2.6,-1 -3,-2.3 l 6,-0.2 c -0.1,0.6 -0.3,1.1 -0.8,1.6 z m -7.1,-5.1 17.3,-9.4 2.4,8.9 z m 0,0"
             clip-path="url(#SVGID_26_)"
             id="path1555" />
        </g>
        <path
           style="fill:#fbf2de;enable-background:new"
           inkscape:connector-curvature="0"
           class="st7"
           d="m 1293.2,614.8 4.5,-1.2 c 0.5,-0.1 0.8,-0.6 0.7,-1.1 -0.1,-0.5 -0.6,-0.8 -1.1,-0.7 l -4.5,1.2 c -0.5,0.1 -0.8,0.6 -0.7,1.1 0.1,0.6 0.6,0.9 1.1,0.7 z m 0,0"
           id="path1559" />
        <g
           id="g1571">
          <defs
             id="defs1562" />
          <clipPath
             id="clipPath4117">
            <use
               height="100%"
               width="100%"
               y="0"
               x="0"
               xlink:href="#SVGID_27_"
               style="overflow:visible"
               id="use4115" />
          </clipPath>
          <path
             style="fill:#fbf2de;enable-background:new"
             inkscape:connector-curvature="0"
             class="st31"
             d="m 1297.8,620.7 -4.5,-1.2 c -0.5,-0.1 -1,0.2 -1.1,0.7 -0.1,0.5 0.2,1 0.7,1.1 l 4.5,1.2 c 0.2,0 0.3,0 0.5,0 0.3,-0.1 0.6,-0.3 0.7,-0.7 0,-0.5 -0.3,-1 -0.8,-1.1 z m 0,0"
             clip-path="url(#SVGID_28_)"
             id="path1567" />
          <path
             style="fill:#fbf2de;enable-background:new"
             inkscape:connector-curvature="0"
             class="st31"
             d="m 1290.1,609.2 c 0.2,0 0.3,-0.1 0.4,-0.2 l 3.3,-3.3 c 0.4,-0.4 0.4,-0.9 0,-1.3 -0.4,-0.4 -0.9,-0.4 -1.3,0 l -3.3,3.3 c -0.4,0.4 -0.4,0.9 0,1.3 0.2,0.2 0.6,0.3 0.9,0.2 z m 0,0"
             clip-path="url(#SVGID_28_)"
             id="path1569" />
        </g>
      </g>
    </g>
  </g>
</svg>
