<?xml version="1.0" encoding="UTF-8" standalone="no"?>
<svg
   xmlns:dc="http://purl.org/dc/elements/1.1/"
   xmlns:cc="http://creativecommons.org/ns#"
   xmlns:rdf="http://www.w3.org/1999/02/22-rdf-syntax-ns#"
   xmlns:svg="http://www.w3.org/2000/svg"
   xmlns="http://www.w3.org/2000/svg"
   xmlns:xlink="http://www.w3.org/1999/xlink"
   version="1.1"
   id="svg5062"
   viewBox="0 0 63.500001 39.000008"
   height="39.000008"
   width="63.5">
  <defs
     id="defs5064">
    <clipPath
       id="SVGID_54_">
      <use
         id="use845"
         overflow="visible"
         xlink:href="#SVGID_53_"
         style="overflow:visible"
         x="0"
         y="0"
         width="100%"
         height="100%" />
    </clipPath>
    <clipPath
       id="SVGID_48_">
      <use
         id="use803"
         overflow="visible"
         xlink:href="#SVGID_47_"
         style="overflow:visible"
         x="0"
         y="0"
         width="100%"
         height="100%" />
    </clipPath>
  </defs>
  <metadata
     id="metadata5067">
    <rdf:RDF>
      <cc:Work
         rdf:about="">
        <dc:format>image/svg+xml</dc:format>
        <dc:type
           rdf:resource="http://purl.org/dc/dcmitype/StillImage" />
        <dc:title></dc:title>
      </cc:Work>
    </rdf:RDF>
  </metadata>
  <g
     transform="translate(-325.39285,-464.29077)"
     id="layer1">
    <rect
       id="rect793"
       height="13"
       width="63.5"
       y="464.29077"
       x="325.39285"
       style="fill:#141132" />
    <path
       id="path795"
       d="m 333.69285,468.69078 c 0.2,0 0.5,0 0.7,0.1 0.2,0.1 0.4,0.2 0.6,0.3 0.2,0.1 0.3,0.3 0.4,0.6 0.1,0.3 0.2,0.6 0.2,1 0,0.1 0,0.2 0,0.2 0,0.1 0,0.2 0,0.3 0,0.1 0,0.2 0,0.4 0,0.1 0,0.3 0,0.5 0,0.4 -0.1,0.7 -0.2,1 -0.1,0.3 -0.3,0.6 -0.6,0.8 -0.2,0.2 -0.5,0.4 -0.8,0.5 -0.3,0.1 -0.7,0.2 -1,0.2 -0.4,0 -0.7,-0.1 -1,-0.2 -0.3,-0.1 -0.6,-0.3 -0.8,-0.5 -0.2,-0.2 -0.4,-0.5 -0.6,-0.8 -0.1,-0.3 -0.2,-0.7 -0.2,-1 0,0 0,-0.1 0,-0.1 0,0 0,-0.1 0,-0.1 0,-0.2 0,-0.4 0,-0.5 0,-0.2 0.1,-0.4 0.1,-0.6 0,-0.1 0.1,-0.3 0.2,-0.4 0.1,-0.1 0.1,-0.3 0.2,-0.4 -0.2,0 -0.3,0 -0.5,-0.1 -0.2,0 -0.3,-0.1 -0.6,-0.2 0.1,-0.2 0.1,-0.4 0.2,-0.6 0.1,-0.2 0.1,-0.4 0.2,-0.6 0.2,0 0.3,0.1 0.5,0.1 0.1,0 0.2,0.1 0.4,0.1 0.1,0 0.2,0 0.4,0 0.1,0 0.3,0 0.4,0 l 0.2,0 1.6,0 z m -1.5,1.3 c -0.1,0.1 -0.1,0.2 -0.2,0.3 0,0.1 -0.1,0.2 -0.1,0.3 -0.1,0.2 -0.1,0.4 -0.1,0.6 0,0.2 0,0.4 0,0.6 0,0.1 0,0.2 0,0.3 0,0.1 0,0.2 0,0.3 0,0.2 0.1,0.3 0.1,0.5 0.1,0.1 0.1,0.3 0.2,0.4 0.1,0.1 0.2,0.2 0.3,0.2 0.1,0.1 0.3,0.1 0.4,0.1 0.1,0 0.3,0 0.4,-0.1 0.1,-0.1 0.3,-0.1 0.4,-0.2 0.1,-0.1 0.2,-0.2 0.2,-0.4 0.1,-0.1 0.1,-0.3 0.1,-0.5 0,-0.1 0,-0.2 0,-0.3 0,-0.1 0,-0.2 0,-0.3 0,-0.1 0,-0.2 0,-0.4 0,-0.1 0,-0.2 0,-0.3 0,-0.2 0,-0.4 -0.1,-0.6 0,-0.1 -0.1,-0.3 -0.1,-0.3 -0.1,-0.1 -0.2,-0.1 -0.3,-0.2 -0.1,0 -0.3,0 -0.5,0 l -0.7,0 z m 7.3,-1.3 0,5.9 -1.5,0 0,-4.6 -1,0 0,-1.2 2.5,0 z m 2.9,-1.6 0,1.6 3.2,0 c 0,0.1 0,0.2 0.1,0.2 0,0.1 0,0.1 0,0.2 0,0.1 0,0.2 0,0.3 0,0.1 0,0.2 0,0.3 l 0,1.2 c 0,0.4 -0.1,0.9 -0.3,1.3 -0.2,0.4 -0.4,0.8 -0.8,1.2 l -1.4,1.6 -1.1,-0.9 0.6,-0.7 c 0.3,-0.3 0.5,-0.6 0.7,-0.8 0.2,-0.2 0.3,-0.4 0.4,-0.5 0.1,-0.2 0.2,-0.3 0.2,-0.5 0,-0.1 0.1,-0.3 0.1,-0.5 l 0,-1 -3.3,0 0,-3 1.6,0 z m 6,1.3 c 0.3,0.1 0.7,0.2 0.9,0.2 0.3,0.1 0.5,0.1 0.7,0.2 0.2,0.1 0.4,0.1 0.6,0.2 0.2,0.1 0.4,0.1 0.6,0.2 0.2,0.1 0.4,0.2 0.5,0.3 0.1,0.1 0.2,0.2 0.3,0.4 0.1,0.1 0.1,0.3 0.2,0.5 0,0.2 0,0.4 0,0.5 l 0,2.3 c 0,0.1 0,0.2 0,0.3 0,0.1 0,0.2 0,0.3 0,0.1 0,0.2 -0.1,0.4 0,0.1 -0.1,0.3 -0.1,0.6 l -5.1,0 0,-1.2 3.8,0 0,-2.3 c 0,-0.1 0,-0.2 0,-0.3 0,-0.1 0,-0.2 -0.1,-0.2 0,-0.1 -0.1,-0.1 -0.1,-0.2 -0.1,0 -0.2,-0.1 -0.3,-0.1 -0.1,-0.1 -0.3,-0.1 -0.5,-0.2 -0.2,-0.1 -0.4,-0.1 -0.6,-0.2 l -0.5,1.1 0.7,0.4 -0.7,1.1 -1.8,-1.1 1.6,-3.2 z m 10.2,1.6 c -0.2,0 -0.4,0 -0.5,0 -0.1,0 -0.3,0 -0.4,0 -0.1,0 -0.3,0 -0.4,-0.1 -0.1,0 -0.3,-0.1 -0.5,-0.1 0.1,-0.2 0.1,-0.4 0.2,-0.6 0.1,-0.2 0.1,-0.4 0.2,-0.6 0.2,0.1 0.4,0.1 0.5,0.1 0.1,0 0.3,0.1 0.4,0.1 0.1,0 0.3,0 0.4,0 0.1,0 0.3,0 0.5,0 l 1.2,0 c 0.2,0 0.5,0 0.7,0.1 0.2,0.1 0.4,0.2 0.6,0.3 0.2,0.1 0.3,0.3 0.4,0.6 0.1,0.3 0.2,0.6 0.2,1 l 0,3.9 -1.5,0 0,-3.6 c 0,-0.2 0,-0.4 0,-0.6 0,-0.1 -0.1,-0.3 -0.1,-0.3 -0.1,-0.1 -0.2,-0.1 -0.3,-0.2 -0.1,0 -0.3,0 -0.5,0 l -1.1,0 z m -1.7,2.9 c 0,-0.2 0,-0.3 0,-0.4 0,-0.1 0,-0.3 0,-0.4 0,-0.1 0,-0.2 0,-0.4 0,-0.1 0,-0.2 0.1,-0.4 0.3,0 0.5,0.1 0.8,0.1 0.3,0 0.5,0.1 0.8,0.2 0,0.2 -0.1,0.4 -0.1,0.6 0,0.2 0,0.5 0,0.7 l 0,1.7 -1.6,0 0,-1.7 z m 10.3,-4.2 c 0.2,0 0.5,0 0.7,0.1 0.2,0.1 0.4,0.2 0.6,0.3 0.2,0.1 0.3,0.3 0.4,0.6 0.1,0.3 0.2,0.6 0.2,1 0,0.1 0,0.2 0,0.2 0,0.1 0,0.2 0,0.3 0,0.1 0,0.2 0,0.4 0,0.1 0,0.3 0,0.5 0,0.4 -0.1,0.7 -0.2,1 -0.1,0.3 -0.3,0.6 -0.6,0.8 -0.2,0.2 -0.5,0.4 -0.8,0.5 -0.3,0.1 -0.7,0.2 -1,0.2 -0.4,0 -0.7,-0.1 -1,-0.2 -0.3,-0.1 -0.6,-0.3 -0.8,-0.5 -0.2,-0.2 -0.4,-0.5 -0.6,-0.8 -0.1,-0.3 -0.2,-0.7 -0.2,-1 0,0 0,-0.1 0,-0.1 0,0 0,-0.1 0,-0.1 0,-0.2 0,-0.4 0,-0.5 0,-0.2 0.1,-0.4 0.1,-0.6 0,-0.1 0.1,-0.3 0.2,-0.4 0.1,-0.1 0.1,-0.3 0.2,-0.4 -0.2,0 -0.3,0 -0.5,-0.1 -0.2,0 -0.3,-0.1 -0.6,-0.2 0.1,-0.2 0.1,-0.4 0.2,-0.6 0.1,-0.2 0.1,-0.4 0.2,-0.6 0.2,0 0.3,0.1 0.5,0.1 0.1,0 0.2,0.1 0.4,0.1 0.1,0 0.2,0 0.4,0 0.1,0 0.3,0 0.4,0 l 0.2,0 1.6,0 z m -1.6,1.3 c -0.1,0.1 -0.1,0.2 -0.2,0.3 0,0.1 -0.1,0.2 -0.1,0.3 -0.1,0.2 -0.1,0.4 -0.1,0.6 0,0.2 0,0.4 0,0.6 0,0.1 0,0.2 0,0.3 0,0.1 0,0.2 0,0.3 0,0.2 0.1,0.3 0.1,0.5 0.1,0.1 0.1,0.3 0.2,0.4 0.1,0.1 0.2,0.2 0.3,0.2 0.1,0.1 0.3,0.1 0.4,0.1 0.1,0 0.3,0 0.4,-0.1 0.1,-0.1 0.3,-0.1 0.4,-0.2 0.1,-0.1 0.2,-0.2 0.2,-0.4 0.1,-0.1 0.1,-0.3 0.1,-0.5 0,-0.1 0,-0.2 0,-0.3 0,-0.1 0,-0.2 0,-0.3 0,-0.1 0,-0.2 0,-0.4 0,-0.1 0,-0.2 0,-0.3 0,-0.2 0,-0.4 -0.1,-0.6 0,-0.1 -0.1,-0.3 -0.1,-0.3 -0.1,-0.1 -0.2,-0.1 -0.3,-0.2 -0.1,0 -0.3,0 -0.5,0 l -0.7,0 z m 7.5,-1.3 0,2.1 c 0,0.2 0,0.4 0,0.5 0,0.1 0,0.3 0,0.4 0,0.1 0,0.2 0,0.3 0,0.1 0,0.2 -0.1,0.3 l -1.5,-0.2 c 0,-0.1 0,-0.2 0.1,-0.3 0,-0.1 0,-0.2 0,-0.3 0,-0.1 0,-0.2 0,-0.4 0,-0.1 0,-0.3 0,-0.5 l 0,-0.8 -1.3,0 0,-1.2 2.8,0 z m 4.6,0 0,0.8 c 0,0.1 0,0.2 0,0.2 0,0.1 0,0.2 0,0.3 0,0.1 0,0.3 0.1,0.5 0,0.2 0,0.4 0.1,0.7 0,0.3 0.1,0.6 0.1,0.9 0,0.3 0.1,0.7 0.1,1.2 0,0.1 0,0.1 0,0.2 0,0.1 0,0.1 0,0.2 0,0.1 0,0.2 0,0.2 0,0.1 0,0.1 0,0.2 0,0.1 0,0.1 0,0.2 0,0.1 0,0.2 0,0.3 l -3.8,0 0,-1.2 2.4,0 c 0,-0.1 0,-0.2 0,-0.4 0,-0.2 0,-0.4 -0.1,-0.6 0,-0.2 -0.1,-0.5 -0.1,-0.7 0,-0.3 -0.1,-0.5 -0.1,-0.7 0,-0.2 -0.1,-0.4 -0.1,-0.6 0,-0.2 0,-0.3 0,-0.4 l -1.4,0 0,-1.2 2.8,0 z m 3.6,1.3 c -0.2,0 -0.4,0 -0.5,0 -0.1,0 -0.3,0 -0.4,0 -0.1,0 -0.3,0 -0.4,-0.1 -0.1,0 -0.3,-0.1 -0.5,-0.1 0.1,-0.2 0.1,-0.4 0.2,-0.6 0.1,-0.2 0.1,-0.4 0.2,-0.6 0.2,0.1 0.4,0.1 0.5,0.1 0.1,0 0.3,0.1 0.4,0.1 0.1,0 0.3,0 0.4,0 0.1,0 0.3,0 0.5,0 l 0.5,0 c 0.2,0 0.5,0 0.7,0.1 0.2,0.1 0.4,0.2 0.6,0.3 0.2,0.1 0.3,0.4 0.4,0.6 0.1,0.3 0.2,0.6 0.2,1 0,0.2 0,0.4 0,0.6 0,0.2 0,0.4 0,0.6 0,0.2 0,0.5 0,0.7 0,0.2 0,0.5 0,0.8 0,0.1 0,0.2 0,0.2 0,0.1 0,0.2 0,0.2 0,0.1 0,0.2 0,0.3 0,0.1 0,0.2 -0.1,0.4 l -4.9,0 0,-1.2 3.5,0 c 0,-0.2 0,-0.4 0,-0.6 0,-0.2 0,-0.4 0,-0.6 0,-0.2 0,-0.4 0,-0.6 0,-0.2 0,-0.4 0,-0.6 0,-0.2 0,-0.4 0,-0.6 0,-0.1 -0.1,-0.3 -0.1,-0.3 -0.1,-0.1 -0.2,-0.1 -0.3,-0.2 -0.1,0 -0.3,0 -0.5,0 l -0.4,0 z"
       style="fill:#f7d786" />
    <g
       transform="translate(0.050003,0)"
       id="g5110">
      <g
         transform="translate(-49.107153,223.09078)"
         id="g797">
        <defs
           id="defs799">
          <rect
             id="SVGID_47_"
             x="24.700001"
             y="79.099998"
             width="554"
             height="1157.5" />
        </defs>
        <clipPath
           id="clipPath5390">
          <use
             height="100%"
             width="100%"
             y="0"
             x="0"
             style="overflow:visible"
             xlink:href="#SVGID_47_"
             overflow="visible"
             id="use5392" />
        </clipPath>
        <path
           style="fill:#141132"
           clip-path="url(#SVGID_48_)"
           d="m 414,264.1 c 0,4.3 -7.8,16.1 -7.8,16.1 0,0 -7.8,-11.8 -7.8,-16.1 0,-4.3 3.5,-7.8 7.8,-7.8 4.3,0 7.8,3.5 7.8,7.8"
           id="path805" />
      </g>
      <g
         transform="translate(-49.107153,223.09078)"
         id="g839">
        <defs
           id="defs841">
          <rect
             id="SVGID_53_"
             x="400.89999"
             y="259.39999"
             width="10.7"
             height="9.6000004" />
        </defs>
        <clipPath
           id="clipPath5420">
          <use
             height="100%"
             width="100%"
             y="0"
             x="0"
             style="overflow:visible"
             xlink:href="#SVGID_53_"
             overflow="visible"
             id="use5422" />
        </clipPath>
        <path
           style="fill:#ffffff"
           clip-path="url(#SVGID_54_)"
           d="m 408.2,264.4 -0.5,-0.8 0.5,-0.3 0.5,0.8 -0.5,0.3 z m -1.5,-2.1 0.5,-0.3 0.6,0.8 -0.5,0.3 -0.6,-0.8 z m 2.8,-2 0,0 -0.5,-0.7 c -0.1,-0.2 -0.4,-0.2 -0.5,-0.1 l -2,1.4 0.4,0.6 -0.5,0.3 -0.4,-0.6 -4.9,3.4 c -0.2,0.1 -0.2,0.4 -0.1,0.5 l 2.5,3.6 c 0.1,0.2 0.4,0.2 0.5,0.1 l 4.9,-3.4 -0.4,-0.6 0.5,-0.3 0.4,0.6 2,-1.4 c 0.2,-0.1 0.2,-0.4 0.1,-0.5 l -0.5,-0.7 c 0,0 0,0 0,0"
           id="path847" />
      </g>
    </g>
  </g>
</svg>
