<?xml version="1.0" encoding="UTF-8" standalone="no"?>
<svg
   xmlns:dc="http://purl.org/dc/elements/1.1/"
   xmlns:cc="http://creativecommons.org/ns#"
   xmlns:rdf="http://www.w3.org/1999/02/22-rdf-syntax-ns#"
   xmlns:svg="http://www.w3.org/2000/svg"
   xmlns="http://www.w3.org/2000/svg"
   width="2230.0625"
   height="1164.2633"
   viewBox="0 0 2230.0624 1164.2634"
   id="svg5839"
   version="1.1">
  <defs
     id="defs5841" />
  <metadata
     id="metadata5844">
    <rdf:RDF>
      <cc:Work
         rdf:about="">
        <dc:format>image/svg+xml</dc:format>
        <dc:type
           rdf:resource="http://purl.org/dc/dcmitype/StillImage" />
        <dc:title></dc:title>
      </cc:Work>
    </rdf:RDF>
  </metadata>
  <polygon
     transform="translate(-149.90419,-1490.1669)"
     id="polygon3_2_"
     class="st1"
     points="1440.1,2453.2 1520.2,2510.9 1363.4,2590.1 1160.4,2506.1 1183.1,2500.4 837.6,2339.9 993.6,2230 639.9,2057 461.4,2150.1 185.6,1984.8 803.2,1694.9 1233.1,1882.8 1384.5,1792.7 1520.2,1728.1 1445.8,1692.1 1586.3,1624.6 2042.6,1820.3 2105.1,1802.5 2324,1913.7 2215.6,1969.3 2099.9,1916.5 1644.8,2150.1 1484.8,2342.1 1535.1,2385.4 "
     style="fill:#bbbade" />
  <polygon
     transform="translate(-149.90419,-1490.1669)"
     id="polygon5_2_"
     class="st7"
     points="756,1874.3 837.6,1901.5 1002.9,1981.1 889.3,2067.2 782.5,2019.7 641.6,1940.9 "
     style="fill:#ee2148" />
  <polygon
     transform="translate(-149.90419,-1490.1669)"
     id="polygon7_2_"
     class="st8"
     points="1904.6,1810.5 1565.2,1660.3 1565.2,1705 1904.6,1853.2 "
     style="opacity:1;fill:#ffffff;enable-background:new" />
  <polygon
     transform="translate(-149.90419,-1490.1669)"
     id="polygon9_2_"
     class="st9"
     points="1904.6,1810.5 1565.2,1660.3 1565.2,1705 1904.6,1853.2 "
     style="fill:none;stroke:#1a1631;stroke-width:0.23999999" />
  <polygon
     transform="translate(-149.90419,-1490.1669)"
     id="polygon11_2_"
     class="st8"
     points="808,2095.2 826.6,2084.6 826.6,2128.5 808,2135.4 "
     style="opacity:1;fill:#ffffff;enable-background:new" />
  <polygon
     transform="translate(-149.90419,-1490.1669)"
     id="polygon13_2_"
     class="st9"
     points="808,2095.2 826.6,2084.6 826.6,2128.5 808,2135.4 "
     style="fill:none;stroke:#1a1631;stroke-width:0.23999999" />
  <polygon
     transform="translate(-149.90419,-1490.1669)"
     id="polygon15_2_"
     class="st8"
     points="1022,1961.2 757.7,1840.6 757.7,1885.3 1022,2006.7 "
     style="opacity:1;fill:#ffffff;enable-background:new" />
  <polygon
     transform="translate(-149.90419,-1490.1669)"
     id="polygon17_2_"
     class="st9"
     points="1022,1961.2 757.7,1840.6 757.7,1885.3 1022,2006.7 "
     style="fill:none;stroke:#1a1631;stroke-width:0.23999999" />
  <polygon
     transform="translate(-149.90419,-1490.1669)"
     id="polygon19_2_"
     class="st8"
     points="812.9,1700.5 1233.1,1884.4 1233.1,1843.9 811.2,1666 "
     style="opacity:1;fill:#ffffff;enable-background:new" />
  <polygon
     transform="translate(-149.90419,-1490.1669)"
     id="polygon21_2_"
     class="st9"
     points="812.9,1700.5 1233.1,1884.4 1233.1,1843.9 811.2,1666 "
     style="fill:none;stroke:#1a1631;stroke-width:0.23999999" />
  <polygon
     transform="translate(-149.90419,-1490.1669)"
     id="polygon23_2_"
     class="st8"
     points="1022.3,2006.7 1022.3,1960.9 868.2,2048.6 909,2069.2 "
     style="opacity:1;fill:#ffffff;enable-background:new" />
  <polygon
     transform="translate(-149.90419,-1490.1669)"
     id="polygon25_2_"
     class="st9"
     points="1022.3,2006.7 1022.3,1960.9 868.2,2048.6 909,2069.2 "
     style="fill:none;stroke:#1a1631;stroke-width:0.23999999" />
  <polygon
     transform="translate(-149.90419,-1490.1669)"
     id="polygon27_2_"
     class="st8"
     points="2046,1795.6 1654.9,1621.8 1654.9,1660.3 2046,1832.1 "
     style="opacity:1;fill:#ffffff;enable-background:new" />
  <polygon
     transform="translate(-149.90419,-1490.1669)"
     id="polygon29_2_"
     class="st9"
     points="2046,1795.6 1654.9,1621.8 1654.9,1660.3 2046,1832.1 "
     style="fill:none;stroke:#1a1631;stroke-width:0.23999999" />
  <polygon
     transform="translate(-149.90419,-1490.1669)"
     id="polygon31_2_"
     class="st8"
     points="461.4,2096.4 185.6,1927.5 185.6,1984.8 461.4,2150.1 "
     style="opacity:1;fill:#ffffff;enable-background:new" />
  <polygon
     transform="translate(-149.90419,-1490.1669)"
     id="polygon33_2_"
     class="st9"
     points="461.4,2096.4 185.6,1927.5 185.6,1984.8 461.4,2150.1 "
     style="fill:none;stroke:#1a1631;stroke-width:0.23999999" />
  <polygon
     transform="translate(-149.90419,-1490.1669)"
     id="polygon35_2_"
     class="st8"
     points="993.6,2230 639.9,2057 639.9,2011.2 993.1,2186.6 "
     style="opacity:1;fill:#ffffff;enable-background:new" />
  <polygon
     transform="translate(-149.90419,-1490.1669)"
     id="polygon37_2_"
     class="st9"
     points="993.6,2230 639.9,2057 639.9,2011.2 993.1,2186.6 "
     style="fill:none;stroke:#1a1631;stroke-width:0.23999999" />
  <polygon
     transform="translate(-149.90419,-1490.1669)"
     id="polygon39_2_"
     class="st8"
     points="882.3,1941.7 882.3,1899.9 741.4,1978.3 782.5,1998.6 "
     style="opacity:1;fill:#ffffff;enable-background:new" />
  <polygon
     transform="translate(-149.90419,-1490.1669)"
     id="polygon41_2_"
     class="st9"
     points="882.3,1941.7 882.3,1899.9 741.4,1978.3 782.5,1998.6 "
     style="fill:none;stroke:#1a1631;stroke-width:0.23999999" />
  <path
     id="path43_2_"
     class="st8"
     d="m 925.59581,960.23308 107.99999,49.99992 15.4,-29.59992 -123.39999,-58.5 0,38.1 z m -134.7,-101.5 -103.2,-48.7 0,39.9 103.2,47.8 0,-39 z"
     style="opacity:1;fill:#ffffff;enable-background:new" />
  <path
     id="path45_2_"
     class="st9"
     d="m 925.59581,960.23308 107.99999,49.99992 15.4,-29.59992 -123.39999,-58.5 0,38.1 z m -134.7,-101.5 -103.2,-48.7 0,39.9 103.2,47.8 0,-39 z"
     style="fill:none;stroke:#1a1631;stroke-width:0.23999999" />
  <polygon
     transform="translate(-149.90419,-1490.1669)"
     id="polygon47_2_"
     class="st8"
     points="1535.1,2491.1 1412.2,2435.5 1413.4,2470.3 1535.1,2529.1 "
     style="opacity:1;fill:#ffffff;enable-background:new" />
  <polygon
     transform="translate(-149.90419,-1490.1669)"
     id="polygon49_2_"
     class="st9"
     points="1535.1,2491.1 1412.2,2435.5 1413.4,2470.3 1535.1,2529.1 "
     style="fill:none;stroke:#1a1631;stroke-width:0.23999999" />
  <polygon
     transform="translate(-149.90419,-1490.1669)"
     id="polygon51_2_"
     class="st8"
     points="1557.4,2362.7 1473.5,2320.2 1474.2,2363.5 1557.4,2405.7 "
     style="opacity:1;fill:#ffffff;enable-background:new" />
  <polygon
     transform="translate(-149.90419,-1490.1669)"
     id="polygon53_2_"
     class="st9"
     points="1557.4,2362.7 1473.5,2320.2 1474.2,2363.5 1557.4,2405.7 "
     style="fill:none;stroke:#1a1631;stroke-width:0.23999999" />
  <polygon
     transform="translate(-149.90419,-1490.1669)"
     id="polygon55_2_"
     class="st10"
     points="2344.3,1894.2 2103.1,1771.6 2103.1,1802.9 2317.9,1912.5 "
     style="opacity:1;fill:#ffffff;enable-background:new" />
  <polygon
     transform="translate(-149.90419,-1490.1669)"
     id="polygon57_2_"
     class="st9"
     points="2344.3,1894.2 2103.1,1771.6 2103.1,1802.9 2317.9,1912.5 "
     style="fill:none;stroke:#1a1631;stroke-width:0.23999999" />
  <polygon
     transform="translate(-149.90419,-1490.1669)"
     id="polygon59_2_"
     class="st8"
     points="2215.6,1951.4 2116.1,1901.9 2116.1,1938.4 2215.6,1989.3 "
     style="opacity:1;fill:#ffffff;enable-background:new" />
  <polygon
     transform="translate(-149.90419,-1490.1669)"
     id="polygon61_2_"
     class="st9"
     points="2215.6,1951.4 2116.1,1901.9 2116.1,1938.4 2215.6,1989.3 "
     style="fill:none;stroke:#1a1631;stroke-width:0.23999999" />
  <polygon
     transform="translate(-149.90419,-1490.1669)"
     id="polygon63_2_"
     class="st8"
     points="1044.3,2124.8 589.3,1899.1 589.3,1944.6 1044.3,2166.7 "
     style="opacity:1;fill:#ffffff;enable-background:new" />
  <polygon
     transform="translate(-149.90419,-1490.1669)"
     id="polygon65_2_"
     class="st9"
     points="1044.3,2124.8 589.3,1899.1 589.3,1944.6 1044.3,2166.7 "
     style="fill:none;stroke:#1a1631;stroke-width:0.23999999" />
  <polygon
     transform="translate(-149.90419,-1490.1669)"
     id="polygon67_2_"
     class="st8"
     points="993.6,2230 993.1,2186.6 837.6,2300.2 872.2,2315.7 "
     style="opacity:1;fill:#ffffff;enable-background:new" />
  <polygon
     transform="translate(-149.90419,-1490.1669)"
     id="polygon69_2_"
     class="st9"
     points="993.6,2230 993.1,2186.6 837.6,2300.2 872.2,2315.7 "
     style="fill:none;stroke:#1a1631;stroke-width:0.23999999" />
  <polygon
     transform="translate(-149.90419,-1490.1669)"
     id="polygon71_2_"
     class="st8"
     points="1250.1,2469.2 1250.1,2421.7 1151.4,2481.3 1151.4,2519.8 "
     style="opacity:1;fill:#ffffff;enable-background:new" />
  <polygon
     transform="translate(-149.90419,-1490.1669)"
     id="polygon73_2_"
     class="st9"
     points="1250.1,2469.2 1250.1,2421.7 1151.4,2481.3 1151.4,2519.8 "
     style="fill:none;stroke:#1a1631;stroke-width:0.23999999" />
  <polygon
     transform="translate(-149.90419,-1490.1669)"
     id="polygon75_2_"
     class="st8"
     points="1343.4,2577.1 1151.4,2482.1 1151.4,2519.5 1343.4,2618.8 "
     style="opacity:1;fill:#ffffff;enable-background:new" />
  <polygon
     transform="translate(-149.90419,-1490.1669)"
     id="polygon77_2_"
     class="st9"
     points="1343.4,2577.1 1151.4,2482.1 1151.4,2519.5 1343.4,2618.8 "
     style="fill:none;stroke:#1a1631;stroke-width:0.23999999" />
  <polygon
     transform="translate(-149.90419,-1490.1669)"
     id="polygon79_2_"
     class="st8"
     points="1343.4,2618.8 1343.4,2577.1 1535.1,2491.1 1535.1,2529.1 "
     style="opacity:1;fill:#ffffff;enable-background:new" />
  <polygon
     transform="translate(-149.90419,-1490.1669)"
     id="polygon81_2_"
     class="st9"
     points="1343.4,2618.8 1343.4,2577.1 1535.1,2491.1 1535.1,2529.1 "
     style="fill:none;stroke:#1a1631;stroke-width:0.23999999" />
  <polygon
     transform="translate(-149.90419,-1490.1669)"
     id="polygon83_2_"
     class="st8"
     points="1451.1,2453.2 1411.7,2435.5 1557.4,2362.7 1557.4,2405.7 "
     style="opacity:1;fill:#ffffff;enable-background:new" />
  <polygon
     transform="translate(-149.90419,-1490.1669)"
     id="polygon85_2_"
     class="st9"
     points="1451.1,2453.2 1411.7,2435.5 1557.4,2362.7 1557.4,2405.7 "
     style="fill:none;stroke:#1a1631;stroke-width:0.23999999" />
  <polygon
     transform="translate(-149.90419,-1490.1669)"
     id="polygon87_2_"
     class="st8"
     points="1656.6,2114.7 2116.1,1901.9 2116.1,1938.4 1671.5,2154.9 1501.4,2334.3 1473.5,2320.2 "
     style="opacity:1;fill:#ffffff;enable-background:new" />
  <polygon
     transform="translate(-149.90419,-1490.1669)"
     id="polygon89_2_"
     class="st9"
     points="1656.6,2114.7 2116.1,1901.9 2116.1,1938.4 1671.5,2154.9 1501.4,2334.3 1473.5,2320.2 "
     style="fill:none;stroke:#1a1631;stroke-width:0.23999999" />
  <polygon
     transform="translate(-149.90419,-1490.1669)"
     id="polygon91_2_"
     class="st8"
     points="1568.9,2066.3 1987,1871.1 1987,1908.4 1583.5,2106.2 1504.2,2184.1 1502.7,2140.3 "
     style="opacity:1;fill:#ffffff;enable-background:new" />
  <polygon
     transform="translate(-149.90419,-1490.1669)"
     id="polygon93_2_"
     class="st9"
     points="1568.9,2066.3 1987,1871.1 1987,1908.4 1583.5,2106.2 1504.2,2184.1 1502.7,2140.3 "
     style="fill:none;stroke:#1a1631;stroke-width:0.23999999" />
  <polygon
     transform="translate(-149.90419,-1490.1669)"
     id="polygon95_2_"
     class="st8"
     points="2214.7,1990.4 2214.7,1952.7 2342.6,1892.2 2342.6,1930.3 "
     style="opacity:1;fill:#ffffff;enable-background:new" />
  <polygon
     transform="translate(-149.90419,-1490.1669)"
     id="polygon97_2_"
     class="st9"
     points="2214.7,1990.4 2214.7,1952.7 2342.6,1892.2 2342.6,1930.3 "
     style="fill:none;stroke:#1a1631;stroke-width:0.23999999" />
  <polygon
     transform="translate(-149.90419,-1490.1669)"
     id="polygon99_2_"
     class="st8"
     points="2069,1821.5 2069,1784.9 2046,1796.4 2046,1832.1 "
     style="opacity:1;fill:#ffffff;enable-background:new" />
  <polygon
     transform="translate(-149.90419,-1490.1669)"
     id="polygon101_2_"
     class="st9"
     points="2069,1821.5 2069,1784.9 2046,1796.4 2046,1832.1 "
     style="fill:none;stroke:#1a1631;stroke-width:0.23999999" />
  <polygon
     transform="translate(-149.90419,-1490.1669)"
     id="polygon103_2_"
     class="st8"
     points="1520.2,1733.8 1368.4,1808.2 1233.1,1882.8 1233.1,1843.9 1353.2,1762.7 1516,1689.2 "
     style="opacity:1;fill:#ffffff;enable-background:new" />
  <polygon
     transform="translate(-149.90419,-1490.1669)"
     id="polygon105_2_"
     class="st9"
     points="1520.2,1733.8 1368.4,1808.2 1233.1,1882.8 1233.1,1843.9 1353.2,1762.7 1516,1689.2 "
     style="fill:none;stroke:#1a1631;stroke-width:0.23999999" />
  <polygon
     transform="translate(-149.90419,-1490.1669)"
     id="polygon107_2_"
     class="st8"
     points="812.9,1700.5 811.2,1666 185.6,1927.5 239.3,1960.4 "
     style="opacity:1;fill:#ffffff;enable-background:new" />
  <polygon
     transform="translate(-149.90419,-1490.1669)"
     id="polygon109_2_"
     class="st9"
     points="812.9,1700.5 811.2,1666 185.6,1927.5 239.3,1960.4 "
     style="fill:none;stroke:#1a1631;stroke-width:0.23999999" />
  <polygon
     transform="translate(-149.90419,-1490.1669)"
     id="polygon111_2_"
     class="st8"
     points="639.9,2057 639.9,2011.2 461.4,2096.4 461.4,2150.1 "
     style="opacity:1;fill:#ffffff;enable-background:new" />
  <polygon
     transform="translate(-149.90419,-1490.1669)"
     id="polygon113_2_"
     class="st9"
     points="639.9,2057 639.9,2011.2 461.4,2096.4 461.4,2150.1 "
     style="fill:none;stroke:#1a1631;stroke-width:0.23999999" />
  <polygon
     transform="translate(-149.90419,-1490.1669)"
     id="polygon115_2_"
     class="st8"
     points="663.5,1935.6 623.7,1915.7 758,1841.4 758,1887.3 "
     style="opacity:1;fill:#ffffff;enable-background:new" />
  <polygon
     transform="translate(-149.90419,-1490.1669)"
     id="polygon117_2_"
     class="st9"
     points="663.5,1935.6 623.7,1915.7 758,1841.4 758,1887.3 "
     style="fill:none;stroke:#1a1631;stroke-width:0.23999999" />
  <polygon
     transform="translate(-149.90419,-1490.1669)"
     id="polygon119_2_"
     class="st8"
     points="861.2,2052.2 879.8,2041.3 879.8,2085.1 861.2,2098.1 "
     style="opacity:1;fill:#ffffff;enable-background:new" />
  <polygon
     transform="translate(-149.90419,-1490.1669)"
     id="polygon121_2_"
     class="st9"
     points="861.2,2052.2 879.8,2041.3 879.8,2085.1 861.2,2098.1 "
     style="fill:none;stroke:#1a1631;stroke-width:0.23999999" />
  <polygon
     transform="translate(-149.90419,-1490.1669)"
     id="polygon123_2_"
     class="st8"
     points="1204.2,2038.8 1044.3,2124.8 1044.3,2166.7 1204.2,2080.6 1244.9,2103.7 1246.4,2064.7 "
     style="opacity:1;fill:#ffffff;enable-background:new" />
  <polygon
     transform="translate(-149.90419,-1490.1669)"
     id="polygon125_2_"
     class="st9"
     points="1204.2,2038.8 1044.3,2124.8 1044.3,2166.7 1204.2,2080.6 1244.9,2103.7 1246.4,2064.7 "
     style="fill:none;stroke:#1a1631;stroke-width:0.23999999" />
  <polygon
     transform="translate(-149.90419,-1490.1669)"
     id="polygon127_2_"
     class="st8"
     points="1592.8,1948.2 1354.4,1836.9 1331,1847.9 1571.7,1951.9 "
     style="opacity:1;fill:#ffffff;enable-background:new" />
  <polygon
     transform="translate(-149.90419,-1490.1669)"
     id="polygon129_2_"
     class="st11"
     points="1592.8,1948.2 1354.4,1836.9 1331,1847.9 1571.7,1951.9 "
     style="fill:none;stroke:#1a1631;stroke-width:0.47999999" />
  <path
     id="path139_2_"
     class="st8"
     d="m 1176.8958,346.63308 -23.9,9.8 250.5,113.3 18.3,-8.1 c 1.1,1.6 -244.9,-115 -244.9,-115"
     style="opacity:1;fill:#ffffff;enable-background:new" />
  <path
     id="path141_2_"
     class="st11"
     d="m 1176.8958,346.63308 -23.9,9.8 250.5,113.3 18.3,-8.1 c 1.1,1.6 -244.9,-115 -244.9,-115 l 0,0 z"
     style="fill:none;stroke:#1a1631;stroke-width:0.47999999" />
  <polygon
     transform="translate(-149.90419,-1490.1669)"
     id="polygon143_2_"
     class="st8"
     points="1530.3,1942.6 1296.8,1836.9 1263.2,1853.2 1509.6,1962 "
     style="opacity:1;fill:#ffffff;enable-background:new" />
  <polygon
     transform="translate(-149.90419,-1490.1669)"
     id="polygon145_2_"
     class="st11"
     points="1530.3,1942.6 1296.8,1836.9 1263.2,1853.2 1509.6,1962 "
     style="fill:none;stroke:#1a1631;stroke-width:0.47999999" />
  <polygon
     transform="translate(-149.90419,-1490.1669)"
     id="polygon147_2_"
     class="st8"
     points="1509.6,1951.9 1266,1836.9 1242.8,1847.9 1491,1960 "
     style="opacity:1;fill:#ffffff;enable-background:new" />
  <polygon
     transform="translate(-149.90419,-1490.1669)"
     id="polygon149_2_"
     class="st11"
     points="1509.6,1951.9 1266,1836.9 1242.8,1847.9 1491,1960 "
     style="fill:none;stroke:#1a1631;stroke-width:0.47999999" />
  <polygon
     transform="translate(-149.90419,-1490.1669)"
     id="polygon151_2_"
     class="st8"
     points="1471.4,1942.6 1238,1838.6 1140.4,1884.4 1376.3,1983.1 "
     style="opacity:1;fill:#ffffff;enable-background:new" />
  <polygon
     transform="translate(-149.90419,-1490.1669)"
     id="polygon153_2_"
     class="st11"
     points="1471.4,1942.6 1238,1838.6 1140.4,1884.4 1376.3,1983.1 "
     style="fill:none;stroke:#1a1631;stroke-width:0.47999999" />
  <polygon
     transform="translate(-149.90419,-1490.1669)"
     id="polygon155_2_"
     class="st8"
     points="1397.9,1980.6 1153.1,1870.3 1134.8,1877.6 1379.3,1988.8 "
     style="opacity:1;fill:#ffffff;enable-background:new" />
  <polygon
     transform="translate(-149.90419,-1490.1669)"
     id="polygon157_2_"
     class="st11"
     points="1397.9,1980.6 1153.1,1870.3 1134.8,1877.6 1379.3,1988.8 "
     style="fill:none;stroke:#1a1631;stroke-width:0.47999999" />
  <polygon
     transform="translate(-149.90419,-1490.1669)"
     id="polygon159_2_"
     class="st8"
     points="1356.9,1977.5 1122.7,1869.5 1102.4,1879.6 1335.8,1981.1 "
     style="opacity:1;fill:#ffffff;enable-background:new" />
  <polygon
     transform="translate(-149.90419,-1490.1669)"
     id="polygon161_2_"
     class="st11"
     points="1356.9,1977.5 1122.7,1869.5 1102.4,1879.6 1335.8,1981.1 "
     style="fill:none;stroke:#1a1631;stroke-width:0.47999999" />
  <polygon
     transform="translate(-149.90419,-1490.1669)"
     id="polygon163_2_"
     class="st8"
     points="1335.8,1981.1 1091.4,1869.5 1072.7,1878.5 1317.5,1989.3 "
     style="opacity:1;fill:#ffffff;enable-background:new" />
  <polygon
     transform="translate(-149.90419,-1490.1669)"
     id="polygon165_2_"
     class="st11"
     points="1335.8,1981.1 1091.4,1869.5 1072.7,1878.5 1317.5,1989.3 "
     style="fill:none;stroke:#1a1631;stroke-width:0.47999999" />
  <polygon
     transform="translate(-149.90419,-1490.1669)"
     id="polygon167_2_"
     class="st8"
     points="1294.4,1971.8 1062.2,1869.5 1032.1,1880.8 1273.3,1991.3 "
     style="opacity:1;fill:#ffffff;enable-background:new" />
  <polygon
     transform="translate(-149.90419,-1490.1669)"
     id="polygon169_2_"
     class="st11"
     points="1294.4,1971.8 1062.2,1869.5 1032.1,1880.8 1273.3,1991.3 "
     style="fill:none;stroke:#1a1631;stroke-width:0.47999999" />
  <polygon
     transform="translate(-149.90419,-1490.1669)"
     id="polygon171_2_"
     class="st8"
     points="1273.3,1981.1 1028.5,1870.7 1010.5,1878.5 1255.1,1989.3 "
     style="opacity:1;fill:#ffffff;enable-background:new" />
  <polygon
     transform="translate(-149.90419,-1490.1669)"
     id="polygon173_2_"
     class="st11"
     points="1273.3,1981.1 1028.5,1870.7 1010.5,1878.5 1255.1,1989.3 "
     style="fill:none;stroke:#1a1631;stroke-width:0.47999999" />
  <polygon
     transform="translate(-149.90419,-1490.1669)"
     id="polygon175_2_"
     class="st8"
     points="1471.4,1930 1374.8,1971.3 1251.4,1961.2 1244.9,2103.7 1592.8,1948.2 "
     style="opacity:1;fill:#ffffff;enable-background:new" />
  <polygon
     transform="translate(-149.90419,-1490.1669)"
     id="polygon177_2_"
     class="st9"
     points="1471.4,1930 1374.8,1971.3 1251.4,1961.2 1244.9,2103.7 1592.8,1948.2 "
     style="fill:none;stroke:#1a1631;stroke-width:0.23999999" />
  <polygon
     transform="translate(-149.90419,-1490.1669)"
     id="polygon179_2_"
     class="st8"
     points="406.9,1809.4 407.7,1789.1 483.3,1826.5 483.3,1845.6 "
     style="opacity:1;fill:#ffffff;enable-background:new" />
  <polygon
     transform="translate(-149.90419,-1490.1669)"
     id="polygon181_2_"
     class="st9"
     points="406.9,1809.4 407.7,1789.1 483.3,1826.5 483.3,1845.6 "
     style="fill:none;stroke:#1a1631;stroke-width:0.23999999" />
  <polygon
     transform="translate(-149.90419,-1490.1669)"
     id="polygon183_2_"
     class="st8"
     points="407.7,1789.1 429.6,1780.6 502.2,1820.8 489.8,1829.3 "
     style="opacity:1;fill:#ffffff;enable-background:new" />
  <polygon
     transform="translate(-149.90419,-1490.1669)"
     id="polygon185_2_"
     class="st9"
     points="407.7,1789.1 429.6,1780.6 502.2,1820.8 489.8,1829.3 "
     style="fill:none;stroke:#1a1631;stroke-width:0.23999999" />
  <polygon
     transform="translate(-149.90419,-1490.1669)"
     id="polygon187_2_"
     class="st8"
     points="422.6,1783.4 422.6,1765.5 505.2,1803.2 502.2,1820.8 "
     style="opacity:1;fill:#ffffff;enable-background:new" />
  <polygon
     transform="translate(-149.90419,-1490.1669)"
     id="polygon189_2_"
     class="st9"
     points="422.6,1783.4 422.6,1765.5 505.2,1803.2 502.2,1820.8 "
     style="fill:none;stroke:#1a1631;stroke-width:0.23999999" />
  <polygon
     transform="translate(-149.90419,-1490.1669)"
     id="polygon191_2_"
     class="st8"
     points="422.6,1765.5 444.6,1757.4 521.8,1793.6 505.2,1803.2 "
     style="opacity:1;fill:#ffffff;enable-background:new" />
  <polygon
     transform="translate(-149.90419,-1490.1669)"
     id="polygon193_2_"
     class="st9"
     points="422.6,1765.5 444.6,1757.4 521.8,1793.6 505.2,1803.2 "
     style="fill:none;stroke:#1a1631;stroke-width:0.23999999" />
  <polygon
     transform="translate(-149.90419,-1490.1669)"
     id="polygon195_2_"
     class="st8"
     points="444.6,1757.4 444.6,1740.7 521.3,1774.5 521.3,1793.6 "
     style="opacity:1;fill:#ffffff;enable-background:new" />
  <polygon
     transform="translate(-149.90419,-1490.1669)"
     id="polygon197_2_"
     class="st9"
     points="444.6,1757.4 444.6,1740.7 521.3,1774.5 521.3,1793.6 "
     style="fill:none;stroke:#1a1631;stroke-width:0.23999999" />
  <polygon
     transform="translate(-149.90419,-1490.1669)"
     id="polygon199_2_"
     class="st8"
     points="327.3,1891.7 350.1,1880.8 428.5,1920.7 410.2,1930 "
     style="opacity:1;fill:#ffffff;enable-background:new" />
  <polygon
     transform="translate(-149.90419,-1490.1669)"
     id="polygon201_2_"
     class="st9"
     points="327.3,1891.7 350.1,1880.8 428.5,1920.7 410.2,1930 "
     style="fill:none;stroke:#1a1631;stroke-width:0.23999999" />
  <polygon
     transform="translate(-149.90419,-1490.1669)"
     id="polygon203_2_"
     class="st8"
     points="343.1,1884.1 343.1,1865.8 428.5,1905.5 428.5,1921.5 "
     style="opacity:1;fill:#ffffff;enable-background:new" />
  <polygon
     transform="translate(-149.90419,-1490.1669)"
     id="polygon205_2_"
     class="st9"
     points="343.1,1884.1 343.1,1865.8 428.5,1905.5 428.5,1921.5 "
     style="fill:none;stroke:#1a1631;stroke-width:0.23999999" />
  <polygon
     transform="translate(-149.90419,-1490.1669)"
     id="polygon207_2_"
     class="st8"
     points="343.1,1865.8 365,1857.7 444.2,1897.4 428.8,1905.2 "
     style="opacity:1;fill:#ffffff;enable-background:new" />
  <polygon
     transform="translate(-149.90419,-1490.1669)"
     id="polygon209_2_"
     class="st9"
     points="343.1,1865.8 365,1857.7 444.2,1897.4 428.8,1905.2 "
     style="fill:none;stroke:#1a1631;stroke-width:0.23999999" />
  <polygon
     transform="translate(-149.90419,-1490.1669)"
     id="polygon211_2_"
     class="st8"
     points="365,1857.7 365.8,1841.9 444.2,1880.5 444.2,1897.4 "
     style="opacity:1;fill:#ffffff;enable-background:new" />
  <polygon
     transform="translate(-149.90419,-1490.1669)"
     id="polygon213_2_"
     class="st9"
     points="365,1857.7 365.8,1841.9 444.2,1880.5 444.2,1897.4 "
     style="fill:none;stroke:#1a1631;stroke-width:0.23999999" />
  <polygon
     transform="translate(-149.90419,-1490.1669)"
     id="polygon215_2_"
     class="st8"
     points="305.4,1934.4 305.4,1916.5 387.8,1954.4 384.9,1971.8 "
     style="opacity:1;fill:#ffffff;enable-background:new" />
  <polygon
     transform="translate(-149.90419,-1490.1669)"
     id="polygon217_2_"
     class="st9"
     points="305.4,1934.4 305.4,1916.5 387.8,1954.4 384.9,1971.8 "
     style="fill:none;stroke:#1a1631;stroke-width:0.23999999" />
  <polygon
     transform="translate(-149.90419,-1490.1669)"
     id="polygon219_2_"
     class="st8"
     points="305.4,1916.5 327.3,1908.4 404.4,1944.6 387.8,1954.4 "
     style="opacity:1;fill:#ffffff;enable-background:new" />
  <polygon
     transform="translate(-149.90419,-1490.1669)"
     id="polygon221_2_"
     class="st9"
     points="305.4,1916.5 327.3,1908.4 404.4,1944.6 387.8,1954.4 "
     style="fill:none;stroke:#1a1631;stroke-width:0.23999999" />
  <polygon
     transform="translate(-149.90419,-1490.1669)"
     id="polygon223_2_"
     class="st8"
     points="327.3,1908.4 327.3,1891.7 404.4,1925.5 404.4,1944.6 "
     style="opacity:1;fill:#ffffff;enable-background:new" />
  <polygon
     transform="translate(-149.90419,-1490.1669)"
     id="polygon225_2_"
     class="st9"
     points="327.3,1908.4 327.3,1891.7 404.4,1925.5 404.4,1944.6 "
     style="fill:none;stroke:#1a1631;stroke-width:0.23999999" />
  <polygon
     transform="translate(-149.90419,-1490.1669)"
     id="polygon227_2_"
     class="st8"
     points="365.8,1842.2 387.8,1833.3 464.2,1871.5 444.6,1880.8 "
     style="opacity:1;fill:#ffffff;enable-background:new" />
  <polygon
     transform="translate(-149.90419,-1490.1669)"
     id="polygon229_2_"
     class="st9"
     points="365.8,1842.2 387.8,1833.3 464.2,1871.5 444.6,1880.8 "
     style="fill:none;stroke:#1a1631;stroke-width:0.23999999" />
  <polygon
     transform="translate(-149.90419,-1490.1669)"
     id="polygon231_2_"
     class="st8"
     points="384.9,1835.4 384.9,1817.5 464.5,1853.5 464.5,1872.3 "
     style="opacity:1;fill:#ffffff;enable-background:new" />
  <polygon
     transform="translate(-149.90419,-1490.1669)"
     id="polygon233_2_"
     class="st9"
     points="384.9,1835.4 384.9,1817.5 464.5,1853.5 464.5,1872.3 "
     style="fill:none;stroke:#1a1631;stroke-width:0.23999999" />
  <polygon
     transform="translate(-149.90419,-1490.1669)"
     id="polygon235_2_"
     class="st8"
     points="384.9,1817.5 406.9,1809.4 482.8,1845.1 464.5,1854 "
     style="opacity:1;fill:#ffffff;enable-background:new" />
  <polygon
     transform="translate(-149.90419,-1490.1669)"
     id="polygon237_2_"
     class="st9"
     points="384.9,1817.5 406.9,1809.4 482.8,1845.1 464.5,1854 "
     style="fill:none;stroke:#1a1631;stroke-width:0.23999999" />
  <polygon
     transform="translate(-149.90419,-1490.1669)"
     id="polygon239_2_"
     class="st8"
     points="461.4,1910.5 383.3,1935.6 383.3,1983.1 461.4,1954.4 589.3,1944.6 589.3,1899.1 "
     style="opacity:1;fill:#ffffff;enable-background:new" />
  <polygon
     transform="translate(-149.90419,-1490.1669)"
     id="polygon241_2_"
     class="st9"
     points="461.4,1910.5 383.3,1935.6 383.3,1983.1 461.4,1954.4 589.3,1944.6 589.3,1899.1 "
     style="fill:none;stroke:#1a1631;stroke-width:0.23999999" />
  <polygon
     transform="translate(-149.90419,-1490.1669)"
     id="polygon243_2_"
     class="st1"
     points="521.3,1774.5 442.3,1817.2 504.7,1849.2 592.1,1891.4 933.5,1711.2 695.1,1619 404.4,1725 444.6,1740.7 "
     style="fill:#bbbade" />
  <path
     id="path253_2_"
     class="st7"
     d="m 332.09581,196.93308 c 0,0 63,32.6 65,32.6 2,0 50.3,-13 50.3,-13 l 53.2,-30.4 122.3,49.5 70.3,31.2 65,-48.7 -14.3,-29.2 c 0,0 -213.6,-73.9 -215.6,-73.9 -2.2,-0.2 -196.2,81.9 -196.2,81.9"
     style="fill:#ee2148" />
  <polygon
     transform="translate(-149.90419,-1490.1669)"
     id="polygon255_2_"
     class="st8"
     points="693.9,1619.8 693.9,1579.6 404.4,1687.1 404.4,1725.3 "
     style="opacity:1;fill:#ffffff;enable-background:new" />
  <polygon
     transform="translate(-149.90419,-1490.1669)"
     id="polygon257_2_"
     class="st9"
     points="693.9,1619.8 693.9,1579.6 404.4,1687.1 404.4,1725.3 "
     style="fill:none;stroke:#1a1631;stroke-width:0.23999999" />
  <polygon
     transform="translate(-149.90419,-1490.1669)"
     id="polygon259_2_"
     class="st8"
     points="936.8,1675.8 693.9,1579.1 693.9,1619.8 889.6,1699.4 "
     style="opacity:1;fill:#ffffff;enable-background:new" />
  <polygon
     transform="translate(-149.90419,-1490.1669)"
     id="polygon261_2_"
     class="st9"
     points="936.8,1675.8 693.9,1579.1 693.9,1619.8 889.6,1699.4 "
     style="fill:none;stroke:#1a1631;stroke-width:0.23999999" />
  <polygon
     transform="translate(-149.90419,-1490.1669)"
     id="polygon263_2_"
     class="st8"
     points="832.3,1728.1 601.4,1614.8 601.4,1653.9 832.3,1772.5 "
     style="opacity:1;fill:#ffffff;enable-background:new" />
  <polygon
     transform="translate(-149.90419,-1490.1669)"
     id="polygon265_2_"
     class="st9"
     points="832.3,1728.1 601.4,1614.8 601.4,1653.9 832.3,1772.5 "
     style="fill:none;stroke:#1a1631;stroke-width:0.23999999" />
  <polygon
     transform="translate(-149.90419,-1490.1669)"
     id="polygon267_2_"
     class="st8"
     points="592.1,1891.4 594.4,1849.2 936.8,1675.8 933.8,1719.6 "
     style="opacity:1;fill:#ffffff;enable-background:new" />
  <polygon
     transform="translate(-149.90419,-1490.1669)"
     id="polygon269_2_"
     class="st9"
     points="592.1,1891.4 594.4,1849.2 936.8,1675.8 933.8,1719.6 "
     style="fill:none;stroke:#1a1631;stroke-width:0.23999999" />
  <polygon
     transform="translate(-149.90419,-1490.1669)"
     id="polygon271_2_"
     class="st12"
     points="546.1,1784.9 523.8,1798.9 516.5,1794.4 494.9,1823.1 551.1,1809.9 540.1,1806.2 562.9,1793.6 "
     style="fill:#f58020" />
  <polygon
     transform="translate(-149.90419,-1490.1669)"
     id="polygon273_2_"
     class="st8"
     points="555.9,1701 474.6,1661.5 474.6,1698.6 555.9,1741.6 "
     style="opacity:1;fill:#ffffff;enable-background:new" />
  <polygon
     transform="translate(-149.90419,-1490.1669)"
     id="polygon275_2_"
     class="st9"
     points="555.9,1701 474.6,1661.5 474.6,1698.6 555.9,1741.6 "
     style="fill:none;stroke:#1a1631;stroke-width:0.23999999" />
  <polygon
     transform="translate(-149.90419,-1490.1669)"
     id="polygon277_2_"
     class="st8"
     points="726.8,1718 711.4,1710.3 711.4,1688.4 726.8,1694.9 "
     style="opacity:1;fill:#ffffff;enable-background:new" />
  <polygon
     transform="translate(-149.90419,-1490.1669)"
     id="polygon279_2_"
     class="st11"
     points="726.8,1718 711.4,1710.3 711.4,1688.4 726.8,1694.9 "
     style="fill:none;stroke:#1a1631;stroke-width:0.47999999" />
  <polygon
     transform="translate(-149.90419,-1490.1669)"
     id="polygon281_2_"
     class="st8"
     points="668,1687.1 668,1646.9 555.9,1701 555.9,1741.6 "
     style="opacity:1;fill:#ffffff;enable-background:new" />
  <polygon
     transform="translate(-149.90419,-1490.1669)"
     id="polygon283_2_"
     class="st9"
     points="668,1687.1 668,1646.9 555.9,1701 555.9,1741.6 "
     style="fill:none;stroke:#1a1631;stroke-width:0.23999999" />
  <polygon
     transform="translate(-149.90419,-1490.1669)"
     id="polygon285_2_"
     class="st8"
     points="715.8,2005 695.9,1995.2 695.9,1964.8 715.8,1975 "
     style="opacity:1;fill:#ffffff;enable-background:new" />
  <polygon
     transform="translate(-149.90419,-1490.1669)"
     id="polygon287_2_"
     class="st11"
     points="715.8,2005 695.9,1995.2 695.9,1964.8 715.8,1975 "
     style="fill:none;stroke:#1a1631;stroke-width:0.47999999" />
  <polygon
     transform="translate(-149.90419,-1490.1669)"
     id="polygon289_2_"
     class="st8"
     points="828.6,2061.5 809.2,2051.7 809.2,2021.3 828.6,2031.5 "
     style="opacity:1;fill:#ffffff;enable-background:new" />
  <polygon
     transform="translate(-149.90419,-1490.1669)"
     id="polygon291_2_"
     class="st11"
     points="828.6,2061.5 809.2,2051.7 809.2,2021.3 828.6,2031.5 "
     style="fill:none;stroke:#1a1631;stroke-width:0.47999999" />
  <polygon
     transform="translate(-149.90419,-1490.1669)"
     id="polygon293_2_"
     class="st8"
     points="631.5,1682.3 611.9,1690.4 611.9,1714 631.5,1705 "
     style="opacity:1;fill:#ffffff;enable-background:new" />
  <polygon
     transform="translate(-149.90419,-1490.1669)"
     id="polygon295_2_"
     class="st11"
     points="631.5,1682.3 611.9,1690.4 611.9,1714 631.5,1705 "
     style="fill:none;stroke:#1a1631;stroke-width:0.47999999" />
  <rect
     id="rect459_2_"
     x="304.49582"
     y="253.03304"
     class="st13"
     width="188.7"
     height="36.200001"
     style="fill:#6f4d80" />
  <g
     transform="translate(-149.90419,-1490.1669)"
     id="XMLID_2084_">
    <path
       id="XMLID_2095_"
       class="st14"
       d="m 477.6,1754.2 -0.3,-4 4.8,0 0.3,4 0,22.1 -4.8,0 0,-22.1 z"
       style="fill:#f6f6f6" />
    <path
       id="XMLID_2094_"
       class="st14"
       d="m 487.1,1754.2 -0.3,-4 4.8,0 0.3,4 0,15.3 -4.8,0 0,-15.3 z"
       style="fill:#f6f6f6" />
    <path
       id="XMLID_2093_"
       class="st14"
       d="m 496.7,1754.2 -0.3,-4 4.8,0 0.3,4 0,5.3 0,2.2 -4.8,0.8 0,-8.3 z"
       style="fill:#f6f6f6" />
    <path
       id="XMLID_2092_"
       class="st14"
       d="m 520.2,1750.4 0,4 -6.1,15.3 -4.8,0 6,-15.6 -9.8,0 0,-8.6 4.3,0 0,5 10.4,0 z"
       style="fill:#f6f6f6" />
    <path
       id="XMLID_2091_"
       class="st14"
       d="m 540.1,1750.4 c 0,4.5 -0.2,7.8 -0.5,10.1 -0.3,2.3 -1.2,4.2 -2.7,5.8 -1.3,1.5 -3.7,2.7 -6.8,3.3 l -7.3,1.5 -0.7,-3.8 5.3,-1 -3.8,-15.8 4.8,0 3.5,14.8 c 1,-0.5 1.8,-1.3 2.2,-2.3 0.5,-1 0.7,-2.3 0.8,-3.7 0.2,-1.5 0.2,-3.7 0.2,-6.6 l 0,-2.2 5,0 0,-0.1 z"
       style="fill:#f6f6f6" />
    <path
       id="XMLID_2088_"
       class="st14"
       d="m 565.2,1767 c -2.7,1.8 -6.5,2.7 -11.5,2.8 l -1.8,-15.9 -0.5,-3.7 10.5,0 c 2.2,0 4,0.7 5.1,1.8 1.2,1.3 1.8,3 2,5.1 l 0,1.2 c 0,4.2 -1.3,7 -3.8,8.7 z m -3.5,-2.3 c 0.8,-0.5 1.5,-1.3 1.8,-2.3 0.3,-1 0.5,-2.3 0.5,-4 l 0,-1 c 0,-1 -0.2,-1.8 -0.7,-2.5 -0.5,-0.7 -1.2,-0.8 -2,-0.8 l -4.7,0 1.3,11.6 c 1.6,-0.2 2.8,-0.5 3.8,-1 z"
       style="fill:#f6f6f6" />
    <path
       id="XMLID_2087_"
       class="st14"
       d="m 587.1,1750.4 0,4 -6.1,15.3 -4.8,0 6,-15.6 -9.8,0 0,-8.6 4.3,0 0,5 10.4,0 z"
       style="fill:#f6f6f6" />
    <path
       id="XMLID_2086_"
       class="st14"
       d="m 590.8,1766 6.8,0 c 1.3,0 2.3,-0.5 3,-1.3 0.7,-0.8 1.2,-2 1.2,-3.5 l 0,-2.5 c 0,-1.5 -0.3,-2.5 -1,-3.5 -0.7,-1 -1.7,-1.3 -2.8,-1.3 l -2.3,0 -0.7,2.8 c 0,0.3 -0.2,0.5 -0.2,0.8 0,0.5 0.2,1 0.5,1.3 0.3,0.3 0.8,0.5 1.7,0.7 l -0.8,3 c -2,0 -3.5,-0.5 -4.3,-1.3 -0.8,-0.8 -1.3,-2 -1.3,-3.5 0,-0.5 0,-1 0.2,-1.5 l 1.3,-6.1 7.1,0 c 2.3,0 4.2,0.8 5.5,2.3 1.3,1.5 2,3.7 2,6.3 l 0,2 c 0,2.7 -0.7,4.8 -2.2,6.3 -1.5,1.5 -3.3,2.3 -5.8,2.3 l -8,0 0,-3.3 0.1,0 z"
       style="fill:#f6f6f6" />
    <path
       id="XMLID_2085_"
       class="st14"
       d="m 627,1767.3 c -1.5,1.8 -3.5,2.7 -6.1,2.7 -1,0 -2,-0.2 -3.2,-0.3 l 0.5,-3.7 c 0.8,0.2 1.5,0.3 2.2,0.3 1.5,0 2.7,-0.5 3.3,-1.5 0.6,-1 1,-2.5 1,-4.5 0,-2.2 -0.3,-3.8 -1,-4.8 -0.7,-1 -1.5,-1.5 -2.8,-1.5 -0.8,0 -1.7,0.3 -2.3,0.8 -0.7,0.5 -1,1.3 -1.2,2.2 l -2.2,12.8 -4.8,0 2.3,-13 -2.7,-6.3 5.1,0 1.3,3.8 c 0.5,-1.3 1.2,-2.5 2.2,-3.2 1,-0.7 2,-1 3.3,-1 2.5,0 4.3,0.8 5.5,2.5 1.3,1.7 1.8,4.2 1.8,7.5 -0.1,3.1 -0.9,5.4 -2.2,7.2 z"
       style="fill:#f6f6f6" />
  </g>
</svg>
