<?xml version="1.0" encoding="UTF-8" standalone="no"?>
<svg
   xmlns:dc="http://purl.org/dc/elements/1.1/"
   xmlns:cc="http://creativecommons.org/ns#"
   xmlns:rdf="http://www.w3.org/1999/02/22-rdf-syntax-ns#"
   xmlns:svg="http://www.w3.org/2000/svg"
   xmlns="http://www.w3.org/2000/svg"
   id="svg2663"
   version="1.1"
   viewBox="0 0 44.024019 29.434891"
   height="111.24998"
   width="166.39">
  <defs
     id="defs2657" />
  <metadata
     id="metadata2660">
    <rdf:RDF>
      <cc:Work
         rdf:about="">
        <dc:format>image/svg+xml</dc:format>
        <dc:type
           rdf:resource="http://purl.org/dc/dcmitype/StillImage" />
        <dc:title></dc:title>
      </cc:Work>
    </rdf:RDF>
  </metadata>
  <g
     transform="translate(-100.72687,-129.58017)"
     id="layer1">
    <g
       id="g1174"
       transform="matrix(0.26458333,0,0,0.26458333,-374.63093,-236.7308)">
      <path
         id="path355-6"
         data-name="path355"
         class="cls-4"
         d="m 1900.068,1453.8024 c 0,11.13 -20.24,41.93 -20.24,41.93 0,0 -20.25,-30.8 -20.25,-41.93 a 20.25,20.25 0 1 1 40.49,0"
         style="fill:#2ca5e8;fill-opacity:1" />
      <rect
         id="rect475-4"
         data-name="rect475"
         class="cls-4"
         x="1796.6279"
         y="1384.4824"
         width="158.60001"
         height="45.349998"
         style="fill:#ec2426" />
      <path
         class="cls-13"
         d="m 1809.398,1398.1724 h 15.76 v 18.35 h -15.72 z m 10.75,14.49 v -10.61 h -5.79 v 10.64 z"
         id="path584"
         style="fill:#fffffd" />
      <path
         class="cls-13"
         d="m 1831.158,1402.0524 h -2.84 v -3.85 h 7.84 v 10.48 h -5 z"
         id="path586"
         style="fill:#fffffd" />
      <path
         class="cls-13"
         d="m 1847.068,1404.4524 a 2.38,2.38 0 0 0 -0.67,-1.81 2.8,2.8 0 0 0 -2,-0.62 h -5.47 v -3.85 h 5.84 a 8.92,8.92 0 0 1 3.88,0.78 5.58,5.58 0 0 1 2.48,2.24 6.88,6.88 0 0 1 0.86,3.52 v 11.81 h -5 z"
         id="path588"
         style="fill:#fffffd" />
      <path
         class="cls-13"
         d="m 1856.728,1402.0524 h -1.57 v -3.85 h 6.54 v 18.35 h -5 z"
         id="path590"
         style="fill:#fffffd" />
      <path
         class="cls-13"
         d="m 1866.328,1410.2324 a 5.75,5.75 0 0 1 1.11,-4 h 4 a 18.08,18.08 0 0 0 -0.28,3.41 v 6.83 h -4.79 z m 10.49,-5.6 c 0,-1.74 -0.92,-2.61 -2.78,-2.61 h -7.65 v -3.85 h 8 a 9.26,9.26 0 0 1 4,0.78 5.61,5.61 0 0 1 2.53,2.3 7.07,7.07 0 0 1 0.87,3.61 v 11.66 h -5 z"
         id="path592"
         style="fill:#fffffd" />
      <path
         class="cls-13"
         d="m 1900.158,1404.4524 a 2.35,2.35 0 0 0 -0.67,-1.81 2.79,2.79 0 0 0 -1.94,-0.62 h -5.39 v -3.85 h 5.84 a 8.88,8.88 0 0 1 3.87,0.78 5.52,5.52 0 0 1 2.48,2.24 6.88,6.88 0 0 1 0.86,3.52 v 11.81 h -5 z"
         id="path594"
         style="fill:#fffffd" />
      <path
         class="cls-13"
         d="m 1923.988,1398.1724 v 3.88 h -3.24 v 14.5 h -5 v -14.5 h -7.69 v -3.85 z"
         id="path596"
         style="fill:#fffffd" />
      <path
         class="cls-13"
         d="m 1927.528,1398.1724 h 8.09 a 7.58,7.58 0 0 1 5.44,1.76 6.88,6.88 0 0 1 1.86,5.19 v 11.4 h -5 v -11.83 c 0,-1.78 -0.77,-2.67 -2.32,-2.67 h -3.13 v 14.5 h -5 z"
         id="path598"
         style="fill:#fffffd" />
      <path
         class="cls-14"
         d="m 1879.758,1462.5324 a 4,4 0 0 1 -0.53,0.63 5,5 0 0 1 -7.08,0 5,5 0 0 1 0,-7.08 4.08,4.08 0 0 1 0.63,-0.54 16.23,16.23 0 0 1 -1.25,-2.34 v -0.08 a 7.8,7.8 0 1 0 9.48,12.24 7.48,7.48 0 0 0 1.2,-1.55 h -0.08 a 16.23,16.23 0 0 1 -2.34,-1.25 z"
         id="path600"
         style="fill:#ffffff" />
      <path
         class="cls-14"
         d="m 1886.588,1455.7924 a 5.16,5.16 0 0 0 -3,1.43 v 0 a 2,2 0 0 1 -1.45,0.61 v 0 a 2.09,2.09 0 0 1 -1.46,-0.6 l -2.64,-2.65 a 2.06,2.06 0 0 1 0,-2.91 l 0.15,-0.14 a 5,5 0 0 0 1.37,-2.85 13.58,13.58 0 0 0 -2.9,-1.33 c -2.1,-0.62 -3.2,-0.1 -3.75,0.46 -1,1 -1,2.67 -0.06,4.83 a 20.62,20.62 0 0 0 9.84,9.84 7.3,7.3 0 0 0 2.81,0.67 2.75,2.75 0 0 0 2,-0.73 c 0.55,-0.56 1.08,-1.66 0.45,-3.76 a 12.66,12.66 0 0 0 -1.36,-2.87 z"
         id="path602"
         style="fill:#ffffff" />
      <path
         class="cls-14"
         d="m 1890.298,1444.8924 a 5.54,5.54 0 0 0 -7.86,0.15 5.54,5.54 0 0 0 -1.52,3.43 6.35,6.35 0 0 1 -1.81,4.06 l -0.15,0.15 a 0.69,0.69 0 0 0 0,1 l 2.65,2.64 a 0.66,0.66 0 0 0 0.48,0.2 0.67,0.67 0 0 0 0.48,-0.2 v 0 a 6.48,6.48 0 0 1 4.19,-1.86 5.57,5.57 0 0 0 3.57,-1.61 5.54,5.54 0 0 0 -0.06,-7.89 z"
         id="path604"
         style="fill:#ffffff" />
    </g>
  </g>
</svg>
