<?xml version="1.0" encoding="UTF-8" standalone="no"?>
<svg
   id="svg248"
   version="1.1"
   viewBox="0 0 44.820676 36.11827"
   height="136.50999"
   width="169.40099"
   xmlns="http://www.w3.org/2000/svg"
   xmlns:svg="http://www.w3.org/2000/svg"
   xmlns:rdf="http://www.w3.org/1999/02/22-rdf-syntax-ns#"
   xmlns:cc="http://creativecommons.org/ns#"
   xmlns:dc="http://purl.org/dc/elements/1.1/">
  <defs
     id="defs242" />
  <metadata
     id="metadata245">
    <rdf:RDF>
      <cc:Work
         rdf:about="">
        <dc:format>image/svg+xml</dc:format>
        <dc:type
           rdf:resource="http://purl.org/dc/dcmitype/StillImage" />
      </cc:Work>
    </rdf:RDF>
  </metadata>
  <g
     transform="translate(-73.595746,-147.40515)"
     id="layer1">
    <g
       transform="matrix(1.0475894,0,0,1.0545,12.827706,-9.3045168)"
       id="g371">
      <path
         style="fill:#a22442;stroke-width:0.19261441"
         d="m 84.646486,172.07555 c 0,2.88922 -5.246818,10.78641 -5.246818,10.78641 0,0 -5.244888,-7.91068 -5.244888,-10.78641 a 5.2468167,5.2468167 0 0 1 10.491706,0"
         class="cls-4"
         id="path471" />
      <path
         style="isolation:isolate;fill:#fbf2de;stroke-width:0.19261441"
         d="m 79.403519,174.74134 a 2.6966019,2.6966019 0 1 1 2.696604,-2.69661 2.6966019,2.6966019 0 0 1 -2.696604,2.69661 m 0,-5.96142 a 3.2975588,3.2975588 0 1 0 3.297563,3.29563 3.3052634,3.3052634 0 0 0 -3.297563,-3.29563 m 0,2.88921 a 0.44301316,0.44301316 0 0 0 -0.412189,0.41028 v 1.21154 a 0.41219485,0.41219485 0 0 0 0.824385,0 v -1.20962 a 0.42182557,0.42182557 0 0 0 -0.412196,-0.41027 m 0,-1.26355 a 0.41219485,0.41219485 0 1 0 0.412196,0.41027 0.42182557,0.42182557 0 0 0 -0.412196,-0.41604"
         class="cls-9"
         id="path473" />
    </g>
    <g
       transform="matrix(0.26458333,0,0,0.26458333,-277.56983,83.571777)"
       id="g320">
      <rect
         id="rect311_8_"
         x="1337.98"
         y="275.26001"
         class="st2"
         width="147.91"
         height="34.580002"
         style="fill:#a22442" />
      <g
         id="g318"
         transform="translate(0,34)">
        <path
           class="st8"
           d="m 1349.38,252.86 h -1.35 v -2.19 h 4.11 v 17.67 h -2.75 v -15.48 z"
           id="path268"
           style="fill:#ffffff" />
        <path
           class="st8"
           d="m 1356.83,252.86 h -2.21 v -2.19 h 5.01 v 7.39 h -2.79 v -5.2 z"
           id="path270"
           style="fill:#ffffff" />
        <path
           class="st8"
           d="m 1373.06,250.67 v 7.66 c 0,1.23 -0.25,2.27 -0.76,3.12 -0.51,0.85 -1.23,1.5 -2.15,1.94 -0.92,0.44 -1.99,0.66 -3.21,0.66 -1.62,0 -3.27,-0.31 -4.94,-0.94 l 0.62,-2.06 c 1.2,0.46 2.28,0.73 3.24,0.84 -0.26,-0.26 -0.5,-0.57 -0.69,-0.91 -0.2,-0.35 -0.34,-0.72 -0.43,-1.11 l -2.09,-9.2 h 2.81 l 2.01,9.43 c 0.15,0.68 0.33,1.22 0.56,1.64 0.72,-0.23 1.28,-0.62 1.67,-1.17 0.39,-0.55 0.59,-1.26 0.59,-2.12 v -7.78 z"
           id="path272"
           style="fill:#ffffff" />
        <path
           class="st8"
           d="m 1377.75,252.86 h -2.21 v -2.19 h 5.01 v 7.39 h -2.79 v -5.2 z"
           id="path274"
           style="fill:#ffffff" />
        <path
           class="st8"
           d="m 1393.82,250.67 v 2.19 h -2.25 v 10.9 h -2.8 v -10.9 h -5.86 v -2.19 z"
           id="path276"
           style="fill:#ffffff" />
        <path
           class="st8"
           d="m 1396.83,252.86 h -1.32 v -2.19 h 4.12 v 13.09 h -2.8 z"
           id="path278"
           style="fill:#ffffff" />
        <path
           class="st8"
           d="m 1404.23,255.94 c 0.07,-0.59 0.23,-1.16 0.48,-1.69 0.25,-0.53 0.53,-0.95 0.86,-1.25 0.05,-0.05 0.11,-0.1 0.19,-0.14 l -0.02,-0.04 c -0.3,0.05 -0.68,0.14 -1.12,0.26 -0.44,0.12 -0.84,0.24 -1.18,0.37 l -0.62,-2.05 c 0.85,-0.31 1.83,-0.56 2.93,-0.74 1.1,-0.19 2.13,-0.28 3.08,-0.28 1.89,0 3.32,0.49 4.31,1.47 0.99,0.98 1.48,2.42 1.49,4.32 v 7.59 h -5.57 v -2.19 h 2.77 v -5.76 c 0,-1.01 -0.22,-1.79 -0.65,-2.33 -0.43,-0.54 -1.05,-0.81 -1.86,-0.81 -0.66,0 -1.2,0.26 -1.61,0.77 -0.41,0.51 -0.67,1.24 -0.77,2.17 l -0.87,8.15 h -2.76 z"
           id="path280"
           style="fill:#ffffff" />
        <path
           class="st8"
           d="m 1433.28,251.92 c 0.87,0.83 1.3,2.07 1.3,3.73 v 8.11 h -2.78 l -0.01,-8.31 c 0,-0.9 -0.19,-1.55 -0.57,-1.96 -0.38,-0.41 -0.98,-0.62 -1.8,-0.62 h -1.77 c -0.17,0.4 -0.3,0.88 -0.41,1.43 -0.1,0.55 -0.15,1.09 -0.15,1.62 v 4.06 c 0,1.27 -0.32,2.24 -0.96,2.92 -0.64,0.68 -1.54,1.02 -2.72,1.02 -0.45,0 -0.94,-0.04 -1.49,-0.12 v -2.19 c 0.26,0.02 0.5,0.03 0.74,0.03 0.58,0 1.01,-0.15 1.29,-0.45 0.28,-0.3 0.42,-0.77 0.42,-1.41 v -3.62 c 0,-0.57 0.08,-1.16 0.23,-1.78 0.15,-0.61 0.37,-1.12 0.64,-1.51 H 1423 v -2.19 h 6.39 c 1.72,-0.01 3.02,0.41 3.89,1.24 z"
           id="path282"
           style="fill:#ffffff" />
        <path
           class="st8"
           d="m 1447.71,250.67 v 2.19 h -2.25 v 10.9 h -2.8 v -10.9 h -5.86 v -2.19 z"
           id="path284"
           style="fill:#ffffff" />
        <path
           class="st8"
           d="m 1451.14,255.94 c 0.07,-0.59 0.23,-1.16 0.48,-1.69 0.25,-0.53 0.53,-0.95 0.86,-1.25 0.05,-0.05 0.11,-0.1 0.19,-0.14 l -0.02,-0.04 c -0.3,0.05 -0.68,0.14 -1.12,0.26 -0.44,0.12 -0.84,0.24 -1.18,0.37 l -0.62,-2.05 c 0.85,-0.31 1.83,-0.56 2.93,-0.74 1.1,-0.19 2.13,-0.28 3.08,-0.28 1.89,0 3.32,0.49 4.31,1.47 0.99,0.98 1.48,2.42 1.49,4.32 v 7.59 h -5.57 v -2.19 h 2.77 v -5.76 c 0,-1.01 -0.22,-1.79 -0.65,-2.33 -0.43,-0.54 -1.05,-0.81 -1.86,-0.81 -0.66,0 -1.2,0.26 -1.61,0.77 -0.41,0.51 -0.67,1.24 -0.77,2.17 l -0.87,8.15 h -2.76 z"
           id="path286"
           style="fill:#ffffff" />
        <path
           class="st8"
           d="m 1474.83,250.67 v 7.66 c 0,1.23 -0.25,2.27 -0.76,3.12 -0.51,0.85 -1.23,1.5 -2.15,1.94 -0.92,0.44 -1.99,0.66 -3.21,0.66 -1.62,0 -3.27,-0.31 -4.94,-0.94 l 0.62,-2.06 c 1.2,0.46 2.28,0.73 3.24,0.84 -0.26,-0.26 -0.5,-0.57 -0.69,-0.91 -0.2,-0.35 -0.34,-0.72 -0.43,-1.11 l -2.09,-9.2 h 2.81 l 2.01,9.43 c 0.15,0.68 0.33,1.22 0.56,1.64 0.72,-0.23 1.28,-0.62 1.67,-1.17 0.39,-0.55 0.59,-1.26 0.59,-2.12 v -7.78 z"
           id="path288"
           style="fill:#ffffff" />
      </g>
    </g>
  </g>
</svg>
