<?xml version="1.0" encoding="UTF-8" standalone="no"?>
<svg
   xmlns:dc="http://purl.org/dc/elements/1.1/"
   xmlns:cc="http://creativecommons.org/ns#"
   xmlns:rdf="http://www.w3.org/1999/02/22-rdf-syntax-ns#"
   xmlns:svg="http://www.w3.org/2000/svg"
   xmlns="http://www.w3.org/2000/svg"
   xmlns:xlink="http://www.w3.org/1999/xlink"
   version="1.1"
   id="svg6910"
   viewBox="0 0 63.8 26"
   height="26"
   width="63.799999">
  <defs
     id="defs6912">
    <clipPath
       id="SVGID_80_">
      <use
         id="use997"
         overflow="visible"
         xlink:href="#SVGID_79_"
         style="overflow:visible"
         x="0"
         y="0"
         width="100%"
         height="100%" />
    </clipPath>
  </defs>
  <metadata
     id="metadata6915">
    <rdf:RDF>
      <cc:Work
         rdf:about="">
        <dc:format>image/svg+xml</dc:format>
        <dc:type
           rdf:resource="http://purl.org/dc/dcmitype/StillImage" />
        <dc:title></dc:title>
      </cc:Work>
    </rdf:RDF>
  </metadata>
  <g
     transform="translate(-313.81429,-453.64792)"
     id="layer1">
    <path
       id="path989"
       d="m 318.11429,454.04792 c 0.2,0 0.5,0 0.7,0.1 0.2,0.1 0.4,0.2 0.6,0.3 0.2,0.1 0.3,0.3 0.4,0.6 0.1,0.3 0.2,0.6 0.2,1 l 0,3.9 -5.4,0 0,-3.3 c 0,-0.2 0,-0.5 0,-0.7 0,-0.2 0.1,-0.5 0.1,-0.7 -0.1,0 -0.3,0 -0.4,-0.1 -0.1,0 -0.3,-0.1 -0.5,-0.1 0.1,-0.2 0.1,-0.4 0.2,-0.6 0.1,-0.2 0.1,-0.4 0.2,-0.6 0.2,0.1 0.4,0.1 0.5,0.1 0.1,0 0.3,0.1 0.4,0.1 0.1,0 0.3,0 0.4,0 0.1,0 0.3,0 0.5,0 l 2.1,0 z m 0.4,4.6 0,-2.3 c 0,-0.2 0,-0.4 0,-0.6 0,-0.1 -0.1,-0.3 -0.1,-0.3 -0.1,-0.1 -0.2,-0.1 -0.3,-0.2 -0.1,0 -0.3,0 -0.5,0 l -1.3,0 c -0.1,0.3 -0.1,0.5 -0.1,0.7 0,0.2 0,0.4 0,0.7 l 0,2 2.3,0 z m 5.6,-4.6 0,2.1 c 0,0.2 0,0.4 0,0.5 0,0.1 0,0.3 0,0.4 0,0.1 0,0.2 0,0.3 0,0.1 0,0.2 -0.1,0.3 l -1.5,-0.2 c 0,-0.1 0,-0.2 0.1,-0.3 0,-0.1 0,-0.2 0,-0.3 0,-0.1 0,-0.2 0,-0.4 0,-0.1 0,-0.3 0,-0.5 l 0,-0.8 -1.3,0 0,-1.2 2.8,0 z m 4.6,0 0,0.8 c 0,0.1 0,0.1 0,0.2 0,0.1 0,0.2 0,0.3 0,0.1 0,0.3 0.1,0.5 0,0.2 0,0.4 0.1,0.7 0,0.3 0.1,0.6 0.1,0.9 0,0.3 0.1,0.7 0.1,1.2 0,0.1 0,0.1 0,0.2 0,0.1 0,0.1 0,0.2 0,0.1 0,0.2 0,0.2 0,0.1 0,0.1 0,0.2 0,0.1 0,0.1 0,0.2 0,0.1 0,0.2 0,0.3 l -3.8,0 0,-1.3 2.4,0 c 0,-0.1 0,-0.2 0,-0.4 0,-0.2 0,-0.4 -0.1,-0.6 0,-0.2 -0.1,-0.5 -0.1,-0.7 0,-0.3 -0.1,-0.5 -0.1,-0.7 0,-0.2 -0.1,-0.4 -0.1,-0.6 0,-0.2 0,-0.3 0,-0.4 l -1.4,0 0,-1.2 2.8,0 z m 3.7,1.2 c -0.2,0 -0.4,0 -0.5,0 -0.1,0 -0.3,0 -0.4,0 -0.1,0 -0.3,0 -0.4,-0.1 -0.1,0 -0.3,-0.1 -0.5,-0.1 0.1,-0.2 0.1,-0.4 0.2,-0.6 0.1,-0.2 0.1,-0.4 0.2,-0.6 0.2,0.1 0.4,0.1 0.5,0.1 0.1,0 0.3,0.1 0.4,0.1 0.1,0 0.3,0 0.4,0 0.1,0 0.3,0 0.5,0 l 0.5,0 c 0.2,0 0.5,0 0.7,0.1 0.2,0.1 0.4,0.2 0.6,0.3 0.2,0.2 0.3,0.4 0.4,0.6 0.1,0.3 0.2,0.6 0.2,1 0,0.2 0,0.4 0,0.6 0,0.2 0,0.4 0,0.6 0,0.2 0,0.5 0,0.7 0,0.2 0,0.5 0,0.8 0,0.1 0,0.2 0,0.2 0,0.1 0,0.2 0,0.2 0,0.1 0,0.2 0,0.3 0,0.1 0,0.2 -0.1,0.4 l -4.9,0 0,-1.2 3.5,0 c 0,-0.2 0,-0.4 0,-0.6 0,-0.2 0,-0.4 0,-0.6 0,-0.2 0,-0.4 0,-0.6 0,-0.2 0,-0.4 0,-0.6 0,-0.2 0,-0.4 0,-0.6 0,-0.1 -0.1,-0.3 -0.1,-0.3 -0.1,-0.1 -0.2,-0.1 -0.3,-0.2 -0.1,0 -0.3,0 -0.5,0 l -0.4,0 z m 6.8,-1.2 0,5.8 -1.6,0 0,-4.6 -1,0 0,-1.2 2.6,0 z m 3.1,1.2 c -0.2,0 -0.4,0 -0.5,0 -0.1,0 -0.3,0 -0.4,0 -0.1,0 -0.3,0 -0.4,-0.1 -0.1,0 -0.3,-0.1 -0.5,-0.1 0.1,-0.2 0.1,-0.4 0.2,-0.6 0.1,-0.2 0.1,-0.4 0.2,-0.6 0.2,0.1 0.4,0.1 0.5,0.1 0.1,0 0.3,0.1 0.4,0.1 0.1,0 0.3,0 0.4,0 0.1,0 0.3,0 0.5,0 l 3.2,0 0,1.2 -1.1,0 0,4.6 -1.5,0 0,-4.6 -1,0 z m 11.6,-1.2 c 0.2,0 0.5,0 0.7,0.1 0.2,0.1 0.4,0.2 0.6,0.3 0.2,0.1 0.3,0.3 0.4,0.6 0.1,0.3 0.2,0.6 0.2,1 l 0,3.9 -5.5,0 0,-3.3 c 0,-0.2 0,-0.5 0,-0.7 0,-0.2 0.1,-0.5 0.1,-0.7 -0.1,0 -0.3,0 -0.4,-0.1 -0.1,0 -0.3,-0.1 -0.5,-0.1 0.1,-0.2 0.1,-0.4 0.2,-0.6 0.1,-0.2 0.1,-0.4 0.2,-0.6 0.2,0.1 0.4,0.1 0.5,0.1 0.1,0 0.3,0.1 0.4,0.1 0.1,0 0.3,0 0.4,0 0.1,0 0.3,0 0.5,0 l 2.2,0 z m 0.4,4.6 0,-2.3 c 0,-0.2 0,-0.4 0,-0.6 0,-0.1 -0.1,-0.3 -0.1,-0.3 -0.1,-0.1 -0.2,-0.1 -0.3,-0.2 -0.1,0 -0.3,0 -0.5,0 l -1.3,0 c -0.1,0.3 -0.1,0.5 -0.1,0.7 0,0.2 0,0.4 0,0.7 l 0,2 2.3,0 z m 6.8,-4.6 c 0.2,0 0.5,0 0.7,0.1 0.2,0.1 0.4,0.2 0.6,0.3 0.2,0.1 0.3,0.3 0.4,0.6 0.1,0.3 0.2,0.6 0.2,1 l 0,3.9 -1.5,0 0,-3.5 c 0,-0.2 0,-0.4 0,-0.6 0,-0.1 -0.1,-0.3 -0.1,-0.3 -0.1,-0.1 -0.2,-0.1 -0.3,-0.2 -0.1,0 -0.3,0 -0.5,0 l -1.1,0 c -0.1,0.3 -0.1,0.5 -0.1,0.7 0,0.2 0,0.4 0,0.7 l 0,3.3 -1.5,0 0,-3.4 c 0,-0.2 0,-0.5 0,-0.7 0,-0.2 0.1,-0.5 0.1,-0.7 -0.1,0 -0.3,0 -0.4,-0.1 -0.1,0 -0.3,-0.1 -0.5,-0.1 0.1,-0.2 0.1,-0.4 0.2,-0.6 0.1,-0.2 0.1,-0.4 0.2,-0.6 0.2,0.1 0.4,0.1 0.5,0.1 0.1,0 0.3,0.1 0.4,0.1 0.1,0 0.3,0 0.4,0 0.1,0 0.3,0 0.5,0 l 1.8,0 z m 7.3,0 c 0.2,0 0.5,0 0.7,0.1 0.2,0.1 0.4,0.2 0.6,0.3 0.2,0.1 0.3,0.3 0.4,0.6 0.1,0.3 0.2,0.6 0.2,1 l 0,3.9 -1.5,0 0,-3.5 c 0,-0.2 0,-0.4 0,-0.6 0,-0.1 -0.1,-0.3 -0.1,-0.3 -0.1,-0.1 -0.2,-0.1 -0.3,-0.2 -0.1,0 -0.3,0 -0.5,0 l -0.8,0 c -0.1,0.3 -0.2,0.5 -0.3,0.8 0,0.3 -0.1,0.6 -0.1,0.9 0,0.2 0,0.3 0,0.5 0,0.1 0,0.3 0,0.4 0,0.1 0,0.3 0.1,0.4 0,0.1 0.1,0.3 0.1,0.4 l 0.1,0.3 c 0,0.2 0,0.3 -0.1,0.5 0,0.1 0,0.3 -0.1,0.4 l -2.8,0 0,-1.3 1.3,0 c -0.1,-0.3 -0.2,-0.6 -0.2,-0.8 0,-0.3 -0.1,-0.5 -0.1,-0.8 0,-0.2 0,-0.4 0,-0.6 0,-0.2 0.1,-0.4 0.1,-0.6 0,-0.1 0.1,-0.2 0.1,-0.3 0,-0.1 0.1,-0.2 0.1,-0.3 -0.2,0 -0.3,0 -0.5,-0.1 -0.2,0 -0.3,-0.1 -0.6,-0.2 0.1,-0.2 0.1,-0.4 0.2,-0.6 0.1,-0.2 0.1,-0.4 0.2,-0.6 0.2,0.1 0.4,0.1 0.5,0.1 0.1,0 0.3,0.1 0.4,0.1 0.1,0 0.3,0 0.4,0 0.1,0 0.3,0 0.5,0 l 2,0 z m 3.3,0.4 c 0.2,-0.1 0.4,-0.3 0.6,-0.4 0.2,-0.1 0.4,-0.2 0.6,-0.4 0.1,0.1 0.2,0.2 0.2,0.3 0.1,0.1 0.1,0.2 0.2,0.3 0,0.1 0.1,0.2 0.1,0.2 0,0.1 0.1,0.2 0.1,0.3 0.3,-0.3 0.6,-0.6 1,-0.7 0.3,-0.2 0.7,-0.2 1,-0.2 0.2,0 0.5,0 0.7,0.1 0.2,0.1 0.4,0.2 0.6,0.3 0.2,0.1 0.3,0.3 0.4,0.5 0.1,0.2 0.2,0.4 0.3,0.7 0,0.2 0.1,0.4 0.1,0.7 0,0.3 0,0.5 0,0.8 0,0.1 0,0.3 0,0.5 0,0.2 0,0.3 0,0.6 0,0.3 0,0.5 0,0.7 0,0.2 0,0.4 0,0.6 0,0.1 0,0.2 0,0.3 0,0.1 0,0.2 0,0.3 l -3,0 0,-1.3 1.5,0 c 0,0 0,-0.1 0,-0.1 0,-0.1 0,-0.1 0,-0.3 0,-0.1 0,-0.3 0,-0.4 0,-0.2 0,-0.4 0,-0.7 0,-0.1 0,-0.2 0,-0.3 0,-0.1 0,-0.2 0,-0.3 0,-0.1 0,-0.2 0,-0.3 0,-0.1 0,-0.2 0,-0.3 0,-0.3 -0.1,-0.5 -0.3,-0.6 -0.1,-0.1 -0.3,-0.2 -0.6,-0.2 -0.1,0 -0.3,0 -0.4,0.1 -0.1,0.1 -0.3,0.1 -0.4,0.2 -0.1,0.1 -0.2,0.1 -0.3,0.2 -0.1,0.1 -0.2,0.2 -0.2,0.3 -0.1,0.4 -0.1,0.8 -0.2,1.1 0,0.3 -0.1,0.6 -0.1,0.8 0,0.2 -0.1,0.4 -0.1,0.6 0,0.2 -0.1,0.3 -0.1,0.5 0,0.2 0,0.3 -0.1,0.5 0,0.2 -0.1,0.4 -0.1,0.6 l -1.5,0 0.1,-1 c 0,-0.2 0.1,-0.5 0.1,-0.7 0,-0.2 0.1,-0.4 0.1,-0.6 0,-0.2 0.1,-0.4 0.1,-0.6 0,-0.2 0.1,-0.4 0.1,-0.7 0,-0.1 0,-0.1 0,-0.2 0,-0.1 0,-0.1 0,-0.2 0,-0.1 0,-0.2 0,-0.3 0,-0.1 0,-0.2 -0.1,-0.2 0,-0.1 -0.1,-0.2 -0.1,-0.2 0,-0.1 -0.1,-0.2 -0.1,-0.3 l -0.2,-0.6 z"
       style="fill:#141132" />
    <g
       id="g991"
       transform="translate(92.81429,304.64792)">
      <defs
         id="defs993">
        <rect
           height="1157.5"
           width="554"
           y="79.099998"
           x="24.700001"
           id="SVGID_79_" />
      </defs>
      <clipPath
         id="clipPath5468">
        <use
           id="use5470"
           overflow="visible"
           xlink:href="#SVGID_79_"
           style="overflow:visible"
           x="0"
           y="0"
           width="100%"
           height="100%" />
      </clipPath>
      <path
         id="path999"
         d="m 257.7,165 c 0,2.7 -4.8,10 -4.8,10 0,0 -4.8,-7.3 -4.8,-10 0,-2.7 2.2,-4.8 4.8,-4.8 2.6,0 4.8,2.1 4.8,4.8"
         clip-path="url(#SVGID_80_)"
         style="fill:#eb788b" />
    </g>
  </g>
</svg>
