<?xml version="1.0" encoding="UTF-8" standalone="no"?>
<svg
   xmlns:dc="http://purl.org/dc/elements/1.1/"
   xmlns:cc="http://creativecommons.org/ns#"
   xmlns:rdf="http://www.w3.org/1999/02/22-rdf-syntax-ns#"
   xmlns:svg="http://www.w3.org/2000/svg"
   xmlns="http://www.w3.org/2000/svg"
   xmlns:xlink="http://www.w3.org/1999/xlink"
   id="svg6137"
   version="1.1"
   viewBox="0 0 38.311667 30.903333"
   height="116.8"
   width="144.8">
  <defs
     id="defs6131">
    <clipPath
       id="SVGID_30_">
      <use
         id="use1578"
         style="overflow:visible"
         xlink:href="#SVGID_29_"
         x="0"
         y="0"
         width="100%"
         height="100%" />
    </clipPath>
    <clipPath
       id="SVGID_32_">
      <use
         id="use1590"
         style="overflow:visible"
         xlink:href="#SVGID_31_"
         x="0"
         y="0"
         width="100%"
         height="100%" />
    </clipPath>
    <rect
       height="25.200001"
       width="36.799999"
       y="453.20001"
       x="2130.3999"
       id="SVGID_29_" />
    <rect
       height="25.200001"
       width="36.799999"
       y="453.20001"
       x="2130.3999"
       id="SVGID_31_" />
  </defs>
  <metadata
     id="metadata6134">
    <rdf:RDF>
      <cc:Work
         rdf:about="">
        <dc:format>image/svg+xml</dc:format>
        <dc:type
           rdf:resource="http://purl.org/dc/dcmitype/StillImage" />
        <dc:title></dc:title>
      </cc:Work>
    </rdf:RDF>
  </metadata>
  <g
     transform="translate(-67.540566,-117.50667)"
     id="layer1">
    <g
       transform="matrix(0.26458333,0,0,0.26458333,-481.94612,12.467085)"
       id="g2486">
      <path
         d="m 2172.4,466.2 c 0,12.7 -23.2,47.6 -23.2,47.6 0,0 -23.2,-34.9 -23.2,-47.6 0,-12.7 10.4,-23.2 23.2,-23.2 12.9,0.1 23.2,10.4 23.2,23.2"
         class="st2"
         id="path429_4_"
         style="fill:#ec2426" />
      <rect
         height="38.5"
         width="143"
         class="st2"
         y="397"
         x="2078.6001"
         id="rect311_4_"
         style="fill:#ec2426" />
      <g
         id="g1469">
        <g
           id="g1467">
          <path
             id="path1453"
             d="m 2115,420.9 h -2 v 4 h -4.1 v -4 h -7.5 l -0.2,-2.6 7.8,-12.3 h 3.2 0.9 v 11.6 h 2 v 3.3 z m -6.1,-3.3 v -6.1 l -0.3,0.5 -3.5,5.6 z"
             class="st11"
             style="fill:#fffffd" />
          <path
             id="path1455"
             d="m 2124.5,409.3 h 13.4 v 15.6 h -13.4 z m 9.1,12.3 v -9 h -4.9 v 9 z"
             class="st11"
             style="fill:#fffffd" />
          <path
             id="path1457"
             d="m 2143,412.6 h -2.4 v -3.3 h 6.6 v 8.9 h -4.2 z"
             class="st11"
             style="fill:#fffffd" />
          <path
             id="path1459"
             d="m 2151.6,425.1 c -0.5,-0.1 -1,-0.2 -1.6,-0.3 v -3.2 c 0.6,0.1 1.3,0.1 1.9,0.1 0.6,0 1,-0.2 1.3,-0.5 0.3,-0.3 0.4,-0.8 0.4,-1.5 v -7.2 h -2.7 v -3.3 h 7 V 420 c 0,1 -0.2,2 -0.6,2.7 -0.4,0.8 -0.9,1.3 -1.7,1.7 -0.7,0.4 -1.6,0.6 -2.6,0.6 -0.5,0.2 -1,0.1 -1.4,0.1 z"
             class="st11"
             style="fill:#fffffd" />
          <path
             id="path1461"
             d="m 2167.2,414.6 c 0,-0.7 -0.2,-1.2 -0.6,-1.5 -0.4,-0.4 -0.9,-0.5 -1.7,-0.5 h -4.7 v -3.3 h 5 c 1.3,0 2.4,0.2 3.3,0.7 0.9,0.4 1.6,1.1 2.1,1.9 0.5,0.8 0.7,1.8 0.7,3 v 10 h -4.2 v -10.3 z"
             class="st11"
             style="fill:#fffffd" />
          <path
             id="path1463"
             d="m 2175.5,412.6 h -1.3 v -3.3 h 5.6 v 15.6 h -4.2 v -12.3 z"
             class="st11"
             style="fill:#fffffd" />
          <path
             id="path1465"
             d="m 2194.1,418.4 4.5,6.5 h -4.7 l -5.7,-8.2 c -0.2,0.3 -0.4,0.8 -0.4,1.3 v 7 h -4.1 v -5.1 c 0,-1.4 0.2,-2.6 0.7,-3.5 0.4,-0.9 1.2,-1.5 2.1,-2 l -3.4,-5 h 4.7 l 3.7,5.3 2.5,-5.3 h 4.7 z"
             class="st11"
             style="fill:#fffffd" />
        </g>
      </g>
      <g
         id="g1599">
        <g
           id="g1583">
          <defs
             id="defs1576" />
          <clipPath
             id="clipPath6115">
            <use
               id="use6113"
               style="overflow:visible"
               xlink:href="#SVGID_29_"
               x="0"
               y="0"
               width="100%"
               height="100%" />
          </clipPath>
          <path
             id="path1581"
             clip-path="url(#SVGID_30_)"
             d="m 2158.9,470.9 -3.6,-13.4 -0.2,-0.9 c -0.3,-1 -1.3,-1.6 -2.3,-1.3 -0.8,0.2 -1.3,0.9 -1.4,1.7 l -19.5,10.6 c -0.2,-0.2 -0.5,-0.3 -0.9,-0.2 -0.5,0.1 -0.8,0.6 -0.7,1.1 l 0.4,1.3 0.7,2.7 0.4,1.3 c 0.1,0.5 0.6,0.8 1.1,0.7 0.3,-0.1 0.5,-0.3 0.6,-0.6 h 1.5 c 0.4,2.3 2.4,4.1 4.9,4.1 0.4,0 0.9,-0.1 1.3,-0.2 0.8,-0.2 1.6,-0.7 2.2,-1.3 0.8,-0.8 1.3,-1.8 1.4,-2.9 l 10.9,-0.3 c 0.4,0.7 1.2,1 2,0.8 1,-0.3 1.6,-1.3 1.3,-2.3 z m -16.7,4.2 c -0.6,0.6 -1.4,0.9 -2.2,0.9 -1.4,0 -2.6,-1 -3,-2.3 l 6,-0.2 c -0.1,0.6 -0.4,1.2 -0.8,1.6 z m -7.2,-5 17.3,-9.4 2.4,8.9 z m 0,0"
             class="st32"
             style="fill:#fbf2de;enable-background:new" />
        </g>
        <path
           id="path1585"
           d="m 2161.6,463.9 4.5,-1.2 c 0.5,-0.1 0.8,-0.6 0.7,-1.1 -0.1,-0.5 -0.6,-0.8 -1.1,-0.7 l -4.5,1.2 c -0.5,0.1 -0.8,0.6 -0.7,1.1 0.1,0.5 0.6,0.8 1.1,0.7 z m 0,0"
           class="st7"
           style="fill:#fbf2de;enable-background:new" />
        <g
           id="g1597">
          <defs
             id="defs1588" />
          <clipPath
             id="clipPath6124">
            <use
               id="use6122"
               style="overflow:visible"
               xlink:href="#SVGID_31_"
               x="0"
               y="0"
               width="100%"
               height="100%" />
          </clipPath>
          <path
             id="path1593"
             clip-path="url(#SVGID_32_)"
             d="m 2166.2,469.7 -4.5,-1.2 c -0.5,-0.1 -1,0.2 -1.1,0.7 -0.1,0.5 0.2,1 0.7,1.1 l 4.5,1.2 c 0.2,0 0.3,0 0.5,0 0.3,-0.1 0.6,-0.3 0.7,-0.7 0,-0.4 -0.3,-0.9 -0.8,-1.1 z m 0,0"
             class="st33"
             style="fill:#fbf2de;enable-background:new" />
          <path
             id="path1595"
             clip-path="url(#SVGID_32_)"
             d="m 2158.5,458.3 c 0.2,0 0.3,-0.1 0.4,-0.2 l 3.3,-3.3 c 0.4,-0.4 0.4,-0.9 0,-1.3 -0.4,-0.4 -0.9,-0.4 -1.3,0 l -3.3,3.3 c -0.4,0.4 -0.4,0.9 0,1.3 0.3,0.2 0.6,0.2 0.9,0.2 z m 0,0"
             class="st33"
             style="fill:#fbf2de;enable-background:new" />
        </g>
      </g>
    </g>
  </g>
</svg>
