<?xml version="1.0" encoding="UTF-8" standalone="no"?>
<!-- Created with Inkscape (http://www.inkscape.org/) -->

<svg
   width="125.19999"
   height="97.299995"
   viewBox="0 0 33.12583 25.743958"
   version="1.1"
   id="svg1257"
   xmlns="http://www.w3.org/2000/svg"
   xmlns:svg="http://www.w3.org/2000/svg">
  <defs
     id="defs1254" />
  <g
     id="layer1"
     transform="translate(-94.77356,-126.68157)">
    <path
       id="path355_23_"
       class="st10"
       d="m 116.20482,142.39782 c 0,2.67229 -4.86834,10.02771 -4.86834,10.02771 0,0 -4.86833,-7.38188 -4.86833,-10.02771 0,-2.64584 2.16958,-4.86834 4.86833,-4.86834 2.6723,0.0265 4.86834,2.2225 4.86834,4.86834"
       style="fill:#0b8e36;fill-opacity:1;stroke-width:0.264583" />
    <path
       id="path357_14_"
       class="st7"
       d="m 108.42607,145.99615 c 0,0.21167 0.0529,0.3175 0.3175,0.3175 0.26458,0 0.3175,-0.0529 0.3175,-0.3175 v -2.83104 h 0.3175 v 2.83104 c 0,0.21167 0.0529,0.3175 0.3175,0.3175 0.21166,0 0.3175,-0.0529 0.3175,-0.3175 v -4.7625 h 0.15875 v 1.71979 c 0,0.0529 0,0.15875 0.0529,0.21167 0.0529,0.0529 0.15875,0.0529 0.21167,0 0.0529,-0.0529 0.15875,-0.15875 0.15875,-0.21167 v -1.905 c 0,-0.21166 -0.0529,-0.39687 -0.21167,-0.47625 -0.15875,-0.0529 -0.3175,-0.15875 -0.55562,-0.15875 h -1.24354 c -0.21167,0 -0.39688,0.0529 -0.55563,0.15875 -0.15875,0.0529 -0.21166,0.21167 -0.21166,0.47625 v 1.95792 c 0,0.0529 0.0529,0.15875 0.15875,0.15875 0.0529,0.0529 0.15875,0.0529 0.21166,0 0.0529,-0.0529 0.0529,-0.0529 0.0529,-0.15875 v -1.79917 h 0.15875 v 4.78896 z"
       style="fill:#ffffcc;stroke-width:0.264583;enable-background:new" />
    <path
       id="path359_14_"
       class="st7"
       d="m 114.5644,143.74719 -0.87312,-2.51354 v 0 c 0,-0.0529 0,-0.0529 0.0529,-0.0529 0,0 0.0529,0 0.0529,0.0529 l 0.635,1.56104 c 0.0529,0.0529 0.15875,0.15875 0.3175,0.15875 0.0529,0 0.0529,-0.0529 0.15875,-0.15875 0,-0.0529 0,-0.15875 0,-0.15875 l -0.635,-1.56104 c 0,-0.15875 -0.0529,-0.3175 -0.21167,-0.47625 -0.15875,-0.15875 -0.3175,-0.15875 -0.55562,-0.15875 h -0.76729 c -0.21167,0 -0.39688,0.0529 -0.55563,0.21167 -0.15875,0.15875 -0.21167,0.3175 -0.3175,0.47625 l -0.55562,1.56104 c 0,0 0,0.0529 0,0.15875 0,0.0529 0.0529,0.15875 0.15875,0.15875 0.15875,0 0.3175,-0.0529 0.3175,-0.15875 l 0.635,-1.64042 c 0,0 0,-0.0529 0.0529,-0.0529 0.0529,0 0.0529,0 0.0529,0.0529 v 0 l -0.87313,2.51354 v 0.15875 c 0,0 0,0.0529 0.0529,0.0529 0.0529,0.0529 0.0529,0.0529 0.0529,0.0529 h 0.55562 v 1.95791 c 0,0.0529 0,0.15875 0.0529,0.21167 0.0529,0.0529 0.15875,0.0529 0.21167,0.0529 0.0529,0 0.15875,0 0.21166,-0.0529 0.0529,-0.0529 0.0529,-0.15875 0.0529,-0.21167 v -1.95791 c 0,0 0,0 0.0529,0 0.0529,0 0.0529,0 0.15875,0 0.0529,0 0.0529,0 0.0529,0 v 1.95791 c 0,0.0529 0,0.15875 0.0529,0.21167 0.0529,0.0529 0.15875,0.0529 0.21167,0.0529 0.0529,0 0.15875,0 0.21166,-0.0529 0.0529,-0.0529 0.0529,-0.15875 0.0529,-0.21167 v -1.905 h 0.55562 c 0,0 0.0529,0 0.0529,-0.0529 0.0529,-0.0529 0.0529,-0.0529 0.0529,-0.0529 v -0.21167 h 0.26458 z"
       style="fill:#ffffcc;stroke-width:0.264583;enable-background:new" />
    <path
       id="path361_14_"
       class="st7"
       d="m 108.58482,139.59323 c 0,0.15875 0.0529,0.3175 0.15875,0.47625 0.15875,0.15875 0.21166,0.15875 0.47625,0.15875 0.15875,0 0.3175,-0.0529 0.47625,-0.15875 0.15875,-0.15875 0.15875,-0.3175 0.15875,-0.47625 0,-0.15875 -0.0529,-0.3175 -0.15875,-0.47625 -0.15875,-0.15875 -0.21167,-0.15875 -0.47625,-0.15875 -0.15875,0 -0.3175,0.0529 -0.47625,0.15875 -0.15875,0.15875 -0.15875,0.3175 -0.15875,0.47625"
       style="fill:#ffffcc;stroke-width:0.264583;enable-background:new" />
    <path
       id="path363_14_"
       class="st7"
       d="m 112.3419,139.59323 c 0,0.15875 0.0529,0.3175 0.15875,0.47625 0.15875,0.15875 0.21167,0.15875 0.47625,0.15875 0.21167,0 0.3175,-0.0529 0.47625,-0.15875 0.15875,-0.15875 0.15875,-0.21166 0.15875,-0.47625 0,-0.15875 -0.0529,-0.3175 -0.15875,-0.47625 -0.15875,-0.15875 -0.21167,-0.15875 -0.47625,-0.15875 -0.21167,0 -0.3175,0.0529 -0.47625,0.15875 -0.0529,0.15875 -0.15875,0.3175 -0.15875,0.47625"
       style="fill:#ffffcc;stroke-width:0.264583;enable-background:new" />
    <rect
       id="rect475_8_"
       x="94.77356"
       y="126.68157"
       class="st10"
       width="33.125832"
       height="10.186459"
       style="fill:#a22442;stroke-width:0.264583" />
    <path
       class="st12"
       d="m 98.874608,129.48615 h 3.545422 v 4.1275 h -3.545422 z m 2.434172,3.25438 v -2.38125 h -1.29646 v 2.38125 z"
       id="path1069"
       style="fill:#fffffd;stroke-width:0.264583" />
    <path
       class="st12"
       d="m 103.79586,130.35928 h -0.635 v -0.87313 h 1.74625 v 2.35479 h -1.11125 z"
       id="path1071"
       style="fill:#fffffd;stroke-width:0.264583" />
    <path
       class="st12"
       d="m 109.11398,129.88303 c 0.29105,0.26458 0.42334,0.66145 0.42334,1.16416 v 2.56646 h -1.11125 v -2.67229 c 0,-0.39688 -0.18521,-0.60854 -0.52917,-0.60854 h -0.52917 c -0.0265,0.13229 -0.0529,0.26458 -0.0794,0.42333 -0.0265,0.15875 -0.0265,0.29104 -0.0265,0.42333 v 1.16417 c 0,0.29104 -0.0529,0.52917 -0.15875,0.71438 -0.10583,0.21166 -0.23812,0.34395 -0.42333,0.44979 -0.18521,0.10583 -0.42334,0.15875 -0.68792,0.15875 -0.15875,0 -0.34396,-0.0265 -0.52917,-0.0529 v -0.87312 c 0.10584,0 0.15875,0 0.21167,0 0.3175,0 0.50271,-0.18521 0.50271,-0.52917 v -0.97898 c 0,-0.15875 0.0265,-0.3175 0.0529,-0.47625 0.0264,-0.15875 0.10583,-0.3175 0.15875,-0.44979 h -0.635 v -0.87313 h 2.11666 c 0.55563,0.0529 0.9525,0.18521 1.24354,0.4498 z"
       id="path1073"
       style="fill:#fffffd;stroke-width:0.264583" />
    <path
       class="st12"
       d="m 110.59565,130.35928 h -0.34396 v -0.87313 h 1.48167 v 4.1275 h -1.11125 v -3.25437 z"
       id="path1075"
       style="fill:#fffffd;stroke-width:0.264583" />
    <path
       class="st12"
       d="m 114.19398,130.9149 c 0,-0.18521 -0.0529,-0.3175 -0.15875,-0.39687 -0.10583,-0.10584 -0.23812,-0.1323 -0.44979,-0.1323 h -1.24354 v -0.87312 h 1.32292 c 0.34396,0 0.635,0.0529 0.87312,0.18521 0.23813,0.10583 0.42334,0.29104 0.55563,0.50271 0.13229,0.21166 0.18521,0.47625 0.18521,0.79375 v 2.64583 h -1.11125 v -2.72521 z"
       id="path1077"
       style="fill:#fffffd;stroke-width:0.264583" />
    <path
       class="st12"
       d="m 116.57523,130.35928 h -0.635 v -0.87313 h 1.74625 v 2.35479 h -1.11125 z"
       id="path1079"
       style="fill:#fffffd;stroke-width:0.264583" />
    <path
       class="st12"
       d="m 119.82961,132.60823 c 0.18521,0.0794 0.39687,0.15875 0.635,0.21167 0.23812,0.0529 0.42333,0.0794 0.635,0.0794 0.50271,0 0.89958,-0.10584 1.19062,-0.3175 0.29105,-0.21167 0.42334,-0.52917 0.42334,-0.9525 v -2.11667 h 1.08479 v 2.2225 c 0,0.44979 -0.10583,0.82021 -0.34396,1.11125 -0.23812,0.29104 -0.55562,0.52917 -0.9525,0.68792 -0.39687,0.15875 -0.84667,0.23812 -1.34937,0.23812 -0.39688,0 -0.79375,-0.0529 -1.21709,-0.13229 -0.42333,-0.10583 -0.79375,-0.23813 -1.16416,-0.39688 v -3.70416 h 1.08479 v 3.06916 z m 0.84667,-0.68791 c 0.0265,-0.15875 0.0265,-0.34396 0.0265,-0.52917 v -1.905 h 1.0848 v 1.66688 c 0,0.23812 -0.0265,0.44979 -0.0794,0.66145 -0.0529,0.21167 -0.13229,0.37042 -0.21167,0.47625 h -0.89958 c 0.0265,-0.0794 0.0529,-0.21166 0.0794,-0.37041 z"
       id="path1081"
       style="fill:#fffffd;stroke-width:0.264583" />
  </g>
</svg>
