<?xml version="1.0" encoding="UTF-8" standalone="no"?>
<svg
   xmlns:dc="http://purl.org/dc/elements/1.1/"
   xmlns:cc="http://creativecommons.org/ns#"
   xmlns:rdf="http://www.w3.org/1999/02/22-rdf-syntax-ns#"
   xmlns:svg="http://www.w3.org/2000/svg"
   xmlns="http://www.w3.org/2000/svg"
   width="55.315556mm"
   height="45.522449mm"
   viewBox="0 0 196 161.30002"
   id="svg10498"
   version="1.1">
  <defs
     id="defs10500" />
  <metadata
     id="metadata10503">
    <rdf:RDF>
      <cc:Work
         rdf:about="">
        <dc:format>image/svg+xml</dc:format>
        <dc:type
           rdf:resource="http://purl.org/dc/dcmitype/StillImage" />
        <dc:title></dc:title>
      </cc:Work>
    </rdf:RDF>
  </metadata>
  <g
     id="layer1"
     transform="translate(-167.71428,-451.71219)">
    <rect
       style="fill:#6f4d80"
       height="52.799999"
       width="196"
       class="st13"
       y="451.71219"
       x="167.71428"
       id="rect323_2_" />
    <g
       id="g11082"
       transform="translate(-0.19996306,0)">
      <path
         id="path457_2_"
         class="st13"
         d="m 297.61429,547.71222 c 0,17.39999 -31.70001,65.29999 -31.70001,65.29999 0,0 -31.7,-47.8 -31.7,-65.29999 0,-17.4 14.3,-31.7 31.7,-31.7 17.50001,0 31.70001,14.3 31.70001,31.7"
         style="fill:#f8b119;fill-opacity:1" />
      <g
         id="g4679-4-4_2_"
         transform="matrix(0.42702944,0,0,0.42702944,-239.751,-816.80341)">
        <path
           id="path6-3-2_2_"
           class="st8"
           d="m 1210.5,3169.2 c 7.6,-0.3 14.6,-7 16.3,-14.3 -7.5,0 -14.8,7.4 -16.3,14.3 z m -16,-8.1 c -9,10.6 -22.3,15 -34.1,21.6 -10.6,4.8 -20.3,13.8 -32.1,14.6 -0.3,7.6 2.8,14.6 4,21.9 7.6,-2.5 11,-1.7 14.6,5.6 7.3,9.3 24.8,4 25.6,-7.6 10.6,0.3 21.1,-0.3 31.2,-0.8 4,4 15.4,3.3 13,-4.5 -2.8,-16.6 -8.1,-32.9 -13,-49.2 -1.1,-3.3 -6.4,-0.8 -9.2,-1.6 z"
           style="opacity:1;fill:#ffffff;enable-background:new" />
        <path
           id="path8-6-1_2_"
           class="st13"
           d="m 1194.5,3177.4 c -15.4,9 -31.2,17.9 -47.5,25.9 1.7,4 12.1,1.7 17.4,2.5 12.6,0 25.6,0 38.2,0 -1.6,-9.8 -3.6,-20.3 -8.1,-28.4 z"
           style="fill:#f8b119;fill-opacity:1" />
        <path
           id="path10-3-3_2_"
           class="st8"
           d="m 1220.6,3187.2 c 7,0 13.5,-2 19.9,-4 1.7,-9.8 -9.3,-4.5 -14.3,-2.5 -2.8,1.2 -5.6,3.2 -5.6,6.5 m 0,16.1 c 3.7,4.8 13,9 18.6,5.3 4,-6.1 -9.8,-5.3 -13.8,-7 -2,0.2 -3.3,0.9 -4.8,1.7 l 0,0 z"
           style="opacity:1;fill:#ffffff;enable-background:new" />
        <path
           id="path12-1-27_2_"
           class="st13"
           d="m 1148.3,3217.6 c 2.8,6.1 9.8,10.6 15,4.8 8.5,-8.1 -7.6,-4 -12.6,-4.8 -0.9,0 -1.5,0 -2.4,0 z"
           style="fill:#f8b119;fill-opacity:1" />
      </g>
    </g>
    <g
       id="XMLID_1971_"
       transform="translate(-297.5857,-1073.8876)">
      <g
         id="XMLID_884_">
        <g
           id="XMLID_885_">
          <path
             style="fill:#bbbade"
             d="m 485.3,1562 2.8,-4 c 2,2 4.2,3 6.5,3 1.5,0 2.7,-0.3 3.5,-1 0.8,-0.7 1.3,-1.5 1.3,-2.7 0,-1.5 -0.5,-2.5 -1.7,-3.3 -1.2,-0.7 -3.2,-1.2 -6.1,-1.2 l 0,-4.5 c 2.5,0 4.3,-0.3 5.3,-1 1,-0.7 1.7,-1.7 1.7,-3 0,-1.2 -0.3,-2 -1,-2.5 -0.7,-0.7 -1.7,-0.8 -2.8,-0.8 -1,0 -2,0.2 -2.8,0.7 -0.8,0.5 -1.8,1 -2.7,2 l -3.2,-3.8 c 2.8,-2.5 5.8,-3.7 9,-3.7 3,0 5.3,0.7 7,2 1.7,1.3 2.7,3.3 2.7,5.8 0,3 -1.7,5.1 -4.8,6.5 l 0,0.2 c 1.7,0.5 3.2,1.3 4.2,2.5 1,1.2 1.7,2.7 1.7,4.5 0,1.7 -0.5,3.2 -1.3,4.5 -1,1.3 -2.2,2.2 -3.8,2.8 -1.7,0.7 -3.3,1 -5.3,1 -4.6,0 -7.7,-1.3 -10.2,-4 z"
             class="st1"
             id="XMLID_892_" />
          <path
             style="fill:#bbbade"
             d="m 541.3,1539.7 0,5.3 -8.1,20.4 -6.5,0 8.1,-20.9 -13.1,0 0,-11.5 5.8,0 0,6.6 13.8,0 z"
             class="st1"
             id="XMLID_891_" />
          <path
             style="fill:#bbbade"
             d="m 546.6,1545.1 -0.5,-5.3 6.5,0 0.5,5.3 0,20.4 -6.5,0 0,-20.4 z"
             class="st1"
             id="XMLID_890_" />
          <path
             style="fill:#bbbade"
             d="m 558,1560.7 7.1,0 c 1.7,0 3,-0.5 3.8,-1.7 0.8,-1.2 1.2,-2.7 1.2,-4.7 l 0,-3.3 c 0,-2 -0.3,-3.5 -1.2,-4.7 -0.8,-1.2 -2.2,-1.7 -3.8,-1.7 l -7.1,0 0,-4.8 9,0 c 3.2,0 5.6,1 7.3,3.2 1.7,2.2 2.5,4.8 2.5,8.5 l 0,2.7 c 0,3.7 -0.8,6.5 -2.5,8.5 -1.7,2 -4.2,3.2 -7.3,3.2 l -9,0 0,-5.2 z"
             class="st1"
             id="XMLID_888_" />
          <path
             style="fill:#bbbade"
             d="m 603.2,1561.3 c -3.7,3.2 -9.3,4.7 -16.9,4.7 l -1.3,0 -3.3,-26.2 6.1,0 1.3,11.1 c 1.2,-0.7 2,-1.5 2.5,-2.7 0.5,-1.2 0.7,-3 0.7,-5.5 l 0,-3 6.1,0 0,2.8 c 0,3.3 -0.7,6 -2,8 -1.3,2 -3.5,3.7 -6.6,4.7 l 0.7,5.1 c 4.3,-0.3 7.3,-1.5 9.1,-3.7 1.8,-2.2 2.7,-5.3 2.7,-9.3 l -0.2,-8 6.5,0 0,7.5 c -0.1,6.7 -1.7,11.4 -5.4,14.5 z"
             class="st1"
             id="XMLID_887_" />
          <path
             style="fill:#bbbade"
             d="m 631,1565.5 -8.5,-13.1 -4,13.1 -6.1,0 5,-15.4 1.3,-3.5 -4.2,-6.8 6.5,0 3.7,5.8 3.3,5 1.2,-4.2 1.8,-6.6 6.1,0 -5.5,16.4 6.1,9.3 -6.7,0 z"
             class="st1"
             id="XMLID_886_" />
        </g>
      </g>
    </g>
  </g>
</svg>
