<?xml version="1.0" encoding="UTF-8" standalone="no"?>
<svg
   xmlns:dc="http://purl.org/dc/elements/1.1/"
   xmlns:cc="http://creativecommons.org/ns#"
   xmlns:rdf="http://www.w3.org/1999/02/22-rdf-syntax-ns#"
   xmlns:svg="http://www.w3.org/2000/svg"
   xmlns="http://www.w3.org/2000/svg"
   width="30.395332mm"
   height="25.004898mm"
   viewBox="0 0 107.7 88.600032"
   id="svg5218"
   version="1.1">
  <defs
     id="defs5220" />
  <metadata
     id="metadata5223">
    <rdf:RDF>
      <cc:Work
         rdf:about="">
        <dc:format>image/svg+xml</dc:format>
        <dc:type
           rdf:resource="http://purl.org/dc/dcmitype/StillImage" />
        <dc:title></dc:title>
      </cc:Work>
    </rdf:RDF>
  </metadata>
  <g
     id="layer1"
     transform="translate(-214.72144,-482.3479)">
    <g
       id="g5279">
      <g
         transform="translate(-0.04999,0)"
         id="g5271">
        <path
           id="path457_2_"
           class="st4259"
           d="m 286.02143,535.04793 c 0,9.6 -17.4,35.9 -17.4,35.9 0,0 -17.4,-26.3 -17.4,-35.9 0,-9.6 7.8,-17.4 17.4,-17.4 9.6,0 17.4,7.8 17.4,17.4"
           style="fill:#d29839;fill-opacity:1" />
        <g
           id="g4679-4-4_2_"
           transform="matrix(0.42702949,0,0,0.42702949,-155.94387,306.13223)">
          <path
             id="path6-3-2_2_"
             class="st4262"
             d="m 1008.6,521.7 c 4.2,-0.2 8,-3.8 8.9,-7.8 -4,0 -8,4 -8.9,7.8 z m -8.7,-4.5 c -4.9,5.8 -12.3,8.2 -18.7,11.8 -5.8,2.7 -11.1,7.6 -17.6,8 -0.2,4.2 1.6,8 2.2,12 4.2,-1.3 6,-0.9 8,3.1 4,5.1 13.6,2.2 14,-4.2 5.8,0.2 11.6,-0.2 17.2,-0.4 2.2,2.2 8.5,1.8 7.1,-2.5 -1.6,-9.1 -4.5,-18.1 -7.1,-27 -0.7,-1.7 -3.6,-0.3 -5.1,-0.8 z"
             style="opacity:0.8;fill:#ffffff" />
          <path
             id="path8-6-1_2_"
             class="st4259"
             d="m 999.9,526.1 c -8.5,4.9 -17.2,9.8 -26.1,14.3 0.9,2.2 6.7,0.9 9.6,1.3 6.9,0 14,0 21,0 -1,-5.3 -2.1,-11.1 -4.5,-15.6 z"
             style="fill:#d29839;fill-opacity:1" />
          <path
             id="path10-3-3_2_"
             class="st4262"
             d="m 1014.1,531.5 c 3.8,0 7.4,-1.1 10.9,-2.2 0.9,-5.4 -5.1,-2.5 -7.8,-1.3 -1.5,0.6 -3.1,1.7 -3.1,3.5 m 0,8.9 c 2,2.7 7.1,4.9 10.3,2.9 2.2,-3.3 -5.4,-2.9 -7.6,-3.8 -1.1,0 -1.8,0.5 -2.7,0.9 l 0,0 z"
             style="opacity:0.8;fill:#ffffff" />
          <path
             id="path12-1-27_2_"
             class="st4259"
             d="m 974.5,548.2 c 1.6,3.3 5.4,5.8 8.2,2.7 4.7,-4.5 -4.2,-2.2 -6.9,-2.7 -0.5,0 -0.9,0 -1.3,0 z"
             style="fill:#d29839;fill-opacity:1" />
        </g>
      </g>
      <g
         id="g5260">
        <rect
           id="rect323_2_"
           x="214.72144"
           y="482.3479"
           class="st4259"
           width="107.7"
           height="29"
           style="fill:#401225" />
        <g
           id="g473"
           transform="translate(-213.77857,49.047923)">
          <g
             id="g475">
            <path
               class="st4272"
               d="m 439.4,453.3 1.6,-2.2 c 1.1,1.1 2.3,1.6 3.5,1.6 0.8,0 1.5,-0.2 1.9,-0.5 0.5,-0.4 0.7,-0.9 0.7,-1.5 0,-0.8 -0.3,-1.4 -1,-1.8 -0.6,-0.4 -1.8,-0.6 -3.4,-0.6 l 0,-2.4 c 1.4,0 2.4,-0.2 3,-0.6 0.6,-0.4 0.9,-0.9 0.9,-1.6 0,-0.6 -0.2,-1.1 -0.5,-1.4 -0.4,-0.3 -0.9,-0.5 -1.5,-0.5 -0.6,0 -1.1,0.1 -1.5,0.3 -0.4,0.2 -1,0.6 -1.5,1.1 l -1.7,-2.1 c 1.6,-1.3 3.2,-2 4.9,-2 1.6,0 2.9,0.4 3.9,1.1 1,0.8 1.4,1.8 1.4,3.2 0,1.6 -0.9,2.8 -2.7,3.5 l 0,0.1 c 1,0.3 1.7,0.7 2.3,1.4 0.6,0.7 0.9,1.5 0.9,2.5 0,0.9 -0.3,1.8 -0.8,2.5 -0.5,0.7 -1.2,1.2 -2.1,1.6 -0.9,0.4 -1.8,0.5 -2.9,0.5 -2.2,0 -4.1,-0.7 -5.4,-2.2 z"
               id="path477"
               style="fill:#5cc1d4" />
            <path
               class="st4272"
               d="m 470.2,441.1 0,2.9 -4.5,11.2 -3.6,0 4.4,-11.5 -7.2,0 0,-6.3 3.2,0 0,3.6 7.7,0 z"
               id="path479"
               style="fill:#5cc1d4" />
            <path
               class="st4272"
               d="m 473.1,444 -0.3,-2.9 3.6,0 0.3,2.9 0,11.2 -3.6,0 0,-11.2 z"
               id="path481"
               style="fill:#5cc1d4" />
            <path
               class="st4272"
               d="m 479.3,452.5 4,0 c 1,0 1.7,-0.3 2.1,-0.9 0.5,-0.6 0.7,-1.5 0.7,-2.5 l 0,-1.9 c 0,-1.1 -0.2,-1.9 -0.7,-2.5 -0.5,-0.6 -1.2,-0.9 -2.1,-0.9 l -4,0 0,-2.7 4.9,0 c 1.8,0 3.1,0.6 4,1.7 0.9,1.1 1.4,2.7 1.4,4.6 l 0,1.5 c 0,2 -0.5,3.5 -1.4,4.6 -0.9,1.1 -2.3,1.7 -4,1.7 l -4.9,0 0,-2.7 z"
               id="path483"
               style="fill:#5cc1d4" />
            <path
               class="st4272"
               d="m 504.2,452.9 c -2,1.7 -5.1,2.6 -9.3,2.6 l -0.8,0 -1.9,-14.4 3.4,0 0.7,6.1 c 0.7,-0.3 1.1,-0.8 1.3,-1.5 0.2,-0.7 0.3,-1.7 0.3,-3 l 0,-1.6 3.4,0 0,1.6 c 0,1.8 -0.4,3.3 -1.1,4.4 -0.7,1.1 -1.9,2 -3.7,2.6 l 0.3,2.8 c 2.4,-0.1 4,-0.8 5.1,-2 1,-1.2 1.5,-2.9 1.5,-5.1 l 0,-4.3 3.6,0 0,4.1 c 0.1,3.4 -0.8,5.9 -2.8,7.7 z"
               id="path485"
               style="fill:#5cc1d4" />
            <path
               class="st4272"
               d="m 519.4,455.2 -4.7,-7.2 -2.2,7.2 -3.4,0 2.8,-8.5 0.8,-1.9 -2.3,-3.7 3.6,0 2,3.2 1.8,2.7 0.7,-2.3 1,-3.7 3.4,0 -3,9 3.4,5.1 -3.9,0 z"
               id="path487"
               style="fill:#5cc1d4" />
          </g>
        </g>
      </g>
    </g>
  </g>
</svg>
