<?xml version="1.0" encoding="UTF-8" standalone="no"?>
<!-- Created with Inkscape (http://www.inkscape.org/) -->

<svg
   xmlns:dc="http://purl.org/dc/elements/1.1/"
   xmlns:cc="http://creativecommons.org/ns#"
   xmlns:rdf="http://www.w3.org/1999/02/22-rdf-syntax-ns#"
   xmlns:svg="http://www.w3.org/2000/svg"
   xmlns="http://www.w3.org/2000/svg"
   xmlns:xlink="http://www.w3.org/1999/xlink"
   xmlns:sodipodi="http://sodipodi.sourceforge.net/DTD/sodipodi-0.dtd"
   xmlns:inkscape="http://www.inkscape.org/namespaces/inkscape"
   width="78"
   height="39"
   viewBox="0 0 78.000001 39.000001"
   id="svg7506"
   version="1.1"
   inkscape:version="0.91 r13725"
   sodipodi:docname="harucon2016_marker_cosplay_fixes.svg">
  <defs
     id="defs7508">
    <clipPath
       id="SVGID_50_">
      <use
         height="100%"
         width="100%"
         y="0"
         x="0"
         style="overflow:visible"
         xlink:href="#SVGID_49_"
         overflow="visible"
         id="use817" />
    </clipPath>
    <clipPath
       id="SVGID_52_">
      <use
         height="100%"
         width="100%"
         y="0"
         x="0"
         style="overflow:visible"
         xlink:href="#SVGID_51_"
         overflow="visible"
         id="use835" />
    </clipPath>
  </defs>
  <sodipodi:namedview
     id="base"
     pagecolor="#ffffff"
     bordercolor="#666666"
     borderopacity="1.0"
     inkscape:pageopacity="0.0"
     inkscape:pageshadow="2"
     inkscape:zoom="15.839192"
     inkscape:cx="34.923243"
     inkscape:cy="22.792424"
     inkscape:document-units="px"
     inkscape:current-layer="layer1"
     showgrid="false"
     units="px"
     fit-margin-top="0"
     fit-margin-left="0"
     fit-margin-right="0"
     fit-margin-bottom="0"
     inkscape:window-width="1920"
     inkscape:window-height="1018"
     inkscape:window-x="-8"
     inkscape:window-y="-8"
     inkscape:window-maximized="1" />
  <metadata
     id="metadata7511">
    <rdf:RDF>
      <cc:Work
         rdf:about="">
        <dc:format>image/svg+xml</dc:format>
        <dc:type
           rdf:resource="http://purl.org/dc/dcmitype/StillImage" />
        <dc:title></dc:title>
      </cc:Work>
    </rdf:RDF>
  </metadata>
  <g
     inkscape:label="Layer 1"
     inkscape:groupmode="layer"
     id="layer1"
     transform="translate(-295.28571,-464.29077)">
    <rect
       style="fill:#141132"
       x="295.28571"
       y="464.29077"
       width="78"
       height="13"
       id="rect807" />
    <path
       inkscape:connector-curvature="0"
       style="fill:#d91378"
       d="m 303.58572,467.39078 0,2.1 c 0,0.2 0,0.4 0,0.5 0,0.1 0,0.3 0,0.4 0,0.1 0,0.2 0,0.3 0,0.1 0,0.2 -0.1,0.3 l -1.5,-0.2 c 0,-0.1 0,-0.2 0.1,-0.3 0,-0.1 0,-0.2 0,-0.3 0,-0.1 0,-0.2 0,-0.4 0,-0.1 0,-0.3 0,-0.5 l 0,-0.8 -1.3,0 0,-1.2 2.8,0 z m 4.1,0 0,2.1 c 0,0.2 0,0.4 0,0.5 0,0.1 0,0.3 0,0.4 0,0.1 0,0.2 0,0.3 0,0.1 0,0.2 -0.1,0.3 l -1.5,-0.2 c 0,-0.1 0,-0.2 0.1,-0.3 0,-0.1 0,-0.2 0,-0.3 0,-0.1 0,-0.2 0,-0.4 0,-0.1 0,-0.3 0,-0.5 l 0,-0.8 -1.4,0 0,-1.2 2.9,0 z m 2.7,-1.7 0,1.6 3.2,0 c 0,0.1 0,0.2 0.1,0.2 0,0.1 0,0.1 0,0.2 0,0.1 0,0.2 0,0.3 0,0.1 0,0.2 0,0.3 l 0,1.2 c 0,0.4 -0.1,0.9 -0.3,1.3 -0.2,0.4 -0.4,0.8 -0.8,1.2 l -1.4,1.6 -1.1,-0.9 0.6,-0.7 c 0.3,-0.3 0.5,-0.6 0.7,-0.8 0.2,-0.2 0.3,-0.4 0.4,-0.5 0.1,-0.2 0.2,-0.3 0.2,-0.5 0,-0.1 0.1,-0.3 0.1,-0.5 l 0,-1 -3.3,0 0,-2.9 1.6,0 z m 6,1.3 c 0.3,0.1 0.7,0.2 0.9,0.2 0.3,0.1 0.5,0.1 0.7,0.2 0.2,0.1 0.4,0.1 0.6,0.2 0.2,0.1 0.4,0.1 0.6,0.2 0.2,0.1 0.4,0.2 0.5,0.3 0.1,0.1 0.2,0.2 0.3,0.4 0.1,0.1 0.1,0.3 0.2,0.5 0,0.2 0,0.4 0,0.5 l 0,2.3 c 0,0.1 0,0.2 0,0.3 0,0.1 0,0.2 0,0.3 0,0.1 0,0.2 -0.1,0.4 0,0.1 -0.1,0.3 -0.1,0.6 l -5.1,0 0,-1.4 3.8,0 0,-2.3 c 0,-0.1 0,-0.2 0,-0.3 0,-0.1 0,-0.2 -0.1,-0.2 0,-0.1 -0.1,-0.1 -0.1,-0.2 -0.1,0 -0.2,-0.1 -0.3,-0.1 -0.1,-0.1 -0.3,-0.1 -0.5,-0.2 -0.2,-0.1 -0.4,-0.1 -0.6,-0.2 l -0.5,1.1 0.7,0.4 -0.7,1.1 -1.8,-1.1 1.6,-3 z m 8.8,0.4 c 0.2,0 0.5,0 0.7,0.1 0.2,0.1 0.4,0.2 0.6,0.3 0.2,0.1 0.3,0.3 0.4,0.6 0.1,0.3 0.2,0.6 0.2,1 0,0.1 0,0.2 0,0.2 0,0.1 0,0.2 0,0.3 0,0.1 0,0.2 0,0.4 0,0.1 0,0.3 0,0.5 0,0.4 -0.1,0.7 -0.2,1 -0.1,0.3 -0.3,0.6 -0.6,0.8 -0.2,0.2 -0.5,0.4 -0.8,0.5 -0.3,0.1 -0.7,0.2 -1,0.2 -0.4,0 -0.7,-0.1 -1,-0.2 -0.3,-0.1 -0.6,-0.3 -0.8,-0.5 -0.2,-0.2 -0.4,-0.5 -0.6,-0.8 -0.1,-0.3 -0.2,-0.7 -0.2,-1 0,0 0,-0.1 0,-0.1 0,0 0,-0.1 0,-0.1 0,-0.2 0,-0.4 0,-0.5 0,-0.2 0.1,-0.4 0.1,-0.6 0,-0.1 0.1,-0.3 0.2,-0.4 0.1,-0.1 0.1,-0.3 0.2,-0.4 -0.2,0 -0.3,0 -0.5,-0.1 -0.2,0 -0.3,-0.1 -0.6,-0.2 0.1,-0.2 0.1,-0.4 0.2,-0.6 0.1,-0.2 0.1,-0.4 0.2,-0.6 0.2,0 0.3,0.1 0.5,0.1 0.1,0 0.2,0.1 0.4,0.1 0.1,0 0.2,0 0.4,0 0.1,0 0.3,0 0.4,0 l 0.2,0 1.6,0 z m -1.5,1.2 c -0.1,0.1 -0.1,0.2 -0.2,0.3 0,0.1 -0.1,0.2 -0.1,0.3 -0.1,0.2 -0.1,0.4 -0.1,0.6 0,0.2 0,0.4 0,0.6 0,0.1 0,0.2 0,0.3 0,0.1 0,0.2 0,0.3 0,0.2 0.1,0.3 0.1,0.5 0.1,0.1 0.1,0.3 0.2,0.4 0.1,0.1 0.2,0.2 0.3,0.2 0.1,0.1 0.3,0.1 0.4,0.1 0.1,0 0.3,0 0.4,-0.1 0.1,-0.1 0.3,-0.1 0.4,-0.2 0.1,-0.1 0.2,-0.2 0.2,-0.4 0,-0.2 0.1,-0.3 0.1,-0.5 0,-0.1 0,-0.2 0,-0.3 0,-0.1 0,-0.2 0,-0.3 0,-0.1 0,-0.2 0,-0.4 0,-0.1 0,-0.2 0,-0.3 0,-0.2 0,-0.4 -0.1,-0.6 0,-0.1 -0.1,-0.3 -0.1,-0.3 -0.1,-0.1 -0.2,-0.1 -0.3,-0.2 -0.1,0 -0.3,0 -0.5,0 l -0.7,0 z m 7.3,-1.2 0,5.9 -1.5,0 0,-4.6 -1,0 0,-1.2 2.5,0 z m 3.3,1.2 c -0.2,0 -0.4,0 -0.5,0 -0.1,0 -0.3,0 -0.4,0 -0.1,0 -0.3,0 -0.4,-0.1 -0.1,0 -0.3,-0.1 -0.5,-0.1 0.1,-0.2 0.1,-0.4 0.2,-0.6 0.1,-0.2 0.1,-0.4 0.2,-0.6 0.2,0 0.3,0.1 0.5,0.1 0.1,0 0.2,0.1 0.4,0.1 0.1,0 0.2,0 0.4,0 0.1,0 0.3,0 0.4,0 l 0.2,0 3.3,0 c 0,0.1 0,0.1 0.1,0.2 0,0.1 0,0.1 0,0.2 0,0.1 0,0.2 0,0.3 0,0.1 0,0.2 0,0.3 l 0,1.2 c 0,0.2 0,0.4 0,0.6 0,0.2 -0.1,0.3 -0.1,0.5 -0.1,0.2 -0.1,0.3 -0.2,0.5 -0.1,0.1 -0.2,0.3 -0.3,0.5 -0.1,0.1 -0.2,0.3 -0.3,0.5 -0.1,0.2 -0.3,0.4 -0.5,0.6 -0.2,0.2 -0.3,0.4 -0.5,0.6 -0.2,0.2 -0.3,0.3 -0.4,0.5 l -1.1,-0.9 0.8,-0.9 c 0.2,-0.2 0.4,-0.4 0.5,-0.6 0.1,-0.2 0.2,-0.3 0.3,-0.4 0.1,-0.1 0.1,-0.2 0.2,-0.3 0,-0.1 0.1,-0.2 0.1,-0.3 0,-0.1 0,-0.2 0.1,-0.3 0,-0.1 0,-0.2 0,-0.3 l 0,-1 -2.5,0 z m -1.7,2.9 c 0,-0.2 0,-0.3 0,-0.4 0,-0.1 0,-0.3 0,-0.4 0,-0.1 0,-0.2 0,-0.4 0,-0.1 0,-0.2 0.1,-0.4 0.3,0 0.5,0.1 0.8,0.1 0.3,0 0.5,0.1 0.8,0.2 0,0.2 -0.1,0.4 -0.1,0.6 0,0.2 0,0.5 0,0.7 l 0,3.4 -1.5,0 0,-3.4 z m 12.7,-4.1 0,7.6 -1.5,0 0,-6.4 -1.2,0 0,-1.2 2.7,0 z m 4,0 0,5.9 -1.5,0 0,-4.6 -1,0 0,-1.2 2.5,0 z m 3.3,1.2 c -0.2,0 -0.4,0 -0.5,0 -0.1,0 -0.3,0 -0.4,0 -0.1,0 -0.3,0 -0.4,-0.1 -0.1,0 -0.3,-0.1 -0.5,-0.1 0.1,-0.2 0.1,-0.4 0.2,-0.6 0.1,-0.2 0.1,-0.4 0.2,-0.6 0.2,0 0.3,0.1 0.5,0.1 0.1,0 0.2,0.1 0.4,0.1 0.1,0 0.2,0 0.4,0 0.1,0 0.3,0 0.4,0 l 0.2,0 3.3,0 c 0,0.1 0,0.1 0.1,0.2 0,0.1 0,0.1 0,0.2 0,0.1 0,0.2 0,0.3 0,0.1 0,0.2 0,0.3 l 0,1.2 c 0,0.2 0,0.4 0,0.6 0,0.2 -0.1,0.3 -0.1,0.5 -0.1,0.2 -0.1,0.3 -0.2,0.5 -0.1,0.1 -0.2,0.3 -0.3,0.5 -0.1,0.1 -0.2,0.3 -0.3,0.5 -0.1,0.2 -0.3,0.4 -0.5,0.6 -0.2,0.2 -0.3,0.4 -0.5,0.6 -0.2,0.2 -0.3,0.3 -0.4,0.5 l -1.1,-0.9 0.8,-0.9 c 0.2,-0.2 0.4,-0.4 0.5,-0.6 0.1,-0.2 0.2,-0.3 0.3,-0.4 0.1,-0.1 0.1,-0.2 0.2,-0.3 0,-0.1 0.1,-0.2 0.1,-0.3 0,-0.1 0,-0.2 0.1,-0.3 0,-0.1 0,-0.2 0,-0.3 l 0,-1 -2.5,0 z m -1.7,2.9 c 0,-0.2 0,-0.3 0,-0.4 0,-0.1 0,-0.3 0,-0.4 0,-0.1 0,-0.2 0,-0.4 0,-0.1 0,-0.2 0.1,-0.4 0.3,0 0.5,0.1 0.8,0.1 0.3,0 0.5,0.1 0.8,0.2 0,0.2 -0.1,0.4 -0.1,0.6 0,0.2 0,0.5 0,0.7 l 0,3.4 -1.5,0 0,-3.4 z m 9.6,-4.1 0,2.1 c 0,0.2 0,0.4 0,0.5 0,0.1 0,0.3 0,0.4 0,0.1 0,0.2 0,0.3 0,0.1 0,0.2 -0.1,0.3 l -1.5,-0.2 c 0,-0.1 0,-0.2 0.1,-0.3 0,-0.1 0,-0.2 0,-0.3 0,-0.1 0,-0.2 0,-0.4 0,-0.1 0,-0.3 0,-0.5 l 0,-0.8 -1.3,0 0,-1.2 2.8,0 z m 5.4,0 c 0.2,0 0.5,0 0.7,0.1 0.2,0.1 0.4,0.2 0.6,0.3 0.2,0.1 0.3,0.3 0.4,0.6 0.1,0.3 0.2,0.6 0.2,1 l 0,3.9 -1.5,0 0,-3.5 c 0,-0.2 0,-0.4 0,-0.6 0,-0.1 -0.1,-0.3 -0.1,-0.3 -0.1,-0.1 -0.2,-0.1 -0.3,-0.2 -0.1,0 -0.3,0 -0.5,0 l -0.8,0 c -0.1,0.3 -0.2,0.5 -0.3,0.8 0,0.3 -0.1,0.6 -0.1,0.9 0,0.2 0,0.3 0,0.5 0,0.1 0,0.3 0,0.4 0,0.1 0,0.3 0.1,0.4 0,0.1 0.1,0.3 0.1,0.4 l 0.1,0.3 c 0,0.2 0,0.3 -0.1,0.5 0,0.1 0,0.3 -0.1,0.4 l -2.8,0 0,-1.3 1.3,0 c -0.1,-0.3 -0.2,-0.6 -0.2,-0.8 0,-0.3 -0.1,-0.5 -0.1,-0.8 0,-0.2 0,-0.4 0,-0.6 0,-0.2 0.1,-0.4 0.1,-0.6 0,-0.1 0.1,-0.2 0.1,-0.3 0,-0.1 0.1,-0.2 0.1,-0.3 -0.2,0 -0.3,0 -0.5,-0.1 -0.2,0 -0.3,-0.1 -0.6,-0.2 0.1,-0.2 0.1,-0.4 0.2,-0.6 0.1,-0.2 0.1,-0.4 0.2,-0.6 0.2,0.1 0.4,0.1 0.5,0.1 0.1,0 0.3,0.1 0.4,0.1 0.1,0 0.3,0 0.4,0 0.1,0 0.3,0 0.5,0 l 2,0 z"
       id="path809" />
    <g
       id="g7554">
      <g
         id="g811"
         transform="translate(128.78571,296.99077)">
        <defs
           id="defs813">
          <rect
             height="1157.5"
             width="554"
             y="79.099998"
             x="24.700001"
             id="SVGID_49_" />
        </defs>
        <clipPath
           id="clipPath5400">
          <use
             id="use5402"
             overflow="visible"
             xlink:href="#SVGID_49_"
             style="overflow:visible"
             x="0"
             y="0"
             width="100%"
             height="100%" />
        </clipPath>
        <path
           id="path819"
           d="m 213.3,190.2 c 0,4.3 -7.8,16.1 -7.8,16.1 0,0 -7.8,-11.8 -7.8,-16.1 0,-4.3 3.5,-7.8 7.8,-7.8 4.3,0 7.8,3.5 7.8,7.8"
           clip-path="url(#SVGID_50_)"
           inkscape:connector-curvature="0"
           style="fill:#141132" />
      </g>
      <g
         id="g829"
         transform="translate(128.78571,296.99077)">
        <defs
           id="defs831">
          <rect
             height="9.8000002"
             width="8.8999996"
             y="185.5"
             x="200.7"
             id="SVGID_51_" />
        </defs>
        <clipPath
           id="clipPath5412">
          <use
             id="use5414"
             overflow="visible"
             xlink:href="#SVGID_51_"
             style="overflow:visible"
             x="0"
             y="0"
             width="100%"
             height="100%" />
        </clipPath>
        <path
           id="path837"
           d="m 207.5,188.8 c -0.4,-0.2 -0.7,-0.4 -1,-0.6 0.2,-0.3 0.6,-0.8 0.5,-1.2 0,-0.1 -0.1,-0.3 -0.2,-0.4 -0.1,-0.1 -0.2,-0.1 -0.3,-0.1 -0.2,0 -0.5,0.2 -0.7,0.3 0,-0.1 0,-0.1 0,-0.2 0.1,-0.5 0.3,-0.9 0.7,-0.9 0,0 0,0 0,0 0.4,0 0.9,0.3 1,0.9 0.3,0.7 0.2,1.4 0,2.2 m -1.3,-0.9 c -0.1,-0.2 -0.2,-0.4 -0.3,-0.6 0.1,-0.3 0.3,-0.5 0.5,-0.5 0.1,0 0.1,0 0.1,0 0.1,0 0.1,0.1 0.1,0.2 0.1,0.3 -0.2,0.6 -0.4,0.9 m -0.5,0.4 -0.3,0.2 0.1,-0.4 c 0,-0.1 0.1,-0.3 0.2,-0.5 0.1,0.1 0.2,0.3 0.3,0.4 -0.2,0.2 -0.3,0.3 -0.3,0.3 m 3.9,3.3 c 0,-0.1 -0.7,-2 -1.6,-2.5 -0.1,0 -0.1,-0.1 -0.2,-0.1 0.3,-0.9 0.4,-1.7 0.2,-2.4 -0.2,-0.7 -0.8,-1.2 -1.4,-1.1 -0.5,0 -0.9,0.5 -1,1.1 0,0.2 0,0.4 0,0.6 -0.1,0.2 -0.2,0.3 -0.2,0.4 l -4.7,7.4 c 0,0.1 -0.1,0.1 0,0.2 l 0,0.1 0.1,0 c 0.1,0 0.1,-0.1 0.2,-0.1 l 5.4,-6.7 c 0.3,0.3 0.8,0.5 1.1,0.7 -0.2,0.5 -0.4,1.1 -0.6,1.7 -0.7,1.7 -0.4,3.1 0.1,3.4 0,0 0.1,0 0.1,0 0,0 0.1,0 0.1,-0.1 0,-0.1 0,-0.2 0,-0.2 -0.4,-0.2 -0.7,-1.5 0,-3 0.3,-0.6 0.5,-1.2 0.6,-1.7 0,0 0.1,0 0.1,0.1 0.8,0.4 1.5,2.3 1.5,2.3 0,0.1 0.1,0.1 0.2,0.1 -0.1,-0.1 0,-0.2 0,-0.2"
           clip-path="url(#SVGID_52_)"
           inkscape:connector-curvature="0"
           style="fill:#ffffff" />
      </g>
    </g>
  </g>
</svg>
