<?xml version="1.0" encoding="UTF-8" standalone="no"?>
<svg
   xmlns:dc="http://purl.org/dc/elements/1.1/"
   xmlns:cc="http://creativecommons.org/ns#"
   xmlns:rdf="http://www.w3.org/1999/02/22-rdf-syntax-ns#"
   xmlns:svg="http://www.w3.org/2000/svg"
   xmlns="http://www.w3.org/2000/svg"
   id="svg2468"
   version="1.1"
   viewBox="0 0 35.189583 27.717751"
   height="104.76"
   width="133">
  <defs
     id="defs2462" />
  <metadata
     id="metadata2465">
    <rdf:RDF>
      <cc:Work
         rdf:about="">
        <dc:format>image/svg+xml</dc:format>
        <dc:type
           rdf:resource="http://purl.org/dc/dcmitype/StillImage" />
        <dc:title></dc:title>
      </cc:Work>
    </rdf:RDF>
  </metadata>
  <g
     transform="translate(-53.464736,-115.3197)"
     id="layer1">
    <g
       transform="matrix(0.26458333,0,0,0.26458333,-202.88741,7.0151568)"
       id="g378">
      <path
         style="fill:#2ca5e8;fill-opacity:1"
         d="m 1056.16,471.37 c 0,11.42 -20.77,42.73 -20.77,42.73 0,0 -20.77,-31.31 -20.77,-42.73 0,-11.42 9.35,-20.77 20.77,-20.77 11.52,0.11 20.77,9.36 20.77,20.77"
         class="st2"
         id="path429_10_" />
      <rect
         style="fill:#ec2426"
         height="34.580002"
         width="133"
         class="st2"
         y="409.34"
         x="968.89001"
         id="rect311_10_" />
      <g
         id="g376">
        <path
           style="fill:#ffffff"
           id="path358"
           d="m 988.06,424.23 c 0,-1.19 -0.27,-2.05 -0.8,-2.58 -0.53,-0.53 -1.4,-0.8 -2.59,-0.8 h -4.98 v -1.74 h 5.08 c 1.79,0 3.15,0.44 4.07,1.31 0.92,0.87 1.38,2.16 1.38,3.87 v 8.55 h -2.17 v -8.61 z m -8.35,3.92 c 0,-0.71 0.05,-1.26 0.16,-1.67 0.11,-0.41 0.25,-0.82 0.45,-1.23 h 1.77 c -0.09,0.36 -0.16,0.75 -0.21,1.19 -0.05,0.44 -0.07,0.96 -0.07,1.57 v 4.82 h -2.1 z"
           class="st8" />
        <path
           style="fill:#ffffff"
           id="path360"
           d="m 996.2,430.4 c 0.75,0.32 1.53,0.57 2.35,0.75 0.82,0.18 1.61,0.27 2.35,0.27 1.12,0 2.12,-0.16 3,-0.48 0.88,-0.32 1.57,-0.81 2.07,-1.47 0.5,-0.66 0.76,-1.47 0.76,-2.43 v -7.92 h 2.1 v 8.12 c 0,1.29 -0.35,2.38 -1.04,3.27 -0.69,0.89 -1.63,1.56 -2.81,2 -1.18,0.44 -2.5,0.66 -3.96,0.66 -1.13,0 -2.3,-0.13 -3.5,-0.4 -1.2,-0.27 -2.33,-0.66 -3.41,-1.18 v -12.47 h 2.1 v 11.28 z m 3.95,-2.6 c 0.15,-0.53 0.22,-1.15 0.22,-1.86 v -6.83 h 2.11 v 6.44 c 0,0.79 -0.1,1.48 -0.29,2.07 -0.19,0.59 -0.49,1.09 -0.9,1.5 l -1.79,-0.07 c 0.29,-0.3 0.51,-0.72 0.65,-1.25 z"
           class="st8" />
        <path
           style="fill:#ffffff"
           id="path362"
           d="m 1014.1,420.85 h -2.52 v -1.74 h 4.68 v 7.66 h -2.17 v -5.92 z"
           class="st8" />
        <path
           style="fill:#ffffff"
           id="path364"
           d="m 1018.38,432.9 v -1.99 c 0.21,0.03 0.43,0.05 0.68,0.05 1.12,-0.03 2.03,-0.37 2.73,-1.02 0.7,-0.65 1.15,-1.48 1.34,-2.5 v -6.58 h -3.1 v -1.74 h 5.23 v 7.08 c 0,0.72 0.07,1.42 0.22,2.1 l 0.96,4.54 h -2.04 l -0.8,-3.85 h -0.08 c -0.09,0.69 -0.35,1.34 -0.78,1.95 -0.43,0.61 -0.97,1.09 -1.64,1.45 -0.67,0.36 -1.38,0.54 -2.16,0.54 -0.26,0 -0.44,-0.01 -0.56,-0.03 z"
           class="st8" />
        <path
           style="fill:#ffffff"
           id="path366"
           d="m 1028.08,432.81 0.06,-1.69 c 0.5,0.1 1.07,0.15 1.7,0.15 0.64,0 1.11,-0.18 1.43,-0.55 0.32,-0.36 0.48,-0.93 0.48,-1.69 v -8.19 h -2.69 v -1.74 h 4.86 v 10.1 c 0,1.26 -0.31,2.22 -0.93,2.87 -0.62,0.66 -1.52,0.98 -2.68,0.98 -0.72,0.02 -1.46,-0.06 -2.23,-0.24 z"
           class="st8" />
        <path
           style="fill:#ffffff"
           id="path368"
           d="m 1052.04,424.23 c 0,-1.19 -0.27,-2.05 -0.8,-2.58 -0.53,-0.53 -1.4,-0.8 -2.59,-0.8 h -4.98 v -1.74 h 5.08 c 1.79,0 3.15,0.44 4.07,1.31 0.92,0.87 1.38,2.16 1.38,3.87 v 8.55 h -2.17 v -8.61 z m -8.35,3.92 c 0,-0.71 0.05,-1.26 0.16,-1.67 0.11,-0.41 0.25,-0.82 0.45,-1.23 h 1.77 c -0.09,0.36 -0.16,0.75 -0.21,1.19 -0.05,0.44 -0.07,0.96 -0.07,1.57 v 4.82 h -2.1 z"
           class="st8" />
        <path
           style="fill:#ffffff"
           id="path370"
           d="m 1060.6,432.87 c -0.8,-0.13 -1.57,-0.33 -2.31,-0.58 l 0.42,-1.62 c 0.68,0.21 1.38,0.37 2.08,0.47 0.7,0.1 1.33,0.16 1.89,0.16 1.27,-0.02 2.26,-0.34 2.95,-0.97 0.69,-0.63 1.04,-1.53 1.04,-2.7 v -6.78 h -5.5 c -0.25,0.43 -0.45,0.97 -0.6,1.63 -0.15,0.66 -0.23,1.31 -0.23,1.96 v 1.05 c 0.17,0.08 0.4,0.13 0.69,0.16 0.29,0.03 0.66,0.05 1.13,0.05 v 1.86 c -0.96,0 -1.72,-0.06 -2.27,-0.17 -0.55,-0.11 -1.1,-0.32 -1.65,-0.61 l -0.05,-1.77 c 0,-0.78 0.1,-1.55 0.3,-2.3 0.2,-0.75 0.47,-1.37 0.81,-1.86 h -1.67 v -1.74 h 11.2 v 8.11 c 0,1.29 -0.25,2.37 -0.76,3.25 -0.51,0.88 -1.21,1.53 -2.1,1.96 -0.9,0.43 -1.94,0.65 -3.13,0.65 -0.69,-0.01 -1.44,-0.07 -2.24,-0.21 z"
           class="st8" />
        <path
           style="fill:#ffffff"
           id="path372"
           d="m 1073.7,420.85 h -1.6 v -1.74 h 3.76 v 13.73 h -2.17 v -11.99 z"
           class="st8" />
        <path
           style="fill:#ffffff"
           id="path374"
           d="m 1084.7,431.14 c 0.77,-0.02 1.44,-0.19 2.02,-0.51 0.57,-0.32 1.02,-0.77 1.34,-1.35 0.32,-0.58 0.48,-1.26 0.48,-2.06 v -6.37 h -8.47 v -1.74 h 10.64 v 8.06 c 0,1.14 -0.25,2.13 -0.74,2.98 -0.49,0.85 -1.19,1.5 -2.1,1.96 -0.91,0.46 -1.96,0.71 -3.16,0.73 v -1.7 z m -4.37,-3.45 c 0,-0.7 0.05,-1.25 0.16,-1.65 0.1,-0.4 0.25,-0.81 0.45,-1.22 h 1.77 c -0.1,0.35 -0.17,0.74 -0.22,1.17 -0.05,0.43 -0.06,0.96 -0.06,1.58 v 10.13 h -2.1 z"
           class="st8" />
      </g>
    </g>
  </g>
</svg>
