<svg width="141.4" height="94.6" viewBox="0 0 37.412 25.029" xmlns="http://www.w3.org/2000/svg">
    <path d="M1556.9 1704.7c0 9.5-17.2 35.6-17.2 35.6s-17.2-26.2-17.2-35.6c0-9.5 7.8-17.2 17.2-17.2 9.5-.2 17.2 7.7 17.2 17.2" style="fill:#3696c9" transform="translate(-388.668 -435.42) scale(.26458)"/>
    <path style="fill:#3696c9;stroke-width:.26458" d="M81.404 110.996h35.665v10.186H81.404Z" transform="translate(-81.404 -110.996)"/>
    <path d="M1479.8 1657.4h13.4v15.6h-13.4zm9.2 12.3v-9h-4.9v9zm9.4-9.1h-2.4v-3.3h6.6v8.9h-4.2zm13.5 2.1c0-.7-.2-1.2-.6-1.5-.4-.4-.9-.5-1.7-.5h-4.7v-3.3h5c1.3 0 2.4.2 3.3.7.9.4 1.6 1.1 2.1 1.9.5.8.7 1.8.7 3v10h-4.2zm8.2-2.1h-1.3v-3.3h5.6v15.6h-4.2zm8.1 7c0-1.5.3-2.7.9-3.4h3.4c-.2.8-.2 1.7-.2 2.9v5.8h-4.1zm9-4.7c0-1.5-.8-2.2-2.4-2.2h-6.5v-3.3h6.8c1.3 0 2.4.2 3.4.7.9.4 1.7 1.1 2.1 1.9.5.9.7 1.9.7 3.1v9.9h-4.2zm19.8-.2c0-.7-.2-1.2-.6-1.5-.4-.4-.9-.5-1.6-.5h-4.7v-3.3h5c1.3 0 2.4.2 3.3.7.9.4 1.6 1.1 2.1 1.9.5.8.7 1.8.7 3v10h-4.2zm20.2-5.3v3.3h-2.8v12.3h-4.2v-12.3h-6.5v-3.3zm3.1 0h6.9c2 0 3.6.5 4.6 1.5 1 1 1.6 2.5 1.6 4.4v9.7h-4.2v-10.1c0-1.5-.7-2.3-2-2.3h-2.7v12.3h-4.2z" style="fill:#fffffd" transform="translate(-388.668 -435.42) scale(.26458)"/>
    <path d="M100.083 128.564a.32.32 0 0 1-.132.132 1.12 1.12 0 0 1-.794.318 1.12 1.12 0 0 1-.793-.318c-.45-.45-.45-1.164 0-1.587l.132-.133c-.106-.185-.212-.343-.291-.529v-.026a1.7 1.7 0 0 0-.344.264 1.757 1.757 0 0 0 0 2.487c.344.344.767.503 1.243.503.477 0 .9-.185 1.244-.503.106-.105.185-.211.265-.344h-.027c-.132-.052-.317-.158-.503-.264z" style="fill:#fff;stroke-width:.26458" transform="translate(-81.404 -110.996)"/>
    <path d="M101.618 127.056a1.111 1.111 0 0 0-.688.317.488.488 0 0 1-.317.133.438.438 0 0 1-.318-.133l-.582-.582a.463.463 0 0 1 0-.661l.026-.027c.16-.158.265-.397.318-.635-.238-.132-.45-.238-.662-.29-.476-.133-.714-.027-.846.105-.212.212-.212.609-.027 1.085.186.423.503.9.926 1.296.397.397.874.741 1.297.926.238.106.45.16.635.16s.344-.054.45-.16c.132-.132.238-.37.105-.846a1.804 1.804 0 0 0-.317-.688z" style="fill:#fff;stroke-width:.26458" transform="translate(-81.404 -110.996)"/>
    <path d="M102.465 124.595c-.239-.238-.556-.344-.9-.344a1.2 1.2 0 0 0-.873.37 1.208 1.208 0 0 0-.344.768 1.54 1.54 0 0 1-.397.926l-.026.027a.16.16 0 0 0 0 .211l.582.582a.2.2 0 0 0 .106.053.2.2 0 0 0 .105-.053 1.51 1.51 0 0 1 .953-.423c.29-.027.582-.159.794-.37a1.26 1.26 0 0 0 .37-.9c0-.291-.132-.609-.37-.847z" style="fill:#fff;stroke-width:.26458" transform="translate(-81.404 -110.996)"/>
</svg>
