<?xml version="1.0" encoding="UTF-8" standalone="no"?>
<svg
   xmlns:dc="http://purl.org/dc/elements/1.1/"
   xmlns:cc="http://creativecommons.org/ns#"
   xmlns:rdf="http://www.w3.org/1999/02/22-rdf-syntax-ns#"
   xmlns:svg="http://www.w3.org/2000/svg"
   xmlns="http://www.w3.org/2000/svg"
   xmlns:xlink="http://www.w3.org/1999/xlink"
   width="26.700001"
   height="25.1"
   viewBox="0 0 26.700001 25.100001"
   id="svg3740"
   version="1.1">
  <defs
     id="defs3742">
    <clipPath
       id="SVGID_8_">
      <use
         id="use333"
         overflow="visible"
         xlink:href="#SVGID_7_"
         style="overflow:visible"
         x="0"
         y="0"
         width="100%"
         height="100%" />
    </clipPath>
  </defs>
  <metadata
     id="metadata3745">
    <rdf:RDF>
      <cc:Work
         rdf:about="">
        <dc:format>image/svg+xml</dc:format>
        <dc:type
           rdf:resource="http://purl.org/dc/dcmitype/StillImage" />
        <dc:title></dc:title>
      </cc:Work>
    </rdf:RDF>
  </metadata>
  <g
     id="layer1"
     transform="translate(-404.85315,-441.8019)">
    <path
       id="path325"
       d="m 407.65315,442.1019 c 0.2,0 0.3,0 0.5,0.1 0.2,0 0.3,0.1 0.4,0.2 0.1,0.1 0.2,0.2 0.3,0.4 0.1,0.2 0.1,0.4 0.1,0.7 l 0,2.6 -3.6,0 0,-2.1 c 0,-0.2 0,-0.3 0,-0.5 0,-0.2 0.1,-0.3 0.1,-0.5 -0.1,0 -0.2,0 -0.3,-0.1 -0.1,0 -0.2,-0.1 -0.3,-0.1 0,-0.1 0.1,-0.3 0.1,-0.4 0,-0.1 0.1,-0.3 0.1,-0.4 0.1,0 0.2,0.1 0.3,0.1 0.1,0 0.2,0 0.3,0 0.1,0 0.2,0 0.3,0 0.1,0 0.2,0 0.3,0 l 1.4,0 z m 0.2,3.1 0,-1.5 c 0,-0.2 0,-0.3 0,-0.4 0,-0.1 0,-0.2 -0.1,-0.2 0,-0.1 -0.1,-0.1 -0.2,-0.1 -0.1,0 -0.2,0 -0.4,0 l -0.8,0 c 0,0.2 -0.1,0.3 -0.1,0.5 0,0.1 0,0.3 0,0.4 l 0,1.4 1.6,0 z m 3.8,-3.1 0,1.4 c 0,0.1 0,0.2 0,0.3 0,0.1 0,0.2 0,0.2 0,0.1 0,0.1 0,0.2 0,0.1 0,0.1 0,0.2 l -1,-0.1 c 0,-0.1 0,-0.1 0,-0.2 0,-0.1 0,-0.1 0,-0.2 0,-0.1 0,-0.1 0,-0.2 0,-0.1 0,-0.2 0,-0.3 l 0,-0.5 -0.9,0 0,-0.8 1.9,0 z m 3.5,0 c 0.2,0 0.3,0 0.5,0.1 0.2,0 0.3,0.1 0.4,0.2 0.1,0.1 0.2,0.2 0.3,0.4 0.1,0.2 0.1,0.4 0.1,0.7 l 0,2.6 -1,0 0,-2.3 c 0,-0.2 0,-0.3 0,-0.4 0,-0.1 0,-0.2 -0.1,-0.2 -0.1,0 -0.1,-0.1 -0.2,-0.1 -0.1,0 -0.2,0 -0.4,0 l -0.6,0 c -0.1,0.2 -0.1,0.4 -0.2,0.6 0,0.2 0,0.4 0,0.6 0,0.1 0,0.2 0,0.3 0,0.1 0,0.2 0,0.3 0,0.1 0,0.2 0.1,0.3 0.1,0.1 0,0.2 0.1,0.3 l 0.1,0.2 c 0,0.1 0,0.2 0,0.3 0,0.1 0,0.2 -0.1,0.3 l -1.8,0 0,-0.8 0.9,0 c -0.1,-0.2 -0.1,-0.4 -0.1,-0.6 0,-0.2 0,-0.4 0,-0.5 0,-0.1 0,-0.3 0,-0.4 0,-0.1 0,-0.3 0.1,-0.4 0,-0.1 0,-0.1 0.1,-0.2 0.1,-0.1 0,-0.1 0.1,-0.2 -0.1,0 -0.2,0 -0.3,-0.1 -0.1,0 -0.2,-0.1 -0.4,-0.1 0,-0.1 0.1,-0.3 0.1,-0.4 0,-0.1 0.1,-0.3 0.1,-0.4 0.1,0 0.2,0.1 0.3,0.1 0.1,0 0.2,0 0.3,0 0.1,0 0.2,0 0.3,0 0.1,0 0.2,0 0.3,0 l 1,0 z m 3.9,0 0,3.9 -1,0 0,-3.1 -0.7,0 0,-0.8 1.7,0 z m 2.1,0.8 c -0.1,0 -0.2,0 -0.3,0 -0.1,0 -0.2,0 -0.3,0 -0.1,0 -0.2,0 -0.3,-0.1 -0.1,-0.1 -0.2,-0.1 -0.3,-0.1 0,-0.1 0.1,-0.3 0.1,-0.4 0,-0.1 0.1,-0.3 0.1,-0.4 0.1,0 0.2,0.1 0.3,0.1 0.1,0 0.2,0 0.3,0 0.1,0 0.2,0 0.3,0 0.1,0 0.2,0 0.3,0 l 0.5,0 c 0.2,0 0.3,0 0.5,0.1 0.2,0 0.3,0.1 0.4,0.2 0.1,0.1 0.2,0.2 0.3,0.4 0.1,0.2 0.1,0.4 0.1,0.7 l 0,2.6 -1,0 0,-2.3 c 0,-0.2 0,-0.3 0,-0.4 0,-0.1 0,-0.2 -0.1,-0.2 -0.1,0 -0.1,-0.1 -0.2,-0.1 -0.1,0 -0.2,0 -0.4,0 l -0.3,0 z m 4.7,-0.8 0,1.4 c 0,0.1 0,0.2 0,0.3 0,0.1 0,0.2 0,0.2 0,0.1 0,0.1 0,0.2 0,0.1 0,0.1 0,0.2 l -1,-0.1 c 0,-0.1 0,-0.1 0,-0.2 0,-0.1 0,-0.1 0,-0.2 0,-0.1 0,-0.1 0,-0.2 0,-0.1 0,-0.2 0,-0.3 l 0,-0.5 -0.9,0 0,-0.8 1.9,0 z m 2.1,3.2 c 0,0 0.1,0 0.2,0 0.1,0 0.1,0 0.2,0 0.1,0 0.3,0 0.5,0 0.2,0 0.3,-0.1 0.5,-0.1 0.1,-0.1 0.3,-0.2 0.4,-0.3 0.1,-0.1 0.3,-0.3 0.3,-0.4 0.1,-0.3 0.2,-0.5 0.3,-0.8 0.1,-0.3 0.1,-0.5 0.1,-0.8 0,-0.1 0,-0.2 0,-0.3 0,-0.1 0,-0.2 0,-0.3 0.1,0 0.2,-0.1 0.3,-0.1 0.1,0 0.2,0 0.2,0 0.1,0 0.1,0 0.2,0 0.1,0 0.2,0 0.3,0 0,0.1 0,0.2 0.1,0.4 0,0.1 0,0.3 0,0.4 0,0.1 0,0.2 0,0.4 0,0.1 0,0.2 0,0.3 -0.1,0.9 -0.5,1.6 -1,2.1 -0.5,0.5 -1.3,0.7 -2.3,0.7 -0.2,0 -0.3,0 -0.5,0 -0.2,0 -0.4,0 -0.6,-0.1 l -0.2,-2.3 c 0,-0.1 0,-0.2 0,-0.3 0,-0.1 0,-0.2 0,-0.3 0,-0.1 0,-0.1 0,-0.2 0,-0.1 0,-0.1 0,-0.2 0,-0.1 0,-0.1 -0.1,-0.2 0,-0.1 -0.1,-0.2 -0.1,-0.3 0.1,-0.1 0.3,-0.1 0.4,-0.2 0.2,-0.1 0.3,-0.1 0.5,-0.2 0.1,0.1 0.1,0.3 0.2,0.4 0,0.1 0.1,0.2 0.1,0.4 0,0.2 0,0.3 0,0.4 0,0.1 0,0.3 0,0.5 l 0,1.4 z m 0.4,-1.9 c 0,-0.1 0.1,-0.2 0.1,-0.3 0,-0.1 0,-0.1 0.1,-0.2 0,-0.1 0,-0.1 0,-0.2 0,-0.1 0,-0.1 0,-0.2 0,0 0,0 0,-0.1 0,0 0,0 0,-0.1 0,0 0,-0.1 0,-0.1 0,0 0,-0.1 0,-0.2 0.2,0 0.3,-0.1 0.5,-0.1 0.2,0 0.3,-0.1 0.5,-0.1 0,0.1 0.1,0.2 0.1,0.3 0,0.1 0,0.2 0,0.3 0,0.1 0,0.1 0,0.2 0,0.1 0,0.2 -0.1,0.2 0,0.1 -0.1,0.2 -0.1,0.3 0,0.1 -0.1,0.2 -0.1,0.3 l -0.3,0.7 c -0.1,0 -0.2,-0.1 -0.3,-0.1 -0.1,0 -0.1,0 -0.2,-0.1 -0.1,0 -0.1,0 -0.2,-0.1 -0.1,0 -0.2,-0.1 -0.2,-0.1 l 0.2,-0.3 z"
       style="fill:#141132" />
    <g
       id="g327"
       transform="translate(-125.09685,-105.8981)">
      <defs
         id="defs329">
        <rect
           height="1157.5"
           width="554"
           y="79.099998"
           x="24.700001"
           id="SVGID_7_" />
      </defs>
      <clipPath
         id="clipPath6876">
        <use
           id="use6878"
           overflow="visible"
           xlink:href="#SVGID_7_"
           style="overflow:visible"
           x="0"
           y="0"
           width="100%"
           height="100%" />
      </clipPath>
      <path
         id="path335"
         d="m 548.7,560 c 0,3.4 -6.2,12.8 -6.2,12.8 0,0 -6.2,-9.4 -6.2,-12.8 0,-3.4 2.8,-6.2 6.2,-6.2 3.4,0 6.2,2.8 6.2,6.2"
         clip-path="url(#SVGID_8_)"
         style="fill:#fcb65a;fill-opacity:1" />
      <path
         id="path337"
         d="m 538.8,564.6 c 0,0.3 0.1,0.4 0.4,0.4 0.3,0 0.4,-0.1 0.4,-0.4 l 0,-3.6 0.4,0 0,3.6 c 0,0.3 0.1,0.4 0.4,0.4 0.3,0 0.4,-0.1 0.4,-0.4 l 0,-6.1 0.2,0 0,2.2 c 0,0.1 0,0.2 0.1,0.3 0.1,0.1 0.2,0.1 0.3,0 0.1,-0.1 0.2,-0.2 0.2,-0.3 l 0,-2.4 c 0,-0.3 -0.1,-0.5 -0.3,-0.6 -0.2,-0.1 -0.4,-0.2 -0.7,-0.2 l -1.6,0 c -0.3,0 -0.5,0.1 -0.7,0.2 -0.2,0.1 -0.3,0.3 -0.3,0.6 l 0,2.5 c 0,0.1 0.1,0.2 0.2,0.2 0.1,0.1 0.2,0.1 0.3,0 0.1,-0.1 0.1,-0.1 0.1,-0.2 l 0,-2.3 0.2,0 0,6.1 z"
         clip-path="url(#SVGID_8_)"
         style="fill:#ffffff" />
      <path
         id="path339"
         d="m 546.6,561.7 -1.1,-3.2 c 0,0 0,0 0,0 0,-0.1 0,-0.1 0.1,-0.1 0,0 0.1,0 0.1,0.1 l 0.8,2 c 0.1,0.1 0.2,0.2 0.4,0.2 0.1,0 0.1,-0.1 0.2,-0.2 0,-0.1 0,-0.2 0,-0.2 l -0.8,-2 c 0,-0.2 -0.1,-0.4 -0.3,-0.6 -0.2,-0.2 -0.4,-0.2 -0.7,-0.2 l -1,0 c -0.3,0 -0.5,0.1 -0.7,0.3 -0.2,0.2 -0.3,0.4 -0.4,0.6 l -0.7,2 c 0,0 0,0.1 0,0.2 0,0.1 0.1,0.2 0.2,0.2 0.2,0 0.4,-0.1 0.4,-0.2 l 0.8,-2.1 c 0,0 0,-0.1 0.1,-0.1 0.1,0 0.1,0 0.1,0.1 l 0,0 -1.1,3.2 0,0.2 c 0,0 0,0.1 0.1,0.1 0.1,0.1 0.1,0.1 0.1,0.1 l 0.7,0 0,2.5 c 0,0.1 0,0.2 0.1,0.3 0.1,0.1 0.2,0.1 0.3,0.1 0.1,0 0.2,0 0.3,-0.1 0.1,-0.1 0.1,-0.2 0.1,-0.3 l 0,-2.5 c 0,0 0,0 0.1,0 0.1,0 0.1,0 0.2,0 0.1,0 0.1,0 0.1,0 l 0,2.5 c 0,0.1 0,0.2 0.1,0.3 0.1,0.1 0.2,0.1 0.3,0.1 0.1,0 0.2,0 0.3,-0.1 0.1,-0.1 0.1,-0.2 0.1,-0.3 l 0,-2.4 0.7,0 c 0,0 0.1,0 0.1,-0.1 0.1,-0.1 0.1,-0.1 0.1,-0.1 l 0,-0.3 z"
         clip-path="url(#SVGID_8_)"
         style="fill:#ffffff" />
      <path
         id="path341"
         d="m 538.9,556.4 c 0,0.2 0.1,0.4 0.2,0.6 0.2,0.2 0.3,0.2 0.6,0.2 0.3,0 0.4,-0.1 0.6,-0.2 0.2,-0.2 0.2,-0.4 0.2,-0.6 0,-0.2 -0.1,-0.4 -0.2,-0.6 -0.2,-0.2 -0.3,-0.2 -0.6,-0.2 -0.3,0 -0.4,0.1 -0.6,0.2 -0.1,0.2 -0.2,0.4 -0.2,0.6"
         clip-path="url(#SVGID_8_)"
         style="fill:#ffffff" />
      <path
         id="path343"
         d="m 543.8,556.4 c 0,0.2 0.1,0.4 0.2,0.6 0.2,0.2 0.3,0.2 0.6,0.2 0.3,0 0.4,-0.1 0.6,-0.2 0.2,-0.2 0.2,-0.3 0.2,-0.6 0,-0.2 -0.1,-0.4 -0.2,-0.6 -0.2,-0.2 -0.3,-0.2 -0.6,-0.2 -0.3,0 -0.4,0.1 -0.6,0.2 -0.1,0.2 -0.2,0.4 -0.2,0.6"
         clip-path="url(#SVGID_8_)"
         style="fill:#ffffff" />
    </g>
  </g>
</svg>
