<?xml version="1.0" encoding="UTF-8" standalone="no"?>
<svg
   xmlns:dc="http://purl.org/dc/elements/1.1/"
   xmlns:cc="http://creativecommons.org/ns#"
   xmlns:rdf="http://www.w3.org/1999/02/22-rdf-syntax-ns#"
   xmlns:svg="http://www.w3.org/2000/svg"
   xmlns="http://www.w3.org/2000/svg"
   xmlns:xlink="http://www.w3.org/1999/xlink"
   height="73.599998"
   width="75.599991"
   xml:space="preserve"
   viewBox="0 0 75.59999 73.599999"
   y="0px"
   x="0px"
   id="Layer_1"
   version="1.1"><metadata
     id="metadata439"><rdf:RDF><cc:Work
         rdf:about=""><dc:format>image/svg+xml</dc:format><dc:type
           rdf:resource="http://purl.org/dc/dcmitype/StillImage" /><dc:title></dc:title></cc:Work></rdf:RDF></metadata><defs
     id="defs437" /><style
     id="style3"
     type="text/css">
	.st0{fill:#B5B0C1;}
	.st1{fill:#FFFFFF;}
	.st2{fill:none;stroke:#141032;stroke-width:0.25;}
	.st3{fill:#43255C;}
	.st4{clip-path:url(#SVGID_2_);fill:none;stroke:#141032;stroke-width:0.25;}
	.st5{fill:none;stroke:#141032;stroke-width:0.5;}
	.st6{fill:#99AC64;}
	.st7{clip-path:url(#SVGID_4_);fill:none;stroke:#141032;stroke-width:0.25;}
	.st8{clip-path:url(#SVGID_6_);fill:#43255C;}
	.st9{clip-path:url(#SVGID_8_);fill:#FBB65A;}
	.st10{clip-path:url(#SVGID_8_);fill:none;stroke:#141032;stroke-width:0.5;stroke-miterlimit:10;}
	.st11{fill:#F7D685;}
	.st12{clip-path:url(#SVGID_10_);fill:#141032;}
	.st13{fill:#141032;}
	.st14{fill:none;stroke:#231F20;stroke-width:0.25;}
	.st15{clip-path:url(#SVGID_12_);fill:#141032;}
	.st16{clip-path:url(#SVGID_12_);fill:#FFFFFF;}
	.st17{clip-path:url(#SVGID_14_);fill:#141032;}
	.st18{clip-path:url(#SVGID_14_);fill:#FFFFFF;}
	.st19{fill:#D81278;}
	.st20{clip-path:url(#SVGID_16_);fill:#141032;}
	.st21{clip-path:url(#SVGID_18_);fill:#141032;}
	.st22{clip-path:url(#SVGID_18_);fill:#FFFFFF;}
	.st23{clip-path:url(#SVGID_20_);fill:#141032;}
	.st24{clip-path:url(#SVGID_22_);fill:#141032;}
	.st25{clip-path:url(#SVGID_24_);fill:#FFFFFF;}
	.st26{clip-path:url(#SVGID_26_);fill:#FFFFFF;}
	.st27{clip-path:url(#SVGID_28_);fill:#141032;}
	.st28{clip-path:url(#SVGID_30_);fill:#141032;}
	.st29{clip-path:url(#SVGID_32_);fill:#FFFFFF;}
	.st30{clip-path:url(#SVGID_34_);fill:#FFFFFF;}
	.st31{fill:#8ACDAB;}
	.st32{clip-path:url(#SVGID_36_);fill:#141032;}
	.st33{clip-path:url(#SVGID_38_);fill:#FFFFFF;}
</style><path
     style="fill:#141032"
     id="path241"
     d="m 8,0.7 c 0.4,0 0.9,0 1.3,0.1 0.4,0.1 0.8,0.3 1.2,0.6 0.3,0.3 0.6,0.6 0.8,1.1 0.2,0.5 0.3,1.1 0.3,1.9 l 0,7.4 -10.3,0 0,-6.1 C 1.3,5.3 1.3,4.8 1.4,4.4 1.5,3.9 1.6,3.5 1.7,3 1.5,3 1.2,2.9 0.9,2.8 0.6,2.7 0.3,2.6 0,2.5 0.1,2.1 0.2,1.7 0.3,1.4 0.4,1 0.5,0.7 0.7,0.3 c 0.4,0.1 0.7,0.2 0.9,0.2 0.3,0.1 0.5,0.1 0.7,0.1 0.2,0 0.5,0.1 0.8,0.1 0.3,0 0.6,0 1,0 l 3.9,0 z m 0.8,8.7 0,-4.3 C 8.8,4.7 8.8,4.3 8.7,4 8.7,3.7 8.6,3.5 8.4,3.3 8.3,3.1 8.1,3 7.8,3 7.5,2.9 7.2,2.9 6.8,2.9 l -2.4,0 C 4.3,3.4 4.2,3.8 4.2,4.2 c 0,0.4 0,0.8 0,1.3 l 0,3.8 4.6,0 z m 10.6,-8.7 0,4.1 c 0,0.4 0,0.7 0,1 0,0.3 0,0.5 0,0.7 0,0.2 0,0.4 -0.1,0.6 0,0.2 -0.1,0.4 -0.1,0.7 L 16.3,7.4 c 0,-0.2 0.1,-0.4 0.1,-0.6 0,-0.2 0.1,-0.4 0.1,-0.6 0,-0.2 0,-0.4 0,-0.7 0,-0.2 0,-0.5 0,-0.9 l 0,-1.5 -2.4,0 0,-2.3 5.3,0 z m 10.2,0 c 0.4,0 0.9,0 1.3,0.1 0.4,0.1 0.8,0.3 1.2,0.6 0.3,0.3 0.6,0.6 0.8,1.1 0.2,0.5 0.3,1.1 0.3,1.9 l 0,7.4 -2.9,0 0,-6.6 c 0,-0.4 0,-0.8 -0.1,-1.1 C 30.1,3.8 30.1,3.6 29.9,3.4 29.8,3.2 29.6,3.1 29.3,3.1 29,3 28.7,3 28.3,3 l -1.6,0 c -0.2,0.5 -0.4,1 -0.5,1.6 -0.1,0.6 -0.1,1.1 -0.1,1.7 0,0.3 0,0.6 0,0.9 0,0.3 0,0.5 0.1,0.8 0,0.3 0.1,0.5 0.1,0.8 0.1,0.3 0.1,0.5 0.2,0.8 l 0.2,0.6 c 0,0.3 -0.1,0.6 -0.1,0.9 0,0.3 -0.1,0.5 -0.1,0.8 l -5.2,0 0,-2.3 2.5,0 C 23.6,9.1 23.5,8.5 23.4,8 23.3,7.5 23.3,7 23.3,6.5 c 0,-0.4 0,-0.8 0.1,-1.2 0,-0.4 0.1,-0.8 0.3,-1.2 C 23.8,3.9 23.8,3.7 23.9,3.6 24,3.4 24,3.2 24.1,3.1 23.8,3.1 23.5,3 23.2,3 22.9,2.9 22.5,2.8 22.1,2.7 c 0.1,-0.4 0.2,-0.8 0.3,-1.1 0.1,-0.4 0.2,-0.7 0.4,-1.1 0.4,0.1 0.7,0.2 0.9,0.2 0.3,0.1 0.5,0.1 0.7,0.1 0.2,0 0.5,0.1 0.8,0.1 0.3,0 0.6,0 1,0 l 3.4,0 z m 11.1,0 0,11.1 -2.9,0 0,-8.8 -1.9,0 0,-2.3 4.8,0 z M 46.49999,3 c -0.4,0 -0.7,0 -1,0 -0.3,0 -0.5,0 -0.8,-0.1 -0.3,0 -0.5,-0.1 -0.8,-0.1 C 43.6,2.7 43.3,2.6 43,2.5 43.1,2.1 43.2,1.7 43.3,1.4 43.4,1 43.5,0.7 43.7,0.3 c 0.39999,0.1 0.69999,0.2 0.89999,0.2 0.3,0.1 0.5,0.1 0.7,0.1 0.2,0 0.5,0.1 0.8,0.1 0.3,0 0.6,0 1,0 l 1.3,0 c 0.4,0 0.9,0 1.3,0.1 0.4,0.1 0.8,0.3 1.2,0.6 0.3,0.3 0.6,0.6 0.8,1.1 0.2,0.5 0.3,1.1 0.3,1.9 l 0,7.4 -2.9,0 0,-6.6 c 0,-0.4 0,-0.8 -0.1,-1.1 0,-0.3 -0.1,-0.5 -0.3,-0.7 -0.1,-0.2 -0.3,-0.3 -0.6,-0.3 -0.3,-0.1 -0.6,-0.1 -1,-0.1 l -0.6,0 z m 13.3,-2.3 0,4.1 c 0,0.4 0,0.7 0,1 0,0.3 0,0.5 0,0.7 0,0.2 0,0.4 -0.1,0.6 0,0.2 -0.1,0.4 -0.1,0.7 l -2.9,-0.4 c 0,-0.2 0.1,-0.4 0.1,-0.6 0,-0.2 0.1,-0.4 0.1,-0.6 0,-0.2 0,-0.4 0,-0.7 0,-0.2 0,-0.5 0,-0.9 l 0,-1.5 -2.4,0 0,-2.3 5.3,0 z m 6.1,8.9 c 0.1,0 0.3,0 0.4,0 0.1,0 0.3,0 0.5,0 0.4,0 0.9,0 1.3,-0.1 0.5,-0.1 0.9,-0.2 1.3,-0.4 0.4,-0.2 0.8,-0.5 1.2,-0.8 0.4,-0.3 0.7,-0.7 1,-1.2 0.4,-0.7 0.7,-1.4 0.8,-2.2 0.2,-0.8 0.2,-1.5 0.2,-2.3 0,-0.3 0,-0.6 0,-0.9 0,-0.3 0,-0.6 -0.1,-0.9 0.3,-0.1 0.6,-0.1 0.8,-0.2 0.2,-0.1 0.4,-0.1 0.6,-0.1 0.2,0 0.4,-0.1 0.7,-0.1 0.2,0 0.5,-0.1 0.9,-0.1 0.1,0.3 0.1,0.6 0.1,1 0,0.4 0,0.7 0,1.1 0,0.3 0,0.7 0,1 0,0.3 -0.1,0.6 -0.1,0.9 -0.4,2.6 -1.3,4.6 -2.8,5.9 -1.5,1.3 -3.7,1.9 -6.4,1.9 -0.5,0 -1,0 -1.5,-0.1 -0.5,0 -1,-0.1 -1.6,-0.1 l -0.5,-6.4 c 0,-0.4 -0.1,-0.7 -0.1,-1 0,-0.3 0,-0.5 -0.1,-0.8 0,-0.2 0,-0.4 -0.1,-0.6 0,-0.2 -0.1,-0.4 -0.1,-0.6 0,-0.2 -0.1,-0.4 -0.2,-0.6 -0.1,-0.2 -0.2,-0.4 -0.3,-0.7 0.4,-0.2 0.8,-0.3 1.3,-0.5 0.4,-0.2 0.9,-0.3 1.3,-0.5 0.2,0.4 0.3,0.8 0.4,1.1 0.1,0.3 0.2,0.7 0.2,1 0.1,0.3 0.1,0.7 0.1,1.1 0,0.4 0.1,0.8 0.1,1.3 l 0.7,4.9 z m 1,-5.3 c 0.1,-0.3 0.2,-0.6 0.3,-0.8 0.1,-0.2 0.1,-0.4 0.2,-0.6 0,-0.2 0.1,-0.3 0.1,-0.5 0,-0.1 0,-0.3 0,-0.5 0,-0.1 0,-0.1 0,-0.2 0,-0.1 0,-0.1 0,-0.2 0,-0.1 0,-0.2 0,-0.4 0,-0.1 0,-0.3 -0.1,-0.4 0.5,-0.1 0.9,-0.3 1.4,-0.4 0.5,-0.1 0.9,-0.2 1.4,-0.3 0.1,0.3 0.2,0.6 0.2,0.9 0,0.3 0.1,0.5 0.1,0.8 0,0.2 0,0.4 0,0.6 0,0.2 -0.1,0.4 -0.1,0.7 -0.1,0.2 -0.1,0.5 -0.2,0.8 -0.1,0.3 -0.2,0.6 -0.3,0.9 l -0.7,1.9 c -0.3,-0.1 -0.5,-0.1 -0.8,-0.2 -0.2,-0.1 -0.4,-0.1 -0.6,-0.2 -0.2,-0.1 -0.4,-0.1 -0.6,-0.2 -0.2,-0.1 -0.4,-0.2 -0.7,-0.3 l 0.4,-1.4 z"
     class="st13" /><g
     transform="matrix(0,-1,1,0,-1065.9,200.5)"
     id="g243"><defs
       id="defs245"><rect
         height="1619.8"
         width="953.09998"
         y="119"
         x="65.699997"
         id="SVGID_11_" /></defs><clipPath
       id="SVGID_12_"><use
         height="100%"
         width="100%"
         y="0"
         x="0"
         id="use249"
         style="overflow:visible"
         xlink:href="#SVGID_11_" /></clipPath><path
       style="fill:#141032"
       clip-path="url(#SVGID_12_)"
       id="path251"
       d="m 164.4,1121.9 c -10,0 -37.5,-18.2 -37.5,-18.2 0,0 27.5,-18.2 37.5,-18.2 10,0 18.2,8.1 18.2,18.2 -0.1,10 -8.2,18.2 -18.2,18.2"
       class="st15" /><path
       style="fill:#ffffff"
       clip-path="url(#SVGID_12_)"
       id="path253"
       d="m 150.8,1092.8 c -0.8,0 -1.2,0.4 -1.2,1.1 0,0.8 0.4,1.1 1.2,1.1 l 10.6,0 0,1.2 -10.6,0 c -0.8,0 -1.2,0.4 -1.2,1.1 0,0.8 0.4,1.1 1.2,1.1 l 18,0 0,0.6 -6.5,0 c -0.4,0 -0.7,0.1 -0.9,0.4 -0.2,0.3 -0.2,0.6 0,0.9 0.2,0.3 0.5,0.4 0.9,0.4 l 7,0 c 0.7,0 1.3,-0.3 1.7,-0.8 0.4,-0.5 0.6,-1.2 0.6,-2.1 l 0,-4.6 c 0,-0.9 -0.2,-1.6 -0.6,-2.1 -0.4,-0.5 -1,-0.8 -1.7,-0.8 l -7.4,0 c -0.3,0 -0.6,0.1 -0.7,0.4 -0.1,0.3 -0.1,0.6 0,0.9 0.2,0.3 0.4,0.4 0.7,0.4 l 6.9,0 0,0.6 -18,0 z"
       class="st16" /><path
       style="fill:#ffffff"
       clip-path="url(#SVGID_12_)"
       id="path255"
       d="m 159.3,1115.7 9.3,-3.4 c 0,0 0.1,-0.1 0.1,-0.1 0.2,0 0.3,0.1 0.3,0.3 0,0.1 -0.1,0.2 -0.2,0.2 l -6,2.3 c -0.4,0.2 -0.6,0.6 -0.6,1.2 0,0.2 0.2,0.4 0.5,0.5 0.3,0.1 0.6,0.1 0.7,0.1 l 5.8,-2.4 c 0.7,-0.1 1.3,-0.4 1.8,-1 0.5,-0.6 0.7,-1.3 0.7,-2.1 l 0,-3 c 0,-0.8 -0.3,-1.5 -0.8,-2.1 -0.5,-0.6 -1.1,-1 -1.8,-1.1 l -5.8,-2.2 c -0.1,-0.1 -0.3,-0.1 -0.6,0.1 -0.3,0.1 -0.5,0.3 -0.5,0.5 0,0.7 0.2,1.1 0.6,1.2 l 6,2.2 c 0.1,0 0.2,0.1 0.2,0.2 0,0.2 -0.1,0.2 -0.2,0.2 l -0.1,0 -9.3,-3.3 -0.7,0 c -0.1,0 -0.2,0.1 -0.4,0.3 -0.2,0.2 -0.3,0.3 -0.3,0.4 l 0,2.1 -7.2,0 c -0.3,0 -0.6,0.1 -0.8,0.4 -0.2,0.3 -0.3,0.5 -0.3,0.8 0,0.3 0.1,0.6 0.3,0.8 0.2,0.2 0.5,0.3 0.8,0.3 l 7.5,0 c 0,0 0.1,0.1 0.1,0.3 0,0.2 0,0.4 0,0.6 0,0.2 0,0.3 -0.1,0.3 l -7.4,0 c -0.3,0 -0.6,0.1 -0.8,0.3 -0.2,0.2 -0.4,0.5 -0.4,0.8 0,0.3 0.1,0.6 0.4,0.8 0.2,0.2 0.5,0.3 0.8,0.3 l 7.2,0 0,2.2 c 0,0.1 0.1,0.2 0.3,0.4 0.2,0.2 0.3,0.2 0.4,0.2 l 0.5,0 z"
       class="st16" /><path
       style="fill:#ffffff"
       clip-path="url(#SVGID_12_)"
       id="path257"
       d="m 175,1093.2 c -0.7,0 -1.2,0.2 -1.7,0.7 -0.5,0.5 -0.7,1 -0.7,1.7 0,0.7 0.2,1.2 0.7,1.7 0.5,0.5 1,0.7 1.7,0.7 0.6,0 1.2,-0.2 1.7,-0.7 0.5,-0.5 0.7,-1 0.7,-1.7 0,-0.7 -0.2,-1.2 -0.7,-1.7 -0.5,-0.4 -1,-0.7 -1.7,-0.7"
       class="st16" /><path
       style="fill:#ffffff"
       clip-path="url(#SVGID_12_)"
       id="path259"
       d="m 175,1107.6 c -0.7,0 -1.2,0.2 -1.7,0.7 -0.5,0.5 -0.7,1 -0.7,1.7 0,0.7 0.2,1.2 0.7,1.7 0.5,0.5 1,0.7 1.7,0.7 0.7,0 1.2,-0.2 1.7,-0.7 0.5,-0.5 0.7,-1 0.7,-1.7 0,-0.7 -0.2,-1.2 -0.7,-1.7 -0.5,-0.5 -1,-0.7 -1.7,-0.7"
       class="st16" /></g></svg>