<?xml version="1.0" encoding="UTF-8" standalone="no"?>
<svg
   xmlns:dc="http://purl.org/dc/elements/1.1/"
   xmlns:cc="http://creativecommons.org/ns#"
   xmlns:rdf="http://www.w3.org/1999/02/22-rdf-syntax-ns#"
   xmlns:svg="http://www.w3.org/2000/svg"
   xmlns="http://www.w3.org/2000/svg"
   id="svg3716"
   version="1.1"
   viewBox="0 0 35.189583 27.717745"
   height="104.75998"
   width="133">
  <defs
     id="defs3710" />
  <metadata
     id="metadata3713">
    <rdf:RDF>
      <cc:Work
         rdf:about="">
        <dc:format>image/svg+xml</dc:format>
        <dc:type
           rdf:resource="http://purl.org/dc/dcmitype/StillImage" />
        <dc:title></dc:title>
      </cc:Work>
    </rdf:RDF>
  </metadata>
  <g
     transform="translate(-105.62545,-140.26613)"
     id="layer1">
    <g
       transform="matrix(0.26458333,0,0,0.26458333,-25.02051,-37.753479)"
       id="g349">
      <path
         style="fill:#0b8e36;fill-opacity:1"
         d="m 581.05,734.86 c 0,11.42 -20.77,42.73 -20.77,42.73 0,0 -20.77,-31.31 -20.77,-42.73 0,-11.42 9.35,-20.77 20.77,-20.77 11.52,0.11 20.77,9.35 20.77,20.77"
         class="st2"
         id="path429_11_" />
      <rect
         style="fill:#a22442"
         height="34.580002"
         width="133"
         class="st2"
         y="672.83002"
         x="493.78"
         id="rect311_11_" />
      <g
         id="g347">
        <path
           style="fill:#ffffff"
           id="path331"
           d="m 512.9,693.89 c 0.75,0.32 1.53,0.57 2.35,0.75 0.82,0.18 1.61,0.27 2.35,0.27 1.12,0 2.12,-0.16 3,-0.48 0.88,-0.32 1.57,-0.81 2.07,-1.47 0.5,-0.66 0.76,-1.47 0.76,-2.43 v -7.92 h 2.1 v 8.12 c 0,1.29 -0.35,2.38 -1.04,3.27 -0.7,0.89 -1.63,1.56 -2.81,2 -1.18,0.44 -2.5,0.66 -3.96,0.66 -1.13,0 -2.3,-0.13 -3.5,-0.4 -1.2,-0.27 -2.33,-0.66 -3.41,-1.18 V 682.6 h 2.1 v 11.29 z m 3.95,-2.6 c 0.15,-0.53 0.22,-1.15 0.22,-1.86 v -6.83 h 2.11 v 6.44 c 0,0.79 -0.1,1.48 -0.29,2.07 -0.19,0.59 -0.49,1.09 -0.9,1.5 l -1.79,-0.07 c 0.28,-0.3 0.5,-0.72 0.65,-1.25 z"
           class="st8" />
        <path
           style="fill:#ffffff"
           id="path333"
           d="m 530.79,684.33 h -2.52 v -1.74 h 4.68 v 7.66 h -2.17 v -5.92 z"
           class="st8" />
        <path
           style="fill:#ffffff"
           id="path335"
           d="m 535.07,696.38 v -1.99 c 0.21,0.03 0.44,0.05 0.68,0.05 1.12,-0.03 2.03,-0.37 2.73,-1.02 0.7,-0.65 1.15,-1.48 1.34,-2.5 v -6.58 h -3.1 v -1.74 h 5.23 v 7.08 c 0,0.72 0.07,1.42 0.22,2.1 l 0.96,4.54 h -2.04 l -0.8,-3.85 h -0.08 c -0.09,0.69 -0.35,1.34 -0.78,1.95 -0.43,0.61 -0.97,1.09 -1.64,1.45 -0.66,0.36 -1.38,0.54 -2.16,0.54 -0.26,0.01 -0.44,0 -0.56,-0.03 z"
           class="st8" />
        <path
           style="fill:#ffffff"
           id="path337"
           d="m 544.77,696.3 0.06,-1.69 c 0.5,0.1 1.07,0.15 1.7,0.15 0.64,0 1.11,-0.18 1.43,-0.55 0.32,-0.37 0.48,-0.93 0.48,-1.69 v -8.19 h -2.69 v -1.74 h 4.86 v 10.1 c 0,1.26 -0.31,2.22 -0.93,2.87 -0.62,0.66 -1.52,0.99 -2.68,0.99 -0.72,0.01 -1.46,-0.08 -2.23,-0.25 z"
           class="st8" />
        <path
           style="fill:#ffffff"
           id="path339"
           d="m 566.41,686.75 c 0,-0.75 -0.22,-1.33 -0.66,-1.77 -0.44,-0.43 -1.04,-0.65 -1.8,-0.65 h -4.61 v -1.74 h 4.68 c 0.94,0 1.75,0.17 2.44,0.51 0.69,0.34 1.21,0.83 1.57,1.48 0.36,0.65 0.54,1.42 0.54,2.32 v 9.42 h -2.16 z"
           class="st8" />
        <path
           style="fill:#ffffff"
           id="path341"
           d="m 582.34,694.67 v 1.65 h -11.28 v -1.75 h 7.46 v -6.86 c 0,-1.19 -0.27,-2.05 -0.8,-2.58 -0.53,-0.53 -1.4,-0.8 -2.59,-0.8 h -3.32 v -1.74 h 3.44 c 1.79,0 3.15,0.44 4.06,1.3 0.91,0.87 1.37,2.16 1.37,3.87 v 6.72 z"
           class="st8" />
        <path
           style="fill:#ffffff"
           id="path343"
           d="m 594.62,682.6 v 8.23 c 0,1.24 -0.25,2.29 -0.76,3.15 -0.51,0.86 -1.22,1.52 -2.14,1.97 -0.92,0.45 -1.99,0.67 -3.2,0.67 -1.56,0 -3.19,-0.32 -4.88,-0.97 l 0.52,-1.61 c 1.35,0.52 2.57,0.82 3.65,0.89 -0.58,-0.67 -0.96,-1.44 -1.15,-2.32 l -2.27,-10.01 h 2.17 l 2.23,10.13 c 0.1,0.47 0.21,0.87 0.31,1.2 0.1,0.33 0.24,0.63 0.41,0.9 0.93,-0.21 1.66,-0.65 2.19,-1.32 0.53,-0.67 0.79,-1.53 0.79,-2.6 v -8.31 z"
           class="st8" />
        <path
           style="fill:#ffffff"
           id="path345"
           d="m 599.77,687.6 c 0.08,-0.64 0.26,-1.24 0.54,-1.8 0.28,-0.56 0.62,-1 1,-1.3 0.03,-0.02 0.11,-0.08 0.23,-0.16 l -0.02,-0.04 c -0.35,0.06 -0.79,0.16 -1.31,0.3 -0.52,0.14 -1,0.28 -1.44,0.43 l -0.5,-1.63 c 0.9,-0.31 1.91,-0.56 3.03,-0.76 1.12,-0.19 2.15,-0.29 3.09,-0.29 1.85,0 3.26,0.49 4.24,1.47 0.98,0.98 1.47,2.43 1.47,4.33 v 8.18 h -5.65 v -1.74 h 3.5 v -6.69 c 0,-1.22 -0.28,-2.15 -0.83,-2.79 -0.55,-0.64 -1.35,-0.96 -2.4,-0.96 -0.75,0 -1.38,0.29 -1.89,0.87 -0.51,0.58 -0.82,1.37 -0.93,2.36 l -1.04,8.94 h -2.13 z"
           class="st8" />
      </g>
    </g>
  </g>
</svg>
