<?xml version="1.0" encoding="UTF-8" standalone="no"?>
<!-- Created with Inkscape (http://www.inkscape.org/) -->

<svg
   width="343"
   height="70.799995"
   viewBox="0 0 90.752081 18.732499"
   version="1.1"
   id="svg1249"
   xmlns="http://www.w3.org/2000/svg"
   xmlns:svg="http://www.w3.org/2000/svg">
  <defs
     id="defs1246" />
  <g
     id="layer1"
     transform="translate(-49.949813,-118.78639)">
    <g
       id="g2774"
       transform="matrix(0.26458333,0,0,0.26458333,-492.02268,-4.7211045)">
      <path
         id="rect311_3_"
         style="fill:#a22442"
         d="m 2248.4,471.1 h 143 v 37.7 h -143 z" />
      <g
         id="g1419">
        <path
           d="m 2270.6,483.4 c 1,0.9 1.5,2.3 1.5,4.1 v 9.1 h -3.8 v -9.4 c 0,-0.8 -0.2,-1.3 -0.5,-1.7 -0.3,-0.4 -0.8,-0.6 -1.5,-0.6 h -1.9 c -0.1,0.4 -0.2,0.9 -0.3,1.5 -0.1,0.6 -0.1,1 -0.1,1.5 v 4.2 c 0,1 -0.2,1.8 -0.5,2.5 -0.4,0.7 -0.9,1.2 -1.5,1.6 -0.7,0.4 -1.5,0.6 -2.4,0.6 -0.6,0 -1.2,-0.1 -1.9,-0.2 v -3 h 0.8 c 1.2,0 1.8,-0.6 1.8,-1.9 v -3.6 c 0,-0.5 0.1,-1.1 0.2,-1.8 0.1,-0.6 0.3,-1.2 0.6,-1.6 h -2.3 v -3 h 7.4 c 2,0.3 3.4,0.7 4.4,1.7 z"
           id="path1401"
           style="fill:#fffffd" />
        <path
           d="m 2275.9,485 h -1.3 v -3 h 5.1 v 14.6 h -3.8 z"
           id="path1403"
           style="fill:#fffffd" />
        <path
           d="m 2283.9,496.8 c -0.4,-0.1 -0.9,-0.1 -1.5,-0.3 v -2.9 c 0.5,0.1 1.1,0.1 1.8,0.1 0.6,0 1,-0.2 1.3,-0.5 0.3,-0.3 0.4,-0.8 0.4,-1.4 V 485 h -2.6 v -3 h 6.4 v 10.2 c 0,1 -0.2,1.8 -0.5,2.5 -0.4,0.7 -0.9,1.2 -1.5,1.6 -0.7,0.4 -1.5,0.6 -2.4,0.6 -0.5,0 -0.9,-0.1 -1.4,-0.1 z"
           id="path1405"
           style="fill:#fffffd" />
        <path
           d="m 2298.7,486.9 c 0,-0.7 -0.2,-1.1 -0.5,-1.5 -0.4,-0.3 -0.9,-0.5 -1.6,-0.5 h -4.4 v -3 h 4.7 c 1.2,0 2.2,0.2 3.1,0.6 0.9,0.4 1.5,1 2,1.8 0.5,0.8 0.7,1.7 0.7,2.8 v 9.5 h -3.8 v -9.7 z"
           id="path1407"
           style="fill:#fffffd" />
        <path
           d="m 2311.5,493.7 c 1,0 1.8,-0.4 2.4,-0.9 0.6,-0.6 0.8,-1.4 0.8,-2.5 V 485 h -8.5 v -3 h 12.3 v 8.2 c 0,1.3 -0.3,2.5 -0.8,3.4 -0.6,1 -1.4,1.7 -2.4,2.2 -1.1,0.5 -2.3,0.8 -3.8,0.8 z m -5.2,-2.2 c 0,-1.4 0.3,-2.5 0.9,-3.1 h 3.1 c -0.2,0.7 -0.2,1.6 -0.2,2.7 v 10.6 h -3.7 v -10.2 z"
           id="path1409"
           style="fill:#fffffd" />
        <path
           d="m 2322.2,491.6 c 0,-1.4 0.3,-2.5 0.9,-3.1 h 3.1 c -0.2,0.7 -0.2,1.6 -0.2,2.7 v 5.4 h -3.7 v -5 z m 8.4,-4.4 c 0,-0.7 -0.2,-1.3 -0.6,-1.7 -0.4,-0.4 -1,-0.5 -1.8,-0.5 h -6 v -3 h 6.3 c 1.2,0 2.3,0.2 3.2,0.6 0.9,0.4 1.6,1 2,1.8 0.5,0.8 0.7,1.8 0.7,2.9 v 9.3 h -3.8 z"
           id="path1411"
           style="fill:#fffffd" />
        <path
           d="m 2349.3,486.9 c 0,-0.7 -0.2,-1.1 -0.5,-1.5 -0.4,-0.3 -0.9,-0.5 -1.6,-0.5 h -4.4 v -3 h 4.7 c 1.2,0 2.2,0.2 3.1,0.6 0.9,0.4 1.5,1 2,1.8 0.5,0.8 0.7,1.7 0.7,2.8 v 9.5 h -3.8 v -9.7 z"
           id="path1413"
           style="fill:#fffffd" />
        <path
           d="m 2368.1,482 v 3 h -2.6 v 11.7 h -3.8 V 485 h -6.2 v -3 z"
           id="path1415"
           style="fill:#fffffd" />
        <path
           d="m 2370.9,482 h 6.4 c 1.9,0 3.4,0.5 4.3,1.4 1,0.9 1.5,2.3 1.5,4.1 v 9.1 h -3.8 v -9.4 c 0,-1.5 -0.7,-2.2 -2,-2.2 h -2.6 v 11.7 h -3.8 z"
           id="path1417"
           style="fill:#fffffd" />
      </g>
      <path
         id="path429_1_-7-4"
         d="m 2243.1,490 c 0,12.7 -23.2,47.6 -23.2,47.6 0,0 -23.2,-34.9 -23.2,-47.6 0,-12.7 10.4,-23.2 23.2,-23.2 12.9,0.2 23.2,10.5 23.2,23.2"
         style="fill:#0b8e36;fill-opacity:1" />
    </g>
  </g>
</svg>
