<svg width="220.2" height="261.6" viewBox="0 0 58.261 69.214" xmlns="http://www.w3.org/2000/svg">
    <path style="fill:#3696c9;stroke-width:.26458" d="M73.095 83.906h57.281v47.862H73.095Zm35.321 56.461c0 3.387-6.191 12.753-6.191 12.753s-6.191-9.366-6.191-12.753c0-3.386 2.778-6.19 6.191-6.19a6.182 6.182 0 0 1 6.191 6.19" transform="translate(-73.095 -83.906)"/>
    <path d="M1015.6 1448.2c-1.2-.6-2.1-1.2-3-1.8.6-.8 1.8-2.4 1.5-3.6 0-.2-.2-.8-.6-1.2-.2-.2-.6-.2-.8-.2-.6 0-1.5.6-2.1.8v-.6c.2-1.5.8-2.7 2.1-2.7 1.2 0 2.7.8 3 2.7.9 2 .5 4.1-.1 6.6m-3.9-2.8c-.2-.6-.6-1.2-.8-1.8.2-.8.8-1.5 1.5-1.5h.2c.2 0 .2.2.2.6.5.9-.5 1.8-1.1 2.7m-1.4 1.2-.8.6.2-1.2c0-.2.2-.8.6-1.5.2.2.6.8.8 1.2-.6.6-.8.9-.8.9m11.6 9.9c0-.2-2.1-5.9-4.8-7.5-.2 0-.2-.2-.6-.2.8-2.7 1.2-5.1.6-7.2-.6-2.1-2.4-3.6-4.2-3.3-1.5 0-2.7 1.5-3 3.3v1.8c-.2.6-.6.8-.6 1.2l-14.1 22.2c0 .2-.2.2 0 .6v.2h.2c.2 0 .2-.2.6-.2l16.2-20.1c.8.8 2.4 1.5 3.3 2.1-.6 1.5-1.2 3.3-1.8 5.1-2.1 5.1-1.2 9.3.2 10.2h.2s.2 0 .2-.2v-.6c-1.2-.6-2.1-4.5 0-9 .8-1.8 1.5-3.6 1.8-5.1 0 0 .2 0 .2.2 2.4 1.2 4.5 6.9 4.5 6.9 0 .2.2.2.6.2.3-.3.5-.6.5-.6" style="opacity:1;fill:#fff;enable-background:new" transform="translate(-238.008 -327.801) scale(.26458)"/>
    <path d="M982 1505.1h-2.3v-3.8h7.2v9.1H982Zm9.7 0h-2.3v-3.8h7.2v9.1h-4.9zm20.9-.6-4.9 12.6h-5.2l4.9-11.9h-8v-8h4.9v4.2h8.4v3.1zm5.9 12.6c-1.1-.2-2.1-.4-3.1-.8l.9-3.6c.9.2 1.7.4 2.6.6.9.1 1.6.2 2.3.2 1.2 0 2-.3 2.6-.7.6-.5.9-1.2.9-2.2v-5.5h-3.9c-.1.5-.2.9-.3 1.3 0 .3-.1.7-.1 1.2v.5c.3.1.6.1.9.1h.2v3c-.6.2-1.2.2-1.9.2s-1.5-.1-2.2-.3c-.7-.2-1.3-.4-1.8-.8v-1.1c0-.8.1-1.6.2-2.3.2-.7.4-1.3.7-1.8h-1.5v-3.8h14.5v8.7c0 1.7-.4 3.1-1.1 4.2-.7 1.1-1.7 1.9-2.9 2.4s-2.5.8-4 .8c-.8 0-1.9-.1-3-.3zm18.2-.7c-1.1-.6-1.9-1.5-2.6-2.6-.6-1.1-.9-2.4-1-3.9v-.6c0-.6.1-1.3.4-2.1.2-.8.5-1.4.8-1.9 0 0 .1-.1.2-.3v-.1c-.3.1-.8.2-1.7.4l-.9-3.5c1.1-.3 2.3-.6 3.7-.7 1.4-.2 2.8-.3 4.1-.3 2.6 0 4.5.6 5.9 1.9 1.3 1.3 2 3.2 2 5.7v1.4c0 1.5-.3 2.8-.9 3.9-.6 1.1-1.5 2-2.5 2.6-1.1.6-2.4.9-3.8.9-1.3.2-2.6-.1-3.7-.8zm5-3.5c.4-.3.6-.7.8-1.2.2-.5.3-1.1.3-1.8v-1.3c0-2.5-.8-3.8-2.3-3.8-.8 0-1.4.3-1.8 1-.4.7-.6 1.7-.6 3v1c0 .7.1 1.3.3 1.8.2.5.5.9.8 1.2.4.3.8.4 1.2.4.5.1.9 0 1.3-.3zm9.1-7.8h-1.2v-3.8h6.1v15.7h-4.9zm14.9 8.2c1-.1 1.7-.3 2.2-.9.5-.5.7-1.4.7-2.5v-4.9h-8.8v-3.8h13.8v8.6c0 2.3-.7 4-2 5.2-1.4 1.2-3.3 1.9-5.8 2zm-5.9-1.6c0-.7.1-1.3.2-1.8s.3-.9.4-1.1c.2-.3.3-.4.4-.5h3.9c-.1.7-.2 1.7-.2 2.8v11.3h-4.7zm24.4-10.4h13.8v15.7h-13.8zm8.9 11.9v-8.1h-4v8.1zm8.9-11.9h7.3c2 0 3.6.5 4.7 1.5s1.6 2.5 1.6 4.4v9.8h-4.9v-10.2c0-.5-.1-1-.4-1.2-.2-.3-.6-.4-1-.4h-2.4v11.9h-4.9zm29.5 1.5c1.1 1 1.6 2.5 1.6 4.4v9.8h-4.9v-10.2c0-.5-.1-1-.4-1.2-.2-.3-.6-.4-1-.4h-1.9c-.1 1-.2 1.9-.2 2.8v4.1c0 1.1-.2 2.1-.6 2.9-.4.8-1 1.4-1.8 1.8-.8.4-1.7.6-2.8.6-.7 0-1.4-.1-2.2-.2v-3.8h.8c.5 0 1-.1 1.3-.4.3-.3.5-.7.5-1.3v-3.3c0-.5.1-1 .2-1.6.1-.6.3-1.1.6-1.6h-2.2v-3.8h8.3c2-.1 3.6.4 4.7 1.4zm6 6c.1-.7.2-1.4.5-2 .2-.6.5-1.1.9-1.5.1-.1.1-.1.2-.1v-.1c-.3.1-.7.1-1.1.3-.4.1-.8.2-1 .4l-1-3.5c1-.4 2.2-.7 3.6-.9 1.4-.2 2.7-.4 4-.4 2.5 0 4.4.6 5.7 1.9 1.3 1.3 2 3.1 2 5.6v8.7h-7.1v-3.8h2.2v-5.6c0-.9-.2-1.6-.5-2.1s-.8-.8-1.3-.8c-.7 0-1.2.3-1.5.8-.3.5-.6 1.3-.7 2.4l-.8 9h-4.9zm-143.5 41h-2.8v-1.9h5.2v8.5H994Zm8 0h-2.8v-1.9h5.2v8.5h-2.4zm17.2-.4-5.6 13.8h-2.6l5.5-13.4h-9v-6.6h2.4v4.7h9.2zm6.1 13.8c-.9-.1-1.7-.4-2.6-.6l.5-1.8c.8.2 1.5.4 2.3.5.8.1 1.5.2 2.1.2 1.4 0 2.5-.4 3.3-1.1.8-.7 1.2-1.7 1.2-3v-7.6h-6.1c-.3.5-.5 1.1-.7 1.8-.2.7-.3 1.5-.3 2.2v1.2c.2.1.4.1.8.2.3 0 .7.1 1.3.1v2.1c-1.1 0-1.9-.1-2.5-.2-.6-.1-1.2-.4-1.8-.7l-.1-2c0-.9.1-1.7.3-2.6.2-.8.5-1.5.9-2.1h-1.9v-1.9h12.5v9c0 1.4-.3 2.6-.8 3.6-.6 1-1.3 1.7-2.3 2.2-1 .5-2.2.7-3.5.7-.9 0-1.7-.1-2.6-.2zm16.9-.6c-1-.6-1.7-1.4-2.3-2.5-.5-1.1-.8-2.3-.8-3.7v-1.6c0-.7.1-1.3.3-2 .2-.7.4-1.3.8-1.8.3-.5.7-.9 1.1-1.2.1-.1.1-.1.2-.1-.5.1-1.4.3-2.7.6l-.5-1.8c1-.3 2.2-.5 3.4-.7 1.3-.2 2.4-.3 3.5-.3 1.4 0 2.6.3 3.7.8 1 .6 1.8 1.4 2.4 2.4.5 1.1.8 2.3.8 3.8v1.8c0 1.4-.3 2.6-.8 3.7s-1.3 1.9-2.3 2.5c-1 .6-2.1.9-3.4.9-1.3 0-2.5-.3-3.4-.8zm5.5-1.8c.6-.4 1.1-1 1.4-1.7.3-.8.5-1.6.5-2.6v-1.8c0-1-.2-1.9-.5-2.7-.3-.8-.8-1.3-1.5-1.7-.6-.4-1.4-.6-2.2-.6-.8 0-1.4.2-2 .6-.6.4-1 1-1.4 1.8-.3.8-.5 1.7-.5 2.7v1.7c0 1 .2 1.9.5 2.6.3.8.8 1.3 1.4 1.7.6.4 1.3.6 2.1.6s1.5-.2 2.2-.6zm9.2-11h-1.8v-1.9h4.2v15.3h-2.4zm12.2 11.5c.9 0 1.6-.2 2.2-.6.6-.4 1.1-.9 1.5-1.5.4-.6.5-1.4.5-2.3v-7.1h-9.4v-1.9h11.9v9c0 1.3-.3 2.4-.8 3.3-.6.9-1.3 1.7-2.3 2.2-1 .5-2.2.8-3.5.8zm-4.8-3.9c0-.8.1-1.4.2-1.8.1-.5.3-.9.5-1.4h2c-.1.4-.2.8-.2 1.3s-.1 1.1-.1 1.8v11.3h-2.3zm23.4-7.6h-1.8v-1.9h4.2v20.7h-2.4zm7.8 0h-1.8v-1.9h4.2v15.3h-2.4zm12.3 11.5c.9 0 1.6-.2 2.2-.6.6-.4 1.1-.9 1.5-1.5.4-.6.5-1.4.5-2.3v-7.1h-9.4v-1.9h11.9v9c0 1.3-.3 2.4-.8 3.3-.6.9-1.3 1.7-2.3 2.2-1 .5-2.2.8-3.5.8zm-4.9-3.9c0-.8.1-1.4.2-1.8.1-.5.3-.9.5-1.4h2c-.1.4-.2.8-.2 1.3s-.1 1.1-.1 1.8v11.3h-2.3zm17.4-7.6h-2.8v-1.9h5.2v8.5h-2.4zm17.7-.5c1 1 1.5 2.4 1.5 4.4v9.4h-2.4v-9.6c0-1.3-.3-2.3-.9-2.9-.6-.6-1.5-.9-2.7-.9h-2.2c-.3.5-.5 1.1-.7 1.8-.2.7-.3 1.5-.3 2.3v5.2c0 1.4-.3 2.5-1 3.2-.7.7-1.6 1.1-2.9 1.1-.4 0-.9 0-1.5-.1v-1.9c.3 0 .6.1.9.1.8 0 1.3-.2 1.6-.6.3-.4.5-1 .5-1.8v-4.8c0-.8.1-1.6.3-2.4.2-.8.5-1.4.9-1.9h-2.9v-1.9h7.1c2.2-.2 3.7.3 4.7 1.3zm-129 30.5h12.2v15.3H1009Zm9.8 13.3v-11.4h-7.4v11.4zm7.9-11.4h-1.8v-1.9h4.2v15.3h-2.4zm17.4-.4-5.6 13.8h-2.6l5.5-13.4h-9v-6.6h2.4v4.7h9.2zm4.5.4h-2.8v-1.9h5.2v8.5h-2.4zm13.5 6.3 4 5.8v1.2h-11.3v-1.9h8.2l-9.1-13.4h2.7l4.1 6.2 3.4-6.2h2.7zm25.3-6.8c1 1 1.5 2.4 1.5 4.4v9.4h-2.4v-9.6c0-1.3-.3-2.3-.9-2.9-.6-.6-1.5-.9-2.7-.9h-2.2c-.3.5-.5 1.1-.7 1.8-.2.7-.3 1.5-.3 2.3v5.2c0 1.4-.3 2.5-1 3.2-.7.7-1.6 1.1-2.9 1.1-.4 0-.9 0-1.5-.1v-1.9c.3 0 .6.1.9.1.8 0 1.3-.2 1.6-.6.3-.4.5-1 .5-1.8v-4.8c0-.8.1-1.6.3-2.4.2-.8.5-1.4.9-1.9h-2.9v-1.9h7.1c2.2-.1 3.7.4 4.7 1.3zm4.2 13.9.1-1.9c.6.1 1.2.2 1.9.2s1.2-.2 1.6-.6c.4-.4.5-1 .5-1.9v-9.1h-3v-1.9h5.4v11.3c0 1.4-.3 2.5-1 3.2-.7.7-1.7 1.1-3 1.1-.8-.2-1.6-.3-2.5-.4zm12.4-13.4h-2.8v-1.9h5.2v8.5h-2.4zm9.7 13.4c-.9-.1-1.7-.4-2.6-.6l.5-1.8c.8.2 1.5.4 2.3.5.8.1 1.5.2 2.1.2 1.4 0 2.5-.4 3.3-1.1.8-.7 1.2-1.7 1.2-3v-7.6h-6.1c-.3.5-.5 1.1-.7 1.8-.2.7-.3 1.5-.3 2.2v1.2c.2.1.4.1.8.2.3 0 .7.1 1.3.1v2.1c-1.1 0-1.9-.1-2.5-.2-.6-.1-1.2-.4-1.8-.7l-.1-2c0-.9.1-1.7.3-2.6.2-.8.5-1.5.9-2.1h-1.9v-1.9h12.5v9c0 1.4-.3 2.6-.8 3.6-.6 1-1.3 1.7-2.3 2.2-1 .5-2.2.7-3.5.7-.9 0-1.7 0-2.6-.2zm-123.1 18.5h-2.8v-1.9h5.2v8.5h-2.4zm7.5 0h-1.8v-1.9h4.2v15.3h-2.4zm7.9 0h-1.8v-1.9h4.2v15.3h-2.4zm5.5 13.4.1-1.9c.6.1 1.2.2 1.9.2s1.2-.2 1.6-.6c.4-.4.5-1 .5-1.9v-9.1h-3v-1.9h5.4v11.3c0 1.4-.3 2.5-1 3.2-.7.7-1.7 1.1-3 1.1-.8-.1-1.6-.2-2.5-.4zm19.8-6.7 4.8 6.7h-2.7l-6.8-9.4c-.9.6-1.4 1.6-1.4 3v6.4h-2.3v-5.5c0-1.3.2-2.4.7-3.3.5-.8 1.1-1.5 2.1-1.9l-3.3-4.6h2.7l4.7 6.5 3.7-6.5h2.7zm14.8-4c0-.8-.2-1.5-.7-2-.5-.5-1.2-.7-2-.7h-5.1v-1.9h5.2c1 0 2 .2 2.7.6.8.4 1.3.9 1.7 1.7.4.8.6 1.6.6 2.6v10.5h-2.4zm14.5-2.7h-2.8v-1.9h5.2v8.5h-2.4zm8.1 0h-2.8v-1.9h5.2v8.5h-2.4zm17.2-.4-5.6 13.8h-2.6l5.5-13.4h-9v-6.6h2.4v4.7h9.2zm6.1 13.8c-.9-.1-1.7-.4-2.6-.6l.5-1.8c.8.2 1.5.4 2.3.5.8.1 1.5.2 2.1.2 1.4 0 2.5-.4 3.3-1.1.8-.7 1.2-1.7 1.2-3v-7.6h-6.1c-.3.5-.5 1.1-.7 1.8-.2.7-.3 1.5-.3 2.2v1.2c.2.1.4.1.8.2.3 0 .7.1 1.3.1v2.1c-1.1 0-1.9-.1-2.5-.2-.6-.1-1.2-.4-1.8-.7l-.1-2c0-.9.1-1.7.3-2.6.2-.8.5-1.5.9-2.1h-1.9v-1.9h12.5v9c0 1.4-.3 2.6-.8 3.6-.6 1-1.3 1.7-2.3 2.2-1 .5-2.2.7-3.5.7-.9.1-1.7 0-2.6-.2zm16.8-.6c-1-.6-1.7-1.4-2.3-2.5-.5-1.1-.8-2.3-.8-3.7v-1.6c0-.7.1-1.3.3-2 .2-.7.4-1.3.8-1.8.3-.5.7-.9 1.1-1.2.1-.1.1-.1.2-.1-.5.1-1.4.3-2.7.6l-.5-1.8c1-.3 2.2-.5 3.4-.7 1.3-.2 2.4-.3 3.5-.3 1.4 0 2.6.3 3.7.8 1 .6 1.8 1.4 2.4 2.4.5 1.1.8 2.3.8 3.8v1.8c0 1.4-.3 2.6-.8 3.7s-1.3 1.9-2.3 2.5c-1 .6-2.1.9-3.4.9-1.3.1-2.4-.2-3.4-.8zm5.5-1.8c.6-.4 1.1-1 1.4-1.7.3-.8.5-1.6.5-2.6v-1.8c0-1-.2-1.9-.5-2.7-.3-.8-.8-1.3-1.5-1.7-.6-.4-1.4-.6-2.2-.6-.8 0-1.4.2-2 .6-.6.4-1 1-1.4 1.8-.3.8-.5 1.7-.5 2.7v1.7c0 1 .2 1.9.5 2.6.3.8.8 1.3 1.4 1.7.6.4 1.3.6 2.1.6.9 0 1.6-.2 2.2-.6zm9.3-11h-1.8v-1.9h4.2v15.3h-2.4zm12.2 11.5c.9 0 1.6-.2 2.2-.6.6-.4 1.1-.9 1.5-1.5.4-.6.5-1.4.5-2.3v-7.1h-9.4v-1.9h11.9v9c0 1.3-.3 2.4-.8 3.3-.6.9-1.3 1.7-2.3 2.2-1 .5-2.2.8-3.5.8zm-4.9-3.8c0-.8.1-1.4.2-1.8.1-.5.3-.9.5-1.4h2c-.1.4-.2.8-.2 1.3s-.1 1.1-.1 1.8v11.3h-2.3z" style="fill:#fffffd" transform="translate(-253.388 -389.99) scale(.26458)"/>
</svg>
