<svg xmlns="http://www.w3.org/2000/svg" viewBox="0 0 55.88 27.718" height="104.76" width="211.2">
    <path style="fill:#0b8e36;fill-opacity:1" d="M606.01 623.38c0 11.42-20.77 42.73-20.77 42.73s-20.77-31.31-20.77-42.73c0-11.42 9.35-20.77 20.77-20.77 11.53.11 20.77 9.36 20.77 20.77" class="st2" transform="translate(-126.905 -148.524) scale(.26458)"/>
    <path style="fill:#a22442" class="st2" d="M479.65 561.35h211.19v34.58H479.65z" transform="translate(-126.905 -148.524) scale(.26458)"/>
    <path style="fill:#fff" d="M493.24 571.12h10.95v13.73h-10.95zm8.8 11.98v-10.24h-6.64v10.24zm7.03-10.24h-1.6v-1.74h3.76v13.73h-2.17v-11.99zm11 10.29c.77-.02 1.44-.19 2.02-.51.58-.32 1.02-.77 1.34-1.35.32-.58.48-1.26.48-2.06v-6.37h-8.47v-1.74h10.64v8.06c0 1.14-.25 2.13-.74 2.98-.49.84-1.19 1.5-2.1 1.96-.9.46-1.96.71-3.16.73v-1.7zm-4.37-3.45c0-.7.05-1.25.16-1.66.1-.4.25-.81.45-1.22h1.77c-.1.35-.17.74-.22 1.17-.04.43-.06.96-.06 1.58v10.13h-2.1zm15.52-3.58c.08-.64.26-1.24.54-1.8s.62-1 1-1.3c.03-.02.11-.08.23-.16l-.02-.04c-.35.06-.79.16-1.31.3-.52.14-1 .28-1.44.43l-.5-1.63c.9-.31 1.91-.56 3.03-.76 1.12-.19 2.15-.29 3.09-.29 1.85 0 3.26.49 4.24 1.47.98.98 1.47 2.43 1.47 4.33v8.18h-5.65v-1.74h3.5v-6.69c0-1.22-.28-2.15-.83-2.79-.55-.64-1.35-.96-2.4-.96-.75 0-1.38.29-1.89.87-.51.58-.82 1.37-.93 2.36l-1.04 8.94h-2.13zm24.09 7.07v1.65h-11.28v-1.75h7.46v-6.86c0-1.19-.27-2.05-.8-2.58-.53-.53-1.4-.8-2.59-.8h-3.32v-1.74h3.44c1.79 0 3.15.44 4.06 1.3.91.87 1.37 2.16 1.37 3.87V583Zm16.59-6.95c0-1.19-.27-2.05-.8-2.58-.54-.53-1.4-.8-2.59-.8h-4.98v-1.74h5.08c1.79 0 3.15.44 4.07 1.3.92.87 1.38 2.16 1.38 3.87v8.55h-2.17v-8.6zm-8.34 3.92c0-.71.05-1.26.16-1.67.1-.41.25-.82.45-1.23h1.77c-.09.36-.16.75-.21 1.19-.05.43-.07.96-.07 1.57v4.82h-2.1zm15.44-7.3h-2.52v-1.74h4.68v7.66H579Zm7.2 0h-2.52v-1.74h4.68v7.66h-2.17v-5.92zm4.74 11.97.06-1.69c.5.1 1.07.15 1.7.15.64 0 1.11-.18 1.43-.55.32-.37.48-.93.48-1.69v-8.19h-2.69v-1.74h4.86v10.1c0 1.26-.31 2.22-.93 2.87-.62.66-1.52.99-2.68.99-.71 0-1.46-.08-2.23-.25zm14.68-1.68c.77-.02 1.44-.19 2.02-.51.58-.32 1.02-.77 1.34-1.35.32-.58.48-1.26.48-2.06v-6.37h-8.47v-1.74h10.64v8.06c0 1.14-.25 2.13-.74 2.98-.49.84-1.19 1.5-2.1 1.96-.9.46-1.96.71-3.16.73v-1.7zm-4.37-3.45c0-.7.05-1.25.16-1.66.1-.4.25-.81.45-1.22h1.77c-.1.35-.17.74-.22 1.17-.04.43-.06.96-.06 1.58v10.13h-2.1zm20.49-8.58h10.95v13.73h-10.95zm8.8 11.98v-10.24h-6.64v10.24zm6.39-11.98h5.16c1.82 0 3.17.43 4.07 1.3.89.87 1.34 2.19 1.35 3.96v8.47h-2.16v-8.6c0-1.19-.26-2.05-.77-2.59s-1.34-.8-2.47-.8h-3.03l-.01 11.99h-2.16zm24.15 1.3c.9.87 1.35 2.19 1.35 3.96v8.47h-2.16l-.01-8.6c0-1.19-.25-2.05-.76-2.59s-1.33-.8-2.46-.8h-1.95c-.26.42-.46.96-.61 1.61-.15.66-.23 1.33-.23 2.02v4.63c0 1.26-.3 2.21-.9 2.87-.6.66-1.47.98-2.61.98-.33 0-.78-.03-1.34-.1v-1.74c.25.03.52.05.8.05.68 0 1.17-.17 1.47-.52.31-.35.46-.9.46-1.66v-4.33c0-.71.09-1.41.28-2.12.19-.71.44-1.26.77-1.68h-2.58v-1.74h6.4c1.83-.01 3.18.42 4.08 1.29zm6.16 3.7c.08-.64.26-1.24.54-1.8s.62-1 1-1.3c.03-.02.11-.08.23-.16l-.02-.04c-.35.06-.79.16-1.31.3-.52.14-1 .28-1.44.43l-.5-1.63c.9-.31 1.91-.56 3.03-.76 1.12-.19 2.15-.29 3.09-.29 1.85 0 3.26.49 4.24 1.47.98.98 1.47 2.43 1.47 4.33v8.18h-5.65v-1.74h3.5v-6.69c0-1.22-.28-2.15-.83-2.79-.55-.64-1.35-.96-2.4-.96-.75 0-1.38.29-1.89.87-.51.58-.82 1.37-.93 2.36l-1.04 8.94h-2.13z" class="st8" transform="translate(-126.905 -148.524) scale(.26458)"/>
</svg>
