<?xml version="1.0" encoding="UTF-8" standalone="no"?>
<svg
   xmlns:dc="http://purl.org/dc/elements/1.1/"
   xmlns:cc="http://creativecommons.org/ns#"
   xmlns:rdf="http://www.w3.org/1999/02/22-rdf-syntax-ns#"
   xmlns:svg="http://www.w3.org/2000/svg"
   xmlns="http://www.w3.org/2000/svg"
   xmlns:xlink="http://www.w3.org/1999/xlink"
   id="svg2688"
   version="1.1"
   viewBox="0 0 35.877497 30.903335"
   height="116.8"
   width="135.59999">
  <defs
     id="defs2682">
    <clipPath
       id="SVGID_18_">
      <use
         id="use1500"
         style="overflow:visible"
         xlink:href="#SVGID_17_"
         x="0"
         y="0"
         width="100%"
         height="100%" />
    </clipPath>
    <clipPath
       id="SVGID_20_">
      <use
         id="use1512"
         style="overflow:visible"
         xlink:href="#SVGID_19_"
         x="0"
         y="0"
         width="100%"
         height="100%" />
    </clipPath>
    <rect
       height="25.200001"
       width="36.799999"
       y="422"
       x="1304.1"
       id="SVGID_17_" />
    <rect
       height="25.200001"
       width="36.799999"
       y="422"
       x="1304.1"
       id="SVGID_19_" />
  </defs>
  <metadata
     id="metadata2685">
    <rdf:RDF>
      <cc:Work
         rdf:about="">
        <dc:format>image/svg+xml</dc:format>
        <dc:type
           rdf:resource="http://purl.org/dc/dcmitype/StillImage" />
        <dc:title></dc:title>
      </cc:Work>
    </rdf:RDF>
  </metadata>
  <g
     transform="translate(-36.331071,-128.84595)"
     id="layer1">
    <g
       transform="matrix(0.26458333,0,0,0.26458333,-295.64164,32.034913)"
       id="g2559">
      <path
         d="m 1345.6,435.1 c 0,12.7 -23.2,47.6 -23.2,47.6 0,0 -23,-34.9 -23,-47.6 0,-12.7 10.4,-23.2 23.2,-23.2 12.7,0.1 23,10.5 23,23.2"
         class="st2"
         id="path443_3_"
         style="fill:#ec2426" />
      <rect
         height="38.5"
         width="134.39999"
         class="st2"
         y="365.89999"
         x="1255.9"
         id="rect313_2_"
         style="fill:#ec2426" />
      <g
         id="g1019">
        <g
           id="g1017">
          <path
             id="path1005"
             d="M 1273.8,393.8 V 391 l 6.1,-6.4 c 0.8,-0.9 1.4,-1.7 1.8,-2.4 0.4,-0.7 0.5,-1.3 0.5,-1.8 0,-0.8 -0.2,-1.5 -0.6,-1.9 -0.4,-0.4 -1,-0.7 -1.7,-0.7 -0.5,0 -1,0.1 -1.3,0.4 -0.4,0.3 -0.7,0.6 -0.9,1.1 -0.2,0.5 -0.3,1 -0.3,1.6 h -4.1 c 0,-1.2 0.3,-2.2 0.8,-3.2 0.6,-1 1.3,-1.7 2.4,-2.3 1,-0.6 2.2,-0.8 3.5,-0.8 1.3,0 2.5,0.2 3.4,0.6 0.9,0.4 1.6,1.1 2.1,1.9 0.5,0.8 0.7,1.8 0.7,2.9 0,0.8 -0.2,1.6 -0.5,2.4 -0.3,0.8 -0.8,1.5 -1.4,2.3 -0.6,0.8 -1.4,1.7 -2.4,2.7 l -2.9,3 h 7.8 v 3.3 h -13 z"
             class="st11"
             style="fill:#fffffd" />
          <path
             id="path1007"
             d="m 1308.2,380.9 -5.1,12.9 h -4.5 l 5.1,-12.3 h -8.3 v -7.6 h 4.2 v 4.4 h 8.6 z"
             class="st11"
             style="fill:#fffffd" />
          <path
             id="path1009"
             d="m 1311.4,381.4 h -1.3 v -3.3 h 5.6 v 15.6 h -4.2 v -12.3 z"
             class="st11"
             style="fill:#fffffd" />
          <path
             id="path1011"
             d="m 1318.5,393.4 0.6,-3.1 c 1.3,0.3 2.4,0.4 3.3,0.4 1.2,0 2.2,-0.3 2.7,-0.8 0.6,-0.5 0.9,-1.3 0.9,-2.4 v -6.1 h -7 v -3.3 h 11.2 v 8.6 c 0,2.5 -0.6,4.3 -1.9,5.5 -1.3,1.2 -3.1,1.7 -5.4,1.7 -1.2,0.1 -2.7,-0.1 -4.4,-0.5 z"
             class="st11"
             style="fill:#fffffd" />
          <path
             id="path1013"
             d="m 1338.6,389.9 c 0.7,0.3 1.5,0.6 2.4,0.8 0.9,0.2 1.6,0.3 2.4,0.3 1.9,0 3.4,-0.4 4.5,-1.2 1.1,-0.8 1.6,-2 1.6,-3.6 v -8 h 4.1 v 8.4 c 0,1.7 -0.4,3.1 -1.3,4.2 -0.9,1.1 -2.1,2 -3.6,2.6 -1.5,0.6 -3.2,0.9 -5.1,0.9 -1.5,0 -3,-0.2 -4.6,-0.5 -1.6,-0.4 -3,-0.9 -4.4,-1.5 v -14 h 4.1 v 11.6 z m 3.2,-2.6 c 0.1,-0.6 0.1,-1.3 0.1,-2 v -7.2 h 4.1 v 6.3 c 0,0.9 -0.1,1.7 -0.3,2.5 -0.2,0.8 -0.5,1.4 -0.8,1.8 h -3.4 c 0.1,-0.3 0.2,-0.8 0.3,-1.4 z"
             class="st11"
             style="fill:#fffffd" />
          <path
             id="path1015"
             d="m 1367.9,387.2 4.5,6.5 h -4.7 l -5.7,-8.2 c -0.2,0.3 -0.4,0.8 -0.4,1.3 v 7 h -4.1 v -5.1 c 0,-1.4 0.2,-2.6 0.7,-3.5 0.4,-0.9 1.2,-1.5 2.1,-2 l -3.4,-5 h 4.7 l 3.7,5.3 2.5,-5.3 h 4.7 z"
             class="st11"
             style="fill:#fffffd" />
        </g>
      </g>
      <g
         id="g1521">
        <g
           id="g1505">
          <defs
             id="defs1498" />
          <clipPath
             id="clipPath3990">
            <use
               id="use3988"
               style="overflow:visible"
               xlink:href="#SVGID_17_"
               x="0"
               y="0"
               width="100%"
               height="100%" />
          </clipPath>
          <path
             id="path1503"
             clip-path="url(#SVGID_18_)"
             d="m 1332.6,439.7 -3.6,-13.4 -0.2,-0.9 c -0.3,-1 -1.3,-1.6 -2.3,-1.3 -0.8,0.2 -1.3,0.9 -1.4,1.7 l -19.5,10.6 c -0.2,-0.2 -0.5,-0.3 -0.9,-0.2 -0.5,0.1 -0.8,0.6 -0.7,1.1 l 0.4,1.3 0.7,2.7 0.4,1.3 c 0.1,0.5 0.6,0.8 1.1,0.7 0.3,-0.1 0.5,-0.3 0.6,-0.6 h 1.5 c 0.4,2.3 2.4,4.1 4.9,4.1 0.4,0 0.9,-0.1 1.3,-0.2 0.8,-0.2 1.6,-0.7 2.2,-1.3 0.8,-0.8 1.3,-1.8 1.4,-2.9 l 10.9,-0.3 c 0.4,0.7 1.2,1 2,0.8 1,-0.3 1.6,-1.3 1.3,-2.3 z m -16.7,4.3 c -0.6,0.6 -1.4,0.9 -2.2,0.9 -1.4,0 -2.6,-1 -3,-2.3 l 6,-0.2 c -0.1,0.6 -0.4,1.2 -0.8,1.6 z m -7.2,-5.1 17.3,-9.4 2.4,8.9 z m 0,0"
             class="st26"
             style="fill:#fbf2de;enable-background:new" />
        </g>
        <path
           id="path1507"
           d="m 1335.3,432.8 4.5,-1.2 c 0.5,-0.1 0.8,-0.6 0.7,-1.1 -0.1,-0.5 -0.6,-0.8 -1.1,-0.7 l -4.5,1.2 c -0.5,0.1 -0.8,0.6 -0.7,1.1 0.1,0.5 0.6,0.8 1.1,0.7 z m 0,0"
           class="st7"
           style="fill:#fbf2de;enable-background:new" />
        <g
           id="g1519">
          <defs
             id="defs1510" />
          <clipPath
             id="clipPath3999">
            <use
               id="use3997"
               style="overflow:visible"
               xlink:href="#SVGID_19_"
               x="0"
               y="0"
               width="100%"
               height="100%" />
          </clipPath>
          <path
             id="path1515"
             clip-path="url(#SVGID_20_)"
             d="m 1339.9,438.6 -4.5,-1.2 c -0.5,-0.1 -1,0.2 -1.1,0.7 -0.1,0.5 0.2,1 0.7,1.1 l 4.5,1.2 c 0.2,0 0.3,0 0.5,0 0.3,-0.1 0.6,-0.3 0.7,-0.7 0,-0.4 -0.3,-1 -0.8,-1.1 z m 0,0"
             class="st27"
             style="fill:#fbf2de;enable-background:new" />
          <path
             id="path1517"
             clip-path="url(#SVGID_20_)"
             d="m 1332.2,427.1 c 0.2,0 0.3,-0.1 0.4,-0.2 l 3.3,-3.3 c 0.4,-0.4 0.4,-0.9 0,-1.3 -0.4,-0.4 -0.9,-0.4 -1.3,0 l -3.3,3.3 c -0.4,0.4 -0.4,0.9 0,1.3 0.3,0.2 0.6,0.3 0.9,0.2 z m 0,0"
             class="st27"
             style="fill:#fbf2de;enable-background:new" />
        </g>
      </g>
    </g>
  </g>
</svg>
