<?xml version="1.0" encoding="UTF-8" standalone="no"?>
<svg
   xmlns:dc="http://purl.org/dc/elements/1.1/"
   xmlns:cc="http://creativecommons.org/ns#"
   xmlns:rdf="http://www.w3.org/1999/02/22-rdf-syntax-ns#"
   xmlns:svg="http://www.w3.org/2000/svg"
   xmlns="http://www.w3.org/2000/svg"
   version="1.1"
   id="svg3945"
   viewBox="0 0 223.40002 134.99999"
   height="135"
   width="223.40002">
  <defs
     id="defs3947" />
  <metadata
     id="metadata3950">
    <rdf:RDF>
      <cc:Work
         rdf:about="">
        <dc:format>image/svg+xml</dc:format>
        <dc:type
           rdf:resource="http://purl.org/dc/dcmitype/StillImage" />
        <dc:title></dc:title>
      </cc:Work>
    </rdf:RDF>
  </metadata>
  <path
     style="fill:#e04c26;fill-opacity:1"
     d="m 138.9,78.999991 c 0,15 -27.2,55.999999 -27.2,55.999999 0,0 -27.199991,-41.099999 -27.199991,-55.999999 0,-14.9 12.3,-27.2 27.199991,-27.2 14.9,0.1 27.2,12.2 27.2,27.2"
     class="st6"
     id="path897_2_" />
  <path
     style="fill:#ffffff;enable-background:new"
     d="m 120.1,75.099991 0,12.8 -19.8,0 0,-19.8 12.8,0 3.9,-3.9 -20.999991,0 0,27.9 27.899991,0 0,-21 -3.8,4 z m -14,2.9 -1.4,5.6 5.6,-1.4 14,-14 -4.1,-4.1 -14.1,13.9 0,0 z m 21,-17.1 c 1,1 1,3.1 0,4.1 l -1.4,1.4 -4.1,-4.1 1.4,-1.4 c 0.9,-1 2.9,-1 4.1,0"
     class="st18"
     id="path899_2_" />
  <rect
     style="fill:#c52036"
     height="45.300003"
     width="209.30002"
     class="st6"
     y="-7.6293945e-006"
     x="0"
     id="rect901_2_" />
  <g
     transform="translate(-1469.1,-1436.9999)"
     id="g708">
    <path
       style="fill:#ffffff"
       id="path710"
       d="m 1504.7,1452.6 c 1.2,1.1 1.8,2.9 1.8,5.2 l 0,11.1 -2.8,0 0,-11.3 c 0,-1.6 -0.3,-2.7 -1,-3.4 -0.7,-0.7 -1.7,-1.1 -3.2,-1.1 l -2.6,0 c -0.3,0.6 -0.6,1.3 -0.8,2.1 -0.2,0.8 -0.3,1.7 -0.3,2.7 l 0,6.1 c 0,1.7 -0.4,2.9 -1.2,3.8 -0.8,0.9 -1.9,1.3 -3.4,1.3 -0.4,0 -1,0 -1.8,-0.1 l 0,-2.3 c 0.3,0 0.7,0.1 1.1,0.1 0.9,0 1.5,-0.2 1.9,-0.7 0.4,-0.5 0.6,-1.2 0.6,-2.2 l 0,-5.7 c 0,-0.9 0.1,-1.9 0.4,-2.8 0.2,-0.9 0.6,-1.7 1,-2.2 l -3.4,0 0,-2.3 8.4,0 c 2.4,0 4.1,0.6 5.3,1.7 z"
       class="st21" />
    <path
       style="fill:#ffffff"
       id="path712"
       d="m 1512.4,1453.2 -2.1,0 0,-2.3 4.9,0 0,18 -2.8,0 0,-15.7 z"
       class="st21" />
    <path
       style="fill:#ffffff"
       id="path714"
       d="m 1522,1457.5 c 0.1,-0.8 0.3,-1.6 0.7,-2.4 0.4,-0.7 0.8,-1.3 1.3,-1.7 0,0 0.1,-0.1 0.3,-0.2 l 0,0 c -0.5,0.1 -1,0.2 -1.7,0.4 -0.7,0.2 -1.3,0.4 -1.9,0.6 l -0.7,-2.1 c 1.2,-0.4 2.5,-0.7 4,-1 1.5,-0.3 2.8,-0.4 4.1,-0.4 2.4,0 4.3,0.6 5.6,1.9 1.3,1.3 1.9,3.2 1.9,5.7 l 0,10.7 -7.4,0 0,-2.3 4.6,0 0,-8.8 c 0,-1.6 -0.4,-2.8 -1.1,-3.7 -0.7,-0.8 -1.8,-1.3 -3.1,-1.3 -1,0 -1.8,0.4 -2.5,1.1 -0.7,0.8 -1.1,1.8 -1.2,3.1 l -1.4,11.7 -2.8,0 1.3,-11.3 z"
       class="st21" />
    <path
       style="fill:#ffffff"
       id="path716"
       d="m 1553.3,1452.6 c 1.2,1.1 1.8,2.9 1.8,5.2 l 0,11.1 -2.8,0 0,-11.3 c 0,-1.6 -0.3,-2.7 -1,-3.4 -0.7,-0.7 -1.7,-1.1 -3.2,-1.1 l -2.6,0 c -0.3,0.6 -0.6,1.3 -0.8,2.1 -0.2,0.8 -0.3,1.7 -0.3,2.7 l 0,6.1 c 0,1.7 -0.4,2.9 -1.2,3.8 -0.8,0.9 -1.9,1.3 -3.4,1.3 -0.4,0 -1,0 -1.8,-0.1 l 0,-2.3 c 0.3,0 0.7,0.1 1.1,0.1 0.9,0 1.5,-0.2 1.9,-0.7 0.4,-0.5 0.6,-1.2 0.6,-2.2 l 0,-5.7 c 0,-0.9 0.1,-1.9 0.4,-2.8 0.2,-0.9 0.6,-1.7 1,-2.2 l -3.4,0 0,-2.3 8.4,0 c 2.4,0 4.2,0.6 5.3,1.7 z"
       class="st21" />
    <path
       style="fill:#ffffff"
       id="path718"
       d="m 1560.2,1450.9 6.8,0 c 2.4,0 4.2,0.6 5.3,1.7 1.2,1.1 1.8,2.9 1.8,5.2 l 0,11.1 -2.8,0 0,-11.3 c 0,-1.6 -0.3,-2.7 -1,-3.4 -0.7,-0.7 -1.8,-1.1 -3.2,-1.1 l -4,0 0,15.7 -2.8,0 -0.1,-17.9 z"
       class="st21" />
    <path
       style="fill:#ffffff"
       id="path720"
       d="m 1589.7,1457.6 c 0,-1.6 -0.4,-2.7 -1.1,-3.4 -0.7,-0.7 -1.8,-1 -3.4,-1 l -6.5,0 0,-2.3 6.7,0 c 2.4,0 4.1,0.6 5.3,1.7 1.2,1.1 1.8,2.8 1.8,5.1 l 0,11.2 -2.8,0 0,-11.3 z m -11,5.2 c 0,-0.9 0.1,-1.7 0.2,-2.2 0.1,-0.5 0.3,-1.1 0.6,-1.6 l 2.3,0 c -0.1,0.5 -0.2,1 -0.3,1.6 -0.1,0.6 -0.1,1.3 -0.1,2.1 l 0,6.3 -2.8,0 0,-6.2 z"
       class="st21" />
    <path
       style="fill:#ffffff"
       id="path722"
       d="m 1612.8,1456.4 c 0,-1 -0.3,-1.8 -0.9,-2.3 -0.6,-0.5 -1.4,-0.8 -2.4,-0.8 l -6.1,0 0,-2.3 6.1,0 c 1.2,0 2.3,0.2 3.2,0.7 0.9,0.5 1.6,1.1 2.1,1.9 0.5,0.8 0.7,1.9 0.7,3 l 0,12.3 -2.8,0 0,-12.5 z"
       class="st21" />
    <path
       style="fill:#ffffff"
       id="path724"
       d="m 1621.6,1453.2 -2.1,0 0,-2.3 4.9,0 0,18 -2.8,0 0,-15.7 z"
       class="st21" />
    <path
       style="fill:#ffffff"
       id="path726"
       d="m 1629.6,1453.3 -1.3,-0.2 0,-2.2 8.7,0 0,2.3 -4.6,0 2.6,15.7 -2.9,0 -2.5,-15.6 z"
       class="st21" />
    <path
       style="fill:#ffffff"
       id="path728"
       d="m 1651.1,1461.1 5.7,7.9 -3.2,0 -8,-11.1 c -1.1,0.7 -1.6,1.9 -1.6,3.5 l 0,7.5 -2.8,0 0,-6.5 c 0,-1.6 0.3,-2.8 0.8,-3.8 0.5,-1 1.3,-1.7 2.5,-2.3 l -3.9,-5.4 3.2,0 5.6,7.7 4.3,-7.7 3.2,0 -5.8,10.2 z"
       class="st21" />
  </g>
</svg>
