<?xml version="1.0" encoding="UTF-8" standalone="no"?>
<!-- Created with Inkscape (http://www.inkscape.org/) -->

<svg
   width="46.354198"
   height="24.976669"
   viewBox="0 0 46.3542 24.976669"
   version="1.1"
   id="svg2667"
   xmlns="http://www.w3.org/2000/svg"
   xmlns:svg="http://www.w3.org/2000/svg">
  <defs
     id="defs2664" />
  <g
     id="layer1"
     transform="translate(-115.15576,-104.24123)">
    <path
       id="path307_3_"
       d="m 142.72476,120.03686 c 0,2.43417 -4.392,9.18104 -4.392,9.18104 0,0 -4.392,-6.6675 -4.392,-9.18104 0,-2.43417 1.95788,-4.39208 4.392,-4.39208 2.43412,-0.0794 4.392,1.87854 4.392,4.39208"
       style="fill:#a22442;stroke-width:0.26458" />
    <path
       id="rect901_4_"
       style="fill:#a22442;stroke-width:0.264583"
       d="m 115.15576,104.24123 h 45.2702 v 10.18646 h -45.2702 z" />
    <g
       id="g963"
       transform="matrix(0.26458333,0,0,0.26458333,-362.78757,-34.135847)">
      <path
         d="m 1821.3,533.6 h 13.4 v 15.6 h -13.4 z m 9.2,12.3 v -9 h -4.9 v 9 z"
         id="path943"
         style="fill:#fffffd" />
      <path
         d="m 1839.2,536.8 h -2.4 v -3.3 h 6.6 v 8.9 h -4.2 z"
         id="path945"
         style="fill:#fffffd" />
      <path
         d="m 1847.1,549.3 c -0.5,-0.1 -1,-0.2 -1.6,-0.3 v -3.2 c 0.6,0.1 1.3,0.1 1.9,0.1 0.6,0 1,-0.2 1.3,-0.5 0.3,-0.3 0.4,-0.8 0.4,-1.5 v -7.2 h -2.7 v -3.3 h 7 v 10.8 c 0,1 -0.2,2 -0.6,2.7 -0.4,0.8 -0.9,1.3 -1.7,1.7 -0.7,0.4 -1.6,0.6 -2.6,0.6 -0.5,0.2 -1,0.2 -1.4,0.1 z"
         id="path947"
         style="fill:#fffffd" />
      <path
         d="m 1855.6,548.8 0.6,-3.1 c 1.3,0.3 2.4,0.4 3.3,0.4 1.2,0 2.2,-0.3 2.7,-0.8 0.6,-0.5 0.9,-1.3 0.9,-2.4 v -6.1 h -7 v -3.3 h 11.2 v 8.6 c 0,2.5 -0.6,4.3 -1.9,5.5 -1.3,1.2 -3.1,1.7 -5.4,1.7 -1.2,0.1 -2.7,-0.1 -4.4,-0.5 z"
         id="path949"
         style="fill:#fffffd" />
      <path
         d="m 1871.1,536.8 h -1.3 v -3.3 h 5.6 v 15.6 h -4.2 v -12.3 z"
         id="path951"
         style="fill:#fffffd" />
      <path
         d="m 1891.1,533.6 v 3.3 h -2.8 v 12.3 h -4.2 v -12.3 h -6.5 v -3.3 z"
         id="path953"
         style="fill:#fffffd" />
      <path
         d="m 1899.3,533.6 h 13.4 v 15.6 h -13.4 z m 9.2,12.3 v -9 h -4.9 v 9 z"
         id="path955"
         style="fill:#fffffd" />
      <path
         d="m 1916.3,533.6 h 6.9 c 2,0 3.6,0.5 4.6,1.5 1,1 1.6,2.5 1.6,4.4 v 9.7 h -4.2 v -10.1 c 0,-1.5 -0.7,-2.3 -2,-2.3 h -2.7 v 12.3 h -4.2 z"
         id="path957"
         style="fill:#fffffd" />
      <path
         d="m 1944.3,535.1 c 1.1,1 1.6,2.5 1.6,4.4 v 9.7 h -4.2 v -10.1 c 0,-1.5 -0.7,-2.3 -2,-2.3 h -2 c -0.1,0.5 -0.2,1 -0.3,1.6 -0.1,0.6 -0.1,1.1 -0.1,1.6 v 4.4 c 0,1.1 -0.2,2 -0.6,2.7 -0.4,0.8 -0.9,1.3 -1.6,1.7 -0.7,0.4 -1.6,0.6 -2.6,0.6 -0.6,0 -1.3,-0.1 -2,-0.2 V 546 h 0.8 c 1.2,0 1.9,-0.7 1.9,-2 v -3.7 c 0,-0.6 0.1,-1.2 0.2,-1.8 0.1,-0.6 0.4,-1.2 0.6,-1.7 h -2.4 v -3.3 h 8 c 2.2,0.1 3.7,0.6 4.7,1.6 z"
         id="path959"
         style="fill:#fffffd" />
      <path
         d="m 1950,540.5 c 0.1,-0.7 0.2,-1.4 0.5,-2 0.3,-0.6 0.6,-1.1 0.9,-1.5 l 0.2,-0.2 v -0.1 c -0.3,0.1 -0.7,0.2 -1.2,0.3 -0.5,0.1 -0.9,0.3 -1.2,0.4 l -0.9,-3.1 c 1,-0.4 2.2,-0.7 3.5,-0.9 1.4,-0.2 2.6,-0.3 3.9,-0.3 2.4,0 4.2,0.6 5.5,1.8 1.2,1.2 1.9,3 1.9,5.4 v 8.8 h -6.9 v -3.3 h 2.6 v -6.1 c 0,-1 -0.2,-1.8 -0.6,-2.4 -0.4,-0.6 -1,-0.8 -1.7,-0.8 -1.4,0 -2.2,1.1 -2.4,3.3 l -0.9,9.2 h -4.2 z"
         id="path961"
         style="fill:#fffffd" />
    </g>
  </g>
</svg>
