<?xml version="1.0" encoding="UTF-8" standalone="no"?>
<svg
   xmlns:dc="http://purl.org/dc/elements/1.1/"
   xmlns:cc="http://creativecommons.org/ns#"
   xmlns:rdf="http://www.w3.org/1999/02/22-rdf-syntax-ns#"
   xmlns:svg="http://www.w3.org/2000/svg"
   xmlns="http://www.w3.org/2000/svg"
   version="1.1"
   id="svg4626"
   viewBox="0 0 316.60007 134.8"
   height="134.8"
   width="316.60007">
  <defs
     id="defs4628" />
  <metadata
     id="metadata4631">
    <rdf:RDF>
      <cc:Work
         rdf:about="">
        <dc:format>image/svg+xml</dc:format>
        <dc:type
           rdf:resource="http://purl.org/dc/dcmitype/StillImage" />
        <dc:title></dc:title>
      </cc:Work>
    </rdf:RDF>
  </metadata>
  <path
     style="fill:#e04c26;fill-opacity:1"
     d="m 185.50008,78.800002 c 0,15 -27.2,55.999998 -27.2,55.999998 0,0 -27.2,-41.099998 -27.2,-55.999998 0,-15 12.3,-27.2 27.2,-27.2 15.1,0.4 27.2,12.2 27.2,27.2"
     class="st3"
     id="path395_2_" />
  <g
     transform="matrix(0.42702949,0,0,0.42702949,-550.55063,-1087.3236)"
     id="g4679-4-9_2_">
    <path
       style="fill:#ffffff;enable-background:new"
       d="m 1682,2706.7 c 6.6,-0.3 12.5,-6 14,-12.3 -6.4,0 -12.7,6.3 -14,12.3 z m -13.7,-7 c -7.7,9.1 -19.1,12.8 -29.2,18.5 -9.1,4.1 -17.4,11.8 -27.5,12.5 -0.3,6.6 2.4,12.5 3.4,18.8 6.6,-2.1 9.4,-1.4 12.5,4.8 6.3,8 21.2,3.4 22,-6.6 9.1,0.3 18.1,-0.3 26.8,-0.7 3.4,3.4 13.3,2.9 11.1,-3.9 -2.4,-14.3 -7,-28.2 -11.1,-42.2 -1,-2.6 -5.5,-0.5 -8,-1.2 z"
       class="st18"
       id="path6-3-7_2_" />
    <path
       style="fill:#e04c26;fill-opacity:1"
       d="m 1668.3,2713.7 c -13.3,7.7 -26.8,15.4 -40.8,22.2 1.4,3.4 10.4,1.4 15,2.1 10.8,0 22,0 32.8,0 -1.4,-8.4 -3.1,-17.3 -7,-24.3 z"
       class="st3"
       id="path8-6-3_2_" />
    <path
       style="fill:#ffffff;enable-background:new"
       d="m 1690.7,2721.9 c 6,0 11.6,-1.7 17.1,-3.4 1.4,-8.4 -8,-3.9 -12.3,-2.1 -2.3,1.1 -4.8,2.8 -4.8,5.5 m 0,14 c 3.1,4.1 11.1,7.7 16,4.6 3.4,-5.3 -8.4,-4.6 -11.8,-6 -1.7,0 -2.9,0.7 -4.2,1.4 l 0,0 z"
       class="st18"
       id="path10-3-4_2_" />
    <path
       style="fill:#e04c26;fill-opacity:1"
       d="m 1628.7,2748.2 c 2.4,5.3 8.4,9.1 12.8,4.1 7.3,-7 -6.6,-3.4 -10.8,-4.1 -0.7,0 -1.3,0 -2,0 z"
       class="st3"
       id="path12-1-9_2_" />
  </g>
  <rect
     style="fill:#1076b3"
     height="45.300003"
     width="261.60004"
     class="st39"
     y="0"
     x="55.000038"
     id="rect309_2_" />
  <g
     transform="translate(-700.79993,-1421.4999)"
     id="g654">
    <path
       style="fill:#ffffff"
       id="path656"
       d="m 787.1,1445.7 c 0.3,0.4 0.5,0.9 0.7,1.4 0.1,0.5 0.2,1.1 0.2,1.8 l 0,10.9 -2.7,0 0,-11.2 c 0,-0.8 -0.2,-1.5 -0.6,-2.1 l -7.6,-11.1 3.2,0 4.8,7.3 4,-7.3 3.2,0 -5.5,9.7 0.3,0.6 z"
       class="st21" />
    <path
       style="fill:#ffffff"
       id="path658"
       d="m 803.2,1440.9 c 0,-1 -0.3,-1.8 -0.9,-2.3 -0.6,-0.5 -1.4,-0.8 -2.4,-0.8 l -6.1,0 0,-2.3 6.1,0 c 1.2,0 2.3,0.2 3.2,0.7 0.9,0.5 1.6,1.1 2.1,1.9 0.5,0.8 0.7,1.9 0.7,3 l 0,12.3 -2.8,0 0,-12.5 z"
       class="st21" />
    <path
       style="fill:#ffffff"
       id="path660"
       d="m 811.9,1437.7 -2.1,0 0,-2.3 4.9,0 0,18 -2.8,0 0,-15.7 z"
       class="st21" />
    <path
       style="fill:#ffffff"
       id="path662"
       d="m 821.2,1437.7 -2.1,0 0,-2.3 4.9,0 0,18 -2.8,0 0,-15.7 z"
       class="st21" />
    <path
       style="fill:#ffffff"
       id="path664"
       d="m 832.3,1450.2 c 1,0.4 2,0.7 3.1,1 1.1,0.2 2.1,0.4 3.1,0.4 1.5,0 2.8,-0.2 3.9,-0.6 1.1,-0.4 2.1,-1.1 2.7,-1.9 0.7,-0.9 1,-1.9 1,-3.2 l 0,-10.4 2.8,0 0,10.7 c 0,1.7 -0.5,3.1 -1.4,4.3 -0.9,1.2 -2.1,2 -3.7,2.6 -1.5,0.6 -3.3,0.9 -5.2,0.9 -1.5,0 -3,-0.2 -4.6,-0.5 -1.6,-0.4 -3.1,-0.9 -4.5,-1.6 l 0,-16.4 2.8,0 0,14.7 z m 5.2,-3.4 c 0.2,-0.7 0.3,-1.5 0.3,-2.4 l 0,-9 2.8,0 0,8.5 c 0,1 -0.1,1.9 -0.4,2.7 -0.3,0.8 -0.6,1.4 -1.2,2 l -2.4,-0.1 c 0.4,-0.5 0.7,-1 0.9,-1.7 z"
       class="st21" />
    <path
       style="fill:#ffffff"
       id="path666"
       d="m 862.1,1435.4 14.4,0 0,18 -14.4,0 0,-18 z m 11.6,15.7 0,-13.4 -8.7,0 0,13.4 8.7,0 z"
       class="st21" />
    <path
       style="fill:#ffffff"
       id="path668"
       d="m 882.9,1437.7 -2.1,0 0,-2.3 4.9,0 0,18 -2.8,0 0,-15.7 z"
       class="st21" />
    <path
       style="fill:#ffffff"
       id="path670"
       d="m 892.6,1437.7 -3.3,0 0,-2.3 6.1,0 0,10 -2.8,0 0,-7.7 z"
       class="st21" />
    <path
       style="fill:#ffffff"
       id="path672"
       d="m 908.1,1440.9 c 0,-1 -0.3,-1.8 -0.9,-2.3 -0.6,-0.5 -1.4,-0.8 -2.4,-0.8 l -6.1,0 0,-2.3 6.1,0 c 1.2,0 2.3,0.2 3.2,0.7 0.9,0.5 1.6,1.1 2.1,1.9 0.5,0.8 0.7,1.9 0.7,3 l 0,12.3 -2.8,0 0,-12.5 z"
       class="st21" />
    <path
       style="fill:#ffffff"
       id="path674"
       d="m 916.9,1437.7 -2.1,0 0,-2.3 4.9,0 0,18 -2.8,0 0,-15.7 z"
       class="st21" />
    <path
       style="fill:#ffffff"
       id="path676"
       d="m 928.7,1452.8 c -1.1,-0.6 -1.9,-1.4 -2.5,-2.5 -0.6,-1.1 -0.9,-2.4 -0.9,-3.8 l 0,-11.1 2.8,0 0,11.3 c 0,0.9 0.2,1.8 0.5,2.5 0.4,0.7 0.9,1.3 1.5,1.7 0.6,0.4 1.4,0.6 2.3,0.6 0.9,0 1.6,-0.2 2.3,-0.6 0.7,-0.4 1.2,-1 1.5,-1.7 0.4,-0.7 0.5,-1.6 0.5,-2.5 l 0,-6 c 0,-1 -0.2,-1.7 -0.6,-2.3 -0.4,-0.5 -1,-0.8 -1.8,-0.8 -0.7,0 -1.4,0.2 -2.2,0.6 l -0.4,-1.9 c 0.5,-0.3 1.1,-0.6 1.7,-0.8 0.6,-0.2 1.2,-0.3 1.8,-0.3 0.9,0 1.7,0.2 2.4,0.6 0.7,0.4 1.2,1 1.6,1.8 0.4,0.8 0.5,1.7 0.5,2.8 l 0,6.1 c 0,1.4 -0.3,2.7 -0.9,3.8 -0.6,1.1 -1.4,1.9 -2.5,2.5 -1.1,0.6 -2.3,0.9 -3.8,0.9 -1.4,0 -2.7,-0.3 -3.8,-0.9 z"
       class="st21" />
    <path
       style="fill:#ffffff"
       id="path678"
       d="m 946,1437.7 -3.3,0 0,-2.3 6.1,0 0,10 -2.8,0 0,-7.7 z"
       class="st21" />
    <path
       style="fill:#ffffff"
       id="path680"
       d="m 966.6,1435.4 0,2.3 -3,0 0,15.7 -2.8,0 0,-15.7 -8.6,0 0,-2.3 14.4,0 z"
       class="st21" />
    <path
       style="fill:#ffffff"
       id="path682"
       d="m 971.2,1437.7 -2.1,0 0,-2.3 4.9,0 0,18 -2.8,0 0,-15.7 z"
       class="st21" />
    <path
       style="fill:#ffffff"
       id="path684"
       d="m 989.7,1445.5 5.7,7.9 -3.2,0 -8,-11.1 c -1.1,0.7 -1.6,1.9 -1.6,3.5 l 0,7.5 -2.8,0 0,-6.5 c 0,-1.6 0.3,-2.8 0.8,-3.8 0.5,-1 1.3,-1.7 2.5,-2.3 l -3.9,-5.4 3.2,0 5.6,7.7 4.3,-7.7 3.2,0 -5.8,10.2 z"
       class="st21" />
  </g>
</svg>
