<?xml version="1.0" encoding="UTF-8" standalone="no"?>
<svg
   xmlns:dc="http://purl.org/dc/elements/1.1/"
   xmlns:cc="http://creativecommons.org/ns#"
   xmlns:rdf="http://www.w3.org/1999/02/22-rdf-syntax-ns#"
   xmlns:svg="http://www.w3.org/2000/svg"
   xmlns="http://www.w3.org/2000/svg"
   id="svg3897"
   version="1.1"
   viewBox="0 0 68.529722 81.451999"
   height="307.85007"
   width="259.00998">
  <defs
     id="defs3891" />
  <metadata
     id="metadata3894">
    <rdf:RDF>
      <cc:Work
         rdf:about="">
        <dc:format>image/svg+xml</dc:format>
        <dc:type
           rdf:resource="http://purl.org/dc/dcmitype/StillImage" />
        <dc:title></dc:title>
      </cc:Work>
    </rdf:RDF>
  </metadata>
  <g
     transform="translate(-62.313907,-102.81567)"
     id="layer1">
    <g
       id="g1309"
       transform="matrix(0.26458333,0,0,0.26458333,-253.89702,-210.02563)">
      <rect
         id="rect807"
         class="cls-4"
         x="1195.1279"
         y="1182.3923"
         width="254.67999"
         height="212.88"
         style="fill:#ec2426" />
      <path
         id="path819"
         class="cls-4"
         d="m 1352.158,1433.4824 c 0,15.12 -27.52,56.76 -27.52,56.76 0,0 -27.53,-41.64 -27.53,-56.76 a 27.53,27.53 0 0 1 55,0"
         style="fill:#2ca5e8;fill-opacity:1" />
      <g
         transform="translate(27.157979,-76.947607)"
         id="g829">
        <path
           id="path837"
           class="cls-12"
           d="m 1304.48,1505.51 a 36.58,36.58 0 0 1 -3.57,-2.14 c 0.72,-1 2.14,-2.85 1.71,-4.27 a 2.64,2.64 0 0 0 -0.71,-1.43 1.33,1.33 0 0 0 -1,-0.29 8.87,8.87 0 0 0 -2.42,1 v -0.71 c 0.28,-1.71 1,-3.14 2.42,-3.14 v 0 a 3.72,3.72 0 0 1 3.57,3.14 c 1.14,2.42 0.71,5 0,7.84 m -4.56,-3.28 c -0.29,-0.71 -0.72,-1.42 -1,-2.14 0.28,-1 1,-1.71 1.71,-1.71 h 0.28 c 0.29,0 0.29,0.29 0.29,0.72 0.57,1 -0.57,2.13 -1.28,3.13 m -1.72,1.43 -1,0.71 0.28,-1.42 a 4.94,4.94 0 0 1 0.71,-1.72 11.47,11.47 0 0 1 1,1.43 l -1,1 m 13.69,11.69 c 0,-0.28 -2.42,-7 -5.7,-8.84 -0.29,0 -0.29,-0.28 -0.71,-0.28 1,-3.14 1.42,-6 0.71,-8.42 -0.71,-2.42 -2.85,-4.28 -5,-3.85 -1.71,0 -3.14,1.71 -3.57,3.85 v 2.19 c -0.28,0.71 -0.71,1 -0.71,1.43 l -16.54,26.09 c 0,0.29 -0.29,0.29 0,0.72 v 0.28 h 0.28 c 0.29,0 0.29,-0.28 0.72,-0.28 l 19.11,-23.68 c 1,1 2.85,1.72 3.85,2.43 -0.72,1.71 -1.43,3.85 -2.14,6 -2.43,6 -1.43,11 0.28,12 h 0.29 a 0.28,0.28 0 0 0 0.28,-0.29 v -0.71 c -1.42,-0.71 -2.42,-5.28 0,-10.55 a 34.3,34.3 0 0 0 2.14,-6 0.28,0.28 0 0 1 0.29,0.28 c 2.85,1.43 5.27,8.13 5.27,8.13 0,0.29 0.29,0.29 0.72,0.29 a 2.06,2.06 0 0 1 0.42,-0.72"
           style="opacity:0.9;isolation:isolate;fill:#fbf2de" />
      </g>
      <path
         class="cls-13"
         d="m 1223.738,1219.0524 h -2.66 v -4.46 h 8.44 v 10.67 h -5.78 z"
         id="path251"
         style="fill:#fffffd" />
      <path
         class="cls-13"
         d="m 1235.158,1219.0524 h -2.66 v -4.46 h 8.44 v 10.67 h -5.78 z"
         id="path253"
         style="fill:#fffffd" />
      <path
         class="cls-13"
         d="m 1259.678,1218.2824 -5.8,14.78 h -6.1 l 5.73,-14 h -9.46 v -9.44 h 5.79 v 5 h 9.84 z"
         id="path255"
         style="fill:#fffffd" />
      <path
         class="cls-13"
         d="m 1266.658,1233.1824 a 19.73,19.73 0 0 1 -3.6,-0.9 l 1.06,-4.2 a 27.37,27.37 0 0 0 3.09,0.65 18.07,18.07 0 0 0 2.65,0.24 4.65,4.65 0 0 0 3,-0.87 3.19,3.19 0 0 0 1,-2.57 v -6.48 h -4.57 a 11.6,11.6 0 0 0 -0.33,1.49 9.54,9.54 0 0 0 -0.08,1.37 v 0.63 a 6.11,6.11 0 0 0 1,0.1 h 0.25 v 3.56 a 8.19,8.19 0 0 1 -2.23,0.29 10.28,10.28 0 0 1 -2.54,-0.32 6.79,6.79 0 0 1 -2.09,-0.89 v -1.34 a 12.5,12.5 0 0 1 0.28,-2.73 7.21,7.21 0 0 1 0.78,-2.15 h -1.73 v -4.46 h 17 v 10.19 a 9.08,9.08 0 0 1 -1.25,5 7.26,7.26 0 0 1 -3.35,2.85 11.84,11.84 0 0 1 -4.75,0.91 22.51,22.51 0 0 1 -3.59,-0.37 z"
         id="path257"
         style="fill:#fffffd" />
      <path
         class="cls-13"
         d="m 1288.158,1232.3524 a 7.67,7.67 0 0 1 -3,-3.08 9.67,9.67 0 0 1 -1.13,-4.58 v -0.77 a 8,8 0 0 1 0.41,-2.42 9.22,9.22 0 0 1 1,-2.18 c 0,0 0.14,-0.15 0.3,-0.3 v -0.09 l -2,0.47 -1.07,-4.16 a 29.77,29.77 0 0 1 4.39,-0.88 37.14,37.14 0 0 1 4.79,-0.32 q 4.55,0 6.91,2.28 2.36,2.28 2.37,6.75 v 1.62 a 9.53,9.53 0 0 1 -1.06,4.58 7.54,7.54 0 0 1 -3,3.08 8.92,8.92 0 0 1 -4.47,1.09 8.69,8.69 0 0 1 -4.44,-1.09 z m 5.81,-4.14 a 3.07,3.07 0 0 0 1,-1.41 5.81,5.81 0 0 0 0.35,-2.08 v -1.54 q 0,-4.45 -2.71,-4.45 a 2.29,2.29 0 0 0 -2.1,1.2 7.24,7.24 0 0 0 -0.68,3.58 v 1.21 a 5.82,5.82 0 0 0 0.34,2.08 3.06,3.06 0 0 0 1,1.41 2.27,2.27 0 0 0 1.44,0.5 2.22,2.22 0 0 0 1.32,-0.5 z"
         id="path259"
         style="fill:#fffffd" />
      <path
         class="cls-13"
         d="m 1304.688,1219.0524 h -1.36 v -4.46 h 7.16 v 18.46 h -5.8 z"
         id="path261"
         style="fill:#fffffd" />
      <path
         class="cls-13"
         d="m 1322.158,1228.7124 a 3.58,3.58 0 0 0 2.59,-1.05 4.24,4.24 0 0 0 0.86,-2.9 v -5.71 h -10.45 v -4.46 h 16.2 v 10.07 a 7.81,7.81 0 0 1 -2.39,6.12 10.58,10.58 0 0 1 -6.85,2.3 z m -6.91,-1.9 a 8.92,8.92 0 0 1 0.21,-2.09 4.25,4.25 0 0 1 0.51,-1.31 1.91,1.91 0 0 1 0.52,-0.6 h 4.58 a 17.23,17.23 0 0 0 -0.26,3.33 v 13.28 h -5.56 z"
         id="path263"
         style="fill:#fffffd" />
      <path
         class="cls-13"
         d="m 1343.888,1214.5724 h 16.27 v 18.48 h -16.26 z m 10.47,14 v -9.52 h -4.67 v 9.56 z"
         id="path265"
         style="fill:#fffffd" />
      <path
         class="cls-13"
         d="m 1364.878,1214.5724 h 8.59 a 7.7,7.7 0 0 1 5.48,1.77 6.88,6.88 0 0 1 1.91,5.2 v 11.51 h -5.77 v -12 a 2.3,2.3 0 0 0 -0.43,-1.47 1.47,1.47 0 0 0 -1.18,-0.52 h -2.81 v 14 h -5.79 z"
         id="path267"
         style="fill:#fffffd" />
      <path
         class="cls-13"
         d="m 1399.528,1216.3424 a 6.79,6.79 0 0 1 1.89,5.2 v 11.51 h -5.78 v -12 a 2.36,2.36 0 0 0 -0.41,-1.47 1.42,1.42 0 0 0 -1.16,-0.52 h -2.28 a 28.15,28.15 0 0 0 -0.2,3.24 v 4.85 a 7.31,7.31 0 0 1 -0.72,3.36 5,5 0 0 1 -2.09,2.15 6.63,6.63 0 0 1 -3.24,0.75 14.93,14.93 0 0 1 -2.6,-0.23 v -4.41 h 1 a 2.1,2.1 0 0 0 1.51,-0.52 2.12,2.12 0 0 0 0.54,-1.57 v -3.84 a 9.41,9.41 0 0 1 0.22,-1.91 7,7 0 0 1 0.66,-1.88 h -2.59 v -4.46 h 9.79 a 7.76,7.76 0 0 1 5.46,1.75 z"
         id="path269"
         style="fill:#fffffd" />
      <path
         class="cls-13"
         d="m 1406.628,1223.3324 a 9.46,9.46 0 0 1 0.57,-2.36 5.71,5.71 0 0 1 1,-1.78 0.64,0.64 0 0 1 0.18,-0.16 v -0.09 a 10,10 0 0 0 -1.29,0.32 9.31,9.31 0 0 0 -1.19,0.42 l -1.21,-4.15 a 23.08,23.08 0 0 1 4.24,-1.08 28,28 0 0 1 4.71,-0.41 q 4.44,0 6.74,2.23 c 1.52,1.5 2.3,3.69 2.32,6.58 v 10.2 h -8.33 v -4.46 h 2.54 v -6.54 a 4.61,4.61 0 0 0 -0.56,-2.44 1.75,1.75 0 0 0 -1.55,-0.89 2,2 0 0 0 -1.78,0.93 6.69,6.69 0 0 0 -0.79,2.87 l -0.94,10.53 h -5.72 z"
         id="path271"
         style="fill:#fffffd" />
      <path
         class="cls-13"
         d="m 1237.778,1271.5924 h -3.3 v -2.28 h 6.14 v 10 h -2.84 z"
         id="path273"
         style="fill:#fffffd" />
      <path
         class="cls-13"
         d="m 1247.218,1271.5924 h -3.3 v -2.28 h 6.14 v 10 h -2.84 z"
         id="path275"
         style="fill:#fffffd" />
      <path
         class="cls-13"
         d="m 1267.468,1271.1024 -6.6,16.22 h -3 l 6.52,-15.73 h -10.56 v -7.75 h 2.83 v 5.47 h 10.85 z"
         id="path277"
         style="fill:#fffffd" />
      <path
         class="cls-13"
         d="m 1274.668,1287.3624 a 18.66,18.66 0 0 1 -3,-0.76 l 0.55,-2.13 a 18.56,18.56 0 0 0 2.73,0.62 16.7,16.7 0 0 0 2.49,0.21 5.65,5.65 0 0 0 3.86,-1.27 4.55,4.55 0 0 0 1.36,-3.55 v -8.89 h -7.21 a 7.6,7.6 0 0 0 -0.79,2.13 11.36,11.36 0 0 0 -0.3,2.58 v 1.37 a 3.46,3.46 0 0 0 0.91,0.22 14.51,14.51 0 0 0 1.48,0.06 v 2.44 a 15.41,15.41 0 0 1 -3,-0.22 7.84,7.84 0 0 1 -2.17,-0.8 l -0.06,-2.32 a 11.75,11.75 0 0 1 0.39,-3 7.54,7.54 0 0 1 1.06,-2.44 h -2.19 v -2.28 h 14.69 v 10.64 a 8.44,8.44 0 0 1 -1,4.26 6.32,6.32 0 0 1 -2.76,2.56 9.34,9.34 0 0 1 -4.11,0.85 18.48,18.48 0 0 1 -2.93,-0.28 z"
         id="path279"
         style="fill:#fffffd" />
      <path
         class="cls-13"
         d="m 1294.478,1286.6224 a 7.16,7.16 0 0 1 -2.68,-2.9 9.54,9.54 0 0 1 -1,-4.34 v -1.83 a 8.53,8.53 0 0 1 0.33,-2.34 7.85,7.85 0 0 1 0.91,-2.08 4.67,4.67 0 0 1 1.32,-1.42 0.78,0.78 0 0 1 0.21,-0.12 v 0 a 26.76,26.76 0 0 0 -3.22,0.75 l -0.55,-2.14 a 31.65,31.65 0 0 1 8.18,-1.17 8.83,8.83 0 0 1 4.31,1 6.76,6.76 0 0 1 2.79,2.84 9.56,9.56 0 0 1 1,4.43 v 2.15 a 9.53,9.53 0 0 1 -1,4.34 7,7 0 0 1 -2.68,2.9 8.17,8.17 0 0 1 -7.94,0 z m 6.47,-2.09 a 4.74,4.74 0 0 0 1.69,-2.06 7.38,7.38 0 0 0 0.59,-3.07 v -2.14 a 7.62,7.62 0 0 0 -0.6,-3.14 4.55,4.55 0 0 0 -1.73,-2 4.84,4.84 0 0 0 -2.63,-0.71 4,4 0 0 0 -2.4,0.73 4.71,4.71 0 0 0 -1.6,2.09 8.68,8.68 0 0 0 -0.6,3.22 v 2 a 7.54,7.54 0 0 0 0.59,3.07 4.79,4.79 0 0 0 1.68,2.06 4.36,4.36 0 0 0 2.49,0.72 4.48,4.48 0 0 0 2.52,-0.77 z"
         id="path281"
         style="fill:#fffffd" />
      <path
         class="cls-13"
         d="m 1311.788,1271.5924 h -2.09 v -2.28 h 4.93 v 18 h -2.84 z"
         id="path283"
         style="fill:#fffffd" />
      <path
         class="cls-13"
         d="m 1326.218,1285.0524 a 5.67,5.67 0 0 0 2.64,-0.67 4.38,4.38 0 0 0 1.76,-1.76 5.5,5.5 0 0 0 0.63,-2.7 v -8.36 h -11.09 v -2.28 h 14 v 10.58 a 7.53,7.53 0 0 1 -1,3.9 6.51,6.51 0 0 1 -2.75,2.57 9.51,9.51 0 0 1 -4.15,1 z m -5.73,-4.52 a 7.75,7.75 0 0 1 0.79,-3.77 h 2.33 a 8,8 0 0 0 -0.29,1.52 c -0.05,0.56 -0.08,1.26 -0.08,2.08 v 13.28 h -2.75 z"
         id="path285"
         style="fill:#fffffd" />
      <path
         class="cls-13"
         d="m 1348.058,1271.5924 h -2.13 v -2.28 h 4.93 v 24.36 h -2.8 z"
         id="path287"
         style="fill:#fffffd" />
      <path
         class="cls-13"
         d="m 1357.238,1271.5924 h -2.08 v -2.28 h 4.94 v 18 h -2.85 z"
         id="path289"
         style="fill:#fffffd" />
      <path
         class="cls-13"
         d="m 1371.668,1285.0524 a 5.67,5.67 0 0 0 2.64,-0.67 4.38,4.38 0 0 0 1.76,-1.76 5.5,5.5 0 0 0 0.63,-2.7 v -8.36 h -11.11 v -2.28 h 14 v 10.58 a 7.53,7.53 0 0 1 -1,3.9 6.51,6.51 0 0 1 -2.75,2.57 9.51,9.51 0 0 1 -4.15,1 z m -5.73,-4.52 a 7.75,7.75 0 0 1 0.79,-3.77 h 2.33 a 8,8 0 0 0 -0.29,1.52 c 0,0.56 -0.08,1.26 -0.08,2.08 v 13.28 h -2.75 z"
         id="path291"
         style="fill:#fffffd" />
      <path
         class="cls-13"
         d="m 1386.448,1271.5924 h -3.29 v -2.28 h 6.14 v 10 h -2.84 z"
         id="path293"
         style="fill:#fffffd" />
      <path
         class="cls-13"
         d="m 1407.208,1271.0524 a 6.87,6.87 0 0 1 1.77,5.18 v 11.12 h -2.82 v -11.28 a 4.83,4.83 0 0 0 -1,-3.4 4.28,4.28 0 0 0 -3.23,-1 h -2.55 a 6.76,6.76 0 0 0 -0.8,2.12 11.64,11.64 0 0 0 -0.3,2.65 v 6.07 a 5.32,5.32 0 0 1 -1.18,3.75 4.38,4.38 0 0 1 -3.42,1.29 15.34,15.34 0 0 1 -1.76,-0.14 v -2.36 a 8.78,8.78 0 0 0 1.06,0.06 2.44,2.44 0 0 0 1.93,-0.68 3.25,3.25 0 0 0 0.6,-2.17 v -5.69 a 10.5,10.5 0 0 1 0.37,-2.77 6,6 0 0 1 1,-2.21 h -3.38 v -2.28 h 8.39 c 2.36,0 4.15,0.57 5.32,1.74 z"
         id="path295"
         style="fill:#fffffd" />
      <path
         class="cls-13"
         d="m 1255.488,1306.8724 h 14.37 v 18 h -14.37 z m 11.54,15.71 v -13.43 h -8.71 v 13.43 z"
         id="path297"
         style="fill:#fffffd" />
      <path
         class="cls-13"
         d="m 1276.238,1309.1524 h -2.08 v -2.28 h 4.94 v 18 h -2.85 z"
         id="path299"
         style="fill:#fffffd" />
      <path
         class="cls-13"
         d="m 1296.798,1308.6624 -6.6,16.22 h -3 l 6.52,-15.73 h -10.56 v -7.75 h 2.83 v 5.47 h 10.85 z"
         id="path301"
         style="fill:#fffffd" />
      <path
         class="cls-13"
         d="m 1302.068,1309.1524 h -3.3 v -2.28 h 6.14 v 10 h -2.84 z"
         id="path303"
         style="fill:#fffffd" />
      <path
         class="cls-13"
         d="m 1317.938,1316.5824 4.75,6.86 v 1.44 h -13.33 v -2.3 h 9.68 l -10.76,-15.71 h 3.19 l 4.8,7.25 4,-7.25 h 3.19 z"
         id="path305"
         style="fill:#fffffd" />
      <path
         class="cls-13"
         d="m 1347.698,1308.5824 c 1.18,1.13 1.76,2.86 1.76,5.18 v 11.12 h -2.82 v -11.28 a 4.83,4.83 0 0 0 -1,-3.4 4.3,4.3 0 0 0 -3.23,-1.05 h -2.55 a 7.11,7.11 0 0 0 -0.81,2.12 11.64,11.64 0 0 0 -0.29,2.65 v 6.06 a 5.4,5.4 0 0 1 -1.18,3.76 4.41,4.41 0 0 1 -3.42,1.31 15.34,15.34 0 0 1 -1.76,-0.14 v -2.28 a 8.54,8.54 0 0 0 1,0.07 2.5,2.5 0 0 0 1.94,-0.69 3.27,3.27 0 0 0 0.6,-2.17 v -5.69 a 10.5,10.5 0 0 1 0.37,-2.77 6.13,6.13 0 0 1 1,-2.21 h -3.37 v -2.28 h 8.39 a 7.42,7.42 0 0 1 5.37,1.69 z"
         id="path307"
         style="fill:#fffffd" />
      <path
         class="cls-13"
         d="m 1352.698,1324.8424 0.08,-2.21 a 11.62,11.62 0 0 0 2.23,0.2 2.36,2.36 0 0 0 1.88,-0.72 3.31,3.31 0 0 0 0.63,-2.22 v -10.74 h -3.53 v -2.28 h 6.37 v 13.25 a 5.31,5.31 0 0 1 -1.22,3.77 4.63,4.63 0 0 1 -3.52,1.29 13.17,13.17 0 0 1 -2.92,-0.34 z"
         id="path309"
         style="fill:#fffffd" />
      <path
         class="cls-13"
         d="m 1367.268,1309.1524 h -3.3 v -2.28 h 6.19 v 10 h -2.84 z"
         id="path311"
         style="fill:#fffffd" />
      <path
         class="cls-13"
         d="m 1378.638,1324.9224 a 18.66,18.66 0 0 1 -3,-0.76 l 0.55,-2.13 a 18.56,18.56 0 0 0 2.73,0.62 16.69,16.69 0 0 0 2.48,0.21 5.63,5.63 0 0 0 3.87,-1.27 4.55,4.55 0 0 0 1.36,-3.55 v -8.89 h -7.21 a 7.6,7.6 0 0 0 -0.79,2.13 11.36,11.36 0 0 0 -0.3,2.58 v 1.37 a 3.11,3.11 0 0 0 0.9,0.22 14.87,14.87 0 0 0 1.49,0.06 v 2.44 a 15.41,15.41 0 0 1 -3,-0.22 7.84,7.84 0 0 1 -2.17,-0.8 l -0.06,-2.33 a 11.73,11.73 0 0 1 0.39,-3 7.54,7.54 0 0 1 1.06,-2.44 h -2.19 v -2.28 h 14.69 v 10.64 a 8.38,8.38 0 0 1 -1,4.25 6.28,6.28 0 0 1 -2.76,2.57 9.34,9.34 0 0 1 -4.11,0.85 18.48,18.48 0 0 1 -2.93,-0.27 z"
         id="path313"
         style="fill:#fffffd" />
      <path
         class="cls-13"
         d="m 1233.768,1346.7124 h -3.3 v -2.28 h 6.15 v 10 h -2.85 z"
         id="path315"
         style="fill:#fffffd" />
      <path
         class="cls-13"
         d="m 1242.698,1346.7124 h -2.1 v -2.28 h 4.94 v 18 h -2.84 z"
         id="path317"
         style="fill:#fffffd" />
      <path
         class="cls-13"
         d="m 1251.928,1346.7124 h -2.1 v -2.28 h 4.94 v 18 h -2.84 z"
         id="path319"
         style="fill:#fffffd" />
      <path
         class="cls-13"
         d="m 1258.448,1362.4024 0.08,-2.21 a 11.62,11.62 0 0 0 2.23,0.2 2.36,2.36 0 0 0 1.88,-0.72 3.31,3.31 0 0 0 0.63,-2.22 v -10.74 h -3.53 v -2.28 h 6.42 v 13.25 a 5.31,5.31 0 0 1 -1.22,3.77 4.63,4.63 0 0 1 -3.52,1.29 13.17,13.17 0 0 1 -2.97,-0.34 z"
         id="path321"
         style="fill:#fffffd" />
      <path
         class="cls-13"
         d="m 1281.718,1354.5624 5.7,7.87 h -3.17 l -8,-11.06 a 3.81,3.81 0 0 0 -1.64,3.51 v 7.55 h -2.75 v -6.52 a 8.09,8.09 0 0 1 0.8,-3.83 5.11,5.11 0 0 1 2.46,-2.25 l -3.9,-5.4 h 3.18 l 5.58,7.7 4.34,-7.7 h 3.19 z"
         id="path323"
         style="fill:#fffffd" />
      <path
         class="cls-13"
         d="m 1299.158,1349.8724 a 3.06,3.06 0 0 0 -0.86,-2.31 3.21,3.21 0 0 0 -2.36,-0.85 h -6 v -2.28 h 6.14 a 7.15,7.15 0 0 1 3.19,0.67 4.72,4.72 0 0 1 2.06,1.94 6.19,6.19 0 0 1 0.71,3 v 12.34 h -2.88 z"
         id="path325"
         style="fill:#fffffd" />
      <path
         class="cls-13"
         d="m 1316.218,1346.7124 h -3.3 v -2.28 h 6.15 v 10 h -2.85 z"
         id="path327"
         style="fill:#fffffd" />
      <path
         class="cls-13"
         d="m 1325.668,1346.7124 h -3.3 v -2.28 h 6.14 v 10 h -2.84 z"
         id="path329"
         style="fill:#fffffd" />
      <path
         class="cls-13"
         d="m 1345.918,1346.2224 -6.6,16.21 h -3 l 6.52,-15.72 h -10.56 v -7.75 h 2.83 v 5.47 h 10.85 z"
         id="path331"
         style="fill:#fffffd" />
      <path
         class="cls-13"
         d="m 1353.158,1362.4824 a 18.66,18.66 0 0 1 -3,-0.76 l 0.55,-2.13 a 18.56,18.56 0 0 0 2.73,0.62 16.69,16.69 0 0 0 2.48,0.21 5.69,5.69 0 0 0 3.87,-1.27 4.55,4.55 0 0 0 1.36,-3.55 v -8.89 h -7.21 a 7.6,7.6 0 0 0 -0.79,2.13 11.36,11.36 0 0 0 -0.3,2.58 v 1.37 a 3.48,3.48 0 0 0 0.9,0.22 14.73,14.73 0 0 0 1.49,0.06 v 2.44 a 15.41,15.41 0 0 1 -3,-0.22 8.17,8.17 0 0 1 -2.17,-0.8 l -0.07,-2.32 a 11.75,11.75 0 0 1 0.39,-3 7.55,7.55 0 0 1 1.07,-2.44 h -2.19 v -2.28 h 14.69 v 10.6 a 8.34,8.34 0 0 1 -1,4.26 6.24,6.24 0 0 1 -2.75,2.56 9.34,9.34 0 0 1 -4.11,0.85 18.48,18.48 0 0 1 -2.94,-0.24 z"
         id="path333"
         style="fill:#fffffd" />
      <path
         class="cls-13"
         d="m 1372.928,1361.7424 a 7.16,7.16 0 0 1 -2.68,-2.9 9.54,9.54 0 0 1 -1,-4.34 v -1.83 a 8.48,8.48 0 0 1 0.33,-2.34 8.06,8.06 0 0 1 0.91,-2.09 4.72,4.72 0 0 1 1.31,-1.41 1,1 0 0 1 0.22,-0.12 v -0.05 a 26.76,26.76 0 0 0 -3.22,0.75 l -0.55,-2.14 a 28.4,28.4 0 0 1 4,-0.85 28.69,28.69 0 0 1 4.14,-0.33 8.87,8.87 0 0 1 4.32,1 6.68,6.68 0 0 1 2.78,2.84 9.43,9.43 0 0 1 1,4.43 v 2.15 a 9.53,9.53 0 0 1 -0.94,4.34 7.09,7.09 0 0 1 -2.68,2.9 8.17,8.17 0 0 1 -7.94,0 z m 6.47,-2.09 a 4.81,4.81 0 0 0 1.69,-2.06 7.57,7.57 0 0 0 0.59,-3.07 v -2.14 a 7.62,7.62 0 0 0 -0.6,-3.14 4.55,4.55 0 0 0 -1.73,-2 4.87,4.87 0 0 0 -2.64,-0.71 4,4 0 0 0 -2.39,0.73 4.64,4.64 0 0 0 -1.6,2.09 8.67,8.67 0 0 0 -0.61,3.22 v 2 a 7.41,7.41 0 0 0 0.6,3.07 4.85,4.85 0 0 0 1.67,2.06 4.42,4.42 0 0 0 2.5,0.72 4.48,4.48 0 0 0 2.52,-0.77 z"
         id="path335"
         style="fill:#fffffd" />
      <path
         class="cls-13"
         d="m 1390.238,1346.7124 h -2.08 v -2.28 h 4.93 v 18 h -2.84 z"
         id="path337"
         style="fill:#fffffd" />
      <path
         class="cls-13"
         d="m 1404.668,1360.2024 a 5.67,5.67 0 0 0 2.64,-0.67 4.45,4.45 0 0 0 1.76,-1.76 5.5,5.5 0 0 0 0.63,-2.7 v -8.36 h -11.12 v -2.28 h 14 v 10.62 a 7.62,7.62 0 0 1 -1,3.9 6.63,6.63 0 0 1 -2.75,2.57 9.37,9.37 0 0 1 -4.15,1 z m -5.73,-4.52 a 7.45,7.45 0 0 1 0.79,-3.77 h 2.32 a 9,9 0 0 0 -0.28,1.52 c 0,0.56 -0.08,1.26 -0.08,2.08 v 13.28 h -2.75 z"
         id="path339"
         style="fill:#fffffd" />
    </g>
  </g>
</svg>
