<?xml version="1.0" encoding="UTF-8" standalone="no"?>
<svg
   xmlns:dc="http://purl.org/dc/elements/1.1/"
   xmlns:cc="http://creativecommons.org/ns#"
   xmlns:rdf="http://www.w3.org/1999/02/22-rdf-syntax-ns#"
   xmlns:svg="http://www.w3.org/2000/svg"
   xmlns="http://www.w3.org/2000/svg"
   xmlns:xlink="http://www.w3.org/1999/xlink"
   version="1.1"
   id="svg4434"
   viewBox="0 0 78.800004 39.100007"
   height="39.100006"
   width="78.800003">
  <defs
     id="defs4436">
    <clipPath
       id="SVGID_42_">
      <use
         id="use765"
         overflow="visible"
         xlink:href="#SVGID_41_"
         style="overflow:visible"
         x="0"
         y="0"
         width="100%"
         height="100%" />
    </clipPath>
    <clipPath
       id="SVGID_56_">
      <use
         id="use859"
         overflow="visible"
         xlink:href="#SVGID_55_"
         style="overflow:visible"
         x="0"
         y="0"
         width="100%"
         height="100%" />
    </clipPath>
  </defs>
  <metadata
     id="metadata4439">
    <rdf:RDF>
      <cc:Work
         rdf:about="">
        <dc:format>image/svg+xml</dc:format>
        <dc:type
           rdf:resource="http://purl.org/dc/dcmitype/StillImage" />
        <dc:title></dc:title>
      </cc:Work>
    </rdf:RDF>
  </metadata>
  <g
     transform="translate(-372.02856,-472.81219)"
     id="layer1">
    <rect
       id="rect755"
       height="13"
       width="78.800003"
       y="472.81219"
       x="372.02856"
       style="fill:#141132" />
    <path
       id="path757"
       d="m 379.02858,477.31221 0,2.1 c 0,0.2 0,0.4 0,0.5 0,0.1 0,0.3 0,0.4 0,0.1 0,0.2 0,0.3 0,0.1 0,0.2 -0.1,0.3 l -1.5,-0.2 c 0,-0.1 0,-0.2 0.1,-0.3 0,-0.1 0,-0.2 0,-0.3 0,-0.1 0,-0.2 0,-0.4 0,-0.1 0,-0.3 0,-0.5 l 0,-0.8 -1.3,0 0,-1.2 2.8,0 z m 4.1,0 0,2.1 c 0,0.2 0,0.4 0,0.5 0,0.1 0,0.3 0,0.4 0,0.1 0,0.2 0,0.3 0,0.1 0,0.2 -0.1,0.3 l -1.5,-0.2 c 0,-0.1 0,-0.2 0.1,-0.3 0,-0.1 0,-0.2 0,-0.3 0,-0.1 0,-0.2 0,-0.4 0,-0.1 0,-0.3 0,-0.5 l 0,-0.8 -1.3,0 0,-1.2 2.8,0 z m 2.8,-1.6 0,1.6 3.2,0 c 0,0.1 0,0.2 0.1,0.2 0,0.1 0,0.1 0,0.2 0,0.1 0,0.2 0,0.3 0,0.1 0,0.2 0,0.3 l 0,1.2 c 0,0.4 -0.1,0.9 -0.3,1.3 -0.2,0.4 -0.4,0.8 -0.8,1.2 l -1.4,1.6 -1.1,-0.9 0.6,-0.7 c 0.3,-0.3 0.5,-0.6 0.7,-0.8 0.2,-0.2 0.3,-0.4 0.4,-0.5 0.1,-0.2 0.2,-0.3 0.2,-0.5 0,-0.1 0.1,-0.3 0.1,-0.5 l 0,-1 -3.3,0 0,-2.9 1.6,0 z m 6,1.3 c 0.3,0.1 0.7,0.2 0.9,0.2 0.3,0.1 0.5,0.1 0.7,0.2 0.2,0.1 0.4,0.1 0.6,0.2 0.2,0.1 0.4,0.1 0.6,0.2 0.2,0.1 0.4,0.2 0.5,0.3 0.1,0.1 0.2,0.2 0.3,0.4 0.1,0.1 0.1,0.3 0.2,0.5 0,0.2 0,0.4 0,0.5 l 0,2.3 c 0,0.1 0,0.2 0,0.3 0,0.1 0,0.2 0,0.3 0,0.1 0,0.2 -0.1,0.4 0,0.1 -0.1,0.3 -0.1,0.6 l -5.1,0 0,-1.2 3.8,0 0,-2.3 c 0,-0.1 0,-0.2 0,-0.3 0,-0.1 0,-0.2 -0.1,-0.2 0,-0.1 -0.1,-0.1 -0.1,-0.2 -0.1,0 -0.2,-0.1 -0.3,-0.1 -0.1,-0.1 -0.3,-0.1 -0.5,-0.2 -0.2,-0.1 -0.4,-0.1 -0.6,-0.2 l -0.5,1.1 0.7,0.4 -0.7,1.1 -1.8,-1.1 1.6,-3.2 z m 8.8,0.3 c 0.2,0 0.5,0 0.7,0.1 0.2,0.1 0.4,0.2 0.6,0.3 0.2,0.1 0.3,0.3 0.4,0.6 0.1,0.3 0.2,0.6 0.2,1 0,0.1 0,0.2 0,0.2 0,0.1 0,0.2 0,0.3 0,0.1 0,0.2 0,0.4 0,0.1 0,0.3 0,0.5 0,0.4 -0.1,0.7 -0.2,1 -0.1,0.3 -0.3,0.6 -0.6,0.8 -0.2,0.2 -0.5,0.4 -0.8,0.5 -0.3,0.1 -0.7,0.2 -1,0.2 -0.4,0 -0.7,-0.1 -1,-0.2 -0.3,-0.1 -0.6,-0.3 -0.8,-0.5 -0.2,-0.2 -0.4,-0.5 -0.6,-0.8 -0.1,-0.3 -0.2,-0.7 -0.2,-1 0,0 0,-0.1 0,-0.1 0,0 0,-0.1 0,-0.1 0,-0.2 0,-0.4 0,-0.5 0,-0.2 0.1,-0.4 0.1,-0.6 0,-0.1 0.1,-0.3 0.2,-0.4 0.1,-0.1 0.1,-0.3 0.2,-0.4 -0.2,0 -0.3,0 -0.5,-0.1 -0.2,0 -0.3,-0.1 -0.6,-0.2 0.1,-0.2 0.1,-0.4 0.2,-0.6 0.1,-0.2 0.1,-0.4 0.2,-0.6 0.2,0 0.3,0.1 0.5,0.1 0.1,0 0.2,0.1 0.4,0.1 0.1,0 0.2,0 0.4,0 0.1,0 0.3,0 0.4,0 l 0.2,0 1.6,0 z m -1.5,1.2 c -0.1,0.1 -0.1,0.2 -0.2,0.3 0,0.1 -0.1,0.2 -0.1,0.3 -0.1,0.2 -0.1,0.4 -0.1,0.6 0,0.2 0,0.4 0,0.6 0,0.1 0,0.2 0,0.3 0,0.1 0,0.2 0,0.3 0,0.2 0.1,0.3 0.1,0.5 0.1,0.1 0.1,0.3 0.2,0.4 0.1,0.1 0.2,0.2 0.3,0.2 0.1,0.1 0.3,0.1 0.4,0.1 0.1,0 0.3,0 0.4,-0.1 0.1,-0.1 0.3,-0.1 0.4,-0.2 0.1,-0.1 0.2,-0.2 0.2,-0.4 0.1,-0.1 0.1,-0.3 0.1,-0.5 0,-0.1 0,-0.2 0,-0.3 0,-0.1 0,-0.2 0,-0.3 0,-0.1 0,-0.2 0,-0.4 0,-0.1 0,-0.2 0,-0.3 0,-0.2 0,-0.4 -0.1,-0.6 -0.1,-0.2 -0.1,-0.3 -0.1,-0.3 -0.1,-0.1 -0.2,-0.1 -0.3,-0.2 -0.1,0 -0.3,0 -0.5,0 l -0.7,0 z m 7.3,-1.2 0,5.9 -1.5,0 0,-4.6 -1,0 0,-1.2 2.5,0 z m 3.3,1.2 c -0.2,0 -0.4,0 -0.5,0 -0.1,0 -0.3,0 -0.4,0 -0.1,0 -0.3,0 -0.4,-0.1 -0.1,0 -0.3,-0.1 -0.5,-0.1 0.1,-0.2 0.1,-0.4 0.2,-0.6 0.1,-0.2 0.1,-0.4 0.2,-0.6 0.2,0 0.3,0.1 0.5,0.1 0.1,0 0.2,0.1 0.4,0.1 0.1,0 0.2,0 0.4,0 0.1,0 0.3,0 0.4,0 l 0.2,0 3.3,0 c 0,0.1 0,0.1 0.1,0.2 0,0.1 0,0.1 0,0.2 0,0.1 0,0.2 0,0.3 0,0.1 0,0.2 0,0.3 l 0,1.2 c 0,0.2 0,0.4 0,0.6 0,0.2 -0.1,0.3 -0.1,0.5 -0.1,0.2 -0.1,0.3 -0.2,0.5 -0.1,0.2 -0.2,0.3 -0.3,0.5 -0.1,0.1 -0.2,0.3 -0.3,0.5 -0.1,0.2 -0.3,0.4 -0.5,0.6 -0.2,0.2 -0.3,0.4 -0.5,0.6 -0.2,0.2 -0.3,0.3 -0.4,0.5 l -1.1,-0.9 0.8,-0.9 c 0.2,-0.2 0.4,-0.4 0.5,-0.6 0.1,-0.2 0.2,-0.3 0.3,-0.4 0.1,-0.1 0.1,-0.2 0.2,-0.3 0,-0.1 0.1,-0.2 0.1,-0.3 0,-0.1 0,-0.2 0.1,-0.3 0,-0.1 0,-0.2 0,-0.3 l 0,-1 -2.5,0 z m -1.7,2.9 c 0,-0.2 0,-0.3 0,-0.4 0,-0.1 0,-0.3 0,-0.4 0,-0.1 0,-0.2 0,-0.4 0,-0.1 0,-0.2 0.1,-0.4 0.3,0 0.5,0.1 0.8,0.1 0.3,0 0.5,0.1 0.8,0.2 0,0.2 -0.1,0.4 -0.1,0.6 0,0.2 0,0.5 0,0.7 l 0,3.4 -1.5,0 0,-3.4 z m 12.4,-2.2 c 0.1,-0.3 0.2,-0.7 0.3,-1 0.1,-0.4 0.2,-0.7 0.4,-1 0.2,0 0.4,0 0.7,0.1 0.3,0 0.5,0.1 0.8,0.1 0.3,0 0.5,0.1 0.8,0.1 0.3,0 0.5,0.1 0.7,0.2 0.1,0.2 0.1,0.4 0.1,0.7 0,0.2 0,0.5 0,0.7 0,0.6 -0.1,1.1 -0.2,1.6 -0.1,0.5 -0.4,0.9 -0.7,1.3 -0.2,0.3 -0.4,0.5 -0.7,0.7 -0.3,0.2 -0.5,0.3 -0.8,0.4 -0.3,0.1 -0.6,0.2 -0.9,0.2 -0.3,0 -0.6,0.1 -0.9,0.1 -0.2,0 -0.5,0 -0.7,0 -0.2,0 -0.5,-0.1 -0.7,-0.1 l -0.3,-3.4 c 0,-0.2 0,-0.4 0,-0.5 0,-0.1 0,-0.3 0,-0.4 0,-0.1 0,-0.2 0,-0.3 0,-0.1 0,-0.2 -0.1,-0.3 0,-0.1 -0.1,-0.2 -0.1,-0.3 0,-0.1 -0.1,-0.2 -0.1,-0.4 0.2,-0.1 0.4,-0.2 0.7,-0.3 0.2,-0.1 0.5,-0.2 0.7,-0.3 0.1,0.2 0.2,0.4 0.2,0.6 0.1,0.2 0.1,0.4 0.1,0.5 0,0.2 0.1,0.4 0.1,0.6 0,0.2 0,0.4 0.1,0.7 l 0.2,2.6 c 0,0 0.1,0 0.1,0 0,0 0,0 0.1,0 0.3,0 0.5,0 0.8,-0.1 0.2,-0.1 0.5,-0.1 0.7,-0.3 0.2,-0.1 0.4,-0.3 0.5,-0.5 0.2,-0.2 0.3,-0.4 0.4,-0.7 0.1,-0.2 0.2,-0.5 0.2,-0.7 0,-0.3 0.1,-0.5 0.1,-0.8 0,-0.1 0,-0.2 0,-0.3 0,-0.1 0,-0.2 0,-0.3 -0.1,0 -0.3,-0.1 -0.4,-0.1 -0.1,0 -0.3,0 -0.4,-0.1 -0.1,0.2 -0.1,0.4 -0.2,0.6 -0.1,0.2 -0.1,0.4 -0.2,0.5 l -1.4,-0.1 z m 7.6,-1.9 0,5.9 -1.5,0 0,-4.6 -1,0 0,-1.2 2.5,0 z m 2.8,-0.3 c 0.3,0.1 0.7,0.2 0.9,0.2 0.3,0.1 0.5,0.1 0.7,0.2 0.2,0.1 0.4,0.1 0.6,0.2 0.2,0.1 0.4,0.1 0.6,0.2 0.2,0.1 0.4,0.2 0.5,0.3 0.1,0.1 0.2,0.2 0.3,0.4 0.1,0.1 0.1,0.3 0.2,0.5 0,0.2 0,0.4 0,0.5 l 0,2.3 c 0,0.1 0,0.2 0,0.3 0,0.1 0,0.2 0,0.3 0,0.1 0,0.2 -0.1,0.4 0,0.1 -0.1,0.3 -0.1,0.6 l -5.1,0 0,-1.2 3.8,0 0,-2.3 c 0,-0.1 0,-0.2 0,-0.3 0,-0.1 0,-0.2 -0.1,-0.2 0,-0.1 -0.1,-0.1 -0.1,-0.2 -0.1,0 -0.2,-0.1 -0.3,-0.1 -0.1,-0.1 -0.3,-0.1 -0.5,-0.2 -0.2,-0.1 -0.4,-0.1 -0.6,-0.2 l -0.5,1.1 0.7,0.4 -0.7,1.1 -1.8,-1.1 1.6,-3.2 z m 7.8,0.3 0,2.1 c 0,0.2 0,0.4 0,0.5 0,0.1 0,0.3 0,0.4 0,0.1 0,0.2 0,0.3 0,0.1 0,0.2 -0.1,0.3 l -1.5,-0.2 c 0,-0.1 0,-0.2 0.1,-0.3 0,-0.1 0,-0.2 0,-0.3 0,-0.1 0,-0.2 0,-0.4 0,-0.1 0,-0.3 0,-0.5 l 0,-0.8 -1.3,0 0,-1.2 2.8,0 z m 3.2,4.7 c 0.1,0 0.2,0 0.2,0 0.1,0 0.2,0 0.3,0 0.2,0 0.5,0 0.7,-0.1 0.2,0 0.5,-0.1 0.7,-0.2 0.2,-0.1 0.4,-0.2 0.6,-0.4 0.2,-0.2 0.4,-0.4 0.5,-0.7 0.2,-0.4 0.4,-0.8 0.4,-1.2 0.1,-0.4 0.1,-0.8 0.1,-1.2 0,-0.2 0,-0.3 0,-0.5 0,-0.2 0,-0.3 0,-0.5 0.2,0 0.3,-0.1 0.4,-0.1 0.1,0 0.2,-0.1 0.3,-0.1 0.1,0 0.2,0 0.3,-0.1 0.1,0 0.3,0 0.5,-0.1 0,0.2 0.1,0.3 0.1,0.5 0,0.2 0,0.4 0,0.6 0,0.2 0,0.4 0,0.5 0,0.2 0,0.3 0,0.5 -0.2,1.4 -0.7,2.4 -1.5,3.1 -0.8,0.7 -1.9,1 -3.4,1 -0.2,0 -0.5,0 -0.8,0 -0.3,0 -0.5,0 -0.8,-0.1 l -0.3,-3.4 c 0,-0.2 0,-0.4 0,-0.5 0,-0.1 0,-0.3 0,-0.4 0,-0.1 0,-0.2 0,-0.3 0,-0.1 0,-0.2 -0.1,-0.3 0,-0.1 -0.1,-0.2 -0.1,-0.3 0,-0.1 -0.1,-0.2 -0.1,-0.4 0.2,-0.1 0.4,-0.2 0.7,-0.3 0.2,-0.1 0.5,-0.2 0.7,-0.3 0.1,0.2 0.2,0.4 0.2,0.6 0.1,0.2 0.1,0.4 0.1,0.5 0,0.2 0.1,0.4 0.1,0.6 0,0.2 0,0.4 0.1,0.7 l 0.1,2.9 z m 0.6,-2.8 c 0.1,-0.2 0.1,-0.3 0.1,-0.4 0,-0.1 0.1,-0.2 0.1,-0.3 0,-0.1 0,-0.2 0.1,-0.2 0,-0.1 0,-0.2 0,-0.2 0,0 0,-0.1 0,-0.1 0,0 0,-0.1 0,-0.1 0,-0.1 0,-0.1 0,-0.2 0,-0.1 0,-0.1 0,-0.2 0.2,-0.1 0.5,-0.1 0.7,-0.2 0.2,-0.1 0.5,-0.1 0.7,-0.2 0,0.2 0.1,0.3 0.1,0.5 0,0.1 0,0.3 0,0.4 0,0.1 0,0.2 0,0.3 0,0.1 0,0.2 -0.1,0.4 -0.1,0.2 -0.1,0.3 -0.1,0.4 -0.1,0.1 -0.1,0.3 -0.2,0.5 l -0.4,1 c -0.2,0 -0.3,-0.1 -0.4,-0.1 -0.1,0 -0.2,-0.1 -0.3,-0.1 -0.1,0 -0.2,-0.1 -0.3,-0.1 -0.1,0 -0.2,-0.1 -0.4,-0.2 l 0.4,-0.9 z"
       style="fill:#d91378" />
    <g
       id="g4482">
      <g
         transform="translate(-98.67142,337.0122)"
         id="g759">
        <defs
           id="defs761">
          <rect
             id="SVGID_41_"
             x="24.700001"
             y="79.099998"
             width="554"
             height="1157.5" />
        </defs>
        <clipPath
           id="clipPath5380">
          <use
             height="100%"
             width="100%"
             y="0"
             x="0"
             style="overflow:visible"
             xlink:href="#SVGID_41_"
             overflow="visible"
             id="use5382" />
        </clipPath>
        <path
           style="fill:#141132"
           clip-path="url(#SVGID_42_)"
           d="m 517.9,158.8 c 0,4.3 -7.8,16.1 -7.8,16.1 0,0 -7.8,-11.8 -7.8,-16.1 0,-4.3 3.5,-7.8 7.8,-7.8 4.3,0 7.8,3.5 7.8,7.8"
           id="path767" />
      </g>
      <g
         transform="translate(-98.67142,337.0122)"
         id="g853">
        <defs
           id="defs855">
          <rect
             id="SVGID_55_"
             x="24.700001"
             y="79.099998"
             width="554"
             height="1157.5" />
        </defs>
        <clipPath
           id="clipPath5430">
          <use
             height="100%"
             width="100%"
             y="0"
             x="0"
             style="overflow:visible"
             xlink:href="#SVGID_55_"
             overflow="visible"
             id="use5432" />
        </clipPath>
        <path
           style="fill:#ffffff"
           clip-path="url(#SVGID_56_)"
           d="m 512.9,156.5 c -0.4,-0.2 -0.7,-0.4 -1,-0.6 0.2,-0.3 0.6,-0.8 0.5,-1.2 0,-0.1 -0.1,-0.3 -0.2,-0.4 -0.1,-0.1 -0.2,-0.1 -0.3,-0.1 -0.2,0 -0.5,0.2 -0.7,0.3 0,-0.1 0,-0.1 0,-0.2 0.1,-0.5 0.3,-0.9 0.7,-0.9 0,0 0,0 0,0 0.4,0 0.9,0.3 1,0.9 0.3,0.6 0.2,1.3 0,2.2 m -1.3,-1 c -0.1,-0.2 -0.2,-0.4 -0.3,-0.6 0.1,-0.3 0.3,-0.5 0.5,-0.5 0.1,0 0.1,0 0.1,0 0.1,0 0.1,0.1 0.1,0.2 0.1,0.4 -0.2,0.7 -0.4,0.9 m -0.5,0.5 -0.3,0.2 0.1,-0.4 c 0,-0.1 0.1,-0.3 0.2,-0.5 0.1,0.1 0.2,0.3 0.3,0.4 -0.2,0.2 -0.3,0.2 -0.3,0.3 m 3.9,3.2 c 0,-0.1 -0.7,-2 -1.6,-2.5 -0.1,0 -0.1,-0.1 -0.2,-0.1 0.3,-0.9 0.4,-1.7 0.2,-2.4 -0.2,-0.7 -0.8,-1.2 -1.4,-1.1 -0.5,0 -0.9,0.5 -1,1.1 0,0.2 0,0.4 0,0.6 -0.1,0.2 -0.2,0.3 -0.2,0.4 l -4.7,7.4 c 0,0.1 -0.1,0.1 0,0.2 l 0,0.1 0.1,0 c 0.1,0 0.1,-0.1 0.2,-0.1 l 5.4,-6.7 c 0.3,0.3 0.8,0.5 1.1,0.7 -0.2,0.5 -0.4,1.1 -0.6,1.7 -0.7,1.7 -0.4,3.1 0.1,3.4 0,0 0.1,0 0.1,0 0,0 0.1,0 0.1,-0.1 0,-0.1 0,-0.2 0,-0.2 -0.4,-0.2 -0.7,-1.5 0,-3 0.3,-0.6 0.5,-1.2 0.6,-1.7 0,0 0.1,0 0.1,0.1 0.8,0.4 1.5,2.3 1.5,2.3 0,0.1 0.1,0.1 0.2,0.1 0,0 0,-0.1 0,-0.2"
           id="path861" />
      </g>
    </g>
  </g>
</svg>
