<?xml version="1.0" encoding="UTF-8" standalone="no"?>
<svg
   xmlns:dc="http://purl.org/dc/elements/1.1/"
   xmlns:cc="http://creativecommons.org/ns#"
   xmlns:rdf="http://www.w3.org/1999/02/22-rdf-syntax-ns#"
   xmlns:svg="http://www.w3.org/2000/svg"
   xmlns="http://www.w3.org/2000/svg"
   width="258"
   height="136.60002"
   viewBox="0 0 257.99999 136.60003"
   id="svg3998"
   version="1.1">
  <defs
     id="defs4000" />
  <metadata
     id="metadata4003">
    <rdf:RDF>
      <cc:Work
         rdf:about="">
        <dc:format>image/svg+xml</dc:format>
        <dc:type
           rdf:resource="http://purl.org/dc/dcmitype/StillImage" />
        <dc:title></dc:title>
      </cc:Work>
    </rdf:RDF>
  </metadata>
  <rect
     id="rect755_3_"
     x="0"
     y="0"
     class="st6"
     width="250.10001"
     height="41.299999"
     style="fill:#c52036" />
  <path
     id="path767_3_"
     class="st6"
     d="m 156.50001,79.800022 c 0,15.1 -27.5,56.799998 -27.5,56.799998 0,0 -27.5,-41.599998 -27.5,-56.799998 0,-15.2 12.4,-27.5 27.5,-27.5 15.1,-0.1 27.5,12.2 27.5,27.5"
     style="fill:#c52036" />
  <path
     id="path861_2_"
     class="st41"
     d="m 137.40001,75.800022 c -1.4,-0.7 -2.4,-1.4 -3.6,-2.1 0.7,-1 2.1,-2.9 1.7,-4.3 0,-0.3 -0.3,-1 -0.7,-1.4 -0.3,-0.3 -0.7,-0.3 -1,-0.3 -0.7,0 -1.7,0.7 -2.4,1 0,-0.3 0,-0.3 0,-0.7 0.3,-1.7 1,-3.1 2.4,-3.1 l 0,0 c 1.4,0 3.1,1 3.6,3.1 1.1,2.1 0.7,4.7 0,7.8 m -4.6,-3.5 c -0.3,-0.7 -0.7,-1.4 -1,-2.1 0.3,-1 1,-1.7 1.7,-1.7 0.3,0 0.3,0 0.3,0 0.3,0 0.3,0.3 0.3,0.7 0.4,1.4 -0.6,2.4 -1.3,3.1 m -1.7,1.8 -1,0.7 0.3,-1.4 c 0,-0.3 0.3,-1 0.7,-1.7 0.3,0.3 0.7,1 1,1.4 -0.7,0.6 -1,0.6 -1,1 m 13.7,11.3 c 0,-0.3 -2.4,-7 -5.7,-8.8 -0.3,0 -0.3,-0.3 -0.7,-0.3 1,-3.1 1.4,-6 0.7,-8.4 -0.7,-2.4 -2.9,-4.3 -5,-3.9 -1.7,0 -3.1,1.7 -3.6,3.9 0,0.7 0,1.4 0,2.1 -0.3,0.7 -0.7,1 -0.7,1.4 l -16.5,26.1 c 0,0.3 -0.3,0.3 0,0.7 l 0,0.3 0.3,0 c 0.3,0 0.3,-0.3 0.7,-0.3 l 19.1,-23.7 c 1,1 2.9,1.7 3.9,2.4 -0.7,1.7 -1.4,3.9 -2.1,6 -2.4,6 -1.4,11 0.3,12 l 0.3,0 c 0,0 0.3,0 0.3,-0.3 0,-0.3 0,-0.7 0,-0.7 -1.4,-0.7 -2.4,-5.3 0,-10.6 1,-2.1 1.7,-4.3 2.1,-6 0,0 0.3,0 0.3,0.3 2.9,1.4 5.3,8.1 5.3,8.1 0,0.3 0.3,0.3 0.7,0.3 0.4,0 0.3,-0.3 0.3,-0.6"
     style="fill:#f6f6f6" />
  <g
     transform="translate(-2611.8,-245.29998)"
     id="g830">
    <path
       class="st21"
       d="m 2639.4,260.6 -3.3,0 0,-2.3 6.1,0 0,10 -2.8,0 0,-7.7 z"
       id="path832"
       style="fill:#ffffff" />
    <path
       class="st21"
       d="m 2648.9,260.6 -3.3,0 0,-2.3 6.1,0 0,10 -2.8,0 0,-7.7 z"
       id="path834"
       style="fill:#ffffff" />
    <path
       class="st21"
       d="m 2669.1,260.1 -6.6,16.2 -3,0 6.5,-15.7 -10.6,0 0,-7.7 2.8,0 0,5.5 10.9,0 0,1.7 z"
       id="path836"
       style="fill:#ffffff" />
    <path
       class="st21"
       d="m 2676.3,276.4 c -1,-0.2 -2.1,-0.4 -3,-0.8 l 0.6,-2.1 c 0.9,0.3 1.8,0.5 2.7,0.6 0.9,0.1 1.8,0.2 2.5,0.2 1.7,0 3,-0.4 3.9,-1.3 0.9,-0.8 1.4,-2 1.4,-3.5 l 0,-8.9 -7.2,0 c -0.3,0.6 -0.6,1.3 -0.8,2.1 -0.2,0.9 -0.3,1.7 -0.3,2.6 l 0,1.4 c 0.2,0.1 0.5,0.2 0.9,0.2 0.4,0 0.9,0.1 1.5,0.1 l 0,2.4 c -1.3,0 -2.3,-0.1 -3,-0.2 -0.7,-0.1 -1.4,-0.4 -2.2,-0.8 l -0.1,-2.3 c 0,-1 0.1,-2 0.4,-3 0.3,-1 0.6,-1.8 1.1,-2.4 l -2.2,0 0,-2.3 14.7,0 0,10.6 c 0,1.7 -0.3,3.1 -1,4.3 -0.7,1.1 -1.6,2 -2.8,2.6 -1.2,0.6 -2.5,0.8 -4.1,0.8 -1,0 -1.9,-0.1 -3,-0.3 z"
       id="path838"
       style="fill:#ffffff" />
    <path
       class="st21"
       d="m 2696.1,275.7 c -1.1,-0.7 -2,-1.7 -2.7,-2.9 -0.7,-1.2 -1,-2.7 -1,-4.3 l 0,-1.8 c 0,-0.8 0.1,-1.6 0.3,-2.3 0.2,-0.8 0.5,-1.5 0.9,-2.1 0.4,-0.6 0.8,-1.1 1.3,-1.4 0.1,-0.1 0.2,-0.1 0.2,-0.1 l 0,0 c -0.5,0.1 -1.6,0.3 -3.2,0.7 l -0.5,-2.1 c 1.2,-0.4 2.5,-0.6 4,-0.9 1.5,-0.2 2.9,-0.3 4.1,-0.3 1.7,0 3.1,0.3 4.3,1 1.2,0.7 2.1,1.6 2.8,2.8 0.6,1.2 1,2.7 1,4.4 l 0,2.2 c 0,1.6 -0.3,3.1 -0.9,4.3 -0.6,1.2 -1.5,2.2 -2.7,2.9 -1.2,0.7 -2.5,1 -4,1 -1.4,-0.1 -2.7,-0.4 -3.9,-1.1 z m 6.5,-2.1 c 0.7,-0.5 1.3,-1.2 1.7,-2.1 0.4,-0.9 0.6,-1.9 0.6,-3.1 l 0,-2.1 c 0,-1.2 -0.2,-2.2 -0.6,-3.1 -0.4,-0.9 -1,-1.6 -1.7,-2 -0.7,-0.5 -1.6,-0.7 -2.6,-0.7 -0.9,0 -1.7,0.2 -2.4,0.7 -0.7,0.5 -1.2,1.2 -1.6,2.1 -0.4,0.9 -0.6,2 -0.6,3.2 l 0,2 c 0,1.2 0.2,2.2 0.6,3.1 0.4,0.9 1,1.6 1.7,2.1 0.7,0.5 1.6,0.7 2.5,0.7 0.9,0 1.7,-0.3 2.4,-0.8 z"
       id="path840"
       style="fill:#ffffff" />
    <path
       class="st21"
       d="m 2713.4,260.6 -2.1,0 0,-2.3 4.9,0 0,18 -2.8,0 0,-15.7 z"
       id="path842"
       style="fill:#ffffff" />
    <path
       class="st21"
       d="m 2727.9,274.1 c 1,0 1.9,-0.3 2.6,-0.7 0.8,-0.4 1.3,-1 1.8,-1.8 0.4,-0.8 0.6,-1.7 0.6,-2.7 l 0,-8.4 -11.1,0 0,-2.3 14,0 0,10.6 c 0,1.5 -0.3,2.8 -1,3.9 -0.6,1.1 -1.6,2 -2.8,2.6 -1.2,0.6 -2.6,0.9 -4.1,1 l 0,-2.2 z m -5.8,-4.5 c 0,-0.9 0.1,-1.6 0.2,-2.2 0.1,-0.5 0.3,-1.1 0.6,-1.6 l 2.3,0 c -0.1,0.5 -0.2,1 -0.3,1.5 -0.1,0.6 -0.1,1.3 -0.1,2.1 l 0,13.3 -2.8,0 0,-13.1 z"
       id="path844"
       style="fill:#ffffff" />
    <path
       class="st21"
       d="m 2752.4,275.8 c -1.1,-0.6 -1.9,-1.4 -2.5,-2.5 -0.6,-1.1 -0.9,-2.4 -0.9,-3.8 l 0,-11.1 2.8,0 0,11.3 c 0,0.9 0.2,1.8 0.5,2.5 0.4,0.7 0.9,1.3 1.5,1.7 0.7,0.4 1.4,0.6 2.3,0.6 0.9,0 1.6,-0.2 2.3,-0.6 0.7,-0.4 1.2,-1 1.5,-1.7 0.3,-0.7 0.5,-1.6 0.5,-2.5 l 0,-6 c 0,-1 -0.2,-1.7 -0.7,-2.3 -0.4,-0.5 -1,-0.8 -1.8,-0.8 -0.7,0 -1.4,0.2 -2.2,0.6 l -0.4,-1.9 c 0.5,-0.3 1.1,-0.6 1.7,-0.8 0.6,-0.2 1.2,-0.3 1.8,-0.3 0.9,0 1.7,0.2 2.4,0.6 0.7,0.4 1.2,1 1.6,1.8 0.4,0.8 0.5,1.7 0.5,2.8 l 0,6.1 c 0,1.4 -0.3,2.7 -0.9,3.8 -0.6,1.1 -1.4,1.9 -2.5,2.5 -1.1,0.6 -2.3,0.9 -3.8,0.9 -1.3,0 -2.6,-0.3 -3.7,-0.9 z"
       id="path846"
       style="fill:#ffffff" />
    <path
       class="st21"
       d="m 2769.2,260.6 -2.1,0 0,-2.3 4.9,0 0,18 -2.8,0 0,-15.7 z"
       id="path848"
       style="fill:#ffffff" />
    <path
       class="st21"
       d="m 2780.9,276.4 c -1,-0.2 -2.1,-0.4 -3,-0.8 l 0.6,-2.1 c 0.9,0.3 1.8,0.5 2.7,0.6 0.9,0.1 1.8,0.2 2.5,0.2 1.7,0 3,-0.4 3.9,-1.3 0.9,-0.8 1.4,-2 1.4,-3.5 l 0,-8.9 -7.2,0 c -0.3,0.6 -0.6,1.3 -0.8,2.1 -0.2,0.9 -0.3,1.7 -0.3,2.6 l 0,1.4 c 0.2,0.1 0.5,0.2 0.9,0.2 0.4,0 0.9,0.1 1.5,0.1 l 0,2.4 c -1.3,0 -2.3,-0.1 -3,-0.2 -0.7,-0.1 -1.4,-0.4 -2.2,-0.8 l -0.1,-2.3 c 0,-1 0.1,-2 0.4,-3 0.3,-1 0.6,-1.8 1.1,-2.4 l -2.2,0 0,-2.3 14.7,0 0,10.6 c 0,1.7 -0.3,3.1 -1,4.3 -0.7,1.1 -1.6,2 -2.8,2.6 -1.2,0.6 -2.5,0.8 -4.1,0.8 -1,0 -2,-0.1 -3,-0.3 z"
       id="path850"
       style="fill:#ffffff" />
    <path
       class="st21"
       d="m 2798.6,260.6 -3.3,0 0,-2.3 6.1,0 0,10 -2.8,0 0,-7.7 z"
       id="path852"
       style="fill:#ffffff" />
    <path
       class="st21"
       d="m 2809.4,273.2 c 1,0.4 2,0.7 3.1,1 1.1,0.3 2.1,0.4 3.1,0.4 1.5,0 2.8,-0.2 3.9,-0.6 1.1,-0.4 2.1,-1.1 2.7,-1.9 0.7,-0.9 1,-1.9 1,-3.2 l 0,-10.4 2.8,0 0,10.5 c 0,1.7 -0.5,3.1 -1.4,4.3 -0.9,1.2 -2.1,2 -3.7,2.6 -1.5,0.6 -3.3,0.9 -5.2,0.9 -1.5,0 -3,-0.2 -4.6,-0.5 -1.6,-0.4 -3.1,-0.9 -4.5,-1.6 l 0,-16.4 2.8,0 0,14.9 z m 5.2,-3.4 c 0.2,-0.7 0.3,-1.5 0.3,-2.4 l 0,-9 2.8,0 0,8.5 c 0,1 -0.1,1.9 -0.4,2.7 -0.3,0.8 -0.6,1.4 -1.2,2 l -2.4,-0.1 c 0.4,-0.5 0.7,-1 0.9,-1.7 z"
       id="path854"
       style="fill:#ffffff" />
  </g>
</svg>
