<?xml version="1.0" encoding="UTF-8" standalone="no"?>
<svg
   xmlns:dc="http://purl.org/dc/elements/1.1/"
   xmlns:cc="http://creativecommons.org/ns#"
   xmlns:rdf="http://www.w3.org/1999/02/22-rdf-syntax-ns#"
   xmlns:svg="http://www.w3.org/2000/svg"
   xmlns="http://www.w3.org/2000/svg"
   id="svg5092"
   version="1.1"
   viewBox="0 0 38.981062 30.297439"
   height="114.50999"
   width="147.33">
  <defs
     id="defs5086" />
  <metadata
     id="metadata5089">
    <rdf:RDF>
      <cc:Work
         rdf:about="">
        <dc:format>image/svg+xml</dc:format>
        <dc:type
           rdf:resource="http://purl.org/dc/dcmitype/StillImage" />
        <dc:title></dc:title>
      </cc:Work>
    </rdf:RDF>
  </metadata>
  <g
     transform="translate(-109.0174,-120.07747)"
     id="layer1">
    <g
       id="g4909"
       transform="matrix(0.26458333,0,0,0.26458333,-837.92899,-54.994672)">
      <path
         id="path355-8"
         data-name="path355"
         class="cls-4"
         d="m 3674.3,731.57 c 0,11.83 -21.68,44.63 -21.68,44.63 0,0 -21.62,-32.8 -21.62,-44.63 a 21.68,21.68 0 1 1 43.35,0"
         style="fill:#2ca5e8;fill-opacity:1" />
      <path
         id="path357-5"
         data-name="path357"
         class="cls-9"
         d="m 3639.79,747.54 c 0,1 0.29,1.42 1.43,1.42 1.14,0 1.42,-0.28 1.42,-1.42 V 735 h 1.43 v 12.55 c 0,1 0.28,1.42 1.42,1.42 1.14,0 1.43,-0.28 1.43,-1.42 v -21.26 h 0.71 V 734 a 1.36,1.36 0 0 0 0.29,1 0.7,0.7 0 0 0 1,0 c 0.28,-0.29 0.71,-0.72 0.71,-1 v -8.41 a 2.25,2.25 0 0 0 -1,-2.14 5.94,5.94 0 0 0 -2.42,-0.72 h -5.56 a 4.44,4.44 0 0 0 -2.43,0.72 c -0.71,0.28 -1,1 -1,2.14 v 8.69 a 0.77,0.77 0 0 0 0.72,0.72 0.7,0.7 0 0 0 1,0 c 0.28,-0.29 0.28,-0.29 0.28,-0.72 v -8 h 0.71 v 21.25 z"
         style="isolation:isolate;fill:#fbf2de" />
      <path
         id="path359-5"
         data-name="path359"
         class="cls-9"
         d="M 3666.88,737.41 3663,726.29 v 0 c 0,-0.29 0,-0.29 0.29,-0.29 a 0.28,0.28 0 0 1 0.28,0.29 l 2.86,7 a 2,2 0 0 0 1.42,0.71 c 0.29,0 0.29,-0.29 0.72,-0.71 v -0.72 l -2.86,-7 a 3,3 0 0 0 -1,-2.14 2.92,2.92 0 0 0 -2.43,-0.72 h -3.42 a 3.12,3.12 0 0 0 -2.42,1 9.4,9.4 0 0 0 -1.43,2.14 l -2.43,7 v 0.71 a 0.76,0.76 0 0 0 0.72,0.71 c 0.71,0 1.42,-0.28 1.42,-0.71 l 2.86,-7.27 a 0.28,0.28 0 0 1 0.28,-0.29 c 0.29,0 0.29,0 0.29,0.29 v 0 l -3.85,11.12 v 0.71 a 0.28,0.28 0 0 0 0.28,0.29 l 0.29,0.29 h 2.42 v 8.69 a 1.3,1.3 0 1 0 2.57,0 v -8.69 h 1.28 v 8.69 a 1.3,1.3 0 1 0 2.57,0 V 739 h 2.42 a 0.28,0.28 0 0 0 0.29,-0.28 l 0.28,-0.29 v -1 z"
         style="isolation:isolate;fill:#fbf2de" />
      <path
         id="path361-5"
         data-name="path361"
         class="cls-9"
         d="m 3640.5,719 a 4.27,4.27 0 0 0 0.72,2.14 c 0.71,0.71 1,0.71 2.14,0.71 a 4.28,4.28 0 0 0 2.13,-0.71 2.61,2.61 0 0 0 0.72,-2.14 4.21,4.21 0 0 0 -0.72,-2.14 c -0.71,-0.72 -1,-0.72 -2.13,-0.72 a 4.21,4.21 0 0 0 -2.14,0.72 2.6,2.6 0 0 0 -0.72,2.14"
         style="isolation:isolate;fill:#fbf2de" />
      <path
         id="path363-5"
         data-name="path363"
         class="cls-9"
         d="m 3657.19,719 a 4.25,4.25 0 0 0 0.71,2.14 c 0.71,0.71 1,0.71 2.14,0.71 a 3.54,3.54 0 0 0 2.14,-0.71 c 0.71,-0.72 0.71,-1 0.71,-2.14 a 4.19,4.19 0 0 0 -0.71,-2.14 c -0.71,-0.72 -1,-0.72 -2.14,-0.72 a 3.49,3.49 0 0 0 -2.14,0.72 4.19,4.19 0 0 0 -0.71,2.14"
         style="isolation:isolate;fill:#fbf2de" />
      <rect
         id="rect475-8"
         data-name="rect475"
         class="cls-4"
         x="3579.04"
         y="661.69"
         width="147.3"
         height="45.349998"
         style="fill:#ec2426" />
      <path
         class="cls-13"
         d="M 3597.31,674.15 H 3613 v 18.35 h -15.73 z m 10.76,14.49 V 678 h -5.79 v 10.64 z"
         id="path950"
         style="fill:#fffffd" />
      <path
         class="cls-13"
         d="m 3619.12,678 h -2.84 v -3.85 h 7.81 v 10.48 h -5 z"
         id="path952"
         style="fill:#fffffd" />
      <path
         class="cls-13"
         d="m 3642.8,675.91 a 6.8,6.8 0 0 1 1.86,5.19 v 11.4 h -4.95 v -11.83 c 0,-1.78 -0.76,-2.67 -2.3,-2.67 H 3635 a 18,18 0 0 0 -0.32,1.84 15.28,15.28 0 0 0 -0.12,1.83 v 5.18 a 7,7 0 0 1 -0.67,3.2 4.65,4.65 0 0 1 -1.94,2 6.18,6.18 0 0 1 -3,0.7 16.68,16.68 0 0 1 -2.37,-0.2 v -3.84 h 1 c 1.46,0 2.19,-0.77 2.19,-2.3 v -4.34 a 9.38,9.38 0 0 1 0.23,-2.07 6.31,6.31 0 0 1 0.76,-2 h -2.81 v -3.85 h 9.41 a 7.6,7.6 0 0 1 5.44,1.76 z"
         id="path954"
         style="fill:#fffffd" />
      <path
         class="cls-13"
         d="m 3649.35,678 h -1.56 v -3.85 h 6.54 v 18.35 h -5 z"
         id="path956"
         style="fill:#fffffd" />
      <path
         class="cls-13"
         d="m 3665.38,680.43 a 2.31,2.31 0 0 0 -0.67,-1.8 2.75,2.75 0 0 0 -1.94,-0.63 h -5.47 v -3.85 h 5.83 a 8.92,8.92 0 0 1 3.88,0.78 5.63,5.63 0 0 1 2.48,2.24 6.88,6.88 0 0 1 0.86,3.52 v 11.81 h -5 z"
         id="path958"
         style="fill:#fffffd" />
      <path
         class="cls-13"
         d="m 3676,678 h -2.84 v -3.85 h 7.81 v 10.48 h -5 z"
         id="path960"
         style="fill:#fffffd" />
      <path
         class="cls-13"
         d="m 3690.52,688 a 16.27,16.27 0 0 0 2.79,0.89 13,13 0 0 0 2.77,0.33 8.77,8.77 0 0 0 5.25,-1.4 5,5 0 0 0 1.94,-4.28 v -9.37 h 4.81 v 9.93 a 7.87,7.87 0 0 1 -1.56,4.95 9.44,9.44 0 0 1 -4.24,3 16.86,16.86 0 0 1 -6,1 24.65,24.65 0 0 1 -5.36,-0.62 24,24 0 0 1 -5.22,-1.8 v -16.5 h 4.8 z m 3.73,-3 a 17.16,17.16 0 0 0 0.15,-2.34 v -8.45 h 4.82 v 7.39 a 11,11 0 0 1 -0.37,2.93 5.58,5.58 0 0 1 -1,2.12 h -4 a 6.33,6.33 0 0 0 0.4,-1.71 z"
         id="path962"
         style="fill:#fffffd" />
    </g>
  </g>
</svg>
