<?xml version="1.0" encoding="UTF-8" standalone="no"?>
<svg
   xmlns:dc="http://purl.org/dc/elements/1.1/"
   xmlns:cc="http://creativecommons.org/ns#"
   xmlns:rdf="http://www.w3.org/1999/02/22-rdf-syntax-ns#"
   xmlns:svg="http://www.w3.org/2000/svg"
   xmlns="http://www.w3.org/2000/svg"
   version="1.1"
   id="svg6389"
   viewBox="0 0 173.3 180.50003"
   height="50.94112mm"
   width="48.909111mm">
  <defs
     id="defs6391" />
  <metadata
     id="metadata6394">
    <rdf:RDF>
      <cc:Work
         rdf:about="">
        <dc:format>image/svg+xml</dc:format>
        <dc:type
           rdf:resource="http://purl.org/dc/dcmitype/StillImage" />
        <dc:title></dc:title>
      </cc:Work>
    </rdf:RDF>
  </metadata>
  <g
     transform="translate(-201.92143,-602.11218)"
     id="layer1">
    <g
       transform="translate(-1.45,0)"
       id="g7268">
      <path
         id="path819_2_"
         class="st4259"
         d="m 308.72143,744.01221 c 0,10.3 -18.7,38.6 -18.7,38.6 0,0 -18.7,-28.3 -18.7,-38.6 0,-10.3 8.4,-18.7 18.7,-18.7 10.3,0 18.7,8.4 18.7,18.7"
         style="fill:#401225" />
      <path
         style="opacity:0.9;fill:#ffffff"
         d="m 294.85286,740.66145 c -1,-0.5 -1.7,-1 -2.4,-1.4 0.5,-0.7 1.4,-1.9 1.2,-2.9 0,-0.2 -0.2,-0.7 -0.5,-1 -0.2,-0.2 -0.5,-0.2 -0.7,-0.2 -0.5,0 -1.2,0.5 -1.7,0.7 0,-0.2 0,-0.2 0,-0.5 0.2,-1.2 0.7,-2.2 1.7,-2.2 l 0,0 c 1,0 2.2,0.7 2.4,2.2 0.7,1.7 0.5,3.4 0,5.3 m -3.1,-2.1 c -0.2,-0.5 -0.5,-1 -0.7,-1.4 0.2,-0.7 0.7,-1.2 1.2,-1.2 0.2,0 0.2,0 0.2,0 0.2,0 0.2,0.2 0.2,0.5 0.3,0.6 -0.5,1.3 -0.9,2.1 m -1.2,0.9 -0.7,0.5 0.2,-1 c 0,-0.2 0.2,-0.7 0.5,-1.2 0.2,0.2 0.5,0.7 0.7,1 -0.5,0.5 -0.7,0.7 -0.7,0.7 m 9.3,7.9 c 0,-0.2 -1.7,-4.8 -3.8,-6 -0.2,0 -0.2,-0.2 -0.5,-0.2 0.7,-2.2 1,-4.1 0.5,-5.8 -0.5,-1.7 -1.9,-2.9 -3.4,-2.6 -1.2,0 -2.2,1.2 -2.4,2.6 0,0.5 0,1 0,1.4 -0.2,0.5 -0.5,0.7 -0.5,1 l -11.2,17.8 c 0,0.2 -0.2,0.2 0,0.5 l 0,0.2 0.2,0 c 0.2,0 0.2,-0.2 0.5,-0.2 l 13,-16.1 c 0.7,0.7 1.9,1.2 2.6,1.7 -0.5,1.2 -1,2.6 -1.4,4.1 -1.7,4.1 -1,7.4 0.2,8.2 l 0.2,0 c 0,0 0.2,0 0.2,-0.2 0,-0.2 0,-0.5 0,-0.5 -1,-0.5 -1.7,-3.6 0,-7.2 0.7,-1.4 1.2,-2.9 1.4,-4.1 0,0 0.2,0 0.2,0.2 1.9,1 3.6,5.5 3.6,5.5 0,0.2 0.2,0.2 0.5,0.2 -0.1,-0.2 0.1,-0.5 0.1,-0.5"
         class="st4260"
         id="path837_2_" />
    </g>
    <g
       id="g7209">
      <rect
         id="rect807_2_"
         x="201.92143"
         y="602.11218"
         class="st4259"
         width="173.3"
         height="116"
         style="fill:#401225" />
      <path
         style="fill:#df5e9f"
         id="path149"
         d="m 219.72143,611.41221 -0.3,-2.7 3.3,0 0.3,2.7 0,3.6 0,1.4 -3.3,0.6 0,-5.6 z"
         class="st4268" />
      <path
         style="fill:#df5e9f"
         id="path151"
         d="m 226.22143,611.41221 -0.3,-2.7 3.3,0 0.3,2.7 0,3.6 0,1.4 -3.3,0.6 0,-5.6 z"
         class="st4268" />
      <path
         style="fill:#df5e9f"
         id="path153"
         d="m 241.92143,608.81221 0,2.7 -4.1,10.3 -3.3,0 4.1,-10.6 -6.6,0 0,-5.7 3,0 0,3.3 6.9,0 z"
         class="st4268" />
      <path
         style="fill:#df5e9f"
         id="path155"
         d="m 244.42143,619.31221 4.6,0 c 0.9,0 1.6,-0.3 2.1,-0.9 0.5,-0.6 0.7,-1.4 0.7,-2.4 l 0,-1.7 c 0,-1 -0.2,-1.7 -0.6,-2.3 -0.4,-0.6 -1.1,-0.9 -1.9,-0.9 l -1.6,0 -0.4,1.9 c 0,0.2 -0.1,0.4 -0.1,0.6 0,0.4 0.1,0.7 0.3,0.9 0.2,0.2 0.6,0.4 1.1,0.5 l -0.5,2.1 c -1.4,0 -2.3,-0.3 -2.9,-0.9 -0.6,-0.6 -0.9,-1.4 -0.9,-2.3 0,-0.4 0,-0.7 0.1,-1 l 0.9,-4.1 4.8,0 c 1.6,0 2.8,0.5 3.7,1.6 0.9,1 1.3,2.5 1.3,4.2 l 0,1.4 c 0,1.8 -0.5,3.3 -1.4,4.3 -0.9,1 -2.2,1.5 -3.9,1.5 l -5.4,0 0,-2.5 z"
         class="st4268" />
      <path
         style="fill:#df5e9f"
         id="path157"
         d="m 266.72143,620.11221 c -1.8,1.2 -4.3,1.8 -7.7,1.9 l -1.3,-10.8 -0.3,-2.5 7,0 c 1.5,0 2.6,0.4 3.5,1.3 0.8,0.8 1.3,2 1.3,3.5 l 0,0.8 c 0.1,2.6 -0.8,4.6 -2.5,5.8 z m -2.3,-1.7 c 0.6,-0.4 1,-0.9 1.3,-1.6 0.2,-0.7 0.3,-1.6 0.3,-2.7 l 0,-0.6 c 0,-0.7 -0.2,-1.3 -0.5,-1.7 -0.3,-0.4 -0.8,-0.6 -1.3,-0.6 l -3.1,0 0.8,7.9 c 1,-0.1 1.9,-0.3 2.5,-0.7 z"
         class="st4268" />
      <path
         style="fill:#df5e9f"
         id="path159"
         d="m 272.22143,611.41221 -0.3,-2.7 3.3,0 0.3,2.7 0,10.3 -3.3,0 0,-10.3 z"
         class="st4268" />
      <path
         style="fill:#df5e9f"
         id="path161"
         d="m 278.32143,615.41221 0.5,-1.6 2.8,0 0,12.5 -3.3,0 0,-10.9 z m 4.6,4 c 1,-0.1 1.8,-0.4 2.3,-1 0.5,-0.6 0.8,-1.6 0.9,-3.1 l 0.3,-4 -7.9,0 0,-2.5 11.5,0 -0.1,2.1 -0.3,3.4 c -0.2,4.9 -2.4,7.4 -6.4,7.5 l -0.3,-2.4 z"
         class="st4268" />
      <path
         style="fill:#df5e9f"
         id="path163"
         d="m 307.82143,609.81221 c 0.7,0.7 1.1,1.8 1.1,3.2 l 0,8.7 -3.3,0 -7.2,0 -0.7,0 0,-13 3.3,0 3.9,0 c 1.2,0.1 2.1,0.4 2.9,1.1 z m -2.3,9.5 0,-6.4 c 0,-1.1 -0.5,-1.7 -1.5,-1.7 l -3,0 0,8.1 4.5,0 z"
         class="st4268" />
      <path
         style="fill:#df5e9f"
         id="path165"
         d="m 321.92143,609.91221 c 0.7,0.7 1.1,1.8 1.1,3.3 l 0,8.6 -3.3,0 0,-8.8 c 0,-1.2 -0.5,-1.8 -1.5,-1.8 l -3.1,0 0,10.6 -3.3,0 0,-11.5 0,-1.5 7.2,0 c 1.2,0 2.2,0.3 2.9,1.1 z"
         class="st4268" />
      <path
         style="fill:#df5e9f"
         id="path167"
         d="m 325.12143,619.91221 c 0.6,-0.1 1,-0.2 1.3,-0.3 0.3,-0.2 0.5,-0.4 0.6,-0.7 0.1,-0.3 0.2,-0.7 0.1,-1.3 l 0,-8.9 6.9,0 c 1.2,0 2.2,0.3 2.9,1 0.7,0.7 1,1.8 1,3.2 l 0,8.7 -3.3,0 0,-8.9 c 0,-1.1 -0.5,-1.7 -1.5,-1.7 l -2.7,0 0,6 c 0,1.2 -0.2,2.1 -0.5,2.8 -0.3,0.7 -0.9,1.2 -1.6,1.5 -0.7,0.3 -1.7,0.6 -2.9,0.7 l -0.3,-2.1 z"
         class="st4268" />
      <path
         style="fill:#df5e9f"
         id="path169"
         d="m 352.02143,620.31221 c -1,1.2 -2.4,1.8 -4.1,1.8 -0.6,0 -1.3,-0.1 -2.1,-0.3 l 0.3,-2.5 c 0.6,0.1 1,0.2 1.4,0.2 1,0 1.8,-0.3 2.2,-1 0.4,-0.7 0.7,-1.7 0.7,-3.1 0,-1.5 -0.2,-2.6 -0.6,-3.3 -0.4,-0.7 -1.1,-1 -1.9,-1 -0.6,0 -1.1,0.2 -1.5,0.5 -0.4,0.4 -0.7,0.9 -0.8,1.5 l -1.4,8.6 -3.3,0 1.6,-8.8 -1.8,-4.2 3.4,0 0.9,2.6 c 0.3,-0.9 0.8,-1.6 1.4,-2.1 0.6,-0.5 1.4,-0.7 2.2,-0.7 1.6,0 2.9,0.6 3.7,1.7 0.9,1.1 1.3,2.8 1.3,5 -0.2,2.2 -0.7,3.9 -1.6,5.1 z"
         class="st4268" />
      <path
         style="fill:#df5e9f"
         id="path171"
         d="m 218.42143,624.11221 0,-1.1 136,0 0,1.1 -136,0 z"
         class="st4268" />
      <path
         style="fill:#df5e9f"
         id="path173"
         d="m 233.32143,635.51221 -0.2,-2.4 2.2,0 0.3,2.4 0,3.1 0,1.3 -2.2,0.4 0,-4.8 z"
         class="st4268" />
      <path
         style="fill:#df5e9f"
         id="path175"
         d="m 238.82143,635.51221 -0.2,-2.4 2.2,0 0.3,2.4 0,3.1 0,1.3 -2.2,0.4 0,-4.8 z"
         class="st4268" />
      <path
         style="fill:#df5e9f"
         id="path177"
         d="m 251.92143,633.11221 0,1.8 -3.8,9.7 -2.2,0 3.8,-9.8 -6.2,0 0,-4.9 2,0 0,3.2 6.4,0 z"
         class="st4268" />
      <path
         style="fill:#df5e9f"
         id="path179"
         d="m 254.62143,642.91221 3.7,0 c 0.9,0 1.7,-0.3 2.2,-0.8 0.5,-0.6 0.8,-1.4 0.8,-2.6 l 0,-1.4 c 0,-1.1 -0.2,-1.9 -0.7,-2.5 -0.4,-0.6 -1.1,-0.9 -2,-0.9 l -1.8,0 -0.5,2 c -0.1,0.3 -0.1,0.6 -0.1,0.8 0,0.4 0.1,0.7 0.3,1 0.2,0.3 0.6,0.4 1.1,0.5 l -0.4,1.4 c -1.1,-0.1 -1.8,-0.3 -2.3,-0.8 -0.5,-0.5 -0.7,-1.1 -0.7,-2 0,-0.4 0,-0.8 0.1,-1.1 l 0.8,-3.5 3.9,0 c 1.4,0 2.4,0.5 3.2,1.4 0.8,0.9 1.1,2.2 1.1,3.8 l 0,1.2 c 0,1.7 -0.4,3 -1.3,3.9 -0.9,0.9 -2,1.3 -3.5,1.3 l -4.2,0 0,-1.7 z"
         class="st4268" />
      <path
         style="fill:#df5e9f"
         id="path181"
         d="m 273.82143,643.11221 c -1.5,1.1 -3.7,1.6 -6.4,1.7 l -1.3,-10.1 -0.2,-1.7 5.9,0 c 1.3,0 2.3,0.4 3,1.1 0.7,0.8 1.1,1.8 1.1,3.1 l 0,0.7 c 0.1,2.4 -0.6,4.1 -2.1,5.2 z m -1.1,-1.6 c 0.8,-0.7 1.1,-1.9 1.1,-3.6 l 0,-0.6 c 0,-0.8 -0.2,-1.4 -0.6,-1.9 -0.4,-0.5 -0.9,-0.7 -1.5,-0.7 l -3.3,0 0.9,8.1 c 1.5,-0.1 2.6,-0.6 3.4,-1.3 z"
         class="st4268" />
      <path
         style="fill:#df5e9f"
         id="path183"
         d="m 278.92143,635.51221 -0.2,-2.4 2.2,0 0.2,2.4 0,9.1 -2.2,0 0,-9.1 z"
         class="st4268" />
      <path
         style="fill:#df5e9f"
         id="path185"
         d="m 284.02143,638.81221 0.3,-1.4 1.9,0 0,11.3 -2.2,0 0,-9.9 z m 3.6,4.1 c 0.7,-0.1 1.2,-0.2 1.7,-0.5 0.5,-0.3 0.8,-0.7 1.1,-1.3 0.3,-0.6 0.5,-1.4 0.5,-2.5 l 0.3,-4 -7.3,0 0,-1.7 9.6,0 -0.1,1.5 -0.3,3.7 c -0.1,2 -0.6,3.6 -1.5,4.7 -0.9,1.1 -2.2,1.7 -3.9,1.7 l -0.1,-1.6 z"
         class="st4268" />
      <path
         style="fill:#df5e9f"
         id="path187"
         d="m 301.12143,635.51221 -0.2,-2.4 2.2,0 0.3,2.4 0,13.2 -2.3,0 0,-13.2 z"
         class="st4268" />
      <path
         style="fill:#df5e9f"
         id="path189"
         d="m 306.52143,635.51221 -0.2,-2.4 2.2,0 0.3,2.4 0,9.1 -2.2,0 0,-9.1 z"
         class="st4268" />
      <path
         style="fill:#df5e9f"
         id="path191"
         d="m 311.62143,638.81221 0.3,-1.4 1.9,0 0,11.3 -2.2,0 0,-9.9 z m 3.7,4.1 c 0.7,-0.1 1.2,-0.2 1.7,-0.5 0.5,-0.3 0.8,-0.7 1.1,-1.3 0.3,-0.6 0.5,-1.4 0.5,-2.5 l 0.3,-4 -7.3,0 0,-1.7 9.6,0 -0.1,1.5 -0.3,3.7 c -0.1,2 -0.6,3.6 -1.5,4.7 -0.9,1.1 -2.2,1.7 -3.9,1.7 l -0.1,-1.6 z"
         class="st4268" />
      <path
         style="fill:#df5e9f"
         id="path193"
         d="m 324.12143,635.51221 -0.2,-2.4 2.2,0 0.3,2.4 0,3.1 0,1.3 -2.2,0.4 0,-4.8 z"
         class="st4268" />
      <path
         style="fill:#df5e9f"
         id="path195"
         d="m 328.52143,643.41221 c 0.8,-0.1 1.3,-0.3 1.6,-0.6 0.3,-0.3 0.4,-0.9 0.4,-1.7 l 0,-8 5.5,0 c 1.1,0 1.9,0.3 2.6,0.9 0.7,0.6 0.9,1.6 0.9,2.9 l 0,7.7 -2.2,0 0,-7.8 c 0,-0.7 -0.2,-1.2 -0.5,-1.6 -0.3,-0.4 -0.8,-0.5 -1.4,-0.5 l -2.8,0 0,6.1 c 0,1.4 -0.3,2.3 -0.9,3 -0.6,0.7 -1.6,1 -3.1,1.1 l -0.1,-1.5 z"
         class="st4268" />
      <path
         style="fill:#df5e9f"
         id="path197"
         d="m 238.22143,658.21221 -0.2,-2.4 2.2,0 0.3,2.4 0,13.3 -2.2,0 0,-13.3 z"
         class="st4268" />
      <path
         style="fill:#df5e9f"
         id="path199"
         d="m 243.62143,658.21221 -0.2,-2.4 2.2,0 0.3,2.4 0,9.1 -2.2,0 0,-9.1 z"
         class="st4268" />
      <path
         style="fill:#df5e9f"
         id="path201"
         d="m 256.62143,667.41221 -4.3,-6.5 -2,6.5 -2.1,0 2.3,-7.1 0.6,-1.5 -1.9,-3 2.2,0 1.7,2.8 1.7,2.6 0.5,-1.8 1,-3.6 2.1,0 -2.4,7.3 2.9,4.3 -2.3,0 z"
         class="st4268" />
      <path
         style="fill:#df5e9f"
         id="path203"
         d="m 261.22143,661.61221 0.3,-1.4 1.9,0 0,11.3 -2.2,0 0,-9.9 z m 3.7,4.1 c 0.7,-0.1 1.2,-0.2 1.7,-0.5 0.5,-0.3 0.8,-0.7 1.1,-1.3 0.3,-0.6 0.5,-1.4 0.5,-2.5 l 0.3,-4 -7.3,0 0,-1.7 9.6,0 -0.1,1.5 -0.3,3.7 c -0.1,2 -0.6,3.6 -1.5,4.7 -0.9,1.1 -2.2,1.7 -3.9,1.7 l -0.1,-1.6 z"
         class="st4268" />
      <path
         style="fill:#df5e9f"
         id="path205"
         d="m 273.72143,658.21221 -0.2,-2.4 2.2,0 0.3,2.4 0,9.1 -2.2,0 0,-9.1 z"
         class="st4268" />
      <path
         style="fill:#df5e9f"
         id="path207"
         d="m 279.12143,658.21221 -0.2,-2.4 2.2,0 0.3,2.4 0,9.1 -2.3,0 0,-9.1 z"
         class="st4268" />
      <path
         style="fill:#df5e9f"
         id="path209"
         d="m 288.72143,655.81221 2.2,0 1.1,9.7 c 3.2,-0.3 4.7,-2 4.6,-5 l 0,-0.6 c 0,-0.7 -0.2,-1.3 -0.6,-1.8 -0.4,-0.5 -1,-0.7 -1.8,-0.8 l -1,-0.1 0.2,-1.7 1.2,0.1 c 1.2,0.1 2.2,0.5 3,1.1 0.7,0.7 1.1,1.7 1.2,2.9 l 0,0.6 c 0.1,2.4 -0.7,4.1 -2.2,5.3 -1.6,1.2 -3.7,1.8 -6.5,1.9 l -1.4,-11.6 z"
         class="st4268" />
      <path
         style="fill:#df5e9f"
         id="path211"
         d="m 301.42143,658.21221 -0.2,-2.4 2.2,0 0.3,2.4 0,9.1 -2.2,0 0,-9.1 z"
         class="st4268" />
      <path
         style="fill:#df5e9f"
         id="path213"
         d="m 306.72143,665.71221 3.7,0 c 0.9,0 1.7,-0.3 2.2,-0.8 0.5,-0.6 0.8,-1.4 0.8,-2.6 l 0,-1.4 c 0,-1.1 -0.2,-1.9 -0.7,-2.5 -0.4,-0.6 -1.1,-0.9 -2,-0.9 l -1.8,0 -0.5,2 c -0.1,0.3 -0.1,0.6 -0.1,0.8 0,0.4 0.1,0.7 0.3,1 0.2,0.3 0.6,0.4 1.1,0.5 l -0.4,1.4 c -1.1,-0.1 -1.8,-0.3 -2.3,-0.8 -0.5,-0.5 -0.7,-1.1 -0.7,-2 0,-0.4 0,-0.8 0.1,-1.1 l 0.8,-3.5 3.9,0 c 1.4,0 2.4,0.5 3.2,1.4 0.8,0.9 1.1,2.2 1.1,3.8 l 0,1.2 c 0,1.7 -0.4,3 -1.3,3.9 -0.9,0.9 -2,1.3 -3.5,1.3 l -4.2,0 0,-1.7 z"
         class="st4268" />
      <path
         style="fill:#df5e9f"
         id="path215"
         d="m 318.62143,658.21221 -0.2,-2.4 2.2,0 0.3,2.4 0,3.1 0,1.3 -2.2,0.4 0,-4.8 z"
         class="st4268" />
      <path
         style="fill:#df5e9f"
         id="path217"
         d="m 332.62143,665.51221 c -1.6,1.4 -4.2,2.1 -7.5,2.1 l -1.5,-11.7 2.1,0 0.7,5.5 c 0.8,-0.4 1.3,-0.9 1.5,-1.5 0.3,-0.6 0.4,-1.5 0.5,-2.7 l 0,-1.3 2.1,0 0,1.2 c 0,1.5 -0.3,2.7 -0.9,3.6 -0.6,0.9 -1.6,1.6 -3,2.2 l 0.3,2.8 c 2.1,-0.1 3.6,-0.8 4.6,-1.8 1,-1.1 1.5,-2.7 1.4,-4.8 l 0,-3.3 2.2,0 0,3.2 c -0.1,2.9 -0.9,5 -2.5,6.5 z"
         class="st4268" />
      <path
         style="fill:#df5e9f"
         id="path219"
         d="m 239.62143,681.01221 -0.2,-2.4 2.2,0 0.3,2.4 0,13.2 -2.2,0 0,-13.2 z"
         class="st4268" />
      <path
         style="fill:#df5e9f"
         id="path221"
         d="m 245.02143,681.01221 -0.2,-2.4 2.2,0 0.3,2.4 0,9.1 -2.2,0 0,-9.1 z"
         class="st4268" />
      <path
         style="fill:#df5e9f"
         id="path223"
         d="m 258.02143,690.21221 -4.3,-6.5 -2,6.5 -2.1,0 2.3,-7.1 0.6,-1.5 -1.9,-3 2.2,0 1.7,2.8 1.7,2.6 0.5,-1.8 1,-3.6 2.1,0 -2.4,7.3 2.9,4.3 -2.3,0 z"
         class="st4268" />
      <path
         style="fill:#df5e9f"
         id="path225"
         d="m 262.62143,684.41221 0.3,-1.4 1.9,0 0,11.3 -2.2,0 0,-9.9 z m 3.7,4.1 c 0.7,-0.1 1.2,-0.2 1.7,-0.5 0.5,-0.3 0.8,-0.7 1.1,-1.3 0.3,-0.6 0.5,-1.4 0.5,-2.5 l 0.3,-4 -7.3,0 0,-1.7 9.6,0 -0.1,1.5 -0.3,3.7 c -0.1,2 -0.6,3.6 -1.5,4.7 -0.9,1.1 -2.2,1.7 -3.9,1.7 l -0.1,-1.6 z"
         class="st4268" />
      <path
         style="fill:#df5e9f"
         id="path227"
         d="m 275.12143,681.01221 -0.2,-2.4 2.2,0 0.3,2.4 0,9.1 -2.3,0 0,-9.1 z"
         class="st4268" />
      <path
         style="fill:#df5e9f"
         id="path229"
         d="m 280.62143,681.01221 -0.2,-2.4 2.2,0 0.3,2.4 0,9.1 -2.2,0 0,-9.1 z"
         class="st4268" />
      <path
         style="fill:#df5e9f"
         id="path231"
         d="m 298.22143,690.21221 -4.3,-6.5 -2,6.5 -2.1,0 2.3,-7.1 0.6,-1.5 -1.9,-3 2.2,0 1.7,2.8 1.7,2.6 0.5,-1.8 1,-3.6 2.1,0 -2.4,7.3 2.9,4.3 -2.3,0 z"
         class="st4268" />
      <path
         style="fill:#df5e9f"
         id="path233"
         d="m 303.22143,681.01221 -0.2,-2.4 2.2,0 0.3,2.4 0,9.1 -2.2,0 0,-9.1 z"
         class="st4268" />
      <path
         style="fill:#df5e9f"
         id="path235"
         d="m 313.02143,682.71221 c 0,-1.1 0.2,-1.9 0.6,-2.4 l -5.5,0 0,-1.7 9.1,0 0,1.7 -1.5,0 c -0.3,0.6 -0.5,1.4 -0.5,2.4 l 0,7.4 -2.2,0 0,-7.4 z"
         class="st4268" />
      <path
         style="fill:#df5e9f"
         id="path237"
         d="m 320.22143,681.01221 -0.2,-2.4 2.2,0 0.3,2.4 0,3.1 0,1.3 -2.2,0.4 0,-4.8 z"
         class="st4268" />
      <path
         style="fill:#df5e9f"
         id="path239"
         d="m 325.62143,681.01221 -0.2,-2.4 2.2,0 0.3,2.4 0,9.1 -2.2,0 0,-9.1 z"
         class="st4268" />
      <path
         style="fill:#df5e9f"
         id="path241"
         d="m 331.02143,681.01221 -0.2,-2.4 2.2,0 0.3,2.4 0,9.1 -2.2,0 0,-9.1 z"
         class="st4268" />
      <path
         style="fill:#df5e9f"
         id="path243"
         d="m 252.22143,702.41221 c 0.6,0.6 0.9,1.6 0.9,2.9 l 0,7.7 -2.2,0 -6.7,0 -0.5,0 0,-11.5 2.2,0 3.8,0 c 1,-0.1 1.9,0.2 2.5,0.9 z m -1.3,8.9 0,-6.1 c 0,-0.7 -0.2,-1.2 -0.5,-1.6 -0.3,-0.3 -0.8,-0.5 -1.4,-0.5 l -3.2,0 0,8.2 5.1,0 z"
         class="st4268" />
      <path
         style="fill:#df5e9f"
         id="path245"
         d="m 256.32143,703.81221 -0.2,-2.4 2.2,0 0.3,2.4 0,9.1 -2.2,0 0,-9.1 z"
         class="st4268" />
      <path
         style="fill:#df5e9f"
         id="path247"
         d="m 269.42143,701.41221 0,1.8 -3.8,9.7 -2.2,0 3.8,-9.8 -6.1,0 0,-4.9 2,0 0,3.2 6.3,0 z"
         class="st4268" />
      <path
         style="fill:#df5e9f"
         id="path249"
         d="m 272.22143,703.81221 -0.2,-2.4 2.2,0 0.3,2.4 0,3.1 0,1.3 -2.2,0.4 0,-4.8 z"
         class="st4268" />
      <path
         style="fill:#df5e9f"
         id="path251"
         d="m 283.32143,708.01221 2.9,4.9 -2.2,0 -7,0 0,-1.7 6.1,0 -5.7,-9.8 2.2,0 2.6,4.6 1.9,-4.6 2.2,0 -3,6.6 z"
         class="st4268" />
      <path
         style="fill:#df5e9f"
         id="path253"
         d="m 292.72143,711.71221 c 0.8,-0.1 1.3,-0.3 1.6,-0.6 0.3,-0.3 0.4,-0.9 0.4,-1.7 l 0,-8 5.5,0 c 1.1,0 1.9,0.3 2.6,0.9 0.7,0.6 0.9,1.6 0.9,2.9 l 0,7.7 -2.2,0 0,-7.8 c 0,-0.7 -0.2,-1.2 -0.5,-1.6 -0.3,-0.4 -0.8,-0.5 -1.4,-0.5 l -2.8,0 0,6.1 c 0,1.4 -0.3,2.3 -0.9,3 -0.6,0.7 -1.6,1 -3.1,1.1 l -0.1,-1.5 z"
         class="st4268" />
      <path
         style="fill:#df5e9f"
         id="path255"
         d="m 306.42143,711.31221 3.3,0 0,-6.4 c 0,-0.6 -0.1,-1 -0.3,-1.3 -0.2,-0.3 -0.6,-0.4 -1,-0.5 l -1.4,-0.2 0.3,-1.7 2.1,0.3 c 0.8,0.1 1.5,0.5 1.9,1 0.4,0.5 0.7,1.3 0.7,2.3 l 0,8.2 -5.5,0 0,-1.7 z"
         class="st4268" />
      <path
         style="fill:#df5e9f"
         id="path257"
         d="m 315.12143,703.81221 -0.2,-2.4 2.2,0 0.3,2.4 0,3.1 0,1.3 -2.2,0.4 0,-4.8 z"
         class="st4268" />
      <path
         style="fill:#df5e9f"
         id="path259"
         d="m 320.52143,711.31221 3.7,0 c 0.9,0 1.7,-0.3 2.2,-0.8 0.5,-0.6 0.8,-1.4 0.8,-2.6 l 0,-1.4 c 0,-1.1 -0.2,-1.9 -0.7,-2.5 -0.4,-0.6 -1.1,-0.9 -2,-0.9 l -1.8,0 -0.5,2 c -0.1,0.3 -0.1,0.6 -0.1,0.8 0,0.4 0.1,0.7 0.3,1 0.2,0.3 0.6,0.4 1.1,0.5 l -0.4,1.4 c -1.1,-0.1 -1.8,-0.3 -2.3,-0.8 -0.5,-0.5 -0.7,-1.1 -0.7,-2 0,-0.4 0,-0.8 0.1,-1.1 l 0.8,-3.5 3.9,0 c 1.4,0 2.4,0.5 3.2,1.4 0.8,0.9 1.1,2.2 1.1,3.8 l 0,1.2 c 0,1.7 -0.4,3 -1.3,3.9 -0.9,0.9 -2,1.3 -3.5,1.3 l -4.2,0 0,-1.7 z"
         class="st4268" />
    </g>
  </g>
</svg>
