<?xml version="1.0" encoding="UTF-8" standalone="no"?>
<!-- Created with Inkscape (http://www.inkscape.org/) -->

<svg
   width="206.39999"
   height="139.3"
   viewBox="0 0 54.609311 36.855995"
   version="1.1"
   id="svg2792"
   xmlns="http://www.w3.org/2000/svg"
   xmlns:svg="http://www.w3.org/2000/svg">
  <defs
     id="defs2789" />
  <g
     id="layer1"
     transform="translate(-56.304916,-87.94807)">
    <g
       id="g1795"
       transform="matrix(0.26458,0,0,0.26458,-132.26125,-434.20056)">
      <path
         id="path1011_1_"
         d="m 832.7,2077.8 c 0,9.3 -16.8,35 -16.8,35 0,0 -16.8,-25.5 -16.8,-35 0,-9.3 7.5,-16.8 16.8,-16.8 9.3,0 16.8,7.5 16.8,16.8"
         style="fill:#a22442" />
      <path
         id="rect863_1_"
         style="fill:#a22442"
         d="m 712.7,1973.5 h 205.8 v 79.4 H 712.7 Z" />
      <g
         id="g188">
        <path
           d="m 739.9,1989.6 h 13.4 v 15.6 h -13.4 z m 9.1,12.3 v -9 h -4.9 v 9 z"
           id="path146"
           style="fill:#fffffd" />
        <path
           d="M 758.4,1992.8 H 756 v -3.3 h 6.6 v 8.9 h -4.2 z"
           id="path148"
           style="fill:#fffffd" />
        <path
           d="m 771.9,1994.9 c 0,-0.7 -0.2,-1.2 -0.6,-1.5 -0.4,-0.4 -0.9,-0.5 -1.6,-0.5 H 765 v -3.3 h 5 c 1.3,0 2.4,0.2 3.3,0.7 0.9,0.4 1.6,1.1 2.1,1.9 0.5,0.8 0.7,1.8 0.7,3 v 10 h -4.2 z"
           id="path150"
           style="fill:#fffffd" />
        <path
           d="m 780.9,1992.8 h -2.4 v -3.3 h 6.6 v 8.9 h -4.2 z"
           id="path152"
           style="fill:#fffffd" />
        <path
           d="m 790.1,1992.8 h -2.4 v -3.3 h 6.6 v 8.9 h -4.2 z"
           id="path154"
           style="fill:#fffffd" />
        <path
           d="m 807,1998.3 3.4,5 v 1.9 H 798 v -3.3 h 7 l -8.3,-12.3 h 4.7 l 3.1,5 2.3,-5 h 4.7 z"
           id="path156"
           style="fill:#fffffd" />
        <path
           d="m 832.7,1991.1 c 1.1,1 1.6,2.5 1.6,4.4 v 9.7 H 830 v -10.1 c 0,-1.5 -0.7,-2.3 -2,-2.3 h -2 c -0.1,0.5 -0.2,1 -0.3,1.6 -0.1,0.6 -0.1,1.1 -0.1,1.6 v 4.4 c 0,1.1 -0.2,2 -0.6,2.7 -0.4,0.8 -0.9,1.3 -1.6,1.7 -0.7,0.4 -1.6,0.6 -2.6,0.6 -0.6,0 -1.3,-0.1 -2,-0.2 v -3.3 h 0.8 c 1.2,0 1.9,-0.7 1.9,-2 v -3.7 c 0,-0.6 0.1,-1.2 0.2,-1.8 0.1,-0.7 0.4,-1.2 0.6,-1.7 H 820 v -3.3 h 8 c 2.1,0.2 3.6,0.7 4.7,1.7 z"
           id="path158"
           style="fill:#fffffd" />
        <path
           d="m 843.3,1994.9 c 0,-0.7 -0.2,-1.2 -0.6,-1.5 -0.4,-0.4 -0.9,-0.5 -1.6,-0.5 h -4.7 v -3.3 h 5 c 1.3,0 2.4,0.2 3.3,0.7 0.9,0.4 1.6,1.1 2.1,1.9 0.5,0.8 0.7,1.8 0.7,3 v 10 h -4.2 z"
           id="path160"
           style="fill:#fffffd" />
        <path
           d="m 863.5,1989.6 v 3.3 h -2.8 v 12.3 h -4.2 v -12.3 H 850 v -3.3 z"
           id="path162"
           style="fill:#fffffd" />
        <path
           d="m 870.6,2001.3 c 0.7,0.3 1.5,0.6 2.4,0.8 0.9,0.2 1.6,0.3 2.4,0.3 1.9,0 3.4,-0.4 4.5,-1.2 1.1,-0.8 1.6,-2 1.6,-3.6 v -8 h 4.1 v 8.4 c 0,1.7 -0.4,3.1 -1.3,4.2 -0.9,1.1 -2.1,2 -3.6,2.6 -1.5,0.6 -3.2,0.9 -5.1,0.9 -1.5,0 -3,-0.2 -4.6,-0.5 -1.6,-0.4 -3,-0.9 -4.4,-1.5 v -14 h 4.1 v 11.6 z m 3.1,-2.6 c 0.1,-0.6 0.1,-1.3 0.1,-2 v -7.2 h 4.1 v 6.3 c 0,0.9 -0.1,1.7 -0.3,2.5 -0.2,0.8 -0.5,1.4 -0.8,1.8 h -3.4 c 0.1,-0.3 0.3,-0.7 0.3,-1.4 z"
           id="path164"
           style="fill:#fffffd" />
        <path
           d="m 734.4,2021.5 h 13.4 v 15.6 h -13.4 z m 9.1,12.3 v -9 h -4.9 v 9 z"
           id="path166"
           style="fill:#fffffd" />
        <path
           d="m 752.9,2024.8 h -2.4 v -3.3 h 6.6 v 8.9 h -4.2 z"
           id="path168"
           style="fill:#fffffd" />
        <path
           d="m 761.5,2037.3 c -0.5,-0.1 -1,-0.2 -1.6,-0.3 v -3.2 c 0.6,0.1 1.3,0.1 1.9,0.1 0.6,0 1,-0.2 1.3,-0.5 0.3,-0.3 0.4,-0.8 0.4,-1.5 v -7.2 h -2.7 v -3.3 h 7 v 10.8 c 0,1 -0.2,2 -0.6,2.7 -0.4,0.8 -0.9,1.3 -1.7,1.7 -0.8,0.4 -1.6,0.6 -2.6,0.6 -0.5,0.2 -1,0.1 -1.4,0.1 z"
           id="path170"
           style="fill:#fffffd" />
        <path
           d="m 770.7,2036.7 0.6,-3.1 c 1.3,0.3 2.4,0.4 3.3,0.4 1.2,0 2.2,-0.3 2.7,-0.8 0.6,-0.5 0.9,-1.3 0.9,-2.4 v -6.1 h -7 v -3.3 h 11.2 v 8.6 c 0,2.5 -0.6,4.3 -1.9,5.5 -1.3,1.2 -3.1,1.7 -5.4,1.7 -1.2,0.1 -2.8,-0.1 -4.4,-0.5 z"
           id="path172"
           style="fill:#fffffd" />
        <path
           d="m 786.9,2024.8 h -1.3 v -3.3 h 5.6 v 15.6 H 787 v -12.3 z"
           id="path174"
           style="fill:#fffffd" />
        <path
           d="m 807.5,2021.5 v 3.3 h -2.8 v 12.3 h -4.2 v -12.3 H 794 v -3.3 z"
           id="path176"
           style="fill:#fffffd" />
        <path
           d="m 817.1,2021.5 h 13.4 v 15.6 h -13.4 z m 9.1,12.3 v -9 h -4.9 v 9 z"
           id="path178"
           style="fill:#fffffd" />
        <path
           d="m 834.7,2021.5 h 6.9 c 2,0 3.6,0.5 4.6,1.5 1,1 1.6,2.5 1.6,4.4 v 9.7 h -4.2 V 2027 c 0,-1.5 -0.7,-2.3 -2,-2.3 h -2.7 v 12.3 h -4.2 z"
           id="path180"
           style="fill:#fffffd" />
        <path
           d="m 863.4,2023 c 1.1,1 1.6,2.5 1.6,4.4 v 9.7 h -4.2 V 2027 c 0,-1.5 -0.7,-2.3 -2,-2.3 h -2 c -0.1,0.5 -0.2,1 -0.3,1.6 -0.1,0.6 -0.1,1.1 -0.1,1.6 v 4.4 c 0,1.1 -0.2,2 -0.6,2.7 -0.4,0.8 -0.9,1.3 -1.6,1.7 -0.7,0.4 -1.6,0.6 -2.6,0.6 -0.6,0 -1.3,-0.1 -2,-0.2 v -3.3 h 0.8 c 1.2,0 1.9,-0.7 1.9,-2 v -3.7 c 0,-0.6 0.1,-1.2 0.2,-1.8 0.1,-0.7 0.4,-1.2 0.6,-1.7 h -2.4 v -3.3 h 8 c 2.1,0.2 3.7,0.7 4.7,1.7 z"
           id="path182"
           style="fill:#fffffd" />
        <path
           d="m 869.7,2028.4 c 0.1,-0.7 0.2,-1.4 0.5,-2 0.3,-0.6 0.6,-1.1 0.9,-1.5 l 0.2,-0.2 v -0.1 c -0.3,0.1 -0.7,0.2 -1.2,0.3 -0.5,0.1 -0.9,0.3 -1.2,0.4 l -0.9,-3.1 c 1,-0.4 2.2,-0.7 3.5,-0.9 1.4,-0.2 2.6,-0.3 3.9,-0.3 2.4,0 4.2,0.6 5.5,1.8 1.2,1.2 1.9,3 1.9,5.4 v 8.8 h -6.9 v -3.3 h 2.6 v -6.1 c 0,-1 -0.2,-1.8 -0.6,-2.4 -0.4,-0.6 -1,-0.8 -1.7,-0.8 -1.4,0 -2.2,1.1 -2.4,3.3 l -0.9,9.2 h -4.2 z"
           id="path184"
           style="fill:#fffffd" />
        <path
           d="m 886.8,2024.8 h -1.3 v -3.3 h 5.6 v 15.6 h -4.2 v -12.3 z"
           id="path186"
           style="fill:#fffffd" />
      </g>
    </g>
  </g>
</svg>
