<?xml version="1.0" encoding="UTF-8" standalone="no"?>
<svg
   xmlns:dc="http://purl.org/dc/elements/1.1/"
   xmlns:cc="http://creativecommons.org/ns#"
   xmlns:rdf="http://www.w3.org/1999/02/22-rdf-syntax-ns#"
   xmlns:svg="http://www.w3.org/2000/svg"
   xmlns="http://www.w3.org/2000/svg"
   id="svg2054"
   version="1.1"
   viewBox="0 0 63.441789 36.134153"
   height="136.57002"
   width="239.78">
  <defs
     id="defs2048" />
  <metadata
     id="metadata2051">
    <rdf:RDF>
      <cc:Work
         rdf:about="">
        <dc:format>image/svg+xml</dc:format>
        <dc:type
           rdf:resource="http://purl.org/dc/dcmitype/StillImage" />
        <dc:title></dc:title>
      </cc:Work>
    </rdf:RDF>
  </metadata>
  <g
     transform="translate(-80.451856,-114.89126)"
     id="layer1">
    <g
       id="g1159"
       transform="matrix(0.26458333,0,0,0.26458333,-347.51378,-191.34605)">
      <rect
         id="rect755-2"
         data-name="rect755"
         class="cls-4"
         x="1617.5079"
         y="1157.4324"
         width="231.86"
         height="41.299999"
         style="fill:#ec2426" />
      <path
         id="path767-2"
         data-name="path767"
         class="cls-4"
         d="m 1764.918,1237.2524 c 0,15.11 -27.52,56.75 -27.52,56.75 0,0 -27.52,-41.64 -27.52,-56.75 a 27.52,27.52 0 0 1 55,0"
         style="fill:#ec2426" />
      <path
         id="path861"
         class="cls-5"
         d="m 1745.748,1233.3124 a 39.86,39.86 0 0 1 -3.56,-2.13 c 0.71,-1 2.14,-2.86 1.71,-4.28 a 2.66,2.66 0 0 0 -0.72,-1.43 1.36,1.36 0 0 0 -1,-0.28 8.62,8.62 0 0 0 -2.43,1 v -0.72 c 0.29,-1.71 1,-3.14 2.43,-3.14 v 0 a 3.72,3.72 0 0 1 3.56,3.14 c 1.14,2.14 0.71,4.71 0,7.84 m -4.56,-3.56 c -0.29,-0.71 -0.71,-1.43 -1,-2.14 0.29,-1 1,-1.71 1.71,-1.71 h 0.29 c 0.28,0 0.28,0.29 0.28,0.71 0.43,1.43 -0.57,2.43 -1.28,3.14 m -1.71,1.85 -1,0.72 0.28,-1.43 a 4.79,4.79 0 0 1 0.72,-1.71 13,13 0 0 1 1,1.43 c -0.72,0.57 -1,0.57 -1,1 m 13.69,11.27 c 0,-0.29 -2.43,-7 -5.71,-8.84 -0.28,0 -0.28,-0.29 -0.71,-0.29 1,-3.13 1.43,-6 0.71,-8.41 -0.72,-2.41 -2.85,-4.28 -5,-3.85 -1.71,0 -3.14,1.71 -3.56,3.85 v 2.14 c -0.29,0.71 -0.72,1 -0.72,1.42 l -16.54,26.1 c 0,0.29 -0.28,0.29 0,0.71 v 0.29 h 0.29 c 0.28,0 0.28,-0.29 0.71,-0.29 l 19.13,-23.66 c 1,1 2.85,1.71 3.85,2.43 -0.71,1.71 -1.43,3.85 -2.14,6 -2.42,6 -1.43,11 0.29,12 h 0.28 a 0.28,0.28 0 0 0 0.29,-0.28 v -0.72 c -1.43,-0.71 -2.43,-5.27 0,-10.55 a 34.19,34.19 0 0 0 2.13,-6 0.28,0.28 0 0 1 0.29,0.29 c 2.85,1.42 5.28,8.13 5.28,8.13 0,0.28 0.28,0.28 0.71,0.28 0.43,0 0.43,-0.43 0.43,-0.71"
         style="fill:#fbf2de" />
      <path
         class="cls-13"
         d="m 1633.158,1174.2124 h -2.84 v -3.85 h 7.84 v 10.48 h -5 z"
         id="path211"
         style="fill:#fffffd" />
      <path
         class="cls-13"
         d="m 1644.078,1174.2124 h -2.84 v -3.85 h 7.81 v 10.48 h -5 z"
         id="path213"
         style="fill:#fffffd" />
      <path
         class="cls-13"
         d="m 1667.418,1173.5424 -6,15.17 h -5.26 l 6,-14.5 h -9.75 v -9 h 5 v 5.12 h 10.12 z"
         id="path215"
         style="fill:#fffffd" />
      <path
         class="cls-13"
         d="m 1674.468,1188.8124 a 21.89,21.89 0 0 1 -3.44,-0.86 l 0.92,-3.64 a 22.88,22.88 0 0 0 3,0.64 18.47,18.47 0 0 0 2.61,0.23 4.89,4.89 0 0 0 3.27,-1 3.56,3.56 0 0 0 1.1,-2.83 v -7.17 h -5.3 a 9.9,9.9 0 0 0 -0.45,1.69 9.16,9.16 0 0 0 -0.15,1.69 v 0.84 a 5.73,5.73 0 0 0 1.57,0.12 v 3.29 a 10.4,10.4 0 0 1 -1.92,0.18 10,10 0 0 1 -2.42,-0.29 7.33,7.33 0 0 1 -2,-0.84 v -1.64 a 12.74,12.74 0 0 1 0.3,-2.81 7.52,7.52 0 0 1 0.86,-2.23 h -1.87 v -3.85 h 16.39 v 10.31 a 9,9 0 0 1 -1.18,4.79 7.05,7.05 0 0 1 -3.19,2.78 11.22,11.22 0 0 1 -4.57,0.88 21,21 0 0 1 -3.53,-0.28 z"
         id="path217"
         style="fill:#fffffd" />
      <path
         class="cls-13"
         d="m 1695.488,1188.0524 a 7.62,7.62 0 0 1 -2.91,-3 9.53,9.53 0 0 1 -1.09,-4.52 v -1.05 a 8,8 0 0 1 0.49,-2.73 6.5,6.5 0 0 1 1.2,-2.23 3.18,3.18 0 0 1 0.26,-0.26 v -0.06 c -0.62,0.13 -1.38,0.31 -2.29,0.55 l -0.93,-3.6 a 29.28,29.28 0 0 1 4.3,-0.87 34.7,34.7 0 0 1 4.61,-0.33 q 4.32,0 6.64,2.26 2.32,2.26 2.31,6.56 v 1.76 a 9.51,9.51 0 0 1 -1,4.52 7.33,7.33 0 0 1 -2.91,3 8.65,8.65 0 0 1 -4.34,1.07 8.34,8.34 0 0 1 -4.34,-1.07 z m 6,-3.58 a 3.75,3.75 0 0 0 1.17,-1.58 6.32,6.32 0 0 0 0.41,-2.35 v -1.71 a 6.26,6.26 0 0 0 -0.86,-3.6 2.81,2.81 0 0 0 -2.47,-1.25 2.71,2.71 0 0 0 -2.43,1.32 7.2,7.2 0 0 0 -0.86,3.82 v 1.42 a 6.12,6.12 0 0 0 0.42,2.35 3.57,3.57 0 0 0 1.16,1.59 2.8,2.8 0 0 0 1.72,0.55 2.85,2.85 0 0 0 1.73,-0.61 z"
         id="path219"
         style="fill:#fffffd" />
      <path
         class="cls-13"
         d="m 1712.288,1174.2124 h -1.56 v -3.85 h 6.54 v 18.35 h -5 z"
         id="path221"
         style="fill:#fffffd" />
      <path
         class="cls-13"
         d="m 1728.898,1184.9424 a 4,4 0 0 0 2.91,-1.16 4.42,4.42 0 0 0 1,-3.14 v -6.43 h -10.61 v -3.85 h 15.57 v 10.19 a 8.43,8.43 0 0 1 -1,4.34 7,7 0 0 1 -3,2.75 12,12 0 0 1 -4.79,1.07 z m -6.57,-2.62 a 7.49,7.49 0 0 1 0.35,-2.56 4.08,4.08 0 0 1 0.77,-1.38 h 4 a 16.53,16.53 0 0 0 -0.28,3.41 v 13.26 h -4.8 z"
         id="path223"
         style="fill:#fffffd" />
      <path
         class="cls-13"
         d="m 1754.368,1188.0524 a 7.12,7.12 0 0 1 -2.83,-2.8 8.4,8.4 0 0 1 -1,-4.16 v -10.77 h 5 v 11.35 a 4.25,4.25 0 0 0 0.38,1.87 3.05,3.05 0 0 0 4.31,1.25 2.87,2.87 0 0 0 1.08,-1.25 4.25,4.25 0 0 0 0.39,-1.87 v -5.21 a 2.62,2.62 0 0 0 -0.51,-1.76 2,2 0 0 0 -1.54,-0.58 7.57,7.57 0 0 0 -1.62,0.22 l -0.46,-3.18 a 8.49,8.49 0 0 1 1.89,-0.77 7.62,7.62 0 0 1 2,-0.29 5.42,5.42 0 0 1 2.82,0.71 4.62,4.62 0 0 1 1.81,2.06 7.63,7.63 0 0 1 0.62,3.19 v 5 a 8.4,8.4 0 0 1 -1,4.16 7.06,7.06 0 0 1 -2.83,2.8 9.45,9.45 0 0 1 -8.42,0 z"
         id="path225"
         style="fill:#fffffd" />
      <path
         class="cls-13"
         d="m 1770.778,1174.2124 h -1.56 v -3.85 h 6.54 v 18.35 h -5 z"
         id="path227"
         style="fill:#fffffd" />
      <path
         class="cls-13"
         d="m 1784.208,1188.8124 a 21.74,21.74 0 0 1 -3.45,-0.86 l 0.92,-3.64 a 22.88,22.88 0 0 0 3,0.64 18.47,18.47 0 0 0 2.61,0.23 4.89,4.89 0 0 0 3.27,-1 3.56,3.56 0 0 0 1.1,-2.83 v -7.17 h -5.3 a 9.9,9.9 0 0 0 -0.45,1.69 9.16,9.16 0 0 0 -0.15,1.69 v 0.84 a 5.8,5.8 0 0 0 1.58,0.12 v 3.29 a 10.59,10.59 0 0 1 -1.93,0.18 10,10 0 0 1 -2.42,-0.29 7.33,7.33 0 0 1 -2,-0.84 v -1.64 a 12.74,12.74 0 0 1 0.3,-2.81 7.52,7.52 0 0 1 0.86,-2.23 h -1.87 v -3.85 h 16.39 v 10.31 a 8.9,8.9 0 0 1 -1.18,4.79 7,7 0 0 1 -3.19,2.78 11.19,11.19 0 0 1 -4.57,0.88 20.83,20.83 0 0 1 -3.52,-0.28 z"
         id="path229"
         style="fill:#fffffd" />
      <path
         class="cls-13"
         d="m 1802.688,1174.2124 h -2.84 v -3.85 h 7.81 v 10.48 h -5 z"
         id="path231"
         style="fill:#fffffd" />
      <path
         class="cls-13"
         d="m 1817.238,1184.1924 a 17.2,17.2 0 0 0 2.79,0.89 13,13 0 0 0 2.77,0.33 8.81,8.81 0 0 0 5.25,-1.4 5,5 0 0 0 1.94,-4.28 v -9.37 h 4.81 v 9.93 a 7.82,7.82 0 0 1 -1.57,5 9.35,9.35 0 0 1 -4.23,3 16.86,16.86 0 0 1 -6,1 24.65,24.65 0 0 1 -5.36,-0.62 24,24 0 0 1 -5.22,-1.8 v -16.5 h 4.8 z m 3.73,-3 a 17.26,17.26 0 0 0 0.15,-2.34 v -8.45 h 4.82 v 7.39 a 11.47,11.47 0 0 1 -0.37,2.93 5.58,5.58 0 0 1 -1,2.12 h -4 a 6.33,6.33 0 0 0 0.4,-1.69 z"
         id="path233"
         style="fill:#fffffd" />
    </g>
  </g>
</svg>
