<?xml version="1.0" encoding="UTF-8" standalone="no"?>
<svg
   xmlns:dc="http://purl.org/dc/elements/1.1/"
   xmlns:cc="http://creativecommons.org/ns#"
   xmlns:rdf="http://www.w3.org/1999/02/22-rdf-syntax-ns#"
   xmlns:svg="http://www.w3.org/2000/svg"
   xmlns="http://www.w3.org/2000/svg"
   width="226"
   height="164.09999"
   viewBox="0 0 226 164.09999"
   id="svg3788"
   version="1.1">
  <defs
     id="defs3790" />
  <metadata
     id="metadata3793">
    <rdf:RDF>
      <cc:Work
         rdf:about="">
        <dc:format>image/svg+xml</dc:format>
        <dc:type
           rdf:resource="http://purl.org/dc/dcmitype/StillImage" />
        <dc:title></dc:title>
      </cc:Work>
    </rdf:RDF>
  </metadata>
  <path
     id="path767_4_"
     class="st3"
     d="m 145.90002,96.199994 c 0,18.099996 -32.9,67.899996 -32.9,67.899996 0,0 -32.900004,-49.8 -32.900004,-67.899996 0,-18.1 14.8,-32.9 32.900004,-32.9 18,0 32.9,14.7 32.9,32.9"
     style="fill:#5188b3" />
  <rect
     id="rect755_4_"
     x="13.5"
     y="0"
     class="st3"
     width="212.5"
     height="45.900002"
     style="fill:#5188b3" />
  <g
     transform="translate(-2790.3,-156.50001)"
     id="g774">
    <path
       class="st21"
       d="m 2850,172.6 c 1.2,1.1 1.8,2.9 1.8,5.2 l 0,11.1 -2.8,0 0,-11.3 c 0,-1.6 -0.3,-2.7 -1,-3.4 -0.7,-0.7 -1.7,-1.1 -3.2,-1.1 l -2.6,0 c -0.3,0.5 -0.6,1.3 -0.8,2.1 -0.2,0.9 -0.3,1.7 -0.3,2.7 l 0,6.1 c 0,1.7 -0.4,2.9 -1.2,3.8 -0.8,0.9 -1.9,1.3 -3.4,1.3 -0.4,0 -1,0 -1.8,-0.1 l 0,-2.3 c 0.3,0 0.7,0.1 1.1,0.1 0.9,0 1.5,-0.2 1.9,-0.7 0.4,-0.5 0.6,-1.2 0.6,-2.2 l 0,-5.7 c 0,-0.9 0.1,-1.9 0.4,-2.8 0.2,-0.9 0.6,-1.7 1,-2.2 l -3.4,0 0,-2.3 8.4,0 c 2.3,0 4.1,0.6 5.3,1.7 z"
       id="path776"
       style="fill:#ffffff" />
    <path
       class="st21"
       d="m 2857.7,173.2 -2.1,0 0,-2.3 4.9,0 0,18 -2.8,0 0,-15.7 z"
       id="path778"
       style="fill:#ffffff" />
    <path
       class="st21"
       d="m 2876.2,181.1 5.7,7.9 -3.2,0 -8,-11.1 c -1.1,0.7 -1.6,1.9 -1.6,3.5 l 0,7.5 -2.8,0 0,-6.5 c 0,-1.6 0.3,-2.8 0.8,-3.8 0.5,-1 1.3,-1.7 2.5,-2.3 l -3.9,-5.4 3.2,0 5.6,7.7 4.3,-7.7 3.2,0 -5.8,10.2 z"
       id="path780"
       style="fill:#ffffff" />
    <path
       class="st21"
       d="m 2884.3,188.9 0.1,-2.2 c 0.7,0.1 1.4,0.2 2.2,0.2 0.8,0 1.5,-0.2 1.9,-0.7 0.4,-0.5 0.6,-1.2 0.6,-2.2 l 0,-10.7 -3.5,0 0,-2.3 6.4,0 0,13.3 c 0,1.7 -0.4,2.9 -1.2,3.8 -0.8,0.9 -2,1.3 -3.5,1.3 -1,-0.2 -2,-0.3 -3,-0.5 z"
       id="path782"
       style="fill:#ffffff" />
    <path
       class="st21"
       d="m 2910.1,170.9 0,2.3 -3,0 0,15.7 -2.8,0 0,-15.7 -8.6,0 0,-2.3 14.4,0 z"
       id="path784"
       style="fill:#ffffff" />
    <path
       class="st21"
       d="m 2917.3,188.2 c -1.1,-0.7 -2,-1.7 -2.7,-2.9 -0.7,-1.2 -1,-2.7 -1,-4.3 l 0,-1.8 c 0,-0.8 0.1,-1.6 0.3,-2.3 0.2,-0.8 0.5,-1.5 0.9,-2.1 0.4,-0.6 0.8,-1.1 1.3,-1.4 0.1,-0.1 0.2,-0.1 0.2,-0.1 l 0,0 c -0.5,0.1 -1.6,0.3 -3.2,0.7 l -0.5,-2.1 c 1.2,-0.4 2.5,-0.6 4,-0.9 1.5,-0.2 2.9,-0.3 4.1,-0.3 1.7,0 3.1,0.3 4.3,1 1.2,0.7 2.1,1.6 2.8,2.8 0.6,1.2 1,2.7 1,4.4 l 0,2.2 c 0,1.6 -0.3,3.1 -0.9,4.3 -0.6,1.2 -1.5,2.2 -2.7,2.9 -1.2,0.7 -2.5,1 -4,1 -1.4,0 -2.8,-0.4 -3.9,-1.1 z m 6.5,-2.1 c 0.7,-0.5 1.3,-1.2 1.7,-2.1 0.4,-0.9 0.6,-1.9 0.6,-3.1 l 0,-2.1 c 0,-1.2 -0.2,-2.2 -0.6,-3.1 -0.4,-0.9 -1,-1.6 -1.7,-2 -0.7,-0.5 -1.6,-0.7 -2.6,-0.7 -0.9,0 -1.7,0.2 -2.4,0.7 -0.7,0.5 -1.2,1.2 -1.6,2.1 -0.4,0.9 -0.6,2 -0.6,3.2 l 0,2 c 0,1.2 0.2,2.2 0.6,3.1 0.4,0.9 1,1.6 1.7,2.1 0.7,0.5 1.6,0.7 2.5,0.7 0.9,0 1.6,-0.3 2.4,-0.8 z"
       id="path786"
       style="fill:#ffffff" />
    <path
       class="st21"
       d="m 2948.9,176.4 c 0,-1 -0.3,-1.8 -0.9,-2.3 -0.6,-0.6 -1.4,-0.8 -2.4,-0.8 l -6.1,0 0,-2.3 6.1,0 c 1.2,0 2.3,0.2 3.2,0.7 0.9,0.4 1.6,1.1 2.1,1.9 0.5,0.8 0.7,1.9 0.7,3 l 0,12.3 -2.8,0 0,-12.5 z"
       id="path788"
       style="fill:#ffffff" />
    <path
       class="st21"
       d="m 2969.4,170.9 0,2.3 -3,0 0,15.7 -2.8,0 0,-15.7 -8.6,0 0,-2.3 14.4,0 z"
       id="path790"
       style="fill:#ffffff" />
    <path
       class="st21"
       d="m 2973.2,170.9 6.8,0 c 2.4,0 4.2,0.6 5.3,1.7 1.1,1.1 1.8,2.9 1.8,5.2 l 0,11.1 -2.8,0 0,-11.3 c 0,-1.6 -0.3,-2.7 -1,-3.4 -0.7,-0.7 -1.8,-1.1 -3.2,-1.1 l -4,0 0,15.7 -2.8,0 -0.1,-17.9 z"
       id="path792"
       style="fill:#ffffff" />
  </g>
</svg>
