<?xml version="1.0" encoding="UTF-8" standalone="no"?>
<svg
   xmlns:dc="http://purl.org/dc/elements/1.1/"
   xmlns:cc="http://creativecommons.org/ns#"
   xmlns:rdf="http://www.w3.org/1999/02/22-rdf-syntax-ns#"
   xmlns:svg="http://www.w3.org/2000/svg"
   xmlns="http://www.w3.org/2000/svg"
   width="200.2"
   height="110.99999"
   viewBox="0 0 200.2 110.99999"
   id="svg4022"
   version="1.1">
  <defs
     id="defs4024" />
  <metadata
     id="metadata4027">
    <rdf:RDF>
      <cc:Work
         rdf:about="">
        <dc:format>image/svg+xml</dc:format>
        <dc:type
           rdf:resource="http://purl.org/dc/dcmitype/StillImage" />
        <dc:title></dc:title>
      </cc:Work>
    </rdf:RDF>
  </metadata>
  <path
     id="path307_2_"
     class="st6"
     d="m 119.60008,70.199981 c 0,10.8 -19.5,40.800009 -19.5,40.800009 0,0 -19.500003,-29.700009 -19.500003,-40.800009 0,-10.8 8.7,-19.5 19.500003,-19.5 10.8,-0.4 19.5,8.3 19.5,19.5"
     style="fill:#c52036" />
  <rect
     id="rect901_1_"
     x="0"
     y="0"
     class="st6"
     width="195.50002"
     height="45.300003"
     style="fill:#c52036" />
  <g
     id="g686"
     transform="translate(-1278.2,-1324.8999)">
    <path
       class="st21"
       d="m 1294.2,1338.7 14.4,0 0,18 -14.4,0 0,-18 z m 11.5,15.7 0,-13.4 -8.7,0 0,13.4 8.7,0 z"
       id="path688"
       style="fill:#ffffff" />
    <path
       class="st21"
       d="m 1315.4,1341 -3.3,0 0,-2.3 6.1,0 0,10 -2.8,0 0,-7.7 z"
       id="path690"
       style="fill:#ffffff" />
    <path
       class="st21"
       d="m 1321.7,1356.7 0.1,-2.2 c 0.7,0.1 1.4,0.2 2.2,0.2 0.8,0 1.5,-0.2 1.9,-0.7 0.4,-0.5 0.6,-1.2 0.6,-2.2 l 0,-10.8 -3.5,0 0,-2.3 6.4,0 0,13.3 c 0,1.7 -0.4,2.9 -1.2,3.8 -0.8,0.9 -2,1.3 -3.5,1.3 -1.1,-0.1 -2,-0.2 -3,-0.4 z"
       id="path692"
       style="fill:#ffffff" />
    <path
       class="st21"
       d="m 1333.3,1356.2 0.5,-2.1 c 1.6,0.4 3.1,0.7 4.3,0.7 1.7,0 3,-0.4 3.9,-1.2 0.9,-0.8 1.3,-2 1.3,-3.6 l 0,-8.9 -9.4,0 0,-2.3 12.2,0 0,10.6 c 0,2.5 -0.7,4.5 -2,5.8 -1.4,1.3 -3.2,1.9 -5.7,1.9 -1.5,-0.1 -3.2,-0.4 -5.1,-0.9 z"
       id="path694"
       style="fill:#ffffff" />
    <path
       class="st21"
       d="m 1352.5,1341 -2.1,0 0,-2.3 4.9,0 0,18 -2.8,0 0,-15.7 z"
       id="path696"
       style="fill:#ffffff" />
    <path
       class="st21"
       d="m 1373.5,1338.7 0,2.3 -3,0 0,15.7 -2.8,0 0,-15.7 -8.6,0 0,-2.3 14.4,0 z"
       id="path698"
       style="fill:#ffffff" />
    <path
       class="st21"
       d="m 1385,1338.7 14.4,0 0,18 -14.4,0 0,-18 z m 11.5,15.7 0,-13.4 -8.7,0 0,13.4 8.7,0 z"
       id="path700"
       style="fill:#ffffff" />
    <path
       class="st21"
       d="m 1404.9,1338.7 6.8,0 c 2.4,0 4.2,0.6 5.3,1.7 1.2,1.1 1.8,2.9 1.8,5.2 l 0,11.1 -2.8,0 0,-11.3 c 0,-1.6 -0.3,-2.7 -1,-3.4 -0.7,-0.7 -1.8,-1.1 -3.2,-1.1 l -4,0 0,15.7 -2.8,0 -0.1,-17.9 z"
       id="path702"
       style="fill:#ffffff" />
    <path
       class="st21"
       d="m 1436.5,1340.4 c 1.2,1.1 1.8,2.9 1.8,5.2 l 0,11.1 -2.8,0 0,-11.3 c 0,-1.6 -0.3,-2.7 -1,-3.4 -0.7,-0.7 -1.7,-1.1 -3.2,-1.1 l -2.6,0 c -0.3,0.6 -0.6,1.3 -0.8,2.1 -0.2,0.8 -0.3,1.7 -0.3,2.7 l 0,6.1 c 0,1.7 -0.4,2.9 -1.2,3.8 -0.8,0.9 -1.9,1.3 -3.4,1.3 -0.4,0 -1,0 -1.8,-0.1 l 0,-2.3 c 0.3,0 0.7,0.1 1.1,0.1 0.9,0 1.5,-0.2 1.9,-0.7 0.4,-0.5 0.6,-1.2 0.6,-2.2 l 0,-5.7 c 0,-0.9 0.1,-1.9 0.4,-2.8 0.2,-0.9 0.6,-1.7 1,-2.2 l -3.4,0 0,-2.3 8.4,0 c 2.4,0 4.2,0.6 5.3,1.7 z"
       id="path704"
       style="fill:#ffffff" />
    <path
       class="st21"
       d="m 1444.6,1345.3 c 0.1,-0.8 0.3,-1.6 0.7,-2.4 0.4,-0.7 0.8,-1.3 1.3,-1.7 0,0 0.1,-0.1 0.3,-0.2 l 0,0 c -0.5,0.1 -1,0.2 -1.7,0.4 -0.7,0.2 -1.3,0.4 -1.9,0.6 l -0.7,-2.1 c 1.2,-0.4 2.5,-0.7 4,-1 1.5,-0.3 2.8,-0.4 4.1,-0.4 2.4,0 4.3,0.6 5.6,1.9 1.3,1.3 1.9,3.2 1.9,5.7 l 0,10.7 -7.4,0 0,-2.3 4.6,0 0,-8.8 c 0,-1.6 -0.4,-2.8 -1.1,-3.7 -0.7,-0.8 -1.8,-1.3 -3.1,-1.3 -1,0 -1.8,0.4 -2.5,1.1 -0.7,0.8 -1.1,1.8 -1.2,3.1 l -1.4,11.7 -2.8,0 1.3,-11.3 z"
       id="path706"
       style="fill:#ffffff" />
  </g>
</svg>
