<svg width="203.8" height="116" viewBox="0 0 53.921 30.691" xmlns="http://www.w3.org/2000/svg">
    <path style="fill:#3696c9;stroke-width:.26458" d="M106.36 112.091h52.149v9.287H106.36zm33.152 17.939c0 3.387-6.191 12.753-6.191 12.753s-6.191-9.366-6.191-12.753c0-3.387 2.778-6.191 6.191-6.191a6.182 6.182 0 0 1 6.191 6.191" transform="translate(-106.36 -112.091)"/>
    <path d="M135.2 129.157c-.318-.159-.556-.318-.794-.476.158-.212.476-.635.397-.953a.582.582 0 0 0-.16-.317c-.052-.053-.158-.053-.21-.053-.16 0-.398.158-.556.211v-.158c.052-.397.211-.715.555-.715.318 0 .715.212.794.715.238.45.132 1.032-.027 1.746m-1.005-.82c-.053-.16-.159-.318-.212-.477.053-.211.212-.396.397-.396h.053c.053 0 .053.052.053.158.08.344-.132.556-.291.715m-.397.423-.212.159.053-.318c0-.053.053-.211.16-.397.052.053.158.212.21.318-.158.132-.21.132-.21.238m3.068 2.54c0-.053-.555-1.561-1.27-1.984-.053 0-.053-.053-.158-.053.211-.715.317-1.35.158-1.905-.158-.556-.635-.953-1.111-.873-.397 0-.714.397-.794.873v.476c-.053.159-.158.212-.158.317l-3.731 5.874c0 .053-.053.053 0 .159v.053h.053c.053 0 .053-.053.159-.053l4.286-5.318c.211.212.635.397.873.555-.159.397-.318.874-.476 1.35-.556 1.35-.318 2.46.053 2.699h.052s.053 0 .053-.053v-.16c-.317-.158-.555-1.19 0-2.38.212-.477.397-.953.477-1.35 0 0 .053 0 .053.053.635.318 1.19 1.826 1.19 1.826 0 .053.053.053.159.053.132 0 .132-.106.132-.159" style="fill:#fffffd;stroke-width:.26458" transform="translate(-106.36 -112.091)"/>
    <path d="M1330.1 1467h-2.4v-3.3h6.6v8.9h-4.2zm9.2 0h-2.4v-3.3h6.6v8.9h-4.2zm19.9-.6-5.1 12.9h-4.5l5.1-12.3h-8.3v-7.6h4.2v4.4h8.6zm6 13c-1.1-.2-2-.4-2.9-.7l.8-3.1c.8.2 1.7.4 2.5.5.9.1 1.6.2 2.2.2 1.2 0 2.2-.3 2.8-.8.6-.5.9-1.3.9-2.4v-6.1h-4.5c-.2.5-.3 1-.4 1.4-.1.5-.1.9-.1 1.4v.7c.4.1.9.1 1.3.1v2.8c-.5.1-1.1.2-1.6.2-.7 0-1.4-.1-2.1-.2-.7-.2-1.2-.4-1.7-.7v-1.4c0-.8.1-1.6.3-2.4.2-.8.4-1.4.7-1.9h-1.6v-3.3h13.9v8.8c0 1.6-.3 3-1 4.1-.7 1.1-1.6 1.9-2.7 2.4s-2.4.8-3.9.8c-.9-.1-1.9-.2-2.9-.4zm17.8-.7c-1.1-.6-1.9-1.5-2.5-2.6-.6-1.1-.9-2.4-.9-3.8v-.9c0-.7.1-1.5.4-2.3.3-.8.6-1.5 1-1.9l.2-.2v-.1c-.5.1-1.2.3-1.9.5l-.8-3.1c1-.3 2.3-.5 3.7-.7 1.4-.2 2.7-.3 3.9-.3 2.5 0 4.3.6 5.6 1.9 1.3 1.3 2 3.1 2 5.6v1.5c0 1.5-.3 2.7-.9 3.8-.6 1.1-1.4 2-2.5 2.6-1.1.6-2.3.9-3.7.9-1.3 0-2.5-.3-3.6-.9zm5.1-3c.4-.3.8-.8 1-1.3.2-.6.4-1.2.4-2v-1.5c0-1.3-.2-2.4-.7-3.1-.5-.7-1.2-1.1-2.1-1.1-.9 0-1.6.4-2.1 1.1-.5.7-.7 1.8-.7 3.2v1.2c0 .8.1 1.4.3 2 .2.6.6 1 1 1.3.4.3.9.5 1.5.5.5.2 1 0 1.4-.3zm9.2-8.7h-1.3v-3.3h5.6v15.6h-4.2zm14.1 9.1c1.1 0 1.9-.4 2.5-1 .6-.6.9-1.5.9-2.7v-5.5h-9v-3.3h13.2v8.7c0 1.4-.3 2.7-.9 3.7-.6 1-1.5 1.8-2.6 2.3-1.1.5-2.5.8-4.1.9zm-5.6-2.2c0-.9.1-1.7.3-2.2.2-.5.4-.9.7-1.2h3.4c-.2.7-.2 1.7-.2 2.9v11.3h-4.1v-10.8zm27.3 4.9c-1-.6-1.8-1.4-2.4-2.4-.6-1-.9-2.2-.9-3.5v-9.2h4.2v9.7c0 .6.1 1.1.3 1.6.2.5.5.8.9 1.1.4.3.9.4 1.4.4.5 0 1-.1 1.4-.4.4-.3.7-.6.9-1.1.2-.5.3-1 .3-1.6v-4.4c0-.7-.1-1.2-.4-1.5-.3-.3-.7-.5-1.3-.5-.4 0-.8.1-1.4.2l-.4-2.7c.5-.3 1-.5 1.6-.7.6-.2 1.1-.2 1.7-.2.9 0 1.7.2 2.4.6.7.4 1.2 1 1.5 1.7.4.8.5 1.7.5 2.7v4.3c0 1.3-.3 2.5-.9 3.5-.6 1-1.4 1.8-2.4 2.4-1 .6-2.2.8-3.6.8s-2.4-.2-3.4-.8zm13.9-11.8h-1.3v-3.3h5.6v15.6h-4.2zm11.4 12.4c-1.1-.2-2-.4-2.9-.7l.8-3.1c.8.2 1.7.4 2.5.5.9.1 1.6.2 2.2.2 1.2 0 2.2-.3 2.8-.8.6-.5.9-1.3.9-2.4v-6.1h-4.5c-.2.5-.3 1-.4 1.4-.1.5-.1.9-.1 1.4v.7c.4.1.9.1 1.3.1v2.8c-.5.1-1.1.2-1.6.2-.7 0-1.4-.1-2.1-.2-.7-.2-1.2-.4-1.7-.7v-1.4c0-.8.1-1.6.3-2.4.2-.8.4-1.4.7-1.9h-1.6v-3.3h13.9v8.8c0 1.6-.3 3-1 4.1-.7 1.1-1.6 1.9-2.7 2.4s-2.4.8-3.9.8c-.8-.1-1.8-.2-2.9-.4zm15.7-12.4h-2.4v-3.3h6.6v8.9h-4.2zm12.4 8.5c.7.3 1.5.6 2.4.8.9.2 1.6.3 2.4.3 1.9 0 3.4-.4 4.5-1.2 1.1-.8 1.6-2 1.6-3.6v-8h4.1v8.4c0 1.7-.4 3.1-1.3 4.2s-2.1 2-3.6 2.6c-1.5.6-3.2.9-5.1.9-1.5 0-3-.2-4.6-.5-1.6-.4-3-.9-4.4-1.5v-14h4.1zm3.2-2.6c.1-.6.1-1.3.1-2v-7.2h4.1v6.3c0 .9-.1 1.7-.3 2.5-.2.8-.5 1.4-.8 1.8h-3.4c.1-.3.2-.8.3-1.4z" style="fill:#fffffd" transform="translate(-348.372 -384.382) scale(.26458)"/>
</svg>
