<?xml version="1.0" encoding="UTF-8" standalone="no"?>
<svg
   xmlns:dc="http://purl.org/dc/elements/1.1/"
   xmlns:cc="http://creativecommons.org/ns#"
   xmlns:rdf="http://www.w3.org/1999/02/22-rdf-syntax-ns#"
   xmlns:svg="http://www.w3.org/2000/svg"
   xmlns="http://www.w3.org/2000/svg"
   id="svg8992"
   version="1.1"
   viewBox="0 0 47.368353 44.88657"
   height="169.65002"
   width="179.03">
  <defs
     id="defs8986" />
  <metadata
     id="metadata8989">
    <rdf:RDF>
      <cc:Work
         rdf:about="">
        <dc:format>image/svg+xml</dc:format>
        <dc:type
           rdf:resource="http://purl.org/dc/dcmitype/StillImage" />
        <dc:title></dc:title>
      </cc:Work>
    </rdf:RDF>
  </metadata>
  <g
     transform="translate(-101.54198,-159.65195)"
     id="layer1">
    <g
       id="g5037"
       transform="matrix(0.26458333,0,0,0.26458333,-601.0511,-68.429454)">
      <path
         id="path471"
         class="cls-4"
         d="m 2772.22,975.69 c 0,15 -27.24,56 -27.24,56 0,0 -27.23,-41.07 -27.23,-56 a 27.24,27.24 0 0 1 54.47,0"
         style="fill:#ec2426" />
      <path
         id="path473"
         class="cls-9"
         d="m 2745,989.53 a 14,14 0 1 1 14,-14 14,14 0 0 1 -14,14 m 0,-30.95 a 17.12,17.12 0 1 0 17.12,17.11 17.16,17.16 0 0 0 -17.12,-17.11 m 0,15 a 2.3,2.3 0 0 0 -2.14,2.13 V 982 a 2.14,2.14 0 0 0 4.28,0 v -6.28 a 2.19,2.19 0 0 0 -2.14,-2.13 m 0,-6.56 a 2.14,2.14 0 1 0 2.14,2.13 A 2.19,2.19 0 0 0 2745,967"
         style="isolation:isolate;fill:#fbf2de" />
      <rect
         id="rect315"
         class="cls-4"
         x="2679.3401"
         y="862.03998"
         width="131.73"
         height="45.349998"
         style="fill:#ec2426" />
      <rect
         id="rect317"
         class="cls-4"
         x="2657.45"
         y="896.27002"
         width="177.05"
         height="45.349998"
         style="fill:#ec2426" />
      <path
         class="cls-13"
         d="m 2698.47,876.68 h -1.62 v -3.85 h 6.52 v 24.71 h -4.9 z"
         id="path912"
         style="fill:#fffffd" />
      <path
         class="cls-13"
         d="m 2709.43,876.68 h -2.84 v -3.85 h 7.81 v 10.48 h -5 z"
         id="path914"
         style="fill:#fffffd" />
      <path
         class="cls-13"
         d="m 2734,872.83 v 10.48 a 8.67,8.67 0 0 1 -1.12,4.55 7.12,7.12 0 0 1 -3.16,2.83 10.94,10.94 0 0 1 -4.73,0.95 20.66,20.66 0 0 1 -7.36,-1.36 l 1,-3.62 a 20,20 0 0 0 4.09,1.13 5.48,5.48 0 0 1 -0.94,-1.17 4.64,4.64 0 0 1 -0.57,-1.39 l -2.81,-12.4 h 5 l 2.69,12.9 a 7,7 0 0 0 0.56,1.74 3.71,3.71 0 0 0 1.74,-1.47 4.62,4.62 0 0 0 0.6,-2.44 v -10.73 z"
         id="path916"
         style="fill:#fffffd" />
      <path
         class="cls-13"
         d="m 2740.06,876.68 h -2.84 v -3.85 h 7.78 v 10.48 h -5 z"
         id="path918"
         style="fill:#fffffd" />
      <path
         class="cls-13"
         d="m 2764.15,872.83 v 3.85 h -3.24 v 14.51 h -5 v -14.51 h -7.69 v -3.85 z"
         id="path920"
         style="fill:#fffffd" />
      <path
         class="cls-13"
         d="m 2767.87,876.68 h -1.55 v -3.85 h 6.54 v 18.36 h -5 z"
         id="path922"
         style="fill:#fffffd" />
      <path
         class="cls-13"
         d="m 2778.83,881 a 8.57,8.57 0 0 1 0.61,-2.35 5.36,5.36 0 0 1 1.09,-1.76 0.94,0.94 0 0 1 0.21,-0.19 v -0.07 c -0.4,0.07 -0.87,0.18 -1.42,0.33 -0.55,0.15 -1,0.31 -1.38,0.46 l -1,-3.59 a 22.6,22.6 0 0 1 4.14,-1.06 28.23,28.23 0 0 1 4.54,-0.39 c 2.82,0 5,0.71 6.43,2.14 1.43,1.43 2.2,3.55 2.21,6.34 v 10.35 h -8.09 v -3.86 h 3.11 v -7.16 a 4.74,4.74 0 0 0 -0.7,-2.78 2.31,2.31 0 0 0 -2,-1 q -2.49,0 -2.87,3.91 l -1.07,10.87 h -4.91 z"
         id="path924"
         style="fill:#fffffd" />
      <path
         class="cls-13"
         d="m 2669.42,914.24 h -2.84 v -3.85 h 7.81 v 10.48 h -5 z"
         id="path926"
         style="fill:#fffffd" />
      <path
         class="cls-13"
         d="m 2679.24,907.3 a 8.64,8.64 0 0 1 2,-2.61 l 2.16,1.21 a 10.42,10.42 0 0 0 -1,2.1 7.6,7.6 0 0 0 -0.34,2.38 v 2.41 h -3.64 v -2.43 a 6.76,6.76 0 0 1 0.82,-3.06 z m 5.32,0 a 8.33,8.33 0 0 1 2,-2.61 l 2.15,1.21 a 10.94,10.94 0 0 0 -1,2.1 7.6,7.6 0 0 0 -0.34,2.38 v 2.41 h -3.64 v -2.43 a 6.63,6.63 0 0 1 0.83,-3.06 z"
         id="path928"
         style="fill:#fffffd" />
      <path
         class="cls-13"
         d="m 2704.21,921 5.31,7.71 H 2704 l -6.71,-9.71 a 2.59,2.59 0 0 0 -0.41,1.51 v 8.2 h -4.8 v -6 a 9.11,9.11 0 0 1 0.78,-4.09 5.25,5.25 0 0 1 2.51,-2.36 l -4.05,-5.87 h 5.54 l 4.33,6.25 3,-6.25 h 5.56 z"
         id="path930"
         style="fill:#fffffd" />
      <path
         class="cls-13"
         d="m 2714.35,918.54 a 8.94,8.94 0 0 1 0.61,-2.35 5.36,5.36 0 0 1 1.09,-1.76 0.94,0.94 0 0 1 0.21,-0.19 v -0.07 c -0.4,0.07 -0.87,0.18 -1.42,0.33 a 13.86,13.86 0 0 0 -1.38,0.46 l -1,-3.59 a 22.6,22.6 0 0 1 4.14,-1.06 28.23,28.23 0 0 1 4.54,-0.39 q 4.24,0 6.43,2.14 2.19,2.14 2.21,6.34 v 10.35 h -8.09 v -3.86 h 3.11 v -7.16 a 4.72,4.72 0 0 0 -0.7,-2.78 2.31,2.31 0 0 0 -2,-1 q -2.49,0 -2.87,3.91 l -1.07,10.87 h -4.91 z"
         id="path932"
         style="fill:#fffffd" />
      <path
         class="cls-13"
         d="m 2746.22,921 5.32,7.71 H 2746 l -6.71,-9.71 a 2.59,2.59 0 0 0 -0.41,1.51 v 8.2 h -4.8 v -6 a 9.11,9.11 0 0 1 0.78,-4.09 5.25,5.25 0 0 1 2.51,-2.36 l -4,-5.87 h 5.55 l 4.32,6.25 3,-6.25 h 5.57 z"
         id="path934"
         style="fill:#fffffd" />
      <path
         class="cls-13"
         d="m 2763.37,914.24 h -1.62 v -3.85 h 6.51 v 24.71 h -4.89 z"
         id="path936"
         style="fill:#fffffd" />
      <path
         class="cls-13"
         d="m 2771.67,928.33 0.76,-3.62 a 18.72,18.72 0 0 0 3.93,0.51 4.69,4.69 0 0 0 3.22,-1 3.7,3.7 0 0 0 1,-2.85 v -7.17 h -8.23 v -3.85 h 13.21 v 10.16 q 0,4.38 -2.25,6.43 a 9,9 0 0 1 -6.31,2.06 23.48,23.48 0 0 1 -5.33,-0.67 z"
         id="path938"
         style="fill:#fffffd" />
      <path
         class="cls-13"
         d="m 2790.72,914.24 h -1.56 v -3.85 h 6.55 v 18.36 h -5 z"
         id="path940"
         style="fill:#fffffd" />
      <path
         class="cls-13"
         d="m 2815,910.39 v 3.85 h -3.24 v 14.51 h -5 v -14.51 h -7.69 v -3.85 z"
         id="path942"
         style="fill:#fffffd" />
      <path
         class="cls-13"
         d="m 2818.71,914.24 h -1.56 v -3.85 h 6.54 v 18.36 h -5 z"
         id="path944"
         style="fill:#fffffd" />
    </g>
  </g>
</svg>
