<?xml version="1.0" encoding="UTF-8" standalone="no"?>
<svg
   xmlns:dc="http://purl.org/dc/elements/1.1/"
   xmlns:cc="http://creativecommons.org/ns#"
   xmlns:rdf="http://www.w3.org/1999/02/22-rdf-syntax-ns#"
   xmlns:svg="http://www.w3.org/2000/svg"
   xmlns="http://www.w3.org/2000/svg"
   id="svg3264"
   version="1.1"
   viewBox="0 0 35.983333 55.34408"
   height="209.17447"
   width="136">
  <defs
     id="defs3258" />
  <metadata
     id="metadata3261">
    <rdf:RDF>
      <cc:Work
         rdf:about="">
        <dc:format>image/svg+xml</dc:format>
        <dc:type
           rdf:resource="http://purl.org/dc/dcmitype/StillImage" />
        <dc:title></dc:title>
      </cc:Work>
    </rdf:RDF>
  </metadata>
  <g
     transform="translate(-66.675005,-92.4351)"
     id="layer1">
    <g
       id="g1200"
       transform="matrix(0.26458333,0,0,0.26458333,-323.41819,-309.25741)">
      <path
         id="path659"
         class="cls-4"
         d="m 1610.368,1586.2124 c 0,37.79 -68,141.17 -68,141.17 0,0 -68,-103.38 -68,-141.17 a 68,68 0 0 1 68,-68 c 37.65,-0.43 68,30.23 68,68"
         style="fill:#ec2426" />
      <path
         class="cls-13"
         d="m 1510.308,1547.6824 h 15.72 v 18.37 h -15.72 z m 10.76,14.49 v -10.64 h -5.8 v 10.64 z"
         id="path235"
         style="fill:#fffffd" />
      <path
         class="cls-13"
         d="m 1544.568,1550.8624 -6,15.18 h -5.26 l 5.95,-14.51 h -9.75 v -9 h 5 v 5.12 h 10.12 z"
         id="path237"
         style="fill:#fffffd" />
      <path
         class="cls-13"
         d="m 1548.318,1551.5324 h -1.56 v -3.85 h 6.54 v 18.37 h -5 z"
         id="path239"
         style="fill:#fffffd" />
      <path
         class="cls-13"
         d="m 1570.248,1558.3324 5.31,7.71 h -5.53 l -6.71,-9.71 a 2.59,2.59 0 0 0 -0.41,1.51 v 8.2 h -4.75 v -6 a 9.08,9.08 0 0 1 0.78,-4.09 5.25,5.25 0 0 1 2.51,-2.36 l -4,-5.87 h 5.54 l 4.33,6.25 3,-6.25 h 5.56 z"
         id="path241"
         style="fill:#fffffd" />
      <path
         class="cls-13"
         d="m 1508.518,1589.0524 h -2.85 v -3.85 h 7.82 v 10.48 h -5 z"
         id="path243"
         style="fill:#fffffd" />
      <path
         class="cls-13"
         d="m 1523.068,1599.0524 a 15.73,15.73 0 0 0 2.79,0.89 13,13 0 0 0 2.77,0.33 8.74,8.74 0 0 0 5.25,-1.4 5,5 0 0 0 1.93,-4.28 v -9.37 h 4.82 v 9.93 a 7.82,7.82 0 0 1 -1.57,5 9.35,9.35 0 0 1 -4.23,3 16.87,16.87 0 0 1 -6,1 25.41,25.41 0 0 1 -10.57,-2.41 v -16.51 h 4.8 z m 3.73,-3 a 17.05,17.05 0 0 0 0.15,-2.34 v -8.45 h 4.81 v 7.4 a 11.4,11.4 0 0 1 -0.36,2.92 5.66,5.66 0 0 1 -1,2.12 h -4 a 6.28,6.28 0 0 0 0.4,-1.65 z"
         id="path245"
         style="fill:#fffffd" />
      <path
         class="cls-13"
         d="m 1557.588,1595.8924 5.32,7.7 h -5.53 l -6.71,-9.7 a 2.52,2.52 0 0 0 -0.41,1.51 v 8.19 h -4.8 v -6 a 9.08,9.08 0 0 1 0.78,-4.09 5.23,5.23 0 0 1 2.5,-2.36 l -4,-5.87 h 5.55 l 4.33,6.25 3,-6.25 h 5.54 z"
         id="path247"
         style="fill:#fffffd" />
      <path
         class="cls-13"
         d="m 1572.808,1591.5224 a 2.34,2.34 0 0 0 -0.67,-1.8 2.73,2.73 0 0 0 -1.94,-0.63 h -5.47 v -3.85 h 5.84 a 8.88,8.88 0 0 1 3.87,0.78 5.54,5.54 0 0 1 2.48,2.25 6.84,6.84 0 0 1 0.86,3.51 v 11.81 h -5 z"
         id="path249"
         style="fill:#fffffd" />
    </g>
  </g>
</svg>
