<?xml version="1.0" encoding="UTF-8" standalone="no"?>
<svg
   xmlns:dc="http://purl.org/dc/elements/1.1/"
   xmlns:cc="http://creativecommons.org/ns#"
   xmlns:rdf="http://www.w3.org/1999/02/22-rdf-syntax-ns#"
   xmlns:svg="http://www.w3.org/2000/svg"
   xmlns="http://www.w3.org/2000/svg"
   height="780.93359"
   width="1382.2122"
   id="svg2"
   xml:space="preserve"
   viewBox="0 0 1382.2121 780.9336"
   y="0px"
   x="0px"
   version="1.1"><metadata
     id="metadata433"><rdf:RDF><cc:Work
         rdf:about=""><dc:format>image/svg+xml</dc:format><dc:type
           rdf:resource="http://purl.org/dc/dcmitype/StillImage" /><dc:title></dc:title></cc:Work></rdf:RDF></metadata><defs
     id="defs431" /><g
     id="g4234"><polygon
       id="polygon495_2_"
       class="st4253"
       points="497.6,376.3 929.6,217.7 717.9,145.2 368,307.4 "
       style="opacity:1;fill:#6fb8c5;fill-opacity:1"
       transform="translate(-6.8,-29.600002)" /><polygon
       id="polygon497_2_"
       class="st4254"
       points="725.6,128.1 725.6,157.4 366.3,312.5 366.3,282.7 "
       style="opacity:1;fill:#ffffff;stroke:#000000;stroke-width:0.5;stroke-miterlimit:10"
       transform="translate(-6.8,-29.600002)" /><polygon
       id="polygon501_2_"
       class="st4254"
       points="721.2,252.7 702.3,276.2 592.8,216 592.8,184.8 "
       style="opacity:1;fill:#ffffff;stroke:#000000;stroke-width:0.5;stroke-miterlimit:10"
       transform="translate(-6.8,-29.600002)" /><polygon
       id="polygon505_2_"
       class="st4254"
       points="725.6,157.4 725.6,128.1 921.4,189.8 921.4,213.3 918.7,214.3 915.1,215.7 "
       style="opacity:1;fill:#ffffff;stroke:#000000;stroke-width:0.5;stroke-miterlimit:10"
       transform="translate(-6.8,-29.600002)" /><polygon
       transform="translate(-6.8,-29.600002)"
       class="st4252"
       points="206.7,478.3 831.9,778.5 950.4,698.8 852.5,658 1115.3,464.6 1357,329 1035.6,169.9 891.2,220.8 859.2,233.5 652.6,300.5 653.8,294.7 474.5,353.7 372.5,308.9 286.8,348.7 216,324.2 71.1,385.9 135.7,435.1 191.6,410.6 246.5,438.4 "
       id="polygon65"
       style="fill:#6fb8c5;fill-opacity:1" /><polygon
       id="polygon511_2_"
       class="st4254"
       points="240,434.4 236.9,444.5 191.6,421.2 191.6,410.6 "
       style="opacity:1;fill:#ffffff;stroke:#000000;stroke-width:0.5;stroke-miterlimit:10"
       transform="translate(-6.8,-29.600002)" /><polygon
       id="polygon515_2_"
       class="st4242"
       points="984.5,438 987.8,447.2 1007.1,436.3 1006.8,426.3 1009.6,434.8 1029,423.9 1027.8,415.3 1049.1,404.1 1153,325.4 979.7,246.5 774.5,298.3 519.9,357.1 841.7,512.8 984.5,438 "
       style="fill:#19323b"
       transform="translate(-6.8,-29.600002)" /><polygon
       id="polygon517_2_"
       class="st4254"
       points="216,444.5 216,457.7 176.7,436.3 176.7,426.5 "
       style="opacity:1;fill:#ffffff;stroke:#000000;stroke-width:0.5;stroke-miterlimit:10"
       transform="translate(-6.8,-29.600002)" /><polygon
       id="polygon521_2_"
       class="st4254"
       points="203.8,463.2 203.8,474.9 163,453.1 163,441.8 "
       style="opacity:1;fill:#ffffff;stroke:#000000;stroke-width:0.5;stroke-miterlimit:10"
       transform="translate(-6.8,-29.600002)" /><polyline
       id="polyline525_2_"
       class="st4254"
       points="747.4,712 823,653.2 823.2,689.5 838.1,678.4 837.6,642 1083.4,450.9     1358.2,294.7 1357,329 1089.4,490.5 838.1,678.4 821.6,690.7 747.4,746.4   "
       style="opacity:1;fill:#ffffff;stroke:#000000;stroke-width:0.5;stroke-miterlimit:10"
       transform="translate(-6.8,-29.600002)" /><polygon
       id="polygon537_2_"
       class="st4254"
       points="851.8,639.3 853,667.4 951.2,702.9 951.2,676.3 "
       style="opacity:1;fill:#ffffff;stroke:#000000;stroke-width:0.5;stroke-miterlimit:10"
       transform="translate(-6.8,-29.600002)" /><polygon
       id="polygon541_2_"
       class="st4254"
       points="950.9,703.6 832.4,784.5 832.1,753.8 950.9,677 "
       style="opacity:1;fill:#ffffff;stroke:#000000;stroke-width:0.5;stroke-miterlimit:10"
       transform="translate(-6.8,-29.600002)" /><polygon
       id="polygon545_2_"
       class="st4254"
       points="639.2,416.6 719.8,487.2 693.6,496 566.2,438.2 "
       style="opacity:1;fill:#ffffff;stroke:#000000;stroke-width:0.5;stroke-miterlimit:10"
       transform="translate(-6.8,-29.600002)" /><polygon
       id="polygon549_2_"
       class="st4254"
       points="520.1,373.2 979.5,247.4 979.5,213.1 520.1,340.1 "
       style="opacity:1;fill:#ffffff;stroke:#000000;stroke-width:0.5;stroke-miterlimit:10"
       transform="translate(-6.8,-29.600002)" /><polygon
       id="polygon553_2_"
       class="st4254"
       points="236.9,444.5 225.9,450.9 176.5,426.5 191.6,421.2 "
       style="opacity:1;fill:#ffffff;stroke:#000000;stroke-width:0.5;stroke-miterlimit:10"
       transform="translate(-6.8,-29.600002)" /><polygon
       id="polygon557_2_"
       class="st4254"
       points="216,457.7 206.9,465.3 163,441.8 176.7,436.3 "
       style="opacity:1;fill:#ffffff;stroke:#000000;stroke-width:0.5;stroke-miterlimit:10"
       transform="translate(-6.8,-29.600002)" /><polygon
       id="polygon561_2_"
       class="st4254"
       points="617.3,433.9 727.7,484.1 714.8,488.4 605.8,438.7 "
       style="opacity:1;fill:#ffffff;stroke:#000000;stroke-width:0.5;stroke-miterlimit:10"
       transform="translate(-6.8,-29.600002)" /><polygon
       id="polygon565_2_"
       class="st4254"
       points="588.3,440.1 704.2,492.2 715.5,488.4 601,436.1 "
       style="opacity:1;fill:#ffffff;stroke:#000000;stroke-width:0.5;stroke-miterlimit:10"
       transform="translate(-6.8,-29.600002)" /><polygon
       id="polygon569_2_"
       class="st4254"
       points="979,247.7 1229,368 1261.1,349.9 979,212.9 "
       style="opacity:1;fill:#ffffff;stroke:#000000;stroke-width:0.5;stroke-miterlimit:10"
       transform="translate(-6.8,-29.600002)" /><polygon
       id="polygon573_2_"
       class="st4255"
       points="635.8,429.8 782,489.3 760.4,497.7 624.8,436.1 "
       style="fill:#99ad63"
       transform="translate(-6.8,-29.600002)" /><polygon
       id="polygon575_2_"
       class="st4254"
       points="571.5,440.6 692.9,496.3 704,492.2 583.5,436.8 "
       style="opacity:1;fill:#ffffff;stroke:#000000;stroke-width:0.5;stroke-miterlimit:10"
       transform="translate(-6.8,-29.600002)" /><polygon
       id="polygon579_2_"
       class="st4254"
       points="265.7,440.6 228.3,457.7 201.7,444.5 265,414.9 "
       style="opacity:1;fill:#ffffff;stroke:#000000;stroke-width:0.5;stroke-miterlimit:10"
       transform="translate(-6.8,-29.600002)" /><polygon
       id="polygon583_2_"
       class="st4254"
       points="519.9,373.2 841.7,529.9 841.7,495.8 519.9,340.1 "
       style="opacity:1;fill:#ffffff;stroke:#000000;stroke-width:0.5;stroke-miterlimit:10"
       transform="translate(-6.8,-29.600002)" /><polygon
       id="polygon587_2_"
       class="st4254"
       points="201.7,480 831.9,784.5 831.9,754.3 201.7,444.5 "
       style="opacity:1;fill:#ffffff;stroke:#000000;stroke-width:0.5;stroke-miterlimit:10"
       transform="translate(-6.8,-29.600002)" /><polygon
       class="st4254"
       points="1202.4,277.2 1202.4,308.9 1043.1,231.5 1043.7,215.2 1035.5,212.1 1035,227.4 1028,224.1 1028,193.4 "
       id="polygon86"
       style="opacity:1;fill:#ffffff;stroke:#000000;stroke-width:0.5;stroke-miterlimit:10"
       transform="translate(-6.8,-29.600002)" /><polygon
       id="polygon595_2_"
       class="st4254"
       points="1033.5,169.7 1255.5,282 1255.5,251.3 1033.5,140.9 "
       style="opacity:1;fill:#ffffff;stroke:#000000;stroke-width:0.5;stroke-miterlimit:10"
       transform="translate(-6.8,-29.600002)" /><polygon
       id="polygon599_2_"
       class="st4254"
       points="272.7,327.1 272.7,355.2 216,324.2 216,299.5 "
       style="opacity:1;fill:#ffffff;stroke:#000000;stroke-width:0.5;stroke-miterlimit:10"
       transform="translate(-6.8,-29.600002)" /><polygon
       class="st4254"
       points="1153,331.9 1049.1,412.5 1029,423.9 1024.6,409.1 1005.7,419.9 1009.6,434.8 1010.7,434.3 1007.1,436.3 1002.7,421.5 983.8,432.4 987.8,447.2 841.7,529.9 841.7,495.8 1049.1,376.8 1153,297.3 "
       id="polygon90"
       style="opacity:1;fill:#ffffff;stroke:#000000;stroke-width:0.5;stroke-miterlimit:10"
       transform="translate(-6.8,-29.600002)" /><polygon
       id="polygon607_2_"
       class="st4254"
       points="1255.5,251.3 1255.5,281.7 1202.4,308.9 1202.4,277.2 "
       style="opacity:1;fill:#ffffff;stroke:#000000;stroke-width:0.5;stroke-miterlimit:10"
       transform="translate(-6.8,-29.600002)" /><polygon
       id="polygon611_6_"
       class="st4254"
       points="1169.6,208.8 1168.6,236.6 1143.4,249.6 1119.2,237.1 "
       style="opacity:1;fill:#ffffff;stroke:#000000;stroke-width:0.5;stroke-miterlimit:10"
       transform="translate(-6.8,-29.600002)" /><polygon
       id="polygon611_5_"
       class="st4256"
       points="1127.3,188.4 1126.4,216.2 1101.2,229.2 1076.9,216.7 "
       style="opacity:1;fill:#ffffff;stroke:#000000;stroke-width:0.5"
       transform="translate(-6.8,-29.600002)" /><polygon
       id="polygon611_4_"
       class="st4256"
       points="1076.4,217.2 1072.6,245.8 1062.8,251.1 1038.4,240.1 "
       style="opacity:1;fill:#ffffff;stroke:#000000;stroke-width:0.5"
       transform="translate(-6.8,-29.600002)" /><polygon
       id="polygon615_2_"
       class="st4254"
       points="1083.4,193.4 1056.3,207.1 1028,193.4 1083.4,166.3 "
       style="opacity:1;fill:#ffffff;stroke:#000000;stroke-width:0.5;stroke-miterlimit:10"
       transform="translate(-6.8,-29.600002)" /><polyline
       id="polyline619_2_"
       class="st4254"
       points="368.7,311.3 176.7,399.8 176.7,372.5 368.7,281.7   "
       style="opacity:1;fill:#ffffff;stroke:#000000;stroke-width:0.5;stroke-miterlimit:10"
       transform="translate(-6.8,-29.600002)" /><polygon
       id="polygon627_2_"
       class="st4254"
       points="216,299.5 216,324.2 71.1,385.9 71.1,362.9 "
       style="opacity:1;fill:#ffffff;stroke:#000000;stroke-width:0.5;stroke-miterlimit:10"
       transform="translate(-6.8,-29.600002)" /><polygon
       id="polygon631_2_"
       class="st4254"
       points="116.2,399.8 116.2,426.5 71.1,390.2 71.1,362.9 "
       style="opacity:1;fill:#ffffff;stroke:#000000;stroke-width:0.5;stroke-miterlimit:10"
       transform="translate(-6.8,-29.600002)" /><polygon
       id="polygon635_2_"
       class="st4242"
       points="551.8,400.5 714.5,482.4 743.6,473.5 577.5,393.6 "
       style="fill:#19323b"
       transform="translate(-6.8,-29.600002)" /><path
       id="path645_2_"
       class="st4242"
       d="m 889.7,458.9 -55,27.4 C 803.3,470.6 716.2,433.7 716.2,433.7 l -8.6,10.8 106.8,55.7 -67.2,27.8 20.2,7.9 44.2,-18.5 19.7,8.9 88.8,-58.1 -30.4,-9.3 z"
       style="fill:#19323b" /><polygon
       id="polygon647_2_"
       class="st4254"
       points="824.9,523.2 824.9,533.5 721,478.5 720.3,470.4 "
       style="opacity:1;fill:#ffffff;stroke:#000000;stroke-width:0.5;stroke-miterlimit:10"
       transform="translate(-6.8,-29.600002)" /><polygon
       id="polygon663_2_"
       class="st4257"
       points="160.6,410.1 149.8,426.9 144.3,423.3 144.5,444 164.7,435.8 159.7,432.7 170.2,416.4 "
       style="fill:#d29839"
       transform="translate(-6.8,-29.600002)" /><polygon
       id="polygon669_2_"
       class="st4242"
       points="763,543.3 769.2,536.8 719.3,471.8 710.9,476.9 "
       style="fill:#19323b"
       transform="translate(-6.8,-29.600002)" /><polygon
       id="polygon683_2_"
       class="st4254"
       points="551.1,400.3 577.7,393.3 577.7,387.6 551.1,394.8 "
       style="opacity:1;fill:#ffffff;stroke:#000000;stroke-width:0.5;stroke-miterlimit:10"
       transform="translate(-6.8,-29.600002)" /><polygon
       id="polygon687_2_"
       class="st4254"
       points="551.1,401.5 556.8,405.3 556.8,399.3 551.1,395.7 "
       style="opacity:1;fill:#ffffff;stroke:#000000;stroke-width:0.5;stroke-miterlimit:10"
       transform="translate(-6.8,-29.600002)" /><polygon
       id="polygon691_2_"
       class="st4254"
       points="457.5,411.8 557.6,405.1 557.6,399.3 457.5,406.3 "
       style="opacity:1;fill:#ffffff;stroke:#000000;stroke-width:0.5;stroke-miterlimit:10"
       transform="translate(-6.8,-29.600002)" /><polygon
       id="polygon695_2_"
       class="st4254"
       points="557.6,402.7 457.5,409.9 457.5,415.4 557.6,408.5 713.8,482.4 763.2,543.3 762.5,534.4 715.5,476.9 557.6,402.9 "
       style="opacity:1;fill:#ffffff;stroke:#000000;stroke-width:0.5;stroke-miterlimit:10"
       transform="translate(-6.8,-29.600002)" /><polygon
       id="polygon699_6_"
       class="st4254"
       points="777.2,619.6 758,630.2 758,573.8 777.6,564.7 "
       style="opacity:1;fill:#ffffff;stroke:#000000;stroke-width:0.5;stroke-miterlimit:10"
       transform="translate(-6.8,-29.600002)" /><polygon
       id="polygon703_2_"
       class="st4254"
       points="721.2,478.3 769,536.4 769.2,528.9 720,470.1 "
       style="opacity:1;fill:#ffffff;stroke:#000000;stroke-width:0.5;stroke-miterlimit:10"
       transform="translate(-6.8,-29.600002)" /><polygon
       id="polygon707_6_"
       class="st4254"
       points="758,630.2 758,573.6 730.1,562.3 730.1,615.8 "
       style="opacity:1;fill:#ffffff;stroke:#000000;stroke-width:0.5;stroke-miterlimit:10"
       transform="translate(-6.8,-29.600002)" /><polygon
       id="polygon711_6_"
       class="st4254"
       points="777.4,564.7 758.4,573.8 730.1,562.3 750.5,554.1 "
       style="opacity:1;fill:#ffffff;stroke:#000000;stroke-width:0.5;stroke-miterlimit:10"
       transform="translate(-6.8,-29.600002)" /><polygon
       transform="translate(-6.8,-29.600002)"
       style="opacity:1;fill:#ffffff;stroke:#000000;stroke-width:0.5;stroke-miterlimit:10"
       points="611.7,542.1 612.9,561.6 546.1,547.2 545.3,528 "
       class="st4258"
       id="polygon699_5_" /><polygon
       transform="translate(-6.8,-29.600002)"
       style="opacity:1;fill:#ffffff;stroke:#000000;stroke-width:0.5;stroke-miterlimit:10"
       points="642.5,525.3 572.5,511.7 545.3,528 611.9,542.1 "
       class="st4258"
       id="polygon707_5_" /><polygon
       transform="translate(-6.8,-29.600002)"
       style="opacity:1;fill:#ffffff;stroke:#000000;stroke-width:0.5;stroke-miterlimit:10"
       points="642.5,525.3 643,542.4 612.9,561.4 611.7,542.6 "
       class="st4258"
       id="polygon711_5_" /><polygon
       transform="translate(-6.8,-29.600002)"
       style="opacity:1;fill:#ffffff;stroke:#000000;stroke-width:0.5;stroke-miterlimit:10"
       points="467.3,496.9 466,516.4 401.7,493.4 403.4,474.3 "
       class="st4258"
       id="polygon699_2_" /><polygon
       transform="translate(-6.8,-29.600002)"
       style="opacity:1;fill:#ffffff;stroke:#000000;stroke-width:0.5;stroke-miterlimit:10"
       points="500,484.3 432.4,461.7 403.4,474.3 467.6,497 "
       class="st4258"
       id="polygon707_2_" /><polygon
       transform="translate(-6.8,-29.600002)"
       style="opacity:1;fill:#ffffff;stroke:#000000;stroke-width:0.5;stroke-miterlimit:10"
       points="500,484.3 498.3,501.4 466,516.2 467.2,497.4 "
       class="st4258"
       id="polygon711_2_" /><polygon
       id="polygon821_2_"
       class="st4254"
       points="368.7,311.3 461.6,356.6 461.6,327.1 368.7,281.7 "
       style="opacity:1;fill:#ffffff;stroke:#000000;stroke-width:0.5;stroke-miterlimit:10"
       transform="translate(-6.8,-29.600002)" /><path
       id="path825_2_"
       class="st4254"
       d="m 535.9,272.3 -15.4,4.3 -65.8,21.1 0,29 66.5,-20.2 14.6,-4.3 0,-29.9 0.1,0 z m 40.8,18 188.9,-54.7 0,-27.4 -188.9,52.6 0,29.5 0,0 z m 450,-150 0,-28.8 -203.5,80.6 -19.9,5.5 0,27.1 18.7,-5.3 204.7,-79.1 0,0 z m 0,-29 0,0 0.7,0 -0.7,0 z"
       style="opacity:1;fill:#ffffff;stroke:#000000;stroke-width:0.5;stroke-miterlimit:10" /><polygon
       class="st4254"
       points="1035.4,215.4 1039.8,213.7 1035.5,212.1 "
       id="polygon145"
       style="opacity:1;fill:#ffffff;stroke:#000000;stroke-width:0.5;stroke-miterlimit:10"
       transform="translate(-6.8,-29.600002)" /><polygon
       id="rect849_1_"
       class="st4259"
       points="36.8,421.2 37.1,405.3 112.7,405.3 112.7,421.2 138,420.1 138,447.8 16.8,447.8 16.8,421.2 "
       style="fill:#401225"
       transform="translate(-6.8,-29.600002)" /><path
       style="fill:#f6f6f6"
       id="path329"
       d="m 48,386.4 c 0,-1.1 -0.5,-1.7 -1.5,-1.7 l -4.4,0 0,-2.5 5.3,0 c 1.2,0 2.2,0.3 2.9,1 0.7,0.7 1.1,1.8 1.1,3.2 l 0,8.7 -3.3,0 0,-8.7 z"
       class="st4183" /><path
       style="fill:#f6f6f6"
       id="path331"
       d="m 64.8,392.8 0,2.5 -4.8,0 -6,0 0,-2.5 6,0 0,-6.4 c 0,-1.1 -0.5,-1.7 -1.5,-1.7 l -4.5,0 0,-2.5 5.4,0 c 1.2,0 2.2,0.3 2.9,1 0.7,0.7 1,1.8 1,3.2 l 0,6.3 1.5,0 z"
       class="st4183" /><path
       style="fill:#f6f6f6"
       id="path333"
       d="m 78.2,382.3 c 0,3 -0.1,5.3 -0.4,6.8 -0.3,1.5 -0.8,2.8 -1.7,3.9 -0.9,1.1 -2.5,1.8 -4.6,2.2 l -4.9,1 -0.5,-2.6 3.6,-0.7 -2.5,-10.6 3.3,0 2.3,9.9 c 0.7,-0.3 1.2,-0.8 1.5,-1.5 0.3,-0.7 0.5,-1.5 0.6,-2.5 0.1,-1 0.1,-2.4 0.1,-4.4 l 0,-1.5 3.2,0 z"
       class="st4183" /><path
       style="fill:#f6f6f6"
       id="path335"
       d="m 92,393.8 c -1,1.2 -2.4,1.8 -4.1,1.8 -0.6,0 -1.3,-0.1 -2.1,-0.3 l 0.3,-2.5 c 0.6,0.1 1,0.2 1.4,0.2 1,0 1.8,-0.3 2.2,-1 0.4,-0.7 0.7,-1.7 0.7,-3.1 0,-1.5 -0.2,-2.6 -0.6,-3.3 -0.4,-0.7 -1.1,-1 -1.9,-1 -0.6,0 -1.1,0.2 -1.5,0.5 -0.4,0.4 -0.7,0.9 -0.8,1.5 l -1.4,8.6 -3.3,0 1.6,-8.8 -1.8,-4.2 3.4,0 0.9,2.6 c 0.3,-0.9 0.8,-1.6 1.4,-2.1 0.6,-0.5 1.4,-0.7 2.2,-0.7 1.6,0 2.9,0.6 3.7,1.7 0.9,1.1 1.3,2.8 1.3,5 -0.1,2.2 -0.6,3.9 -1.6,5.1 z"
       class="st4183" /><path
       style="fill:#f6f6f6"
       id="path337"
       d="m 21.5,408.9 c 0.6,-0.1 1,-0.2 1.3,-0.3 0.3,-0.2 0.5,-0.4 0.6,-0.7 0.1,-0.3 0.2,-0.7 0.1,-1.3 l 0,-8.9 6.9,0 c 1.2,0 2.2,0.3 2.9,1 0.7,0.7 1,1.8 1,3.2 l 0,8.7 -3.3,0 0,-8.9 c 0,-1.1 -0.5,-1.7 -1.5,-1.7 l -2.7,0 0,6 c 0,1.2 -0.2,2.1 -0.5,2.8 -0.3,0.7 -0.9,1.2 -1.6,1.5 -0.7,0.3 -1.7,0.6 -2.9,0.7 l -0.3,-2.1 z"
       class="st4183" /><path
       style="fill:#f6f6f6"
       id="path339"
       d="m 37.6,400.4 -0.3,-2.7 3.3,0 0.3,2.7 0,10.3 -3.3,0 0,-10.3 z"
       class="st4183" /><path
       style="fill:#f6f6f6"
       id="path341"
       d="m 53.3,397.7 0,2.7 -4.1,10.3 -3.3,0 4.1,-10.6 -6.6,0 0,-5.7 3,0 0,3.3 6.9,0 z"
       class="st4183" /><path
       style="fill:#f6f6f6"
       id="path343"
       d="m 56,400.4 -0.3,-2.7 3.3,0 0.2,2.7 0,10.3 -3.3,0 0,-10.3 z"
       class="st4183" /><path
       style="fill:#f6f6f6"
       id="path345"
       d="m 61.7,408.3 3.6,0 c 0.9,0 1.5,-0.3 1.9,-0.9 0.4,-0.6 0.6,-1.4 0.6,-2.3 l 0,-1.7 c 0,-1 -0.2,-1.7 -0.6,-2.3 -0.4,-0.6 -1.1,-0.9 -1.9,-0.9 l -3.6,0 0,-2.5 4.5,0 c 1.6,0 2.9,0.5 3.7,1.6 0.9,1 1.3,2.5 1.3,4.3 l 0,1.3 c 0,1.8 -0.4,3.2 -1.3,4.3 -0.9,1 -2.1,1.6 -3.7,1.6 l -4.5,0 0,-2.5 z"
       class="st4183" /><path
       style="fill:#f6f6f6"
       id="path347"
       d="m 84.5,408.6 c -1.8,1.6 -4.7,2.4 -8.5,2.4 l -0.7,0 -1.7,-13.2 3.1,0 0.7,5.6 c 0.6,-0.3 1,-0.8 1.2,-1.4 0.2,-0.6 0.3,-1.5 0.3,-2.7 l 0,-1.5 3.1,0 0,1.4 c 0,1.7 -0.4,3 -1,4.1 -0.6,1 -1.8,1.8 -3.4,2.4 l 0.3,2.6 c 2.2,-0.1 3.7,-0.8 4.6,-1.9 0.9,-1.1 1.4,-2.7 1.4,-4.7 l 0,-4 3.3,0 0,3.8 c 0.1,3.2 -0.8,5.5 -2.7,7.1 z"
       class="st4183" /><path
       style="fill:#f6f6f6"
       id="path349"
       d="m 98.6,410.7 -4.3,-6.6 -2,6.6 -3.1,0 2.5,-7.8 0.7,-1.8 -2.1,-3.4 3.3,0 1.8,3 1.6,2.5 0.6,-2.1 0.9,-3.4 3.1,0 -2.7,8.3 3.1,4.7 -3.4,0 z"
       class="st4183" /><path
       style="fill:#f6f6f6"
       id="path351"
       d="m 113.9,397.7 0,2.7 -4.1,10.3 -3.3,0 4.1,-10.6 -6.6,0 0,-5.7 3,0 0,3.3 6.9,0 z"
       class="st4183" /><polygon
       class="st4259"
       points="987.8,447.2 1007.1,436.3 1007.3,436.9 "
       id="polygon353"
       style="fill:#401225"
       transform="translate(-6.8,-29.600002)" /><polygon
       class="st4259"
       points="1010.8,434.2 1029,423.9 1029.1,424.5 "
       id="polygon355"
       style="fill:#401225"
       transform="translate(-6.8,-29.600002)" /></g></svg>