<?xml version="1.0" encoding="UTF-8" standalone="no"?>
<svg
   xmlns:dc="http://purl.org/dc/elements/1.1/"
   xmlns:cc="http://creativecommons.org/ns#"
   xmlns:rdf="http://www.w3.org/1999/02/22-rdf-syntax-ns#"
   xmlns:svg="http://www.w3.org/2000/svg"
   xmlns="http://www.w3.org/2000/svg"
   xmlns:xlink="http://www.w3.org/1999/xlink"
   version="1.1"
   id="svg4620"
   viewBox="0 0 71.599994 39.100001"
   height="39.099998"
   width="71.599998">
  <defs
     id="defs4622">
    <clipPath
       id="SVGID_44_">
      <use
         height="100%"
         width="100%"
         y="0"
         x="0"
         style="overflow:visible"
         xlink:href="#SVGID_43_"
         overflow="visible"
         id="use779" />
    </clipPath>
    <clipPath
       id="SVGID_46_">
      <use
         height="100%"
         width="100%"
         y="0"
         x="0"
         style="overflow:visible"
         xlink:href="#SVGID_45_"
         overflow="visible"
         id="use789" />
    </clipPath>
    <pattern
       id="EMFhbasepattern"
       patternUnits="userSpaceOnUse"
       width="6"
       height="6"
       x="0"
       y="0" />
  </defs>
  <metadata
     id="metadata4625">
    <rdf:RDF>
      <cc:Work
         rdf:about="">
        <dc:format>image/svg+xml</dc:format>
        <dc:type
           rdf:resource="http://purl.org/dc/dcmitype/StillImage" />
        <dc:title></dc:title>
      </cc:Work>
    </rdf:RDF>
  </metadata>
  <g
     transform="translate(-304.20001,-458.52648)"
     id="layer1">
    <rect
       style="fill:#141132"
       x="304.20001"
       y="458.52649"
       width="71.599998"
       height="13"
       id="rect769" />
    <path
       style="fill:#d91378"
       d="m 310.30005,463.22648 0,7.6 -1.5,0 0,-6.4 -1.2,0 0,-1.2 2.7,0 z m 4,0 0,5.8 -1.5,0 0,-4.6 -1,0 0,-1.2 2.5,0 z m 7,2 c -0.1,0.2 -0.1,0.4 -0.2,0.6 -0.1,0.2 -0.1,0.4 -0.2,0.5 -0.1,0.1 -0.2,0.3 -0.3,0.4 -0.1,0.1 -0.3,0.3 -0.4,0.4 l 1.2,1.4 -1,0.9 -2.9,-3.4 c -0.1,0.1 -0.1,0.2 -0.1,0.4 0,0.2 -0.1,0.3 -0.1,0.5 0,0.2 0,0.4 0,0.6 0,0.2 0,0.4 0,0.5 0,0.1 0,0.1 0,0.2 0,0.1 0,0.2 0,0.3 0,0.1 0,0.2 0,0.3 0,0.1 0,0.2 0,0.3 l -1.4,0 c 0,-0.1 0,-0.2 0,-0.3 0,-0.1 0,-0.3 0,-0.4 0,-0.1 0,-0.3 0,-0.5 0,-0.2 0,-0.4 0,-0.6 0,-0.2 0,-0.4 0,-0.6 0,-0.2 0.1,-0.4 0.1,-0.6 0.1,-0.2 0.1,-0.4 0.2,-0.5 0.1,-0.2 0.2,-0.3 0.4,-0.5 -0.1,-0.1 -0.2,-0.2 -0.3,-0.4 -0.1,-0.1 -0.1,-0.2 -0.2,-0.4 -0.1,-0.1 -0.1,-0.3 -0.2,-0.4 -0.1,-0.1 -0.1,-0.3 -0.2,-0.5 0.2,-0.1 0.4,-0.2 0.7,-0.3 0.2,-0.1 0.5,-0.2 0.7,-0.2 0.1,0.2 0.2,0.4 0.2,0.6 0.1,0.2 0.2,0.3 0.2,0.5 0.1,0.1 0.2,0.3 0.3,0.4 0.1,0.1 0.2,0.3 0.4,0.5 l 1.1,1.2 c 0.1,-0.1 0.2,-0.2 0.2,-0.3 0.1,-0.1 0.1,-0.3 0.2,-0.4 0,-0.1 0,-0.1 0.1,-0.2 0,-0.1 0,-0.2 0.1,-0.2 l 0.1,-0.7 -0.8,-0.1 0.2,-1.2 2.1,0.4 0,0.7 -0.2,1.1 z m 6.6,0.2 0,1.1 -4.6,0 0,-1.1 4.6,0 z m 3.7,-1 c -0.2,0 -0.4,0 -0.5,0 -0.1,0 -0.3,0 -0.4,0 -0.1,0 -0.3,0 -0.4,-0.1 -0.1,0 -0.3,-0.1 -0.5,-0.1 0.1,-0.2 0.1,-0.4 0.2,-0.6 0.1,-0.2 0.1,-0.4 0.2,-0.6 0.2,0 0.3,0.1 0.5,0.1 0.1,0 0.2,0.1 0.4,0.1 0.1,0 0.2,0 0.4,0 0.1,0 0.3,0 0.4,0 l 0.2,0 3.3,0 c 0,0.1 0,0.1 0.1,0.2 0,0.1 0,0.1 0,0.2 0,0.1 0,0.2 0,0.3 0,0.1 0,0.2 0,0.3 l 0,1.2 c 0,0.2 0,0.4 0,0.6 0,0.2 -0.1,0.3 -0.1,0.5 0,0.2 -0.1,0.3 -0.2,0.5 -0.1,0.1 -0.2,0.3 -0.3,0.5 -0.1,0.1 -0.2,0.3 -0.3,0.5 -0.1,0.2 -0.3,0.4 -0.5,0.6 -0.2,0.2 -0.3,0.4 -0.5,0.6 -0.2,0.2 -0.3,0.3 -0.4,0.5 l -1.1,-0.9 0.8,-0.9 c 0.2,-0.2 0.4,-0.4 0.5,-0.6 0.1,-0.2 0.2,-0.3 0.3,-0.4 0.1,-0.1 0.1,-0.2 0.2,-0.3 0,-0.1 0.1,-0.2 0.1,-0.3 0,-0.1 0,-0.2 0.1,-0.3 0,-0.1 0,-0.2 0,-0.3 l 0,-1 -2.5,0 z m -1.7,3 c 0,-0.2 0,-0.3 0,-0.4 0,-0.1 0,-0.3 0,-0.4 0,-0.1 0,-0.2 0,-0.4 0,-0.1 0,-0.2 0.1,-0.4 0.3,0 0.5,0.1 0.8,0.1 0.3,0 0.5,0.1 0.8,0.2 0,0.2 -0.1,0.4 -0.1,0.6 0,0.2 0,0.5 0,0.7 l 0,3.4 -1.6,0 0,-3.4 z m 9.4,-4.2 0,5.8 -1.5,0 0,-4.6 -1,0 0,-1.2 2.5,0 z m 4.1,0 0,5.8 -1.5,0 0,-4.6 -1,0 0,-1.2 2.5,0 z m 10.2,2 c -0.1,0.2 -0.1,0.4 -0.2,0.6 -0.1,0.2 -0.1,0.4 -0.2,0.5 -0.1,0.1 -0.2,0.3 -0.3,0.4 -0.1,0.1 -0.3,0.3 -0.4,0.4 l 1.2,1.4 -1,0.9 -2.9,-3.4 c -0.1,0.1 -0.1,0.2 -0.1,0.4 0,0.2 -0.1,0.3 -0.1,0.5 0,0.2 0,0.4 0,0.6 0,0.2 0,0.4 0,0.5 0,0.1 0,0.1 0,0.2 0,0.1 0,0.2 0,0.3 0,0.1 0,0.2 0,0.3 0,0.1 0,0.2 0,0.3 l -1.4,0 c 0,-0.1 0,-0.2 0,-0.3 0,-0.1 0,-0.3 0,-0.4 0,-0.1 0,-0.3 0,-0.5 0,-0.2 0,-0.4 0,-0.6 0,-0.2 0,-0.4 0,-0.6 0,-0.2 0.1,-0.4 0.1,-0.6 0.1,-0.2 0.1,-0.4 0.2,-0.5 0.1,-0.2 0.2,-0.3 0.4,-0.5 -0.1,-0.1 -0.2,-0.2 -0.3,-0.4 -0.1,-0.1 -0.1,-0.2 -0.2,-0.4 -0.1,-0.1 -0.1,-0.3 -0.2,-0.4 -0.1,-0.1 -0.1,-0.3 -0.2,-0.5 0.2,-0.1 0.4,-0.2 0.7,-0.3 0.2,-0.1 0.5,-0.2 0.7,-0.2 0.1,0.2 0.2,0.4 0.2,0.6 0.1,0.2 0.2,0.3 0.2,0.5 0.1,0.1 0.2,0.3 0.3,0.4 0.1,0.1 0.2,0.3 0.4,0.5 l 1.1,1.2 c 0.1,-0.1 0.2,-0.2 0.2,-0.3 0.1,-0.1 0.1,-0.3 0.2,-0.4 0,-0.1 0,-0.1 0.1,-0.2 0,-0.1 0,-0.2 0.1,-0.2 l 0.1,-0.7 -0.8,-0.1 0.2,-1.2 2.1,0.4 0,0.7 -0.2,1.1 z m 4.2,-2 0,5.8 -1.5,0 0,-4.6 -1,0 0,-1.2 2.5,0 z m 3.2,1.2 c -0.2,0 -0.4,0 -0.5,0 -0.1,0 -0.3,0 -0.4,0 -0.1,0 -0.3,0 -0.4,-0.1 -0.1,0 -0.3,-0.1 -0.5,-0.1 0.1,-0.2 0.1,-0.4 0.2,-0.6 0.1,-0.2 0.1,-0.4 0.2,-0.6 0.2,0.1 0.4,0.1 0.5,0.1 0.1,0 0.3,0.1 0.4,0.1 0.1,0 0.3,0 0.4,0 0.1,0 0.3,0 0.5,0 l 3.2,0 0,1.2 -1.1,0 0,4.6 -1.6,0 0,-4.6 -0.9,0 z m 7.4,-1.2 0,2.1 c 0,0.2 0,0.4 0,0.5 0,0.1 0,0.3 0,0.4 0,0.1 0,0.2 0,0.3 0,0.1 0,0.2 -0.1,0.3 l -1.5,-0.2 c 0,-0.1 0,-0.2 0.1,-0.3 0,-0.1 0,-0.2 0,-0.3 0,-0.1 0,-0.2 0,-0.4 0,-0.1 0,-0.3 0,-0.5 l 0,-0.8 -1.3,0 0,-1.2 2.8,0 z m 3.9,0 0,5.8 -1.5,0 0,-4.6 -1,0 0,-1.2 2.5,0 z"
       id="path771" />
    <g
       id="g4668"
       transform="translate(0.09991612,0)">
      <g
         id="g773"
         transform="translate(-148.09995,-84.97352)">
        <defs
           id="defs775">
          <rect
             height="1157.5"
             width="554"
             y="79.099998"
             x="24.700001"
             id="SVGID_43_" />
        </defs>
        <clipPath
           id="clipPath6995">
          <use
             id="use6997"
             overflow="visible"
             xlink:href="#SVGID_43_"
             style="overflow:visible"
             x="0"
             y="0"
             width="100%"
             height="100%" />
        </clipPath>
        <path
           id="path781"
           d="m 495.8,566.5 c 0,4.3 -7.8,16.1 -7.8,16.1 0,0 -7.8,-11.8 -7.8,-16.1 0,-4.3 3.5,-7.8 7.8,-7.8 4.4,0 7.8,3.5 7.8,7.8"
           clip-path="url(#SVGID_44_)"
           style="fill:#fcb65a;fill-opacity:1" />
      </g>
      <g
         id="g783"
         transform="translate(-148.09995,-84.97352)">
        <defs
           id="defs785">
          <rect
             height="9.1000004"
             width="9.1000004"
             y="561.79999"
             x="484.29999"
             id="SVGID_45_" />
        </defs>
        <clipPath
           id="clipPath7003">
          <use
             id="use7005"
             overflow="visible"
             xlink:href="#SVGID_45_"
             style="overflow:visible"
             x="0"
             y="0"
             width="100%"
             height="100%" />
        </clipPath>
        <path
           id="path791"
           d="m 491.1,566.1 0,3.7 -5.7,0 0,-5.8 3.7,0 1.1,-1.1 -6,0 0,8 8,0 0,-6 -1.1,1.2 z m -4,0.8 -0.4,1.6 1.6,-0.4 4,-4 -1.2,-1.2 -4,4 z m 6.1,-4.9 c 0.3,0.3 0.3,0.9 0,1.2 l -0.4,0.4 -1.2,-1.2 0.4,-0.4 c 0.3,-0.3 0.8,-0.3 1.2,0"
           clip-path="url(#SVGID_46_)"
           style="fill:#ffffff" />
      </g>
    </g>
  </g>
  <g
     id="g4230">
    <path
       id="path4169"
       d="m 26.87103,14.268874 c 0.236044,0.15735 0.472088,0.3934 0.629448,0.550762 0.15735,0.236043 0.314737,0.472087 0.472087,0.708127 0.0787,0.314737 0.236044,0.550765 0.314737,0.865491 0,0.3147 0.0787,0.629441 0.0787,0.944163 0,0.314738 -0.0787,0.629441 -0.0787,0.944163 -0.0787,0.236044 -0.236043,0.55077 -0.314737,0.786814 -0.15735,0.236043 -0.314737,0.472075 -0.472087,0.708119 -0.15735,0.236044 -0.393404,0.393408 -0.629448,0.55077 l -0.472087,-0.15735 c 0.15735,-0.236044 0.314737,-0.472088 0.393405,-0.708131 0.15735,-0.15735 0.236044,-0.393397 0.314736,-0.629441 0.0787,-0.236043 0.15735,-0.472087 0.15735,-0.708131 0.0787,-0.236043 0.0787,-0.472075 0.0787,-0.786798 0,-0.314737 0,-0.629452 -0.0787,-0.865496 0,-0.236042 -0.0787,-0.472075 -0.15735,-0.708118 -0.0787,-0.236044 -0.15735,-0.393405 -0.314736,-0.629445 -0.0787,-0.236044 -0.236044,-0.393405 -0.393405,-0.629444 l 0.472087,-0.236044 z"
       style="fill:#141132;fill-opacity:1;fill-rule:nonzero;stroke:none" />
    <path
       id="path4171"
       d="m 22.700925,16.393254 c -0.0787,0 -0.236043,0 -0.314737,0 -0.0787,0 -0.15735,0 -0.314736,0 -0.0787,0 -0.157351,-0.0787 -0.236044,-0.0787 -0.0787,0 -0.235932,-0.0787 -0.314626,-0.0787 0,-0.15735 0.0787,-0.314737 0.0787,-0.393409 0.0787,-0.157349 0.0787,-0.314737 0.157276,-0.472087 0.15735,0.0787 0.236042,0.0787 0.314736,0.0787 0.0787,0.0787 0.15735,0.0787 0.236044,0.0787 0.0787,0 0.15735,0 0.236043,0 0.0787,0 0.15735,0 0.314738,0 l 0.0787,0 2.360435,0 c 0,0.0787 0,0.15735 0,0.15735 0,0.0787 0,0.0787 0,0.0787 0.0787,0.0787 0.0787,0.15735 0.0787,0.236043 0,0.0787 0,0.0787 0,0.157351 l 0,0.865484 c 0,0.15735 0,0.314736 -0.0787,0.393404 0,0.15735 0,0.236043 -0.0787,0.314737 0,0.15735 -0.0787,0.236044 -0.0787,0.3147 -0.0787,0.15735 -0.15735,0.236044 -0.236044,0.314737 0,0.15735 -0.0787,0.236044 -0.236043,0.393409 -0.0787,0.0787 -0.15735,0.236043 -0.314737,0.314737 -0.0787,0.15735 -0.15735,0.3147 -0.314737,0.393393 -0.0787,0.15735 -0.15735,0.236044 -0.314737,0.314737 l -0.708131,-0.629436 0.55077,-0.55077 c 0.0787,-0.15735 0.236043,-0.314737 0.314737,-0.393405 0.0787,-0.0787 0.15735,-0.236044 0.236044,-0.314737 0,-0.07865 0.0787,-0.15735 0.0787,-0.15735 0,-0.0787 0.0787,-0.15735 0.0787,-0.236044 0,-0.0787 0,-0.0787 0,-0.15735 0,-0.0787 0,-0.15735 0,-0.236043 l 0,-0.70812 -1.573626,0 z m -1.180113,1.967009 c 0,-0.0787 0,-0.15735 0,-0.236044 0,-0.15735 0,-0.236044 0,-0.3147 0,-0.0787 0.0787,-0.15735 0.0787,-0.236043 0,-0.0787 0,-0.15735 0,-0.236044 0.235933,0 0.393301,0 0.550667,0.0787 0.157349,0 0.314736,0 0.550765,0.0787 -0.0787,0.15735 -0.0787,0.314738 -0.0787,0.393394 0,0.15735 0,0.314737 0,0.550769 l 0,2.360414 -1.101431,0 0,-2.439096 z"
       style="fill:#141132;fill-opacity:1;fill-rule:nonzero;stroke:none" />
    <path
       id="path4173"
       d="m 20.497959,15.527763 0,4.012706 -1.101539,0 0,-3.147215 -0.629448,0 0,-0.865491 1.730987,0 z"
       style="fill:#141132;fill-opacity:1;fill-rule:nonzero;stroke:none" />
    <path
       id="path4175"
       d="m 13.731376,15.842486 c 0.15735,-0.0787 0.314737,-0.157351 0.393404,-0.236044 0.15735,-0.0787 0.314738,-0.15735 0.472088,-0.236044 0.0787,0.0787 0.0787,0.15735 0.15735,0.236044 0,0 0.0787,0.0787 0.0787,0.15735 0.0787,0.0787 0.0787,0.0787 0.0787,0.15735 0.0787,0.0787 0.0787,0.0787 0.0787,0.15735 0.236043,-0.236044 0.472087,-0.393405 0.70813,-0.472087 0.236044,-0.0787 0.472088,-0.15735 0.708131,-0.15735 0.15735,0 0.314737,0 0.472086,0.0787 0.15735,0.0787 0.236044,0.15735 0.393409,0.236044 0.0787,0.0787 0.236043,0.15735 0.314737,0.314737 0.0787,0.15735 0.15735,0.314736 0.15735,0.47208 0,0.157349 0.0787,0.314737 0.0787,0.472087 0,0.15735 0,0.393404 0,0.550765 l 0,0.3147 c 0,0.0787 0,0.236043 0,0.393405 0,0.15735 0,0.314737 0,0.472087 0,0.15735 0,0.314737 -0.0787,0.472087 0,0 0,0.07865 0,0.15735 0,0.0787 0,0.0787 0,0.15735 l -2.045713,0 0,-0.786802 1.022857,0 c 0,-0.0787 0,-0.0787 0,-0.0787 0,-0.0787 0,-0.15735 0,-0.236043 0.0787,-0.0787 0.0787,-0.15735 0.0787,-0.236044 l 0,-0.472076 0,-0.236043 c 0,-0.0787 0,-0.15735 0,-0.236044 0,-0.0787 0,-0.15735 0,-0.236044 0,-0.0787 -0.0787,-0.0787 -0.0787,-0.157349 0,-0.236044 -0.0787,-0.393405 -0.15735,-0.472076 -0.0787,-0.0787 -0.236043,-0.0787 -0.393405,-0.0787 -0.0787,0 -0.236043,0 -0.314737,0 -0.0787,0.0787 -0.15735,0.15735 -0.314737,0.15735 0,0.0787 -0.0787,0.15735 -0.15735,0.15735 -0.0787,0.0787 -0.0787,0.15735 -0.15735,0.15735 0,0.314737 -0.0787,0.550769 -0.0787,0.786813 l -0.0787,0.550758 c -0.0787,0.0787 -0.0787,0.236044 -0.0787,0.393405 0,0.0787 -0.0787,0.236044 -0.0787,0.314737 0,0.0787 0,0.236044 0,0.314737 -0.0787,0.15735 -0.0787,0.314699 -0.0787,0.472075 l -1.101536,0 0.15735,-0.708118 c 0,-0.157351 0,-0.314737 0.0787,-0.472087 0,-0.15735 0,-0.314738 0,-0.393405 0.0787,-0.15735 0.0787,-0.3147 0.0787,-0.472076 0.0787,-0.15735 0.0787,-0.314737 0.0787,-0.472087 0,-0.0787 0.0787,-0.0787 0.0787,-0.15735 0,0 0,-0.0787 0,-0.0787 0,-0.0787 0,-0.15735 -0.0787,-0.236043 0,0 0,-0.0787 0,-0.15735 0,0 -0.0787,-0.07865 -0.0787,-0.15735 -0.0787,0 -0.0787,-0.0787 -0.0787,-0.15735 L 13.73135,15.842455 Z"
       style="fill:#141132;fill-opacity:1;fill-rule:nonzero;stroke:none" />
    <path
       id="path4177"
       d="m 10.426797,16.393254 c -0.0787,0 -0.236044,0 -0.314738,0 -0.0787,0 -0.2360429,0 -0.3147368,0 -0.078696,0 -0.15735,-0.0787 -0.2360439,-0.0787 -0.1573501,0 -0.2360429,-0.0787 -0.3934037,-0.0787 0.078696,-0.15735 0.1573489,-0.314737 0.1573489,-0.393409 0.078696,-0.157349 0.078696,-0.314737 0.15735,-0.472087 0.078696,0.0787 0.236044,0.0787 0.3147001,0.15735 0.078696,0 0.15735,0 0.2360444,0 0.15735,0 0.236043,0 0.314736,0 0.0787,0 0.236044,0 0.314737,0 l 0.865462,0 c 0.157351,0 0.314737,0.0787 0.472087,0.0787 0.15735,0.0787 0.314738,0.0787 0.393405,0.236043 0.15735,0.0787 0.236044,0.236044 0.314737,0.393409 0.0787,0.15735 0.0787,0.393393 0.0787,0.629437 l 0,2.675139 -1.022852,0 0,-2.360413 c 0,-0.15735 0,-0.314737 0,-0.393408 0,-0.0787 -0.0787,-0.15735 -0.0787,-0.236044 -0.0787,-0.0787 -0.15735,-0.0787 -0.236044,-0.15735 -0.0787,0 -0.236042,0 -0.393408,0 l -0.629418,0 z m -1.1802069,1.967009 c 0,-0.0787 0,-0.15735 0,-0.236044 0,-0.15735 0,-0.236044 0,-0.3147 0,-0.0787 0,-0.15735 0.078696,-0.236043 0,-0.0787 0,-0.15735 0,-0.236044 0.1573489,0 0.3933972,0 0.550758,0.0787 0.1573498,0 0.3147368,0 0.4720868,0.0787 0,0.15735 0,0.314738 0,0.393394 -0.0787,0.15735 -0.0787,0.314737 -0.0787,0.550769 l 0,1.101525 -1.0228449,0 0,-1.180207 z"
       style="fill:#141132;fill-opacity:1;fill-rule:nonzero;stroke:none" />
    <path
       id="path4179"
       d="m 23.409056,23.474508 c 0.0787,-0.15735 0.0787,-0.236043 0.15735,-0.393405 0,-0.15735 0.0787,-0.314737 0.0787,-0.393408 l 1.494943,0.393408 0.0787,0.236044 c 0,0.0787 0,0.15735 0,0.3147 -0.0787,0.15735 -0.0787,0.314737 -0.157351,0.550766 0,0.15735 -0.0787,0.314736 -0.157348,0.472086 -0.0787,0.3147 -0.236044,0.55074 -0.39341,0.786784 -0.0787,0.236043 -0.236042,0.472087 -0.472086,0.629448 -0.15735,0.15735 -0.314737,0.314737 -0.550766,0.472086 -0.236044,0.15735 -0.472087,0.236044 -0.629452,0.393405 -0.236044,0.0787 -0.472087,0.15735 -0.708131,0.236044 -0.236042,0.0787 -0.550662,0.15735 -0.786704,0.236044 L 21.12745,26.464335 c 0.236044,0 0.472086,-0.0787 0.708027,-0.15735 0.236043,-0.0787 0.472087,-0.15735 0.629447,-0.236043 -0.0787,-0.393404 -0.236043,-0.70813 -0.314736,-1.022853 -0.15735,-0.3147 -0.314737,-0.629418 -0.393405,-1.022826 -0.07858,0 -0.07858,-0.0787 -0.07858,-0.157351 0,0 -0.0787,-0.0787 -0.0787,-0.0787 0,0 -0.0787,-0.0787 -0.0787,-0.0787 -0.0787,0 -0.0787,0 -0.15735,-0.0787 l -0.472086,-0.15735 c 0.0787,-0.15735 0.15735,-0.314737 0.236044,-0.393405 l 0.15735,-0.393404 c 0.0787,0 0.15735,0.0787 0.236042,0.0787 0.0787,0 0.15735,0.0787 0.235933,0.0787 0.15735,0.0787 0.314737,0.0787 0.393404,0.15735 0.0787,0.0787 0.15735,0.0787 0.236044,0.15735 0,0.0787 0.0787,0.15735 0.15735,0.236043 0,0 0.0787,0.0787 0.0787,0.15735 0.0787,0.15735 0.0787,0.314737 0.15735,0.393405 0,0.15735 0.0787,0.236043 0.15735,0.393404 0,0.15735 0.0787,0.314737 0.157349,0.55074 0.0787,0.15735 0.15735,0.393405 0.236044,0.708131 0.0787,-0.15735 0.236044,-0.236044 0.314737,-0.393409 0.0787,-0.0787 0.15735,-0.236043 0.15735,-0.393404 0.0787,-0.15735 0.15735,-0.3147 0.236043,-0.550736 0.0787,-0.15735 0.0787,-0.393408 0.0787,-0.55077 l -0.708131,-0.236043 z"
       style="fill:#141132;fill-opacity:1;fill-rule:nonzero;stroke:none" />
    <path
       id="path4181"
       d="m 17.98016,21.664853 0,1.180207 2.203073,0 c 0,0 0,0.0787 0,0.15735 0,0 0.0787,0.0787 0.0787,0.0787 0,0.0787 0,0.15735 0,0.15735 0,0.0787 0,0.15735 0,0.236044 l 0,0.786802 c 0,0.314737 -0.0787,0.629414 -0.15735,0.865458 -0.15735,0.314737 -0.314737,0.550769 -0.550769,0.786813 l -1.022853,1.101539 -0.708134,-0.629452 0.393408,-0.472087 c 0.236044,-0.236044 0.393404,-0.393405 0.472086,-0.550766 0.15735,-0.0787 0.236044,-0.236044 0.314738,-0.314736 0.0787,-0.15735 0.15735,-0.236044 0.15735,-0.3147 0,-0.15735 0.0787,-0.236044 0.0787,-0.39341 l 0,-0.708129 -2.281756,0 0,-1.967009 1.022857,0 z"
       style="fill:#141132;fill-opacity:1;fill-rule:nonzero;stroke:none" />
    <path
       id="path4183"
       d="m 16.091811,22.84506 0,1.41625 c 0,0.15735 0,0.314736 0,0.393404 0,0.0787 0,0.15735 0,0.236007 0,0.0787 -0.0787,0.15735 -0.0787,0.236044 0,0.0787 0,0.15735 0,0.236042 l -1.101535,-0.15735 c 0.0787,-0.0787 0.0787,-0.15735 0.0787,-0.236042 0,-0.0787 0,-0.0787 0,-0.157351 0,-0.07865 0,-0.157313 0,-0.236006 0.0787,-0.15735 0.0787,-0.236044 0.0787,-0.393409 l 0,-0.550765 -0.944175,0 0,-0.786802 1.967031,0 z"
       style="fill:#141132;fill-opacity:1;fill-rule:nonzero;stroke:none" />
    <path
       id="path4185"
       d="m 13.259288,22.84506 0,4.012698 -1.101534,0 0,-3.225896 -0.629452,0 0,-0.786802 1.730986,0 z"
       style="fill:#141132;fill-opacity:1;fill-rule:nonzero;stroke:none" />
    <path
       id="path4187"
       d="m 10.269435,22.84506 0,0.550766 c 0,0 0,0.0787 0.0787,0.15735 0,0 0,0.0787 0,0.15735 0,0.0787 0,0.236043 0,0.314737 0.0787,0.15735 0.0787,0.314736 0.0787,0.472086 0,0.15735 0.0787,0.393376 0.0787,0.629419 0,0.236044 0.0787,0.472087 0.0787,0.786813 0,0.0787 0,0.15735 0,0.15735 0,0 0,0.0787 0,0.0787 0,0.0787 0,0.15735 0,0.15735 0,0.0787 0,0.15735 0,0.15735 0,0.0787 0,0.0787 -0.0787,0.15735 0,0.0787 0,0.15735 0,0.236043 l -2.5964563,0 0,-0.865492 1.6522937,0 c 0,-0.0787 0,-0.15735 0,-0.236043 0,-0.15735 0,-0.314738 -0.078696,-0.472088 0,-0.157349 0,-0.314737 0,-0.472087 -0.078696,-0.15735 -0.078696,-0.3147 -0.078696,-0.472056 0,-0.15735 -0.078696,-0.314738 -0.078696,-0.393405 0,-0.15735 0,-0.236044 0,-0.314738 l -1.0228567,0 0,-0.786801 1.9670196,0 z"
       style="fill:#141132;fill-opacity:1;fill-rule:nonzero;stroke:none" />
    <path
       id="path4189"
       d="m 4.7617924,23.631862 c -0.1573499,0 -0.2360435,0 -0.314737,0 -0.15735,0 -0.2360435,0 -0.3147371,0 -0.078694,0 -0.1573499,0 -0.3146999,-0.0787 -0.078694,0 -0.15735,0 -0.3147371,-0.07865 0.078694,-0.15735 0.078694,-0.236044 0.15735,-0.393409 0,-0.15735 0.078694,-0.314737 0.1573499,-0.393405 0.078694,0 0.2360435,0.0787 0.3146999,0.0787 0.078694,0 0.15735,0 0.2360435,0 0.078694,0.0787 0.2360436,0.0787 0.3147371,0.0787 0.078694,0 0.15735,0 0.314737,0 l 0.8654806,0 c 0.1573499,0 0.3147371,0 0.472087,0 0.15735,0.0787 0.2360435,0.15735 0.3934083,0.236043 0.1573501,0.0787 0.2360435,0.236044 0.3147,0.393405 0.078694,0.15735 0.078694,0.393397 0.078694,0.70812 l 0,2.675131 -1.0228454,0 0,-2.439088 c 0,-0.15735 0,-0.314737 0,-0.393404 -0.078694,-0.0787 -0.078694,-0.15735 -0.1573499,-0.236044 0,-0.0787 -0.078694,-0.0787 -0.15735,-0.0787 -0.078694,-0.0787 -0.2360435,-0.0787 -0.3933971,-0.0787 l -0.6294482,0 z M 3.581586,25.677541 c 0,-0.15735 0,-0.236043 0,-0.314737 0,-0.0787 0,-0.15735 0,-0.314737 0,-0.0787 0,-0.15735 0,-0.236044 0,-0.07865 0.078694,-0.15735 0.078694,-0.236006 0.1573499,0 0.3147371,0 0.5507582,0.0787 0.1573501,0 0.3147371,0.0787 0.4720872,0.0787 0,0.157314 -0.078694,0.314701 -0.078694,0.472054 0,0.0787 0,0.314738 0,0.472088 l 0,1.180217 -1.0228454,0 0,-1.180217 z"
       style="fill:#141132;fill-opacity:1;fill-rule:nonzero;stroke:none" />
    <path
       id="path4191"
       d="M 1.8506101,27.644568 C 1.6932602,27.487218 1.4572092,27.251163 1.2998482,27.015119 1.1424981,26.85777 0.98511107,26.621716 0.82776482,26.30699 0.67041491,26.070946 0.59172132,25.834902 0.51302772,25.520176 c -0.0786939,-0.314737 -0.0786939,-0.629448 -0.0786939,-0.94414 0,-0.314737 0,-0.629452 0.0786939,-0.944174 0.0786939,-0.3147 0.15734992,-0.550759 0.3147371,-0.786802 C 0.98511474,22.530322 1.1425019,22.29429 1.2998482,22.136929 1.4571981,21.900885 1.693249,21.664853 1.8506101,21.507488 l 0.5507695,0.236044 c -0.1573499,0.236044 -0.3147371,0.472076 -0.3934047,0.629441 -0.1573499,0.236043 -0.2360435,0.472087 -0.314737,0.70813 -0.078694,0.15735 -0.15735,0.393405 -0.15735,0.70812 -0.078694,0.236043 -0.078694,0.472087 -0.078694,0.786813 0,0.3147 0,0.550736 0.078694,0.865462 0,0.236043 0.078694,0.472087 0.15735,0.629448 0.078694,0.236044 0.1573499,0.472086 0.314737,0.70813 0.078694,0.15735 0.2360436,0.393405 0.3934047,0.629448 l -0.5507695,0.236044 z"
       style="fill:#141132;fill-opacity:1;fill-rule:nonzero;stroke:none" />
  </g>
</svg>
