<?xml version="1.0" encoding="UTF-8" standalone="no"?>
<svg
   xmlns:dc="http://purl.org/dc/elements/1.1/"
   xmlns:cc="http://creativecommons.org/ns#"
   xmlns:rdf="http://www.w3.org/1999/02/22-rdf-syntax-ns#"
   xmlns:svg="http://www.w3.org/2000/svg"
   xmlns="http://www.w3.org/2000/svg"
   width="83.735336mm"
   height="87.263115mm"
   viewBox="0 0 296.70001 309.20001"
   id="svg7594"
   version="1.1">
  <defs
     id="defs7596" />
  <metadata
     id="metadata7599">
    <rdf:RDF>
      <cc:Work
         rdf:about="">
        <dc:format>image/svg+xml</dc:format>
        <dc:type
           rdf:resource="http://purl.org/dc/dcmitype/StillImage" />
        <dc:title></dc:title>
      </cc:Work>
    </rdf:RDF>
  </metadata>
  <g
     id="layer1"
     transform="translate(-223.07857,-392.04791)">
    <rect
       id="rect807_1_"
       x="223.07857"
       y="392.04791"
       class="st13"
       width="296.70001"
       height="198.5"
       style="fill:#6f4d80" />
    <g
       id="g8278"
       transform="translate(-2.45001,0)">
      <path
         style="fill:#f8b119;fill-opacity:1"
         d="m 405.97858,635.14792 c 0,17.6 -32.1,66.1 -32.1,66.1 0,0 -32.1,-48.5 -32.1,-66.1 0,-17.6 14.5,-32.1 32.1,-32.1 17.8,0 32.1,14.3 32.1,32.1"
         class="st13"
         id="path819_8_" />
      <g
         transform="translate(-1768.79,364.19717)"
         id="g829_1_">
        <g
           id="XMLID_1448_">
          <g
             id="XMLID_1449_">
            <g
               id="XMLID_1450_">
              <g
                 id="XMLID_1451_">
                <path
                   style="opacity:1;fill:#ffffff;enable-background:new"
                   d="m 2150.9,265.2 c -1.7,-0.8 -2.8,-1.7 -4.2,-2.5 0.8,-1.2 2.5,-3.3 2,-5 0,-0.3 -0.3,-1.2 -0.8,-1.7 -0.3,-0.3 -0.8,-0.3 -1.2,-0.3 -0.8,0 -2,0.8 -2.8,1.2 0,-0.3 0,-0.3 0,-0.8 0.3,-2 1.2,-3.7 2.8,-3.7 l 0,0 c 1.7,0 3.7,1.2 4.2,3.7 1.3,2.8 0.9,5.8 0,9.1 m -5.3,-3.8 c -0.3,-0.8 -0.8,-1.7 -1.2,-2.5 0.3,-1.2 1.2,-2 2,-2 0.3,0 0.3,0 0.3,0 0.3,0 0.3,0.3 0.3,0.8 0.8,1.2 -0.6,2.5 -1.4,3.7 m -2,1.6 -1.2,0.8 0.3,-1.7 c 0,-0.3 0.3,-1.2 0.8,-2 0.3,0.3 0.8,1.2 1.2,1.7 -0.8,0.9 -1.1,1.2 -1.1,1.2 m 16,13.6 c 0,-0.3 -2.8,-8.1 -6.6,-10.3 -0.3,0 -0.3,-0.3 -0.8,-0.3 1.2,-3.7 1.7,-7 0.8,-9.8 -0.9,-2.8 -3.3,-5 -5.8,-4.5 -2,0 -3.7,2 -4.2,4.5 0,0.8 0,1.7 0,2.5 -0.3,0.8 -0.8,1.2 -0.8,1.7 l -19.3,30.4 c 0,0.3 -0.3,0.3 0,0.8 l 0,0.3 0.3,0 c 0.3,0 0.3,-0.3 0.8,-0.3 l 22.3,-27.6 c 1.2,1.2 3.3,2 4.5,2.8 -0.8,2 -1.7,4.5 -2.5,7 -2.8,7 -1.7,12.8 0.3,14 l 0.3,0 c 0,0 0.3,0 0.3,-0.3 0,-0.3 0,-0.8 0,-0.8 -1.7,-0.8 -2.8,-6.1 0,-12.3 1.2,-2.5 2,-5 2.5,-7 0,0 0.3,0 0.3,0.3 3.3,1.7 6.1,9.5 6.1,9.5 0,0.3 0.3,0.3 0.8,0.3 0.3,-0.5 0.7,-0.9 0.7,-0.9"
                   class="st32"
                   id="path837_1_" />
              </g>
            </g>
          </g>
        </g>
      </g>
    </g>
    <g
       id="XMLID_1202_"
       transform="translate(-1826.9214,129.14792)">
      <g
         id="XMLID_1704_">
        <path
           id="XMLID_1778_"
           class="st12"
           d="m 2080.6,278.9 -0.5,-4.5 5.6,0 0.5,4.5 0,6.1 0,2.5 -5.6,1 0,-9.6 z"
           style="fill:#f58020" />
        <path
           id="XMLID_1777_"
           class="st12"
           d="m 2091.7,278.9 -0.5,-4.5 5.6,0 0.5,4.5 0,6.1 0,2.5 -5.6,1 0,-9.6 z"
           style="fill:#f58020" />
        <path
           id="XMLID_1776_"
           class="st12"
           d="m 2118.5,274.2 0,4.7 -7,17.8 -5.6,0 7,-18.1 -11.3,0 0,-10 5.1,0 0,5.6 11.8,0 z"
           style="fill:#f58020" />
        <path
           id="XMLID_1775_"
           class="st12"
           d="m 2122.8,292.3 7.8,0 c 1.5,0 2.7,-0.5 3.5,-1.5 0.8,-1 1.3,-2.3 1.3,-4 l 0,-2.8 c 0,-1.7 -0.3,-3 -1.2,-4 -0.7,-1 -1.8,-1.5 -3.3,-1.5 l -2.8,0 -0.7,3.3 c 0,0.3 -0.2,0.7 -0.2,1 0,0.7 0.2,1.2 0.7,1.5 0.3,0.3 1,0.7 2,0.8 l -0.8,3.5 c -2.3,0 -4,-0.5 -5,-1.5 -1,-1 -1.5,-2.3 -1.5,-4 0,-0.7 0,-1.2 0.2,-1.7 l 1.5,-7 8.3,0 c 2.7,0 4.8,0.8 6.3,2.7 1.5,1.9 2.3,4.2 2.3,7.3 l 0,2.3 c 0,3.2 -0.8,5.6 -2.5,7.3 -1.7,1.8 -3.8,2.7 -6.6,2.7 l -9.1,0 0,-4.5 -0.2,0 z"
           style="fill:#f58020" />
        <path
           id="XMLID_1772_"
           class="st12"
           d="m 2161,293.7 c -3,2 -7.5,3.2 -13.1,3.3 l -2.2,-18.4 -0.5,-4.2 12,0 c 2.5,0 4.5,0.7 6,2.2 1.5,1.5 2.2,3.5 2.2,6 l 0,1.3 c -0.1,4.4 -1.4,7.8 -4.4,9.8 z m -4,-2.9 c 1,-0.7 1.7,-1.5 2.2,-2.7 0.3,-1.2 0.5,-2.7 0.5,-4.5 l 0,-1.2 c 0,-1.2 -0.3,-2.2 -0.8,-2.8 -0.5,-0.7 -1.3,-1 -2.2,-1 l -5.3,0 1.5,13.5 c 1.6,-0.3 3.1,-0.6 4.1,-1.3 z"
           style="fill:#f58020" />
        <path
           id="XMLID_1771_"
           class="st12"
           d="m 2170.5,278.9 -0.5,-4.5 5.6,0 0.5,4.5 0,17.8 -5.6,0 0,-17.8 z"
           style="fill:#f58020" />
        <path
           id="XMLID_1768_"
           class="st12"
           d="m 2180.8,285.7 0.8,-2.7 4.8,0 0,21.4 -5.6,0 0,-18.7 z m 7.9,6.6 c 1.8,-0.2 3.2,-0.8 4,-1.8 0.8,-1 1.3,-2.8 1.5,-5.3 l 0.5,-6.8 -13.6,0 0,-4.2 19.6,0 -0.2,3.7 -0.5,5.8 c -0.5,8.5 -4.2,12.8 -11,12.8 l -0.3,-4.2 z"
           style="fill:#f58020" />
        <path
           id="XMLID_1765_"
           class="st12"
           d="m 2231.3,276.1 c 1.2,1.2 1.8,3 1.8,5.5 l 0,15 -5.6,0 -12.3,0 -1.2,0 0,-22.3 5.6,0 6.6,0 c 2.2,-0.1 3.9,0.6 5.1,1.8 z m -3.9,16.2 0,-11 c 0,-1.8 -0.8,-2.8 -2.7,-2.8 l -5.1,0 0,13.8 7.8,0 z"
           style="fill:#f58020" />
        <path
           id="XMLID_1764_"
           class="st12"
           d="m 2255.3,276.2 c 1.2,1.3 1.8,3.2 1.8,5.6 l 0,14.8 -5.6,0 0,-15 c 0,-2 -0.8,-3 -2.7,-3 l -5.1,0 0,18.1 -5.6,0 0,-19.9 0,-2.7 12.3,0 c 2.1,0.1 3.8,0.8 4.9,2.1 z"
           style="fill:#f58020" />
        <path
           id="XMLID_1763_"
           class="st12"
           d="m 2260.8,293.5 c 1,-0.2 1.7,-0.3 2.2,-0.7 0.5,-0.3 0.8,-0.7 1,-1.2 0.2,-0.5 0.3,-1.2 0.2,-2.2 l 0,-15.3 11.8,0 c 2.2,0 3.7,0.7 5,1.8 1.2,1.2 1.8,3 1.8,5.5 l 0,15 -5.6,0 0,-15.3 c 0,-1.8 -0.8,-2.8 -2.7,-2.8 l -4.7,0 0,10.3 c 0,2 -0.3,3.5 -1,4.7 -0.7,1.2 -1.5,2 -2.8,2.7 -1.3,0.7 -2.8,1 -5,1.2 l -0.2,-3.7 z"
           style="fill:#f58020" />
        <path
           id="XMLID_1762_"
           class="st12"
           d="m 2307,294 c -1.7,2 -4,3.2 -7.1,3.2 -1.2,0 -2.3,-0.2 -3.7,-0.5 l 0.5,-4.2 c 1,0.2 1.8,0.3 2.5,0.3 1.8,0 3,-0.7 3.8,-1.8 0.8,-1.1 1.2,-3 1.2,-5.3 0,-2.7 -0.3,-4.5 -1,-5.6 -0.7,-1.2 -1.8,-1.7 -3.3,-1.7 -1,0 -2,0.3 -2.7,1 -0.7,0.7 -1.2,1.5 -1.3,2.5 l -2.5,14.8 -5.6,0 2.7,-15 -3.2,-7.3 5.8,0 1.5,4.5 c 0.5,-1.7 1.3,-2.8 2.5,-3.7 1.2,-0.9 2.3,-1.2 3.8,-1.2 2.8,0 5,1 6.3,2.8 1.5,2 2.2,4.8 2.2,8.6 0.1,3.6 -0.7,6.6 -2.4,8.6 z"
           style="fill:#f58020" />
        <path
           id="XMLID_1761_"
           class="st12"
           d="m 2078.1,300.5 0,-2 232.9,0 0,2 -232.9,0 z"
           style="fill:#f58020" />
        <path
           id="XMLID_1760_"
           class="st12"
           d="m 2103.8,319.9 -0.5,-4.2 3.7,0 0.5,4.2 0,5.3 0,2.2 -3.7,0.7 0,-8.2 z"
           style="fill:#f58020" />
        <path
           id="XMLID_1759_"
           class="st12"
           d="m 2113.1,319.9 -0.5,-4.2 3.7,0 0.5,4.2 0,5.3 0,2.2 -3.7,0.7 0,-8.2 z"
           style="fill:#f58020" />
        <path
           id="XMLID_1758_"
           class="st12"
           d="m 2135.6,315.9 0,3.2 -6.6,16.6 -3.8,0 6.6,-16.8 -10.6,0 0,-8.3 3.5,0 0,5.5 11,0 0,-0.2 z"
           style="fill:#f58020" />
        <path
           id="XMLID_1757_"
           class="st12"
           d="m 2140.2,332.7 6.3,0 c 1.7,0 2.8,-0.5 3.8,-1.5 1,-1 1.3,-2.5 1.3,-4.3 l 0,-2.3 c 0,-1.8 -0.3,-3.3 -1.2,-4.3 -0.9,-1 -1.8,-1.5 -3.3,-1.5 l -3.2,0 -0.8,3.5 c -0.2,0.5 -0.2,1 -0.2,1.3 0,0.7 0.2,1.3 0.7,1.7 0.3,0.3 1,0.7 2,0.8 l -0.7,2.5 c -1.8,-0.2 -3.2,-0.5 -4,-1.3 -0.8,-0.8 -1.3,-2 -1.3,-3.3 0,-0.7 0,-1.3 0.2,-1.8 l 1.3,-6 6.6,0 c 2.3,0 4.2,0.8 5.5,2.3 1.3,1.5 2,3.7 2,6.5 l 0,2 c 0,3 -0.8,5.1 -2.3,6.6 -1.5,1.5 -3.5,2.3 -6,2.3 l -7.1,0 0,-3.2 0.4,0 z"
           style="fill:#f58020" />
        <path
           id="XMLID_1754_"
           class="st12"
           d="m 2173.1,333 c -2.7,1.8 -6.3,2.8 -11,3 l -2,-17.3 -0.3,-2.8 10.1,0 c 2.2,0 3.8,0.7 5.1,2 1.2,1.3 1.8,3 2,5.3 l 0,1.2 c -0.1,3.8 -1.4,6.8 -3.9,8.6 z m -1.8,-2.6 c 1.3,-1.3 2,-3.3 1.8,-6.1 l 0,-1 c 0,-1.3 -0.3,-2.3 -1,-3.2 -0.7,-0.8 -1.5,-1.2 -2.7,-1.2 l -5.6,0 1.7,13.8 c 2.5,-0.3 4.5,-1.2 5.8,-2.3 z"
           style="fill:#f58020" />
        <path
           id="XMLID_1753_"
           class="st12"
           d="m 2181.9,319.9 -0.5,-4.2 3.7,0 0.5,4.2 0,15.8 -3.8,0 0,-15.8 0.1,0 z"
           style="fill:#f58020" />
        <path
           id="XMLID_1750_"
           class="st12"
           d="m 2190.6,325.7 0.5,-2.3 3.2,0 0,19.3 -3.8,0 0,-16.9 0.1,0 z m 6.3,7 c 1.2,-0.2 2.2,-0.3 2.8,-0.8 0.8,-0.5 1.5,-1.2 1.8,-2.2 0.5,-1 0.8,-2.5 0.8,-4.2 l 0.5,-6.8 -12.5,0 0,-2.8 16.4,0 -0.2,2.5 -0.5,6.3 c -0.2,3.5 -1,6.1 -2.5,8 -1.5,1.9 -3.8,2.8 -6.6,3 l 0,-3 z"
           style="fill:#f58020" />
        <path
           id="XMLID_1749_"
           class="st12"
           d="m 2219.8,319.9 -0.5,-4.2 3.7,0 0.5,4.2 0,22.6 -3.8,0 0,-22.6 0.1,0 z"
           style="fill:#f58020" />
        <path
           id="XMLID_1748_"
           class="st12"
           d="m 2229.1,319.9 -0.5,-4.2 3.7,0 0.5,4.2 0,15.8 -3.8,0 0,-15.8 0.1,0 z"
           style="fill:#f58020" />
        <path
           id="XMLID_1745_"
           class="st12"
           d="m 2237.9,325.7 0.5,-2.3 3.2,0 0,19.3 -3.8,0 0,-16.9 0.1,0 z m 6.3,7 c 1.2,-0.2 2.2,-0.3 2.8,-0.8 0.8,-0.5 1.5,-1.2 1.8,-2.2 0.5,-1 0.8,-2.5 0.8,-4.2 l 0.5,-6.8 -12.5,0 0,-2.8 16.4,0 -0.2,2.5 -0.5,6.3 c -0.2,3.5 -1,6.1 -2.5,8 -1.5,1.9 -3.8,2.8 -6.6,3 l 0,-3 z"
           style="fill:#f58020" />
        <path
           id="XMLID_1744_"
           class="st12"
           d="m 2259.3,319.9 -0.5,-4.2 3.7,0 0.5,4.2 0,5.3 0,2.2 -3.7,0.7 0,-8.2 z"
           style="fill:#f58020" />
        <path
           id="XMLID_1743_"
           class="st12"
           d="m 2266.8,333.5 c 1.3,-0.2 2.3,-0.5 2.7,-1.2 0.5,-0.7 0.7,-1.5 0.7,-2.8 l 0,-13.8 9.5,0 c 1.8,0 3.3,0.5 4.3,1.7 1,1 1.7,2.7 1.7,5 l 0,13.3 -3.8,0 0,-13.3 c 0,-1.2 -0.3,-2.2 -0.8,-2.7 -0.5,-0.5 -1.3,-0.8 -2.3,-0.8 l -4.8,0 0,10.5 c 0,2.3 -0.5,4 -1.7,5 -1,1 -2.8,1.7 -5.3,2 l 0,-2.9 z"
           style="fill:#f58020" />
        <path
           id="XMLID_1742_"
           class="st12"
           d="m 2112.2,358.9 -0.5,-4.2 3.7,0 0.5,4.2 0,22.6 -3.8,0 0,-22.6 0.1,0 z"
           style="fill:#f58020" />
        <path
           id="XMLID_1741_"
           class="st12"
           d="m 2121.5,358.9 -0.5,-4.2 3.7,0 0.5,4.2 0,15.6 -3.7,0 0,-15.6 z"
           style="fill:#f58020" />
        <path
           id="XMLID_1740_"
           class="st12"
           d="m 2143.7,374.6 -7.3,-11.1 -3.5,11.1 -3.7,0 3.8,-12.1 1,-2.5 -3.2,-5.1 3.8,0 3,4.8 3,4.5 0.8,-3 1.8,-6.1 3.7,0 -4.2,12.5 4.8,7.3 -4,0 0,-0.3 z"
           style="fill:#f58020" />
        <path
           id="XMLID_1737_"
           class="st12"
           d="m 2151.5,364.8 0.5,-2.3 3.2,0 0,19.3 -3.8,0 0,-16.9 0.1,0 z m 6.3,6.9 c 1.2,-0.2 2.2,-0.3 2.8,-0.8 0.8,-0.5 1.5,-1.2 1.8,-2.2 0.3,-1 0.8,-2.5 0.8,-4.2 l 0.5,-6.8 -12.5,0 0,-2.7 16.4,0 -0.2,2.5 -0.5,6.3 c -0.2,3.5 -1,6.1 -2.5,8 -1.5,1.8 -3.8,2.8 -6.6,3 l 0,-3.1 z"
           style="fill:#f58020" />
        <path
           id="XMLID_1736_"
           class="st12"
           d="m 2173,358.9 -0.5,-4.2 3.7,0 0.5,4.2 0,15.6 -3.7,0 0,-15.6 z"
           style="fill:#f58020" />
        <path
           id="XMLID_1735_"
           class="st12"
           d="m 2182.3,358.9 -0.5,-4.2 3.7,0 0.5,4.2 0,15.6 -3.8,0 0,-15.6 0.1,0 z"
           style="fill:#f58020" />
        <path
           id="XMLID_1734_"
           class="st12"
           d="m 2198.5,355 3.8,0 1.8,16.6 c 5.5,-0.5 8,-3.3 7.8,-8.5 l 0,-1 c 0,-1.3 -0.3,-2.3 -1,-3.2 -0.7,-0.8 -1.7,-1.3 -3,-1.3 l -1.8,-0.2 0.3,-3 2,0.2 c 2.2,0.2 3.8,0.8 5,2 1.3,1.2 2,2.8 2,5 l 0,1 c 0.2,4.2 -1.2,7.1 -3.8,9.1 -2.7,2 -6.3,3 -11.1,3.3 l -2,-20 z"
           style="fill:#f58020" />
        <path
           id="XMLID_1733_"
           class="st12"
           d="m 2220.3,358.9 -0.5,-4.2 3.7,0 0.5,4.2 0,15.6 -3.8,0 0,-15.6 0.1,0 z"
           style="fill:#f58020" />
        <path
           id="XMLID_1732_"
           class="st12"
           d="m 2229.6,371.7 6.3,0 c 1.7,0 2.8,-0.5 3.8,-1.5 1,-1 1.3,-2.5 1.3,-4.3 l 0,-2.3 c 0,-1.8 -0.3,-3.3 -1.2,-4.3 -0.9,-1 -1.8,-1.5 -3.3,-1.5 l -3.2,0 -0.8,3.5 c -0.2,0.5 -0.2,1 -0.2,1.3 0,0.7 0.2,1.3 0.7,1.7 0.3,0.3 1,0.7 2,0.8 l -0.7,2.5 c -1.8,-0.2 -3.2,-0.5 -4,-1.3 -0.8,-0.8 -1.3,-2 -1.3,-3.3 0,-0.7 0,-1.3 0.2,-1.8 l 1.3,-6 6.6,0 c 2.3,0 4.2,0.8 5.5,2.3 1.3,1.5 2,3.7 2,6.5 l 0,2 c 0,3 -0.8,5.1 -2.3,6.6 -1.5,1.5 -3.5,2.3 -6,2.3 l -7.1,0 0,-3.2 0.4,0 z"
           style="fill:#f58020" />
        <path
           id="XMLID_1731_"
           class="st12"
           d="m 2249.9,358.9 -0.5,-4.2 3.7,0 0.5,4.2 0,5.3 0,2.2 -3.7,0.7 0,-8.2 z"
           style="fill:#f58020" />
        <path
           id="XMLID_1730_"
           class="st12"
           d="m 2273.8,371.4 c -2.8,2.5 -7.1,3.7 -13,3.7 l -2.5,-20.1 3.7,0 1.2,9.3 c 1.3,-0.7 2.2,-1.5 2.7,-2.5 0.5,-1 0.7,-2.7 0.8,-4.7 l 0,-2.1 3.7,0 0,2.2 c 0,2.7 -0.5,4.7 -1.5,6.1 -1,1.5 -2.7,2.8 -5,3.8 l 0.5,4.8 c 3.5,-0.2 6.1,-1.3 7.8,-3.2 1.7,-1.8 2.5,-4.7 2.5,-8.1 l 0,-5.6 3.8,0 0,5.5 c -0.6,4.8 -1.9,8.4 -4.7,10.9 z"
           style="fill:#f58020" />
        <path
           id="XMLID_1729_"
           class="st12"
           d="m 2114.5,398 -0.5,-4.2 3.7,0 0.5,4.2 0,22.6 -3.8,0 0,-22.6 0.1,0 z"
           style="fill:#f58020" />
        <path
           id="XMLID_1728_"
           class="st12"
           d="m 2123.8,398 -0.5,-4.2 3.7,0 0.5,4.2 0,15.6 -3.8,0 0,-15.6 0.1,0 z"
           style="fill:#f58020" />
        <path
           id="XMLID_1727_"
           class="st12"
           d="m 2146.2,413.6 -7.3,-11.1 -3.5,11.1 -3.7,0 3.8,-12.1 1,-2.5 -3.2,-5.1 3.8,0 3,4.8 3,4.5 0.8,-3 1.8,-6.1 3.7,0 -4.2,12.5 4.8,7.3 -4,0 0,-0.3 z"
           style="fill:#f58020" />
        <path
           id="XMLID_1724_"
           class="st12"
           d="m 2154,403.8 0.5,-2.3 3.2,0 0,19.3 -3.8,0 0,-16.9 0.1,0 z m 6.3,7 c 1.2,-0.2 2.2,-0.3 2.8,-0.8 0.8,-0.5 1.5,-1.2 1.8,-2.2 0.3,-1 0.8,-2.5 0.8,-4.2 l 0.5,-6.8 -12.5,0 0,-2.8 16.4,0 -0.2,2.5 -0.5,6.3 c -0.2,3.5 -1,6.1 -2.5,8 -1.5,1.8 -3.8,2.8 -6.6,3 l 0,-3 z"
           style="fill:#f58020" />
        <path
           id="XMLID_1723_"
           class="st12"
           d="m 2175.4,398 -0.5,-4.2 3.7,0 0.5,4.2 0,15.6 -3.8,0 0,-15.6 0.1,0 z"
           style="fill:#f58020" />
        <path
           id="XMLID_1722_"
           class="st12"
           d="m 2184.7,398 -0.5,-4.2 3.7,0 0.5,4.2 0,15.6 -3.8,0 0,-15.6 0.1,0 z"
           style="fill:#f58020" />
        <path
           id="XMLID_1721_"
           class="st12"
           d="m 2214.8,413.6 -7.3,-11.1 -3.5,11.1 -3.7,0 3.8,-12.1 1,-2.5 -3.2,-5.1 3.8,0 3,4.8 3,4.5 0.8,-3 1.8,-6.1 3.7,0 -4.2,12.5 4.8,7.3 -4,0 0,-0.3 z"
           style="fill:#f58020" />
        <path
           id="XMLID_1720_"
           class="st12"
           d="m 2223.5,398 -0.5,-4.2 3.7,0 0.5,4.2 0,15.6 -3.8,0 0,-15.6 0.1,0 z"
           style="fill:#f58020" />
        <path
           id="XMLID_1719_"
           class="st12"
           d="m 2240.4,401 c 0,-1.8 0.3,-3.2 1,-4.2 l -9.5,0 0,-2.8 15.6,0 0,2.8 -2.7,0 c -0.5,1 -0.8,2.3 -0.8,4.2 l 0,12.8 -3.8,0 0,-12.8 0.2,0 z"
           style="fill:#f58020" />
        <path
           id="XMLID_1718_"
           class="st12"
           d="m 2252.5,398 -0.5,-4.2 3.7,0 0.5,4.2 0,5.3 0,2.2 -3.7,0.7 0,-8.2 z"
           style="fill:#f58020" />
        <path
           id="XMLID_1717_"
           class="st12"
           d="m 2261.8,398 -0.5,-4.2 3.7,0 0.5,4.2 0,15.6 -3.8,0 0,-15.6 0.1,0 z"
           style="fill:#f58020" />
        <path
           id="XMLID_1716_"
           class="st12"
           d="m 2271.1,398 -0.5,-4.2 3.7,0 0.5,4.2 0,15.6 -3.8,0 0,-15.6 0.1,0 z"
           style="fill:#f58020" />
        <path
           id="XMLID_1713_"
           class="st12"
           d="m 2136.1,434.5 c 1,1 1.7,2.7 1.7,5 l 0,13.1 -3.8,0 -11.5,0 -1,0 0,-19.8 3.8,0 6.5,0 c 1.8,0.2 3.3,0.7 4.3,1.7 z m -2.2,15.3 0,-10.5 c 0,-1.2 -0.3,-2.2 -0.8,-2.7 -0.5,-0.5 -1.3,-0.8 -2.3,-0.8 l -5.5,0 0,14 8.6,0 0,0 z"
           style="fill:#f58020" />
        <path
           id="XMLID_1712_"
           class="st12"
           d="m 2143.1,437 -0.5,-4.2 3.7,0 0.5,4.2 0,15.6 -3.7,0 0,-15.6 z"
           style="fill:#f58020" />
        <path
           id="XMLID_1711_"
           class="st12"
           d="m 2165.6,433 0,3.2 -6.6,16.6 -3.8,0 6.6,-16.8 -10.5,0 0,-8.3 3.5,0 0,5.5 10.8,0 0,-0.2 z"
           style="fill:#f58020" />
        <path
           id="XMLID_1710_"
           class="st12"
           d="m 2170.3,437 -0.5,-4.2 3.7,0 0.5,4.2 0,5.3 0,2.2 -3.7,0.7 0,-8.2 z"
           style="fill:#f58020" />
        <path
           id="XMLID_1709_"
           class="st12"
           d="m 2189.4,444.2 5,8.5 -3.8,0 -12.1,0 0,-2.8 10.3,0 -9.8,-16.8 3.8,0 4.5,7.8 3.3,-7.8 3.8,0 -5,11.1 z"
           style="fill:#f58020" />
        <path
           id="XMLID_1708_"
           class="st12"
           d="m 2205.5,450.6 c 1.3,-0.2 2.3,-0.5 2.7,-1.2 0.5,-0.7 0.7,-1.5 0.7,-2.8 l 0,-13.8 9.5,0 c 1.8,0 3.3,0.5 4.3,1.7 1,1 1.7,2.7 1.7,5 l 0,13.1 -3.8,0 0,-13.3 c 0,-1.2 -0.3,-2.2 -0.8,-2.7 -0.5,-0.5 -1.3,-0.8 -2.3,-0.8 l -4.8,0 0,10.5 c 0,2.3 -0.5,4 -1.7,5 -1,1 -2.8,1.7 -5.3,2 l -0.2,-2.7 z"
           style="fill:#f58020" />
        <path
           id="XMLID_1707_"
           class="st12"
           d="m 2228.9,449.8 5.6,0 0,-11 c 0,-1 -0.2,-1.7 -0.7,-2.2 -0.3,-0.5 -1,-0.7 -1.8,-0.8 l -2.3,-0.3 0.5,-2.8 3.7,0.5 c 1.3,0.2 2.5,0.8 3.3,1.8 0.8,1 1.2,2.3 1.2,3.8 l 0,14 -9.5,0 0,-3 z"
           style="fill:#f58020" />
        <path
           id="XMLID_1706_"
           class="st12"
           d="m 2243.9,437 -0.5,-4.2 3.7,0 0.5,4.2 0,5.3 0,2.2 -3.7,0.7 0,-8.2 z"
           style="fill:#f58020" />
        <path
           id="XMLID_1705_"
           class="st12"
           d="m 2253,449.8 6.3,0 c 1.7,0 2.8,-0.5 3.8,-1.5 1,-1 1.3,-2.5 1.3,-4.3 l 0,-2.3 c 0,-1.8 -0.3,-3.3 -1.2,-4.3 -0.8,-1 -1.8,-1.5 -3.3,-1.5 l -3.2,0 -0.8,3.5 c -0.2,0.5 -0.2,1 -0.2,1.3 0,0.7 0.2,1.3 0.7,1.7 0.3,0.3 1,0.7 2,0.8 l -0.7,2.5 c -1.8,-0.2 -3.2,-0.5 -4,-1.3 -0.8,-0.8 -1.3,-2 -1.3,-3.3 0,-0.7 0,-1.3 0.2,-1.8 l 1.3,-6 6.6,0 c 2.3,0 4.2,0.8 5.5,2.3 1.3,1.5 2,3.7 2,6.5 l 0,2 c 0,3 -0.8,5.1 -2.3,6.6 -1.5,1.5 -3.5,2.3 -6,2.3 l -7.1,0 0,-3.2 0.4,0 z"
           style="fill:#f58020" />
      </g>
    </g>
  </g>
</svg>
