<?xml version="1.0" encoding="UTF-8" standalone="no"?>
<svg
   xmlns:dc="http://purl.org/dc/elements/1.1/"
   xmlns:cc="http://creativecommons.org/ns#"
   xmlns:rdf="http://www.w3.org/1999/02/22-rdf-syntax-ns#"
   xmlns:svg="http://www.w3.org/2000/svg"
   xmlns="http://www.w3.org/2000/svg"
   width="144.8"
   height="158.89999"
   viewBox="0 0 38.311667 42.042291"
   version="1.1"
   id="svg5465">
  <defs
     id="defs5459" />
  <metadata
     id="metadata5462">
    <rdf:RDF>
      <cc:Work
         rdf:about="">
        <dc:format>image/svg+xml</dc:format>
        <dc:type
           rdf:resource="http://purl.org/dc/dcmitype/StillImage" />
        <dc:title></dc:title>
      </cc:Work>
    </rdf:RDF>
  </metadata>
  <g
     id="layer1"
     transform="translate(-90.219138,-126.30028)">
    <g
       id="g2522"
       transform="matrix(0.26458333,0,0,0.26458333,-432.09482,44.014867)">
      <path
         style="fill:#ec2426;fill-opacity:1"
         id="path429_1_"
         class="st2"
         d="m 2069.7,422.3 c 0,12.7 -23.2,47.6 -23.2,47.6 0,0 -23.2,-34.9 -23.2,-47.6 0,-12.7 10.4,-23.2 23.2,-23.2 12.9,0.2 23.2,10.5 23.2,23.2" />
      <rect
         style="fill:#ec2426"
         id="rect311_3_"
         x="1975.9"
         y="311"
         class="st2"
         width="143"
         height="80.699997" />
      <g
         id="g1449">
        <g
           id="g1447">
          <path
             style="fill:#fffffd"
             class="st11"
             d="m 2011.1,332 c 0.5,0.8 0.8,1.7 0.8,2.7 0,1.2 -0.3,2.1 -0.9,3 -0.6,0.9 -1.4,1.5 -2.5,1.9 -1,0.4 -2.2,0.7 -3.5,0.7 -1.1,0 -2.2,-0.2 -3.2,-0.6 -1,-0.4 -1.8,-1 -2.4,-1.8 -0.6,-0.8 -0.9,-1.8 -0.9,-3.1 h 4.1 c 0,0.4 0.1,0.8 0.3,1.1 0.2,0.3 0.5,0.6 0.9,0.8 0.4,0.2 0.8,0.3 1.3,0.3 0.6,0 1,-0.1 1.4,-0.3 0.4,-0.2 0.7,-0.5 0.9,-0.8 0.2,-0.4 0.3,-0.8 0.3,-1.2 0,-0.9 -0.2,-1.6 -0.7,-2 -0.5,-0.4 -1.2,-0.6 -2.2,-0.6 h -2.1 v -2.1 -1 h 2.1 c 0.9,0 1.5,-0.2 2,-0.7 0.4,-0.4 0.7,-1 0.7,-1.8 0,-0.6 -0.2,-1.2 -0.6,-1.6 -0.4,-0.4 -1,-0.6 -1.8,-0.6 -0.4,0 -0.8,0.1 -1.2,0.2 -0.4,0.1 -0.6,0.4 -0.9,0.7 -0.2,0.3 -0.3,0.6 -0.3,1 h -4 c 0,-1 0.3,-1.9 0.8,-2.7 0.6,-0.8 1.3,-1.4 2.3,-1.8 1,-0.4 2,-0.6 3.2,-0.6 1.3,0 2.5,0.2 3.4,0.6 1,0.4 1.8,1 2.3,1.8 0.5,0.8 0.8,1.8 0.8,2.9 0,0.8 -0.3,1.6 -0.8,2.4 -0.5,0.7 -1.2,1.3 -2.1,1.7 1.2,0.2 1.9,0.7 2.5,1.5 z"
             id="path1433" />
          <path
             style="fill:#fffffd"
             class="st11"
             d="m 2021.8,324.4 h 13.4 V 340 h -13.4 z m 9.2,12.4 v -9 h -4.9 v 9 z"
             id="path1435" />
          <path
             style="fill:#fffffd"
             class="st11"
             d="m 2040.3,327.7 h -2.4 v -3.3 h 6.6 v 8.9 h -4.2 z"
             id="path1437" />
          <path
             style="fill:#fffffd"
             class="st11"
             d="m 2048.9,340.2 c -0.5,-0.1 -1,-0.2 -1.6,-0.3 v -3.2 c 0.6,0.1 1.3,0.1 1.9,0.1 0.6,0 1,-0.2 1.3,-0.5 0.3,-0.3 0.4,-0.8 0.4,-1.5 v -7.2 h -2.7 v -3.3 h 7 v 10.8 c 0,1 -0.2,2 -0.6,2.7 -0.4,0.8 -0.9,1.3 -1.7,1.7 -0.7,0.4 -1.6,0.6 -2.6,0.6 -0.5,0.2 -0.9,0.2 -1.4,0.1 z"
             id="path1439" />
          <path
             style="fill:#fffffd"
             class="st11"
             d="m 2064.6,329.8 c 0,-0.7 -0.2,-1.2 -0.6,-1.5 -0.4,-0.4 -0.9,-0.5 -1.7,-0.5 h -4.7 v -3.3 h 5 c 1.3,0 2.4,0.2 3.3,0.7 0.9,0.4 1.6,1.1 2.1,1.9 0.5,0.8 0.7,1.8 0.7,3 v 10 h -4.2 v -10.3 z"
             id="path1441" />
          <path
             style="fill:#fffffd"
             class="st11"
             d="m 2072.8,327.7 h -1.3 v -3.3 h 5.6 V 340 h -4.2 v -12.3 z"
             id="path1443" />
          <path
             style="fill:#fffffd"
             class="st11"
             d="m 2091.4,333.5 4.5,6.5 h -4.7 l -5.7,-8.2 c -0.2,0.3 -0.4,0.8 -0.4,1.3 v 7 H 2081 V 335 c 0,-1.4 0.2,-2.6 0.7,-3.5 0.4,-0.9 1.2,-1.5 2.1,-2 l -3.4,-5 h 4.7 l 3.7,5.3 2.5,-5.3 h 4.7 z"
             id="path1445" />
        </g>
      </g>
      <path
         style="fill:#fbf2de"
         id="path973_3_"
         class="st3"
         d="m 2056.5,417.2 c -1.2,0 -2.1,-0.8 -2.1,-2.1 0,-1.2 0.8,-2.1 2.1,-2.1 1.3,0 2.1,0.8 2.1,2.1 -0.1,1.2 -0.9,2.1 -2.1,2.1 m -3.9,4.8 c -1.2,0 -2.1,-0.8 -2.1,-2.1 0,-1.2 0.8,-2.1 2.1,-2.1 1.3,0 2.1,0.8 2.1,2.1 -0.1,1.2 -1,2.1 -2.1,2.1 m -7.9,-3.9 c 0,0.6 -0.6,1.2 -1.2,1.2 h -2.7 v 2.7 c 0,0.6 -0.6,1.2 -1.2,1.2 h -0.8 c -0.6,0 -1.2,-0.6 -1.2,-1.2 v -2.7 h -2.7 c -0.6,0 -1.2,-0.6 -1.2,-1.2 v -0.8 c 0,-0.6 0.6,-1.2 1.2,-1.2 h 2.7 v -2.7 c 0,-0.6 0.6,-1.2 1.2,-1.2 h 0.8 c 0.6,0 1.2,0.6 1.2,1.2 v 2.7 h 2.7 c 0.6,0 1.2,0.6 1.2,1.2 z m 19.5,0.6 c -1.8,-8.1 -4.2,-10.2 -5.9,-11.2 -2.4,-1.2 -5.5,-0.6 -6.3,0 -1.2,0.6 -1.8,1.5 -3,2.1 -1.2,0.6 -3,0.6 -4.2,0 -0.8,-0.6 -1.8,-1.5 -3.3,-2.1 -1.5,-0.6 -4.2,-1.5 -6.9,0.2 -0.6,0.2 -5.1,4.2 -6.3,15.6 -0.8,7.2 3,9.3 3,9.3 0.8,0.6 3.3,1.8 6.3,0 2.1,-1.2 3.6,-3.9 3.6,-3.9 0,0 0.6,-1.5 1.8,-2.1 0.6,-0.2 1.8,0 1.8,0 h 3.6 c 0,0 1.2,0 2.1,0.2 0.8,0.2 1.2,1.2 1.2,1.2 0,0 2.4,3 4.8,4.8 0.8,0.6 5.1,1.5 6.9,-0.8 1.4,-1.3 2.3,-6.4 0.8,-13.3" />
      <g
         id="g1644">
        <g
           id="g1642">
          <path
             style="fill:#fffffd"
             class="st11"
             d="m 1991.2,358.2 v -2 h 4.5 v 2 z"
             id="path1602" />
          <path
             style="fill:#fffffd"
             class="st11"
             d="m 2005.3,353.6 c 0.6,0.6 0.9,1.5 0.9,2.7 v 5.8 h -2.5 v -6 c 0,-0.9 -0.4,-1.4 -1.2,-1.4 h -1.2 c -0.1,0.3 -0.1,0.6 -0.2,0.9 -0.1,0.3 -0.1,0.6 -0.1,0.9 v 2.6 c 0,0.6 -0.1,1.2 -0.3,1.6 -0.2,0.5 -0.6,0.8 -1,1 -0.4,0.2 -1,0.4 -1.6,0.4 -0.3,0 -0.8,0 -1.2,-0.1 v -2 c 0.2,0 0.4,0 0.5,0 0.7,0 1.1,-0.4 1.1,-1.2 v -2.2 c 0,-0.3 0,-0.7 0.1,-1.1 0.1,-0.4 0.2,-0.7 0.4,-1 h -1.4 v -2 h 4.8 c 1.3,0.2 2.2,0.5 2.9,1.1 z"
             id="path1604" />
          <path
             style="fill:#fffffd"
             class="st11"
             d="m 2008.6,354.7 h -0.8 v -2 h 3.3 v 9.4 h -2.5 z"
             id="path1606" />
          <path
             style="fill:#fffffd"
             class="st11"
             d="m 2020.6,354.3 -3.1,7.8 h -2.7 l 3,-7.4 h -5 v -4.6 h 2.5 v 2.6 h 5.2 v 1.6 z"
             id="path1608" />
          <path
             style="fill:#fffffd"
             class="st11"
             d="m 2022.5,354.7 h -0.8 v -2 h 3.3 v 9.4 h -2.5 z"
             id="path1610" />
          <path
             style="fill:#fffffd"
             class="st11"
             d="m 2029.5,361.7 c -0.6,-0.4 -1.1,-0.9 -1.5,-1.5 -0.4,-0.6 -0.5,-1.4 -0.6,-2.3 v -0.5 c 0,-0.4 0.1,-0.9 0.3,-1.4 0.2,-0.5 0.4,-0.9 0.6,-1.1 0,-0.1 0.1,-0.1 0.1,-0.1 v 0 c -0.3,0.1 -0.7,0.2 -1.2,0.3 l -0.5,-1.8 c 0.6,-0.2 1.4,-0.3 2.2,-0.4 0.8,-0.1 1.6,-0.2 2.4,-0.2 1.5,0 2.6,0.4 3.4,1.2 0.8,0.8 1.2,1.9 1.2,3.4 v 0.9 c 0,0.9 -0.2,1.6 -0.5,2.3 -0.4,0.7 -0.8,1.2 -1.5,1.5 -0.7,0.3 -1.4,0.5 -2.2,0.5 -0.9,-0.2 -1.6,-0.4 -2.2,-0.8 z m 3,-1.8 c 0.3,-0.2 0.5,-0.5 0.6,-0.8 0.1,-0.3 0.2,-0.7 0.2,-1.2 V 357 c 0,-0.8 -0.1,-1.4 -0.4,-1.8 -0.3,-0.4 -0.7,-0.6 -1.3,-0.6 -0.5,0 -1,0.2 -1.2,0.7 -0.3,0.4 -0.4,1.1 -0.4,2 v 0.7 c 0,0.5 0.1,0.9 0.2,1.2 0.1,0.3 0.3,0.6 0.6,0.8 0.3,0.2 0.5,0.3 0.9,0.3 0.4,0 0.6,-0.2 0.8,-0.4 z"
             id="path1612" />
          <path
             style="fill:#fffffd"
             class="st11"
             d="m 2038.1,362.2 c -0.3,0 -0.6,-0.1 -1,-0.2 v -1.9 c 0.4,0 0.8,0.1 1.1,0.1 0.4,0 0.6,-0.1 0.8,-0.3 0.2,-0.2 0.3,-0.5 0.3,-0.9 v -4.3 h -1.6 v -2 h 4.2 v 6.5 c 0,0.6 -0.1,1.2 -0.3,1.6 -0.2,0.5 -0.6,0.8 -1,1 -0.4,0.2 -1,0.4 -1.6,0.4 -0.3,0 -0.6,0 -0.9,0 z"
             id="path1614" />
          <path
             style="fill:#fffffd"
             class="st11"
             d="m 2044.5,354.7 h -0.8 v -2 h 3.3 v 9.4 h -2.5 z"
             id="path1616" />
          <path
             style="fill:#fffffd"
             class="st11"
             d="m 2053,360.2 c 0.6,0 1.1,-0.2 1.5,-0.6 0.4,-0.4 0.5,-0.9 0.5,-1.6 v -3.3 h -5.4 v -2 h 8 v 5.2 c 0,0.9 -0.2,1.6 -0.5,2.2 -0.3,0.6 -0.9,1.1 -1.6,1.4 -0.7,0.3 -1.5,0.5 -2.4,0.5 v -1.8 z m -3.3,-1.4 c 0,-0.6 0.1,-1 0.2,-1.3 0.1,-0.3 0.2,-0.5 0.4,-0.7 h 2 c -0.1,0.4 -0.1,1 -0.1,1.7 v 6.8 h -2.5 z"
             id="path1618" />
          <path
             style="fill:#fffffd"
             class="st11"
             d="m 2064.1,352.7 h 8 v 9.4 h -8 z m 5.5,7.4 v -5.4 h -3 v 5.4 z"
             id="path1620" />
          <path
             style="fill:#fffffd"
             class="st11"
             d="m 2074.6,352.7 h 4.1 c 1.2,0 2.2,0.3 2.8,0.9 0.6,0.6 0.9,1.5 1,2.7 v 5.8 h -2.5 v -6 c 0,-0.9 -0.4,-1.4 -1.2,-1.4 h -1.6 v 7.4 h -2.5 z"
             id="path1622" />
          <path
             style="fill:#fffffd"
             class="st11"
             d="m 2091.9,353.6 c 0.6,0.6 0.9,1.5 0.9,2.7 v 5.8 h -2.5 v -6 c 0,-0.9 -0.4,-1.4 -1.2,-1.4 h -1.2 c -0.1,0.3 -0.1,0.6 -0.2,0.9 -0.1,0.3 -0.1,0.6 -0.1,0.9 v 2.6 c 0,0.6 -0.1,1.2 -0.3,1.6 -0.2,0.5 -0.6,0.8 -1,1 -0.4,0.2 -1,0.4 -1.6,0.4 -0.3,0 -0.8,0 -1.2,-0.1 v -2 c 0.2,0 0.4,0 0.5,0 0.7,0 1.1,-0.4 1.1,-1.2 v -2.2 c 0,-0.3 0,-0.7 0.1,-1.1 0.1,-0.4 0.2,-0.7 0.4,-1 h -1.4 v -2 h 4.8 c 1.4,0.2 2.3,0.5 2.9,1.1 z"
             id="path1624" />
          <path
             style="fill:#fffffd"
             class="st11"
             d="m 2095.7,356.9 c 0,-0.4 0.1,-0.8 0.3,-1.2 0.2,-0.4 0.3,-0.7 0.6,-0.9 0.1,-0.1 0.1,-0.1 0.1,-0.1 v 0 c -0.2,0 -0.4,0.1 -0.7,0.2 -0.3,0.1 -0.5,0.2 -0.7,0.2 l -0.5,-1.8 c 0.6,-0.2 1.3,-0.4 2.1,-0.5 0.8,-0.1 1.6,-0.2 2.3,-0.2 1.4,0 2.5,0.4 3.3,1.1 0.7,0.7 1.1,1.8 1.1,3.2 v 5.3 h -4.1 v -2 h 1.6 v -3.7 c 0,-0.6 -0.1,-1.1 -0.4,-1.4 -0.3,-0.3 -0.6,-0.5 -1,-0.5 -0.8,0 -1.3,0.7 -1.5,2 l -0.5,5.6 h -2.5 z"
             id="path1626" />
          <path
             style="fill:#fffffd"
             class="st11"
             d="m 2024,373.9 h -0.8 v -2 h 3.3 v 9.4 h -2.5 z"
             id="path1628" />
          <path
             style="fill:#fffffd"
             class="st11"
             d="m 2036.4,371.9 v 2 h -1.7 v 7.4 h -2.5 v -7.4 h -3.9 v -2 z"
             id="path1630" />
          <path
             style="fill:#fffffd"
             class="st11"
             d="m 2038.4,381.4 c -0.3,0 -0.6,-0.1 -1,-0.2 v -1.9 c 0.4,0 0.8,0.1 1.1,0.1 0.4,0 0.6,-0.1 0.8,-0.3 0.2,-0.2 0.3,-0.5 0.3,-0.9 v -4.3 h -1.6 v -2 h 4.2 v 6.5 c 0,0.6 -0.1,1.2 -0.3,1.6 -0.2,0.5 -0.6,0.8 -1,1 -0.4,0.2 -1,0.4 -1.6,0.4 -0.4,0 -0.6,0 -0.9,0 z"
             id="path1632" />
          <path
             style="fill:#fffffd"
             class="st11"
             d="m 2046.6,381 c -0.6,-0.3 -1.1,-0.8 -1.4,-1.4 -0.3,-0.6 -0.5,-1.3 -0.5,-2.1 V 372 h 2.5 v 5.8 c 0,0.4 0.1,0.7 0.2,1 0.1,0.3 0.3,0.5 0.6,0.6 0.2,0.2 0.5,0.2 0.8,0.2 0.3,0 0.6,-0.1 0.8,-0.2 0.2,-0.2 0.4,-0.4 0.6,-0.6 0.1,-0.3 0.2,-0.6 0.2,-1 V 375 c 0,-0.4 -0.1,-0.7 -0.3,-0.9 -0.2,-0.2 -0.4,-0.3 -0.8,-0.3 -0.2,0 -0.5,0 -0.8,0.1 l -0.2,-1.6 c 0.3,-0.2 0.6,-0.3 1,-0.4 0.4,-0.1 0.7,-0.1 1,-0.1 0.6,0 1,0.1 1.4,0.4 0.4,0.3 0.7,0.6 0.9,1.1 0.2,0.5 0.3,1 0.3,1.6 v 2.6 c 0,0.8 -0.2,1.5 -0.5,2.1 -0.3,0.6 -0.8,1.1 -1.4,1.4 -0.6,0.3 -1.3,0.5 -2.2,0.5 -0.9,0 -1.5,-0.2 -2.2,-0.5 z"
             id="path1634" />
          <path
             style="fill:#fffffd"
             class="st11"
             d="m 2055.1,381.4 c -0.3,0 -0.6,-0.1 -1,-0.2 v -1.9 c 0.4,0 0.8,0.1 1.1,0.1 0.4,0 0.6,-0.1 0.8,-0.3 0.2,-0.2 0.3,-0.5 0.3,-0.9 v -4.3 h -1.6 v -2 h 4.2 v 6.5 c 0,0.6 -0.1,1.2 -0.3,1.6 -0.2,0.5 -0.6,0.8 -1,1 -0.4,0.2 -1,0.4 -1.6,0.4 -0.4,0 -0.6,0 -0.9,0 z"
             id="path1636" />
          <path
             style="fill:#fffffd"
             class="st11"
             d="m 2062,373.9 h -1.5 v -2 h 4 v 5.4 h -2.5 z"
             id="path1638" />
          <path
             style="fill:#fffffd"
             class="st11"
             d="m 2067.1,381.4 c -0.3,0 -0.6,-0.1 -1,-0.2 v -1.9 c 0.4,0 0.8,0.1 1.1,0.1 0.4,0 0.6,-0.1 0.8,-0.3 0.2,-0.2 0.3,-0.5 0.3,-0.9 v -4.3 h -1.6 v -2 h 4.2 v 6.5 c 0,0.6 -0.1,1.2 -0.3,1.6 -0.2,0.5 -0.6,0.8 -1,1 -0.4,0.2 -1,0.4 -1.6,0.4 -0.3,0 -0.6,0 -0.9,0 z"
             id="path1640" />
        </g>
      </g>
    </g>
  </g>
</svg>
