<?xml version="1.0" encoding="UTF-8" standalone="no"?>
<svg
   xmlns:dc="http://purl.org/dc/elements/1.1/"
   xmlns:cc="http://creativecommons.org/ns#"
   xmlns:rdf="http://www.w3.org/1999/02/22-rdf-syntax-ns#"
   xmlns:svg="http://www.w3.org/2000/svg"
   xmlns="http://www.w3.org/2000/svg"
   width="74.534889mm"
   height="45.268452mm"
   viewBox="0 0 264.1 160.40002"
   id="svg8307"
   version="1.1">
  <defs
     id="defs8309" />
  <metadata
     id="metadata8312">
    <rdf:RDF>
      <cc:Work
         rdf:about="">
        <dc:format>image/svg+xml</dc:format>
        <dc:type
           rdf:resource="http://purl.org/dc/dcmitype/StillImage" />
        <dc:title></dc:title>
      </cc:Work>
    </rdf:RDF>
  </metadata>
  <g
     id="layer1"
     transform="translate(-190.80714,-446.44791)">
    <rect
       id="rect863_4_"
       x="190.80714"
       y="446.44791"
       class="st13"
       width="264.10001"
       height="53.5"
       style="fill:#6f4d80" />
    <g
       id="g8883"
       transform="translate(-1.14999,0)">
      <path
         style="fill:#f8b119;fill-opacity:1"
         d="m 356.10713,540.74794 c 0,17.59999 -32.1,66.09999 -32.1,66.09999 0,0 -32.1,-48.5 -32.1,-66.09999 0,-17.6 14.5,-32.1 32.1,-32.1 17.6,0 32.1,14.5 32.1,32.1"
         class="st13"
         id="path877_1_" />
      <path
         style="fill:#f6f6f6"
         d="m 337.70713,535.44794 c -1.7,0 -2.8,-1.2 -2.8,-2.8 0,-1.7 1.2,-2.8 2.8,-2.8 1.7,0 2.8,1.2 2.8,2.8 0,1.5 -1.1,2.8 -2.8,2.8 m -5.3,6.5 c -1.7,0 -2.8,-1.2 -2.8,-2.8 0,-1.6 1.2,-2.8 2.8,-2.8 1.6,0 2.8,1.2 2.8,2.8 0,1.6 -1.3,2.8 -2.8,2.8 m -10.8,-5.3 c 0,0.8 -0.8,1.7 -1.7,1.7 l -3.7,0 0,3.7 c 0,0.8 -0.8,1.7 -1.7,1.7 l -1.2,0 c -0.8,0 -1.7,-0.8 -1.7,-1.7 l 0,-3.7 -3.7,0 c -0.8,0 -1.7,-0.8 -1.7,-1.7 l 0,-1.2 c 0,-0.8 0.8,-1.7 1.7,-1.7 l 3.7,0 0,-3.7 c 0,-0.8 0.8,-1.7 1.7,-1.7 l 1.2,0 c 0.8,0 1.7,0.8 1.7,1.7 l 0,3.7 3.7,0 c 0.8,0 1.7,0.8 1.7,1.7 l 0,1.2 z m 26.7,0.8 c -2.5,-11.1 -5.8,-14 -8.1,-15.3 -3.3,-1.7 -7.5,-0.8 -8.6,0 -1.7,0.8 -2.5,2 -4.2,2.8 -1.7,0.8 -4.2,0.8 -5.8,0 -1.2,-0.8 -2.5,-2 -4.5,-2.8 -2,-0.8 -5.8,-2 -9.5,0.3 -0.8,0.3 -7,5.8 -8.6,21.4 -1.2,9.79999 4.2,12.79999 4.2,12.79999 1.2,0.8 4.5,2.5 8.6,0 2.8,-1.7 5,-5.3 5,-5.3 0,0 0.8,-2 2.5,-2.8 0.8,-0.3 2.5,0 2.5,0 l 5,0 c 0,0 1.7,0 2.8,0.3 1.2,0.3 1.7,1.7 1.7,1.7 0,0 3.3,4.2 6.6,6.6 1.2,0.8 7,2 9.5,-1.2 1.8,-2 2.9,-9 0.9,-18.49999"
         class="st14"
         id="path973_1_" />
    </g>
    <g
       id="XMLID_1173_"
       transform="translate(-1531.5929,-71.152066)">
      <g
         id="XMLID_950_">
        <path
           id="XMLID_960_"
           class="st12"
           d="m 1778.4,542.2 0.8,-2.7 4.8,0 0,13.3 -5.6,0 0,-10.6 z m 13.1,-4.5 c 0,-1.8 -0.8,-2.8 -2.7,-2.8 l -10.1,0 0,-4.2 11.6,0 c 2.2,0 3.7,0.7 5,1.8 1.2,1.2 1.8,3 1.8,5.5 l 0,15 -5.6,0 0,-15.3 z"
           style="fill:#f58020" />
        <path
           id="XMLID_959_"
           class="st12"
           d="m 1802.3,535.2 -0.5,-4.5 5.6,0 0.5,4.5 0,6.1 0,2.5 -5.6,1 0,-9.6 z"
           style="fill:#f58020" />
        <path
           id="XMLID_958_"
           class="st12"
           d="m 1813.5,535.2 -0.5,-4.5 5.6,0 0.5,4.5 0,6.1 0,2.5 -5.6,1 0,-9.6 z"
           style="fill:#f58020" />
        <path
           id="XMLID_955_"
           class="st12"
           d="m 1823.8,542 0.8,-2.7 4.8,0 0,21.4 -5.6,0 0,-18.7 z m 7.9,6.6 c 1.8,-0.2 3.2,-0.8 4,-1.8 0.8,-1 1.3,-2.8 1.5,-5.3 l 0.5,-6.8 -13.6,0 0,-4.2 19.6,0 -0.2,3.7 -0.5,5.8 c -0.5,8.5 -4.2,12.8 -11,12.8 l -0.3,-4.2 z"
           style="fill:#f58020" />
        <path
           id="XMLID_954_"
           class="st12"
           d="m 1865.5,532.5 c 1.2,1.3 1.8,3.2 1.8,5.6 l 0,14.9 -5.6,0 0,-15 c 0,-2 -0.8,-3 -2.7,-3 l -5.1,0 0,18.1 -5.6,0 0,-19.8 0,-2.5 12.3,0 c 2,-0.3 3.7,0.4 4.9,1.7 z"
           style="fill:#f58020" />
        <path
           id="XMLID_953_"
           class="st12"
           d="m 1890.7,549.1 c -3.2,2.7 -8,4.2 -14.6,4.2 l -1.2,0 -3,-22.6 5.3,0 1.2,9.6 c 1,-0.5 1.7,-1.3 2.2,-2.3 0.3,-1 0.5,-2.7 0.5,-4.7 l 0,-2.7 5.3,0 0,2.5 c 0,2.8 -0.7,5.1 -1.7,7 -1.2,1.8 -3,3.2 -5.8,4.2 l 0.5,4.5 c 3.7,-0.2 6.3,-1.3 8,-3.2 1.7,-1.8 2.3,-4.7 2.3,-8 l 0,-6.8 5.6,0 0,6.5 c 0.1,5.2 -1.4,9.2 -4.6,11.8 z"
           style="fill:#f58020" />
        <path
           id="XMLID_951_"
           class="st12"
           d="m 1918.8,550.3 c -1.7,2 -4,3.2 -7.1,3.2 -1.2,0 -2.3,-0.2 -3.7,-0.5 l 0.5,-4.2 c 1,0.2 1.8,0.3 2.5,0.3 1.8,0 3,-0.7 3.8,-1.8 0.8,-1.2 1.2,-3 1.2,-5.3 0,-2.7 -0.3,-4.5 -1,-5.6 -0.7,-1.2 -1.8,-1.7 -3.3,-1.7 -1,0 -2,0.3 -2.7,1 -0.7,0.7 -1.2,1.5 -1.3,2.5 l -2.5,14.8 -5.6,0 2.7,-15 -3.2,-7.3 5.8,0 1.5,4.5 c 0.5,-1.7 1.3,-2.8 2.5,-3.7 1.2,-0.8 2.3,-1.2 3.8,-1.2 2.8,0 5,1 6.3,2.8 1.5,2 2.2,4.8 2.2,8.6 0.1,3.6 -0.7,6.5 -2.4,8.6 z"
           style="fill:#f58020" />
      </g>
    </g>
  </g>
</svg>
