<svg width="125.2" height="97.3" viewBox="0 0 33.125 25.744" xmlns="http://www.w3.org/2000/svg">
    <path d="M108.746 109.22c0 2.673-4.869 10.028-4.869 10.028s-4.868-7.382-4.868-10.028a4.872 4.872 0 0 1 4.868-4.868c2.646-.026 4.869 2.196 4.869 4.868" style="fill:#3696c9;stroke-width:.26458" transform="translate(-87.315 -93.504)"/>
    <path d="M2351.8 621.9c0 .8.2 1.2 1.2 1.2.8 0 1.2-.2 1.2-1.2v-10.7h1.2v10.7c0 .8.2 1.2 1.2 1.2s1.2-.2 1.2-1.2v-18.1h.6v6.5c0 .2 0 .6.2.8.2.2.6.2.8 0 .2-.2.6-.6.6-.8v-7.2c0-.8-.2-1.5-.8-1.8-.6-.2-1.2-.6-2.1-.6h-4.7c-.8 0-1.5.2-2.1.6-.6.2-.8.8-.8 1.8v7.4c0 .2.2.6.6.6.2.2.6.2.8 0 .2-.2.2-.2.2-.6v-6.8h.6v18.1zm23-8.6-3.3-9.5c0-.2 0-.2.2-.2 0 0 .2 0 .2.2l2.4 5.9c.2.2.6.6 1.2.6.2 0 .2-.2.6-.6v-.6l-2.4-5.9c0-.6-.2-1.2-.8-1.8-.6-.6-1.2-.6-2.1-.6h-2.9c-.8 0-1.5.2-2.1.8-.6.6-.8 1.2-1.2 1.8l-2.1 5.9v.6c0 .2.2.6.6.6.6 0 1.2-.2 1.2-.6l2.4-6.2s0-.2.2-.2.2 0 .2.2l-3.3 9.5v.6s0 .2.2.2l.2.2h2.1v7.4c0 .2 0 .6.2.8.2.2.6.2.8.2.2 0 .6 0 .8-.2.2-.2.2-.6.2-.8v-7.4h1v7.4c0 .2 0 .6.2.8.2.2.6.2.8.2.2 0 .6 0 .8-.2.2-.2.2-.6.2-.8v-7.2h2.1s.2 0 .2-.2l.2-.2v-.8zm-22.4-15.6c0 .6.2 1.2.6 1.8.6.6.8.6 1.8.6.6 0 1.2-.2 1.8-.6.6-.6.6-1.2.6-1.8 0-.6-.2-1.2-.6-1.8-.6-.6-.8-.6-1.8-.6-.6 0-1.2.2-1.8.6-.6.6-.6 1.2-.6 1.8m14.1 0c0 .6.2 1.2.6 1.8.6.6.8.6 1.8.6.8 0 1.2-.2 1.8-.6.6-.6.6-.8.6-1.8 0-.6-.2-1.2-.6-1.8-.6-.6-.8-.6-1.8-.6-.8 0-1.2.2-1.8.6-.3.6-.6 1.2-.6 1.8" style="fill:#fff" transform="translate(-608.56 -145.254) scale(.26458)"/>
    <path style="fill:#3696c9;stroke-width:.26458" d="M87.315 93.504h33.125v10.187H87.315Z" transform="translate(-87.315 -93.504)"/>
    <path d="M2315.6 559.6h13.4v15.6h-13.4zm9.2 12.3v-9h-4.9v9zm9.4-9.1h-2.4v-3.3h6.6v8.9h-4.2zm20.1-1.8c1.1 1 1.6 2.5 1.6 4.4v9.7h-4.2V565c0-1.5-.7-2.3-2-2.3h-2c-.1.5-.2 1-.3 1.6-.1.6-.1 1.1-.1 1.6v4.4c0 1.1-.2 2-.6 2.7-.4.8-.9 1.3-1.6 1.7-.7.4-1.6.6-2.6.6-.6 0-1.3-.1-2-.2V572h.8c1.2 0 1.9-.7 1.9-2v-3.7c0-.6.1-1.2.2-1.8.1-.6.4-1.2.6-1.7h-2.4v-3.3h8c2.1.1 3.7.6 4.7 1.5zm5.6 1.8h-1.3v-3.3h5.6v15.6h-4.2v-12.3zm13.6 2.1c0-.7-.2-1.2-.6-1.5-.4-.4-.9-.5-1.7-.5h-4.7v-3.3h5c1.3 0 2.4.2 3.3.7.9.4 1.6 1.1 2.1 1.9.5.8.7 1.8.7 3v10h-4.2zm9-2.1h-2.4v-3.3h6.6v8.9h-4.2zm12.4 8.5c.7.3 1.5.6 2.4.8.9.2 1.6.3 2.4.3 1.9 0 3.4-.4 4.5-1.2 1.1-.8 1.6-2 1.6-3.6v-8h4.1v8.4c0 1.7-.4 3.1-1.3 4.2s-2.1 2-3.6 2.6c-1.5.6-3.2.9-5.1.9-1.5 0-3-.2-4.6-.5-1.6-.4-3-.9-4.4-1.5v-14h4.1zm3.1-2.6c.1-.6.1-1.3.1-2v-7.2h4.1v6.3c0 .9-.1 1.7-.3 2.5-.2.8-.5 1.4-.8 1.8h-3.4c.1-.3.3-.8.3-1.4z" style="fill:#fffffd" transform="translate(-608.56 -145.254) scale(.26458)"/>
</svg>
