<?xml version="1.0" encoding="UTF-8" standalone="no"?>
<!-- Created with Inkscape (http://www.inkscape.org/) -->

<svg
   width="217.8"
   height="256.89999"
   viewBox="0 0 57.625525 67.9706"
   version="1.1"
   id="svg2792"
   xmlns="http://www.w3.org/2000/svg"
   xmlns:svg="http://www.w3.org/2000/svg">
  <defs
     id="defs2789" />
  <g
     id="layer1"
     transform="translate(-38.48196,-65.25143)">
    <g
       id="g1769"
       transform="matrix(0.26458,0,0,0.26458,-148.5761,-346.43505)">
      <path
         id="rect807_1_"
         style="fill:#a22442"
         d="m 708.3,1556 h 216.5 v 163 H 708.3 Z" />
      <path
         id="path877_1_"
         d="m 839.3,1764.7 c 0,12.8 -23.4,48.2 -23.4,48.2 0,0 -23.4,-35.4 -23.4,-48.2 0,-12.8 10.5,-23.4 23.4,-23.4 12.8,0 23.4,10.6 23.4,23.4"
         style="fill:#0b8e36;fill-opacity:1" />
      <path
         id="path973_1_"
         d="m 825.8,1760.8 c -1.2,0 -2.1,-0.8 -2.1,-2.1 0,-1.2 0.8,-2.1 2.1,-2.1 1.3,0 2.1,0.8 2.1,2.1 0,1.2 -0.9,2.1 -2.1,2.1 m -3.8,4.8 c -1.2,0 -2.1,-0.8 -2.1,-2.1 0,-1.2 0.8,-2.1 2.1,-2.1 1.3,0 2.1,0.8 2.1,2.1 -0.1,1.2 -1.1,2.1 -2.1,2.1 m -7.9,-3.9 c 0,0.6 -0.6,1.2 -1.2,1.2 h -2.7 v 2.7 c 0,0.6 -0.6,1.2 -1.2,1.2 h -0.8 c -0.6,0 -1.2,-0.6 -1.2,-1.2 v -2.7 h -2.7 c -0.6,0 -1.2,-0.6 -1.2,-1.2 v -0.8 c 0,-0.6 0.6,-1.2 1.2,-1.2 h 2.7 v -2.7 c 0,-0.6 0.6,-1.2 1.2,-1.2 h 0.8 c 0.6,0 1.2,0.6 1.2,1.2 v 2.7 h 2.7 c 0.6,0 1.2,0.6 1.2,1.2 z m 19.5,0.6 c -1.8,-8.1 -4.2,-10.2 -5.9,-11.2 -2.4,-1.2 -5.5,-0.6 -6.3,0 -1.2,0.6 -1.8,1.5 -3,2.1 -1.2,0.6 -3,0.6 -4.2,0 -0.8,-0.6 -1.8,-1.5 -3.3,-2.1 -1.5,-0.6 -4.2,-1.5 -6.9,0.2 -0.6,0.2 -5.1,4.2 -6.3,15.6 -0.8,7.2 3,9.3 3,9.3 0.8,0.6 3.3,1.8 6.3,0 2.1,-1.2 3.6,-3.9 3.6,-3.9 0,0 0.6,-1.5 1.8,-2.1 0.6,-0.2 1.8,0 1.8,0 h 3.6 c 0,0 1.2,0 2.1,0.2 0.8,0.2 1.2,1.2 1.2,1.2 0,0 2.4,3 4.8,4.8 0.8,0.6 5.1,1.5 6.9,-0.8 1.4,-1.3 2.2,-6.4 0.8,-13.3"
         style="fill:#ffffcc" />
      <g
         id="g406">
        <path
           d="m 761.5,1587.7 c 0,-0.7 0.1,-1.3 0.2,-1.8 0.1,-0.5 0.3,-0.9 0.4,-1.1 0.2,-0.3 0.3,-0.4 0.4,-0.5 h 3.9 c -0.1,0.8 -0.2,1.8 -0.2,2.8 v 6 h -4.7 z m 8.8,-4.9 c 0,-0.5 -0.2,-0.9 -0.5,-1.2 -0.3,-0.3 -0.8,-0.4 -1.3,-0.4 h -6.9 v -3.8 h 7.2 c 1.3,0 2.5,0.2 3.4,0.7 1,0.5 1.7,1.1 2.2,2 0.5,0.9 0.8,1.9 0.8,3 v 10 h -4.9 z"
           id="path346"
           style="fill:#fffffd" />
        <path
           d="m 779.7,1581.2 h -2.3 v -3.8 h 7.2 v 9.1 h -4.9 z"
           id="path348"
           style="fill:#fffffd" />
        <path
           d="m 789.4,1581.2 h -2.3 v -3.8 h 7.2 v 9.1 h -4.9 z"
           id="path350"
           style="fill:#fffffd" />
        <path
           d="m 804.1,1589.4 c 1,-0.1 1.7,-0.3 2.2,-0.9 0.5,-0.5 0.7,-1.4 0.7,-2.5 v -4.9 h -8.8 v -3.8 H 812 v 8.6 c 0,2.3 -0.7,4 -2,5.2 -1.4,1.2 -3.3,1.9 -5.8,2 v -3.7 z m -5.8,-1.6 c 0,-0.7 0.1,-1.3 0.2,-1.8 0.1,-0.5 0.3,-0.9 0.4,-1.1 0.2,-0.3 0.3,-0.4 0.4,-0.5 h 3.9 c -0.1,0.7 -0.2,1.7 -0.2,2.8 v 11.3 h -4.7 z"
           id="path352"
           style="fill:#fffffd" />
        <path
           d="m 816,1577.4 h 7.3 c 2,0 3.6,0.5 4.7,1.5 1.1,1 1.6,2.5 1.6,4.4 v 9.8 h -4.9 v -10.2 c 0,-0.5 -0.1,-1 -0.4,-1.2 -0.2,-0.3 -0.6,-0.4 -1,-0.4 h -2.4 v 11.9 H 816 Z"
           id="path354"
           style="fill:#fffffd" />
        <path
           d="m 838,1588.8 c 0.7,0.3 1.5,0.5 2.3,0.7 0.8,0.2 1.6,0.3 2.3,0.3 1.9,0 3.3,-0.4 4.4,-1.2 1.1,-0.8 1.6,-2 1.6,-3.6 v -7.6 h 4.8 v 8.2 c 0,1.7 -0.5,3.2 -1.4,4.4 -0.9,1.2 -2.2,2.1 -3.8,2.7 -1.6,0.6 -3.4,0.9 -5.3,0.9 -1.5,0 -3.1,-0.2 -4.8,-0.6 -1.7,-0.4 -3.2,-0.9 -4.7,-1.6 v -14.1 h 4.7 v 11.5 z m 2.7,-2.5 c 0.1,-0.6 0.1,-1.3 0.1,-1.9 v -7 h 4.8 v 6 c 0,0.9 -0.1,1.7 -0.3,2.6 -0.2,0.8 -0.5,1.4 -0.8,1.9 h -4 c 0,-0.5 0.1,-0.9 0.2,-1.6 z"
           id="path356"
           style="fill:#fffffd" />
        <path
           d="m 858,1584.8 c 0.1,-0.7 0.2,-1.4 0.5,-2 0.2,-0.6 0.5,-1.1 0.9,-1.5 0.1,-0.1 0.1,-0.1 0.2,-0.1 v -0.1 c -0.3,0.1 -0.7,0.1 -1.1,0.3 -0.4,0.1 -0.8,0.2 -1,0.4 l -1,-3.5 c 1,-0.4 2.2,-0.7 3.6,-0.9 1.4,-0.2 2.7,-0.4 4,-0.4 2.5,0 4.4,0.6 5.7,1.9 1.3,1.3 2,3.1 2,5.6 v 8.7 h -7.1 v -3.8 h 2.2 v -5.6 c 0,-0.9 -0.2,-1.6 -0.5,-2.1 -0.3,-0.5 -0.8,-0.8 -1.3,-0.8 -0.7,0 -1.2,0.3 -1.5,0.8 -0.3,0.5 -0.6,1.3 -0.7,2.4 l -0.8,9 h -4.9 z"
           id="path358"
           style="fill:#fffffd" />
        <path
           d="M 781.7,1619.5 H 780 v -1.9 h 4.2 v 15.3 h -2.4 v -13.4 z"
           id="path360"
           style="fill:#fffffd" />
        <path
           d="m 786.8,1632.9 v -2.2 c 0.2,0 0.5,0.1 0.8,0.1 1.2,0 2.3,-0.4 3,-1.1 0.8,-0.7 1.3,-1.7 1.5,-2.8 v -7.3 h -3.5 v -1.9 h 5.8 v 7.9 c 0,0.8 0.1,1.6 0.2,2.3 l 1.1,5.1 h -2.3 l -0.9,-4.3 h -0.1 c -0.1,0.8 -0.4,1.5 -0.9,2.2 -0.5,0.7 -1.1,1.2 -1.8,1.6 -0.7,0.4 -1.5,0.6 -2.4,0.6 -0.2,-0.1 -0.4,-0.1 -0.5,-0.2 z"
           id="path362"
           style="fill:#fffffd" />
        <path
           d="m 816.5,1619 c 1,1 1.5,2.4 1.5,4.4 v 9.4 h -2.4 v -9.6 c 0,-1.3 -0.3,-2.3 -0.9,-2.9 -0.6,-0.6 -1.5,-0.9 -2.7,-0.9 h -2.2 c -0.3,0.5 -0.5,1.1 -0.7,1.8 -0.2,0.7 -0.3,1.5 -0.3,2.3 v 5.2 c 0,1.4 -0.3,2.5 -1,3.2 -0.7,0.7 -1.6,1.1 -2.9,1.1 -0.4,0 -0.9,0 -1.5,-0.1 v -1.9 c 0.3,0 0.6,0.1 0.9,0.1 0.8,0 1.3,-0.2 1.6,-0.6 0.3,-0.4 0.5,-1 0.5,-1.8 v -4.8 c 0,-0.8 0.1,-1.6 0.3,-2.4 0.2,-0.8 0.5,-1.4 0.9,-1.9 h -2.9 v -1.9 h 7.1 c 2.2,-0.1 3.7,0.3 4.7,1.3 z"
           id="path364"
           style="fill:#fffffd" />
        <path
           d="m 820.8,1632.8 0.1,-1.9 c 0.6,0.1 1.2,0.2 1.9,0.2 0.7,0 1.2,-0.2 1.6,-0.6 0.4,-0.4 0.5,-1 0.5,-1.9 v -9.1 h -3 v -1.9 h 5.4 v 11.3 c 0,1.4 -0.3,2.5 -1,3.2 -0.7,0.7 -1.7,1.1 -3,1.1 -0.8,-0.1 -1.7,-0.2 -2.5,-0.4 z"
           id="path366"
           style="fill:#fffffd" />
        <path
           d="m 833.2,1619.5 h -2.8 v -1.9 h 5.2 v 8.5 h -2.4 z"
           id="path368"
           style="fill:#fffffd" />
        <path
           d="m 842.8,1632.9 c -0.9,-0.1 -1.7,-0.4 -2.6,-0.6 l 0.5,-1.8 c 0.8,0.2 1.5,0.4 2.3,0.5 0.8,0.1 1.5,0.2 2.1,0.2 1.4,0 2.5,-0.4 3.3,-1.1 0.8,-0.7 1.2,-1.7 1.2,-3 v -7.6 h -6.1 c -0.3,0.5 -0.5,1.1 -0.7,1.8 -0.2,0.7 -0.3,1.5 -0.3,2.2 v 1.2 c 0.2,0.1 0.4,0.1 0.8,0.2 0.3,0 0.7,0.1 1.3,0.1 v 2.1 c -1.1,0 -1.9,-0.1 -2.5,-0.2 -0.6,-0.1 -1.2,-0.4 -1.8,-0.7 l -0.1,-2 c 0,-0.9 0.1,-1.7 0.3,-2.6 0.2,-0.8 0.5,-1.5 0.9,-2.1 h -1.9 v -1.9 H 852 v 9 c 0,1.4 -0.3,2.6 -0.8,3.6 -0.6,1 -1.3,1.7 -2.3,2.2 -1,0.5 -2.2,0.7 -3.5,0.7 -0.8,0 -1.7,0 -2.6,-0.2 z"
           id="path370"
           style="fill:#fffffd" />
        <path
           d="m 757.4,1649.5 h 5.8 c 2,0 3.5,0.5 4.5,1.4 1,1 1.5,2.4 1.5,4.4 v 9.4 h -2.4 v -9.6 c 0,-1.3 -0.3,-2.3 -0.9,-2.9 -0.6,-0.6 -1.5,-0.9 -2.8,-0.9 h -3.4 v 13.4 h -2.4 z"
           id="path372"
           style="fill:#fffffd" />
        <path
           d="m 774.2,1651.4 h -1.8 v -1.9 h 4.2 v 15.3 h -2.4 z"
           id="path374"
           style="fill:#fffffd" />
        <path
           d="m 791.7,1651 -5.6,13.8 h -2.6 l 5.5,-13.4 h -9 v -6.6 h 2.4 v 4.7 h 9.2 v 1.5 z"
           id="path376"
           style="fill:#fffffd" />
        <path
           d="M 802.8,1651.4 H 800 v -1.9 h 5.2 v 8.5 h -2.4 z"
           id="path378"
           style="fill:#fffffd" />
        <path
           d="m 814.8,1662.9 c 0.9,0 1.6,-0.2 2.2,-0.6 0.6,-0.4 1.1,-0.9 1.5,-1.5 0.4,-0.6 0.5,-1.4 0.5,-2.3 v -7.1 h -9.4 v -1.9 h 11.9 v 9 c 0,1.3 -0.3,2.4 -0.8,3.3 -0.6,0.9 -1.3,1.7 -2.3,2.2 -1,0.5 -2.2,0.8 -3.5,0.8 v -1.9 z m -4.9,-3.8 c 0,-0.8 0.1,-1.4 0.2,-1.8 0.1,-0.5 0.3,-0.9 0.5,-1.4 h 2 c -0.1,0.4 -0.2,0.8 -0.2,1.3 0,0.5 -0.1,1.1 -0.1,1.8 v 11.3 H 810 v -11.2 z"
           id="path380"
           style="fill:#fffffd" />
        <path
           d="m 826.2,1649.5 h 5.8 c 2,0 3.5,0.5 4.5,1.4 1,1 1.5,2.4 1.5,4.4 v 9.4 h -2.4 v -9.6 c 0,-1.3 -0.3,-2.3 -0.9,-2.9 -0.6,-0.6 -1.5,-0.9 -2.8,-0.9 h -3.4 v 13.4 h -2.4 z"
           id="path382"
           style="fill:#fffffd" />
        <path
           d="m 844.7,1662.1 c 0.8,0.4 1.7,0.6 2.6,0.8 0.9,0.2 1.8,0.3 2.6,0.3 1.2,0 2.4,-0.2 3.3,-0.5 1,-0.4 1.7,-0.9 2.3,-1.6 0.6,-0.7 0.8,-1.6 0.8,-2.7 v -8.8 h 2.3 v 9.1 c 0,1.4 -0.4,2.7 -1.2,3.6 -0.8,1 -1.8,1.7 -3.1,2.2 -1.3,0.5 -2.8,0.7 -4.4,0.7 -1.3,0 -2.6,-0.1 -3.9,-0.4 -1.3,-0.3 -2.6,-0.7 -3.8,-1.3 v -13.9 h 2.3 v 12.5 z m 4.4,-2.9 c 0.2,-0.6 0.2,-1.3 0.2,-2.1 v -7.6 h 2.4 v 7.2 c 0,0.9 -0.1,1.7 -0.3,2.3 -0.2,0.7 -0.5,1.2 -1,1.7 l -2,-0.1 c 0.3,-0.4 0.5,-0.8 0.7,-1.4 z"
           id="path384"
           style="fill:#fffffd" />
        <path
           d="m 864.5,1655.1 c 0.1,-0.7 0.3,-1.4 0.6,-2 0.3,-0.6 0.7,-1.1 1.1,-1.4 0,0 0.1,-0.1 0.3,-0.2 -0.4,0.1 -0.9,0.2 -1.5,0.3 -0.6,0.2 -1.1,0.3 -1.6,0.5 l -0.6,-1.8 c 1,-0.3 2.1,-0.6 3.4,-0.8 1.3,-0.2 2.4,-0.3 3.4,-0.3 2.1,0 3.6,0.5 4.7,1.6 1.1,1.1 1.6,2.7 1.6,4.8 v 9.1 h -6.3 v -1.9 h 3.9 v -7.5 c 0,-1.4 -0.3,-2.4 -0.9,-3.1 -0.6,-0.7 -1.5,-1.1 -2.7,-1.1 -0.8,0 -1.5,0.3 -2.1,1 -0.6,0.6 -0.9,1.5 -1,2.6 l -1.2,10 h -2.4 z"
           id="path386"
           style="fill:#fffffd" />
        <g
           id="g404">
          <path
             d="m 769.1,1687.2 c 0,-0.9 -0.3,-1.7 -0.8,-2.2 -0.6,-0.5 -1.3,-0.8 -2.3,-0.8 h -5.8 v -2.2 h 5.9 c 1.2,0 2.2,0.2 3.1,0.6 0.9,0.4 1.5,1 2,1.9 0.5,0.9 0.7,1.8 0.7,2.9 v 11.8 h -2.7 v -12 z"
             id="path388"
             style="fill:#ffffff" />
          <path
             d="m 777.5,1684.2 h -2 v -2.2 h 4.7 v 17.3 h -2.7 z"
             id="path390"
             style="fill:#ffffff" />
          <path
             d="m 786.8,1684.2 h -3.2 v -2.2 h 5.9 v 9.6 h -2.7 z"
             id="path392"
             style="fill:#ffffff" />
          <path
             d="m 802,1691.3 4.6,6.6 v 1.4 h -12.8 v -2.2 h 9.3 L 792.8,1682 h 3.1 l 4.6,6.9 3.8,-6.9 h 3.1 z"
             id="path394"
             style="fill:#ffffff" />
          <path
             d="m 830.6,1683.6 c 1.1,1.1 1.7,2.7 1.7,5 v 10.6 h -2.7 v -10.8 c 0,-1.5 -0.3,-2.6 -1,-3.3 -0.7,-0.7 -1.7,-1 -3.1,-1 H 823 c -0.3,0.5 -0.6,1.2 -0.8,2 -0.2,0.8 -0.3,1.7 -0.3,2.5 v 5.8 c 0,1.6 -0.4,2.8 -1.1,3.6 -0.7,0.8 -1.8,1.2 -3.3,1.2 -0.4,0 -1,0 -1.7,-0.1 v -2.2 c 0.3,0 0.6,0.1 1,0.1 0.8,0 1.5,-0.2 1.9,-0.7 0.4,-0.5 0.6,-1.1 0.6,-2.1 v -5.4 c 0,-0.9 0.1,-1.8 0.4,-2.7 0.2,-0.9 0.6,-1.6 1,-2.1 h -3.2 v -2.2 h 8 c 2.2,0.2 3.9,0.7 5.1,1.8 z"
             id="path396"
             style="fill:#ffffff" />
          <path
             d="m 835.4,1699.2 0.1,-2.1 c 0.6,0.1 1.3,0.2 2.1,0.2 0.8,0 1.4,-0.2 1.8,-0.7 0.4,-0.5 0.6,-1.2 0.6,-2.1 v -10.3 h -3.4 v -2.2 h 6.1 v 12.7 c 0,1.6 -0.4,2.8 -1.2,3.6 -0.8,0.8 -1.9,1.2 -3.4,1.2 -0.8,0 -1.8,-0.1 -2.7,-0.3 z"
             id="path398"
             style="fill:#ffffff" />
          <path
             d="m 849.3,1684.2 h -3.2 v -2.2 h 5.9 v 9.6 h -2.7 z"
             id="path400"
             style="fill:#ffffff" />
          <path
             d="m 860.2,1699.3 c -1,-0.2 -2,-0.4 -2.9,-0.7 l 0.5,-2 c 0.9,0.3 1.7,0.5 2.6,0.6 0.9,0.1 1.7,0.2 2.4,0.2 1.6,0 2.8,-0.4 3.7,-1.2 0.9,-0.8 1.3,-1.9 1.3,-3.4 v -8.5 h -6.9 c -0.3,0.5 -0.6,1.2 -0.8,2 -0.2,0.8 -0.3,1.6 -0.3,2.5 v 1.3 c 0.2,0.1 0.5,0.2 0.9,0.2 0.4,0 0.8,0.1 1.4,0.1 v 2.3 c -1.2,0 -2.2,-0.1 -2.9,-0.2 -0.7,-0.1 -1.4,-0.4 -2.1,-0.8 l -0.1,-2.2 c 0,-1 0.1,-2 0.4,-2.9 0.3,-0.9 0.6,-1.7 1,-2.3 h -2.1 v -2.2 h 14.1 v 10.2 c 0,1.6 -0.3,3 -1,4.1 -0.6,1.1 -1.5,1.9 -2.6,2.5 -1.1,0.5 -2.4,0.8 -3.9,0.8 -0.7,-0.2 -1.7,-0.3 -2.7,-0.4 z"
             id="path402"
             style="fill:#ffffff" />
        </g>
      </g>
    </g>
  </g>
</svg>
