<svg width="48.207" height="32.041" viewBox="0 0 48.207 32.041" xmlns="http://www.w3.org/2000/svg">
    <path d="M105.615 80.175c0 3.36-6.139 12.594-6.139 12.594s-6.138-9.234-6.138-12.594c0-3.36 2.751-6.138 6.138-6.138 3.413.053 6.139 2.778 6.139 6.138" style="fill:#a22442;stroke-width:.264587" transform="translate(-75.373 -60.728)"/>
    <path style="fill:#a22442;stroke-width:.264583" d="M76.325 60.728h47.254v10.187H76.325Z" transform="translate(-75.373 -60.728)"/>
    <path d="M1968.2 359.4h13.4V375h-13.4zm9.1 12.3v-9h-4.9v9zm9.4-9h-2.4v-3.3h6.6v8.9h-4.2zm16.8 5.5 3.4 5v1.9h-12.4v-3.3h7l-8.3-12.3h4.7l3.1 5 2.3-5h4.7zm10.2 6.9c-1.1-.2-2-.4-2.9-.7l.8-3.1c.8.2 1.7.4 2.5.5.9.1 1.6.2 2.2.2 1.2 0 2.2-.3 2.8-.8.6-.5.9-1.3.9-2.4v-6.1h-4.5c-.2.5-.3 1-.4 1.4-.1.4-.1.9-.1 1.4v.7c.4.1.9.1 1.3.1v2.8c-.5.1-1.1.2-1.6.2-.7 0-1.4-.1-2.1-.2-.7-.2-1.2-.4-1.7-.7V367c0-.8.1-1.6.3-2.4.2-.8.4-1.4.7-1.9h-1.6v-3.3h13.9v8.8c0 1.6-.3 3-1 4.1-.7 1.1-1.6 1.9-2.7 2.4s-2.4.8-3.9.8c-.8-.1-1.8-.2-2.9-.4zm14.8-15.7h6.9c2 0 3.6.5 4.6 1.5 1 1 1.6 2.5 1.6 4.4v9.7h-4.2v-10.1c0-1.5-.7-2.3-2-2.3h-2.7V375h-4.2zm35.4 1.5c1.1 1 1.6 2.5 1.6 4.4v9.7h-4.2v-10.1c0-1.5-.7-2.3-2-2.3h-2c-.1.5-.2 1-.3 1.6-.1.6-.1 1.1-.1 1.6v4.4c0 1.1-.2 2-.6 2.7-.4.8-.9 1.3-1.6 1.7-.7.4-1.6.6-2.6.6-.6 0-1.3-.1-2-.2v-3.3h.8c1.2 0 1.9-.7 1.9-2V366c0-.6.1-1.2.2-1.8.1-.6.4-1.2.6-1.7h-2.4v-3.3h8c2.1.2 3.6.7 4.7 1.7zm10.6 3.9c0-.7-.2-1.2-.6-1.5-.4-.4-.9-.5-1.7-.5h-4.7v-3.3h5c1.3 0 2.4.2 3.3.7.9.4 1.6 1.1 2.1 1.9.5.8.7 1.8.7 3v10h-4.2v-10.3zm9-2.1h-2.4v-3.3h6.6v8.9h-4.2zm9.1 3.6c.1-.7.2-1.4.5-2 .3-.6.6-1.1.9-1.5l.2-.2v-.1c-.3.1-.7.2-1.2.3-.5.1-.9.3-1.2.4l-.9-3.1c1-.4 2.2-.7 3.5-.9 1.4-.2 2.6-.3 3.9-.3 2.4 0 4.2.6 5.5 1.8 1.2 1.2 1.9 3 1.9 5.4v8.8h-6.9v-3.3h2.6v-6.1c0-1-.2-1.8-.6-2.4-.4-.6-1-.8-1.7-.8-1.4 0-2.2 1.1-2.4 3.3l-.9 9.2h-4.2zm21 4.9c.7.3 1.5.6 2.4.8.9.2 1.6.3 2.4.3 1.9 0 3.4-.4 4.5-1.2 1.1-.8 1.6-2 1.6-3.6v-8h4.1v8.4c0 1.7-.4 3.1-1.3 4.2s-2.1 2-3.6 2.6c-1.5.6-3.2.9-5.1.9-1.5 0-3-.2-4.6-.5-1.6-.4-3-.9-4.4-1.5v-14h4.1v11.6zm3.2-2.6c.1-.6.1-1.3.1-2v-7.2h4.1v6.3c0 .9-.1 1.7-.3 2.5-.2.8-.5 1.4-.8 1.8h-3.4c.1-.3.2-.8.3-1.4z" style="fill:#fffffd" transform="translate(-517.367 -92.287) scale(.26458)"/>
    <path d="M99.476 83.403a3.156 3.156 0 0 1-3.149-3.148 3.156 3.156 0 0 1 3.149-3.149 3.156 3.156 0 0 1 3.148 3.149 3.14 3.14 0 0 1-3.148 3.148m0-6.958a3.84 3.84 0 0 0-3.837 3.836 3.84 3.84 0 0 0 3.837 3.836 3.84 3.84 0 0 0 3.836-3.836 3.84 3.84 0 0 0-3.836-3.836m0 3.386c-.212 0-.477.212-.477.476v1.403c0 .211.212.476.477.476.211 0 .476-.212.476-.476v-1.403a.474.474 0 0 0-.476-.476m0-1.429c-.212 0-.477.212-.477.477 0 .211.212.476.477.476.211 0 .476-.212.476-.476a.474.474 0 0 0-.476-.477" style="fill:#ffc;stroke-width:.264583;enable-background:new" transform="translate(-75.373 -60.728)"/>
</svg>
