<svg width="167.2" height="133.6" viewBox="0 0 44.238 35.348" xmlns:xlink="http://www.w3.org/1999/xlink" xmlns="http://www.w3.org/2000/svg">
    <defs>
        <clipPath id="c">
            <use xlink:href="#a" style="overflow:visible" width="100%" height="100%"/>
        </clipPath>
        <clipPath id="d">
            <use xlink:href="#b" style="overflow:visible" width="100%" height="100%"/>
        </clipPath>
        <path id="a" d="M1538.3 1443.6h36.8v25.2h-36.8z"/>
        <path id="b" d="M1538.3 1443.6h36.8v25.2h-36.8z"/>
    </defs>
    <path d="M1584.7 1459.1c0 15.4-28 57.7-28 57.7s-28-42.3-28-57.7c0-15.4 12.6-28 28-28s28 12.5 28 28" style="fill:#0b8e36;fill-opacity:1" transform="translate(-389.753 -365.967) scale(.26458)"/>
    <path style="fill:#a22442" d="M1473.5 1383.2h166.8v39h-166.8z" transform="translate(-389.753 -365.967) scale(.26458)"/>
    <path d="M1501.4 1396.8c1.1 1 1.6 2.5 1.6 4.4v9.7h-4.2v-10.1c0-1.5-.7-2.3-2-2.3h-2c-.1.5-.2 1-.3 1.6-.1.6-.1 1.1-.1 1.6v4.4c0 1.1-.2 2-.6 2.7-.4.8-.9 1.3-1.6 1.7-.7.4-1.6.6-2.6.6-.6 0-1.3-.1-2-.2v-3.3h.8c1.2 0 1.9-.7 1.9-2v-3.7c0-.6.1-1.2.2-1.8.1-.7.4-1.2.6-1.7h-2.4v-3.3h8c2.1.2 3.7.7 4.7 1.7zm5.6 1.8h-1.3v-3.3h5.6v15.6h-4.2v-12.3zm18.6 5.8 4.5 6.5h-4.7l-5.7-8.2c-.2.3-.3.8-.3 1.3v7h-4.1v-5.1c0-1.4.2-2.6.7-3.5.4-.9 1.2-1.5 2.1-2l-3.4-5h4.7l3.7 5.3 2.5-5.3h4.7zm8 6.7c-.5-.1-1-.2-1.6-.3v-3.2c.6.1 1.3.1 1.9.1.6 0 1-.2 1.3-.5.3-.3.4-.8.4-1.5v-7.2h-2.7v-3.3h7v10.8c0 1-.2 2-.6 2.7-.4.8-.9 1.3-1.7 1.7-.7.4-1.6.6-2.6.6-.4.2-.9.1-1.4.1zm22.7-15.8v3.3h-2.8v12.3h-4.2v-12.3h-6.5v-3.3zm6.1 15c-1.1-.6-1.9-1.5-2.5-2.6-.6-1.1-.9-2.4-.9-3.8v-.9c0-.7.1-1.5.4-2.3.3-.8.6-1.5 1-1.9l.2-.2v-.1c-.5.1-1.2.3-1.9.5l-.8-3.1c1-.3 2.3-.5 3.7-.7 1.4-.2 2.7-.3 3.9-.3 2.5 0 4.3.6 5.6 1.9 1.3 1.3 2 3.1 2 5.6v1.5c0 1.5-.3 2.7-.9 3.8-.6 1.1-1.4 2-2.5 2.6-1.1.6-2.3.9-3.7.9-1.3 0-2.6-.3-3.6-.9zm5.1-3c.4-.3.8-.8 1-1.3.2-.5.4-1.2.4-2v-1.5c0-1.3-.2-2.4-.7-3.1-.5-.7-1.2-1.1-2.1-1.1-.9 0-1.6.4-2.1 1.1-.5.7-.7 1.8-.7 3.2v1.2c0 .8.1 1.4.4 2 .2.6.6 1 1 1.3.4.3.9.5 1.5.5.4.1.9 0 1.3-.3zm20.8-6.6c0-.7-.2-1.2-.6-1.5-.4-.3-.9-.5-1.7-.5h-4.7v-3.3h5c1.3 0 2.4.2 3.3.7.9.4 1.6 1.1 2.1 1.9.5.8.7 1.8.7 3v10h-4.2v-10.3zm20.2-5.4v3.3h-2.8v12.3h-4.2v-12.3h-6.5v-3.3zm3.1 0h6.9c2 0 3.6.5 4.6 1.5 1 1 1.6 2.5 1.6 4.4v9.7h-4.2v-10.1c0-1.5-.7-2.3-2-2.3h-2.7v12.3h-4.2z" style="fill:#fffffd" transform="translate(-389.753 -365.967) scale(.26458)"/>
    <path d="m1566.8 1461.3-3.6-13.4-.2-.9c-.3-1-1.3-1.6-2.3-1.3-.8.2-1.3.9-1.4 1.7l-19.5 10.6c-.2-.2-.5-.3-.9-.2-.5.1-.8.6-.7 1.1l.4 1.3.7 2.7.4 1.3c.1.5.6.8 1.1.7.3-.1.5-.3.6-.6h1.5c.4 2.3 2.4 4.1 4.9 4.1.4 0 .9-.1 1.3-.2.8-.2 1.6-.7 2.2-1.3.8-.8 1.3-1.8 1.4-2.9l10.9-.3c.4.7 1.2 1 2 .8 1-.3 1.6-1.3 1.3-2.3zm-16.7 4.2c-.6.6-1.4.9-2.2.9-1.4 0-2.6-1-3-2.3l6-.2c-.1.7-.4 1.2-.8 1.6zm-7.2-5 17.3-9.4 2.4 8.9zm0 0" clip-path="url(#c)" style="fill:#ffc;enable-background:new" transform="translate(-389.753 -365.967) scale(.26458)"/>
    <path d="m1569.5 1454.3 4.5-1.2c.5-.1.8-.6.7-1.1-.1-.5-.6-.8-1.1-.7l-4.5 1.2c-.5.1-.8.6-.7 1.1.1.6.6.9 1.1.7zm0 0" style="fill:#ffc;enable-background:new" transform="translate(-389.753 -365.967) scale(.26458)"/>
    <path d="m1574.1 1460.2-4.5-1.2c-.5-.1-1 .2-1.1.7-.1.5.2 1 .7 1.1l4.5 1.2h.5c.3-.1.6-.3.7-.7 0-.5-.3-1-.8-1.1zm-7.7-11.5c.2 0 .3-.1.4-.2l3.3-3.3c.4-.4.4-.9 0-1.3s-.9-.4-1.3 0l-3.3 3.3c-.4.4-.4.9 0 1.3.3.2.6.3.9.2zm0 0" clip-path="url(#d)" style="fill:#ffc;enable-background:new" transform="translate(-389.753 -365.967) scale(.26458)"/>
</svg>
