<?xml version="1.0" encoding="UTF-8" standalone="no"?>
<svg
   xmlns:dc="http://purl.org/dc/elements/1.1/"
   xmlns:cc="http://creativecommons.org/ns#"
   xmlns:rdf="http://www.w3.org/1999/02/22-rdf-syntax-ns#"
   xmlns:svg="http://www.w3.org/2000/svg"
   xmlns="http://www.w3.org/2000/svg"
   version="1.1"
   id="svg4887"
   viewBox="0 0 190.7 85.900015"
   height="24.242893mm"
   width="53.819778mm">
  <defs
     id="defs4889" />
  <metadata
     id="metadata4892">
    <rdf:RDF>
      <cc:Work
         rdf:about="">
        <dc:format>image/svg+xml</dc:format>
        <dc:type
           rdf:resource="http://purl.org/dc/dcmitype/StillImage" />
        <dc:title></dc:title>
      </cc:Work>
    </rdf:RDF>
  </metadata>
  <g
     transform="translate(-170.36429,-746.55505)"
     id="layer1">
    <g
       id="g4972">
      <g
         id="g4945"
         transform="translate(17.75001,0)">
        <path
           style="fill:#401225"
           d="m 265.36428,796.55507 c 0,9.6 -17.4,35.9 -17.4,35.9 0,0 -17.4,-26.3 -17.4,-35.9 0,-9.6 7.8,-17.3 17.4,-17.3 9.6,0.2 17.4,7.8 17.4,17.3"
           class="st4259"
           id="path395_2_" />
        <g
           transform="matrix(0.42702949,0,0,0.42702949,-290.38641,472.43155)"
           id="g4679-4-9_2_">
          <path
             style="opacity:0.8;fill:#ffffff"
             d="m 1274.6,743.6 c 4.2,-0.2 8,-3.8 8.9,-7.8 -4,0 -8,4 -8.9,7.8 z m -8.7,-4.4 c -4.9,5.8 -12.3,8.2 -18.7,11.8 -5.8,2.7 -11.1,7.6 -17.6,8 -0.2,4.2 1.6,8 2.2,12 4.2,-1.3 6,-0.9 8,3.1 4,5.1 13.6,2.2 14,-4.2 5.8,0.2 11.6,-0.2 17.2,-0.4 2.2,2.2 8.5,1.8 7.1,-2.5 -1.6,-9.1 -4.5,-18.1 -7.1,-27 -0.6,-1.7 -3.5,-0.4 -5.1,-0.8 z"
             class="st4262"
             id="path6-3-7_2_" />
          <path
             style="fill:#401225"
             d="m 1265.9,748.1 c -8.5,4.9 -17.2,9.8 -26.1,14.3 0.9,2.2 6.7,0.9 9.6,1.3 6.9,0 14,0 21,0 -0.9,-5.4 -2,-11.2 -4.5,-15.6 z"
             class="st4259"
             id="path8-6-3_2_" />
          <path
             style="opacity:0.8;fill:#ffffff"
             d="m 1280.2,753.4 c 3.8,0 7.4,-1.1 10.9,-2.2 0.9,-5.4 -5.1,-2.5 -7.8,-1.3 -1.6,0.6 -3.1,1.7 -3.1,3.5 m 0,8.9 c 2,2.7 7.1,4.9 10.3,2.9 2.2,-3.3 -5.4,-2.9 -7.6,-3.8 -1.2,0.1 -1.8,0.5 -2.7,0.9 l 0,0 z"
             class="st4262"
             id="path10-3-4_2_" />
          <path
             style="fill:#401225"
             d="m 1240.5,770.1 c 1.6,3.3 5.4,5.8 8.2,2.7 4.7,-4.5 -4.2,-2.2 -6.9,-2.7 -0.4,0 -0.9,0 -1.3,0 z"
             class="st4259"
             id="path12-1-9_2_" />
        </g>
      </g>
      <g
         id="g4953">
        <rect
           style="fill:#401225"
           height="29"
           width="190.7"
           class="st4259"
           y="746.55505"
           x="170.36429"
           id="rect309_2_" />
        <g
           transform="translate(-440.63571,138.25507)"
           id="g417">
          <path
             style="fill:#5cc1d4"
             id="path419"
             d="m 627.7,626.4 2.5,7.8 -3.4,0 -6,-19.1 3.4,0 2.2,6.9 2.9,-6.9 3.4,0 -5,11.3 z"
             class="st4272" />
          <path
             style="fill:#5cc1d4"
             id="path421"
             d="m 641,619.5 c 0,-1.2 -0.6,-1.8 -1.7,-1.8 l -4.8,0 0,-2.7 5.8,0 c 1.3,0 2.4,0.4 3.1,1.1 0.8,0.8 1.2,1.9 1.2,3.5 l 0,9.5 -3.6,0 0,-9.6 z"
             class="st4272" />
          <path
             style="fill:#5cc1d4"
             id="path423"
             d="m 648,618 -0.3,-2.9 3.6,0 0.3,2.9 0,11.2 -3.6,0 0,-11.2 z"
             class="st4272" />
          <path
             style="fill:#5cc1d4"
             id="path425"
             d="m 655,618 -0.3,-2.9 3.6,0 0.3,2.9 0,11.2 -3.6,0 0,-11.2 z"
             class="st4272" />
          <path
             style="fill:#5cc1d4"
             id="path427"
             d="m 673.5,626.9 c -2,1.7 -5.1,2.6 -9.3,2.6 l -0.8,0 -1.9,-14.4 3.4,0 0.7,6.1 c 0.7,-0.3 1.1,-0.8 1.3,-1.5 0.2,-0.7 0.3,-1.7 0.3,-3 l 0,-1.6 3.4,0 0,1.6 c 0,1.8 -0.4,3.3 -1.1,4.4 -0.7,1.1 -1.9,2 -3.7,2.6 l 0.3,2.8 c 2.4,-0.1 4,-0.8 5.1,-2 1,-1.2 1.5,-2.9 1.5,-5.1 l 0,-4.3 3.6,0 0,4.1 c 0.1,3.4 -0.8,5.9 -2.8,7.7 z"
             class="st4272" />
          <path
             style="fill:#5cc1d4"
             id="path429"
             d="m 695.8,616.2 c 0.8,0.8 1.2,1.9 1.2,3.5 l 0,9.5 -3.6,0 -7.8,0 -0.7,0 0,-14.1 3.6,0 4.3,0 c 1.2,0 2.3,0.3 3,1.1 z m -2.4,10.3 0,-7 c 0,-1.2 -0.6,-1.8 -1.7,-1.8 l -3.3,0 0,8.8 5,0 z"
             class="st4272" />
          <path
             style="fill:#5cc1d4"
             id="path431"
             d="m 700.3,618 -0.3,-2.9 3.6,0 0.3,2.9 0,11.2 -3.6,0 0,-11.2 z"
             class="st4272" />
          <path
             style="fill:#5cc1d4"
             id="path433"
             d="m 707.4,618 -0.3,-2.9 3.6,0 0.3,2.9 0,3.9 0,1.6 -3.5,0.6 0,-6.1 z"
             class="st4272" />
          <path
             style="fill:#5cc1d4"
             id="path435"
             d="m 720.1,619.5 c 0,-1.2 -0.6,-1.8 -1.7,-1.8 l -4.8,0 0,-2.7 5.8,0 c 1.3,0 2.4,0.4 3.1,1.1 0.8,0.8 1.2,1.9 1.2,3.5 l 0,9.5 -3.6,0 0,-9.6 z"
             class="st4272" />
          <path
             style="fill:#5cc1d4"
             id="path437"
             d="m 727.1,618 -0.3,-2.9 3.6,0 0.3,2.9 0,11.2 -3.6,0 0,-11.2 z"
             class="st4272" />
          <path
             style="fill:#5cc1d4"
             id="path439"
             d="m 733.6,615.1 3.6,0 1.2,11.2 c 1.7,-0.2 2.9,-0.7 3.7,-1.5 0.7,-0.9 1.1,-2.1 1,-3.6 l 0,-0.8 c 0,-0.7 -0.2,-1.4 -0.6,-1.9 -0.4,-0.5 -1,-0.8 -1.8,-0.9 l -1.2,-0.1 0.3,-2.8 1.5,0.1 c 1.5,0.1 2.8,0.6 3.8,1.4 1,0.8 1.5,2.1 1.5,3.7 l 0,0.7 c 0.1,2.9 -0.8,5.1 -2.8,6.5 -2,1.4 -4.8,2.2 -8.5,2.3 l -1.7,-14.3 z"
             class="st4272" />
          <path
             style="fill:#5cc1d4"
             id="path441"
             d="m 749.4,618 -0.3,-2.9 3.6,0 0.3,2.9 0,3.9 0,1.6 -3.5,0.6 0,-6.1 z"
             class="st4272" />
          <path
             style="fill:#5cc1d4"
             id="path443"
             d="m 761.5,620.6 c 0,-0.6 0.1,-1.2 0.2,-1.7 0.1,-0.5 0.3,-0.9 0.5,-1.2 l -6.3,0 0,-2.7 11.6,0 0,2.7 -1.9,0 c -0.3,0.7 -0.5,1.7 -0.5,2.9 l 0,8.6 -3.6,0 0,-8.6 z"
             class="st4272" />
          <path
             style="fill:#5cc1d4"
             id="path445"
             d="m 770.5,618 -0.3,-2.9 3.6,0 0.3,2.9 0,11.2 -3.6,0 0,-11.2 z"
             class="st4272" />
          <path
             style="fill:#5cc1d4"
             id="path447"
             d="m 786.8,629.2 -4.7,-7.2 -2.2,7.2 -3.4,0 2.8,-8.5 0.8,-1.9 -2.3,-3.7 3.6,0 2,3.2 1.8,2.7 0.7,-2.3 1,-3.7 3.4,0 -3,9 3.4,5.1 -3.9,0 z"
             class="st4272" />
        </g>
      </g>
    </g>
  </g>
</svg>
