<?xml version="1.0" encoding="UTF-8" standalone="no"?>
<!-- Created with Inkscape (http://www.inkscape.org/) -->

<svg
   width="48.206589"
   height="32.041042"
   viewBox="0 0 48.206589 32.041041"
   version="1.1"
   id="svg2149"
   xmlns="http://www.w3.org/2000/svg"
   xmlns:svg="http://www.w3.org/2000/svg">
  <defs
     id="defs2146" />
  <g
     id="layer1"
     transform="translate(-75.372633,-60.728278)">
    <path
       id="path429_1_-7"
       d="m 105.61463,80.175152 c 0,3.360209 -6.138498,12.594167 -6.138498,12.594167 0,0 -6.138499,-9.233958 -6.138499,-12.594167 0,-3.360208 2.75174,-6.138333 6.138499,-6.138333 3.413218,0.05292 6.138498,2.778125 6.138498,6.138333"
       style="fill:#0b8e36;fill-opacity:1;stroke-width:0.264587" />
    <path
       id="rect475_1_-5"
       style="fill:#a22442;stroke-width:0.264583"
       d="M 76.324633,60.728278 H 123.57922 V 70.914736 H 76.324633 Z" />
    <g
       id="g1452"
       transform="matrix(0.26458333,0,0,0.26458333,-441.99411,-31.558388)">
      <path
         d="m 1968.2,359.4 h 13.4 V 375 h -13.4 z m 9.1,12.3 v -9 h -4.9 v 9 z"
         id="path1432"
         style="fill:#fffffd" />
      <path
         d="m 1986.7,362.7 h -2.4 v -3.3 h 6.6 v 8.9 h -4.2 z"
         id="path1434"
         style="fill:#fffffd" />
      <path
         d="m 2003.5,368.2 3.4,5 v 1.9 h -12.4 v -3.3 h 7 l -8.3,-12.3 h 4.7 l 3.1,5 2.3,-5 h 4.7 z"
         id="path1436"
         style="fill:#fffffd" />
      <path
         d="m 2013.7,375.1 c -1.1,-0.2 -2,-0.4 -2.9,-0.7 l 0.8,-3.1 c 0.8,0.2 1.7,0.4 2.5,0.5 0.9,0.1 1.6,0.2 2.2,0.2 1.2,0 2.2,-0.3 2.8,-0.8 0.6,-0.5 0.9,-1.3 0.9,-2.4 v -6.1 h -4.5 c -0.2,0.5 -0.3,1 -0.4,1.4 -0.1,0.4 -0.1,0.9 -0.1,1.4 v 0.7 c 0.4,0.1 0.9,0.1 1.3,0.1 v 2.8 c -0.5,0.1 -1.1,0.2 -1.6,0.2 -0.7,0 -1.4,-0.1 -2.1,-0.2 -0.7,-0.2 -1.2,-0.4 -1.7,-0.7 V 367 c 0,-0.8 0.1,-1.6 0.3,-2.4 0.2,-0.8 0.4,-1.4 0.7,-1.9 h -1.6 v -3.3 h 13.9 v 8.8 c 0,1.6 -0.3,3 -1,4.1 -0.7,1.1 -1.6,1.9 -2.7,2.4 -1.1,0.5 -2.4,0.8 -3.9,0.8 -0.8,-0.1 -1.8,-0.2 -2.9,-0.4 z"
         id="path1438"
         style="fill:#fffffd" />
      <path
         d="m 2028.5,359.4 h 6.9 c 2,0 3.6,0.5 4.6,1.5 1,1 1.6,2.5 1.6,4.4 v 9.7 h -4.2 v -10.1 c 0,-1.5 -0.7,-2.3 -2,-2.3 h -2.7 V 375 h -4.2 z"
         id="path1440"
         style="fill:#fffffd" />
      <path
         d="m 2063.9,360.9 c 1.1,1 1.6,2.5 1.6,4.4 v 9.7 h -4.2 v -10.1 c 0,-1.5 -0.7,-2.3 -2,-2.3 h -2 c -0.1,0.5 -0.2,1 -0.3,1.6 -0.1,0.6 -0.1,1.1 -0.1,1.6 v 4.4 c 0,1.1 -0.2,2 -0.6,2.7 -0.4,0.8 -0.9,1.3 -1.6,1.7 -0.7,0.4 -1.6,0.6 -2.6,0.6 -0.6,0 -1.3,-0.1 -2,-0.2 v -3.3 h 0.8 c 1.2,0 1.9,-0.7 1.9,-2 V 366 c 0,-0.6 0.1,-1.2 0.2,-1.8 0.1,-0.6 0.4,-1.2 0.6,-1.7 h -2.4 v -3.3 h 8 c 2.1,0.2 3.6,0.7 4.7,1.7 z"
         id="path1442"
         style="fill:#fffffd" />
      <path
         d="m 2074.5,364.8 c 0,-0.7 -0.2,-1.2 -0.6,-1.5 -0.4,-0.4 -0.9,-0.5 -1.7,-0.5 h -4.7 v -3.3 h 5 c 1.3,0 2.4,0.2 3.3,0.7 0.9,0.4 1.6,1.1 2.1,1.9 0.5,0.8 0.7,1.8 0.7,3 v 10 h -4.2 v -10.3 z"
         id="path1444"
         style="fill:#fffffd" />
      <path
         d="m 2083.5,362.7 h -2.4 v -3.3 h 6.6 v 8.9 h -4.2 z"
         id="path1446"
         style="fill:#fffffd" />
      <path
         d="m 2092.6,366.3 c 0.1,-0.7 0.2,-1.4 0.5,-2 0.3,-0.6 0.6,-1.1 0.9,-1.5 l 0.2,-0.2 v -0.1 c -0.3,0.1 -0.7,0.2 -1.2,0.3 -0.5,0.1 -0.9,0.3 -1.2,0.4 l -0.9,-3.1 c 1,-0.4 2.2,-0.7 3.5,-0.9 1.4,-0.2 2.6,-0.3 3.9,-0.3 2.4,0 4.2,0.6 5.5,1.8 1.2,1.2 1.9,3 1.9,5.4 v 8.8 h -6.9 v -3.3 h 2.6 v -6.1 c 0,-1 -0.2,-1.8 -0.6,-2.4 -0.4,-0.6 -1,-0.8 -1.7,-0.8 -1.4,0 -2.2,1.1 -2.4,3.3 l -0.9,9.2 h -4.2 z"
         id="path1448"
         style="fill:#fffffd" />
      <path
         d="m 2113.6,371.2 c 0.7,0.3 1.5,0.6 2.4,0.8 0.9,0.2 1.6,0.3 2.4,0.3 1.9,0 3.4,-0.4 4.5,-1.2 1.1,-0.8 1.6,-2 1.6,-3.6 v -8 h 4.1 v 8.4 c 0,1.7 -0.4,3.1 -1.3,4.2 -0.9,1.1 -2.1,2 -3.6,2.6 -1.5,0.6 -3.2,0.9 -5.1,0.9 -1.5,0 -3,-0.2 -4.6,-0.5 -1.6,-0.4 -3,-0.9 -4.4,-1.5 v -14 h 4.1 v 11.6 z m 3.2,-2.6 c 0.1,-0.6 0.1,-1.3 0.1,-2 v -7.2 h 4.1 v 6.3 c 0,0.9 -0.1,1.7 -0.3,2.5 -0.2,0.8 -0.5,1.4 -0.8,1.8 h -3.4 c 0.1,-0.3 0.2,-0.8 0.3,-1.4 z"
         id="path1450"
         style="fill:#fffffd" />
    </g>
    <path
       id="path489_1_-1"
       d="m 99.475675,83.403069 c -1.719792,0 -3.148542,-1.402292 -3.148542,-3.148542 0,-1.719791 1.402292,-3.148541 3.148542,-3.148541 1.719795,0 3.148545,1.402291 3.148545,3.148541 0,1.74625 -1.4023,3.148542 -3.148545,3.148542 m 0,-6.958542 c -2.116667,0 -3.836458,1.719792 -3.836458,3.836459 0,2.116666 1.719791,3.836458 3.836458,3.836458 2.116665,0 3.836455,-1.719792 3.836455,-3.836458 0,-2.116667 -1.71979,-3.836459 -3.836455,-3.836459 m 0,3.386667 c -0.211667,0 -0.47625,0.211667 -0.47625,0.47625 v 1.402292 c 0,0.211666 0.211667,0.47625 0.47625,0.47625 0.211667,0 0.47625,-0.211667 0.47625,-0.47625 v -1.402292 c 0,-0.264583 -0.211667,-0.47625 -0.47625,-0.47625 m 0,-1.42875 c -0.211667,0 -0.47625,0.211667 -0.47625,0.47625 0,0.211667 0.211667,0.47625 0.47625,0.47625 0.211667,0 0.47625,-0.211667 0.47625,-0.47625 0,-0.264583 -0.211667,-0.47625 -0.47625,-0.47625"
       style="fill:#ffffcc;stroke-width:0.264583;enable-background:new" />
  </g>
</svg>
