<?xml version="1.0" encoding="UTF-8" standalone="no"?>
<svg
   xmlns:dc="http://purl.org/dc/elements/1.1/"
   xmlns:cc="http://creativecommons.org/ns#"
   xmlns:rdf="http://www.w3.org/1999/02/22-rdf-syntax-ns#"
   xmlns:svg="http://www.w3.org/2000/svg"
   xmlns="http://www.w3.org/2000/svg"
   id="svg8373"
   version="1.1"
   viewBox="0 0 19.153187 29.422406"
   height="111.20279"
   width="72.389999">
  <defs
     id="defs8367" />
  <metadata
     id="metadata8370">
    <rdf:RDF>
      <cc:Work
         rdf:about="">
        <dc:format>image/svg+xml</dc:format>
        <dc:type
           rdf:resource="http://purl.org/dc/dcmitype/StillImage" />
        <dc:title></dc:title>
      </cc:Work>
    </rdf:RDF>
  </metadata>
  <g
     transform="translate(-106.08412,-106.90784)"
     id="layer1">
    <g
       id="g5014"
       transform="matrix(0.26458333,0,0,0.26458333,-615.14358,-189.393)">
      <path
         id="path355-10"
         data-name="path355"
         class="cls-4"
         d="m 2798.29,1156.08 c 0,19.89 -36.19,75 -36.19,75 0,0 -36.2,-55.06 -36.2,-75 a 36.34,36.34 0 0 1 36.2,-36.2 c 19.88,-0.25 36.19,16.32 36.19,36.2"
         style="fill:#ec2426" />
      <path
         class="cls-5"
         d="M 2781.11,1181.46 V 1154 a 5,5 0 0 0 -5,-5 h -27.48 a 4.93,4.93 0 0 0 -5,5 v 0 27.42 a 5,5 0 0 0 5,5 h 27.52 a 4.86,4.86 0 0 0 5,-5 z m -6.28,1.93 h -24.93 a 3.26,3.26 0 0 1 -3.26,-3.26 v -24.75 a 3.26,3.26 0 0 1 3.26,-3.26 h 24.93 a 3.26,3.26 0 0 1 3.27,3.26 v 24.75 a 3.26,3.26 0 0 1 -3.27,3.26 z"
         id="path993"
         style="fill:#fbf2de" />
      <path
         class="cls-5"
         d="m 2769.15,1127.81 a 2.6,2.6 0 1 1 5.19,0 l -0.08,10.88 2.79,-3.42 c 1.93,-2.11 5.31,0.84 3.22,3.23 l -6.77,8 a 2.33,2.33 0 0 1 -3.52,0 l -6.73,-8.08 c -2.1,-2.39 1.32,-5.37 3.22,-3.23 l 2.76,3.45 z"
         id="path995"
         style="fill:#fbf2de" />
      <path
         class="cls-5"
         d="m 2750.31,1144.67 a 2.6,2.6 0 1 0 5.19,0 l -0.08,-10.88 2.79,3.42 c 1.93,2.11 5.32,-0.84 3.23,-3.23 l -6.77,-8 a 2.33,2.33 0 0 0 -3.52,0 l -6.74,8.09 c -2.09,2.39 1.33,5.37 3.22,3.22 l 2.76,-3.45 z"
         id="path997"
         style="fill:#fbf2de" />
      <path
         class="cls-5"
         d="m 2774.64,1169.72 a 0.92,0.92 0 0 1 -0.92,0.92 h -6.07 a 0.93,0.93 0 0 1 -0.93,-0.92 v -6.6 a 1.27,1.27 0 0 1 1.27,-1.28 h 5.38 a 1.27,1.27 0 0 1 1.27,1.28 z"
         id="path999"
         style="fill:#fbf2de" />
      <path
         class="cls-5"
         d="m 2773.16,1170.4 h -2.31 v 8.93 a 1.16,1.16 0 1 0 2.31,0 z"
         id="path1001"
         style="fill:#fbf2de" />
      <path
         class="cls-5"
         d="m 2770.5,1170.4 h -2.31 v 8.93 a 1.16,1.16 0 1 0 2.31,0 z"
         id="path1003"
         style="fill:#fbf2de" />
      <circle
         class="cls-5"
         cx="2770.71"
         cy="1159.5699"
         r="1.73"
         id="circle1005"
         style="fill:#fbf2de" />
      <path
         class="cls-5"
         d="m 2766.34,1169.72 a 0.92,0.92 0 0 1 -0.92,0.92 h -6.07 a 0.93,0.93 0 0 1 -0.93,-0.92 v -6.6 a 1.27,1.27 0 0 1 1.27,-1.28 h 5.38 a 1.27,1.27 0 0 1 1.27,1.28 z"
         id="path1007"
         style="fill:#fbf2de" />
      <path
         class="cls-5"
         d="m 2764.86,1170.4 h -2.31 v 8.93 a 1.16,1.16 0 1 0 2.31,0 z"
         id="path1009"
         style="fill:#fbf2de" />
      <path
         class="cls-5"
         d="m 2762.19,1170.4 h -2.31 v 8.93 a 1.16,1.16 0 1 0 2.31,0 z"
         id="path1012"
         style="fill:#fbf2de" />
      <circle
         class="cls-5"
         cx="2762.3999"
         cy="1159.5699"
         r="1.73"
         id="circle1014"
         style="fill:#fbf2de" />
      <path
         class="cls-5"
         d="m 2758,1169.72 a 0.92,0.92 0 0 1 -0.92,0.92 H 2751 a 0.92,0.92 0 0 1 -0.92,-0.92 v -6.6 a 1.27,1.27 0 0 1 1.27,-1.28 h 5.38 a 1.27,1.27 0 0 1 1.27,1.28 z"
         id="path1016"
         style="fill:#fbf2de" />
      <path
         class="cls-5"
         d="m 2756.56,1170.4 h -2.32 v 8.93 a 1.16,1.16 0 1 0 2.32,0 z"
         id="path1018"
         style="fill:#fbf2de" />
      <path
         class="cls-5"
         d="m 2753.89,1170.4 h -2.31 v 8.93 a 1.16,1.16 0 1 0 2.31,0 z"
         id="path1020"
         style="fill:#fbf2de" />
      <circle
         class="cls-5"
         cx="2754.1001"
         cy="1159.5699"
         r="1.73"
         id="circle1022"
         style="fill:#fbf2de" />
    </g>
  </g>
</svg>
