<?xml version="1.0" encoding="UTF-8" standalone="no"?>
<svg
   xmlns:dc="http://purl.org/dc/elements/1.1/"
   xmlns:cc="http://creativecommons.org/ns#"
   xmlns:rdf="http://www.w3.org/1999/02/22-rdf-syntax-ns#"
   xmlns:svg="http://www.w3.org/2000/svg"
   xmlns="http://www.w3.org/2000/svg"
   xmlns:xlink="http://www.w3.org/1999/xlink"
   version="1.1"
   id="svg9502"
   viewBox="0 0 48.3 39.800027"
   height="39.800026"
   width="48.299999">
  <defs
     id="defs9504">
    <clipPath
       id="SVGID_24_">
      <use
         height="100%"
         width="100%"
         y="0"
         x="0"
         style="overflow:visible"
         xlink:href="#SVGID_23_"
         overflow="visible"
         id="use455" />
    </clipPath>
  </defs>
  <metadata
     id="metadata9507">
    <rdf:RDF>
      <cc:Work
         rdf:about="">
        <dc:format>image/svg+xml</dc:format>
        <dc:type
           rdf:resource="http://purl.org/dc/dcmitype/StillImage" />
        <dc:title></dc:title>
      </cc:Work>
    </rdf:RDF>
  </metadata>
  <g
     transform="translate(-338.70715,-435.31934)"
     id="layer1">
    <rect
       style="fill:#141132"
       x="338.70715"
       y="435.31934"
       width="48.299999"
       height="13"
       id="rect323" />
    <text
       y="445.05157"
       x="342.36896"
       style="font-style:normal;font-variant:normal;font-weight:bold;font-stretch:normal;font-size:11.5199995px;line-height:125%;font-family:Alef;text-align:start;writing-mode:lr-tb;text-anchor:start;fill:#2cc1d7"
       font-size="11.52"
       id="text445">3</text>
    <path
       style="fill:#2cc1d7"
       d="m 353.80715,437.51936 0,1.6 3.2,0 c 0,0.1 0,0.2 0.1,0.2 0,0.1 0,0.1 0,0.2 0,0.1 0,0.2 0,0.3 0,0.1 0,0.2 0,0.3 l 0,1.2 c 0,0.4 -0.1,0.9 -0.3,1.3 -0.2,0.4 -0.4,0.8 -0.8,1.2 l -1.4,1.6 -1.1,-0.9 0.6,-0.7 c 0.3,-0.3 0.5,-0.6 0.7,-0.8 0.2,-0.2 0.3,-0.4 0.4,-0.5 0.1,-0.2 0.2,-0.3 0.2,-0.5 0,-0.1 0.1,-0.3 0.1,-0.5 l 0,-1 -3.3,0 0,-3 1.6,0 z m 7.3,1.7 0,5.9 -1.5,0 0,-4.6 -1,0 0,-1.2 2.5,0 z m 3.4,1.2 c -0.2,0 -0.4,0 -0.5,0 -0.1,0 -0.3,0 -0.4,0 -0.1,0 -0.3,0 -0.4,-0.1 -0.1,0 -0.3,-0.1 -0.5,-0.1 0.1,-0.2 0.1,-0.4 0.2,-0.6 0.1,-0.2 0.1,-0.4 0.2,-0.6 0.2,0.1 0.4,0.1 0.5,0.1 0.1,0 0.3,0.1 0.4,0.1 0.1,0 0.3,0 0.4,0 0.1,0 0.3,0 0.5,0 l 0.5,0 c 0.2,0 0.5,0 0.7,0.1 0.2,0.1 0.4,0.2 0.6,0.3 0.2,0.1 0.3,0.4 0.4,0.6 0.1,0.3 0.2,0.6 0.2,1 0,0.2 0,0.4 0,0.6 0,0.2 0,0.4 0,0.6 0,0.2 0,0.5 0,0.7 0,0.2 0,0.5 0,0.8 0,0.1 0,0.2 0,0.2 0,0.1 0,0.2 0,0.2 0,0.1 0,0.2 0,0.3 0,0.1 0,0.2 -0.1,0.4 l -4.9,0 0,-1.2 3.5,0 c 0,-0.2 0,-0.4 0,-0.6 0,-0.2 0,-0.4 0,-0.6 0,-0.2 0,-0.4 0,-0.6 0,-0.2 0,-0.4 0,-0.6 0,-0.2 0,-0.4 0,-0.6 0,-0.1 -0.1,-0.3 -0.1,-0.3 -0.1,-0.1 -0.2,-0.1 -0.3,-0.2 -0.1,0 -0.3,0 -0.5,0 l -0.4,0 z m 6.1,3.5 c 0.1,0 0.2,0 0.2,0 0.1,0 0.2,0 0.3,0 0.2,0 0.5,0 0.7,-0.1 0.2,0 0.5,-0.1 0.7,-0.2 0.2,-0.1 0.4,-0.2 0.6,-0.4 0.2,-0.2 0.4,-0.4 0.5,-0.7 0.2,-0.4 0.4,-0.8 0.4,-1.2 0.1,-0.4 0.1,-0.8 0.1,-1.2 0,-0.2 0,-0.3 0,-0.5 0,-0.2 0,-0.3 0,-0.5 0.2,0 0.3,-0.1 0.4,-0.1 0.1,0 0.2,-0.1 0.3,-0.1 0.1,0 0.2,0 0.3,-0.1 0.1,0 0.3,0 0.4,-0.1 0,0.2 0.1,0.3 0.1,0.5 0,0.2 0,0.4 0,0.6 0,0.2 0,0.4 0,0.5 0,0.2 0,0.3 0,0.5 -0.2,1.4 -0.7,2.4 -1.5,3.1 -0.8,0.7 -1.9,1 -3.4,1 -0.2,0 -0.5,0 -0.8,0 -0.3,0 -0.5,0 -0.8,-0.1 l -0.3,-3.4 c 0,-0.2 0,-0.4 0,-0.5 0,-0.1 0,-0.3 0,-0.4 0,-0.1 0,-0.2 0,-0.3 0,-0.1 0,-0.2 -0.1,-0.3 0,-0.1 -0.1,-0.2 -0.1,-0.3 0,-0.1 -0.1,-0.2 -0.1,-0.4 0.2,-0.1 0.4,-0.2 0.7,-0.3 0.2,-0.1 0.5,-0.2 0.7,-0.3 0.1,0.2 0.2,0.4 0.2,0.6 0.1,0.2 0.1,0.4 0.1,0.5 0,0.2 0.1,0.4 0.1,0.6 0,0.2 0,0.4 0.1,0.7 l 0.2,2.9 z m 0.5,-2.8 c 0.1,-0.2 0.1,-0.3 0.1,-0.4 0,-0.1 0.1,-0.2 0.1,-0.3 0,-0.1 0,-0.2 0.1,-0.2 0,-0.1 0,-0.2 0,-0.2 0,0 0,-0.1 0,-0.1 0,0 0,-0.1 0,-0.1 0,-0.1 0,-0.1 0,-0.2 0,-0.1 0,-0.1 0,-0.2 0.2,-0.1 0.5,-0.1 0.7,-0.2 0.2,-0.1 0.5,-0.1 0.7,-0.2 0,0.2 0.1,0.3 0.1,0.5 0,0.1 0,0.3 0,0.4 0,0.1 0,0.2 0,0.3 0,0.1 0,0.2 -0.1,0.4 0,0.1 -0.1,0.3 -0.1,0.4 -0.1,0.1 -0.1,0.3 -0.2,0.5 l -0.4,1 c -0.2,0 -0.3,-0.1 -0.4,-0.1 -0.1,0 -0.2,-0.1 -0.3,-0.1 -0.1,0 -0.2,-0.1 -0.3,-0.1 -0.1,0 -0.2,-0.1 -0.4,-0.2 l 0.4,-0.9 z m 11.4,0.1 c -0.1,0.2 -0.1,0.4 -0.2,0.6 -0.1,0.2 -0.1,0.4 -0.2,0.5 -0.1,0.1 -0.2,0.3 -0.3,0.4 -0.1,0.1 -0.3,0.3 -0.4,0.4 l 1.2,1.4 -1,0.9 -2.9,-3.4 c -0.1,0.1 -0.1,0.2 -0.1,0.4 0,0.2 -0.1,0.3 -0.1,0.5 0,0.2 0,0.4 0,0.6 0,0.2 0,0.4 0,0.5 0,0.1 0,0.1 0,0.2 0,0.1 0,0.2 0,0.3 0,0.1 0,0.2 0,0.3 0,0.1 0,0.2 0,0.3 l -1.4,0 c 0,-0.1 0,-0.2 0,-0.3 0,-0.1 0,-0.3 0,-0.4 0,-0.1 0,-0.3 0,-0.5 0,-0.2 0,-0.4 0,-0.6 0,-0.2 0,-0.4 0,-0.6 0,-0.2 0.1,-0.4 0.1,-0.6 0.1,-0.2 0.1,-0.4 0.2,-0.5 0.1,-0.2 0.2,-0.3 0.4,-0.5 -0.1,-0.1 -0.2,-0.2 -0.3,-0.4 -0.1,-0.1 -0.1,-0.2 -0.2,-0.4 -0.1,-0.1 -0.1,-0.3 -0.2,-0.4 -0.1,-0.1 -0.1,-0.3 -0.2,-0.5 0.2,-0.1 0.4,-0.2 0.7,-0.3 0.2,-0.1 0.5,-0.2 0.7,-0.2 0.1,0.2 0.2,0.4 0.2,0.6 0.1,0.2 0.2,0.3 0.2,0.5 0.1,0.1 0.2,0.3 0.3,0.4 0.1,0.1 0.2,0.3 0.4,0.5 l 1.1,1.2 c 0.1,-0.1 0.2,-0.2 0.2,-0.3 0.1,-0.1 0.1,-0.3 0.2,-0.4 0,-0.1 0,-0.1 0.1,-0.2 0,-0.1 0,-0.2 0.1,-0.2 l 0.1,-0.7 -0.8,-0.1 0.2,-1.2 2.1,0.4 0,0.7 -0.2,1.1 z"
       id="path447" />
    <g
       transform="translate(-0.05,0)"
       id="g9546">
      <g
         id="g449"
         transform="translate(224.50715,-42.480637)">
        <defs
           id="defs451">
          <rect
             height="1157.5"
             width="554"
             y="79.099998"
             x="24.700001"
             id="SVGID_23_" />
        </defs>
        <clipPath
           id="clipPath6961">
          <use
             id="use6963"
             overflow="visible"
             xlink:href="#SVGID_23_"
             style="overflow:visible"
             x="0"
             y="0"
             width="100%"
             height="100%" />
        </clipPath>
        <path
           id="path457"
           d="m 146.2,501.5 c 0,4.3 -7.8,16.1 -7.8,16.1 0,0 -7.8,-11.8 -7.8,-16.1 0,-4.3 3.5,-7.8 7.8,-7.8 4.3,0 7.8,3.5 7.8,7.8"
           clip-path="url(#SVGID_24_)"
           style="fill:#141132" />
      </g>
      <g
         id="g4679-4-4"
         transform="matrix(0.42702949,0,0,0.42702949,184.36561,334.03722)">
        <path
           id="path6-3-2"
           d="m 424.54546,286.15412 c 1.85464,-0.0582 3.57011,-1.68632 3.95865,-3.46384 -1.80064,0.0167 -3.61501,1.73654 -3.95865,3.46384 z m -3.95866,-1.97933 c -2.15238,2.58295 -5.54781,3.70063 -8.41213,5.3332 -2.60183,1.22601 -4.95404,3.35221 -7.91731,3.57375 -0.063,1.87162 0.72728,3.61682 0.98973,5.44315 1.93446,-0.5728 2.74746,-0.41288 3.62441,1.43299 1.80719,2.32395 6.11157,1.02854 6.27222,-1.92768 2.56373,0.0911 5.1526,-0.0847 7.68231,-0.17563 1.04724,0.96036 3.83498,0.82749 3.17384,-1.13733 -0.73218,-4.08636 -1.97178,-8.10011 -3.17512,-12.06107 -0.22301,-0.924 -1.54179,-0.30023 -2.23795,-0.48138 z"
           style="fill:#ffffff;stroke:none" />
        <path
           id="path8-6-1"
           d="m 420.5868,288.13345 c -3.84054,2.20629 -7.73209,4.41135 -11.69568,6.37272 0.44095,0.97032 2.98595,0.39058 4.26967,0.55505 3.13512,0 6.27023,0 9.40534,0 -0.30394,-2.31575 -0.87971,-4.92173 -1.97933,-6.92777 z"
           style="opacity:1;fill:#141032;fill-opacity:1;stroke:none" />
        <path
           id="path10-3-3"
           d="m 427.01961,290.6076 c 1.70152,0.0327 3.33128,-0.53455 4.94832,-0.98972 0.43106,-2.37935 -2.34116,-1.0727 -3.51675,-0.59917 -0.72289,0.2373 -1.38596,0.78076 -1.43157,1.58884 m 0,3.95866 c 0.92882,1.23137 3.19636,2.16256 4.59095,1.33327 0.95119,-1.49012 -2.353,-1.27237 -3.37467,-1.6742 -0.47111,-0.0743 -0.80667,0.14847 -1.21628,0.34093 z"
           style="fill:#ffffff;stroke:none" />
        <path
           id="path12-1-27"
           d="m 409.20568,298.03008 c 0.6552,1.45484 2.37387,2.64913 3.71124,1.19586 2.05114,-1.95225 -1.93207,-0.9692 -3.10824,-1.19586 -0.201,0 -0.402,0 -0.603,0 z"
           style="fill:#141032;fill-opacity:1;stroke:none" />
      </g>
    </g>
  </g>
</svg>
