<svg xmlns="http://www.w3.org/2000/svg" viewBox="0 0 24.04 27.718" height="104.76" width="90.86">
    <path style="fill:#a22442" d="M883.92 359.18c0 11.42-20.77 42.73-20.77 42.73s-20.77-31.31-20.77-42.73c0-11.42 9.35-20.77 20.77-20.77 11.53.11 20.77 9.35 20.77 20.77m-66.2-62.03h90.86v34.58h-90.86z" class="st2" transform="translate(-216.355 -78.62) scale(.26458)"/>
    <path style="fill:#fff" d="M845.55 308.22c.9.87 1.35 2.19 1.35 3.96v8.47h-2.16l-.01-8.6c0-1.19-.25-2.05-.76-2.59s-1.33-.8-2.46-.8h-1.95c-.26.42-.46.96-.61 1.61-.15.66-.23 1.33-.23 2.02v4.63c0 1.26-.3 2.21-.9 2.87-.6.65-1.47.98-2.61.98-.33 0-.78-.04-1.34-.1v-1.74c.25.03.52.05.8.05.68 0 1.17-.17 1.47-.52.3-.35.46-.9.46-1.65v-4.33c0-.71.09-1.41.28-2.11.19-.7.44-1.26.77-1.68h-2.58v-1.74h6.4c1.83-.03 3.18.4 4.08 1.27zm5.88.43h-1.6v-1.74h3.76v13.73h-2.17v-11.99zm8.9 12.03c-.8-.13-1.57-.33-2.31-.58l.42-1.62c.68.21 1.38.37 2.08.47.7.1 1.33.16 1.89.16 1.27-.02 2.26-.34 2.95-.97.69-.63 1.04-1.53 1.04-2.7v-6.78h-5.5c-.25.43-.45.97-.6 1.63a8.81 8.81 0 0 0-.23 1.96v1.05c.17.08.4.13.69.16.29.03.66.05 1.13.05v1.86c-.96 0-1.72-.06-2.27-.17-.55-.11-1.1-.32-1.65-.61l-.05-1.77c0-.78.1-1.55.3-2.3.2-.75.47-1.37.81-1.86h-1.67v-1.74h11.2v8.11c0 1.29-.25 2.37-.76 3.25-.51.88-1.21 1.53-2.1 1.96-.9.43-1.94.65-3.13.65-.69-.01-1.43-.08-2.24-.21zm13.1-12.03h-1.6v-1.74h3.76v13.73h-2.17v-11.99zm11 10.29c.77-.02 1.44-.19 2.02-.51.57-.32 1.02-.77 1.34-1.35.32-.58.48-1.26.48-2.06v-6.37h-8.47v-1.74h10.64v8.06c0 1.14-.25 2.13-.74 2.98-.49.85-1.19 1.5-2.1 1.96-.91.46-1.96.71-3.16.73v-1.7zm-4.37-3.45c0-.7.05-1.25.16-1.65.1-.4.25-.81.45-1.22h1.77c-.1.35-.17.74-.22 1.17-.05.43-.06.96-.06 1.58v10.13h-2.1z" class="st8" transform="translate(-216.355 -78.62) scale(.26458)"/>
</svg>
