<svg width="141.4" height="94.6" viewBox="0 0 37.412 25.029" version="1.1" id="svg2792" xmlns="http://www.w3.org/2000/svg">
    <style type="text/css" id="style2">
        .st0{enable-background:new}.st3{fill:#3a536b}.st4{fill:#95c760;stroke:#0b608c;stroke-width:1.275;stroke-miterlimit:10}.st5{fill:#fbcfd5}.st6{fill:#f0717c}.st7{fill:#d0efff}.st11{fill:#fffffd}.st16{fill:#97c85f}.st17{fill:#3c536b}.st18{fill:#d2f0ff}.st21{fill:#f2717c}.st24{fill:#97c85f;stroke:#3c536b;stroke-width:1.275;stroke-miterlimit:10}.st26{fill:none}
    </style>
    <g id="layer1" transform="translate(-85.33 -108.854)">
        <g id="g669" transform="translate(-303.337 -326.565) scale(.26458)">
            <g id="g667">
                <path id="path355_00000044867205189369998830000006186623587541041795_" d="M1556.9 1704.7c0 9.5-17.2 35.6-17.2 35.6s-17.2-26.2-17.2-35.6c0-9.5 7.8-17.2 17.2-17.2 9.5-.2 17.2 7.7 17.2 17.2" style="fill:#3696c9"/>
            </g>
        </g>
        <path id="rect475_12_" style="fill:#3696c9;stroke-width:.26458" d="M85.331 108.854h35.665v10.186H85.331z"/>
        <path d="M104.01 126.422a.32.32 0 0 1-.132.132 1.12 1.12 0 0 1-.794.318 1.12 1.12 0 0 1-.794-.318c-.45-.45-.45-1.164 0-1.587l.133-.132c-.106-.186-.212-.344-.292-.53v-.026a1.757 1.757 0 0 0-.344 2.752c.345.344.768.502 1.244.502s.9-.185 1.244-.502c.105-.106.185-.212.264-.344h-.026c-.133-.053-.318-.16-.503-.265z" id="path672" style="fill:#fff;stroke-width:.26458"/>
        <path d="M105.545 124.914a1.112 1.112 0 0 0-.688.318.488.488 0 0 1-.318.132.438.438 0 0 1-.317-.132l-.582-.583a.463.463 0 0 1 0-.661l.026-.026c.159-.16.265-.397.318-.635-.239-.133-.45-.239-.662-.292-.476-.132-.714-.026-.847.106-.211.212-.211.609-.026 1.085.185.423.503.9.926 1.297.397.396.873.74 1.296.926.239.105.45.158.635.158.186 0 .344-.053.45-.158.133-.133.238-.37.106-.847a1.804 1.804 0 0 0-.317-.688z" id="path674" style="fill:#fff;stroke-width:.26458"/>
        <path d="M106.391 122.453c-.238-.238-.555-.344-.9-.344a1.2 1.2 0 0 0-.872.37 1.208 1.208 0 0 0-.344.768 1.54 1.54 0 0 1-.397.926l-.027.027a.161.161 0 0 0 0 .211l.582.582a.2.2 0 0 0 .106.053.2.2 0 0 0 .106-.053 1.51 1.51 0 0 1 .952-.423c.291-.026.583-.159.794-.37a1.26 1.26 0 0 0 .37-.9c0-.29-.132-.608-.37-.847z" id="path676" style="fill:#fff;stroke-width:.26458"/>
        <g id="g764" transform="translate(-303.337 -326.565) scale(.26458)">
            <path d="m1479 1672.7-.3-2.5c.6-.1 1.1-.2 1.4-.4.3-.2.5-.4.6-.8.1-.3.2-.8.1-1.3v-9.7h7.6c.8 0 1.6.2 2.2.5.6.3 1.1.8 1.5 1.5.4.7.6 1.6.6 2.7v9.6h-3.6v-9.8c0-.7-.2-1.1-.4-1.4-.3-.3-.7-.4-1.3-.4h-3v6.5c0 1.3-.2 2.3-.6 3.1-.4.8-1 1.3-1.8 1.7-.8.4-1.7.6-3 .7z" id="path746" style="fill:#fff"/>
            <path d="M1495.6 1672.3V1661l-.3-2.9h3.6l.3 2.9v11.3z" id="path748" style="fill:#fff"/>
            <path d="m1503.3 1672.5-1.7-14.5h3.6l1.2 11.3c.9-.1 1.7-.3 2.3-.5.6-.3 1.1-.6 1.5-1.1.4-.4.6-1 .8-1.6.2-.6.2-1.3.2-2v-.8c0-.5-.1-.9-.3-1.3-.2-.4-.4-.7-.8-1-.4-.3-.8-.4-1.4-.5l-1.2-.1.3-2.8 1.5.1c1 0 1.9.3 2.7.6.8.4 1.4.9 1.9 1.7.5.7.8 1.7.8 2.8v.7c0 1.5-.2 2.8-.7 3.9-.5 1.1-1.3 2-2.3 2.7-1 .7-2.2 1.2-3.7 1.6-1.5.4-3 .8-4.7.8z" id="path750" style="fill:#fff"/>
            <path d="M1516.9 1672.3V1661l-.3-2.9h3.6l.3 2.9v11.3z" id="path752" style="fill:#fff"/>
            <path d="m1522.5 1673.3-.5-2.8 5.8-1.1c.8-.1 1.5-.4 2-.8s.9-.8 1.1-1.4c.3-.6.4-1.3.5-2.2.1-.9.1-1.9.2-3v-4h3.6c0 1.6 0 3.1-.1 4.5-.1 1.3-.2 2.5-.4 3.6s-.6 2-1.1 2.8c-.5.8-1.2 1.5-2.1 2-.9.5-2.1 1-3.5 1.3zm3.6-3.3-3-12h3.6l2.8 12z" id="path754" style="fill:#fff"/>
            <path d="M1537.6 1672.3v-2.7h5c.5 0 .9-.1 1.3-.2s.7-.4 1-.7c.3-.3.5-.7.6-1.1.1-.4.2-.9.2-1.5v-1.9c0-.7-.1-1.3-.3-1.8-.2-.5-.5-.9-.9-1.3-.4-.3-.9-.5-1.6-.5h-1.8l-.4 2.1c-.1.6-.1 1.1.1 1.4.2.3.7.5 1.4.7l-.6 2.3c-1.2 0-2.1-.3-2.8-.7-.6-.4-1.1-1-1.3-1.7-.2-.7-.2-1.5-.1-2.3l1-4.5h5.3c1.2 0 2.2.3 3 .8.8.5 1.5 1.3 1.9 2.2.4 1 .7 2.1.7 3.3v1.5c0 1-.1 1.9-.4 2.7-.3.8-.7 1.5-1.2 2s-1.1 1-1.8 1.3c-.7.3-1.5.4-2.4.4h-5.9z" id="path756" style="fill:#fff"/>
            <path d="M1562.4 1672.3v-9.8c0-.7-.1-1.1-.4-1.4-.3-.3-.7-.4-1.2-.4h-4.9v-2.7h5.8c.8 0 1.6.2 2.2.5.6.3 1.2.8 1.5 1.5.3.7.6 1.6.6 2.7v9.6z" id="path758" style="fill:#fff"/>
            <path d="M1573.9 1672.3v-8.7c0-.6.1-1.2.2-1.7s.3-.9.5-1.2h-6.4v-2.7h11.7v2.7h-1.9c-.2.4-.3.9-.4 1.4-.1.5-.1 1-.1 1.5v8.7z" id="path760" style="fill:#fff"/>
            <path d="M1590.9 1672.3v-9.6c0-1.3-.6-2-1.7-2h-7v-2.7h7.9c.8 0 1.6.2 2.3.5.6.3 1.2.9 1.5 1.6.4.7.5 1.6.5 2.8v9.5h-3.5zm-8.6 0v-12.7h3.6v12.7z" id="path762" style="fill:#fff"/>
        </g>
    </g>
</svg>
