<?xml version="1.0" encoding="UTF-8" standalone="no"?>
<svg
   xmlns:dc="http://purl.org/dc/elements/1.1/"
   xmlns:cc="http://creativecommons.org/ns#"
   xmlns:rdf="http://www.w3.org/1999/02/22-rdf-syntax-ns#"
   xmlns:svg="http://www.w3.org/2000/svg"
   xmlns="http://www.w3.org/2000/svg"
   xmlns:xlink="http://www.w3.org/1999/xlink"
   version="1.1"
   id="svg6291"
   viewBox="0 0 104.8 39.000012"
   height="39.000011"
   width="104.8">
  <defs
     id="defs6293">
    <clipPath
       id="SVGID_76_">
      <use
         id="use971"
         overflow="visible"
         xlink:href="#SVGID_75_"
         style="overflow:visible"
         x="0"
         y="0"
         width="100%"
         height="100%" />
    </clipPath>
    <clipPath
       id="SVGID_58_">
      <use
         id="use875"
         overflow="visible"
         xlink:href="#SVGID_57_"
         style="overflow:visible"
         x="0"
         y="0"
         width="100%"
         height="100%" />
    </clipPath>
  </defs>
  <metadata
     id="metadata6296">
    <rdf:RDF>
      <cc:Work
         rdf:about="">
        <dc:format>image/svg+xml</dc:format>
        <dc:type
           rdf:resource="http://purl.org/dc/dcmitype/StillImage" />
        <dc:title></dc:title>
      </cc:Work>
    </rdf:RDF>
  </metadata>
  <g
     transform="translate(-207.60001,-378.57648)"
     id="layer1">
    <rect
       id="rect863"
       height="13"
       width="104.8"
       y="378.57648"
       x="207.60001"
       style="fill:#141132" />
    <path
       id="path867"
       d="m 215.79998,382.37649 c 0.2,0 0.5,0 0.7,0.1 0.2,0.1 0.4,0.2 0.6,0.3 0.2,0.1 0.3,0.3 0.4,0.6 0.1,0.3 0.2,0.6 0.2,1 l 0,3.9 -1.5,0 0,-3.5 c 0,-0.2 0,-0.4 0,-0.6 0,-0.1 -0.1,-0.3 -0.1,-0.3 -0.1,-0.1 -0.2,-0.1 -0.3,-0.2 -0.1,0 -0.3,0 -0.5,0 l -0.8,0 c -0.1,0.3 -0.2,0.5 -0.3,0.8 0,0.3 -0.1,0.6 -0.1,0.9 0,0.2 0,0.3 0,0.5 0,0.1 0,0.3 0,0.4 0,0.1 0,0.3 0.1,0.4 0,0.1 0.1,0.3 0.1,0.4 l 0.1,0.3 c 0,0.2 0,0.3 -0.1,0.5 0,0.1 0,0.3 -0.1,0.4 l -2.8,0 0,-1.2 1.3,0 c -0.1,-0.3 -0.2,-0.6 -0.2,-0.8 0,-0.3 -0.1,-0.5 -0.1,-0.8 0,-0.2 0,-0.4 0,-0.6 0,-0.2 0.1,-0.4 0.1,-0.6 0,-0.1 0.1,-0.2 0.1,-0.3 0,-0.1 0.1,-0.2 0.1,-0.3 -0.2,0 -0.3,0 -0.5,-0.1 -0.2,0 -0.3,-0.1 -0.6,-0.2 0.1,-0.2 0.1,-0.4 0.2,-0.6 0.1,-0.2 0.1,-0.4 0.2,-0.6 0.2,0.1 0.4,0.1 0.5,0.1 0.1,0 0.3,0.1 0.4,0.1 0.1,0 0.3,0 0.4,0 0.1,0 0.3,0 0.5,0 l 2,0 z m 5.8,0 0,5.9 -1.5,0 0,-4.6 -1,0 0,-1.2 2.5,0 z m 2.9,-1.6 0,1.6 3.2,0 c 0,0.1 0,0.2 0.1,0.2 0,0.1 0,0.1 0,0.2 0,0.1 0,0.2 0,0.3 0,0.1 0,0.2 0,0.3 l 0,1.2 c 0,0.4 -0.1,0.9 -0.3,1.3 -0.2,0.4 -0.4,0.8 -0.8,1.2 l -1.4,1.6 -1.1,-0.9 0.6,-0.7 c 0.3,-0.3 0.5,-0.6 0.7,-0.8 0.2,-0.2 0.3,-0.4 0.4,-0.5 0.1,-0.2 0.2,-0.3 0.2,-0.5 0,-0.1 0.1,-0.3 0.1,-0.5 l 0,-1 -3.3,0 0,-2.9 1.6,0 z m 7.3,1.6 0,5.9 -1.5,0 0,-4.6 -1,0 0,-1.2 2.5,0 z m 5.1,0 c 0.2,0 0.5,0 0.7,0.1 0.2,0.1 0.4,0.2 0.6,0.3 0.2,0.1 0.3,0.3 0.4,0.6 0.1,0.3 0.2,0.6 0.2,1 0,0.1 0,0.2 0,0.2 0,0.1 0,0.2 0,0.3 0,0.1 0,0.2 0,0.4 0,0.1 0,0.3 0,0.5 0,0.4 -0.1,0.7 -0.2,1 -0.1,0.3 -0.3,0.6 -0.6,0.8 -0.2,0.2 -0.5,0.4 -0.8,0.5 -0.3,0.1 -0.7,0.2 -1,0.2 -0.4,0 -0.7,-0.1 -1,-0.2 -0.3,-0.1 -0.6,-0.3 -0.8,-0.5 -0.2,-0.2 -0.4,-0.5 -0.6,-0.8 -0.1,-0.3 -0.2,-0.7 -0.2,-1 0,0 0,-0.1 0,-0.1 0,0 0,-0.1 0,-0.1 0,-0.2 0,-0.4 0,-0.5 0,-0.2 0.1,-0.4 0.1,-0.6 0,-0.1 0.1,-0.3 0.2,-0.4 0.1,-0.1 0.1,-0.3 0.2,-0.4 -0.2,0 -0.3,0 -0.5,-0.1 -0.2,0 -0.3,-0.1 -0.6,-0.2 0.1,-0.2 0.1,-0.4 0.2,-0.6 0.1,-0.2 0.1,-0.4 0.2,-0.6 0.2,0 0.3,0.1 0.5,0.1 0.1,0 0.2,0.1 0.4,0.1 0.1,0 0.2,0 0.4,0 0.1,0 0.3,0 0.4,0 l 0.2,0 1.6,0 z m -1.5,1.2 c -0.1,0.1 -0.1,0.2 -0.2,0.3 0,0.1 -0.1,0.2 -0.1,0.3 -0.1,0.2 -0.1,0.4 -0.1,0.6 0,0.2 0,0.4 0,0.6 0,0.1 0,0.2 0,0.3 0,0.1 0,0.2 0,0.3 0,0.2 0.1,0.3 0.1,0.5 0.1,0.1 0.1,0.3 0.2,0.4 0.1,0.1 0.2,0.2 0.3,0.2 0.1,0.1 0.3,0.1 0.4,0.1 0.1,0 0.3,0 0.4,-0.1 0.1,-0.1 0.3,-0.1 0.4,-0.2 0.1,-0.1 0.2,-0.2 0.2,-0.4 0.1,-0.1 0.1,-0.3 0.1,-0.5 0,-0.1 0,-0.2 0,-0.3 0,-0.1 0,-0.2 0,-0.3 0,-0.1 0,-0.2 0,-0.4 0,-0.1 0,-0.2 0,-0.3 0,-0.2 0,-0.4 -0.1,-0.6 0,-0.1 -0.1,-0.3 -0.1,-0.3 -0.1,-0.1 -0.2,-0.1 -0.3,-0.2 -0.1,0 -0.3,0 -0.5,0 l -0.7,0 z m 7.9,-1.2 0,0.8 c 0,0.1 0,0.2 0,0.2 0,0.1 0,0.2 0,0.3 0,0.1 0,0.3 0.1,0.5 0,0.2 0,0.4 0.1,0.7 0,0.3 0.1,0.6 0.1,0.9 0,0.3 0.1,0.7 0.1,1.2 0,0.1 0,0.1 0,0.2 0,0.1 0,0.1 0,0.2 0,0.1 0,0.2 0,0.2 0,0.1 0,0.1 0,0.2 0,0.1 0,0.1 0,0.2 0,0.1 0,0.2 0,0.3 l -3.8,0 0,-1.2 2.4,0 c 0,-0.1 0,-0.2 0,-0.4 0,-0.2 0,-0.4 -0.1,-0.6 0,-0.2 -0.1,-0.5 -0.1,-0.7 0,-0.3 -0.1,-0.5 -0.1,-0.7 0,-0.2 -0.1,-0.4 -0.1,-0.6 0,-0.2 0,-0.3 0,-0.4 l -1.4,0 0,-1.2 2.8,0 z m 4.3,0 0,5.9 -1.5,0 0,-4.6 -1,0 0,-1.2 2.5,0 z m 3.3,1.2 c -0.2,0 -0.4,0 -0.5,0 -0.1,0 -0.3,0 -0.4,0 -0.1,0 -0.3,0 -0.4,-0.1 -0.1,0 -0.3,-0.1 -0.5,-0.1 0.1,-0.2 0.1,-0.4 0.2,-0.6 0.1,-0.2 0.1,-0.4 0.2,-0.6 0.2,0 0.3,0.1 0.5,0.1 0.1,0 0.2,0.1 0.4,0.1 0.1,0 0.2,0 0.4,0 0.1,0 0.3,0 0.4,0 l 0.2,0 3.3,0 c 0,0.1 0,0.1 0.1,0.2 0,0.1 0,0.1 0,0.2 0,0.1 0,0.2 0,0.3 0,0.1 0,0.2 0,0.3 l 0,1.2 c 0,0.2 0,0.4 0,0.6 0,0.2 -0.1,0.3 -0.1,0.5 -0.1,0.2 -0.1,0.3 -0.2,0.5 -0.1,0.2 -0.2,0.3 -0.3,0.5 -0.1,0.1 -0.2,0.3 -0.3,0.5 -0.1,0.2 -0.3,0.4 -0.5,0.6 -0.2,0.2 -0.3,0.4 -0.5,0.6 -0.2,0.2 -0.3,0.3 -0.4,0.5 l -1.1,-0.9 0.8,-0.9 c 0.2,-0.2 0.4,-0.4 0.5,-0.6 0.1,-0.2 0.2,-0.3 0.3,-0.4 0.1,-0.1 0.1,-0.2 0.2,-0.3 0,-0.1 0.1,-0.2 0.1,-0.3 0,-0.1 0,-0.2 0.1,-0.3 0,-0.1 0,-0.2 0,-0.3 l 0,-1 -2.5,0 z m -1.7,2.9 c 0,-0.2 0,-0.3 0,-0.4 0,-0.1 0,-0.3 0,-0.4 0,-0.1 0,-0.2 0,-0.4 0,-0.1 0,-0.2 0.1,-0.4 0.3,0 0.5,0.1 0.8,0.1 0.3,0 0.5,0.1 0.8,0.2 0,0.2 -0.1,0.4 -0.1,0.6 0,0.2 0,0.5 0,0.7 l 0,3.4 -1.5,0 0,-3.4 z m 9.4,-4.1 0,5.9 -1.5,0 0,-4.6 -1,0 0,-1.2 2.5,0 z m 6.6,1.2 c -0.2,0 -0.4,0 -0.5,0 -0.1,0 -0.3,0 -0.4,0 -0.1,0 -0.3,0 -0.4,-0.1 -0.1,0 -0.3,-0.1 -0.5,-0.1 0.1,-0.2 0.1,-0.4 0.2,-0.6 0.1,-0.2 0.1,-0.4 0.2,-0.6 0.2,0.1 0.4,0.1 0.5,0.1 0.1,0 0.3,0.1 0.4,0.1 0.1,0 0.3,0 0.4,0 0.1,0 0.3,0 0.5,0 l 1.2,0 c 0.2,0 0.5,0 0.7,0.1 0.2,0.1 0.4,0.2 0.6,0.3 0.2,0.1 0.3,0.3 0.4,0.6 0.1,0.3 0.2,0.6 0.2,1 l 0,3.9 -1.5,0 0,-3.5 c 0,-0.2 0,-0.4 0,-0.6 0,-0.1 -0.1,-0.3 -0.1,-0.3 -0.1,-0.1 -0.2,-0.1 -0.3,-0.2 -0.1,0 -0.3,0 -0.5,0 l -1.1,0 z m -1.8,2.9 c 0,-0.2 0,-0.3 0,-0.4 0,-0.1 0,-0.3 0,-0.4 0,-0.1 0,-0.2 0,-0.4 0,-0.1 0,-0.2 0.1,-0.4 0.3,0 0.5,0.1 0.8,0.1 0.3,0 0.5,0.1 0.8,0.2 0,0.2 -0.1,0.4 -0.1,0.6 0,0.2 0,0.5 0,0.7 l 0,1.7 -1.5,0 0,-1.7 z m 9.4,-4.1 0,2.1 c 0,0.2 0,0.4 0,0.5 0,0.1 0,0.3 0,0.4 0,0.1 0,0.2 0,0.3 0,0.1 0,0.2 -0.1,0.3 l -1.5,-0.2 c 0,-0.1 0,-0.2 0.1,-0.3 0,-0.1 0,-0.2 0,-0.3 0,-0.1 0,-0.2 0,-0.4 0,-0.1 0,-0.3 0,-0.5 l 0,-0.8 -1.3,0 0,-1.2 2.8,0 z m 4.1,0 0,2.1 c 0,0.2 0,0.4 0,0.5 0,0.1 0,0.3 0,0.4 0,0.1 0,0.2 0,0.3 0,0.1 0,0.2 -0.1,0.3 l -1.5,-0.2 c 0,-0.1 0,-0.2 0.1,-0.3 0,-0.1 0,-0.2 0,-0.3 0,-0.1 0,-0.2 0,-0.4 0,-0.1 0,-0.3 0,-0.5 l 0,-0.8 -1.3,0 0,-1.2 2.8,0 z m 3.2,1.2 c -0.2,0 -0.4,0 -0.5,0 -0.1,0 -0.3,0 -0.4,0 -0.1,0 -0.3,0 -0.4,-0.1 -0.1,0 -0.3,-0.1 -0.5,-0.1 0.1,-0.2 0.1,-0.4 0.2,-0.6 0.1,-0.2 0.1,-0.4 0.2,-0.6 0.2,0 0.3,0.1 0.5,0.1 0.1,0 0.2,0.1 0.4,0.1 0.1,0 0.2,0 0.4,0 0.1,0 0.3,0 0.4,0 l 0.2,0 3.3,0 c 0,0.1 0,0.1 0.1,0.2 0,0.1 0,0.1 0,0.2 0,0.1 0,0.2 0,0.3 0,0.1 0,0.2 0,0.3 l 0,1.2 c 0,0.2 0,0.4 0,0.6 0,0.2 -0.1,0.3 -0.1,0.5 -0.1,0.2 -0.1,0.3 -0.2,0.5 -0.1,0.2 -0.2,0.3 -0.3,0.5 -0.1,0.1 -0.2,0.3 -0.3,0.5 -0.1,0.2 -0.3,0.4 -0.5,0.6 -0.2,0.2 -0.3,0.4 -0.5,0.6 -0.2,0.2 -0.3,0.3 -0.4,0.5 l -1.1,-0.9 0.8,-0.9 c 0.2,-0.2 0.4,-0.4 0.5,-0.6 0.1,-0.2 0.2,-0.3 0.3,-0.4 0.1,-0.1 0.1,-0.2 0.2,-0.3 0,-0.1 0.1,-0.2 0.1,-0.3 0,-0.1 0,-0.2 0.1,-0.3 0,-0.1 0,-0.2 0,-0.3 l 0,-1 -2.5,0 z m -1.8,2.9 c 0,-0.2 0,-0.3 0,-0.4 0,-0.1 0,-0.3 0,-0.4 0,-0.1 0,-0.2 0,-0.4 0,-0.1 0,-0.2 0.1,-0.4 0.3,0 0.5,0.1 0.8,0.1 0.3,0 0.5,0.1 0.8,0.2 0,0.2 -0.1,0.4 -0.1,0.6 0,0.2 0,0.5 0,0.7 l 0,3.4 -1.5,0 0,-3.4 z m 10.8,-4.1 c 0.2,0 0.5,0 0.7,0.1 0.2,0.1 0.4,0.2 0.6,0.3 0.2,0.1 0.3,0.3 0.4,0.6 0.1,0.3 0.2,0.6 0.2,1 l 0,3.9 -1.5,0 0,-3.5 c 0,-0.2 0,-0.4 0,-0.6 0,-0.1 -0.1,-0.3 -0.1,-0.3 -0.1,-0.1 -0.2,-0.1 -0.3,-0.2 -0.1,0 -0.3,0 -0.5,0 l -1.1,0 c -0.1,0.3 -0.1,0.5 -0.1,0.7 0,0.2 0,0.4 0,0.7 l 0,3.3 -1.5,0 0,-3.2 c 0,-0.2 0,-0.5 0,-0.7 0,-0.2 0.1,-0.5 0.1,-0.7 -0.1,0 -0.3,0 -0.4,-0.1 -0.1,0 -0.3,-0.1 -0.5,-0.1 0.1,-0.2 0.1,-0.4 0.2,-0.6 0.1,-0.2 0.1,-0.4 0.2,-0.6 0.2,0.1 0.4,0.1 0.5,0.1 0.1,0 0.3,0.1 0.4,0.1 0.1,0 0.3,0 0.4,0 0.1,0 0.3,0 0.5,0 l 1.8,0 z m 5.1,4.7 c 0.1,0 0.2,0 0.2,0 0.1,0 0.2,0 0.3,0 0.2,0 0.5,0 0.7,-0.1 0.2,0 0.5,-0.1 0.7,-0.2 0.2,-0.1 0.4,-0.2 0.6,-0.4 0.2,-0.2 0.4,-0.4 0.5,-0.7 0.2,-0.4 0.4,-0.8 0.4,-1.2 0.1,-0.4 0.1,-0.8 0.1,-1.2 0,-0.2 0,-0.3 0,-0.5 0,-0.2 0,-0.3 0,-0.5 0.2,0 0.3,-0.1 0.4,-0.1 0.1,0 0.2,-0.1 0.3,-0.1 0.1,0 0.2,0 0.3,-0.1 0.1,0 0.3,0 0.5,-0.1 0,0.2 0.1,0.3 0.1,0.5 0,0.2 0,0.4 0,0.6 0,0.2 0,0.4 0,0.5 0,0.2 0,0.3 0,0.5 -0.2,1.4 -0.7,2.4 -1.5,3.1 -0.8,0.7 -1.9,1 -3.4,1 -0.2,0 -0.5,0 -0.8,0 -0.3,0 -0.5,0 -0.8,-0.1 l -0.3,-3.4 c 0,-0.2 0,-0.4 0,-0.5 0,-0.1 0,-0.3 0,-0.4 0,-0.1 0,-0.2 0,-0.3 0,-0.1 0,-0.2 -0.1,-0.3 0,-0.1 -0.1,-0.2 -0.1,-0.3 0,-0.1 -0.1,-0.2 -0.1,-0.4 0.2,-0.1 0.4,-0.2 0.7,-0.3 0.2,-0.1 0.5,-0.2 0.7,-0.3 0.1,0.2 0.2,0.4 0.2,0.6 0.1,0.2 0.1,0.4 0.1,0.5 0,0.2 0.1,0.4 0.1,0.6 0,0.2 0,0.4 0.1,0.7 l 0.1,2.9 z m 0.6,-2.8 c 0.1,-0.2 0.1,-0.3 0.1,-0.4 0,-0.1 0.1,-0.2 0.1,-0.3 0,-0.1 0,-0.2 0.1,-0.2 0,-0.1 0,-0.2 0,-0.2 0,0 0,-0.1 0,-0.1 0,0 0,-0.1 0,-0.1 0,-0.1 0,-0.1 0,-0.2 0,-0.1 0,-0.1 0,-0.2 0.2,-0.1 0.5,-0.1 0.7,-0.2 0.2,-0.1 0.5,-0.1 0.7,-0.2 0,0.2 0.1,0.3 0.1,0.5 0,0.1 0,0.3 0,0.4 0,0.1 0,0.2 0,0.3 0,0.1 0,0.2 -0.1,0.4 0,0.1 -0.1,0.3 -0.1,0.4 0,0.1 -0.1,0.3 -0.2,0.5 l -0.4,1 c -0.2,0 -0.3,-0.1 -0.4,-0.1 -0.1,0 -0.2,-0.1 -0.3,-0.1 -0.1,0 -0.2,-0.1 -0.3,-0.1 -0.1,0 -0.2,-0.1 -0.4,-0.2 l 0.4,-0.9 z m 5.8,-1.5 c 0.2,-0.1 0.4,-0.3 0.6,-0.4 0.2,-0.1 0.4,-0.2 0.6,-0.4 0.1,0.1 0.2,0.2 0.2,0.3 0.1,0.1 0.1,0.2 0.2,0.3 0,0.1 0.1,0.2 0.1,0.2 0,0.1 0.1,0.2 0.1,0.3 0.3,-0.3 0.6,-0.6 1,-0.7 0.3,-0.2 0.7,-0.2 1,-0.2 0.2,0 0.5,0 0.7,0.1 0.2,0.1 0.4,0.2 0.6,0.3 0.2,0.1 0.3,0.3 0.4,0.5 0.1,0.2 0.2,0.4 0.3,0.7 0,0.2 0.1,0.4 0.1,0.7 0,0.3 0,0.5 0,0.8 0,0.1 0,0.3 0,0.4 0,0.2 0,0.3 0,0.6 0,0.3 0,0.5 0,0.7 0,0.2 0,0.4 0,0.6 0,0.1 0,0.2 0,0.3 0,0.1 0,0.2 0,0.3 l -3,0 0,-1.2 1.5,0 c 0,0 0,-0.1 0,-0.1 0,-0.1 0,-0.1 0,-0.3 0,-0.1 0,-0.3 0,-0.4 0,-0.1 0,-0.4 0,-0.7 0,-0.1 0,-0.2 0,-0.3 0,-0.1 0,-0.2 0,-0.3 0,-0.1 0,-0.2 0,-0.3 0,-0.1 0,-0.2 0,-0.3 0,-0.3 -0.1,-0.5 -0.3,-0.6 -0.1,-0.1 -0.3,-0.2 -0.6,-0.2 -0.1,0 -0.3,0 -0.4,0.1 -0.1,0.1 -0.3,0.1 -0.4,0.2 -0.1,0.1 -0.2,0.1 -0.3,0.2 -0.1,0.1 -0.2,0.2 -0.2,0.3 -0.1,0.4 -0.1,0.8 -0.2,1.1 0,0.3 -0.1,0.6 -0.1,0.8 0,0.2 -0.1,0.4 -0.1,0.6 0,0.2 -0.1,0.3 -0.1,0.5 0,0.2 0,0.3 -0.1,0.5 0,0.2 -0.1,0.4 -0.1,0.6 l -1.5,0 0.1,-1 c 0,-0.2 0.1,-0.5 0.1,-0.7 0,-0.2 0.1,-0.4 0.1,-0.6 0,-0.2 0.1,-0.4 0.1,-0.6 0,-0.2 0.1,-0.5 0.1,-0.7 0,-0.1 0,-0.1 0,-0.2 0,-0.1 0,-0.1 0,-0.2 0,-0.1 0,-0.2 0,-0.3 0,-0.1 0,-0.2 -0.1,-0.2 0,-0.1 -0.1,-0.2 -0.1,-0.2 0,-0.1 -0.1,-0.2 -0.1,-0.3 l -0.2,-0.6 z"
       style="fill:#8bceac" />
    <g
       transform="translate(0.800032,0)"
       id="g6339">
      <g
         transform="translate(-64.100022,261.87649)"
         id="g869">
        <defs
           id="defs871">
          <rect
             id="SVGID_57_"
             x="24.700001"
             y="79.099998"
             width="554"
             height="1157.5" />
        </defs>
        <clipPath
           id="clipPath5441">
          <use
             height="100%"
             width="100%"
             y="0"
             x="0"
             style="overflow:visible"
             xlink:href="#SVGID_57_"
             overflow="visible"
             id="use5443" />
        </clipPath>
        <path
           style="fill:#fcb65a;fill-opacity:1"
           clip-path="url(#SVGID_58_)"
           d="m 331.1,139.6 c 0,4.3 -7.8,16.1 -7.8,16.1 0,0 -7.8,-11.8 -7.8,-16.1 0,-4.3 3.5,-7.8 7.8,-7.8 4.3,0 7.8,3.5 7.8,7.8"
           id="path877" />
      </g>
      <g
         transform="translate(-64.100022,261.87649)"
         id="g965">
        <defs
           id="defs967">
          <rect
             id="SVGID_75_"
             x="24.700001"
             y="79.099998"
             width="554"
             height="1157.5" />
        </defs>
        <clipPath
           id="clipPath5449">
          <use
             height="100%"
             width="100%"
             y="0"
             x="0"
             style="overflow:visible"
             xlink:href="#SVGID_75_"
             overflow="visible"
             id="use5451" />
        </clipPath>
        <path
           style="fill:#ffffff"
           clip-path="url(#SVGID_76_)"
           d="m 326.6,138.3 c -0.4,0 -0.7,-0.3 -0.7,-0.7 0,-0.4 0.3,-0.7 0.7,-0.7 0.4,0 0.7,0.3 0.7,0.7 0,0.4 -0.3,0.7 -0.7,0.7 m -1.3,1.6 c -0.4,0 -0.7,-0.3 -0.7,-0.7 0,-0.4 0.3,-0.7 0.7,-0.7 0.4,0 0.7,0.3 0.7,0.7 0,0.4 -0.3,0.7 -0.7,0.7 m -2.6,-1.3 c 0,0.2 -0.2,0.4 -0.4,0.4 l -0.9,0 0,0.9 c 0,0.2 -0.2,0.4 -0.4,0.4 l -0.3,0 c -0.2,0 -0.4,-0.2 -0.4,-0.4 l 0,-0.9 -0.9,0 c -0.2,0 -0.4,-0.2 -0.4,-0.4 l 0,-0.3 c 0,-0.2 0.2,-0.4 0.4,-0.4 l 0.9,0 0,-0.9 c 0,-0.2 0.2,-0.4 0.4,-0.4 l 0.3,0 c 0.2,0 0.4,0.2 0.4,0.4 l 0,0.9 0.9,0 c 0.2,0 0.4,0.2 0.4,0.4 l 0,0.3 z m 6.5,0.2 c -0.6,-2.7 -1.4,-3.4 -2,-3.7 -0.8,-0.4 -1.8,-0.2 -2.1,0 -0.4,0.2 -0.6,0.5 -1,0.7 -0.4,0.2 -1,0.2 -1.4,0 -0.3,-0.2 -0.6,-0.5 -1.1,-0.7 -0.5,-0.2 -1.4,-0.5 -2.3,0.1 -0.2,0.1 -1.7,1.4 -2.1,5.2 -0.3,2.4 1,3.1 1,3.1 0.3,0.2 1.1,0.6 2.1,0 0.7,-0.4 1.2,-1.3 1.2,-1.3 0,0 0.2,-0.5 0.6,-0.7 0.2,-0.1 0.6,0 0.6,0 l 1.2,0 c 0,0 0.4,0 0.7,0.1 0.3,0.1 0.4,0.4 0.4,0.4 0,0 0.8,1 1.6,1.6 0.3,0.2 1.7,0.5 2.3,-0.3 0.5,-0.5 0.8,-2.2 0.3,-4.5"
           id="path973" />
      </g>
    </g>
  </g>
</svg>
