<?xml version="1.0" encoding="UTF-8" standalone="no"?>
<svg
   xmlns:dc="http://purl.org/dc/elements/1.1/"
   xmlns:cc="http://creativecommons.org/ns#"
   xmlns:rdf="http://www.w3.org/1999/02/22-rdf-syntax-ns#"
   xmlns:svg="http://www.w3.org/2000/svg"
   xmlns="http://www.w3.org/2000/svg"
   id="svg4608"
   version="1.1"
   viewBox="0 0 67.767721 94.035889"
   height="355.41122"
   width="256.12997">
  <defs
     id="defs4602" />
  <metadata
     id="metadata4605">
    <rdf:RDF>
      <cc:Work
         rdf:about="">
        <dc:format>image/svg+xml</dc:format>
        <dc:type
           rdf:resource="http://purl.org/dc/dcmitype/StillImage" />
        <dc:title></dc:title>
      </cc:Work>
    </rdf:RDF>
  </metadata>
  <g
     transform="translate(-83.096938,-71.577298)"
     id="layer1">
    <g
       id="g1358"
       transform="matrix(0.26458333,0,0,0.26458333,-155.08573,-252.7519)">
      <rect
         id="rect807-2"
         data-name="rect807"
         class="cls-4"
         x="901.66797"
         y="1225.8112"
         width="254.67999"
         height="251.35132"
         style="fill:#ec2426;stroke-width:0.93027717" />
      <path
         id="path877"
         class="cls-4"
         d="m 1055.808,1524.4624 c 0,15.12 -27.52,56.76 -27.52,56.76 0,0 -27.53,-41.64 -27.53,-56.76 a 27.53,27.53 0 0 1 55.05,0"
         style="fill:#2ca5e8;fill-opacity:1" />
      <path
         id="path973"
         class="cls-5"
         d="m 1039.978,1519.9024 a 2.43,2.43 0 1 1 2.42,-2.43 2.4,2.4 0 0 1 -2.42,2.43 m -4.56,5.56 a 2.43,2.43 0 1 1 2.42,-2.42 2.4,2.4 0 0 1 -2.42,2.42 m -9.27,-4.56 a 1.54,1.54 0 0 1 -1.43,1.42 h -3.14 v 3.14 a 1.54,1.54 0 0 1 -1.42,1.43 h -1 a 1.55,1.55 0 0 1 -1.43,-1.43 v -3.14 h -3.13 a 1.53,1.53 0 0 1 -1.43,-1.42 v -1 a 1.54,1.54 0 0 1 1.43,-1.43 h 3.13 v -3.13 a 1.54,1.54 0 0 1 1.43,-1.43 h 1 a 1.53,1.53 0 0 1 1.42,1.43 v 3.13 h 3.14 a 1.55,1.55 0 0 1 1.43,1.43 z m 23,0.71 c -2.14,-9.55 -5,-12 -7,-13.12 a 8.7,8.7 0 0 0 -7.42,0 c -1.42,0.71 -2.14,1.71 -3.56,2.42 a 6,6 0 0 1 -5,0 18.14,18.14 0 0 0 -3.85,-2.42 c -1.71,-0.71 -5,-1.71 -8.13,0.29 -0.71,0.28 -6,5 -7.42,18.39 -1,8.41 3.57,11 3.57,11 a 6.6,6.6 0 0 0 7.41,0 14.77,14.77 0 0 0 4.28,-4.56 5.3,5.3 0 0 1 2.14,-2.43 5.17,5.17 0 0 1 2.14,0 h 4.28 a 10.59,10.59 0 0 1 2.42,0.29 2.49,2.49 0 0 1 1.43,1.42 38.45,38.45 0 0 0 5.7,5.71 c 1,0.71 6,1.71 8.13,-1 1.57,-1.85 2.57,-7.84 0.86,-16"
         style="fill:#fbf2de" />
      <g
         id="g1681"
         transform="translate(27.157979,-40.947607)">
        <path
           style="fill:#fffffd"
           id="path341"
           d="m 937.12,1308.43 a 8.9,8.9 0 0 1 0.22,-2.1 4.73,4.73 0 0 1 0.51,-1.3 2,2 0 0 1 0.51,-0.61 h 4.58 a 20.81,20.81 0 0 0 -0.24,3.33 v 7 h -5.58 z m 10.33,-5.75 a 1.81,1.81 0 0 0 -0.55,-1.42 2.28,2.28 0 0 0 -1.59,-0.51 h -8.08 v -4.46 h 8.53 a 9.34,9.34 0 0 1 4,0.8 5.92,5.92 0 0 1 2.58,2.31 6.81,6.81 0 0 1 0.9,3.57 v 11.81 h -5.8 z"
           class="cls-13" />
        <path
           style="fill:#fffffd"
           id="path343"
           d="m 958.55,1300.75 h -2.66 v -4.46 h 8.44 V 1307 h -5.78 z"
           class="cls-13" />
        <path
           style="fill:#fffffd"
           id="path345"
           d="m 970,1300.75 h -2.66 v -4.46 h 8.44 V 1307 H 970 Z"
           class="cls-13" />
        <path
           style="fill:#fffffd"
           id="path347"
           d="m 987.31,1310.43 a 3.56,3.56 0 0 0 2.59,-1 4.19,4.19 0 0 0 0.87,-2.9 v -5.73 h -10.41 v -4.46 h 16.2 v 10.07 a 7.81,7.81 0 0 1 -2.39,6.12 10.61,10.61 0 0 1 -6.86,2.3 z m -6.91,-1.9 a 8.37,8.37 0 0 1 0.22,-2.09 4.54,4.54 0 0 1 0.5,-1.31 2.21,2.21 0 0 1 0.52,-0.6 h 4.59 a 16.47,16.47 0 0 0 -0.26,3.33 v 13.28 h -5.57 z"
           class="cls-13" />
        <path
           style="fill:#fffffd"
           id="path349"
           d="m 1001.28,1296.29 h 8.59 a 7.74,7.74 0 0 1 5.49,1.77 6.93,6.93 0 0 1 1.91,5.2 v 11.52 h -5.78 v -12 a 2.24,2.24 0 0 0 -0.43,-1.47 1.46,1.46 0 0 0 -1.18,-0.52 H 1007 v 14 h -5.8 z"
           class="cls-13" />
        <path
           style="fill:#fffffd"
           id="path351"
           d="m 1027.09,1309.76 a 16.33,16.33 0 0 0 2.69,0.84 12,12 0 0 0 2.65,0.33 8.44,8.44 0 0 0 5.15,-1.39 5,5 0 0 0 1.86,-4.26 v -9 h 5.6 v 9.72 a 8.23,8.23 0 0 1 -1.65,5.2 9.84,9.84 0 0 1 -4.44,3.2 17.62,17.62 0 0 1 -6.29,1.06 26.05,26.05 0 0 1 -5.64,-0.65 25.62,25.62 0 0 1 -5.51,-1.9 v -16.57 h 5.58 z m 3.19,-2.92 c 0.07,-0.73 0.1,-1.49 0.1,-2.27 v -8.28 h 5.62 v 7 a 12.44,12.44 0 0 1 -0.36,3 6,6 0 0 1 -0.91,2.18 h -4.67 a 11.37,11.37 0 0 0 0.22,-1.63 z"
           class="cls-13" />
        <path
           style="fill:#fffffd"
           id="path353"
           d="m 1050.71,1305.05 a 9.28,9.28 0 0 1 0.57,-2.35 5.66,5.66 0 0 1 1,-1.79 0.64,0.64 0 0 1 0.18,-0.16 v -0.09 a 10.34,10.34 0 0 0 -1.28,0.32 8.31,8.31 0 0 0 -1.19,0.42 l -1.21,-4.15 a 22.75,22.75 0 0 1 4.23,-1.08 28,28 0 0 1 4.71,-0.41 c 3,0 5.21,0.74 6.74,2.24 1.53,1.5 2.3,3.68 2.32,6.57 v 10.21 h -8.33 v -4.46 h 2.55 v -6.54 a 4.52,4.52 0 0 0 -0.57,-2.44 1.75,1.75 0 0 0 -1.54,-0.89 2,2 0 0 0 -1.78,0.93 6.41,6.41 0 0 0 -0.79,2.87 l -1,10.53 h -5.71 z"
           class="cls-13" />
      </g>
      <path
         class="cls-13"
         d="m 969.60798,1318.3524 a 4.58,4.58 0 0 0 -1.06,-3.38 4.65,4.65 0 0 0 -3.39,-1.05 h -6.52 v -2.28 h 6.66 a 7.51,7.51 0 0 1 5.34,1.71 6.68,6.68 0 0 1 1.81,5.08 v 11.22 h -2.84 z m -10.94,5.15 a 9.64,9.64 0 0 1 0.2,-2.19 9.51,9.51 0 0 1 0.59,-1.61 h 2.32 a 10.72,10.72 0 0 0 -0.27,1.56 20,20 0 0 0 -0.09,2.06 v 6.33 h -2.75 z"
         id="path372"
         style="fill:#fffffd" />
      <path
         class="cls-13"
         d="m 989.71798,1313.4324 -6.56,16.22 h -3 l 6.52,-15.73 h -10.64 v -7.75 h 2.83 v 5.47 h 10.85 z"
         id="path374"
         style="fill:#fffffd" />
      <path
         class="cls-13"
         d="m 996.91798,1329.6924 a 18.66,18.66 0 0 1 -3,-0.76 l 0.55,-2.13 a 18.56,18.56 0 0 0 2.73,0.62 16.7,16.7 0 0 0 2.49,0.21 5.6,5.6 0 0 0 3.86002,-1.27 4.55,4.55 0 0 0 1.36,-3.55 v -8.89 h -7.21002 a 7.6,7.6 0 0 0 -0.79,2.13 11.36,11.36 0 0 0 -0.3,2.58 v 1.42 a 3.11,3.11 0 0 0 0.91,0.22 14.51,14.51 0 0 0 1.48,0.06 v 2.44 a 15.41,15.41 0 0 1 -3,-0.22 7.84,7.84 0 0 1 -2.17,-0.8 l -0.06,-2.32 a 11.75,11.75 0 0 1 0.39,-3 7.54,7.54 0 0 1 1.06,-2.44 h -2.19 v -2.28 h 14.69002 v 10.64 a 8.44,8.44 0 0 1 -1,4.26 6.32,6.32 0 0 1 -2.76,2.56 9.34,9.34 0 0 1 -4.11002,0.85 18.48,18.48 0 0 1 -2.93,-0.33 z"
         id="path376"
         style="fill:#fffffd" />
      <path
         class="cls-13"
         d="m 1011.388,1329.6224 0.08,-2.22 a 11.55,11.55 0 0 0 2.23,0.2 2.36,2.36 0 0 0 1.88,-0.72 3.31,3.31 0 0 0 0.63,-2.22 v -10.74 h -3.53 v -2.28 h 6.37 v 13.25 a 5.31,5.31 0 0 1 -1.22,3.77 4.63,4.63 0 0 1 -3.52,1.29 13.69,13.69 0 0 1 -2.92,-0.33 z"
         id="path378"
         style="fill:#fffffd" />
      <path
         class="cls-13"
         d="m 1022.158,1329.7224 v -2.61 a 6.23,6.23 0 0 0 0.89,0.06 5.24,5.24 0 0 0 3.57,-1.34 5.77,5.77 0 0 0 1.76,-3.28 v -8.63 h -4.06 v -2.28 h 6.84 v 9.29 a 13.18,13.18 0 0 0 0.29,2.76 l 1.25,6 h -2.67 l -1.06,-5 h -0.1 a 5.85,5.85 0 0 1 -1,2.56 6.32,6.32 0 0 1 -2.14,1.9 5.92,5.92 0 0 1 -2.84,0.71 4,4 0 0 1 -0.73,-0.14 z"
         id="path380"
         style="fill:#fffffd" />
      <path
         class="cls-13"
         d="m 1057.158,1313.3524 q 1.77,1.7 1.77,5.19 v 11.11 h -2.83 v -11.28 a 4.83,4.83 0 0 0 -1,-3.4 4.28,4.28 0 0 0 -3.23,-1.05 h -2.55 a 7.12,7.12 0 0 0 -0.8,2.12 11.64,11.64 0 0 0 -0.3,2.65 v 6.07 a 5.32,5.32 0 0 1 -1.18,3.75 4.38,4.38 0 0 1 -3.42,1.29 15.34,15.34 0 0 1 -1.76,-0.14 v -2.28 a 7.07,7.07 0 0 0 1.06,0.07 2.44,2.44 0 0 0 1.93,-0.69 3.25,3.25 0 0 0 0.6,-2.17 v -5.69 a 11,11 0 0 1 0.37,-2.77 6,6 0 0 1 1,-2.21 h -3.38 v -2.28 h 8.39 q 3.55,0 5.33,1.71 z"
         id="path382"
         style="fill:#fffffd" />
      <path
         class="cls-13"
         d="m 1062.158,1329.6224 0.07,-2.22 a 11.73,11.73 0 0 0 2.24,0.2 2.37,2.37 0 0 0 1.88,-0.72 3.36,3.36 0 0 0 0.62,-2.22 v -10.74 h -3.53 v -2.28 h 6.38 v 13.25 a 5.27,5.27 0 0 1 -1.23,3.77 4.59,4.59 0 0 1 -3.51,1.29 13.69,13.69 0 0 1 -2.92,-0.33 z"
         id="path384"
         style="fill:#fffffd" />
      <path
         class="cls-13"
         d="m 1076.708,1313.9224 h -3.3 v -2.28 h 6.15 v 10 h -2.85 z"
         id="path386"
         style="fill:#fffffd" />
      <path
         class="cls-13"
         d="m 1088.078,1329.6924 a 18.28,18.28 0 0 1 -3,-0.76 l 0.55,-2.13 a 18.15,18.15 0 0 0 2.72,0.62 16.81,16.81 0 0 0 2.49,0.21 5.64,5.64 0 0 0 3.87,-1.27 4.59,4.59 0 0 0 1.36,-3.55 v -8.89 h -7.22 a 7.93,7.93 0 0 0 -0.79,2.13 11.93,11.93 0 0 0 -0.29,2.58 v 1.42 a 3,3 0 0 0 0.9,0.22 14.65,14.65 0 0 0 1.48,0.06 v 2.44 a 15.48,15.48 0 0 1 -3,-0.22 8,8 0 0 1 -2.17,-0.8 l -0.06,-2.32 a 11.75,11.75 0 0 1 0.39,-3 7.54,7.54 0 0 1 1.06,-2.44 h -2.21 v -2.28 h 14.68 v 10.64 a 8.44,8.44 0 0 1 -1,4.26 6.21,6.21 0 0 1 -2.76,2.56 9.3,9.3 0 0 1 -4.1,0.85 18.5,18.5 0 0 1 -2.9,-0.33 z"
         id="path388"
         style="fill:#fffffd" />
      <path
         class="cls-13"
         d="m 988.09798,1351.4824 h -2.09 v -2.28 h 4.93 v 18 h -2.84 z"
         id="path390"
         style="fill:#fffffd" />
      <path
         class="cls-13"
         d="m 994.01798,1367.2824 v -2.61 a 6.09,6.09 0 0 0 0.88,0.06 5.29,5.29 0 0 0 3.58,-1.34 5.83,5.83 0 0 0 1.76002,-3.28 v -8.63 h -4.08002 v -2.28 h 6.86002 v 9.29 a 13.18,13.18 0 0 0 0.29,2.76 l 1.26,6 h -2.68 l -1,-5.05 h -0.11 a 5.63,5.63 0 0 1 -1.00002,2.55 6.28,6.28 0 0 1 -2.15,1.91 5.88,5.88 0 0 1 -2.83,0.71 4,4 0 0 1 -0.78,-0.09 z"
         id="path392"
         style="fill:#fffffd" />
      <path
         class="cls-13"
         d="m 1029.038,1350.9124 a 6.91,6.91 0 0 1 1.76,5.18 v 11.12 h -2.83 v -11.28 a 4.83,4.83 0 0 0 -1,-3.4 4.31,4.31 0 0 0 -3.23,-1 h -2.58 a 7.4,7.4 0 0 0 -0.8,2.12 11.64,11.64 0 0 0 -0.3,2.65 v 6.07 a 5.41,5.41 0 0 1 -1.17,3.76 4.45,4.45 0 0 1 -3.43,1.28 15.36,15.36 0 0 1 -1.75,-0.14 v -2.28 a 8.4,8.4 0 0 0 1.05,0.07 2.43,2.43 0 0 0 1.93,-0.69 3.2,3.2 0 0 0 0.61,-2.17 v -5.69 a 10.91,10.91 0 0 1 0.36,-2.77 6.22,6.22 0 0 1 1,-2.21 h -3.38 v -2.28 h 8.4 a 7.42,7.42 0 0 1 5.36,1.66 z"
         id="path394"
         style="fill:#fffffd" />
      <path
         class="cls-13"
         d="m 1034.038,1367.1824 0.08,-2.22 a 11.55,11.55 0 0 0 2.23,0.2 2.37,2.37 0 0 0 1.88,-0.72 3.31,3.31 0 0 0 0.63,-2.22 v -10.74 h -3.53 v -2.28 h 6.37 v 13.25 a 5.31,5.31 0 0 1 -1.22,3.77 4.63,4.63 0 0 1 -3.52,1.29 13.69,13.69 0 0 1 -2.92,-0.33 z"
         id="path396"
         style="fill:#fffffd" />
      <path
         class="cls-13"
         d="m 1048.608,1351.4824 h -3.3 v -2.28 h 6.14 v 10 h -2.84 z"
         id="path398"
         style="fill:#fffffd" />
      <path
         class="cls-13"
         d="m 1059.978,1367.2524 a 18.66,18.66 0 0 1 -3,-0.76 l 0.55,-2.13 a 18.56,18.56 0 0 0 2.73,0.62 16.69,16.69 0 0 0 2.48,0.21 5.64,5.64 0 0 0 3.87,-1.27 4.55,4.55 0 0 0 1.36,-3.55 v -8.89 h -7.21 a 7.6,7.6 0 0 0 -0.79,2.13 11.36,11.36 0 0 0 -0.3,2.58 v 1.37 a 3.11,3.11 0 0 0 0.9,0.22 14.73,14.73 0 0 0 1.49,0.06 v 2.44 a 15.6,15.6 0 0 1 -3,-0.22 8.08,8.08 0 0 1 -2.17,-0.8 l -0.06,-2.32 a 11.75,11.75 0 0 1 0.39,-3 7.55,7.55 0 0 1 1.07,-2.44 h -2.19 v -2.28 h 14.69 v 10.64 a 8.34,8.34 0 0 1 -1,4.26 6.24,6.24 0 0 1 -2.75,2.56 9.34,9.34 0 0 1 -4.11,0.85 17.28,17.28 0 0 1 -2.95,-0.28 z"
         id="path400"
         style="fill:#fffffd" />
      <path
         class="cls-13"
         d="m 959.44798,1386.7624 h 6.77 q 3.59,0 5.34,1.71 a 7,7 0 0 1 1.77,5.18 v 11.11 h -2.83 v -11.27 a 4.78,4.78 0 0 0 -1,-3.4 4.32,4.32 0 0 0 -3.24,-1 h -4 v 15.72 h -2.83 z"
         id="path402"
         style="fill:#fffffd" />
      <path
         class="cls-13"
         d="m 979.28798,1389.0524 h -2.13 v -2.28 h 5 v 18 h -2.84 z"
         id="path404"
         style="fill:#fffffd" />
      <path
         class="cls-13"
         d="m 999.84798,1388.5524 -6.61,16.21 h -3 l 6.53,-15.72 h -10.61 v -7.75 h 2.82 v 5.47 h 10.86 z"
         id="path406"
         style="fill:#fffffd" />
      <path
         class="cls-13"
         d="m 1012.878,1389.0524 h -3.3 v -2.28 h 6.15 v 10 h -2.85 z"
         id="path408"
         style="fill:#fffffd" />
      <path
         class="cls-13"
         d="m 1026.998,1402.5324 a 5.74,5.74 0 0 0 2.65,-0.67 4.45,4.45 0 0 0 1.76,-1.76 5.61,5.61 0 0 0 0.62,-2.7 v -8.35 h -11.11 v -2.28 h 14 v 10.58 a 7.62,7.62 0 0 1 -1,3.9 6.6,6.6 0 0 1 -2.76,2.57 9.33,9.33 0 0 1 -4.15,1 z m -5.73,-4.52 a 7.59,7.59 0 0 1 0.8,-3.77 h 2.32 a 8.08,8.08 0 0 0 -0.28,1.52 20.14,20.14 0 0 0 -0.09,2.08 v 13.28 h -2.75 z"
         id="path410"
         style="fill:#fffffd" />
      <path
         class="cls-13"
         d="m 1040.418,1386.7624 h 6.74 q 3.59,0 5.34,1.71 a 7,7 0 0 1 1.77,5.18 v 11.11 h -2.83 v -11.27 a 4.78,4.78 0 0 0 -1,-3.4 4.32,4.32 0 0 0 -3.24,-1 h -4 v 15.72 h -2.83 z"
         id="path412"
         style="fill:#fffffd" />
      <path
         class="cls-13"
         d="m 1062.158,1401.5724 a 16.28,16.28 0 0 0 3.08,1 14.86,14.86 0 0 0 3.09,0.35 11.41,11.41 0 0 0 3.93,-0.63 6,6 0 0 0 2.72,-1.93 5.08,5.08 0 0 0 1,-3.19 v -10.39 h 2.75 v 10.65 a 6.7,6.7 0 0 1 -1.37,4.29 8.17,8.17 0 0 1 -3.69,2.62 14.68,14.68 0 0 1 -5.19,0.87 21.05,21.05 0 0 1 -4.59,-0.52 20.58,20.58 0 0 1 -4.47,-1.56 v -16.35 h 2.74 z m 5.18,-3.41 a 9.33,9.33 0 0 0 0.29,-2.44 v -9 h 2.76 v 8.45 a 8.55,8.55 0 0 1 -0.38,2.72 4.93,4.93 0 0 1 -1.18,2 l -2.35,-0.09 a 3.92,3.92 0 0 0 0.86,-1.64 z"
         id="path414"
         style="fill:#fffffd" />
      <path
         class="cls-13"
         d="m 1085.478,1393.3224 a 7.1,7.1 0 0 1 0.71,-2.36 5,5 0 0 1 1.3,-1.71 l 0.31,-0.21 v 0 c -0.46,0.09 -1,0.21 -1.72,0.39 -0.72,0.18 -1.32,0.37 -1.89,0.56 l -0.65,-2.14 a 24.75,24.75 0 0 1 4,-1 23.32,23.32 0 0 1 4,-0.38 7.46,7.46 0 0 1 5.55,1.93 7.78,7.78 0 0 1 1.94,5.68 v 10.72 h -7.41 v -2.27 h 4.54 v -8.77 a 5.48,5.48 0 0 0 -1,-3.71 4,4 0 0 0 -3.15,-1.25 3.15,3.15 0 0 0 -2.48,1.14 5.57,5.57 0 0 0 -1.22,3.09 l -1.36,11.72 h -2.8 z"
         id="path416"
         style="fill:#fffffd" />
      <path
         class="cls-13"
         d="m 938.75798,1431.0524 a 4.61,4.61 0 0 0 -1.05,-3.38 4.69,4.69 0 0 0 -3.4,-1 h -6.52 v -2.28 h 6.66 a 7.51,7.51 0 0 1 5.34,1.71 6.68,6.68 0 0 1 1.81,5.08 v 11.22 h -2.84 z m -10.94,5.15 a 7.54,7.54 0 0 1 0.79,-3.8 h 2.33 a 9.35,9.35 0 0 0 -0.28,1.55 20.34,20.34 0 0 0 -0.09,2.07 v 6.33 h -2.75 z"
         id="path418"
         style="fill:#fffffd" />
      <path
         class="cls-13"
         d="m 944.22798,1442.4024 v -2.61 a 6.23,6.23 0 0 0 0.89,0.06 5.26,5.26 0 0 0 3.57,-1.34 5.77,5.77 0 0 0 1.76,-3.28 v -8.63 h -4.06 v -2.28 h 6.86 v 9.29 a 12.4,12.4 0 0 0 0.29,2.75 l 1.25,6 h -2.63 l -1.06,-5 h -0.1 a 5.76,5.76 0 0 1 -1,2.55 6.24,6.24 0 0 1 -2.14,1.91 5.92,5.92 0 0 1 -2.84,0.71 4,4 0 0 1 -0.79,-0.13 z"
         id="path420"
         style="fill:#fffffd" />
      <path
         class="cls-13"
         d="m 956.94798,1442.2924 0.07,-2.21 a 11.7,11.7 0 0 0 2.23,0.2 2.34,2.34 0 0 0 1.88,-0.72 3.31,3.31 0 0 0 0.63,-2.22 v -10.74 h -3.53 v -2.28 h 6.37 v 13.25 a 5.26,5.26 0 0 1 -1.22,3.77 4.61,4.61 0 0 1 -3.51,1.29 13.11,13.11 0 0 1 -2.92,-0.34 z"
         id="path422"
         style="fill:#fffffd" />
      <path
         class="cls-13"
         d="m 980.20798,1434.4524 5.7,7.88 h -3.17 l -8,-11.07 a 3.8,3.8 0 0 0 -1.63,3.51 v 7.56 h -2.76 v -6.53 a 8.09,8.09 0 0 1 0.8,-3.83 5.11,5.11 0 0 1 2.46,-2.25 l -3.9,-5.4 h 3.18 l 5.58,7.7 4.34,-7.7 h 3.19 z"
         id="path424"
         style="fill:#fffffd" />
      <path
         class="cls-13"
         d="m 997.64798,1429.7624 a 3.06,3.06 0 0 0 -0.87,-2.31 3.19,3.19 0 0 0 -2.36,-0.85 h -6 v -2.28 h 6.14 a 7.22,7.22 0 0 1 3.2,0.67 4.75,4.75 0 0 1 2.05,1.94 6.09,6.09 0 0 1 0.71002,3 v 12.35 h -2.82002 z"
         id="path426"
         style="fill:#fffffd" />
      <path
         class="cls-13"
         d="m 1009.008,1441.7624 a 6.31,6.31 0 0 1 -2.53,-2.54 7.72,7.72 0 0 1 -0.9,-3.79 v -11.11 h 2.83 v 11.31 a 5.51,5.51 0 0 0 0.54,2.5 3.93,3.93 0 0 0 1.53,1.67 4.61,4.61 0 0 0 4.55,0 3.93,3.93 0 0 0 1.53,-1.67 5.51,5.51 0 0 0 0.54,-2.5 v -6 a 3.57,3.57 0 0 0 -0.65,-2.27 2.25,2.25 0 0 0 -1.84,-0.8 5.23,5.23 0 0 0 -2.2,0.58 l -0.44,-1.89 a 6.35,6.35 0 0 1 1.69,-0.77 6,6 0 0 1 1.78,-0.29 4.47,4.47 0 0 1 2.4,0.63 4,4 0 0 1 1.56,1.8 6.66,6.66 0 0 1 0.54,2.78 v 6.07 a 7.72,7.72 0 0 1 -0.89,3.79 6.33,6.33 0 0 1 -2.51,2.54 8.33,8.33 0 0 1 -7.53,0 z"
         id="path428"
         style="fill:#fffffd" />
      <path
         class="cls-13"
         d="m 1034.948,1434.4524 5.7,7.88 h -3.16 l -8,-11.07 a 3.8,3.8 0 0 0 -1.63,3.51 v 7.56 h -2.75 v -6.53 a 8.1,8.1 0 0 1 0.79,-3.83 5.11,5.11 0 0 1 2.46,-2.25 l -3.89,-5.4 h 3.18 l 5.57,7.7 4.34,-7.7 h 3.2 z"
         id="path430"
         style="fill:#fffffd" />
      <path
         class="cls-13"
         d="m 1045.758,1426.1624 h -2 v -5.37 -1.94 h 2.3 v 1.7 z"
         id="path432"
         style="fill:#fffffd" />
      <path
         class="cls-13"
         d="m 1058.228,1434.0524 4.75,6.86 v 1.44 h -13.33 v -2.3 h 9.68 l -10.76,-15.71 h 3.19 l 4.8,7.25 4,-7.25 h 3.19 z"
         id="path434"
         style="fill:#fffffd" />
      <path
         class="cls-13"
         d="m 1087.988,1426.0524 a 6.87,6.87 0 0 1 1.77,5.18 v 11.12 h -2.83 v -11.28 a 4.83,4.83 0 0 0 -1,-3.4 4.3,4.3 0 0 0 -3.23,-1 h -2.54 a 6.76,6.76 0 0 0 -0.8,2.12 11.64,11.64 0 0 0 -0.3,2.65 v 6.06 a 5.38,5.38 0 0 1 -1.18,3.76 4.4,4.4 0 0 1 -3.42,1.29 15.34,15.34 0 0 1 -1.76,-0.14 v -2.36 a 8.74,8.74 0 0 0 1,0.06 2.5,2.5 0 0 0 1.94,-0.68 3.25,3.25 0 0 0 0.6,-2.17 v -5.69 a 10.5,10.5 0 0 1 0.37,-2.77 6,6 0 0 1 1,-2.21 h -3.38 v -2.28 h 8.39 a 7.42,7.42 0 0 1 5.37,1.74 z"
         id="path436"
         style="fill:#fffffd" />
      <path
         class="cls-13"
         d="m 1092.998,1442.2924 0.07,-2.21 a 11.62,11.62 0 0 0 2.23,0.2 2.34,2.34 0 0 0 1.88,-0.72 3.31,3.31 0 0 0 0.63,-2.22 v -10.74 h -3.53 v -2.28 h 6.37 v 13.25 a 5.31,5.31 0 0 1 -1.22,3.77 4.61,4.61 0 0 1 -3.52,1.29 13,13 0 0 1 -2.91,-0.34 z"
         id="path438"
         style="fill:#fffffd" />
      <path
         class="cls-13"
         d="m 1107.558,1426.6024 h -3.3 v -2.28 h 6.14 v 10 h -2.84 z"
         id="path440"
         style="fill:#fffffd" />
      <path
         class="cls-13"
         d="m 1118.928,1442.3724 a 18.28,18.28 0 0 1 -3,-0.76 l 0.55,-2.13 a 18.15,18.15 0 0 0 2.72,0.62 16.81,16.81 0 0 0 2.49,0.21 5.65,5.65 0 0 0 3.86,-1.27 4.55,4.55 0 0 0 1.36,-3.55 v -8.89 h -7.21 a 7.6,7.6 0 0 0 -0.79,2.13 11.34,11.34 0 0 0 -0.29,2.58 v 1.37 a 3.28,3.28 0 0 0 0.9,0.22 14.51,14.51 0 0 0 1.48,0.06 v 2.44 a 15.48,15.48 0 0 1 -3,-0.22 8.3,8.3 0 0 1 -2.17,-0.8 l -0.06,-2.33 a 11.73,11.73 0 0 1 0.39,-3 7.54,7.54 0 0 1 1.06,-2.44 h -2.19 v -2.28 h 14.69 v 10.64 a 8.44,8.44 0 0 1 -1,4.26 6.21,6.21 0 0 1 -2.76,2.56 9.33,9.33 0 0 1 -4.1,0.85 18.5,18.5 0 0 1 -2.93,-0.27 z"
         id="path442"
         style="fill:#fffffd" />
    </g>
  </g>
</svg>
