<?xml version="1.0" encoding="UTF-8" standalone="no"?>
<svg
   xmlns:dc="http://purl.org/dc/elements/1.1/"
   xmlns:cc="http://creativecommons.org/ns#"
   xmlns:rdf="http://www.w3.org/1999/02/22-rdf-syntax-ns#"
   xmlns:svg="http://www.w3.org/2000/svg"
   xmlns="http://www.w3.org/2000/svg"
   id="svg1859"
   version="1.1"
   viewBox="0 0 24.040041 27.717751"
   height="104.76"
   width="90.860001">
  <defs
     id="defs1853" />
  <metadata
     id="metadata1856">
    <rdf:RDF>
      <cc:Work
         rdf:about="">
        <dc:format>image/svg+xml</dc:format>
        <dc:type
           rdf:resource="http://purl.org/dc/dcmitype/StillImage" />
        <dc:title></dc:title>
      </cc:Work>
    </rdf:RDF>
  </metadata>
  <g
     transform="translate(-85.497833,-109.27208)"
     id="layer1">
    <g
       transform="matrix(0.26458333,0,0,0.26458333,-130.85724,30.651142)"
       id="g399">
      <path
         style="fill:#a22442"
         d="m 883.92,359.18 c 0,11.42 -20.77,42.73 -20.77,42.73 0,0 -20.77,-31.31 -20.77,-42.73 0,-11.42 9.35,-20.77 20.77,-20.77 11.53,0.11 20.77,9.35 20.77,20.77"
         class="st2"
         id="path429_9_" />
      <rect
         style="fill:#a22442"
         height="34.580002"
         width="90.860001"
         class="st2"
         y="297.14999"
         x="817.71997"
         id="rect311_9_" />
      <g
         id="g397">
        <path
           style="fill:#ffffff"
           id="path387"
           d="m 845.55,308.22 c 0.9,0.87 1.35,2.19 1.35,3.96 v 8.47 h -2.16 l -0.01,-8.6 c 0,-1.19 -0.25,-2.05 -0.76,-2.59 -0.51,-0.54 -1.33,-0.8 -2.46,-0.8 h -1.95 c -0.26,0.42 -0.46,0.96 -0.61,1.61 -0.15,0.66 -0.23,1.33 -0.23,2.02 v 4.63 c 0,1.26 -0.3,2.21 -0.9,2.87 -0.6,0.65 -1.47,0.98 -2.61,0.98 -0.33,0 -0.78,-0.04 -1.34,-0.1 v -1.74 c 0.25,0.03 0.52,0.05 0.8,0.05 0.68,0 1.17,-0.17 1.47,-0.52 0.3,-0.35 0.46,-0.9 0.46,-1.65 v -4.33 c 0,-0.71 0.09,-1.41 0.28,-2.11 0.19,-0.7 0.44,-1.26 0.77,-1.68 h -2.58 v -1.74 h 6.4 c 1.83,-0.03 3.18,0.4 4.08,1.27 z"
           class="st8" />
        <path
           style="fill:#ffffff"
           id="path389"
           d="m 851.43,308.65 h -1.6 v -1.74 h 3.76 v 13.73 h -2.17 v -11.99 z"
           class="st8" />
        <path
           style="fill:#ffffff"
           id="path391"
           d="m 860.33,320.68 c -0.8,-0.13 -1.57,-0.33 -2.31,-0.58 l 0.42,-1.62 c 0.68,0.21 1.38,0.37 2.08,0.47 0.7,0.1 1.33,0.16 1.89,0.16 1.27,-0.02 2.26,-0.34 2.95,-0.97 0.69,-0.63 1.04,-1.53 1.04,-2.7 v -6.78 h -5.5 c -0.25,0.43 -0.45,0.97 -0.6,1.63 -0.15,0.66 -0.23,1.31 -0.23,1.96 v 1.05 c 0.17,0.08 0.4,0.13 0.69,0.16 0.29,0.03 0.66,0.05 1.13,0.05 v 1.86 c -0.96,0 -1.72,-0.06 -2.27,-0.17 -0.55,-0.11 -1.1,-0.32 -1.65,-0.61 l -0.05,-1.77 c 0,-0.78 0.1,-1.55 0.3,-2.3 0.2,-0.75 0.47,-1.37 0.81,-1.86 h -1.67 v -1.74 h 11.2 v 8.11 c 0,1.29 -0.25,2.37 -0.76,3.25 -0.51,0.88 -1.21,1.53 -2.1,1.96 -0.9,0.43 -1.94,0.65 -3.13,0.65 -0.69,-0.01 -1.43,-0.08 -2.24,-0.21 z"
           class="st8" />
        <path
           style="fill:#ffffff"
           id="path393"
           d="m 873.43,308.65 h -1.6 v -1.74 h 3.76 v 13.73 h -2.17 v -11.99 z"
           class="st8" />
        <path
           style="fill:#ffffff"
           id="path395"
           d="m 884.43,318.94 c 0.77,-0.02 1.44,-0.19 2.02,-0.51 0.57,-0.32 1.02,-0.77 1.34,-1.35 0.32,-0.58 0.48,-1.26 0.48,-2.06 v -6.37 h -8.47 v -1.74 h 10.64 v 8.06 c 0,1.14 -0.25,2.13 -0.74,2.98 -0.49,0.85 -1.19,1.5 -2.1,1.96 -0.91,0.46 -1.96,0.71 -3.16,0.73 v -1.7 z m -4.37,-3.45 c 0,-0.7 0.05,-1.25 0.16,-1.65 0.1,-0.4 0.25,-0.81 0.45,-1.22 h 1.77 c -0.1,0.35 -0.17,0.74 -0.22,1.17 -0.05,0.43 -0.06,0.96 -0.06,1.58 v 10.13 h -2.1 z"
           class="st8" />
      </g>
    </g>
  </g>
</svg>
