<svg width="201.4" height="116" viewBox="0 0 53.286 30.691" xmlns="http://www.w3.org/2000/svg">
    <path style="fill:#a22442" d="M1316.7 1452.8h197.1v35.1h-197.1z" transform="translate(-348.372 -384.382) scale(.26458)"/>
    <path d="M1442 1520.6c0 12.8-23.4 48.2-23.4 48.2s-23.4-35.4-23.4-48.2c0-12.8 10.5-23.4 23.4-23.4 12.9 0 23.4 10.4 23.4 23.4" style="fill:#0b8e36;fill-opacity:1" transform="translate(-348.372 -384.382) scale(.26458)"/>
    <path d="M1425.7 1517.3c-1.2-.6-2.1-1.2-3-1.8.6-.8 1.8-2.4 1.5-3.6 0-.2-.2-.8-.6-1.2-.2-.2-.6-.2-.8-.2-.6 0-1.5.6-2.1.8v-.6c.2-1.5.8-2.7 2.1-2.7 1.2 0 2.7.8 3 2.7.9 1.7.5 3.9-.1 6.6m-3.8-3.1c-.2-.6-.6-1.2-.8-1.8.2-.8.8-1.5 1.5-1.5h.2c.2 0 .2.2.2.6.3 1.3-.5 2.1-1.1 2.7m-1.5 1.6-.8.6.2-1.2c0-.2.2-.8.6-1.5.2.2.6.8.8 1.2-.6.5-.8.5-.8.9m11.6 9.6c0-.2-2.1-5.9-4.8-7.5-.2 0-.2-.2-.6-.2.8-2.7 1.2-5.1.6-7.2-.6-2.1-2.4-3.6-4.2-3.3-1.5 0-2.7 1.5-3 3.3v1.8c-.2.6-.6.8-.6 1.2l-14.1 22.2c0 .2-.2.2 0 .6v.2h.2c.2 0 .2-.2.6-.2l16.2-20.1c.8.8 2.4 1.5 3.3 2.1-.6 1.5-1.2 3.3-1.8 5.1-2.1 5.1-1.2 9.3.2 10.2h.2s.2 0 .2-.2v-.6c-1.2-.6-2.1-4.5 0-9 .8-1.8 1.5-3.6 1.8-5.1 0 0 .2 0 .2.2 2.4 1.2 4.5 6.9 4.5 6.9 0 .2.2.2.6.2.5 0 .5-.4.5-.6" style="fill:#ffc" transform="translate(-348.372 -384.382) scale(.26458)"/>
    <path d="M1330.1 1467h-2.4v-3.3h6.6v8.9h-4.2zm9.2 0h-2.4v-3.3h6.6v8.9h-4.2zm19.9-.6-5.1 12.9h-4.5l5.1-12.3h-8.3v-7.6h4.2v4.4h8.6zm6 13c-1.1-.2-2-.4-2.9-.7l.8-3.1c.8.2 1.7.4 2.5.5.9.1 1.6.2 2.2.2 1.2 0 2.2-.3 2.8-.8.6-.5.9-1.3.9-2.4v-6.1h-4.5c-.2.5-.3 1-.4 1.4-.1.5-.1.9-.1 1.4v.7c.4.1.9.1 1.3.1v2.8c-.5.1-1.1.2-1.6.2-.7 0-1.4-.1-2.1-.2-.7-.2-1.2-.4-1.7-.7v-1.4c0-.8.1-1.6.3-2.4.2-.8.4-1.4.7-1.9h-1.6v-3.3h13.9v8.8c0 1.6-.3 3-1 4.1-.7 1.1-1.6 1.9-2.7 2.4s-2.4.8-3.9.8c-.9-.1-1.9-.2-2.9-.4zm17.8-.7c-1.1-.6-1.9-1.5-2.5-2.6-.6-1.1-.9-2.4-.9-3.8v-.9c0-.7.1-1.5.4-2.3.3-.8.6-1.5 1-1.9l.2-.2v-.1c-.5.1-1.2.3-1.9.5l-.8-3.1c1-.3 2.3-.5 3.7-.7 1.4-.2 2.7-.3 3.9-.3 2.5 0 4.3.6 5.6 1.9 1.3 1.3 2 3.1 2 5.6v1.5c0 1.5-.3 2.7-.9 3.8-.6 1.1-1.4 2-2.5 2.6-1.1.6-2.3.9-3.7.9-1.3 0-2.5-.3-3.6-.9zm5.1-3c.4-.3.8-.8 1-1.3.2-.6.4-1.2.4-2v-1.5c0-1.3-.2-2.4-.7-3.1-.5-.7-1.2-1.1-2.1-1.1-.9 0-1.6.4-2.1 1.1-.5.7-.7 1.8-.7 3.2v1.2c0 .8.1 1.4.3 2 .2.6.6 1 1 1.3.4.3.9.5 1.5.5.5.2 1 0 1.4-.3zm9.2-8.7h-1.3v-3.3h5.6v15.6h-4.2V1467Zm14.1 9.1c1.1 0 1.9-.4 2.5-1 .6-.6.9-1.5.9-2.7v-5.5h-9v-3.3h13.2v8.7c0 1.4-.3 2.7-.9 3.7-.6 1-1.5 1.8-2.6 2.3-1.1.5-2.5.8-4.1.9zm-5.6-2.2c0-.9.1-1.7.3-2.2.2-.5.4-.9.7-1.2h3.4c-.2.7-.2 1.7-.2 2.9v11.3h-4.1v-10.8zm27.3 4.9c-1-.6-1.8-1.4-2.4-2.4-.6-1-.9-2.2-.9-3.5v-9.2h4.2v9.7c0 .6.1 1.1.3 1.6.2.5.5.8.9 1.1.4.3.9.4 1.4.4.5 0 1-.1 1.4-.4.4-.3.7-.6.9-1.1.2-.5.3-1 .3-1.6v-4.4c0-.7-.1-1.2-.4-1.5-.3-.3-.7-.5-1.3-.5-.4 0-.8.1-1.4.2l-.4-2.7c.5-.3 1-.5 1.6-.7.6-.2 1.1-.2 1.7-.2.9 0 1.7.2 2.4.6.7.4 1.2 1 1.5 1.7.4.8.5 1.7.5 2.7v4.3c0 1.3-.3 2.5-.9 3.5-.6 1-1.4 1.8-2.4 2.4-1 .6-2.2.8-3.6.8s-2.4-.2-3.4-.8zm13.9-11.8h-1.3v-3.3h5.6v15.6h-4.2V1467Zm11.4 12.4c-1.1-.2-2-.4-2.9-.7l.8-3.1c.8.2 1.7.4 2.5.5.9.1 1.6.2 2.2.2 1.2 0 2.2-.3 2.8-.8.6-.5.9-1.3.9-2.4v-6.1h-4.5c-.2.5-.3 1-.4 1.4-.1.5-.1.9-.1 1.4v.7c.4.1.9.1 1.3.1v2.8c-.5.1-1.1.2-1.6.2-.7 0-1.4-.1-2.1-.2-.7-.2-1.2-.4-1.7-.7v-1.4c0-.8.1-1.6.3-2.4.2-.8.4-1.4.7-1.9h-1.6v-3.3h13.9v8.8c0 1.6-.3 3-1 4.1-.7 1.1-1.6 1.9-2.7 2.4s-2.4.8-3.9.8c-.8-.1-1.8-.2-2.9-.4zm15.7-12.4h-2.4v-3.3h6.6v8.9h-4.2zm12.4 8.5c.7.3 1.5.6 2.4.8.9.2 1.6.3 2.4.3 1.9 0 3.4-.4 4.5-1.2 1.1-.8 1.6-2 1.6-3.6v-8h4.1v8.4c0 1.7-.4 3.1-1.3 4.2s-2.1 2-3.6 2.6c-1.5.6-3.2.9-5.1.9-1.5 0-3-.2-4.6-.5-1.6-.4-3-.9-4.4-1.5v-14h4.1v11.6zm3.2-2.6c.1-.6.1-1.3.1-2v-7.2h4.1v6.3c0 .9-.1 1.7-.3 2.5-.2.8-.5 1.4-.8 1.8h-3.4c.1-.3.2-.8.3-1.4z" style="fill:#fffffd" transform="translate(-348.372 -384.382) scale(.26458)"/>
</svg>
