<?xml version="1.0" encoding="UTF-8" standalone="no"?>
<!-- Created with Inkscape (http://www.inkscape.org/) -->

<svg
   width="141.39999"
   height="94.599998"
   viewBox="0 0 37.411611 25.029268"
   version="1.1"
   id="svg2792"
   xmlns="http://www.w3.org/2000/svg"
   xmlns:svg="http://www.w3.org/2000/svg">
  <defs
     id="defs2789" />
  <g
     id="layer1"
     transform="translate(-65.34054,-91.362666)">
    <g
       id="g1665"
       transform="matrix(0.26458,0,0,0.26458,-323.32748,-344.05664)">
      <g
         id="g669">
        <path
           id="path355_11_"
           d="m 1556.9,1704.7 c 0,9.5 -17.2,35.6 -17.2,35.6 0,0 -17.2,-26.2 -17.2,-35.6 0,-9.5 7.8,-17.2 17.2,-17.2 9.5,-0.2 17.2,7.7 17.2,17.2"
           style="fill:#0b8e36;fill-opacity:1" />
      </g>
      <path
         id="rect475_12_"
         style="fill:#a22442"
         d="m 1469,1645.7 h 134.8 v 38.5 H 1469 Z" />
      <g
         id="g688">
        <path
           d="m 1479.8,1657.4 h 13.4 v 15.6 h -13.4 z m 9.2,12.3 v -9 h -4.9 v 9 z"
           id="path672"
           style="fill:#fffffd" />
        <path
           d="m 1498.4,1660.6 h -2.4 v -3.3 h 6.6 v 8.9 h -4.2 z"
           id="path674"
           style="fill:#fffffd" />
        <path
           d="m 1511.9,1662.7 c 0,-0.7 -0.2,-1.2 -0.6,-1.5 -0.4,-0.4 -0.9,-0.5 -1.7,-0.5 h -4.7 v -3.3 h 5 c 1.3,0 2.4,0.2 3.3,0.7 0.9,0.4 1.6,1.1 2.1,1.9 0.5,0.8 0.7,1.8 0.7,3 v 10 h -4.2 v -10.3 z"
           id="path676"
           style="fill:#fffffd" />
        <path
           d="m 1520.1,1660.6 h -1.3 v -3.3 h 5.6 v 15.6 h -4.2 v -12.3 z"
           id="path678"
           style="fill:#fffffd" />
        <path
           d="m 1528.2,1667.6 c 0,-1.5 0.3,-2.7 0.9,-3.4 h 3.4 c -0.2,0.8 -0.2,1.7 -0.2,2.9 v 5.8 h -4.1 z m 9,-4.7 c 0,-1.5 -0.8,-2.2 -2.4,-2.2 h -6.5 v -3.3 h 6.8 c 1.3,0 2.4,0.2 3.4,0.7 0.9,0.4 1.7,1.1 2.1,1.9 0.5,0.9 0.7,1.9 0.7,3.1 v 9.9 h -4.2 v -10.1 z"
           id="path680"
           style="fill:#fffffd" />
        <path
           d="m 1557,1662.7 c 0,-0.7 -0.2,-1.2 -0.6,-1.5 -0.4,-0.4 -0.9,-0.5 -1.6,-0.5 h -4.7 v -3.3 h 5 c 1.3,0 2.4,0.2 3.3,0.7 0.9,0.4 1.6,1.1 2.1,1.9 0.5,0.8 0.7,1.8 0.7,3 v 10 h -4.2 z"
           id="path682"
           style="fill:#fffffd" />
        <path
           d="m 1577.2,1657.4 v 3.3 h -2.8 v 12.3 h -4.2 v -12.3 h -6.5 v -3.3 z"
           id="path684"
           style="fill:#fffffd" />
        <path
           d="m 1580.3,1657.4 h 6.9 c 2,0 3.6,0.5 4.6,1.5 1,1 1.6,2.5 1.6,4.4 v 9.7 h -4.2 v -10.1 c 0,-1.5 -0.7,-2.3 -2,-2.3 h -2.7 v 12.3 h -4.2 z"
           id="path686"
           style="fill:#fffffd" />
      </g>
      <path
         d="m 1539.6,1712.1 c -0.1,0.2 -0.3,0.4 -0.5,0.5 -0.8,0.8 -1.9,1.2 -3,1.2 -1.1,0 -2.2,-0.4 -3,-1.2 -1.7,-1.7 -1.7,-4.4 0,-6 l 0.5,-0.5 c -0.4,-0.7 -0.8,-1.3 -1.1,-2 v -0.1 c -0.5,0.3 -0.9,0.6 -1.3,1 a 6.64,6.64 0 0 0 0,9.4 c 1.3,1.3 2.9,1.9 4.7,1.9 1.8,0 3.4,-0.7 4.7,-1.9 0.4,-0.4 0.7,-0.8 1,-1.3 h -0.1 c -0.5,-0.2 -1.2,-0.6 -1.9,-1 z"
         id="path690"
         style="fill:#ffffff" />
      <path
         d="m 1545.4,1706.4 c -1,0.1 -1.9,0.5 -2.6,1.2 -0.3,0.3 -0.8,0.5 -1.2,0.5 -0.5,0 -0.9,-0.2 -1.2,-0.5 l -2.2,-2.2 c -0.7,-0.7 -0.7,-1.8 0,-2.5 l 0.1,-0.1 c 0.6,-0.6 1,-1.5 1.2,-2.4 -0.9,-0.5 -1.7,-0.9 -2.5,-1.1 -1.8,-0.5 -2.7,-0.1 -3.2,0.4 -0.8,0.8 -0.8,2.3 -0.1,4.1 0.7,1.6 1.9,3.4 3.5,4.9 1.5,1.5 3.3,2.8 4.9,3.5 0.9,0.4 1.7,0.6 2.4,0.6 0.7,0 1.3,-0.2 1.7,-0.6 0.5,-0.5 0.9,-1.4 0.4,-3.2 -0.2,-0.9 -0.6,-1.8 -1.2,-2.6 z"
         id="path692"
         style="fill:#ffffff" />
      <path
         d="m 1548.6,1697.1 c -0.9,-0.9 -2.1,-1.3 -3.4,-1.3 -1.3,0 -2.4,0.5 -3.3,1.4 -0.8,0.8 -1.2,1.8 -1.3,2.9 -0.1,1.3 -0.6,2.5 -1.5,3.5 l -0.1,0.1 c -0.2,0.2 -0.2,0.6 0,0.8 l 2.2,2.2 c 0.1,0.1 0.3,0.2 0.4,0.2 0.1,0 0.3,-0.1 0.4,-0.2 0.9,-0.9 2.2,-1.5 3.6,-1.6 1.1,-0.1 2.2,-0.6 3,-1.4 0.9,-0.9 1.4,-2.1 1.4,-3.4 0,-1.1 -0.5,-2.3 -1.4,-3.2 z"
         id="path694"
         style="fill:#ffffff" />
    </g>
  </g>
</svg>
