<?xml version="1.0" encoding="UTF-8" standalone="no"?>
<svg
   xmlns:dc="http://purl.org/dc/elements/1.1/"
   xmlns:cc="http://creativecommons.org/ns#"
   xmlns:rdf="http://www.w3.org/1999/02/22-rdf-syntax-ns#"
   xmlns:svg="http://www.w3.org/2000/svg"
   xmlns="http://www.w3.org/2000/svg"
   id="svg3999"
   version="1.1"
   viewBox="0 0 561.19978 335.60546"
   height="1268.4301"
   width="2121.0701">
  <defs
     id="defs3993" />
  <metadata
     id="metadata3996">
    <rdf:RDF>
      <cc:Work
         rdf:about="">
        <dc:format>image/svg+xml</dc:format>
        <dc:type
           rdf:resource="http://purl.org/dc/dcmitype/StillImage" />
        <dc:title></dc:title>
      </cc:Work>
    </rdf:RDF>
  </metadata>
  <g
     transform="translate(167.20702,-36.05033)"
     id="layer1">
    <g
       transform="matrix(0.26458333,0,0,0.26458333,-205.41761,-245.89822)"
       id="g2602">
      <polygon
         style="opacity:0.8;isolation:isolate;fill:#79d1ed;stroke:#fbf2de;stroke-width:1.5px;stroke-miterlimit:10"
         id="polygon54"
         points="381.44,1879.64 384.01,1864.52 398.27,1856.25 397.84,1856.05 397.84,1839.85 331.96,1810.9 331.96,1825.16 313.14,1832.15 313.14,1847.44 300.31,1852.4 370.75,1886.91 "
         class="cls-6"
         transform="translate(27.157979,-76.947607)" />
      <polygon
         style="opacity:0.8;isolation:isolate;fill:#79d1ed;stroke:#fbf2de;stroke-width:1.5px;stroke-miterlimit:10"
         id="polygon56"
         points="212.47,1977.17 280.77,2009.26 283.19,1994.29 297.45,1985.87 297.45,1971.02 302.44,1973.33 317.38,1965.72 318.13,1966.05 318.13,1952.36 244.84,1918.28 244.84,1933.97 244.87,1933.98 231.29,1940.53 231.29,1954.79 212.47,1961.77 "
         class="cls-6"
         transform="translate(27.157979,-76.947607)" />
      <polygon
         style="opacity:0.8;isolation:isolate;fill:#79d1ed;stroke:#fbf2de;stroke-width:1.5px;stroke-miterlimit:10"
         id="polygon58"
         points="280.77,1891.32 264.69,1897.9 264.37,1897.75 263.66,1911.29 244.84,1918.28 318.42,1952.08 331.68,1945.38 331.68,1930.98 331.96,1931.12 348.17,1923.42 349.07,1923.84 349.07,1908.16 364.53,1900.57 365.19,1900.88 365.19,1884.49 300.31,1852.4 299.59,1869.8 280.77,1876.79 "
         class="cls-6"
         transform="translate(27.157979,-76.947607)" />
      <polygon
         style="fill:#79d1ed;stroke:#fbf2de;stroke-width:1.5px;stroke-miterlimit:10"
         points="319.13,1845.13 381.44,1879.64 370.75,1886.91 300.31,1852.4 "
         class="cls-7"
         id="polygon185"
         transform="translate(27.157979,-76.947607)" />
      <polygon
         style="fill:#79d1ed;stroke:#fbf2de;stroke-width:1.5px;stroke-miterlimit:10"
         points="313.14,1832.15 384.01,1864.52 381.44,1879.64 313.14,1847.55 "
         class="cls-7"
         id="polygon189"
         transform="translate(27.157979,-76.947607)" />
      <polygon
         style="fill:#79d1ed;stroke:#fbf2de;stroke-width:1.5px;stroke-miterlimit:10"
         points="331.96,1825.16 398.27,1856.25 384.01,1864.52 313.14,1832.15 "
         class="cls-7"
         id="polygon193"
         transform="translate(27.157979,-76.947607)" />
      <polygon
         style="fill:#79d1ed;stroke:#fbf2de;stroke-width:1.5px;stroke-miterlimit:10"
         points="250.82,1931.12 318.13,1965.34 302.44,1973.33 231.29,1940.53 "
         class="cls-7"
         id="polygon201"
         transform="translate(27.157979,-76.947607)" />
      <polygon
         style="fill:#79d1ed;stroke:#fbf2de;stroke-width:1.5px;stroke-miterlimit:10"
         points="264.37,1897.75 331.68,1930.83 331.68,1945.38 263.66,1911.29 "
         class="cls-7"
         id="polygon213"
         transform="translate(27.157979,-76.947607)" />
      <polygon
         style="fill:#79d1ed;stroke:#fbf2de;stroke-width:1.5px;stroke-miterlimit:10"
         points="231.29,1954.79 297.45,1985.87 283.19,1994.29 212.47,1961.77 "
         class="cls-7"
         id="polygon221"
         transform="translate(27.157979,-76.947607)" />
      <polygon
         style="fill:#79d1ed;stroke:#fbf2de;stroke-width:1.5px;stroke-miterlimit:10"
         points="231.29,1940.53 297.45,1969.47 297.45,1985.87 231.29,1954.79 "
         class="cls-7"
         id="polygon225"
         transform="translate(27.157979,-76.947607)" />
      <polygon
         style="fill:#79d1ed;stroke:#fbf2de;stroke-width:1.5px;stroke-miterlimit:10"
         points="283.19,1890.33 348.79,1923.13 331.96,1931.12 264.37,1898.03 "
         class="cls-7"
         id="polygon229"
         transform="translate(27.157979,-76.947607)" />
      <polygon
         style="fill:#79d1ed;stroke:#fbf2de;stroke-width:1.5px;stroke-miterlimit:10"
         points="280.77,1876.79 349.07,1907.73 349.07,1923.84 280.77,1892.19 "
         class="cls-7"
         id="polygon233"
         transform="translate(27.157979,-76.947607)" />
      <polygon
         style="fill:#79d1ed;stroke:#fbf2de;stroke-width:1.5px;stroke-miterlimit:10"
         points="299.59,1869.8 364.76,1900.46 349.07,1908.16 280.77,1876.79 "
         class="cls-7"
         id="polygon237"
         transform="translate(27.157979,-76.947607)" />
      <polygon
         style="fill:#79d1ed;stroke:#fbf2de;stroke-width:1.5px;stroke-miterlimit:10"
         points="300.31,1852.4 365.19,1884.49 365.19,1900.88 299.59,1869.8 "
         class="cls-7"
         id="polygon181"
         transform="translate(27.157979,-76.947607)" />
      <polygon
         style="fill:#79d1ed;stroke:#fbf2de;stroke-width:1.5px;stroke-miterlimit:10"
         points="331.96,1810.9 397.84,1839.85 397.84,1856.25 331.96,1825.16 "
         class="cls-7"
         id="polygon197"
         transform="translate(27.157979,-76.947607)" />
      <polygon
         style="fill:#79d1ed;stroke:#fbf2de;stroke-width:1.5px;stroke-miterlimit:10"
         points="244.84,1918.28 318.13,1952.36 318.13,1966.05 244.84,1933.97 "
         class="cls-7"
         id="polygon205"
         transform="translate(27.157979,-76.947607)" />
      <polygon
         style="fill:#79d1ed;stroke:#fbf2de;stroke-width:1.5px;stroke-miterlimit:10"
         points="263.66,1911.29 331.68,1945.38 318.42,1952.08 244.84,1918.28 "
         class="cls-7"
         id="polygon209"
         transform="translate(27.157979,-76.947607)" />
      <polygon
         style="fill:#79d1ed;stroke:#fbf2de;stroke-width:1.5px;stroke-miterlimit:10"
         points="212.47,1961.77 283.19,1994.29 280.77,2009.26 212.47,1977.17 "
         class="cls-7"
         id="polygon217"
         transform="translate(27.157979,-76.947607)" />
      <polygon
         style="fill:#f5aec6"
         id="polygon75"
         points="1946.13,1437.17 1889.09,1417.27 2084.6,1321.4 2045.6,1302.6 1694.37,1466.2 1783.71,1511.19 "
         class="cls-8"
         transform="translate(27.157979,-76.947607)" />
      <polygon
         style="isolation:isolate;fill:#fbf2de"
         id="polygon77"
         points="1588.57,1365.42 1588.75,1411.66 1926.84,1247.48 1926.63,1202.9 "
         class="cls-9"
         transform="translate(27.157979,-76.947607)" />
      <polygon
         style="isolation:isolate;fill:#fbf2de"
         id="polygon79"
         points="1926.84,1250.09 2044.82,1306.41 2045.6,1261.49 1926.84,1202.9 "
         class="cls-9"
         transform="translate(27.157979,-76.947607)" />
      <polygon
         style="fill:#202656"
         id="polygon81"
         points="1926.84,1247.48 1588.66,1412.61 1712.6,1469.42 2043.75,1304.41 "
         class="cls-10"
         transform="translate(27.157979,-76.947607)" />
      <polygon
         style="isolation:isolate;fill:#fbf2de"
         id="polygon83"
         points="1712.55,1350.16 1831.33,1411.71 1831.33,1365.42 1712.55,1304.97 "
         class="cls-9"
         transform="translate(27.157979,-76.947607)" />
      <polygon
         style="isolation:isolate;fill:#fbf2de"
         id="polygon85"
         points="1588.66,1412.61 1751.05,1494.93 1751.05,1446.64 1588.66,1365.42 "
         class="cls-9"
         transform="translate(27.157979,-76.947607)" />
      <polygon
         style="isolation:isolate;fill:#fbf2de"
         id="polygon87"
         points="1706.28,1426.19 1706.45,1472.43 1760.98,1445.71 1760.76,1399.66 "
         class="cls-9"
         transform="translate(27.157979,-76.947607)" />
      <polygon
         style="isolation:isolate;fill:#fbf2de"
         id="polygon89"
         points="1984.81,1290.5 1984.9,1334.46 2044.73,1306.13 2044.61,1261.82 "
         class="cls-9"
         transform="translate(27.157979,-76.947607)" />
      <polygon
         style="isolation:isolate;fill:#fbf2de"
         id="polygon91"
         points="1793.95,1383.78 1794.12,1430.01 1939.56,1356.59 1939.35,1312 "
         class="cls-9"
         transform="translate(27.157979,-76.947607)" />
      <polygon
         style="fill:#202656"
         points="777.31,1703.04 910.43,1767.4 1574.94,1558.63 1295.31,1474.36 "
         class="cls-10"
         id="polygon495"
         transform="translate(27.157979,-76.947607)" />
      <polygon
         style="isolation:isolate;fill:#fbf2de;stroke:#231f20;stroke-width:0.5px;stroke-miterlimit:10"
         points="1103.37,1515.14 1292.03,1614.96 1292.05,1655.12 1103.37,1561.06 "
         class="cls-11"
         id="polygon501"
         transform="translate(27.157979,-76.947607)" />
      <polygon
         style="isolation:isolate;fill:#fbf2de"
         points="1586.35,1557.06 1582.22,1558.63 1576.94,1560.63 1298.44,1474.93 1298.44,1431.86 1586.35,1522.55 "
         class="cls-9"
         id="polygon505"
         transform="translate(27.157979,-76.947607)" />
      <polygon
         style="fill:#f5aec6"
         id="polygon96"
         points="1481.16,2209.79 1867.46,1925.45 2222.67,1726.1 1750.24,1492.23 1537.91,1566.96 1491,1585.64 910.43,1767.4 777.31,1703.04 632.65,1765.68 548.57,1717.97 332.38,1809.66 430.97,1860.59 404.21,1873.23 543.65,1942.91 1450.79,2386.9 1625.04,2269.68 "
         class="cls-8"
         transform="translate(27.157979,-76.947607)" />
      <polygon
         style="fill:#202656"
         points="1926.73,1731.46 1767.47,1853.64 1469.13,2022.51 1020.95,1804.33 1672.05,1605.83 "
         class="cls-10"
         id="polygon515"
         transform="translate(27.157979,-76.947607)" />
      <polygon
         style="isolation:isolate;fill:#fbf2de"
         points="632.65,1724.33 1298.44,1434.29 1298.44,1472.22 632.65,1765.68 "
         class="cls-9"
         id="polygon497"
         transform="translate(27.157979,-76.947607)" />
      <polygon
         style="isolation:isolate;fill:#fbf2de"
         points="1629.99,2237.69 1483.96,2183.36 1485.82,2224.57 1629.99,2276.76 "
         class="cls-9"
         id="polygon537"
         transform="translate(27.157979,-76.947607)" />
      <polygon
         style="isolation:isolate;fill:#fbf2de"
         points="1629.7,2238.68 1629.7,2277.9 1450.55,2401.01 1450.55,2353.66 "
         class="cls-9"
         id="polygon541"
         transform="translate(27.157979,-76.947607)" />
      <polygon
         style="isolation:isolate;fill:#fbf2de"
         points="1670.91,1556.49 1670.91,1607.54 1924.73,1730.47 1928.07,1681.94 "
         class="cls-9"
         id="polygon569"
         transform="translate(27.157979,-76.947607)" />
      <polygon
         style="isolation:isolate;fill:#fbf2de"
         points="1020.95,1755.7 1020.95,1804.33 1469.13,2022.51 1469.13,1972.31 "
         class="cls-9"
         id="polygon583"
         transform="translate(27.157979,-76.947607)" />
      <polygon
         style="isolation:isolate;fill:#fbf2de"
         points="403.5,1824.72 403.5,1875.2 1450.55,2401.01 1450.55,2353.45 "
         class="cls-9"
         id="polygon587"
         transform="translate(27.157979,-76.947607)" />
      <polygon
         style="isolation:isolate;fill:#fbf2de"
         points="1814.94,1487.33 1814.94,1529.68 2077.32,1658.02 2077.32,1612.82 "
         class="cls-9"
         id="polygon595"
         transform="translate(27.157979,-76.947607)" />
      <polygon
         style="isolation:isolate;fill:#fbf2de"
         points="549.52,1683.83 632.65,1724.33 632.65,1765.68 549.52,1720.05 "
         class="cls-9"
         id="polygon599"
         transform="translate(27.157979,-76.947607)" />
      <polygon
         style="isolation:isolate;fill:#fbf2de"
         points="1999.46,1651.04 2077.32,1612.82 2077.32,1657.74 1999.46,1697.52 "
         class="cls-9"
         id="polygon607"
         transform="translate(27.157979,-76.947607)" />
      <polygon
         style="isolation:isolate;fill:#fbf2de"
         points="1814.94,1487.33 1814.99,1531.08 1784.56,1547.94 1742.92,1527.83 "
         class="cls-9"
         id="polygon615"
         transform="translate(27.157979,-76.947607)" />
      <polygon
         style="isolation:isolate;fill:#fbf2de"
         points="331.68,1777.84 549.52,1683.83 549.52,1720.05 331.68,1811.63 "
         class="cls-9"
         id="polygon627"
         transform="translate(27.157979,-76.947607)" />
      <polygon
         style="fill:#ec2426"
         points="317.69,1803.55 312.13,1772.05 306.13,1778.36 285.79,1758.14 273.93,1770.06 294.77,1790.67 287.92,1797.52 "
         class="cls-4"
         id="polygon663"
         transform="translate(27.157979,-76.947607)" />
      <polygon
         style="isolation:isolate;fill:#fbf2de"
         points="777.31,1661.06 777.31,1703.04 910.29,1767.68 910.29,1724.33 "
         class="cls-9"
         id="polygon821"
         transform="translate(27.157979,-76.947607)" />
      <path
         style="isolation:isolate;fill:#fbf2de"
         d="m 1056.808,1610.3124 -22.54,6.41 -96.68002,31.09 v 42.64 l 97.68002,-29.66 21.54,-6.42 z m 59.89,26.52 277.64,-85.61 v -35 l -277.64,77.29 v 43.35 z m 661.51,-267.14 -319.7,120.55 -1.71,40.35 321.41,-114.22 z"
         class="cls-9"
         id="path825" />
      <polygon
         style="isolation:isolate;fill:#fbf2de"
         id="polygon118"
         points="1463.15,2187.21 1441.61,2203.75 1401.65,2234.83 1401.65,2287.39 1463.86,2240.82 1833.19,1964.61 2226.62,1727.18 2228.33,1676.7 1824.49,1906.43 "
         class="cls-9"
         transform="translate(27.157979,-76.947607)" />
      <polygon
         style="isolation:isolate;fill:#fbf2de"
         id="polygon120"
         points="1361.87,2265.78 1330.53,2290.16 1330.53,2340.64 1361.87,2317.18 "
         class="cls-9"
         transform="translate(27.157979,-76.947607)" />
      <polyline
         style="isolation:isolate;fill:#fbf2de"
         id="polyline127"
         points="560.22 1759.14 560.22 1802.49 403.5 1874.93 403.5 1824.72 560.22 1759.14"
         class="cls-9"
         transform="translate(27.157979,-76.947607)" />
      <polygon
         style="fill:#ec2426"
         points="268.29,1698.63 305.37,1696.54 305.37,1746.66 127.26,1746.66 127.26,1698.63 156.64,1698.63 157.21,1669.99 268.29,1669.99 "
         class="cls-4"
         id="rect849"
         transform="translate(27.157979,-76.947607)" />
      <polygon
         style="isolation:isolate;fill:#fbf2de"
         id="polygon144"
         points="1774.01,1849.96 1926.73,1731.46 1926.73,1680.7 1774.01,1797.34 1469.13,1972.31 1469.13,2022.51 1649.88,1920.25 1649.88,1885.62 1711.32,1851.6 1711.32,1885.42 1744.35,1866.64 "
         class="cls-9"
         transform="translate(27.157979,-76.947607)" />
      <polygon
         style="isolation:isolate;fill:#fbf2de"
         id="polygon146"
         points="1316.87,1682.42 1383.7,1663.2 1383.7,1694.46 1671.63,1607.26 1671.63,1556.78 1020.95,1755.7 1020.95,1804.33 1316.87,1714.7 "
         class="cls-9"
         transform="translate(27.157979,-76.947607)" />
      <path
         style="fill:#fffffd"
         id="path444"
         d="m 210.49798,1610.8624 a 2.38,2.38 0 0 0 -0.67,-1.8 2.76,2.76 0 0 0 -1.95,-0.63 h -5.47 v -3.85 h 5.84 a 8.92,8.92 0 0 1 3.88,0.78 5.6,5.6 0 0 1 2.48,2.25 6.86,6.86 0 0 1 0.86,3.51 v 11.82 h -5 z"
         class="cls-13" />
      <path
         style="fill:#fffffd"
         id="path446"
         d="m 233.33798,1619.2224 v 3.72 h -15.85 v -3.89 h 8.75 v -8 c 0,-1.75 -0.93,-2.62 -2.79,-2.62 h -5 v -3.85 h 5.33 a 9.11,9.11 0 0 1 4,0.79 5.66,5.66 0 0 1 2.54,2.29 7,7 0 0 1 0.88,3.61 v 7.65 z"
         class="cls-13" />
      <path
         style="fill:#fffffd"
         id="path448"
         d="m 250.26798,1604.5824 v 10.47 a 8.66,8.66 0 0 1 -1.12,4.54 7.12,7.12 0 0 1 -3.16,2.83 10.94,10.94 0 0 1 -4.73,0.95 20.57,20.57 0 0 1 -7.35,-1.36 l 1,-3.62 a 19.87,19.87 0 0 0 4.1,1.13 5.52,5.52 0 0 1 -1,-1.17 4.8,4.8 0 0 1 -0.57,-1.39 l -2.81,-12.4 h 5 l 2.69,12.9 a 7,7 0 0 0 0.56,1.74 3.61,3.61 0 0 0 1.74,-1.47 4.62,4.62 0 0 0 0.6,-2.44 v -10.73 z"
         class="cls-13" />
      <path
         style="fill:#fffffd"
         id="path450"
         d="m 255.46798,1612.7324 a 8.55,8.55 0 0 1 0.6,-2.35 5.36,5.36 0 0 1 1.09,-1.76 1.16,1.16 0 0 1 0.22,-0.19 v -0.07 q -0.6,0.11 -1.41,0.33 a 12.31,12.31 0 0 0 -1.38,0.46 l -1,-3.59 a 21.86,21.86 0 0 1 4.14,-1 27.09,27.09 0 0 1 4.54,-0.4 c 2.82,0 5,0.71 6.42,2.15 1.42,1.44 2.2,3.54 2.21,6.33 v 10.35 h -8.14 v -3.94 h 3.1 v -7.17 a 4.74,4.74 0 0 0 -0.7,-2.78 2.31,2.31 0 0 0 -2,-1 c -1.66,0 -2.61,1.3 -2.87,3.91 l -1.07,10.87 h -4.9 z"
         class="cls-13" />
      <path
         style="fill:#fffffd"
         id="path452"
         d="m 186.24798,1643.9024 a 6.8,6.8 0 0 1 1.91,5.15 v 11.41 h -5 v -11.83 c 0,-1.79 -0.76,-2.68 -2.3,-2.68 h -2.4 a 18.46,18.46 0 0 0 -0.32,1.84 15.28,15.28 0 0 0 -0.12,1.83 v 5.18 a 7,7 0 0 1 -0.67,3.2 4.72,4.72 0 0 1 -1.94,2 6.29,6.29 0 0 1 -3,0.69 16.68,16.68 0 0 1 -2.37,-0.2 v -3.83 h 1 q 2.19,0 2.19,-2.31 v -4.34 a 9.44,9.44 0 0 1 0.26,-2.14 6.31,6.31 0 0 1 0.76,-2 h -2.81 v -3.85 h 9.41 a 7.65,7.65 0 0 1 5.4,1.88 z"
         class="cls-13" />
      <path
         style="fill:#fffffd"
         id="path454"
         d="m 192.01798,1645.9924 h -1.56 v -3.85 h 6.54 v 18.36 h -5 z"
         class="cls-13" />
      <path
         style="fill:#fffffd"
         id="path456"
         d="m 214.73798,1645.3224 -6,15.18 h -5.28 l 5.95,-14.51 h -9.76 v -9 h 5 v 5.12 h 10.12 z"
         class="cls-13" />
      <path
         style="fill:#fffffd"
         id="path458"
         d="m 217.69798,1645.9924 h -1.54 v -3.85 h 6.54 v 18.36 h -5 z"
         class="cls-13" />
      <path
         style="fill:#fffffd"
         id="path460"
         d="m 225.30798,1660.0524 0.76,-3.62 a 18.72,18.72 0 0 0 3.93,0.51 4.72,4.72 0 0 0 3.23,-1 3.7,3.7 0 0 0 1,-2.85 v -7.17 h -8.22 v -3.85 h 13.2 v 10.16 q 0,4.38 -2.24,6.43 a 9,9 0 0 1 -6.32,2.06 23.55,23.55 0 0 1 -5.34,-0.67 z"
         class="cls-13" />
      <path
         style="fill:#fffffd"
         id="path462"
         d="m 248.15798,1655.9724 a 16.27,16.27 0 0 0 2.79,0.89 13.09,13.09 0 0 0 2.78,0.33 8.74,8.74 0 0 0 5.25,-1.4 4.94,4.94 0 0 0 1.93,-4.28 v -9.37 h 4.81 v 9.91 a 7.86,7.86 0 0 1 -1.56,5 9.46,9.46 0 0 1 -4.23,3 16.91,16.91 0 0 1 -6,1 25.32,25.32 0 0 1 -10.57,-2.41 v -16.51 h 4.8 z m 3.73,-3 a 15.55,15.55 0 0 0 0.16,-2.34 v -8.45 h 4.81 v 7.4 a 11,11 0 0 1 -0.37,2.92 5.66,5.66 0 0 1 -1,2.12 h -4 a 6.33,6.33 0 0 0 0.42,-1.69 z"
         class="cls-13" />
      <path
         style="fill:#fffffd"
         id="path464"
         d="m 281.92798,1652.7924 5.31,7.71 h -5.53 l -6.71,-9.71 a 2.59,2.59 0 0 0 -0.41,1.51 v 8.2 h -4.8 v -6 a 9.08,9.08 0 0 1 0.78,-4.09 5.25,5.25 0 0 1 2.51,-2.36 l -4,-5.87 h 5.55 l 4.32,6.25 3,-6.25 h 5.56 z"
         class="cls-13" />
      <path
         style="fill:#fffffd"
         id="path466"
         d="m 303.83798,1645.3224 -6,15.18 h -5.28 l 5.94,-14.51 h -9.75 v -9 h 5 v 5.12 h 10.12 z"
         class="cls-13" />
      <polygon
         style="fill:#fbf2de"
         id="polygon558"
         points="1866.48,1586.9 1939.7,1546.24 1939.7,1589.9 1866.48,1630.57 "
         class="cls-5"
         transform="translate(27.157979,-76.947607)" />
      <polygon
         style="isolation:isolate;fill:#fbf2de"
         id="polygon560"
         points="1914.85,1656.47 1914.85,1620.88 1938.62,1632.93 1938.62,1668 1999.46,1697.52 1999.46,1651.04 1742.92,1527.83 1742.92,1573.03 1793.95,1597.79 1793.95,1560.63 1817.71,1572.68 1817.71,1609.32 "
         class="cls-9"
         transform="translate(27.157979,-76.947607)" />
    </g>
  </g>
</svg>
