<svg version="1.1" id="Capa_1" x="0" y="0" viewBox="0 0 1825.9 1101.2" xml:space="preserve" width="1825.9" height="1101.2" xmlns="http://www.w3.org/2000/svg">
    <style type="text/css" id="style2">
        .st0{enable-background:new}.st1{clip-path:url(#SVGID_00000064323476726713690990000007058786756653739692_)}.st2{fill:#95c760}.st3{fill:#3a536b}.st14{clip-path:url(#SVGID_00000169556452921690611500000008428788550087895193_);fill:#fff}.st15,.st16{clip-path:url(#SVGID_00000141416196887448795890000008021397929060188827_);fill:#fff}.st16{clip-path:url(#SVGID_00000167387208709267879750000002006956150926520717_)}.st17{clip-path:url(#SVGID_00000014635930976363356600000012142878989868767129_)}.st18{fill:#97c85f}.st19{fill:#3c536b}.st20{fill:#d2f0ff}.st21{clip-path:url(#SVGID_00000148651801484709359430000008992830675006237346_)}.st22{fill:#fccfd5}.st23{fill:#f2717c}.st24{fill:none;stroke:#3b256e;stroke-width:.408}.st25{opacity:1;fill:#fdfecc;enable-background:new}.st26{fill:#97c85f;stroke:#3c536b;stroke-width:1.275;stroke-miterlimit:10}.st27{clip-path:url(#SVGID_00000048472482755828141060000012900427381561482136_)}.st28{opacity:1;fill:#97c85f;stroke:#3c536b;stroke-width:1.275;stroke-miterlimit:10;enable-background:new}.st29{fill:none}.st30{clip-path:url(#SVGID_00000137847922597826604760000014795013051033145507_);fill:#fff}.st31,.st32{clip-path:url(#SVGID_00000068641414169128967020000010204389334808082568_);fill:#fff}.st32{clip-path:url(#SVGID_00000108290277086187091470000006071701887771949204_)}.st33{clip-path:url(#SVGID_00000162329631093706712390000006012230865616559493_)}.st33,.st34,.st35{fill:#fffffd}.st34{clip-path:url(#SVGID_00000013158062488758535500000012551579984007483531_)}.st35{clip-path:url(#SVGID_00000142168406307758286270000018048768558349509251_)}.st36{clip-path:url(#SVGID_00000169526864062469674850000000395667483897201049_);fill:#fdfecc}.st37{clip-path:url(#SVGID_00000102507960193078334400000003426592347767965322_)}.st37,.st38,.st39{fill:#fffffd}.st38{clip-path:url(#SVGID_00000085961677031273365880000009857055671334531221_)}.st39{clip-path:url(#SVGID_00000167370317077430160970000012651449627180070016_)}.st40{fill:#99c95e}.st41{fill:#0b608c}.st42{fill:#f4717c}.st43{fill:#fed0d5}.st44{fill:#d4f0ff}.st45{fill:#3e536b}
    </style>
    <g id="g57" transform="translate(-53.1 -1363.2)">
        <g id="g50">
            <g id="g38">
                <path id="polygon32" style="opacity:1;fill:#95c760;stroke:#0b608c;stroke-width:1.275;stroke-miterlimit:10;enable-background:new" d="M231.1 1960.9v13l-10.9 4.2 59.9 29.3 9.1-6.2 2.1-12.8 12.2-7.1-.4-.1v-13.8l-56-24.6v12.1z"/>
                <path id="polygon34" style="opacity:1;fill:#95c760;stroke:#0b608c;stroke-width:1.275;stroke-miterlimit:10;enable-background:new" d="m145.5 2084.1 58.1 27.3 2-12.7 12.2-7.2v-12.6l4.2 2 12.7-6.5.6.3V2063l-62.3-28.9v13.3h.1l-11.6 5.6v12.1l-16 5.9z"/>
                <path id="polygon36" style="opacity:1;fill:#95c760;stroke:#0b608c;stroke-width:1.275;stroke-miterlimit:10;enable-background:new" d="m189 2028.1-16 6 62.6 28.7 11.3-5.7v-12.2l.2.1 13.8-6.6.7.4v-13.3l13.2-6.5.5.3v-14l-55.1-27.2-.6 14.8-16 5.9v12.4l-13.7 5.5-.3-.1z"/>
            </g>
            <path id="polygon185_4_" style="fill:#95c760;stroke:#0b608c;stroke-width:1.275;stroke-miterlimit:10" d="m289.2 2001.2-9.1 6.2-59.9-29.3 16-6.2z"/>
            <path id="polygon189_4_" style="fill:#95c760;stroke:#0b608c;stroke-width:1.275;stroke-miterlimit:10" d="m291.3 1988.4-2.1 12.8-58.1-27.3v-13z"/>
            <path id="polygon193_4_" style="fill:#95c760;stroke:#0b608c;stroke-width:1.275;stroke-miterlimit:10" d="m303.5 1981.3-12.2 7.1-60.2-27.5 16-6z"/>
            <path id="polygon201_4_" style="fill:#95c760;stroke:#0b608c;stroke-width:1.275;stroke-miterlimit:10" d="m235.3 2074.1-13.3 6.8-60.5-27.9 16.6-8z"/>
            <path id="polygon213_4_" style="fill:#95c760;stroke:#0b608c;stroke-width:1.275;stroke-miterlimit:10" d="M246.9 2044.7v12.4l-57.9-29 .6-11.5z"/>
            <path id="polygon221_4_" style="fill:#95c760;stroke:#0b608c;stroke-width:1.275;stroke-miterlimit:10" d="m217.8 2091.5-12.2 7.2-60.1-27.7 16-5.9z"/>
            <path id="polygon225_4_" style="fill:#95c760;stroke:#0b608c;stroke-width:1.275;stroke-miterlimit:10" d="M217.8 2077.6v13.9l-56.3-26.4V2053z"/>
            <path id="polygon229_4_" style="fill:#95c760;stroke:#0b608c;stroke-width:1.275;stroke-miterlimit:10" d="m261.4 2038.2-14.3 6.8-57.5-28.1 16-6.6z"/>
            <path id="polygon233_4_" style="fill:#95c760;stroke:#0b608c;stroke-width:1.275;stroke-miterlimit:10" d="M261.6 2025.1v13.7l-58-26.9v-13.1z"/>
            <path id="polygon237_4_" style="fill:#95c760;stroke:#0b608c;stroke-width:1.275;stroke-miterlimit:10" d="m275 2018.9-13.4 6.6-58-26.7 16-5.9z"/>
        </g>
        <path id="polygon181_4_" style="fill:#95c760;stroke:#0b608c;stroke-width:1.275;stroke-miterlimit:10" d="M275.3 2005.3v14l-55.7-26.4.6-14.8z"/>
        <path id="polygon197_2_" style="fill:#95c760;stroke:#0b608c;stroke-width:1.275;stroke-miterlimit:10" d="M303.1 1967.4v13.9l-56-26.4v-12.1z"/>
        <path id="polygon205_4_" style="fill:#95c760;stroke:#0b608c;stroke-width:1.275;stroke-miterlimit:10" d="M235.3 2063v11.7l-62.3-27.3v-13.3z"/>
        <path id="polygon209_4_" style="fill:#95c760;stroke:#0b608c;stroke-width:1.275;stroke-miterlimit:10" d="m246.9 2057.1-11.3 5.7-62.6-28.7 16-6z"/>
        <path id="polygon217_4_" style="fill:#95c760;stroke:#0b608c;stroke-width:1.275;stroke-miterlimit:10" d="m205.6 2098.7-2 12.7-58.1-27.3V2071z"/>
    </g>
    <path id="polygon59" transform="translate(-53.1 -1363.2)" style="fill:#fbcfd5" d="m1703.7 1510.7-298.6 139.1 76 38.2 138-62.9-48.4-16.9 166.1-81.5z"/>
    <path id="polygon61" transform="translate(-53.1 -1363.2)" style="fill:#f0717c" d="m1315.4 1603.4 287.3-139.5-.1-37.9-287.4 138.1z"/>
    <path id="polygon63" transform="translate(-53.1 -1363.2)" style="fill:#f0717c" d="m1703 1514 .7-38.2-101-49.8v40.1z"/>
    <path id="polygon65" transform="translate(-53.1 -1363.2)" style="fill:#d0efff" d="m1315.3 1604.2 105.3 48.3 281.5-140.2-99.4-48.4z"/>
    <path id="polygon67" transform="translate(-53.1 -1363.2)" style="fill:#f0717c" d="M1521.6 1603.5v-39.4l-101-51.3v38.4z"/>
    <path id="polygon69" transform="translate(-53.1 -1363.2)" style="fill:#f0717c" d="M1453.3 1674.2v-41l-138-69.1v40.1z"/>
    <path id="polygon71" transform="translate(-53.1 -1363.2)" style="fill:#f0717c" d="m1415.4 1655.1 46.4-22.7-.2-39.2-46.3 22.6z"/>
    <path id="polygon73" transform="translate(-53.1 -1363.2)" style="fill:#f0717c" d="m1652.1 1537.8 50.9-24.1-.1-37.6-50.9 24.4z"/>
    <path id="polygon75" transform="translate(-53.1 -1363.2)" style="fill:#f0717c" d="m1489.9 1619 123.7-62.4-.2-37.9-123.6 61z"/>
    <path id="polygon495_1_" transform="translate(-53.1 -1363.2)" style="fill:#d0efff" d="m738.8 1905.8 564.8-177.4-237.7-71.7-440.3 194.4z"/>
    <path id="polygon501_1_" transform="translate(-53.1 -1363.2)" style="fill:#f0717c" d="M1063.2 1776.2v34.2l-160.4-80v-39z"/>
    <path id="polygon505_1_" transform="translate(-53.1 -1363.2)" style="fill:#f0717c" d="M1068.6 1657.2v-36.6l244.7 77.1v29.3l-3.5 1.4-4.5 1.7z"/>
    <g id="g84" transform="translate(-53.1 -1363.2)">
        <g id="g82">
            <path id="polygon80" style="fill:#fbcfd5" d="m1552.3 2040.2 301.9-169.5-401.6-198.8-180.4 63.5-39.9 15.9-493.5 154.5-113.2-54.7-122.9 53.3-71.5-40.6-183.7 77.9 83.8 43.3-22.8 10.8L427 2055l771.1 377.4 148.1-99.6-122.3-51z"/>
        </g>
    </g>
    <path id="polygon515_4_" transform="translate(-53.1 -1363.2)" style="fill:#d0efff" d="m1602.7 1875.3-135.4 103.8-253.6 143.6-381-185.5 553.5-168.7z"/>
    <path id="polygon497_1_" transform="translate(-53.1 -1363.2)" style="fill:#f0717c" d="M1068.6 1622.7v32.2l-565.9 249.5v-35.2z"/>
    <path id="polygon537_1_" transform="translate(-53.1 -1363.2)" style="fill:#f0717c" d="m1226.3 2259.4 1.6 35 122.5 44.4v-33.2z"/>
    <path id="polygon541_1_" transform="translate(-53.1 -1363.2)" style="fill:#f0717c" d="m1350.2 2339.7-152.3 104.7v-40.3l152.3-97.7z"/>
    <path id="polygon569_1_" transform="translate(-53.1 -1363.2)" style="fill:#f0717c" d="m1385.2 1769.9 215.8 104.5 2.8-41.2-218.6-106.7z"/>
    <path id="polygon583_1_" transform="translate(-53.1 -1363.2)" style="fill:#f0717c" d="m832.7 1937.2 381 185.5V2080l-381-184.1z"/>
    <path id="polygon587_1_" transform="translate(-53.1 -1363.2)" style="fill:#f0717c" d="m307.9 1997.4 890 447V2404l-890-449.5z"/>
    <path id="polygon595_2_" transform="translate(-53.1 -1363.2)" style="fill:#f0717c" d="m1507.6 1703.8 223.1 109v-38.4l-223.1-106.6z"/>
    <path id="polygon599_1_" transform="translate(-53.1 -1363.2)" style="fill:#f0717c" d="M502.7 1869.2v35.2l-70.7-38.8v-30.8z"/>
    <path id="polygon607_2_" transform="translate(-53.1 -1363.2)" style="fill:#f0717c" d="M1730.7 1774.4v38.2l-66.2 33.8v-39.5z"/>
    <path id="polygon615_2_" transform="translate(-53.1 -1363.2)" style="fill:#f0717c" d="m1507.7 1704.9-25.9 14.4-35.4-17.1 61.2-34.4z"/>
    <path id="polygon627_1_" transform="translate(-53.1 -1363.2)" style="fill:#f0717c" d="M432 1834.8v30.8l-185.1 77.8v-28.7z"/>
    <path id="polygon663_3_" transform="translate(-53.1 -1363.2)" style="fill:#3696c9" d="m209.7 1931.4 25.3 5.1-4.8-26.7-5.1 5.3-17.2-17.2-10.1 10.2 17.7 17.5z"/>
    <path id="polygon821_1_" transform="translate(-53.1 -1363.2)" style="fill:#f0717c" d="m625.6 1851.1 113.1 55v-36.9l-113.1-53.8z"/>
    <path id="path825_1_" d="m787 474.5-19.2 5.5-82.2 26.4v36.2l83-25.2 18.3-5.5v-37.4zm50.9 22.5 236-72.8v-29.8l-236 65.7zm562.3-227-271.7 102.5-1.5 34.3 273.2-97.1z" style="fill:#f0717c"/>
    <g id="g121" transform="translate(-53.1 -1363.2)">
        <g id="g119">
            <path id="polygon115" style="fill:#f0717c" d="m1156.3 2347.8 52.9-39.6 313.9-234.8 334.5-201.8 1.4-42.9-343.2 195.3-307.2 238.7-18.3 14-34 26.4z"/>
            <path id="polygon117" style="fill:#f0717c" d="M1095.9 2350.2v42.9l26.6-20v-43.7z"/>
        </g>
    </g>
    <path id="polyline128" transform="translate(-53.1 -1363.2)" style="fill:#f0717c" d="M441.1 1898.8v36.8l-133.2 61.6v-42.7l133.2-55.7"/>
    <path id="rect849_3_" transform="translate(-53.1 -1363.2)" style="fill:#3696c9" d="M224.5 1845.6v42.6H73.1v-40.8h25l.5-24.4H193v24.4z"/>
    <path id="polygon149" transform="translate(-53.1 -1363.2)" style="fill:#f0717c" d="m1367.3 2006.3 52.3-28.9v28.7l28-15.9 25.2-14.2 129.9-100.7v-43.2l-129.9 99.2-259.1 148.7v42.7l153.6-87z"/>
    <path id="polygon151" transform="translate(-53.1 -1363.2)" style="fill:#f0717c" d="M1141.1 1817.2v26.6l244.7-74.1v-42.9l-553.1 169.1v41.3l251.6-76.2v-27.4z"/>
    <g id="g442" transform="translate(-53.1 -1363.2)">
        <path d="M120.8 1838.2c0-.7-.2-1.2-.6-1.5-.4-.4-.9-.5-1.6-.5h-4.7v-3.3h5c1.3 0 2.4.2 3.3.7.9.4 1.6 1.1 2.1 1.9.5.8.7 1.8.7 3v10h-4.2v-10.3z" id="path418" style="fill:#fffffd"/>
        <path d="M140.2 1845.3v3.2h-13.5v-3.3h7.4v-6.8c0-1.5-.8-2.2-2.4-2.2h-4.2v-3.3h4.5c1.3 0 2.4.2 3.4.7.9.4 1.7 1.1 2.2 1.9.5.9.7 1.9.7 3.1v6.5z" id="path420" style="fill:#fffffd"/>
        <path d="M154.6 1832.8v8.9c0 1.5-.3 2.8-1 3.9-.6 1.1-1.5 1.9-2.7 2.4-1.2.5-2.5.8-4 .8-2.1 0-4.2-.4-6.2-1.2l.9-3.1c1.2.5 2.4.8 3.5 1-.3-.3-.6-.6-.8-1-.2-.4-.4-.8-.5-1.2l-2.4-10.5h4.2l2.3 11c.1.6.3 1.1.5 1.5.6-.3 1.1-.7 1.5-1.3.3-.6.5-1.2.5-2.1v-9.1z" id="path422" style="fill:#fffffd"/>
        <path d="M159 1839.8c.1-.7.2-1.4.5-2 .3-.6.6-1.1.9-1.5l.2-.2v-.1c-.3.1-.7.2-1.2.3-.5.1-.9.3-1.2.4l-.9-3.1c1-.4 2.2-.7 3.5-.9 1.4-.2 2.6-.3 3.9-.3 2.4 0 4.2.6 5.5 1.8 1.2 1.2 1.9 3 1.9 5.4v8.8h-6.9v-3.3h2.6v-6.1c0-1-.2-1.8-.6-2.4-.4-.6-1-.8-1.7-.8-1.4 0-2.2 1.1-2.4 3.3l-.9 9.2H158Z" id="path424" style="fill:#fffffd"/>
        <path d="M100.2 1866.2c1.1 1 1.6 2.5 1.6 4.4v9.7h-4.2v-10.1c0-1.5-.7-2.3-2-2.3h-2c-.1.5-.2 1-.3 1.6-.1.6-.1 1.1-.1 1.6v4.4c0 1.1-.2 2-.6 2.7-.4.8-.9 1.3-1.6 1.7-.7.4-1.6.6-2.6.6-.6 0-1.3-.1-2-.2v-3.3h.8c1.2 0 1.9-.7 1.9-2v-3.7c0-.6.1-1.2.2-1.8.1-.7.4-1.2.6-1.7h-2.4v-3.3h8c2.1.3 3.6.8 4.7 1.7z" id="path426" style="fill:#fffffd"/>
        <path d="M105.1 1868h-1.3v-3.3h5.6v15.6h-4.2z" id="path428" style="fill:#fffffd"/>
        <path d="m124.4 1867.5-5.1 12.9h-4.5l5.1-12.3h-8.3v-7.6h4.2v4.4h8.6v2.6z" id="path430" style="fill:#fffffd"/>
        <path d="M126.9 1868h-1.3v-3.3h5.6v15.6H127Z" id="path432" style="fill:#fffffd"/>
        <path d="m133.4 1880 .6-3.1c1.3.3 2.4.4 3.3.4 1.2 0 2.2-.3 2.7-.8.6-.5.9-1.3.9-2.4v-6.1h-7v-3.3h11.2v8.6c0 2.5-.6 4.3-1.9 5.5-1.3 1.2-3.1 1.7-5.4 1.7-1.2.1-2.7-.1-4.4-.5z" id="path434" style="fill:#fffffd"/>
        <path d="M152.8 1876.5c.7.3 1.5.6 2.4.8.9.2 1.6.3 2.4.3 1.9 0 3.4-.4 4.5-1.2 1.1-.8 1.6-2 1.6-3.6v-8h4.1v8.4c0 1.7-.4 3.1-1.3 4.2s-2.1 2-3.6 2.6c-1.5.6-3.2.9-5.1.9-1.5 0-3-.2-4.6-.5-1.6-.4-3-.9-4.4-1.5v-14h4.1zm3.2-2.6c.1-.6.1-1.3.1-2v-7.2h4.1v6.3c0 .9-.1 1.7-.3 2.5-.2.8-.5 1.4-.8 1.8h-3.4c.1-.3.2-.8.3-1.4z" id="path436" style="fill:#fffffd"/>
        <path d="m181.5 1873.8 4.5 6.5h-4.7l-5.7-8.2c-.2.3-.4.8-.4 1.3v7h-4.1v-5.1c0-1.4.2-2.6.7-3.5.5-.9 1.2-1.5 2.1-2l-3.4-5h4.7l3.7 5.3 2.5-5.3h4.7z" id="path438" style="fill:#fffffd"/>
        <path d="m200.1 1867.5-5.1 12.9h-4.5l5.1-12.3h-8.3v-7.6h4.2v4.4h8.6z" id="path440" style="fill:#fffffd"/>
    </g>
    <path id="polygon654" transform="translate(-53.1 -1363.2)" style="fill:#f0717c" d="M1613.7 1717.8v37.1l-62.3 34.6v-37.1z"/>
    <path id="polygon656" transform="translate(-53.1 -1363.2)" style="fill:#f0717c" d="m1489.8 1730.1 20.2 10.2v31.2l82.6 40v-30.2l20.2 10.2v29.8l51.7 25.1v-39.5l-218.1-104.7v38.4l43.4 21.1z"/>
</svg>
