<?xml version="1.0" encoding="UTF-8" standalone="no"?>
<svg
   xmlns:dc="http://purl.org/dc/elements/1.1/"
   xmlns:cc="http://creativecommons.org/ns#"
   xmlns:rdf="http://www.w3.org/1999/02/22-rdf-syntax-ns#"
   xmlns:svg="http://www.w3.org/2000/svg"
   xmlns="http://www.w3.org/2000/svg"
   xmlns:xlink="http://www.w3.org/1999/xlink"
   width="552.19623"
   height="324.59729"
   viewBox="0 0 552.19623 324.5973"
   id="svg7067"
   version="1.1">
  <defs
     id="defs7069">
    <clipPath
       id="SVGID_4_">
      <use
         height="100%"
         width="100%"
         y="0"
         x="0"
         style="overflow:visible"
         xlink:href="#SVGID_3_"
         overflow="visible"
         id="use251" />
    </clipPath>
    <clipPath
       id="SVGID_2_">
      <use
         height="100%"
         width="100%"
         y="0"
         x="0"
         style="overflow:visible"
         xlink:href="#SVGID_1_"
         overflow="visible"
         id="use137" />
    </clipPath>
  </defs>
  <metadata
     id="metadata7072">
    <rdf:RDF>
      <cc:Work
         rdf:about="">
        <dc:format>image/svg+xml</dc:format>
        <dc:type
           rdf:resource="http://purl.org/dc/dcmitype/StillImage" />
        <dc:title></dc:title>
      </cc:Work>
    </rdf:RDF>
  </metadata>
  <g
     id="layer1"
     transform="translate(-133.01366,-313.26645)">
    <polygon
       transform="translate(97.97623,-119.43355)"
       style="fill:#b6b1c1"
       points="354.3,706.3 374,720.5 335.4,740 285.4,719.3 291,717.9 205.9,678.4 244.3,651.3 157.2,608.7 113.2,631.6 45.3,590.9 197.4,519.5 303.3,565.8 340.6,543.6 374,527.7 355.7,518.8 390.3,502.2 502.7,550.4 518.1,546 572,573.4 545.3,587.1 516.8,574.1 404.7,631.6 365.3,678.9 377.7,689.6 "
       id="polygon3" />
    <polygon
       transform="translate(97.97623,-119.43355)"
       style="fill:#2cc1d7"
       points="185.8,563.7 205.9,570.4 246.6,590 218.6,611.2 192.3,599.5 157.6,580.1 "
       id="polygon5" />
    <polygon
       transform="translate(97.97623,-119.43355)"
       style="fill:#ffffff"
       points="468.7,548 385.1,511 385.1,522 468.7,558.5 "
       id="polygon7" />
    <polygon
       transform="translate(97.97623,-119.43355)"
       style="fill:none;stroke:#141132;stroke-width:0.23999999"
       points="468.7,548 385.1,511 385.1,522 468.7,558.5 "
       id="polygon9" />
    <polygon
       transform="translate(97.97623,-119.43355)"
       style="fill:#ffffff"
       points="198.6,618.1 203.2,615.5 203.2,626.3 198.6,628 "
       id="polygon11" />
    <polygon
       transform="translate(97.97623,-119.43355)"
       style="fill:none;stroke:#141132;stroke-width:0.23999999"
       points="198.6,618.1 203.2,615.5 203.2,626.3 198.6,628 "
       id="polygon13" />
    <polygon
       transform="translate(97.97623,-119.43355)"
       style="fill:#ffffff"
       points="251.3,585.1 186.2,555.4 186.2,566.4 251.3,596.3 "
       id="polygon15" />
    <polygon
       transform="translate(97.97623,-119.43355)"
       style="fill:none;stroke:#141132;stroke-width:0.23999999"
       points="251.3,585.1 186.2,555.4 186.2,566.4 251.3,596.3 "
       id="polygon17" />
    <polygon
       transform="translate(97.97623,-119.43355)"
       style="fill:#ffffff"
       points="199.8,520.9 303.3,566.2 303.3,556.2 199.4,512.4 "
       id="polygon19" />
    <polygon
       transform="translate(97.97623,-119.43355)"
       style="fill:none;stroke:#141132;stroke-width:0.23999999"
       points="199.8,520.9 303.3,566.2 303.3,556.2 199.4,512.4 "
       id="polygon21" />
    <polygon
       transform="translate(97.97623,-119.43355)"
       style="fill:#ffffff"
       points="251.4,596.3 251.4,585 213.4,606.6 223.5,611.7 "
       id="polygon23" />
    <polygon
       transform="translate(97.97623,-119.43355)"
       style="fill:none;stroke:#141132;stroke-width:0.23999999"
       points="251.4,596.3 251.4,585 213.4,606.6 223.5,611.7 "
       id="polygon25" />
    <polygon
       transform="translate(97.97623,-119.43355)"
       style="fill:#ffffff"
       points="503.5,544.3 407.2,501.5 407.2,511 503.5,553.3 "
       id="polygon27" />
    <polygon
       transform="translate(97.97623,-119.43355)"
       style="fill:none;stroke:#141132;stroke-width:0.23999999"
       points="503.5,544.3 407.2,501.5 407.2,511 503.5,553.3 "
       id="polygon29" />
    <polygon
       transform="translate(97.97623,-119.43355)"
       style="fill:#ffffff"
       points="113.2,618.4 45.3,576.8 45.3,590.9 113.2,631.6 "
       id="polygon31" />
    <polygon
       transform="translate(97.97623,-119.43355)"
       style="fill:none;stroke:#141132;stroke-width:0.23999999"
       points="113.2,618.4 45.3,576.8 45.3,590.9 113.2,631.6 "
       id="polygon33" />
    <polygon
       transform="translate(97.97623,-119.43355)"
       style="fill:#ffffff"
       points="244.3,651.3 157.2,608.7 157.2,597.4 244.2,640.6 "
       id="polygon35" />
    <polygon
       transform="translate(97.97623,-119.43355)"
       style="fill:none;stroke:#141132;stroke-width:0.23999999"
       points="244.3,651.3 157.2,608.7 157.2,597.4 244.2,640.6 "
       id="polygon37" />
    <polygon
       transform="translate(97.97623,-119.43355)"
       style="fill:#ffffff"
       points="216.9,580.3 216.9,570 182.2,589.3 192.3,594.3 "
       id="polygon39" />
    <polygon
       transform="translate(97.97623,-119.43355)"
       style="fill:none;stroke:#141132;stroke-width:0.23999999"
       points="216.9,580.3 216.9,570 182.2,589.3 192.3,594.3 "
       id="polygon41" />
    <path
       style="fill:#ffffff"
       d="m 362.47623,586.16645 26.6,12.3 3.8,-7.3 -30.4,-14.4 0,9.4 z m -33.2,-25 -25.4,-12 0,9.8 25.4,11.8 0,-9.6 z"
       id="path43" />
    <path
       style="fill:none;stroke:#141132;stroke-width:0.23999999"
       d="m 362.47623,586.16645 26.6,12.3 3.8,-7.3 -30.4,-14.4 0,9.4 z m -33.2,-25 -25.4,-12 0,9.8 25.4,11.8 0,-9.6 z"
       id="path45" />
    <polygon
       transform="translate(97.97623,-119.43355)"
       style="fill:#ffffff"
       points="377.7,715.6 347.4,701.9 347.7,710.5 377.7,725 "
       id="polygon47" />
    <polygon
       transform="translate(97.97623,-119.43355)"
       style="fill:none;stroke:#141132;stroke-width:0.23999999"
       points="377.7,715.6 347.4,701.9 347.7,710.5 377.7,725 "
       id="polygon49" />
    <polygon
       transform="translate(97.97623,-119.43355)"
       style="fill:#ffffff"
       points="383.2,684 362.5,673.5 362.7,684.2 383.2,694.6 "
       id="polygon51" />
    <polygon
       transform="translate(97.97623,-119.43355)"
       style="fill:none;stroke:#141132;stroke-width:0.23999999"
       points="383.2,684 362.5,673.5 362.7,684.2 383.2,694.6 "
       id="polygon53" />
    <polygon
       transform="translate(97.97623,-119.43355)"
       style="fill:#ffffff"
       points="577,568.6 517.6,538.4 517.6,546.1 570.5,573.1 "
       id="polygon55" />
    <polygon
       transform="translate(97.97623,-119.43355)"
       style="fill:none;stroke:#141132;stroke-width:0.23999999"
       points="577,568.6 517.6,538.4 517.6,546.1 570.5,573.1 "
       id="polygon57" />
    <polygon
       transform="translate(97.97623,-119.43355)"
       style="fill:#ffffff"
       points="545.3,582.7 520.8,570.5 520.8,579.5 545.3,592 "
       id="polygon59" />
    <polygon
       transform="translate(97.97623,-119.43355)"
       style="fill:none;stroke:#141132;stroke-width:0.23999999"
       points="545.3,582.7 520.8,570.5 520.8,579.5 545.3,592 "
       id="polygon61" />
    <polygon
       transform="translate(97.97623,-119.43355)"
       style="fill:#ffffff"
       points="256.8,625.4 144.7,569.8 144.7,581 256.8,635.7 "
       id="polygon63" />
    <polygon
       transform="translate(97.97623,-119.43355)"
       style="fill:none;stroke:#141132;stroke-width:0.23999999"
       points="256.8,625.4 144.7,569.8 144.7,581 256.8,635.7 "
       id="polygon65" />
    <polygon
       transform="translate(97.97623,-119.43355)"
       style="fill:#ffffff"
       points="244.3,651.3 244.2,640.6 205.9,668.6 214.4,672.4 "
       id="polygon67" />
    <polygon
       transform="translate(97.97623,-119.43355)"
       style="fill:none;stroke:#141132;stroke-width:0.23999999"
       points="244.3,651.3 244.2,640.6 205.9,668.6 214.4,672.4 "
       id="polygon69" />
    <polygon
       transform="translate(97.97623,-119.43355)"
       style="fill:#ffffff"
       points="307.5,710.2 307.5,698.5 283.2,713.2 283.2,722.7 "
       id="polygon71" />
    <polygon
       transform="translate(97.97623,-119.43355)"
       style="fill:none;stroke:#141132;stroke-width:0.23999999"
       points="307.5,710.2 307.5,698.5 283.2,713.2 283.2,722.7 "
       id="polygon73" />
    <polygon
       transform="translate(97.97623,-119.43355)"
       style="fill:#ffffff"
       points="330.5,736.8 283.2,713.4 283.2,722.6 330.5,747.1 "
       id="polygon75" />
    <polygon
       transform="translate(97.97623,-119.43355)"
       style="fill:none;stroke:#141132;stroke-width:0.23999999"
       points="330.5,736.8 283.2,713.4 283.2,722.6 330.5,747.1 "
       id="polygon77" />
    <polygon
       transform="translate(97.97623,-119.43355)"
       style="fill:#ffffff"
       points="330.5,747.1 330.5,736.8 377.7,715.6 377.7,725 "
       id="polygon79" />
    <polygon
       transform="translate(97.97623,-119.43355)"
       style="fill:none;stroke:#141132;stroke-width:0.23999999"
       points="330.5,747.1 330.5,736.8 377.7,715.6 377.7,725 "
       id="polygon81" />
    <polygon
       transform="translate(97.97623,-119.43355)"
       style="fill:#ffffff"
       points="357,706.3 347.3,701.9 383.2,684 383.2,694.6 "
       id="polygon83" />
    <polygon
       transform="translate(97.97623,-119.43355)"
       style="fill:none;stroke:#141132;stroke-width:0.23999999"
       points="357,706.3 347.3,701.9 383.2,684 383.2,694.6 "
       id="polygon85" />
    <polygon
       transform="translate(97.97623,-119.43355)"
       style="fill:#ffffff"
       points="407.6,622.9 520.8,570.5 520.8,579.5 411.3,632.8 369.4,677 362.5,673.5 "
       id="polygon87" />
    <polygon
       transform="translate(97.97623,-119.43355)"
       style="fill:none;stroke:#141132;stroke-width:0.23999999"
       points="407.6,622.9 520.8,570.5 520.8,579.5 411.3,632.8 369.4,677 362.5,673.5 "
       id="polygon89" />
    <polygon
       transform="translate(97.97623,-119.43355)"
       style="fill:#ffffff"
       points="386,611 489,562.9 489,572.1 389.6,620.8 370.1,640 369.7,629.2 "
       id="polygon91" />
    <polygon
       transform="translate(97.97623,-119.43355)"
       style="fill:none;stroke:#141132;stroke-width:0.23999999"
       points="386,611 489,562.9 489,572.1 389.6,620.8 370.1,640 369.7,629.2 "
       id="polygon93" />
    <polygon
       transform="translate(97.97623,-119.43355)"
       style="fill:#ffffff"
       points="545.1,592.3 545.1,583 576.6,568.1 576.6,577.5 "
       id="polygon95" />
    <polygon
       transform="translate(97.97623,-119.43355)"
       style="fill:none;stroke:#141132;stroke-width:0.23999999"
       points="545.1,592.3 545.1,583 576.6,568.1 576.6,577.5 "
       id="polygon97" />
    <polygon
       transform="translate(97.97623,-119.43355)"
       style="fill:#ffffff"
       points="509.2,550.7 509.2,541.7 503.5,544.5 503.5,553.3 "
       id="polygon99" />
    <polygon
       transform="translate(97.97623,-119.43355)"
       style="fill:none;stroke:#141132;stroke-width:0.23999999"
       points="509.2,550.7 509.2,541.7 503.5,544.5 503.5,553.3 "
       id="polygon101" />
    <polygon
       transform="translate(97.97623,-119.43355)"
       style="fill:#ffffff"
       points="374,529.1 336.6,547.4 303.3,565.8 303.3,556.2 332.9,536.2 373,518.1 "
       id="polygon103" />
    <polygon
       transform="translate(97.97623,-119.43355)"
       style="fill:none;stroke:#141132;stroke-width:0.23999999"
       points="374,529.1 336.6,547.4 303.3,565.8 303.3,556.2 332.9,536.2 373,518.1 "
       id="polygon105" />
    <polygon
       transform="translate(97.97623,-119.43355)"
       style="fill:#ffffff"
       points="199.8,520.9 199.4,512.4 45.3,576.8 58.5,584.9 "
       id="polygon107" />
    <polygon
       transform="translate(97.97623,-119.43355)"
       style="fill:none;stroke:#141132;stroke-width:0.23999999"
       points="199.8,520.9 199.4,512.4 45.3,576.8 58.5,584.9 "
       id="polygon109" />
    <polygon
       transform="translate(97.97623,-119.43355)"
       style="fill:#ffffff"
       points="157.2,608.7 157.2,597.4 113.2,618.4 113.2,631.6 "
       id="polygon111" />
    <polygon
       transform="translate(97.97623,-119.43355)"
       style="fill:none;stroke:#141132;stroke-width:0.23999999"
       points="157.2,608.7 157.2,597.4 113.2,618.4 113.2,631.6 "
       id="polygon113" />
    <polygon
       transform="translate(97.97623,-119.43355)"
       style="fill:#ffffff"
       points="163,578.8 153.2,573.9 186.3,555.6 186.3,566.9 "
       id="polygon115" />
    <polygon
       transform="translate(97.97623,-119.43355)"
       style="fill:none;stroke:#141132;stroke-width:0.23999999"
       points="163,578.8 153.2,573.9 186.3,555.6 186.3,566.9 "
       id="polygon117" />
    <polygon
       transform="translate(97.97623,-119.43355)"
       style="fill:#ffffff"
       points="211.7,607.5 216.3,604.8 216.3,615.6 211.7,618.8 "
       id="polygon119" />
    <polygon
       transform="translate(97.97623,-119.43355)"
       style="fill:none;stroke:#141132;stroke-width:0.23999999"
       points="211.7,607.5 216.3,604.8 216.3,615.6 211.7,618.8 "
       id="polygon121" />
    <polygon
       transform="translate(97.97623,-119.43355)"
       style="fill:#ffffff"
       points="296.2,604.2 256.8,625.4 256.8,635.7 296.2,614.5 306.2,620.2 306.6,610.6 "
       id="polygon123" />
    <polygon
       transform="translate(97.97623,-119.43355)"
       style="fill:none;stroke:#141132;stroke-width:0.23999999"
       points="296.2,604.2 256.8,625.4 256.8,635.7 296.2,614.5 306.2,620.2 306.6,610.6 "
       id="polygon125" />
    <polygon
       transform="translate(97.97623,-119.43355)"
       style="fill:#ffffff"
       points="391.9,581.9 333.2,554.5 327.4,557.2 386.7,582.8 "
       id="polygon127" />
    <polygon
       transform="translate(97.97623,-119.43355)"
       style="fill:none;stroke:#141132;stroke-width:0.47999999"
       points="391.9,581.9 333.2,554.5 327.4,557.2 386.7,582.8 "
       id="polygon129" />
    <g
       transform="translate(97.97623,-119.43355)"
       id="g131">
      <defs
         id="defs133">
        <rect
           id="SVGID_1_"
           x="24.700001"
           y="79.099998"
           width="554"
           height="1157.5" />
      </defs>
      <clipPath
         id="clipPath6769">
        <use
           height="100%"
           width="100%"
           y="0"
           x="0"
           style="overflow:visible"
           xlink:href="#SVGID_1_"
           overflow="visible"
           id="use6771" />
      </clipPath>
      <path
         style="fill:#ffffff"
         clip-path="url(#SVGID_2_)"
         d="m 326.4,554.5 -5.9,2.4 61.7,27.9 4.5,-2 c 0.3,0.4 -60.3,-28.3 -60.3,-28.3"
         id="path139" />
      <path
         style="fill:none;stroke:#141132;stroke-width:0.47999999"
         clip-path="url(#SVGID_2_)"
         d="m 326.4,554.5 -5.9,2.4 61.7,27.9 4.5,-2 c 0.3,0.4 -60.3,-28.3 -60.3,-28.3 z"
         id="path141" />
    </g>
    <polygon
       transform="translate(97.97623,-119.43355)"
       style="fill:#ffffff"
       points="376.5,580.5 319,554.5 310.7,558.5 371.4,585.3 "
       id="polygon143" />
    <polygon
       transform="translate(97.97623,-119.43355)"
       style="fill:none;stroke:#141132;stroke-width:0.47999999"
       points="376.5,580.5 319,554.5 310.7,558.5 371.4,585.3 "
       id="polygon145" />
    <polygon
       transform="translate(97.97623,-119.43355)"
       style="fill:#ffffff"
       points="371.4,582.8 311.4,554.5 305.7,557.2 366.8,584.8 "
       id="polygon147" />
    <polygon
       transform="translate(97.97623,-119.43355)"
       style="fill:none;stroke:#141132;stroke-width:0.47999999"
       points="371.4,582.8 311.4,554.5 305.7,557.2 366.8,584.8 "
       id="polygon149" />
    <polygon
       transform="translate(97.97623,-119.43355)"
       style="fill:#ffffff"
       points="362,580.5 304.5,554.9 280.5,566.2 338.6,590.5 "
       id="polygon151" />
    <polygon
       transform="translate(97.97623,-119.43355)"
       style="fill:none;stroke:#141132;stroke-width:0.47999999"
       points="362,580.5 304.5,554.9 280.5,566.2 338.6,590.5 "
       id="polygon153" />
    <polygon
       transform="translate(97.97623,-119.43355)"
       style="fill:#ffffff"
       points="343.9,589.9 283.6,562.7 279.1,564.5 339.3,591.9 "
       id="polygon155" />
    <polygon
       transform="translate(97.97623,-119.43355)"
       style="fill:none;stroke:#141132;stroke-width:0.47999999"
       points="343.9,589.9 283.6,562.7 279.1,564.5 339.3,591.9 "
       id="polygon157" />
    <polygon
       transform="translate(97.97623,-119.43355)"
       style="fill:#ffffff"
       points="333.8,589.1 276.1,562.5 271.1,565 328.6,590 "
       id="polygon159" />
    <polygon
       transform="translate(97.97623,-119.43355)"
       style="fill:none;stroke:#141132;stroke-width:0.47999999"
       points="333.8,589.1 276.1,562.5 271.1,565 328.6,590 "
       id="polygon161" />
    <polygon
       transform="translate(97.97623,-119.43355)"
       style="fill:#ffffff"
       points="328.6,590 268.4,562.5 263.8,564.7 324.1,592 "
       id="polygon163" />
    <polygon
       transform="translate(97.97623,-119.43355)"
       style="fill:none;stroke:#141132;stroke-width:0.47999999"
       points="328.6,590 268.4,562.5 263.8,564.7 324.1,592 "
       id="polygon165" />
    <polygon
       transform="translate(97.97623,-119.43355)"
       style="fill:#ffffff"
       points="318.4,587.7 261.2,562.5 253.8,565.3 313.2,592.5 "
       id="polygon167" />
    <polygon
       transform="translate(97.97623,-119.43355)"
       style="fill:none;stroke:#141132;stroke-width:0.47999999"
       points="318.4,587.7 261.2,562.5 253.8,565.3 313.2,592.5 "
       id="polygon169" />
    <polygon
       transform="translate(97.97623,-119.43355)"
       style="fill:#ffffff"
       points="313.2,590 252.9,562.8 248.5,564.7 308.7,592 "
       id="polygon171" />
    <polygon
       transform="translate(97.97623,-119.43355)"
       style="fill:none;stroke:#141132;stroke-width:0.47999999"
       points="313.2,590 252.9,562.8 248.5,564.7 308.7,592 "
       id="polygon173" />
    <polygon
       transform="translate(97.97623,-119.43355)"
       style="fill:#ffffff"
       points="338.2,587.6 307.8,585.1 306.2,620.2 391.9,581.9 362,577.4 "
       id="polygon175" />
    <polygon
       transform="translate(97.97623,-119.43355)"
       style="fill:none;stroke:#141132;stroke-width:0.23999999"
       points="338.2,587.6 307.8,585.1 306.2,620.2 391.9,581.9 362,577.4 "
       id="polygon177" />
    <polygon
       transform="translate(97.97623,-119.43355)"
       style="fill:#ffffff"
       points="99.8,547.7 100,542.7 118.6,551.9 118.6,556.6 "
       id="polygon179" />
    <polygon
       transform="translate(97.97623,-119.43355)"
       style="fill:none;stroke:#141132;stroke-width:0.23999999"
       points="99.8,547.7 100,542.7 118.6,551.9 118.6,556.6 "
       id="polygon181" />
    <polygon
       transform="translate(97.97623,-119.43355)"
       style="fill:#ffffff"
       points="100,542.7 105.4,540.6 123.3,550.5 120.2,552.6 "
       id="polygon183" />
    <polygon
       transform="translate(97.97623,-119.43355)"
       style="fill:none;stroke:#141132;stroke-width:0.23999999"
       points="100,542.7 105.4,540.6 123.3,550.5 120.2,552.6 "
       id="polygon185" />
    <polygon
       transform="translate(97.97623,-119.43355)"
       style="fill:#ffffff"
       points="103.7,541.3 103.7,536.9 124,546.2 123.3,550.5 "
       id="polygon187" />
    <polygon
       transform="translate(97.97623,-119.43355)"
       style="fill:none;stroke:#141132;stroke-width:0.23999999"
       points="103.7,541.3 103.7,536.9 124,546.2 123.3,550.5 "
       id="polygon189" />
    <polygon
       transform="translate(97.97623,-119.43355)"
       style="fill:#ffffff"
       points="103.7,536.9 109.1,534.9 128.1,543.8 124,546.2 "
       id="polygon191" />
    <polygon
       transform="translate(97.97623,-119.43355)"
       style="fill:none;stroke:#141132;stroke-width:0.23999999"
       points="103.7,536.9 109.1,534.9 128.1,543.8 124,546.2 "
       id="polygon193" />
    <polygon
       transform="translate(97.97623,-119.43355)"
       style="fill:#ffffff"
       points="109.1,534.9 109.1,530.8 128,539.1 128,543.8 "
       id="polygon195" />
    <polygon
       transform="translate(97.97623,-119.43355)"
       style="fill:none;stroke:#141132;stroke-width:0.23999999"
       points="109.1,534.9 109.1,530.8 128,539.1 128,543.8 "
       id="polygon197" />
    <polygon
       transform="translate(97.97623,-119.43355)"
       style="fill:#ffffff"
       points="80.2,568 85.8,565.3 105.1,575.1 100.6,577.4 "
       id="polygon199" />
    <polygon
       transform="translate(97.97623,-119.43355)"
       style="fill:none;stroke:#141132;stroke-width:0.23999999"
       points="80.2,568 85.8,565.3 105.1,575.1 100.6,577.4 "
       id="polygon201" />
    <polygon
       transform="translate(97.97623,-119.43355)"
       style="fill:#ffffff"
       points="84.1,566.1 84.1,561.6 105.1,571.4 105.1,575.3 "
       id="polygon203" />
    <polygon
       transform="translate(97.97623,-119.43355)"
       style="fill:none;stroke:#141132;stroke-width:0.23999999"
       points="84.1,566.1 84.1,561.6 105.1,571.4 105.1,575.3 "
       id="polygon205" />
    <polygon
       transform="translate(97.97623,-119.43355)"
       style="fill:#ffffff"
       points="84.1,561.6 89.5,559.6 109,569.4 105.2,571.3 "
       id="polygon207" />
    <polygon
       transform="translate(97.97623,-119.43355)"
       style="fill:none;stroke:#141132;stroke-width:0.23999999"
       points="84.1,561.6 89.5,559.6 109,569.4 105.2,571.3 "
       id="polygon209" />
    <polygon
       transform="translate(97.97623,-119.43355)"
       style="fill:#ffffff"
       points="89.5,559.6 89.7,555.7 109,565.2 109,569.4 "
       id="polygon211" />
    <polygon
       transform="translate(97.97623,-119.43355)"
       style="fill:none;stroke:#141132;stroke-width:0.23999999"
       points="89.5,559.6 89.7,555.7 109,565.2 109,569.4 "
       id="polygon213" />
    <polygon
       transform="translate(97.97623,-119.43355)"
       style="fill:#ffffff"
       points="74.8,578.5 74.8,574.1 95.1,583.4 94.4,587.7 "
       id="polygon215" />
    <polygon
       transform="translate(97.97623,-119.43355)"
       style="fill:none;stroke:#141132;stroke-width:0.23999999"
       points="74.8,578.5 74.8,574.1 95.1,583.4 94.4,587.7 "
       id="polygon217" />
    <polygon
       transform="translate(97.97623,-119.43355)"
       style="fill:#ffffff"
       points="74.8,574.1 80.2,572.1 99.2,581 95.1,583.4 "
       id="polygon219" />
    <polygon
       transform="translate(97.97623,-119.43355)"
       style="fill:none;stroke:#141132;stroke-width:0.23999999"
       points="74.8,574.1 80.2,572.1 99.2,581 95.1,583.4 "
       id="polygon221" />
    <polygon
       transform="translate(97.97623,-119.43355)"
       style="fill:#ffffff"
       points="80.2,572.1 80.2,568 99.2,576.3 99.2,581 "
       id="polygon223" />
    <polygon
       transform="translate(97.97623,-119.43355)"
       style="fill:none;stroke:#141132;stroke-width:0.23999999"
       points="80.2,572.1 80.2,568 99.2,576.3 99.2,581 "
       id="polygon225" />
    <polygon
       transform="translate(97.97623,-119.43355)"
       style="fill:#ffffff"
       points="89.7,555.8 95.1,553.6 113.9,563 109.1,565.3 "
       id="polygon227" />
    <polygon
       transform="translate(97.97623,-119.43355)"
       style="fill:none;stroke:#141132;stroke-width:0.23999999"
       points="89.7,555.8 95.1,553.6 113.9,563 109.1,565.3 "
       id="polygon229" />
    <polygon
       transform="translate(97.97623,-119.43355)"
       style="fill:#ffffff"
       points="94.4,554.1 94.4,549.7 114,558.6 114,563.2 "
       id="polygon231" />
    <polygon
       transform="translate(97.97623,-119.43355)"
       style="fill:none;stroke:#141132;stroke-width:0.23999999"
       points="94.4,554.1 94.4,549.7 114,558.6 114,563.2 "
       id="polygon233" />
    <polygon
       transform="translate(97.97623,-119.43355)"
       style="fill:#ffffff"
       points="94.4,549.7 99.8,547.7 118.5,556.5 114,558.7 "
       id="polygon235" />
    <polygon
       transform="translate(97.97623,-119.43355)"
       style="fill:none;stroke:#141132;stroke-width:0.23999999"
       points="94.4,549.7 99.8,547.7 118.5,556.5 114,558.7 "
       id="polygon237" />
    <polygon
       transform="translate(97.97623,-119.43355)"
       style="fill:#ffffff"
       points="113.2,572.6 94,578.8 94,590.5 113.2,583.4 144.7,581 144.7,569.8 "
       id="polygon239" />
    <polygon
       transform="translate(97.97623,-119.43355)"
       style="fill:none;stroke:#141132;stroke-width:0.23999999"
       points="113.2,572.6 94,578.8 94,590.5 113.2,583.4 144.7,581 144.7,569.8 "
       id="polygon241" />
    <polygon
       transform="translate(97.97623,-119.43355)"
       style="fill:#b6b1c1"
       points="128,539.1 108.5,549.6 123.9,557.5 145.4,567.9 229.5,523.5 170.8,500.8 99.2,526.9 109.1,530.8 "
       id="polygon243" />
    <g
       transform="translate(97.97623,-119.43355)"
       id="g245">
      <defs
         id="defs247">
        <rect
           id="SVGID_3_"
           x="24.700001"
           y="79.099998"
           width="554"
           height="1157.5" />
      </defs>
      <clipPath
         id="clipPath6829">
        <use
           height="100%"
           width="100%"
           y="0"
           x="0"
           style="overflow:visible"
           xlink:href="#SVGID_3_"
           overflow="visible"
           id="use6831" />
      </clipPath>
      <path
         style="fill:#2cc1d7"
         clip-path="url(#SVGID_4_)"
         d="m 118.3,517.6 c 0,0 15.5,8 16,8 0.5,0 12.4,-3.2 12.4,-3.2 l 13.1,-7.5 30.1,12.2 17.3,7.7 16,-12 -3.5,-7.2 c 0,0 -52.6,-18.2 -53.1,-18.2 -0.5,0 -48.3,20.2 -48.3,20.2"
         id="path253" />
    </g>
    <polygon
       transform="translate(97.97623,-119.43355)"
       style="fill:#ffffff"
       points="170.5,501 170.5,491.1 99.2,517.6 99.2,527 "
       id="polygon255" />
    <polygon
       transform="translate(97.97623,-119.43355)"
       style="fill:none;stroke:#141132;stroke-width:0.23999999"
       points="170.5,501 170.5,491.1 99.2,517.6 99.2,527 "
       id="polygon257" />
    <polygon
       transform="translate(97.97623,-119.43355)"
       style="fill:#ffffff"
       points="230.3,514.8 170.5,491 170.5,501 218.7,520.6 "
       id="polygon259" />
    <polygon
       transform="translate(97.97623,-119.43355)"
       style="fill:none;stroke:#141132;stroke-width:0.23999999"
       points="230.3,514.8 170.5,491 170.5,501 218.7,520.6 "
       id="polygon261" />
    <polygon
       transform="translate(97.97623,-119.43355)"
       style="fill:#ffffff"
       points="204.6,527.7 147.7,499.8 147.7,509.4 204.6,538.6 "
       id="polygon263" />
    <polygon
       transform="translate(97.97623,-119.43355)"
       style="fill:none;stroke:#141132;stroke-width:0.23999999"
       points="204.6,527.7 147.7,499.8 147.7,509.4 204.6,538.6 "
       id="polygon265" />
    <polygon
       transform="translate(97.97623,-119.43355)"
       style="fill:#ffffff"
       points="145.4,567.9 146,557.5 230.3,514.8 229.6,525.6 "
       id="polygon267" />
    <polygon
       transform="translate(97.97623,-119.43355)"
       style="fill:none;stroke:#141132;stroke-width:0.23999999"
       points="145.4,567.9 146,557.5 230.3,514.8 229.6,525.6 "
       id="polygon269" />
    <polygon
       transform="translate(97.97623,-119.43355)"
       style="fill:#f7d786"
       points="135.3,547.8 132.6,546.9 138.2,543.8 134.1,541.7 128.6,545.1 126.8,544 121.5,551.1 "
       id="polygon271" />
    <polygon
       transform="translate(97.97623,-119.43355)"
       style="fill:#ffffff"
       points="136.5,521 116.5,511.3 116.5,520.4 136.5,531 "
       id="polygon273" />
    <polygon
       transform="translate(97.97623,-119.43355)"
       style="fill:none;stroke:#141132;stroke-width:0.23999999"
       points="136.5,521 116.5,511.3 116.5,520.4 136.5,531 "
       id="polygon275" />
    <polygon
       transform="translate(97.97623,-119.43355)"
       style="fill:#ffffff"
       points="178.6,525.2 174.8,523.3 174.8,517.9 178.6,519.5 "
       id="polygon277" />
    <polygon
       transform="translate(97.97623,-119.43355)"
       style="fill:none;stroke:#141132;stroke-width:0.47999999"
       points="178.6,525.2 174.8,523.3 174.8,517.9 178.6,519.5 "
       id="polygon279" />
    <polygon
       transform="translate(97.97623,-119.43355)"
       style="fill:#ffffff"
       points="164.1,517.6 164.1,507.7 136.5,521 136.5,531 "
       id="polygon281" />
    <polygon
       transform="translate(97.97623,-119.43355)"
       style="fill:none;stroke:#141132;stroke-width:0.23999999"
       points="164.1,517.6 164.1,507.7 136.5,521 136.5,531 "
       id="polygon283" />
    <polygon
       transform="translate(97.97623,-119.43355)"
       style="fill:#ffffff"
       points="175.9,595.9 171,593.5 171,586 175.9,588.5 "
       id="polygon285" />
    <polygon
       transform="translate(97.97623,-119.43355)"
       style="fill:none;stroke:#141132;stroke-width:0.47999999"
       points="175.9,595.9 171,593.5 171,586 175.9,588.5 "
       id="polygon287" />
    <polygon
       transform="translate(97.97623,-119.43355)"
       style="fill:#ffffff"
       points="203.7,609.8 198.9,607.4 198.9,599.9 203.7,602.4 "
       id="polygon289" />
    <polygon
       transform="translate(97.97623,-119.43355)"
       style="fill:none;stroke:#141132;stroke-width:0.47999999"
       points="203.7,609.8 198.9,607.4 198.9,599.9 203.7,602.4 "
       id="polygon291" />
    <polygon
       transform="translate(97.97623,-119.43355)"
       style="fill:#ffffff"
       points="155.1,516.4 150.3,518.4 150.3,524.2 155.1,522 "
       id="polygon293" />
    <polygon
       transform="translate(97.97623,-119.43355)"
       style="fill:none;stroke:#141132;stroke-width:0.47999999"
       points="155.1,516.4 150.3,518.4 150.3,524.2 155.1,522 "
       id="polygon295" />
    <rect
       style="fill:#141132"
       x="209.47623"
       y="411.96649"
       width="46.5"
       height="8.8999996"
       id="rect459" />
    <path
       style="fill:#f7d786"
       d="m 214.47623,414.06645 0,5.7 -1.2,0 0,-4.8 -0.9,0 0,-0.9 2.1,0 z m 3,0 0,4.4 -1.2,0 0,-3.5 -0.7,0 0,-0.9 1.9,0 z m 3.1,0 0,1.6 c 0,0.2 0,0.3 0,0.4 0,0.1 0,0.2 0,0.3 0,0.1 0,0.2 0,0.2 0,0.1 0,0.2 -0.1,0.3 l -1.1,-0.2 c 0,-0.1 0,-0.2 0,-0.2 0,-0.1 0,-0.1 0,-0.2 0,-0.1 0,-0.2 0,-0.3 0,-0.1 0,-0.2 0,-0.4 l 0,-0.6 -1,0 0,-0.9 2.2,0 z m 2.1,-1.2 0,1.2 2.4,0 c 0,0.1 0,0.1 0,0.2 0,0.1 0,0.1 0,0.1 0,0.1 0,0.1 0,0.2 0,0.1 0,0.1 0,0.2 l 0,0.9 c 0,0.3 -0.1,0.6 -0.2,0.9 -0.1,0.3 -0.3,0.6 -0.6,0.9 l -1.1,1.2 -0.8,-0.7 0.5,-0.5 c 0.2,-0.2 0.4,-0.4 0.5,-0.6 0.1,-0.2 0.2,-0.3 0.3,-0.4 0.1,-0.1 0.1,-0.2 0.2,-0.3 0,-0.1 0.1,-0.2 0.1,-0.4 l 0,-0.8 -2.5,0 0,-2.1 1.2,0 z m 6,1.9 c 0,-0.2 0.1,-0.3 0.1,-0.4 0,-0.1 0.1,-0.3 0.1,-0.4 l 1.6,0.4 c 0,0.1 0,0.2 0,0.3 0,0.1 0,0.2 0,0.3 0,0.2 -0.1,0.4 -0.1,0.6 0,0.2 -0.1,0.4 -0.2,0.6 -0.1,0.3 -0.3,0.6 -0.4,0.9 -0.2,0.3 -0.3,0.5 -0.5,0.7 -0.2,0.2 -0.4,0.4 -0.6,0.5 -0.2,0.1 -0.5,0.3 -0.7,0.4 -0.2,0.1 -0.5,0.2 -0.8,0.3 -0.3,0.1 -0.5,0.2 -0.8,0.2 l -0.3,-1 c 0.3,-0.1 0.6,-0.2 0.8,-0.2 0.3,-0.1 0.5,-0.2 0.7,-0.3 -0.1,-0.4 -0.3,-0.7 -0.4,-1.1 -0.1,-0.4 -0.3,-0.7 -0.4,-1.1 0,-0.1 -0.1,-0.1 -0.1,-0.2 0,0 0,-0.1 -0.1,-0.1 0,0 -0.1,-0.1 -0.1,-0.1 0,0 -0.1,0 -0.1,-0.1 l -0.5,-0.2 c 0.1,-0.1 0.1,-0.3 0.2,-0.4 0.1,-0.1 0.1,-0.3 0.2,-0.4 0.1,0 0.2,0.1 0.3,0.1 0.1,0 0.2,0.1 0.3,0.1 0.1,0.1 0.3,0.1 0.4,0.2 0.1,0.1 0.2,0.1 0.3,0.2 0.1,0.1 0.1,0.1 0.2,0.2 0,0.1 0.1,0.2 0.1,0.3 0.1,0.1 0.1,0.3 0.2,0.4 0,0.1 0.1,0.3 0.1,0.4 0.1,0.2 0.1,0.3 0.2,0.6 0.1,0.2 0.2,0.5 0.3,0.8 0.1,-0.1 0.3,-0.3 0.3,-0.4 0.1,-0.1 0.2,-0.3 0.2,-0.4 0.1,-0.2 0.2,-0.4 0.2,-0.6 0.1,-0.2 0.1,-0.4 0.1,-0.7 l -0.8,-0.4 z m 7.9,-0.7 c 0.2,0 0.4,0 0.5,0.1 0.2,0 0.3,0.1 0.5,0.2 0.1,0.1 0.2,0.3 0.3,0.4 0.1,0.2 0.1,0.4 0.1,0.7 0,0.1 0,0.1 0,0.2 0,0.1 0,0.1 0,0.2 0,0.1 0,0.2 0,0.3 0,0.1 0,0.2 0,0.4 0,0.3 -0.1,0.5 -0.2,0.8 -0.1,0.2 -0.2,0.4 -0.4,0.6 -0.2,0.2 -0.4,0.3 -0.6,0.4 -0.2,0.1 -0.5,0.1 -0.8,0.1 -0.3,0 -0.5,0 -0.8,-0.1 -0.2,-0.1 -0.4,-0.2 -0.6,-0.4 -0.2,-0.2 -0.3,-0.4 -0.4,-0.6 -0.1,-0.2 -0.2,-0.5 -0.2,-0.8 0,0 0,-0.1 0,-0.1 0,0 0,-0.1 0,-0.1 0,-0.1 0,-0.3 0,-0.4 0,-0.1 0,-0.3 0.1,-0.4 0,-0.1 0.1,-0.2 0.1,-0.3 0,-0.1 0.1,-0.2 0.2,-0.3 -0.1,0 -0.2,0 -0.4,-0.1 -0.1,0 -0.3,-0.1 -0.4,-0.1 0,-0.2 0.1,-0.3 0.1,-0.4 0,-0.1 0.1,-0.3 0.1,-0.4 0.1,0 0.2,0.1 0.3,0.1 0.1,0 0.2,0 0.3,0.1 0.1,0 0.2,0 0.3,0 0.1,0 0.2,0 0.3,0 l 0.1,0 1.5,0 z m -1.1,0.9 c 0,0.1 -0.1,0.2 -0.1,0.2 0,0.1 -0.1,0.1 -0.1,0.2 0,0.1 -0.1,0.3 -0.1,0.4 0,0.2 0,0.3 0,0.5 0,0.1 0,0.2 0,0.2 0,0.1 0,0.2 0,0.2 0,0.1 0.1,0.3 0.1,0.4 0,0.1 0.1,0.2 0.2,0.3 0.1,0.1 0.2,0.1 0.3,0.2 0.1,0 0.2,0.1 0.3,0.1 0.1,0 0.2,0 0.3,-0.1 0.1,0 0.2,-0.1 0.3,-0.2 0.1,-0.1 0.1,-0.2 0.2,-0.3 0.1,-0.1 0.1,-0.2 0.1,-0.4 0,-0.1 0,-0.1 0,-0.2 0,-0.1 0,-0.2 0,-0.2 0,-0.1 0,-0.2 0,-0.3 0,-0.1 0,-0.2 0,-0.3 0,-0.2 0,-0.3 0,-0.4 0,-0.1 0,-0.2 -0.1,-0.3 0,-0.1 -0.1,-0.1 -0.2,-0.1 -0.1,0 -0.2,0 -0.4,0 l -0.8,0 z m 4.6,-2.1 0,1.2 2.4,0 c 0,0.1 0,0.1 0,0.2 0,0 0,0.1 0,0.1 0,0.1 0,0.1 0,0.2 0,0.1 0,0.1 0,0.2 l 0,0.9 c 0,0.3 -0.1,0.6 -0.2,0.9 -0.1,0.3 -0.3,0.6 -0.6,0.9 l -1.1,1.2 -0.8,-0.7 0.5,-0.5 c 0.2,-0.2 0.4,-0.4 0.5,-0.6 0.1,-0.2 0.2,-0.3 0.3,-0.4 0.1,-0.1 0.1,-0.2 0.2,-0.3 0,-0.1 0.1,-0.2 0.1,-0.4 l 0,-0.8 -2.4,0 0,-2.1 1.1,0 z m 4.5,0.9 c 0.3,0.1 0.5,0.1 0.7,0.2 0.2,0.1 0.4,0.1 0.6,0.1 0.2,0 0.3,0.1 0.5,0.1 0.1,0 0.3,0.1 0.4,0.1 0.1,0.1 0.3,0.1 0.4,0.2 0.1,0.1 0.2,0.2 0.2,0.3 0.1,0.1 0.1,0.2 0.1,0.3 0,0.1 0,0.3 0,0.4 l 0,1.7 c 0,0.1 0,0.1 0,0.2 0,0.1 0,0.1 0,0.2 0,0.1 0,0.2 -0.1,0.3 0,0.1 -0.1,0.3 -0.1,0.4 l -3.8,0 0,-0.7 2.9,0 0,-1.7 c 0,-0.1 0,-0.2 0,-0.3 0,-0.1 0,-0.1 0,-0.2 0,0 -0.1,-0.1 -0.1,-0.1 0,0 -0.1,-0.1 -0.2,-0.1 -0.1,0 -0.2,-0.1 -0.4,-0.1 -0.1,0 -0.3,-0.1 -0.5,-0.1 l -0.4,0.8 0.6,0.3 -0.5,0.8 -1.3,-0.8 1,-2.3 z m 3.9,0.6 c 0.1,-0.1 0.3,-0.2 0.4,-0.3 0.1,-0.1 0.3,-0.2 0.5,-0.3 0.1,0.1 0.1,0.2 0.2,0.2 0,0.1 0.1,0.1 0.1,0.2 0,0.1 0.1,0.1 0.1,0.2 0,0.1 0.1,0.1 0.1,0.2 0.2,-0.2 0.5,-0.4 0.7,-0.5 0.3,-0.1 0.5,-0.2 0.8,-0.2 0.2,0 0.3,0 0.5,0.1 0.2,0.1 0.3,0.1 0.4,0.2 0.1,0.1 0.2,0.2 0.3,0.4 0.1,0.1 0.2,0.3 0.2,0.5 0,0.2 0,0.3 0.1,0.5 0,0.2 0,0.4 0,0.6 0,0.1 0,0.2 0,0.3 0,0.1 0,0.3 0,0.4 0,0.2 0,0.4 0,0.6 0,0.2 0,0.3 0,0.4 0,0.1 0,0.1 0,0.2 0,0.1 0,0.1 0,0.2 l -2.2,0 0,-0.7 1.1,0 c 0,0 0,0 0,-0.1 0,0 0,-0.1 0,-0.2 0,-0.1 0,-0.2 0,-0.3 0,-0.1 0,-0.3 0,-0.5 0,-0.1 0,-0.1 0,-0.2 0,-0.1 0,-0.2 0,-0.3 0,-0.1 0,-0.2 0,-0.3 0,-0.1 0,-0.1 0,-0.2 0,-0.2 -0.1,-0.4 -0.2,-0.5 -0.1,-0.1 -0.3,-0.1 -0.4,-0.1 -0.1,0 -0.2,0 -0.3,0.1 -0.1,0 -0.2,0.1 -0.3,0.2 -0.1,0 -0.1,0.1 -0.2,0.1 -0.1,0.1 -0.1,0.1 -0.2,0.2 0,0.3 -0.1,0.6 -0.1,0.8 0,0.2 -0.1,0.4 -0.1,0.6 0,0.2 0,0.3 -0.1,0.4 0,0.1 0,0.3 -0.1,0.4 0,0.1 0,0.2 -0.1,0.4 0,0.1 0,0.3 -0.1,0.5 l -1.1,0 0.1,-0.7 c 0,-0.2 0.1,-0.4 0.1,-0.5 0,-0.2 0.1,-0.3 0.1,-0.5 0,-0.2 0.1,-0.3 0.1,-0.5 0,-0.2 0.1,-0.3 0.1,-0.5 0,-0.1 0,-0.1 0,-0.1 0,0 0,-0.1 0,-0.1 0,-0.1 0,-0.1 0,-0.2 0,-0.1 0,-0.1 -0.1,-0.2 0,-0.1 0,-0.1 -0.1,-0.2 0,-0.1 -0.1,-0.1 -0.1,-0.2 l -0.2,-0.5 z"
       id="path461" />
    <path
       style="fill:#141132"
       d="m 558.87623,325.76645 0,11.4 -2.3,0 0,-9.6 -1.7,0 0,-1.8 4,0 z m 6,0 0,8.8 -2.3,0 0,-7 -1.5,0 0,-1.8 3.8,0 z m 8.2,0 c 0.4,0 0.7,0 1,0.1 0.3,0.1 0.7,0.2 0.9,0.4 0.3,0.2 0.5,0.5 0.7,0.9 0.2,0.4 0.3,0.9 0.3,1.5 l 0,5.8 -2.3,0 0,-5.3 c 0,-0.3 0,-0.6 0,-0.9 0,-0.2 -0.1,-0.4 -0.2,-0.5 -0.1,-0.1 -0.3,-0.2 -0.5,-0.3 -0.2,0 -0.5,-0.1 -0.8,-0.1 l -1.3,0 c -0.2,0.4 -0.3,0.8 -0.4,1.2 -0.1,0.4 -0.1,0.9 -0.1,1.3 0,0.2 0,0.5 0,0.7 0,0.2 0,0.4 0.1,0.6 0,0.2 0.1,0.4 0.1,0.6 0,0.2 0.1,0.4 0.2,0.6 l 0.2,0.5 c 0,0.2 0,0.5 -0.1,0.7 0,0.2 -0.1,0.4 -0.1,0.6 l -4.1,0 0,-1.8 1.9,0 c -0.1,-0.4 -0.3,-0.8 -0.3,-1.2 -0.1,-0.4 -0.1,-0.8 -0.1,-1.2 0,-0.3 0,-0.6 0.1,-0.9 0,-0.3 0.1,-0.6 0.2,-0.9 0,-0.1 0.1,-0.3 0.1,-0.4 0,-0.1 0.1,-0.3 0.2,-0.4 -0.2,0 -0.5,-0.1 -0.7,-0.1 -0.2,-0.1 -0.5,-0.1 -0.8,-0.2 0.1,-0.3 0.2,-0.6 0.3,-0.9 0.1,-0.3 0.2,-0.6 0.3,-0.9 0.3,0.1 0.5,0.1 0.7,0.2 0.2,0 0.4,0.1 0.6,0.1 0.2,0 0.4,0 0.6,0 0.2,0 0.5,0 0.8,0 l 2.5,0 z m 10.7,0 c 0.4,0 0.7,0 1,0.1 0.3,0.1 0.7,0.2 0.9,0.4 0.3,0.2 0.5,0.5 0.7,0.9 0.2,0.4 0.3,0.9 0.3,1.5 l 0,5.8 -2.3,0 0,-5.3 c 0,-0.3 0,-0.6 0,-0.9 0,-0.2 -0.1,-0.4 -0.2,-0.5 -0.1,-0.1 -0.3,-0.2 -0.5,-0.3 -0.2,0 -0.5,-0.1 -0.8,-0.1 l -1.7,0 c -0.1,0.4 -0.1,0.7 -0.2,1.1 0,0.3 0,0.7 0,1 l 0,4.9 -2.3,0 0,-4.8 c 0,-0.3 0,-0.7 0.1,-1.1 0,-0.4 0.1,-0.7 0.2,-1.1 -0.2,0 -0.4,-0.1 -0.6,-0.1 -0.2,-0.1 -0.4,-0.1 -0.7,-0.2 0.1,-0.3 0.2,-0.6 0.3,-0.9 0.1,-0.3 0.2,-0.6 0.3,-0.9 0.3,0.1 0.5,0.1 0.7,0.2 0.2,0 0.4,0.1 0.6,0.1 0.2,0 0.4,0 0.6,0 0.2,0 0.5,0 0.8,0 l 2.8,0 z m 11,0 c 0.4,0 0.7,0 1,0.1 0.3,0.1 0.7,0.2 0.9,0.4 0.3,0.2 0.5,0.5 0.7,0.9 0.2,0.4 0.3,0.9 0.3,1.5 l 0,5.8 -2.3,0 0,-5.3 c 0,-0.3 0,-0.6 0,-0.9 0,-0.2 -0.1,-0.4 -0.2,-0.5 -0.1,-0.1 -0.3,-0.2 -0.5,-0.3 -0.2,0 -0.5,-0.1 -0.8,-0.1 l -1.3,0 c -0.2,0.4 -0.3,0.8 -0.4,1.2 -0.1,0.4 -0.1,0.9 -0.1,1.3 0,0.2 0,0.5 0,0.7 0,0.2 0,0.4 0.1,0.6 0,0.2 0.1,0.4 0.1,0.6 0,0.2 0.1,0.4 0.2,0.6 l 0.2,0.5 c 0,0.2 0,0.5 -0.1,0.7 0,0.2 -0.1,0.4 -0.1,0.6 l -4.1,0 0,-1.8 1.9,0 c -0.1,-0.4 -0.3,-0.8 -0.3,-1.2 -0.1,-0.4 -0.1,-0.8 -0.1,-1.2 0,-0.3 0,-0.6 0.1,-0.9 0,-0.3 0.1,-0.6 0.2,-0.9 0,-0.1 0.1,-0.3 0.1,-0.4 0,-0.1 0.1,-0.3 0.2,-0.4 -0.2,0 -0.5,-0.1 -0.7,-0.1 -0.2,-0.1 -0.5,-0.1 -0.8,-0.2 0.1,-0.3 0.2,-0.6 0.3,-0.9 0.1,-0.3 0.2,-0.6 0.3,-0.9 0.3,0.1 0.5,0.1 0.7,0.2 0.2,0 0.4,0.1 0.6,0.1 0.2,0 0.4,0 0.6,0 0.2,0 0.5,0 0.8,0 l 2.5,0 z m 15.2,0 c 0.4,0 0.7,0 1,0.1 0.3,0.1 0.6,0.2 0.9,0.5 0.3,0.2 0.5,0.5 0.6,0.9 0.2,0.4 0.2,0.9 0.3,1.5 0,0.1 0,0.2 0,0.4 0,0.1 0,0.3 0,0.4 0,0.2 0,0.3 0,0.5 0,0.2 0,0.4 0,0.7 0,0.6 -0.1,1.1 -0.3,1.6 -0.2,0.5 -0.5,0.9 -0.8,1.2 -0.4,0.4 -0.8,0.6 -1.3,0.8 -0.5,0.2 -1,0.3 -1.6,0.3 -0.6,0 -1.1,-0.1 -1.6,-0.3 -0.5,-0.2 -0.9,-0.5 -1.2,-0.8 -0.4,-0.4 -0.6,-0.8 -0.8,-1.2 -0.2,-0.5 -0.3,-1 -0.3,-1.6 0,-0.1 0,-0.1 0,-0.2 0,-0.1 0,-0.1 0,-0.2 0,-0.3 0,-0.5 0,-0.8 0,-0.3 0.1,-0.6 0.2,-0.9 0.1,-0.2 0.1,-0.4 0.2,-0.6 0.1,-0.2 0.2,-0.4 0.3,-0.6 -0.2,0 -0.5,-0.1 -0.7,-0.1 -0.2,-0.1 -0.5,-0.1 -0.8,-0.3 0.1,-0.3 0.2,-0.6 0.3,-0.9 0.1,-0.3 0.2,-0.6 0.3,-0.9 0.3,0.1 0.5,0.1 0.7,0.2 0.2,0 0.4,0.1 0.5,0.1 0.2,0 0.4,0 0.5,0.1 0.2,0 0.4,0 0.6,0 l 0.3,0 2.7,0 z m -2.3,1.8 c -0.1,0.2 -0.2,0.3 -0.2,0.4 -0.1,0.1 -0.1,0.3 -0.2,0.4 -0.1,0.3 -0.1,0.6 -0.2,0.9 0,0.3 -0.1,0.6 -0.1,0.9 0,0.2 0,0.3 0,0.5 0,0.2 0,0.3 0,0.4 0,0.3 0.1,0.5 0.2,0.7 0.1,0.2 0.2,0.4 0.4,0.5 0.1,0.2 0.3,0.3 0.5,0.4 0.2,0.1 0.4,0.1 0.6,0.1 0.2,0 0.5,0 0.7,-0.1 0.2,-0.1 0.4,-0.2 0.5,-0.4 0.2,-0.2 0.3,-0.3 0.4,-0.5 0.1,-0.2 0.2,-0.4 0.2,-0.7 0,-0.1 0,-0.3 0,-0.4 0,-0.1 0,-0.3 0,-0.5 0,-0.2 0,-0.4 0,-0.5 0,-0.2 0,-0.3 0,-0.5 0,-0.3 -0.1,-0.6 -0.1,-0.9 0,-0.2 -0.1,-0.4 -0.2,-0.5 -0.1,-0.1 -0.2,-0.2 -0.4,-0.3 -0.2,0 -0.5,-0.1 -0.8,-0.1 l -1.3,0 z m 9.2,-4.3 0,2.5 4.8,0 c 0,0.1 0.1,0.2 0.1,0.3 0,0.1 0,0.2 0.1,0.3 0,0.1 0,0.3 0.1,0.4 0,0.1 0,0.3 0,0.4 l 0,1.8 c 0,0.7 -0.1,1.3 -0.4,1.9 -0.3,0.6 -0.7,1.2 -1.2,1.8 l -2.2,2.4 -1.6,-1.4 1,-1.1 c 0.4,-0.5 0.7,-0.8 1,-1.1 0.3,-0.3 0.5,-0.6 0.7,-0.8 0.2,-0.2 0.3,-0.5 0.4,-0.7 0.1,-0.2 0.1,-0.5 0.1,-0.8 l 0,-1.6 -5,0 0,-4.3 2.1,0 z m 9,1.9 c 0.5,0.1 1,0.2 1.4,0.3 0.4,0.1 0.8,0.2 1.1,0.3 0.3,0.1 0.6,0.2 0.9,0.3 0.3,0.1 0.6,0.2 0.8,0.3 0.3,0.1 0.5,0.2 0.7,0.4 0.2,0.2 0.3,0.3 0.5,0.5 0.1,0.2 0.2,0.4 0.2,0.7 0,0.3 0.1,0.5 0.1,0.8 l 0,3.4 c 0,0.1 0,0.3 0,0.4 0,0.1 0,0.3 0,0.4 0,0.2 -0.1,0.4 -0.1,0.6 -0.1,0.2 -0.1,0.5 -0.2,0.9 l -7.6,0 0,-1.8 5.8,0 0,-3.5 c 0,-0.2 0,-0.4 0,-0.5 0,-0.1 0,-0.3 -0.1,-0.4 -0.1,-0.1 -0.1,-0.2 -0.2,-0.3 -0.1,-0.1 -0.2,-0.1 -0.4,-0.2 -0.2,-0.1 -0.5,-0.2 -0.7,-0.2 -0.3,-0.1 -0.6,-0.2 -0.9,-0.3 l -0.8,1.6 1.1,0.7 -1,1.7 -2.7,-1.6 2.1,-4.5 z m 7.7,1.2 c 0.3,-0.2 0.6,-0.4 0.9,-0.6 0.3,-0.2 0.6,-0.4 0.9,-0.5 0.1,0.2 0.3,0.3 0.3,0.5 0.1,0.1 0.2,0.3 0.3,0.4 0.1,0.1 0.1,0.2 0.2,0.4 0.1,0.1 0.1,0.2 0.2,0.4 0.5,-0.5 1,-0.8 1.5,-1.1 0.5,-0.2 1,-0.3 1.5,-0.3 0.4,0 0.7,0.1 1,0.2 0.3,0.1 0.6,0.3 0.9,0.5 0.3,0.2 0.5,0.5 0.7,0.7 0.2,0.3 0.3,0.6 0.4,1 0.1,0.3 0.1,0.6 0.1,1 0,0.4 0,0.8 0,1.3 0,0.2 0,0.4 0,0.7 0,0.2 0,0.5 0,0.9 0,0.4 0,0.8 0,1.1 0,0.4 0,0.6 0,0.9 0,0.1 0,0.3 0,0.4 0,0.1 0,0.3 -0.1,0.4 l -4.4,0 0,-1.8 2.3,0 c 0,0 0,-0.1 0,-0.2 0,-0.1 0,-0.2 0,-0.4 0,-0.2 0,-0.4 0,-0.7 0,-0.3 0,-0.6 0,-1 0,-0.1 0,-0.3 0,-0.4 0,-0.2 0,-0.3 0,-0.5 0,-0.2 0,-0.4 0,-0.5 0,-0.2 0,-0.3 0,-0.4 -0.1,-0.5 -0.2,-0.8 -0.4,-1 -0.2,-0.2 -0.5,-0.3 -0.9,-0.3 -0.2,0 -0.4,0 -0.6,0.1 -0.2,0.1 -0.4,0.2 -0.7,0.4 -0.1,0.1 -0.3,0.2 -0.4,0.3 -0.1,0.1 -0.2,0.2 -0.4,0.4 -0.1,0.6 -0.2,1.2 -0.2,1.6 -0.1,0.5 -0.1,0.8 -0.2,1.2 -0.1,0.3 -0.1,0.6 -0.1,0.9 0,0.3 -0.1,0.5 -0.1,0.8 0,0.2 -0.1,0.5 -0.1,0.8 0,0.3 -0.1,0.6 -0.1,0.9 l -2.3,0 0.2,-1.5 c 0.1,-0.4 0.1,-0.7 0.2,-1 0.1,-0.3 0.1,-0.6 0.2,-1 0.1,-0.3 0.1,-0.6 0.2,-1 0.1,-0.3 0.1,-0.7 0.2,-1 0,-0.1 0,-0.2 0,-0.3 0,-0.1 0,-0.2 0,-0.2 0,-0.2 0,-0.3 0,-0.4 0,-0.1 -0.1,-0.2 -0.1,-0.4 0,-0.1 -0.1,-0.2 -0.2,-0.4 -0.1,-0.1 -0.1,-0.3 -0.2,-0.4 l -0.7,-0.9 z"
       id="path491" />
    <path
       style="fill:#141132"
       d="m 615.07623,347.26645 c -0.2,0 -0.4,0 -0.5,0 -0.2,0 -0.3,0 -0.4,0 -0.1,0 -0.3,0 -0.4,-0.1 -0.1,0 -0.3,-0.1 -0.5,-0.2 0.1,-0.2 0.1,-0.3 0.2,-0.5 0.1,-0.2 0.1,-0.3 0.2,-0.5 0.2,0.1 0.3,0.1 0.5,0.1 0.1,0 0.3,0.1 0.4,0.1 0.1,0 0.3,0 0.4,0 0.1,0 0.3,0 0.5,0 l 1.3,0 c 0.3,0 0.5,0 0.8,0.1 0.3,0.1 0.5,0.2 0.7,0.4 0.2,0.2 0.4,0.4 0.5,0.7 0.1,0.3 0.2,0.7 0.2,1.2 l 0,4.5 -1.1,0 0,-4.4 c 0,-0.3 0,-0.5 -0.1,-0.7 0,-0.2 -0.1,-0.3 -0.2,-0.4 -0.1,-0.1 -0.2,-0.2 -0.4,-0.2 -0.2,0 -0.4,-0.1 -0.7,-0.1 l -1.4,0 z m -1.8,3.8 c 0,-0.2 0,-0.4 0,-0.5 0,-0.1 0,-0.3 0,-0.4 0,-0.1 0,-0.3 0.1,-0.4 0,-0.1 0.1,-0.3 0.1,-0.5 0.2,0 0.4,0.1 0.6,0.1 0.2,0 0.4,0.1 0.6,0.1 0,0.2 0,0.3 -0.1,0.4 0,0.1 0,0.2 0,0.4 0,0.1 0,0.3 0,0.4 0,0.1 0,0.3 0,0.5 l 0,2 -1.1,0 0,-2.1 z m 10.9,-4.8 c 0.4,0 0.7,0 1,0.1 0.3,0.1 0.5,0.3 0.7,0.5 0.1,0.1 0.2,0.3 0.3,0.5 0.1,0.2 0.1,0.4 0.2,0.6 0,0.2 0.1,0.5 0.1,0.7 0,0.2 0,0.5 0,0.7 0,0.3 0,0.7 -0.1,1 -0.1,0.4 -0.2,0.8 -0.3,1.2 -0.1,0.4 -0.3,0.6 -0.6,0.9 -0.2,0.2 -0.5,0.4 -0.8,0.5 -0.3,0.1 -0.7,0.2 -1.1,0.2 -0.5,0 -0.9,-0.1 -1.3,-0.3 -0.4,-0.2 -0.7,-0.4 -0.9,-0.7 -0.2,-0.3 -0.4,-0.6 -0.5,-1 -0.1,-0.4 -0.2,-0.8 -0.2,-1.3 0,-0.3 0,-0.5 0,-0.8 0,-0.3 0.1,-0.6 0.2,-0.9 0.1,-0.2 0.1,-0.4 0.2,-0.5 0.1,-0.2 0.2,-0.3 0.3,-0.5 -0.2,0 -0.4,0 -0.6,-0.1 -0.2,0 -0.4,-0.1 -0.6,-0.2 0.1,-0.2 0.1,-0.3 0.2,-0.5 0.1,-0.2 0.1,-0.3 0.2,-0.5 0.2,0.1 0.3,0.1 0.5,0.1 0.1,0 0.3,0.1 0.4,0.1 0.1,0 0.3,0 0.4,0 0.1,0 0.3,0 0.5,0 l 1.8,0 z m -1.6,1 c -0.2,0.3 -0.3,0.6 -0.4,0.9 -0.1,0.3 -0.2,0.7 -0.2,1 0,0.1 0,0.3 0,0.4 0,0.1 0,0.3 0,0.4 0,0.3 0,0.6 0.1,0.8 0,0.3 0.1,0.5 0.3,0.7 0.1,0.2 0.3,0.4 0.6,0.5 0.2,0.1 0.5,0.2 0.8,0.2 0.2,0 0.4,0 0.6,-0.1 0.2,-0.1 0.4,-0.2 0.5,-0.3 0.1,-0.1 0.3,-0.3 0.4,-0.5 0.1,-0.2 0.2,-0.4 0.2,-0.7 0,-0.2 0,-0.4 0.1,-0.5 0,-0.2 0,-0.3 0,-0.5 0,-0.2 0,-0.5 0,-0.7 0,-0.2 0,-0.4 -0.1,-0.6 0,-0.2 -0.1,-0.3 -0.1,-0.5 -0.1,-0.1 -0.1,-0.2 -0.2,-0.3 -0.1,-0.1 -0.2,-0.1 -0.4,-0.2 -0.2,0 -0.3,0 -0.6,0 l -1.6,0 z m 8,-1 0,2.1 c 0,0.2 0,0.4 0,0.6 0,0.2 0,0.3 0,0.4 0,0.1 0,0.3 -0.1,0.4 0,0.1 -0.1,0.3 -0.1,0.4 l -1.1,-0.2 c 0,-0.1 0,-0.3 0.1,-0.4 0,-0.1 0,-0.2 0,-0.3 0,-0.1 0,-0.3 0,-0.4 0,-0.2 0,-0.3 0,-0.6 l 0,-1.1 -1.4,0 0,-1 2.6,0 z m 4.8,0 0,0.2 c 0,0.1 0,0.4 0.1,0.6 0,0.3 0.1,0.6 0.1,0.9 0,0.3 0.1,0.7 0.1,1.1 0,0.4 0.1,0.8 0.1,1.2 0,0.4 0.1,0.9 0.1,1.3 0,0.2 0,0.4 0,0.5 0,0.1 0,0.2 0,0.3 0,0.1 0,0.2 0,0.3 0,0.1 0,0.2 0,0.4 l -3.9,0 0,-1 2.8,0 -0.5,-4.8 -1.6,0 0,-1 2.7,0 z m 4.2,1 c -0.2,0 -0.4,0 -0.5,0 -0.2,0 -0.3,0 -0.4,0 -0.1,0 -0.3,0 -0.4,-0.1 -0.1,0 -0.3,-0.1 -0.5,-0.2 0.1,-0.2 0.1,-0.3 0.2,-0.5 0.1,-0.2 0.1,-0.3 0.2,-0.5 0.2,0.1 0.3,0.1 0.5,0.1 0.1,0 0.3,0.1 0.4,0.1 0.1,0 0.3,0 0.4,0 0.1,0 0.3,0 0.5,0 l 0.4,0 c 0.3,0 0.5,0 0.8,0.1 0.3,0.1 0.5,0.2 0.7,0.4 0.2,0.2 0.4,0.4 0.5,0.7 0.1,0.3 0.2,0.7 0.2,1.1 0,0.2 0,0.5 0,0.7 0,0.2 0,0.5 0,0.8 0,0.3 0,0.5 0,0.8 0,0.3 0,0.6 0,0.9 0,0.1 0,0.2 0,0.3 0,0.1 0,0.2 0,0.3 0,0.1 0,0.2 -0.1,0.3 0,0.1 -0.1,0.3 -0.1,0.4 l -5,0 0,-1 4.1,0 c 0,-0.5 0,-1.1 0,-1.7 0,-0.6 0,-1.1 0,-1.7 0,-0.3 0,-0.5 -0.1,-0.7 0,-0.2 -0.1,-0.3 -0.2,-0.4 -0.1,-0.1 -0.2,-0.2 -0.4,-0.2 -0.2,0 -0.4,-0.1 -0.7,-0.1 l -0.5,0 z"
       id="path493" />
  </g>
</svg>
