<svg width="343" height="70.8" viewBox="0 0 90.752 18.732" xmlns="http://www.w3.org/2000/svg">
    <path style="fill:#a22442" d="M2248.4 471.1h143v37.7h-143z" transform="translate(-541.972 -123.507) scale(.26458)"/>
    <path d="M2270.6 483.4c1 .9 1.5 2.3 1.5 4.1v9.1h-3.8v-9.4c0-.8-.2-1.3-.5-1.7-.3-.4-.8-.6-1.5-.6h-1.9c-.1.4-.2.9-.3 1.5-.1.6-.1 1-.1 1.5v4.2c0 1-.2 1.8-.5 2.5-.4.7-.9 1.2-1.5 1.6-.7.4-1.5.6-2.4.6-.6 0-1.2-.1-1.9-.2v-3h.8c1.2 0 1.8-.6 1.8-1.9v-3.6c0-.5.1-1.1.2-1.8.1-.6.3-1.2.6-1.6h-2.3v-3h7.4c2 .3 3.4.7 4.4 1.7zm5.3 1.6h-1.3v-3h5.1v14.6h-3.8zm8 11.8c-.4-.1-.9-.1-1.5-.3v-2.9c.5.1 1.1.1 1.8.1.6 0 1-.2 1.3-.5.3-.3.4-.8.4-1.4V485h-2.6v-3h6.4v10.2c0 1-.2 1.8-.5 2.5-.4.7-.9 1.2-1.5 1.6-.7.4-1.5.6-2.4.6-.5 0-.9-.1-1.4-.1zm14.8-9.9c0-.7-.2-1.1-.5-1.5-.4-.3-.9-.5-1.6-.5h-4.4v-3h4.7c1.2 0 2.2.2 3.1.6.9.4 1.5 1 2 1.8s.7 1.7.7 2.8v9.5h-3.8v-9.7zm12.8 6.8c1 0 1.8-.4 2.4-.9.6-.6.8-1.4.8-2.5V485h-8.5v-3h12.3v8.2c0 1.3-.3 2.5-.8 3.4-.6 1-1.4 1.7-2.4 2.2-1.1.5-2.3.8-3.8.8zm-5.2-2.2c0-1.4.3-2.5.9-3.1h3.1c-.2.7-.2 1.6-.2 2.7v10.6h-3.7v-10.2zm15.9.1c0-1.4.3-2.5.9-3.1h3.1c-.2.7-.2 1.6-.2 2.7v5.4h-3.7v-5zm8.4-4.4c0-.7-.2-1.3-.6-1.7-.4-.4-1-.5-1.8-.5h-6v-3h6.3c1.2 0 2.3.2 3.2.6.9.4 1.6 1 2 1.8.5.8.7 1.8.7 2.9v9.3h-3.8zm18.7-.3c0-.7-.2-1.1-.5-1.5-.4-.3-.9-.5-1.6-.5h-4.4v-3h4.7c1.2 0 2.2.2 3.1.6.9.4 1.5 1 2 1.8s.7 1.7.7 2.8v9.5h-3.8v-9.7zm18.8-4.9v3h-2.6v11.7h-3.8V485h-6.2v-3zm2.8 0h6.4c1.9 0 3.4.5 4.3 1.4 1 .9 1.5 2.3 1.5 4.1v9.1h-3.8v-9.4c0-1.5-.7-2.2-2-2.2h-2.6v11.7h-3.8z" style="fill:#fffffd" transform="translate(-541.972 -123.507) scale(.26458)"/>
    <path d="M2243.1 490c0 12.7-23.2 47.6-23.2 47.6s-23.2-34.9-23.2-47.6c0-12.7 10.4-23.2 23.2-23.2 12.9.2 23.2 10.5 23.2 23.2" style="fill:#a22442" transform="translate(-541.972 -123.507) scale(.26458)"/>
</svg>
