<svg width="61.6" height="94.502" viewBox="0 0 16.298 25.003" xmlns="http://www.w3.org/2000/svg">
    <path d="M1636.5 969.2c0 16.9-30.8 63.7-30.8 63.7s-30.8-46.8-30.8-63.7c0-16.9 13.9-30.8 30.8-30.8 16.9-.2 30.8 13.9 30.8 30.8" style="fill:#0b8e36;fill-opacity:1" transform="translate(-416.687 -248.281) scale(.26458)"/>
    <path d="M1621.9 990.8v-23.3c0-2.4-1.9-4.3-4.2-4.3h-23.4c-2.5 0-4.2 1.9-4.2 4.3v23.3c0 2.4 1.9 4.2 4.3 4.2h23.4c2.2 0 4.1-1.7 4.1-4.2zm-5.4 1.6h-21.2c-1.5 0-2.8-1.2-2.8-2.8v-21c0-1.5 1.2-2.8 2.8-2.8h21.2c1.5 0 2.8 1.2 2.8 2.8v21c0 1.6-1.2 2.8-2.8 2.8zm-4.8-47.2c0-3 4.4-3.1 4.4 0l-.1 9.3 2.4-2.9c1.6-1.8 4.5.7 2.7 2.7l-5.8 6.8c-.9.9-2.1.9-3 0l-5.7-6.9c-1.8-2 1.1-4.6 2.7-2.7l2.3 2.9zm-16 14.3c0 3 4.4 3.1 4.4 0l-.1-9.3 2.4 2.9c1.6 1.8 4.5-.7 2.7-2.7l-5.8-6.8c-.9-.9-2.1-.9-3 0l-5.7 6.9c-1.8 2 1.1 4.6 2.7 2.7l2.3-2.9z" style="fill:#ffc" transform="translate(-416.687 -248.281) scale(.26458)"/>
    <path d="M1616.4 980.8c0 .5-.4.8-.8.8h-5.2c-.4 0-.8-.3-.8-.8v-5.6c0-.6.5-1.1 1.1-1.1h4.6c.6 0 1.1.5 1.1 1.1z" style="fill:#ffc" transform="translate(-416.687 -248.281) scale(.26458)"/>
    <path d="M1615.1 981.4h-2v7.6c0 1.3 2 1.3 2 0zm-2.2 0h-2v7.6c0 1.3 2 1.3 2 0z" style="fill:#ffc" transform="translate(-416.687 -248.281) scale(.26458)"/>
    <circle cx="1613" cy="972.2" r="1.5" style="fill:#ffc" transform="translate(-416.687 -248.281) scale(.26458)"/>
    <path d="M1609.3 980.8c0 .5-.4.8-.8.8h-5.2c-.4 0-.8-.3-.8-.8v-5.6c0-.6.5-1.1 1.1-1.1h4.6c.6 0 1.1.5 1.1 1.1z" style="fill:#ffc" transform="translate(-416.687 -248.281) scale(.26458)"/>
    <path d="M1608.1 981.4h-2v7.6c0 1.3 2 1.3 2 0zm-2.3 0h-2v7.6c0 1.3 2 1.3 2 0z" style="fill:#ffc" transform="translate(-416.687 -248.281) scale(.26458)"/>
    <circle cx="1606" cy="972.2" r="1.5" style="fill:#ffc" transform="translate(-416.687 -248.281) scale(.26458)"/>
    <path d="M1602.3 980.8c0 .5-.4.8-.8.8h-5.2c-.4 0-.8-.3-.8-.8v-5.6c0-.6.5-1.1 1.1-1.1h4.6c.6 0 1.1.5 1.1 1.1z" style="fill:#ffc" transform="translate(-416.687 -248.281) scale(.26458)"/>
    <path d="M1601 981.4h-2v7.6c0 1.3 2 1.3 2 0zm-2.3 0h-2v7.6c0 1.3 2 1.3 2 0z" style="fill:#ffc" transform="translate(-416.687 -248.281) scale(.26458)"/>
    <circle cx="1598.9" cy="972.2" r="1.5" style="fill:#ffc" transform="translate(-416.687 -248.281) scale(.26458)"/>
</svg>
