<?xml version="1.0" encoding="UTF-8" standalone="no"?>
<svg
   xmlns:dc="http://purl.org/dc/elements/1.1/"
   xmlns:cc="http://creativecommons.org/ns#"
   xmlns:rdf="http://www.w3.org/1999/02/22-rdf-syntax-ns#"
   xmlns:svg="http://www.w3.org/2000/svg"
   xmlns="http://www.w3.org/2000/svg"
   id="svg7765"
   version="1.1"
   viewBox="0 0 56.276873 36.065371"
   height="136.31006"
   width="212.7">
  <defs
     id="defs7759" />
  <metadata
     id="metadata7762">
    <rdf:RDF>
      <cc:Work
         rdf:about="">
        <dc:format>image/svg+xml</dc:format>
        <dc:type
           rdf:resource="http://purl.org/dc/dcmitype/StillImage" />
        <dc:title></dc:title>
      </cc:Work>
    </rdf:RDF>
  </metadata>
  <g
     transform="translate(-71.307284,-118.70541)"
     id="layer1">
    <g
       id="g4981"
       transform="matrix(0.26458333,0,0,0.26458333,-686.03868,-152.93963)">
      <path
         id="path487"
         class="cls-4"
         d="m 2996,1107 c 0,15 -27.24,56 -27.24,56 0,0 -27.24,-41.07 -27.24,-56 a 27.24,27.24 0 0 1 54.48,0"
         style="fill:#2ca5e8;fill-opacity:1" />
      <path
         id="path489"
         class="cls-9"
         d="m 2968.72,1120.57 a 14,14 0 1 1 14,-14 14,14 0 0 1 -14,14 m 0,-30.94 a 17.11,17.11 0 1 0 17.11,17.11 17.16,17.16 0 0 0 -17.11,-17.11 m 0,15 a 2.3,2.3 0 0 0 -2.14,2.14 v 6.23 a 2.14,2.14 0 0 0 4.28,0 v -6.28 a 2.2,2.2 0 0 0 -2.14,-2.14 m 0,-6.27 a 2.14,2.14 0 1 0 2.14,2.14 2.2,2.2 0 0 0 -2.14,-2.14"
         style="isolation:isolate;fill:#fbf2de" />
      <rect
         id="rect475-5"
         data-name="rect475"
         class="cls-4"
         x="2864.98"
         y="1026.6899"
         width="210.13"
         height="45.349998"
         style="fill:#ec2426" />
      <path
         class="cls-13"
         d="m 2875.72,1039.14 h 15.73 v 18.36 h -15.73 z m 10.76,14.49 V 1043 h -5.79 v 10.64 z"
         id="path892"
         style="fill:#fffffd" />
      <path
         class="cls-13"
         d="m 2897.53,1043 h -2.84 v -3.85 h 7.81 v 10.49 h -5 z"
         id="path894"
         style="fill:#fffffd" />
      <path
         class="cls-13"
         d="m 2917.31,1049.43 4,5.84 v 2.23 h -14.58 v -3.87 h 8.27 l -9.77,-14.49 h 5.53 l 3.66,5.87 2.67,-5.87 h 5.58 z"
         id="path896"
         style="fill:#fffffd" />
      <path
         class="cls-13"
         d="m 2929.34,1057.6 a 20.7,20.7 0 0 1 -3.45,-0.87 l 0.92,-3.63 a 25.23,25.23 0 0 0 3,0.64 18.22,18.22 0 0 0 2.6,0.23 5,5 0 0 0 3.28,-1 3.58,3.58 0 0 0 1.1,-2.84 V 1043 h -5.31 a 13,13 0 0 0 -0.45,1.69 9.25,9.25 0 0 0 -0.14,1.69 v 0.84 a 5.73,5.73 0 0 0 1.57,0.12 v 3.29 a 10.4,10.4 0 0 1 -1.92,0.18 9.63,9.63 0 0 1 -2.43,-0.29 6.71,6.71 0 0 1 -2,-0.84 v -1.63 a 12.1,12.1 0 0 1 0.31,-2.81 7.7,7.7 0 0 1 0.85,-2.24 h -1.86 v -3.85 h 16.38 v 10.32 a 9,9 0 0 1 -1.17,4.78 7,7 0 0 1 -3.19,2.78 11.27,11.27 0 0 1 -4.58,0.89 20.92,20.92 0 0 1 -3.51,-0.32 z"
         id="path898"
         style="fill:#fffffd" />
      <path
         class="cls-13"
         d="m 2946.71,1039.14 h 8.08 a 7.65,7.65 0 0 1 5.45,1.76 6.89,6.89 0 0 1 1.86,5.2 v 11.4 h -4.95 v -11.83 c 0,-1.78 -0.78,-2.68 -2.33,-2.68 h -3.13 v 14.51 h -5 z"
         id="path900"
         style="fill:#fffffd" />
      <path
         class="cls-13"
         d="m 2988.32,1040.9 a 6.81,6.81 0 0 1 1.85,5.2 v 11.4 h -5 v -11.83 c 0,-1.78 -0.77,-2.68 -2.31,-2.68 h -2.35 a 18.18,18.18 0 0 0 -0.32,1.85 15,15 0 0 0 -0.12,1.82 v 5.18 a 7.13,7.13 0 0 1 -0.67,3.2 4.64,4.64 0 0 1 -2,2 6.24,6.24 0 0 1 -3,0.69 15.52,15.52 0 0 1 -2.37,-0.2 v -3.83 h 1 c 1.45,0 2.18,-0.77 2.18,-2.31 v -4.34 a 10.12,10.12 0 0 1 0.26,-2.14 6.66,6.66 0 0 1 0.77,-2 h -2.81 v -3.85 h 9.41 a 7.66,7.66 0 0 1 5.48,1.84 z"
         id="path902"
         style="fill:#fffffd" />
      <path
         class="cls-13"
         d="m 3000.78,1045.42 a 2.34,2.34 0 0 0 -0.67,-1.8 2.75,2.75 0 0 0 -1.94,-0.63 h -5.47 v -3.85 h 5.83 a 8.92,8.92 0 0 1 3.88,0.78 5.6,5.6 0 0 1 2.48,2.25 6.86,6.86 0 0 1 0.86,3.51 v 11.82 h -5 z"
         id="path904"
         style="fill:#fffffd" />
      <path
         class="cls-13"
         d="m 3011.37,1043 h -2.84 v -3.85 h 7.81 v 10.49 h -5 z"
         id="path906"
         style="fill:#fffffd" />
      <path
         class="cls-13"
         d="m 3022.16,1047.29 a 8.57,8.57 0 0 1 0.61,-2.35 5.36,5.36 0 0 1 1.09,-1.76 1.31,1.31 0 0 1 0.21,-0.19 v -0.07 c -0.4,0.07 -0.87,0.18 -1.42,0.33 -0.55,0.15 -1,0.31 -1.38,0.46 l -1,-3.59 a 21.86,21.86 0 0 1 4.14,-1 27.18,27.18 0 0 1 4.54,-0.4 c 2.82,0 5,0.72 6.43,2.15 1.43,1.43 2.2,3.54 2.21,6.33 v 10.35 h -8.09 v -3.85 h 3.1 v -7.17 a 4.82,4.82 0 0 0 -0.7,-2.78 2.31,2.31 0 0 0 -2,-1 q -2.49,0 -2.87,3.91 l -1.07,10.87 H 3021 Z"
         id="path908"
         style="fill:#fffffd" />
      <path
         class="cls-13"
         d="m 3046.81,1053 a 15.44,15.44 0 0 0 2.79,0.89 13.15,13.15 0 0 0 2.78,0.34 8.74,8.74 0 0 0 5.25,-1.41 4.94,4.94 0 0 0 1.93,-4.28 v -9.37 h 4.81 v 9.94 a 7.86,7.86 0 0 1 -1.56,4.94 9.44,9.44 0 0 1 -4.24,3 16.6,16.6 0 0 1 -6,1 24.05,24.05 0 0 1 -5.36,-0.62 24.74,24.74 0 0 1 -5.22,-1.79 v -16.51 h 4.8 z m 3.73,-3 a 17,17 0 0 0 0.16,-2.34 v -8.45 h 4.81 v 7.4 a 11.1,11.1 0 0 1 -0.37,2.93 5.68,5.68 0 0 1 -1,2.11 h -4 a 6.12,6.12 0 0 0 0.4,-1.72 z"
         id="path910"
         style="fill:#fffffd" />
    </g>
  </g>
</svg>
