<?xml version="1.0" encoding="UTF-8" standalone="no"?>
<svg
   xmlns:dc="http://purl.org/dc/elements/1.1/"
   xmlns:cc="http://creativecommons.org/ns#"
   xmlns:rdf="http://www.w3.org/1999/02/22-rdf-syntax-ns#"
   xmlns:svg="http://www.w3.org/2000/svg"
   xmlns="http://www.w3.org/2000/svg"
   width="55.315556mm"
   height="45.522446mm"
   viewBox="0 0 196 161.3"
   id="svg9884"
   version="1.1">
  <defs
     id="defs9886" />
  <metadata
     id="metadata9889">
    <rdf:RDF>
      <cc:Work
         rdf:about="">
        <dc:format>image/svg+xml</dc:format>
        <dc:type
           rdf:resource="http://purl.org/dc/dcmitype/StillImage" />
        <dc:title></dc:title>
      </cc:Work>
    </rdf:RDF>
  </metadata>
  <g
     id="layer1"
     transform="translate(-293.42856,-520.28363)">
    <rect
       style="fill:#6f4d80"
       height="52.799999"
       width="196"
       class="st13"
       y="520.28363"
       x="293.42856"
       id="rect313_2_" />
    <g
       id="g10466"
       transform="translate(-0.14997,0)">
      <path
         id="path443_2_"
         class="st13"
         d="m 423.22853,616.28365 c 0,17.39999 -31.7,65.29999 -31.7,65.29999 0,0 -31.6,-47.8 -31.6,-65.29999 0,-17.4 14.3,-31.7 31.7,-31.7 17.4,0 31.6,14.3 31.6,31.7"
         style="fill:#f8b119;fill-opacity:1" />
      <g
         id="g4679-4-3_2_"
         transform="matrix(0.42702944,0,0,0.42702944,-284.86796,-748.55198)">
        <path
           id="path6-3-6_2_"
           class="st8"
           d="m 1609.9,3166.9 c 7.6,-0.3 14.6,-7 16.3,-14.3 -7.3,0.2 -14.6,7.5 -16.3,14.3 z m -15.7,-8.1 c -9,10.6 -22.3,15 -34.1,21.6 -10.6,4.8 -20.3,13.8 -32.1,14.6 -0.3,7.6 2.8,14.6 4,21.9 7.6,-2.5 11,-1.7 14.6,5.6 7.3,9.3 24.8,4 25.6,-7.6 10.6,0.3 21.1,-0.3 31.2,-0.8 4,4 15.4,3.3 13,-4.5 -2.8,-16.6 -8.1,-32.9 -13,-49.2 -1.1,-3.1 -6.4,-0.8 -9.2,-1.6 z"
           style="opacity:1;fill:#ffffff;enable-background:new" />
        <path
           id="path8-6-2_2_"
           class="st13"
           d="m 1594.2,3175.1 c -15.4,9 -31.2,17.9 -47.5,25.9 1.7,4 12.1,1.7 17.4,2.5 12.6,0 25.6,0 38.2,0 -1.7,-9.8 -3.7,-20.3 -8.1,-28.4 z"
           style="fill:#f8b119;fill-opacity:1" />
        <path
           id="path10-3-7_2_"
           class="st8"
           d="m 1620.2,3184.9 c 7,0 13.5,-2 19.9,-4 1.7,-9.8 -9.3,-4.5 -14.3,-2.5 -2.7,1.1 -5.6,3.1 -5.6,6.5 m 0,16.1 c 3.7,4.8 13,9 18.6,5.3 4,-6.1 -9.8,-5.3 -13.8,-7 -1.9,0.2 -3.3,1 -4.8,1.7 l 0,0 z"
           style="opacity:1;fill:#ffffff;enable-background:new" />
        <path
           id="path12-1-2_2_"
           class="st13"
           d="m 1547.8,3215.3 c 2.8,6.1 9.8,10.6 15,4.8 8.5,-8.1 -7.6,-4 -12.6,-4.8 -0.7,0 -1.6,0 -2.4,0 z"
           style="fill:#f8b119;fill-opacity:1" />
      </g>
    </g>
    <g
       id="XMLID_2069_"
       transform="translate(-398.47145,-1005.3162)">
      <g
         id="XMLID_861_">
        <path
           style="fill:#bbbade"
           d="m 713.9,1564.2 c 3.2,-3 5.5,-5.3 7.1,-7 1.7,-1.7 3,-3.3 4,-5 1,-1.5 1.5,-3 1.5,-4.3 0,-1.5 -0.3,-2.5 -1.2,-3.3 -0.8,-0.8 -1.8,-1.2 -3.2,-1.2 -1,0 -1.8,0.3 -2.7,0.8 -0.8,0.5 -1.7,1.3 -2.5,2.2 l -3.3,-3.3 c 1.5,-1.5 2.8,-2.7 4.3,-3.5 1.5,-0.7 3.2,-1.2 5.1,-1.2 2.8,0 5,0.8 6.8,2.5 1.7,1.7 2.5,3.8 2.5,6.6 0,2.2 -0.8,4.5 -2.5,7 -1.7,2.3 -4,5.1 -7.1,8.5 1.7,-0.2 3.3,-0.3 4.8,-0.3 l 6.1,0 0,5.1 -19.9,0 0,-3.6 z"
           class="st1"
           id="XMLID_867_" />
        <path
           style="fill:#bbbade"
           d="m 769.2,1542.1 0,5.3 -8.1,20.4 -6.5,0 8.1,-20.9 -13.1,0 0,-11.5 5.8,0 0,6.6 13.8,0 z"
           class="st1"
           id="XMLID_866_" />
        <path
           style="fill:#bbbade"
           d="m 774.5,1547.2 -0.5,-5.3 6.5,0 0.5,5.3 0,20.6 -6.5,0 0,-20.6 z"
           class="st1"
           id="XMLID_865_" />
        <path
           style="fill:#bbbade"
           d="m 785.8,1562.8 7.1,0 c 1.7,0 3,-0.5 3.8,-1.7 0.8,-1.2 1.2,-2.7 1.2,-4.7 l 0,-3.3 c 0,-2 -0.3,-3.5 -1.2,-4.7 -0.8,-1.2 -2.2,-1.7 -3.8,-1.7 l -7.1,0 0,-4.8 9,0 c 3.2,0 5.6,1 7.3,3.2 1.7,2.2 2.5,4.8 2.5,8.5 l 0,2.7 c 0,3.7 -0.8,6.5 -2.5,8.5 -1.7,2 -4.2,3.2 -7.3,3.2 l -9,0 0,-5.2 z"
           class="st1"
           id="XMLID_864_" />
        <path
           style="fill:#bbbade"
           d="m 831,1563.5 c -3.7,3.2 -9.3,4.7 -16.9,4.7 l -1.3,0 -3.3,-26.2 6.1,0 1.3,11.1 c 1.2,-0.7 2,-1.5 2.5,-2.7 0.5,-1.2 0.7,-3 0.7,-5.5 l 0,-3 6.1,0 0,2.8 c 0,3.3 -0.7,6 -2,8 -1.3,2 -3.5,3.7 -6.6,4.7 l 0.7,5.1 c 4.3,-0.3 7.3,-1.5 9.1,-3.7 1.8,-2.2 2.7,-5.3 2.7,-9.3 l -0.2,-8 6.5,0 0,7.5 c 0,6.7 -1.8,11.3 -5.4,14.5 z"
           class="st1"
           id="XMLID_863_" />
        <path
           style="fill:#bbbade"
           d="m 858.9,1567.8 -8.5,-13.1 -4,13.1 -6.1,0 5,-15.4 1.3,-3.5 -4.2,-6.8 6.5,0 3.7,5.8 3.3,5 1.2,-4.2 1.8,-6.6 6.1,0 -5.5,16.4 6.1,9.3 -6.7,0 z"
           class="st1"
           id="XMLID_862_" />
      </g>
    </g>
  </g>
</svg>
