<?xml version="1.0" encoding="UTF-8" standalone="no"?>
<!-- Created with Inkscape (http://www.inkscape.org/) -->

<svg
   width="40.005409"
   height="27.728331"
   viewBox="0 0 40.005408 27.728331"
   version="1.1"
   id="svg1883"
   xmlns="http://www.w3.org/2000/svg"
   xmlns:svg="http://www.w3.org/2000/svg">
  <defs
     id="defs1880" />
  <g
     id="layer1"
     transform="translate(-104.20917,-103.22237)">
    <path
       id="rect311_4_"
       style="fill:#a22442;stroke-width:0.264583"
       d="m 106.37917,103.22237 h 37.83541 v 15.50458 h -37.83541 z" />
    <g
       id="g1278"
       transform="matrix(0.26458333,0,0,0.26458333,-442.52541,-2.6109602)">
      <path
         d="m 2109.5,434.3 h 13.4 v 15.6 h -13.4 z m 9.1,12.3 v -9 h -4.9 v 9 z"
         id="path1266"
         style="fill:#fffffd" />
      <path
         d="m 2128,437.6 h -2.4 v -3.3 h 6.6 v 8.9 h -4.2 z"
         id="path1268"
         style="fill:#fffffd" />
      <path
         d="m 2136.6,450.1 c -0.5,-0.1 -1,-0.2 -1.6,-0.3 v -3.2 c 0.6,0.1 1.3,0.1 1.9,0.1 0.6,0 1,-0.2 1.3,-0.5 0.3,-0.3 0.4,-0.8 0.4,-1.5 v -7.2 h -2.7 v -3.3 h 7 V 445 c 0,1 -0.2,2 -0.6,2.7 -0.4,0.8 -0.9,1.3 -1.7,1.7 -0.7,0.4 -1.6,0.6 -2.6,0.6 -0.5,0.2 -1,0.1 -1.4,0.1 z"
         id="path1270"
         style="fill:#fffffd" />
      <path
         d="m 2152.2,439.6 c 0,-0.7 -0.2,-1.2 -0.6,-1.5 -0.4,-0.4 -0.9,-0.5 -1.7,-0.5 h -4.7 v -3.3 h 5 c 1.3,0 2.4,0.2 3.3,0.7 0.9,0.4 1.6,1.1 2.1,1.9 0.5,0.8 0.7,1.8 0.7,3 v 10 h -4.2 v -10.3 z"
         id="path1272"
         style="fill:#fffffd" />
      <path
         d="m 2160.4,437.6 h -1.3 v -3.3 h 5.6 v 15.6 h -4.2 v -12.3 z"
         id="path1274"
         style="fill:#fffffd" />
      <path
         d="m 2179.1,443.4 4.5,6.5 h -4.7 l -5.7,-8.2 c -0.2,0.3 -0.4,0.8 -0.4,1.3 v 7 h -4.1 v -5.1 c 0,-1.4 0.2,-2.6 0.7,-3.5 0.4,-0.9 1.2,-1.5 2.1,-2 l -3.4,-5 h 4.7 l 3.7,5.3 2.5,-5.3 h 4.7 z"
         id="path1276"
         style="fill:#fffffd" />
    </g>
    <g
       id="g1398"
       transform="matrix(0.26458333,0,0,0.26458333,-442.52541,-2.6109602)">
      <path
         d="m 2090.1,410.8 h 12.5 v 14.6 h -12.5 z m 8.6,11.7 v -8.7 h -4.8 v 8.7 z"
         id="path1378"
         style="fill:#fffffd" />
      <path
         d="m 2106.8,413.8 h -1.3 v -3 h 5.1 v 14.6 h -3.8 z"
         id="path1380"
         style="fill:#fffffd" />
      <path
         d="m 2115.5,413.8 h -2.3 v -3 h 6.1 v 8.3 h -3.8 z"
         id="path1382"
         style="fill:#fffffd" />
      <path
         d="m 2128.1,415.8 c 0,-0.7 -0.2,-1.1 -0.5,-1.5 -0.4,-0.3 -0.9,-0.5 -1.6,-0.5 h -4.4 v -3 h 4.7 c 1.2,0 2.2,0.2 3.1,0.6 0.9,0.4 1.5,1 2,1.8 0.5,0.8 0.7,1.7 0.7,2.8 v 9.5 h -3.8 v -9.7 z"
         id="path1384"
         style="fill:#fffffd" />
      <path
         d="m 2135.8,413.8 h -1.3 v -3 h 5.1 v 14.6 h -3.8 z"
         id="path1386"
         style="fill:#fffffd" />
      <path
         d="m 2146.7,425 c -1,-0.5 -1.7,-1.3 -2.2,-2.2 -0.5,-1 -0.8,-2.1 -0.8,-3.3 v -8.6 h 3.8 v 9.1 c 0,0.6 0.1,1.1 0.3,1.5 0.2,0.4 0.5,0.8 0.9,1 0.4,0.2 0.8,0.4 1.3,0.4 0.5,0 1,-0.1 1.3,-0.4 0.3,-0.3 0.7,-0.6 0.9,-1 0.2,-0.4 0.3,-1 0.3,-1.5 v -4.2 c 0,-1.3 -0.6,-1.9 -1.7,-1.9 -0.3,0 -0.8,0.1 -1.3,0.2 l -0.4,-2.5 c 0.4,-0.3 0.9,-0.5 1.5,-0.6 0.6,-0.2 1.1,-0.2 1.6,-0.2 0.9,0 1.6,0.2 2.2,0.6 0.6,0.4 1.1,0.9 1.4,1.6 0.3,0.7 0.5,1.6 0.5,2.5 v 4.1 c 0,1.2 -0.3,2.3 -0.8,3.3 -0.5,1 -1.3,1.7 -2.2,2.2 -1,0.5 -2.1,0.8 -3.3,0.8 -1.2,0 -2.4,-0.4 -3.3,-0.9 z"
         id="path1388"
         style="fill:#fffffd" />
      <path
         d="m 2160.5,413.8 h -2.3 v -3 h 6.1 v 8.3 h -3.8 z"
         id="path1390"
         style="fill:#fffffd" />
      <path
         d="m 2179.5,410.8 v 3 h -2.6 v 11.7 h -3.8 v -11.7 h -6.2 v -3 z"
         id="path1392"
         style="fill:#fffffd" />
      <path
         d="m 2182.6,413.8 h -1.3 v -3 h 5.1 v 14.6 h -3.8 z"
         id="path1394"
         style="fill:#fffffd" />
      <path
         d="m 2199.9,419.3 4.3,6.2 h -4.3 l -5.4,-7.9 c -0.3,0.4 -0.4,0.8 -0.4,1.4 v 6.5 h -3.7 v -4.8 c 0,-1.4 0.2,-2.4 0.6,-3.2 0.4,-0.8 1.1,-1.4 2,-1.9 l -3.2,-4.7 h 4.3 l 3.5,5.1 2.5,-5.1 h 4.3 z"
         id="path1396"
         style="fill:#fffffd" />
    </g>
    <path
       id="path307_1_"
       d="m 127.1225,124.83883 c 0,1.61396 -2.91042,6.11187 -2.91042,6.11187 0,0 -2.91041,-4.445 -2.91041,-6.11187 0,-1.61396 1.29645,-2.91042 2.91041,-2.91042 1.61396,-0.0529 2.91042,1.24354 2.91042,2.91042"
       style="fill:#0b8e36;fill-opacity:1;stroke-width:0.264583" />
  </g>
</svg>
