<?xml version="1.0" encoding="UTF-8" standalone="no"?>
<!-- Created with Inkscape (http://www.inkscape.org/) -->

<svg
   width="61.599998"
   height="94.502098"
   viewBox="0 0 16.298128 25.003365"
   version="1.1"
   id="svg2792"
   xmlns="http://www.w3.org/2000/svg"
   xmlns:svg="http://www.w3.org/2000/svg">
  <defs
     id="defs2789" />
  <g
     id="layer1"
     transform="translate(-114.64746,-110.65182)">
    <g
       id="g1170"
       transform="matrix(0.26458,0,0,0.26458,-302.03958,-137.6295)">
      <g
         id="g1086">
        <path
           id="path355_18_"
           d="m 1636.5,969.2 c 0,16.9 -30.8,63.7 -30.8,63.7 0,0 -30.8,-46.8 -30.8,-63.7 0,-16.9 13.9,-30.8 30.8,-30.8 16.9,-0.2 30.8,13.9 30.8,30.8"
           style="fill:#a22442" />
      </g>
      <g
         id="g1168">
        <path
           d="m 1621.9,990.8 v -23.3 c 0,-2.4 -1.9,-4.3 -4.2,-4.3 h -23.4 c -2.5,0 -4.2,1.9 -4.2,4.3 v 23.3 c 0,2.4 1.9,4.2 4.3,4.2 h 23.4 c 2.2,0 4.1,-1.7 4.1,-4.2 z m -5.4,1.6 h -21.2 c -1.5,0 -2.8,-1.2 -2.8,-2.8 v -21 c 0,-1.5 1.2,-2.8 2.8,-2.8 h 21.2 c 1.5,0 2.8,1.2 2.8,2.8 v 21 c 0,1.6 -1.2,2.8 -2.8,2.8 z"
           id="path1088"
           style="fill:#ffffcc" />
        <g
           id="g1098">
          <g
             id="g1092">
            <path
               d="m 1611.7,945.2 c 0,-3 4.4,-3.1 4.4,0 l -0.1,9.3 2.4,-2.9 c 1.6,-1.8 4.5,0.7 2.7,2.7 l -5.8,6.8 c -0.9,0.9 -2.1,0.9 -3,0 l -5.7,-6.9 c -1.8,-2 1.1,-4.6 2.7,-2.7 l 2.3,2.9 z"
               id="path1090"
               style="fill:#ffffcc" />
          </g>
          <g
             id="g1096">
            <path
               d="m 1595.7,959.5 c 0,3 4.4,3.1 4.4,0 l -0.1,-9.3 2.4,2.9 c 1.6,1.8 4.5,-0.7 2.7,-2.7 l -5.8,-6.8 c -0.9,-0.9 -2.1,-0.9 -3,0 l -5.7,6.9 c -1.8,2 1.1,4.6 2.7,2.7 l 2.3,-2.9 z"
               id="path1094"
               style="fill:#ffffcc" />
          </g>
        </g>
        <g
           id="g1166">
          <g
             id="g1120">
            <g
               id="g1102">
              <path
                 d="m 1616.4,980.8 c 0,0.5 -0.4,0.8 -0.8,0.8 h -5.2 c -0.4,0 -0.8,-0.3 -0.8,-0.8 v -5.6 c 0,-0.6 0.5,-1.1 1.1,-1.1 h 4.6 c 0.6,0 1.1,0.5 1.1,1.1 z"
                 id="path1100"
                 style="fill:#ffffcc" />
            </g>
            <g
               id="g1112">
              <g
                 id="g1106">
                <path
                   d="m 1615.1,981.4 h -2 v 7.6 c 0,1.3 2,1.3 2,0 z"
                   id="path1104"
                   style="fill:#ffffcc" />
              </g>
              <g
                 id="g1110">
                <path
                   d="m 1612.9,981.4 h -2 v 7.6 c 0,1.3 2,1.3 2,0 z"
                   id="path1108"
                   style="fill:#ffffcc" />
              </g>
            </g>
            <g
               id="g1118">
              <circle
                 cx="1613"
                 cy="972.20001"
                 r="1.5"
                 id="circle1114"
                 style="fill:#ffffcc" />
            </g>
          </g>
          <g
             id="g1142">
            <g
               id="g1124">
              <path
                 d="m 1609.3,980.8 c 0,0.5 -0.4,0.8 -0.8,0.8 h -5.2 c -0.4,0 -0.8,-0.3 -0.8,-0.8 v -5.6 c 0,-0.6 0.5,-1.1 1.1,-1.1 h 4.6 c 0.6,0 1.1,0.5 1.1,1.1 z"
                 id="path1122"
                 style="fill:#ffffcc" />
            </g>
            <g
               id="g1134">
              <g
                 id="g1128">
                <path
                   d="m 1608.1,981.4 h -2 v 7.6 c 0,1.3 2,1.3 2,0 z"
                   id="path1126"
                   style="fill:#ffffcc" />
              </g>
              <g
                 id="g1132">
                <path
                   d="m 1605.8,981.4 h -2 v 7.6 c 0,1.3 2,1.3 2,0 z"
                   id="path1130"
                   style="fill:#ffffcc" />
              </g>
            </g>
            <g
               id="g1140">
              <circle
                 cx="1606"
                 cy="972.20001"
                 r="1.5"
                 id="circle1136"
                 style="fill:#ffffcc" />
            </g>
          </g>
          <g
             id="g1164">
            <g
               id="g1146">
              <path
                 d="m 1602.3,980.8 c 0,0.5 -0.4,0.8 -0.8,0.8 h -5.2 c -0.4,0 -0.8,-0.3 -0.8,-0.8 v -5.6 c 0,-0.6 0.5,-1.1 1.1,-1.1 h 4.6 c 0.6,0 1.1,0.5 1.1,1.1 z"
                 id="path1144"
                 style="fill:#ffffcc" />
            </g>
            <g
               id="g1156">
              <g
                 id="g1150">
                <path
                   d="m 1601,981.4 h -2 v 7.6 c 0,1.3 2,1.3 2,0 z"
                   id="path1148"
                   style="fill:#ffffcc" />
              </g>
              <g
                 id="g1154">
                <path
                   d="m 1598.7,981.4 h -2 v 7.6 c 0,1.3 2,1.3 2,0 z"
                   id="path1152"
                   style="fill:#ffffcc" />
              </g>
            </g>
            <g
               id="g1162">
              <circle
                 cx="1598.9"
                 cy="972.20001"
                 r="1.5"
                 id="circle1158"
                 style="fill:#ffffcc" />
            </g>
          </g>
        </g>
      </g>
    </g>
  </g>
</svg>
