<?xml version="1.0" encoding="UTF-8" standalone="no"?>
<svg
   xmlns:dc="http://purl.org/dc/elements/1.1/"
   xmlns:cc="http://creativecommons.org/ns#"
   xmlns:rdf="http://www.w3.org/1999/02/22-rdf-syntax-ns#"
   xmlns:svg="http://www.w3.org/2000/svg"
   xmlns="http://www.w3.org/2000/svg"
   version="1.1"
   id="svg4774"
   viewBox="0 0 144.7 108.59999"
   height="30.64933mm"
   width="40.837555mm">
  <defs
     id="defs4776" />
  <metadata
     id="metadata4779">
    <rdf:RDF>
      <cc:Work
         rdf:about="">
        <dc:format>image/svg+xml</dc:format>
        <dc:type
           rdf:resource="http://purl.org/dc/dcmitype/StillImage" />
        <dc:title></dc:title>
      </cc:Work>
    </rdf:RDF>
  </metadata>
  <g
     transform="translate(-164.79286,-795.20508)"
     id="layer1">
    <g
       transform="translate(0.55002,0)"
       id="g4852">
      <path
         id="path471_2_"
         class="st4259"
         d="m 253.99284,867.90507 c 0,9.6 -17.4,35.9 -17.4,35.9 0,0 -17.4,-26.3 -17.4,-35.9 0,-9.6 7.8,-17.4 17.4,-17.4 9.6,0.2 17.4,7.8 17.4,17.4"
         style="fill:#401225" />
      <path
         id="path473_2_"
         class="st4262"
         d="m 236.59284,876.80507 c -4.9,0 -8.9,-4 -8.9,-8.9 0,-4.9 4,-8.9 8.9,-8.9 4.9,0 8.9,4 8.9,8.9 0,4.9 -4,8.9 -8.9,8.9 m 0,-19.8 c -6,0 -10.9,4.9 -10.9,10.9 0,6 4.9,10.9 10.9,10.9 6,0 10.9,-4.9 10.9,-10.9 0,-6 -4.9,-10.9 -10.9,-10.9 m 0,9.6 c -0.7,0 -1.3,0.7 -1.3,1.3 l 0,4 c 0,0.7 0.7,1.3 1.3,1.3 0.7,0 1.3,-0.7 1.3,-1.3 l 0,-4 c 0,-0.7 -0.7,-1.3 -1.3,-1.3 m 0,-4.3 c -0.7,0 -1.3,0.7 -1.3,1.3 0,0.6 0.7,1.3 1.3,1.3 0.7,0 1.3,-0.7 1.3,-1.3 0,-0.6 -0.7,-1.3 -1.3,-1.3"
         style="opacity:0.8;fill:#ffffff" />
    </g>
    <g
       id="g4830">
      <rect
         id="rect315_2_"
         x="182.69283"
         y="795.20508"
         class="st4259"
         width="107.7"
         height="29"
         style="fill:#401225" />
      <rect
         id="rect317_2_"
         x="164.79286"
         y="817.1051"
         class="st4259"
         width="144.7"
         height="29"
         style="fill:#401225" />
      <g
         id="g489"
         transform="translate(-572.40716,95.405067)">
        <path
           class="st4267"
           d="m 773.4,709 -0.3,-2.9 3.6,0 0.3,2.9 0,16.2 -3.6,0 0,-16.2 z"
           id="path491"
           style="fill:#ef7a8f" />
        <path
           class="st4267"
           d="m 780.5,709 -0.3,-2.9 3.6,0 0.3,2.9 0,3.9 0,1.6 -3.5,0.6 0,-6.1 z"
           id="path493"
           style="fill:#ef7a8f" />
        <path
           class="st4267"
           d="m 799.2,706.1 c 0,3.3 -0.1,5.8 -0.4,7.4 -0.2,1.7 -0.9,3.1 -1.9,4.2 -1,1.1 -2.7,1.9 -5,2.4 l -5.3,1 -0.5,-2.8 3.9,-0.7 -2.8,-11.6 3.6,0 2.5,10.8 c 0.7,-0.4 1.3,-0.9 1.6,-1.7 0.3,-0.7 0.5,-1.6 0.6,-2.7 0.1,-1.1 0.1,-2.7 0.1,-4.8 l 0,-1.6 3.6,0 z"
           id="path495"
           style="fill:#ef7a8f" />
        <path
           class="st4267"
           d="m 802.4,709 -0.3,-2.9 3.6,0 0.3,2.9 0,3.9 0,1.6 -3.5,0.6 0,-6.1 z"
           id="path497"
           style="fill:#ef7a8f" />
        <path
           class="st4267"
           d="m 814.4,711.7 c 0,-0.6 0.1,-1.2 0.2,-1.7 0.1,-0.5 0.3,-0.9 0.5,-1.2 l -6.3,0 0,-2.7 11.6,0 0,2.7 -1.9,0 c -0.3,0.7 -0.5,1.7 -0.5,2.9 l 0,8.6 -3.6,0 0,-8.6 z"
           id="path499"
           style="fill:#ef7a8f" />
        <path
           class="st4267"
           d="m 823.5,709 -0.3,-2.9 3.6,0 0.3,2.9 0,11.2 -3.6,0 0,-11.2 z"
           id="path501"
           style="fill:#ef7a8f" />
        <path
           class="st4267"
           d="m 842.3,718.6 c -1.1,1.3 -2.6,2 -4.5,2 -0.7,0 -1.5,-0.1 -2.3,-0.3 l 0.3,-2.7 c 0.6,0.1 1.1,0.2 1.5,0.2 1.1,0 1.9,-0.4 2.4,-1.1 0.5,-0.8 0.7,-1.9 0.7,-3.3 0,-1.6 -0.2,-2.8 -0.7,-3.6 -0.5,-0.7 -1.2,-1.1 -2.1,-1.1 -0.7,0 -1.2,0.2 -1.7,0.6 -0.5,0.4 -0.7,0.9 -0.9,1.6 l -1.5,9.4 -3.6,0 1.7,-9.5 -2,-4.6 3.7,0 1,2.8 c 0.3,-1 0.9,-1.8 1.6,-2.3 0.7,-0.5 1.5,-0.8 2.4,-0.8 1.8,0 3.1,0.6 4,1.8 0.9,1.2 1.4,3 1.4,5.5 0.2,2.3 -0.3,4.1 -1.4,5.4 z"
           id="path503"
           style="fill:#ef7a8f" />
        <path
           class="st4267"
           d="m 749.1,732.6 -0.3,-2.9 3.6,0 0.3,2.9 0,3.9 0,1.6 -3.5,0.6 0,-6.1 z"
           id="path505"
           style="fill:#ef7a8f" />
        <path
           class="st4267"
           d="m 759.5,731.9 c 0.3,0.3 0.5,0.7 0.5,1.2 0,0.6 -0.2,1.1 -0.5,1.4 -0.3,0.3 -0.8,0.5 -1.3,0.5 -0.7,0 -1.3,-0.3 -1.6,-0.8 -0.4,-0.5 -0.6,-1.3 -0.6,-2.3 0,-2.3 1.1,-4 3.4,-5.2 l 0.8,1.5 c -0.7,0.4 -1.3,0.8 -1.6,1.3 -0.3,0.5 -0.5,1.1 -0.5,1.8 0,0 0.1,0 0.2,0 0.4,0.1 0.9,0.3 1.2,0.6 z m 5.6,0 c 0.3,0.3 0.5,0.7 0.5,1.2 0,0.6 -0.2,1.1 -0.5,1.4 -0.3,0.3 -0.8,0.5 -1.3,0.5 -0.7,0 -1.3,-0.3 -1.6,-0.8 -0.4,-0.5 -0.6,-1.3 -0.6,-2.3 0,-2.3 1.1,-4 3.4,-5.2 l 0.8,1.5 c -0.7,0.4 -1.3,0.8 -1.6,1.3 -0.4,0.5 -0.5,1.1 -0.5,1.8 0,0 0.1,0 0.2,0 0.5,0.1 0.9,0.3 1.2,0.6 z"
           id="path507"
           style="fill:#ef7a8f" />
        <path
           class="st4267"
           d="m 778.9,743.8 -4.7,-7.2 -2.2,7.2 -3.4,0 2.8,-8.5 0.8,-1.9 -2.3,-3.7 3.6,0 2,3.2 1.8,2.7 0.7,-2.3 1,-3.7 3.4,0 -3,9 3.4,5.1 -3.9,0 z"
           id="path509"
           style="fill:#ef7a8f" />
        <path
           class="st4267"
           d="m 797.4,742.2 c -1.1,1.3 -2.6,2 -4.5,2 -0.7,0 -1.5,-0.1 -2.3,-0.3 l 0.3,-2.7 c 0.6,0.1 1.1,0.2 1.5,0.2 1.1,0 1.9,-0.4 2.4,-1.1 0.5,-0.8 0.7,-1.9 0.7,-3.3 0,-1.6 -0.2,-2.8 -0.7,-3.6 -0.5,-0.7 -1.2,-1.1 -2.1,-1.1 -0.7,0 -1.2,0.2 -1.7,0.6 -0.5,0.4 -0.7,0.9 -0.9,1.6 l -1.5,9.4 -3.6,0 1.7,-9.5 -2,-4.6 3.7,0 1,2.8 c 0.3,-1 0.9,-1.8 1.6,-2.3 0.7,-0.5 1.5,-0.8 2.4,-0.8 1.8,0 3.1,0.6 4,1.8 0.9,1.2 1.4,3 1.4,5.5 0.2,2.2 -0.3,4 -1.4,5.4 z"
           id="path511"
           style="fill:#ef7a8f" />
        <path
           class="st4267"
           d="m 811.3,743.8 -4.7,-7.2 -2.2,7.2 -3.4,0 2.8,-8.5 0.8,-1.9 -2.3,-3.7 3.6,0 2,3.2 1.8,2.7 0.7,-2.3 1,-3.7 3.4,0 -3,9 3.4,5.1 -3.9,0 z"
           id="path513"
           style="fill:#ef7a8f" />
        <path
           class="st4267"
           d="m 823.6,732.6 -0.3,-2.9 3.6,0 0.3,2.9 0,16.2 -3.6,0 0,-16.2 z"
           id="path515"
           style="fill:#ef7a8f" />
        <path
           class="st4267"
           d="m 829.8,741.1 4,0 c 1,0 1.7,-0.3 2.1,-0.9 0.5,-0.6 0.7,-1.5 0.7,-2.5 l 0,-1.9 c 0,-1.1 -0.2,-1.9 -0.7,-2.5 -0.5,-0.6 -1.2,-0.9 -2.1,-0.9 l -4,0 0,-2.7 4.9,0 c 1.8,0 3.1,0.6 4,1.7 0.9,1.1 1.4,2.7 1.4,4.6 l 0,1.5 c 0,2 -0.5,3.5 -1.4,4.6 -0.9,1.1 -2.3,1.7 -4,1.7 l -4.9,0 0,-2.7 z"
           id="path517"
           style="fill:#ef7a8f" />
        <path
           class="st4267"
           d="m 843.2,732.6 -0.3,-2.9 3.6,0 0.3,2.9 0,11.2 -3.6,0 0,-11.2 z"
           id="path519"
           style="fill:#ef7a8f" />
        <path
           class="st4267"
           d="m 855.3,735.2 c 0,-0.6 0.1,-1.2 0.2,-1.7 0.1,-0.5 0.3,-0.9 0.5,-1.2 l -6.3,0 0,-2.7 11.6,0 0,2.7 -1.9,0 c -0.3,0.7 -0.5,1.7 -0.5,2.9 l 0,8.6 -3.6,0 0,-8.6 z"
           id="path521"
           style="fill:#ef7a8f" />
        <path
           class="st4267"
           d="m 864.3,732.6 -0.3,-2.9 3.6,0 0.3,2.9 0,11.2 -3.6,0 0,-11.2 z"
           id="path523"
           style="fill:#ef7a8f" />
      </g>
    </g>
  </g>
</svg>
