<svg width="159" height="112" viewBox="0 0 42.068 29.633" xmlns="http://www.w3.org/2000/svg">
    <path style="fill:#3696c9" d="M1033.7 1733.4h153.4v38.5h-153.4z" transform="translate(-272.015 -458.623) scale(.26458)"/>
    <path d="M1122.1 1759.3v-6.8l.5-1.7h3.1v8.5zm8.4 0v-9.8c0-.7-.1-1.1-.4-1.4-.3-.3-.7-.4-1.2-.4h-6.5v-2.7h7.5c.8 0 1.6.2 2.2.5.6.3 1.2.8 1.5 1.5.3.7.6 1.6.6 2.7v9.6zm7.5.3-1.4-11.8 3.4-1.6 1.1 10.2c.7-.1 1.3-.2 1.9-.3.5-.2 1-.4 1.3-.7.4-.3.6-.6.8-1 .2-.4.3-.9.4-1.4.1-.5.1-1.2.1-1.9v-.8c0-.5-.1-1-.2-1.3-.2-.4-.4-.7-.7-.9-.3-.2-.6-.3-1-.3h-7.1l-.3-2.7h7.7c1.7 0 2.9.5 3.8 1.4.9.9 1.4 2.2 1.4 3.8v.8c0 1.5-.2 2.9-.7 3.9-.5 1.1-1.3 1.9-2.3 2.6-1 .7-2.2 1.1-3.6 1.5-1.3.2-2.9.4-4.6.5zm13.9-5.5v-6.1l-.3-2.9h3.6l.3 2.9v5.5zm5.9 5.2v-2.7h3.7v-7.2c0-.7-.1-1.1-.4-1.3-.2-.2-.6-.4-1-.4l-1.8-.3.5-2.7 3.1.4c1 .1 1.8.6 2.3 1.3.5.7.8 1.7.8 2.8v10zm9.3 0v-2.7h4c.7 0 1.2-.1 1.6-.5.4-.3.7-.7.9-1.3.2-.5.3-1.1.3-1.8v-1.9c0-.7-.1-1.3-.3-1.8-.2-.5-.5-.9-.9-1.3s-1-.5-1.6-.5h-4v-2.7h5c1.2 0 2.2.3 3 .8.8.5 1.4 1.3 1.8 2.2.4.9.6 2.1.6 3.4v1.5c0 1.3-.2 2.4-.6 3.4-.4 1-1 1.7-1.8 2.2-.8.5-1.8.8-3 .8h-5zm-114.6-14.1c1.8 0 3.2.4 4.2 1.3s1.4 2.2 1.4 4v8.7h-3.7v-9c0-.7-.2-1.3-.5-1.6-.3-.3-.8-.5-1.4-.5h-1.8c-.1.4-.2.9-.3 1.4-.1.5-.1 1-.1 1.4v4c0 1.4-.4 2.5-1.1 3.3-.7.8-1.8 1.2-3.1 1.2h-.9c-.3 0-.6-.1-.9-.1v-2.8h.8c.6 0 1-.1 1.3-.4.3-.3.4-.7.4-1.4v-3.4c0-.5.1-1 .2-1.6.1-.6.3-1.1.6-1.6h-2.2v-2.9zm9.9 8v-5.2h-2.2v-2.9h5.9v8zm11-8v10.7c.7.3 1.4.5 2.1.7.7.2 1.5.3 2.2.3 1.1 0 2-.2 2.9-.5.9-.3 1.5-.8 2-1.4.5-.6.7-1.5.7-2.5v-7.3h3.6v7.7c0 1.1-.2 2.1-.7 3-.5.9-1.1 1.6-1.9 2.1-.8.5-1.8 1-2.8 1.3-1 .3-2.2.4-3.5.4-1.3 0-2.6-.2-4-.5s-2.7-.8-4-1.4v-12.6zm2.6 9.6c.2-.3.3-.7.4-1.3.1-.6.1-1.1.1-1.8v-6.5h3.6v5.7c0 .8-.1 1.5-.3 2.2-.2.7-.4 1.2-.8 1.6zm23.7 4.5-9.8-14.1h4.1l9.7 14.1zm-9.2 0v-4.7c0-1.4.3-2.6.8-3.4.5-.8 1.3-1.4 2.4-1.8l1.3 1.8c-.6.4-.9 1-.9 1.8v6.2zm13.4-14.1-4.6 8.9-2.4-2.9 2.9-6zm7.6 14.1v-9.3c0-.6-.2-1.1-.5-1.4-.3-.3-.9-.5-1.5-.5h-4.2v-2.9h4.5c1.7 0 3 .4 4 1.3s1.4 2.1 1.4 3.7v9.1z" style="fill:#fff" transform="translate(-272.015 -458.623) scale(.26458)"/>
    <path d="M1129.7 1799.7c0 12.2-22.1 45.7-22.1 45.7s-22.1-33.6-22.1-45.7c0-12.2 10-22.1 22.1-22.1 12.1-.2 22.1 10 22.1 22.1" style="fill:#3696c9" transform="translate(-272.015 -458.623) scale(.26458)"/>
</svg>
