<?xml version="1.0" encoding="UTF-8" standalone="no"?>
<svg
   xmlns:dc="http://purl.org/dc/elements/1.1/"
   xmlns:cc="http://creativecommons.org/ns#"
   xmlns:rdf="http://www.w3.org/1999/02/22-rdf-syntax-ns#"
   xmlns:svg="http://www.w3.org/2000/svg"
   xmlns="http://www.w3.org/2000/svg"
   xmlns:xlink="http://www.w3.org/1999/xlink"
   version="1.1"
   x="0px"
   y="0px"
   viewBox="0 0 1224.3199 626.5155"
   xml:space="preserve"
   id="svg2"
   width="1224.3199"
   height="626.5155"><metadata
     id="metadata531"><rdf:RDF><cc:Work
         rdf:about=""><dc:format>image/svg+xml</dc:format><dc:type
           rdf:resource="http://purl.org/dc/dcmitype/StillImage" /><dc:title></dc:title></cc:Work></rdf:RDF></metadata><defs
     id="defs529"><linearGradient
       id="linearGradient4488"><stop
         style="stop-color:#ffffff;stop-opacity:1"
         offset="0"
         id="stop4490" /><stop
         style="stop-color:#ffffff;stop-opacity:0"
         offset="1"
         id="stop4492" /></linearGradient><filter
       id="filter4873"
       style="color-interpolation-filters:sRGB;"><feGaussianBlur
         id="feGaussianBlur4875"
         result="fbSourceGraphic"
         stdDeviation="2 2" /><feColorMatrix
         id="feColorMatrix4898"
         values="0 0 0 -1 0 0 0 0 -1 0 0 0 0 -1 0 0 0 0 1 0"
         in="fbSourceGraphic"
         result="fbSourceGraphicAlpha" /><feGaussianBlur
         in="fbSourceGraphic"
         result="fbSourceGraphic"
         stdDeviation="5"
         id="feGaussianBlur4900" /><feGaussianBlur
         result="result1"
         in="fbSourceGraphic"
         stdDeviation="0.01"
         id="feGaussianBlur4902" /><feComposite
         result="result2"
         k3="0.5"
         k2="0.5"
         in="fbSourceGraphic"
         operator="arithmetic"
         in2="result1"
         id="feComposite4904" /><feBlend
         result="result3"
         mode="normal"
         in2="fbSourceGraphic"
         id="feBlend4906" /></filter><radialGradient
       xlink:href="#linearGradient4488"
       id="radialGradient4494"
       cx="252.94113"
       cy="186.4642"
       fx="252.94113"
       fy="186.4642"
       r="141.88083"
       gradientTransform="matrix(1,0,0,0.58426963,0,61.638478)"
       gradientUnits="userSpaceOnUse" /><radialGradient
       gradientUnits="userSpaceOnUse"
       gradientTransform="matrix(1,0,0,0.45022866,0,91.979615)"
       r="140.23216"
       fy="193.17699"
       fx="253.60161"
       cy="193.17699"
       cx="253.60161"
       id="radialGradient4315"
       xlink:href="#linearGradient4488" /></defs><g
     id="g5086"><g
       transform="translate(-256.8736,-423.29999)"
       style="opacity:1"
       class="st694"
       id="polygon3_2_"><g
         id="g58"><polygon
           style="fill:#6fb8c5;fill-opacity:1"
           id="polygon60"
           points="1294.6,595.1 1328.9,585.3 1449.1,646.4 1389.6,676.9 1326,647.9 1076.1,776.1 988.3,881.6 1015.9,905.4 963.7,942.7 1007.7,974.3 921.6,1017.8 810.1,971.6 822.6,968.5 632.9,880.5 718.5,820.1 524.3,725.1 426.2,776.1 274.9,685.4 614,526.2 850,629.4 933.2,580 1007.7,544.5 966.9,524.7 1044,487.7 "
           class="st4252" /></g></g><polygon
       transform="translate(-256.8736,-423.29999)"
       style="fill:#d23326"
       points="602.6,704.6 525.2,661.3 588.1,624.8 632.9,639.7 723.6,683.4 661.2,730.7 "
       class="st4263"
       id="polygon5_2_" /><polygon
       transform="translate(-256.8736,-423.29999)"
       style="opacity:1;fill:#ffffff"
       points="1218.8,589.8 1032.4,507.3 1032.4,531.8 1218.8,613.2 "
       class="st4262"
       id="polygon7_2_" /><polygon
       transform="translate(-256.8736,-423.29999)"
       style="fill:none;stroke:#1a1631;stroke-width:0.23999999"
       points="1218.8,589.8 1032.4,507.3 1032.4,531.8 1218.8,613.2 "
       class="st4264"
       id="polygon9_2_" /><polygon
       transform="translate(-256.8736,-423.29999)"
       style="opacity:1;fill:#ffffff"
       points="616.6,746 626.9,740.2 626.9,764.3 616.6,768.1 "
       class="st4262"
       id="polygon11_2_" /><polygon
       transform="translate(-256.8736,-423.29999)"
       style="fill:none;stroke:#1a1631;stroke-width:0.23999999"
       points="616.6,746 626.9,740.2 626.9,764.3 616.6,768.1 "
       class="st4264"
       id="polygon13_2_" /><polygon
       transform="translate(-256.8736,-423.29999)"
       style="opacity:1;fill:#ffffff"
       points="734.1,672.5 589,606.3 589,630.8 734.1,697.4 "
       class="st4262"
       id="polygon15_2_" /><polygon
       transform="translate(-256.8736,-423.29999)"
       style="fill:none;stroke:#1a1631;stroke-width:0.23999999"
       points="734.1,672.5 589,606.3 589,630.8 734.1,697.4 "
       class="st4264"
       id="polygon17_2_" /><polygon
       transform="translate(-256.8736,-423.29999)"
       style="opacity:1;fill:#ffffff"
       points="619.3,529.3 850,630.3 850,608 618.4,510.4 "
       class="st4262"
       id="polygon19_2_" /><polygon
       transform="translate(-256.8736,-423.29999)"
       style="fill:none;stroke:#1a1631;stroke-width:0.23999999"
       points="619.3,529.3 850,630.3 850,608 618.4,510.4 "
       class="st4264"
       id="polygon21_2_" /><polygon
       transform="translate(-256.8736,-423.29999)"
       style="opacity:1;fill:#ffffff"
       points="734.3,697.4 734.3,672.2 649.6,720.4 672.1,731.8 "
       class="st4262"
       id="polygon23_2_" /><polygon
       transform="translate(-256.8736,-423.29999)"
       style="fill:none;stroke:#1a1631;stroke-width:0.23999999"
       points="734.3,697.4 734.3,672.2 649.6,720.4 672.1,731.8 "
       class="st4264"
       id="polygon25_2_" /><polygon
       transform="translate(-256.8736,-423.29999)"
       style="opacity:1;fill:#ffffff"
       points="1296.4,581.5 1081.7,486.1 1081.7,507.3 1296.4,601.6 "
       class="st4262"
       id="polygon27_2_" /><polygon
       transform="translate(-256.8736,-423.29999)"
       style="fill:none;stroke:#1a1631;stroke-width:0.23999999"
       points="1296.4,581.5 1081.7,486.1 1081.7,507.3 1296.4,601.6 "
       class="st4264"
       id="polygon29_2_" /><polygon
       transform="translate(-256.8736,-423.29999)"
       style="opacity:1;fill:#ffffff"
       points="426.2,746.7 274.9,654 274.9,685.4 426.2,776.1 "
       class="st4262"
       id="polygon31_2_" /><polygon
       transform="translate(-256.8736,-423.29999)"
       style="fill:none;stroke:#1a1631;stroke-width:0.23999999"
       points="426.2,746.7 274.9,654 274.9,685.4 426.2,776.1 "
       class="st4264"
       id="polygon33_2_" /><polygon
       transform="translate(-256.8736,-423.29999)"
       style="opacity:1;fill:#ffffff"
       points="718.5,820.1 524.3,725.1 524.3,699.9 718.3,796.2 "
       class="st4262"
       id="polygon35_2_" /><polygon
       transform="translate(-256.8736,-423.29999)"
       style="fill:none;stroke:#1a1631;stroke-width:0.23999999"
       points="718.5,820.1 524.3,725.1 524.3,699.9 718.3,796.2 "
       class="st4264"
       id="polygon37_2_" /><polygon
       transform="translate(-256.8736,-423.29999)"
       style="opacity:1;fill:#ffffff"
       points="657.4,661.8 657.4,638.8 580.1,681.8 602.6,693 "
       class="st4262"
       id="polygon39_2_" /><polygon
       transform="translate(-256.8736,-423.29999)"
       style="fill:none;stroke:#1a1631;stroke-width:0.23999999"
       points="657.4,661.8 657.4,638.8 580.1,681.8 602.6,693 "
       class="st4264"
       id="polygon41_2_" /><path
       style="opacity:1;fill:#ffffff"
       d="m 506.6264,517.80001 59.3,27.4 8.5,-16.3 -67.8,-32.1 0,21 z m -74,-55.7 -56.6,-26.8 0,21.8 56.6,26.3 0,-21.3 z"
       class="st4262"
       id="path43_2_" /><path
       style="fill:none;stroke:#1a1631;stroke-width:0.23999999"
       d="m 506.6264,517.80001 59.3,27.4 8.5,-16.3 -67.8,-32.1 0,21 z m -74,-55.7 -56.6,-26.8 0,21.8 56.6,26.3 0,-21.3 z"
       class="st4264"
       id="path45_2_" /><polygon
       transform="translate(-256.8736,-423.29999)"
       style="opacity:1;fill:#ffffff"
       points="1015.9,963.4 948.4,932.9 949,952 1015.9,984.4 "
       class="st4262"
       id="polygon47_2_" /><polygon
       transform="translate(-256.8736,-423.29999)"
       style="fill:none;stroke:#1a1631;stroke-width:0.23999999"
       points="1015.9,963.4 948.4,932.9 949,952 1015.9,984.4 "
       class="st4264"
       id="polygon49_2_" /><polygon
       transform="translate(-256.8736,-423.29999)"
       style="opacity:1;fill:#ffffff"
       points="1028.2,893 982,869.5 982.5,893.4 1028.2,916.6 "
       class="st4262"
       id="polygon51_2_" /><polygon
       transform="translate(-256.8736,-423.29999)"
       style="fill:none;stroke:#1a1631;stroke-width:0.23999999"
       points="1028.2,893 982,869.5 982.5,893.4 1028.2,916.6 "
       class="st4264"
       id="polygon53_2_" /><polygon
       transform="translate(-256.8736,-423.29999)"
       style="opacity:1;fill:#ffffff"
       points="1460.2,635.7 1327.8,568.4 1327.8,585.5 1445.7,645.7 "
       class="st4265"
       id="polygon55_2_" /><polygon
       transform="translate(-256.8736,-423.29999)"
       style="fill:none;stroke:#1a1631;stroke-width:0.23999999"
       points="1460.2,635.7 1327.8,568.4 1327.8,585.5 1445.7,645.7 "
       class="st4264"
       id="polygon57_2_" /><polygon
       transform="translate(-256.8736,-423.29999)"
       style="opacity:1;fill:#ffffff"
       points="1389.6,667.1 1334.9,639.9 1334.9,660 1389.6,687.9 "
       class="st4262"
       id="polygon59_2_" /><polygon
       transform="translate(-256.8736,-423.29999)"
       style="fill:none;stroke:#1a1631;stroke-width:0.23999999"
       points="1389.6,667.1 1334.9,639.9 1334.9,660 1389.6,687.9 "
       class="st4264"
       id="polygon61_2_" /><polygon
       transform="translate(-256.8736,-423.29999)"
       style="opacity:1;fill:#ffffff"
       points="746.4,762.3 496.5,638.4 496.5,663.3 746.4,785.3 "
       class="st4262"
       id="polygon63_2_" /><polygon
       transform="translate(-256.8736,-423.29999)"
       style="fill:none;stroke:#1a1631;stroke-width:0.23999999"
       points="746.4,762.3 496.5,638.4 496.5,663.3 746.4,785.3 "
       class="st4264"
       id="polygon65_2_" /><polygon
       transform="translate(-256.8736,-423.29999)"
       style="opacity:1;fill:#ffffff"
       points="718.5,820.1 718.3,796.2 632.9,858.6 651.9,867.1 "
       class="st4262"
       id="polygon67_2_" /><polygon
       transform="translate(-256.8736,-423.29999)"
       style="fill:none;stroke:#1a1631;stroke-width:0.23999999"
       points="718.5,820.1 718.3,796.2 632.9,858.6 651.9,867.1 "
       class="st4264"
       id="polygon69_2_" /><polygon
       transform="translate(-256.8736,-423.29999)"
       style="opacity:1;fill:#ffffff"
       points="859.4,951.4 859.4,925.3 805.2,958 805.2,979.2 "
       class="st4262"
       id="polygon71_2_" /><polygon
       transform="translate(-256.8736,-423.29999)"
       style="fill:none;stroke:#1a1631;stroke-width:0.23999999"
       points="859.4,951.4 859.4,925.3 805.2,958 805.2,979.2 "
       class="st4264"
       id="polygon73_2_" /><polygon
       transform="translate(-256.8736,-423.29999)"
       style="opacity:1;fill:#ffffff"
       points="910.7,1010.7 805.2,958.5 805.2,979 910.7,1033.6 "
       class="st4262"
       id="polygon75_2_" /><polygon
       transform="translate(-256.8736,-423.29999)"
       style="fill:none;stroke:#1a1631;stroke-width:0.23999999"
       points="910.7,1010.7 805.2,958.5 805.2,979 910.7,1033.6 "
       class="st4264"
       id="polygon77_2_" /><polygon
       transform="translate(-256.8736,-423.29999)"
       style="opacity:1;fill:#ffffff"
       points="910.7,1033.6 910.7,1010.7 1015.9,963.4 1015.9,984.4 "
       class="st4262"
       id="polygon79_2_" /><polygon
       transform="translate(-256.8736,-423.29999)"
       style="fill:none;stroke:#1a1631;stroke-width:0.23999999"
       points="910.7,1033.6 910.7,1010.7 1015.9,963.4 1015.9,984.4 "
       class="st4264"
       id="polygon81_2_" /><polygon
       transform="translate(-256.8736,-423.29999)"
       style="opacity:1;fill:#ffffff"
       points="969.8,942.7 948.1,932.9 1028.2,893 1028.2,916.6 "
       class="st4262"
       id="polygon83_2_" /><polygon
       transform="translate(-256.8736,-423.29999)"
       style="fill:none;stroke:#1a1631;stroke-width:0.23999999"
       points="969.8,942.7 948.1,932.9 1028.2,893 1028.2,916.6 "
       class="st4264"
       id="polygon85_2_" /><polygon
       transform="translate(-256.8736,-423.29999)"
       style="opacity:1;fill:#ffffff"
       points="997.4,877.3 982,869.5 1082.6,756.7 1334.9,639.9 1334.9,660 1090.8,778.8 "
       class="st4262"
       id="polygon87_2_" /><polygon
       transform="translate(-256.8736,-423.29999)"
       style="fill:none;stroke:#1a1631;stroke-width:0.23999999"
       points="997.4,877.3 982,869.5 1082.6,756.7 1334.9,639.9 1334.9,660 1090.8,778.8 "
       class="st4264"
       id="polygon89_2_" /><polygon
       transform="translate(-256.8736,-423.29999)"
       style="opacity:1;fill:#ffffff"
       points="999,794.9 998.1,770.8 1034.4,730.2 1264,623 1264,643.5 1042.4,752.1 "
       class="st4262"
       id="polygon91_2_" /><polygon
       transform="translate(-256.8736,-423.29999)"
       style="fill:none;stroke:#1a1631;stroke-width:0.23999999"
       points="999,794.9 998.1,770.8 1034.4,730.2 1264,623 1264,643.5 1042.4,752.1 "
       class="st4264"
       id="polygon93_2_" /><polygon
       transform="translate(-256.8736,-423.29999)"
       style="opacity:1;fill:#ffffff"
       points="1389.1,688.5 1389.1,667.8 1459.3,634.6 1459.3,655.5 "
       class="st4262"
       id="polygon95_2_" /><polygon
       transform="translate(-256.8736,-423.29999)"
       style="fill:none;stroke:#1a1631;stroke-width:0.23999999"
       points="1389.1,688.5 1389.1,667.8 1459.3,634.6 1459.3,655.5 "
       class="st4264"
       id="polygon97_2_" /><polygon
       transform="translate(-256.8736,-423.29999)"
       style="opacity:1;fill:#ffffff"
       points="1309.1,595.8 1309.1,575.7 1296.4,582 1296.4,601.6 "
       class="st4262"
       id="polygon99_2_" /><polygon
       transform="translate(-256.8736,-423.29999)"
       style="fill:none;stroke:#1a1631;stroke-width:0.23999999"
       points="1309.1,595.8 1309.1,575.7 1296.4,582 1296.4,601.6 "
       class="st4264"
       id="polygon101_2_" /><polygon
       transform="translate(-256.8736,-423.29999)"
       style="opacity:1;fill:#ffffff"
       points="916,563.5 1005.4,523.1 1007.7,547.6 924.3,588.4 850,629.4 850,608 "
       class="st4262"
       id="polygon103_2_" /><polygon
       transform="translate(-256.8736,-423.29999)"
       style="fill:none;stroke:#1a1631;stroke-width:0.23999999"
       points="916,563.5 1005.4,523.1 1007.7,547.6 924.3,588.4 850,629.4 850,608 "
       class="st4264"
       id="polygon105_2_" /><polygon
       transform="translate(-256.8736,-423.29999)"
       style="opacity:1;fill:#ffffff"
       points="619.3,529.3 618.4,510.4 274.9,654 304.3,672 "
       class="st4262"
       id="polygon107_2_" /><polygon
       transform="translate(-256.8736,-423.29999)"
       style="fill:none;stroke:#1a1631;stroke-width:0.23999999"
       points="619.3,529.3 618.4,510.4 274.9,654 304.3,672 "
       class="st4264"
       id="polygon109_2_" /><polygon
       transform="translate(-256.8736,-423.29999)"
       style="opacity:1;fill:#ffffff"
       points="524.3,725.1 524.3,699.9 426.2,746.7 426.2,776.1 "
       class="st4262"
       id="polygon111_2_" /><polygon
       transform="translate(-256.8736,-423.29999)"
       style="fill:none;stroke:#1a1631;stroke-width:0.23999999"
       points="524.3,725.1 524.3,699.9 426.2,746.7 426.2,776.1 "
       class="st4264"
       id="polygon113_2_" /><polygon
       transform="translate(-256.8736,-423.29999)"
       style="opacity:1;fill:#ffffff"
       points="537.3,658.4 515.4,647.5 589.2,606.7 589.2,631.9 "
       class="st4262"
       id="polygon115_2_" /><polygon
       transform="translate(-256.8736,-423.29999)"
       style="fill:none;stroke:#1a1631;stroke-width:0.23999999"
       points="537.3,658.4 515.4,647.5 589.2,606.7 589.2,631.9 "
       class="st4264"
       id="polygon117_2_" /><polygon
       transform="translate(-256.8736,-423.29999)"
       style="opacity:1;fill:#ffffff"
       points="645.8,722.4 656.1,716.4 656.1,740.5 645.8,747.6 "
       class="st4262"
       id="polygon119_2_" /><polygon
       transform="translate(-256.8736,-423.29999)"
       style="fill:none;stroke:#1a1631;stroke-width:0.23999999"
       points="645.8,722.4 656.1,716.4 656.1,740.5 645.8,747.6 "
       class="st4264"
       id="polygon121_2_" /><polygon
       transform="translate(-256.8736,-423.29999)"
       style="opacity:1;fill:#ffffff"
       points="856.5,750.7 857.4,729.3 834.2,715 746.4,762.3 746.4,785.3 834.2,738 "
       class="st4262"
       id="polygon123_2_" /><polygon
       transform="translate(-256.8736,-423.29999)"
       style="fill:none;stroke:#1a1631;stroke-width:0.23999999"
       points="856.5,750.7 857.4,729.3 834.2,715 746.4,762.3 746.4,785.3 834.2,738 "
       class="st4264"
       id="polygon125_2_" /><polygon
       transform="translate(-256.8736,-423.29999)"
       style="opacity:1;fill:#ffffff"
       points="1047.6,665.3 916.7,604.3 903.8,610.3 1036,667.3 "
       class="st4262"
       id="polygon127_2_" /><polygon
       transform="translate(-256.8736,-423.29999)"
       style="fill:none;stroke:#1a1631;stroke-width:0.47999999"
       points="1047.6,665.3 916.7,604.3 903.8,610.3 1036,667.3 "
       class="st4266"
       id="polygon129_2_" /><path
       style="opacity:1;fill:#ffffff"
       d="m 644.6264,180.90001 -13.2,5.4 137.6,62.2 10,-4.5 c 0.7,0.9 -134.4,-63.1 -134.4,-63.1"
       class="st4262"
       id="path139_2_" /><path
       style="fill:none;stroke:#1a1631;stroke-width:0.47999999"
       d="m 644.6264,180.90001 -13.2,5.4 137.6,62.2 10,-4.5 c 0.7,0.9 -134.4,-63.1 -134.4,-63.1 l 0,0 z"
       class="st4266"
       id="path141_2_" /><polygon
       transform="translate(-256.8736,-423.29999)"
       style="opacity:1;fill:#ffffff"
       points="1013.2,662.2 885,604.3 866.5,613.2 1001.9,672.9 "
       class="st4262"
       id="polygon143_2_" /><polygon
       transform="translate(-256.8736,-423.29999)"
       style="fill:none;stroke:#1a1631;stroke-width:0.47999999"
       points="1013.2,662.2 885,604.3 866.5,613.2 1001.9,672.9 "
       class="st4266"
       id="polygon145_2_" /><polygon
       transform="translate(-256.8736,-423.29999)"
       style="opacity:1;fill:#ffffff"
       points="1001.9,667.3 868.1,604.3 855.4,610.3 991.6,671.8 "
       class="st4262"
       id="polygon147_2_" /><polygon
       transform="translate(-256.8736,-423.29999)"
       style="fill:none;stroke:#1a1631;stroke-width:0.47999999"
       points="1001.9,667.3 868.1,604.3 855.4,610.3 991.6,671.8 "
       class="st4266"
       id="polygon149_2_" /><polygon
       transform="translate(-256.8736,-423.29999)"
       style="opacity:1;fill:#ffffff"
       points="980.9,662.2 852.7,605.1 799.2,630.3 928.7,684.5 "
       class="st4262"
       id="polygon151_2_" /><polygon
       transform="translate(-256.8736,-423.29999)"
       style="fill:none;stroke:#1a1631;stroke-width:0.47999999"
       points="980.9,662.2 852.7,605.1 799.2,630.3 928.7,684.5 "
       class="st4266"
       id="polygon153_2_" /><polygon
       transform="translate(-256.8736,-423.29999)"
       style="opacity:1;fill:#ffffff"
       points="940.6,683.2 806.1,622.5 796.1,626.5 930.3,687.6 "
       class="st4262"
       id="polygon155_2_" /><polygon
       transform="translate(-256.8736,-423.29999)"
       style="fill:none;stroke:#1a1631;stroke-width:0.47999999"
       points="940.6,683.2 806.1,622.5 796.1,626.5 930.3,687.6 "
       class="st4266"
       id="polygon157_2_" /><polygon
       transform="translate(-256.8736,-423.29999)"
       style="opacity:1;fill:#ffffff"
       points="918,681.4 789.4,622.1 778.3,627.7 906.4,683.4 "
       class="st4262"
       id="polygon159_2_" /><polygon
       transform="translate(-256.8736,-423.29999)"
       style="fill:none;stroke:#1a1631;stroke-width:0.47999999"
       points="918,681.4 789.4,622.1 778.3,627.7 906.4,683.4 "
       class="st4266"
       id="polygon161_2_" /><polygon
       transform="translate(-256.8736,-423.29999)"
       style="opacity:1;fill:#ffffff"
       points="906.4,683.4 772.2,622.1 762,627 896.4,687.9 "
       class="st4262"
       id="polygon163_2_" /><polygon
       transform="translate(-256.8736,-423.29999)"
       style="fill:none;stroke:#1a1631;stroke-width:0.47999999"
       points="906.4,683.4 772.2,622.1 762,627 896.4,687.9 "
       class="st4266"
       id="polygon165_2_" /><polygon
       transform="translate(-256.8736,-423.29999)"
       style="opacity:1;fill:#ffffff"
       points="883.7,678.3 756.2,622.1 739.7,628.3 872.1,689 "
       class="st4262"
       id="polygon167_2_" /><polygon
       transform="translate(-256.8736,-423.29999)"
       style="fill:none;stroke:#1a1631;stroke-width:0.47999999"
       points="883.7,678.3 756.2,622.1 739.7,628.3 872.1,689 "
       class="st4266"
       id="polygon169_2_" /><polygon
       transform="translate(-256.8736,-423.29999)"
       style="opacity:1;fill:#ffffff"
       points="872.1,683.4 737.7,622.8 727.9,627 862.1,687.9 "
       class="st4262"
       id="polygon171_2_" /><polygon
       transform="translate(-256.8736,-423.29999)"
       style="fill:none;stroke:#1a1631;stroke-width:0.47999999"
       points="872.1,683.4 737.7,622.8 727.9,627 862.1,687.9 "
       class="st4266"
       id="polygon173_2_" /><polygon
       transform="translate(-256.8736,-423.29999)"
       style="opacity:1;fill:#ffffff"
       points="860.1,672.5 856.5,750.7 1047.6,665.3 980.9,655.3 927.9,678 "
       class="st4262"
       id="polygon175_2_" /><polygon
       transform="translate(-256.8736,-423.29999)"
       style="fill:none;stroke:#1a1631;stroke-width:0.23999999"
       points="860.1,672.5 856.5,750.7 1047.6,665.3 980.9,655.3 927.9,678 "
       class="st4264"
       id="polygon177_2_" /><polygon
       transform="translate(-256.8736,-423.29999)"
       style="opacity:1;fill:#ffffff"
       points="396.4,589.1 396.8,577.9 438.3,598.5 438.3,608.9 "
       class="st4262"
       id="polygon179_2_" /><polygon
       transform="translate(-256.8736,-423.29999)"
       style="fill:none;stroke:#1a1631;stroke-width:0.23999999"
       points="396.4,589.1 396.8,577.9 438.3,598.5 438.3,608.9 "
       class="st4264"
       id="polygon181_2_" /><polygon
       transform="translate(-256.8736,-423.29999)"
       style="opacity:1;fill:#ffffff"
       points="396.8,577.9 408.9,573.3 448.8,595.3 441.9,600 "
       class="st4262"
       id="polygon183_2_" /><polygon
       transform="translate(-256.8736,-423.29999)"
       style="fill:none;stroke:#1a1631;stroke-width:0.23999999"
       points="396.8,577.9 408.9,573.3 448.8,595.3 441.9,600 "
       class="st4264"
       id="polygon185_2_" /><polygon
       transform="translate(-256.8736,-423.29999)"
       style="opacity:1;fill:#ffffff"
       points="405.1,574.8 405.1,565 450.3,585.7 448.8,595.3 "
       class="st4262"
       id="polygon187_2_" /><polygon
       transform="translate(-256.8736,-423.29999)"
       style="fill:none;stroke:#1a1631;stroke-width:0.23999999"
       points="405.1,574.8 405.1,565 450.3,585.7 448.8,595.3 "
       class="st4264"
       id="polygon189_2_" /><polygon
       transform="translate(-256.8736,-423.29999)"
       style="opacity:1;fill:#ffffff"
       points="405.1,565 417.1,560.6 459.5,580.4 450.3,585.7 "
       class="st4262"
       id="polygon191_2_" /><polygon
       transform="translate(-256.8736,-423.29999)"
       style="fill:none;stroke:#1a1631;stroke-width:0.23999999"
       points="405.1,565 417.1,560.6 459.5,580.4 450.3,585.7 "
       class="st4264"
       id="polygon193_2_" /><polygon
       transform="translate(-256.8736,-423.29999)"
       style="opacity:1;fill:#ffffff"
       points="417.1,560.6 417.1,551.4 459.2,569.9 459.2,580.4 "
       class="st4262"
       id="polygon195_2_" /><polygon
       transform="translate(-256.8736,-423.29999)"
       style="fill:none;stroke:#1a1631;stroke-width:0.23999999"
       points="417.1,560.6 417.1,551.4 459.2,569.9 459.2,580.4 "
       class="st4264"
       id="polygon197_2_" /><polygon
       transform="translate(-256.8736,-423.29999)"
       style="opacity:1;fill:#ffffff"
       points="352.7,634.3 365.2,628.3 408.2,650.2 398.2,655.3 "
       class="st4262"
       id="polygon199_2_" /><polygon
       transform="translate(-256.8736,-423.29999)"
       style="fill:none;stroke:#1a1631;stroke-width:0.23999999"
       points="352.7,634.3 365.2,628.3 408.2,650.2 398.2,655.3 "
       class="st4264"
       id="polygon201_2_" /><polygon
       transform="translate(-256.8736,-423.29999)"
       style="opacity:1;fill:#ffffff"
       points="361.4,630.1 361.4,620.1 408.2,641.9 408.2,650.6 "
       class="st4262"
       id="polygon203_2_" /><polygon
       transform="translate(-256.8736,-423.29999)"
       style="fill:none;stroke:#1a1631;stroke-width:0.23999999"
       points="361.4,630.1 361.4,620.1 408.2,641.9 408.2,650.6 "
       class="st4264"
       id="polygon205_2_" /><polygon
       transform="translate(-256.8736,-423.29999)"
       style="opacity:1;fill:#ffffff"
       points="361.4,620.1 373.4,615.6 416.9,637.5 408.4,641.7 "
       class="st4262"
       id="polygon207_2_" /><polygon
       transform="translate(-256.8736,-423.29999)"
       style="fill:none;stroke:#1a1631;stroke-width:0.23999999"
       points="361.4,620.1 373.4,615.6 416.9,637.5 408.4,641.7 "
       class="st4264"
       id="polygon209_2_" /><polygon
       transform="translate(-256.8736,-423.29999)"
       style="opacity:1;fill:#ffffff"
       points="373.4,615.6 373.9,606.9 416.9,628.1 416.9,637.5 "
       class="st4262"
       id="polygon211_2_" /><polygon
       transform="translate(-256.8736,-423.29999)"
       style="fill:none;stroke:#1a1631;stroke-width:0.23999999"
       points="373.4,615.6 373.9,606.9 416.9,628.1 416.9,637.5 "
       class="st4264"
       id="polygon213_2_" /><polygon
       transform="translate(-256.8736,-423.29999)"
       style="opacity:1;fill:#ffffff"
       points="340.6,657.8 340.6,647.9 385.9,668.7 384.3,678.3 "
       class="st4262"
       id="polygon215_2_" /><polygon
       transform="translate(-256.8736,-423.29999)"
       style="fill:none;stroke:#1a1631;stroke-width:0.23999999"
       points="340.6,657.8 340.6,647.9 385.9,668.7 384.3,678.3 "
       class="st4264"
       id="polygon217_2_" /><polygon
       transform="translate(-256.8736,-423.29999)"
       style="opacity:1;fill:#ffffff"
       points="340.6,647.9 352.7,643.5 395,663.3 385.9,668.7 "
       class="st4262"
       id="polygon219_2_" /><polygon
       transform="translate(-256.8736,-423.29999)"
       style="fill:none;stroke:#1a1631;stroke-width:0.23999999"
       points="340.6,647.9 352.7,643.5 395,663.3 385.9,668.7 "
       class="st4264"
       id="polygon221_2_" /><polygon
       transform="translate(-256.8736,-423.29999)"
       style="opacity:1;fill:#ffffff"
       points="352.7,643.5 352.7,634.3 395,652.9 395,663.3 "
       class="st4262"
       id="polygon223_2_" /><polygon
       transform="translate(-256.8736,-423.29999)"
       style="fill:none;stroke:#1a1631;stroke-width:0.23999999"
       points="352.7,643.5 352.7,634.3 395,652.9 395,663.3 "
       class="st4264"
       id="polygon225_2_" /><polygon
       transform="translate(-256.8736,-423.29999)"
       style="opacity:1;fill:#ffffff"
       points="373.9,607.1 385.9,602.2 427.8,623.2 417.1,628.3 "
       class="st4262"
       id="polygon227_2_" /><polygon
       transform="translate(-256.8736,-423.29999)"
       style="fill:none;stroke:#1a1631;stroke-width:0.23999999"
       points="373.9,607.1 385.9,602.2 427.8,623.2 417.1,628.3 "
       class="st4264"
       id="polygon229_2_" /><polygon
       transform="translate(-256.8736,-423.29999)"
       style="opacity:1;fill:#ffffff"
       points="384.3,603.4 384.3,593.5 428,613.4 428,623.6 "
       class="st4262"
       id="polygon231_2_" /><polygon
       transform="translate(-256.8736,-423.29999)"
       style="fill:none;stroke:#1a1631;stroke-width:0.23999999"
       points="384.3,603.4 384.3,593.5 428,613.4 428,623.6 "
       class="st4264"
       id="polygon233_2_" /><polygon
       transform="translate(-256.8736,-423.29999)"
       style="opacity:1;fill:#ffffff"
       points="384.3,593.5 396.4,589.1 438.1,608.7 428,613.6 "
       class="st4262"
       id="polygon235_2_" /><polygon
       transform="translate(-256.8736,-423.29999)"
       style="fill:none;stroke:#1a1631;stroke-width:0.23999999"
       points="384.3,593.5 396.4,589.1 438.1,608.7 428,613.6 "
       class="st4264"
       id="polygon237_2_" /><polygon
       transform="translate(-256.8736,-423.29999)"
       style="opacity:1;fill:#ffffff"
       points="496.5,663.3 496.5,638.4 426.2,644.6 383.4,658.4 383.4,684.5 426.2,668.7 "
       class="st4262"
       id="polygon239_2_" /><polygon
       transform="translate(-256.8736,-423.29999)"
       style="fill:none;stroke:#1a1631;stroke-width:0.23999999"
       points="496.5,663.3 496.5,638.4 426.2,644.6 383.4,658.4 383.4,684.5 426.2,668.7 "
       class="st4264"
       id="polygon241_2_" /><path
       style="fill:url(#radialGradient4315);fill-rule:evenodd;stroke:none;stroke-width:1px;stroke-linecap:butt;stroke-linejoin:miter;stroke-opacity:1;fill-opacity:1"
       d="m 424.04832,104.95733 -175.62402,87.41347 -54.99875,-30.55486 25.22991,-23.5934 -38.38111,-17.05002 -32.95851,38.77249 1.79538,69.53642 93.65338,0.0189 184.00513,0.44022 -1.00938,-89.64584 z"
       id="path4306" /><g
       transform="translate(-256.8736,-423.29999)"
       style="opacity:1"
       class="st694"
       id="polygon243_2_"><g
         id="g180"><polygon
           style="fill:#6fb8c5;fill-opacity:1"
           id="polygon182"
           points="459.2,569.9 415.8,593.3 450.1,610.9 498,634.1 685.5,535.1 554.7,484.5 395,542.7 417.1,551.4 "
           class="st4252" /></g></g><path
       style="fill:#d23326"
       d="m 180.7264,98.600007 c 0,0 34.6,17.800003 35.7,17.800003 1.1,0 27.6,-7.1 27.6,-7.1 l 29.2,-16.700003 67.1,27.200003 38.6,17.2 35.7,-26.8 -7.8,-16.100003 c 0,0 -117.3,-40.6 -118.4,-40.6 -1.1,0 -107.7,45.1 -107.7,45.1"
       class="st4263"
       id="path253_2_" /><polygon
       transform="translate(-256.8736,-423.29999)"
       style="opacity:1;fill:#ffffff"
       points="554,485 554,462.9 395,522 395,542.9 "
       class="st4262"
       id="polygon255_2_" /><polygon
       transform="translate(-256.8736,-423.29999)"
       style="fill:none;stroke:#1a1631;stroke-width:0.23999999"
       points="554,485 554,462.9 395,522 395,542.9 "
       class="st4264"
       id="polygon257_2_" /><polygon
       transform="translate(-256.8736,-423.29999)"
       style="opacity:1;fill:#ffffff"
       points="687.3,515.7 554,462.7 554,485 661.4,528.7 "
       class="st4262"
       id="polygon259_2_" /><polygon
       transform="translate(-256.8736,-423.29999)"
       style="fill:none;stroke:#1a1631;stroke-width:0.23999999"
       points="687.3,515.7 554,462.7 554,485 661.4,528.7 "
       class="st4264"
       id="polygon261_2_" /><polygon
       transform="translate(-256.8736,-423.29999)"
       style="opacity:1;fill:#ffffff"
       points="630,544.5 503.2,482.3 503.2,503.7 630,568.8 "
       class="st4262"
       id="polygon263_2_" /><polygon
       transform="translate(-256.8736,-423.29999)"
       style="fill:none;stroke:#1a1631;stroke-width:0.23999999"
       points="630,544.5 503.2,482.3 503.2,503.7 630,568.8 "
       class="st4264"
       id="polygon265_2_" /><polygon
       transform="translate(-256.8736,-423.29999)"
       style="opacity:1;fill:#ffffff"
       points="498,634.1 499.4,610.9 687.3,515.7 685.7,539.8 "
       class="st4262"
       id="polygon267_2_" /><polygon
       transform="translate(-256.8736,-423.29999)"
       style="fill:none;stroke:#1a1631;stroke-width:0.23999999"
       points="498,634.1 499.4,610.9 687.3,515.7 685.7,539.8 "
       class="st4264"
       id="polygon269_2_" /><polygon
       transform="translate(-256.8736,-423.29999)"
       style="fill:#d29839"
       points="482,580.4 472.8,575.7 460.6,583.3 456.6,580.8 444.8,596.7 475.5,589.3 469.5,587.3 "
       class="st4257"
       id="polygon271_2_" /><polygon
       transform="translate(-256.8736,-423.29999)"
       style="opacity:1;fill:#ffffff"
       points="478.2,529.6 433.6,507.9 433.6,528.2 478.2,551.9 "
       class="st4262"
       id="polygon273_2_" /><polygon
       transform="translate(-256.8736,-423.29999)"
       style="fill:none;stroke:#1a1631;stroke-width:0.23999999"
       points="478.2,529.6 433.6,507.9 433.6,528.2 478.2,551.9 "
       class="st4264"
       id="polygon275_2_" /><polygon
       transform="translate(-256.8736,-423.29999)"
       style="opacity:1;fill:#ffffff"
       points="572,538.9 563.6,534.7 563.6,522.7 572,526.2 "
       class="st4262"
       id="polygon277_2_" /><polygon
       transform="translate(-256.8736,-423.29999)"
       style="fill:none;stroke:#1a1631;stroke-width:0.47999999"
       points="572,538.9 563.6,534.7 563.6,522.7 572,526.2 "
       class="st4266"
       id="polygon279_2_" /><polygon
       transform="translate(-256.8736,-423.29999)"
       style="opacity:1;fill:#ffffff"
       points="539.7,522 539.7,499.9 478.2,529.6 478.2,551.9 "
       class="st4262"
       id="polygon281_2_" /><polygon
       transform="translate(-256.8736,-423.29999)"
       style="fill:none;stroke:#1a1631;stroke-width:0.23999999"
       points="539.7,522 539.7,499.9 478.2,529.6 478.2,551.9 "
       class="st4264"
       id="polygon283_2_" /><polygon
       transform="translate(-256.8736,-423.29999)"
       style="opacity:1;fill:#ffffff"
       points="566,696.5 555.1,691.2 555.1,674.5 566,680 "
       class="st4262"
       id="polygon285_2_" /><polygon
       transform="translate(-256.8736,-423.29999)"
       style="fill:none;stroke:#1a1631;stroke-width:0.47999999"
       points="566,696.5 555.1,691.2 555.1,674.5 566,680 "
       class="st4266"
       id="polygon287_2_" /><polygon
       transform="translate(-256.8736,-423.29999)"
       style="opacity:1;fill:#ffffff"
       points="628,727.5 617.3,722.2 617.3,705.5 628,711 "
       class="st4262"
       id="polygon289_2_" /><polygon
       transform="translate(-256.8736,-423.29999)"
       style="fill:none;stroke:#1a1631;stroke-width:0.47999999"
       points="628,727.5 617.3,722.2 617.3,705.5 628,711 "
       class="st4266"
       id="polygon291_2_" /><polygon
       transform="translate(-256.8736,-423.29999)"
       style="opacity:1;fill:#ffffff"
       points="519.7,519.3 509,523.8 509,536.7 519.7,531.8 "
       class="st4262"
       id="polygon293_2_" /><polygon
       transform="translate(-256.8736,-423.29999)"
       style="fill:none;stroke:#1a1631;stroke-width:0.47999999"
       points="519.7,519.3 509,523.8 509,536.7 519.7,531.8 "
       class="st4266"
       id="polygon295_2_" /><rect
       style="fill:#401225"
       height="19.799999"
       width="103.7"
       class="st4259"
       y="129.5"
       x="165.6264"
       id="rect459_2_" /><g
       transform="translate(-256.8736,-423.29999)"
       id="g369"><path
         style="fill:#f6f6f6"
         id="path371"
         d="m 435.2,558.8 -0.2,-2.2 2.7,0 0.2,2.2 0,12.2 -2.7,0 0,-12.2 z"
         class="st4183" /><path
         style="fill:#f6f6f6"
         id="path373"
         d="m 440.5,558.8 -0.2,-2.2 2.7,0 0.2,2.2 0,8.4 -2.7,0 0,-8.4 z"
         class="st4183" /><path
         style="fill:#f6f6f6"
         id="path375"
         d="m 445.7,558.8 -0.2,-2.2 2.7,0 0.2,2.2 0,2.9 0,1.2 -2.7,0.5 0,-4.6 z"
         class="st4183" /><path
         style="fill:#f6f6f6"
         id="path377"
         d="m 458.5,556.7 0,2.2 -3.3,8.4 -2.7,0 3.3,-8.6 -5.4,0 0,-4.7 2.4,0 0,2.7 5.7,0 z"
         class="st4183" /><path
         style="fill:#f6f6f6"
         id="path379"
         d="m 469.5,556.7 c 0,2.5 -0.1,4.3 -0.3,5.6 -0.2,1.3 -0.7,2.3 -1.4,3.2 -0.8,0.9 -2,1.5 -3.7,1.8 l -4,0.8 -0.4,-2.1 3,-0.6 -2.1,-8.7 2.7,0 1.9,8.1 c 0.6,-0.3 1,-0.7 1.2,-1.2 0.2,-0.6 0.4,-1.2 0.5,-2 0.1,-0.8 0.1,-2 0.1,-3.6 l 0,-1.2 2.5,0 z"
         class="st4183" /><path
         style="fill:#f6f6f6"
         id="path381"
         d="m 483.2,565.9 c -1.4,1 -3.5,1.5 -6.3,1.6 l -1,-8.8 -0.3,-2 5.7,0 c 1.2,0 2.2,0.3 2.8,1 0.6,0.7 1,1.6 1.1,2.8 l 0,0.6 c 0.2,2.2 -0.5,3.8 -2,4.8 z m -1.8,-1.4 c 0.5,-0.3 0.8,-0.7 1,-1.3 0.2,-0.6 0.3,-1.3 0.3,-2.2 l 0,-0.6 c 0,-0.6 -0.1,-1 -0.4,-1.4 -0.3,-0.3 -0.6,-0.5 -1.1,-0.5 l -2.6,0 0.7,6.4 c 0.9,0.1 1.6,-0.1 2.1,-0.4 z"
         class="st4183" /><path
         style="fill:#f6f6f6"
         id="path383"
         d="m 495.3,556.7 0,2.2 -3.3,8.4 -2.7,0 3.3,-8.6 -5.4,0 0,-4.7 2.4,0 0,2.7 5.7,0 z"
         class="st4183" /><path
         style="fill:#f6f6f6"
         id="path385"
         d="m 497.3,565.3 3.8,0 c 0.7,0 1.3,-0.2 1.7,-0.7 0.4,-0.5 0.6,-1.1 0.6,-1.9 l 0,-1.4 c 0,-0.8 -0.2,-1.4 -0.5,-1.9 -0.4,-0.5 -0.9,-0.7 -1.6,-0.7 l -1.3,0 -0.3,1.6 c 0,0.2 -0.1,0.3 -0.1,0.5 0,0.3 0.1,0.5 0.3,0.7 0.2,0.2 0.5,0.3 0.9,0.4 l -0.4,1.7 c -1.1,0 -1.9,-0.3 -2.4,-0.7 -0.5,-0.4 -0.7,-1.1 -0.7,-1.9 0,-0.3 0,-0.6 0.1,-0.8 l 0.7,-3.3 3.9,0 c 1.3,0 2.3,0.4 3,1.3 0.7,0.9 1.1,2 1.1,3.5 l 0,1.1 c 0,1.5 -0.4,2.7 -1.2,3.5 -0.8,0.8 -1.8,1.3 -3.2,1.3 l -4.4,0 0,-2.3 z"
         class="st4183" /><path
         style="fill:#f6f6f6"
         id="path387"
         d="m 517.2,566 c -0.8,1 -1.9,1.5 -3.4,1.5 -0.5,0 -1.1,-0.1 -1.7,-0.2 l 0.2,-2 c 0.5,0.1 0.8,0.1 1.2,0.1 0.8,0 1.4,-0.3 1.8,-0.8 0.4,-0.6 0.5,-1.4 0.5,-2.5 0,-1.2 -0.2,-2.1 -0.5,-2.7 -0.3,-0.6 -0.9,-0.8 -1.6,-0.8 -0.5,0 -0.9,0.1 -1.3,0.4 -0.3,0.3 -0.6,0.7 -0.6,1.2 l -1.2,7 -2.6,0 1.3,-7.2 -1.5,-3.5 2.8,0 0.7,2.1 c 0.3,-0.8 0.7,-1.3 1.2,-1.7 0.5,-0.4 1.1,-0.6 1.8,-0.6 1.3,0 2.3,0.5 3,1.4 0.7,0.9 1,2.3 1,4.1 0.1,1.9 -0.3,3.2 -1.1,4.2 z"
         class="st4183" /></g></g></svg>