<?xml version="1.0" encoding="UTF-8" standalone="no"?>
<svg
   xmlns:dc="http://purl.org/dc/elements/1.1/"
   xmlns:cc="http://creativecommons.org/ns#"
   xmlns:rdf="http://www.w3.org/1999/02/22-rdf-syntax-ns#"
   xmlns:svg="http://www.w3.org/2000/svg"
   xmlns="http://www.w3.org/2000/svg"
   version="1.1"
   id="svg3867"
   viewBox="0 0 147.40003 114.49996"
   height="114.49995"
   width="147.40002">
  <defs
     id="defs3869" />
  <metadata
     id="metadata3872">
    <rdf:RDF>
      <cc:Work
         rdf:about="">
        <dc:format>image/svg+xml</dc:format>
        <dc:type
           rdf:resource="http://purl.org/dc/dcmitype/StillImage" />
        <dc:title></dc:title>
      </cc:Work>
    </rdf:RDF>
  </metadata>
  <path
     style="fill:#e04c26;fill-opacity:1"
     d="m 95.40014,69.899965 c 0,11.8 -21.7,44.599995 -21.7,44.599995 0,0 -21.7,-32.799995 -21.7,-44.599995 0,-11.8 9.7,-21.70001 21.7,-21.70001 11.8,0 21.7,9.90001 21.7,21.70001"
     class="st19"
     id="path355_7_" />
  <path
     style="fill:#ffffff;enable-background:new"
     d="m 60.90014,85.899965 c 0,1 0.3,1.4 1.4,1.4 1,0 1.4,-0.3 1.4,-1.4 l 0,-12.5 1.4,0 0,12.5 c 0,1 0.3,1.4 1.4,1.4 1.1,0 1.4,-0.3 1.4,-1.4 l 0,-21.3 0.7,0 0,7.7 c 0,0.3 0,0.7 0.3,1 0.3,0.3 0.7,0.3 1,0 0.3,-0.3 0.7,-0.7 0.7,-1 l 0,-8.4 c 0,-1 -0.3,-1.7 -1,-2.1 -0.7,-0.3 -1.4,-0.7 -2.4,-0.7 l -5.6,0 c -1,0 -1.7,0.3 -2.4,0.7 -0.7,0.3 -1,1 -1,2.1 l 0,8.7 c 0,0.3 0.3,0.7 0.7,0.7 0.3,0.3 0.7,0.3 1,0 0.3,-0.3 0.3,-0.3 0.3,-0.7 l 0,-8 0.7,0 0,21.2 0,0 z"
     class="st18"
     id="path357_7_" />
  <path
     style="fill:#ffffff;enable-background:new"
     d="m 88.00014,75.699965 -3.9,-11.1 0,0 c 0,-0.3 0,-0.3 0.3,-0.3 0,0 0.3,0 0.3,0.3 l 2.9,7 c 0.3,0.3 0.7,0.7 1.4,0.7 0.3,0 0.3,-0.3 0.7,-0.7 0,-0.3 0,-0.7 0,-0.7 l -2.9,-7 c 0,-0.7 -0.3,-1.4 -1,-2.1 -0.7,-0.7 -1.4,-0.7 -2.4,-0.7 l -3.4,0 c -1,0 -1.7,0.3 -2.4,1 -0.7,0.7 -1,1.4 -1.4,2.1 l -2.4,7 c 0,0 0,0.3 0,0.7 0,0.3 0.3,0.7 0.7,0.7 0.7,0 1.4,-0.3 1.4,-0.7 l 2.9,-7.3 c 0,0 0,-0.3 0.3,-0.3 0.3,0 0.3,0 0.3,0.3 l 0,0 -3.9,11.1 0,0.7 c 0,0 0,0.3 0.3,0.3 0.3,0.3 0.3,0.3 0.3,0.3 l 2.4,0 0,8.7 c 0,0.3 0,0.7 0.3,1 0.3,0.3 0.7,0.3 1,0.3 0.3,0 0.7,0 1,-0.3 0.3,-0.3 0.3,-0.7 0.3,-1 l 0,-8.7 c 0,0 0,0 0.3,0 0.3,0 0.3,0 0.7,0 0.4,0 0.3,0 0.3,0 l 0,8.7 c 0,0.3 0,0.7 0.3,1 0.3,0.3 0.7,0.3 1,0.3 0.3,0 0.7,0 1,-0.3 0.3,-0.3 0.3,-0.7 0.3,-1 l 0,-8.4 2.4,0 c 0,0 0.3,0 0.3,-0.3 0.3,-0.3 0.3,-0.3 0.3,-0.3 l 0,-1 0,0 z"
     class="st18"
     id="path359_7_" />
  <path
     style="fill:#ffffff;enable-background:new"
     d="m 61.60014,57.399965 c 0,0.7 0.3,1.4 0.7,2.1 0.7,0.7 1,0.7 2.1,0.7 0.7,0 1.4,-0.3 2.1,-0.7 0.7,-0.7 0.7,-1.4 0.7,-2.1 0,-0.7 -0.3,-1.4 -0.7,-2.1 -0.7,-0.7 -1,-0.7 -2.1,-0.7 -0.7,0 -1.4,0.3 -2.1,0.7 -0.7,0.6 -0.7,1.3 -0.7,2.1"
     class="st18"
     id="path361_7_" />
  <path
     style="fill:#ffffff;enable-background:new"
     d="m 78.30014,57.399965 c 0,0.7 0.3,1.4 0.7,2.1 0.7,0.7 1,0.7 2.1,0.7 1,0 1.4,-0.3 2.1,-0.7 0.7,-0.7 0.7,-1 0.7,-2.1 0,-0.7 -0.3,-1.4 -0.7,-2.1 -0.7,-0.7 -1,-0.7 -2.1,-0.7 -1,0 -1.4,0.3 -2.1,0.7 -0.4,0.6 -0.7,1.3 -0.7,2.1"
     class="st18"
     id="path363_7_" />
  <rect
     style="fill:#7f0006"
     height="45.300003"
     width="147.30002"
     class="st19"
     y="0"
     x="0.1"
     id="rect475_5_" />
  <g
     transform="translate(-1855.9999,-1355.4)"
     id="g1196">
    <path
       style="fill:#ffffff"
       id="path1198"
       d="m 1878.7,1369.3 14.4,0 0,18 -14.4,0 0,-18 z m 11.5,15.7 0,-13.4 -8.7,0 0,13.4 8.7,0 z"
       class="st21" />
    <path
       style="fill:#ffffff"
       id="path1200"
       d="m 1899.9,1371.6 -3.3,0 0,-2.3 6.1,0 0,10 -2.8,0 0,-7.7 z"
       class="st21" />
    <path
       style="fill:#ffffff"
       id="path1202"
       d="m 1920.7,1371 c 1.2,1.1 1.8,2.9 1.8,5.2 l 0,11.1 -2.8,0 0,-11.3 c 0,-1.6 -0.3,-2.7 -1,-3.4 -0.7,-0.7 -1.7,-1.1 -3.2,-1.1 l -2.6,0 c -0.3,0.6 -0.6,1.3 -0.8,2.1 -0.2,0.9 -0.3,1.7 -0.3,2.7 l 0,6.1 c 0,1.7 -0.4,2.9 -1.2,3.8 -0.8,0.9 -1.9,1.3 -3.4,1.3 -0.4,0 -1,0 -1.8,-0.1 l 0,-2.3 c 0.3,0 0.7,0.1 1.1,0.1 0.9,0 1.5,-0.2 1.9,-0.7 0.4,-0.5 0.6,-1.2 0.6,-2.2 l 0,-5.7 c 0,-0.9 0.1,-1.9 0.4,-2.8 0.2,-0.9 0.6,-1.7 1,-2.2 l -3.4,0 0,-2.3 8.4,0 c 2.3,0 4.1,0.6 5.3,1.7 z"
       class="st21" />
    <path
       style="fill:#ffffff"
       id="path1204"
       d="m 1928.4,1371.6 -2.1,0 0,-2.3 4.9,0 0,18 -2.8,0 0,-15.7 z"
       class="st21" />
    <path
       style="fill:#ffffff"
       id="path1206"
       d="m 1944.2,1374.7 c 0,-1 -0.3,-1.8 -0.9,-2.3 -0.6,-0.6 -1.4,-0.8 -2.4,-0.8 l -6.1,0 0,-2.3 6.1,0 c 1.2,0 2.3,0.2 3.2,0.7 0.9,0.5 1.6,1.1 2.1,1.9 0.5,0.8 0.7,1.9 0.7,3 l 0,12.3 -2.8,0 0,-12.5 z"
       class="st21" />
    <path
       style="fill:#ffffff"
       id="path1208"
       d="m 1953.5,1371.6 -3.3,0 0,-2.3 6.1,0 0,10 -2.8,0 0,-7.7 z"
       class="st21" />
    <path
       style="fill:#ffffff"
       id="path1210"
       d="m 1964.3,1384.1 c 1,0.4 2,0.7 3.1,1 1.1,0.3 2.1,0.4 3.1,0.4 1.5,0 2.8,-0.2 3.9,-0.6 1.1,-0.4 2.1,-1.1 2.7,-1.9 0.7,-0.9 1,-1.9 1,-3.2 l 0,-10.4 2.8,0 0,10.7 c 0,1.7 -0.5,3.1 -1.4,4.3 -0.9,1.2 -2.1,2 -3.7,2.6 -1.6,0.6 -3.3,0.9 -5.2,0.9 -1.5,0 -3,-0.2 -4.6,-0.5 -1.6,-0.3 -3.1,-0.9 -4.5,-1.6 l 0,-16.4 2.8,0 0,14.7 z m 5.2,-3.4 c 0.2,-0.7 0.3,-1.5 0.3,-2.4 l 0,-9 2.8,0 0,8.5 c 0,1 -0.1,1.9 -0.4,2.7 -0.3,0.8 -0.6,1.4 -1.2,2 l -2.4,-0.1 c 0.4,-0.5 0.7,-1 0.9,-1.7 z"
       class="st21" />
  </g>
</svg>
