<?xml version="1.0" encoding="UTF-8" standalone="no"?>
<!-- Created with Inkscape (http://www.inkscape.org/) -->

<svg
   width="152.39999"
   height="144.2"
   viewBox="0 0 40.32199 38.152435"
   version="1.1"
   id="svg2792"
   xmlns="http://www.w3.org/2000/svg"
   xmlns:svg="http://www.w3.org/2000/svg">
  <defs
     id="defs2789" />
  <g
     id="layer1"
     transform="translate(-77.753484,-110.50268)">
    <g
       id="g1948"
       transform="matrix(0.26458,0,0,0.26458,-103.56319,9.8299894)">
      <path
         id="path471_3_"
         d="m 784.7,477.1 c 0,12.7 -23.2,47.6 -23.2,47.6 0,0 -23.2,-34.9 -23.2,-47.6 0,-12.7 10.4,-23.2 23.2,-23.2 12.9,0.3 23.2,10.4 23.2,23.2"
         style="fill:#a22442" />
      <path
         id="path473_3_"
         d="m 761.6,488.8 c -6.5,0 -11.9,-5.3 -11.9,-11.9 0,-6.5 5.3,-11.9 11.9,-11.9 6.6,0 11.9,5.3 11.9,11.9 0,6.6 -5.4,11.9 -11.9,11.9 m 0,-26.3 c -8,0 -14.5,6.5 -14.5,14.5 0,8 6.5,14.5 14.5,14.5 8,0 14.5,-6.5 14.5,-14.5 0,-8 -6.5,-14.5 -14.5,-14.5 m 0,12.7 c -0.8,0 -1.8,0.8 -1.8,1.8 v 5.3 c 0,0.8 0.8,1.8 1.8,1.8 0.8,0 1.8,-0.8 1.8,-1.8 V 477 c 0,-0.9 -0.9,-1.8 -1.8,-1.8 m 0,-5.5 c -0.8,0 -1.8,0.8 -1.8,1.8 0,0.8 0.8,1.8 1.8,1.8 0.8,0 1.8,-0.8 1.8,-1.8 0,-1 -0.9,-1.8 -1.8,-1.8"
         style="fill:#ffffcc;enable-background:new" />
      <g
         id="g905"
         transform="translate(-829.6,-338.8)">
        <path
           id="rect315_2_"
           style="fill:#a22442"
           d="m 1535.4,719.3 h 112 v 38.5 h -112 z" />
        <path
           id="rect317_2_"
           style="fill:#a22442"
           d="m 1516.8,748.4 h 150.5 v 38.5 h -150.5 z" />
      </g>
      <g
         id="g1021"
         transform="translate(-829.6,-338.8)">
        <path
           d="m 1551.6,731.7 h -1.4 v -3.3 h 5.5 v 21 h -4.2 v -17.7 z"
           id="path987"
           style="fill:#fffffd" />
        <path
           d="m 1561,731.7 h -2.4 v -3.3 h 6.6 v 8.9 h -4.2 z"
           id="path989"
           style="fill:#fffffd" />
        <path
           d="m 1581.8,728.4 v 8.9 c 0,1.5 -0.3,2.8 -1,3.9 -0.6,1.1 -1.5,1.9 -2.7,2.4 -1.2,0.5 -2.5,0.8 -4,0.8 -2.1,0 -4.2,-0.4 -6.2,-1.2 l 0.9,-3.1 c 1.2,0.5 2.4,0.8 3.5,1 -0.3,-0.3 -0.6,-0.6 -0.8,-1 -0.2,-0.4 -0.4,-0.8 -0.5,-1.2 l -2.4,-10.5 h 4.2 l 2.3,11 c 0.1,0.6 0.3,1.1 0.5,1.5 0.6,-0.3 1.1,-0.7 1.5,-1.3 0.4,-0.6 0.5,-1.2 0.5,-2.1 v -9.1 z"
           id="path991"
           style="fill:#fffffd" />
        <path
           d="m 1587,731.7 h -2.4 v -3.3 h 6.6 v 8.9 h -4.2 z"
           id="path993"
           style="fill:#fffffd" />
        <path
           d="m 1607.5,728.4 v 3.3 h -2.8 V 744 h -4.2 v -12.3 h -6.5 v -3.3 z"
           id="path995"
           style="fill:#fffffd" />
        <path
           d="m 1610.6,731.7 h -1.3 v -3.3 h 5.6 V 744 h -4.2 v -12.3 z"
           id="path997"
           style="fill:#fffffd" />
        <path
           d="m 1619.9,735.4 c 0.1,-0.7 0.2,-1.4 0.5,-2 0.3,-0.6 0.6,-1.1 0.9,-1.5 l 0.2,-0.2 v -0.1 c -0.3,0.1 -0.7,0.2 -1.2,0.3 -0.5,0.1 -0.9,0.3 -1.2,0.4 l -0.9,-3.1 c 1,-0.4 2.2,-0.7 3.5,-0.9 1.4,-0.2 2.6,-0.3 3.9,-0.3 2.4,0 4.2,0.6 5.5,1.8 1.2,1.2 1.9,3 1.9,5.4 v 8.8 h -6.9 v -3.3 h 2.6 v -6.1 c 0,-1 -0.2,-1.8 -0.6,-2.4 -0.4,-0.6 -1,-0.8 -1.7,-0.8 -1.4,0 -2.2,1.1 -2.4,3.3 l -0.9,9.2 h -4.2 z"
           id="path999"
           style="fill:#fffffd" />
        <path
           d="m 1526.9,763.6 h -2.4 v -3.3 h 6.6 v 8.9 h -4.2 z"
           id="path1001"
           style="fill:#fffffd" />
        <path
           d="m 1535.3,757.7 c 0.5,-0.9 1,-1.6 1.7,-2.2 l 1.8,1 c -0.4,0.6 -0.6,1.2 -0.8,1.8 -0.2,0.6 -0.3,1.3 -0.3,2 v 2.1 h -3.1 v -2.1 c 0,-0.8 0.2,-1.7 0.7,-2.6 z m 4.5,0 c 0.5,-0.9 1,-1.6 1.7,-2.2 l 1.8,1 c -0.4,0.6 -0.6,1.2 -0.8,1.8 -0.2,0.6 -0.3,1.3 -0.3,2 v 2.1 h -3.1 v -2.1 c 0,-0.8 0.2,-1.7 0.7,-2.6 z"
           id="path1003"
           style="fill:#fffffd" />
        <path
           d="m 1556.5,769.4 4.5,6.5 h -4.7 l -5.7,-8.2 c -0.2,0.3 -0.4,0.8 -0.4,1.3 v 7 h -4.1 v -5.1 c 0,-1.4 0.2,-2.6 0.7,-3.5 0.4,-0.9 1.2,-1.5 2.1,-2 l -3.4,-5 h 4.7 l 3.7,5.3 2.5,-5.3 h 4.7 z"
           id="path1005"
           style="fill:#fffffd" />
        <path
           d="m 1565.1,767.3 c 0.1,-0.7 0.2,-1.4 0.5,-2 0.3,-0.6 0.6,-1.1 0.9,-1.5 l 0.2,-0.2 v -0.1 c -0.3,0.1 -0.7,0.2 -1.2,0.3 -0.5,0.1 -0.9,0.3 -1.2,0.4 l -0.9,-3.1 c 1,-0.4 2.2,-0.7 3.5,-0.9 1.4,-0.2 2.6,-0.3 3.9,-0.3 2.4,0 4.2,0.6 5.5,1.8 1.2,1.2 1.9,3 1.9,5.4 v 8.8 h -6.9 v -3.3 h 2.6 v -6.1 c 0,-1 -0.2,-1.8 -0.6,-2.4 -0.4,-0.6 -1,-0.8 -1.7,-0.8 -1.4,0 -2.2,1.1 -2.4,3.3 l -0.9,9.2 h -4.2 z"
           id="path1007"
           style="fill:#fffffd" />
        <path
           d="m 1592.2,769.4 4.5,6.5 h -4.7 l -5.7,-8.2 c -0.2,0.3 -0.4,0.8 -0.4,1.3 v 7 h -4.1 v -5.1 c 0,-1.4 0.2,-2.6 0.7,-3.5 0.4,-0.9 1.2,-1.5 2.1,-2 l -3.4,-5 h 4.7 l 3.7,5.3 2.5,-5.3 h 4.7 z"
           id="path1009"
           style="fill:#fffffd" />
        <path
           d="m 1606.8,763.6 h -1.4 v -3.3 h 5.5 v 21 h -4.2 v -17.7 z"
           id="path1011"
           style="fill:#fffffd" />
        <path
           d="m 1613.9,775.6 0.6,-3.1 c 1.3,0.3 2.4,0.4 3.3,0.4 1.2,0 2.2,-0.3 2.7,-0.8 0.6,-0.5 0.9,-1.3 0.9,-2.4 v -6.1 h -7 v -3.3 h 11.2 v 8.6 c 0,2.5 -0.6,4.3 -1.9,5.5 -1.3,1.2 -3.1,1.7 -5.4,1.7 -1.2,0.1 -2.8,-0.1 -4.4,-0.5 z"
           id="path1013"
           style="fill:#fffffd" />
        <path
           d="m 1630,763.6 h -1.3 v -3.3 h 5.6 V 776 h -4.2 v -12.4 z"
           id="path1015"
           style="fill:#fffffd" />
        <path
           d="m 1650.7,760.4 v 3.3 h -2.8 V 776 h -4.2 v -12.3 h -6.5 v -3.3 z"
           id="path1017"
           style="fill:#fffffd" />
        <path
           d="m 1653.8,763.6 h -1.3 v -3.3 h 5.6 V 776 h -4.2 v -12.4 z"
           id="path1019"
           style="fill:#fffffd" />
      </g>
    </g>
  </g>
</svg>
