<svg width="131" height="116.8" viewBox="0 0 34.66 30.903" xmlns:xlink="http://www.w3.org/1999/xlink" xmlns="http://www.w3.org/2000/svg">
    <defs>
        <clipPath id="c">
            <use xlink:href="#a" style="overflow:visible" width="100%" height="100%"/>
        </clipPath>
        <clipPath id="d">
            <use xlink:href="#b" style="overflow:visible" width="100%" height="100%"/>
        </clipPath>
        <path id="a" d="M1261.9 604.1h36.8v25.2h-36.8z"/>
        <path id="b" d="M1261.9 604.1h36.8v25.2h-36.8z"/>
    </defs>
    <path d="M473.7 278.9c0 12.7-23.2 47.6-23.2 47.6s-23.2-34.9-23.2-47.6c0-12.7 10.4-23.2 23.2-23.2 12.9.1 23.2 10.4 23.2 23.2m-86.8-69.2H516v38.5H386.9Z" style="fill:#a22442" transform="translate(-101.863 -55.482) scale(.26458)"/>
    <path d="M1239.4 576.4v-14.1l-4.4 1.3v-3.2l8.1-2.9h.4v18.9zm27.1-12.9-5.1 12.9h-4.5l5.1-12.3h-8.3v-7.6h4.2v4.4h8.6zm2.5.6h-1.3v-3.3h5.6v15.6h-4.2v-12.3zm6.5 11.9.6-3.1c1.3.3 2.4.4 3.3.4 1.2 0 2.2-.3 2.7-.8.6-.5.9-1.3.9-2.4V564h-7v-3.3h11.2v8.6c0 2.5-.6 4.3-1.9 5.5-1.3 1.2-3.1 1.7-5.4 1.7-1.2.1-2.7-.1-4.4-.5zm19.4-3.5c.7.3 1.5.6 2.4.8.9.2 1.6.3 2.4.3 1.9 0 3.4-.4 4.5-1.2 1.1-.8 1.6-2 1.6-3.6v-8h4.1v8.4c0 1.7-.4 3.1-1.3 4.2s-2.1 2-3.6 2.6c-1.5.6-3.2.9-5.1.9-1.5 0-3-.2-4.6-.5-1.6-.4-3-.9-4.4-1.5v-14h4.1v11.6zm3.2-2.5c.1-.6.1-1.3.1-2v-7.2h4.1v6.3c0 .9-.1 1.7-.3 2.5-.2.8-.5 1.4-.8 1.8h-3.4c.1-.4.2-.8.3-1.4zm25.5-.2 4.5 6.5h-4.7l-5.7-8.2c-.2.3-.4.8-.4 1.3v7h-4.1v-5.1c0-1.4.2-2.6.7-3.5.4-.9 1.2-1.5 2.1-2l-3.4-5h4.7l3.7 5.3 2.5-5.3h4.7z" style="fill:#fffffd" transform="translate(-321.359 -145.122) scale(.26458)"/>
    <path d="m1290.4 621.8-3.6-13.4-.2-.9c-.3-1-1.3-1.6-2.3-1.3-.8.2-1.3.9-1.4 1.7l-19.5 10.6c-.2-.2-.5-.3-.9-.2-.5.1-.8.6-.7 1.1l.4 1.3.7 2.7.4 1.3c.1.5.6.8 1.1.7.3-.1.5-.3.6-.6h1.5c.4 2.3 2.4 4.1 4.9 4.1.4 0 .9-.1 1.3-.2.8-.2 1.6-.7 2.2-1.3.8-.8 1.3-1.8 1.4-2.9l10.9-.3c.4.7 1.2 1 2 .8 1-.3 1.6-1.3 1.3-2.3zm-16.7 4.3c-.6.6-1.4.9-2.2.9-1.4 0-2.6-1-3-2.3l6-.2c-.1.6-.3 1.1-.8 1.6zm-7.1-5.1 17.3-9.4 2.4 8.9zm0 0" clip-path="url(#c)" style="fill:#ffc;enable-background:new" transform="translate(-321.359 -145.122) scale(.26458)"/>
    <path d="m1293.2 614.8 4.5-1.2c.5-.1.8-.6.7-1.1-.1-.5-.6-.8-1.1-.7l-4.5 1.2c-.5.1-.8.6-.7 1.1.1.6.6.9 1.1.7zm0 0" style="fill:#ffc;enable-background:new" transform="translate(-321.359 -145.122) scale(.26458)"/>
    <path d="m1297.8 620.7-4.5-1.2c-.5-.1-1 .2-1.1.7-.1.5.2 1 .7 1.1l4.5 1.2h.5c.3-.1.6-.3.7-.7 0-.5-.3-1-.8-1.1zm-7.7-11.5c.2 0 .3-.1.4-.2l3.3-3.3c.4-.4.4-.9 0-1.3s-.9-.4-1.3 0l-3.3 3.3c-.4.4-.4.9 0 1.3.2.2.6.3.9.2zm0 0" clip-path="url(#d)" style="fill:#ffc;enable-background:new" transform="translate(-321.359 -145.122) scale(.26458)"/>
</svg>
