<svg width="122.6" height="105.5" viewBox="0 0 32.438 27.913" xmlns="http://www.w3.org/2000/svg">
    <path style="fill:#3696c9;stroke-width:.26458" d="M113.44 103.842h31.564v9.605H113.44z" transform="translate(-113.44 -103.842)"/>
    <path d="M116.244 111.674v-4.34l-.08-.766h.953l.08.767v4.339zm1.773-1.19-.344-.741c.318-.106.582-.239.794-.397.211-.16.37-.344.476-.556l.318.503c-.08.185-.186.37-.292.529a1.417 1.417 0 0 1-.396.397c-.16.08-.344.185-.556.264zm1.164-.133-.264-1.508v-1.111c0-.159-.027-.265-.08-.344-.053-.08-.132-.106-.238-.133l-.423-.052.106-.715.793.106c.265.027.476.132.609.291.132.159.185.397.185.714v1.27l.212 1.482zm1.561 0v-3.016l-.08-.767h.953l.08.767v3.016zm1.614 0 .45-2.54-.53-1.217h1.006l.45 1.27-.397 2.514h-.979zm1.455.027.08-.715c.317.08.582.08.767 0a.6.6 0 0 0 .37-.423c.08-.212.106-.476.106-.767 0-.265-.026-.503-.08-.662a.648.648 0 0 0-.237-.37c-.106-.08-.238-.106-.397-.106a.629.629 0 0 0-.318.08.624.624 0 0 0-.344.555l-.211-.397c.08-.344.238-.582.423-.74a1.07 1.07 0 0 1 .661-.239c.239 0 .45.027.609.106.185.08.317.185.45.344.132.159.211.37.29.608.054.239.107.53.107.847 0 .476-.08.9-.265 1.217-.185.318-.423.556-.767.688-.344.053-.767.08-1.244-.026zm5.821-.027v-2.593c0-.159-.026-.29-.106-.37-.08-.08-.185-.106-.344-.106h-1.296v-.714h1.56c.212 0 .424.052.583.132.159.08.317.212.397.397.106.185.159.423.159.714v2.54zm-1.746 0v-.714h3.148v.714zm5.98 0v-2.54c0-.344-.16-.53-.45-.53h-1.853v-.713h2.09c.212 0 .424.052.61.132.158.08.317.238.396.423.08.185.132.424.132.741v2.514h-.926zm-2.276 0v-3.334h.952v3.334zm5.477 0v-2.593c0-.159-.027-.29-.106-.37-.08-.08-.185-.106-.318-.106h-1.296v-.714h1.535c.211 0 .423.052.582.132a.83.83 0 0 1 .396.397c.08.185.16.423.16.714v2.54zm1.614 0 .45-2.54-.53-1.217h1.006l.45 1.27-.397 2.514h-.98zm1.455.027.08-.715c.317.08.581.08.767 0a.6.6 0 0 0 .37-.423c.08-.212.106-.476.106-.767 0-.265-.027-.503-.08-.662a.648.648 0 0 0-.238-.37c-.106-.08-.238-.106-.397-.106a.629.629 0 0 0-.317.08.624.624 0 0 0-.344.555l-.212-.397c.08-.344.238-.582.424-.74a1.07 1.07 0 0 1 .661-.239c.238 0 .45.027.609.106.185.08.317.185.45.344.132.159.211.37.29.608.053.239.106.53.106.847 0 .476-.08.9-.264 1.217-.186.318-.424.556-.768.688-.344.053-.767.08-1.243-.026z" style="fill:#fff;stroke-width:.26458" transform="translate(-113.44 -103.842)"/>
    <path d="M134.527 121.516c0 2.7-4.869 10.24-4.869 10.24s-4.868-7.462-4.868-10.24a4.855 4.855 0 0 1 4.868-4.868c2.7-.106 4.869 2.064 4.869 4.868" style="fill:#3696c9;stroke-width:.26458" transform="translate(-113.44 -103.842)"/>
</svg>
