<?xml version="1.0" encoding="UTF-8" standalone="no"?>
<svg
   xmlns:dc="http://purl.org/dc/elements/1.1/"
   xmlns:cc="http://creativecommons.org/ns#"
   xmlns:rdf="http://www.w3.org/1999/02/22-rdf-syntax-ns#"
   xmlns:svg="http://www.w3.org/2000/svg"
   xmlns="http://www.w3.org/2000/svg"
   version="1.1"
   id="svg5119"
   viewBox="0 0 107.7 88.600039"
   height="25.0049mm"
   width="30.395332mm">
  <defs
     id="defs5121" />
  <metadata
     id="metadata5124">
    <rdf:RDF>
      <cc:Work
         rdf:about="">
        <dc:format>image/svg+xml</dc:format>
        <dc:type
           rdf:resource="http://purl.org/dc/dcmitype/StillImage" />
        <dc:title></dc:title>
      </cc:Work>
    </rdf:RDF>
  </metadata>
  <g
     transform="translate(-194.72144,-710.91931)"
     id="layer1">
    <g
       id="g5177">
      <g
         id="g5169"
         transform="translate(-0.04996,0)">
        <path
           style="fill:#401225"
           d="m 266.0214,763.61935 c 0,9.6 -17.4,35.9 -17.4,35.9 0,0 -17.4,-26.3 -17.4,-35.9 0,-9.6 7.8,-17.4 17.4,-17.4 9.6,0 17.4,7.8 17.4,17.4"
           class="st4259"
           id="path443_2_" />
        <g
           transform="matrix(0.42702949,0,0,0.42702949,-244.57509,534.38361)"
           id="g4679-4-3_2_">
          <path
             style="opacity:0.8;fill:#ffffff"
             d="m 1169.1,520.8 c 4.2,-0.2 8,-3.8 8.9,-7.8 -4,0 -8,4 -8.9,7.8 z m -8.7,-4.5 c -4.9,5.8 -12.3,8.2 -18.7,11.8 -5.8,2.7 -11.1,7.6 -17.6,8 -0.2,4.2 1.6,8 2.2,12 4.2,-1.3 6,-0.9 8,3.1 4,5.1 13.6,2.2 14,-4.2 5.8,0.2 11.6,-0.2 17.2,-0.4 2.2,2.2 8.5,1.8 7.1,-2.5 -1.6,-9.1 -4.5,-18.1 -7.1,-27 -0.6,-1.7 -3.5,-0.4 -5.1,-0.8 z"
             class="st4262"
             id="path6-3-6_2_" />
          <path
             style="fill:#401225"
             d="m 1160.4,525.2 c -8.5,4.9 -17.2,9.8 -26.1,14.3 0.9,2.2 6.7,0.9 9.6,1.3 6.9,0 14,0 21,0 -0.9,-5.3 -2,-11.1 -4.5,-15.6 z"
             class="st4259"
             id="path8-6-2_2_" />
          <path
             style="opacity:0.8;fill:#ffffff"
             d="m 1174.7,530.6 c 3.8,0 7.4,-1.1 10.9,-2.2 0.9,-5.4 -5.1,-2.5 -7.8,-1.3 -1.6,0.6 -3.1,1.7 -3.1,3.5 m 0,8.9 c 2,2.7 7.1,4.9 10.3,2.9 2.2,-3.3 -5.4,-2.9 -7.6,-3.8 -1.2,0 -1.8,0.4 -2.7,0.9 l 0,0 z"
             class="st4262"
             id="path10-3-7_2_" />
          <path
             style="fill:#401225"
             d="m 1135,547.3 c 1.6,3.3 5.4,5.8 8.2,2.7 4.7,-4.5 -4.2,-2.2 -6.9,-2.7 -0.4,0 -0.8,0 -1.3,0 z"
             class="st4259"
             id="path12-1-2_2_" />
        </g>
      </g>
      <g
         id="g5159">
        <rect
           style="fill:#401225"
           height="29"
           width="107.7"
           class="st4259"
           y="710.91931"
           x="194.72144"
           id="rect313_2_" />
        <g
           transform="translate(-358.1786,277.61935)"
           id="g389">
          <path
             style="fill:#5cc1d4"
             id="path391"
             d="m 564.9,454.5 c 1.7,-1.6 3,-2.9 3.9,-3.9 0.9,-1 1.6,-1.8 2.2,-2.7 0.5,-0.9 0.8,-1.7 0.8,-2.4 0,-0.8 -0.2,-1.4 -0.6,-1.8 -0.4,-0.4 -1,-0.7 -1.7,-0.7 -0.5,0 -1,0.1 -1.5,0.4 -0.5,0.3 -0.9,0.7 -1.4,1.2 l -1.9,-1.8 c 0.8,-0.8 1.6,-1.5 2.4,-1.9 0.8,-0.4 1.7,-0.6 2.8,-0.6 1.5,0 2.8,0.5 3.7,1.4 0.9,0.9 1.4,2.1 1.4,3.6 0,1.2 -0.5,2.5 -1.4,3.8 -0.9,1.3 -2.2,2.9 -3.9,4.6 1,-0.1 1.8,-0.2 2.7,-0.2 l 3.4,0 0,2.8 -10.9,0 0,-1.8 z"
             class="st4272" />
          <path
             style="fill:#5cc1d4"
             id="path393"
             d="m 595.3,442.3 0,2.9 -4.5,11.2 -3.6,0 4.4,-11.5 -7.2,0 0,-6.3 3.2,0 0,3.6 7.7,0 z"
             class="st4272" />
          <path
             style="fill:#5cc1d4"
             id="path395"
             d="m 598.2,445.2 -0.3,-2.9 3.6,0 0.3,2.9 0,11.2 -3.6,0 0,-11.2 z"
             class="st4272" />
          <path
             style="fill:#5cc1d4"
             id="path397"
             d="m 604.4,453.8 4,0 c 1,0 1.7,-0.3 2.1,-0.9 0.5,-0.6 0.7,-1.5 0.7,-2.5 l 0,-1.9 c 0,-1.1 -0.2,-1.9 -0.7,-2.5 -0.5,-0.6 -1.2,-0.9 -2.1,-0.9 l -4,0 0,-2.7 4.9,0 c 1.8,0 3.1,0.6 4,1.7 0.9,1.1 1.4,2.7 1.4,4.6 l 0,1.5 c 0,2 -0.5,3.5 -1.4,4.6 -0.9,1.1 -2.3,1.7 -4,1.7 l -4.9,0 0,-2.7 z"
             class="st4272" />
          <path
             style="fill:#5cc1d4"
             id="path399"
             d="m 629.3,454.1 c -2,1.7 -5.1,2.6 -9.3,2.6 l -0.8,0 -1.9,-14.4 3.4,0 0.7,6.1 c 0.7,-0.3 1.1,-0.8 1.3,-1.5 0.2,-0.7 0.3,-1.7 0.3,-3 l 0,-1.6 3.4,0 0,1.6 c 0,1.8 -0.4,3.3 -1.1,4.4 -0.7,1.1 -1.9,2 -3.7,2.6 l 0.3,2.8 c 2.4,-0.1 4,-0.8 5.1,-2 1,-1.2 1.5,-2.9 1.5,-5.1 l 0,-4.3 3.6,0 0,4.1 c 0.1,3.4 -0.8,6 -2.8,7.7 z"
             class="st4272" />
          <path
             style="fill:#5cc1d4"
             id="path401"
             d="m 644.6,456.4 -4.7,-7.2 -2.2,7.2 -3.4,0 2.8,-8.5 0.8,-1.9 -2.3,-3.7 3.6,0 2,3.2 1.8,2.7 0.7,-2.3 1,-3.7 3.4,0 -3,9 3.4,5.1 -3.9,0 z"
             class="st4272" />
        </g>
      </g>
    </g>
  </g>
</svg>
