<?xml version="1.0" encoding="UTF-8" standalone="no"?>
<svg
   xmlns:dc="http://purl.org/dc/elements/1.1/"
   xmlns:cc="http://creativecommons.org/ns#"
   xmlns:rdf="http://www.w3.org/1999/02/22-rdf-syntax-ns#"
   xmlns:svg="http://www.w3.org/2000/svg"
   xmlns="http://www.w3.org/2000/svg"
   width="74.365555mm"
   height="55.79533mm"
   viewBox="0 0 263.5 197.69999"
   id="svg8006"
   version="1.1">
  <defs
     id="defs8008" />
  <metadata
     id="metadata8011">
    <rdf:RDF>
      <cc:Work
         rdf:about="">
        <dc:format>image/svg+xml</dc:format>
        <dc:type
           rdf:resource="http://purl.org/dc/dcmitype/StillImage" />
        <dc:title></dc:title>
      </cc:Work>
    </rdf:RDF>
  </metadata>
  <g
     id="layer1"
     transform="translate(-228.25,-479.2265)">
    <rect
       style="fill:#6f4d80"
       height="52.799999"
       width="196"
       class="st13"
       y="479.2265"
       x="260.84998"
       id="rect315_2_" />
    <rect
       style="fill:#6f4d80"
       height="52.799999"
       width="263.5"
       class="st13"
       y="519.1264"
       x="228.25"
       id="rect317_2_" />
    <g
       id="g8604"
       transform="translate(1.1498961,0)">
      <path
         id="path471_2_"
         class="st13"
         d="m 390.55,611.62649 c 0,17.4 -31.7,65.3 -31.7,65.3 0,0 -31.69999,-47.8 -31.69999,-65.3 0,-17.5 14.3,-31.7 31.69999,-31.7 17.6,0.3 31.7,14.3 31.7,31.7"
         style="fill:#f8b119;fill-opacity:1" />
      <path
         id="path473_2_"
         class="st8"
         d="m 358.85,627.72649 c -8.99999,0 -16.29999,-7.3 -16.29999,-16.3 0,-9 7.3,-16.3 16.29999,-16.3 9,0 16.3,7.3 16.3,16.3 0,9 -7.3,16.3 -16.3,16.3 m 0,-36 c -10.99999,0 -19.89999,9 -19.89999,19.9 0,11 9,19.9 19.89999,19.9 11,0 19.9,-9 19.9,-19.9 0.1,-10.9 -8.9,-19.9 -19.9,-19.9 m 0,17.4 c -1.2,0 -2.5,1.2 -2.5,2.5 l 0,7.3 c 0,1.2 1.2,2.5 2.5,2.5 1.2,0 2.5,-1.2 2.5,-2.5 l 0,-7.3 c 0,-1.3 -1.2,-2.5 -2.5,-2.5 m 0,-7.6 c -1.2,0 -2.5,1.2 -2.5,2.5 0,1.2 1.2,2.5 2.5,2.5 1.2,0 2.5,-1.2 2.5,-2.5 0,-1.4 -1.2,-2.5 -2.5,-2.5"
         style="opacity:1;fill:#ffffff;enable-background:new" />
    </g>
    <g
       id="XMLID_1930_"
       transform="translate(-799.35,-1531.7733)">
      <g
         id="XMLID_1126_">
        <path
           style="fill:#f58020"
           d="m 1093.6,2027.8 -0.5,-5.3 6.5,0 0.5,5.3 0,29.6 -6.5,0 0,-29.6 z"
           class="st12"
           id="XMLID_1148_" />
        <path
           style="fill:#f58020"
           d="m 1106.4,2027.8 -0.5,-5.3 6.5,0 0.5,5.3 0,7 0,2.8 -6.5,1.2 0,-11 z"
           class="st12"
           id="XMLID_1147_" />
        <path
           style="fill:#f58020"
           d="m 1140.6,2022.5 c 0,6 -0.3,10.5 -0.7,13.6 -0.5,3 -1.7,5.6 -3.5,7.6 -1.8,2.2 -4.8,3.5 -9,4.3 l -9.6,1.8 -0.8,-5.1 7.1,-1.3 -5.1,-21.1 6.5,0 4.5,19.6 c 1.3,-0.7 2.3,-1.7 3,-3 0.7,-1.3 1,-3 1.2,-5 0.2,-2 0.2,-4.8 0.2,-8.8 l 0,-3 6.3,0 0,0.4 z"
           class="st12"
           id="XMLID_1146_" />
        <path
           style="fill:#f58020"
           d="m 1146.3,2027.8 -0.5,-5.3 6.5,0 0.5,5.3 0,7 0,2.8 -6.5,1.2 0,-11 z"
           class="st12"
           id="XMLID_1145_" />
        <path
           style="fill:#f58020"
           d="m 1168.2,2032.6 c 0,-1.2 0.2,-2.2 0.3,-3.2 0.2,-1 0.5,-1.7 1,-2.2 l -11.6,0 0,-4.8 21.1,0 0,4.8 -3.5,0 c -0.5,1.3 -0.8,3 -0.8,5.3 l 0,15.6 -6.5,0 0,-15.5 z"
           class="st12"
           id="XMLID_1144_" />
        <path
           style="fill:#f58020"
           d="m 1184.8,2027.8 -0.5,-5.3 6.5,0 0.5,5.3 0,20.4 -6.5,0 0,-20.4 z"
           class="st12"
           id="XMLID_1143_" />
        <path
           style="fill:#f58020"
           d="m 1219,2045.2 c -2,2.3 -4.7,3.7 -8.1,3.7 -1.3,0 -2.7,-0.2 -4.2,-0.5 l 0.7,-4.8 c 1.2,0.2 2,0.3 2.8,0.3 2,0 3.5,-0.7 4.3,-2 0.8,-1.3 1.3,-3.3 1.3,-6.1 0,-3 -0.3,-5.1 -1.2,-6.5 -0.8,-1.3 -2.2,-2 -3.8,-2 -1.2,0 -2.2,0.3 -3,1.2 -0.8,0.8 -1.3,1.7 -1.5,3 l -2.8,17.1 -6.5,0 3.2,-17.4 -3.7,-8.5 6.8,0 1.8,5.1 c 0.7,-1.8 1.7,-3.3 2.8,-4.2 1.3,-1 2.7,-1.3 4.3,-1.3 3.2,0 5.6,1.2 7.3,3.3 1.7,2.2 2.5,5.5 2.5,10 0,4 -1,7.3 -3,9.6 z"
           class="st12"
           id="XMLID_1142_" />
        <path
           style="fill:#f58020"
           d="m 1049.2,2070.7 -0.5,-5.3 6.5,0 0.5,5.3 0,7 0,2.8 -6.5,1.2 0,-11 z"
           class="st12"
           id="XMLID_1141_" />
        <path
           style="fill:#f58020"
           d="m 1068.2,2069.5 c 0.7,0.5 1,1.3 1,2.3 0,1.2 -0.3,2 -0.8,2.5 -0.7,0.7 -1.3,1 -2.3,1 -1.3,0 -2.3,-0.5 -3,-1.5 -0.7,-1 -1,-2.3 -1,-4.2 0,-4.2 2,-7.3 6.1,-9.3 l 1.3,2.7 c -1.3,0.7 -2.3,1.5 -3,2.3 -0.7,0.8 -1,2 -1,3.3 0.2,0 0.2,0 0.3,0 1.1,-0.1 1.7,0.2 2.4,0.9 z m 10.3,0 c 0.7,0.5 1,1.3 1,2.3 0,1.2 -0.3,2 -0.8,2.5 -0.7,0.7 -1.3,1 -2.3,1 -1.3,0 -2.3,-0.5 -3,-1.5 -0.7,-1 -1,-2.3 -1,-4.2 0,-4.2 2,-7.3 6.1,-9.3 l 1.3,2.7 c -1.3,0.7 -2.3,1.5 -3,2.3 -0.7,0.8 -1,2 -1,3.3 0.2,0 0.2,0 0.3,0 0.9,-0.1 1.7,0.2 2.4,0.9 z"
           class="st12"
           id="XMLID_1138_" />
        <path
           style="fill:#f58020"
           d="m 1103.6,2091.1 -8.5,-13.1 -4,13.1 -6.1,0 5,-15.4 1.3,-3.5 -4.2,-6.8 6.5,0 3.7,5.8 3.3,5 1.2,-4.2 1.8,-6.6 6.1,0 -5.5,16.4 6.1,9.3 -6.7,0 0,0 z"
           class="st12"
           id="XMLID_1137_" />
        <path
           style="fill:#f58020"
           d="m 1137.1,2088.1 c -2,2.3 -4.7,3.7 -8.1,3.7 -1.3,0 -2.7,-0.2 -4.2,-0.5 l 0.7,-4.8 c 1.2,0.2 2,0.3 2.8,0.3 2,0 3.5,-0.7 4.3,-2 0.8,-1.3 1.3,-3.3 1.3,-6.1 0,-3 -0.3,-5.1 -1.2,-6.5 -0.9,-1.4 -2.2,-2 -3.8,-2 -1.2,0 -2.2,0.3 -3,1.2 -0.8,0.9 -1.3,1.7 -1.5,3 l -2.8,17.1 -6.5,0 3.2,-17.4 -3.7,-8.5 6.8,0 1.8,5.1 c 0.7,-1.8 1.7,-3.3 2.8,-4.2 1.3,-1 2.7,-1.3 4.3,-1.3 3.2,0 5.6,1.2 7.3,3.3 1.7,2.2 2.5,5.5 2.5,10 0,4 -1,7.3 -3,9.6 z"
           class="st12"
           id="XMLID_1136_" />
        <path
           style="fill:#f58020"
           d="m 1162.5,2091.1 -8.5,-13.1 -4,13.1 -6.1,0 5,-15.4 1.3,-3.5 -4.2,-6.8 6.5,0 3.7,5.8 3.3,5 1.2,-4.2 1.8,-6.6 6.1,0 -5.5,16.4 6.1,9.3 -6.7,0 0,0 z"
           class="st12"
           id="XMLID_1135_" />
        <path
           style="fill:#f58020"
           d="m 1184.8,2070.7 -0.5,-5.3 6.5,0 0.5,5.3 0,29.6 -6.5,0 0,-29.6 z"
           class="st12"
           id="XMLID_1134_" />
        <path
           style="fill:#f58020"
           d="m 1196.3,2086.3 7.1,0 c 1.7,0 3,-0.5 3.8,-1.7 0.8,-1.2 1.2,-2.7 1.2,-4.7 l 0,-3.3 c 0,-2 -0.3,-3.5 -1.2,-4.7 -0.8,-1.2 -2.2,-1.7 -3.8,-1.7 l -7.1,0 0,-4.8 9,0 c 3.2,0 5.6,1 7.3,3.2 1.7,2.2 2.5,4.8 2.5,8.5 l 0,2.7 c 0,3.7 -0.8,6.5 -2.5,8.5 -1.7,2 -4.2,3.2 -7.3,3.2 l -9,0 0,-5.2 z"
           class="st12"
           id="XMLID_1132_" />
        <path
           style="fill:#f58020"
           d="m 1220.7,2070.7 -0.5,-5.3 6.5,0 0.5,5.3 0,20.4 -6.5,0 0,-20.4 0,0 z"
           class="st12"
           id="XMLID_1131_" />
        <path
           style="fill:#f58020"
           d="m 1242.6,2075.5 c 0,-1.2 0.2,-2.2 0.3,-3.2 0.2,-1 0.5,-1.7 1,-2.2 l -11.6,0 0,-4.8 21.1,0 0,4.8 -3.5,0 c -0.5,1.3 -0.8,3 -0.8,5.3 l 0,15.6 -6.5,0 0,-15.5 0,0 z"
           class="st12"
           id="XMLID_1129_" />
        <path
           style="fill:#f58020"
           d="m 1259.1,2070.7 -0.5,-5.3 6.5,0 0.5,5.3 0,20.4 -6.5,0 0,-20.4 z"
           class="st12"
           id="XMLID_1128_" />
      </g>
    </g>
  </g>
</svg>
