<?xml version="1.0" encoding="UTF-8" standalone="no"?>
<svg
   xmlns:dc="http://purl.org/dc/elements/1.1/"
   xmlns:cc="http://creativecommons.org/ns#"
   xmlns:rdf="http://www.w3.org/1999/02/22-rdf-syntax-ns#"
   xmlns:svg="http://www.w3.org/2000/svg"
   xmlns="http://www.w3.org/2000/svg"
   xmlns:xlink="http://www.w3.org/1999/xlink"
   version="1.1"
   id="Layer_1"
   x="0px"
   y="0px"
   viewBox="0 0 153.19999 114.79999"
   xml:space="preserve"
   width="153.2"
   height="114.79999"><metadata
     id="metadata439"><rdf:RDF><cc:Work
         rdf:about=""><dc:format>image/svg+xml</dc:format><dc:type
           rdf:resource="http://purl.org/dc/dcmitype/StillImage" /><dc:title></dc:title></cc:Work></rdf:RDF></metadata><defs
     id="defs437" /><style
     type="text/css"
     id="style3">
	.st0{fill:#B5B0C1;}
	.st1{fill:#FFFFFF;}
	.st2{fill:none;stroke:#141032;stroke-width:0.25;}
	.st3{fill:#43255C;}
	.st4{clip-path:url(#SVGID_2_);fill:none;stroke:#141032;stroke-width:0.25;}
	.st5{fill:none;stroke:#141032;stroke-width:0.5;}
	.st6{fill:#99AC64;}
	.st7{clip-path:url(#SVGID_4_);fill:none;stroke:#141032;stroke-width:0.25;}
	.st8{clip-path:url(#SVGID_6_);fill:#43255C;}
	.st9{clip-path:url(#SVGID_8_);fill:#FBB65A;}
	.st10{clip-path:url(#SVGID_8_);fill:none;stroke:#141032;stroke-width:0.5;stroke-miterlimit:10;}
	.st11{fill:#F7D685;}
	.st12{clip-path:url(#SVGID_10_);fill:#141032;}
	.st13{fill:#141032;}
	.st14{fill:none;stroke:#231F20;stroke-width:0.25;}
	.st15{clip-path:url(#SVGID_12_);fill:#141032;}
	.st16{clip-path:url(#SVGID_12_);fill:#FFFFFF;}
	.st17{clip-path:url(#SVGID_14_);fill:#141032;}
	.st18{clip-path:url(#SVGID_14_);fill:#FFFFFF;}
	.st19{fill:#D81278;}
	.st20{clip-path:url(#SVGID_16_);fill:#141032;}
	.st21{clip-path:url(#SVGID_18_);fill:#141032;}
	.st22{clip-path:url(#SVGID_18_);fill:#FFFFFF;}
	.st23{clip-path:url(#SVGID_20_);fill:#141032;}
	.st24{clip-path:url(#SVGID_22_);fill:#141032;}
	.st25{clip-path:url(#SVGID_24_);fill:#FFFFFF;}
	.st26{clip-path:url(#SVGID_26_);fill:#FFFFFF;}
	.st27{clip-path:url(#SVGID_28_);fill:#141032;}
	.st28{clip-path:url(#SVGID_30_);fill:#141032;}
	.st29{clip-path:url(#SVGID_32_);fill:#FFFFFF;}
	.st30{clip-path:url(#SVGID_34_);fill:#FFFFFF;}
	.st31{fill:#8ACDAB;}
	.st32{clip-path:url(#SVGID_36_);fill:#141032;}
	.st33{clip-path:url(#SVGID_38_);fill:#FFFFFF;}
</style><rect
     x="-38.099998"
     y="0"
     class="st13"
     width="38.099998"
     height="153.2"
     id="rect411"
     style="fill:#141032"
     transform="matrix(0,-1,1,0,0,0)" /><path
     class="st31"
     d="m 20.699986,14.299986 c -0.5,0 -1,0 -1.4,0 -0.4,0 -0.8,0 -1.2,-0.1 -0.4,-0.1 -0.8,-0.1 -1.2,-0.2 -0.4,-0.1 -0.9,-0.2 -1.4,-0.4 0.2,-0.6 0.3,-1.1 0.5,-1.7 0.2,-0.6 0.4,-1.1 0.6,-1.7 0.5,0.1 1,0.3 1.4,0.4 0.4,0.1 0.8,0.2 1.1,0.2 0.4,0 0.7,0.1 1.1,0.1 0.4,0 0.9,0 1.4,0 l 3.4,0 c 0.7,0 1.3,0.1 2,0.2 0.7,0.1 1.2,0.4 1.8,0.8 0.5,0.4 0.9,1 1.2,1.7 0.3,0.7 0.5,1.6 0.5,2.8 l 0,11.1 -4.4,0 0,-10 c 0,-0.7 0,-1.2 -0.1,-1.6 -0.1,-0.4 -0.2,-0.7 -0.4,-1 -0.2,-0.2 -0.5,-0.4 -0.9,-0.5 -0.4,-0.1 -0.9,-0.1 -1.5,-0.1 l -2.5,0 z m -5,8.3 c 0,-0.5 0,-0.9 0,-1.3 0,-0.4 0,-0.7 0.1,-1.1 0,-0.4 0.1,-0.7 0.1,-1 0.1,-0.3 0.1,-0.7 0.2,-1.1 0.7,0.1 1.4,0.2 2.1,0.3 0.7,0.1 1.4,0.3 2.1,0.4 -0.1,0.6 -0.2,1.2 -0.3,1.8 0,0.6 -0.1,1.3 -0.1,2.1 l 0,4.8 -4.4,0 0,-4.9 z m 26.6,-11.7 0,6.1 c 0,0.6 0,1.1 0,1.4 0,0.4 0,0.7 -0.1,1.1 0,0.3 -0.1,0.6 -0.1,0.9 -0.1,0.3 -0.1,0.6 -0.2,1 l -4.3,-0.6 c 0.1,-0.3 0.1,-0.6 0.1,-0.9 0,-0.3 0.1,-0.5 0.1,-0.8 0,-0.3 0.1,-0.6 0.1,-1 0,-0.4 0,-0.8 0,-1.3 l 0,-2.3 -3.7,0 0,-3.5 8.1,0 z m 11.6,0 0,6.1 c 0,0.6 0,1.1 0,1.4 0,0.4 0,0.7 -0.1,1.1 0,0.3 -0.1,0.6 -0.1,0.9 -0.1,0.3 -0.1,0.6 -0.2,1 l -4.3,-0.6 c 0.1,-0.3 0.1,-0.6 0.1,-0.9 0,-0.3 0.1,-0.5 0.1,-0.8 0,-0.3 0.1,-0.6 0.1,-1 0,-0.4 0,-0.8 0,-1.3 l 0,-2.3 -3.7,0 0,-3.5 8.1,0 z m 9.2,3.4 c -0.5,0 -1,0 -1.4,0 -0.4,0 -0.8,0 -1.2,-0.1 -0.4,0 -0.8,-0.1 -1.2,-0.2 -0.4,-0.1 -0.9,-0.2 -1.4,-0.4 0.2,-0.6 0.3,-1.1 0.5,-1.7 0.2,-0.6 0.4,-1.1 0.6,-1.7 0.5,0.1 0.9,0.2 1.3,0.3 0.4,0.1 0.7,0.1 1,0.2 0.3,0 0.7,0.1 1,0.1 0.3,0 0.7,0 1.2,0 l 0.5,0 9.5,0 c 0.1,0.2 0.1,0.4 0.1,0.5 0,0.2 0.1,0.3 0.1,0.5 0.1,0.3 0.1,0.6 0.1,0.8 0,0.2 0,0.5 0,0.8 l 0,3.5 c 0,0.6 0,1.1 -0.1,1.7 -0.1,0.5 -0.2,1 -0.3,1.4 -0.1,0.5 -0.3,0.9 -0.6,1.3 -0.2,0.4 -0.5,0.9 -0.8,1.3 -0.2,0.4 -0.6,0.8 -1,1.3 -0.4,0.5 -0.8,1 -1.3,1.6 -0.5,0.5 -0.9,1.1 -1.4,1.6 -0.5,0.5 -0.9,1 -1.2,1.3 l -3.1,-2.6 2.2,-2.4 c 0.5,-0.6 1,-1.1 1.4,-1.6 0.4,-0.4 0.7,-0.9 0.9,-1.2 0.2,-0.3 0.4,-0.6 0.5,-0.8 0.1,-0.3 0.2,-0.5 0.3,-0.8 0.1,-0.3 0.1,-0.5 0.1,-0.8 0,-0.3 0,-0.6 0,-1 l 0,-2.9 -6.3,0 z m -5.1,8.3 c 0,-0.5 0,-0.9 0,-1.3 0,-0.4 0,-0.7 0.1,-1.1 0,-0.4 0.1,-0.7 0.1,-1 0.1,-0.3 0.1,-0.7 0.2,-1.1 0.7,0.1 1.4,0.2 2.1,0.3 0.7,0.1 1.4,0.3 2.1,0.4 -0.1,0.6 -0.2,1.2 -0.3,1.8 0,0.6 -0.1,1.3 -0.1,2.1 l 0,9.8 -4.4,0 0,-9.9 z m 30.6,-11.7 c 0.7,0 1.3,0.1 2,0.2 0.7,0.1 1.2,0.4 1.8,0.8 0.5,0.4 0.9,1 1.2,1.7 0.3,0.7 0.5,1.7 0.5,2.8 l 0,11.1 -4.3,0 0,-10 c 0,-0.7 0,-1.2 -0.1,-1.6 -0.1,-0.4 -0.2,-0.7 -0.4,-1 -0.2,-0.2 -0.5,-0.4 -0.9,-0.5 -0.4,-0.1 -0.9,-0.1 -1.5,-0.1 l -3.2,0 c -0.2,0.7 -0.3,1.4 -0.3,2 0,0.6 0,1.2 0,1.9 l 0,9.2 -4.3,0 0,-9.1 c 0,-0.7 0,-1.3 0.1,-2 0.1,-0.7 0.2,-1.4 0.4,-2.1 -0.4,-0.1 -0.8,-0.1 -1.1,-0.2 -0.4,-0.1 -0.8,-0.2 -1.3,-0.4 0.2,-0.6 0.3,-1.1 0.5,-1.7 0.2,-0.6 0.4,-1.1 0.6,-1.7 0.5,0.1 1,0.3 1.4,0.4 0.4,0.1 0.8,0.2 1.1,0.2 0.4,0 0.7,0.1 1.1,0.1 0.4,0 0.9,0 1.4,0 l 5.3,0 z m 14.700004,13.4 c 0.2,0 0.4,0 0.6,0 0.2,0 0.5,0 0.7,0 0.6,0 1.3,-0.1 2,-0.2 0.7,-0.1 1.3,-0.3 2,-0.6 0.6,-0.3 1.2,-0.7 1.8,-1.2 0.6,-0.5 1.1,-1.1 1.5,-1.9 0.6,-1.1 1,-2.2 1.3,-3.3 0.2,-1.1 0.3,-2.3 0.3,-3.4 0,-0.5 0,-0.9 0,-1.4 0,-0.4 -0.1,-0.9 -0.1,-1.4 0.5,-0.1 0.9,-0.2 1.2,-0.3 0.3,-0.1 0.7,-0.1 1,-0.2 0.3,-0.1 0.6,-0.1 1,-0.2 0.4,-0.1 0.8,-0.1 1.3,-0.2 0.1,0.5 0.2,1 0.2,1.5 0,0.5 0.1,1.1 0.1,1.7 0,0.5 0,1 -0.1,1.5 0,0.5 -0.1,1 -0.1,1.4 -0.5,3.9 -2,6.9 -4.3,8.8 -2.3,1.9 -5.5,2.9 -9.6,2.9 -0.7,0 -1.4,0 -2.2,-0.1 -0.8,-0.1 -1.5,-0.1 -2.4,-0.2 l -0.7,-9.6 c 0,-0.6 -0.1,-1 -0.1,-1.5 0,-0.4 -0.1,-0.8 -0.1,-1.1 0,-0.3 -0.1,-0.6 -0.1,-0.9 0,-0.3 -0.1,-0.6 -0.2,-0.8 -0.1,-0.3 -0.2,-0.6 -0.300004,-0.9 -0.1,-0.3 -0.2,-0.7 -0.4,-1.1 0.600004,-0.2 1.300004,-0.5 1.900004,-0.8 0.6,-0.3 1.3,-0.5 1.9,-0.7 0.3,0.6 0.5,1.2 0.7,1.7 0.2,0.5 0.3,1 0.4,1.6 0.1,0.5 0.1,1.1 0.2,1.7 0,0.6 0.1,1.3 0.1,2 l 0.5,7.2 z m 1.6,-8 c 0.2,-0.4 0.3,-0.8 0.4,-1.1 0.1,-0.3 0.2,-0.6 0.3,-0.8 0.1,-0.2 0.1,-0.5 0.2,-0.7 0,-0.2 0,-0.5 0,-0.7 0,-0.1 0,-0.2 0,-0.2 0,0 0,-0.2 0,-0.3 0,-0.2 0,-0.4 0,-0.5 0,-0.2 -0.1,-0.4 -0.1,-0.7 0.7,-0.2 1.4,-0.4 2.1,-0.6 0.7,-0.2 1.4,-0.3 2.1,-0.5 0.1,0.5 0.2,0.9 0.3,1.3 0.1,0.4 0.1,0.8 0.1,1.1 0,0.3 0,0.6 -0.1,0.9 0,0.3 -0.1,0.6 -0.2,1 -0.1,0.4 -0.2,0.7 -0.4,1.2 -0.1,0.4 -0.3,0.9 -0.5,1.4 l -1.1,2.8 c -0.4,-0.1 -0.8,-0.2 -1.1,-0.3 -0.3,-0.1 -0.6,-0.2 -0.9,-0.3 -0.3,-0.1 -0.6,-0.2 -0.8,-0.3 -0.3,-0.1 -0.6,-0.3 -1.1,-0.5 l 0.8,-2.2 z m 16.4,-4.2 c 0.6,-0.4 1.1,-0.7 1.7,-1.1 0.6,-0.3 1.1,-0.7 1.7,-1 0.3,0.3 0.5,0.6 0.7,0.9 0.2,0.3 0.3,0.5 0.5,0.7 0.1,0.2 0.3,0.5 0.4,0.7 0.1,0.2 0.2,0.5 0.3,0.7 0.9,-0.9 1.8,-1.6 2.8,-2 1,-0.4 2,-0.7 2.9,-0.7 0.7,0 1.3,0.1 1.9,0.3 0.6,0.2 1.2,0.5 1.7,0.9 0.5,0.4 0.9,0.9 1.3,1.4 0.3,0.6 0.6,1.2 0.7,1.9 0.1,0.6 0.2,1.2 0.2,2 0,0.7 0,1.5 0,2.4 0,0.4 0,0.8 0,1.3 0,0.4 0,1 0,1.6 0,0.7 0,1.4 0,2.1 0,0.7 -0.1,1.2 -0.1,1.7 0,0.2 0,0.5 -0.1,0.7 0,0.3 -0.1,0.5 -0.1,0.8 l -8.4,0 0,-3.5 4.3,0 c 0,-0.1 0,-0.2 0,-0.3 0,-0.2 0,-0.4 0,-0.7 0,-0.3 0,-0.7 0,-1.3 0,-0.6 0,-1.1 0,-1.9 0,-0.2 0,-0.5 0,-0.8 0,-0.3 0,-0.6 0,-1 0,-0.3 0,-0.7 0,-1 0,-0.3 0,-0.6 0,-0.8 -0.1,-0.9 -0.4,-1.5 -0.8,-1.8 -0.4,-0.4 -1,-0.5 -1.7,-0.5 -0.4,0 -0.8,0.1 -1.2,0.2 -0.4,0.2 -0.8,0.4 -1.3,0.7 -0.2,0.2 -0.5,0.4 -0.7,0.6 -0.2,0.2 -0.5,0.4 -0.7,0.7 -0.2,1.2 -0.3,2.2 -0.5,3.1 -0.1,0.9 -0.2,1.6 -0.3,2.2 -0.1,0.6 -0.2,1.2 -0.3,1.7 -0.1,0.5 -0.1,1 -0.2,1.4 -0.1,0.5 -0.1,0.9 -0.2,1.4 -0.1,0.5 -0.2,1.1 -0.3,1.7 l -4.4,0 0.4,-2.8 c 0.1,-0.7 0.2,-1.3 0.3,-1.9 0.1,-0.6 0.2,-1.2 0.3,-1.8 0.1,-0.6 0.2,-1.2 0.3,-1.8 0.1,-0.6 0.2,-1.3 0.3,-2 0,-0.2 0,-0.4 0,-0.5 0,-0.2 0,-0.3 0,-0.5 0,-0.3 0,-0.6 -0.1,-0.8 0,-0.2 -0.1,-0.5 -0.2,-0.7 -0.1,-0.2 -0.2,-0.4 -0.3,-0.7 -0.1,-0.2 -0.3,-0.5 -0.4,-0.8 l -0.4,-1.1 z"
     id="path413"
     style="fill:#8acdab" /><g
     id="g415"
     transform="matrix(0,-1,1,0,-883.70001,870.89999)"><defs
       id="defs417"><rect
         id="SVGID_35_"
         x="65.699997"
         y="119"
         width="953.09998"
         height="1619.8" /></defs><clipPath
       id="SVGID_36_"><use
         xlink:href="#SVGID_35_"
         style="overflow:visible"
         id="use421"
         x="0"
         y="0"
         width="100%"
         height="100%" /></clipPath><path
       class="st32"
       d="m 803.4,983.2 c -12.6,0 -47.3,-22.9 -47.3,-22.9 0,0 34.6,-22.9 47.3,-22.9 12.6,0 22.9,10.2 22.9,22.9 0,12.7 -10.2,22.9 -22.9,22.9"
       id="path423"
       clip-path="url(#SVGID_36_)"
       style="fill:#141032" /></g><g
     id="g425"
     transform="matrix(0,-1,1,0,-883.70001,870.89999)"><defs
       id="defs427"><rect
         id="SVGID_37_"
         x="793.40002"
         y="943.90002"
         width="24.799999"
         height="32.900002" /></defs><clipPath
       id="SVGID_38_"><use
         xlink:href="#SVGID_37_"
         style="overflow:visible"
         id="use431"
         x="0"
         y="0"
         width="100%"
         height="100%" /></clipPath><path
       class="st33"
       d="m 808.8,969.1 c 0,-1 0.9,-1.9 1.9,-1.9 1.1,0 1.9,0.8 1.9,1.9 0,1 -0.9,1.9 -1.9,1.9 -1.1,0 -1.9,-0.8 -1.9,-1.9 m -4.3,-3.5 c 0,-1.1 0.9,-1.9 1.9,-1.9 1.1,0 1.9,0.9 1.9,1.9 0,1 -0.9,1.9 -1.9,1.9 -1.1,0 -1.9,-0.8 -1.9,-1.9 m 3.6,-7.1 c -0.6,0 -1,-0.5 -1,-1 l 0,-2.5 -2.6,0 c -0.6,0 -1,-0.5 -1,-1 l 0,-0.8 c 0,-0.6 0.5,-1 1,-1 l 2.6,0 0,-2.5 c 0,-0.6 0.5,-1 1,-1 l 0.8,0 c 0.6,0 1,0.5 1,1 l 0,2.5 2.6,0 c 0.6,0 1,0.5 1,1 l 0,0.8 c 0,0.6 -0.5,1 -1,1 l -2.6,0 0,2.5 c 0,0.6 -0.5,1 -1,1 l -0.8,0 z m -0.7,17.9 c 7.5,-1.6 9.4,-4 10.1,-5.4 1.2,-2.3 0.5,-4.9 0.1,-5.7 -0.5,-1 -1.5,-1.7 -1.9,-2.7 -0.5,-1.2 -0.6,-2.7 0,-3.9 0.5,-0.9 1.5,-1.8 1.9,-2.9 0.6,-1.4 1.3,-3.9 -0.4,-6.2 -0.4,-0.6 -3.8,-4.6 -14.3,-5.8 -6.5,-0.7 -8.6,2.8 -8.5,2.7 -0.7,0.9 -1.8,3 0,5.8 1.2,1.9 3.5,3.4 3.5,3.4 0,0 1.3,0.7 1.8,1.6 0.4,0.6 0.1,1.6 0.1,1.6 l 0,3.3 c 0,0 0.1,1.1 -0.2,1.8 -0.3,0.7 -1.1,1.1 -1.1,1.1 0,0 -2.9,2.2 -4.3,4.3 -0.6,0.9 -1.3,4.5 1,6.4 1.4,1.1 6,1.9 12.2,0.6"
       id="path433"
       clip-path="url(#SVGID_38_)"
       style="fill:#ffffff" /></g></svg>