<?xml version="1.0" encoding="UTF-8" standalone="no"?>
<svg
   xmlns:dc="http://purl.org/dc/elements/1.1/"
   xmlns:cc="http://creativecommons.org/ns#"
   xmlns:rdf="http://www.w3.org/1999/02/22-rdf-syntax-ns#"
   xmlns:svg="http://www.w3.org/2000/svg"
   xmlns="http://www.w3.org/2000/svg"
   width="46.510223mm"
   height="22.38023mm"
   viewBox="0 0 164.8 79.300027"
   id="svg7944"
   version="1.1">
  <defs
     id="defs7946" />
  <metadata
     id="metadata7949">
    <rdf:RDF>
      <cc:Work
         rdf:about="">
        <dc:format>image/svg+xml</dc:format>
        <dc:type
           rdf:resource="http://purl.org/dc/dcmitype/StillImage" />
        <dc:title></dc:title>
      </cc:Work>
    </rdf:RDF>
  </metadata>
  <g
     id="layer1"
     transform="translate(-114.74285,-869.85504)">
    <path
       id="path1011_2_"
       class="st4261"
       d="m 210.54285,921.05507 c 0,7.4 -13.4,28.1 -13.4,28.1 0,0 -13.4,-20.4 -13.4,-28.1 0,-7.4 6,-13.4 13.4,-13.4 7.4,0 13.4,6 13.4,13.4"
       style="fill:#d29839;fill-opacity:1" />
    <g
       id="g8537">
      <rect
         style="fill:#401225"
         height="31.200001"
         width="164.8"
         class="st4259"
         y="869.85504"
         x="114.74285"
         id="rect863_3_" />
      <g
         transform="translate(-325.95717,427.05507)"
         id="g278">
        <path
           style="fill:#68c6e0"
           id="path280"
           d="m 468.7,451.4 c 0.7,0.7 1.1,1.8 1.1,3.2 l 0,8.7 -3.3,0 -7.2,0 -0.7,0 0,-13 3.3,0 3.9,0 c 1.2,0 2.2,0.4 2.9,1.1 z m -2.3,9.5 0,-6.4 c 0,-1.1 -0.5,-1.7 -1.5,-1.7 l -3,0 0,8.1 4.5,0 z"
           class="st4269" />
        <path
           style="fill:#68c6e0"
           id="path282"
           d="m 472.8,453 -0.3,-2.7 3.3,0 0.3,2.7 0,3.6 0,1.4 -3.3,0.6 0,-5.6 z"
           class="st4269" />
        <path
           style="fill:#68c6e0"
           id="path284"
           d="m 478.8,460.9 3.3,0 0,-6.6 c 0,-0.5 -0.1,-0.9 -0.3,-1.2 -0.2,-0.2 -0.5,-0.4 -0.9,-0.4 l -1.6,-0.2 0.4,-2.4 2.8,0.4 c 0.9,0.1 1.6,0.5 2.1,1.2 0.5,0.7 0.7,1.5 0.7,2.6 l 0,9.1 -6.6,0 0,-2.5 z"
           class="st4269" />
        <path
           style="fill:#68c6e0"
           id="path286"
           d="m 499.4,461.8 c -1,1.2 -2.4,1.8 -4.1,1.8 -0.6,0 -1.3,-0.1 -2.1,-0.3 l 0.3,-2.5 c 0.6,0.1 1,0.2 1.4,0.2 1,0 1.8,-0.3 2.2,-1 0.4,-0.7 0.7,-1.7 0.7,-3.1 0,-1.5 -0.2,-2.6 -0.6,-3.3 -0.4,-0.7 -1.1,-1 -1.9,-1 -0.6,0 -1.1,0.2 -1.5,0.5 -0.4,0.4 -0.7,0.9 -0.8,1.5 l -1.4,8.6 -3.3,0 1.6,-8.8 -1.8,-4.2 3.4,0 0.9,2.6 c 0.3,-0.9 0.8,-1.6 1.4,-2.1 0.6,-0.5 1.4,-0.7 2.2,-0.7 1.6,0 2.9,0.6 3.7,1.7 0.9,1.1 1.3,2.8 1.3,5 -0.1,2.3 -0.6,3.9 -1.6,5.1 z"
           class="st4269" />
        <path
           style="fill:#68c6e0"
           id="path288"
           d="m 512.3,463.4 -4.3,-6.6 -2,6.6 -3.1,0 2.5,-7.8 0.7,-1.8 -2.1,-3.4 3.3,0 1.8,3 1.6,2.5 0.6,-2.1 0.9,-3.4 3.1,0 -2.7,8.3 3.1,4.7 -3.4,0 z"
           class="st4269" />
        <path
           style="fill:#68c6e0"
           id="path290"
           d="m 518.1,457.1 0.5,-1.5 2.8,0 0,7.7 -3.3,0 0,-6.2 z m 7.6,-2.6 c 0,-1.1 -0.5,-1.7 -1.5,-1.7 l -5.9,0 0,-2.5 6.8,0 c 1.2,0 2.2,0.3 2.9,1 0.7,0.7 1.1,1.8 1.1,3.2 l 0,8.7 -3.3,0 0,-8.7 z"
           class="st4269" />
        <path
           style="fill:#68c6e0"
           id="path292"
           d="m 536.2,461.5 c 0.6,-0.1 1,-0.2 1.3,-0.3 0.3,-0.2 0.5,-0.4 0.6,-0.7 0.1,-0.3 0.2,-0.7 0.1,-1.3 l 0,-8.9 6.9,0 c 1.2,0 2.2,0.3 2.9,1 0.7,0.7 1,1.8 1,3.2 l 0,8.7 -3.3,0 0,-8.9 c 0,-1.1 -0.5,-1.7 -1.5,-1.7 l -2.7,0 0,6 c 0,1.2 -0.2,2.1 -0.5,2.8 -0.3,0.7 -0.9,1.2 -1.6,1.5 -0.7,0.3 -1.7,0.6 -2.9,0.7 l -0.3,-2.1 z"
           class="st4269" />
        <path
           style="fill:#68c6e0"
           id="path294"
           d="m 551.7,450.3 3.3,0 1.1,10.3 c 1.6,-0.2 2.7,-0.6 3.4,-1.4 0.7,-0.8 1,-1.9 1,-3.3 l 0,-0.7 c 0,-0.7 -0.2,-1.3 -0.6,-1.7 -0.4,-0.5 -0.9,-0.7 -1.7,-0.8 l -1.1,-0.1 0.3,-2.5 1.4,0.1 c 1.4,0.1 2.6,0.5 3.5,1.3 0.9,0.8 1.4,1.9 1.4,3.4 l 0,0.6 c 0.1,2.7 -0.8,4.7 -2.6,5.9 -1.8,1.3 -4.4,2 -7.9,2.1 l -1.5,-13.2 z"
           class="st4269" />
        <path
           style="fill:#68c6e0"
           id="path296"
           d="m 577.1,461.8 c -1,1.2 -2.4,1.8 -4.1,1.8 -0.6,0 -1.3,-0.1 -2.1,-0.3 l 0.3,-2.5 c 0.6,0.1 1,0.2 1.4,0.2 1,0 1.8,-0.3 2.2,-1 0.4,-0.7 0.7,-1.7 0.7,-3.1 0,-1.5 -0.2,-2.6 -0.6,-3.3 -0.4,-0.7 -1.1,-1 -1.9,-1 -0.6,0 -1.1,0.2 -1.5,0.5 -0.4,0.4 -0.7,0.9 -0.8,1.5 l -1.4,8.6 -3.3,0 1.6,-8.8 -1.8,-4.2 3.4,0 0.9,2.6 c 0.3,-0.9 0.8,-1.6 1.4,-2.1 0.6,-0.5 1.4,-0.7 2.2,-0.7 1.6,0 2.9,0.6 3.7,1.7 0.9,1.1 1.3,2.8 1.3,5 -0.1,2.3 -0.6,3.9 -1.6,5.1 z"
           class="st4269" />
        <path
           style="fill:#68c6e0"
           id="path298"
           d="m 590.2,461.6 c -1.8,1.2 -4.3,1.8 -7.7,1.9 l -1.3,-10.8 -0.3,-2.5 7,0 c 1.5,0 2.6,0.4 3.5,1.3 0.8,0.8 1.3,2 1.3,3.5 l 0,0.8 c 0.1,2.7 -0.7,4.6 -2.5,5.8 z m -2.3,-1.6 c 0.6,-0.4 1,-0.9 1.3,-1.6 0.2,-0.7 0.3,-1.6 0.3,-2.7 l 0,-0.7 c 0,-0.7 -0.2,-1.3 -0.5,-1.7 -0.3,-0.4 -0.8,-0.6 -1.3,-0.6 l -3.1,0 0.8,7.9 c 1.1,0 1.9,-0.2 2.5,-0.6 z"
           class="st4269" />
      </g>
    </g>
  </g>
</svg>
