<svg viewBox="0 0 1298 804.7" style="enable-background:new 0 0 1298 804.7" xml:space="preserve" xmlns="http://www.w3.org/2000/svg">
    <path d="M667.2 794.6 1288 424.3l-653.5-386L10.6 401.8l656.6 392.8z" style="fill:#fed0d5"/>
    <path d="m764.9 312.9-1.7 32.4-73.6-43.3 1.2-32.8 74.1 43.7z" style="fill:#8c4330"/>
    <path d="M438.2 153.5V82.8L1091.5 465v73.8L827.6 383.2l.9-56.9-53.6-28.9-1.6 53.8-150.9-89 .9-54.1-53.5-32.5-1.6 54.6-130-76.7z" style="fill:#f4717c"/>
    <path d="m324.1 591.1-2.3-44L762 301.5l-2 44.8-435.9 244.8z" style="fill:#f4717c"/>
    <path d="M582.7 591.1 389.3 710.4l-38.9-24 468.2-277.9 71.8 40.7-239.6 148.3 1.4 2.3 240.2-149.5 123.2 69.8-210.2 124.2-63.2-40.8 157.6-100.9-1.5-2.3-158.1 101.2-73.5 46.2-89-50.4L811 454.1l-1.4-2.3-226.9 139.3zM655.1 348l-127.9-78-37.5 21.8 87.4 52.5-41.4 23.4L329 245.5l-77.2 44.6 208.6 124.5-3.1 1.8-207.5-125.1-78.2 45.2L377.2 459l-1.4 2.4L169 338.1l-78.7 45.3 113.4 69.2-113.4 62.3 42.9 26.5 149.7-86-122.1-71 1.4-2.4 214.1 124.8L535.7 416 323.4 292.1l1.4-2.4 213.4 124.6L655.1 348zm-203 113.4L240.2 336.5l1.4-2.4L453.5 459l-1.4 2.4z" style="fill:#fe9ea8;fill-opacity:1"/>
    <path d="M411.2 569.7v73.2L195.3 515v-76.5l215.9 131.2zm255.9 151.2v73.2l-196.6-115v-76.5l196.6 118.3zM148 409.4v73.2L10 403.8v-76.5l138 82.1z" style="fill:#f4717c"/>
    <path d="M438.2 153.5V82.7L10.7 328.1v73.8l427.5-248.4z" style="fill:#f4717c"/>
    <path d="m803.1 582.7-17.2 11.5 3.7 2.6 6.4-3.6 7.1 16.1-25.3-5 5.7-3.5-10.1-6.6 24.3-15.1 5.4 3.6zm-640.633-82.826-11.2 16.9-6.4-3.9-17.4 12.2-7.2-4.5 19.4-11.3-5.2-4z" style="fill:#fff"/>
    <path d="m696.5 173.8-74.1-40.7 45.5-20.8 77.7 39.1-49.1 22.4z" style="fill:#99c95e;stroke:#0b608c;stroke-width:1.22;stroke-miterlimit:10"/>
    <path d="m886.6 429.3-74.1-40.7 24.6-11.2 71.9 40.9-22.4 11z" style="fill:#99c95e;stroke:#0b608c;stroke-width:1.22;stroke-miterlimit:10" transform="translate(-364.55 -231.26)"/>
    <path d="m886.6 429.3-1.7 32.4-73.6-43.4 1.2-29.8 74.1 40.8z" style="fill:#99c95e;stroke:#0b608c;stroke-width:1.22;stroke-miterlimit:10" transform="translate(-364.55 -231.26)"/>
    <path d="m884.9 461.7 1.7-32.4 22.9-10.6-.5 30.3-24.1 12.7zm173.7 75.8-74.1-40.7 24.6-11.2 71.9 40.9-22.4 11z" style="fill:#99c95e;stroke:#0b608c;stroke-width:1.22;stroke-miterlimit:10" transform="translate(-364.55 -231.26)"/>
    <path d="m1058.6 537.5-1.7 32.4-73.6-43.4 1.2-29.8 74.1 40.8zm-1.7 32.4 1.7-32.4 22.9-10.6-.5 30.3-24.1 12.7z" style="fill:#99c95e;stroke:#0b608c;stroke-width:1.22;stroke-miterlimit:10" transform="translate(-364.55 -231.26)"/>
    <path d="m696.5 173.9-1.7 32.4-73.6-43.3 1.2-29.8 74.1 40.7z" style="fill:#99c95e;stroke:#0b608c;stroke-width:1.22;stroke-miterlimit:10"/>
    <path d="m694.8 206.3 1.7-32.4 49.1-22.5-.4 27.5-50.4 27.4z" style="fill:#99c95e;stroke:#0b608c;stroke-width:1.22;stroke-miterlimit:10"/>
    <path d="m439.8 666.7 10.8-16.6-26.8 5.5 4.6 3.5-17.9 10.2 6.2 4.3 17.1-11.3 6 4.4z" style="fill:#fff"/>
    <path d="m1068.9 937-28.2-16.5 66.4-36.5 26.1 17.9-64.3 35.1z" style="fill:#99c95e;stroke:#0b608c;stroke-width:1.22;stroke-miterlimit:10" transform="translate(-364.55 -231.26)"/>
    <path d="m1068.9 937-28.2-16.5.3 28.4 26.4 18 1.5-29.9zm-1.4 29.9 1.4-29.9 64.3-35.1-.2 26.5-65.5 38.5zm261-189.5-28.7-15.5 65.1-38.8 26.7 17-63.1 37.3z" style="fill:#99c95e;stroke:#0b608c;stroke-width:1.22;stroke-miterlimit:10" transform="translate(-364.55 -231.26)"/>
    <path d="m1328.5 777.4-28.7-15.5 1.3 28.3 27 17 .4-29.8zm-.4 29.9.4-29.9 63.1-37.3.8 26.5-64.3 40.7z" style="fill:#99c95e;stroke:#0b608c;stroke-width:1.22;stroke-miterlimit:10" transform="translate(-364.55 -231.26)"/>
    <path d="m1246.7 828.4-28.7-15.5 65.1-38.8 26.7 17-63.1 37.3z" style="fill:#99c95e;stroke:#0b608c;stroke-width:1.22;stroke-miterlimit:10" transform="translate(-364.55 -231.26)"/>
    <path d="m1246.7 828.4-28.7-15.5 1.3 28.3 27 17 .4-29.8zm-.4 29.9.4-29.9 63.1-37.3.8 26.5-64.3 40.7zm-85.1 23.3-28.7-15.5 1.3 28.3 27 17 .4-29.8z" style="fill:#99c95e;stroke:#0b608c;stroke-width:1.22;stroke-miterlimit:10" transform="translate(-364.55 -231.26)"/>
    <path d="m1161.2 881.6-28.7-15.5 65.1-38.8 26.7 17-63.1 37.3z" style="fill:#99c95e;stroke:#0b608c;stroke-width:1.22;stroke-miterlimit:10" transform="translate(-364.55 -231.26)"/>
    <path d="m1160.8 911.5.4-29.9 63.1-37.3.8 26.5-64.3 40.7z" style="fill:#99c95e;stroke:#0b608c;stroke-width:1.22;stroke-miterlimit:10" transform="translate(-364.55 -231.26)"/>
    <path d="M667.9 721.5v73.2l424.4-255.2v-73.8L667.9 721.5z" style="fill:#f4717c"/>
    <path d="m985.8 206.9-75-41.2 1.3 28.4 73.3 42.8.4-30z" style="fill:#99c95e;stroke:#0b608c;stroke-width:1.22;stroke-miterlimit:10"/>
    <path d="m985.4 236.8.4-29.9 123.7-76.2v29l-124.1 77.1zm124-106.2-27.5-14.5-103.5 62.4-42.9-23.6-24.6 11.2 74.1 40.7.4-.2.4.2 20.8-12.8 102.8-63.4z" style="fill:#99c95e;stroke:#0b608c;stroke-width:1.22;stroke-miterlimit:10"/>
    <path style="fill:#99c95e" d="M1367.8 194.7h150.8v150.8h-150.8z"/>
    <path style="fill:#0b608c" d="M1518.6 194.7h150.8v150.8h-150.8z"/>
    <path style="fill:#3696c9" d="M1669.4 194.7h150.8v150.8h-150.8z"/>
    <path style="fill:#f4717c" d="M1820.2 194.7H1971v150.8h-150.8z"/>
    <path style="fill:#fed0d5" d="M1820.2 42.2H1971V193h-150.8z"/>
    <path style="fill:#d4f0ff" d="M1669.4 42.2h150.8V193h-150.8z"/>
    <path style="fill:#3e536b" d="M1518.6 42.2h150.8V193h-150.8z"/>
</svg>
