<?xml version="1.0" encoding="UTF-8" standalone="no"?>
<svg
   xmlns:dc="http://purl.org/dc/elements/1.1/"
   xmlns:cc="http://creativecommons.org/ns#"
   xmlns:rdf="http://www.w3.org/1999/02/22-rdf-syntax-ns#"
   xmlns:svg="http://www.w3.org/2000/svg"
   xmlns="http://www.w3.org/2000/svg"
   version="1.1"
   id="svg5664"
   viewBox="0 0 92.599999 142.30319"
   height="40.161121mm"
   width="26.133778mm">
  <defs
     id="defs5666" />
  <metadata
     id="metadata5669">
    <rdf:RDF>
      <cc:Work
         rdf:about="">
        <dc:format>image/svg+xml</dc:format>
        <dc:type
           rdf:resource="http://purl.org/dc/dcmitype/StillImage" />
        <dc:title></dc:title>
      </cc:Work>
    </rdf:RDF>
  </metadata>
  <g
     transform="translate(-336.55714,-544.06775)"
     id="layer1">
    <path
       style="fill:#966b2a;fill-opacity:1"
       d="m 429.15714,590.37094 c 0,25.7 -46.3,96 -46.3,96 0,0 -46.3,-70.3 -46.3,-96 0,-25.7 20.9,-46.3 46.3,-46.3 25.7,-0.3 46.3,20.6 46.3,46.3"
       class="st4257"
       id="path659_2_" />
    <g
       transform="translate(-490.14286,304.87094)"
       id="g357">
      <path
         style="fill:#f6f6f6"
         id="path359"
         d="m 853.7,264.3 c 1.1,1 1.6,2.7 1.6,4.9 l 0,13.1 -5,0 -10.7,0 -1,0 0,-19.5 4.9,0 5.9,0 c 1.8,-0.1 3.2,0.4 4.3,1.5 z m -3.4,14.3 0,-9.6 c 0,-1.7 -0.8,-2.5 -2.3,-2.5 l -4.5,0 0,12.1 6.8,0 z"
         class="st4183" />
      <path
         style="fill:#f6f6f6"
         id="path361"
         d="m 873.7,262.7 0,4.1 -6.2,15.5 -4.9,0 6.1,-15.8 -9.9,0 0,-8.7 4.4,0 0,5 10.5,0 z"
         class="st4183" />
      <path
         style="fill:#f6f6f6"
         id="path363"
         d="m 877.8,266.7 -0.4,-4 4.9,0 0.4,4 0,15.5 -4.9,0 0,-15.5 z"
         class="st4183" />
      <path
         style="fill:#f6f6f6"
         id="path365"
         d="m 900.3,282.2 -6.4,-9.9 -3,9.9 -4.7,0 3.8,-11.7 1.1,-2.6 -3.2,-5.2 5,0 2.7,4.4 2.5,3.7 0.9,-3.1 1.4,-5.1 4.7,0 -4.1,12.4 4.7,7.1 -5.4,0 z"
         class="st4183" />
      <path
         style="fill:#f6f6f6"
         id="path367"
         d="m 837.5,291.8 -0.4,-4 4.9,0 0.4,4 0,5.3 0,2.2 -4.9,0.9 0,-8.4 z"
         class="st4183" />
      <path
         style="fill:#f6f6f6"
         id="path369"
         d="m 862.9,304.1 c -2.8,2.4 -7,3.6 -12.8,3.6 l -1.1,0 -2.6,-19.9 4.7,0 1,8.4 c 0.9,-0.5 1.5,-1.1 1.8,-2.1 0.3,-0.9 0.5,-2.3 0.4,-4.1 l 0,-2.3 4.7,0 0,2.2 c 0,2.5 -0.5,4.5 -1.5,6.1 -1,1.6 -2.6,2.8 -5.1,3.6 l 0.5,3.9 c 3.3,-0.2 5.6,-1.1 7,-2.8 1.4,-1.7 2.1,-4 2.1,-7 l -0.1,-6 5,0 0,5.7 c 0.2,4.8 -1.2,8.3 -4,10.7 z"
         class="st4183" />
      <path
         style="fill:#f6f6f6"
         id="path371"
         d="m 884,307.3 -6.4,-9.9 -3,9.9 -4.7,0 3.8,-11.7 1.1,-2.6 -3.2,-5.2 5,0 2.7,4.4 2.5,3.7 0.9,-3.1 1.4,-5.1 4.7,0 -4.1,12.4 4.7,7.1 -5.4,0 z"
         class="st4183" />
      <path
         style="fill:#f6f6f6"
         id="path373"
         d="m 901,294 c 0,-1.7 -0.8,-2.5 -2.3,-2.5 l -6.7,0 0,-3.7 8,0 c 1.8,0 3.3,0.5 4.3,1.6 1,1.1 1.6,2.7 1.6,4.9 l 0,13.1 -5,0 0,-13.4 z"
         class="st4183" />
    </g>
  </g>
</svg>
