<?xml version="1.0" encoding="UTF-8" standalone="no"?>
<svg
   xmlns:dc="http://purl.org/dc/elements/1.1/"
   xmlns:cc="http://creativecommons.org/ns#"
   xmlns:rdf="http://www.w3.org/1999/02/22-rdf-syntax-ns#"
   xmlns:svg="http://www.w3.org/2000/svg"
   xmlns="http://www.w3.org/2000/svg"
   id="svg1229"
   version="1.1"
   viewBox="0 0 35.189583 27.717752"
   height="27.717752mm"
   width="35.189583mm">
  <defs
     id="defs1223" />
  <metadata
     id="metadata1226">
    <rdf:RDF>
      <cc:Work
         rdf:about="">
        <dc:format>image/svg+xml</dc:format>
        <dc:type
           rdf:resource="http://purl.org/dc/dcmitype/StillImage" />
        <dc:title></dc:title>
      </cc:Work>
    </rdf:RDF>
  </metadata>
  <g
     transform="translate(-85.214729,-103.22446)"
     id="layer1">
    <path
       style="fill:#0b8e36;stroke-width:0.26458332;fill-opacity:1"
       d="m 108.30491,119.63656 c 0,3.02154 -5.4954,11.30565 -5.4954,11.30565 0,0 -5.495393,-8.28411 -5.495393,-11.30565 0,-3.02154 2.473854,-5.49539 5.495393,-5.49539 3.048,0.0291 5.4954,2.4765 5.4954,5.49539"
       class="st2"
       id="path429_7_" />
    <rect
       style="fill:#a22442;stroke-width:0.26458332"
       height="9.149292"
       width="35.189583"
       class="st2"
       y="103.22446"
       x="85.214729"
       id="rect311_7_" />
    <g
       transform="matrix(0.26458333,0,0,0.26458333,-168.72707,35.274168)"
       id="g258">
      <path
         style="fill:#ffffff"
         id="path240"
         d="m 979.44,266.59 v 1.74 h -2.3 v 11.99 h -2.17 v -11.99 h -6.53 v -1.74 z"
         class="st8" />
      <path
         style="fill:#ffffff"
         id="path242"
         d="m 982.95,268.33 h -1.6 v -1.74 h 3.76 v 13.73 h -2.17 v -11.99 z"
         class="st8" />
      <path
         style="fill:#ffffff"
         id="path244"
         d="m 990.27,271.59 c 0.08,-0.64 0.26,-1.24 0.54,-1.8 0.28,-0.56 0.62,-1 1,-1.3 0.03,-0.02 0.11,-0.08 0.23,-0.16 l -0.02,-0.04 c -0.35,0.06 -0.79,0.16 -1.31,0.3 -0.52,0.14 -1,0.28 -1.44,0.43 l -0.5,-1.63 c 0.9,-0.31 1.91,-0.56 3.03,-0.76 1.12,-0.19 2.15,-0.29 3.09,-0.29 1.85,0 3.26,0.49 4.24,1.47 0.97,0.98 1.47,2.43 1.47,4.33 v 8.18 h -5.65 v -1.74 h 3.5 v -6.69 c 0,-1.22 -0.28,-2.15 -0.83,-2.79 -0.55,-0.64 -1.35,-0.96 -2.4,-0.96 -0.75,0 -1.38,0.29 -1.89,0.87 -0.51,0.58 -0.82,1.37 -0.93,2.36 l -1.04,8.94 h -2.13 z"
         class="st8" />
      <path
         style="fill:#ffffff"
         id="path246"
         d="M 1005.52,268.33 H 1003 v -1.74 h 4.68 v 7.66 h -2.17 v -5.92 z"
         class="st8" />
      <path
         style="fill:#ffffff"
         id="path248"
         d="m 1017.62,273.99 3.62,5.23 v 1.1 h -10.16 v -1.75 h 7.38 l -8.2,-11.98 h 2.44 l 3.66,5.52 3.04,-5.52 h 2.44 z"
         class="st8" />
      <path
         style="fill:#ffffff"
         id="path250"
         d="m 1040.31,267.89 c 0.9,0.87 1.35,2.19 1.35,3.96 v 8.47 h -2.16 l -0.01,-8.6 c 0,-1.19 -0.25,-2.05 -0.76,-2.59 -0.51,-0.54 -1.33,-0.8 -2.46,-0.8 h -1.95 c -0.26,0.42 -0.46,0.96 -0.61,1.61 -0.15,0.66 -0.23,1.33 -0.23,2.02 v 4.63 c 0,1.26 -0.3,2.21 -0.9,2.87 -0.6,0.65 -1.47,0.98 -2.61,0.98 -0.33,0 -0.78,-0.04 -1.34,-0.1 v -1.74 c 0.25,0.03 0.52,0.05 0.8,0.05 0.68,0 1.17,-0.17 1.47,-0.52 0.3,-0.35 0.46,-0.9 0.46,-1.65 v -4.33 c 0,-0.71 0.09,-1.41 0.28,-2.11 0.19,-0.7 0.44,-1.26 0.77,-1.68 h -2.58 v -1.74 h 6.4 c 1.82,-0.03 3.18,0.4 4.08,1.27 z"
         class="st8" />
      <path
         style="fill:#ffffff"
         id="path252"
         d="m 1055.12,266.59 v 1.74 h -2.3 v 11.99 h -2.17 v -11.99 h -6.53 v -1.74 z"
         class="st8" />
      <path
         style="fill:#ffffff"
         id="path254"
         d="m 1058.9,271.59 c 0.08,-0.64 0.26,-1.24 0.54,-1.8 0.28,-0.56 0.62,-1 1,-1.3 0.03,-0.02 0.11,-0.08 0.23,-0.16 l -0.02,-0.04 c -0.35,0.06 -0.79,0.16 -1.31,0.3 -0.52,0.14 -1,0.28 -1.44,0.43 l -0.5,-1.63 c 0.9,-0.31 1.91,-0.56 3.03,-0.76 1.12,-0.19 2.15,-0.29 3.09,-0.29 1.85,0 3.26,0.49 4.24,1.47 0.97,0.98 1.47,2.43 1.47,4.33 v 8.18 h -5.65 v -1.74 h 3.5 v -6.69 c 0,-1.22 -0.28,-2.15 -0.83,-2.79 -0.55,-0.64 -1.35,-0.96 -2.4,-0.96 -0.75,0 -1.38,0.29 -1.89,0.87 -0.51,0.58 -0.82,1.37 -0.93,2.36 l -1.04,8.94 h -2.13 z"
         class="st8" />
      <path
         style="fill:#ffffff"
         id="path256"
         d="m 1082.7,266.59 v 8.23 c 0,1.24 -0.25,2.29 -0.76,3.15 -0.51,0.86 -1.22,1.52 -2.14,1.97 -0.92,0.45 -1.99,0.67 -3.2,0.67 -1.56,0 -3.19,-0.32 -4.88,-0.97 l 0.52,-1.61 c 1.35,0.52 2.57,0.82 3.65,0.89 -0.58,-0.67 -0.96,-1.44 -1.15,-2.32 l -2.27,-10.01 h 2.17 l 2.23,10.13 c 0.1,0.47 0.21,0.87 0.32,1.2 0.11,0.33 0.24,0.63 0.41,0.9 0.93,-0.21 1.66,-0.65 2.19,-1.32 0.52,-0.67 0.79,-1.53 0.79,-2.6 v -8.31 z"
         class="st8" />
    </g>
  </g>
</svg>
