<?xml version="1.0" encoding="UTF-8" standalone="no"?>
<svg
   xmlns:dc="http://purl.org/dc/elements/1.1/"
   xmlns:cc="http://creativecommons.org/ns#"
   xmlns:rdf="http://www.w3.org/1999/02/22-rdf-syntax-ns#"
   xmlns:svg="http://www.w3.org/2000/svg"
   xmlns="http://www.w3.org/2000/svg"
   xmlns:xlink="http://www.w3.org/1999/xlink"
   height="117.90002"
   width="222.60001"
   id="svg2"
   xml:space="preserve"
   viewBox="0 0 222.60001 117.90003"
   y="0px"
   x="0px"
   version="1.1"><metadata
     id="metadata1012"><rdf:RDF><cc:Work
         rdf:about=""><dc:format>image/svg+xml</dc:format><dc:type
           rdf:resource="http://purl.org/dc/dcmitype/StillImage" /><dc:title></dc:title></cc:Work></rdf:RDF></metadata><defs
     id="defs1010"><defs
       id="defs994"><rect
         height="1672.2"
         width="1105.5"
         y="136.39999"
         x="-128.60001"
         id="SVGID_81_" /></defs><clipPath
       id="SVGID_82_"><use
         height="100%"
         width="100%"
         y="0"
         x="0"
         id="use998"
         style="overflow:visible"
         xlink:href="#SVGID_81_" /></clipPath></defs><style
     id="style4"
     type="text/css">
	.st0{display:none;}
	.st1{display:inline;fill:#B5B0C1;}
	.st2{display:inline;fill:#FFFFFF;}
	.st3{display:inline;fill:none;stroke:#141032;stroke-width:0.25;}
	.st4{display:inline;fill:#43255C;}
	.st5{display:inline;}
	.st6{clip-path:url(#SVGID_2_);fill:none;stroke:#141032;stroke-width:0.25;}
	.st7{display:inline;fill:none;stroke:#141032;stroke-width:0.5;}
	.st8{display:inline;fill:#99AC64;}
	.st9{clip-path:url(#SVGID_4_);fill:none;stroke:#141032;stroke-width:0.25;}
	.st10{clip-path:url(#SVGID_6_);fill:#43255C;}
	.st11{clip-path:url(#SVGID_8_);fill:#FBB65A;}
	.st12{clip-path:url(#SVGID_8_);fill:none;stroke:#141032;stroke-width:0.5;stroke-miterlimit:10;}
	.st13{display:inline;fill:#F7D685;}
	.st14{clip-path:url(#SVGID_10_);fill:#141032;}
	.st15{display:inline;fill:#141032;}
	.st16{display:inline;fill:none;stroke:#231F20;stroke-width:0.25;}
	.st17{clip-path:url(#SVGID_12_);fill:#141032;}
	.st18{clip-path:url(#SVGID_12_);fill:#FFFFFF;}
	.st19{clip-path:url(#SVGID_14_);fill:#141032;}
	.st20{clip-path:url(#SVGID_14_);fill:#FFFFFF;}
	.st21{display:inline;fill:#D81278;}
	.st22{clip-path:url(#SVGID_16_);fill:#141032;}
	.st23{clip-path:url(#SVGID_18_);fill:#141032;}
	.st24{clip-path:url(#SVGID_18_);fill:#FFFFFF;}
	.st25{clip-path:url(#SVGID_20_);fill:#141032;}
	.st26{clip-path:url(#SVGID_22_);fill:#141032;}
	.st27{clip-path:url(#SVGID_24_);fill:#FFFFFF;}
	.st28{clip-path:url(#SVGID_26_);fill:#FFFFFF;}
	.st29{clip-path:url(#SVGID_28_);fill:#141032;}
	.st30{clip-path:url(#SVGID_30_);fill:#141032;}
	.st31{clip-path:url(#SVGID_32_);fill:#FFFFFF;}
	.st32{clip-path:url(#SVGID_34_);fill:#FFFFFF;}
	.st33{display:inline;fill:#8ACDAB;}
	.st34{clip-path:url(#SVGID_36_);fill:#141032;}
	.st35{clip-path:url(#SVGID_38_);fill:#FFFFFF;}
	.st36{fill:#B5B0C1;}
	.st37{fill:#2BC0D6;}
	.st38{fill:#FFFFFF;}
	.st39{fill:none;stroke:#141032;stroke-width:0.25;}
	.st40{clip-path:url(#SVGID_40_);fill:none;stroke:#141032;stroke-width:0.25;}
	.st41{clip-path:url(#SVGID_42_);fill:none;stroke:#141032;stroke-width:0.25;}
	.st42{clip-path:url(#SVGID_44_);fill:none;stroke:#141032;stroke-width:0.25;}
	.st43{clip-path:url(#SVGID_46_);fill:none;stroke:#141032;stroke-width:0.25;}
	.st44{fill:none;stroke:#141032;stroke-width:0.5;}
	.st45{clip-path:url(#SVGID_48_);fill:#FFFFFF;}
	.st46{clip-path:url(#SVGID_48_);fill:none;stroke:#141032;stroke-width:0.5;}
	.st47{clip-path:url(#SVGID_50_);fill:#2BC0D6;}
	.st48{fill:#F7D685;}
	.st49{fill:#141032;}
	.st50{clip-path:url(#SVGID_52_);fill:#141032;}
	.st51{clip-path:url(#SVGID_54_);fill:#141032;}
	.st52{clip-path:url(#SVGID_54_);fill:#FFFFFF;}
	.st53{clip-path:url(#SVGID_56_);fill:#141032;}
	.st54{clip-path:url(#SVGID_56_);fill:#FFFFFF;}
	.st55{clip-path:url(#SVGID_58_);fill:#141032;}
	.st56{clip-path:url(#SVGID_58_);fill:#FFFFFF;}
	.st57{clip-path:url(#SVGID_60_);fill:#141032;}
	.st58{font-family:'Alef-Bold';}
	.st59{font-size:33.113px;}
	.st60{clip-path:url(#SVGID_64_);fill:#141032;}
	.st61{clip-path:url(#SVGID_68_);fill:#141032;}
	.st62{clip-path:url(#SVGID_70_);}
	.st63{clip-path:url(#SVGID_74_);fill:#141032;}
	.st64{clip-path:url(#SVGID_76_);}
	.st65{clip-path:url(#SVGID_80_);fill:#141032;}
	.st66{clip-path:url(#SVGID_80_);fill:#FFFFFF;}
	.st67{clip-path:url(#SVGID_82_);fill:#141032;}
	.st68{clip-path:url(#SVGID_82_);fill:#FFFFFF;}
</style><g
     id="g5123"
     transform="translate(-801.6734,-545.09998)"><rect
       style="fill:#141032"
       id="rect988"
       height="222.60001"
       width="38.5"
       class="st49"
       y="801.6734"
       x="-583.59998"
       transform="matrix(0,-1,1,0,0,0)" /><path
       style="fill:#f7d685"
       id="path990"
       d="m 828.77343,556.5 c 0.7,0 1.3,0.1 2,0.2 0.7,0.2 1.3,0.4 1.8,0.9 0.5,0.4 0.9,1 1.3,1.7 0.3,0.7 0.5,1.7 0.5,2.9 l 0,11.2 -15.7,0 0,-9.2 c 0,-0.7 0,-1.3 0.1,-2 0.1,-0.7 0.2,-1.4 0.4,-2.2 -0.4,-0.1 -0.8,-0.1 -1.1,-0.2 -0.4,-0.1 -0.8,-0.2 -1.3,-0.4 0.2,-0.6 0.3,-1.2 0.5,-1.7 0.2,-0.6 0.4,-1.1 0.6,-1.7 0.5,0.2 1,0.3 1.4,0.4 0.4,0.1 0.8,0.2 1.1,0.2 0.4,0 0.7,0.1 1.1,0.1 0.4,0 0.9,0 1.5,0 l 5.8,0 z m 1.2,13.3 0,-6.6 c 0,-0.7 0,-1.2 -0.1,-1.6 -0.1,-0.4 -0.2,-0.7 -0.4,-1 -0.2,-0.2 -0.5,-0.4 -0.9,-0.5 -0.4,-0.1 -0.9,-0.1 -1.6,-0.1 l -3.6,0 c -0.2,0.7 -0.3,1.4 -0.3,2 0,0.6 0,1.3 0,1.9 l 0,5.8 6.9,0 z m 16.1,-13.3 0,6.1 c 0,0.6 0,1.1 0,1.5 0,0.4 0,0.7 -0.1,1.1 0,0.3 -0.1,0.6 -0.1,0.9 -0.1,0.3 -0.1,0.6 -0.2,1 l -4.3,-0.6 c 0.1,-0.3 0.1,-0.6 0.1,-0.9 0,-0.3 0.1,-0.6 0.1,-0.9 0,-0.3 0.1,-0.6 0.1,-1 0,-0.4 0,-0.8 0,-1.4 l 0,-2.3 -3.7,0 0,-3.5 8.1,0 z m 19.2,0.7 -0.1,2.1 -0.9,3.2 c -0.1,0.5 -0.3,1 -0.4,1.4 -0.2,0.4 -0.3,0.8 -0.5,1.2 -0.2,0.4 -0.5,0.7 -0.8,1.1 -0.3,0.4 -0.7,0.7 -1.1,1.1 l 2.7,3.1 c -0.1,0.5 -0.1,1 -0.2,1.5 -0.1,0.6 -0.2,1.1 -0.3,1.5 l -13.7,0 0,-3.5 8.8,0 c -1,-1.2 -2,-2.4 -3.1,-3.5 -1,-1.2 -2,-2.3 -3.1,-3.5 -0.4,-0.5 -0.8,-1 -1.1,-1.4 -0.3,-0.4 -0.6,-0.8 -0.8,-1.2 -0.2,-0.4 -0.5,-0.8 -0.7,-1.3 -0.2,-0.5 -0.4,-1 -0.7,-1.6 0.6,-0.2 1.2,-0.5 1.9,-0.7 0.7,-0.2 1.3,-0.5 1.9,-0.7 0.2,0.6 0.5,1.1 0.7,1.6 0.2,0.5 0.4,0.9 0.7,1.3 0.2,0.4 0.5,0.8 0.8,1.3 0.3,0.4 0.7,0.9 1.1,1.4 l 2.8,3.2 c 0.2,-0.2 0.3,-0.4 0.4,-0.5 0.1,-0.2 0.2,-0.4 0.3,-0.7 0.1,-0.2 0.2,-0.5 0.3,-0.8 0.1,-0.3 0.2,-0.6 0.3,-1 l 0.5,-2 -2.4,-0.5 0.8,-3.3 5.9,1.2 z m 7.7,-1.7 c 1,0.2 1.9,0.5 2.7,0.7 0.8,0.2 1.5,0.4 2.1,0.6 0.6,0.2 1.2,0.4 1.8,0.5 0.5,0.2 1.1,0.4 1.6,0.6 0.5,0.2 1,0.5 1.4,0.8 0.4,0.3 0.7,0.6 0.9,1 0.2,0.4 0.4,0.8 0.5,1.3 0.1,0.5 0.1,1 0.1,1.6 l 0,6.5 c 0,0.3 0,0.5 0,0.8 0,0.2 0,0.5 -0.1,0.8 -0.1,0.3 -0.1,0.7 -0.2,1.1 -0.1,0.4 -0.2,1 -0.4,1.6 l -14.5,0 0,-3.5 11,0 0,-6.7 c 0,-0.4 0,-0.7 0,-1 0,-0.3 -0.1,-0.5 -0.2,-0.7 -0.1,-0.2 -0.2,-0.4 -0.4,-0.5 -0.2,-0.1 -0.4,-0.3 -0.8,-0.4 -0.4,-0.2 -0.9,-0.3 -1.4,-0.5 -0.5,-0.2 -1.1,-0.3 -1.7,-0.5 l -1.5,3.2 2.1,1.3 -2,3.2 -5.1,-3.1 4.1,-8.7 z m 26,1 c 0.7,0 1.3,0.1 2,0.2 0.7,0.2 1.3,0.4 1.8,0.9 0.5,0.4 0.9,1 1.3,1.7 0.3,0.7 0.5,1.7 0.5,2.9 l 0,11.2 -4.4,0 0,-10.1 c 0,-0.7 0,-1.2 -0.1,-1.6 -0.1,-0.4 -0.2,-0.7 -0.4,-1 -0.2,-0.2 -0.5,-0.4 -0.9,-0.5 -0.4,-0.1 -0.9,-0.1 -1.6,-0.1 l -3.3,0 c -0.2,0.7 -0.3,1.4 -0.3,2 0,0.6 0,1.3 0,1.9 l 0,9.3 -4.4,0 0,-9.2 c 0,-0.7 0,-1.3 0.1,-2 0.1,-0.7 0.2,-1.4 0.4,-2.2 -0.4,-0.1 -0.8,-0.1 -1.1,-0.2 -0.4,-0.1 -0.8,-0.2 -1.3,-0.4 0.2,-0.6 0.3,-1.2 0.5,-1.7 0.2,-0.6 0.4,-1.1 0.6,-1.7 0.5,0.2 1,0.3 1.4,0.4 0.4,0.1 0.8,0.2 1.1,0.2 0.4,0 0.7,0.1 1.1,0.1 0.4,0 0.9,0 1.5,0 l 5.5,0 z m 30.3,0 c 0.7,0 1.3,0.1 2,0.2 0.7,0.2 1.3,0.4 1.8,0.9 0.5,0.4 0.9,1 1.3,1.7 0.3,0.7 0.5,1.7 0.5,2.8 l 0,11.2 -4.4,0 0,-10.1 c 0,-0.7 0,-1.2 -0.1,-1.6 -0.1,-0.4 -0.2,-0.7 -0.4,-1 -0.2,-0.2 -0.5,-0.4 -0.9,-0.5 -0.4,-0.1 -0.9,-0.1 -1.6,-0.1 l -2.4,0 c -0.4,0.7 -0.6,1.5 -0.7,2.4 -0.1,0.9 -0.2,1.7 -0.2,2.5 0,0.5 0,0.9 0,1.3 0,0.4 0.1,0.8 0.1,1.2 0.1,0.4 0.1,0.8 0.2,1.2 0.1,0.4 0.2,0.8 0.3,1.2 l 0.3,1 c 0,0.5 -0.1,0.9 -0.2,1.3 -0.1,0.4 -0.1,0.8 -0.2,1.2 l -7.9,0 0,-3.5 3.7,0 c -0.3,-0.8 -0.5,-1.6 -0.6,-2.4 -0.1,-0.8 -0.2,-1.5 -0.2,-2.3 0,-0.6 0,-1.2 0.1,-1.8 0.1,-0.6 0.2,-1.2 0.4,-1.8 0.1,-0.3 0.2,-0.6 0.3,-0.8 0.1,-0.3 0.2,-0.5 0.3,-0.8 -0.5,0 -0.9,-0.1 -1.4,-0.2 -0.5,-0.1 -1,-0.3 -1.6,-0.5 0.2,-0.6 0.3,-1.2 0.5,-1.7 0.2,-0.6 0.4,-1.1 0.6,-1.7 0.5,0.2 1,0.3 1.4,0.4 0.4,0.1 0.8,0.2 1.1,0.2 0.4,0 0.7,0.1 1.1,0.1 0.4,0 0.9,0 1.5,0 l 5.3,0 z m 14.1,3.5 c -0.5,0 -1,0 -1.5,0 -0.4,0 -0.8,0 -1.2,-0.1 -0.4,0 -0.8,-0.1 -1.2,-0.2 -0.4,-0.1 -0.9,-0.2 -1.4,-0.4 0.2,-0.6 0.3,-1.2 0.5,-1.7 0.2,-0.6 0.4,-1.1 0.6,-1.7 0.5,0.2 1,0.3 1.4,0.4 0.4,0.1 0.8,0.2 1.1,0.2 0.4,0 0.7,0.1 1.1,0.1 0.4,0 0.9,0 1.5,0 l 2,0 c 0.7,0 1.3,0.1 2,0.2 0.7,0.2 1.3,0.4 1.8,0.9 0.5,0.4 0.9,1 1.3,1.7 0.3,0.7 0.5,1.7 0.5,2.8 l 0,11.2 -4.4,0 0,-10.1 c 0,-0.7 0,-1.2 -0.1,-1.6 -0.1,-0.4 -0.2,-0.7 -0.4,-1 -0.2,-0.2 -0.5,-0.4 -0.9,-0.5 -0.4,-0.1 -0.9,-0.1 -1.6,-0.1 l -1.1,0 z m 20.1,-3.5 0,6.1 c 0,0.6 0,1.1 0,1.5 0,0.4 0,0.7 -0.1,1.1 0,0.3 -0.1,0.6 -0.1,0.9 -0.1,0.3 -0.1,0.6 -0.2,1 l -4.3,-0.6 c 0.1,-0.3 0.1,-0.6 0.1,-0.9 0,-0.3 0.1,-0.6 0.1,-0.9 0,-0.3 0.1,-0.6 0.1,-1 0,-0.4 0,-0.8 0,-1.4 l 0,-2.3 -3.7,0 0,-3.5 8.1,0 z m 3.9,1.3 c 0.6,-0.4 1.1,-0.7 1.7,-1.1 0.6,-0.3 1.1,-0.7 1.7,-1 0.3,0.3 0.5,0.6 0.7,0.9 0.2,0.3 0.3,0.5 0.5,0.7 0.1,0.2 0.3,0.5 0.4,0.7 0.1,0.2 0.2,0.5 0.3,0.7 0.9,-0.9 1.9,-1.6 2.9,-2 1,-0.4 2,-0.7 3,-0.7 0.7,0 1.3,0.1 2,0.3 0.6,0.2 1.2,0.5 1.7,0.9 0.5,0.4 0.9,0.9 1.3,1.4 0.4,0.6 0.6,1.2 0.8,1.9 0.1,0.6 0.2,1.2 0.2,2 0,0.7 0,1.5 0,2.4 0,0.4 0,0.8 0,1.3 0,0.5 0,1 0,1.6 0,0.7 0,1.5 0,2.1 0,0.7 -0.1,1.2 -0.1,1.7 0,0.2 0,0.5 -0.1,0.7 0,0.3 -0.1,0.5 -0.1,0.8 l -8.5,0 0,-3.5 4.3,0 c 0,-0.1 0,-0.2 0,-0.3 0,-0.2 0,-0.4 0,-0.7 0,-0.3 0,-0.8 0,-1.3 0,-0.5 0,-1.2 0,-1.9 0,-0.2 0,-0.5 0,-0.8 0,-0.3 0,-0.6 0,-1 0,-0.3 0,-0.7 0,-1 0,-0.3 0,-0.6 0,-0.8 -0.1,-0.9 -0.4,-1.5 -0.8,-1.9 -0.4,-0.4 -1,-0.5 -1.7,-0.5 -0.4,0 -0.8,0.1 -1.2,0.2 -0.4,0.2 -0.8,0.4 -1.3,0.7 -0.2,0.2 -0.5,0.4 -0.7,0.6 -0.2,0.2 -0.5,0.5 -0.7,0.7 -0.2,1.2 -0.3,2.2 -0.5,3.1 -0.1,0.9 -0.2,1.6 -0.3,2.3 -0.1,0.6 -0.2,1.2 -0.3,1.7 -0.1,0.5 -0.1,1 -0.2,1.4 -0.1,0.5 -0.1,1 -0.2,1.5 -0.1,0.5 -0.2,1.1 -0.3,1.7 l -4.4,0 0.4,-2.8 c 0.1,-0.7 0.2,-1.3 0.3,-2 0.1,-0.6 0.2,-1.2 0.3,-1.9 0.1,-0.6 0.2,-1.2 0.3,-1.9 0.1,-0.6 0.2,-1.3 0.3,-2 0,-0.2 0,-0.4 0,-0.5 0,-0.2 0,-0.3 0,-0.5 0,-0.3 0,-0.6 -0.1,-0.8 0,-0.2 -0.1,-0.5 -0.2,-0.7 -0.1,-0.2 -0.2,-0.4 -0.3,-0.7 -0.1,-0.2 -0.3,-0.5 -0.4,-0.8 l -0.7,-0.9 z m 26,12.3 c 0.2,0 0.4,0 0.7,0 0.2,0 0.5,0 0.7,0 0.6,0 1.3,-0.1 2,-0.2 0.7,-0.1 1.4,-0.3 2,-0.6 0.6,-0.3 1.29997,-0.7 1.79997,-1.2 0.6,-0.5 1.1,-1.1 1.5,-1.9 0.6,-1.1 1,-2.2 1.3,-3.3 0.2,-1.1 0.3,-2.3 0.3,-3.5 0,-0.5 0,-0.9 0,-1.4 0,-0.5 -0.1,-0.9 -0.1,-1.4 0.5,-0.1 0.9,-0.2 1.2,-0.3 0.3,-0.1 0.7,-0.2 1,-0.2 0.3,-0.1 0.6,-0.1 1,-0.2 0.4,-0.1 0.8,-0.1 1.3,-0.2 0.1,0.5 0.2,1 0.2,1.5 0,0.5 0.1,1.1 0.1,1.7 0,0.5 0,1 -0.1,1.6 0,0.5 -0.1,1 -0.1,1.4 -0.5,4 -2,7 -4.3,8.9 -2.3,2 -5.59997,2.9 -9.69997,2.9 -0.7,0 -1.4,0 -2.2,-0.1 -0.8,-0.1 -1.6,-0.1 -2.4,-0.2 l -0.7,-9.7 c 0,-0.6 -0.1,-1.1 -0.1,-1.5 0,-0.4 -0.1,-0.8 -0.1,-1.1 0,-0.3 -0.1,-0.6 -0.1,-0.9 0,-0.3 -0.1,-0.6 -0.2,-0.9 -0.1,-0.3 -0.2,-0.6 -0.3,-0.9 -0.1,-0.3 -0.2,-0.7 -0.4,-1.1 0.6,-0.2 1.3,-0.5 1.9,-0.8 0.7,-0.3 1.3,-0.5 1.9,-0.7 0.3,0.6 0.5,1.2 0.7,1.7 0.2,0.5 0.3,1 0.4,1.6 0.1,0.5 0.2,1.1 0.2,1.7 0,0.6 0.1,1.3 0.1,2 l 0.5,7.3 z m 1.6,-8.1 c 0.2,-0.5 0.3,-0.8 0.4,-1.2 0.1,-0.3 0.2,-0.6 0.3,-0.8 0.1,-0.2 0.1,-0.5 0.2,-0.7 0,-0.2 0,-0.5 0,-0.7 0,-0.1 0,-0.2 0,-0.3 0,-0.1 0,-0.2 0,-0.3 0,-0.2 0,-0.4 0,-0.5 0,-0.2 -0.1,-0.4 -0.1,-0.7 0.7,-0.2 1.4,-0.4 2.1,-0.6 0.7,-0.2 1.4,-0.3 2.1,-0.5 0.1,0.5 0.19997,0.9 0.29997,1.3 0.1,0.4 0.1,0.8 0.1,1.2 0,0.3 0,0.6 -0.1,0.9 0,0.3 -0.1,0.7 -0.2,1 -0.1,0.4 -0.19997,0.7 -0.39997,1.2 -0.2,0.5 -0.3,0.9 -0.5,1.4 l -1.1,2.9 c -0.5,-0.1 -0.8,-0.2 -1.1,-0.3 -0.3,-0.1 -0.6,-0.2 -0.9,-0.3 -0.3,-0.1 -0.6,-0.2 -0.9,-0.3 -0.3,-0.1 -0.7,-0.3 -1.1,-0.5 l 0.9,-2.2 z"
       class="st48" /></g><g
     id="g5078"
     transform="translate(-801.6734,-545.09998)"><path
       class="st67"
       d="m 364.3,1062.9 c -12.8,0 -47.8,-23.1 -47.8,-23.1 0,0 35,-23.1 47.8,-23.1 12.8,0 23.1,10.4 23.1,23.1 0.1,12.7 -10.3,23.1 -23.1,23.1"
       id="path1000"
       clip-path="url(#SVGID_82_)"
       style="fill:#141032"
       transform="matrix(0,-1,1,0,-126.82657,979.5)" /><path
       class="st68"
       d="m 352.6,1039.8 c 0,-6.5 5.3,-11.9 11.9,-11.9 6.5,0 11.9,5.3 11.9,11.9 0,6.5 -5.3,11.9 -11.9,11.9 -6.5,-0.1 -11.9,-5.4 -11.9,-11.9 m 26.5,0 c 0,-8 -6.5,-14.6 -14.6,-14.6 -8,0 -14.6,6.6 -14.6,14.6 0,8 6.5,14.6 14.6,14.6 8.1,0 14.6,-6.6 14.6,-14.6 m -12.8,0 c 0,-1 -0.8,-1.8 -1.8,-1.8 l -5.5,0 c -1,0 -1.8,0.8 -1.8,1.8 0,1 0.8,1.8 1.8,1.8 l 5.5,0 c 1,0 1.8,-0.8 1.8,-1.8 m 5.5,0 c 0,-1 -0.8,-1.8 -1.8,-1.8 -1,0 -1.8,0.8 -1.8,1.8 0,1 0.8,1.8 1.8,1.8 1,0 1.8,-0.8 1.8,-1.8"
       id="path1002"
       clip-path="url(#SVGID_82_)"
       style="fill:#ffffff"
       transform="matrix(0,-1,1,0,-126.82657,979.5)" /></g></svg>