<?xml version="1.0" encoding="UTF-8" standalone="no"?>
<svg
   xmlns:dc="http://purl.org/dc/elements/1.1/"
   xmlns:cc="http://creativecommons.org/ns#"
   xmlns:rdf="http://www.w3.org/1999/02/22-rdf-syntax-ns#"
   xmlns:svg="http://www.w3.org/2000/svg"
   xmlns="http://www.w3.org/2000/svg"
   version="1.1"
   id="svg4097"
   viewBox="0 0 212.80005 136.40005"
   height="136.40005"
   width="212.80005">
  <defs
     id="defs4099" />
  <metadata
     id="metadata4102">
    <rdf:RDF>
      <cc:Work
         rdf:about="">
        <dc:format>image/svg+xml</dc:format>
        <dc:type
           rdf:resource="http://purl.org/dc/dcmitype/StillImage" />
        <dc:title></dc:title>
      </cc:Work>
    </rdf:RDF>
  </metadata>
  <path
     style="fill:#e04c26;fill-opacity:1"
     d="m 133.6,80.400052 c 0,15 -27.2,55.999998 -27.2,55.999998 0,0 -27.200003,-41.099998 -27.200003,-55.999998 0,-14.9 12.3,-27.2 27.200003,-27.2 15.1,-0.1 27.2,12.2 27.2,27.2"
     class="st6"
     id="path487_2_" />
  <path
     style="fill:#ffffff;enable-background:new"
     d="m 106.4,93.900052 c -7.700003,0 -14.000003,-6.3 -14.000003,-14 0,-7.7 6.3,-14 14.000003,-14 7.7,0 14,6.3 14,14 0,7.7 -6.3,14 -14,14 m 0,-30.9 c -9.400003,0 -17.100003,7.7 -17.100003,17.1 0,9.4 7.7,17.1 17.100003,17.1 9.4,0 17.1,-7.7 17.1,-17.1 0,-9.4 -7.7,-17.1 -17.1,-17.1 m 0,14.9 c -1,0 -2.1,1 -2.1,2.1 l 0,6.3 c 0,1 1,2.1 2.1,2.1 1,0 2.1,-1 2.1,-2.1 l 0,-6.3 c 0,-1.1 -1,-2.1 -2.1,-2.1 m 0,-6.2 c -1,0 -2.1,1 -2.1,2.1 0,1 1,2.1 2.1,2.1 1,0 2.1,-1 2.1,-2.1 0,-1.1 -1,-2.1 -2.1,-2.1"
     class="st18"
     id="path489_2_" />
  <rect
     style="fill:#c52036"
     height="45.300003"
     width="210.10002"
     class="st6"
     y="0"
     x="2.7000201"
     id="rect475_9_" />
  <g
     transform="translate(-1139.4,-1720.3999)"
     id="g1092">
    <path
       style="fill:#ffffff"
       id="path1094"
       d="m 1159,1734.3 14.4,0 0,18 -14.4,0 0,-18 z m 11.5,15.7 0,-13.4 -8.7,0 0,13.4 8.7,0 z"
       class="st21" />
    <path
       style="fill:#ffffff"
       id="path1096"
       d="m 1180.2,1736.6 -3.3,0 0,-2.3 6.1,0 0,10 -2.8,0 0,-7.7 z"
       class="st21" />
    <path
       style="fill:#ffffff"
       id="path1098"
       d="m 1196.1,1744 4.8,6.9 0,1.4 -13.3,0 0,-2.3 9.7,0 -10.8,-15.7 3.2,0 4.8,7.2 4,-7.2 3.2,0 -5.6,9.7 z"
       class="st21" />
    <path
       style="fill:#ffffff"
       id="path1100"
       d="m 1208.7,1752.3 c -1,-0.2 -2.1,-0.4 -3,-0.8 l 0.5,-2.1 c 0.9,0.3 1.8,0.5 2.7,0.6 0.9,0.1 1.8,0.2 2.5,0.2 1.7,0 3,-0.4 3.9,-1.3 0.9,-0.9 1.4,-2 1.4,-3.5 l 0,-8.9 -7.2,0 c -0.3,0.6 -0.6,1.3 -0.8,2.1 -0.2,0.9 -0.3,1.7 -0.3,2.6 l 0,1.4 c 0.2,0.1 0.5,0.2 0.9,0.2 0.4,0 0.9,0.1 1.5,0.1 l 0,2.4 c -1.3,0 -2.3,-0.1 -3,-0.2 -0.7,-0.1 -1.4,-0.4 -2.2,-0.8 l -0.1,-2.3 c 0,-1 0.1,-2 0.4,-3 0.3,-1 0.6,-1.8 1.1,-2.4 l -2.2,0 0,-2.3 14.7,0 0,10.6 c 0,1.7 -0.3,3.1 -1,4.3 -0.7,1.1 -1.6,2 -2.8,2.6 -1.2,0.6 -2.5,0.8 -4.1,0.8 -0.9,0 -1.9,-0.1 -2.9,-0.3 z"
       class="st21" />
    <path
       style="fill:#ffffff"
       id="path1102"
       d="m 1225,1734.3 6.8,0 c 2.4,0 4.2,0.6 5.3,1.7 1.2,1.1 1.8,2.9 1.8,5.2 l 0,11.1 -2.8,0 0,-11.3 c 0,-1.6 -0.3,-2.7 -1,-3.4 -0.7,-0.7 -1.8,-1.1 -3.2,-1.1 l -4,0 0,15.7 -2.8,0 -0.1,-17.9 z"
       class="st21" />
    <path
       style="fill:#ffffff"
       id="path1104"
       d="m 1264.5,1736 c 1.2,1.1 1.8,2.9 1.8,5.2 l 0,11.1 -2.8,0 0,-11.3 c 0,-1.6 -0.3,-2.7 -1,-3.4 -0.7,-0.7 -1.7,-1.1 -3.2,-1.1 l -2.6,0 c -0.3,0.6 -0.6,1.3 -0.8,2.1 -0.2,0.8 -0.3,1.7 -0.3,2.7 l 0,6.1 c 0,1.7 -0.4,2.9 -1.2,3.8 -0.8,0.9 -1.9,1.3 -3.4,1.3 -0.4,0 -1,0 -1.8,-0.1 l 0,-2.3 c 0.3,0 0.7,0.1 1.1,0.1 0.9,0 1.5,-0.2 1.9,-0.7 0.4,-0.5 0.6,-1.2 0.6,-2.2 l 0,-5.7 c 0,-0.9 0.1,-1.9 0.4,-2.8 0.2,-0.9 0.6,-1.7 1,-2.2 l -3.4,0 0,-2.3 8.4,0 c 2.3,0 4.1,0.6 5.3,1.7 z"
       class="st21" />
    <path
       style="fill:#ffffff"
       id="path1106"
       d="m 1278.8,1739.7 c 0,-1 -0.3,-1.8 -0.9,-2.3 -0.6,-0.5 -1.4,-0.8 -2.4,-0.8 l -6.1,0 0,-2.3 6.1,0 c 1.2,0 2.3,0.2 3.2,0.7 0.9,0.5 1.6,1.1 2.1,1.9 0.5,0.8 0.7,1.9 0.7,3 l 0,12.3 -2.8,0 0,-12.5 z"
       class="st21" />
    <path
       style="fill:#ffffff"
       id="path1108"
       d="m 1288.1,1736.6 -3.3,0 0,-2.3 6.1,0 0,10 -2.8,0 0,-7.7 z"
       class="st21" />
    <path
       style="fill:#ffffff"
       id="path1110"
       d="m 1297.4,1740.8 c 0.1,-0.8 0.3,-1.6 0.7,-2.4 0.4,-0.7 0.8,-1.3 1.3,-1.7 0,0 0.1,-0.1 0.3,-0.2 l 0,0 c -0.5,0.1 -1,0.2 -1.7,0.4 -0.7,0.2 -1.3,0.4 -1.9,0.6 l -0.7,-2.1 c 1.2,-0.4 2.5,-0.7 4,-1 1.5,-0.3 2.8,-0.4 4.1,-0.4 2.4,0 4.3,0.6 5.6,1.9 1.3,1.3 1.9,3.2 1.9,5.7 l 0,10.7 -7.4,0 0,-2.3 4.6,0 0,-8.8 c 0,-1.6 -0.4,-2.8 -1.1,-3.7 -0.7,-0.8 -1.8,-1.3 -3.1,-1.3 -1,0 -1.8,0.4 -2.5,1.1 -0.7,0.8 -1.1,1.8 -1.2,3.1 l -1.4,11.7 -2.8,0 1.3,-11.3 z"
       class="st21" />
    <path
       style="fill:#ffffff"
       id="path1112"
       d="m 1318.7,1749.1 c 1,0.4 2,0.7 3.1,1 1.1,0.2 2.1,0.4 3.1,0.4 1.5,0 2.8,-0.2 3.9,-0.6 1.1,-0.4 2.1,-1.1 2.7,-1.9 0.7,-0.9 1,-1.9 1,-3.2 l 0,-10.4 2.8,0 0,10.7 c 0,1.7 -0.5,3.1 -1.4,4.3 -0.9,1.2 -2.1,2 -3.7,2.6 -1.5,0.6 -3.3,0.9 -5.2,0.9 -1.5,0 -3,-0.2 -4.6,-0.5 -1.6,-0.4 -3.1,-0.9 -4.5,-1.6 l 0,-16.4 2.8,0 0,14.7 z m 5.2,-3.4 c 0.2,-0.7 0.3,-1.5 0.3,-2.4 l 0,-9 2.8,0 0,8.5 c 0,1 -0.1,1.9 -0.4,2.7 -0.3,0.8 -0.6,1.4 -1.2,2 l -2.4,-0.1 c 0.4,-0.5 0.7,-1 0.9,-1.7 z"
       class="st21" />
  </g>
</svg>
