<?xml version="1.0" encoding="UTF-8" standalone="no"?>
<svg
   xmlns:dc="http://purl.org/dc/elements/1.1/"
   xmlns:cc="http://creativecommons.org/ns#"
   xmlns:rdf="http://www.w3.org/1999/02/22-rdf-syntax-ns#"
   xmlns:svg="http://www.w3.org/2000/svg"
   xmlns="http://www.w3.org/2000/svg"
   version="1.1"
   id="svg4206"
   viewBox="0 0 72.399997 111.1018"
   height="31.355396mm"
   width="20.432888mm">
  <defs
     id="defs4208" />
  <metadata
     id="metadata4211">
    <rdf:RDF>
      <cc:Work
         rdf:about="">
        <dc:format>image/svg+xml</dc:format>
        <dc:type
           rdf:resource="http://purl.org/dc/dcmitype/StillImage" />
        <dc:title></dc:title>
      </cc:Work>
    </rdf:RDF>
  </metadata>
  <g
     transform="translate(-306.65714,-379.6684)"
     id="layer1">
    <g
       id="g1433"
       transform="translate(-696.34286,-1433.9298)">
      <g
         id="g1435">
        <path
           id="path355_8_"
           class="st6"
           d="m 1075.4,1849.8 c 0,19.9 -36.2,74.9 -36.2,74.9 0,0 -36.2,-55.1 -36.2,-74.9 0,-19.8 16.3,-36.2 36.2,-36.2 19.9,-0.2 36.2,16.3 36.2,36.2"
           style="fill:#c52036" />
      </g>
      <g
         id="g1438">
        <g
           id="g1440">
          <path
             class="st21"
             d="m 1058.2,1875.2 0,-27.4 c 0,-2.8 -2.2,-5 -5,-5 l -27.5,0 c -2.9,0 -5,2.3 -5,5 l 0,0 0,27.4 c 0,2.8 2.3,5 5,5 l 0,0 27.5,0 c 2.8,0 5,-2.1 5,-5 l 0,0 z m -5.2,-0.2 -27.1,0 0,-27 27.1,0 0,27 z"
             id="path1442"
             style="fill:#ffffff" />
          <g
             id="g1444">
            <g
               id="g1446">
              <path
                 class="st21"
                 d="m 1046.2,1821.5 c 0,-3.6 5.2,-3.6 5.2,0 l -0.1,10.9 2.8,-3.4 c 1.9,-2.1 5.3,0.8 3.2,3.2 l -6.8,8.1 c -1.1,1.1 -2.5,1.1 -3.5,0 l -6.7,-8.1 c -2.1,-2.4 1.3,-5.4 3.2,-3.2 l 2.8,3.5 -0.1,-11 z"
                 id="path1448"
                 style="fill:#ffffff" />
            </g>
            <g
               id="g1450">
              <path
                 class="st21"
                 d="m 1027.4,1838.4 c 0,3.6 5.2,3.6 5.2,0 l -0.1,-10.9 2.8,3.4 c 1.9,2.1 5.3,-0.8 3.2,-3.2 l -6.8,-8.1 c -1.1,-1.1 -2.5,-1.1 -3.5,0 l -6.7,8.1 c -2.1,2.4 1.3,5.4 3.2,3.2 l 2.8,-3.5 -0.1,11 z"
                 id="path1452"
                 style="fill:#ffffff" />
            </g>
          </g>
          <g
             id="g1454">
            <g
               id="g1456">
              <g
                 id="g1458">
                <path
                   class="st21"
                   d="m 1051.7,1863.5 c 0,0.5 -0.4,0.9 -0.9,0.9 0,0 -6.1,0 -6.1,0 -0.5,0 -0.9,-0.4 -0.9,-0.9 l 0,-6.6 c 0,-0.8 0.6,-1.3 1.3,-1.3 0,0 5.4,0 5.4,0 0.7,0 1.3,0.6 1.3,1.3 l 0,6.6 z"
                   id="path1460"
                   style="fill:#ffffff" />
              </g>
              <g
                 id="g1462">
                <g
                   id="g1464">
                  <path
                     class="st21"
                     d="m 1050.2,1864.1 -2.3,0 0,8.9 c 0,1.6 2.3,1.6 2.3,0 l 0,-8.9 z"
                     id="path1466"
                     style="fill:#ffffff" />
                </g>
                <g
                   id="g1468">
                  <path
                     class="st21"
                     d="m 1047.6,1864.1 -2.3,0 0,8.9 c 0,1.6 2.3,1.6 2.3,0 l 0,-8.9 z"
                     id="path1470"
                     style="fill:#ffffff" />
                </g>
              </g>
              <g
                 id="g1472">
                <circle
                   class="st21"
                   cx="1047.8"
                   cy="1853.3"
                   r="1.7"
                   id="circle1474"
                   style="fill:#ffffff" />
                <path
                   class="st21"
                   d="M 1047.8,1853.3"
                   id="path1476"
                   style="fill:#ffffff" />
              </g>
            </g>
            <g
               id="g1478">
              <g
                 id="g1480">
                <path
                   class="st21"
                   d="m 1043.4,1863.5 c 0,0.5 -0.4,0.9 -0.9,0.9 0,0 -6.1,0 -6.1,0 -0.5,0 -0.9,-0.4 -0.9,-0.9 l 0,-6.6 c 0,-0.8 0.6,-1.3 1.3,-1.3 0,0 5.4,0 5.4,0 0.7,0 1.3,0.6 1.3,1.3 l 0,6.6 z"
                   id="path1482"
                   style="fill:#ffffff" />
              </g>
              <g
                 id="g1484">
                <g
                   id="g1486">
                  <path
                     class="st21"
                     d="m 1041.9,1864.1 -2.3,0 0,8.9 c 0,1.6 2.3,1.6 2.3,0 l 0,-8.9 z"
                     id="path1488"
                     style="fill:#ffffff" />
                </g>
                <g
                   id="g1490">
                  <path
                     class="st21"
                     d="m 1039.3,1864.1 -2.3,0 0,8.9 c 0,1.6 2.3,1.6 2.3,0 l 0,-8.9 z"
                     id="path1492"
                     style="fill:#ffffff" />
                </g>
              </g>
              <g
                 id="g1494">
                <circle
                   class="st21"
                   cx="1039.5"
                   cy="1853.3"
                   r="1.7"
                   id="circle1496"
                   style="fill:#ffffff" />
                <path
                   class="st21"
                   d="M 1039.5,1853.3"
                   id="path1498"
                   style="fill:#ffffff" />
              </g>
            </g>
            <g
               id="g1500">
              <g
                 id="g1502">
                <path
                   class="st21"
                   d="m 1035.1,1863.5 c 0,0.5 -0.4,0.9 -0.9,0.9 0,0 -6.1,0 -6.1,0 -0.5,0 -0.9,-0.4 -0.9,-0.9 l 0,-6.6 c 0,-0.8 0.6,-1.3 1.3,-1.3 0,0 5.4,0 5.4,0 0.7,0 1.3,0.6 1.3,1.3 l 0,6.6 z"
                   id="path1504"
                   style="fill:#ffffff" />
              </g>
              <g
                 id="g1506">
                <g
                   id="g1508">
                  <path
                     class="st21"
                     d="m 1033.6,1864.1 -2.3,0 0,8.9 c 0,1.6 2.3,1.6 2.3,0 l 0,-8.9 z"
                     id="path1510"
                     style="fill:#ffffff" />
                </g>
                <g
                   id="g1512">
                  <path
                     class="st21"
                     d="m 1031,1864.1 -2.3,0 0,8.9 c 0,1.6 2.3,1.6 2.3,0 l 0,-8.9 z"
                     id="path1514"
                     style="fill:#ffffff" />
                </g>
              </g>
              <g
                 id="g1516">
                <circle
                   class="st21"
                   cx="1031.2"
                   cy="1853.3"
                   r="1.7"
                   id="circle1518"
                   style="fill:#ffffff" />
                <path
                   class="st21"
                   d="M 1031.2,1853.3"
                   id="path1520"
                   style="fill:#ffffff" />
              </g>
            </g>
          </g>
        </g>
      </g>
    </g>
  </g>
</svg>
