<?xml version="1.0" encoding="UTF-8" standalone="no"?>
<svg
   xmlns:dc="http://purl.org/dc/elements/1.1/"
   xmlns:cc="http://creativecommons.org/ns#"
   xmlns:rdf="http://www.w3.org/1999/02/22-rdf-syntax-ns#"
   xmlns:svg="http://www.w3.org/2000/svg"
   xmlns="http://www.w3.org/2000/svg"
   xmlns:xlink="http://www.w3.org/1999/xlink"
   height="114.80001"
   width="210.5"
   xml:space="preserve"
   viewBox="0 0 210.5 114.80001"
   y="0px"
   x="0px"
   id="Layer_1"
   version="1.1"><metadata
     id="metadata439"><rdf:RDF><cc:Work
         rdf:about=""><dc:format>image/svg+xml</dc:format><dc:type
           rdf:resource="http://purl.org/dc/dcmitype/StillImage" /><dc:title></dc:title></cc:Work></rdf:RDF></metadata><defs
     id="defs437"><defs
       id="defs401"><rect
         id="SVGID_33_"
         x="65.699997"
         y="119"
         width="953.09998"
         height="1619.8" /></defs><clipPath
       id="SVGID_34_"><use
         xlink:href="#SVGID_33_"
         style="overflow:visible"
         id="use405"
         x="0"
         y="0"
         width="100%"
         height="100%" /></clipPath></defs><style
     id="style3"
     type="text/css">
	.st0{fill:#B5B0C1;}
	.st1{fill:#FFFFFF;}
	.st2{fill:none;stroke:#141032;stroke-width:0.25;}
	.st3{fill:#43255C;}
	.st4{clip-path:url(#SVGID_2_);fill:none;stroke:#141032;stroke-width:0.25;}
	.st5{fill:none;stroke:#141032;stroke-width:0.5;}
	.st6{fill:#99AC64;}
	.st7{clip-path:url(#SVGID_4_);fill:none;stroke:#141032;stroke-width:0.25;}
	.st8{clip-path:url(#SVGID_6_);fill:#43255C;}
	.st9{clip-path:url(#SVGID_8_);fill:#FBB65A;}
	.st10{clip-path:url(#SVGID_8_);fill:none;stroke:#141032;stroke-width:0.5;stroke-miterlimit:10;}
	.st11{fill:#F7D685;}
	.st12{clip-path:url(#SVGID_10_);fill:#141032;}
	.st13{fill:#141032;}
	.st14{fill:none;stroke:#231F20;stroke-width:0.25;}
	.st15{clip-path:url(#SVGID_12_);fill:#141032;}
	.st16{clip-path:url(#SVGID_12_);fill:#FFFFFF;}
	.st17{clip-path:url(#SVGID_14_);fill:#141032;}
	.st18{clip-path:url(#SVGID_14_);fill:#FFFFFF;}
	.st19{fill:#D81278;}
	.st20{clip-path:url(#SVGID_16_);fill:#141032;}
	.st21{clip-path:url(#SVGID_18_);fill:#141032;}
	.st22{clip-path:url(#SVGID_18_);fill:#FFFFFF;}
	.st23{clip-path:url(#SVGID_20_);fill:#141032;}
	.st24{clip-path:url(#SVGID_22_);fill:#141032;}
	.st25{clip-path:url(#SVGID_24_);fill:#FFFFFF;}
	.st26{clip-path:url(#SVGID_26_);fill:#FFFFFF;}
	.st27{clip-path:url(#SVGID_28_);fill:#141032;}
	.st28{clip-path:url(#SVGID_30_);fill:#141032;}
	.st29{clip-path:url(#SVGID_32_);fill:#FFFFFF;}
	.st30{clip-path:url(#SVGID_34_);fill:#FFFFFF;}
	.st31{fill:#8ACDAB;}
	.st32{clip-path:url(#SVGID_36_);fill:#141032;}
	.st33{clip-path:url(#SVGID_38_);fill:#FFFFFF;}
</style><rect
     transform="matrix(0,-1,1,0,0,0)"
     style="fill:#141032;fill-opacity:1"
     id="rect311"
     height="210.5"
     width="38.099998"
     class="st13"
     y="0"
     x="-38.099998" /><path
     style="fill:#d81278;fill-opacity:1"
     id="path315"
     d="m 24.600004,9.500011 0,21.7 -4.4,0 0,-18.2 -3.3,0 0,-3.5 7.7,0 z m 19.8,5.6 c -0.1,0.7 -0.3,1.3 -0.5,1.8 -0.2,0.5 -0.4,1 -0.6,1.4 -0.2,0.4 -0.5,0.8 -0.9,1.2 -0.3,0.4 -0.7,0.7 -1.2,1.1 l 3.5,4.1 -2.8,2.5 -8.3,-9.6 c -0.2,0.3 -0.3,0.6 -0.4,1.1 -0.1,0.4 -0.2,0.9 -0.2,1.4 0,0.5 -0.1,1 -0.1,1.6 0,0.5 0,1.1 0,1.5 0,0.2 0,0.4 0,0.6 0,0.3 0,0.5 0,0.8 0,0.3 0,0.6 0,0.9 0,0.3 0,0.6 0,0.9 l -4.1,0 c 0,-0.3 0,-0.6 0,-1 0,-0.3 0,-0.7 0,-1.2 0,-0.4 0,-0.9 0,-1.4 0,-0.5 0,-1.1 0.1,-1.7 0,-0.7 0.1,-1.3 0.1,-1.8 0.1,-0.6 0.2,-1.1 0.4,-1.6 0.2,-0.5 0.4,-1 0.7,-1.5 0.3,-0.5 0.7,-1 1.1,-1.4 -0.3,-0.4 -0.5,-0.7 -0.7,-1 -0.2,-0.3 -0.4,-0.7 -0.6,-1 -0.2,-0.4 -0.4,-0.7 -0.5,-1.1 -0.2,-0.4 -0.4,-0.8 -0.6,-1.3 0.6,-0.2 1.2,-0.5 1.9,-0.7 0.7,-0.2 1.3,-0.5 1.9,-0.7 0.2,0.6 0.5,1.1 0.7,1.6 0.2,0.5 0.4,0.9 0.7,1.3 0.3,0.4 0.5,0.8 0.8,1.3 0.3,0.4 0.7,0.9 1.1,1.4 l 3.1,3.5 c 0.3,-0.3 0.5,-0.5 0.7,-0.9 0.2,-0.3 0.4,-0.7 0.6,-1.2 0.1,-0.2 0.1,-0.4 0.2,-0.6 0.1,-0.2 0.1,-0.5 0.2,-0.7 l 0.4,-1.9 -2.3,-0.4 0.6,-3.3 5.9,1 0,2.1 -0.9,2.9 z m 9.8,-2.1 c -0.5,0 -1,0 -1.4,0 -0.4,0 -0.8,0 -1.2,-0.1 -0.4,-0.1 -0.8,-0.1 -1.2,-0.2 -0.4,-0.1 -0.9,-0.2 -1.4,-0.4 0.2,-0.6 0.3,-1.1 0.5,-1.7 0.2,-0.6 0.4,-1.1 0.6,-1.7 0.5,0.1 0.9,0.2 1.3,0.3 0.4,0.1 0.7,0.1 1,0.2 0.3,0 0.7,0.1 1,0.1 0.3,0 0.7,0 1.2,0 l 0.5,0 9.5,0 c 0.1,0.2 0.1,0.4 0.1,0.5 0,0.2 0.1,0.3 0.1,0.5 0.1,0.3 0.1,0.6 0.1,0.8 0,0.2 0,0.5 0,0.8 l 0,3.5 c 0,0.6 0,1.1 -0.1,1.7 -0.1,0.5 -0.2,1 -0.3,1.4 -0.1,0.5 -0.3,0.9 -0.6,1.3 -0.2,0.4 -0.5,0.9 -0.8,1.3 -0.2,0.4 -0.6,0.8 -1,1.3 -0.4,0.5 -0.8,1 -1.3,1.6 -0.5,0.5 -0.9,1.1 -1.4,1.6 -0.5,0.5 -0.9,1 -1.2,1.3 l -3.1,-2.6 2.2,-2.4 c 0.5,-0.6 1,-1.1 1.4,-1.6 0.4,-0.4 0.7,-0.9 0.9,-1.2 0.2,-0.3 0.4,-0.6 0.5,-0.8 0.1,-0.3 0.2,-0.5 0.3,-0.8 0.1,-0.3 0.1,-0.5 0.1,-0.8 0,-0.3 0,-0.6 0,-1 l 0,-2.9 -6.3,0 z m -5,8.3 c 0,-0.5 0,-0.9 0,-1.3 0,-0.4 0,-0.7 0.1,-1.1 0,-0.4 0.1,-0.7 0.1,-1 0.1,-0.3 0.1,-0.7 0.2,-1.1 0.7,0.1 1.4,0.2 2.1,0.3 0.7,0.1 1.4,0.3 2.1,0.4 -0.1,0.6 -0.2,1.2 -0.3,1.8 0,0.6 -0.1,1.3 -0.1,2.1 l 0,9.8 -4.4,0 0,-9.9 z m 27,-11.8 0,16.6 -4.4,0 0,-13.2 -2.8,0 0,-3.5 7.2,0 z m 11.5,0 0,16.6 -4.4,0 0,-13.2 -2.8,0 0,-3.5 7.2,0 z m 28.999996,5.6 c -0.1,0.7 -0.3,1.3 -0.5,1.8 -0.2,0.5 -0.4,1 -0.6,1.4 -0.2,0.4 -0.5,0.8 -0.9,1.2 -0.3,0.4 -0.7,0.7 -1.2,1.1 l 3.5,4.1 -2.8,2.5 -8.3,-9.6 c -0.2,0.3 -0.3,0.6 -0.4,1.1 -0.1,0.4 -0.2,0.9 -0.2,1.4 0,0.5 -0.1,1 -0.1,1.6 0,0.5 0,1.1 0,1.5 0,0.2 0,0.4 0,0.6 0,0.3 0,0.5 0,0.8 0,0.3 0,0.6 0,0.9 0,0.3 0,0.6 0,0.9 l -4.1,0 c 0,-0.3 0,-0.6 0,-1 0,-0.3 0,-0.7 0,-1.2 0,-0.4 0,-0.9 0,-1.4 0,-0.5 0,-1.1 0.1,-1.7 0,-0.7 0.1,-1.3 0.1,-1.8 0.1,-0.6 0.2,-1.1 0.4,-1.6 0.2,-0.5 0.4,-1 0.7,-1.5 0.3,-0.5 0.7,-1 1.1,-1.4 -0.3,-0.4 -0.5,-0.7 -0.7,-1 -0.2,-0.3 -0.4,-0.7 -0.6,-1 -0.2,-0.4 -0.4,-0.7 -0.5,-1.1 -0.2,-0.4 -0.4,-0.8 -0.6,-1.3 0.6,-0.2 1.2,-0.5 1.9,-0.7 0.7,-0.2 1.3,-0.5 1.9,-0.7 0.2,0.6 0.5,1.1 0.7,1.6 0.2,0.5 0.4,0.9 0.7,1.3 0.3,0.4 0.5,0.8 0.8,1.3 0.3,0.4 0.7,0.9 1.1,1.4 l 3.1,3.5 c 0.3,-0.3 0.5,-0.5 0.7,-0.9 0.2,-0.3 0.4,-0.7 0.6,-1.2 0.1,-0.2 0.1,-0.4 0.2,-0.6 0.1,-0.2 0.1,-0.5 0.2,-0.7 l 0.4,-1.9 -2.3,-0.4 0.6,-3.3 5.9,1 0,2.1 -0.9,2.9 z m 11.9,-5.6 0,16.6 -4.4,0 0,-13.2 -2.8,0 0,-3.5 7.2,0 z m 11.5,0 0,16.6 -4.4,0 0,-13.2 -2.8,0 0,-3.5 7.2,0 z m 9.1,3.5 c -0.5,0 -1,0 -1.4,0 -0.4,0 -0.8,0 -1.2,-0.1 -0.4,0 -0.8,-0.1 -1.2,-0.2 -0.4,-0.1 -0.9,-0.2 -1.4,-0.4 0.2,-0.6 0.3,-1.1 0.5,-1.7 0.2,-0.6 0.4,-1.1 0.6,-1.7 0.5,0.1 1,0.3 1.4,0.4 0.4,0.1 0.8,0.2 1.1,0.2 0.4,0 0.7,0.1 1.1,0.1 0.4,0 0.9,0 1.4,0 l 9.2,0 0,3.5 -3.2,0 0,13.2 -4.4,0 0,-13.2 -2.5,0 z m 21,-3.5 0,6.1 c 0,0.6 0,1.1 0,1.4 0,0.4 0,0.7 -0.1,1.1 0,0.3 -0.1,0.6 -0.1,0.9 -0.1,0.3 -0.1,0.6 -0.2,1 l -4.3,-0.6 c 0.1,-0.3 0.1,-0.6 0.1,-0.9 0,-0.3 0.1,-0.5 0.1,-0.8 0,-0.3 0.1,-0.6 0.1,-1 0,-0.4 0,-0.8 0,-1.3 l 0,-2.3 -3.7,0 0,-3.5 8.1,0 z m 11.2,0 0,16.6 -4.4,0 0,-13.2 -2.8,0 0,-3.5 7.2,0 z m 11.5,0 0,16.6 -4.3,0 0,-13.2 -2.8,0 0,-3.5 7.1,0 z"
     class="st19" /><g
     transform="matrix(0,-1,1,0,-387.25,687.30001)"
     id="g317"><defs
       id="defs319"><rect
         height="1619.8"
         width="953.09998"
         y="119"
         x="65.699997"
         id="SVGID_19_" /></defs><clipPath
       id="SVGID_20_"><use
         height="100%"
         width="100%"
         y="0"
         x="0"
         id="use323"
         style="overflow:visible"
         xlink:href="#SVGID_19_" /></clipPath><path
       style="fill:#fbb65a;fill-opacity:1"
       clip-path="url(#SVGID_20_)"
       id="path325"
       d="m 619.8,515.4 c -12.6,0 -47.3,-22.9 -47.3,-22.9 0,0 34.6,-22.9 47.3,-22.9 12.6,0 22.9,10.2 22.9,22.9 0,12.7 -10.2,22.9 -22.9,22.9"
       class="st23" /></g><path
     transform="matrix(0,-1,1,0,-387.4,687.30001)"
     class="st30"
     d="m 623.8,499.2 c 0.5,-1 1.1,-2.1 1.9,-3 0.8,0.6 2.4,1.8 3.7,1.6 0.4,-0.1 0.8,-0.3 1,-0.6 0.2,-0.3 0.3,-0.6 0.3,-0.9 0,-0.7 -0.5,-1.4 -1,-1.9 0.2,0 0.4,0 0.6,0.1 1.6,0.2 2.5,1 2.6,2.1 0,0 0,0.1 0,0.1 0,1.2 -1,2.6 -2.6,3 -1.9,0.5 -4,0.3 -6.5,-0.5 m 2.8,-3.9 c 0.5,-0.4 1.1,-0.7 1.7,-0.8 0.8,0.4 1.4,0.9 1.4,1.5 0,0.2 0,0.3 -0.1,0.4 -0.1,0.2 -0.4,0.3 -0.6,0.4 -0.7,0 -1.7,-0.7 -2.4,-1.5 m -1.3,-1.4 -0.7,-0.9 1.1,0.3 c 0.3,0.1 0.9,0.3 1.5,0.5 -0.4,0.2 -0.8,0.4 -1.2,0.7 -0.4,-0.1 -0.6,-0.4 -0.7,-0.6 m -9.5,11.4 c 0.2,-0.1 5.9,-2.1 7.3,-4.8 0.1,-0.2 0.2,-0.3 0.3,-0.5 2.7,0.8 5,1.1 7,0.5 1.9,-0.5 3.4,-2.3 3.3,-4.1 -0.1,-1.6 -1.3,-2.7 -3.3,-3 -0.6,-0.1 -1.2,-0.1 -1.7,0 -0.5,-0.4 -0.9,-0.6 -1.1,-0.7 L 605.8,479 c -0.2,-0.1 -0.4,-0.2 -0.6,-0.1 l -0.2,0.1 0,0.3 c 0,0.2 0.2,0.4 0.3,0.5 l 19.8,15.8 c -0.9,1 -1.5,2.2 -2.1,3.3 -1.5,-0.5 -3.2,-1.1 -5,-1.9 -5,-2.1 -9.1,-1.1 -10.1,0.4 0,0.1 -0.1,0.2 -0.1,0.2 0,0.1 0.1,0.3 0.2,0.4 0.2,0.1 0.5,0.1 0.6,-0.1 0.7,-1 4.3,-2 9,0 1.8,0.8 3.4,1.4 4.9,1.9 -0.1,0.1 -0.1,0.2 -0.2,0.4 -1.3,2.4 -6.8,4.3 -6.8,4.4 -0.2,0.1 -0.4,0.3 -0.3,0.6 0.1,0.1 0.3,0.2 0.6,0.1"
     id="path407"
     clip-path="url(#SVGID_34_)"
     style="fill:#ffffff" /></svg>