<?xml version="1.0" encoding="UTF-8" standalone="no"?>
<svg
   xmlns:dc="http://purl.org/dc/elements/1.1/"
   xmlns:cc="http://creativecommons.org/ns#"
   xmlns:rdf="http://www.w3.org/1999/02/22-rdf-syntax-ns#"
   xmlns:svg="http://www.w3.org/2000/svg"
   xmlns="http://www.w3.org/2000/svg"
   width="53.368225mm"
   height="26.416006mm"
   viewBox="0 0 189.10001 93.600021"
   id="svg5040"
   version="1.1">
  <defs
     id="defs5042" />
  <metadata
     id="metadata5045">
    <rdf:RDF>
      <cc:Work
         rdf:about="">
        <dc:format>image/svg+xml</dc:format>
        <dc:type
           rdf:resource="http://purl.org/dc/dcmitype/StillImage" />
        <dc:title></dc:title>
      </cc:Work>
    </rdf:RDF>
  </metadata>
  <g
     id="layer1"
     transform="translate(-139.73572,-539.8479)">
    <g
       id="g5624"
       transform="translate(-4.64999,0)">
      <path
         style="fill:#d29839;fill-opacity:1"
         d="m 257.63571,594.84792 c 0,10.3 -18.7,38.6 -18.7,38.6 0,0 -18.7,-28.3 -18.7,-38.6 0,-10.3 8.4,-18.7 18.7,-18.7 10.3,0 18.7,8.4 18.7,18.7"
         class="st4259"
         id="path767_2_" />
      <path
         style="fill:#f6f6f6"
         d="m 245.63571,589.34792 c -1,-0.5 -1.7,-1 -2.4,-1.4 0.5,-0.7 1.4,-1.9 1.2,-2.9 0,-0.2 -0.2,-0.7 -0.5,-1 -0.2,-0.2 -0.5,-0.2 -0.7,-0.2 -0.5,0 -1.2,0.5 -1.7,0.7 0,-0.2 0,-0.2 0,-0.5 0.2,-1.2 0.7,-2.2 1.7,-2.2 l 0,0 c 1,0 2.2,0.7 2.4,2.2 0.7,1.5 0.4,3.2 0,5.3 m -3.2,-2.4 c -0.2,-0.5 -0.5,-1 -0.7,-1.4 0.2,-0.7 0.7,-1.2 1.2,-1.2 0.2,0 0.2,0 0.2,0 0.2,0 0.2,0.2 0.2,0.5 0.3,0.9 -0.4,1.6 -0.9,2.1 m -1.2,1.2 -0.7,0.5 0.2,-1 c 0,-0.2 0.2,-0.7 0.5,-1.2 0.2,0.2 0.5,0.7 0.7,1 -0.4,0.5 -0.7,0.5 -0.7,0.7 m 9.4,7.7 c 0,-0.2 -1.7,-4.8 -3.8,-6 -0.2,0 -0.2,-0.2 -0.5,-0.2 0.7,-2.2 1,-4.1 0.5,-5.8 -0.5,-1.7 -1.9,-2.9 -3.4,-2.6 -1.2,0 -2.2,1.2 -2.4,2.6 0,0.5 0,1 0,1.4 -0.2,0.5 -0.5,0.7 -0.5,1 l -11.3,17.8 c 0,0.2 -0.2,0.2 0,0.5 l 0,0.2 0.2,0 c 0.2,0 0.2,-0.2 0.5,-0.2 l 13,-16.1 c 0.7,0.7 1.9,1.2 2.6,1.7 -0.5,1.2 -1,2.6 -1.4,4.1 -1.7,4.1 -1,7.4 0.2,8.2 l 0.2,0 c 0,0 0.2,0 0.2,-0.2 0,-0.2 0,-0.5 0,-0.5 -1,-0.5 -1.7,-3.6 0,-7.2 0.7,-1.4 1.2,-2.9 1.4,-4.1 0,0 0.2,0 0.2,0.2 1.9,1 3.6,5.5 3.6,5.5 0,0.2 0.2,0.2 0.5,0.2 0.2,0 0.2,-0.3 0.2,-0.5"
         class="st4183"
         id="path861_2_" />
    </g>
    <rect
       id="rect755_2_"
       x="139.73572"
       y="539.8479"
       class="st4259"
       width="189.10001"
       height="31.200001"
       style="fill:#401225" />
    <g
       id="g300"
       transform="translate(-838.06429,422.84792)">
      <path
         class="st4248"
         d="m 1009,127.6 -0.3,-2.7 3.3,0 0.3,2.7 0,3.6 0,1.4 -3.3,0.6 0,-5.6 z"
         id="path302"
         style="fill:#ee7aa9" />
      <path
         class="st4248"
         d="m 1015.4,127.6 -0.3,-2.7 3.3,0 0.3,2.7 0,3.6 0,1.4 -3.3,0.6 0,-5.6 z"
         id="path304"
         style="fill:#ee7aa9" />
      <path
         class="st4248"
         d="m 1031.1,125 0,2.7 -4.1,10.3 -3.3,0 4.1,-10.6 -6.6,0 0,-5.8 3,0 0,3.3 6.9,0 z"
         id="path306"
         style="fill:#ee7aa9" />
      <path
         class="st4248"
         d="m 1033.6,135.5 4.6,0 c 0.9,0 1.6,-0.3 2.1,-0.9 0.5,-0.6 0.7,-1.4 0.7,-2.4 l 0,-1.7 c 0,-1 -0.2,-1.7 -0.6,-2.3 -0.4,-0.6 -1.1,-0.9 -1.9,-0.9 l -1.6,0 -0.4,1.9 c 0,0.2 -0.1,0.4 -0.1,0.6 0,0.4 0.1,0.7 0.3,0.9 0.2,0.2 0.6,0.4 1.1,0.5 l -0.5,2.1 c -1.4,0 -2.3,-0.3 -2.9,-0.9 -0.6,-0.6 -0.9,-1.4 -0.9,-2.3 0,-0.4 0,-0.7 0.1,-1 l 0.9,-4.1 4.8,0 c 1.6,0 2.8,0.5 3.7,1.6 0.9,1 1.3,2.5 1.3,4.2 l 0,1.4 c 0,1.8 -0.5,3.3 -1.4,4.3 -0.9,1 -2.2,1.5 -3.9,1.5 l -5.4,0 0,-2.5 z"
         id="path308"
         style="fill:#ee7aa9" />
      <path
         class="st4248"
         d="m 1055.9,136.3 c -1.8,1.2 -4.3,1.8 -7.7,1.9 l -1.3,-10.8 -0.3,-2.5 7,0 c 1.5,0 2.6,0.4 3.5,1.3 0.8,0.8 1.3,2 1.3,3.5 l 0,0.8 c 0.1,2.6 -0.7,4.6 -2.5,5.8 z m -2.3,-1.7 c 0.6,-0.4 1,-0.9 1.3,-1.6 0.2,-0.7 0.3,-1.6 0.3,-2.7 l 0,-0.7 c 0,-0.7 -0.2,-1.3 -0.5,-1.7 -0.3,-0.4 -0.8,-0.6 -1.3,-0.6 l -3.1,0 0.8,7.9 c 1,0 1.9,-0.2 2.5,-0.6 z"
         id="path310"
         style="fill:#ee7aa9" />
      <path
         class="st4248"
         d="m 1061.5,127.6 -0.3,-2.7 3.3,0 0.3,2.7 0,10.4 -3.3,0 0,-10.4 z"
         id="path312"
         style="fill:#ee7aa9" />
      <path
         class="st4248"
         d="m 1067.5,131.6 0.5,-1.6 2.8,0 0,12.5 -3.3,0 0,-10.9 z m 4.6,3.9 c 1,-0.1 1.8,-0.4 2.3,-1 0.5,-0.6 0.8,-1.6 0.9,-3.1 l 0.3,-4 -7.9,0 0,-2.4 11.5,0 -0.1,2.1 -0.3,3.4 c -0.2,4.9 -2.4,7.4 -6.4,7.5 l -0.3,-2.5 z"
         id="path314"
         style="fill:#ee7aa9" />
      <path
         class="st4248"
         d="m 1086.6,125 3.3,0 1.1,10.3 c 1.6,-0.2 2.7,-0.6 3.4,-1.4 0.7,-0.8 1,-1.9 1,-3.3 l 0,-0.7 c 0,-0.7 -0.2,-1.3 -0.6,-1.7 -0.4,-0.5 -0.9,-0.7 -1.7,-0.8 l -1.1,-0.1 0.3,-2.5 1.4,0.1 c 1.4,0.1 2.6,0.5 3.5,1.3 0.9,0.8 1.4,1.9 1.4,3.4 l 0,0.6 c 0.1,2.7 -0.8,4.7 -2.6,5.9 -1.8,1.3 -4.4,2 -7.9,2.1 l -1.5,-13.2 z"
         id="path316"
         style="fill:#ee7aa9" />
      <path
         class="st4248"
         d="m 1101.1,127.6 -0.3,-2.7 3.3,0 0.3,2.7 0,10.4 -3.3,0 0,-10.4 z"
         id="path318"
         style="fill:#ee7aa9" />
      <path
         class="st4248"
         d="m 1107.4,135.5 4.6,0 c 0.9,0 1.6,-0.3 2.1,-0.9 0.5,-0.6 0.7,-1.4 0.7,-2.4 l 0,-1.7 c 0,-1 -0.2,-1.7 -0.6,-2.3 -0.4,-0.6 -1.1,-0.9 -1.9,-0.9 l -1.6,0 -0.4,1.9 c 0,0.2 -0.1,0.4 -0.1,0.6 0,0.4 0.1,0.7 0.3,0.9 0.2,0.2 0.6,0.4 1.1,0.5 l -0.5,2.1 c -1.4,0 -2.3,-0.3 -2.9,-0.9 -0.6,-0.6 -0.9,-1.4 -0.9,-2.3 0,-0.4 0,-0.7 0.1,-1 l 0.9,-4.1 4.8,0 c 1.6,0 2.8,0.5 3.7,1.6 0.9,1 1.3,2.5 1.3,4.2 l 0,1.4 c 0,1.8 -0.5,3.3 -1.4,4.3 -0.9,1 -2.2,1.5 -3.9,1.5 l -5.4,0 0,-2.5 z"
         id="path320"
         style="fill:#ee7aa9" />
      <path
         class="st4248"
         d="m 1120.8,127.6 -0.3,-2.7 3.3,0 0.3,2.7 0,3.6 0,1.4 -3.3,0.6 0,-5.6 z"
         id="path322"
         style="fill:#ee7aa9" />
      <path
         class="st4248"
         d="m 1137.8,135.8 c -1.8,1.6 -4.7,2.4 -8.5,2.4 l -0.7,0 -1.7,-13.2 3.1,0 0.7,5.6 c 0.6,-0.3 1,-0.8 1.2,-1.4 0.2,-0.6 0.3,-1.5 0.3,-2.7 l 0,-1.5 3.1,0 0,1.4 c 0,1.7 -0.4,3 -1,4.1 -0.6,1 -1.8,1.8 -3.4,2.4 l 0.3,2.6 c 2.2,-0.1 3.7,-0.8 4.6,-1.9 0.9,-1.1 1.4,-2.7 1.4,-4.7 l 0,-4 3.3,0 0,3.8 c 0,3.2 -0.9,5.5 -2.7,7.1 z"
         id="path324"
         style="fill:#ee7aa9" />
    </g>
  </g>
</svg>
