<?xml version="1.0" encoding="UTF-8" standalone="no"?>
<svg
   xmlns:dc="http://purl.org/dc/elements/1.1/"
   xmlns:cc="http://creativecommons.org/ns#"
   xmlns:rdf="http://www.w3.org/1999/02/22-rdf-syntax-ns#"
   xmlns:svg="http://www.w3.org/2000/svg"
   xmlns="http://www.w3.org/2000/svg"
   width="76.002441mm"
   height="36.576023mm"
   viewBox="0 0 269.29999 129.60008"
   id="svg6735"
   version="1.1">
  <defs
     id="defs6737" />
  <metadata
     id="metadata6740">
    <rdf:RDF>
      <cc:Work
         rdf:about="">
        <dc:format>image/svg+xml</dc:format>
        <dc:type
           rdf:resource="http://purl.org/dc/dcmitype/StillImage" />
        <dc:title></dc:title>
      </cc:Work>
    </rdf:RDF>
  </metadata>
  <g
     id="layer1"
     transform="translate(-153.92143,-578.99072)">
    <path
       style="fill:#f8b119;fill-opacity:1"
       d="m 311.37143,661.0908 c 0,12.6 -22.8,47.50001 -22.8,47.50001 0,0 -22.8,-34.60001 -22.8,-47.50001 0,-12.6 10.1,-22.8 22.8,-22.8 12.7,-0.3 22.8,9.8 22.8,22.8"
       class="st12"
       id="path307_2_" />
    <rect
       style="fill:#6f4d80"
       height="52.799999"
       width="269.29999"
       class="st13"
       y="578.99072"
       x="153.92143"
       id="rect901_3_" />
    <g
       id="XMLID_2132_"
       transform="translate(-1280.5786,-1162.709)">
      <path
         style="fill:#ffffff"
         d="m 1469.5,1758.5 c 1.3,1.3 2.2,3.5 2.2,6.5 l 0,17.3 -6.5,0 -14.1,0 -1.3,0 0,-25.7 6.5,0 7.8,0 c 2.1,-0.1 3.9,0.6 5.4,1.9 z m -4.5,19 0,-12.8 c 0,-2.2 -1,-3.3 -3,-3.3 l -6,0 0,15.9 9,0 0,0.2 z"
         class="st5"
         id="XMLID_2144_" />
      <path
         style="fill:#ffffff"
         d="m 1477.7,1761.8 -0.5,-5.3 6.5,0 0.5,5.3 0,7 0,2.8 -6.5,1.2 0,-11 z"
         class="st5"
         id="XMLID_2143_" />
      <path
         style="fill:#ffffff"
         d="m 1489.5,1777.5 6.6,0 0,-13 c 0,-1.2 -0.2,-1.8 -0.7,-2.3 -0.3,-0.5 -1,-0.7 -1.8,-0.8 l -3.2,-0.5 0.8,-4.8 5.6,0.7 c 1.8,0.2 3.3,1 4.2,2.3 1,1.3 1.5,3 1.5,5.1 l 0,18.1 -13.1,0 0,-4.8 z"
         class="st5"
         id="XMLID_2142_" />
      <path
         style="fill:#ffffff"
         d="m 1507.4,1777.5 7.1,0 c 1.7,0 3,-0.5 3.8,-1.7 0.8,-1.2 1.2,-2.7 1.2,-4.7 l 0,-3.3 c 0,-2 -0.3,-3.5 -1.2,-4.7 -0.8,-1.2 -2.2,-1.7 -3.8,-1.7 l -7.1,0 0,-4.8 9,0 c 3.2,0 5.6,1 7.3,3.2 1.7,2.2 2.5,4.8 2.5,8.5 l 0,2.7 c 0,3.7 -0.8,6.5 -2.5,8.5 -1.7,2 -4.2,3.2 -7.3,3.2 l -9,0 0,-5.2 z"
         class="st5"
         id="XMLID_2141_" />
      <path
         style="fill:#ffffff"
         d="m 1531.8,1761.8 -0.5,-5.3 6.5,0 0.5,5.3 0,20.4 -6.5,0 0,-20.4 z"
         class="st5"
         id="XMLID_2140_" />
      <path
         style="fill:#ffffff"
         d="m 1553.7,1766.7 c 0,-1.2 0.2,-2.2 0.3,-3.2 0.2,-1 0.5,-1.7 1,-2.2 l -11.6,0 0,-4.8 21.1,0 0,4.8 -3.5,0 c -0.5,1.3 -0.8,3 -0.8,5.3 l 0,15.6 -6.5,0 0,-15.5 0,0 z"
         class="st5"
         id="XMLID_2139_" />
      <path
         style="fill:#ffffff"
         d="m 1599.9,1758.5 c 1.3,1.3 2.2,3.5 2.2,6.5 l 0,17.3 -6.5,0 -14.1,0 -1.3,0 0,-25.7 6.5,0 7.8,0 c 2.1,-0.1 4.1,0.6 5.4,1.9 z m -4.3,19 0,-12.8 c 0,-2.2 -1,-3.3 -3,-3.3 l -6,0 0,15.9 9,0 0,0.2 z"
         class="st5"
         id="XMLID_2136_" />
      <path
         style="fill:#ffffff"
         d="m 1627.8,1758.7 c 1.3,1.5 2.2,3.7 2.2,6.5 l 0,17.1 -6.5,0 0,-17.4 c 0,-2.3 -1,-3.5 -3,-3.5 l -6,0 0,20.9 -6.5,0 0,-22.8 0,-3 14.3,0 c 2.4,0 4.2,0.7 5.5,2.2 z"
         class="st5"
         id="XMLID_2135_" />
      <path
         style="fill:#ffffff"
         d="m 1634.3,1778.6 c 1.2,-0.2 2,-0.3 2.5,-0.7 0.5,-0.4 1,-0.8 1.2,-1.3 0.2,-0.7 0.3,-1.5 0.3,-2.5 l 0,-17.6 13.6,0 c 2.3,0 4.3,0.7 5.6,2 1.3,1.3 2,3.5 2,6.5 l 0,17.3 -6.5,0 0,-17.6 c 0,-2.2 -1,-3.3 -3,-3.3 l -5.3,0 0,11.8 c 0,2.3 -0.3,4.2 -1,5.5 -0.7,1.3 -1.8,2.3 -3.2,3 -1.5,0.7 -3.3,1.2 -5.8,1.3 l -0.4,-4.4 z"
         class="st5"
         id="XMLID_2134_" />
      <path
         style="fill:#ffffff"
         d="m 1687.5,1779.3 c -2,2.3 -4.7,3.7 -8.1,3.7 -1.3,0 -2.7,-0.2 -4.2,-0.5 l 0.7,-4.8 c 1.2,0.2 2,0.3 2.8,0.3 2,0 3.5,-0.7 4.3,-2 0.8,-1.3 1.3,-3.3 1.3,-6.1 0,-3 -0.3,-5.1 -1.2,-6.5 -0.8,-1.3 -2.2,-2 -3.8,-2 -1.2,0 -2.2,0.3 -3,1.2 -0.8,0.9 -1.3,1.7 -1.5,3 l -2.8,17.1 -6.5,0 3.2,-17.4 -3.7,-8.5 6.8,0 1.8,5.1 c 0.7,-1.8 1.7,-3.3 2.8,-4.2 1.3,-1 2.7,-1.3 4.3,-1.3 3.2,0 5.6,1.2 7.3,3.3 1.7,2.2 2.5,5.5 2.5,10 0,3.9 -1,7.3 -3,9.6 z"
         class="st5"
         id="XMLID_2133_" />
    </g>
  </g>
</svg>
