<?xml version="1.0" encoding="UTF-8" standalone="no"?>
<svg
   xmlns:dc="http://purl.org/dc/elements/1.1/"
   xmlns:cc="http://creativecommons.org/ns#"
   xmlns:rdf="http://www.w3.org/1999/02/22-rdf-syntax-ns#"
   xmlns:svg="http://www.w3.org/2000/svg"
   xmlns="http://www.w3.org/2000/svg"
   xmlns:xlink="http://www.w3.org/1999/xlink"
   id="svg6470"
   version="1.1"
   viewBox="0 0 131.83923 64.944362"
   height="245.459"
   width="498.29001">
  <defs
     id="defs6464">
    <linearGradient
       xlink:href="#d"
       gradientTransform="matrix(-1,0,0,1,4408.61,0)"
       y2="748.19897"
       x2="1208.16"
       y1="869.39203"
       x1="1225.62"
       id="au" />
    <linearGradient
       gradientUnits="userSpaceOnUse"
       gradientTransform="translate(2092.39)"
       y2="919.03699"
       x2="1992.298"
       y1="804.00598"
       x1="1972.783"
       id="d">
      <stop
         style="stop-color:#c700ff;stop-opacity:1"
         id="stop17"
         stop-color="#574ace"
         offset="0" />
      <stop
         style="stop-color:#d643ff;stop-opacity:1"
         id="stop19"
         stop-color="#8543ff"
         offset="1" />
    </linearGradient>
    <linearGradient
       xlink:href="#d"
       gradientTransform="matrix(-1,0,0,1,4408.61,0)"
       y2="747.27301"
       x2="1017.017"
       y1="876.16901"
       x1="1000.584"
       id="at" />
    <linearGradient
       xlink:href="#d"
       gradientTransform="matrix(-1,0,0,1,4408.61,0)"
       y2="855.57898"
       x2="1101.484"
       y1="740.54797"
       x1="1081.97"
       id="as" />
  </defs>
  <metadata
     id="metadata6467">
    <rdf:RDF>
      <cc:Work
         rdf:about="">
        <dc:format>image/svg+xml</dc:format>
        <dc:type
           rdf:resource="http://purl.org/dc/dcmitype/StillImage" />
        <dc:title></dc:title>
      </cc:Work>
    </rdf:RDF>
  </metadata>
  <g
     transform="translate(-63.802098,-98.974249)"
     id="layer1">
    <polygon
       style="fill:url(#as)"
       id="polygon355"
       points="3188.354,888.282 3392.739,890.85 3410.054,916.266 3378.36,718.304 3214.544,749.116 "
       class="bf"
       transform="matrix(0.26458333,0,0,0.26458333,-776.10366,-85.913936)" />
    <polygon
       style="fill:url(#at)"
       id="polygon357"
       points="3423.592,944.249 3394.952,698.79 3378.36,718.304 3410.054,916.266 "
       class="bg"
       transform="matrix(0.26458333,0,0,0.26458333,-776.10366,-85.913936)" />
    <polygon
       style="fill:#d643ff;fill-opacity:1"
       id="polygon359"
       points="3378.36,718.304 3214.544,749.116 3187.289,740.806 3394.952,698.79 "
       class="h"
       transform="matrix(0.26458333,0,0,0.26458333,-776.10366,-85.913936)" />
    <polygon
       style="fill:url(#au)"
       id="polygon361"
       points="3187.289,740.806 3174.447,906.256 3188.354,888.282 3214.544,749.116 "
       class="bh"
       transform="matrix(0.26458333,0,0,0.26458333,-776.10366,-85.913936)" />
    <polygon
       style="fill:#c700ff;fill-opacity:1"
       id="polygon363"
       points="3410.054,916.266 3423.592,944.249 3376.354,900.795 3176.441,903.678 3188.354,888.282 3392.739,890.85 "
       class="j"
       transform="matrix(0.26458333,0,0,0.26458333,-776.10366,-85.913936)" />
    <path
       style="fill:#ffffff;stroke-width:0.26458332"
       id="path365"
       d="m 77.182883,131.21479 a 2.2944667,2.2944667 0 0 1 0.354806,1.25201 2.5664583,2.5664583 0 0 1 -0.363802,1.38853 2.3632583,2.3632583 0 0 1 -0.997479,0.88821 3.2564917,3.2564917 0 0 1 -1.434042,0.30612 3.3731729,3.3731729 0 0 1 -1.418696,-0.29104 2.38125,2.38125 0 0 1 -1.009385,-0.84667 2.3079604,2.3079604 0 0 1 -0.372798,-1.31868 h 1.133739 a 1.5946437,1.5946437 0 0 0 0.2032,0.81227 1.3671021,1.3671021 0 0 0 0.578909,0.54266 1.9314583,1.9314583 0 0 0 0.885296,0.19103 1.7002125,1.7002125 0 0 0 1.221581,-0.41831 1.6208375,1.6208375 0 0 0 0.439738,-1.23084 1.4697604,1.4697604 0 0 0 -0.494242,-1.20967 2.1148146,2.1148146 0 0 0 -1.373188,-0.40323 h -0.8001 v -0.90937 h 0.8001 a 2.1320125,2.1320125 0 0 0 0.954882,-0.19394 1.3208,1.3208 0 0 0 0.584993,-0.53975 1.5806208,1.5806208 0 0 0 0.19394,-0.78819 1.6028458,1.6028458 0 0 0 -0.384969,-1.161 1.53035,1.53035 0 0 0 -1.148821,-0.39687 1.7615958,1.7615958 0 0 0 -0.830791,0.18785 1.3700125,1.3700125 0 0 0 -0.557742,0.53049 1.5650104,1.5650104 0 0 0 -0.200025,0.80328 h -1.13374 a 2.3061083,2.3061083 0 0 1 0.342636,-1.23084 2.3950083,2.3950083 0 0 1 0.960966,-0.87921 3.0326542,3.0326542 0 0 1 1.418696,-0.32121 3.2498771,3.2498771 0 0 1 1.406525,0.28496 2.0997333,2.0997333 0 0 1 0.93054,0.84667 2.6365729,2.6365729 0 0 1 0.330465,1.36128 1.8819812,1.8819812 0 0 1 -0.151342,0.71437 2.1830771,2.1830771 0 0 1 -0.463815,0.69109 2.3148396,2.3148396 0 0 1 -0.773112,0.51541 2.0568708,2.0568708 0 0 1 1.167077,0.82259 z"
       class="p" />
    <path
       style="fill:#ffffff;stroke-width:0.26458332"
       id="path367"
       d="m 87.353466,128.49567 -2.619375,6.43281 h -1.2065 l 2.588948,-6.23887 h -4.189412 v -3.07393 h 1.121568 v 2.16958 h 4.304771 z"
       class="p" />
    <path
       style="fill:#ffffff;stroke-width:0.26458332"
       id="path369"
       d="M 89.238887,128.68961 H 88.40836 v -0.90355 h 1.957917 v 7.14242 h -1.127919 z"
       class="p" />
    <path
       style="fill:#ffffff;stroke-width:0.26458332"
       id="path371"
       d="m 91.955364,134.7102 0.182033,-0.84296 a 6.6410417,6.6410417 0 0 0 1.709738,0.26061 2.1844,2.1844 0 0 0 1.54305,-0.49424 1.8401771,1.8401771 0 0 0 0.529167,-1.41578 v -3.52822 H 92.20275 v -0.90355 h 4.83817 v 4.18967 q 0,1.5158 -0.80645,2.28574 -0.80645,0.76994 -2.243402,0.76994 a 7.46125,7.46125 0 0 1 -2.035704,-0.32121 z"
       class="p" />
    <path
       style="fill:#ffffff;stroke-width:0.26458332"
       id="path373"
       d="m 100.32863,133.66139 a 6.7540187,6.7540187 0 0 0 1.22476,0.38788 5.775325,5.775325 0 0 0 1.22475,0.13944 4.4979167,4.4979167 0 0 0 1.55814,-0.25162 2.3394458,2.3394458 0 0 0 1.07923,-0.76385 2.0108333,2.0108333 0 0 0 0.39397,-1.26418 v -4.12274 h 1.0914 v 4.22593 a 2.6770542,2.6770542 0 0 1 -0.54266,1.70074 3.260725,3.260725 0 0 1 -1.4642,1.03981 5.8353854,5.8353854 0 0 1 -2.06137,0.34555 8.3079167,8.3079167 0 0 1 -1.81875,-0.20929 8.2036708,8.2036708 0 0 1 -1.776673,-0.61542 v -6.48758 h 1.091403 z m 2.05555,-1.35519 a 3.6382854,3.6382854 0 0 0 0.11509,-0.96705 v -3.55283 h 1.0975 v 3.3528 a 3.4319104,3.4319104 0 0 1 -0.15161,1.07606 1.9856979,1.9856979 0 0 1 -0.46699,0.77893 l -0.93345,-0.0362 a 1.5247937,1.5247937 0 0 0 0.3392,-0.65166 z"
       class="p" />
    <path
       style="fill:#ffffff;stroke-width:0.26458332"
       id="path375"
       d="m 113.09081,131.80613 2.26139,3.12209 h -1.25492 l -3.18293,-4.3897 q -0.64876,0.4064 -0.64876,1.39461 v 2.99509 h -1.09141 v -2.58736 a 3.2160104,3.2160104 0 0 1 0.31512,-1.51871 2.0214167,2.0214167 0 0 1 0.97605,-0.89429 l -1.54596,-2.14022 h 1.261 l 2.21298,3.05568 1.72191,-3.05568 h 1.26735 z"
       class="p" />
  </g>
</svg>
