<?xml version="1.0" encoding="UTF-8" standalone="no"?>
<svg
   xmlns:dc="http://purl.org/dc/elements/1.1/"
   xmlns:cc="http://creativecommons.org/ns#"
   xmlns:rdf="http://www.w3.org/1999/02/22-rdf-syntax-ns#"
   xmlns:svg="http://www.w3.org/2000/svg"
   xmlns="http://www.w3.org/2000/svg"
   xmlns:xlink="http://www.w3.org/1999/xlink"
   id="svg8692"
   version="1.1"
   viewBox="0 0 136.64883 43.98063"
   height="166.226"
   width="516.46802">
  <defs
     id="defs8686">
    <linearGradient
       xlink:href="#g"
       y2="1203.796"
       x2="3280.7981"
       y1="1286.351"
       x1="3292.6909"
       id="bv" />
    <linearGradient
       gradientUnits="userSpaceOnUse"
       y2="1678.416"
       x2="1819.7371"
       y1="1613.504"
       x1="1808.725"
       id="g">
      <stop
         style="stop-color:#c700ff;stop-opacity:1"
         id="stop24"
         stop-color="#574ace"
         offset="0" />
      <stop
         style="stop-color:#d643ff;stop-opacity:1"
         id="stop26"
         stop-color="#8543ff"
         offset="1" />
    </linearGradient>
    <linearGradient
       xlink:href="#g"
       y2="1202.547"
       x2="3080.262"
       y1="1290.515"
       x1="3069.0471"
       id="bu" />
    <linearGradient
       xlink:href="#g"
       y2="1279.427"
       x2="3173.7561"
       y1="1194.9399"
       x1="3159.4241"
       id="bt" />
  </defs>
  <metadata
     id="metadata8689">
    <rdf:RDF>
      <cc:Work
         rdf:about="">
        <dc:format>image/svg+xml</dc:format>
        <dc:type
           rdf:resource="http://purl.org/dc/dcmitype/StillImage" />
        <dc:title></dc:title>
      </cc:Work>
    </rdf:RDF>
  </metadata>
  <g
     transform="translate(-1.8348088,-111.72397)"
     id="layer1">
    <polygon
       style="fill:url(#bt)"
       id="polygon830"
       points="3096.462,1182.839 3266.255,1203.705 3293.4,1297.949 3081.559,1299.688 3063.611,1316.899 "
       class="ch"
       transform="matrix(0.26458333,0,0,0.26458333,-736.70881,-197.73904)" />
    <polygon
       style="fill:url(#bu)"
       id="polygon832"
       points="3096.462,1182.839 3063.611,1316.899 3049.58,1335.85 3079.264,1169.624 "
       class="ci"
       transform="matrix(0.26458333,0,0,0.26458333,-736.70881,-197.73904)" />
    <polygon
       style="fill:#d643ff;fill-opacity:1"
       id="polygon834"
       points="3294.504,1198.077 3079.264,1169.624 3096.462,1182.839 3266.255,1203.705 "
       class="o"
       transform="matrix(0.26458333,0,0,0.26458333,-736.70881,-197.73904)" />
    <polygon
       style="fill:url(#bv)"
       id="polygon836"
       points="3293.4,1297.949 3266.255,1203.705 3294.504,1198.077 3307.814,1310.121 "
       class="cj"
       transform="matrix(0.26458333,0,0,0.26458333,-736.70881,-197.73904)" />
    <polygon
       style="fill:#c700ff;fill-opacity:1"
       id="polygon838"
       points="3293.4,1297.949 3081.559,1299.688 3063.611,1316.899 3049.58,1335.85 3098.541,1306.423 3305.747,1308.375 "
       class="q"
       transform="matrix(0.26458333,0,0,0.26458333,-736.70881,-197.73904)" />
    <path
       style="fill:#ffffff;stroke-width:0.26458332"
       id="path840"
       d="m 80.366062,135.292 h 3.989388 v 5.00063 h -3.989388 z m 3.204104,4.36272 v -3.73063 h -2.41935 v 3.73063 z"
       class="l" />
    <path
       style="fill:#ffffff;stroke-width:0.26458332"
       id="path842"
       d="m 86.273679,135.92515 h -0.916781 v -0.63235 h 1.706298 v 2.78818 h -0.789517 z"
       class="l" />
    <path
       style="fill:#ffffff;stroke-width:0.26458332"
       id="path844"
       d="m 90.577391,136.80383 a 0.860425,0.860425 0 0 0 -0.239712,-0.64293 0.89535,0.89535 0 0 0 -0.655902,-0.23575 h -1.680634 v -0.63235 h 1.706034 a 1.9663833,1.9663833 0 0 1 0.887148,0.18653 1.3094229,1.3094229 0 0 1 0.570706,0.53895 1.7033875,1.7033875 0 0 1 0.197379,0.84455 v 3.4298 h -0.785283 z"
       class="l" />
    <path
       style="fill:#ffffff;stroke-width:0.26458332"
       id="path846"
       d="m 96.379175,139.68991 v 0.60245 h -4.108186 v -0.63658 h 2.716213 v -2.49979 a 1.0551583,1.0551583 0 0 0 -1.234811,-1.23057 h -1.209675 v -0.63236 h 1.252009 a 2.0682479,2.0682479 0 0 1 1.479021,0.47625 1.8581687,1.8581687 0 0 1 0.498739,1.40917 v 2.44872 z"
       class="l" />
    <path
       style="fill:#ffffff;stroke-width:0.26458332"
       id="path848"
       d="m 96.675773,140.31353 v -0.72575 a 1.6716375,1.6716375 0 0 0 0.246062,0.0169 1.4663208,1.4663208 0 0 0 0.993246,-0.37042 1.61925,1.61925 0 0 0 0.488156,-0.91016 v -2.39792 H 97.27426 v -0.63236 h 1.905 v 2.58022 a 3.571875,3.571875 0 0 0 0.07937,0.76412 l 0.347927,1.65523 h -0.74295 l -0.292629,-1.40044 h -0.02963 a 1.5875,1.5875 0 0 1 -0.284427,0.70882 1.7306396,1.7306396 0 0 1 -0.596371,0.52917 1.6216312,1.6216312 0 0 1 -0.787136,0.19711 1.1165417,1.1165417 0 0 1 -0.197643,-0.0146 z"
       class="l" />
    <path
       style="fill:#ffffff;stroke-width:0.26458332"
       id="path850"
       d="m 103.25861,135.92515 h -0.91678 v -0.63235 h 1.70629 v 2.78818 h -0.78951 z"
       class="l" />
    <path
       style="fill:#ffffff;stroke-width:0.26458332"
       id="path852"
       d="m 105.88142,135.92515 h -0.91678 v -0.63235 h 1.7063 v 2.78818 h -0.78952 z"
       class="l" />
    <path
       style="fill:#ffffff;stroke-width:0.26458332"
       id="path854"
       d="m 111.50488,135.78942 -1.83357,4.50321 h -0.84428 l 1.81213,-4.36721 h -2.93291 v -2.15186 h 0.78529 v 1.5195 h 3.01334 z"
       class="l" />
    <path
       style="fill:#ffffff;stroke-width:0.26458332"
       id="path856"
       d="m 113.50327,140.30506 a 5.0757667,5.0757667 0 0 1 -0.84031,-0.21166 l 0.15266,-0.58976 a 5.2122917,5.2122917 0 0 0 0.7575,0.17172 4.7172562,4.7172562 0 0 0 0.68951,0.0574 1.5700375,1.5700375 0 0 0 1.07394,-0.35243 1.26365,1.26365 0 0 0 0.37783,-0.98451 v -2.47015 h -2.00316 a 2.12725,2.12725 0 0 0 -0.21855,0.59187 3.1660042,3.1660042 0 0 0 -0.0825,0.71437 v 0.3818 a 0.82020833,0.82020833 0 0 0 0.2503,0.0595 3.9721896,3.9721896 0 0 0 0.41169,0.0169 v 0.67892 a 4.3391667,4.3391667 0 0 1 -0.82762,-0.0614 2.2153562,2.2153562 0 0 1 -0.60246,-0.22278 l -0.0169,-0.64506 a 3.2586083,3.2586083 0 0 1 0.10822,-0.8382 2.1211646,2.1211646 0 0 1 0.29474,-0.67706 h -0.60695 v -0.63235 h 4.07855 v 2.95381 a 2.3283333,2.3283333 0 0 1 -0.2757,1.18189 1.7359312,1.7359312 0 0 1 -0.76729,0.71438 2.6019125,2.6019125 0 0 1 -1.13956,0.23574 5.0270833,5.0270833 0 0 1 -0.81386,-0.073 z"
       class="l" />
    <path
       style="fill:#ffffff;stroke-width:0.26458332"
       id="path858"
       d="m 119.00661,140.09948 a 1.9655896,1.9655896 0 0 1 -0.74454,-0.80645 2.6315458,2.6315458 0 0 1 -0.27173,-1.20332 v -0.50933 a 2.3693437,2.3693437 0 0 1 0.0915,-0.64928 2.2127104,2.2127104 0 0 1 0.25241,-0.57918 1.2789958,1.2789958 0 0 1 0.36486,-0.39264 0.23045208,0.23045208 0 0 1 0.0595,-0.0339 l -0.004,-0.0127 a 7.5292479,7.5292479 0 0 0 -0.89565,0.20797 l -0.15266,-0.59426 a 7.7557312,7.7557312 0 0 1 1.12025,-0.23812 8.1774771,8.1774771 0 0 1 1.1504,-0.0892 2.4714729,2.4714729 0 0 1 1.19883,0.27384 1.8557875,1.8557875 0 0 1 0.77232,0.78926 2.6175229,2.6175229 0 0 1 0.26961,1.22872 v 0.59849 a 2.6296937,2.6296937 0 0 1 -0.263,1.20332 1.9346333,1.9346333 0 0 1 -0.74295,0.80645 2.1166667,2.1166667 0 0 1 -1.10781,0.28628 2.0902083,2.0902083 0 0 1 -1.09722,-0.28601 z m 1.79519,-0.58208 a 1.3057187,1.3057187 0 0 0 0.46885,-0.57071 2.0671896,2.0671896 0 0 0 0.16563,-0.85301 v -0.59426 a 2.1034375,2.1034375 0 0 0 -0.16775,-0.87312 1.2723812,1.2723812 0 0 0 -0.47943,-0.56859 1.3401146,1.3401146 0 0 0 -0.7321,-0.19712 1.1252729,1.1252729 0 0 0 -0.66437,0.20162 1.3054542,1.3054542 0 0 0 -0.44582,0.58208 2.4047979,2.4047979 0 0 0 -0.16748,0.8935 v 0.55562 a 2.0671896,2.0671896 0 0 0 0.16536,0.85302 1.3173604,1.3173604 0 0 0 0.46488,0.5707 1.2104687,1.2104687 0 0 0 0.69373,0.20188 1.2305771,1.2305771 0 0 0 0.69824,-0.20135 z"
       class="l" />
    <path
       style="fill:#ffffff;stroke-width:0.26458332"
       id="path860"
       d="m 123.81276,135.92515 h -0.58208 v -0.63235 h 1.37081 v 5.00062 h -0.78926 z"
       class="l" />
    <path
       style="fill:#ffffff;stroke-width:0.26458332"
       id="path862"
       d="m 127.81935,139.67271 a 1.5925271,1.5925271 0 0 0 0.73395,-0.1868 1.2239625,1.2239625 0 0 0 0.48816,-0.49027 1.53035,1.53035 0 0 0 0.17409,-0.74903 v -2.32146 h -3.08557 v -0.63235 h 3.87509 v 2.93687 a 2.1092583,2.1092583 0 0 1 -0.26961,1.08479 1.825625,1.825625 0 0 1 -0.76412,0.71279 2.6135542,2.6135542 0 0 1 -1.15199,0.26458 z m -1.59174,-1.25624 a 2.5008417,2.5008417 0 0 1 0.0574,-0.60272 2.54,2.54 0 0 1 0.16325,-0.44556 h 0.64505 a 2.3682854,2.3682854 0 0 0 -0.0794,0.42333 q -0.0233,0.23363 -0.0233,0.57732 v 3.68803 h -0.76412 z"
       class="l" />
  </g>
</svg>
