<?xml version="1.0" encoding="UTF-8" standalone="no"?>
<svg
   xmlns:dc="http://purl.org/dc/elements/1.1/"
   xmlns:cc="http://creativecommons.org/ns#"
   xmlns:rdf="http://www.w3.org/1999/02/22-rdf-syntax-ns#"
   xmlns:svg="http://www.w3.org/2000/svg"
   xmlns="http://www.w3.org/2000/svg"
   xmlns:xlink="http://www.w3.org/1999/xlink"
   id="svg10630"
   version="1.1"
   viewBox="0 0 104.25377 32.136028"
   height="121.459"
   width="394.03">
  <defs
     id="defs10624">
    <linearGradient
       xlink:href="#g"
       y2="1797.167"
       x2="3226.1509"
       y1="1857.532"
       x1="3234.8469"
       id="bg" />
    <linearGradient
       gradientUnits="userSpaceOnUse"
       y2="1678.416"
       x2="1819.7371"
       y1="1613.504"
       x1="1808.725"
       id="g">
      <stop
         id="stop24"
         stop-color="#574ace"
         offset="0" />
      <stop
         id="stop26"
         stop-color="#8543ff"
         offset="1" />
    </linearGradient>
    <linearGradient
       xlink:href="#g"
       y2="1796.186"
       x2="3072.927"
       y1="1860.525"
       x1="3064.7241"
       id="bf" />
    <linearGradient
       xlink:href="#g"
       y2="1852.7"
       x2="3144.7"
       y1="1790.354"
       x1="3134.123"
       id="be" />
  </defs>
  <metadata
     id="metadata10627">
    <rdf:RDF>
      <cc:Work
         rdf:about="">
        <dc:format>image/svg+xml</dc:format>
        <dc:type
           rdf:resource="http://purl.org/dc/dcmitype/StillImage" />
        <dc:title></dc:title>
      </cc:Work>
    </rdf:RDF>
  </metadata>
  <g
     transform="translate(-16.303724,-128.2296)"
     id="layer1">
    <polygon
       style="fill:url(#be)"
       id="polygon604"
       points="3085.52,1781.787 3215.059,1797.034 3235.769,1865.896 3074.15,1867.167 3060.457,1879.743 "
       class="bs"
       transform="matrix(0.26458333,0,0,0.26458333,-738.48293,-340.64672)" />
    <polygon
       style="fill:url(#bf)"
       id="polygon606"
       points="3085.52,1781.787 3060.457,1879.743 3049.752,1893.59 3072.399,1772.131 "
       class="bt"
       transform="matrix(0.26458333,0,0,0.26458333,-738.48293,-340.64672)" />
    <polygon
       style="fill:#8543ff"
       id="polygon608"
       points="3236.611,1792.922 3072.399,1772.131 3085.52,1781.787 3215.059,1797.034 "
       class="o"
       transform="matrix(0.26458333,0,0,0.26458333,-738.48293,-340.64672)" />
    <polygon
       style="fill:url(#bg)"
       id="polygon610"
       points="3235.769,1865.896 3215.059,1797.034 3236.611,1792.922 3246.767,1874.79 "
       class="bu"
       transform="matrix(0.26458333,0,0,0.26458333,-738.48293,-340.64672)" />
    <polygon
       style="fill:#574ace"
       id="polygon612"
       points="3235.769,1865.896 3074.15,1867.167 3060.457,1879.743 3049.752,1893.59 3087.106,1872.088 3245.19,1873.514 "
       class="q"
       transform="matrix(0.26458333,0,0,0.26458333,-738.48293,-340.64672)" />
    <path
       style="fill:#ffffff;stroke-width:0.26458332"
       id="path614"
       d="m 80.763902,143.42067 h 4.274344 v 5.35675 h -4.274344 z m 3.433234,4.67465 v -3.99679 h -2.592917 v 3.99679 z"
       class="l" />
    <path
       style="fill:#ffffff;stroke-width:0.26458332"
       id="path616"
       d="m 87.09353,144.09826 h -0.982134 v -0.67786 h 1.828006 v 2.98768 h -0.846666 z"
       class="l" />
    <path
       style="fill:#ffffff;stroke-width:0.26458332"
       id="path618"
       d="m 90.313244,147.82704 a 5.0755021,5.0755021 0 0 0 0.918633,0.29104 4.3336104,4.3336104 0 0 0 0.918634,0.10583 3.3744958,3.3744958 0 0 0 1.168664,-0.18865 1.7547167,1.7547167 0 0 0 0.809625,-0.57308 1.508125,1.508125 0 0 0 0.29554,-0.94801 v -3.09218 h 0.818356 v 3.16944 a 2.0071292,2.0071292 0 0 1 -0.406929,1.27529 2.4463375,2.4463375 0 0 1 -1.098021,0.78 4.3796479,4.3796479 0 0 1 -1.54596,0.25902 6.2441667,6.2441667 0 0 1 -1.364192,-0.15689 6.1632042,6.1632042 0 0 1 -1.332442,-0.4617 v -4.86569 h 0.818621 z m 1.541463,-1.01653 a 2.7252083,2.7252083 0 0 0 0.08652,-0.72522 v -2.66462 h 0.822855 v 2.51354 a 2.5743958,2.5743958 0 0 1 -0.113771,0.80698 1.4882812,1.4882812 0 0 1 -0.350044,0.58446 l -0.700088,-0.0265 a 1.1377083,1.1377083 0 0 0 0.25453,-0.48868 z"
       class="l" />
    <path
       style="fill:#ffffff;stroke-width:0.26458332"
       id="path620"
       d="m 96.156302,148.80017 v -0.77734 a 1.8010187,1.8010187 0 0 0 0.264584,0.018 1.5697729,1.5697729 0 0 0 1.063889,-0.39688 1.7340792,1.7340792 0 0 0 0.523082,-0.97551 v -2.56911 h -1.209675 v -0.67786 h 2.041789 v 2.76516 a 3.8213771,3.8213771 0 0 0 0.08652,0.81836 l 0.372798,1.7727 h -0.795868 l -0.313796,-1.50071 h -0.03201 a 1.6949208,1.6949208 0 0 1 -0.304536,0.75935 1.8494375,1.8494375 0 0 1 -0.638704,0.56621 1.736725,1.736725 0 0 1 -0.843491,0.21167 1.2022667,1.2022667 0 0 1 -0.214578,-0.014 z"
       class="l" />
    <path
       style="fill:#ffffff;stroke-width:0.26458332"
       id="path622"
       d="m 101.47231,148.79091 a 5.4554437,5.4554437 0 0 1 -0.89958,-0.22727 l 0.16378,-0.63209 a 5.5663042,5.5663042 0 0 0 0.81147,0.18521 5.0392542,5.0392542 0 0 0 0.73898,0.0614 1.6798396,1.6798396 0 0 0 1.15041,-0.37756 1.3530792,1.3530792 0 0 0 0.40481,-1.0549 v -2.64583 h -2.1463 a 2.2841479,2.2841479 0 0 0 -0.23415,0.635 3.394075,3.394075 0 0 0 -0.0886,0.76729 v 0.40931 a 0.88079792,0.88079792 0 0 0 0.26829,0.0635 4.1923229,4.1923229 0 0 0 0.44106,0.0183 v 0.7276 a 4.6587833,4.6587833 0 0 1 -0.88689,-0.0659 2.3725187,2.3725187 0 0 1 -0.64558,-0.23812 l -0.018,-0.69109 a 3.4925,3.4925 0 0 1 0.11589,-0.89826 2.270125,2.270125 0 0 1 0.31591,-0.72523 h -0.65035 v -0.67786 h 4.37013 v 3.16495 a 2.4992542,2.4992542 0 0 1 -0.29554,1.26656 1.8594917,1.8594917 0 0 1 -0.82021,0.76385 2.7889729,2.7889729 0 0 1 -1.22079,0.25241 5.3908854,5.3908854 0 0 1 -0.87471,-0.0812 z"
       class="l" />
    <path
       style="fill:#ffffff;stroke-width:0.26458332"
       id="path624"
       d="m 106.69228,145.37144 a 2.1166667,2.1166667 0 0 1 0.21166,-0.70247 1.4927792,1.4927792 0 0 1 0.38868,-0.50694 c 0.0122,-0.009 0.0426,-0.0302 0.091,-0.0635 l -0.009,-0.0138 q -0.20453,0.0365 -0.51171,0.11589 -0.30718,0.0794 -0.56144,0.16589 l -0.19553,-0.63659 a 7.6752979,7.6752979 0 0 1 1.18242,-0.29554 7.0908333,7.0908333 0 0 1 1.20491,-0.11377 2.2275271,2.2275271 0 0 1 1.65312,0.57547 q 0.57044,0.57521 0.57521,1.68937 v 3.19193 h -2.20557 v -0.6776 h 1.36419 v -2.61011 a 1.6152812,1.6152812 0 0 0 -0.32279,-1.08665 1.1723687,1.1723687 0 0 0 -0.93689,-0.37279 0.93794792,0.93794792 0 0 0 -0.7366,0.33866 1.6578792,1.6578792 0 0 0 -0.3638,0.92075 l -0.40455,3.48774 h -0.83238 z"
       class="l" />
  </g>
</svg>
