<?xml version="1.0" encoding="UTF-8" standalone="no"?>
<svg
   xmlns:dc="http://purl.org/dc/elements/1.1/"
   xmlns:cc="http://creativecommons.org/ns#"
   xmlns:rdf="http://www.w3.org/1999/02/22-rdf-syntax-ns#"
   xmlns:svg="http://www.w3.org/2000/svg"
   xmlns="http://www.w3.org/2000/svg"
   xmlns:xlink="http://www.w3.org/1999/xlink"
   id="svg9905"
   version="1.1"
   viewBox="0 0 79.844898 45.601203"
   height="172.351"
   width="301.776">
  <defs
     id="defs9899">
    <linearGradient
       xlink:href="#s"
       gradientTransform="translate(-1037.31)"
       y2="884.59601"
       x2="2379.761"
       y1="884.59601"
       x1="2371"
       id="aa" />
    <linearGradient
       gradientUnits="userSpaceOnUse"
       gradientTransform="matrix(-1,0,0,1,4054.575,0)"
       y2="961.81897"
       x2="2373.094"
       y1="915.30499"
       x1="2380.218"
       id="s">
      <stop
         style="stop-color:#c700ff;stop-opacity:1"
         id="stop30"
         stop-color="#fa642e"
         offset="0" />
      <stop
         style="stop-color:#d643ff;stop-opacity:1"
         id="stop32"
         stop-color="#ffab50"
         offset="1" />
    </linearGradient>
    <linearGradient
       xlink:href="#s"
       gradientTransform="translate(-1037.31)"
       y2="824.21997"
       x2="2505.4221"
       y1="948.07098"
       x1="2514.6189"
       id="z" />
    <linearGradient
       xlink:href="#s"
       gradientTransform="translate(-1037.31)"
       y2="912.28699"
       x2="2441.0779"
       y1="839.51703"
       x1="2452.2229"
       id="y" />
  </defs>
  <metadata
     id="metadata9902">
    <rdf:RDF>
      <cc:Work
         rdf:about="">
        <dc:format>image/svg+xml</dc:format>
        <dc:type
           rdf:resource="http://purl.org/dc/dcmitype/StillImage" />
        <dc:title></dc:title>
      </cc:Work>
    </rdf:RDF>
  </metadata>
  <g
     transform="translate(-73.776866,-104.86606)"
     id="layer1">
    <polygon
       style="fill:url(#y)"
       id="polygon186"
       points="1465.335,820.318 1472.335,947.691 1450.041,939.17 1334.934,934.247 1342.451,829.548 "
       class="ag"
       transform="matrix(0.26458333,0,0,0.26458333,-279.09554,-108.66115)" />
    <polygon
       style="fill:#d643ff;fill-opacity:1"
       id="polygon188"
       points="1470.161,807.032 1336.94,820.598 1342.451,829.548 1465.335,820.318 "
       class="z"
       transform="matrix(0.26458333,0,0,0.26458333,-279.09554,-108.66115)" />
    <polygon
       style="fill:url(#z)"
       id="polygon190"
       points="1470.161,807.032 1465.335,820.318 1472.335,947.691 1484.579,979.383 "
       class="ah"
       transform="matrix(0.26458333,0,0,0.26458333,-279.09554,-108.66115)" />
    <polygon
       style="fill:#c700ff;fill-opacity:1"
       id="polygon192"
       points="1333.691,948.593 1334.934,934.247 1450.041,939.17 1472.335,947.691 1484.579,979.383 1459.416,945.724 "
       class="ab"
       transform="matrix(0.26458333,0,0,0.26458333,-279.09554,-108.66115)" />
    <polygon
       style="fill:url(#aa)"
       id="polygon194"
       points="1342.451,829.548 1336.94,820.598 1333.691,948.593 1334.934,934.247 "
       class="ai"
       transform="matrix(0.26458333,0,0,0.26458333,-279.09554,-108.66115)" />
    <path
       style="fill:#ffffff;stroke-width:0.26458332"
       id="path322"
       d="m 85.78155,114.37149 -2.619375,6.43282 h -1.2065 l 2.588948,-6.23888 H 80.35521 v -3.07393 h 1.121569 v 2.16959 h 4.304771 z"
       class="aj" />
    <path
       style="fill:#ffffff;stroke-width:0.26458332"
       id="path324"
       d="m 91.479881,116.32359 q 0,-0.92763 -0.418306,-1.34303 -0.418306,-0.41539 -1.345935,-0.41539 h -2.588948 v -0.90329 h 2.643452 q 1.400439,0 2.119048,0.67892 0.718608,0.67892 0.718343,2.01295 v 4.45029 h -1.127654 z m -4.341018,2.04311 a 3.65125,3.65125 0 0 1 0.08176,-0.86995 3.5933062,3.5933062 0 0 1 0.233362,-0.63976 h 0.921544 a 4.2650833,4.2650833 0 0 0 -0.109273,0.61833 7.8700312,7.8700312 0 0 0 -0.03625,0.81862 v 2.5101 h -1.089291 z"
       class="aj" />
    <path
       style="fill:#ffffff;stroke-width:0.26458332"
       id="path326"
       d="m 94.966825,114.56543 h -0.830527 v -0.90329 h 1.957917 v 7.14217 H 94.96656 Z"
       class="aj" />
    <path
       style="fill:#ffffff;stroke-width:0.26458332"
       id="path328"
       d="m 102.28467,117.68169 2.26139,3.12209 h -1.25491 l -3.18321,-4.38944 q -0.648755,0.4064 -0.648755,1.39435 v 2.99509 h -1.091406 v -2.58895 a 3.2146875,3.2146875 0 0 1 0.315383,-1.51871 2.0198292,2.0198292 0 0 1 0.976048,-0.89429 l -1.546225,-2.14021 h 1.261269 l 2.212976,3.05567 1.72191,-3.05567 h 1.26735 z"
       class="aj" />
    <path
       style="fill:#ffffff;stroke-width:0.26458332"
       id="path330"
       d="m 83.347383,129.23817 q 0.700088,0.67601 0.700088,2.05845 v 4.4077 h -1.121569 l -0.0061,-4.47437 q 0,-0.92763 -0.396875,-1.34594 -0.396875,-0.4183 -1.282171,-0.4183 H 80.22821 a 2.8395083,2.8395083 0 0 0 -0.3175,0.83978 4.6638104,4.6638104 0 0 0 -0.118269,1.05199 v 2.40771 a 2.1357167,2.1357167 0 0 1 -0.466725,1.49145 1.7504833,1.7504833 0 0 1 -1.358106,0.50933 5.9221687,5.9221687 0 0 1 -0.697177,-0.0545 v -0.90303 a 3.3729083,3.3729083 0 0 0 0.418571,0.0243 0.97075625,0.97075625 0 0 0 0.767291,-0.27278 1.2845521,1.2845521 0 0 0 0.239448,-0.86096 v -2.25531 a 4.2764604,4.2764604 0 0 1 0.145521,-1.1004 2.4341667,2.4341667 0 0 1 0.400315,-0.87604 h -1.33985 v -0.90328 h 3.328723 q 1.416843,-0.002 2.116931,0.67416 z"
       class="aj" />
    <path
       style="fill:#ffffff;stroke-width:0.26458332"
       id="path332"
       d="m 86.406231,129.46571 h -0.830527 v -0.90329 h 1.957917 v 7.14216 h -1.127654 z"
       class="aj" />
    <path
       style="fill:#ffffff;stroke-width:0.26458332"
       id="path334"
       d="m 91.038292,135.72257 a 7.2472021,7.2472021 0 0 1 -1.200415,-0.30321 l 0.218281,-0.8427 a 7.3961625,7.3961625 0 0 0 1.082146,0.24554 6.7418479,6.7418479 0 0 0 0.985308,0.0818 2.2418146,2.2418146 0 0 0 1.534584,-0.50271 1.8052521,1.8052521 0 0 0 0.53975,-1.40653 v -3.52901 h -2.861734 a 3.0501167,3.0501167 0 0 0 -0.312208,0.84667 4.5312542,4.5312542 0 0 0 -0.118269,1.02155 v 0.54557 a 1.1858625,1.1858625 0 0 0 0.357717,0.0849 5.6869542,5.6869542 0 0 0 0.588169,0.0243 v 0.96997 a 6.2042146,6.2042146 0 0 1 -1.182423,-0.0878 3.1628292,3.1628292 0 0 1 -0.860954,-0.3175 l -0.02408,-0.92155 a 4.6720125,4.6720125 0 0 1 0.154516,-1.1975 3.0337125,3.0337125 0 0 1 0.421482,-0.96705 h -0.86704 v -0.90329 h 5.82639 v 4.21984 a 3.3287229,3.3287229 0 0 1 -0.39423,1.68857 2.4788812,2.4788812 0 0 1 -1.094316,1.01865 3.7173958,3.7173958 0 0 1 -1.627717,0.33655 7.1792042,7.1792042 0 0 1 -1.16496,-0.10504 z"
       class="aj" />
    <path
       style="fill:#ffffff;stroke-width:0.26458332"
       id="path336"
       d="m 97.853165,129.46571 h -0.830528 v -0.90329 h 1.957917 v 7.14216 H 97.8529 Z"
       class="aj" />
    <path
       style="fill:#ffffff;stroke-width:0.26458332"
       id="path338"
       d="m 103.57637,134.81929 a 2.2754167,2.2754167 0 0 0 1.0488,-0.2667 1.7488958,1.7488958 0 0 0 0.69718,-0.70036 2.1859875,2.1859875 0 0 0 0.24871,-1.07024 v -3.31628 h -4.40743 v -0.90329 h 5.53561 v 4.1955 a 3.0125458,3.0125458 0 0 1 -0.38497,1.54913 2.6077333,2.6077333 0 0 1 -1.0914,1.01865 3.7353875,3.7353875 0 0 1 -1.64597,0.37888 z m -2.27357,-1.79467 a 3.5774312,3.5774312 0 0 1 0.0818,-0.86096 3.6470167,3.6470167 0 0 1 0.23336,-0.63658 h 0.92155 a 3.4086271,3.4086271 0 0 0 -0.11219,0.60642 q -0.0333,0.33338 -0.0333,0.82444 v 5.26865 h -1.0914 z"
       class="aj" />
  </g>
</svg>
