<?xml version="1.0" encoding="UTF-8" standalone="no"?>
<svg
   xmlns:dc="http://purl.org/dc/elements/1.1/"
   xmlns:cc="http://creativecommons.org/ns#"
   xmlns:rdf="http://www.w3.org/1999/02/22-rdf-syntax-ns#"
   xmlns:svg="http://www.w3.org/2000/svg"
   xmlns="http://www.w3.org/2000/svg"
   xmlns:xlink="http://www.w3.org/1999/xlink"
   id="svg9341"
   version="1.1"
   viewBox="0 0 130.02841 41.849675"
   height="158.172"
   width="491.44598">
  <defs
     id="defs9335">
    <linearGradient
       xlink:href="#g"
       y2="1418.399"
       x2="3269.6499"
       y1="1496.953"
       x1="3280.967"
       id="by" />
    <linearGradient
       gradientUnits="userSpaceOnUse"
       y2="1678.416"
       x2="1819.7371"
       y1="1613.504"
       x1="1808.725"
       id="g">
      <stop
         id="stop24"
         stop-color="#574ace"
         offset="0" />
      <stop
         id="stop26"
         stop-color="#8543ff"
         offset="1" />
    </linearGradient>
    <linearGradient
       xlink:href="#g"
       y2="1417.21"
       x2="3078.8311"
       y1="1500.916"
       x1="3068.1589"
       id="bx" />
    <linearGradient
       xlink:href="#g"
       y2="1490.365"
       x2="3167.7949"
       y1="1409.9709"
       x1="3154.157"
       id="bw" />
  </defs>
  <metadata
     id="metadata9338">
    <rdf:RDF>
      <cc:Work
         rdf:about="">
        <dc:format>image/svg+xml</dc:format>
        <dc:type
           rdf:resource="http://purl.org/dc/dcmitype/StillImage" />
        <dc:title></dc:title>
      </cc:Work>
    </rdf:RDF>
  </metadata>
  <g
     transform="translate(-23.431063,-136.22397)"
     id="layer1">
    <polygon
       style="fill:url(#bw)"
       id="polygon864"
       points="3094.246,1398.456 3255.812,1418.311 3281.642,1507.989 3080.065,1509.644 3062.987,1526.022 "
       class="ck"
       transform="matrix(0.26458333,0,0,0.26458333,-718.43731,-230.4573)" />
    <polygon
       style="fill:url(#bx)"
       id="polygon866"
       points="3094.246,1398.456 3062.987,1526.022 3049.635,1544.054 3077.881,1385.882 "
       class="cl"
       transform="matrix(0.26458333,0,0,0.26458333,-718.43731,-230.4573)" />
    <polygon
       style="fill:#8543ff"
       id="polygon868"
       points="3282.692,1412.957 3077.881,1385.882 3094.246,1398.456 3255.812,1418.311 "
       class="o"
       transform="matrix(0.26458333,0,0,0.26458333,-718.43731,-230.4573)" />
    <polygon
       style="fill:url(#by)"
       id="polygon870"
       points="3281.642,1507.989 3255.812,1418.311 3282.692,1412.957 3295.358,1519.571 "
       class="cm"
       transform="matrix(0.26458333,0,0,0.26458333,-718.43731,-230.4573)" />
    <polygon
       style="fill:#574ace"
       id="polygon872"
       points="3281.642,1507.989 3080.065,1509.644 3062.987,1526.022 3049.635,1544.054 3096.224,1516.053 3293.391,1517.911 "
       class="q"
       transform="matrix(0.26458333,0,0,0.26458333,-718.43731,-230.4573)" />
    <path
       style="fill:#ffffff;stroke-width:0.26458332"
       id="path874"
       d="m 100.72592,165.55595 v -5.24166 l -1.57877,0.58208 v -0.70882 l 2.24896,-0.84455 h 0.12329 v 6.21321 z"
       class="l" />
    <path
       style="fill:#ffffff;stroke-width:0.26458332"
       id="path876"
       d="m 109.75535,161.02946 q 0.49001,0.47334 0.49028,1.44092 v 3.08531 h -0.78529 l -0.004,-3.13214 a 1.3374687,1.3374687 0 0 0 -0.27811,-0.94245 1.1924771,1.1924771 0 0 0 -0.89773,-0.29263 h -0.70882 a 1.984375,1.984375 0 0 0 -0.22304,0.58791 3.2710437,3.2710437 0 0 0 -0.0825,0.73633 v 1.68487 a 1.4951604,1.4951604 0 0 1 -0.32676,1.04405 1.2258146,1.2258146 0 0 1 -0.95065,0.35639 4.1171812,4.1171812 0 0 1 -0.48816,-0.0384 v -0.63235 a 2.3547917,2.3547917 0 0 0 0.29263,0.0169 0.68050833,0.68050833 0 0 0 0.53684,-0.19103 0.89958333,0.89958333 0 0 0 0.16775,-0.60272 v -1.57877 a 2.9897917,2.9897917 0 0 1 0.10186,-0.77021 1.7044458,1.7044458 0 0 1 0.2802,-0.6133 h -0.93795 v -0.63235 h 2.33018 q 0.99299,0 1.48352,0.4736 z"
       class="l" />
    <path
       style="fill:#ffffff;stroke-width:0.26458332"
       id="path878"
       d="m 111.89663,161.18874 h -0.58209 v -0.63236 h 1.37081 v 5.00063 h -0.78925 z"
       class="l" />
    <path
       style="fill:#ffffff;stroke-width:0.26458332"
       id="path880"
       d="m 116.28474,162.06715 a 0.860425,0.860425 0 0 0 -0.23971,-0.64293 0.89535,0.89535 0 0 0 -0.6559,-0.23575 h -1.68064 v -0.63235 h 1.70604 a 1.9663833,1.9663833 0 0 1 0.88714,0.18653 1.3094229,1.3094229 0 0 1 0.57071,0.53896 1.7033875,1.7033875 0 0 1 0.19738,0.84455 v 3.42926 h -0.78528 z"
       class="l" />
    <path
       style="fill:#ffffff;stroke-width:0.26458332"
       id="path882"
       d="m 118.72526,161.18874 h -0.58209 v -0.63236 h 1.37081 v 5.00063 h -0.78925 z"
       class="l" />
    <path
       style="fill:#ffffff;stroke-width:0.26458332"
       id="path884"
       d="m 122.00397,165.39879 a 1.762125,1.762125 0 0 1 -0.70246,-0.70432 2.1455062,2.1455062 0 0 1 -0.2503,-1.05278 v -3.08531 h 0.78528 v 3.14061 a 1.5221479,1.5221479 0 0 0 0.15055,0.69374 1.1154833,1.1154833 0 0 0 0.42333,0.46487 1.2919604,1.2919604 0 0 0 1.26471,0 1.1160125,1.1160125 0 0 0 0.42334,-0.46487 1.5253229,1.5253229 0 0 0 0.15054,-0.69374 v -1.67667 a 0.97895833,0.97895833 0 0 0 -0.18044,-0.63023 0.62044792,0.62044792 0 0 0 -0.51144,-0.22278 1.42875,1.42875 0 0 0 -0.61145,0.16113 l -0.12304,-0.52626 a 1.8933583,1.8933583 0 0 1 0.46885,-0.21431 1.6840729,1.6840729 0 0 1 0.4945,-0.0794 1.2488333,1.2488333 0 0 1 0.66834,0.17383 1.1242146,1.1242146 0 0 1 0.43286,0.50112 1.8288,1.8288 0 0 1 0.15055,0.77232 v 1.68487 a 2.1587354,2.1587354 0 0 1 -0.24818,1.05277 1.7512771,1.7512771 0 0 1 -0.69824,0.70432 2.3061083,2.3061083 0 0 1 -2.09021,0 z"
       class="l" />
    <path
       style="fill:#ffffff;stroke-width:0.26458332"
       id="path886"
       d="m 129.20831,163.37023 1.58274,2.18572 h -0.87842 l -2.22805,-3.07261 a 1.0601854,1.0601854 0 0 0 -0.45429,0.97605 v 2.09656 h -0.76385 v -1.8124 a 2.2489583,2.2489583 0 0 1 0.22066,-1.06309 1.4144625,1.4144625 0 0 1 0.68315,-0.62601 l -1.08214,-1.49807 h 0.88291 l 1.54914,2.1389 1.20517,-2.1389 h 0.88715 z"
       class="l" />
    <path
       style="fill:#ffffff;stroke-width:0.26458332"
       id="path888"
       d="m 132.36982,161.18874 h -0.91678 v -0.63236 h 1.7063 v 2.78818 h -0.78952 z"
       class="l" />
    <path
       style="fill:#ffffff;stroke-width:0.26458332"
       id="path890"
       d="m 134.09755,165.54748 0.0212,-0.61542 a 3.1575375,3.1575375 0 0 0 0.61965,0.0553 0.65537292,0.65537292 0 0 0 0.52203,-0.19949 0.91836875,0.91836875 0 0 0 0.17409,-0.61542 V 161.189 h -0.98055 v -0.63235 h 1.7698 v 3.67956 a 1.4665854,1.4665854 0 0 1 -0.33946,1.04616 1.2805833,1.2805833 0 0 1 -0.97605,0.35851 3.730625,3.730625 0 0 1 -0.81068,-0.0934 z"
       class="l" />
    <path
       style="fill:#ffffff;stroke-width:0.26458332"
       id="path892"
       d="m 138.14171,161.18874 h -0.91652 v -0.63236 h 1.7063 v 2.78818 h -0.78952 z"
       class="l" />
    <path
       style="fill:#ffffff;stroke-width:0.26458332"
       id="path894"
       d="m 140.72219,162.37698 a 1.9772312,1.9772312 0 0 1 0.19738,-0.6559 1.3932958,1.3932958 0 0 1 0.36274,-0.47308 c 0.0114,-0.008 0.0394,-0.028 0.0849,-0.0595 l -0.008,-0.0127 q -0.19103,0.0341 -0.47625,0.10822 -0.28522,0.0741 -0.52414,0.15478 l -0.1823,-0.59399 a 7.14375,7.14375 0 0 1 1.10358,-0.27596 6.607175,6.607175 0 0 1 1.12474,-0.10583 2.0790958,2.0790958 0 0 1 1.54252,0.53684 2.1608521,2.1608521 0 0 1 0.53684,1.57665 v 2.97947 h -2.05819 v -0.63235 h 1.27317 v -2.43629 a 1.508125,1.508125 0 0 0 -0.30136,-1.01414 1.0932583,1.0932583 0 0 0 -0.87312,-0.34793 0.87524167,0.87524167 0 0 0 -0.68792,0.31591 1.5478125,1.5478125 0 0 0 -0.33946,0.85963 l -0.37782,3.25438 h -0.77682 z"
       class="l" />
  </g>
</svg>
