<?xml version="1.0" encoding="UTF-8" standalone="no"?>
<svg
   xmlns:dc="http://purl.org/dc/elements/1.1/"
   xmlns:cc="http://creativecommons.org/ns#"
   xmlns:rdf="http://www.w3.org/1999/02/22-rdf-syntax-ns#"
   xmlns:svg="http://www.w3.org/2000/svg"
   xmlns="http://www.w3.org/2000/svg"
   xmlns:xlink="http://www.w3.org/1999/xlink"
   id="svg7734"
   version="1.1"
   viewBox="0 0 131.83923 64.944362"
   height="245.459"
   width="498.29001">
  <defs
     id="defs7728">
    <linearGradient
       xlink:href="#d"
       y2="811.65802"
       x2="2098.9729"
       y1="932.84998"
       x1="2116.4331"
       id="f" />
    <linearGradient
       gradientUnits="userSpaceOnUse"
       gradientTransform="translate(2092.39)"
       y2="919.03699"
       x2="1992.298"
       y1="804.00598"
       x1="1972.783"
       id="d">
      <stop
         id="stop17"
         stop-color="#574ace"
         offset="0" />
      <stop
         id="stop19"
         stop-color="#8543ff"
         offset="1" />
    </linearGradient>
    <linearGradient
       xlink:href="#d"
       y2="810.73102"
       x2="1907.83"
       y1="939.62701"
       x1="1891.397"
       id="e" />
    <linearGradient
       y2="919.03699"
       x2="1992.298"
       y1="804.00598"
       x1="1972.783"
       gradientTransform="translate(2092.39)"
       gradientUnits="userSpaceOnUse"
       id="linearGradient769"
       xlink:href="#d" />
  </defs>
  <metadata
     id="metadata7731">
    <rdf:RDF>
      <cc:Work
         rdf:about="">
        <dc:format>image/svg+xml</dc:format>
        <dc:type
           rdf:resource="http://purl.org/dc/dcmitype/StillImage" />
        <dc:title></dc:title>
      </cc:Work>
    </rdf:RDF>
  </metadata>
  <g
     transform="translate(0.60560822,-101.2421)"
     id="layer1">
    <polygon
       style="fill:url(#linearGradient769)"
       id="polygon117"
       points="4203.459,951.74 3999.075,954.308 3981.759,979.724 4013.454,781.762 4177.269,812.574 "
       class="f"
       transform="matrix(0.26458333,0,0,0.26458333,-984.61112,-100.43601)" />
    <polygon
       style="fill:url(#e)"
       id="polygon119"
       points="3968.221,1007.707 3996.861,762.248 4013.454,781.762 3981.759,979.724 "
       class="g"
       transform="matrix(0.26458333,0,0,0.26458333,-984.61112,-100.43601)" />
    <polygon
       style="fill:#8543ff"
       id="polygon121"
       points="4013.454,781.762 4177.269,812.574 4204.524,804.264 3996.861,762.248 "
       class="h"
       transform="matrix(0.26458333,0,0,0.26458333,-984.61112,-100.43601)" />
    <polygon
       style="fill:url(#f)"
       id="polygon123"
       points="4204.524,804.264 4217.366,969.714 4203.459,951.74 4177.269,812.574 "
       class="i"
       transform="matrix(0.26458333,0,0,0.26458333,-984.61112,-100.43601)" />
    <polygon
       style="fill:#574ace"
       id="polygon125"
       points="3981.759,979.724 3968.221,1007.707 4015.459,964.253 4215.372,967.137 4203.459,951.74 3999.075,954.308 "
       class="j"
       transform="matrix(0.26458333,0,0,0.26458333,-984.61112,-100.43601)" />
    <path
       style="fill:#ffffff;stroke-width:0.26458332"
       id="path317"
       d="m 78.470647,130.07243 h 4.529137 v 1.02474 h -3.571875 l -0.260614,2.41908 a 2.7566937,2.7566937 0 0 1 0.645583,-0.27278 2.9162375,2.9162375 0 0 1 0.820208,-0.10928 2.6296937,2.6296937 0 0 1 1.39753,0.36089 2.3622,2.3622 0 0 1 0.909637,1.02765 3.5983333,3.5983333 0 0 1 0.3175,1.56421 3.5425062,3.5425062 0 0 1 -0.312473,1.5248 2.3360062,2.3360062 0 0 1 -0.9398,1.03663 2.9720646,2.9720646 0 0 1 -1.54305,0.37307 3.1638875,3.1638875 0 0 1 -1.330589,-0.27279 2.3569083,2.3569083 0 0 1 -0.976048,-0.82021 2.7704521,2.7704521 0 0 1 -0.451644,-1.34937 h 1.07315 a 1.8089562,1.8089562 0 0 0 0.536575,1.14273 1.6494125,1.6494125 0 0 0 1.148821,0.39106 1.5888229,1.5888229 0 0 0 0.894291,-0.24554 1.552575,1.552575 0 0 0 0.569913,-0.69717 2.6632958,2.6632958 0 0 0 0.197114,-1.06998 2.3772812,2.3772812 0 0 0 -0.20611,-1.00938 1.61925,1.61925 0 0 0 -0.60325,-0.70009 1.7197917,1.7197917 0 0 0 -0.948796,-0.25453 2.4466021,2.4466021 0 0 0 -0.60325,0.0635 1.4152562,1.4152562 0 0 0 -0.421481,0.17886 3.9404396,3.9404396 0 0 0 -0.412221,0.3212 l -0.909373,-0.23045 z"
       class="p" />
    <path
       style="fill:#ffffff;stroke-width:0.26458332"
       id="path319"
       d="m 92.761322,132.46744 -2.619375,6.43282 h -1.206236 l 2.588948,-6.23888 h -4.189677 v -3.07393 h 1.121569 v 2.16959 h 4.304771 z"
       class="p" />
    <path
       style="fill:#ffffff;stroke-width:0.26458332"
       id="path321"
       d="m 94.646743,132.66191 h -0.830527 v -0.90355 h 1.957916 v 7.14216 h -1.127919 z"
       class="p" />
    <path
       style="fill:#ffffff;stroke-width:0.26458332"
       id="path323"
       d="m 97.36322,138.68198 0.182033,-0.84297 a 6.6410417,6.6410417 0 0 0 1.709738,0.26062 2.1844,2.1844 0 0 0 1.543049,-0.49424 1.8401771,1.8401771 0 0 0 0.52917,-1.41579 v -3.52769 h -3.716605 v -0.90355 h 4.838175 v 4.18941 q 0,1.5158 -0.80645,2.28574 -0.80645,0.76993 -2.243406,0.76993 a 7.46125,7.46125 0 0 1 -2.035704,-0.32146 z"
       class="p" />
    <path
       style="fill:#ffffff;stroke-width:0.26458332"
       id="path325"
       d="m 105.73675,137.63317 a 6.7540187,6.7540187 0 0 0 1.22476,0.38788 5.775325,5.775325 0 0 0 1.22476,0.13943 4.4979167,4.4979167 0 0 0 1.55813,-0.25162 2.3394458,2.3394458 0 0 0 1.07923,-0.76385 2.0108333,2.0108333 0 0 0 0.39397,-1.26418 v -4.12274 h 1.0914 v 4.22593 a 2.6770542,2.6770542 0 0 1 -0.54266,1.70074 3.260725,3.260725 0 0 1 -1.4642,1.03981 5.8353854,5.8353854 0 0 1 -2.06137,0.34555 8.3079167,8.3079167 0 0 1 -1.81875,-0.20929 8.2036708,8.2036708 0 0 1 -1.77667,-0.61542 v -6.48758 h 1.0914 z m 2.05555,-1.3552 a 3.6382854,3.6382854 0 0 0 0.1151,-0.96705 v -3.55283 h 1.09749 v 3.3528 a 3.4319104,3.4319104 0 0 1 -0.15161,1.07607 1.9856979,1.9856979 0 0 1 -0.46699,0.77893 l -0.93345,-0.0362 a 1.5247937,1.5247937 0 0 0 0.33893,-0.65167 z"
       class="p" />
    <path
       style="fill:#ffffff;stroke-width:0.26458332"
       id="path327"
       d="m 118.49867,135.77791 2.26139,3.12208 h -1.25492 l -3.18294,-4.3897 q -0.64875,0.4064 -0.64875,1.39462 v 2.99508 h -1.09141 v -2.58895 a 3.2160104,3.2160104 0 0 1 0.31512,-1.5187 2.0214167,2.0214167 0 0 1 0.97605,-0.8943 l -1.54596,-2.14021 h 1.261 l 2.21297,3.05567 1.72191,-3.05567 h 1.26736 z"
       class="p" />
  </g>
</svg>
