<?xml version="1.0" encoding="UTF-8" standalone="no"?>
<svg
   xmlns:dc="http://purl.org/dc/elements/1.1/"
   xmlns:cc="http://creativecommons.org/ns#"
   xmlns:rdf="http://www.w3.org/1999/02/22-rdf-syntax-ns#"
   xmlns:svg="http://www.w3.org/2000/svg"
   xmlns="http://www.w3.org/2000/svg"
   xmlns:xlink="http://www.w3.org/1999/xlink"
   id="svg5977"
   version="1.1"
   viewBox="0 0 92.944946 77.714477"
   height="293.724"
   width="351.28799">
  <defs
     id="defs5971">
    <linearGradient
       xlink:href="#bl"
       y2="498.953"
       x2="2070.1899"
       y1="498.953"
       x1="2027.311"
       id="bm" />
    <linearGradient
       gradientUnits="userSpaceOnUse"
       y2="518.16998"
       x2="2244.6731"
       y1="368.935"
       x1="2230.0161"
       id="bl">
      <stop
         style="stop-color:#d643ff;stop-opacity:1"
         id="stop87"
         stop-color="#ffde8a"
         offset="0" />
      <stop
         style="stop-color:#c700ff;stop-opacity:1"
         id="stop89"
         stop-color="#ffab50"
         offset="1" />
    </linearGradient>
    <linearGradient
       y2="518.16998"
       x2="2244.6731"
       y1="368.935"
       x1="2230.0161"
       gradientUnits="userSpaceOnUse"
       id="linearGradient584"
       xlink:href="#bl" />
    <linearGradient
       gradientUnits="userSpaceOnUse"
       y2="371.63199"
       x2="2132.7629"
       y1="492.88501"
       x1="2134.0959"
       id="bk">
      <stop
         style="stop-color:#c700ff;stop-opacity:1"
         id="stop82"
         stop-color="#ffab50"
         offset="0" />
      <stop
         style="stop-color:#c700ff;stop-opacity:1"
         id="stop84"
         stop-color="#ffab50"
         offset="1" />
    </linearGradient>
  </defs>
  <metadata
     id="metadata5974">
    <rdf:RDF>
      <cc:Work
         rdf:about="">
        <dc:format>image/svg+xml</dc:format>
        <dc:type
           rdf:resource="http://purl.org/dc/dcmitype/StillImage" />
        <dc:title></dc:title>
      </cc:Work>
    </rdf:RDF>
  </metadata>
  <g
     transform="translate(-74.303109,-20.017763)"
     id="layer1">
    <polygon
       style="fill:url(#bk)"
       id="polygon562"
       points="2070.19,607.2 2087.272,537.47 2227.179,528.585 2219.185,360.696 2040.208,383.992 "
       class="bv"
       transform="matrix(0.26458333,0,0,0.26458333,-426.96218,-70.326332)" />
    <polygon
       style="fill:#c700ff;fill-opacity:1"
       id="polygon564"
       points="2227.179,528.585 2087.272,537.47 2070.19,607.2 2070.19,635.182 2097.931,549.905 2245.834,543.242 "
       class="z"
       transform="matrix(0.26458333,0,0,0.26458333,-426.96218,-70.326332)" />
    <polygon
       style="fill:url(#linearGradient584);fill-opacity:1.0"
       id="polygon566"
       points="2245.834,341.458 2245.834,543.242 2227.179,528.585 2219.185,360.696 "
       class="bw"
       transform="matrix(0.26458333,0,0,0.26458333,-426.96218,-70.326332)" />
    <polygon
       style="fill:#d643ff;fill-opacity:1"
       id="polygon568"
       points="2027.311,362.725 2245.834,341.458 2219.185,360.696 2040.208,383.992 "
       class="bx"
       transform="matrix(0.26458333,0,0,0.26458333,-426.96218,-70.326332)" />
    <polygon
       style="fill:url(#bm)"
       id="polygon570"
       points="2040.208,383.992 2027.311,362.725 2070.19,635.182 2070.19,607.2 "
       class="by"
       transform="matrix(0.26458333,0,0,0.26458333,-426.96218,-70.326332)" />
    <path
       style="fill:#ffffff;stroke-width:0.26458332"
       id="path572"
       d="m 130.35033,32.593674 h 4.27434 v 5.35649 h -4.27434 z m 3.43323,4.674659 v -3.997061 h -2.59291 v 3.997061 z"
       class="aj" />
    <path
       style="fill:#ffffff;stroke-width:0.26458332"
       id="path574"
       d="m 139.89491,33.125751 -1.96427,4.824678 h -0.90487 l 1.94151,-4.679157 h -3.14219 v -2.305314 h 0.84137 v 1.627981 h 3.22792 z"
       class="aj" />
    <path
       style="fill:#ffffff;stroke-width:0.26458332"
       id="path576"
       d="m 141.3099,33.271272 h -0.62283 v -0.677598 h 1.4687 v 5.35649 h -0.84666 z"
       class="aj" />
    <path
       style="fill:#ffffff;stroke-width:0.26458332"
       id="path578"
       d="m 146.79762,35.608601 1.69625,2.341828 h -0.94139 l -2.38734,-3.292211 a 1.1358562,1.1358562 0 0 0 -0.48657,1.045898 v 2.246313 h -0.81862 V 36.00971 a 2.409825,2.409825 0 0 1 0.23654,-1.139031 1.5150042,1.5150042 0 0 1 0.7321,-0.670719 l -1.1594,-1.605227 h 0.94588 l 1.65974,2.291821 1.29143,-2.291821 h 0.95038 z"
       class="aj" />
    <path
       style="fill:#ffffff;stroke-width:0.26458332"
       id="path580"
       d="m 125.93285,48.95736 a 1.8888604,1.8888604 0 0 1 -0.75274,-0.754856 2.2984354,2.2984354 0 0 1 -0.26829,-1.127655 v -3.305968 h 0.84058 v 3.36497 a 1.6322146,1.6322146 0 0 0 0.1614,0.74348 1.1951229,1.1951229 0 0 0 0.45481,0.497945 1.3829771,1.3829771 0 0 0 1.35494,0 1.1959167,1.1959167 0 0 0 0.45481,-0.497945 1.6322146,1.6322146 0 0 0 0.1614,-0.74348 v -1.796256 a 1.04775,1.04775 0 0 0 -0.19315,-0.675216 0.66489792,0.66489792 0 0 0 -0.54795,-0.238125 1.5300854,1.5300854 0 0 0 -0.65484,0.172772 l -0.13229,-0.563827 a 2.0272375,2.0272375 0 0 1 0.50271,-0.229658 1.8100146,1.8100146 0 0 1 0.52916,-0.08414 1.3382625,1.3382625 0 0 1 0.71623,0.185208 1.2038542,1.2038542 0 0 1 0.46381,0.536575 1.9616208,1.9616208 0 0 1 0.1614,0.827617 v 1.805252 a 2.3132521,2.3132521 0 0 1 -0.26591,1.127654 1.8766896,1.8766896 0 0 1 -0.74797,0.754856 2.4709437,2.4709437 0 0 1 -2.23944,0 z"
       class="aj" />
    <path
       style="fill:#ffffff;stroke-width:0.26458332"
       id="path582"
       d="m 132.86519,45.387866 a 0.92207292,0.92207292 0 0 0 -0.25691,-0.687917 0.95937917,0.95937917 0 0 0 -0.70247,-0.252412 h -1.80075 v -0.677598 h 1.82801 a 2.1039667,2.1039667 0 0 1 0.95038,0.200025 1.4022917,1.4022917 0 0 1 0.61172,0.577585 1.825625,1.825625 0 0 1 0.21166,0.904875 v 3.674005 h -0.84111 z"
       class="aj" />
    <path
       style="fill:#ffffff;stroke-width:0.26458332"
       id="path584"
       d="m 135.47981,44.446479 h -0.62283 v -0.677598 h 1.4687 v 5.356489 h -0.84667 z"
       class="aj" />
    <path
       style="fill:#ffffff;stroke-width:0.26458332"
       id="path586"
       d="m 138.95511,49.139129 a 5.4345417,5.4345417 0 0 1 -0.89959,-0.227278 l 0.16378,-0.632089 a 5.5596896,5.5596896 0 0 0 0.81174,0.185208 5.0604208,5.0604208 0 0 0 0.73898,0.06138 1.6816917,1.6816917 0 0 0 1.15041,-0.377561 1.3541375,1.3541375 0 0 0 0.40455,-1.054894 v -2.645833 h -2.1463 a 2.2915562,2.2915562 0 0 0 -0.23416,0.635 3.4025417,3.4025417 0 0 0 -0.0886,0.767292 v 0.40931 a 0.89111667,0.89111667 0 0 0 0.26829,0.06377 4.2711687,4.2711687 0 0 0 0.44106,0.01826 v 0.727604 a 4.6566667,4.6566667 0 0 1 -0.88688,-0.06588 2.3725187,2.3725187 0 0 1 -0.64558,-0.238125 l -0.018,-0.691092 a 3.5028187,3.5028187 0 0 1 0.11588,-0.897996 2.2730354,2.2730354 0 0 1 0.31592,-0.725223 h -0.65035 v -0.677597 h 4.36986 v 3.164945 a 2.4971375,2.4971375 0 0 1 -0.29554,1.266296 1.8597562,1.8597562 0 0 1 -0.82021,0.763852 2.7889729,2.7889729 0 0 1 -1.22105,0.252413 5.3840062,5.3840062 0 0 1 -0.87418,-0.08176 z"
       class="aj" />
    <path
       style="fill:#ffffff;stroke-width:0.26458332"
       id="path588"
       d="m 144.84923,48.918731 a 2.1068771,2.1068771 0 0 1 -0.79798,-0.863865 2.8191354,2.8191354 0 0 1 -0.29104,-1.28905 v -0.545835 a 2.5423812,2.5423812 0 0 1 0.0976,-0.695855 2.3775458,2.3775458 0 0 1 0.27066,-0.620712 1.3671021,1.3671021 0 0 1 0.39106,-0.420688 0.238125,0.238125 0 0 1 0.0635,-0.03625 l -0.004,-0.01376 a 8.1346146,8.1346146 0 0 0 -0.95938,0.222779 l -0.16378,-0.636587 a 8.3079167,8.3079167 0 0 1 1.20042,-0.254529 8.7616771,8.7616771 0 0 1 1.23243,-0.09551 2.6492729,2.6492729 0 0 1 1.28455,0.293423 1.9894021,1.9894021 0 0 1 0.82761,0.846667 2.8074937,2.8074937 0 0 1 0.28866,1.316302 v 0.641085 a 2.8170187,2.8170187 0 0 1 -0.28178,1.28905 2.0706292,2.0706292 0 0 1 -0.79586,0.863865 2.2693312,2.2693312 0 0 1 -1.18666,0.306916 2.2399625,2.2399625 0 0 1 -1.17554,-0.307445 z m 1.92352,-0.62283 a 1.4004396,1.4004396 0 0 0 0.50271,-0.611716 2.2150917,2.2150917 0 0 0 0.17727,-0.913871 v -0.636588 a 2.2561021,2.2561021 0 0 0 -0.17965,-0.934508 1.3623396,1.3623396 0 0 0 -0.51382,-0.608542 1.4353646,1.4353646 0 0 0 -0.78423,-0.211666 1.2057062,1.2057062 0 0 0 -0.71173,0.2159 1.3980583,1.3980583 0 0 0 -0.47625,0.622829 2.5775708,2.5775708 0 0 0 -0.17965,0.957262 v 0.595578 a 2.2150917,2.2150917 0 0 0 0.17727,0.91387 1.4120812,1.4120812 0 0 0 0.49795,0.611717 1.2988396,1.2988396 0 0 0 0.74348,0.2159 1.3205354,1.3205354 0 0 0 0.74665,-0.216429 z"
       class="aj" />
    <path
       style="fill:#ffffff;stroke-width:0.26458332"
       id="path590"
       d="m 152.85923,45.765162 a 1.3758333,1.3758333 0 0 0 -0.3138,-1.007269 1.3903854,1.3903854 0 0 0 -1.00938,-0.311414 h -1.94178 v -0.677598 h 1.98252 q 1.0504,0 1.58935,0.509323 a 1.9812,1.9812 0 0 1 0.53896,1.509712 v 3.337719 h -0.84667 z m -3.2557,1.532467 a 2.7339396,2.7339396 0 0 1 0.0614,-0.652463 2.7013958,2.7013958 0 0 1 0.17515,-0.47969 h 0.69109 a 3.1855833,3.1855833 0 0 0 -0.082,0.463815 5.9110562,5.9110562 0 0 0 -0.0265,0.613833 v 1.882511 h -0.81835 z"
       class="aj" />
    <circle
       style="fill:#d12b54;stroke-width:0.26458332"
       id="circle592"
       r="9.1765432"
       cy="60.35191"
       cx="138.09125"
       class="bz" />
    <rect
       style="fill:#ffffff;stroke-width:0.26458332"
       id="rect594"
       height="5.0540705"
       width="13.023056"
       y="57.825134"
       x="131.57956"
       class="aj" />
  </g>
</svg>
