<?xml version="1.0" encoding="UTF-8" standalone="no"?>
<svg
   xmlns:dc="http://purl.org/dc/elements/1.1/"
   xmlns:cc="http://creativecommons.org/ns#"
   xmlns:rdf="http://www.w3.org/1999/02/22-rdf-syntax-ns#"
   xmlns:svg="http://www.w3.org/2000/svg"
   xmlns="http://www.w3.org/2000/svg"
   xmlns:xlink="http://www.w3.org/1999/xlink"
   id="svg4052"
   version="1.1"
   viewBox="0 0 104.8078 51.628677"
   height="195.132"
   width="396.12399">
  <defs
     id="defs4046">
    <linearGradient
       xlink:href="#a"
       y2="226.63699"
       x2="2555.762"
       y1="322.98099"
       x1="2569.6421"
       id="bh" />
    <linearGradient
       gradientUnits="userSpaceOnUse"
       gradientTransform="matrix(-1,0,0,1,5113,0)"
       y2="1232.389"
       x2="3496.207"
       y1="1163.078"
       x1="3484.449"
       id="a">
      <stop
         id="stop4"
         stop-color="#574ace"
         offset="0" />
      <stop
         id="stop6"
         stop-color="#8543ff"
         offset="1" />
    </linearGradient>
    <linearGradient
       xlink:href="#a"
       y2="225.901"
       x2="2403.8091"
       y1="328.36801"
       x1="2390.7461"
       id="bg" />
    <linearGradient
       xlink:href="#a"
       y2="312"
       x2="2470.958"
       y1="220.55499"
       x1="2455.4451"
       id="bf" />
  </defs>
  <metadata
     id="metadata4049">
    <rdf:RDF>
      <cc:Work
         rdf:about="">
        <dc:format>image/svg+xml</dc:format>
        <dc:type
           rdf:resource="http://purl.org/dc/dcmitype/StillImage" />
        <dc:title></dc:title>
      </cc:Work>
    </rdf:RDF>
  </metadata>
  <g
     transform="translate(-22.691765,-95.804711)"
     id="layer1">
    <polygon
       style="fill:url(#bf)"
       id="polygon478"
       points="2414.329,202.871 2544.557,227.366 2565.378,337.998 2402.899,340.039 2389.133,360.244 "
       class="bo"
       transform="matrix(0.26458333,0,0,0.26458333,-554.18165,46.232907)" />
    <polygon
       style="fill:url(#bg)"
       id="polygon480"
       points="2414.329,202.871 2389.133,360.244 2378.371,382.49 2401.139,187.358 "
       class="bp"
       transform="matrix(0.26458333,0,0,0.26458333,-554.18165,46.232907)" />
    <polygon
       style="fill:#8543ff"
       id="polygon482"
       points="2566.224,220.76 2401.139,187.358 2414.329,202.871 2544.557,227.366 "
       class="e"
       transform="matrix(0.26458333,0,0,0.26458333,-554.18165,46.232907)" />
    <polygon
       style="fill:url(#bh)"
       id="polygon484"
       points="2565.378,337.998 2544.557,227.366 2566.224,220.76 2576.433,352.286 "
       class="bq"
       transform="matrix(0.26458333,0,0,0.26458333,-554.18165,46.232907)" />
    <polygon
       style="fill:#574ace"
       id="polygon486"
       points="2565.378,337.998 2402.899,340.039 2389.133,360.244 2378.371,382.49 2415.924,347.945 2574.848,350.237 "
       class="g"
       transform="matrix(0.26458333,0,0,0.26458333,-554.18165,46.232907)" />
    <path
       style="fill:#ffffff;stroke-width:0.26458332"
       id="path488"
       d="m 96.255201,112.77297 -1.964531,4.82468 h -0.904875 l 1.941512,-4.67916 H 92.18538 v -2.30531 h 0.84111 v 1.62798 h 3.227917 z"
       class="aj" />
    <path
       style="fill:#ffffff;stroke-width:0.26458332"
       id="path490"
       d="m 100.52981,114.23717 a 1.3758333,1.3758333 0 0 0 -0.31406,-1.00727 1.3903854,1.3903854 0 0 0 -1.009387,-0.31141 h -1.941512 v -0.6776 h 1.982523 q 1.050396,0 1.589086,0.50932 a 1.9801417,1.9801417 0 0 1 0.53896,1.50972 v 3.33772 h -0.84667 z m -3.255963,1.53247 a 2.2791208,2.2791208 0 0 1 0.236537,-1.13215 h 0.691092 a 3.2030458,3.2030458 0 0 0 -0.08202,0.46381 5.915025,5.915025 0 0 0 -0.02646,0.61384 v 1.88251 h -0.818621 z"
       class="aj" />
    <path
       style="fill:#ffffff;stroke-width:0.26458332"
       id="path492"
       d="m 103.14416,112.91849 h -0.62283 v -0.6776 h 1.4687 v 5.35649 h -0.84667 z"
       class="aj" />
    <path
       style="fill:#ffffff;stroke-width:0.26458332"
       id="path494"
       d="m 108.63267,115.25582 1.69598,2.34183 h -0.94138 l -2.38707,-3.29221 a 1.1355917,1.1355917 0 0 0 -0.48657,1.04589 v 2.24632 h -0.81862 v -1.94178 a 2.4114125,2.4114125 0 0 1 0.23653,-1.13903 1.5155333,1.5155333 0 0 1 0.73237,-0.67072 l -1.15967,-1.60523 h 0.94589 l 1.65946,2.29182 1.29143,-2.29182 h 0.95039 z"
       class="aj" />
    <path
       style="fill:#ffffff;stroke-width:0.26458332"
       id="path496"
       d="m 80.603509,123.4161 h 2.014273 q 1.064154,0 1.5875,0.50694 0.523346,0.50694 0.527579,1.54384 v 3.30571 h -0.841375 v -3.35571 a 1.4242521,1.4242521 0 0 0 -0.300302,-1.00939 1.2842875,1.2842875 0 0 0 -0.964141,-0.31379 h -1.182159 l -0.0048,4.67915 h -0.841375 z"
       class="aj" />
    <path
       style="fill:#ffffff;stroke-width:0.26458332"
       id="path498"
       d="m 86.506893,124.0937 h -0.62283 v -0.6776 h 1.468702 v 5.35649 h -0.846666 z"
       class="aj" />
    <path
       style="fill:#ffffff;stroke-width:0.26458332"
       id="path500"
       d="m 92.621678,123.94818 -1.964531,4.82467 h -0.904875 l 1.941512,-4.67915 h -3.141927 v -2.30532 h 0.841111 v 1.62798 h 3.227916 z"
       class="aj" />
    <path
       style="fill:#ffffff;stroke-width:0.26458332"
       id="path502"
       d="m 96.50047,124.0937 h -0.982134 v -0.6776 h 1.828007 v 2.98741 h -0.846667 z"
       class="aj" />
    <path
       style="fill:#ffffff;stroke-width:0.26458332"
       id="path504"
       d="m 100.70179,128.10901 a 1.7062979,1.7062979 0 0 0 0.78687,-0.20002 1.3115396,1.3115396 0 0 0 0.52308,-0.5252 1.6404167,1.6404167 0 0 0 0.18521,-0.80248 v -2.48708 h -3.305705 v -0.6776 h 4.152105 v 3.14669 a 2.2590125,2.2590125 0 0 1 -0.28839,1.16125 1.9558,1.9558 0 0 1 -0.81836,0.76386 2.8022021,2.8022021 0 0 1 -1.23481,0.28416 z m -1.704977,-1.34593 a 2.6722917,2.6722917 0 0 1 0.06138,-0.64559 2.7252083,2.7252083 0 0 1 0.174889,-0.47625 h 0.691096 a 2.5360312,2.5360312 0 0 0 -0.08387,0.45482 q -0.02646,0.25003 -0.02514,0.61833 v 3.95156 h -0.818621 z"
       class="aj" />
    <path
       style="fill:#ffffff;stroke-width:0.26458332"
       id="path506"
       d="m 104.69435,123.4161 h 2.01427 q 1.06416,0 1.5875,0.50694 0.52335,0.50694 0.52758,1.54384 v 3.30571 h -0.84137 v -3.35571 a 1.4242521,1.4242521 0 0 0 -0.3003,-1.00939 1.2842875,1.2842875 0 0 0 -0.96415,-0.31379 h -1.18215 l -0.005,4.67915 h -0.84134 z"
       class="aj" />
    <path
       style="fill:#ffffff;stroke-width:0.26458332"
       id="path508"
       d="m 111.16077,127.82247 a 5.0590979,5.0590979 0 0 0 0.91863,0.29104 4.3314937,4.3314937 0 0 0 0.91863,0.10583 3.3744958,3.3744958 0 0 0 1.16867,-0.18864 1.7526,1.7526 0 0 0 0.80936,-0.57309 1.508125,1.508125 0 0 0 0.29554,-0.948 v -3.09351 h 0.81862 v 3.17076 a 2.0079229,2.0079229 0 0 1 -0.40693,1.27556 2.4466021,2.4466021 0 0 1 -1.09802,0.77973 4.3767375,4.3767375 0 0 1 -1.54622,0.25929 6.2288208,6.2288208 0 0 1 -1.36393,-0.1569 6.1576479,6.1576479 0 0 1 -1.33244,-0.46143 v -4.86701 h 0.81862 z m 1.54146,-1.01627 a 2.7252083,2.7252083 0 0 0 0.0865,-0.72522 v -2.66488 h 0.82285 v 2.51354 a 2.5757187,2.5757187 0 0 1 -0.11377,0.80724 1.4874875,1.4874875 0 0 1 -0.35004,0.5842 l -0.70009,-0.0265 a 1.139825,1.139825 0 0 0 0.25453,-0.48842 z"
       class="aj" />
    <path
       style="fill:#ffffff;stroke-width:0.26458332"
       id="path510"
       d="m 118.09947,125.36687 a 2.1166667,2.1166667 0 0 1 0.21166,-0.70247 1.4909271,1.4909271 0 0 1 0.38868,-0.50694 c 0.0122,-0.009 0.0423,-0.0302 0.091,-0.0638 l -0.009,-0.0138 q -0.20453,0.0365 -0.51171,0.11589 -0.30718,0.0794 -0.56144,0.16589 l -0.19553,-0.63659 a 7.6533375,7.6533375 0 0 1 1.18242,-0.29554 7.0876583,7.0876583 0 0 1 1.20491,-0.11377 2.2283208,2.2283208 0 0 1 1.65312,0.57521 q 0.57044,0.5752 0.5752,1.68936 v 3.1922 h -2.20503 v -0.6776 h 1.36419 v -2.61011 a 1.6155458,1.6155458 0 0 0 -0.32306,-1.08691 1.171575,1.171575 0 0 0 -0.93662,-0.3728 0.9382125,0.9382125 0 0 0 -0.7366,0.33867 1.6581437,1.6581437 0 0 0 -0.3638,0.92075 l -0.40455,3.48774 h -0.83238 z"
       class="aj" />
  </g>
</svg>
