<?xml version="1.0" encoding="UTF-8" standalone="no"?>
<svg
   xmlns:dc="http://purl.org/dc/elements/1.1/"
   xmlns:cc="http://creativecommons.org/ns#"
   xmlns:rdf="http://www.w3.org/1999/02/22-rdf-syntax-ns#"
   xmlns:svg="http://www.w3.org/2000/svg"
   xmlns="http://www.w3.org/2000/svg"
   xmlns:xlink="http://www.w3.org/1999/xlink"
   id="svg1428"
   version="1.1"
   viewBox="0 0 122.69999 47.647226"
   height="180.084"
   width="463.74799">
  <defs
     id="defs1422">
    <linearGradient
       xlink:href="#a"
       y2="1706.179"
       x2="2994.5061"
       y1="1795.3571"
       x1="3007.353"
       id="bb" />
    <linearGradient
       gradientUnits="userSpaceOnUse"
       gradientTransform="matrix(-1,0,0,1,5113,0)"
       y2="1232.389"
       x2="3496.207"
       y1="1163.078"
       x1="3484.449"
       id="a">
      <stop
         id="stop4"
         stop-color="#574ace"
         offset="0" />
      <stop
         id="stop6"
         stop-color="#8543ff"
         offset="1" />
    </linearGradient>
    <linearGradient
       xlink:href="#a"
       y2="1705.218"
       x2="2815.759"
       y1="1800.156"
       x1="2803.656"
       id="ba" />
    <linearGradient
       xlink:href="#a"
       y2="1786.556"
       x2="2897.158"
       y1="1698.55"
       x1="2882.229"
       id="az" />
  </defs>
  <metadata
     id="metadata1425">
    <rdf:RDF>
      <cc:Work
         rdf:about="">
        <dc:format>image/svg+xml</dc:format>
        <dc:type
           rdf:resource="http://purl.org/dc/dcmitype/StillImage" />
        <dc:title></dc:title>
      </cc:Work>
    </rdf:RDF>
  </metadata>
  <g
     transform="translate(-19.85596,-126.52162)"
     id="layer1">
    <polygon
       style="fill:url(#az)"
       id="polygon458"
       points="2828.964,1683.855 2981.424,1706.46 3005.799,1808.561 2815.582,1810.445 2799.467,1829.092 "
       class="bi"
       transform="matrix(0.26458333,0,0,0.26458333,-656.15286,-315.2103)" />
    <polygon
       style="fill:url(#ba)"
       id="polygon460"
       points="2828.964,1683.855 2799.467,1829.092 2786.868,1849.622 2813.522,1669.538 "
       class="bj"
       transform="matrix(0.26458333,0,0,0.26458333,-656.15286,-315.2103)" />
    <polygon
       style="fill:#8543ff"
       id="polygon462"
       points="3006.79,1700.364 2813.522,1669.538 2828.964,1683.855 2981.424,1706.46 "
       class="e"
       transform="matrix(0.26458333,0,0,0.26458333,-656.15286,-315.2103)" />
    <polygon
       style="fill:url(#bb)"
       id="polygon464"
       points="3005.799,1808.561 2981.424,1706.46 3006.79,1700.364 3018.742,1821.748 "
       class="bk"
       transform="matrix(0.26458333,0,0,0.26458333,-656.15286,-315.2103)" />
    <polygon
       style="fill:#574ace"
       id="polygon466"
       points="3005.799,1808.561 2815.582,1810.445 2799.467,1829.092 2786.868,1849.622 2830.831,1817.742 3016.886,1819.857 "
       class="g"
       transform="matrix(0.26458333,0,0,0.26458333,-656.15286,-315.2103)" />
    <path
       style="fill:#ffffff;stroke-width:0.26458332"
       id="path596"
       d="m 96.926178,154.43464 a 2.2754167,2.2754167 0 0 0 1.049073,-0.2667 1.7481021,1.7481021 0 0 0 0.697177,-0.70035 2.187575,2.187575 0 0 0 0.248443,-1.07024 v -3.31681 h -4.407693 v -0.90329 h 5.535612 v 4.1955 a 3.0125458,3.0125458 0 0 1 -0.384969,1.54913 2.6085271,2.6085271 0 0 1 -1.091406,1.01865 3.7359167,3.7359167 0 0 1 -1.646237,0.37888 z m -2.273565,-1.79466 a 3.5763729,3.5763729 0 0 1 0.08202,-0.86069 3.6356396,3.6356396 0 0 1 0.233362,-0.63659 h 0.921544 a 3.3747604,3.3747604 0 0 0 -0.112183,0.60642 q -0.03334,0.33338 -0.03334,0.82445 v 5.26864 H 94.65261 Z"
       class="aj" />
    <path
       style="fill:#ffffff;stroke-width:0.26458332"
       id="path598"
       d="m 107.2272,148.17778 v 0.90329 h -1.19486 v 6.23887 h -1.12792 v -6.2394 h -3.39513 v -0.90329 z"
       class="aj" />
    <path
       style="fill:#ffffff;stroke-width:0.26458332"
       id="path600"
       d="m 107.97915,155.30777 0.0302,-0.87921 a 4.530725,4.530725 0 0 0 0.88529,0.0794 0.93636042,0.93636042 0 0 0 0.7456,-0.28496 1.3107458,1.3107458 0 0 0 0.24844,-0.87921 v -4.26323 h -1.40044 v -0.90329 h 2.52836 v 5.25648 a 2.0949708,2.0949708 0 0 1 -0.48498,1.49437 1.8290646,1.8290646 0 0 1 -1.39462,0.51223 5.3369104,5.3369104 0 0 1 -1.15782,-0.13256 z"
       class="aj" />
    <path
       style="fill:#ffffff;stroke-width:0.26458332"
       id="path602"
       d="m 113.55074,149.08054 h -0.83079 v -0.90329 h 1.95792 v 7.14216 h -1.12792 z"
       class="aj" />
    <path
       style="fill:#ffffff;stroke-width:0.26458332"
       id="path604"
       d="m 118.18307,155.3382 a 7.2440271,7.2440271 0 0 1 -1.20042,-0.30322 l 0.21802,-0.84269 a 7.4054229,7.4054229 0 0 0 1.08241,0.24553 6.7418479,6.7418479 0 0 0 0.98531,0.0818 2.2412854,2.2412854 0 0 0 1.53458,-0.50271 1.8044583,1.8044583 0 0 0 0.53975,-1.40652 v -3.52981 h -2.86173 a 3.0583187,3.0583187 0 0 0 -0.31221,0.84667 4.5315187,4.5315187 0 0 0 -0.11827,1.02155 v 0.54557 a 1.1869208,1.1869208 0 0 0 0.35798,0.0849 5.6835146,5.6835146 0 0 0 0.58817,0.0243 v 0.96944 a 6.2042146,6.2042146 0 0 1 -1.18242,-0.0878 3.1612417,3.1612417 0 0 1 -0.86096,-0.3175 l -0.0243,-0.92155 a 4.6667208,4.6667208 0 0 1 0.15479,-1.1975 3.0308021,3.0308021 0 0 1 0.42148,-0.96705 h -0.86704 v -0.90329 h 5.8248 v 4.21984 a 3.3313687,3.3313687 0 0 1 -0.39396,1.68857 2.4791458,2.4791458 0 0 1 -1.09459,1.01865 3.7181896,3.7181896 0 0 1 -1.62771,0.33655 7.1765583,7.1765583 0 0 1 -1.16364,-0.10372 z"
       class="aj" />
    <path
       style="fill:#ffffff;stroke-width:0.26458332"
       id="path606"
       d="m 128.81138,150.83949 q 0,-0.92763 -0.41831,-1.34303 -0.4183,-0.41539 -1.3462,-0.41539 h -2.58868 v -0.90329 h 2.64345 q 1.40018,0 2.11905,0.67892 0.71887,0.67892 0.71834,2.01295 v 4.45029 h -1.12765 z m -4.34102,2.04311 a 3.0464125,3.0464125 0 0 1 0.31512,-1.50971 h 0.92154 a 4.2468271,4.2468271 0 0 0 -0.10927,0.61833 7.8316667,7.8316667 0 0 0 -0.0365,0.81862 v 2.5101 h -1.09114 z"
       class="aj" />
  </g>
</svg>
