<?xml version="1.0" encoding="UTF-8" standalone="no"?>
<svg
   xmlns:dc="http://purl.org/dc/elements/1.1/"
   xmlns:cc="http://creativecommons.org/ns#"
   xmlns:rdf="http://www.w3.org/1999/02/22-rdf-syntax-ns#"
   xmlns:svg="http://www.w3.org/2000/svg"
   xmlns="http://www.w3.org/2000/svg"
   xmlns:xlink="http://www.w3.org/1999/xlink"
   id="svg1614"
   version="1.1"
   viewBox="0 0 131.83923 64.944362"
   height="245.459"
   width="498.29001">
  <defs
     id="defs1608">
    <linearGradient
       xlink:href="#d"
       gradientTransform="matrix(-1,0,0,1,4408.61,0)"
       y2="614.67401"
       x2="2753.9419"
       y1="735.867"
       x1="2771.4009"
       id="u" />
    <linearGradient
       gradientUnits="userSpaceOnUse"
       gradientTransform="translate(2092.39)"
       y2="919.03699"
       x2="1992.298"
       y1="804.00598"
       x1="1972.783"
       id="d">
      <stop
         id="stop17"
         stop-color="#574ace"
         offset="0" />
      <stop
         id="stop19"
         stop-color="#8543ff"
         offset="1" />
    </linearGradient>
    <linearGradient
       xlink:href="#d"
       gradientTransform="matrix(-1,0,0,1,4408.61,0)"
       y2="613.74799"
       x2="2562.7981"
       y1="742.64301"
       x1="2546.365"
       id="t" />
    <linearGradient
       xlink:href="#d"
       gradientTransform="matrix(-1,0,0,1,4408.61,0)"
       y2="722.05298"
       x2="2647.2661"
       y1="607.02301"
       x1="2627.752"
       id="s" />
  </defs>
  <metadata
     id="metadata1611">
    <rdf:RDF>
      <cc:Work
         rdf:about="">
        <dc:format>image/svg+xml</dc:format>
        <dc:type
           rdf:resource="http://purl.org/dc/dcmitype/StillImage" />
        <dc:title></dc:title>
      </cc:Work>
    </rdf:RDF>
  </metadata>
  <g
     transform="translate(-69.849719,-92.926629)"
     id="layer1">
    <polygon
       style="fill:url(#s)"
       id="polygon215"
       points="1642.572,754.757 1846.957,757.324 1864.273,782.74 1832.578,584.778 1668.762,615.59 "
       class="z"
       transform="matrix(0.26458333,0,0,0.26458333,-361.06789,-56.632802)" />
    <polygon
       style="fill:url(#t)"
       id="polygon217"
       points="1877.81,810.723 1849.171,565.264 1832.578,584.778 1864.273,782.74 "
       class="aa"
       transform="matrix(0.26458333,0,0,0.26458333,-361.06789,-56.632802)" />
    <polygon
       style="fill:#8543ff"
       id="polygon219"
       points="1832.578,584.778 1668.762,615.59 1641.508,607.281 1849.171,565.264 "
       class="h"
       transform="matrix(0.26458333,0,0,0.26458333,-361.06789,-56.632802)" />
    <polygon
       style="fill:url(#u)"
       id="polygon221"
       points="1641.508,607.281 1628.665,772.73 1642.572,754.757 1668.762,615.59 "
       class="ab"
       transform="matrix(0.26458333,0,0,0.26458333,-361.06789,-56.632802)" />
    <polygon
       style="fill:#574ace"
       id="polygon223"
       points="1864.273,782.74 1877.81,810.723 1830.573,767.27 1630.66,770.153 1642.572,754.757 1846.957,757.324 "
       class="j"
       transform="matrix(0.26458333,0,0,0.26458333,-361.06789,-56.632802)" />
    <path
       style="fill:#ffffff;stroke-width:0.26458332"
       id="path341"
       d="m 84.816139,124.4004 q 0,-0.92736 -0.418306,-1.34302 -0.418307,-0.41566 -1.345936,-0.41513 h -2.588948 v -0.90355 h 2.643452 q 1.400704,0 2.119048,0.67892 0.718344,0.67892 0.718344,2.01295 v 4.45029 h -1.127654 z m -4.341019,2.04338 a 3.65125,3.65125 0 0 1 0.08176,-0.87021 3.6057417,3.6057417 0 0 1 0.233363,-0.6395 h 0.921544 a 4.2497375,4.2497375 0 0 0 -0.109009,0.61833 7.8329896,7.8329896 0 0 0 -0.03651,0.81862 v 2.5101 h -1.091407 z"
       class="p" />
    <path
       style="fill:#ffffff;stroke-width:0.26458332"
       id="path343"
       d="m 88.508399,122.64225 h -1.309687 v -0.90355 h 2.437341 v 3.9833 h -1.127654 z"
       class="p" />
    <path
       style="fill:#ffffff;stroke-width:0.26458332"
       id="path345"
       d="m 92.255428,122.64225 h -1.309687 v -0.90355 h 2.437342 v 3.9833 h -1.127655 z"
       class="p" />
    <path
       style="fill:#ffffff;stroke-width:0.26458332"
       id="path347"
       d="m 94.722933,128.86895 0.03016,-0.87921 a 4.530725,4.530725 0 0 0 0.885296,0.0794 0.93688958,0.93688958 0 0 0 0.74586,-0.28496 1.3125979,1.3125979 0 0 0 0.248444,-0.87921 v -4.2627 h -1.400175 v -0.90355 h 2.528358 v 5.25674 a 2.0952354,2.0952354 0 0 1 -0.484981,1.49437 1.8288,1.8288 0 0 1 -1.394619,0.5125 5.337175,5.337175 0 0 1 -1.158345,-0.13335 z"
       class="p" />
    <path
       style="fill:#ffffff;stroke-width:0.26458332"
       id="path349"
       d="m 101.04674,127.61377 a 6.746875,6.746875 0 0 0 1.22475,0.38788 5.775325,5.775325 0 0 0 1.22476,0.13943 4.4979167,4.4979167 0 0 0 1.55813,-0.25162 2.3397104,2.3397104 0 0 0 1.07924,-0.76385 2.0108333,2.0108333 0 0 0 0.39423,-1.26418 v -4.12273 h 1.0914 v 4.22592 a 2.6770542,2.6770542 0 0 1 -0.54266,1.70074 3.260725,3.260725 0 0 1 -1.4642,1.03981 5.8353854,5.8353854 0 0 1 -2.06137,0.34555 8.3113562,8.3113562 0 0 1 -1.81901,-0.20929 8.2097563,8.2097563 0 0 1 -1.776413,-0.61542 V 121.7387 H 101.047 Z m 2.05528,-1.3552 a 3.6377562,3.6377562 0 0 0 0.11536,-0.96705 v -3.55282 h 1.09723 v 3.3528 a 3.432175,3.432175 0 0 1 -0.15161,1.07606 1.984375,1.984375 0 0 1 -0.46699,0.77893 l -0.93371,-0.0362 a 1.5205604,1.5205604 0 0 0 0.33972,-0.65141 z"
       class="p" />
    <path
       style="fill:#ffffff;stroke-width:0.26458332"
       id="path351"
       d="m 117.87768,121.7387 v 0.90355 h -1.19433 v 6.23887 h -1.12766 v -6.23887 h -3.39539 v -0.90355 z"
       class="p" />
    <path
       style="fill:#ffffff;stroke-width:0.26458332"
       id="path353"
       d="m 119.90862,122.64225 h -1.30969 v -0.90355 h 2.43734 v 3.9833 h -1.12765 z"
       class="p" />
  </g>
</svg>
