<?xml version="1.0" encoding="UTF-8" standalone="no"?>
<svg
   xmlns:dc="http://purl.org/dc/elements/1.1/"
   xmlns:cc="http://creativecommons.org/ns#"
   xmlns:rdf="http://www.w3.org/1999/02/22-rdf-syntax-ns#"
   xmlns:svg="http://www.w3.org/2000/svg"
   xmlns="http://www.w3.org/2000/svg"
   xmlns:xlink="http://www.w3.org/1999/xlink"
   id="svg7102"
   version="1.1"
   viewBox="0 0 131.83923 64.944362"
   height="245.459"
   width="498.29001">
  <defs
     id="defs7096">
    <linearGradient
       xlink:href="#d"
       gradientTransform="matrix(-1,0,0,1,4408.61,0)"
       y2="789.315"
       x2="1791.0861"
       y1="910.508"
       x1="1808.546"
       id="ax" />
    <linearGradient
       gradientUnits="userSpaceOnUse"
       gradientTransform="translate(2092.39)"
       y2="919.03699"
       x2="1992.298"
       y1="804.00598"
       x1="1972.783"
       id="d">
      <stop
         style="stop-color:#c700ff;stop-opacity:1"
         id="stop17"
         stop-color="#574ace"
         offset="0" />
      <stop
         style="stop-color:#d643ff;stop-opacity:1"
         id="stop19"
         stop-color="#8543ff"
         offset="1" />
    </linearGradient>
    <linearGradient
       xlink:href="#d"
       gradientTransform="matrix(-1,0,0,1,4408.61,0)"
       y2="788.38898"
       x2="1599.942"
       y1="917.28497"
       x1="1583.509"
       id="aw" />
    <linearGradient
       xlink:href="#d"
       gradientTransform="matrix(-1,0,0,1,4408.61,0)"
       y2="896.69397"
       x2="1684.41"
       y1="781.664"
       x1="1664.896"
       id="av" />
  </defs>
  <metadata
     id="metadata7099">
    <rdf:RDF>
      <cc:Work
         rdf:about="">
        <dc:format>image/svg+xml</dc:format>
        <dc:type
           rdf:resource="http://purl.org/dc/dcmitype/StillImage" />
        <dc:title></dc:title>
      </cc:Work>
    </rdf:RDF>
  </metadata>
  <g
     transform="translate(-81.944956,-98.218296)"
     id="layer1">
    <polygon
       style="fill:url(#av)"
       id="polygon377"
       points="2605.428,929.398 2809.813,931.966 2827.129,957.381 2795.434,759.42 2631.618,790.231 "
       class="bi"
       transform="matrix(0.26458333,0,0,0.26458333,-603.7283,-97.548497)" />
    <polygon
       style="fill:url(#aw)"
       id="polygon379"
       points="2840.666,985.365 2812.027,739.906 2795.434,759.42 2827.129,957.381 "
       class="bj"
       transform="matrix(0.26458333,0,0,0.26458333,-603.7283,-97.548497)" />
    <polygon
       style="fill:#d643ff;fill-opacity:1"
       id="polygon381"
       points="2795.434,759.42 2631.618,790.231 2604.364,781.922 2812.027,739.906 "
       class="h"
       transform="matrix(0.26458333,0,0,0.26458333,-603.7283,-97.548497)" />
    <polygon
       style="fill:url(#ax)"
       id="polygon383"
       points="2604.364,781.922 2591.521,947.371 2605.428,929.398 2631.618,790.231 "
       class="bk"
       transform="matrix(0.26458333,0,0,0.26458333,-603.7283,-97.548497)" />
    <polygon
       style="fill:#c700ff;fill-opacity:1"
       id="polygon385"
       points="2827.129,957.381 2840.666,985.365 2793.428,941.911 2593.515,944.794 2605.428,929.398 2809.813,931.966 "
       class="j"
       transform="matrix(0.26458333,0,0,0.26458333,-603.7283,-97.548497)" />
    <path
       style="fill:#ffffff;stroke-width:0.26458332"
       id="path397"
       d="m 96.207853,132.11698 h -1.224492 v 2.05661 h -1.13374 v -2.05528 h -4.019549 v -0.65485 l 3.947054,-6.11769 h 1.2065 v 5.86184 h 1.224756 z m -2.358496,-0.90937 v -4.3352 l -0.132292,0.23654 -2.607204,4.09866 z"
       class="p" />
    <path
       style="fill:#ffffff;stroke-width:0.26458332"
       id="path399"
       d="m 105.49632,127.73945 -2.61938,6.43282 h -1.20676 l 2.58894,-6.23888 h -4.18941 v -3.07313 h 1.12157 v 2.16958 h 4.30477 z"
       class="p" />
    <path
       style="fill:#ffffff;stroke-width:0.26458332"
       id="path401"
       d="m 107.38174,127.93366 h -0.83053 v -0.90382 h 1.95792 v 7.14375 h -1.12792 z"
       class="p" />
    <path
       style="fill:#ffffff;stroke-width:0.26458332"
       id="path403"
       d="m 110.09821,133.95399 0.18204,-0.84297 a 6.6410417,6.6410417 0 0 0 1.70973,0.26062 2.1844,2.1844 0 0 0 1.54305,-0.49424 1.8401771,1.8401771 0 0 0 0.52917,-1.41579 v -3.52795 h -3.7166 v -0.90382 h 4.83817 v 4.18941 q 0,1.5158 -0.80645,2.28574 -0.80645,0.76994 -2.2434,0.76994 a 7.46125,7.46125 0 0 1 -2.03571,-0.32094 z"
       class="p" />
    <path
       style="fill:#ffffff;stroke-width:0.26458332"
       id="path405"
       d="m 118.47122,132.90518 a 6.7540187,6.7540187 0 0 0 1.22475,0.38788 5.775325,5.775325 0 0 0 1.22476,0.13943 4.4979167,4.4979167 0 0 0 1.55813,-0.25162 2.3394458,2.3394458 0 0 0 1.07924,-0.76385 2.0108333,2.0108333 0 0 0 0.39396,-1.26418 v -4.123 h 1.09141 v 4.22593 a 2.6770542,2.6770542 0 0 1 -0.54266,1.70074 3.260725,3.260725 0 0 1 -1.46421,1.03981 5.8353854,5.8353854 0 0 1 -2.06137,0.34555 8.3079167,8.3079167 0 0 1 -1.81874,-0.20929 8.2034062,8.2034062 0 0 1 -1.77668,-0.61542 v -6.48732 h 1.09141 z m 2.05555,-1.3552 a 3.6382854,3.6382854 0 0 0 0.11509,-0.96705 v -3.55309 h 1.09749 v 3.3528 a 3.4319104,3.4319104 0 0 1 -0.15161,1.07606 1.9856979,1.9856979 0 0 1 -0.46698,0.77893 l -0.93345,-0.0362 a 1.5247937,1.5247937 0 0 0 0.33946,-0.65113 z"
       class="p" />
    <path
       style="fill:#ffffff;stroke-width:0.26458332"
       id="path407"
       d="m 131.23392,131.04992 2.2614,3.12208 h -1.25492 l -3.18294,-4.3897 q -0.64876,0.4064 -0.64876,1.39462 v 2.99667 h -1.0914 v -2.59027 a 3.2160104,3.2160104 0 0 1 0.31512,-1.51871 2.0214167,2.0214167 0 0 1 0.97604,-0.89429 l -1.54596,-2.14021 h 1.26101 l 2.21297,3.05567 1.72191,-3.05567 h 1.26735 z"
       class="p" />
  </g>
</svg>
