<?xml version="1.0" encoding="UTF-8" standalone="no"?>
<svg
   xmlns:dc="http://purl.org/dc/elements/1.1/"
   xmlns:cc="http://creativecommons.org/ns#"
   xmlns:rdf="http://www.w3.org/1999/02/22-rdf-syntax-ns#"
   xmlns:svg="http://www.w3.org/2000/svg"
   xmlns="http://www.w3.org/2000/svg"
   xmlns:xlink="http://www.w3.org/1999/xlink"
   id="svg11263"
   version="1.1"
   viewBox="0 0 122.70104 32.136028"
   height="121.459"
   width="463.75198">
  <defs
     id="defs11257">
    <linearGradient
       xlink:href="#g"
       y2="1957.13"
       x2="3257.425"
       y1="2017.684"
       x1="3266.1489"
       id="bd" />
    <linearGradient
       gradientUnits="userSpaceOnUse"
       y2="1678.416"
       x2="1819.7371"
       y1="1613.504"
       x1="1808.725"
       id="g">
      <stop
         style="stop-color:#c700ff;stop-opacity:1"
         id="stop24"
         stop-color="#574ace"
         offset="0" />
      <stop
         style="stop-color:#d643ff;stop-opacity:1"
         id="stop26"
         stop-color="#8543ff"
         offset="1" />
    </linearGradient>
    <linearGradient
       xlink:href="#g"
       y2="1955.874"
       x2="3076.093"
       y1="2020.478"
       x1="3067.856"
       id="bc" />
    <linearGradient
       xlink:href="#g"
       y2="2013.809"
       x2="3162.344"
       y1="1948.897"
       x1="3151.332"
       id="bb" />
  </defs>
  <metadata
     id="metadata11260">
    <rdf:RDF>
      <cc:Work
         rdf:about="">
        <dc:format>image/svg+xml</dc:format>
        <dc:type
           rdf:resource="http://purl.org/dc/dcmitype/StillImage" />
        <dc:title></dc:title>
      </cc:Work>
    </rdf:RDF>
  </metadata>
  <g
     transform="translate(-19.099215,-126.71771)"
     id="layer1">
    <polygon
       style="fill:url(#bb)"
       id="polygon580"
       points="3091.849,1941.484 3244.31,1956.731 3268.685,2025.593 3078.467,2026.864 3062.351,2039.44 "
       class="bp"
       transform="matrix(0.26458333,0,0,0.26458333,-726.4638,-384.41178)" />
    <polygon
       style="fill:url(#bc)"
       id="polygon582"
       points="3091.849,1941.484 3062.351,2039.44 3049.752,2053.287 3076.406,1931.828 "
       class="bq"
       transform="matrix(0.26458333,0,0,0.26458333,-726.4638,-384.41178)" />
    <polygon
       style="fill:#d643ff;fill-opacity:1"
       id="polygon584"
       points="3269.676,1952.619 3076.406,1931.828 3091.849,1941.484 3244.31,1956.731 "
       class="o"
       transform="matrix(0.26458333,0,0,0.26458333,-726.4638,-384.41178)" />
    <polygon
       style="fill:url(#bd)"
       id="polygon586"
       points="3268.685,2025.593 3244.31,1956.731 3269.676,1952.619 3281.628,2034.487 "
       class="br"
       transform="matrix(0.26458333,0,0,0.26458333,-726.4638,-384.41178)" />
    <polygon
       style="fill:#c700ff;fill-opacity:1"
       id="polygon588"
       points="3268.685,2025.593 3078.467,2026.864 3062.351,2039.44 3049.752,2053.287 3093.715,2031.785 3279.772,2033.212 "
       class="q"
       transform="matrix(0.26458333,0,0,0.26458333,-726.4638,-384.41178)" />
    <path
       style="fill:#ffffff;stroke-width:0.26458332"
       id="path590"
       d="m 95.756688,147.26551 v -0.60034 l 2.169583,-2.41459 a 8.9791646,8.9791646 0 0 0 0.622829,-0.75697 2.3682854,2.3682854 0 0 0 0.306917,-0.55562 1.5197667,1.5197667 0 0 0 0.08863,-0.51621 1.3194771,1.3194771 0 0 0 -0.136525,-0.60245 1.0345208,1.0345208 0 0 0 -0.396875,-0.4273 1.16205,1.16205 0 0 0 -0.613833,-0.1569 1.26365,1.26365 0 0 0 -0.982134,0.3683 1.4073187,1.4073187 0 0 0 -0.336285,0.98663 h -0.850371 a 2.1380979,2.1380979 0 0 1 0.250031,-1.03188 1.8116021,1.8116021 0 0 1 0.740834,-0.73421 2.6884312,2.6884312 0 0 1 2.242079,-0.0497 1.6139583,1.6139583 0 0 1 0.691092,0.62071 1.7642417,1.7642417 0 0 1 0.24077,0.92763 2.2516042,2.2516042 0 0 1 -0.334168,1.12553 6.9093292,6.9093292 0 0 1 -0.907257,1.2028 l -1.772708,1.93146 h 3.319463 v 0.68209 z"
       class="l" />
    <path
       style="fill:#ffffff;stroke-width:0.26458332"
       id="path592"
       d="m 107.3502,142.41596 q 0.5252,0.50695 0.5252,1.54385 v 3.3057 h -0.84138 l -0.004,-3.35597 a 1.4332479,1.4332479 0 0 0 -0.29792,-1.00939 1.2771437,1.2771437 0 0 0 -0.96176,-0.31379 h -0.75935 a 2.1166667,2.1166667 0 0 0 -0.23813,0.6297 3.4951458,3.4951458 0 0 0 -0.0886,0.78899 v 1.80499 a 1.6012583,1.6012583 0 0 1 -0.3503,1.11892 1.3128625,1.3128625 0 0 1 -1.01865,0.3818 4.4714583,4.4714583 0 0 1 -0.52308,-0.0407 v -0.67787 a 2.5357667,2.5357667 0 0 0 0.31406,0.0183 0.72839792,0.72839792 0 0 0 0.5752,-0.20452 0.96414167,0.96414167 0 0 0 0.17965,-0.64558 v -1.69175 a 3.2014583,3.2014583 0 0 1 0.10928,-0.82523 1.8203333,1.8203333 0 0 1 0.30004,-0.65696 h -1.00542 v -0.67787 h 2.49635 q 1.06415,2.7e-4 1.58935,0.50747 z"
       class="l" />
    <path
       style="fill:#ffffff;stroke-width:0.26458332"
       id="path594"
       d="m 109.6444,142.5853 h -0.62283 v -0.67787 h 1.46871 v 5.35676 h -0.84667 z"
       class="l" />
    <path
       style="fill:#ffffff;stroke-width:0.26458332"
       id="path596"
       d="m 115.13292,144.92368 1.69598,2.34183 h -0.94139 l -2.38707,-3.29221 a 1.1361208,1.1361208 0 0 0 -0.48657,1.0459 v 2.24631 h -0.81862 v -1.94178 a 2.4108833,2.4108833 0 0 1 0.23654,-1.1377 1.5157979,1.5157979 0 0 1 0.73236,-0.67072 l -1.15966,-1.60523 h 0.94588 l 1.65947,2.29182 1.29143,-2.29182 h 0.95038 z"
       class="l" />
    <path
       style="fill:#ffffff;stroke-width:0.26458332"
       id="path598"
       d="m 117.561,147.25652 0.0227,-0.65935 a 3.3879896,3.3879896 0 0 0 0.66384,0.0593 0.7032625,0.7032625 0 0 0 0.55933,-0.21378 0.98425,0.98425 0 0 0 0.18653,-0.65934 v -3.19802 h -1.05066 v -0.67786 h 1.89627 v 3.94229 a 1.5705667,1.5705667 0 0 1 -0.3638,1.12078 1.3721292,1.3721292 0 0 1 -1.0459,0.38417 4.0018229,4.0018229 0 0 1 -0.86836,-0.0982 z"
       class="l" />
    <path
       style="fill:#ffffff;stroke-width:0.26458332"
       id="path600"
       d="m 125.22333,141.90876 v 0.67786 h -0.89588 v 4.67916 h -0.84666 v -4.68048 h -2.54635 v -0.67787 z"
       class="l" />
    <path
       style="fill:#ffffff;stroke-width:0.26458332"
       id="path602"
       d="m 127.37625,147.05861 a 2.1047604,2.1047604 0 0 1 -0.79825,-0.86413 2.8172833,2.8172833 0 0 1 -0.29104,-1.28905 v -0.54557 a 2.5455562,2.5455562 0 0 1 0.0976,-0.69559 2.3725187,2.3725187 0 0 1 0.2704,-0.62098 1.3694833,1.3694833 0 0 1 0.39132,-0.42042 0.23124583,0.23124583 0 0 1 0.0635,-0.0365 l -0.004,-0.0138 a 8.1227083,8.1227083 0 0 0 -0.95964,0.22278 l -0.16351,-0.63659 a 8.3058,8.3058 0 0 1 1.20041,-0.25453 8.772525,8.772525 0 0 1 1.23217,-0.0955 2.6527125,2.6527125 0 0 1 1.28455,0.29316 1.9901958,1.9901958 0 0 1 0.82762,0.84666 2.8074937,2.8074937 0 0 1 0.28866,1.31657 v 0.64109 a 2.8151667,2.8151667 0 0 1 -0.28178,1.28905 2.0693062,2.0693062 0 0 1 -0.79587,0.86413 2.2695958,2.2695958 0 0 1 -1.18666,0.30691 2.2396979,2.2396979 0 0 1 -1.17501,-0.30771 z m 1.92352,-0.62283 a 1.3999104,1.3999104 0 0 0 0.50271,-0.61172 2.2174729,2.2174729 0 0 0 0.17727,-0.91387 v -0.63659 a 2.2571604,2.2571604 0 0 0 -0.17965,-0.9345 1.3626042,1.3626042 0 0 0 -0.51382,-0.60855 1.4366875,1.4366875 0 0 0 -0.78449,-0.21166 1.2057062,1.2057062 0 0 0 -0.71147,0.2159 1.3975292,1.3975292 0 0 0 -0.47625,0.62283 2.5799521,2.5799521 0 0 0 -0.17965,0.95699 v 0.59585 a 2.2132396,2.2132396 0 0 0 0.17753,0.91387 1.4086417,1.4086417 0 0 0 0.49795,0.61171 1.2964583,1.2964583 0 0 0 0.74348,0.2159 1.3192125,1.3192125 0 0 0 0.74639,-0.21643 z"
       class="l" />
  </g>
</svg>
