<?xml version="1.0" encoding="UTF-8" standalone="no"?>
<svg
   xmlns:dc="http://purl.org/dc/elements/1.1/"
   xmlns:cc="http://creativecommons.org/ns#"
   xmlns:rdf="http://www.w3.org/1999/02/22-rdf-syntax-ns#"
   xmlns:svg="http://www.w3.org/2000/svg"
   xmlns="http://www.w3.org/2000/svg"
   xmlns:xlink="http://www.w3.org/1999/xlink"
   id="svg4558"
   version="1.1"
   viewBox="0 0 132.32659 53.036788"
   height="200.45399"
   width="500.13199">
  <defs
     id="defs4552">
    <linearGradient
       xlink:href="#g"
       gradientTransform="matrix(-1,0,0,1,3365,0)"
       y2="1502.132"
       x2="2492.9451"
       y1="1502.132"
       x1="2471.127"
       id="aj" />
    <linearGradient
       gradientUnits="userSpaceOnUse"
       gradientTransform="matrix(-1,0,0,1,4054.575,0)"
       y2="1779.193"
       x2="2783.7981"
       y1="1732.679"
       x1="2790.9209"
       id="g">
      <stop
         style="stop-color:#c700ff;stop-opacity:1"
         id="stop24"
         stop-color="#fa642e"
         offset="0" />
      <stop
         style="stop-color:#d643ff;stop-opacity:1"
         id="stop26"
         stop-color="#ffab50"
         offset="1" />
    </linearGradient>
    <linearGradient
       xlink:href="#g"
       gradientTransform="matrix(-1,0,0,1,3365,0)"
       y2="1440.855"
       x2="2699.1931"
       y1="1585.238"
       x1="2709.915"
       id="ai" />
    <linearGradient
       xlink:href="#g"
       gradientTransform="matrix(-1,0,0,1,3365,0)"
       y2="1532.767"
       x2="2594.665"
       y1="1453.192"
       x1="2606.8521"
       id="ah" />
  </defs>
  <metadata
     id="metadata4555">
    <rdf:RDF>
      <cc:Work
         rdf:about="">
        <dc:format>image/svg+xml</dc:format>
        <dc:type
           rdf:resource="http://purl.org/dc/dcmitype/StillImage" />
        <dc:title></dc:title>
      </cc:Work>
    </rdf:RDF>
  </metadata>
  <g
     transform="translate(10.798516,-117.77923)"
     id="layer1">
    <polygon
       style="fill:url(#ah)"
       id="polygon265"
       points="696.569,1548.891 881.423,1543.166 872.055,1447.268 674.711,1436.533 663.47,1584.674 "
       class="ao"
       transform="matrix(0.26458333,0,0,0.26458333,-114.97582,-258.21485)" />
    <polygon
       style="fill:#d643ff;fill-opacity:1"
       id="polygon267"
       points="872.055,1447.268 674.711,1436.533 666.961,1421.08 880.906,1436.859 "
       class="l"
       transform="matrix(0.26458333,0,0,0.26458333,-114.97582,-258.21485)" />
    <polygon
       style="fill:url(#ai)"
       id="polygon269"
       points="663.47,1584.674 643.807,1621.534 666.961,1421.08 674.711,1436.533 "
       class="ap"
       transform="matrix(0.26458333,0,0,0.26458333,-114.97582,-258.21485)" />
    <polygon
       style="fill:#c700ff;fill-opacity:1"
       id="polygon271"
       points="696.569,1548.891 663.47,1584.674 643.807,1621.534 691.965,1564.068 893.873,1567.405 881.423,1543.166 "
       class="n"
       transform="matrix(0.26458333,0,0,0.26458333,-114.97582,-258.21485)" />
    <polygon
       style="fill:url(#aj)"
       id="polygon273"
       points="893.873,1567.405 881.423,1543.166 872.055,1447.268 880.906,1436.859 "
       class="aq"
       transform="matrix(0.26458333,0,0,0.26458333,-114.97582,-258.21485)" />
    <path
       style="fill:#ffffff;stroke-width:0.26458332"
       id="path469"
       d="m 68.620406,130.1522 -1.833563,4.50321 h -0.84455 l 1.812396,-4.36721 h -2.932641 v -2.15186 h 0.785018 v 1.5195 h 3.01334 z"
       class="p" />
    <path
       style="fill:#ffffff;stroke-width:0.26458332"
       id="path471"
       d="m 69.941471,130.2882 h -0.582084 v -0.63236 h 1.370806 v 5.00063 h -0.788722 z"
       class="p" />
    <path
       style="fill:#ffffff;stroke-width:0.26458332"
       id="path473"
       d="m 71.841708,134.50248 0.127265,-0.58975 a 4.6619583,4.6619583 0 0 0 1.196975,0.18229 1.5284979,1.5284979 0 0 0 1.080029,-0.34607 1.2877271,1.2877271 0 0 0 0.370416,-0.99087 v -2.47015 h -2.600589 v -0.63235 h 3.386667 v 2.93264 q 0,1.06072 -0.564357,1.59994 a 2.181225,2.181225 0 0 1 -1.570302,0.53895 5.22605,5.22605 0 0 1 -1.426104,-0.22463 z"
       class="p" />
    <path
       style="fill:#ffffff;stroke-width:0.26458332"
       id="path475"
       d="m 77.702758,133.76826 a 4.7169917,4.7169917 0 0 0 0.85725,0.27147 4.0436271,4.0436271 0 0 0 0.85725,0.0976 3.1469542,3.1469542 0 0 0 1.090877,-0.17622 1.6377708,1.6377708 0 0 0 0.755386,-0.53472 1.4086417,1.4086417 0 0 0 0.275695,-0.88503 v -2.88581 h 0.763852 v 2.95804 a 1.8745729,1.8745729 0 0 1 -0.379941,1.19063 2.2846771,2.2846771 0 0 1 -1.024996,0.72786 4.0849021,4.0849021 0 0 1 -1.443037,0.24183 5.8115729,5.8115729 0 0 1 -1.273176,-0.14658 5.7446333,5.7446333 0 0 1 -1.243541,-0.43074 v -4.54104 h 0.763852 z m 1.438804,-0.94853 a 2.5447625,2.5447625 0 0 0 0.07937,-0.67707 v -2.48708 h 0.767292 v 2.34685 a 2.4050625,2.4050625 0 0 1 -0.105833,0.75354 1.3898562,1.3898562 0 0 1 -0.326761,0.5453 l -0.653521,-0.0265 a 1.0644187,1.0644187 0 0 0 0.239448,-0.45508 z"
       class="p" />
    <path
       style="fill:#ffffff;stroke-width:0.26458332"
       id="path477"
       d="m 86.636679,132.46889 1.583002,2.18573 H 87.341 l -2.228057,-3.07261 a 1.06045,1.06045 0 0 0 -0.454025,0.97605 v 2.09656 h -0.763852 v -1.8124 a 2.2489583,2.2489583 0 0 1 0.220663,-1.06309 1.4147271,1.4147271 0 0 1 0.683419,-0.62601 l -1.082146,-1.49807 h 0.882385 l 1.549136,2.13889 1.205441,-2.13889 h 0.887148 z"
       class="p" />
    <path
       style="fill:#ffffff;stroke-width:0.26458332"
       id="path479"
       d="m 92.799089,130.1522 -1.833562,4.50321 h -0.84455 l 1.812396,-4.36721 h -2.932642 v -2.15186 h 0.78449 v 1.5195 h 3.013339 z"
       class="p" />
    <path
       style="fill:#ffffff;stroke-width:0.26458332"
       id="path481"
       d="m 98.944566,131.51878 a 1.2832292,1.2832292 0 0 0 -0.292893,-0.94007 1.2977812,1.2977812 0 0 0 -0.942182,-0.29104 h -1.812395 v -0.63236 h 1.850495 a 2.0843875,2.0843875 0 0 1 1.483255,0.47625 1.8494375,1.8494375 0 0 1 0.502708,1.40918 v 3.11494 h -0.789517 z m -3.038739,1.43033 a 2.5582562,2.5582562 0 0 1 0.05715,-0.60854 2.5175104,2.5175104 0 0 1 0.163512,-0.44767 h 0.643732 a 2.9847646,2.9847646 0 0 0 -0.07646,0.43285 5.5094187,5.5094187 0 0 0 -0.02646,0.57309 v 1.7571 h -0.763852 z"
       class="p" />
    <path
       style="fill:#ffffff;stroke-width:0.26458332"
       id="path483"
       d="m 101.52928,130.2882 h -0.91678 v -0.63236 h 1.70603 v 2.78818 h -0.78925 z"
       class="p" />
    <path
       style="fill:#ffffff;stroke-width:0.26458332"
       id="path485"
       d="m 104.1521,130.2882 h -0.91679 v -0.63236 h 1.70604 v 2.78818 h -0.78925 z"
       class="p" />
    <path
       style="fill:#ffffff;stroke-width:0.26458332"
       id="path487"
       d="m 109.77555,130.1522 -1.83356,4.50321 h -0.84455 l 1.81239,-4.36721 h -2.93211 v -2.15186 h 0.78502 v 1.5195 h 3.01334 z"
       class="p" />
    <path
       style="fill:#ffffff;stroke-width:0.26458332"
       id="path489"
       d="m 114.35073,129.65584 v 2.99615 a 2.2301729,2.2301729 0 0 1 -0.27808,1.14802 1.7904354,1.7904354 0 0 1 -0.78105,0.71729 2.6368375,2.6368375 0 0 1 -1.16417,0.24421 4.9903062,4.9903062 0 0 1 -1.77826,-0.35243 l 0.19103,-0.58552 a 4.5862875,4.5862875 0 0 0 1.32847,0.32253 1.905,1.905 0 0 1 -0.42016,-0.84455 l -0.82762,-3.64543 h 0.78952 l 0.81042,3.68776 a 4.1140062,4.1140062 0 0 0 0.11456,0.43709 1.6425333,1.6425333 0 0 0 0.1487,0.32676 1.349375,1.349375 0 0 0 0.79587,-0.47942 1.4885458,1.4885458 0 0 0 0.28654,-0.94642 v -3.02604 z"
       class="p" />
    <path
       style="fill:#ffffff;stroke-width:0.26458332"
       id="path491"
       d="m 86.704148,142.48602 a 1.6062854,1.6062854 0 0 1 0.248179,0.87656 1.79705,1.79705 0 0 1 -0.254529,0.97208 1.654175,1.654175 0 0 1 -0.698236,0.62177 2.2775333,2.2775333 0 0 1 -1.003564,0.21458 2.3598187,2.3598187 0 0 1 -0.992982,-0.20399 1.666875,1.666875 0 0 1 -0.706702,-0.59188 1.6155458,1.6155458 0 0 1 -0.260879,-0.92313 h 0.79375 a 1.1162771,1.1162771 0 0 0 0.142346,0.56859 0.95646875,0.95646875 0 0 0 0.405342,0.37994 1.3512271,1.3512271 0 0 0 0.619654,0.13388 1.190625,1.190625 0 0 0 0.855133,-0.29289 1.1345333,1.1345333 0 0 0 0.307711,-0.86148 1.0287,1.0287 0 0 0 -0.345811,-0.84667 1.4800792,1.4800792 0 0 0 -0.961231,-0.28205 h -0.560123 v -0.63658 h 0.560123 a 1.4909271,1.4909271 0 0 0 0.668337,-0.136 0.92604167,0.92604167 0 0 0 0.409575,-0.37782 1.1072812,1.1072812 0 0 0 0.135996,-0.55166 1.1234208,1.1234208 0 0 0 -0.26961,-0.8128 1.0718271,1.0718271 0 0 0 -0.804334,-0.27781 1.2334875,1.2334875 0 0 0 -0.582083,0.13229 0.95911458,0.95911458 0 0 0 -0.390525,0.37042 1.0959042,1.0959042 0 0 0 -0.139964,0.56223 h -0.79375 a 1.6139583,1.6139583 0 0 1 0.239712,-0.86148 1.6790458,1.6790458 0 0 1 0.672571,-0.61542 2.1238104,2.1238104 0 0 1 0.992981,-0.2249 2.2725062,2.2725062 0 0 1 0.984779,0.1995 1.4687021,1.4687021 0 0 1 0.651404,0.59187 1.8457333,1.8457333 0 0 1 0.231511,0.9525 1.3184187,1.3184187 0 0 1 -0.105833,0.50086 1.5237354,1.5237354 0 0 1 -0.324909,0.48366 1.6200437,1.6200437 0 0 1 -0.541073,0.36089 1.4403917,1.4403917 0 0 1 0.817034,0.57494 z"
       class="p" />
    <path
       style="fill:#ffffff;stroke-width:0.26458332"
       id="path493"
       d="m 87.673846,142.7768 v -0.64082 h 2.075391 v 0.64082 z"
       class="p" />
    <path
       style="fill:#ffffff;stroke-width:0.26458332"
       id="path495"
       d="m 94.604606,143.64701 h -0.85725 v 1.4388 h -0.79375 v -1.43853 h -2.813844 v -0.45826 l 2.762779,-4.28255 h 0.84455 v 4.10422 h 0.85725 z m -1.651,-0.63659 v -3.0345 l -0.0934,0.16536 -1.825625,2.86914 z"
       class="p" />
  </g>
</svg>
