<?xml version="1.0" encoding="UTF-8" standalone="no"?>
<svg
   xmlns:dc="http://purl.org/dc/elements/1.1/"
   xmlns:cc="http://creativecommons.org/ns#"
   xmlns:rdf="http://www.w3.org/1999/02/22-rdf-syntax-ns#"
   xmlns:svg="http://www.w3.org/2000/svg"
   xmlns="http://www.w3.org/2000/svg"
   xmlns:xlink="http://www.w3.org/1999/xlink"
   id="svg4098"
   version="1.1"
   viewBox="0 0 122.70105 32.135763"
   height="121.458"
   width="463.75201">
  <defs
     id="defs4092">
    <linearGradient
       xlink:href="#g"
       y2="1621.738"
       x2="1914.818"
       y1="1682.291"
       x1="1923.542"
       id="i" />
    <linearGradient
       gradientUnits="userSpaceOnUse"
       y2="1678.416"
       x2="1819.7371"
       y1="1613.504"
       x1="1808.725"
       id="g">
      <stop
         id="stop24"
         stop-color="#574ace"
         offset="0" />
      <stop
         id="stop26"
         stop-color="#8543ff"
         offset="1" />
    </linearGradient>
    <linearGradient
       xlink:href="#g"
       y2="1620.481"
       x2="1733.485"
       y1="1685.085"
       x1="1725.249"
       id="h" />
    <linearGradient
       y2="1678.416"
       x2="1819.7371"
       y1="1613.504"
       x1="1808.725"
       gradientUnits="userSpaceOnUse"
       id="linearGradient1046"
       xlink:href="#g" />
  </defs>
  <metadata
     id="metadata4095">
    <rdf:RDF>
      <cc:Work
         rdf:about="">
        <dc:format>image/svg+xml</dc:format>
        <dc:type
           rdf:resource="http://purl.org/dc/dcmitype/StillImage" />
        <dc:title></dc:title>
      </cc:Work>
    </rdf:RDF>
  </metadata>
  <g
     transform="translate(-3.2242098,-132.0095)"
     id="layer1">
    <polygon
       style="fill:url(#linearGradient1046)"
       id="polygon164"
       points="1749.241,1606.092 1901.703,1621.338 1926.077,1690.2 1735.859,1691.471 1719.744,1704.047 "
       class="m"
       transform="matrix(0.26458333,0,0,0.26458333,-387.10711,-290.38085)" />
    <polygon
       style="fill:url(#h)"
       id="polygon166"
       points="1749.241,1606.092 1719.744,1704.047 1707.144,1717.894 1733.799,1596.436 "
       class="n"
       transform="matrix(0.26458333,0,0,0.26458333,-387.10711,-290.38085)" />
    <polygon
       style="fill:#8543ff"
       id="polygon168"
       points="1927.068,1617.226 1733.799,1596.436 1749.241,1606.092 1901.703,1621.338 "
       class="o"
       transform="matrix(0.26458333,0,0,0.26458333,-387.10711,-290.38085)" />
    <polygon
       style="fill:url(#i)"
       id="polygon170"
       points="1926.077,1690.2 1901.703,1621.338 1927.068,1617.226 1939.02,1699.094 "
       class="p"
       transform="matrix(0.26458333,0,0,0.26458333,-387.10711,-290.38085)" />
    <polygon
       style="fill:#574ace"
       id="polygon172"
       points="1926.077,1690.2 1735.859,1691.471 1719.744,1704.047 1707.144,1717.894 1751.108,1696.392 1937.164,1697.819 "
       class="q"
       transform="matrix(0.26458333,0,0,0.26458333,-387.10711,-290.38085)" />
    <path
       style="fill:#ffffff;stroke-width:0.26458332"
       id="path626"
       d="m 78.814619,146.72986 h -0.842698 v -0.90328 h 1.95236 v 9.66443 h -1.109662 z"
       class="l" />
    <path
       style="fill:#ffffff;stroke-width:0.26458332"
       id="path628"
       d="m 82.458725,146.72986 h -0.830791 v -0.90328 h 1.957916 v 7.14216 h -1.127654 z"
       class="l" />
    <path
       style="fill:#ffffff;stroke-width:0.26458332"
       id="path630"
       d="m 87.142115,152.74331 a 2.5175104,2.5175104 0 0 1 -1.0033,-1.00541 3.0641396,3.0641396 0 0 1 -0.357717,-1.50389 v -4.4077 h 1.121833 v 4.48654 a 2.1761979,2.1761979 0 0 0 0.215107,0.9914 1.5935854,1.5935854 0 0 0 0.606425,0.66384 1.8441458,1.8441458 0 0 0 1.806839,0 1.5943792,1.5943792 0 0 0 0.606425,-0.66384 2.1777854,2.1777854 0 0 0 0.215107,-0.9914 v -2.39501 a 1.3964708,1.3964708 0 0 0 -0.257705,-0.89958 0.88635417,0.88635417 0 0 0 -0.730514,-0.3175 2.0372917,2.0372917 0 0 0 -0.873125,0.23045 l -0.175948,-0.75194 a 2.7106562,2.7106562 0 0 1 0.669925,-0.30613 2.4159104,2.4159104 0 0 1 0.706437,-0.11218 1.78435,1.78435 0 0 1 0.954882,0.24844 1.6052271,1.6052271 0 0 1 0.618331,0.71438 2.6169937,2.6169937 0 0 1 0.215106,1.10358 v 2.4077 a 3.0855708,3.0855708 0 0 1 -0.354542,1.5039 2.5040167,2.5040167 0 0 1 -0.997479,1.00541 3.2953854,3.2953854 0 0 1 -2.986087,0 z"
       class="l" />
    <path
       style="fill:#ffffff;stroke-width:0.26458332"
       id="path632"
       d="m 93.984769,146.72986 h -1.309688 v -0.90328 h 2.437342 v 3.98356 h -1.127654 z"
       class="l" />
    <path
       style="fill:#ffffff;stroke-width:0.26458332"
       id="path634"
       d="m 102.32708,152.10831 v 0.86096 h -5.868986 v -0.90937 h 3.880376 v -3.57188 q 0,-0.92736 -0.415393,-1.34276 -0.415395,-0.4154 -1.349375,-0.4154 h -1.727993 v -0.90328 h 1.788583 q 1.400438,0 2.112958,0.67892 0.71253,0.67892 0.71226,2.01295 v 3.49832 z"
       class="l" />
    <path
       style="fill:#ffffff;stroke-width:0.26458332"
       id="path636"
       d="m 104.06725,146.72986 h -0.8308 v -0.90328 h 1.95792 v 7.14216 h -1.12765 z"
       class="l" />
    <path
       style="fill:#ffffff;stroke-width:0.26458332"
       id="path638"
       d="m 111.54278,148.48802 q 0,-0.92736 -0.4183,-1.34276 -0.41831,-0.4154 -1.34594,-0.4154 h -2.58895 v -0.90328 h 2.64346 q 1.4007,0 2.11904,0.67892 0.71835,0.67892 0.71835,2.01295 v 4.45003 h -1.12766 z m -4.34102,2.04338 a 3.6496625,3.6496625 0 0 1 0.0818,-0.86995 3.6033604,3.6033604 0 0 1 0.23337,-0.63976 h 0.92154 a 4.2518542,4.2518542 0 0 0 -0.10901,0.61859 7.8276979,7.8276979 0 0 0 -0.0365,0.81836 v 2.5101 h -1.0914 z"
       class="l" />
  </g>
</svg>
