<?xml version="1.0" encoding="UTF-8" standalone="no"?>
<svg
   xmlns:dc="http://purl.org/dc/elements/1.1/"
   xmlns:cc="http://creativecommons.org/ns#"
   xmlns:rdf="http://www.w3.org/1999/02/22-rdf-syntax-ns#"
   xmlns:svg="http://www.w3.org/2000/svg"
   xmlns="http://www.w3.org/2000/svg"
   xmlns:xlink="http://www.w3.org/1999/xlink"
   id="svg8560"
   version="1.1"
   viewBox="0 0 92.944947 77.71421"
   height="293.72299"
   width="351.28799">
  <defs
     id="defs8554">
    <linearGradient
       xlink:href="#j"
       y2="552.05402"
       x2="1524.0861"
       y1="552.05402"
       x1="1481.208"
       id="am" />
    <linearGradient
       gradientUnits="userSpaceOnUse"
       y2="963.46698"
       x2="2617.0591"
       y1="1079.265"
       x1="2618.332"
       id="j">
      <stop
         style="stop-color:#d643ff;stop-opacity:1"
         id="stop17"
         stop-color="#a1e2ff"
         offset="0" />
      <stop
         style="stop-color:#c700ff;stop-opacity:1"
         id="stop19"
         stop-color="#69b2f9"
         offset="1" />
    </linearGradient>
    <linearGradient
       xlink:href="#j"
       y2="571.271"
       x2="1698.5699"
       y1="422.03601"
       x1="1683.913"
       id="al" />
    <linearGradient
       xlink:href="#j"
       y2="424.73199"
       x2="1586.66"
       y1="545.98602"
       x1="1587.9919"
       id="ak" />
  </defs>
  <metadata
     id="metadata8557">
    <rdf:RDF>
      <cc:Work
         rdf:about="">
        <dc:format>image/svg+xml</dc:format>
        <dc:type
           rdf:resource="http://purl.org/dc/dcmitype/StillImage" />
        <dc:title></dc:title>
      </cc:Work>
    </rdf:RDF>
  </metadata>
  <g
     transform="translate(-36.505354,-92.589324)"
     id="layer1">
    <polygon
       style="fill:url(#ak)"
       id="polygon292"
       points="1524.086,660.301 1541.168,590.571 1681.076,581.686 1673.081,413.796 1494.104,437.093 "
       class="at"
       transform="matrix(0.26458333,0,0,0.26458333,-320.26992,-11.80441)" />
    <polygon
       style="fill:#c700ff;fill-opacity:1"
       id="polygon294"
       points="1681.076,581.686 1541.168,590.571 1524.086,660.301 1524.086,688.282 1551.828,603.005 1699.73,596.343 "
       class="o"
       transform="matrix(0.26458333,0,0,0.26458333,-320.26992,-11.80441)" />
    <polygon
       style="fill:url(#al)"
       id="polygon296"
       points="1699.73,394.559 1699.73,596.343 1681.076,581.686 1673.081,413.796 "
       class="au"
       transform="matrix(0.26458333,0,0,0.26458333,-320.26992,-11.80441)" />
    <polygon
       style="fill:#d643ff;fill-opacity:1"
       id="polygon298"
       points="1481.208,415.826 1699.73,394.559 1673.081,413.796 1494.104,437.093 "
       class="q"
       transform="matrix(0.26458333,0,0,0.26458333,-320.26992,-11.80441)" />
    <polygon
       style="fill:url(#am)"
       id="polygon300"
       points="1494.104,437.093 1481.208,415.826 1524.086,688.282 1524.086,660.301 "
       class="av"
       transform="matrix(0.26458333,0,0,0.26458333,-320.26992,-11.80441)" />
    <path
       style="fill:#ffffff;stroke-width:0.26458332"
       id="path1052"
       d="m 85.095561,115.21332 a 2.2754167,2.2754167 0 0 0 1.048808,-0.2667 1.7488958,1.7488958 0 0 0 0.697178,-0.70035 2.1859875,2.1859875 0 0 0 0.248708,-1.07024 v -3.31629 h -4.407958 v -0.90329 h 5.535612 v 4.1955 a 3.0128104,3.0128104 0 0 1 -0.384969,1.54914 2.6077333,2.6077333 0 0 1 -1.091406,1.01864 3.7345937,3.7345937 0 0 1 -1.645973,0.37889 z m -2.273564,-1.79467 a 3.5774312,3.5774312 0 0 1 0.08176,-0.86095 3.6456937,3.6456937 0 0 1 0.233362,-0.63659 h 0.921544 a 3.4080979,3.4080979 0 0 0 -0.112183,0.60643 q -0.03334,0.33337 -0.03334,0.82444 v 5.26865 h -1.090348 z"
       class="aj" />
    <path
       style="fill:#ffffff;stroke-width:0.26458332"
       id="path1054"
       d="m 91.773909,115.87399 a 2.5172458,2.5172458 0 0 1 -1.0033,-1.00542 3.0633458,3.0633458 0 0 1 -0.357717,-1.50363 v -4.40875 h 1.121569 v 4.48654 a 2.1756687,2.1756687 0 0 0 0.215106,0.99139 1.5951729,1.5951729 0 0 0 0.606425,0.66384 1.8441458,1.8441458 0 0 0 1.80684,0 1.5951729,1.5951729 0 0 0 0.606425,-0.66384 2.1772562,2.1772562 0 0 0 0.215106,-0.99139 v -2.39501 a 1.3972646,1.3972646 0 0 0 -0.257704,-0.89958 0.88635417,0.88635417 0 0 0 -0.730515,-0.3175 2.0399375,2.0399375 0 0 0 -0.873125,0.23045 l -0.175947,-0.75168 a 2.7024542,2.7024542 0 0 1 0.669925,-0.30612 2.413,2.413 0 0 1 0.706172,-0.11219 1.7838208,1.7838208 0 0 1 0.954882,0.24845 1.6054917,1.6054917 0 0 1 0.618331,0.71437 2.6169937,2.6169937 0 0 1 0.215106,1.10358 v 2.40771 a 3.0850417,3.0850417 0 0 1 -0.354806,1.50362 2.5024292,2.5024292 0 0 1 -0.997479,1.00542 3.2943271,3.2943271 0 0 1 -2.986088,0 z"
       class="aj" />
    <path
       style="fill:#ffffff;stroke-width:0.26458332"
       id="path1056"
       d="m 98.55518,111.55731 a 2.8265437,2.8265437 0 0 1 0.281781,-0.93663 1.9896667,1.9896667 0 0 1 0.518319,-0.67601 q 0.02434,-0.0183 0.121179,-0.0849 l -0.01217,-0.0183 q -0.272785,0.0487 -0.682096,0.15452 -0.40931,0.10583 -0.74877,0.22119 l -0.260615,-0.84878 a 10.206831,10.206831 0 0 1 1.576387,-0.39423 9.4495937,9.4495937 0 0 1 1.606555,-0.15161 q 1.44303,0 2.20398,0.76729 0.76094,0.7673 0.76729,2.2524 v 4.25609 h -2.94058 v -0.90276 h 1.81901 V 111.715 a 2.1545021,2.1545021 0 0 0 -0.43048,-1.44912 1.5626292,1.5626292 0 0 0 -1.2491,-0.49716 1.25095,1.25095 0 0 0 -0.98213,0.45165 2.2111229,2.2111229 0 0 0 -0.484982,1.22766 l -0.53975,4.65032 h -1.109133 z"
       class="aj" />
    <path
       style="fill:#ffffff;stroke-width:0.26458332"
       id="path1058"
       d="m 105.21236,116.08618 0.0302,-0.87921 a 4.5304604,4.5304604 0 0 0 0.8853,0.0794 0.93715417,0.93715417 0 0 0 0.74586,-0.28496 1.3123333,1.3123333 0 0 0 0.24844,-0.87921 v -4.26243 h -1.40044 v -0.90329 h 2.52836 v 5.25648 a 2.0944417,2.0944417 0 0 1 -0.48498,1.49463 1.8285354,1.8285354 0 0 1 -1.39462,0.51223 5.3387625,5.3387625 0 0 1 -1.15808,-0.13361 z"
       class="aj" />
    <path
       style="fill:#ffffff;stroke-width:0.26458332"
       id="path1060"
       d="m 110.99033,109.85974 h -1.30969 v -0.90329 h 2.43735 v 3.98331 h -1.12766 z"
       class="aj" />
    <path
       style="fill:#ffffff;stroke-width:0.26458332"
       id="path1062"
       d="m 115.57821,115.82266 a 2.8074937,2.8074937 0 0 1 -1.06389,-1.152 3.7589354,3.7589354 0 0 1 -0.38815,-1.71979 v -0.72761 a 3.3916937,3.3916937 0 0 1 0.13044,-0.92762 3.1697083,3.1697083 0 0 1 0.36063,-0.82762 1.825625,1.825625 0 0 1 0.52149,-0.56092 0.3175,0.3175 0 0 1 0.0849,-0.0484 l -0.006,-0.0183 a 10.839715,10.839715 0 0 0 -1.27926,0.29713 l -0.21828,-0.84878 a 11.074135,11.074135 0 0 1 1.60047,-0.33946 11.68109,11.68109 0 0 1 1.64306,-0.12727 3.5327167,3.5327167 0 0 1 1.71291,0.39106 2.6527125,2.6527125 0 0 1 1.10332,1.12765 3.7427958,3.7427958 0 0 1 0.38496,1.75525 v 0.85486 a 3.7570833,3.7570833 0 0 1 -0.3757,1.7198 2.7630437,2.7630437 0 0 1 -1.06098,1.15199 3.0265687,3.0265687 0 0 1 -1.58248,0.40931 2.9866167,2.9866167 0 0 1 -1.56765,-0.40931 z m 2.5646,-0.83053 a 1.8663708,1.8663708 0 0 0 0.66993,-0.81545 2.9532792,2.9532792 0 0 0 0.23654,-1.21867 v -0.84878 a 3.0075187,3.0075187 0 0 0 -0.23813,-1.24592 1.8163646,1.8163646 0 0 0 -0.68527,-0.81254 1.9142604,1.9142604 0 0 0 -1.0459,-0.28204 1.6076083,1.6076083 0 0 0 -0.94879,0.28813 1.8647833,1.8647833 0 0 0 -0.63659,0.83052 3.4358792,3.4358792 0 0 0 -0.23945,1.27635 v 0.79375 a 2.9532792,2.9532792 0 0 0 0.23654,1.21867 1.882775,1.882775 0 0 0 0.66384,0.81545 1.7316979,1.7316979 0 0 0 0.99139,0.28813 1.7602729,1.7602729 0 0 0 0.99457,-0.28787 z"
       class="aj" />
    <path
       style="fill:#ffffff;stroke-width:0.26458332"
       id="path1064"
       d="m 85.234732,130.13767 v 0.86096 h -5.868987 v -0.90938 h 3.880379 v -3.57187 q 0,-0.92763 -0.415396,-1.34303 -0.415396,-0.41539 -1.349375,-0.41539 h -1.727729 v -0.90329 h 1.788583 q 1.40044,0 2.112962,0.67892 0.712523,0.67892 0.712259,2.01295 v 3.49832 z"
       class="aj" />
    <path
       style="fill:#ffffff;stroke-width:0.26458332"
       id="path1066"
       d="m 87.181007,124.76002 h -1.309688 v -0.90329 h 2.437342 v 3.9833 h -1.127654 z"
       class="aj" />
    <path
       style="fill:#ffffff;stroke-width:0.26458332"
       id="path1068"
       d="m 95.52279,130.13767 v 0.86096 h -5.868987 v -0.90938 h 3.880379 v -3.57187 q 0,-0.92763 -0.415396,-1.34303 -0.415396,-0.41539 -1.349375,-0.41539 h -1.727994 v -0.90329 h 1.788584 q 1.400439,0 2.112962,0.67892 0.712523,0.67892 0.712259,2.01295 v 3.49832 z"
       class="aj" />
    <path
       style="fill:#ffffff;stroke-width:0.26458332"
       id="path1070"
       d="m 100.92029,127.87628 2.26139,3.12208 h -1.25597 l -3.183205,-4.38943 q -0.648758,0.4064 -0.648758,1.39435 v 2.99508 H 97.00234 v -2.58895 a 3.2146875,3.2146875 0 0 1 0.315384,-1.5187 2.0198292,2.0198292 0 0 1 0.976048,-0.8943 l -1.546225,-2.14021 h 1.261268 l 2.212975,3.05567 1.72191,-3.05567 h 1.26735 z"
       class="aj" />
    <path
       style="fill:#ffffff;stroke-width:0.26458332"
       id="path1072"
       d="m 112.80326,124.56581 -2.61938,6.43282 h -1.2065 l 2.58895,-6.23888 h -4.19021 v -3.07366 h 1.12157 v 2.16958 h 4.30477 z"
       class="aj" />
    <path
       style="fill:#ffffff;stroke-width:0.26458332"
       id="path1074"
       d="m 119.3845,124.53248 q 0.70009,0.67601 0.70009,2.05845 v 4.4077 h -1.12157 l -0.006,-4.47437 q 0,-0.92763 -0.39687,-1.34594 -0.39688,-0.4183 -1.28217,-0.4183 h -1.01177 a 2.8392437,2.8392437 0 0 0 -0.3175,0.83978 4.6643396,4.6643396 0 0 0 -0.11827,1.05199 v 2.40771 a 2.1359812,2.1359812 0 0 1 -0.46672,1.49145 1.7507479,1.7507479 0 0 1 -1.35811,0.50933 5.9208458,5.9208458 0 0 1 -0.69718,-0.0545 v -0.90329 a 3.3726437,3.3726437 0 0 0 0.41857,0.0243 0.97075625,0.97075625 0 0 0 0.7673,-0.27279 1.2845521,1.2845521 0 0 0 0.23944,-0.86095 v -2.25531 a 4.2764604,4.2764604 0 0 1 0.14552,-1.1004 2.4341667,2.4341667 0 0 1 0.40032,-0.87604 h -1.3417 v -0.90329 h 3.32872 q 1.41764,-0.002 2.11799,0.67443 z"
       class="aj" />
  </g>
</svg>
