<?xml version="1.0" encoding="UTF-8" standalone="no"?>
<svg
   xmlns:dc="http://purl.org/dc/elements/1.1/"
   xmlns:cc="http://creativecommons.org/ns#"
   xmlns:rdf="http://www.w3.org/1999/02/22-rdf-syntax-ns#"
   xmlns:svg="http://www.w3.org/2000/svg"
   xmlns="http://www.w3.org/2000/svg"
   xmlns:xlink="http://www.w3.org/1999/xlink"
   id="svg6632"
   version="1.1"
   viewBox="0 0 138.07122 47.647226"
   height="180.084"
   width="521.84399">
  <defs
     id="defs6626">
    <linearGradient
       xlink:href="#a"
       y2="791.05603"
       x2="2055.5569"
       y1="880.39099"
       x1="2068.427"
       id="ay" />
    <linearGradient
       gradientUnits="userSpaceOnUse"
       gradientTransform="matrix(-1,0,0,1,5113,0)"
       y2="1232.389"
       x2="3496.207"
       y1="1163.078"
       x1="3484.449"
       id="a">
      <stop
         id="stop4"
         stop-color="#574ace"
         offset="0" />
      <stop
         id="stop6"
         stop-color="#8543ff"
         offset="1" />
    </linearGradient>
    <linearGradient
       xlink:href="#a"
       y2="789.85699"
       x2="1853.453"
       y1="885.01501"
       x1="1841.321"
       id="ax" />
    <linearGradient
       xlink:href="#a"
       y2="872.37799"
       x2="1946.917"
       y1="782.23499"
       x1="1931.624"
       id="aw" />
  </defs>
  <metadata
     id="metadata6629">
    <rdf:RDF>
      <cc:Work
         rdf:about="">
        <dc:format>image/svg+xml</dc:format>
        <dc:type
           rdf:resource="http://purl.org/dc/dcmitype/StillImage" />
        <dc:title></dc:title>
      </cc:Work>
    </rdf:RDF>
  </metadata>
  <g
     transform="translate(-5.3037265,-96.283534)"
     id="layer1">
    <polygon
       style="fill:url(#aw)"
       id="polygon448"
       points="1869.294,768.501 2040.854,791.106 2068.282,893.207 1854.235,895.091 1836.101,913.738 "
       class="bf"
       transform="matrix(0.26458333,0,0,0.26458333,-407.71138,-103.26098)" />
    <polygon
       style="fill:url(#ax)"
       id="polygon450"
       points="1869.294,768.501 1836.101,913.738 1821.924,934.268 1851.917,754.184 "
       class="bg"
       transform="matrix(0.26458333,0,0,0.26458333,-407.71138,-103.26098)" />
    <polygon
       style="fill:#8543ff"
       id="polygon452"
       points="2069.397,785.01 1851.917,754.184 1869.294,768.501 2040.854,791.106 "
       class="e"
       transform="matrix(0.26458333,0,0,0.26458333,-407.71138,-103.26098)" />
    <polygon
       style="fill:url(#ay)"
       id="polygon454"
       points="2068.282,893.207 2040.854,791.106 2069.397,785.01 2082.846,906.394 "
       class="bh"
       transform="matrix(0.26458333,0,0,0.26458333,-407.71138,-103.26098)" />
    <polygon
       style="fill:#574ace"
       id="polygon456"
       points="2068.282,893.207 1854.235,895.091 1836.101,913.738 1821.924,934.268 1871.394,902.388 2080.758,904.503 "
       class="g"
       transform="matrix(0.26458333,0,0,0.26458333,-407.71138,-103.26098)" />
    <path
       style="fill:#ffffff;stroke-width:0.26458332"
       id="path512"
       d="m 104.77171,110.80863 -1.57268,3.85974 h -0.7239 l 1.55337,-3.74332 h -2.51354 v -1.84441 h 0.67283 v 1.30228 h 2.58287 z"
       class="aj" />
    <path
       style="fill:#ffffff;stroke-width:0.26458332"
       id="path514"
       d="m 108.19119,111.97994 a 1.1004021,1.1004021 0 0 0 -0.25109,-0.80565 1.11125,1.11125 0 0 0 -0.80751,-0.24924 h -1.55231 v -0.54213 h 1.58618 a 1.7856729,1.7856729 0 0 1 1.27132,0.40746 1.5845896,1.5845896 0 0 1 0.43101,1.20782 v 2.67017 h -0.67654 z m -2.60456,1.22582 a 2.1844,2.1844 0 0 1 0.0492,-0.52203 2.1505333,2.1505333 0 0 1 0.13997,-0.38364 h 0.55297 a 2.562225,2.562225 0 0 0 -0.0656,0.37042 4.6921208,4.6921208 0 0 0 -0.022,0.49106 v 1.50601 h -0.65484 z"
       class="aj" />
    <path
       style="fill:#ffffff;stroke-width:0.26458332"
       id="path516"
       d="m 110.28298,110.92505 h -0.49821 v -0.54213 h 1.17502 v 4.28625 h -0.67681 z"
       class="aj" />
    <path
       style="fill:#ffffff;stroke-width:0.26458332"
       id="path518"
       d="m 114.67374,112.79486 1.35679,1.87351 h -0.75301 l -1.90976,-2.63366 a 0.90857917,0.90857917 0 0 0 -0.3892,0.83661 v 1.79705 h -0.65484 v -1.5531 a 1.9290771,1.9290771 0 0 1 0.18917,-0.91123 1.2123208,1.2123208 0 0 1 0.58553,-0.53657 l -0.92763,-1.28402 h 0.7567 l 1.32795,1.83329 1.03187,-1.83329 h 0.76042 z"
       class="aj" />
    <path
       style="fill:#ffffff;stroke-width:0.26458332"
       id="path520"
       d="m 83.983401,119.32319 h 3.420004 v 4.28625 H 83.98393 Z m 2.746639,3.73962 v -3.19749 H 84.6565 v 3.19828 z"
       class="aj" />
    <path
       style="fill:#ffffff;stroke-width:0.26458332"
       id="path522"
       d="m 89.047261,119.86532 h -0.785813 v -0.54213 H 89.7238 v 2.39104 h -0.676539 z"
       class="aj" />
    <path
       style="fill:#ffffff;stroke-width:0.26458332"
       id="path524"
       d="m 93.958192,119.32319 v 0.54213 H 93.2417 v 3.74332 h -0.676539 v -3.74332 h -2.037292 v -0.54213 z"
       class="aj" />
    <path
       style="fill:#ffffff;stroke-width:0.26458332"
       id="path526"
       d="M 95.176863,119.86532 H 94.39105 v -0.54213 h 1.462353 v 2.39104 h -0.67654 z"
       class="aj" />
    <path
       style="fill:#ffffff;stroke-width:0.26458332"
       id="path528"
       d="m 98.53813,123.07736 a 1.3647208,1.3647208 0 0 0 0.629179,-0.15875 1.0493375,1.0493375 0 0 0 0.418571,-0.42016 1.3125979,1.3125979 0 0 0 0.14896,-0.64214 v -1.98993 h -2.645833 v -0.54213 h 3.321313 v 2.51724 a 1.8081625,1.8081625 0 0 1 -0.23098,0.92948 1.5644812,1.5644812 0 0 1 -0.654844,0.61119 2.2402271,2.2402271 0 0 1 -0.987689,0.22728 z m -1.364192,-1.07685 a 2.1476229,2.1476229 0 0 1 0.04921,-0.51647 2.1804312,2.1804312 0 0 1 0.139965,-0.38206 h 0.552979 a 2.0447,2.0447 0 0 0 -0.0672,0.3638 q -0.01984,0.20003 -0.02011,0.49478 v 3.16124 h -0.654844 z"
       class="aj" />
    <path
       style="fill:#ffffff;stroke-width:0.26458332"
       id="path530"
       d="m 102.51429,123.61923 a 4.3489562,4.3489562 0 0 1 -0.72046,-0.18177 l 0.13229,-0.50562 a 4.445,4.445 0 0 0 0.64929,0.14737 4.0462729,4.0462729 0 0 0 0.59108,0.0492 1.3456708,1.3456708 0 0 0 0.92048,-0.30189 1.0829396,1.0829396 0 0 0 0.32385,-0.84402 v -2.11666 h -1.71714 a 1.8303875,1.8303875 0 0 0 -0.18733,0.50747 2.7188583,2.7188583 0 0 0 -0.0709,0.61304 v 0.32729 a 0.7127875,0.7127875 0 0 0 0.21484,0.0511 3.413125,3.413125 0 0 0 0.35269,0.0145 v 0.58208 a 3.7237458,3.7237458 0 0 1 -0.70935,-0.0529 1.8957396,1.8957396 0 0 1 -0.51646,-0.19103 l -0.0145,-0.55298 a 2.7990271,2.7990271 0 0 1 0.0929,-0.71834 1.8211271,1.8211271 0 0 1 0.25294,-0.58024 h -0.52017 v -0.54213 h 3.49594 v 2.5318 a 1.9976042,1.9976042 0 0 1 -0.23654,1.01309 1.4869583,1.4869583 0 0 1 -0.65669,0.61119 2.2307021,2.2307021 0 0 1 -0.97658,0.20188 4.3050354,4.3050354 0 0 1 -0.70009,-0.0624 z"
       class="aj" />
    <path
       style="fill:#ffffff;stroke-width:0.26458332"
       id="path532"
       d="m 109.42071,119.72985 a 1.6443854,1.6443854 0 0 1 0.42016,1.23508 v 2.64583 h -0.67284 l -0.004,-2.68473 a 1.1456458,1.1456458 0 0 0 -0.23813,-0.8075 1.0210271,1.0210271 0 0 0 -0.76941,-0.25109 h -0.60854 a 1.7004771,1.7004771 0 0 0 -0.19103,0.5027 2.7987625,2.7987625 0 0 0 -0.0709,0.63104 v 1.44409 a 1.2813771,1.2813771 0 0 1 -0.28019,0.89482 1.0501312,1.0501312 0 0 1 -0.81492,0.3056 3.556,3.556 0 0 1 -0.41857,-0.0328 v -0.54213 a 2.02565,2.02565 0 0 0 0.25109,0.0145 0.58208333,0.58208333 0 0 0 0.46011,-0.16378 0.77046667,0.77046667 0 0 0 0.14367,-0.51647 v -1.35334 a 2.5693687,2.5693687 0 0 1 0.0873,-0.66146 1.4602354,1.4602354 0 0 1 0.24024,-0.52573 h -0.80407 v -0.54213 h 1.99708 a 1.7671521,1.7671521 0 0 1 1.27264,0.40746 z"
       class="aj" />
    <path
       style="fill:#ffffff;stroke-width:0.26458332"
       id="path534"
       d="m 113.22674,119.86532 h -0.78581 v -0.54213 h 1.46235 v 2.39104 h -0.67654 z"
       class="aj" />
    <path
       style="fill:#ffffff;stroke-width:0.26458332"
       id="path536"
       d="m 116.5888,123.07736 a 1.3647208,1.3647208 0 0 0 0.62918,-0.15875 1.0493375,1.0493375 0 0 0 0.41857,-0.42016 1.3125979,1.3125979 0 0 0 0.14896,-0.64214 v -1.98993 h -2.64583 v -0.54213 h 3.32131 v 2.51724 a 1.8081625,1.8081625 0 0 1 -0.23098,0.92948 1.5644812,1.5644812 0 0 1 -0.65484,0.61119 2.2402271,2.2402271 0 0 1 -0.98769,0.22728 z m -1.36419,-1.07685 a 2.1476229,2.1476229 0 0 1 0.0492,-0.51647 2.1804312,2.1804312 0 0 1 0.13996,-0.38206 h 0.55298 a 2.0447,2.0447 0 0 0 -0.0672,0.3638 q -0.0198,0.20003 -0.0201,0.49478 v 3.16124 h -0.65484 z"
       class="aj" />
    <path
       style="fill:#ffffff;stroke-width:0.26458332"
       id="path538"
       d="m 119.78285,119.32319 h 1.61158 a 1.7605375,1.7605375 0 0 1 1.27,0.4056 1.6597312,1.6597312 0 0 1 0.42201,1.23508 v 2.64583 h -0.67284 v -2.68578 a 1.1400896,1.1400896 0 0 0 -0.23998,-0.80751 1.0276417,1.0276417 0 0 0 -0.77126,-0.25109 h -0.94588 l -0.004,3.74332 h -0.67284 z"
       class="aj" />
    <path
       style="fill:#ffffff;stroke-width:0.26458332"
       id="path540"
       d="m 124.95545,122.84823 a 4.048125,4.048125 0 0 0 0.73475,0.23284 3.4631312,3.4631312 0 0 0 0.73475,0.0836 2.69875,2.69875 0 0 0 0.93477,-0.15108 1.4038792,1.4038792 0 0 0 0.6477,-0.45826 1.2070292,1.2070292 0 0 0 0.23654,-0.75856 v -2.47359 h 0.65484 v 2.5355 a 1.6062854,1.6062854 0 0 1 -0.32543,1.0205 1.9579167,1.9579167 0 0 1 -0.87842,0.62389 3.5012312,3.5012312 0 0 1 -1.23693,0.20743 4.98475,4.98475 0 0 1 -1.0914,-0.12541 4.9252187,4.9252187 0 0 1 -1.06575,-0.37042 v -3.89149 h 0.65485 z m 1.23323,-0.81306 a 2.1846646,2.1846646 0 0 0 0.0691,-0.58023 v -2.13175 h 0.65828 v 2.01083 a 2.0597812,2.0597812 0 0 1 -0.091,0.64559 1.190625,1.190625 0 0 1 -0.28019,0.46751 l -0.56013,-0.0217 a 0.91307708,0.91307708 0 0 0 0.20426,-0.39026 z"
       class="aj" />
    <path
       style="fill:#ffffff;stroke-width:0.26458332"
       id="path542"
       d="m 130.50668,120.88397 a 1.6959792,1.6959792 0 0 1 0.16933,-0.56198 1.1927417,1.1927417 0 0 1 0.31088,-0.40561 q 0.0146,-0.0109 0.0728,-0.0511 l -0.007,-0.0108 q -0.16377,0.0291 -0.40931,0.0929 -0.24553,0.0638 -0.44979,0.1323 l -0.15637,-0.50933 a 6.1258979,6.1258979 0 0 1 0.94589,-0.23653 5.6702854,5.6702854 0 0 1 0.96414,-0.091 1.7822333,1.7822333 0 0 1 1.32292,0.46011 1.8520833,1.8520833 0 0 1 0.46011,1.35149 v 2.55376 h -1.76424 v -0.54214 h 1.0914 v -2.08809 a 1.2930187,1.2930187 0 0 0 -0.25823,-0.86942 0.93768333,0.93768333 0 0 0 -0.74957,-0.29818 0.75009375,0.75009375 0 0 0 -0.58922,0.27093 1.3268854,1.3268854 0 0 0 -0.29104,0.7366 l -0.32385,2.7903 h -0.6657 z"
       class="aj" />
  </g>
</svg>
