<?xml version="1.0" encoding="UTF-8" standalone="no"?>
<svg
   xmlns:dc="http://purl.org/dc/elements/1.1/"
   xmlns:cc="http://creativecommons.org/ns#"
   xmlns:rdf="http://www.w3.org/1999/02/22-rdf-syntax-ns#"
   xmlns:svg="http://www.w3.org/2000/svg"
   xmlns="http://www.w3.org/2000/svg"
   xmlns:xlink="http://www.w3.org/1999/xlink"
   id="svg13103"
   version="1.1"
   viewBox="0 0 67.86245 34.579189"
   height="130.69299"
   width="256.48801">
  <defs
     id="defs13097">
    <linearGradient
       xlink:href="#s"
       gradientTransform="matrix(1,0,0,-1,-1581.39,13979.623)"
       y2="11647.715"
       x2="3067.99"
       y1="11587.869"
       x1="3067.0901"
       id="ap" />
    <linearGradient
       gradientUnits="userSpaceOnUse"
       gradientTransform="matrix(-1,0,0,1,4054.575,0)"
       y2="961.81897"
       x2="2373.094"
       y1="915.30499"
       x1="2380.218"
       id="s">
      <stop
         style="stop-color:#c700ff;stop-opacity:1"
         id="stop30"
         stop-color="#fa642e"
         offset="0" />
      <stop
         style="stop-color:#d643ff;stop-opacity:1"
         id="stop32"
         stop-color="#ffab50"
         offset="1" />
    </linearGradient>
    <linearGradient
       xlink:href="#s"
       gradientTransform="matrix(1,0,0,-1,-1581.39,13979.623)"
       y2="11692.722"
       x2="3182.6179"
       y1="11626.513"
       x1="3182.6179"
       id="ao" />
    <linearGradient
       xlink:href="#s"
       gradientTransform="matrix(-1,0,0,1,1825.124,0)"
       y2="2371.377"
       x2="282.32501"
       y1="2315.5149"
       x1="282.32501"
       id="an" />
  </defs>
  <metadata
     id="metadata13100">
    <rdf:RDF>
      <cc:Work
         rdf:about="">
        <dc:format>image/svg+xml</dc:format>
        <dc:type
           rdf:resource="http://purl.org/dc/dcmitype/StillImage" />
        <dc:title></dc:title>
      </cc:Work>
    </rdf:RDF>
  </metadata>
  <g
     transform="translate(-88.111764,-118.69255)"
     id="layer1">
    <polygon
       style="fill:url(#an)"
       id="polygon356"
       points="1593.685,2390.598 1598.687,2283.319 1581.713,2299.334 1486.911,2301.897 1492.478,2385.794 "
       class="aw"
       transform="matrix(0.26458333,0,0,0.26458333,-303.611,-481.07076)" />
    <polygon
       style="fill:#c700ff;fill-opacity:1"
       id="polygon358"
       points="1597.66,2397.515 1487.939,2390.453 1492.478,2385.794 1593.685,2390.598 "
       class="ab"
       transform="matrix(0.26458333,0,0,0.26458333,-303.611,-481.07076)" />
    <polygon
       style="fill:url(#ao)"
       id="polygon360"
       points="1597.66,2397.515 1593.685,2390.598 1598.687,2283.319 1608.771,2266.822 "
       class="ax"
       transform="matrix(0.26458333,0,0,0.26458333,-303.611,-481.07076)" />
    <polygon
       style="fill:#d643ff;fill-opacity:1"
       id="polygon362"
       points="1480.527,2291.048 1486.911,2301.897 1581.713,2299.334 1598.687,2283.319 1608.771,2266.822 1584.074,2292.542 "
       class="z"
       transform="matrix(0.26458333,0,0,0.26458333,-303.611,-481.07076)" />
    <polygon
       style="fill:url(#ap)"
       id="polygon364"
       points="1492.478,2385.794 1487.939,2390.453 1480.527,2291.048 1486.911,2301.897 "
       class="ay"
       transform="matrix(0.26458333,0,0,0.26458333,-303.611,-481.07076)" />
    <path
       style="fill:#ffffff;stroke-width:0.26458332"
       id="path366"
       d="m 105.36525,139.38165 a 0.78819375,0.78819375 0 0 1 0.22358,0.576 0.76226458,0.76226458 0 0 1 -0.22358,0.56832 0.84322708,0.84322708 0 0 1 -0.61753,0.21987 0.81650417,0.81650417 0 0 1 -0.61013,-0.21987 0.7762875,0.7762875 0 0 1 -0.2159,-0.56832 0.76332292,0.76332292 0 0 1 0.82603,-0.80328 0.8270875,0.8270875 0 0 1 0.61753,0.22728 z m -1.29222,-1.83409 -0.10583,-7.91978 h 1.48537 l -0.10584,7.91978 z"
       class="aj" />
    <path
       style="fill:#ffffff;stroke-width:0.26458332"
       id="path368"
       d="m 92.132648,142.81277 h -0.63209 v -0.6776 h 1.464204 v 7.24826 h -0.832379 z"
       class="aj" />
    <path
       style="fill:#ffffff;stroke-width:0.26458332"
       id="path370"
       d="m 95.02031,142.81277 h -0.982133 v -0.6776 h 1.828006 v 2.98741 h -0.846666 z"
       class="aj" />
    <path
       style="fill:#ffffff;stroke-width:0.26458332"
       id="path372"
       d="m 101.16341,142.13517 v 3.21045 a 2.3899812,2.3899812 0 0 1 -0.29766,1.23005 1.9192875,1.9192875 0 0 1 -0.83661,0.76729 2.8276021,2.8276021 0 0 1 -1.248307,0.26141 5.3445833,5.3445833 0 0 1 -1.905,-0.37756 l 0.204523,-0.62759 a 4.9059042,4.9059042 0 0 0 1.423194,0.34554 2.0394083,2.0394083 0 0 1 -0.449792,-0.90487 l -0.886619,-3.90604 h 0.846667 l 0.868627,3.95155 a 4.441825,4.441825 0 0 0 0.122767,0.46831 1.7674167,1.7674167 0 0 0 0.15875,0.35004 1.4459479,1.4459479 0 0 0 0.85275,-0.51382 1.59385,1.59385 0 0 0 0.30692,-1.01415 v -3.2422 z"
       class="aj" />
    <path
       style="fill:#ffffff;stroke-width:0.26458332"
       id="path374"
       d="m 103.21895,142.81277 h -0.98213 v -0.6776 h 1.82801 v 2.98741 h -0.84667 z"
       class="aj" />
    <path
       style="fill:#ffffff;stroke-width:0.26458332"
       id="path376"
       d="m 109.35755,142.13517 v 0.6776 h -0.89588 v 4.67915 h -0.84666 v -4.67915 h -2.54635 v -0.6776 z"
       class="aj" />
    <path
       style="fill:#ffffff;stroke-width:0.26458332"
       id="path378"
       d="m 110.72651,142.81277 h -0.62283 v -0.6776 h 1.4687 v 5.35649 h -0.84587 z"
       class="aj" />
    <path
       style="fill:#ffffff;stroke-width:0.26458332"
       id="path380"
       d="m 113.58189,144.08673 a 2.1182542,2.1182542 0 0 1 0.21167,-0.70246 1.4925146,1.4925146 0 0 1 0.38893,-0.50695 c 0.0119,-0.009 0.0423,-0.0302 0.091,-0.0635 l -0.009,-0.0138 q -0.20452,0.0365 -0.5117,0.11589 -0.30718,0.0794 -0.56145,0.1659 l -0.19552,-0.63659 a 7.6464583,7.6464583 0 0 1 1.18215,-0.29554 7.0860708,7.0860708 0 0 1 1.20518,-0.11377 2.2280562,2.2280562 0 0 1 1.65285,0.5752 q 0.57071,0.57521 0.57521,1.68937 v 3.19219 h -2.2053 v -0.67759 h 1.36419 V 144.205 a 1.6155458,1.6155458 0 0 0 -0.32279,-1.08664 1.1718396,1.1718396 0 0 0 -0.93689,-0.3728 0.93794792,0.93794792 0 0 0 -0.7366,0.33867 1.6589375,1.6589375 0 0 0 -0.36381,0.92075 l -0.40454,3.48773 h -0.83212 z"
       class="aj" />
  </g>
</svg>
