<?xml version="1.0" encoding="UTF-8" standalone="no"?>
<svg
   xmlns:dc="http://purl.org/dc/elements/1.1/"
   xmlns:cc="http://creativecommons.org/ns#"
   xmlns:rdf="http://www.w3.org/1999/02/22-rdf-syntax-ns#"
   xmlns:svg="http://www.w3.org/2000/svg"
   xmlns="http://www.w3.org/2000/svg"
   xmlns:xlink="http://www.w3.org/1999/xlink"
   id="svg4697"
   version="1.1"
   viewBox="0 0 53.601848 44.818565"
   height="44.818565mm"
   width="53.601849mm">
  <defs
     id="defs4691">
    <linearGradient
       xlink:href="#j"
       y2="1712.593"
       x2="2116.323"
       y1="1712.593"
       x1="2091.595"
       id="ad" />
    <linearGradient
       gradientUnits="userSpaceOnUse"
       y2="963.46698"
       x2="2617.0591"
       y1="1079.265"
       x1="2618.332"
       id="j">
      <stop
         id="stop17"
         stop-color="#a1e2ff"
         offset="0" />
      <stop
         id="stop19"
         stop-color="#69b2f9"
         offset="1" />
    </linearGradient>
    <linearGradient
       xlink:href="#j"
       y2="1723.675"
       x2="2216.95"
       y1="1637.61"
       x1="2208.4971"
       id="ac" />
    <linearGradient
       xlink:href="#j"
       y2="1639.165"
       x2="2152.4099"
       y1="1709.093"
       x1="2153.179"
       id="ab" />
  </defs>
  <metadata
     id="metadata4694">
    <rdf:RDF>
      <cc:Work
         rdf:about="">
        <dc:format>image/svg+xml</dc:format>
        <dc:type
           rdf:resource="http://purl.org/dc/dcmitype/StillImage" />
        <dc:title></dc:title>
      </cc:Work>
    </rdf:RDF>
  </metadata>
  <g
     transform="translate(-61.34388,-122.64429)"
     id="layer1">
    <polygon
       style="fill:url(#ab)"
       id="polygon208"
       points="2099.033,1646.293 2116.323,1775.02 2126.175,1734.806 2206.861,1729.682 2202.251,1632.858 "
       class="ak"
       transform="matrix(0.26458333,0,0,0.26458333,-471.79929,-306.44743)" />
    <polygon
       style="fill:#69b2f9"
       id="polygon210"
       points="2217.619,1738.135 2206.861,1729.682 2126.175,1734.806 2116.323,1775.02 2116.323,1791.157 2132.322,1741.977 "
       class="o"
       transform="matrix(0.26458333,0,0,0.26458333,-471.79929,-306.44743)" />
    <polygon
       style="fill:url(#ac)"
       id="polygon212"
       points="2202.251,1632.858 2217.619,1621.764 2217.619,1738.135 2206.861,1729.682 "
       class="al"
       transform="matrix(0.26458333,0,0,0.26458333,-471.79929,-306.44743)" />
    <polygon
       style="fill:#a1e2ff"
       id="polygon214"
       points="2099.033,1646.293 2091.595,1634.028 2217.619,1621.764 2202.251,1632.858 "
       class="q"
       transform="matrix(0.26458333,0,0,0.26458333,-471.79929,-306.44743)" />
    <polygon
       style="fill:url(#ad)"
       id="polygon216"
       points="2116.323,1775.02 2099.033,1646.293 2091.595,1634.028 2116.323,1791.157 "
       class="am"
       transform="matrix(0.26458333,0,0,0.26458333,-471.79929,-306.44743)" />
    <path
       style="fill:#ffffff;stroke-width:0.26458332"
       id="path218"
       d="m 89.626972,138.86933 a 1.7131771,1.7131771 0 0 1 0.437621,1.28641 v 2.75484 h -0.700882 l -0.0037,-2.79665 a 1.1940646,1.1940646 0 0 0 -0.248183,-0.84111 1.0638896,1.0638896 0 0 0 -0.801423,-0.26141 h -0.632883 a 1.7705917,1.7705917 0 0 0 -0.198967,0.52494 2.9104167,2.9104167 0 0 0 -0.07382,0.65749 v 1.50442 a 1.3342937,1.3342937 0 0 1 -0.291041,0.93213 1.0937875,1.0937875 0 0 1 -0.848784,0.3175 3.6980812,3.6980812 0 0 1 -0.435768,-0.0341 v -0.56463 a 2.1055542,2.1055542 0 0 0 0.261408,0.0151 0.60668958,0.60668958 0 0 0 0.479425,-0.17065 0.803275,0.803275 0 0 0 0.149754,-0.53816 v -1.4097 a 2.6693812,2.6693812 0 0 1 0.09102,-0.68792 1.5195021,1.5195021 0 0 1 0.250031,-0.54769 h -0.837671 v -0.56462 h 2.080419 a 1.8412354,1.8412354 0 0 1 1.323446,0.42386 z"
       class="aj" />
    <path
       style="fill:#ffffff;stroke-width:0.26458332"
       id="path220"
       d="m 91.538851,139.01168 h -0.519113 v -0.56462 h 1.223963 v 4.46378 h -0.70485 z"
       class="aj" />
    <path
       style="fill:#ffffff;stroke-width:0.26458332"
       id="path222"
       d="m 96.63552,138.89024 -1.636977,4.02166 H 94.24448 l 1.617927,-3.89916 h -2.619375 v -1.92114 h 0.701146 v 1.35652 h 2.690284 z"
       class="aj" />
    <path
       style="fill:#ffffff;stroke-width:0.26458332"
       id="path224"
       d="m 97.813974,139.01168 h -0.519112 v -0.56462 h 1.223962 v 4.46378 h -0.70485 z"
       class="aj" />
    <path
       style="fill:#ffffff;stroke-width:0.26458332"
       id="path226"
       d="m 99.28056,142.92963 v -0.64797 a 1.4964833,1.4964833 0 0 0 0.219868,0.0151 1.3075708,1.3075708 0 0 0 0.886622,-0.33152 1.444625,1.444625 0 0 0 0.43577,-0.8128 v -2.14101 h -1.008067 v -0.56462 h 1.701537 v 2.30399 a 3.1929917,3.1929917 0 0 0 0.072,0.6821 l 0.31088,1.4777 h -0.66384 l -0.2614,-1.25042 h -0.0265 a 1.4139333,1.4139333 0 0 1 -0.25374,0.63288 1.5441083,1.5441083 0 0 1 -0.53234,0.47175 1.4478,1.4478 0 0 1 -0.702998,0.17622 0.99430417,0.99430417 0 0 1 -0.1778,-0.0114 z"
       class="aj" />
    <path
       style="fill:#ffffff;stroke-width:0.26458332"
       id="path228"
       d="m 104.73336,139.7959 a 0.76729167,0.76729167 0 0 0 -0.21405,-0.57414 0.79957083,0.79957083 0 0 0 -0.58552,-0.21035 h -1.50046 v -0.56462 h 1.52321 a 1.7520708,1.7520708 0 0 1 0.7919,0.16669 1.1670771,1.1670771 0 0 1 0.50959,0.48128 1.5189729,1.5189729 0 0 1 0.17621,0.75406 v 3.06176 h -0.70088 z"
       class="aj" />
    <path
       style="fill:#ffffff;stroke-width:0.26458332"
       id="path230"
       d="m 107.51836,142.9209 a 4.5304604,4.5304604 0 0 1 -0.75036,-0.18944 l 0.13653,-0.52679 a 4.6317958,4.6317958 0 0 0 0.67627,0.15346 4.2171937,4.2171937 0 0 0 0.61595,0.0511 1.4022917,1.4022917 0 0 0 0.95885,-0.31459 1.1284479,1.1284479 0 0 0 0.33708,-0.87921 v -2.2053 h -1.78858 a 1.9065875,1.9065875 0 0 0 -0.19526,0.52916 2.8336875,2.8336875 0 0 0 -0.0738,0.63844 v 0.34105 a 0.74374375,0.74374375 0 0 0 0.22357,0.0529 3.5520312,3.5520312 0 0 0 0.36751,0.0151 v 0.60643 a 3.8737646,3.8737646 0 0 1 -0.73899,-0.055 1.9769667,1.9769667 0 0 1 -0.53816,-0.19897 l -0.0151,-0.576 a 2.9154437,2.9154437 0 0 1 0.0966,-0.7485 1.89865,1.89865 0 0 1 0.26458,-0.60431 h -0.5416 v -0.56462 h 3.64146 v 2.63736 a 2.0809479,2.0809479 0 0 1 -0.24632,1.05543 1.5491354,1.5491354 0 0 1 -0.68395,0.63658 2.3238354,2.3238354 0 0 1 -1.01759,0.21035 4.4796604,4.4796604 0 0 1 -0.72866,-0.0646 z"
       class="aj" />
  </g>
</svg>
