<?xml version="1.0" encoding="UTF-8" standalone="no"?>
<svg
   xmlns:dc="http://purl.org/dc/elements/1.1/"
   xmlns:cc="http://creativecommons.org/ns#"
   xmlns:rdf="http://www.w3.org/1999/02/22-rdf-syntax-ns#"
   xmlns:svg="http://www.w3.org/2000/svg"
   xmlns="http://www.w3.org/2000/svg"
   xmlns:xlink="http://www.w3.org/1999/xlink"
   id="svg3237"
   version="1.1"
   viewBox="0 0 88.764001 74.218534"
   height="280.51099"
   width="335.48599">
  <defs
     id="defs3231">
    <linearGradient
       xlink:href="#ak"
       gradientTransform="matrix(-1,0,0,1,3884.221,0)"
       y2="1451.5031"
       x2="3430.1001"
       y1="1451.5031"
       x1="3389.1499"
       id="bd" />
    <linearGradient
       gradientUnits="userSpaceOnUse"
       y2="1329.908"
       x2="1979.7581"
       y1="1445.707"
       x1="1981.03"
       id="ak">
      <stop
         style="stop-color:#d643ff;stop-opacity:1"
         id="stop58"
         stop-color="#5e91ff"
         offset="0" />
      <stop
         style="stop-color:#c700ff;stop-opacity:1"
         id="stop60"
         stop-color="#1a65d3"
         offset="1" />
    </linearGradient>
    <linearGradient
       xlink:href="#ak"
       gradientTransform="matrix(-1,0,0,1,3884.221,0)"
       y2="1469.855"
       x2="3596.7339"
       y1="1327.334"
       x1="3582.7371"
       id="bc" />
    <linearGradient
       gradientUnits="userSpaceOnUse"
       gradientTransform="matrix(-1,0,0,1,3884.221,0)"
       y2="1329.908"
       x2="3489.8589"
       y1="1445.707"
       x1="3491.1311"
       id="bb">
      <stop
         style="stop-color:#d643ff;stop-opacity:1"
         id="stop87"
         stop-color="#5e91ff"
         offset="0" />
      <stop
         style="stop-color:#c700ff;stop-opacity:1"
         id="stop89"
         stop-color="#1a65d3"
         offset="0.959" />
      <stop
         style="stop-color:#d643ff;stop-opacity:1"
         id="stop91"
         stop-color="#5e91ff"
         offset="1" />
    </linearGradient>
  </defs>
  <metadata
     id="metadata3234">
    <rdf:RDF>
      <cc:Work
         rdf:about="">
        <dc:format>image/svg+xml</dc:format>
        <dc:type
           rdf:resource="http://purl.org/dc/dcmitype/StillImage" />
        <dc:title></dc:title>
      </cc:Work>
    </rdf:RDF>
  </metadata>
  <g
     transform="translate(-66.129751,-107.9443)"
     id="layer1">
    <polygon
       style="fill:url(#bb)"
       id="polygon539"
       points="304.193,1479.802 311.829,1319.465 482.754,1341.713 454.121,1554.88 437.808,1488.287 "
       class="bo"
       transform="matrix(0.26458333,0,0,0.26458333,-9.6410941,-236.30295)" />
    <polygon
       style="fill:#c700ff;fill-opacity:1"
       id="polygon541"
       points="454.121,1554.88 454.121,1581.603 427.628,1500.162 286.378,1493.799 304.193,1479.802 437.808,1488.287 "
       class="as"
       transform="matrix(0.26458333,0,0,0.26458333,-9.6410941,-236.30295)" />
    <polygon
       style="fill:url(#bc)"
       id="polygon543"
       points="304.193,1479.802 311.829,1319.465 286.378,1301.092 286.378,1493.799 "
       class="bp"
       transform="matrix(0.26458333,0,0,0.26458333,-9.6410941,-236.30295)" />
    <polygon
       style="fill:#d643ff;fill-opacity:1"
       id="polygon545"
       points="311.829,1319.465 482.754,1341.713 495.071,1321.403 286.378,1301.092 "
       class="au"
       transform="matrix(0.26458333,0,0,0.26458333,-9.6410941,-236.30295)" />
    <polygon
       style="fill:url(#bd)"
       id="polygon547"
       points="454.121,1581.603 454.121,1554.88 482.754,1341.713 495.071,1321.403 "
       class="bq"
       transform="matrix(0.26458333,0,0,0.26458333,-9.6410941,-236.30295)" />
    <circle
       style="fill:#ffffff;stroke-width:0.26458332"
       id="circle549"
       r="3.0853064"
       cy="134.31984"
       cx="94.688354"
       class="p" />
    <rect
       style="fill:#ffffff;stroke-width:0.26458332"
       id="rect551"
       ry="1.8280063"
       rx="1.8280063"
       height="9.0670061"
       width="12.379854"
       y="137.70781"
       x="88.498421"
       class="p" />
    <rect
       style="fill:#ffffff;stroke-width:0.26458332"
       id="rect553"
       ry="0.93292081"
       rx="0.93292081"
       height="8.0531225"
       width="2.3701375"
       y="140.52246"
       x="88.456085"
       class="p" />
    <rect
       style="fill:#ffffff;stroke-width:0.26458332"
       id="rect555"
       ry="1.1406187"
       rx="1.1406187"
       height="8.7725248"
       width="2.933171"
       y="144.4502"
       x="91.603043"
       class="p" />
    <rect
       style="fill:#ffffff;stroke-width:0.26458332"
       id="rect557"
       transform="scale(-1)"
       ry="1.1406187"
       rx="1.1406187"
       height="8.7725248"
       width="2.933171"
       y="-153.22273"
       x="-97.773659"
       class="p" />
    <rect
       style="fill:#ffffff;stroke-width:0.26458332"
       id="rect559"
       transform="scale(-1)"
       ry="0.93292081"
       rx="0.93292081"
       height="8.0531225"
       width="2.3701375"
       y="-148.57556"
       x="-100.92088"
       class="p" />
    <path
       style="fill:#ffffff;stroke-width:0.26458332"
       id="path561"
       d="m 74.428408,124.01325 h 3.561821 v 4.46484 h -3.561821 z m 2.86094,3.89546 v -3.33084 h -2.160059 v 3.33084 z"
       class="p" />
    <path
       style="fill:#ffffff;stroke-width:0.26458332"
       id="path563"
       d="m 79.703406,124.57787 h -0.818621 v -0.56462 h 1.523207 v 2.48946 h -0.704586 z"
       class="p" />
    <path
       style="fill:#ffffff;stroke-width:0.26458332"
       id="path565"
       d="m 83.545156,125.36236 a 0.76729167,0.76729167 0 0 0 -0.214048,-0.57415 0.79904167,0.79904167 0 0 0 -0.585523,-0.21034 h -1.500452 v -0.56462 h 1.523206 a 1.7526,1.7526 0 0 1 0.791898,0.16669 1.1673417,1.1673417 0 0 1 0.509852,0.48127 1.5195021,1.5195021 0 0 1 0.176213,0.75407 v 3.06281 h -0.701146 z"
       class="p" />
    <path
       style="fill:#ffffff;stroke-width:0.26458332"
       id="path567"
       d="m 88.725698,127.93887 v 0.53817 h -3.667919 v -0.56833 h 2.425171 v -2.23202 a 0.94218125,0.94218125 0 0 0 -1.102519,-1.09882 h -1.080029 v -0.56462 h 1.117865 a 1.8462625,1.8462625 0 0 1 1.320535,0.42333 1.6589375,1.6589375 0 0 1 0.445294,1.2581 v 2.18651 z"
       class="p" />
    <path
       style="fill:#ffffff;stroke-width:0.26458332"
       id="path569"
       d="m 88.991075,128.49609 v -0.64797 a 1.470025,1.470025 0 0 0 0.219869,0.0154 1.3081,1.3081 0 0 0 0.886618,-0.33152 1.444625,1.444625 0 0 0 0.435769,-0.8128 v -2.14101 h -1.008592 v -0.56462 h 1.701536 v 2.30399 a 3.1816146,3.1816146 0 0 0 0.07197,0.68183 l 0.31062,1.47796 H 90.94582 l -0.261409,-1.25068 h -0.02646 a 1.4123458,1.4123458 0 0 1 -0.253735,0.63288 1.5417271,1.5417271 0 0 1 -0.532342,0.47175 1.4470062,1.4470062 0 0 1 -0.702998,0.17622 0.98239792,0.98239792 0 0 1 -0.1778,-0.0114 z"
       class="p" />
    <path
       style="fill:#ffffff;stroke-width:0.26458332"
       id="path571"
       d="m 94.869323,124.57787 h -0.820209 v -0.56462 h 1.523207 v 2.48946 h -0.702998 z"
       class="p" />
    <path
       style="fill:#ffffff;stroke-width:0.26458332"
       id="path573"
       d="m 100.01626,124.43579 a 1.7129125,1.7129125 0 0 1 0.43762,1.2864 v 2.7559 h -0.701143 l -0.0037,-2.79638 a 1.1943292,1.1943292 0 0 0 -0.248179,-0.84137 1.0633604,1.0633604 0 0 0 -0.801423,-0.26141 h -0.632883 a 1.7700625,1.7700625 0 0 0 -0.198967,0.52467 2.917825,2.917825 0 0 0 -0.07382,0.65749 v 1.50442 a 1.3348229,1.3348229 0 0 1 -0.291041,0.93213 1.0940521,1.0940521 0 0 1 -0.848784,0.3175 3.6980812,3.6980812 0 0 1 -0.435768,-0.0341 v -0.56489 a 2.0682479,2.0682479 0 0 0 0.261408,0.0153 0.60668958,0.60668958 0 0 0 0.479425,-0.17066 0.80221667,0.80221667 0 0 0 0.149754,-0.53789 v -1.4097 a 2.6749375,2.6749375 0 0 1 0.09102,-0.68792 1.5184437,1.5184437 0 0 1 0.250031,-0.54742 h -0.837677 v -0.56463 h 2.080419 a 1.8412354,1.8412354 0 0 1 1.323708,0.42254 z"
       class="p" />
    <path
       style="fill:#ffffff;stroke-width:0.26458332"
       id="path575"
       d="m 101.92788,124.57787 h -0.51912 v -0.56462 h 1.22397 v 4.46484 h -0.70485 z"
       class="p" />
    <path
       style="fill:#ffffff;stroke-width:0.26458332"
       id="path577"
       d="m 105.84609,125.36236 a 0.76729167,0.76729167 0 0 0 -0.21405,-0.57415 0.79904167,0.79904167 0 0 0 -0.58552,-0.21034 h -1.50045 v -0.56462 h 1.5232 a 1.7526,1.7526 0 0 1 0.7919,0.16669 1.1673417,1.1673417 0 0 1 0.50985,0.48127 1.5195021,1.5195021 0 0 1 0.17622,0.75407 v 3.06281 h -0.70088 z"
       class="p" />
    <path
       style="fill:#ffffff;stroke-width:0.26458332"
       id="path579"
       d="m 108.15379,124.57787 h -0.81862 v -0.56462 h 1.5232 v 2.48946 h -0.70485 z"
       class="p" />
    <path
       style="fill:#ffffff;stroke-width:0.26458332"
       id="path581"
       d="m 110.83666,127.68434 a 4.2026417,4.2026417 0 0 0 0.76544,0.24236 3.6094458,3.6094458 0 0 0 0.76544,0.0873 2.8117271,2.8117271 0 0 0 0.97393,-0.15742 1.4607646,1.4607646 0 0 0 0.67443,-0.47625 1.2570354,1.2570354 0 0 0 0.24632,-0.79005 v -2.57651 h 0.6821 v 2.64107 a 1.6737542,1.6737542 0 0 1 -0.3392,1.06309 2.0412604,2.0412604 0 0 1 -0.91519,0.64982 3.6478104,3.6478104 0 0 1 -1.28826,0.2159 5.1972104,5.1972104 0 0 1 -1.13771,-0.1307 5.1427062,5.1427062 0 0 1 -1.11125,-0.38471 v -4.05447 h 0.6821 z m 1.28455,-0.84666 a 2.2754167,2.2754167 0 0 0 0.072,-0.60431 v -2.22065 h 0.6858 v 2.0955 a 2.143125,2.143125 0 0 1 -0.0947,0.67257 1.2435417,1.2435417 0 0 1 -0.29104,0.4871 l -0.58367,-0.0227 a 0.9509125,0.9509125 0 0 0 0.21061,-0.40746 z"
       class="p" />
  </g>
</svg>
