<?xml version="1.0" encoding="UTF-8" standalone="no"?>
<svg
   xmlns:dc="http://purl.org/dc/elements/1.1/"
   xmlns:cc="http://creativecommons.org/ns#"
   xmlns:rdf="http://www.w3.org/1999/02/22-rdf-syntax-ns#"
   xmlns:svg="http://www.w3.org/2000/svg"
   xmlns="http://www.w3.org/2000/svg"
   xmlns:xlink="http://www.w3.org/1999/xlink"
   id="svg1306"
   version="1.1"
   viewBox="0 0 131.83923 64.944362"
   height="245.459"
   width="498.29001">
  <defs
     id="defs1300">
    <linearGradient
       xlink:href="#d"
       gradientTransform="matrix(-1,0,0,1,4408.61,0)"
       y2="657.12701"
       x2="3344.5471"
       y1="778.32001"
       x1="3362.0071"
       id="x" />
    <linearGradient
       gradientUnits="userSpaceOnUse"
       gradientTransform="translate(2092.39)"
       y2="919.03699"
       x2="1992.298"
       y1="804.00598"
       x1="1972.783"
       id="d">
      <stop
         id="stop17"
         stop-color="#574ace"
         offset="0" />
      <stop
         id="stop19"
         stop-color="#8543ff"
         offset="1" />
    </linearGradient>
    <linearGradient
       xlink:href="#d"
       gradientTransform="matrix(-1,0,0,1,4408.61,0)"
       y2="656.20099"
       x2="3153.4041"
       y1="785.09601"
       x1="3136.9709"
       id="w" />
    <linearGradient
       xlink:href="#d"
       gradientTransform="matrix(-1,0,0,1,4408.61,0)"
       y2="764.50598"
       x2="3237.8711"
       y1="649.47601"
       x1="3218.3569"
       id="v" />
  </defs>
  <metadata
     id="metadata1303">
    <rdf:RDF>
      <cc:Work
         rdf:about="">
        <dc:format>image/svg+xml</dc:format>
        <dc:type
           rdf:resource="http://purl.org/dc/dcmitype/StillImage" />
        <dc:title></dc:title>
      </cc:Work>
    </rdf:RDF>
  </metadata>
  <g
     transform="translate(-50.194952,-92.170678)"
     id="layer1">
    <polygon
       style="fill:url(#v)"
       id="polygon225"
       points="1051.967,797.21 1256.352,799.777 1273.667,825.193 1241.973,627.231 1078.157,658.043 "
       class="ac"
       transform="matrix(0.26458333,0,0,0.26458333,-224.45842,-68.62111)" />
    <polygon
       style="fill:url(#w)"
       id="polygon227"
       points="1287.205,853.176 1258.566,607.717 1241.973,627.231 1273.667,825.193 "
       class="ad"
       transform="matrix(0.26458333,0,0,0.26458333,-224.45842,-68.62111)" />
    <polygon
       style="fill:#8543ff"
       id="polygon229"
       points="1241.973,627.231 1078.157,658.043 1050.902,649.734 1258.566,607.717 "
       class="h"
       transform="matrix(0.26458333,0,0,0.26458333,-224.45842,-68.62111)" />
    <polygon
       style="fill:url(#x)"
       id="polygon231"
       points="1050.902,649.734 1038.06,815.183 1051.967,797.21 1078.157,658.043 "
       class="ae"
       transform="matrix(0.26458333,0,0,0.26458333,-224.45842,-68.62111)" />
    <polygon
       style="fill:#574ace"
       id="polygon233"
       points="1273.667,825.193 1287.205,853.176 1239.967,809.722 1040.054,812.606 1051.967,797.21 1256.352,799.777 "
       class="j"
       transform="matrix(0.26458333,0,0,0.26458333,-224.45842,-68.62111)" />
    <path
       style="fill:#ffffff;stroke-width:0.26458332"
       id="path329"
       d="m 60.074495,128.12491 v -7.48771 l -2.255308,0.83053 v -1.01256 l 3.213364,-1.2065 h 0.175948 v 8.87624 z"
       class="p" />
    <path
       style="fill:#ffffff;stroke-width:0.26458332"
       id="path331"
       d="m 72.769732,121.69209 -2.619375,6.43282 h -1.2065 l 2.588948,-6.23888 h -4.189412 v -3.07393 h 1.121568 v 2.16959 h 4.304771 z"
       class="p" />
    <path
       style="fill:#ffffff;stroke-width:0.26458332"
       id="path333"
       d="m 74.655418,121.88603 h -0.830792 v -0.90355 h 1.957917 v 7.14216 h -1.127655 z"
       class="p" />
    <path
       style="fill:#ffffff;stroke-width:0.26458332"
       id="path335"
       d="m 77.371365,127.90663 0.182034,-0.84297 a 6.6410417,6.6410417 0 0 0 1.709737,0.26062 2.1838708,2.1838708 0 0 0 1.54305,-0.49424 1.8393833,1.8393833 0 0 0 0.53049,-1.41579 v -3.52822 h -3.716602 v -0.90355 h 4.838171 v 4.18941 q 0,1.5158 -0.80645,2.28574 -0.80645,0.76994 -2.243402,0.76994 a 7.4625729,7.4625729 0 0 1 -2.037028,-0.32094 z"
       class="p" />
    <path
       style="fill:#ffffff;stroke-width:0.26458332"
       id="path337"
       d="m 85.74437,126.85782 a 6.746875,6.746875 0 0 0 1.224756,0.38788 5.775325,5.775325 0 0 0 1.224756,0.13943 4.4979167,4.4979167 0 0 0 1.558131,-0.25162 2.3397104,2.3397104 0 0 0 1.079236,-0.76385 2.0108333,2.0108333 0 0 0 0.394229,-1.26418 v -4.12273 h 1.091406 v 4.22592 a 2.6770542,2.6770542 0 0 1 -0.54266,1.70074 3.260725,3.260725 0 0 1 -1.464204,1.03982 5.8353854,5.8353854 0 0 1 -2.061369,0.34554 8.3113562,8.3113562 0 0 1 -1.81901,-0.20928 8.2097563,8.2097563 0 0 1 -1.776413,-0.61543 v -6.48758 h 1.091406 z m 2.055283,-1.3552 a 3.6377562,3.6377562 0 0 0 0.115358,-0.96705 v -3.55282 h 1.097227 v 3.3528 a 3.432175,3.432175 0 0 1 -0.151606,1.07606 1.984375,1.984375 0 0 1 -0.466989,0.77893 l -0.933715,-0.0362 a 1.5205604,1.5205604 0 0 0 0.339725,-0.65061 z"
       class="p" />
    <path
       style="fill:#ffffff;stroke-width:0.26458332"
       id="path339"
       d="m 98.507076,125.0023 2.261394,3.12208 h -1.255184 l -3.182937,-4.3897 q -0.649023,0.4064 -0.648759,1.39462 v 2.99508 h -1.091406 v -2.58895 a 3.2144229,3.2144229 0 0 1 0.315384,-1.51871 2.0198292,2.0198292 0 0 1 0.976047,-0.89429 l -1.546225,-2.14021 h 1.261269 l 2.212975,3.05567 1.721909,-3.05567 h 1.267087 z"
       class="p" />
  </g>
</svg>
