<?xml version="1.0" encoding="UTF-8" standalone="no"?>
<svg
   xmlns:dc="http://purl.org/dc/elements/1.1/"
   xmlns:cc="http://creativecommons.org/ns#"
   xmlns:rdf="http://www.w3.org/1999/02/22-rdf-syntax-ns#"
   xmlns:svg="http://www.w3.org/2000/svg"
   xmlns="http://www.w3.org/2000/svg"
   xmlns:xlink="http://www.w3.org/1999/xlink"
   id="svg11827"
   version="1.1"
   viewBox="0 0 79.439028 39.131874"
   height="147.89999"
   width="300.242">
  <defs
     id="defs11821">
    <linearGradient
       xlink:href="#a"
       y2="1167.688"
       x2="3560.4839"
       y1="1240.712"
       x1="3571.0049"
       id="c" />
    <linearGradient
       gradientUnits="userSpaceOnUse"
       gradientTransform="matrix(-1,0,0,1,5113,0)"
       y2="1232.389"
       x2="3496.207"
       y1="1163.078"
       x1="3484.449"
       id="a">
      <stop
         style="stop-color:#c700ff;stop-opacity:1"
         id="stop4"
         stop-color="#574ace"
         offset="0" />
      <stop
         style="stop-color:#d643ff;stop-opacity:1"
         id="stop6"
         stop-color="#8543ff"
         offset="1" />
    </linearGradient>
    <linearGradient
       xlink:href="#a"
       y2="1167.13"
       x2="3445.312"
       y1="1244.796"
       x1="3435.4099"
       id="b" />
    <linearGradient
       y2="1232.389"
       x2="3496.207"
       y1="1163.078"
       x1="3484.449"
       gradientTransform="matrix(-1,0,0,1,5113,0)"
       gradientUnits="userSpaceOnUse"
       id="linearGradient576"
       xlink:href="#a" />
  </defs>
  <metadata
     id="metadata11824">
    <rdf:RDF>
      <cc:Work
         rdf:about="">
        <dc:format>image/svg+xml</dc:format>
        <dc:type
           rdf:resource="http://purl.org/dc/dcmitype/StillImage" />
        <dc:title></dc:title>
      </cc:Work>
    </rdf:RDF>
  </metadata>
  <g
     transform="translate(-81.437862,-107.34478)"
     id="layer1">
    <polygon
       style="fill:url(#linearGradient576)"
       id="polygon106"
       points="1659.714,1149.675 1561.008,1168.241 1545.227,1252.094 1668.378,1253.642 1678.812,1268.956 "
       class="c"
       transform="matrix(0.26458333,0,0,0.26458333,-325.1865,-193.72909)" />
    <polygon
       style="fill:url(#b)"
       id="polygon108"
       points="1659.714,1149.675 1678.812,1268.956 1686.969,1285.817 1669.712,1137.917 "
       class="d"
       transform="matrix(0.26458333,0,0,0.26458333,-325.1865,-193.72909)" />
    <polygon
       style="fill:#d643ff;fill-opacity:1"
       id="polygon110"
       points="1544.586,1163.234 1669.712,1137.917 1659.714,1149.675 1561.008,1168.241 "
       class="e"
       transform="matrix(0.26458333,0,0,0.26458333,-325.1865,-193.72909)" />
    <polygon
       style="fill:url(#c)"
       id="polygon112"
       points="1545.227,1252.094 1561.008,1168.241 1544.586,1163.234 1536.848,1262.924 "
       class="f"
       transform="matrix(0.26458333,0,0,0.26458333,-325.1865,-193.72909)" />
    <polygon
       style="fill:#c700ff;fill-opacity:1"
       id="polygon114"
       points="1545.227,1252.094 1668.378,1253.642 1678.812,1268.956 1686.969,1285.817 1658.506,1259.634 1538.05,1261.371 "
       class="g"
       transform="matrix(0.26458333,0,0,0.26458333,-325.1865,-193.72909)" />
    <path
       style="fill:#ffffff;stroke-width:0.26458332"
       id="path312"
       d="m 91.739687,126.45934 q 0,-0.92763 -0.418306,-1.34303 -0.418306,-0.4154 -1.345936,-0.4154 h -2.588947 v -0.90355 h 2.643452 q 1.400439,0 2.119047,0.67892 0.718608,0.67892 0.718344,2.01295 v 4.4503 h -1.127654 z m -4.341019,2.04311 a 3.65125,3.65125 0 0 1 0.08176,-0.86995 3.5938354,3.5938354 0 0 1 0.233363,-0.6395 h 0.921544 a 4.2650833,4.2650833 0 0 0 -0.109273,0.61833 7.8705604,7.8705604 0 0 0 -0.03625,0.81862 v 2.5101 h -1.091406 z"
       class="aj" />
    <path
       style="fill:#ffffff;stroke-width:0.26458332"
       id="path314"
       d="m 97.833041,125.95636 a 1.2289896,1.2289896 0 0 0 -0.342371,-0.91863 1.2789958,1.2789958 0 0 0 -0.93689,-0.33655 h -2.402152 v -0.90382 h 2.437342 a 2.8045833,2.8045833 0 0 1 1.26709,0.2667 1.8684875,1.8684875 0 0 1 0.815445,0.76994 2.4317854,2.4317854 0 0 1 0.281782,1.2065 v 4.90061 h -1.121569 z"
       class="aj" />
    <path
       style="fill:#ffffff;stroke-width:0.26458332"
       id="path316"
       d="m 101.52557,124.70118 h -1.30969 v -0.90382 h 2.43734 v 3.9833 h -1.12765 z"
       class="aj" />
    <path
       style="fill:#ffffff;stroke-width:0.26458332"
       id="path318"
       d="m 104.59341,124.74986 -0.50271,-0.0849 v -0.86757 h 3.4679 l -0.006,0.90329 h -1.84309 l 1.01256,6.23888 h -1.15782 z"
       class="aj" />
    <path
       style="fill:#ffffff;stroke-width:0.26458332"
       id="path320"
       d="m 113.26936,126.45934 q 0,-0.92763 -0.4183,-1.34303 -0.41831,-0.4154 -1.34594,-0.4154 h -2.58974 v -0.90355 h 2.64345 q 1.40044,0 2.11905,0.67892 0.71861,0.67892 0.71834,2.01295 v 4.4503 h -1.12765 z m -4.34102,2.04311 a 3.65125,3.65125 0 0 1 0.0818,-0.86995 3.5938354,3.5938354 0 0 1 0.23337,-0.6395 h 0.92154 a 4.2650833,4.2650833 0 0 0 -0.10927,0.61833 7.8705604,7.8705604 0 0 0 -0.0362,0.81862 v 2.5101 h -1.09141 z"
       class="aj" />
  </g>
</svg>
