<?xml version="1.0" encoding="UTF-8" standalone="no"?>
<svg
   xmlns:dc="http://purl.org/dc/elements/1.1/"
   xmlns:cc="http://creativecommons.org/ns#"
   xmlns:rdf="http://www.w3.org/1999/02/22-rdf-syntax-ns#"
   xmlns:svg="http://www.w3.org/2000/svg"
   xmlns="http://www.w3.org/2000/svg"
   xmlns:xlink="http://www.w3.org/1999/xlink"
   id="svg5371"
   version="1.1"
   viewBox="0 0 136.48002 35.744678"
   height="135.09799"
   width="515.83002">
  <defs
     id="defs5365">
    <linearGradient
       xlink:href="#g"
       y2="1936.2841"
       x2="1924.764"
       y1="2003.637"
       x1="1934.468"
       id="l" />
    <linearGradient
       gradientUnits="userSpaceOnUse"
       y2="1678.416"
       x2="1819.7371"
       y1="1613.504"
       x1="1808.725"
       id="g">
      <stop
         id="stop24"
         stop-color="#574ace"
         offset="0" />
      <stop
         id="stop26"
         stop-color="#8543ff"
         offset="1" />
    </linearGradient>
    <linearGradient
       xlink:href="#g"
       y2="1934.886"
       x2="1723.068"
       y1="2006.745"
       x1="1713.906"
       id="k" />
    <linearGradient
       xlink:href="#g"
       y2="1999.327"
       x2="1819.005"
       y1="1927.125"
       x1="1806.757"
       id="j" />
  </defs>
  <metadata
     id="metadata5368">
    <rdf:RDF>
      <cc:Work
         rdf:about="">
        <dc:format>image/svg+xml</dc:format>
        <dc:type
           rdf:resource="http://purl.org/dc/dcmitype/StillImage" />
        <dc:title></dc:title>
      </cc:Work>
    </rdf:RDF>
  </metadata>
  <g
     transform="translate(4.8421582,-99.966945)"
     id="layer1">
    <polygon
       style="fill:url(#j)"
       id="polygon174"
       points="1740.593,1918.88 1910.176,1935.839 1937.288,2012.435 1725.708,2013.848 1707.783,2027.837 "
       class="r"
       transform="matrix(0.26458333,0,0,0.26458333,-384.74519,-404.89509)" />
    <polygon
       style="fill:url(#k)"
       id="polygon176"
       points="1740.593,1918.88 1707.783,2027.837 1693.769,2043.238 1723.416,1908.14 "
       class="s"
       transform="matrix(0.26458333,0,0,0.26458333,-384.74519,-404.89509)" />
    <polygon
       style="fill:#8543ff"
       id="polygon178"
       points="1938.39,1931.265 1723.416,1908.14 1740.593,1918.88 1910.176,1935.839 "
       class="o"
       transform="matrix(0.26458333,0,0,0.26458333,-384.74519,-404.89509)" />
    <polygon
       style="fill:url(#l)"
       id="polygon180"
       points="1937.288,2012.435 1910.176,1935.839 1938.39,1931.265 1951.684,2022.327 "
       class="t"
       transform="matrix(0.26458333,0,0,0.26458333,-384.74519,-404.89509)" />
    <polygon
       style="fill:#574ace"
       id="polygon182"
       points="1937.288,2012.435 1725.708,2013.848 1707.783,2027.837 1693.769,2043.238 1742.67,2019.322 1949.62,2020.909 "
       class="q"
       transform="matrix(0.26458333,0,0,0.26458333,-384.74519,-404.89509)" />
    <path
       style="fill:#ffffff;stroke-width:0.26458332"
       id="path566"
       d="m 75.486143,122.31922 v -7.48771 l -2.255308,0.83079 V 114.65 l 3.213365,-1.20676 h 0.175947 v 8.87624 z"
       class="l" />
    <path
       style="fill:#ffffff;stroke-width:0.26458332"
       id="path568"
       d="m 88.38511,115.8528 q 0.700352,0.67627 0.700352,2.05846 v 4.40769 h -1.121833 l -0.0058,-4.47437 q 0,-0.92789 -0.396875,-1.3462 -0.396875,-0.4183 -1.282436,-0.4183 h -1.01256 a 2.8397729,2.8397729 0 0 0 -0.3175,0.83978 4.6566667,4.6566667 0 0 0 -0.118269,1.05199 v 2.40771 a 2.1357167,2.1357167 0 0 1 -0.466725,1.49172 1.7504833,1.7504833 0 0 1 -1.358106,0.50932 5.9155542,5.9155542 0 0 1 -0.697177,-0.0548 v -0.90329 a 3.3602083,3.3602083 0 0 0 0.418571,0.0243 0.97075625,0.97075625 0 0 0 0.767291,-0.27278 1.2842875,1.2842875 0 0 0 0.239448,-0.86096 v -2.25531 a 4.2775187,4.2775187 0 0 1 0.145521,-1.1004 2.4341667,2.4341667 0 0 1 0.400315,-0.8763 h -1.33985 v -0.90328 h 3.326606 q 1.418696,0 2.119048,0.67495 z"
       class="l" />
    <path
       style="fill:#ffffff;stroke-width:0.26458332"
       id="path570"
       d="m 91.443958,116.08034 h -0.830792 v -0.90329 h 1.957917 v 7.14217 h -1.127654 z"
       class="l" />
    <path
       style="fill:#ffffff;stroke-width:0.26458332"
       id="path572"
       d="m 98.762068,119.1966 2.261392,3.12209 h -1.255181 l -3.182938,-4.38971 q -0.649023,0.40614 -0.648758,1.39462 v 2.99509 h -1.091406 v -2.58895 a 3.2154812,3.2154812 0 0 1 0.315383,-1.51871 2.0208875,2.0208875 0 0 1 0.976048,-0.89429 l -1.546225,-2.14022 h 1.261269 l 2.212975,3.05568 1.721908,-3.05568 h 1.267095 z"
       class="l" />
    <path
       style="fill:#ffffff;stroke-width:0.26458332"
       id="path574"
       d="m 101.99978,122.30705 0.0302,-0.87895 a 4.5407792,4.5407792 0 0 0 0.88529,0.0794 0.93741875,0.93741875 0 0 0 0.74586,-0.28496 1.3123333,1.3123333 0 0 0 0.24845,-0.87921 v -4.26217 h -1.40044 v -0.90329 h 2.52835 v 5.25648 a 2.0944417,2.0944417 0 0 1 -0.48498,1.49437 1.8280062,1.8280062 0 0 1 -1.39462,0.51249 5.3369104,5.3369104 0 0 1 -1.15808,-0.13414 z"
       class="l" />
    <path
       style="fill:#ffffff;stroke-width:0.26458332"
       id="path576"
       d="m 112.2156,115.17705 v 0.90329 h -1.19433 v 6.23888 h -1.12792 v -6.23888 h -3.39539 v -0.90329 z"
       class="l" />
    <path
       style="fill:#ffffff;stroke-width:0.26458332"
       id="path578"
       d="m 115.0866,122.04326 a 2.8080229,2.8080229 0 0 1 -1.06389,-1.152 3.7589354,3.7589354 0 0 1 -0.38815,-1.71979 v -0.72761 a 3.3903708,3.3903708 0 0 1 0.13044,-0.92763 3.1617708,3.1617708 0 0 1 0.36089,-0.82761 1.8221854,1.8221854 0 0 1 0.5215,-0.56092 0.31882292,0.31882292 0 0 1 0.0849,-0.0487 l -0.006,-0.018 a 10.817225,10.817225 0 0 0 -1.27926,0.29713 l -0.21828,-0.84878 a 11.035242,11.035242 0 0 1 1.60046,-0.33947 11.663892,11.663892 0 0 1 1.64306,-0.12726 3.5324521,3.5324521 0 0 1 1.71265,0.39105 2.6527125,2.6527125 0 0 1 1.10358,1.12792 3.7438542,3.7438542 0 0 1 0.38497,1.75525 v 0.85487 a 3.7570833,3.7570833 0 0 1 -0.37598,1.71979 2.7617208,2.7617208 0 0 1 -1.06098,1.152 3.0263042,3.0263042 0 0 1 -1.5822,0.40931 2.9863521,2.9863521 0 0 1 -1.56766,-0.40958 z m 2.5646,-0.83053 a 1.8671646,1.8671646 0 0 0 0.66993,-0.81545 2.9522208,2.9522208 0 0 0 0.23653,-1.21867 v -0.84878 a 3.0069896,3.0069896 0 0 0 -0.23944,-1.24592 1.8168937,1.8168937 0 0 0 -0.68501,-0.81254 1.9155833,1.9155833 0 0 0 -1.0459,-0.28178 1.6068146,1.6068146 0 0 0 -0.94879,0.28813 1.863725,1.863725 0 0 0 -0.63659,0.83079 3.4374667,3.4374667 0 0 0 -0.23945,1.27609 v 0.79375 a 2.9522208,2.9522208 0 0 0 0.23654,1.21867 1.8830396,1.8830396 0 0 0 0.66384,0.81544 1.7322271,1.7322271 0 0 0 0.99139,0.28787 1.7610667,1.7610667 0 0 0 0.99695,-0.2876 z"
       class="l" />
  </g>
</svg>
