<?xml version="1.0" encoding="UTF-8" standalone="no"?>
<svg
   xmlns:dc="http://purl.org/dc/elements/1.1/"
   xmlns:cc="http://creativecommons.org/ns#"
   xmlns:rdf="http://www.w3.org/1999/02/22-rdf-syntax-ns#"
   xmlns:svg="http://www.w3.org/2000/svg"
   xmlns="http://www.w3.org/2000/svg"
   xmlns:xlink="http://www.w3.org/1999/xlink"
   id="svg11192"
   version="1.1"
   viewBox="0 0 67.862976 34.579189"
   height="130.69299"
   width="256.48999">
  <defs
     id="defs11186">
    <linearGradient
       xlink:href="#s"
       gradientTransform="rotate(180,1703.257,6989.8115)"
       y2="12821.642"
       x2="1969.3149"
       y1="12761.796"
       x1="1968.415"
       id="x" />
    <linearGradient
       gradientUnits="userSpaceOnUse"
       gradientTransform="matrix(-1,0,0,1,4054.575,0)"
       y2="961.81897"
       x2="2373.094"
       y1="915.30499"
       x1="2380.218"
       id="s">
      <stop
         style="stop-color:#c700ff;stop-opacity:1"
         id="stop30"
         stop-color="#fa642e"
         offset="0" />
      <stop
         style="stop-color:#d643ff;stop-opacity:1"
         id="stop32"
         stop-color="#ffab50"
         offset="1" />
    </linearGradient>
    <linearGradient
       xlink:href="#s"
       gradientTransform="rotate(180,1703.257,6989.8115)"
       y2="12866.649"
       x2="2083.9431"
       y1="12800.44"
       x1="2083.9431"
       id="w" />
    <linearGradient
       xlink:href="#s"
       y2="1197.45"
       x2="1381"
       y1="1141.588"
       x1="1381"
       id="v" />
  </defs>
  <metadata
     id="metadata11189">
    <rdf:RDF>
      <cc:Work
         rdf:about="">
        <dc:format>image/svg+xml</dc:format>
        <dc:type
           rdf:resource="http://purl.org/dc/dcmitype/StillImage" />
        <dc:title></dc:title>
      </cc:Work>
    </rdf:RDF>
  </metadata>
  <g
     transform="translate(-58.715857,-108.10922)"
     id="layer1">
    <polygon
       style="fill:url(#v)"
       id="polygon176"
       points="1330.114,1216.671 1325.112,1109.392 1342.087,1125.407 1436.888,1127.97 1431.321,1211.867 "
       class="ad"
       transform="matrix(0.26458333,0,0,0.26458333,-255.28714,-181.05258)" />
    <polygon
       style="fill:#c700ff;fill-opacity:1"
       id="polygon178"
       points="1326.14,1223.588 1435.861,1216.526 1431.321,1211.867 1330.114,1216.671 "
       class="ab"
       transform="matrix(0.26458333,0,0,0.26458333,-255.28714,-181.05258)" />
    <polygon
       style="fill:url(#w)"
       id="polygon180"
       points="1326.14,1223.588 1330.114,1216.671 1325.112,1109.392 1315.028,1092.895 "
       class="ae"
       transform="matrix(0.26458333,0,0,0.26458333,-255.28714,-181.05258)" />
    <polygon
       style="fill:#d643ff;fill-opacity:1"
       id="polygon182"
       points="1443.273,1117.121 1436.888,1127.97 1342.087,1125.407 1325.112,1109.392 1315.028,1092.895 1339.726,1118.615 "
       class="z"
       transform="matrix(0.26458333,0,0,0.26458333,-255.28714,-181.05258)" />
    <polygon
       style="fill:url(#x)"
       id="polygon184"
       points="1431.321,1211.867 1435.861,1216.526 1443.273,1117.121 1436.888,1127.97 "
       class="af"
       transform="matrix(0.26458333,0,0,0.26458333,-255.28714,-181.05258)" />
    <path
       style="fill:#ffffff;stroke-width:0.26458332"
       id="path340"
       d="m 110.76179,128.79831 a 0.78819375,0.78819375 0 0 1 0.22357,0.576 0.76226458,0.76226458 0 0 1 -0.22357,0.56832 0.84322708,0.84322708 0 0 1 -0.61754,0.21987 0.81650417,0.81650417 0 0 1 -0.61013,-0.21987 0.7762875,0.7762875 0 0 1 -0.2159,-0.56832 0.76332292,0.76332292 0 0 1 0.82603,-0.80328 0.8270875,0.8270875 0 0 1 0.61754,0.22728 z m -1.29223,-1.83409 -0.10583,-7.91977 h 1.48537 l -0.10583,7.91977 z"
       class="aj" />
    <path
       style="fill:#ffffff;stroke-width:0.26458332"
       id="path342"
       d="m 97.52918,132.22943 h -0.632089 v -0.67681 h 1.464204 v 7.24826 h -0.832379 z"
       class="aj" />
    <path
       style="fill:#ffffff;stroke-width:0.26458332"
       id="path344"
       d="m 100.41684,132.22943 h -0.98213 v -0.67681 h 1.82801 v 2.98741 h -0.84667 z"
       class="aj" />
    <path
       style="fill:#ffffff;stroke-width:0.26458332"
       id="path346"
       d="m 106.55994,131.55262 v 3.21046 a 2.3899812,2.3899812 0 0 1 -0.29766,1.23004 1.9192875,1.9192875 0 0 1 -0.83661,0.7673 2.8276021,2.8276021 0 0 1 -1.2483,0.2614 5.3445833,5.3445833 0 0 1 -1.905,-0.37756 l 0.20452,-0.62759 a 4.9061687,4.9061687 0 0 0 1.42319,0.34555 2.0394083,2.0394083 0 0 1 -0.44979,-0.90488 l -0.88847,-3.90472 h 0.84667 l 0.86862,3.95155 a 4.441825,4.441825 0 0 0 0.12277,0.46832 1.7674167,1.7674167 0 0 0 0.15875,0.35004 1.4459479,1.4459479 0 0 0 0.85275,-0.51382 1.59385,1.59385 0 0 0 0.30692,-1.01415 v -3.24194 z"
       class="aj" />
    <path
       style="fill:#ffffff;stroke-width:0.26458332"
       id="path348"
       d="m 108.61549,132.22943 h -0.98214 v -0.67681 h 1.82801 v 2.98741 h -0.84667 z"
       class="aj" />
    <path
       style="fill:#ffffff;stroke-width:0.26458332"
       id="path350"
       d="m 114.75408,131.55262 v 0.6776 h -0.89455 v 4.67916 h -0.84667 v -4.67916 h -2.54635 v -0.6776 z"
       class="aj" />
    <path
       style="fill:#ffffff;stroke-width:0.26458332"
       id="path352"
       d="m 116.12277,132.22943 h -0.62282 v -0.67681 h 1.4687 v 5.35649 h -0.84667 z"
       class="aj" />
    <path
       style="fill:#ffffff;stroke-width:0.26458332"
       id="path354"
       d="m 118.97842,133.5026 a 2.1182542,2.1182542 0 0 1 0.21167,-0.70247 1.4925146,1.4925146 0 0 1 0.38894,-0.50694 c 0.0119,-0.009 0.0423,-0.0302 0.091,-0.0635 l -0.009,-0.0138 q -0.20453,0.0365 -0.51171,0.11589 -0.30718,0.0794 -0.56144,0.16589 l -0.19549,-0.63658 a 7.6464583,7.6464583 0 0 1 1.18215,-0.29554 7.0860708,7.0860708 0 0 1 1.20518,-0.11377 2.2280562,2.2280562 0 0 1 1.65285,0.5752 q 0.57071,0.5752 0.57521,1.68937 v 3.19219 h -2.2053 v -0.67759 h 1.36419 v -2.61012 a 1.6155458,1.6155458 0 0 0 -0.32279,-1.08664 1.1718396,1.1718396 0 0 0 -0.93689,-0.3728 0.93794792,0.93794792 0 0 0 -0.7366,0.33867 1.6589375,1.6589375 0 0 0 -0.36381,0.92075 l -0.40454,3.48773 h -0.83265 z"
       class="aj" />
  </g>
</svg>
