<?xml version="1.0" encoding="UTF-8" standalone="no"?>
<svg
   xmlns:dc="http://purl.org/dc/elements/1.1/"
   xmlns:cc="http://creativecommons.org/ns#"
   xmlns:rdf="http://www.w3.org/1999/02/22-rdf-syntax-ns#"
   xmlns:svg="http://www.w3.org/2000/svg"
   xmlns="http://www.w3.org/2000/svg"
   xmlns:xlink="http://www.w3.org/1999/xlink"
   id="svg12461"
   version="1.1"
   viewBox="0 0 169.83974 64.943833"
   height="245.457"
   width="641.914">
  <defs
     id="defs12455">
    <linearGradient
       xlink:href="#a"
       gradientTransform="matrix(-1,0,0,1,4408.61,0)"
       y2="1942.597"
       x2="3205.4241"
       y1="2064.175"
       x1="3222.9399"
       id="bp" />
    <linearGradient
       gradientUnits="userSpaceOnUse"
       gradientTransform="matrix(-1,0,0,1,5113,0)"
       y2="1232.389"
       x2="3496.207"
       y1="1163.078"
       x1="3484.449"
       id="a">
      <stop
         id="stop4"
         stop-color="#574ace"
         offset="0" />
      <stop
         id="stop6"
         stop-color="#8543ff"
         offset="1" />
    </linearGradient>
    <linearGradient
       xlink:href="#a"
       gradientTransform="matrix(-1,0,0,1,4408.61,0)"
       y2="1941.2469"
       x2="2957.842"
       y1="2070.687"
       x1="2941.3401"
       id="bo" />
    <linearGradient
       xlink:href="#a"
       gradientTransform="matrix(-1,0,0,1,4408.61,0)"
       y2="2052.312"
       x2="3070.8301"
       y1="1931.9969"
       x1="3050.4189"
       id="bn" />
  </defs>
  <metadata
     id="metadata12458">
    <rdf:RDF>
      <cc:Work
         rdf:about="">
        <dc:format>image/svg+xml</dc:format>
        <dc:type
           rdf:resource="http://purl.org/dc/dcmitype/StillImage" />
        <dc:title></dc:title>
      </cc:Work>
    </rdf:RDF>
  </metadata>
  <g
     transform="translate(-45.230538,-95.950704)"
     id="layer1">
    <polygon
       style="fill:url(#bn)"
       id="polygon636"
       points="1432.324,1912.13 1221.29,1942.941 1187.551,2082.107 1450.847,2084.674 1473.154,2110.09 "
       class="ca"
       transform="matrix(0.26458333,0,0,0.26458333,-264.23565,-404.80394)" />
    <polygon
       style="fill:url(#bo)"
       id="polygon638"
       points="1432.324,1912.13 1473.154,2110.09 1490.593,2138.073 1453.699,1892.616 "
       class="cb"
       transform="matrix(0.26458333,0,0,0.26458333,-264.23565,-404.80394)" />
    <polygon
       style="fill:#8543ff"
       id="polygon640"
       points="1186.179,1934.632 1453.699,1892.616 1432.324,1912.13 1221.29,1942.941 "
       class="e"
       transform="matrix(0.26458333,0,0,0.26458333,-264.23565,-404.80394)" />
    <polygon
       style="fill:url(#bp)"
       id="polygon642"
       points="1187.551,2082.107 1221.29,1942.941 1186.179,1934.632 1169.636,2100.08 "
       class="cc"
       transform="matrix(0.26458333,0,0,0.26458333,-264.23565,-404.80394)" />
    <polygon
       style="fill:#574ace"
       id="polygon644"
       points="1187.551,2082.107 1450.847,2084.674 1473.154,2110.09 1490.593,2138.073 1429.74,2094.62 1172.205,2097.503 "
       class="g"
       transform="matrix(0.26458333,0,0,0.26458333,-264.23565,-404.80394)" />
    <path
       style="fill:#ffffff;stroke-width:0.26458332"
       id="path646"
       d="m 64.201696,121.95661 q 0.700088,0.67601 0.700088,2.05845 v 4.4077 h -1.121569 l -0.0061,-4.47437 q 0,-0.92763 -0.396875,-1.34594 -0.396875,-0.4183 -1.28217,-0.4183 h -1.012561 a 2.8395083,2.8395083 0 0 0 -0.3175,0.83979 4.6638104,4.6638104 0 0 0 -0.118269,1.05198 v 2.40771 a 2.1357167,2.1357167 0 0 1 -0.466725,1.49145 1.7504833,1.7504833 0 0 1 -1.358106,0.50933 5.9221687,5.9221687 0 0 1 -0.697177,-0.0545 v -0.90329 a 3.3729083,3.3729083 0 0 0 0.418571,0.0243 0.97075625,0.97075625 0 0 0 0.767292,-0.27279 1.2845521,1.2845521 0 0 0 0.239448,-0.86095 v -2.25531 a 4.2764604,4.2764604 0 0 1 0.14552,-1.1004 2.4341667,2.4341667 0 0 1 0.400315,-0.87604 h -1.339836 v -0.90328 h 3.328723 q 1.416579,-0.003 2.116931,0.67442 z"
       class="aj" />
    <path
       style="fill:#ffffff;stroke-width:0.26458332"
       id="path648"
       d="m 67.260809,122.18388 h -0.830527 v -0.90328 h 1.957916 v 7.14216 h -1.127389 z"
       class="aj" />
    <path
       style="fill:#ffffff;stroke-width:0.26458332"
       id="path650"
       d="m 73.529582,123.4388 a 1.2289896,1.2289896 0 0 0 -0.342371,-0.91863 1.2789958,1.2789958 0 0 0 -0.93689,-0.33655 h -2.400829 v -0.90329 h 2.437342 a 2.8045833,2.8045833 0 0 1 1.267089,0.2667 1.8684875,1.8684875 0 0 1 0.815446,0.76994 2.4317854,2.4317854 0 0 1 0.281781,1.2065 v 4.89876 h -1.121568 z"
       class="aj" />
    <path
       style="fill:#ffffff;stroke-width:0.26458332"
       id="path652"
       d="m 77.015732,122.18388 h -0.830528 v -0.90328 h 1.957917 v 7.14216 h -1.127654 z"
       class="aj" />
    <path
       style="fill:#ffffff;stroke-width:0.26458332"
       id="path654"
       d="m 81.699386,128.19919 a 2.5169812,2.5169812 0 0 1 -1.0033,-1.00542 3.0630812,3.0630812 0 0 1 -0.357717,-1.50363 v -4.40769 h 1.121569 v 4.48654 a 2.1754042,2.1754042 0 0 0 0.215106,0.99139 1.5949083,1.5949083 0 0 0 0.606425,0.66384 1.8438812,1.8438812 0 0 0 1.80684,0 1.5949083,1.5949083 0 0 0 0.606425,-0.66384 2.1769917,2.1769917 0 0 0 0.215106,-0.99139 v -2.39475 a 1.3975292,1.3975292 0 0 0 -0.257704,-0.89958 0.88635417,0.88635417 0 0 0 -0.730515,-0.3175 2.0404667,2.0404667 0 0 0 -0.873125,0.23045 l -0.175948,-0.75168 a 2.7013958,2.7013958 0 0 1 0.669925,-0.30612 2.413,2.413 0 0 1 0.706173,-0.11218 1.7838208,1.7838208 0 0 1 0.954881,0.2487 1.6054917,1.6054917 0 0 1 0.618332,0.71438 2.6169937,2.6169937 0 0 1 0.215106,1.10358 v 2.4077 a 3.0847771,3.0847771 0 0 1 -0.354806,1.50363 2.5021646,2.5021646 0 0 1 -0.99748,1.00542 3.2943271,3.2943271 0 0 1 -2.986087,0 z"
       class="aj" />
    <path
       style="fill:#ffffff;stroke-width:0.26458332"
       id="path656"
       d="m 91.991148,125.30015 2.261394,3.12208 h -1.254919 l -3.183202,-4.3897 q -0.648758,0.4064 -0.648758,1.39462 v 2.99508 h -1.091406 v -2.58895 a 3.2146875,3.2146875 0 0 1 0.315383,-1.51871 2.0195646,2.0195646 0 0 1 0.976048,-0.89429 l -1.546225,-2.14021 h 1.261269 l 2.212975,3.05567 1.721908,-3.05567 h 1.267354 z"
       class="aj" />
    <path
       style="fill:#ffffff;stroke-width:0.26458332"
       id="path658"
       d="m 96.508115,122.18388 h -1.309688 v -0.90328 h 2.437342 v 3.9833 h -1.127654 z"
       class="aj" />
    <path
       style="fill:#ffffff;stroke-width:0.26458332"
       id="path660"
       d="m 98.975619,128.41085 0.03016,-0.87921 a 4.530725,4.530725 0 0 0 0.885295,0.0794 0.93715417,0.93715417 0 0 0 0.745866,-0.28495 1.3120687,1.3120687 0 0 0 0.24844,-0.87921 v -4.26217 h -1.400438 v -0.90329 h 2.528358 v 5.25648 a 2.0944417,2.0944417 0 0 1 -0.48498,1.49436 1.8285354,1.8285354 0 0 1 -1.39462,0.51224 5.3369104,5.3369104 0 0 1 -1.158081,-0.13362 z"
       class="aj" />
    <path
       style="fill:#ffffff;stroke-width:0.26458332"
       id="path662"
       d="m 104.75227,122.18388 h -1.30969 v -0.90328 h 2.43734 v 3.9833 h -1.12765 z"
       class="aj" />
    <path
       style="fill:#ffffff;stroke-width:0.26458332"
       id="path664"
       d="m 108.44003,123.88145 a 2.8268083,2.8268083 0 0 1 0.28178,-0.93689 1.9891375,1.9891375 0 0 1 0.51832,-0.67601 q 0.0243,-0.0183 0.12118,-0.0849 l -0.0122,-0.0183 q -0.27279,0.0487 -0.6821,0.15452 -0.40931,0.10583 -0.74877,0.22119 l -0.26061,-0.84878 a 10.206831,10.206831 0 0 1 1.57639,-0.39423 9.4527687,9.4527687 0 0 1 1.60655,-0.15161 q 1.44303,0 2.20397,0.76729 0.76095,0.76729 0.7673,2.2524 v 4.25609 h -2.94058 v -0.90329 h 1.81901 v -3.48006 a 2.1542375,2.1542375 0 0 0 -0.43048,-1.44913 1.5626292,1.5626292 0 0 0 -1.2491,-0.49715 1.2506854,1.2506854 0 0 0 -0.98213,0.45164 2.2108583,2.2108583 0 0 0 -0.48498,1.22767 l -0.53975,4.65032 h -1.1094 z"
       class="aj" />
  </g>
</svg>
