<?xml version="1.0" encoding="UTF-8" standalone="no"?>
<svg
   xmlns:dc="http://purl.org/dc/elements/1.1/"
   xmlns:cc="http://creativecommons.org/ns#"
   xmlns:rdf="http://www.w3.org/1999/02/22-rdf-syntax-ns#"
   xmlns:svg="http://www.w3.org/2000/svg"
   xmlns="http://www.w3.org/2000/svg"
   xmlns:xlink="http://www.w3.org/1999/xlink"
   id="svg7916"
   version="1.1"
   viewBox="0 0 132.50333 39.131874"
   height="147.89999"
   width="500.79999">
  <defs
     id="defs7910">
    <linearGradient
       xlink:href="#a"
       y2="315.49301"
       x2="3958.042"
       y1="389.05701"
       x1="3968.6411"
       id="f" />
    <linearGradient
       gradientUnits="userSpaceOnUse"
       gradientTransform="matrix(-1,0,0,1,5113,0)"
       y2="1232.389"
       x2="3496.207"
       y1="1163.078"
       x1="3484.449"
       id="a">
      <stop
         id="stop4"
         stop-color="#574ace"
         offset="0" />
      <stop
         id="stop6"
         stop-color="#8543ff"
         offset="1" />
    </linearGradient>
    <linearGradient
       xlink:href="#a"
       y2="314.21201"
       x2="3763.0229"
       y1="392.638"
       x1="3753.0239"
       id="e" />
    <linearGradient
       xlink:href="#a"
       y2="383.457"
       x2="3854.78"
       y1="306.76599"
       x1="3841.77"
       id="d" />
  </defs>
  <metadata
     id="metadata7913">
    <rdf:RDF>
      <cc:Work
         rdf:about="">
        <dc:format>image/svg+xml</dc:format>
        <dc:type
           rdf:resource="http://purl.org/dc/dcmitype/StillImage" />
        <dc:title></dc:title>
      </cc:Work>
    </rdf:RDF>
  </metadata>
  <g
     transform="translate(-72.707498,-81.642396)"
     id="layer1">
    <polygon
       style="fill:url(#d)"
       id="polygon116"
       points="1333.691,296.682 1169.05,315.247 1142.728,399.101 1348.142,400.648 1365.545,415.962 "
       class="h"
       transform="matrix(0.26458333,0,0,0.26458333,-225.9412,6.2562554)" />
    <polygon
       style="fill:url(#e)"
       id="polygon118"
       points="1333.691,296.682 1365.545,415.962 1379.151,432.824 1350.367,284.924 "
       class="i"
       transform="matrix(0.26458333,0,0,0.26458333,-225.9412,6.2562554)" />
    <polygon
       style="fill:#8543ff"
       id="polygon120"
       points="1141.658,310.241 1350.367,284.924 1333.691,296.682 1169.05,315.247 "
       class="e"
       transform="matrix(0.26458333,0,0,0.26458333,-225.9412,6.2562554)" />
    <polygon
       style="fill:url(#f)"
       id="polygon122"
       points="1142.728,399.101 1169.05,315.247 1141.658,310.241 1128.751,409.931 "
       class="j"
       transform="matrix(0.26458333,0,0,0.26458333,-225.9412,6.2562554)" />
    <polygon
       style="fill:#574ace"
       id="polygon124"
       points="1142.728,399.101 1348.142,400.648 1365.545,415.962 1379.151,432.824 1331.675,406.641 1130.755,408.378 "
       class="g"
       transform="matrix(0.26458333,0,0,0.26458333,-225.9412,6.2562554)" />
    <path
       style="fill:#ffffff;stroke-width:0.26458332"
       id="path1034"
       d="m 87.566502,101.52901 v -5.615782 l -1.691481,0.623094 v -0.759354 l 2.409825,-0.904875 h 0.132291 v 6.657177 z"
       class="aj" />
    <path
       style="fill:#ffffff;stroke-width:0.26458332"
       id="path1036"
       d="m 91.52705,102.09284 a 2.1002625,2.1002625 0 0 1 -0.586581,0.75485 l -0.481807,-0.32729 a 2.6487437,2.6487437 0 0 0 0.336286,-0.62759 1.9624146,1.9624146 0 0 0 0.113771,-0.6731 v -0.68791 h 0.832114 v 0.6731 a 2.07645,2.07645 0 0 1 -0.213783,0.88794 z"
       class="aj" />
    <path
       style="fill:#ffffff;stroke-width:0.26458332"
       id="path1038"
       d="m 92.713971,101.52901 v -0.60034 l 2.169583,-2.414588 a 8.9632896,8.9632896 0 0 0 0.622829,-0.756973 2.3651104,2.3651104 0 0 0 0.306917,-0.555625 1.5187083,1.5187083 0 0 0 0.08864,-0.516202 1.3192125,1.3192125 0 0 0 -0.136525,-0.602456 1.0345208,1.0345208 0 0 0 -0.396875,-0.427302 1.1625792,1.1625792 0 0 0 -0.613833,-0.156898 1.2633854,1.2633854 0 0 0 -0.982133,0.3683 1.4062604,1.4062604 0 0 0 -0.33655,0.986631 h -0.850371 a 2.1388917,2.1388917 0 0 1 0.250031,-1.031875 1.8110729,1.8110729 0 0 1 0.740833,-0.734483 2.6886958,2.6886958 0 0 1 2.241815,-0.05001 1.6139583,1.6139583 0 0 1 0.691092,0.620712 1.7637125,1.7637125 0 0 1 0.241035,0.927629 2.2502813,2.2502813 0 0 1 -0.334169,1.125538 6.8836646,6.8836646 0 0 1 -0.907256,1.202796 l -1.772708,1.931456 h 3.319462 v 0.6821 z"
       class="aj" />
    <path
       style="fill:#ffffff;stroke-width:0.26458332"
       id="path1040"
       d="m 102.33131,100.86517 a 1.7065625,1.7065625 0 0 0 0.78661,-0.20002 1.3123333,1.3123333 0 0 0 0.52308,-0.5252 1.6404167,1.6404167 0 0 0 0.18521,-0.802484 v -2.487084 h -3.30597 v -0.677598 h 4.15157 v 3.14669 a 2.2600708,2.2600708 0 0 1 -0.28866,1.161786 1.9579167,1.9579167 0 0 1 -0.81862,0.76385 2.8014083,2.8014083 0 0 1 -1.23454,0.28416 z m -1.70524,-1.345936 a 2.6794354,2.6794354 0 0 1 0.0614,-0.645583 2.7252083,2.7252083 0 0 1 0.17516,-0.47625 h 0.69109 a 2.5585208,2.5585208 0 0 0 -0.0841,0.454819 q -0.0249,0.250031 -0.0251,0.618331 v 3.951549 h -0.81836 z"
       class="aj" />
    <path
       style="fill:#ffffff;stroke-width:0.26458332"
       id="path1042"
       d="m 107.34014,101.36073 a 1.8888604,1.8888604 0 0 1 -0.75274,-0.75485 2.2984354,2.2984354 0 0 1 -0.26829,-1.127656 V 96.17252 h 0.84111 v 3.364971 a 1.6322146,1.6322146 0 0 0 0.1614,0.743479 1.1951229,1.1951229 0 0 0 0.45482,0.49795 1.3829771,1.3829771 0 0 0 1.35493,0 1.1959167,1.1959167 0 0 0 0.45482,-0.49795 1.6322146,1.6322146 0 0 0 0.16139,-0.743479 v -1.796257 a 1.04775,1.04775 0 0 0 -0.19314,-0.675216 0.66489792,0.66489792 0 0 0 -0.54796,-0.238125 1.5300854,1.5300854 0 0 0 -0.65484,0.172773 l -0.13229,-0.563827 a 2.0272375,2.0272375 0 0 1 0.50271,-0.229659 1.8100146,1.8100146 0 0 1 0.52916,-0.08414 1.3382625,1.3382625 0 0 1 0.71623,0.185208 1.2038542,1.2038542 0 0 1 0.46381,0.536575 1.9616208,1.9616208 0 0 1 0.1614,0.827617 v 1.805252 a 2.3132521,2.3132521 0 0 1 -0.26591,1.127658 1.8766896,1.8766896 0 0 1 -0.74797,0.75485 2.4709437,2.4709437 0 0 1 -2.23944,0 z"
       class="aj" />
    <path
       style="fill:#ffffff;stroke-width:0.26458332"
       id="path1044"
       d="m 112.42622,98.123293 a 2.1182542,2.1182542 0 0 1 0.21167,-0.702469 1.4927792,1.4927792 0 0 1 0.38894,-0.506942 q 0.018,-0.01349 0.091,-0.06376 l -0.009,-0.01376 q -0.20453,0.03651 -0.51171,0.115888 -0.30718,0.07937 -0.56144,0.165894 l -0.19553,-0.636588 a 7.6551896,7.6551896 0 0 1 1.18216,-0.295539 7.0892458,7.0892458 0 0 1 1.20518,-0.113771 2.2277917,2.2277917 0 0 1 1.65285,0.575204 q 0.5707,0.575204 0.5752,1.689365 v 3.192195 h -2.2053 v -0.67759 h 1.36419 v -2.610123 a 1.6155458,1.6155458 0 0 0 -0.32279,-1.086908 1.1718396,1.1718396 0 0 0 -0.93689,-0.372798 0.93794792,0.93794792 0 0 0 -0.7366,0.338666 1.6589375,1.6589375 0 0 0 -0.36327,0.919957 l -0.40455,3.487736 h -0.83211 z"
       class="aj" />
    <path
       style="fill:#ffffff;stroke-width:0.26458332"
       id="path1046"
       d="m 117.41891,101.52001 0.0228,-0.65934 a 3.3969854,3.3969854 0 0 0 0.66384,0.059 0.70246875,0.70246875 0 0 0 0.55933,-0.21378 0.98398542,0.98398542 0 0 0 0.18521,-0.65934 v -3.196963 h -1.0504 v -0.677598 h 1.89627 v 3.942291 a 1.5710958,1.5710958 0 0 1 -0.3638,1.12078 1.3716,1.3716 0 0 1 -1.0459,0.38417 4.0023521,4.0023521 0 0 1 -0.8673,-0.0992 z"
       class="aj" />
    <path
       style="fill:#ffffff;stroke-width:0.26458332"
       id="path1048"
       d="m 121.75252,96.849589 h -0.98213 v -0.677598 h 1.828 v 2.98741 h -0.84666 z"
       class="aj" />
    <path
       style="fill:#ffffff;stroke-width:0.26458332"
       id="path1050"
       d="m 125.19237,101.32105 a 2.1068771,2.1068771 0 0 1 -0.79798,-0.86387 2.8191354,2.8191354 0 0 1 -0.29105,-1.289048 v -0.545835 a 2.5423812,2.5423812 0 0 1 0.0976,-0.695854 2.3775458,2.3775458 0 0 1 0.27067,-0.620713 1.3671021,1.3671021 0 0 1 0.39106,-0.420687 0.238125,0.238125 0 0 1 0.0635,-0.03625 l -0.004,-0.01376 a 8.1346146,8.1346146 0 0 0 -0.95938,0.222779 l -0.16378,-0.636588 a 8.3079167,8.3079167 0 0 1 1.20042,-0.254529 8.7616771,8.7616771 0 0 1 1.23242,-0.09552 2.6492729,2.6492729 0 0 1 1.28456,0.293423 1.9894021,1.9894021 0 0 1 0.82761,0.846667 2.8074937,2.8074937 0 0 1 0.28866,1.316302 v 0.641086 a 2.8170187,2.8170187 0 0 1 -0.28178,1.289047 2.0706292,2.0706292 0 0 1 -0.79586,0.86387 2.2693312,2.2693312 0 0 1 -1.18666,0.30691 2.2399625,2.2399625 0 0 1 -1.17554,-0.30744 z m 1.92352,-0.62283 a 1.4004396,1.4004396 0 0 0 0.50271,-0.61172 2.2150917,2.2150917 0 0 0 0.17727,-0.91387 v -0.636587 a 2.2561021,2.2561021 0 0 0 -0.17965,-0.934509 1.3623396,1.3623396 0 0 0 -0.51382,-0.608541 1.4353646,1.4353646 0 0 0 -0.78423,-0.211667 1.2057062,1.2057062 0 0 0 -0.71173,0.2159 1.3980583,1.3980583 0 0 0 -0.47625,0.622829 2.5775708,2.5775708 0 0 0 -0.17965,0.957263 v 0.595577 a 2.2150917,2.2150917 0 0 0 0.17727,0.913875 1.4120812,1.4120812 0 0 0 0.49795,0.61171 1.2988396,1.2988396 0 0 0 0.74348,0.2159 1.3205354,1.3205354 0 0 0 0.74665,-0.2151 z"
       class="aj" />
  </g>
</svg>
