<?xml version="1.0" encoding="UTF-8" standalone="no"?>
<svg
   xmlns:dc="http://purl.org/dc/elements/1.1/"
   xmlns:cc="http://creativecommons.org/ns#"
   xmlns:rdf="http://www.w3.org/1999/02/22-rdf-syntax-ns#"
   xmlns:svg="http://www.w3.org/2000/svg"
   xmlns="http://www.w3.org/2000/svg"
   xmlns:xlink="http://www.w3.org/1999/xlink"
   id="svg7283"
   version="1.1"
   viewBox="0 0 88.763476 74.217743"
   height="280.508"
   width="335.48401">
  <defs
     id="defs7277">
    <linearGradient
       xlink:href="#j"
       y2="1718.413"
       x2="1803.61"
       y1="1718.413"
       x1="1762.661"
       id="o" />
    <linearGradient
       gradientUnits="userSpaceOnUse"
       y2="963.46698"
       x2="2617.0591"
       y1="1079.265"
       x1="2618.332"
       id="j">
      <stop
         style="stop-color:#d643ff;stop-opacity:1"
         id="stop17"
         stop-color="#a1e2ff"
         offset="0" />
      <stop
         style="stop-color:#c700ff;stop-opacity:1"
         id="stop19"
         stop-color="#69b2f9"
         offset="1" />
    </linearGradient>
    <linearGradient
       xlink:href="#j"
       y2="1736.765"
       x2="1970.243"
       y1="1594.245"
       x1="1956.246"
       id="n" />
    <linearGradient
       xlink:href="#j"
       y2="1596.8199"
       x2="1863.369"
       y1="1712.618"
       x1="1864.641"
       id="m" />
  </defs>
  <metadata
     id="metadata7280">
    <rdf:RDF>
      <cc:Work
         rdf:about="">
        <dc:format>image/svg+xml</dc:format>
        <dc:type
           rdf:resource="http://purl.org/dc/dcmitype/StillImage" />
        <dc:title></dc:title>
      </cc:Work>
    </rdf:RDF>
  </metadata>
  <g
     transform="translate(-32.582702,-93.58161)"
     id="layer1">
    <polygon
       style="fill:url(#m)"
       id="polygon146"
       points="1803.61,1821.789 1819.924,1755.197 1953.537,1746.712 1945.902,1586.376 1774.977,1608.624 "
       class="s"
       transform="matrix(0.26458333,0,0,0.26458333,-400.2407,-321.28611)" />
    <polygon
       style="fill:#c700ff;fill-opacity:1"
       id="polygon148"
       points="1953.537,1746.712 1819.924,1755.197 1803.61,1821.789 1803.61,1848.512 1830.104,1767.072 1971.352,1760.709 "
       class="o"
       transform="matrix(0.26458333,0,0,0.26458333,-400.2407,-321.28611)" />
    <polygon
       style="fill:url(#n)"
       id="polygon150"
       points="1971.352,1568.004 1971.352,1760.709 1953.537,1746.712 1945.902,1586.376 "
       class="t"
       transform="matrix(0.26458333,0,0,0.26458333,-400.2407,-321.28611)" />
    <polygon
       style="fill:#d643ff;fill-opacity:1"
       id="polygon152"
       points="1762.661,1588.314 1971.352,1568.004 1945.902,1586.376 1774.977,1608.624 "
       class="q"
       transform="matrix(0.26458333,0,0,0.26458333,-400.2407,-321.28611)" />
    <polygon
       style="fill:url(#o)"
       id="polygon154"
       points="1774.977,1608.624 1762.661,1588.314 1803.61,1848.512 1803.61,1821.789 "
       class="u"
       transform="matrix(0.26458333,0,0,0.26458333,-400.2407,-321.28611)" />
    <path
       style="fill:#ffffff;stroke-width:0.26458332"
       id="path302"
       d="m 82.128049,118.99415 -2.619375,6.43281 h -1.2065 l 2.588948,-6.23887 h -4.190206 v -3.07393 h 1.121569 v 2.16958 h 4.30477 z"
       class="aj" />
    <path
       style="fill:#ffffff;stroke-width:0.26458332"
       id="path304"
       d="m 84.013735,119.18756 h -0.830527 v -0.90329 h 1.957916 v 7.14216 H 84.01347 Z"
       class="aj" />
    <path
       style="fill:#ffffff;stroke-width:0.26458332"
       id="path306"
       d="m 86.728624,125.20868 0.182034,-0.8427 a 6.6410417,6.6410417 0 0 0 1.709737,0.26062 2.1844,2.1844 0 0 0 1.54305,-0.49398 1.8393833,1.8393833 0 0 0 0.53049,-1.41578 v -3.52928 h -3.716602 v -0.90329 h 4.838435 v 4.18941 q 0,1.5158 -0.80645,2.28574 -0.80645,0.76994 -2.243402,0.76994 a 7.46125,7.46125 0 0 1 -2.037292,-0.32068 z"
       class="aj" />
    <path
       style="fill:#ffffff;stroke-width:0.26458332"
       id="path308"
       d="m 95.102687,124.15987 a 6.7426417,6.7426417 0 0 0 1.224756,0.38815 5.7745312,5.7745312 0 0 0 1.224492,0.13943 4.4995042,4.4995042 0 0 0 1.558131,-0.25162 2.3394458,2.3394458 0 0 0 1.079234,-0.76385 2.0108333,2.0108333 0 0 0 0.39397,-1.26418 v -4.12274 h 1.0914 v 4.22593 a 2.6778479,2.6778479 0 0 1 -0.54266,1.70074 3.2625771,3.2625771 0 0 1 -1.464202,1.03981 5.8343271,5.8343271 0 0 1 -2.061369,0.34555 8.3058,8.3058 0 0 1 -1.819011,-0.20929 8.207375,8.207375 0 0 1 -1.776412,-0.61542 v -6.48732 h 1.091406 z m 2.055283,-1.35493 a 3.6374917,3.6374917 0 0 0 0.115358,-0.96705 v -3.55283 h 1.097227 v 3.3528 a 3.4358792,3.4358792 0 0 1 -0.151606,1.07606 1.984375,1.984375 0 0 1 -0.466989,0.7792 l -0.933715,-0.0363 a 1.5216187,1.5216187 0 0 0 0.339725,-0.6522 z"
       class="aj" />
    <path
       style="fill:#ffffff;stroke-width:0.26458332"
       id="path310"
       d="m 107.86539,122.30461 2.2614,3.12209 h -1.25492 l -3.1832,-4.3897 q -0.64876,0.4064 -0.64876,1.39461 v 2.99509 h -1.09141 v -2.58789 a 3.2146875,3.2146875 0 0 1 0.31539,-1.51871 2.0195646,2.0195646 0 0 1 0.97604,-0.89429 l -1.54622,-2.14022 h 1.26127 l 2.21297,3.05568 1.72191,-3.05568 h 1.26735 z"
       class="aj" />
  </g>
</svg>
