<?xml version="1.0" encoding="UTF-8" standalone="no"?>
<svg
   xmlns:dc="http://purl.org/dc/elements/1.1/"
   xmlns:cc="http://creativecommons.org/ns#"
   xmlns:rdf="http://www.w3.org/1999/02/22-rdf-syntax-ns#"
   xmlns:svg="http://www.w3.org/2000/svg"
   xmlns="http://www.w3.org/2000/svg"
   xmlns:xlink="http://www.w3.org/1999/xlink"
   id="svg2579"
   version="1.1"
   viewBox="0 0 88.764001 74.218534"
   height="280.51099"
   width="335.48599">
  <defs
     id="defs2573">
    <linearGradient
       xlink:href="#ak"
       y2="1451.5031"
       x2="1919.999"
       y1="1451.5031"
       x1="1879.049"
       id="am" />
    <linearGradient
       gradientUnits="userSpaceOnUse"
       y2="1329.908"
       x2="1979.7581"
       y1="1445.707"
       x1="1981.03"
       id="ak">
      <stop
         id="stop58"
         stop-color="#5e91ff"
         offset="0" />
      <stop
         id="stop60"
         stop-color="#1a65d3"
         offset="1" />
    </linearGradient>
    <linearGradient
       xlink:href="#ak"
       y2="1469.855"
       x2="2086.6331"
       y1="1327.334"
       x1="2072.636"
       id="al" />
    <linearGradient
       y2="1329.908"
       x2="1979.7581"
       y1="1445.707"
       x1="1981.03"
       gradientUnits="userSpaceOnUse"
       id="linearGradient773"
       xlink:href="#ak" />
  </defs>
  <metadata
     id="metadata2576">
    <rdf:RDF>
      <cc:Work
         rdf:about="">
        <dc:format>image/svg+xml</dc:format>
        <dc:type
           rdf:resource="http://purl.org/dc/dcmitype/StillImage" />
        <dc:title></dc:title>
      </cc:Work>
    </rdf:RDF>
  </metadata>
  <g
     transform="translate(-30.314577,-103.40859)"
     id="layer1">
    <polygon
       style="fill:url(#linearGradient773)"
       id="polygon275"
       points="2069.927,1479.802 2062.291,1319.465 1891.366,1341.713 1919.999,1554.88 1936.312,1488.287 "
       class="ar"
       transform="matrix(0.26458333,0,0,0.26458333,-433.30315,-240.83866)" />
    <polygon
       style="fill:#1a65d3"
       id="polygon277"
       points="1919.999,1554.88 1919.999,1581.603 1946.493,1500.162 2087.742,1493.799 2069.927,1479.802 1936.312,1488.287 "
       class="as"
       transform="matrix(0.26458333,0,0,0.26458333,-433.30315,-240.83866)" />
    <polygon
       style="fill:url(#al)"
       id="polygon279"
       points="2069.927,1479.802 2062.291,1319.465 2087.742,1301.092 2087.742,1493.799 "
       class="at"
       transform="matrix(0.26458333,0,0,0.26458333,-433.30315,-240.83866)" />
    <polygon
       style="fill:#5e91ff"
       id="polygon281"
       points="2062.291,1319.465 1891.366,1341.713 1879.049,1321.403 2087.742,1301.092 "
       class="au"
       transform="matrix(0.26458333,0,0,0.26458333,-433.30315,-240.83866)" />
    <polygon
       style="fill:url(#am)"
       id="polygon283"
       points="1919.999,1581.603 1919.999,1554.88 1891.366,1341.713 1879.049,1321.403 "
       class="av"
       transform="matrix(0.26458333,0,0,0.26458333,-433.30315,-240.83866)" />
    <circle
       style="fill:#ffffff;stroke-width:0.26458332"
       id="circle509"
       r="3.0739291"
       cy="129.77272"
       cx="89.779686"
       class="p" />
    <rect
       style="fill:#ffffff;stroke-width:0.26458332"
       id="rect511"
       ry="1.7020646"
       rx="1.7020646"
       height="8.4425898"
       width="11.527367"
       y="133.44382"
       x="84.015732"
       class="p" />
    <rect
       style="fill:#ffffff;stroke-width:0.26458332"
       id="rect513"
       ry="0.8628062"
       rx="0.8628062"
       height="7.4477563"
       width="2.1918085"
       y="136.52861"
       x="84.015732"
       class="p" />
    <rect
       style="fill:#ffffff;stroke-width:0.26458332"
       id="rect515"
       transform="scale(-1)"
       ry="0.8628062"
       rx="0.8628062"
       height="7.4477563"
       width="2.1918085"
       y="-143.97635"
       x="-95.543388"
       class="p" />
    <polygon
       style="fill:#ffffff"
       id="polygon517"
       points="1977.006,1446.52 1966.541,1446.52 1961.673,1471.917 1977.006,1471.917 1992.338,1471.917 1987.471,1446.52 "
       class="p"
       transform="matrix(0.26458333,0,0,0.26458333,-433.30315,-240.83866)" />
    <path
       style="fill:#ffffff;stroke-width:0.26458332"
       id="path519"
       d="m 70.482306,119.47754 h 3.561821 v 4.46484 h -3.561821 z m 2.86094,3.89546 v -3.33084 h -2.160059 v 3.33084 z"
       class="p" />
    <path
       style="fill:#ffffff;stroke-width:0.26458332"
       id="path521"
       d="m 75.757039,120.04216 h -0.81862 v -0.56462 h 1.523206 v 2.48946 h -0.70485 z"
       class="p" />
    <path
       style="fill:#ffffff;stroke-width:0.26458332"
       id="path523"
       d="m 78.439914,123.14863 a 4.2026417,4.2026417 0 0 0 0.76544,0.24236 3.6094458,3.6094458 0 0 0 0.76544,0.0873 2.8117271,2.8117271 0 0 0 0.973931,-0.15743 1.4607646,1.4607646 0 0 0 0.674423,-0.47625 1.2570354,1.2570354 0 0 0 0.246327,-0.79005 v -2.57651 h 0.682096 v 2.64107 a 1.6737542,1.6737542 0 0 1 -0.339196,1.0631 2.0412604,2.0412604 0 0 1 -0.915194,0.64982 3.6478104,3.6478104 0 0 1 -1.288256,0.2159 5.1972104,5.1972104 0 0 1 -1.137708,-0.13071 5.1427062,5.1427062 0 0 1 -1.11125,-0.3847 v -4.05448 h 0.682095 z m 1.284553,-0.84667 a 2.2754167,2.2754167 0 0 0 0.07197,-0.60431 v -2.22064 h 0.6858 v 2.0955 a 2.143125,2.143125 0 0 1 -0.09472,0.67257 1.2435417,1.2435417 0 0 1 -0.291041,0.48709 l -0.583671,-0.0228 a 0.9509125,0.9509125 0 0 0 0.211137,-0.40745 z"
       class="p" />
    <path
       style="fill:#ffffff;stroke-width:0.26458332"
       id="path525"
       d="m 83.460912,123.93391 0.01905,-0.54954 a 2.8328937,2.8328937 0 0 0 0.553244,0.0495 0.58525833,0.58525833 0 0 0 0.466196,-0.17833 0.82020833,0.82020833 0 0 0 0.15531,-0.54927 v -2.66383 h -0.875241 v -0.56462 h 1.580091 v 3.28533 a 1.3086292,1.3086292 0 0 1 -0.303212,0.93398 1.143,1.143 0 0 1 -0.871538,0.32015 3.3353375,3.3353375 0 0 1 -0.7239,-0.0833 z"
       class="p" />
    <path
       style="fill:#ffffff;stroke-width:0.26458332"
       id="path527"
       d="m 88.997054,120.04216 h -0.818621 v -0.56462 h 1.523206 v 2.48946 h -0.70485 z"
       class="p" />
    <path
       style="fill:#ffffff;stroke-width:0.26458332"
       id="path529"
       d="m 94.143729,119.90007 a 1.7129125,1.7129125 0 0 1 0.437621,1.28641 v 2.7559 h -0.701146 l -0.0037,-2.79638 a 1.1943292,1.1943292 0 0 0 -0.248179,-0.84138 1.0633604,1.0633604 0 0 0 -0.801423,-0.26141 h -0.632884 a 1.7703271,1.7703271 0 0 0 -0.198966,0.52467 2.917825,2.917825 0 0 0 -0.07382,0.65749 v 1.50442 a 1.3348229,1.3348229 0 0 1 -0.291042,0.93213 1.0940521,1.0940521 0 0 1 -0.848783,0.3175 3.6980812,3.6980812 0 0 1 -0.435769,-0.0341 v -0.56489 a 2.0682479,2.0682479 0 0 0 0.261409,0.0154 0.60668958,0.60668958 0 0 0 0.479425,-0.17065 0.80221667,0.80221667 0 0 0 0.149754,-0.5379 v -1.4097 a 2.6749375,2.6749375 0 0 1 0.09102,-0.68792 1.5184437,1.5184437 0 0 1 0.250032,-0.54742 h -0.837671 v -0.56462 h 2.080419 a 1.8412354,1.8412354 0 0 1 1.32371,0.42254 z"
       class="p" />
    <path
       style="fill:#ffffff;stroke-width:0.26458332"
       id="path531"
       d="m 96.056667,120.04216 h -0.519113 v -0.56462 h 1.223963 v 4.46484 h -0.70485 z"
       class="p" />
    <path
       style="fill:#ffffff;stroke-width:0.26458332"
       id="path533"
       d="m 99.974881,120.82665 a 0.76729167,0.76729167 0 0 0 -0.214048,-0.57415 0.79904167,0.79904167 0 0 0 -0.585523,-0.21034 h -1.500452 v -0.56462 h 1.523206 a 1.7526,1.7526 0 0 1 0.791898,0.16668 1.1673417,1.1673417 0 0 1 0.509848,0.48128 1.5195021,1.5195021 0 0 1 0.17622,0.75406 v 3.06282 h -0.700884 z"
       class="p" />
    <path
       style="fill:#ffffff;stroke-width:0.26458332"
       id="path535"
       d="m 102.28258,120.04216 h -0.81862 v -0.56462 h 1.5232 v 2.48946 h -0.70485 z"
       class="p" />
    <path
       style="fill:#ffffff;stroke-width:0.26458332"
       id="path537"
       d="m 104.96519,123.14863 a 4.2026417,4.2026417 0 0 0 0.76544,0.24236 3.6094458,3.6094458 0 0 0 0.76544,0.0873 2.8117271,2.8117271 0 0 0 0.97393,-0.15743 1.4607646,1.4607646 0 0 0 0.67442,-0.47625 1.2570354,1.2570354 0 0 0 0.24633,-0.79005 v -2.57651 h 0.68209 v 2.64107 a 1.6737542,1.6737542 0 0 1 -0.33919,1.0631 2.0412604,2.0412604 0 0 1 -0.9152,0.64982 3.6478104,3.6478104 0 0 1 -1.28825,0.2159 5.1972104,5.1972104 0 0 1 -1.13771,-0.13071 5.1427062,5.1427062 0 0 1 -1.11125,-0.3847 v -4.05448 h 0.68209 z m 1.28455,-0.84667 a 2.2754167,2.2754167 0 0 0 0.072,-0.60431 v -2.22064 h 0.6858 v 2.0955 a 2.143125,2.143125 0 0 1 -0.0947,0.67257 1.2435417,1.2435417 0 0 1 -0.29104,0.48709 l -0.58367,-0.0228 a 0.9509125,0.9509125 0 0 0 0.21193,-0.40745 z"
       class="p" />
  </g>
</svg>
