<?xml version="1.0" encoding="UTF-8" standalone="no"?>
<svg
   xmlns:dc="http://purl.org/dc/elements/1.1/"
   xmlns:cc="http://creativecommons.org/ns#"
   xmlns:rdf="http://www.w3.org/1999/02/22-rdf-syntax-ns#"
   xmlns:svg="http://www.w3.org/2000/svg"
   xmlns="http://www.w3.org/2000/svg"
   xmlns:xlink="http://www.w3.org/1999/xlink"
   id="svg8010"
   version="1.1"
   viewBox="0 0 165.10688 66.17494"
   height="250.11"
   width="624.026">
  <defs
     id="defs8004">
    <linearGradient
       xlink:href="#d"
       gradientTransform="matrix(-1,0,0,1,3365,0)"
       y2="740.771"
       x2="87.420998"
       y1="740.771"
       x1="60.199001"
       id="al" />
    <linearGradient
       gradientUnits="userSpaceOnUse"
       gradientTransform="rotate(180,1703.257,-4278.2355)"
       y2="-9994.8818"
       x2="1667.75"
       y1="-10032.238"
       x1="1667.75"
       id="d">
      <stop
         id="stop17"
         stop-color="#fa642e"
         offset="0" />
      <stop
         id="stop19"
         stop-color="#ffab50"
         offset="1" />
    </linearGradient>
    <linearGradient
       xlink:href="#d"
       gradientTransform="matrix(-1,0,0,1,3365,0)"
       y2="664.31403"
       x2="344.76199"
       y1="844.46399"
       x1="358.13901"
       id="ak" />
    <linearGradient
       xlink:href="#d"
       gradientTransform="matrix(-1,0,0,1,3365,0)"
       y2="778.995"
       x2="214.34"
       y1="679.70801"
       x1="229.54601"
       id="aj" />
  </defs>
  <metadata
     id="metadata8007">
    <rdf:RDF>
      <cc:Work
         rdf:about="">
        <dc:format>image/svg+xml</dc:format>
        <dc:type
           rdf:resource="http://purl.org/dc/dcmitype/StillImage" />
        <dc:title></dc:title>
      </cc:Work>
    </rdf:RDF>
  </metadata>
  <g
     transform="translate(32.359925,-75.680389)"
     id="layer1">
    <polygon
       style="fill:url(#aj)"
       id="polygon292"
       points="3031.348,658.922 3017.322,843.761 3058.621,799.114 3289.267,791.97 3277.579,672.316 "
       class="av"
       transform="matrix(0.26458333,0,0,0.26458333,-741.6483,-93.557957)" />
    <polygon
       style="fill:#ffab50"
       id="polygon294"
       points="3021.678,639.641 3288.622,659.329 3277.579,672.316 3031.348,658.922 "
       class="j"
       transform="matrix(0.26458333,0,0,0.26458333,-741.6483,-93.557957)" />
    <polygon
       style="fill:url(#ak)"
       id="polygon296"
       points="3021.678,639.641 3031.348,658.922 3017.322,843.761 2992.788,889.751 "
       class="aw"
       transform="matrix(0.26458333,0,0,0.26458333,-741.6483,-93.557957)" />
    <polygon
       style="fill:#fa642e"
       id="polygon298"
       points="3304.801,822.214 3289.267,791.97 3058.621,799.114 3017.322,843.761 2992.788,889.751 3052.877,818.05 "
       class="h"
       transform="matrix(0.26458333,0,0,0.26458333,-741.6483,-93.557957)" />
    <polygon
       style="fill:url(#al)"
       id="polygon300"
       points="3277.579,672.316 3288.622,659.329 3304.801,822.214 3289.267,791.97 "
       class="ax"
       transform="matrix(0.26458333,0,0,0.26458333,-741.6483,-93.557957)" />
    <path
       style="fill:#ffffff;stroke-width:0.26458332"
       id="path302"
       d="m 70.652959,96.525591 a 1.6052271,1.6052271 0 0 1 0.24818,0.876564 1.79705,1.79705 0 0 1 -0.25453,0.97208 1.6539104,1.6539104 0 0 1 -0.698235,0.62177 2.2783271,2.2783271 0 0 1 -1.003829,0.214578 2.3600833,2.3600833 0 0 1 -0.993246,-0.203994 1.666875,1.666875 0 0 1 -0.706438,-0.591873 1.6139583,1.6139583 0 0 1 -0.261143,-0.923131 h 0.79375 a 1.1160125,1.1160125 0 0 0 0.142081,0.568589 0.95752708,0.95752708 0 0 0 0.405342,0.379942 1.3512271,1.3512271 0 0 0 0.619654,0.133879 1.190625,1.190625 0 0 0 0.855133,-0.292894 1.1340042,1.1340042 0 0 0 0.307711,-0.861483 1.0292292,1.0292292 0 0 0 -0.346075,-0.846667 1.4816667,1.4816667 0 0 0 -0.961232,-0.282046 h -0.5588 v -0.637381 h 0.560388 a 1.4919854,1.4919854 0 0 0 0.668337,-0.135996 0.92604167,0.92604167 0 0 0 0.409575,-0.377825 1.1083396,1.1083396 0 0 0 0.135732,-0.551656 1.1223625,1.1223625 0 0 0 -0.269611,-0.8128 1.0715625,1.0715625 0 0 0 -0.804069,-0.277812 1.2345458,1.2345458 0 0 0 -0.582083,0.132291 0.9604375,0.9604375 0 0 0 -0.390525,0.370417 1.0959042,1.0959042 0 0 0 -0.139965,0.56224 h -0.79375 a 1.6139583,1.6139583 0 0 1 0.239713,-0.861484 1.6777229,1.6777229 0 0 1 0.672571,-0.615421 2.124075,2.124075 0 0 1 0.993246,-0.224895 2.2719771,2.2719771 0 0 1 0.984514,0.199495 1.470025,1.470025 0 0 1 0.651669,0.591873 1.8483792,1.8483792 0 0 1 0.231246,0.9525 1.3163021,1.3163021 0 0 1 -0.105834,0.500857 1.5229417,1.5229417 0 0 1 -0.324643,0.483658 1.6184562,1.6184562 0 0 1 -0.541338,0.360892 1.4390687,1.4390687 0 0 1 0.816504,0.575733 z"
       class="l" />
    <path
       style="fill:#ffffff;stroke-width:0.26458332"
       id="path304"
       d="M 77.297441,95.989545 A 1.2832292,1.2832292 0 0 0 77.004547,95.04948 1.2964583,1.2964583 0 0 0 76.062366,94.758439 H 74.24997 v -0.632354 h 1.850496 a 2.0833292,2.0833292 0 0 1 1.482989,0.47625 1.8491729,1.8491729 0 0 1 0.502709,1.40917 v 3.11494 h -0.789253 z m -3.03874,1.430338 a 2.5505833,2.5505833 0 0 1 0.05742,-0.608542 2.4968729,2.4968729 0 0 1 0.163248,-0.447675 h 0.645054 a 2.9667729,2.9667729 0 0 0 -0.07646,0.432858 5.4697312,5.4697312 0 0 0 -0.02646,0.573088 v 1.757098 h -0.763852 z"
       class="l" />
    <path
       style="fill:#ffffff;stroke-width:0.26458332"
       id="path306"
       d="m 79.839557,95.946418 a 1.9772312,1.9772312 0 0 1 0.197379,-0.655902 1.3932958,1.3932958 0 0 1 0.362744,-0.473075 c 0.01138,-0.0085 0.03942,-0.02805 0.08493,-0.05953 l -0.0085,-0.0127 q -0.191029,0.03413 -0.47625,0.108214 -0.285221,0.07408 -0.52414,0.154781 l -0.182298,-0.593989 a 7.14375,7.14375 0 0 1 1.103577,-0.275961 6.6074396,6.6074396 0 0 1 1.124744,-0.105833 2.0790958,2.0790958 0 0 1 1.542521,0.53684 2.1608521,2.1608521 0 0 1 0.53684,1.576652 v 2.979473 h -2.058159 v -0.632355 h 1.273175 v -2.436284 a 1.508125,1.508125 0 0 0 -0.301361,-1.014148 1.0932583,1.0932583 0 0 0 -0.873125,-0.347927 0.87524167,0.87524167 0 0 0 -0.687916,0.315913 1.5478125,1.5478125 0 0 0 -0.339461,0.859631 l -0.377825,3.254375 h -0.776816 z"
       class="l" />
    <path
       style="fill:#ffffff;stroke-width:0.26458332"
       id="path308"
       d="M 85.250816,94.758174 H 84.668732 V 94.12582 h 1.370807 v 5.000625 h -0.789253 z"
       class="l" />
    <path
       style="fill:#ffffff;stroke-width:0.26458332"
       id="path310"
       d="m 89.257401,98.505733 a 1.5925271,1.5925271 0 0 0 0.733954,-0.186796 1.2239625,1.2239625 0 0 0 0.488156,-0.490273 1.53035,1.53035 0 0 0 0.174096,-0.749036 V 94.758174 H 87.568036 V 94.12582 h 3.875088 v 2.936875 a 2.1092583,2.1092583 0 0 1 -0.26961,1.084792 1.825625,1.825625 0 0 1 -0.764117,0.712787 2.6135542,2.6135542 0 0 1 -1.151996,0.264584 z m -1.591733,-1.256242 a 2.5008417,2.5008417 0 0 1 0.05741,-0.602721 2.54,2.54 0 0 1 0.163248,-0.445558 h 0.645054 a 2.36855,2.36855 0 0 0 -0.07937,0.423333 q -0.02328,0.233627 -0.02328,0.577321 v 3.688024 h -0.764117 z"
       class="l" />
    <path
       style="fill:#ffffff;stroke-width:0.26458332"
       id="path312"
       d="m 96.361728,94.622178 -1.833562,4.503209 H 93.68388 l 1.812131,-4.367213 H 92.56337 v -2.151856 h 0.785283 v 1.519502 h 3.01334 z"
       class="l" />
    <path
       style="fill:#ffffff;stroke-width:0.26458332"
       id="path314"
       d="m 103.12501,94.598895 q 0.49001,0.47334 0.49027,1.440921 v 3.085306 H 102.83 l -0.004,-3.132137 a 1.3374687,1.3374687 0 0 0 -0.27808,-0.942446 1.1924771,1.1924771 0 0 0 -0.89773,-0.292629 h -0.70882 a 1.984375,1.984375 0 0 0 -0.22304,0.587904 3.2710437,3.2710437 0 0 0 -0.0825,0.736335 v 1.684867 a 1.4951604,1.4951604 0 0 1 -0.32677,1.044046 1.2258146,1.2258146 0 0 1 -0.950643,0.356393 4.1171812,4.1171812 0 0 1 -0.488156,-0.03836 v -0.632354 a 2.3547917,2.3547917 0 0 0 0.292629,0.01693 0.68050833,0.68050833 0 0 0 0.53684,-0.191029 0.89958333,0.89958333 0 0 0 0.167746,-0.602721 v -1.578769 a 2.9897917,2.9897917 0 0 1 0.101864,-0.770202 1.7044458,1.7044458 0 0 1 0.28019,-0.613304 h -0.937944 v -0.632354 h 2.330184 q 0.99298,5.29e-4 1.48352,0.473604 z"
       class="l" />
    <path
       style="fill:#ffffff;stroke-width:0.26458332"
       id="path316"
       d="m 105.26602,94.758174 h -0.58209 V 94.12582 h 1.37081 v 5.000625 h -0.78925 z"
       class="l" />
    <path
       style="fill:#ffffff;stroke-width:0.26458332"
       id="path318"
       d="m 106.90855,99.146553 v -0.725752 a 1.6716375,1.6716375 0 0 0 0.24606,0.01693 1.4663208,1.4663208 0 0 0 0.99325,-0.370417 1.61925,1.61925 0 0 0 0.48815,-0.910167 v -2.397914 h -1.12897 v -0.632355 h 1.905 v 2.580217 a 3.571875,3.571875 0 0 0 0.0794,0.764117 l 0.34792,1.655233 h -0.74295 l -0.29263,-1.40044 h -0.0296 a 1.5875,1.5875 0 0 1 -0.28442,0.708819 1.7306396,1.7306396 0 0 1 -0.59637,0.529167 1.6216312,1.6216312 0 0 1 -0.78714,0.197114 1.1162771,1.1162771 0 0 1 -0.19764,-0.01455 z"
       class="l" />
    <path
       style="fill:#ffffff;stroke-width:0.26458332"
       id="path320"
       d="m 113.01566,95.636591 a 0.860425,0.860425 0 0 0 -0.23971,-0.642938 0.89535,0.89535 0 0 0 -0.6559,-0.235743 h -1.68064 v -0.632355 h 1.70604 a 1.9663833,1.9663833 0 0 1 0.88714,0.186532 1.3094229,1.3094229 0 0 1 0.57071,0.538956 1.7033875,1.7033875 0 0 1 0.19738,0.84455 v 3.429265 h -0.78528 z"
       class="l" />
    <path
       style="fill:#ffffff;stroke-width:0.26458332"
       id="path322"
       d="m 118.70685,94.12582 v 0.632354 h -0.83608 v 4.367213 h -0.78926 v -4.367213 h -2.37648 V 94.12582 Z"
       class="l" />
    <path
       style="fill:#ffffff;stroke-width:0.26458332"
       id="path324"
       d="m 120.08612,95.946418 a 1.9772312,1.9772312 0 0 1 0.19738,-0.655902 1.3932958,1.3932958 0 0 1 0.36274,-0.473075 c 0.0114,-0.0085 0.0394,-0.02805 0.0849,-0.05953 l -0.009,-0.0127 q -0.19102,0.03413 -0.47625,0.108214 -0.28522,0.07408 -0.52413,0.154781 l -0.1823,-0.593989 a 7.14375,7.14375 0 0 1 1.10357,-0.275961 6.607175,6.607175 0 0 1 1.12475,-0.105833 2.0790958,2.0790958 0 0 1 1.54252,0.53684 2.1608521,2.1608521 0 0 1 0.53684,1.576652 v 2.979473 h -2.05816 v -0.632355 h 1.27317 v -2.436284 a 1.508125,1.508125 0 0 0 -0.30136,-1.014148 1.0932583,1.0932583 0 0 0 -0.87312,-0.347927 0.87524167,0.87524167 0 0 0 -0.68792,0.315913 1.5478125,1.5478125 0 0 0 -0.33946,0.859631 l -0.37782,3.254375 h -0.77682 z"
       class="l" />
    <path
       style="fill:#ffffff;stroke-width:0.26458332"
       id="path326"
       d="m 62.109828,109.36265 a 1.9655896,1.9655896 0 0 1 -0.744537,-0.80645 2.6315458,2.6315458 0 0 1 -0.271727,-1.20333 v -0.50932 a 2.3693437,2.3693437 0 0 1 0.09154,-0.64929 2.2127104,2.2127104 0 0 1 0.252413,-0.57917 1.2789958,1.2789958 0 0 1 0.36486,-0.39264 0.23045208,0.23045208 0 0 1 0.05953,-0.0339 l -0.0042,-0.0127 a 7.5292479,7.5292479 0 0 0 -0.895614,0.20796 l -0.152665,-0.59426 a 7.7557312,7.7557312 0 0 1 1.120246,-0.23812 8.1774771,8.1774771 0 0 1 1.150408,-0.0892 2.4714729,2.4714729 0 0 1 1.198827,0.27384 1.8557875,1.8557875 0 0 1 0.772319,0.78926 2.6175229,2.6175229 0 0 1 0.26961,1.22872 v 0.59849 a 2.6296937,2.6296937 0 0 1 -0.262995,1.20332 1.9346333,1.9346333 0 0 1 -0.74295,0.80645 2.1166667,2.1166667 0 0 1 -1.107811,0.28628 2.0902083,2.0902083 0 0 1 -1.097227,-0.28601 z m 1.795198,-0.58209 a 1.3057187,1.3057187 0 0 0 0.468842,-0.5707 2.0671896,2.0671896 0 0 0 0.165629,-0.85302 v -0.59425 a 2.1034375,2.1034375 0 0 0 -0.167746,-0.87313 1.2723812,1.2723812 0 0 0 -0.479425,-0.56859 1.3401146,1.3401146 0 0 0 -0.732102,-0.19711 1.1252729,1.1252729 0 0 0 -0.664369,0.20161 1.3054542,1.3054542 0 0 0 -0.445823,0.58208 2.4047979,2.4047979 0 0 0 -0.167481,0.8935 v 0.55562 a 2.0671896,2.0671896 0 0 0 0.165365,0.85302 1.3173604,1.3173604 0 0 0 0.464873,0.57071 1.2104687,1.2104687 0 0 0 0.693737,0.20187 1.2305771,1.2305771 0 0 0 0.6985,-0.20108 z"
       class="l" />
    <path
       style="fill:#ffffff;stroke-width:0.26458332"
       id="path328"
       d="M 67.060711,105.18858 H 66.14393 v -0.63236 h 1.706298 v 2.78818 h -0.789517 z"
       class="l" />
    <path
       style="fill:#ffffff;stroke-width:0.26458332"
       id="path330"
       d="m 69.641193,106.37682 a 1.9772312,1.9772312 0 0 1 0.197379,-0.6559 1.3932958,1.3932958 0 0 1 0.362744,-0.47307 c 0.01138,-0.008 0.03942,-0.028 0.08493,-0.0595 l -0.0085,-0.0127 q -0.191029,0.0341 -0.47625,0.10821 -0.285221,0.0741 -0.524139,0.15478 l -0.182298,-0.59399 a 7.14375,7.14375 0 0 1 1.103577,-0.27596 6.607175,6.607175 0 0 1 1.124744,-0.10583 2.0790958,2.0790958 0 0 1 1.54252,0.53684 2.1608521,2.1608521 0 0 1 0.53684,1.57665 v 2.97947 h -2.058194 v -0.63235 h 1.273175 v -2.43629 a 1.508125,1.508125 0 0 0 -0.30136,-1.01414 1.0932583,1.0932583 0 0 0 -0.873125,-0.34793 0.87524167,0.87524167 0 0 0 -0.687917,0.31591 1.5478125,1.5478125 0 0 0 -0.33946,0.85963 l -0.377825,3.25438 h -0.776817 z"
       class="l" />
    <path
       style="fill:#ffffff;stroke-width:0.26458332"
       id="path332"
       d="m 75.76762,109.39863 a 1.762125,1.762125 0 0 1 -0.702469,-0.70432 2.1455062,2.1455062 0 0 1 -0.250296,-1.05278 v -3.08531 h 0.785284 v 3.14061 a 1.5221479,1.5221479 0 0 0 0.150547,0.69374 1.1154833,1.1154833 0 0 0 0.423334,0.46487 1.2919604,1.2919604 0 0 0 1.264708,0 1.1160125,1.1160125 0 0 0 0.423333,-0.46487 1.5253229,1.5253229 0 0 0 0.150548,-0.69374 v -1.67667 a 0.97895833,0.97895833 0 0 0 -0.180445,-0.63023 0.62044792,0.62044792 0 0 0 -0.51144,-0.22278 1.42875,1.42875 0 0 0 -0.611452,0.16113 l -0.123031,-0.52626 a 1.8933583,1.8933583 0 0 1 0.468841,-0.21431 1.6843375,1.6843375 0 0 1 0.494507,-0.0794 1.2488333,1.2488333 0 0 1 0.668337,0.17383 1.1242146,1.1242146 0 0 1 0.432858,0.50112 1.8288,1.8288 0 0 1 0.150548,0.77232 v 1.68487 a 2.1587354,2.1587354 0 0 1 -0.248179,1.05277 1.7512771,1.7512771 0 0 1 -0.698235,0.70433 2.3061083,2.3061083 0 0 1 -2.090209,0 z"
       class="l" />
    <path
       style="fill:#ffffff;stroke-width:0.26458332"
       id="path334"
       d="m 82.237741,106.067 a 0.860425,0.860425 0 0 0 -0.239713,-0.64294 0.89535,0.89535 0 0 0 -0.655902,-0.23575 h -1.680633 v -0.63235 h 1.706033 a 1.9663833,1.9663833 0 0 1 0.887148,0.18653 1.3094229,1.3094229 0 0 1 0.570706,0.53896 1.7033875,1.7033875 0 0 1 0.197379,0.84455 v 3.42926 h -0.785018 z"
       class="l" />
    <path
       style="fill:#ffffff;stroke-width:0.26458332"
       id="path336"
       d="m 87.238366,107.37007 1.582737,2.18572 h -0.878417 l -2.228056,-3.0726 a 1.0601854,1.0601854 0 0 0 -0.454289,0.97604 v 2.09656 h -0.763852 v -1.81239 a 2.2489583,2.2489583 0 0 1 0.220662,-1.0631 1.4144625,1.4144625 0 0 1 0.683154,-0.626 l -1.082146,-1.49808 h 0.88265 l 1.549136,2.1389 1.205177,-2.1389 h 0.887148 z"
       class="l" />
    <path
       style="fill:#ffffff;stroke-width:0.26458332"
       id="path338"
       d="m 90.254616,105.18858 h -0.582084 v -0.63236 h 1.370807 v 5.00063 h -0.788723 z"
       class="l" />
    <path
       style="fill:#ffffff;stroke-width:0.26458332"
       id="path340"
       d="m 96.272828,109.55553 v -5.2414 l -1.578769,0.58208 v -0.70881 l 2.248959,-0.84455 h 0.123296 v 6.21321 z"
       class="l" />
    <path
       style="fill:#ffffff;stroke-width:0.26458332"
       id="path342"
       d="m 99.010472,107.24677 v -0.64082 h 2.075388 v 0.64082 z"
       class="l" />
    <path
       style="fill:#ffffff;stroke-width:0.26458332"
       id="path344"
       d="m 103.20359,109.55553 h -0.83106 l 2.55085,-5.54276 h -3.3401 v -0.63659 h 4.18042 v 0.43709 z"
       class="l" />
    <path
       style="fill:#ffffff;stroke-width:0.26458332"
       id="path346"
       d="m 109.4422,105.18858 h -0.91678 v -0.63236 h 1.7063 v 2.78818 h -0.78952 z"
       class="l" />
    <path
       style="fill:#ffffff;stroke-width:0.26458332"
       id="path348"
       d="m 111.16966,109.54706 0.0212,-0.61542 a 3.1575375,3.1575375 0 0 0 0.61966,0.0553 0.65537292,0.65537292 0 0 0 0.52202,-0.1995 0.91836875,0.91836875 0 0 0 0.1741,-0.61542 v -2.98344 h -0.97949 v -0.63235 h 1.7698 v 3.67956 a 1.4665854,1.4665854 0 0 1 -0.33946,1.04616 1.2805833,1.2805833 0 0 1 -0.97605,0.35851 3.730625,3.730625 0 0 1 -0.81174,-0.0934 z"
       class="l" />
    <path
       style="fill:#ffffff;stroke-width:0.26458332"
       id="path350"
       d="m 115.06989,105.18858 h -0.58209 v -0.63236 h 1.37081 v 5.00063 h -0.78925 z"
       class="l" />
    <path
       style="fill:#ffffff;stroke-width:0.26458332"
       id="path352"
       d="m 119.45827,106.067 a 0.860425,0.860425 0 0 0 -0.23972,-0.64294 0.89535,0.89535 0 0 0 -0.6559,-0.23575 h -1.68063 v -0.63235 h 1.70603 a 1.9663833,1.9663833 0 0 1 0.88715,0.18653 1.3094229,1.3094229 0 0 1 0.5707,0.53896 1.7033875,1.7033875 0 0 1 0.19738,0.84455 v 3.42926 H 119.458 Z"
       class="l" />
    <path
       style="fill:#ffffff;stroke-width:0.26458332"
       id="path354"
       d="m 122.04298,105.18858 h -0.91678 v -0.63236 h 1.7063 v 2.78818 h -0.78952 z"
       class="l" />
    <path
       style="fill:#ffffff;stroke-width:0.26458332"
       id="path356"
       d="m 127.77677,104.55622 v 2.99562 a 2.2277917,2.2277917 0 0 1 -0.27808,1.14802 1.7893771,1.7893771 0 0 1 -0.78079,0.71729 2.6360437,2.6360437 0 0 1 -1.16416,0.24421 4.9897771,4.9897771 0 0 1 -1.77827,-0.35242 l 0.19103,-0.58553 a 4.5854937,4.5854937 0 0 0 1.32847,0.32253 1.9063229,1.9063229 0 0 1 -0.42015,-0.84455 l -0.82762,-3.64543 h 0.78925 l 0.81068,3.68776 a 4.1169167,4.1169167 0 0 0 0.11457,0.43709 1.635125,1.635125 0 0 0 0.14869,0.32676 1.349375,1.349375 0 0 0 0.79587,-0.47942 1.4885458,1.4885458 0 0 0 0.28654,-0.94641 v -3.02552 z"
       class="l" />
  </g>
</svg>
