<?xml version="1.0" encoding="UTF-8" standalone="no"?>
<!-- Created with Inkscape (http://www.inkscape.org/) -->

<svg
   xmlns:dc="http://purl.org/dc/elements/1.1/"
   xmlns:cc="http://creativecommons.org/ns#"
   xmlns:rdf="http://www.w3.org/1999/02/22-rdf-syntax-ns#"
   xmlns:svg="http://www.w3.org/2000/svg"
   xmlns="http://www.w3.org/2000/svg"
   xmlns:xlink="http://www.w3.org/1999/xlink"
   xmlns:sodipodi="http://sodipodi.sourceforge.net/DTD/sodipodi-0.dtd"
   xmlns:inkscape="http://www.inkscape.org/namespaces/inkscape"
   width="343.22198"
   height="210.737"
   viewBox="0 0 90.810814 55.757499"
   version="1.1"
   id="svg11952"
   inkscape:version="0.92.4 (5da689c313, 2019-01-14)"
   sodipodi:docname="icon2019_marker_toilet_women3_selected.svg">
  <defs
     id="defs11946">
    <linearGradient
       id="au"
       x1="3217.968"
       y1="3988.845"
       x2="3224.47"
       y2="3885.886"
       gradientTransform="matrix(0.984,-0.176,-0.176,-0.984,596.263,6729.219)"
       xlink:href="#ap" />
    <linearGradient
       id="ap"
       x1="4148.019"
       y1="2772.6909"
       x2="4148.019"
       y2="2684.366"
       gradientTransform="matrix(-0.984,-0.176,-0.176,0.984,7352.265,327.152)"
       gradientUnits="userSpaceOnUse">
      <stop
         offset="0"
         stop-color="#5e91ff"
         id="stop71"
         style="stop-color:#d643ff;stop-opacity:1" />
      <stop
         offset="1"
         stop-color="#1a65d3"
         id="stop73"
         style="stop-color:#c700ff;stop-opacity:1" />
    </linearGradient>
    <linearGradient
       id="at"
       x1="3362.563"
       y1="2551.8491"
       x2="3360.937"
       y2="2625.5449"
       gradientTransform="matrix(0.984,-0.176,0.176,0.984,-547.265,327.152)"
       xlink:href="#ap" />
    <linearGradient
       id="as"
       x1="3284.73"
       y1="2618.4919"
       x2="3284.73"
       y2="2530.166"
       gradientTransform="matrix(0.984,-0.176,0.176,0.984,-547.265,327.152)"
       xlink:href="#ap" />
  </defs>
  <sodipodi:namedview
     id="base"
     pagecolor="#ffffff"
     bordercolor="#666666"
     borderopacity="1.0"
     inkscape:pageopacity="0.0"
     inkscape:pageshadow="2"
     inkscape:zoom="0.98994949"
     inkscape:cx="20.074366"
     inkscape:cy="94.711331"
     inkscape:document-units="px"
     inkscape:current-layer="layer1"
     showgrid="false"
     units="px"
     fit-margin-top="0"
     fit-margin-left="171.611"
     fit-margin-right="0"
     fit-margin-bottom="0"
     inkscape:window-width="1920"
     inkscape:window-height="1018"
     inkscape:window-x="-8"
     inkscape:window-y="-8"
     inkscape:window-maximized="1" />
  <metadata
     id="metadata11949">
    <rdf:RDF>
      <cc:Work
         rdf:about="">
        <dc:format>image/svg+xml</dc:format>
        <dc:type
           rdf:resource="http://purl.org/dc/dcmitype/StillImage" />
        <dc:title></dc:title>
      </cc:Work>
    </rdf:RDF>
  </metadata>
  <g
     inkscape:label="Layer 1"
     inkscape:groupmode="layer"
     id="layer1"
     transform="translate(-53.600222,-113.39506)">
    <polygon
       transform="matrix(0.26458333,0,0,0.26458333,-712.60188,-458.04408)"
       class="bg"
       points="3071.253,2180.821 3093.474,2230.985 3199.924,2218.869 3216.47,2346.25 3078.691,2352.774 "
       id="polygon408"
       style="fill:url(#as)" />
    <polygon
       transform="matrix(0.26458333,0,0,0.26458333,-712.60188,-458.04408)"
       class="bc"
       points="3199.924,2218.869 3093.474,2230.985 3071.253,2180.821 3067.493,2159.77 3099.823,2220.198 3211.988,2205.335 "
       id="polygon410"
       style="fill:#d643ff;fill-opacity:1" />
    <polygon
       transform="matrix(0.26458333,0,0,0.26458333,-712.60188,-458.04408)"
       class="bh"
       points="3239.104,2357.142 3211.988,2205.335 3199.924,2218.869 3216.47,2346.25 "
       id="polygon412"
       style="fill:url(#at)" />
    <polygon
       transform="matrix(0.26458333,0,0,0.26458333,-712.60188,-458.04408)"
       class="be"
       points="3071.847,2370.507 3239.104,2357.142 3216.47,2346.25 3078.691,2352.774 "
       id="polygon414"
       style="fill:#c700ff;fill-opacity:1" />
    <polygon
       transform="matrix(0.26458333,0,0,0.26458333,-712.60188,-458.04408)"
       class="bi"
       points="3078.691,2352.774 3071.847,2370.507 3067.493,2159.77 3071.253,2180.821 "
       id="polygon416"
       style="fill:url(#au)" />
    <circle
       class="l"
       cx="117.91409"
       cy="144.82307"
       r="2.6024418"
       id="circle418"
       style="fill:#ffffff;stroke-width:0.26458332" />
    <rect
       class="l"
       x="113.03435"
       y="147.93089"
       width="9.7596855"
       height="7.1479836"
       rx="1.4411855"
       ry="1.4411855"
       id="rect420"
       style="fill:#ffffff;stroke-width:0.26458332" />
    <rect
       class="l"
       x="113.03435"
       y="150.54256"
       width="1.8557875"
       height="6.3055501"
       rx="0.73051459"
       ry="0.73051459"
       id="rect422"
       style="fill:#ffffff;stroke-width:0.26458332" />
    <rect
       class="l"
       x="-122.79383"
       y="-156.84818"
       width="1.8557875"
       height="6.3055501"
       rx="0.73051459"
       ry="0.73051459"
       transform="scale(-1)"
       id="rect424"
       style="fill:#ffffff;stroke-width:0.26458332" />
    <polygon
       transform="matrix(0.26458333,0,0,0.26458333,-712.60188,-458.04408)"
       class="l"
       points="3151.939,2338.817 3147.818,2317.315 3138.958,2317.315 3130.098,2317.315 3125.977,2338.817 3138.958,2338.817 "
       id="polygon426"
       style="fill:#ffffff" />
    <path
       class="l"
       d="m 102.47591,135.89259 h 2.84983 v 3.57188 h -2.84983 z m 2.28865,3.11627 v -2.66648 h -1.728 v 2.66462 z"
       id="path428"
       inkscape:connector-curvature="0"
       style="fill:#ffffff;stroke-width:0.26458332" />
    <path
       class="l"
       d="m 106.69601,136.34238 h -0.6551 v -0.44979 h 1.21867 v 1.99152 h -0.56383 z"
       id="path430"
       inkscape:connector-curvature="0"
       style="fill:#ffffff;stroke-width:0.26458332" />
    <path
       class="l"
       d="m 108.84205,138.82947 a 3.3771417,3.3771417 0 0 0 0.61225,0.19394 2.8897792,2.8897792 0 0 0 0.61224,0.0698 2.25425,2.25425 0 0 0 0.7792,-0.12594 1.1699875,1.1699875 0 0 0 0.53949,-0.38206 1.0054167,1.0054167 0 0 0 0.19711,-0.63209 v -2.06058 h 0.54584 v 2.11297 a 1.3406437,1.3406437 0 0 1 -0.2712,0.85037 1.6340667,1.6340667 0 0 1 -0.73237,0.5199 2.9167667,2.9167667 0 0 1 -1.03187,0.17278 4.1539583,4.1539583 0 0 1 -0.90938,-0.10584 4.1081854,4.1081854 0 0 1 -0.88794,-0.30771 v -3.24247 h 0.54557 z m 1.02791,-0.6776 a 1.825625,1.825625 0 0 0 0.0577,-0.48366 v -1.77562 h 0.54848 v 1.6764 a 1.7197917,1.7197917 0 0 1 -0.0757,0.53817 0.99509792,0.99509792 0 0 1 -0.23337,0.38946 l -0.46699,-0.018 a 0.76120625,0.76120625 0 0 0 0.16987,-0.32676 z"
       id="path432"
       inkscape:connector-curvature="0"
       style="fill:#ffffff;stroke-width:0.26458332" />
    <path
       class="l"
       d="m 112.85895,139.45706 0.0154,-0.43974 a 2.2579542,2.2579542 0 0 0 0.44265,0.0394 0.4683125,0.4683125 0 0 0 0.3728,-0.14261 0.65616667,0.65616667 0 0 0 0.12435,-0.43947 v -2.13228 h -0.70035 v -0.44979 h 1.26418 v 2.62837 a 1.0469562,1.0469562 0 0 1 -0.24262,0.74718 0.91387083,0.91387083 0 0 1 -0.69718,0.25639 2.6836687,2.6836687 0 0 1 -0.57917,-0.0675 z"
       id="path434"
       inkscape:connector-curvature="0"
       style="fill:#ffffff;stroke-width:0.26458332" />
    <path
       class="l"
       d="m 117.28808,136.34238 h -0.65511 v -0.44979 h 1.21867 v 1.99152 h -0.56383 z"
       id="path436"
       inkscape:connector-curvature="0"
       style="fill:#ffffff;stroke-width:0.26458332" />
    <path
       class="l"
       d="m 121.40632,136.22994 a 1.3705417,1.3705417 0 0 1 0.35004,1.02923 v 2.20398 h -0.56091 l -0.003,-2.23732 a 0.95488125,0.95488125 0 0 0 -0.19844,-0.67284 0.8509,0.8509 0 0 0 -0.64135,-0.20928 h -0.50612 a 1.4247812,1.4247812 0 0 0 -0.15875,0.41989 2.3405042,2.3405042 0 0 0 -0.0593,0.52599 v 1.20359 a 1.0678583,1.0678583 0 0 1 -0.23337,0.7456 0.8747125,0.8747125 0 0 1 -0.67892,0.25453 2.9710062,2.9710062 0 0 1 -0.34845,-0.0265 v -0.45218 a 1.7025937,1.7025937 0 0 0 0.20902,0.0122 0.48524583,0.48524583 0 0 0 0.38338,-0.13652 0.64267292,0.64267292 0 0 0 0.11985,-0.43048 v -1.12792 a 2.1452417,2.1452417 0 0 1 0.0725,-0.55007 1.2170833,1.2170833 0 0 1 0.20029,-0.43815 h -0.66992 v -0.45111 h 1.66423 a 1.4734646,1.4734646 0 0 1 1.05939,0.33734 z"
       id="path438"
       inkscape:connector-curvature="0"
       style="fill:#ffffff;stroke-width:0.26458332" />
    <path
       class="l"
       d="m 122.93561,136.34238 h -0.4154 v -0.44979 h 0.97896 v 3.57188 h -0.56382 z"
       id="path440"
       inkscape:connector-curvature="0"
       style="fill:#ffffff;stroke-width:0.26458332" />
    <path
       class="l"
       d="m 126.07013,136.9713 a 0.61462708,0.61462708 0 0 0 -0.17119,-0.45932 0.63949792,0.63949792 0 0 0 -0.46857,-0.16827 h -1.20042 v -0.45112 h 1.21841 a 1.4022917,1.4022917 0 0 1 0.635,0.13229 0.93609583,0.93609583 0 0 1 0.40772,0.38497 1.2189354,1.2189354 0 0 1 0.14076,0.60325 v 2.44952 h -0.56065 z"
       id="path442"
       inkscape:connector-curvature="0"
       style="fill:#ffffff;stroke-width:0.26458332" />
    <path
       class="l"
       d="m 127.91639,136.34238 h -0.65511 v -0.44979 h 1.21867 v 1.99152 h -0.56382 z"
       id="path444"
       inkscape:connector-curvature="0"
       style="fill:#ffffff;stroke-width:0.26458332" />
    <path
       class="l"
       d="m 130.06243,138.82947 a 3.3771417,3.3771417 0 0 0 0.61224,0.19394 2.8897792,2.8897792 0 0 0 0.61225,0.0698 2.25425,2.25425 0 0 0 0.7792,-0.12594 1.1699875,1.1699875 0 0 0 0.53948,-0.38206 1.0054167,1.0054167 0 0 0 0.19712,-0.63209 v -2.06058 h 0.54583 v 2.11297 a 1.3406437,1.3406437 0 0 1 -0.2712,0.85037 1.6340667,1.6340667 0 0 1 -0.73236,0.5199 2.9167667,2.9167667 0 0 1 -1.03188,0.17278 4.1539583,4.1539583 0 0 1 -0.90937,-0.10584 4.1081854,4.1081854 0 0 1 -0.88794,-0.30771 v -3.24247 h 0.54557 z m 1.0279,-0.6776 a 1.825625,1.825625 0 0 0 0.0577,-0.48366 v -1.77562 h 0.54848 v 1.6764 a 1.7197917,1.7197917 0 0 1 -0.0757,0.53817 0.99509792,0.99509792 0 0 1 -0.23336,0.38946 l -0.46699,-0.018 a 0.76120625,0.76120625 0 0 0 0.16987,-0.32676 z"
       id="path446"
       inkscape:connector-curvature="0"
       style="fill:#ffffff;stroke-width:0.26458332" />
  </g>
</svg>
