<?xml version="1.0" encoding="UTF-8" standalone="no"?>
<svg
   xmlns:dc="http://purl.org/dc/elements/1.1/"
   xmlns:cc="http://creativecommons.org/ns#"
   xmlns:rdf="http://www.w3.org/1999/02/22-rdf-syntax-ns#"
   xmlns:svg="http://www.w3.org/2000/svg"
   xmlns="http://www.w3.org/2000/svg"
   xmlns:xlink="http://www.w3.org/1999/xlink"
   id="svg1938"
   version="1.1"
   viewBox="0 0 131.83923 64.944362"
   height="245.459"
   width="498.29001">
  <defs
     id="defs1932">
    <linearGradient
       xlink:href="#d"
       gradientTransform="matrix(-1,0,0,1,4408.61,0)"
       y2="655.11499"
       x2="4011.9309"
       y1="776.30798"
       x1="4029.3911"
       id="aa" />
    <linearGradient
       gradientUnits="userSpaceOnUse"
       gradientTransform="translate(2092.39)"
       y2="919.03699"
       x2="1992.298"
       y1="804.00598"
       x1="1972.783"
       id="d">
      <stop
         id="stop17"
         stop-color="#574ace"
         offset="0" />
      <stop
         id="stop19"
         stop-color="#8543ff"
         offset="1" />
    </linearGradient>
    <linearGradient
       xlink:href="#d"
       gradientTransform="matrix(-1,0,0,1,4408.61,0)"
       y2="654.18903"
       x2="3820.7881"
       y1="783.08502"
       x1="3804.355"
       id="z" />
    <linearGradient
       xlink:href="#d"
       gradientTransform="matrix(-1,0,0,1,4408.61,0)"
       y2="762.495"
       x2="3905.2549"
       y1="647.46399"
       x1="3885.741"
       id="y" />
  </defs>
  <metadata
     id="metadata1935">
    <rdf:RDF>
      <cc:Work
         rdf:about="">
        <dc:format>image/svg+xml</dc:format>
        <dc:type
           rdf:resource="http://purl.org/dc/dcmitype/StillImage" />
        <dc:title></dc:title>
      </cc:Work>
    </rdf:RDF>
  </metadata>
  <g
     transform="translate(-63.046145,-103.50996)"
     id="layer1">
    <polygon
       style="fill:url(#y)"
       id="polygon235"
       points="384.583,795.198 588.968,797.766 606.283,823.181 574.589,625.22 410.773,656.032 "
       class="af"
       transform="matrix(0.26458333,0,0,0.26458333,-35.028545,-56.749747)" />
    <polygon
       style="fill:url(#z)"
       id="polygon237"
       points="619.821,851.165 591.182,605.706 574.589,625.22 606.283,823.181 "
       class="ag"
       transform="matrix(0.26458333,0,0,0.26458333,-35.028545,-56.749747)" />
    <polygon
       style="fill:#8543ff"
       id="polygon239"
       points="574.589,625.22 410.773,656.032 383.518,647.722 591.182,605.706 "
       class="h"
       transform="matrix(0.26458333,0,0,0.26458333,-35.028545,-56.749747)" />
    <polygon
       style="fill:url(#aa)"
       id="polygon241"
       points="383.518,647.722 370.676,813.172 384.583,795.198 410.773,656.032 "
       class="ah"
       transform="matrix(0.26458333,0,0,0.26458333,-35.028545,-56.749747)" />
    <polygon
       style="fill:#574ace"
       id="polygon243"
       points="606.283,823.181 619.821,851.165 572.583,807.711 372.67,810.594 384.583,795.198 588.968,797.766 "
       class="j"
       transform="matrix(0.26458333,0,0,0.26458333,-35.028545,-56.749747)" />
    <path
       style="fill:#ffffff;stroke-width:0.26458332"
       id="path497"
       d="m 70.51798,139.46525 v -0.80036 l 2.891896,-3.21945 a 11.932708,11.932708 0 0 0 0.830792,-1.00939 3.1485417,3.1485417 0 0 0 0.40931,-0.74083 2.0272375,2.0272375 0 0 0 0.118269,-0.68792 1.7602729,1.7602729 0 0 0 -0.181769,-0.80328 1.381125,1.381125 0 0 0 -0.527314,-0.57044 1.5507229,1.5507229 0 0 0 -0.818621,-0.20928 1.6843375,1.6843375 0 0 0 -1.309688,0.49106 1.8753667,1.8753667 0 0 0 -0.449791,1.31578 h -1.13374 a 2.8530021,2.8530021 0 0 1 0.333375,-1.37584 2.4151167,2.4151167 0 0 1 0.988219,-0.97895 3.5848396,3.5848396 0 0 1 2.989791,-0.0667 2.1500042,2.1500042 0 0 1 0.921544,0.82761 2.3508229,2.3508229 0 0 1 0.321469,1.23693 3.0006396,3.0006396 0 0 1 -0.445823,1.50045 9.1839521,9.1839521 0 0 1 -1.20941,1.60364 l -2.364582,2.57678 h 4.426215 v 0.91016 z"
       class="p" />
    <path
       style="fill:#ffffff;stroke-width:0.26458332"
       id="path499"
       d="m 85.772003,133.03111 -2.619375,6.43282 h -1.2065 l 2.588948,-6.23888 h -4.189412 v -3.07313 h 1.121833 v 2.16958 h 4.304771 z"
       class="p" />
    <path
       style="fill:#ffffff;stroke-width:0.26458332"
       id="path501"
       d="m 87.658747,133.22532 h -0.830792 v -0.90382 h 1.957917 v 7.14375 h -1.127125 z"
       class="p" />
    <path
       style="fill:#ffffff;stroke-width:0.26458332"
       id="path503"
       d="m 90.373901,139.24591 0.182033,-0.84296 a 6.6410417,6.6410417 0 0 0 1.709738,0.26061 2.1838708,2.1838708 0 0 0 1.54305,-0.49424 1.8393833,1.8393833 0 0 0 0.53049,-1.41578 v -3.52822 H 90.62208 v -0.90382 h 4.838171 v 4.18941 q 0,1.5158 -0.80645,2.28574 -0.80645,0.76994 -2.243402,0.76994 a 7.4625729,7.4625729 0 0 1 -2.036498,-0.32068 z"
       class="p" />
    <path
       style="fill:#ffffff;stroke-width:0.26458332"
       id="path505"
       d="m 98.746905,138.19684 a 6.746875,6.746875 0 0 0 1.224757,0.38788 5.775325,5.775325 0 0 0 1.224758,0.13943 4.4979167,4.4979167 0 0 0 1.55813,-0.25162 2.3397104,2.3397104 0 0 0 1.07923,-0.76385 2.0108333,2.0108333 0 0 0 0.39423,-1.26418 v -4.123 h 1.09141 v 4.22592 a 2.6770542,2.6770542 0 0 1 -0.54213,1.70075 3.260725,3.260725 0 0 1 -1.46421,1.03981 5.8353854,5.8353854 0 0 1 -2.06136,0.34554 8.3113562,8.3113562 0 0 1 -1.819015,-0.20928 8.2097563,8.2097563 0 0 1 -1.776412,-0.61542 v -6.48732 h 1.091406 z m 2.055285,-1.3552 a 3.6377562,3.6377562 0 0 0 0.11536,-0.96705 v -3.55309 h 1.09722 v 3.3528 a 3.432175,3.432175 0 0 1 -0.1516,1.07606 1.984375,1.984375 0 0 1 -0.46699,0.77893 l -0.93372,-0.0362 a 1.5205604,1.5205604 0 0 0 0.33973,-0.65114 z"
       class="p" />
    <path
       style="fill:#ffffff;stroke-width:0.26458332"
       id="path507"
       d="m 111.50961,136.34158 2.2614,3.12208 h -1.25519 l -3.18294,-4.39049 q -0.64902,0.4064 -0.64875,1.39462 v 2.99746 h -1.09141 v -2.58895 a 3.2144229,3.2144229 0 0 1 0.31538,-1.51871 2.0198292,2.0198292 0 0 1 0.97605,-0.89429 l -1.54622,-2.14021 h 1.26127 l 2.21297,3.05567 1.72191,-3.05567 h 1.26709 z"
       class="p" />
  </g>
</svg>
