<?xml version="1.0" encoding="UTF-8" standalone="no"?>
<svg
   xmlns:dc="http://purl.org/dc/elements/1.1/"
   xmlns:cc="http://creativecommons.org/ns#"
   xmlns:rdf="http://www.w3.org/1999/02/22-rdf-syntax-ns#"
   xmlns:svg="http://www.w3.org/2000/svg"
   xmlns="http://www.w3.org/2000/svg"
   xmlns:xlink="http://www.w3.org/1999/xlink"
   id="svg10548"
   version="1.1"
   viewBox="0 0 102.09 30.420998"
   height="114.977"
   width="385.85199">
  <defs
     id="defs10542">
    <linearGradient
       xlink:href="#s"
       y2="945.81702"
       x2="2293.8679"
       y1="945.81702"
       x1="2277.0359"
       id="u" />
    <linearGradient
       gradientUnits="userSpaceOnUse"
       gradientTransform="matrix(-1,0,0,1,4054.575,0)"
       y2="961.81897"
       x2="2373.094"
       y1="915.30499"
       x1="2380.218"
       id="s">
      <stop
         style="stop-color:#c700ff;stop-opacity:1"
         id="stop30"
         stop-color="#fa642e"
         offset="0" />
      <stop
         style="stop-color:#d643ff;stop-opacity:1"
         id="stop32"
         stop-color="#ffab50"
         offset="1" />
    </linearGradient>
    <linearGradient
       xlink:href="#s"
       y2="910.59003"
       x2="2454.2781"
       y1="993.64899"
       x1="2460.446"
       id="t" />
    <linearGradient
       y2="961.81897"
       x2="2373.094"
       y1="915.30499"
       x1="2380.218"
       gradientTransform="matrix(-1,0,0,1,4054.575,0)"
       gradientUnits="userSpaceOnUse"
       id="linearGradient580"
       xlink:href="#s" />
  </defs>
  <metadata
     id="metadata10545">
    <rdf:RDF>
      <cc:Work
         rdf:about="">
        <dc:format>image/svg+xml</dc:format>
        <dc:type
           rdf:resource="http://purl.org/dc/dcmitype/StillImage" />
        <dc:title></dc:title>
      </cc:Work>
    </rdf:RDF>
  </metadata>
  <g
     transform="translate(-11.12297,-120.01569)"
     id="layer1">
    <polygon
       style="fill:url(#linearGradient580)"
       id="polygon166"
       points="1608.456,908.191 1599.784,993.162 1625.319,972.637 1767.934,969.353 1760.707,914.348 "
       class="y"
       transform="matrix(0.26458333,0,0,0.26458333,-357.09421,-117.93124)" />
    <polygon
       style="fill:#d643ff;fill-opacity:1"
       id="polygon168"
       points="1602.477,899.327 1767.535,908.377 1760.707,914.348 1608.456,908.191 "
       class="z"
       transform="matrix(0.26458333,0,0,0.26458333,-357.09421,-117.93124)" />
    <polygon
       style="fill:url(#t)"
       id="polygon170"
       points="1602.477,899.327 1608.456,908.191 1599.784,993.162 1584.613,1014.304 "
       class="aa"
       transform="matrix(0.26458333,0,0,0.26458333,-357.09421,-117.93124)" />
    <polygon
       style="fill:#c700ff;fill-opacity:1"
       id="polygon172"
       points="1777.539,983.256 1767.934,969.353 1625.319,972.637 1599.784,993.162 1584.613,1014.304 1621.768,981.342 "
       class="ab"
       transform="matrix(0.26458333,0,0,0.26458333,-357.09421,-117.93124)" />
    <polygon
       style="fill:url(#u)"
       id="polygon174"
       points="1760.707,914.348 1767.535,908.377 1777.539,983.256 1767.934,969.353 "
       class="ac"
       transform="matrix(0.26458333,0,0,0.26458333,-357.09421,-117.93124)" />
    <path
       style="fill:#ffffff;stroke-width:0.26458332"
       id="path416"
       d="m 72.313428,131.34648 a 1.6443854,1.6443854 0 0 1 0.420158,1.23508 v 2.64583 h -0.673629 l -0.0037,-2.68473 a 1.1456458,1.1456458 0 0 0 -0.238129,-0.80751 1.0210271,1.0210271 0 0 0 -0.769408,-0.25109 h -0.608542 a 1.6999479,1.6999479 0 0 0 -0.191029,0.50271 2.7979687,2.7979687 0 0 0 -0.07091,0.63103 v 1.4441 a 1.2816417,1.2816417 0 0 1 -0.280194,0.89482 1.0503958,1.0503958 0 0 1 -0.814917,0.30559 3.5504437,3.5504437 0 0 1 -0.418571,-0.0328 v -0.54187 a 2.0198292,2.0198292 0 0 0 0.25109,0.0146 0.58208333,0.58208333 0 0 0 0.46011,-0.16378 0.77046667,0.77046667 0 0 0 0.143669,-0.51646 v -1.35308 a 2.5698979,2.5698979 0 0 1 0.08731,-0.66146 1.4602354,1.4602354 0 0 1 0.240242,-0.52573 h -0.803275 v -0.54213 h 1.997075 a 1.7671521,1.7671521 0 0 1 1.272646,0.40693 z"
       class="aj" />
    <path
       style="fill:#ffffff;stroke-width:0.26458332"
       id="path418"
       d="m 74.148578,131.48301 h -0.498211 v -0.54214 h 1.175015 v 4.28625 h -0.676804 z"
       class="aj" />
    <path
       style="fill:#ffffff;stroke-width:0.26458332"
       id="path420"
       d="m 79.163226,131.34648 a 1.6443854,1.6443854 0 0 1 0.420158,1.23508 v 2.64583 h -0.672835 l -0.0037,-2.68473 a 1.1456458,1.1456458 0 0 0 -0.238129,-0.80751 1.0210271,1.0210271 0 0 0 -0.769409,-0.25109 H 77.29077 a 1.6999479,1.6999479 0 0 0 -0.19103,0.50271 2.7979687,2.7979687 0 0 0 -0.07091,0.63103 v 1.4441 a 1.2813771,1.2813771 0 0 1 -0.280194,0.89482 1.0503958,1.0503958 0 0 1 -0.814916,0.30559 3.5501792,3.5501792 0 0 1 -0.418571,-0.0328 v -0.54186 a 2.0195646,2.0195646 0 0 0 0.251089,0.0146 0.58208333,0.58208333 0 0 0 0.460111,-0.16378 0.77046667,0.77046667 0 0 0 0.143669,-0.51646 v -1.35308 a 2.5698979,2.5698979 0 0 1 0.08731,-0.66146 1.4602354,1.4602354 0 0 1 0.240242,-0.52573 h -0.804065 v -0.54213 h 1.997075 a 1.7671521,1.7671521 0 0 1 1.272646,0.40693 z"
       class="aj" />
    <path
       style="fill:#ffffff;stroke-width:0.26458332"
       id="path422"
       d="m 80.998376,131.48301 h -0.498211 v -0.54214 h 1.175015 v 4.28625 h -0.676804 z"
       class="aj" />
    <path
       style="fill:#ffffff;stroke-width:0.26458332"
       id="path424"
       d="m 83.282788,132.50139 a 1.6962437,1.6962437 0 0 1 0.169334,-0.56198 1.1932708,1.1932708 0 0 1 0.310885,-0.4056 q 0.01455,-0.0108 0.07276,-0.0508 l -0.0071,-0.0109 q -0.163777,0.0291 -0.409311,0.0929 -0.245533,0.0638 -0.449791,0.13229 l -0.156369,-0.50933 a 6.1261625,6.1261625 0 0 1 0.945885,-0.23653 5.67055,5.67055 0 0 1 0.964142,-0.091 1.7822333,1.7822333 0 0 1 1.322917,0.46011 1.8520833,1.8520833 0 0 1 0.46011,1.35149 v 2.55376 h -1.764242 v -0.54213 h 1.091407 v -2.0881 a 1.2930187,1.2930187 0 0 0 -0.258234,-0.86942 0.93768333,0.93768333 0 0 0 -0.749564,-0.29818 0.75009375,0.75009375 0 0 0 -0.589227,0.27093 1.3266208,1.3266208 0 0 0 -0.291042,0.7366 l -0.32385,2.79003 h -0.665692 z"
       class="aj" />
    <path
       style="fill:#ffffff;stroke-width:0.26458332"
       id="path426"
       d="m 90.711495,130.94087 v 2.56831 a 1.9105562,1.9105562 0 0 1 -0.238125,0.98399 1.5345833,1.5345833 0 0 1 -0.669396,0.61489 2.2619229,2.2619229 0 0 1 -0.998538,0.20929 4.2775187,4.2775187 0 0 1 -1.524264,-0.30189 l 0.163777,-0.50271 a 3.9221833,3.9221833 0 0 0 1.137708,0.27649 1.6322146,1.6322146 0 0 1 -0.360098,-0.7239 l -0.709348,-3.12473 h 0.67654 l 0.694796,3.16124 a 3.4991146,3.4991146 0 0 0 0.09842,0.37465 1.4022917,1.4022917 0 0 0 0.127264,0.2802 1.1564937,1.1564937 0 0 0 0.682096,-0.4109 1.2755562,1.2755562 0 0 0 0.245533,-0.81122 v -2.59291 z"
       class="aj" />
    <path
       style="fill:#ffffff;stroke-width:0.26458332"
       id="path428"
       d="m 94.203465,131.48301 h -0.785812 v -0.54214 h 1.462352 v 2.38999 h -0.67654 z"
       class="aj" />
    <path
       style="fill:#ffffff;stroke-width:0.26458332"
       id="path430"
       d="m 95.684074,135.21892 0.01826,-0.52731 a 2.7201812,2.7201812 0 0 0 0.531019,0.0474 0.56223958,0.56223958 0 0 0 0.44741,-0.17092 0.7874,0.7874 0 0 0 0.148961,-0.52758 V 131.483 h -0.840317 v -0.54213 h 1.516856 v 3.15384 a 1.2567708,1.2567708 0 0 1 -0.291042,0.89667 1.0972271,1.0972271 0 0 1 -0.836612,0.30745 3.2014583,3.2014583 0 0 1 -0.694531,-0.0799 z"
       class="aj" />
    <path
       style="fill:#ffffff;stroke-width:0.26458332"
       id="path432"
       d="m 98.459817,135.0951 0.109273,-0.50562 a 3.9864771,3.9864771 0 0 0 1.02579,0.15637 1.3107458,1.3107458 0 0 0 0.92604,-0.29634 1.1035771,1.1035771 0 0 0 0.3175,-0.84931 v -2.11667 h -2.229907 v -0.54213 h 2.903007 v 2.51355 a 1.8100146,1.8100146 0 0 1 -0.48392,1.37133 1.8692812,1.8692812 0 0 1 -1.345937,0.46196 4.4754271,4.4754271 0 0 1 -1.221846,-0.19314 z"
       class="aj" />
    <path
       style="fill:#ffffff;stroke-width:0.26458332"
       id="path434"
       d="m 103.03235,131.48301 h -0.49821 v -0.54214 h 1.17501 v 4.28625 h -0.6768 z"
       class="aj" />
    <path
       style="fill:#ffffff;stroke-width:0.26458332"
       id="path436"
       d="m 108.01683,130.94087 v 0.54214 h -0.71649 v 3.74332 h -0.67654 v -3.74332 h -2.03729 v -0.54214 z"
       class="aj" />
  </g>
</svg>
