<?xml version="1.0" encoding="UTF-8" standalone="no"?>
<svg
   xmlns:dc="http://purl.org/dc/elements/1.1/"
   xmlns:cc="http://creativecommons.org/ns#"
   xmlns:rdf="http://www.w3.org/1999/02/22-rdf-syntax-ns#"
   xmlns:svg="http://www.w3.org/2000/svg"
   xmlns="http://www.w3.org/2000/svg"
   xmlns:xlink="http://www.w3.org/1999/xlink"
   id="svg9988"
   version="1.1"
   viewBox="0 0 130.02789 41.849675"
   height="158.172"
   width="491.444">
  <defs
     id="defs9982">
    <linearGradient
       xlink:href="#g"
       y2="1612.537"
       x2="3268.667"
       y1="1691.0909"
       x1="3279.9839"
       id="cb" />
    <linearGradient
       gradientUnits="userSpaceOnUse"
       y2="1678.416"
       x2="1819.7371"
       y1="1613.504"
       x1="1808.725"
       id="g">
      <stop
         style="stop-color:#c700ff;stop-opacity:1"
         id="stop24"
         stop-color="#574ace"
         offset="0" />
      <stop
         style="stop-color:#d643ff;stop-opacity:1"
         id="stop26"
         stop-color="#8543ff"
         offset="1" />
    </linearGradient>
    <linearGradient
       xlink:href="#g"
       y2="1611.348"
       x2="3077.8479"
       y1="1695.054"
       x1="3067.176"
       id="ca" />
    <linearGradient
       xlink:href="#g"
       y2="1684.5031"
       x2="3166.812"
       y1="1604.109"
       x1="3153.1731"
       id="bz" />
  </defs>
  <metadata
     id="metadata9985">
    <rdf:RDF>
      <cc:Work
         rdf:about="">
        <dc:format>image/svg+xml</dc:format>
        <dc:type
           rdf:resource="http://purl.org/dc/dcmitype/StillImage" />
        <dc:title></dc:title>
      </cc:Work>
    </rdf:RDF>
  </metadata>
  <g
     transform="translate(-12.848133,-133.20016)"
     id="layer1">
    <polygon
       style="fill:url(#bz)"
       id="polygon896"
       points="3093.263,1592.595 3254.828,1612.449 3280.659,1702.128 3079.082,1703.782 3062.004,1720.16 "
       class="cn"
       transform="matrix(0.26458333,0,0,0.26458333,-728.76042,-284.84679)" />
    <polygon
       style="fill:url(#ca)"
       id="polygon898"
       points="3093.263,1592.595 3062.004,1720.16 3048.652,1738.192 3076.898,1580.02 "
       class="co"
       transform="matrix(0.26458333,0,0,0.26458333,-728.76042,-284.84679)" />
    <polygon
       style="fill:#d643ff;fill-opacity:1"
       id="polygon900"
       points="3281.709,1607.095 3076.898,1580.02 3093.263,1592.595 3254.828,1612.449 "
       class="o"
       transform="matrix(0.26458333,0,0,0.26458333,-728.76042,-284.84679)" />
    <polygon
       style="fill:url(#cb)"
       id="polygon902"
       points="3280.659,1702.128 3254.828,1612.449 3281.709,1607.095 3294.374,1713.71 "
       class="cp"
       transform="matrix(0.26458333,0,0,0.26458333,-728.76042,-284.84679)" />
    <polygon
       style="fill:#c700ff;fill-opacity:1"
       id="polygon904"
       points="3280.659,1702.128 3079.082,1703.782 3062.004,1720.16 3048.652,1738.192 3095.241,1710.191 3292.408,1712.049 "
       class="q"
       transform="matrix(0.26458333,0,0,0.26458333,-728.76042,-284.84679)" />
    <path
       style="fill:#ffffff;stroke-width:0.26458332"
       id="path906"
       d="m 88.580622,159.6376 v -0.56012 l 2.024327,-2.25372 a 8.410575,8.410575 0 0 0 0.582084,-0.70671 2.2137687,2.2137687 0 0 0 0.286544,-0.51778 1.4224,1.4224 0 0 0 0.08281,-0.48155 1.2300479,1.2300479 0 0 0 -0.127264,-0.5625 0.96625833,0.96625833 0 0 0 -0.370417,-0.39899 1.0847917,1.0847917 0 0 0 -0.572823,-0.14632 1.1792479,1.1792479 0 0 0 -0.916781,0.34396 1.3118042,1.3118042 0 0 0 -0.314061,0.92075 h -0.79375 a 1.9976042,1.9976042 0 0 1 0.233363,-0.96335 1.6917458,1.6917458 0 0 1 0.691621,-0.68553 2.5106313,2.5106313 0 0 1 2.092325,-0.0468 1.508125,1.508125 0 0 1 0.645054,0.57917 1.6465021,1.6465021 0 0 1 0.224896,0.86572 2.1013208,2.1013208 0 0 1 -0.311944,1.05066 6.429375,6.429375 0 0 1 -0.846667,1.12236 l -1.655233,1.80367 h 3.098271 v 0.63658 z"
       class="l" />
    <path
       style="fill:#ffffff;stroke-width:0.26458332"
       id="path908"
       d="m 99.401022,155.11137 q 0.490009,0.47334 0.490273,1.44092 v 3.08531 h -0.785283 l -0.0042,-3.13214 a 1.3374687,1.3374687 0 0 0 -0.278077,-0.94244 1.1924771,1.1924771 0 0 0 -0.897732,-0.29263 h -0.708818 a 1.984375,1.984375 0 0 0 -0.223044,0.5879 3.2710437,3.2710437 0 0 0 -0.08255,0.73634 v 1.68486 a 1.4951604,1.4951604 0 0 1 -0.326761,1.04405 1.2258146,1.2258146 0 0 1 -0.950648,0.35639 4.1171812,4.1171812 0 0 1 -0.488156,-0.0384 v -0.63235 a 2.3547917,2.3547917 0 0 0 0.292629,0.0169 0.68050833,0.68050833 0 0 0 0.53684,-0.19103 0.89958333,0.89958333 0 0 0 0.167746,-0.60272 v -1.57877 a 2.9897917,2.9897917 0 0 1 0.101864,-0.7702 1.7044458,1.7044458 0 0 1 0.280194,-0.61331 h -0.937981 v -0.63235 h 2.330186 q 0.992981,0 1.483518,0.4736 z"
       class="l" />
    <path
       style="fill:#ffffff;stroke-width:0.26458332"
       id="path910"
       d="m 101.54203,155.27039 h -0.58208 v -0.63236 h 1.3708 v 5.00063 h -0.78925 z"
       class="l" />
    <path
       style="fill:#ffffff;stroke-width:0.26458332"
       id="path912"
       d="m 105.93041,156.1488 a 0.860425,0.860425 0 0 0 -0.23971,-0.64293 0.89535,0.89535 0 0 0 -0.65591,-0.23575 h -1.68063 v -0.63235 h 1.70603 a 1.9663833,1.9663833 0 0 1 0.88715,0.18653 1.3094229,1.3094229 0 0 1 0.57071,0.53896 1.7033875,1.7033875 0 0 1 0.19738,0.84455 v 3.42926 h -0.78529 z"
       class="l" />
    <path
       style="fill:#ffffff;stroke-width:0.26458332"
       id="path914"
       d="m 108.37093,155.27039 h -0.58209 v -0.63236 h 1.37081 v 5.00063 h -0.78925 z"
       class="l" />
    <path
       style="fill:#ffffff;stroke-width:0.26458332"
       id="path916"
       d="m 111.64964,159.48044 a 1.762125,1.762125 0 0 1 -0.70247,-0.70432 2.1455062,2.1455062 0 0 1 -0.25029,-1.05278 v -3.08531 h 0.78528 v 3.14061 a 1.5221479,1.5221479 0 0 0 0.15055,0.69374 1.1154833,1.1154833 0 0 0 0.42333,0.46487 1.2919604,1.2919604 0 0 0 1.26471,0 1.1160125,1.1160125 0 0 0 0.42333,-0.46487 1.5253229,1.5253229 0 0 0 0.15055,-0.69374 v -1.67667 a 0.97895833,0.97895833 0 0 0 -0.18044,-0.63023 0.62044792,0.62044792 0 0 0 -0.51144,-0.22278 1.42875,1.42875 0 0 0 -0.61146,0.16113 l -0.12303,-0.52626 a 1.8933583,1.8933583 0 0 1 0.46885,-0.21431 1.6843375,1.6843375 0 0 1 0.4945,-0.0794 1.2488333,1.2488333 0 0 1 0.66834,0.17383 1.1242146,1.1242146 0 0 1 0.43286,0.50112 1.8288,1.8288 0 0 1 0.15055,0.77232 v 1.68487 a 2.1587354,2.1587354 0 0 1 -0.24818,1.05277 1.7512771,1.7512771 0 0 1 -0.69824,0.70432 2.3061083,2.3061083 0 0 1 -2.09021,0 z"
       class="l" />
    <path
       style="fill:#ffffff;stroke-width:0.26458332"
       id="path918"
       d="m 118.85372,157.45188 1.58274,2.18572 h -0.87842 l -2.22806,-3.07261 a 1.0601854,1.0601854 0 0 0 -0.45429,0.97605 v 2.09656 h -0.76385 v -1.8124 a 2.2489583,2.2489583 0 0 1 0.22066,-1.06309 1.4144625,1.4144625 0 0 1 0.68316,-0.62601 l -1.08215,-1.49807 h 0.88265 l 1.54914,2.1389 1.20517,-2.1389 h 0.88715 z"
       class="l" />
    <path
       style="fill:#ffffff;stroke-width:0.26458332"
       id="path920"
       d="m 122.01549,155.27039 h -0.91678 v -0.63236 h 1.7063 v 2.78818 h -0.78952 z"
       class="l" />
    <path
       style="fill:#ffffff;stroke-width:0.26458332"
       id="path922"
       d="m 123.74322,159.62913 0.0212,-0.61542 a 3.1575375,3.1575375 0 0 0 0.61965,0.0553 0.65537292,0.65537292 0 0 0 0.52202,-0.19949 0.91836875,0.91836875 0 0 0 0.1741,-0.61542 v -2.98345 h -0.98055 v -0.63235 h 1.7698 v 3.67956 a 1.4665854,1.4665854 0 0 1 -0.33946,1.04616 1.2805833,1.2805833 0 0 1 -0.97605,0.35851 3.730625,3.730625 0 0 1 -0.81068,-0.0934 z"
       class="l" />
    <path
       style="fill:#ffffff;stroke-width:0.26458332"
       id="path924"
       d="m 127.78737,155.27039 h -0.91678 v -0.63236 h 1.7063 v 2.78818 h -0.78952 z"
       class="l" />
    <path
       style="fill:#ffffff;stroke-width:0.26458332"
       id="path926"
       d="m 130.36812,156.45863 a 1.9772312,1.9772312 0 0 1 0.19738,-0.6559 1.3932958,1.3932958 0 0 1 0.36274,-0.47308 c 0.0114,-0.008 0.0394,-0.028 0.0849,-0.0595 l -0.008,-0.0127 q -0.19103,0.0341 -0.47625,0.10822 -0.28522,0.0741 -0.52414,0.15478 l -0.1823,-0.59399 a 7.14375,7.14375 0 0 1 1.10358,-0.27596 6.607175,6.607175 0 0 1 1.12475,-0.10583 2.0790958,2.0790958 0 0 1 1.54252,0.53684 2.1608521,2.1608521 0 0 1 0.53684,1.57665 v 2.97947 h -2.0582 v -0.63235 h 1.27318 v -2.43629 a 1.508125,1.508125 0 0 0 -0.30136,-1.01414 1.0932583,1.0932583 0 0 0 -0.87313,-0.34793 0.87524167,0.87524167 0 0 0 -0.68791,0.31591 1.5478125,1.5478125 0 0 0 -0.33947,0.85963 l -0.37782,3.25438 h -0.77682 z"
       class="l" />
  </g>
</svg>
