<?xml version="1.0" encoding="UTF-8" standalone="no"?>
<svg
   xmlns:dc="http://purl.org/dc/elements/1.1/"
   xmlns:cc="http://creativecommons.org/ns#"
   xmlns:rdf="http://www.w3.org/1999/02/22-rdf-syntax-ns#"
   xmlns:svg="http://www.w3.org/2000/svg"
   xmlns="http://www.w3.org/2000/svg"
   xmlns:xlink="http://www.w3.org/1999/xlink"
   id="svg2696"
   version="1.1"
   viewBox="0 0 88.763476 74.217743"
   height="280.508"
   width="335.48401">
  <defs
     id="defs2690">
    <linearGradient
       xlink:href="#j"
       y2="2203.8999"
       x2="3027.052"
       y1="2203.8999"
       x1="2986.103"
       id="aj" />
    <linearGradient
       gradientUnits="userSpaceOnUse"
       y2="963.46698"
       x2="2617.0591"
       y1="1079.265"
       x1="2618.332"
       id="j">
      <stop
         id="stop17"
         stop-color="#a1e2ff"
         offset="0" />
      <stop
         id="stop19"
         stop-color="#69b2f9"
         offset="1" />
    </linearGradient>
    <linearGradient
       xlink:href="#j"
       y2="2222.2529"
       x2="3193.6851"
       y1="2079.7319"
       x1="3179.688"
       id="ai" />
    <linearGradient
       xlink:href="#j"
       y2="2082.3069"
       x2="3086.811"
       y1="2198.105"
       x1="3088.083"
       id="ah" />
  </defs>
  <metadata
     id="metadata2693">
    <rdf:RDF>
      <cc:Work
         rdf:about="">
        <dc:format>image/svg+xml</dc:format>
        <dc:type
           rdf:resource="http://purl.org/dc/dcmitype/StillImage" />
        <dc:title></dc:title>
      </cc:Work>
    </rdf:RDF>
  </metadata>
  <g
     transform="translate(-52.237461,-83.754227)"
     id="layer1">
    <polygon
       style="fill:url(#ah)"
       id="polygon262"
       points="3027.052,2307.277 3043.366,2240.684 3176.979,2232.199 3169.344,2071.863 2998.419,2094.111 "
       class="aq"
       transform="matrix(0.26458333,0,0,0.26458333,-704.2883,-459.56526)" />
    <polygon
       style="fill:#69b2f9"
       id="polygon264"
       points="3176.979,2232.199 3043.366,2240.684 3027.052,2307.277 3027.052,2333.999 3053.546,2252.559 3194.794,2246.196 "
       class="o"
       transform="matrix(0.26458333,0,0,0.26458333,-704.2883,-459.56526)" />
    <polygon
       style="fill:url(#ai)"
       id="polygon266"
       points="3194.794,2053.491 3194.794,2246.196 3176.979,2232.199 3169.344,2071.863 "
       class="ar"
       transform="matrix(0.26458333,0,0,0.26458333,-704.2883,-459.56526)" />
    <polygon
       style="fill:#a1e2ff"
       id="polygon268"
       points="2986.103,2073.801 3194.794,2053.491 3169.344,2071.863 2998.419,2094.111 "
       class="q"
       transform="matrix(0.26458333,0,0,0.26458333,-704.2883,-459.56526)" />
    <polygon
       style="fill:url(#aj)"
       id="polygon270"
       points="2998.419,2094.111 2986.103,2073.801 3027.052,2333.999 3027.052,2307.277 "
       class="as"
       transform="matrix(0.26458333,0,0,0.26458333,-704.2883,-459.56526)" />
    <path
       style="fill:#ffffff;stroke-width:0.26458332"
       id="path272"
       d="m 102.2342,105.31645 a 6.7426417,6.7426417 0 0 0 1.22476,0.38814 5.7755896,5.7755896 0 0 0 1.22475,0.13944 4.5002979,4.5002979 0 0 0 1.55814,-0.25162 2.3394458,2.3394458 0 0 0 1.07923,-0.76386 2.0108333,2.0108333 0 0 0 0.39397,-1.26417 v -4.122742 h 1.0914 v 4.225922 a 2.6770542,2.6770542 0 0 1 -0.54266,1.70074 3.2612542,3.2612542 0 0 1 -1.4642,1.03982 5.8337979,5.8337979 0 0 1 -2.06137,0.34554 8.3079167,8.3079167 0 0 1 -1.81901,-0.20928 8.2063167,8.2063167 0 0 1 -1.77641,-0.61542 v -6.487322 h 1.0914 z m 2.05555,-1.35494 a 3.6488687,3.6488687 0 0 0 0.11509,-0.96705 v -3.552822 h 1.09723 v 3.352802 a 3.4324396,3.4324396 0 0 1 -0.15134,1.07606 1.984375,1.984375 0 0 1 -0.46699,0.7792 l -0.93372,-0.0362 a 1.5218833,1.5218833 0 0 0 0.33973,-0.65194 z"
       class="aj" />
    <path
       style="fill:#ffffff;stroke-width:0.26458332"
       id="path274"
       d="m 113.94784,101.59984 a 1.228725,1.228725 0 0 0 -0.34264,-0.91863 1.2787312,1.2787312 0 0 0 -0.93663,-0.33655 h -2.40082 v -0.903286 h 2.43734 a 2.8045833,2.8045833 0 0 1 1.26709,0.2667 1.8684875,1.8684875 0 0 1 0.81544,0.769936 2.4341667,2.4341667 0 0 1 0.28178,1.2065 v 4.89876 h -1.12156 z"
       class="aj" />
    <path
       style="fill:#ffffff;stroke-width:0.26458332"
       id="path276"
       d="m 116.11848,106.61396 v -1.03663 a 2.3979187,2.3979187 0 0 0 0.35163,0.0243 2.0928542,2.0928542 0 0 0 1.41869,-0.53049 2.3124583,2.3124583 0 0 0 0.69745,-1.30043 v -3.42477 h -1.61396 v -0.903285 h 2.7223 v 3.686175 a 5.1046062,5.1046062 0 0 0 0.11509,1.09141 l 0.49742,2.36458 h -1.06125 l -0.4183,-2.00078 h -0.0423 a 2.2650979,2.2650979 0 0 1 -0.40614,1.01256 2.4741187,2.4741187 0 0 1 -0.85196,0.75485 2.3172208,2.3172208 0 0 1 -1.12474,0.28205 1.5983479,1.5983479 0 0 1 -0.2839,-0.0196 z"
       class="aj" />
    <path
       style="fill:#ffffff;stroke-width:0.26458332"
       id="path278"
       d="m 122.38143,102.04249 a 2.8328937,2.8328937 0 0 1 0.28178,-0.93689 1.9880792,1.9880792 0 0 1 0.51858,-0.67601 c 0.0161,-0.0122 0.0566,-0.0405 0.12118,-0.0849 l -0.0122,-0.0183 q -0.27278,0.0487 -0.68209,0.15452 -0.40931,0.10583 -0.74877,0.22119 l -0.26062,-0.848782 a 10.217944,10.217944 0 0 1 1.57639,-0.394229 9.4567375,9.4567375 0 0 1 1.60681,-0.151606 q 1.44251,0 2.20372,0.767287 0.7612,0.7673 0.76729,2.2524 v 4.25609 h -2.94084 v -0.90329 h 1.81874 v -3.48006 a 2.1534437,2.1534437 0 0 0 -0.43048,-1.44913 1.5623646,1.5623646 0 0 0 -1.24883,-0.49715 1.25095,1.25095 0 0 0 -0.9824,0.45165 2.2119167,2.2119167 0 0 0 -0.48498,1.22766 l -0.53948,4.65032 h -1.1094 z"
       class="aj" />
    <path
       style="fill:#ffffff;stroke-width:0.26458332"
       id="path280"
       d="m 99.796861,117.00336 q 0,-0.92763 -0.418307,-1.34303 -0.418306,-0.41539 -1.3462,-0.41539 h -2.588683 v -0.9025 h 2.643452 q 1.400175,0 2.119047,0.67892 0.71887,0.67892 0.71834,2.01295 v 4.45029 h -1.127649 z m -4.341019,2.04311 a 3.0464125,3.0464125 0 0 1 0.315119,-1.50971 h 0.921543 a 4.2468271,4.2468271 0 0 0 -0.109272,0.61833 7.8316667,7.8316667 0 0 0 -0.03651,0.81862 v 2.5101 h -1.091145 z"
       class="aj" />
    <path
       style="fill:#ffffff;stroke-width:0.26458332"
       id="path282"
       d="m 103.48939,115.24494 h -1.30943 v -0.9025 h 2.43734 v 3.9833 h -1.12791 z"
       class="aj" />
    <path
       style="fill:#ffffff;stroke-width:0.26458332"
       id="path284"
       d="m 107.23615,115.24494 h -1.30942 v -0.9025 h 2.43734 v 3.9833 h -1.12792 z"
       class="aj" />
    <path
       style="fill:#ffffff;stroke-width:0.26458332"
       id="path286"
       d="m 109.70392,121.47164 0.0302,-0.87921 a 4.530725,4.530725 0 0 0 0.88529,0.0794 0.93636042,0.93636042 0 0 0 0.7456,-0.28496 1.3107458,1.3107458 0 0 0 0.24844,-0.87921 v -4.26217 h -1.40044 v -0.90302 h 2.52836 v 5.25647 a 2.0949708,2.0949708 0 0 1 -0.48498,1.49437 1.8290646,1.8290646 0 0 1 -1.39462,0.51223 5.3369104,5.3369104 0 0 1 -1.15781,-0.13388 z"
       class="aj" />
    <path
       style="fill:#ffffff;stroke-width:0.26458332"
       id="path288"
       d="m 114.94108,114.34244 h 2.68579 q 1.41843,0 2.11666,0.67601 0.69824,0.67601 0.70327,2.05846 v 4.40769 h -1.12157 v -4.47516 q 0,-0.92763 -0.40032,-1.34593 -0.40031,-0.41831 -1.28508,-0.41831 h -1.57639 l -0.006,6.23888 h -1.12157 z"
       class="aj" />
    <path
       style="fill:#ffffff;stroke-width:0.26458332"
       id="path290"
       d="m 126.62561,117.00336 q 0,-0.92763 -0.41831,-1.34303 -0.4183,-0.41539 -1.3462,-0.41539 h -2.58868 v -0.9025 h 2.64345 q 1.40018,0 2.11905,0.67892 0.71887,0.67892 0.71834,2.01295 v 4.45029 h -1.12765 z m -4.34102,2.04311 a 3.0464125,3.0464125 0 0 1 0.31512,-1.50971 h 0.92154 a 4.2468271,4.2468271 0 0 0 -0.10927,0.61833 7.8316667,7.8316667 0 0 0 -0.0365,0.81862 v 2.5101 h -1.09114 z"
       class="aj" />
  </g>
</svg>
