<?xml version="1.0" encoding="UTF-8" standalone="no"?>
<svg
   xmlns:dc="http://purl.org/dc/elements/1.1/"
   xmlns:cc="http://creativecommons.org/ns#"
   xmlns:rdf="http://www.w3.org/1999/02/22-rdf-syntax-ns#"
   xmlns:svg="http://www.w3.org/2000/svg"
   xmlns="http://www.w3.org/2000/svg"
   xmlns:xlink="http://www.w3.org/1999/xlink"
   id="svg2774"
   version="1.1"
   viewBox="0 0 144.91546 61.85244"
   height="233.77299"
   width="547.71198">
  <defs
     id="defs2768">
    <linearGradient
       xlink:href="#d"
       gradientTransform="matrix(-1,0,0,1,3365,0)"
       y2="939.44202"
       x2="1456.014"
       y1="939.44202"
       x1="1432.121"
       id="ao" />
    <linearGradient
       gradientUnits="userSpaceOnUse"
       gradientTransform="rotate(180,1703.257,-4278.2355)"
       y2="-9994.8818"
       x2="1667.75"
       y1="-10032.238"
       x1="1667.75"
       id="d">
      <stop
         style="stop-color:#c700ff;stop-opacity:1"
         id="stop17"
         stop-color="#fa642e"
         offset="0" />
      <stop
         style="stop-color:#d643ff;stop-opacity:1"
         id="stop19"
         stop-color="#ffab50"
         offset="1" />
    </linearGradient>
    <linearGradient
       xlink:href="#d"
       gradientTransform="matrix(-1,0,0,1,3365,0)"
       y2="868.02698"
       x2="1681.163"
       y1="1036.323"
       x1="1693.66"
       id="an" />
    <linearGradient
       xlink:href="#d"
       gradientTransform="matrix(-1,0,0,1,3365,0)"
       y2="976.25"
       x2="1567.063"
       y1="883.38202"
       x1="1581.286"
       id="am" />
  </defs>
  <metadata
     id="metadata2771">
    <rdf:RDF>
      <cc:Work
         rdf:about="">
        <dc:format>image/svg+xml</dc:format>
        <dc:type
           rdf:resource="http://purl.org/dc/dcmitype/StillImage" />
        <dc:title></dc:title>
      </cc:Work>
    </rdf:RDF>
  </metadata>
  <g
     transform="translate(30.823503,-78.597588)"
     id="layer1">
    <polygon
       style="fill:url(#am)"
       id="polygon358"
       points="1692.867,862.94 1680.557,1035.705 1716.805,993.974 1919.245,987.297 1908.986,875.459 "
       class="ay"
       transform="matrix(0.26458333,0,0,0.26458333,-397.3156,-144.95363)" />
    <polygon
       style="fill:#d643ff;fill-opacity:1"
       id="polygon360"
       points="1684.38,844.918 1918.679,863.32 1908.986,875.459 1692.867,862.94 "
       class="j"
       transform="matrix(0.26458333,0,0,0.26458333,-397.3156,-144.95363)" />
    <polygon
       style="fill:url(#an)"
       id="polygon362"
       points="1684.38,844.918 1692.867,862.94 1680.557,1035.705 1659.023,1078.691 "
       class="az"
       transform="matrix(0.26458333,0,0,0.26458333,-397.3156,-144.95363)" />
    <polygon
       style="fill:#c700ff;fill-opacity:1"
       id="polygon364"
       points="1932.879,1015.565 1919.245,987.297 1716.805,993.974 1680.557,1035.705 1659.023,1078.691 1711.763,1011.673 "
       class="h"
       transform="matrix(0.26458333,0,0,0.26458333,-397.3156,-144.95363)" />
    <polygon
       style="fill:url(#ao)"
       id="polygon366"
       points="1908.986,875.459 1918.679,863.32 1932.879,1015.565 1919.245,987.297 "
       class="ba"
       transform="matrix(0.26458333,0,0,0.26458333,-397.3156,-144.95363)" />
    <path
       style="fill:#ffffff;stroke-width:0.26458332"
       id="path368"
       d="m 56.75597,95.625382 q 0.490273,0.473339 0.490273,1.44092 v 3.085308 h -0.785019 l -0.0042,-3.132139 a 1.3374687,1.3374687 0 0 0 -0.278077,-0.942446 1.190625,1.190625 0 0 0 -0.897731,-0.292629 h -0.708819 a 1.984375,1.984375 0 0 0 -0.222779,0.587904 3.2636354,3.2636354 0 0 0 -0.08255,0.736336 v 1.684866 a 1.4951604,1.4951604 0 0 1 -0.326761,1.044046 1.22555,1.22555 0 0 1 -0.950648,0.356392 4.1190333,4.1190333 0 0 1 -0.488156,-0.0384 v -0.632352 a 2.3547917,2.3547917 0 0 0 0.292629,0.01693 0.68024375,0.68024375 0 0 0 0.53684,-0.19103 0.89958333,0.89958333 0 0 0 0.167746,-0.60272 v -1.578769 a 2.9958771,2.9958771 0 0 1 0.101864,-0.770202 1.7044458,1.7044458 0 0 1 0.280194,-0.613304 h -0.937948 v -0.632355 h 2.330186 q 0.992716,5.3e-4 1.482989,0.473605 z"
       class="l" />
    <path
       style="fill:#ffffff;stroke-width:0.26458332"
       id="path370"
       d="M 58.897243,95.784661 H 58.31516 v -0.632354 h 1.370806 v 5.000623 h -0.789252 z"
       class="l" />
    <path
       style="fill:#ffffff;stroke-width:0.26458332"
       id="path372"
       d="m 61.562391,96.972904 a 1.9801417,1.9801417 0 0 1 0.197379,-0.655902 1.3919729,1.3919729 0 0 1 0.363009,-0.473075 c 0.01111,-0.0085 0.03942,-0.02804 0.08493,-0.05953 l -0.0085,-0.0127 q -0.191029,0.03413 -0.47625,0.108215 -0.285221,0.07408 -0.524139,0.154781 l -0.182563,-0.59399 a 7.1482479,7.1482479 0 0 1 1.103577,-0.27596 6.6045292,6.6045292 0 0 1 1.124479,-0.105833 2.0798896,2.0798896 0 0 1 1.542786,0.536839 2.1608521,2.1608521 0 0 1 0.536839,1.576652 v 2.979469 h -2.058159 v -0.63235 h 1.273175 v -2.436283 a 1.508125,1.508125 0 0 0 -0.301361,-1.014148 1.0935229,1.0935229 0 0 0 -0.873125,-0.347927 0.87603542,0.87603542 0 0 0 -0.687916,0.315912 1.5486062,1.5486062 0 0 0 -0.339461,0.859631 l -0.377825,3.254375 h -0.778404 z"
       class="l" />
    <path
       style="fill:#ffffff;stroke-width:0.26458332"
       id="path374"
       d="m 66.973649,95.784661 h -0.582083 v -0.632354 h 1.370806 v 5.000623 H 66.97312 Z"
       class="l" />
    <path
       style="fill:#ffffff;stroke-width:0.26458332"
       id="path376"
       d="m 70.97997,99.532219 a 1.5935854,1.5935854 0 0 0 0.734219,-0.186796 1.2231687,1.2231687 0 0 0 0.488156,-0.490273 1.53035,1.53035 0 0 0 0.174096,-0.749035 V 95.784661 H 69.29087 v -0.632354 h 3.875617 v 2.936875 a 2.1092583,2.1092583 0 0 1 -0.269611,1.084791 1.825625,1.825625 0 0 1 -0.764116,0.712788 2.6132896,2.6132896 0 0 1 -1.152261,0.264579 z m -1.591469,-1.256242 a 2.5085146,2.5085146 0 0 1 0.05715,-0.60272 2.5513771,2.5513771 0 0 1 0.163513,-0.445559 h 0.645054 a 2.3796625,2.3796625 0 0 0 -0.07938,0.423334 q -0.02355,0.233627 -0.02328,0.57732 v 3.688028 h -0.763852 z"
       class="l" />
    <path
       style="fill:#ffffff;stroke-width:0.26458332"
       id="path378"
       d="m 78.084826,95.648665 -1.833562,4.503205 h -0.84455 l 1.812396,-4.367209 h -2.932642 v -2.151857 h 0.785019 v 1.519503 h 3.013339 z"
       class="l" />
    <path
       style="fill:#ffffff;stroke-width:0.26458332"
       id="path380"
       d="m 84.847576,95.625382 q 0.490273,0.473339 0.490273,1.44092 v 3.085308 h -0.785018 l -0.0042,-3.132139 A 1.3374687,1.3374687 0 0 0 84.27052,96.077025 1.190625,1.190625 0 0 0 83.372789,95.784396 h -0.70776 a 1.984375,1.984375 0 0 0 -0.22278,0.587904 3.2636354,3.2636354 0 0 0 -0.08255,0.736336 v 1.684866 a 1.4951604,1.4951604 0 0 1 -0.32676,1.044046 1.22555,1.22555 0 0 1 -0.950648,0.356392 4.1190333,4.1190333 0 0 1 -0.488156,-0.0384 v -0.632352 a 2.3547917,2.3547917 0 0 0 0.292629,0.01693 0.68024375,0.68024375 0 0 0 0.53684,-0.19103 0.89958333,0.89958333 0 0 0 0.167745,-0.60272 v -1.578769 a 2.9958771,2.9958771 0 0 1 0.101865,-0.770202 1.7044458,1.7044458 0 0 1 0.280194,-0.613304 H 81.03546 v -0.632355 h 2.330185 q 0.992717,5.3e-4 1.481931,0.473605 z"
       class="l" />
    <path
       style="fill:#ffffff;stroke-width:0.26458332"
       id="path382"
       d="m 86.988849,95.784661 h -0.582083 v -0.632354 h 1.370806 v 5.000623 H 86.98832 Z"
       class="l" />
    <path
       style="fill:#ffffff;stroke-width:0.26458332"
       id="path384"
       d="m 88.631118,100.17304 v -0.725752 a 1.673225,1.673225 0 0 0 0.246063,0.01693 1.4660562,1.4660562 0 0 0 0.993245,-0.370417 1.6173979,1.6173979 0 0 0 0.487892,-0.910166 v -2.397919 h -1.128977 v -0.632354 h 1.905 v 2.580217 a 3.571875,3.571875 0 0 0 0.07937,0.764116 l 0.347927,1.655235 h -0.74268 l -0.292629,-1.400438 h -0.02963 a 1.5875,1.5875 0 0 1 -0.284427,0.708819 1.7340792,1.7340792 0 0 1 -0.596371,0.529166 1.6221604,1.6221604 0 0 1 -0.7874,0.197113 1.1183937,1.1183937 0 0 1 -0.197379,-0.0145 z"
       class="l" />
    <path
       style="fill:#ffffff;stroke-width:0.26458332"
       id="path386"
       d="M 94.738495,96.663871 A 0.85989583,0.85989583 0 0 0 94.498783,96.020934 0.89535,0.89535 0 0 0 93.842881,95.78519 H 92.16357 v -0.632354 h 1.706034 a 1.965325,1.965325 0 0 1 0.887147,0.186531 1.3096875,1.3096875 0 0 1 0.570971,0.538956 1.7033875,1.7033875 0 0 1 0.197379,0.84455 v 3.429267 h -0.785018 z"
       class="l" />
    <path
       style="fill:#ffffff;stroke-width:0.26458332"
       id="path388"
       d="m 100.42995,95.152307 v 0.632354 h -0.836086 v 4.367209 H 98.804612 V 95.784661 H 96.42786 v -0.632354 z"
       class="l" />
    <path
       style="fill:#ffffff;stroke-width:0.26458332"
       id="path390"
       d="m 101.80922,96.972904 a 1.9801417,1.9801417 0 0 1 0.19738,-0.655902 1.3919729,1.3919729 0 0 1 0.36301,-0.473075 c 0.0111,-0.0085 0.0394,-0.02804 0.0849,-0.05953 l -0.008,-0.0127 q -0.19103,0.03413 -0.47625,0.108215 -0.28522,0.07408 -0.52414,0.154781 l -0.18256,-0.59399 a 7.1482479,7.1482479 0 0 1 1.10357,-0.27596 6.6045292,6.6045292 0 0 1 1.12448,-0.105833 2.0798896,2.0798896 0 0 1 1.54279,0.536839 2.1608521,2.1608521 0 0 1 0.53684,1.576652 v 2.979469 h -2.0582 v -0.63235 h 1.27318 v -2.436283 a 1.508125,1.508125 0 0 0 -0.30136,-1.014148 1.0935229,1.0935229 0 0 0 -0.87313,-0.347927 0.87603542,0.87603542 0 0 0 -0.68791,0.315912 1.5486062,1.5486062 0 0 0 -0.33946,0.859631 l -0.37783,3.254375 h -0.77655 z"
       class="l" />
    <path
       style="fill:#ffffff;stroke-width:0.26458332"
       id="path392"
       d="m 73.034195,110.58095 v -0.56012 l 2.024327,-2.25372 a 8.3904667,8.3904667 0 0 0 0.582084,-0.7067 2.20345,2.20345 0 0 0 0.286543,-0.51779 1.419225,1.419225 0 0 0 0.08282,-0.48154 1.2319,1.2319 0 0 0 -0.127265,-0.56251 0.96625833,0.96625833 0 0 0 -0.370416,-0.39899 1.0847917,1.0847917 0 0 0 -0.573088,-0.14631 1.1792479,1.1792479 0 0 0 -0.916781,0.34396 1.3123333,1.3123333 0 0 0 -0.31406,0.92075 h -0.79375 a 1.9962812,1.9962812 0 0 1 0.233362,-0.96335 1.6906875,1.6906875 0 0 1 0.691885,-0.68554 2.5103667,2.5103667 0 0 1 2.092325,-0.0468 1.508125,1.508125 0 0 1 0.645055,0.57918 1.6467667,1.6467667 0 0 1 0.224895,0.86571 2.1015854,2.1015854 0 0 1 -0.311943,1.05066 6.429375,6.429375 0 0 1 -0.846667,1.12236 l -1.655233,1.80367 h 3.098006 v 0.63712 z"
       class="l" />
    <path
       style="fill:#ffffff;stroke-width:0.26458332"
       id="path394"
       d="m 78.522183,111.10853 a 1.9579167,1.9579167 0 0 1 -0.547423,0.70432 l -0.449792,-0.30532 a 2.4714729,2.4714729 0 0 0 0.314061,-0.58579 1.831975,1.831975 0 0 0 0.105833,-0.62812 v -0.64082 h 0.776817 v 0.62812 a 1.9393958,1.9393958 0 0 1 -0.199496,0.82761 z"
       class="l" />
    <path
       style="fill:#ffffff;stroke-width:0.26458332"
       id="path396"
       d="m 83.188639,107.98248 a 1.6062854,1.6062854 0 0 1 0.248179,0.87657 1.79705,1.79705 0 0 1 -0.254529,0.97208 1.654175,1.654175 0 0 1 -0.698235,0.62177 2.2775333,2.2775333 0 0 1 -1.003565,0.21457 2.3598187,2.3598187 0 0 1 -0.992981,-0.20399 1.666875,1.666875 0 0 1 -0.706702,-0.59187 1.6155458,1.6155458 0 0 1 -0.26088,-0.92313 h 0.79375 a 1.1162771,1.1162771 0 0 0 0.142346,0.56859 0.95646875,0.95646875 0 0 0 0.405342,0.37994 1.3512271,1.3512271 0 0 0 0.619654,0.13388 1.190625,1.190625 0 0 0 0.855133,-0.2929 1.1345333,1.1345333 0 0 0 0.307711,-0.86148 1.0287,1.0287 0 0 0 -0.34581,-0.84667 1.4800792,1.4800792 0 0 0 -0.961232,-0.28204 h -0.560123 v -0.63659 h 0.560123 a 1.4909271,1.4909271 0 0 0 0.668338,-0.136 0.92604167,0.92604167 0 0 0 0.409575,-0.37782 1.1072812,1.1072812 0 0 0 0.135996,-0.55166 1.1234208,1.1234208 0 0 0 -0.269611,-0.8128 1.0718271,1.0718271 0 0 0 -0.804333,-0.27781 1.2334875,1.2334875 0 0 0 -0.582083,0.13229 0.95911458,0.95911458 0 0 0 -0.390525,0.37042 1.0959042,1.0959042 0 0 0 -0.139965,0.56224 h -0.79375 a 1.6139583,1.6139583 0 0 1 0.239712,-0.86149 1.6790458,1.6790458 0 0 1 0.672571,-0.61542 2.1238104,2.1238104 0 0 1 0.992982,-0.22489 2.2725062,2.2725062 0 0 1 0.984779,0.19949 1.4687021,1.4687021 0 0 1 0.651404,0.59188 1.8457333,1.8457333 0 0 1 0.23151,0.9525 1.3184187,1.3184187 0 0 1 -0.105833,0.50085 1.5237354,1.5237354 0 0 1 -0.324908,0.48366 1.6200437,1.6200437 0 0 1 -0.541073,0.36089 1.4403917,1.4403917 0 0 1 0.817033,0.57494 z"
       class="l" />
  </g>
</svg>
