<?xml version="1.0" encoding="UTF-8" standalone="no"?>
<svg
   xmlns:dc="http://purl.org/dc/elements/1.1/"
   xmlns:cc="http://creativecommons.org/ns#"
   xmlns:rdf="http://www.w3.org/1999/02/22-rdf-syntax-ns#"
   xmlns:svg="http://www.w3.org/2000/svg"
   xmlns="http://www.w3.org/2000/svg"
   xmlns:xlink="http://www.w3.org/1999/xlink"
   id="svg5335"
   version="1.1"
   viewBox="0 0 56.118125 46.922004"
   height="177.343"
   width="212.10001">
  <defs
     id="defs5329">
    <linearGradient
       xlink:href="#j"
       y2="1949.3621"
       x2="2265.8491"
       y1="1949.3621"
       x1="2239.96"
       id="ag" />
    <linearGradient
       gradientUnits="userSpaceOnUse"
       y2="963.46698"
       x2="2617.0591"
       y1="1079.265"
       x1="2618.332"
       id="j">
      <stop
         style="stop-color:#d643ff;stop-opacity:1"
         id="stop17"
         stop-color="#a1e2ff"
         offset="0" />
      <stop
         style="stop-color:#c700ff;stop-opacity:1"
         id="stop19"
         stop-color="#69b2f9"
         offset="1" />
    </linearGradient>
    <linearGradient
       xlink:href="#j"
       y2="1960.965"
       x2="2371.198"
       y1="1870.86"
       x1="2362.3479"
       id="af" />
    <linearGradient
       xlink:href="#j"
       y2="1872.488"
       x2="2303.6289"
       y1="1945.698"
       x1="2304.4341"
       id="ae" />
  </defs>
  <metadata
     id="metadata5332">
    <rdf:RDF>
      <cc:Work
         rdf:about="">
        <dc:format>image/svg+xml</dc:format>
        <dc:type
           rdf:resource="http://purl.org/dc/dcmitype/StillImage" />
        <dc:title></dc:title>
      </cc:Work>
    </rdf:RDF>
  </metadata>
  <g
     transform="translate(-64.502341,-109.97005)"
     id="layer1">
    <polygon
       style="fill:url(#ae)"
       id="polygon232"
       points="2265.849,2014.719 2276.162,1972.618 2360.636,1967.253 2355.809,1865.885 2247.746,1879.951 "
       class="an"
       transform="matrix(0.26458333,0,0,0.26458333,-506.94447,-380.63888)" />
    <polygon
       style="fill:#c700ff;fill-opacity:1"
       id="polygon234"
       points="2360.636,1967.253 2276.162,1972.618 2265.849,2014.719 2265.849,2031.613 2282.598,1980.125 2371.899,1976.102 "
       class="o"
       transform="matrix(0.26458333,0,0,0.26458333,-506.94447,-380.63888)" />
    <polygon
       style="fill:url(#af)"
       id="polygon236"
       points="2371.899,1854.27 2371.899,1976.102 2360.636,1967.253 2355.809,1865.885 "
       class="ao"
       transform="matrix(0.26458333,0,0,0.26458333,-506.94447,-380.63888)" />
    <polygon
       style="fill:#d643ff;fill-opacity:1"
       id="polygon238"
       points="2239.96,1867.11 2371.899,1854.27 2355.809,1865.885 2247.746,1879.951 "
       class="q"
       transform="matrix(0.26458333,0,0,0.26458333,-506.94447,-380.63888)" />
    <polygon
       style="fill:url(#ag)"
       id="polygon240"
       points="2247.746,1879.951 2239.96,1867.11 2265.849,2031.613 2265.849,2014.719 "
       class="ap"
       transform="matrix(0.26458333,0,0,0.26458333,-506.94447,-380.63888)" />
    <path
       style="fill:#ffffff;stroke-width:0.26458332"
       id="path242"
       d="M 92.515901,120.27584 H 91.59912 v -0.63235 h 1.706033 v 2.78844 h -0.789252 z"
       class="aj" />
    <path
       style="fill:#ffffff;stroke-width:0.26458332"
       id="path244"
       d="m 98.139091,120.14011 -1.833562,4.50295 h -0.844551 l 1.812396,-4.36722 h -2.932641 v -2.15185 h 0.785018 v 1.51923 h 3.01334 z"
       class="aj" />
    <path
       style="fill:#ffffff;stroke-width:0.26458332"
       id="path246"
       d="m 98.538083,124.66422 v -0.72575 a 1.6737542,1.6737542 0 0 0 0.246062,0.0169 1.4649979,1.4649979 0 0 0 0.993246,-0.37042 1.6171333,1.6171333 0 0 0 0.487889,-0.91043 v -2.39791 h -1.12871 v -0.63236 h 1.905 v 2.58048 a 3.571875,3.571875 0 0 0 0.0794,0.76386 l 0.34793,1.65523 h -0.74269 l -0.29289,-1.40044 h -0.0296 a 1.5824729,1.5824729 0 0 1 -0.28443,0.70882 1.7298458,1.7298458 0 0 1 -0.596105,0.52916 1.6216312,1.6216312 0 0 1 -0.7874,0.19738 1.1231562,1.1231562 0 0 1 -0.197644,-0.0145 z"
       class="aj" />
    <path
       style="fill:#ffffff;stroke-width:0.26458332"
       id="path248"
       d="m 106.07553,119.64349 v 2.9964 a 2.2299083,2.2299083 0 0 1 -0.27781,1.14803 1.7920229,1.7920229 0 0 1 -0.78105,0.71729 2.6386896,2.6386896 0 0 1 -1.16417,0.24394 4.9895125,4.9895125 0 0 1 -1.77826,-0.35242 l 0.19103,-0.58579 a 4.5772917,4.5772917 0 0 0 1.32847,0.32253 1.905,1.905 0 0 1 -0.42016,-0.84455 l -0.82761,-3.6457 h 0.78951 l 0.81042,3.68803 a 4.1248542,4.1248542 0 0 0 0.11457,0.43709 1.6420042,1.6420042 0 0 0 0.14869,0.32676 1.349375,1.349375 0 0 0 0.79587,-0.47942 1.4877521,1.4877521 0 0 0 0.28654,-0.94642 v -3.02604 z"
       class="aj" />
    <path
       style="fill:#ffffff;stroke-width:0.26458332"
       id="path250"
       d="m 107.95143,121.46409 a 1.9790833,1.9790833 0 0 1 0.19738,-0.65564 1.3927667,1.3927667 0 0 1 0.36274,-0.47334 q 0.0169,-0.0127 0.0849,-0.0593 l -0.008,-0.0127 q -0.19103,0.0341 -0.47625,0.10821 -0.28522,0.0741 -0.52414,0.15479 l -0.18253,-0.59426 a 7.1482479,7.1482479 0 0 1 1.10358,-0.27596 6.6167,6.6167 0 0 1 1.12448,-0.10583 2.0790958,2.0790958 0 0 1 1.54279,0.53684 2.1605875,2.1605875 0 0 1 0.53683,1.57665 v 2.97921 h -2.05845 v -0.63235 h 1.27344 v -2.43602 a 1.508125,1.508125 0 0 0 -0.30136,-1.01415 1.0935229,1.0935229 0 0 0 -0.87313,-0.34793 0.87524167,0.87524167 0 0 0 -0.68792,0.3175 1.5480771,1.5480771 0 0 0 -0.33946,0.85937 l -0.37782,3.25437 h -0.77655 z"
       class="aj" />
    <path
       style="fill:#ffffff;stroke-width:0.26458332"
       id="path252"
       d="m 94.196799,131.93682 a 1.2840229,1.2840229 0 0 0 -0.292894,-0.94006 1.2980458,1.2980458 0 0 0 -0.942181,-0.29104 h -1.812131 v -0.63236 h 1.850496 a 2.0835937,2.0835937 0 0 1 1.483254,0.47625 1.8483792,1.8483792 0 0 1 0.502708,1.40891 v 3.1152 h -0.789252 z m -3.038739,1.43034 a 2.5508479,2.5508479 0 0 1 0.05715,-0.60854 2.5212146,2.5212146 0 0 1 0.163512,-0.44768 h 0.645054 a 2.9662437,2.9662437 0 0 0 -0.07646,0.43286 5.5033333,5.5033333 0 0 0 -0.02646,0.57283 v 1.75709 h -0.763852 z"
       class="aj" />
    <path
       style="fill:#ffffff;stroke-width:0.26458332"
       id="path254"
       d="m 99.998583,134.47047 v 0.60272 h -4.10845 v -0.63658 h 2.717271 v -2.49979 a 1.0554229,1.0554229 0 0 0 -1.235075,-1.23084 h -1.209675 v -0.63235 h 1.252008 a 2.0679833,2.0679833 0 0 1 1.479021,0.47625 1.8579042,1.8579042 0 0 1 0.498739,1.4089 v 2.44872 z"
       class="aj" />
    <path
       style="fill:#ffffff;stroke-width:0.26458332"
       id="path256"
       d="m 101.36066,130.70598 h -0.91678 v -0.63235 h 1.70603 v 2.78844 h -0.78925 z"
       class="aj" />
    <path
       style="fill:#ffffff;stroke-width:0.26458332"
       id="path258"
       d="m 104.36553,134.18737 a 4.7238708,4.7238708 0 0 0 0.85725,0.27173 4.0433625,4.0433625 0 0 0 0.85725,0.0976 3.1501292,3.1501292 0 0 0 1.09088,-0.17622 1.6380354,1.6380354 0 0 0 0.75538,-0.53472 1.4078479,1.4078479 0 0 0 0.27596,-0.88476 v -2.88582 h 0.76386 v 2.95805 a 1.8748375,1.8748375 0 0 1 -0.37995,1.19062 2.2838833,2.2838833 0 0 1 -1.02499,0.72787 4.0849021,4.0849021 0 0 1 -1.44304,0.24183 5.8173937,5.8173937 0 0 1 -1.27317,-0.14631 5.7438396,5.7438396 0 0 1 -1.24355,-0.43075 v -4.54104 h 0.76386 z m 1.4388,-0.94853 a 2.5505833,2.5505833 0 0 0 0.0794,-0.67707 v -2.48708 h 0.7673 v 2.34685 a 2.4037396,2.4037396 0 0 1 -0.10584,0.75327 1.3893271,1.3893271 0 0 1 -0.32676,0.54531 l -0.65351,-0.0265 a 1.0652125,1.0652125 0 0 0 0.23918,-0.45614 z"
       class="aj" />
    <path
       style="fill:#ffffff;stroke-width:0.26458332"
       id="path260"
       d="m 110.88407,130.70598 h -0.91678 v -0.63235 h 1.70603 v 2.78844 h -0.78925 z"
       class="aj" />
  </g>
</svg>
