<?xml version="1.0" encoding="UTF-8" standalone="no"?>
<svg
   xmlns:dc="http://purl.org/dc/elements/1.1/"
   xmlns:cc="http://creativecommons.org/ns#"
   xmlns:rdf="http://www.w3.org/1999/02/22-rdf-syntax-ns#"
   xmlns:svg="http://www.w3.org/2000/svg"
   xmlns="http://www.w3.org/2000/svg"
   xmlns:xlink="http://www.w3.org/1999/xlink"
   id="svg2109"
   version="1.1"
   viewBox="0 0 44.898203 34.999084"
   height="132.28"
   width="169.694">
  <defs
     id="defs2103">
    <linearGradient
       xlink:href="#ap"
       y2="877.633"
       x2="1557.583"
       y1="877.633"
       x1="1536.87"
       id="bm" />
    <linearGradient
       gradientUnits="userSpaceOnUse"
       gradientTransform="matrix(-0.984,-0.176,-0.176,0.984,7352.265,327.152)"
       y2="2684.366"
       x2="4148.019"
       y1="2772.6909"
       x1="4148.019"
       id="ap">
      <stop
         style="stop-color:#d643ff;stop-opacity:1"
         id="stop71"
         stop-color="#5e91ff"
         offset="0" />
      <stop
         style="stop-color:#c700ff;stop-opacity:1"
         id="stop73"
         stop-color="#1a65d3"
         offset="1" />
    </linearGradient>
    <linearGradient
       xlink:href="#ap"
       y2="886.31702"
       x2="1641.605"
       y1="819.10797"
       x1="1635.004"
       id="bl" />
    <linearGradient
       xlink:href="#ap"
       y2="820.32098"
       x2="1587.8409"
       y1="874.90198"
       x1="1588.441"
       id="bk" />
  </defs>
  <metadata
     id="metadata2106">
    <rdf:RDF>
      <cc:Work
         rdf:about="">
        <dc:format>image/svg+xml</dc:format>
        <dc:type
           rdf:resource="http://purl.org/dc/dcmitype/StillImage" />
        <dc:title></dc:title>
      </cc:Work>
    </rdf:RDF>
  </metadata>
  <g
     transform="translate(-62.804595,-107.14332)"
     id="layer1">
    <polygon
       style="fill:url(#bk)"
       id="polygon690"
       points="1557.583,926.383 1565.835,894.98 1633.419,890.978 1629.557,815.368 1543.1,825.859 "
       class="by"
       transform="matrix(0.26458333,0,0,0.26458333,-326.8568,-106.29711)" />
    <polygon
       style="fill:#c700ff;fill-opacity:1"
       id="polygon692"
       points="1633.419,890.978 1565.835,894.98 1557.583,926.383 1557.583,938.984 1570.984,900.579 1642.43,897.579 "
       class="be"
       transform="matrix(0.26458333,0,0,0.26458333,-326.8568,-106.29711)" />
    <polygon
       style="fill:url(#bl)"
       id="polygon694"
       points="1642.43,806.704 1642.43,897.579 1633.419,890.978 1629.557,815.368 "
       class="bz"
       transform="matrix(0.26458333,0,0,0.26458333,-326.8568,-106.29711)" />
    <polygon
       style="fill:#d643ff;fill-opacity:1"
       id="polygon696"
       points="1536.87,816.282 1642.43,806.704 1629.557,815.368 1543.1,825.859 "
       class="bc"
       transform="matrix(0.26458333,0,0,0.26458333,-326.8568,-106.29711)" />
    <polygon
       style="fill:url(#bm)"
       id="polygon698"
       points="1543.1,825.859 1536.87,816.282 1557.583,938.984 1557.583,926.383 "
       class="ca"
       transform="matrix(0.26458333,0,0,0.26458333,-326.8568,-106.29711)" />
    <circle
       style="fill:#ffffff;stroke-width:0.26458332"
       id="circle700"
       r="1.3731875"
       cy="120.76644"
       cx="90.242165"
       class="l" />
    <rect
       style="fill:#ffffff;stroke-width:0.26458332"
       id="rect702"
       ry="0.76041251"
       rx="0.76041251"
       height="3.7713706"
       width="5.1493206"
       y="122.40607"
       x="87.667519"
       class="l" />
    <rect
       style="fill:#ffffff;stroke-width:0.26458332"
       id="rect704"
       ry="0.38549793"
       rx="0.38549793"
       height="3.3268709"
       width="0.97895837"
       y="123.78403"
       x="87.667519"
       class="l" />
    <rect
       style="fill:#ffffff;stroke-width:0.26458332"
       id="rect706"
       ry="0.50773543"
       rx="0.50773543"
       height="3.9041915"
       width="1.3054541"
       y="125.27494"
       x="88.868965"
       class="l" />
    <rect
       style="fill:#ffffff;stroke-width:0.26458332"
       id="rect708"
       transform="scale(-1)"
       ry="0.50773543"
       rx="0.50773543"
       height="3.9041915"
       width="1.3054541"
       y="-129.17914"
       x="-91.615082"
       class="l" />
    <rect
       style="fill:#ffffff;stroke-width:0.26458332"
       id="rect710"
       transform="scale(-1)"
       ry="0.38549793"
       rx="0.38549793"
       height="3.3268709"
       width="0.97895837"
       y="-127.11115"
       x="-92.816818"
       class="l" />
    <circle
       style="fill:#ffffff;stroke-width:0.26458332"
       id="circle712"
       r="1.3731875"
       cy="120.76644"
       cx="96.976349"
       class="l" />
    <rect
       style="fill:#ffffff;stroke-width:0.26458332"
       id="rect714"
       ry="0.76041251"
       rx="0.76041251"
       height="3.7713706"
       width="5.1493206"
       y="122.40607"
       x="94.401665"
       class="l" />
    <rect
       style="fill:#ffffff;stroke-width:0.26458332"
       id="rect716"
       ry="0.38549793"
       rx="0.38549793"
       height="3.3268709"
       width="0.97895837"
       y="123.78403"
       x="94.401665"
       class="l" />
    <rect
       style="fill:#ffffff;stroke-width:0.26458332"
       id="rect718"
       transform="scale(-1)"
       ry="0.38549793"
       rx="0.38549793"
       height="3.3268709"
       width="0.97895837"
       y="-127.11115"
       x="-99.550995"
       class="l" />
    <polygon
       style="fill:#ffffff"
       id="polygon720"
       points="1608.738,889.989 1606.563,878.644 1601.889,878.644 1597.214,878.644 1595.04,889.989 1601.889,889.989 "
       class="l"
       transform="matrix(0.26458333,0,0,0.26458333,-326.8568,-106.29711)" />
    <path
       style="fill:#ffffff;stroke-width:0.26458332"
       id="path722"
       d="m 83.467243,113.42664 h 2.849562 v 3.57188 h -2.849562 z m 2.288645,3.11626 v -2.66462 h -1.727993 v 2.66462 z"
       class="l" />
    <path
       style="fill:#ffffff;stroke-width:0.26458332"
       id="path724"
       d="m 87.687082,113.87828 h -0.654844 v -0.45164 h 1.218671 v 1.99152 h -0.563827 z"
       class="l" />
    <path
       style="fill:#ffffff;stroke-width:0.26458332"
       id="path726"
       d="m 91.805322,113.76451 a 1.3700125,1.3700125 0 0 1 0.350044,1.02923 v 2.20398 h -0.560917 l -0.0029,-2.23732 a 0.95488125,0.95488125 0 0 0 -0.198448,-0.67283 0.8509,0.8509 0 0 0 -0.641085,-0.20929 h -0.506413 a 1.4210771,1.4210771 0 0 0 -0.15875,0.4199 2.3330958,2.3330958 0 0 0 -0.059,0.52599 v 1.20359 a 1.0678583,1.0678583 0 0 1 -0.233364,0.74559 0.87524167,0.87524167 0 0 1 -0.678921,0.25453 2.9768271,2.9768271 0 0 1 -0.348721,-0.0264 v -0.45165 a 1.704975,1.704975 0 0 0 0.209285,0.0122 0.485775,0.485775 0 0 0 0.383646,-0.13652 0.64320208,0.64320208 0 0 0 0.119856,-0.43048 v -1.12792 a 2.1341292,2.1341292 0 0 1 0.07276,-0.55007 1.2170833,1.2170833 0 0 1 0.200025,-0.43815 h -0.669925 v -0.45164 h 1.664229 a 1.4726708,1.4726708 0 0 1 1.058598,0.33734 z"
       class="l" />
    <path
       style="fill:#ffffff;stroke-width:0.26458332"
       id="path728"
       d="m 93.334614,113.87828 h -0.415132 v -0.45164 h 0.978959 v 3.57188 h -0.563827 z"
       class="l" />
    <path
       style="fill:#ffffff;stroke-width:0.26458332"
       id="path730"
       d="m 96.469132,114.50588 a 0.61489167,0.61489167 0 0 0 -0.171185,-0.45932 0.6397625,0.6397625 0 0 0 -0.468577,-0.16828 h -1.200415 v -0.45164 h 1.218671 a 1.4022917,1.4022917 0 0 1 0.633677,0.13229 0.93477292,0.93477292 0 0 1 0.407723,0.38497 1.2170833,1.2170833 0 0 1 0.141023,0.60325 v 2.44951 h -0.560917 z"
       class="l" />
    <path
       style="fill:#ffffff;stroke-width:0.26458332"
       id="path732"
       d="m 98.315395,113.87828 h -0.654844 v -0.45164 h 1.218671 v 1.99152 h -0.563827 z"
       class="l" />
    <path
       style="fill:#ffffff;stroke-width:0.26458332"
       id="path734"
       d="m 100.46169,116.36404 a 3.3771417,3.3771417 0 0 0 0.61225,0.19394 2.8879271,2.8879271 0 0 0 0.61225,0.0699 2.2534562,2.2534562 0 0 0 0.77893,-0.12594 1.1710458,1.1710458 0 0 0 0.53975,-0.38206 1.0054167,1.0054167 0 0 0 0.19711,-0.63209 v -2.06136 h 0.54584 v 2.11296 a 1.3390562,1.3390562 0 0 1 -0.2712,0.85037 1.6322146,1.6322146 0 0 1 -0.7321,0.51991 2.9162375,2.9162375 0 0 1 -1.03188,0.17277 4.1505187,4.1505187 0 0 1 -0.90937,-0.10584 4.1055396,4.1055396 0 0 1 -0.888204,-0.30771 v -3.24379 h 0.545834 z m 1.02765,-0.67759 a 1.8205979,1.8205979 0 0 0 0.0574,-0.48366 v -1.77641 h 0.54874 v 1.6764 a 1.7171458,1.7171458 0 0 1 -0.0759,0.53816 0.99245208,0.99245208 0 0 1 -0.23336,0.38946 l -0.46673,-0.018 a 0.76120625,0.76120625 0 0 0 0.16987,-0.3257 z"
       class="l" />
  </g>
</svg>
