<?xml version="1.0" encoding="UTF-8" standalone="no"?>
<svg
   xmlns:dc="http://purl.org/dc/elements/1.1/"
   xmlns:cc="http://creativecommons.org/ns#"
   xmlns:rdf="http://www.w3.org/1999/02/22-rdf-syntax-ns#"
   xmlns:svg="http://www.w3.org/2000/svg"
   xmlns="http://www.w3.org/2000/svg"
   xmlns:xlink="http://www.w3.org/1999/xlink"
   id="svg9226"
   version="1.1"
   viewBox="0 0 249.20468 39.131874"
   height="147.89999"
   width="941.87598">
  <defs
     id="defs9220">
    <linearGradient
       xlink:href="#a"
       y2="615.84998"
       x2="4175.0112"
       y1="690.59998"
       x1="4185.7798"
       id="i" />
    <linearGradient
       gradientUnits="userSpaceOnUse"
       gradientTransform="matrix(-1,0,0,1,5113,0)"
       y2="1232.389"
       x2="3496.207"
       y1="1163.078"
       x1="3484.449"
       id="a">
      <stop
         style="stop-color:#c700ff;stop-opacity:1"
         id="stop4"
         stop-color="#574ace"
         offset="0" />
      <stop
         style="stop-color:#d643ff;stop-opacity:1"
         id="stop6"
         stop-color="#8543ff"
         offset="1" />
    </linearGradient>
    <linearGradient
       xlink:href="#a"
       y2="614.57501"
       x2="3775.146"
       y1="694.67401"
       x1="3764.9341"
       id="h" />
    <linearGradient
       xlink:href="#a"
       y2="692.90503"
       x2="3966.2471"
       y1="597.948"
       x1="3950.1379"
       id="g" />
  </defs>
  <metadata
     id="metadata9223">
    <rdf:RDF>
      <cc:Work
         rdf:about="">
        <dc:format>image/svg+xml</dc:format>
        <dc:type
           rdf:resource="http://purl.org/dc/dcmitype/StillImage" />
        <dc:title></dc:title>
      </cc:Work>
    </rdf:RDF>
  </metadata>
  <g
     transform="translate(-49.579775,-107.34478)"
     id="layer1">
    <polygon
       style="fill:url(#g)"
       id="polygon126"
       points="1309.605,597.237 953.887,616.674 934.499,700.527 1320.831,702.075 1353.561,717.389 "
       class="k"
       transform="matrix(0.26458333,0,0,0.26458333,-190.71798,-47.793659)" />
    <polygon
       style="fill:url(#h)"
       id="polygon128"
       points="1309.605,597.237 1353.561,717.389 1379.15,734.25 1325.016,586.35 "
       class="l"
       transform="matrix(0.26458333,0,0,0.26458333,-190.71798,-47.793659)" />
    <polygon
       style="fill:#d643ff;fill-opacity:1"
       id="polygon130"
       points="932.486,611.667 1325.016,586.35 1309.605,597.237 953.887,616.674 "
       class="e"
       transform="matrix(0.26458333,0,0,0.26458333,-190.71798,-47.793659)" />
    <polygon
       style="fill:url(#i)"
       id="polygon132"
       points="934.499,700.527 953.887,616.674 932.486,611.667 908.212,711.357 "
       class="m"
       transform="matrix(0.26458333,0,0,0.26458333,-190.71798,-47.793659)" />
    <polygon
       style="fill:#c700ff;fill-opacity:1"
       id="polygon134"
       points="934.499,700.527 1320.831,702.075 1353.561,717.389 1379.15,734.25 1289.861,708.067 911.981,709.804 "
       class="g"
       transform="matrix(0.26458333,0,0,0.26458333,-190.71798,-47.793659)" />
    <path
       style="fill:#ffffff;stroke-width:0.26458332"
       id="path978"
       d="m 73.457637,119.2378 -1.964267,4.82468 h -0.904875 l 1.941513,-4.67916 h -3.141927 v -2.30531 h 0.841375 v 1.62798 h 3.227916 z"
       class="aj" />
    <path
       style="fill:#ffffff;stroke-width:0.26458332"
       id="path980"
       d="m 77.613977,121.72092 1.696243,2.34182 h -0.941387 l -2.386806,-3.29194 a 1.1358562,1.1358562 0 0 0 -0.486569,1.0459 v 2.24631 h -0.818621 v -1.94125 a 2.409825,2.409825 0 0 1 0.236538,-1.13903 1.5150042,1.5150042 0 0 1 0.732102,-0.67072 l -1.159405,-1.60523 h 0.945886 l 1.659731,2.29182 1.291431,-2.29182 h 0.950384 z"
       class="aj" />
    <path
       style="fill:#ffffff;stroke-width:0.26458332"
       id="path982"
       d="m 82.802456,120.32498 a 0.92207292,0.92207292 0 0 0 -0.256911,-0.68792 0.95937917,0.95937917 0 0 0 -0.702468,-0.25241 h -1.800755 v -0.6776 h 1.828007 a 2.1039667,2.1039667 0 0 1 0.950383,0.20002 1.4022917,1.4022917 0 0 1 0.611717,0.57759 1.825625,1.825625 0 0 1 0.211666,0.90487 v 3.67401 h -0.84111 z"
       class="aj" />
    <path
       style="fill:#ffffff;stroke-width:0.26458332"
       id="path984"
       d="m 85.980895,123.11236 a 5.0657125,5.0657125 0 0 0 0.918634,0.29104 4.3296417,4.3296417 0 0 0 0.918633,0.10584 3.375025,3.375025 0 0 0 1.168665,-0.18865 1.7552458,1.7552458 0 0 0 0.80936,-0.57309 1.508125,1.508125 0 0 0 0.29554,-0.948 v -3.09325 h 0.818356 v 3.16945 a 2.0079229,2.0079229 0 0 1 -0.406929,1.27555 2.4458083,2.4458083 0 0 1 -1.098021,0.77973 4.3759437,4.3759437 0 0 1 -1.545961,0.25929 6.2309375,6.2309375 0 0 1 -1.364191,-0.15689 6.1542083,6.1542083 0 0 1 -1.332442,-0.46144 v -4.86569 h 0.818356 z m 1.541463,-1.01626 a 2.7252083,2.7252083 0 0 0 0.08652,-0.72523 v -2.66462 h 0.823118 v 2.51355 a 2.5757187,2.5757187 0 0 1 -0.11377,0.80724 1.4903979,1.4903979 0 0 1 -0.350044,0.5842 l -0.700353,-0.0265 a 1.1400896,1.1400896 0 0 0 0.254529,-0.48948 z"
       class="aj" />
    <path
       style="fill:#ffffff;stroke-width:0.26458332"
       id="path986"
       d="m 92.965366,119.38385 h -0.982133 v -0.6776 h 1.828006 v 2.98741 h -0.846667 z"
       class="aj" />
    <path
       style="fill:#ffffff;stroke-width:0.26458332"
       id="path988"
       d="m 97.931066,119.38385 h -0.623623 v -0.6776 h 1.468702 v 5.35649 h -0.846666 z"
       class="aj" />
    <path
       style="fill:#ffffff;stroke-width:0.26458332"
       id="path990"
       d="m 104.16015,118.70625 v 0.6776 h -0.89588 v 4.67916 h -0.84666 v -4.67916 h -2.546354 v -0.6776 z"
       class="aj" />
    <path
       style="fill:#ffffff;stroke-width:0.26458332"
       id="path992"
       d="m 104.72451,124.05322 0.0228,-0.65934 a 3.3969854,3.3969854 0 0 0 0.66384,0.059 0.70246875,0.70246875 0 0 0 0.55933,-0.21379 0.98398542,0.98398542 0 0 0 0.1852,-0.65934 v -3.1959 h -1.05039 v -0.6776 h 1.89627 v 3.94229 a 1.5710958,1.5710958 0 0 1 -0.3638,1.12078 1.3716,1.3716 0 0 1 -1.0459,0.38417 4.0023521,4.0023521 0 0 1 -0.86731,-0.10027 z"
       class="aj" />
    <path
       style="fill:#ffffff;stroke-width:0.26458332"
       id="path994"
       d="m 109.66957,123.89447 a 1.8888604,1.8888604 0 0 1 -0.75274,-0.75486 2.2984354,2.2984354 0 0 1 -0.26829,-1.12765 v -3.30571 h 0.84111 v 3.36498 a 1.6322146,1.6322146 0 0 0 0.1614,0.74347 1.1951229,1.1951229 0 0 0 0.45482,0.49795 1.3829771,1.3829771 0 0 0 1.35493,0 1.1959167,1.1959167 0 0 0 0.45482,-0.49795 1.6322146,1.6322146 0 0 0 0.16139,-0.74347 v -1.79626 a 1.04775,1.04775 0 0 0 -0.19314,-0.67522 0.66489792,0.66489792 0 0 0 -0.54795,-0.23812 1.5300854,1.5300854 0 0 0 -0.65485,0.17277 l -0.13229,-0.56383 a 2.0272375,2.0272375 0 0 1 0.50271,-0.22966 1.8100146,1.8100146 0 0 1 0.52917,-0.0841 1.3382625,1.3382625 0 0 1 0.71622,0.18521 1.2038542,1.2038542 0 0 1 0.46382,0.53658 1.9616208,1.9616208 0 0 1 0.16139,0.82761 v 1.80526 a 2.3132521,2.3132521 0 0 1 -0.2659,1.12765 1.8766896,1.8766896 0 0 1 -0.74798,0.75486 2.4709437,2.4709437 0 0 1 -2.23943,0 z"
       class="aj" />
    <path
       style="fill:#ffffff;stroke-width:0.26458332"
       id="path996"
       d="m 113.84152,124.05322 0.0228,-0.65934 a 3.3969854,3.3969854 0 0 0 0.66384,0.059 0.70246875,0.70246875 0 0 0 0.55933,-0.21379 0.98398542,0.98398542 0 0 0 0.18521,-0.65934 v -3.1959 h -1.0504 v -0.6776 h 1.89627 v 3.94229 a 1.5710958,1.5710958 0 0 1 -0.3638,1.12078 1.3716,1.3716 0 0 1 -1.0459,0.38417 4.0023521,4.0023521 0 0 1 -0.86731,-0.10027 z"
       class="aj" />
    <path
       style="fill:#ffffff;stroke-width:0.26458332"
       id="path998"
       d="M 118.17513,119.38385 H 117.193 v -0.6776 h 1.828 v 2.98741 h -0.84666 z"
       class="aj" />
    <path
       style="fill:#ffffff;stroke-width:0.26458332"
       id="path1000"
       d="m 120.02563,124.05322 0.0227,-0.65934 a 3.3969854,3.3969854 0 0 0 0.66384,0.059 0.70246875,0.70246875 0 0 0 0.55933,-0.21379 0.98398542,0.98398542 0 0 0 0.1852,-0.65934 v -3.1959 h -1.05039 v -0.6776 h 1.89627 v 3.94229 a 1.5710958,1.5710958 0 0 1 -0.36381,1.12078 1.3716,1.3716 0 0 1 -1.04589,0.38417 4.0023521,4.0023521 0 0 1 -0.86731,-0.10027 z"
       class="aj" />
    <path
       style="fill:#ffffff;stroke-width:0.26458332"
       id="path1002"
       d="m 126.25551,118.70625 h 4.27434 v 5.35649 h -4.27434 z m 3.43323,4.67466 v -3.99706 h -2.59292 v 3.99706 z"
       class="aj" />
    <path
       style="fill:#ffffff;stroke-width:0.26458332"
       id="path1004"
       d="m 132.17953,118.70625 h 2.01427 q 1.06415,0 1.5875,0.50695 0.52334,0.50694 0.52758,1.54384 v 3.3057 h -0.84111 v -3.35571 a 1.4253104,1.4253104 0 0 0 -0.30004,-1.00938 1.2845521,1.2845521 0 0 0 -0.96414,-0.3138 h -1.18242 l -0.005,4.67916 h -0.84111 z"
       class="aj" />
    <path
       style="fill:#ffffff;stroke-width:0.26458332"
       id="path1006"
       d="m 141.60425,119.2132 q 0.5252,0.5072 0.5252,1.54384 v 3.3057 h -0.84138 l -0.005,-3.35571 a 1.4321896,1.4321896 0 0 0 -0.29792,-1.00938 1.27635,1.27635 0 0 0 -0.96176,-0.3138 h -0.75935 a 2.1314833,2.1314833 0 0 0 -0.23813,0.62971 3.5017604,3.5017604 0 0 0 -0.0886,0.78899 v 1.80525 a 1.6020521,1.6020521 0 0 1 -0.35004,1.11866 1.3128625,1.3128625 0 0 1 -1.01865,0.38206 4.4341521,4.4341521 0 0 1 -0.52282,-0.041 v -0.6776 a 2.5296812,2.5296812 0 0 0 0.3138,0.0183 0.72839792,0.72839792 0 0 0 0.5752,-0.20452 0.96334792,0.96334792 0 0 0 0.17966,-0.64559 v -1.69148 a 3.2091312,3.2091312 0 0 1 0.10927,-0.82524 1.825625,1.825625 0 0 1 0.30003,-0.65696 h -1.00541 v -0.6776 h 2.49661 q 1.06389,-5.3e-4 1.58882,0.50642 z"
       class="aj" />
    <path
       style="fill:#ffffff;stroke-width:0.26458332"
       id="path1008"
       d="m 144.0064,120.65703 a 2.1182542,2.1182542 0 0 1 0.21167,-0.70247 1.4927792,1.4927792 0 0 1 0.38894,-0.50694 q 0.018,-0.0135 0.091,-0.0638 l -0.009,-0.0138 q -0.20453,0.0365 -0.51171,0.11588 -0.30718,0.0794 -0.56144,0.1659 l -0.1955,-0.63659 a 7.6551896,7.6551896 0 0 1 1.18216,-0.29554 7.0892458,7.0892458 0 0 1 1.20518,-0.11377 2.2277917,2.2277917 0 0 1 1.65285,0.5752 q 0.57071,0.57521 0.57521,1.68937 v 3.19219 h -2.20345 v -0.67759 h 1.36419 v -2.61012 a 1.6155458,1.6155458 0 0 0 -0.32279,-1.08691 1.1718396,1.1718396 0 0 0 -0.93689,-0.37279 0.93794792,0.93794792 0 0 0 -0.7366,0.33866 1.6589375,1.6589375 0 0 0 -0.36381,0.92075 l -0.40454,3.48774 h -0.83212 z"
       class="aj" />
    <path
       style="fill:#ffffff;stroke-width:0.26458332"
       id="path1010"
       d="m 86.128797,132.45295 a 1.7197917,1.7197917 0 0 1 0.265907,0.939 1.9245792,1.9245792 0 0 1 -0.272786,1.0414 1.7711208,1.7711208 0 0 1 -0.747977,0.66622 2.4413104,2.4413104 0 0 1 -1.075266,0.22966 2.5299458,2.5299458 0 0 1 -1.06389,-0.21828 1.7859375,1.7859375 0 0 1 -0.757238,-0.635 1.7309042,1.7309042 0 0 1 -0.279664,-0.98901 h 0.850371 a 1.1948583,1.1948583 0 0 0 0.1524,0.60854 1.0247312,1.0247312 0 0 0 0.434181,0.40693 1.4483292,1.4483292 0 0 0 0.66384,0.14314 1.2752917,1.2752917 0 0 0 0.916252,-0.3138 1.2154958,1.2154958 0 0 0 0.32967,-0.92313 1.1022542,1.1022542 0 0 0 -0.370416,-0.90726 1.5875,1.5875 0 0 0 -1.030023,-0.30241 h -0.60034 v -0.6821 h 0.60034 a 1.5999354,1.5999354 0 0 0 0.716227,-0.14552 0.9921875,0.9921875 0 0 0 0.438679,-0.40481 1.1863917,1.1863917 0 0 0 0.145521,-0.59108 1.2027958,1.2027958 0 0 0 -0.28866,-0.87075 1.1485562,1.1485562 0 0 0 -0.861748,-0.29792 1.3208,1.3208 0 0 0 -0.62283,0.14103 1.0271125,1.0271125 0 0 0 -0.418306,0.39687 1.1726333,1.1726333 0 0 0 -0.150019,0.60246 h -0.85037 a 1.7295812,1.7295812 0 0 1 0.25691,-0.92313 1.7965208,1.7965208 0 0 1 0.720725,-0.65935 2.2754167,2.2754167 0 0 1 1.06389,-0.24103 2.4368125,2.4368125 0 0 1 1.054893,0.21378 1.5745354,1.5745354 0 0 1 0.697971,0.635 1.978025,1.978025 0 0 1 0.247915,1.02076 1.412875,1.412875 0 0 1 -0.113771,0.53658 1.6345958,1.6345958 0 0 1 -0.347927,0.51832 1.7354021,1.7354021 0 0 1 -0.579702,0.38655 1.5422562,1.5422562 0 0 1 0.875241,0.61834 z"
       class="aj" />
    <path
       style="fill:#ffffff;stroke-width:0.26458332"
       id="path1012"
       d="m 88.195458,135.80072 a 2.1002625,2.1002625 0 0 1 -0.586581,0.75486 l -0.481807,-0.32729 a 2.6487437,2.6487437 0 0 0 0.336286,-0.6276 1.9624146,1.9624146 0 0 0 0.113771,-0.6731 v -0.68791 h 0.832114 v 0.6731 a 2.07645,2.07645 0 0 1 -0.213783,0.88794 z"
       class="aj" />
    <path
       style="fill:#ffffff;stroke-width:0.26458332"
       id="path1014"
       d="m 93.856747,133.69649 h -0.918633 v 1.54146 h -0.850371 v -1.54146 h -3.014927 v -0.49107 l 2.960159,-4.58814 h 0.904875 v 4.39711 h 0.918633 z m -1.769004,-0.6821 v -3.2512 l -0.100012,0.17727 -1.955271,3.07393 z"
       class="aj" />
    <path
       style="fill:#ffffff;stroke-width:0.26458332"
       id="path1016"
       d="m 95.26195,135.80072 a 2.1002625,2.1002625 0 0 1 -0.586582,0.75486 l -0.481806,-0.32729 a 2.6487437,2.6487437 0 0 0 0.336285,-0.6276 1.9624146,1.9624146 0 0 0 0.113771,-0.6731 v -0.68791 h 0.832115 v 0.6731 a 2.07645,2.07645 0 0 1 -0.213783,0.88794 z"
       class="aj" />
    <path
       style="fill:#ffffff;stroke-width:0.26458332"
       id="path1018"
       d="m 97.171447,128.61728 h 3.396723 v 0.76729 H 97.889527 L 97.694,131.19882 a 2.066925,2.066925 0 0 1 0.484452,-0.20452 2.1865167,2.1865167 0 0 1 0.616214,-0.0818 1.9735271,1.9735271 0 0 1 1.048015,0.27067 1.7708562,1.7708562 0 0 1 0.682099,0.77073 2.6971625,2.6971625 0 0 1 0.23812,1.17316 2.6587979,2.6587979 0 0 1 -0.23416,1.14353 1.7518062,1.7518062 0 0 1 -0.704845,0.77761 2.2299083,2.2299083 0 0 1 -1.157287,0.27967 2.3741062,2.3741062 0 0 1 -0.998008,-0.20453 1.7679458,1.7679458 0 0 1 -0.732103,-0.61621 2.079625,2.079625 0 0 1 -0.338931,-1.01177 h 0.804863 a 1.3567833,1.3567833 0 0 0 0.402431,0.85725 1.2374562,1.2374562 0 0 0 0.861748,0.29342 1.190625,1.190625 0 0 0 0.670719,-0.1852 1.1641667,1.1641667 0 0 0 0.427302,-0.52282 1.9954875,1.9954875 0 0 0 0.147902,-0.80248 1.7848792,1.7848792 0 0 0 -0.154517,-0.75724 1.2154958,1.2154958 0 0 0 -0.452437,-0.5252 1.2909021,1.2909021 0 0 0 -0.711729,-0.19103 1.8314458,1.8314458 0 0 0 -0.452438,0.0476 1.0583333,1.0583333 0 0 0 -0.315913,0.13415 2.9469292,2.9469292 0 0 0 -0.309297,0.24103 l -0.682096,-0.17277 z"
       class="aj" />
    <path
       style="fill:#ffffff;stroke-width:0.26458332"
       id="path1020"
       d="m 106.06515,134.57411 a 1.7065625,1.7065625 0 0 0 0.78661,-0.20002 1.3123333,1.3123333 0 0 0 0.52308,-0.5252 1.6404167,1.6404167 0 0 0 0.18521,-0.80248 v -2.48709 h -3.30597 v -0.67759 h 4.15158 v 3.14668 a 2.2600708,2.2600708 0 0 1 -0.28867,1.16179 1.9579167,1.9579167 0 0 1 -0.81862,0.76385 2.8014083,2.8014083 0 0 1 -1.23454,0.28416 z m -1.70524,-1.34593 a 2.6794354,2.6794354 0 0 1 0.0614,-0.64559 2.7252083,2.7252083 0 0 1 0.17516,-0.47625 h 0.69109 a 2.5585208,2.5585208 0 0 0 -0.0841,0.45482 q -0.0249,0.25003 -0.0251,0.61833 v 3.95155 H 104.36 Z"
       class="aj" />
    <path
       style="fill:#ffffff;stroke-width:0.26458332"
       id="path1022"
       d="m 111.07477,135.06994 a 1.8888604,1.8888604 0 0 1 -0.75274,-0.75486 2.2984354,2.2984354 0 0 1 -0.26829,-1.12765 v -3.30597 h 0.84112 v 3.36497 a 1.6322146,1.6322146 0 0 0 0.16139,0.74348 1.1951229,1.1951229 0 0 0 0.45482,0.49795 1.3829771,1.3829771 0 0 0 1.35493,0 1.1959167,1.1959167 0 0 0 0.45482,-0.49795 1.6322146,1.6322146 0 0 0 0.1614,-0.74348 v -1.79625 a 1.04775,1.04775 0 0 0 -0.19315,-0.67522 0.66489792,0.66489792 0 0 0 -0.54795,-0.23813 1.5300854,1.5300854 0 0 0 -0.65485,0.17278 l -0.13229,-0.56383 a 2.0272375,2.0272375 0 0 1 0.50271,-0.22966 1.8100146,1.8100146 0 0 1 0.52917,-0.0841 1.3382625,1.3382625 0 0 1 0.71622,0.18521 1.2038542,1.2038542 0 0 1 0.46382,0.53657 1.9616208,1.9616208 0 0 1 0.16139,0.82762 v 1.80525 a 2.3132521,2.3132521 0 0 1 -0.2659,1.12766 1.8766896,1.8766896 0 0 1 -0.74798,0.75485 2.4709437,2.4709437 0 0 1 -2.23943,0 z"
       class="aj" />
    <path
       style="fill:#ffffff;stroke-width:0.26458332"
       id="path1024"
       d="m 116.16086,131.83197 a 2.1182542,2.1182542 0 0 1 0.21166,-0.70247 1.4927792,1.4927792 0 0 1 0.38894,-0.50694 q 0.018,-0.0135 0.091,-0.0638 l -0.009,-0.0138 q -0.20452,0.0365 -0.5117,0.11589 -0.30718,0.0794 -0.56145,0.16589 l -0.19553,-0.63659 a 7.6551896,7.6551896 0 0 1 1.18216,-0.29554 7.0892458,7.0892458 0 0 1 1.20518,-0.11377 2.2277917,2.2277917 0 0 1 1.65285,0.57521 q 0.57071,0.5752 0.57521,1.68936 v 3.1922 h -2.20531 v -0.6776 h 1.3642 v -2.61011 a 1.6155458,1.6155458 0 0 0 -0.3228,-1.08691 1.1718396,1.1718396 0 0 0 -0.93689,-0.3728 0.93794792,0.93794792 0 0 0 -0.7366,0.33867 1.6589375,1.6589375 0 0 0 -0.3638,0.92075 l -0.40455,3.48773 h -0.83211 z"
       class="aj" />
    <path
       style="fill:#ffffff;stroke-width:0.26458332"
       id="path1026"
       d="m 121.15381,135.22895 0.0228,-0.65934 a 3.3969854,3.3969854 0 0 0 0.66384,0.059 0.70246875,0.70246875 0 0 0 0.55933,-0.21378 0.98398542,0.98398542 0 0 0 0.18521,-0.65934 v -3.19643 h -1.0504 v -0.6776 h 1.89627 v 3.94229 a 1.5710958,1.5710958 0 0 1 -0.3638,1.12078 1.3716,1.3716 0 0 1 -1.0459,0.38417 4.0023521,4.0023521 0 0 1 -0.8673,-0.0998 z"
       class="aj" />
    <path
       style="fill:#ffffff;stroke-width:0.26458332"
       id="path1028"
       d="m 125.48716,130.55906 h -0.98214 v -0.6776 h 1.82801 v 2.98741 h -0.84667 z"
       class="aj" />
    <path
       style="fill:#ffffff;stroke-width:0.26458332"
       id="path1030"
       d="m 128.927,135.03105 a 2.1068771,2.1068771 0 0 1 -0.79798,-0.86387 2.8191354,2.8191354 0 0 1 -0.29104,-1.28905 v -0.54557 a 2.5423812,2.5423812 0 0 1 0.0976,-0.69585 2.3775458,2.3775458 0 0 1 0.27067,-0.62072 1.3671021,1.3671021 0 0 1 0.39105,-0.42068 0.238125,0.238125 0 0 1 0.0635,-0.0363 l -0.005,-0.0138 a 8.1346146,8.1346146 0 0 0 -0.95938,0.22278 l -0.16377,-0.63659 a 8.3079167,8.3079167 0 0 1 1.20041,-0.25453 8.7616771,8.7616771 0 0 1 1.23243,-0.0955 2.6492729,2.6492729 0 0 1 1.28455,0.29343 1.9894021,1.9894021 0 0 1 0.82762,0.84666 2.8074937,2.8074937 0 0 1 0.28866,1.3163 v 0.64109 a 2.8170187,2.8170187 0 0 1 -0.28178,1.28905 2.0706292,2.0706292 0 0 1 -0.79587,0.86386 2.2693312,2.2693312 0 0 1 -1.18665,0.30692 2.2399625,2.2399625 0 0 1 -1.17555,-0.30771 z m 1.92352,-0.62283 a 1.4004396,1.4004396 0 0 0 0.50271,-0.61172 2.2150917,2.2150917 0 0 0 0.17727,-0.91387 v -0.63659 a 2.2561021,2.2561021 0 0 0 -0.17965,-0.93451 1.3623396,1.3623396 0 0 0 -0.51382,-0.60854 1.4353646,1.4353646 0 0 0 -0.78422,-0.21166 1.2057062,1.2057062 0 0 0 -0.71173,0.2159 1.3980583,1.3980583 0 0 0 -0.47625,0.62282 2.5775708,2.5775708 0 0 0 -0.17966,0.95727 v 0.59557 a 2.2150917,2.2150917 0 0 0 0.17727,0.91387 1.4120812,1.4120812 0 0 0 0.49795,0.61172 1.2988396,1.2988396 0 0 0 0.74348,0.2159 1.3205354,1.3205354 0 0 0 0.74665,-0.21616 z"
       class="aj" />
    <path
       style="fill:#ffffff;stroke-width:0.26458332"
       id="path1032"
       d="m 137.89188,132.47782 h -1.8415 v 2.09629 h -0.85037 v -2.09629 h -1.84626 v -0.78661 h 1.84626 v -1.93701 h 0.85037 v 1.93701 h 1.8415 z"
       class="aj" />
  </g>
</svg>
