<?xml version="1.0" encoding="UTF-8" standalone="no"?>
<svg
   xmlns:dc="http://purl.org/dc/elements/1.1/"
   xmlns:cc="http://creativecommons.org/ns#"
   xmlns:rdf="http://www.w3.org/1999/02/22-rdf-syntax-ns#"
   xmlns:svg="http://www.w3.org/2000/svg"
   xmlns="http://www.w3.org/2000/svg"
   xmlns:xlink="http://www.w3.org/1999/xlink"
   id="svg8366"
   version="1.1"
   viewBox="0 0 131.83923 64.944362"
   height="245.459"
   width="498.29001">
  <defs
     id="defs8360">
    <linearGradient
       xlink:href="#d"
       y2="375.48801"
       x2="2091.075"
       y1="496.681"
       x1="2108.5349"
       id="ba" />
    <linearGradient
       gradientUnits="userSpaceOnUse"
       gradientTransform="translate(2092.39)"
       y2="919.03699"
       x2="1992.298"
       y1="804.00598"
       x1="1972.783"
       id="d">
      <stop
         style="stop-color:#c700ff;stop-opacity:1"
         id="stop17"
         stop-color="#574ace"
         offset="0" />
      <stop
         style="stop-color:#d643ff;stop-opacity:1"
         id="stop19"
         stop-color="#8543ff"
         offset="1" />
    </linearGradient>
    <linearGradient
       xlink:href="#d"
       y2="374.56201"
       x2="1899.931"
       y1="503.45801"
       x1="1883.498"
       id="az" />
    <linearGradient
       xlink:href="#d"
       y2="482.86801"
       x2="1984.399"
       y1="367.83701"
       x1="1964.885"
       id="ay" />
  </defs>
  <metadata
     id="metadata8363">
    <rdf:RDF>
      <cc:Work
         rdf:about="">
        <dc:format>image/svg+xml</dc:format>
        <dc:type
           rdf:resource="http://purl.org/dc/dcmitype/StillImage" />
        <dc:title></dc:title>
      </cc:Work>
    </rdf:RDF>
  </metadata>
  <g
     transform="translate(-0.90629264,-88.390915)"
     id="layer1">
    <polygon
       style="fill:url(#ay)"
       id="polygon387"
       points="4195.561,515.571 3991.176,518.139 3973.86,543.555 4005.555,345.593 4169.371,376.405 "
       class="bl"
       transform="matrix(0.26458333,0,0,0.26458333,-981.00954,2.1158478)" />
    <polygon
       style="fill:url(#az)"
       id="polygon389"
       points="3960.323,571.538 3988.962,326.079 4005.555,345.593 3973.86,543.555 "
       class="bm"
       transform="matrix(0.26458333,0,0,0.26458333,-981.00954,2.1158478)" />
    <polygon
       style="fill:#d643ff;fill-opacity:1"
       id="polygon391"
       points="4005.555,345.593 4169.371,376.405 4196.625,368.095 3988.962,326.079 "
       class="h"
       transform="matrix(0.26458333,0,0,0.26458333,-981.00954,2.1158478)" />
    <polygon
       style="fill:url(#ba)"
       id="polygon393"
       points="4196.625,368.095 4209.468,533.545 4195.561,515.571 4169.371,376.405 "
       class="bn"
       transform="matrix(0.26458333,0,0,0.26458333,-981.00954,2.1158478)" />
    <polygon
       style="fill:#c700ff;fill-opacity:1"
       id="polygon395"
       points="3973.86,543.555 3960.323,571.538 4007.561,528.084 4207.473,530.967 4195.561,515.571 3991.176,518.139 "
       class="j"
       transform="matrix(0.26458333,0,0,0.26458333,-981.00954,2.1158478)" />
    <path
       style="fill:#ffffff;stroke-width:0.26458332"
       id="path409"
       d="m 85.871727,123.2421 a 2.4521583,2.4521583 0 0 1 0.846666,1.07315 3.6827354,3.6827354 0 0 1 0.275961,1.42875 3.6081229,3.6081229 0 0 1 -0.315119,1.53088 2.4817917,2.4817917 0 0 1 -0.933715,1.07606 2.7175354,2.7175354 0 0 1 -1.491456,0.39423 2.4915812,2.4915812 0 0 1 -1.55231,-0.48816 2.9937604,2.9937604 0 0 1 -0.963877,-1.26127 4.2103146,4.2103146 0 0 1 -0.321469,-1.63407 v -0.53207 q 0,-2.20689 0.94271,-3.62479 0.942711,-1.41791 3.2893,-1.4187 h 0.09684 v 0.94245 h -0.09684 q -1.497541,0 -2.231496,0.81544 a 3.4596917,3.4596917 0 0 0 -0.842697,2.08254 2.2119167,2.2119167 0 0 1 0.833437,-0.59717 2.7696583,2.7696583 0 0 1 1.058333,-0.19711 2.3487062,2.3487062 0 0 1 1.405732,0.40984 z m -0.74295,4.32302 a 1.603375,1.603375 0 0 0 0.557741,-0.71437 2.7117146,2.7117146 0 0 0 0.191029,-1.05198 2.809875,2.809875 0 0 0 -0.178858,-1.01256 1.6994187,1.6994187 0 0 0 -0.539485,-0.74877 1.3890625,1.3890625 0 0 0 -0.882386,-0.28179 1.74625,1.74625 0 0 0 -0.733425,0.16061 1.9118792,1.9118792 0 0 0 -0.608541,0.43656 1.8417646,1.8417646 0 0 0 -0.384969,0.61542 v 0.42333 a 3.3102021,3.3102021 0 0 0 0.236537,1.30969 1.9563292,1.9563292 0 0 0 0.627592,0.83661 1.3983229,1.3983229 0 0 0 0.839788,0.28496 1.4840479,1.4840479 0 0 0 0.875241,-0.25718 z"
       class="p" />
    <path
       style="fill:#ffffff;stroke-width:0.26458332"
       id="path411"
       d="m 96.597141,122.19091 -2.619375,6.43281 h -1.206764 l 2.588948,-6.23887 h -4.189413 v -3.07393 h 1.121569 v 2.16958 h 4.304771 z"
       class="p" />
    <path
       style="fill:#ffffff;stroke-width:0.26458332"
       id="path413"
       d="m 98.482562,122.38485 h -0.830527 v -0.90355 h 1.957917 v 7.14242 h -1.127919 z"
       class="p" />
    <path
       style="fill:#ffffff;stroke-width:0.26458332"
       id="path415"
       d="m 101.19878,128.40544 0.18203,-0.84296 a 6.6410417,6.6410417 0 0 0 1.70974,0.26061 2.1844,2.1844 0 0 0 1.54305,-0.49424 1.8401771,1.8401771 0 0 0 0.52916,-1.41578 v -3.52822 h -3.7166 v -0.90355 h 4.83817 v 4.18967 q 0,1.5158 -0.80645,2.28574 -0.80645,0.76994 -2.2434,0.76994 a 7.46125,7.46125 0 0 1 -2.0357,-0.32121 z"
       class="p" />
    <path
       style="fill:#ffffff;stroke-width:0.26458332"
       id="path417"
       d="m 109.57204,127.35663 a 6.7540187,6.7540187 0 0 0 1.22476,0.38788 5.775325,5.775325 0 0 0 1.22476,0.13944 4.4979167,4.4979167 0 0 0 1.55813,-0.25162 2.3394458,2.3394458 0 0 0 1.07923,-0.76385 2.0108333,2.0108333 0 0 0 0.39397,-1.26418 v -4.12274 h 1.0914 v 4.22593 a 2.6770542,2.6770542 0 0 1 -0.54266,1.70074 3.260725,3.260725 0 0 1 -1.4642,1.03981 5.8353854,5.8353854 0 0 1 -2.06137,0.34555 8.3079167,8.3079167 0 0 1 -1.81875,-0.20929 8.2036708,8.2036708 0 0 1 -1.77667,-0.61542 v -6.48758 h 1.0914 z m 2.05555,-1.35519 a 3.6382854,3.6382854 0 0 0 0.1151,-0.96705 v -3.55283 h 1.09749 v 3.3528 a 3.4319104,3.4319104 0 0 1 -0.15161,1.07606 1.9856979,1.9856979 0 0 1 -0.46699,0.77893 l -0.93345,-0.0363 a 1.5247937,1.5247937 0 0 0 0.3392,-0.65167 z"
       class="p" />
    <path
       style="fill:#ffffff;stroke-width:0.26458332"
       id="path419"
       d="m 122.33449,125.50137 2.26139,3.12209 h -1.25492 l -3.18294,-4.3897 q -0.64876,0.4064 -0.64876,1.39461 v 2.99509 h -1.0914 v -2.58895 a 3.2160104,3.2160104 0 0 1 0.31512,-1.51871 2.0214167,2.0214167 0 0 1 0.97605,-0.89429 l -1.54597,-2.14021 h 1.26101 l 2.21297,3.05567 1.72191,-3.05567 h 1.26736 z"
       class="p" />
  </g>
</svg>
