<?xml version="1.0" encoding="UTF-8" standalone="no"?>
<svg
   xmlns:dc="http://purl.org/dc/elements/1.1/"
   xmlns:cc="http://creativecommons.org/ns#"
   xmlns:rdf="http://www.w3.org/1999/02/22-rdf-syntax-ns#"
   xmlns:svg="http://www.w3.org/2000/svg"
   xmlns="http://www.w3.org/2000/svg"
   xmlns:xlink="http://www.w3.org/1999/xlink"
   id="svg2760"
   version="1.1"
   viewBox="0 0 76.093634 50.706075"
   height="191.645"
   width="287.59799">
  <defs
     id="defs2754">
    <linearGradient
       xlink:href="#a"
       y2="637.23798"
       x2="2851.3999"
       y1="551.08002"
       x1="2836.7839"
       id="at" />
    <linearGradient
       gradientUnits="userSpaceOnUse"
       gradientTransform="matrix(-1,0,0,1,5113,0)"
       y2="1232.389"
       x2="3496.207"
       y1="1163.078"
       x1="3484.449"
       id="a">
      <stop
         id="stop4"
         stop-color="#574ace"
         offset="0" />
      <stop
         id="stop6"
         stop-color="#8543ff"
         offset="1" />
    </linearGradient>
    <linearGradient
       xlink:href="#a"
       y2="554.63898"
       x2="2802.7141"
       y1="654.89203"
       x1="2789.9331"
       id="au" />
    <linearGradient
       xlink:href="#a"
       y2="555.26099"
       x2="2913.075"
       y1="649.61102"
       x1="2926.668"
       id="av" />
  </defs>
  <metadata
     id="metadata2757">
    <rdf:RDF>
      <cc:Work
         rdf:about="">
        <dc:format>image/svg+xml</dc:format>
        <dc:type
           rdf:resource="http://purl.org/dc/dcmitype/StillImage" />
        <dc:title></dc:title>
      </cc:Work>
    </rdf:RDF>
  </metadata>
  <g
     transform="translate(-27.596434,-112.14101)"
     id="layer1">
    <polygon
       style="fill:url(#at)"
       id="polygon438"
       points="2810.618,532.286 2905.167,556.342 2920.283,664.998 2802.319,667.003 2792.325,686.847 "
       class="bc"
       transform="matrix(0.26458333,0,0,0.26458333,-671.09194,-24.661799)" />
    <polygon
       style="fill:url(#au)"
       id="polygon440"
       points="2810.618,532.286 2792.325,686.847 2784.511,708.695 2801.041,517.05 "
       class="bd"
       transform="matrix(0.26458333,0,0,0.26458333,-671.09194,-24.661799)" />
    <polygon
       style="fill:#8543ff"
       id="polygon442"
       points="2920.898,549.855 2801.041,517.05 2810.618,532.286 2905.167,556.342 "
       class="e"
       transform="matrix(0.26458333,0,0,0.26458333,-671.09194,-24.661799)" />
    <polygon
       style="fill:url(#av)"
       id="polygon444"
       points="2920.283,664.998 2905.167,556.342 2920.898,549.855 2928.31,679.031 "
       class="be"
       transform="matrix(0.26458333,0,0,0.26458333,-671.09194,-24.661799)" />
    <polygon
       style="fill:#574ace"
       id="polygon446"
       points="2920.283,664.998 2802.319,667.003 2792.325,686.847 2784.511,708.695 2811.776,674.768 2927.159,677.019 "
       class="g"
       transform="matrix(0.26458333,0,0,0.26458333,-671.09194,-24.661799)" />
    <path
       style="fill:#ffffff;stroke-width:0.26458332"
       id="path608"
       d="m 71.90119,130.57294 h 2.014273 q 1.064154,0 1.5875,0.50695 0.523346,0.50694 0.527579,1.54384 v 3.30597 h -0.841375 v -3.35598 a 1.4242521,1.4242521 0 0 0 -0.300302,-1.00938 1.2842875,1.2842875 0 0 0 -0.964142,-0.3138 h -1.182158 l -0.0048,4.67916 H 71.89643 Z"
       class="aj" />
    <path
       style="fill:#ffffff;stroke-width:0.26458332"
       id="path610"
       d="m 77.958032,131.25054 h -0.982134 v -0.6776 h 1.828007 v 2.98741 h -0.846667 z"
       class="aj" />
    <path
       style="fill:#ffffff;stroke-width:0.26458332"
       id="path612"
       d="m 81.379623,135.76142 a 1.8880667,1.8880667 0 0 1 -0.752475,-0.75485 2.295525,2.295525 0 0 1 -0.268552,-1.12766 v -3.30597 h 0.841375 v 3.36497 a 1.6303625,1.6303625 0 0 0 0.161396,0.74348 1.1951229,1.1951229 0 0 0 0.454819,0.49795 1.3829771,1.3829771 0 0 0 1.354931,0 1.1967104,1.1967104 0 0 0 0.454819,-0.49795 1.6338021,1.6338021 0 0 0 0.161396,-0.74348 v -1.79625 a 1.0485437,1.0485437 0 0 0 -0.193146,-0.67522 0.6651625,0.6651625 0 0 0 -0.547952,-0.23812 1.5300854,1.5300854 0 0 0 -0.654844,0.17277 l -0.132292,-0.56383 a 2.0232687,2.0232687 0 0 1 0.502709,-0.22966 1.8110729,1.8110729 0 0 1 0.529166,-0.0841 1.3372042,1.3372042 0 0 1 0.715963,0.18521 1.2030604,1.2030604 0 0 1 0.463814,0.53658 1.9597687,1.9597687 0 0 1 0.161396,0.82761 v 1.80526 a 2.314575,2.314575 0 0 1 -0.264583,1.12765 1.8785417,1.8785417 0 0 1 -0.747977,0.75486 2.4714729,2.4714729 0 0 1 -2.239698,0 z"
       class="aj" />
    <path
       style="fill:#ffffff;stroke-width:0.26458332"
       id="path614"
       d="m 86.920792,134.97931 a 5.0590979,5.0590979 0 0 0 0.918633,0.29105 4.3314937,4.3314937 0 0 0 0.918634,0.10583 3.3744958,3.3744958 0 0 0 1.168664,-0.18865 1.7526,1.7526 0 0 0 0.809361,-0.57309 1.508125,1.508125 0 0 0 0.295539,-0.948 v -3.09351 h 0.818621 v 3.16945 a 2.0079229,2.0079229 0 0 1 -0.406929,1.27555 2.4466021,2.4466021 0 0 1 -1.098021,0.77973 4.3767375,4.3767375 0 0 1 -1.546225,0.25929 6.2288208,6.2288208 0 0 1 -1.363927,-0.1569 6.1576479,6.1576479 0 0 1 -1.332442,-0.46143 v -4.86569 h 0.818621 z m 1.541463,-1.01626 a 2.7252083,2.7252083 0 0 0 0.08652,-0.72522 v -2.66489 h 0.822854 v 2.51355 a 2.5757187,2.5757187 0 0 1 -0.11377,0.80724 1.4874875,1.4874875 0 0 1 -0.350044,0.5842 l -0.70009,-0.0265 a 1.139825,1.139825 0 0 0 0.25453,-0.48842 z"
       class="aj" />
    <path
       style="fill:#ffffff;stroke-width:0.26458332"
       id="path616"
       d="m 96.610892,132.56923 a 1.3758333,1.3758333 0 0 0 -0.31406,-1.00727 1.3903854,1.3903854 0 0 0 -1.009386,-0.31142 h -1.941512 v -0.6776 h 1.982523 q 1.050395,0 1.589087,0.50933 a 1.9801417,1.9801417 0 0 1 0.538956,1.50971 v 3.33772 h -0.846666 z m -3.255962,1.53246 a 2.2791208,2.2791208 0 0 1 0.236537,-1.13215 h 0.691092 a 3.2030458,3.2030458 0 0 0 -0.08202,0.46381 5.915025,5.915025 0 0 0 -0.02646,0.61384 v 1.88251 h -0.818621 z"
       class="aj" />
    <path
       style="fill:#ffffff;stroke-width:0.26458332"
       id="path618"
       d="m 74.002511,141.74815 h 4.274344 v 5.35755 h -4.274344 z m 3.433233,4.67466 v -3.99706 h -2.592917 v 3.99706 z"
       class="aj" />
    <path
       style="fill:#ffffff;stroke-width:0.26458332"
       id="path620"
       d="m 80.177621,142.42575 h -0.622829 v -0.6776 h 1.468702 v 5.35755 h -0.846667 z"
       class="aj" />
    <path
       style="fill:#ffffff;stroke-width:0.26458332"
       id="path622"
       d="m 86.4075,141.74815 v 0.6776 h -0.896937 v 4.67995 h -0.846667 v -4.67995 h -2.54635 v -0.6776 z"
       class="aj" />
    <path
       style="fill:#ffffff;stroke-width:0.26458332"
       id="path624"
       d="m 90.518067,144.76308 1.695979,2.34182 h -0.941387 l -2.387071,-3.29221 a 1.1355917,1.1355917 0 0 0 -0.486569,1.0459 v 2.24631 h -0.818621 v -1.94177 a 2.4114125,2.4114125 0 0 1 0.236538,-1.13903 1.5155333,1.5155333 0 0 1 0.732366,-0.67072 l -1.159668,-1.60523 h 0.945885 l 1.659467,2.29182 1.291431,-2.29182 H 92.2368 Z"
       class="aj" />
    <path
       style="fill:#ffffff;stroke-width:0.26458332"
       id="path626"
       d="m 96.611421,143.74549 a 1.3758333,1.3758333 0 0 0 -0.31406,-1.00727 1.3903854,1.3903854 0 0 0 -1.009386,-0.31141 h -1.941512 v -0.6776 h 1.982523 q 1.050396,0 1.589087,0.50932 a 1.9801417,1.9801417 0 0 1 0.538957,1.50971 v 3.33746 h -0.846667 z m -3.255962,1.53247 a 2.2791208,2.2791208 0 0 1 0.236537,-1.13216 h 0.691092 a 3.2030458,3.2030458 0 0 0 -0.08202,0.46382 5.915025,5.915025 0 0 0 -0.02646,0.61383 v 1.88225 h -0.818621 z"
       class="aj" />
  </g>
</svg>
