<?xml version="1.0" encoding="UTF-8" standalone="no"?>
<svg
   xmlns:dc="http://purl.org/dc/elements/1.1/"
   xmlns:cc="http://creativecommons.org/ns#"
   xmlns:rdf="http://www.w3.org/1999/02/22-rdf-syntax-ns#"
   xmlns:svg="http://www.w3.org/2000/svg"
   xmlns="http://www.w3.org/2000/svg"
   xmlns:xlink="http://www.w3.org/1999/xlink"
   id="svg6010"
   version="1.1"
   viewBox="0 0 124.4293 40.047597"
   height="151.36099"
   width="470.284">
  <defs
     id="defs6004">
    <linearGradient
       xlink:href="#g"
       y2="2071.052"
       x2="1934.4351"
       y1="2146.2229"
       x1="1945.265"
       id="bs" />
    <linearGradient
       gradientUnits="userSpaceOnUse"
       y2="1678.416"
       x2="1819.7371"
       y1="1613.504"
       x1="1808.725"
       id="g">
      <stop
         id="stop24"
         stop-color="#574ace"
         offset="0" />
      <stop
         id="stop26"
         stop-color="#8543ff"
         offset="1" />
    </linearGradient>
    <linearGradient
       xlink:href="#g"
       y2="2069.9141"
       x2="1751.832"
       y1="2150.0149"
       x1="1741.62"
       id="br" />
    <linearGradient
       xlink:href="#g"
       y2="2139.9189"
       x2="1836.9659"
       y1="2062.9871"
       x1="1823.915"
       id="bq" />
  </defs>
  <metadata
     id="metadata6007">
    <rdf:RDF>
      <cc:Work
         rdf:about="">
        <dc:format>image/svg+xml</dc:format>
        <dc:type
           rdf:resource="http://purl.org/dc/dcmitype/StillImage" />
        <dc:title></dc:title>
      </cc:Work>
    </rdf:RDF>
  </metadata>
  <g
     transform="translate(-9.4875409,-106.88692)"
     id="layer1">
    <polygon
       style="fill:url(#bq)"
       id="polygon798"
       points="1766.584,2051.968 1921.192,2070.968 1945.91,2156.785 1753.013,2158.368 1736.671,2174.04 "
       class="ce"
       transform="matrix(0.26458333,0,0,0.26458333,-384.41142,-432.84588)" />
    <polygon
       style="fill:url(#br)"
       id="polygon800"
       points="1766.584,2051.968 1736.671,2174.04 1723.894,2191.296 1750.924,2039.935 "
       class="cf"
       transform="matrix(0.26458333,0,0,0.26458333,-384.41142,-432.84588)" />
    <polygon
       style="fill:#8543ff"
       id="polygon802"
       points="1946.915,2065.844 1750.924,2039.935 1766.584,2051.968 1921.192,2070.968 "
       class="o"
       transform="matrix(0.26458333,0,0,0.26458333,-384.41142,-432.84588)" />
    <polygon
       style="fill:url(#bs)"
       id="polygon804"
       points="1945.91,2156.785 1921.192,2070.968 1946.915,2065.844 1959.036,2167.868 "
       class="cg"
       transform="matrix(0.26458333,0,0,0.26458333,-384.41142,-432.84588)" />
    <polygon
       style="fill:#574ace"
       id="polygon806"
       points="1945.91,2156.785 1753.013,2158.368 1736.671,2174.04 1723.894,2191.296 1768.477,2164.501 1957.154,2166.279 "
       class="q"
       transform="matrix(0.26458333,0,0,0.26458333,-384.41142,-432.84588)" />
    <path
       style="fill:#ffffff;stroke-width:0.26458332"
       id="path808"
       d="m 79.768819,128.1237 h 3.989387 v 5.00063 h -3.989387 z m 3.204368,4.36272 v -3.73063 h -2.419085 v 3.73063 z"
       class="l" />
    <path
       style="fill:#ffffff;stroke-width:0.26458332"
       id="path810"
       d="m 85.6767,128.75553 h -0.916781 v -0.63236 h 1.706033 v 2.78818 H 85.6767 Z"
       class="l" />
    <path
       style="fill:#ffffff;stroke-width:0.26458332"
       id="path812"
       d="m 88.681308,132.23559 a 4.7169917,4.7169917 0 0 0 0.85725,0.27146 4.0436271,4.0436271 0 0 0 0.85725,0.0976 3.1469542,3.1469542 0 0 0 1.090877,-0.17621 1.6377708,1.6377708 0 0 0 0.755386,-0.53472 1.4086417,1.4086417 0 0 0 0.275696,-0.88503 v -2.88502 h 0.763852 v 2.95804 a 1.8745729,1.8745729 0 0 1 -0.379942,1.19063 2.2846771,2.2846771 0 0 1 -1.024996,0.72787 4.0849021,4.0849021 0 0 1 -1.443037,0.24182 5.8115729,5.8115729 0 0 1 -1.273175,-0.14657 5.7446333,5.7446333 0 0 1 -1.243542,-0.43075 v -4.54104 h 0.763852 z m 1.438804,-0.94853 a 2.5447625,2.5447625 0 0 0 0.07938,-0.67707 v -2.48708 h 0.767292 v 2.34685 a 2.4050625,2.4050625 0 0 1 -0.105833,0.75354 1.3898562,1.3898562 0 0 1 -0.326761,0.5453 l -0.653521,-0.0265 a 1.0644187,1.0644187 0 0 0 0.239443,-0.45508 z"
       class="l" />
    <path
       style="fill:#ffffff;stroke-width:0.26458332"
       id="path814"
       d="m 94.304762,133.11401 0.02117,-0.61542 a 3.1607125,3.1607125 0 0 0 0.619654,0.0553 0.65537292,0.65537292 0 0 0 0.522023,-0.1995 0.91836875,0.91836875 0 0 0 0.174096,-0.61542 v -2.98344 h -0.980281 v -0.63236 h 1.769798 v 3.67956 a 1.4665854,1.4665854 0 0 1 -0.339725,1.04617 1.2803187,1.2803187 0 0 1 -0.976048,0.35851 3.7330062,3.7330062 0 0 1 -0.810684,-0.0934 z"
       class="l" />
    <path
       style="fill:#ffffff;stroke-width:0.26458332"
       id="path816"
       d="m 100.50554,128.75553 h -0.916784 v -0.63236 h 1.706034 v 2.78818 h -0.78925 z"
       class="l" />
    <path
       style="fill:#ffffff;stroke-width:0.26458332"
       id="path818"
       d="m 103.12835,128.75553 h -0.91678 v -0.63236 h 1.70603 v 2.78818 h -0.78925 z"
       class="l" />
    <path
       style="fill:#ffffff;stroke-width:0.26458332"
       id="path820"
       d="m 108.75181,128.61953 -1.83357,4.50321 h -0.84508 l 1.8124,-4.36721 h -2.93264 v -2.15186 h 0.78502 v 1.5195 h 3.01334 z"
       class="l" />
    <path
       style="fill:#ffffff;stroke-width:0.26458332"
       id="path822"
       d="m 110.75073,133.13517 a 5.08,5.08 0 0 1 -0.84031,-0.21166 l 0.15293,-0.58976 a 5.216525,5.216525 0 0 0 0.7575,0.17172 4.7159333,4.7159333 0 0 0 0.6895,0.0574 1.5700375,1.5700375 0 0 0 1.07395,-0.35243 1.2631208,1.2631208 0 0 0 0.37756,-0.98451 v -2.47015 h -2.00316 a 2.1354521,2.1354521 0 0 0 -0.21855,0.59187 3.1734125,3.1734125 0 0 0 -0.0828,0.71438 v 0.38179 a 0.82417708,0.82417708 0 0 0 0.2503,0.0595 3.9748354,3.9748354 0 0 0 0.41169,0.0169 v 0.67892 a 4.3391667,4.3391667 0 0 1 -0.82762,-0.0614 2.219325,2.219325 0 0 1 -0.60272,-0.22278 l -0.0169,-0.64505 a 3.2699854,3.2699854 0 0 1 0.10822,-0.8382 2.124075,2.124075 0 0 1 0.29501,-0.67707 h -0.60696 v -0.63236 h 4.07776 v 2.95381 a 2.3307146,2.3307146 0 0 1 -0.2757,1.18189 1.7359312,1.7359312 0 0 1 -0.76729,0.71438 2.6021771,2.6021771 0 0 1 -1.13956,0.23574 5.0270833,5.0270833 0 0 1 -0.8128,-0.073 z"
       class="l" />
    <path
       style="fill:#ffffff;stroke-width:0.26458332"
       id="path824"
       d="m 116.25327,132.92959 a 1.9679708,1.9679708 0 0 1 -0.7448,-0.80645 2.6299583,2.6299583 0 0 1 -0.27146,-1.20332 v -0.50932 a 2.3741062,2.3741062 0 0 1 0.0913,-0.64929 2.212975,2.212975 0 0 1 0.25268,-0.57917 1.2776729,1.2776729 0 0 1 0.36486,-0.39265 0.22410208,0.22410208 0 0 1 0.0595,-0.0339 l -0.004,-0.0127 a 7.5350687,7.5350687 0 0 0 -0.89562,0.20797 l -0.15266,-0.59426 a 7.7594354,7.7594354 0 0 1 1.12024,-0.23812 8.175625,8.175625 0 0 1 1.15015,-0.0892 2.4712083,2.4712083 0 0 1 1.19909,0.27384 1.8568458,1.8568458 0 0 1 0.77232,0.78925 2.619375,2.619375 0 0 1 0.26961,1.22873 v 0.59849 a 2.6312812,2.6312812 0 0 1 -0.26326,1.20332 1.9359562,1.9359562 0 0 1 -0.74269,0.80645 2.1185187,2.1185187 0 0 1 -1.10781,0.28628 2.0902083,2.0902083 0 0 1 -1.09723,-0.28601 z m 1.7952,-0.58208 a 1.3065125,1.3065125 0 0 0 0.46884,-0.57071 2.0671896,2.0671896 0 0 0 0.16537,-0.85301 v -0.59426 a 2.1052896,2.1052896 0 0 0 -0.16775,-0.87312 1.2715875,1.2715875 0 0 0 -0.47942,-0.56859 1.3406437,1.3406437 0 0 0 -0.73211,-0.19712 1.1250083,1.1250083 0 0 0 -0.6641,0.20162 1.3043958,1.3043958 0 0 0 -0.44556,0.58208 2.4047979,2.4047979 0 0 0 -0.16774,0.8935 v 0.55562 a 2.0671896,2.0671896 0 0 0 0.16536,0.85302 1.3170958,1.3170958 0 0 0 0.46461,0.57071 1.2109979,1.2109979 0 0 0 0.694,0.20187 1.2311062,1.2311062 0 0 0 0.6985,-0.20108 z"
       class="l" />
    <path
       style="fill:#ffffff;stroke-width:0.26458332"
       id="path826"
       d="m 121.05969,128.75553 h -0.58208 v -0.63236 h 1.37081 v 5.00063 h -0.78926 z"
       class="l" />
    <path
       style="fill:#ffffff;stroke-width:0.26458332"
       id="path828"
       d="m 125.06601,132.50309 a 1.5935854,1.5935854 0 0 0 0.73422,-0.1868 1.2231687,1.2231687 0 0 0 0.48816,-0.49027 1.53035,1.53035 0 0 0 0.1741,-0.74904 v -2.32145 h -3.08558 v -0.63236 h 3.87509 v 2.93688 a 2.1092583,2.1092583 0 0 1 -0.26961,1.08479 1.825625,1.825625 0 0 1 -0.76411,0.71279 2.6132896,2.6132896 0 0 1 -1.15227,0.26458 z m -1.59146,-1.25625 a 2.5085146,2.5085146 0 0 1 0.0572,-0.60272 2.5513771,2.5513771 0 0 1 0.16351,-0.44556 h 0.64505 a 2.3796625,2.3796625 0 0 0 -0.0794,0.42334 q -0.0236,0.23362 -0.0233,0.57732 v 3.68803 h -0.76385 z"
       class="l" />
  </g>
</svg>
