<?xml version="1.0" encoding="UTF-8" standalone="no"?>
<svg
   xmlns:dc="http://purl.org/dc/elements/1.1/"
   xmlns:cc="http://creativecommons.org/ns#"
   xmlns:rdf="http://www.w3.org/1999/02/22-rdf-syntax-ns#"
   xmlns:svg="http://www.w3.org/2000/svg"
   xmlns="http://www.w3.org/2000/svg"
   xmlns:xlink="http://www.w3.org/1999/xlink"
   id="svg1941"
   version="1.1"
   viewBox="0 0 61.349992 23.823613"
   height="90.042"
   width="231.87399">
  <defs
     id="defs1935">
    <linearGradient
       xlink:href="#a"
       y2="1841.106"
       x2="2775.179"
       y1="1885.6949"
       x1="2781.603"
       id="be" />
    <linearGradient
       gradientUnits="userSpaceOnUse"
       gradientTransform="matrix(-1,0,0,1,5113,0)"
       y2="1232.389"
       x2="3496.207"
       y1="1163.078"
       x1="3484.449"
       id="a">
      <stop
         id="stop4"
         stop-color="#574ace"
         offset="0" />
      <stop
         id="stop6"
         stop-color="#8543ff"
         offset="1" />
    </linearGradient>
    <linearGradient
       xlink:href="#a"
       y2="1840.626"
       x2="2685.8059"
       y1="1888.095"
       x1="2679.7539"
       id="bd" />
    <linearGradient
       xlink:href="#a"
       y2="1881.2939"
       x2="2726.5049"
       y1="1837.291"
       x1="2719.041"
       id="bc" />
  </defs>
  <metadata
     id="metadata1938">
    <rdf:RDF>
      <cc:Work
         rdf:about="">
        <dc:format>image/svg+xml</dc:format>
        <dc:type
           rdf:resource="http://purl.org/dc/dcmitype/StillImage" />
        <dc:title></dc:title>
      </cc:Work>
    </rdf:RDF>
  </metadata>
  <g
     transform="translate(-29.110267,-118.68418)"
     id="layer1">
    <polygon
       style="fill:url(#bc)"
       id="polygon468"
       points="2692.409,1829.944 2768.638,1841.247 2780.826,1892.297 2685.717,1893.239 2677.66,1902.562 "
       class="bl"
       transform="matrix(0.26458333,0,0,0.26458333,-647.01206,-363.59461)" />
    <polygon
       style="fill:url(#bd)"
       id="polygon470"
       points="2692.409,1829.944 2677.66,1902.562 2671.36,1912.828 2684.687,1822.786 "
       class="bm"
       transform="matrix(0.26458333,0,0,0.26458333,-647.01206,-363.59461)" />
    <polygon
       style="fill:#8543ff"
       id="polygon472"
       points="2781.321,1838.198 2684.687,1822.786 2692.409,1829.944 2768.638,1841.247 "
       class="e"
       transform="matrix(0.26458333,0,0,0.26458333,-647.01206,-363.59461)" />
    <polygon
       style="fill:url(#be)"
       id="polygon474"
       points="2780.826,1892.297 2768.638,1841.247 2781.321,1838.198 2787.297,1898.89 "
       class="bn"
       transform="matrix(0.26458333,0,0,0.26458333,-647.01206,-363.59461)" />
    <polygon
       style="fill:#574ace"
       id="polygon476"
       points="2780.826,1892.297 2685.717,1893.239 2677.66,1902.562 2671.36,1912.828 2693.342,1896.887 2786.369,1897.945 "
       class="g"
       transform="matrix(0.26458333,0,0,0.26458333,-647.01206,-363.59461)" />
    <path
       style="fill:#ffffff;stroke-width:0.26458332"
       id="path628"
       d="m 70.299817,130.3494 a 1.3758333,1.3758333 0 0 0 -0.314061,-1.00727 1.3903854,1.3903854 0 0 0 -1.009385,-0.31141 h -1.941513 v -0.6776 h 1.982523 q 1.050396,0 1.589088,0.50932 a 1.9801417,1.9801417 0 0 1 0.538956,1.50972 v 3.33771 h -0.846667 z m -3.255963,1.53247 a 2.2793854,2.2793854 0 0 1 0.236537,-1.13215 h 0.691092 a 3.2014583,3.2014583 0 0 0 -0.08202,0.46381 5.915025,5.915025 0 0 0 -0.02646,0.61383 v 1.88251 h -0.818621 z"
       class="aj" />
    <path
       style="fill:#ffffff;stroke-width:0.26458332"
       id="path630"
       d="m 72.204817,133.5461 0.136525,-0.63209 a 4.98475,4.98475 0 0 0 1.282435,0.19552 1.6383,1.6383 0 0 0 1.157288,-0.37041 1.3795375,1.3795375 0 0 0 0.396875,-1.06178 v -2.64583 h -2.787386 v -0.6776 h 3.628761 v 3.1422 q 0,1.1377 -0.604838,1.71423 a 2.3370646,2.3370646 0 0 1 -1.682221,0.57759 5.5962021,5.5962021 0 0 1 -1.527439,-0.24183 z"
       class="aj" />
    <path
       style="fill:#ffffff;stroke-width:0.26458332"
       id="path632"
       d="m 77.919817,129.03072 h -0.62283 v -0.6776 h 1.468703 v 5.35649 h -0.846667 z"
       class="aj" />
    <path
       style="fill:#ffffff;stroke-width:0.26458332"
       id="path634"
       d="m 81.452004,133.50297 a 2.1058187,2.1058187 0 0 1 -0.798248,-0.86386 2.8175479,2.8175479 0 0 1 -0.291041,-1.28905 v -0.54558 a 2.5471437,2.5471437 0 0 1 0.09763,-0.69585 2.3730479,2.3730479 0 0 1 0.270404,-0.62071 1.3694833,1.3694833 0 0 1 0.391319,-0.42069 0.238125,0.238125 0 0 1 0.0635,-0.0362 l -0.0045,-0.0138 A 8.1327625,8.1327625 0 0 0 80.221424,129.24 l -0.163509,-0.63658 a 8.3050062,8.3050062 0 0 1 1.200414,-0.25453 8.7616771,8.7616771 0 0 1 1.232165,-0.0955 2.651125,2.651125 0 0 1 1.284552,0.29316 1.9915187,1.9915187 0 0 1 0.827616,0.84667 2.8074937,2.8074937 0 0 1 0.288661,1.3163 v 0.64108 a 2.8188708,2.8188708 0 0 1 -0.281781,1.28905 2.0719521,2.0719521 0 0 1 -0.795867,0.86387 2.2695958,2.2695958 0 0 1 -1.186656,0.30692 2.2396979,2.2396979 0 0 1 -1.175015,-0.30745 z m 1.923521,-0.62283 a 1.4007042,1.4007042 0 0 0 0.502708,-0.61172 2.2172083,2.2172083 0 0 0 0.177271,-0.91413 v -0.63659 a 2.2561021,2.2561021 0 0 0 -0.179652,-0.93451 1.3615458,1.3615458 0 0 0 -0.513821,-0.60854 1.4356292,1.4356292 0 0 0 -0.784489,-0.21167 1.2057062,1.2057062 0 0 0 -0.711465,0.2159 1.3985875,1.3985875 0 0 0 -0.47625,0.6231 2.5799521,2.5799521 0 0 0 -0.179652,0.95726 v 0.59558 a 2.2132396,2.2132396 0 0 0 0.177535,0.91413 1.4094354,1.4094354 0 0 0 0.497946,0.61172 1.298575,1.298575 0 0 0 0.743479,0.2159 1.3208,1.3208 0 0 0 0.74639,-0.21669 z"
       class="aj" />
  </g>
</svg>
