<?xml version="1.0" encoding="UTF-8" standalone="no"?>
<svg
   xmlns:dc="http://purl.org/dc/elements/1.1/"
   xmlns:cc="http://creativecommons.org/ns#"
   xmlns:rdf="http://www.w3.org/1999/02/22-rdf-syntax-ns#"
   xmlns:svg="http://www.w3.org/2000/svg"
   xmlns="http://www.w3.org/2000/svg"
   version="1.1"
   id="svg3981"
   viewBox="0 0 57.866503 99.600634"
   height="28.109512mm"
   width="16.331213mm">
  <defs
     id="defs3983" />
  <metadata
     id="metadata3986">
    <rdf:RDF>
      <cc:Work
         rdf:about="">
        <dc:format>image/svg+xml</dc:format>
        <dc:type
           rdf:resource="http://purl.org/dc/dcmitype/StillImage" />
        <dc:title></dc:title>
      </cc:Work>
    </rdf:RDF>
  </metadata>
  <g
     transform="translate(-605.44255,-465.16073)"
     id="layer1">
    <path
       d="m 662.7046,498.9314 c 0,22.64143 -28.3294,65.22557 -28.3294,65.22557 0,0 -28.3282,-40.43404 -28.3282,-65.22557 0,-18.31723 12.68329,-33.16622 28.3282,-33.16622 15.64732,0 28.3294,14.84899 28.3294,33.16622"
       style="fill:#db982f;fill-opacity:1;fill-rule:nonzero;stroke:none"
       id="path4544" />
    <g
       transform="matrix(1.2005,0,0,-1.2005,662.7046,498.9314)"
       id="g4546">
      <path
         id="path4548"
         style="fill:none;stroke:#947232;stroke-width:1.00699997;stroke-linecap:butt;stroke-linejoin:round;stroke-miterlimit:10;stroke-dasharray:none;stroke-opacity:1"
         d="m 0,0 c 0,-18.86 -23.598,-54.332 -23.598,-54.332 0,0 -23.597,33.681 -23.597,54.332 0,15.258 10.565,27.627 23.597,27.627 C -10.564,27.627 0,15.258 0,0 Z" />
    </g>
    <text
       id="text4550"
       style="font-variant:normal;font-weight:normal;font-stretch:normal;font-size:19.3504982px;font-family:'Abigail';-inkscape-font-specification:Abigail;writing-mode:lr-tb;fill:#ffffff;fill-opacity:1;fill-rule:nonzero;stroke:none;"
       x="615.84485"
       y="501.46939">
      <tspan
         style="fill:#ffffff;fill-opacity:1;"
         id="tspan4552"
         y="501.46939"
         x="615.84485 626.77789 635.09857 639.35571">אולם</tspan>
      <tspan
         style="fill:#ffffff;fill-opacity:1;"
         id="tspan4554"
         y="517.58838"
         x="615.30298 619.40533 631.69287 642.27765">ראשי</tspan>
    </text>
  </g>
</svg>
