<svg id="Layer_1" data-name="Layer 1" viewBox="0 0 846 738.34" version="1.1" width="846" height="738.34" xmlns="http://www.w3.org/2000/svg">
    <defs id="defs7">
        <clipPath id="clip-path">
            <path class="cls-1" id="polygon4" d="M804.92 593.11h-76.51v-62.43h8.12V357.62h-8.12v-74.39h76.51z"/>
        </clipPath>
        <style id="style2">
            .cls-1,.cls-11,.cls-19,.cls-20,.cls-26,.cls-27,.cls-28,.cls-29,.cls-4,.cls-6,.cls-8,.cls-9{fill:none}.cls-2{fill:#f0cc92}.cls-20,.cls-26,.cls-28,.cls-29,.cls-6,.cls-9{stroke:#000}.cls-11,.cls-19,.cls-20,.cls-26,.cls-27,.cls-28,.cls-4,.cls-6,.cls-8,.cls-9{stroke-miterlimit:10}.cls-27,.cls-4{stroke:#a87246}.cls-5{fill:#9d9855}.cls-6,.cls-8{stroke-width:.9px}.cls-11,.cls-8{stroke:#231f20}.cls-11,.cls-20,.cls-27,.cls-9{stroke-width:.94px}.cls-14{fill:#231f20}.cls-16{fill:#902b13}.cls-19{stroke:#902b13}.cls-20{stroke-dasharray:7.53 7.53}.cls-28,.cls-29{stroke-linecap:round;stroke-width:.5px}.cls-29{stroke-linejoin:round}.cls-31{fill:#a87246}
        </style>
    </defs>
    <path class="cls-2" id="polygon9" transform="translate(1.05 4.22)" d="M825.69 226.39 621.27 5.78H288.94l2 166-281.99 3 1.32 549.34 815.42-7.74z"/>
    <path class="cls-1" d="M588.23 653.7v-20.48h29.1l-38-11v-4l38 11.73v-29.28h44v4.89h-40.1v32h-28.8v16.13zm87.29-15.15-29.62 36.9h3.67l30.93-36.9v-33.24l29.09.25v-4.89h-34.07zm145-31H683.28v100.2h137.23ZM400.8 427.41h-74.43v4.17h74.43zm-273.06-21.7h-4v35.51h4zm516.94 288.07H183.56v2.87h461.12zm-533.67 0h-88.8V292.96h-2.82v403.69h91.66z" id="path11"/>
    <path id="rect13" style="stroke-width:1.1px;stroke-miterlimit:10;stroke:#000;fill:none" d="M19.54 13.5h187.67v159H19.54z"/>
    <path d="M68.46 94.4h3.59v-4.42h-3.6v-1.71h3.6a1.64 1.64 0 0 1 1.9 1.85v4.28h1v1.7h-6.49z" id="path15"/>
    <path d="M75.77 88.27h1.92v4.61h-1.92z" id="path17"/>
    <path d="M78.94 94.4h3.6v-4.42h-3.6v-1.71h3.62a1.64 1.64 0 0 1 1.9 1.85v4.28h1v1.7h-6.52z" id="path19"/>
    <path d="M86.68 93.3a2.65 2.65 0 0 1 .09-.73 1.6 1.6 0 0 1 .69-.94 3.37 3.37 0 0 1 .6-.33l.26-.12-1.76-2.91h2.28l2.21 3.71.68-.32v-3.39h1.9v2.8a3.07 3.07 0 0 1-.08.73 1.51 1.51 0 0 1-.26.54 2.1 2.1 0 0 1-.43.41 4.15 4.15 0 0 1-.6.32l-.21.15 1.76 2.91h-2.33l-2.2-3.71-.69.32v3.39h-1.91z" id="path21"/>
    <path d="M101.91 89.98h-4.06V86.6h1.92v1.67h4.16v1.8l-2.31 6h-2z" id="path23"/>
    <path d="M104.83 94.4h1l-.14-1.33a4.22 4.22 0 0 1 0-.6 2.9 2.9 0 0 1 .31-1.44 2.13 2.13 0 0 1 .94-.86l.23-.12v-.07h-2.28v-1.71h4.09a3.32 3.32 0 0 1 2.22.65 2.35 2.35 0 0 1 .74 1.89v5.29h-1.92v-5a1.17 1.17 0 0 0-.27-.81 1.19 1.19 0 0 0-.89-.29h-.92v.09a2.71 2.71 0 0 0-.28.68 3.72 3.72 0 0 0-.1.87 6.08 6.08 0 0 0 0 .71c0 .25 0 .52.07.78l.29 3h-3z" id="path25"/>
    <path d="M121.68 89.98h-5v-1.71h7v1.81l-2.3 6h-2zm-5 1.83h1.93v6.86h-1.93z" id="path27"/>
    <path d="M128.23 96.22a4.62 4.62 0 0 1-1.63-.25 2.61 2.61 0 0 1-1.09-.72 3 3 0 0 1-.61-1.2 6.8 6.8 0 0 1-.18-1.66v-4.12h1.9v4.37a3.79 3.79 0 0 0 .09.9 1.35 1.35 0 0 0 .28.59 1.05 1.05 0 0 0 .5.3 3.13 3.13 0 0 0 1.49 0 1.05 1.05 0 0 0 .5-.3 1.35 1.35 0 0 0 .28-.59 3.79 3.79 0 0 0 .09-.9v-1.89a.71.71 0 0 0-.22-.57.84.84 0 0 0-.6-.2h-.9v-1.71h1.3a2.71 2.71 0 0 1 .91.15 2.25 2.25 0 0 1 .74.46 2.13 2.13 0 0 1 .49.74 2.64 2.64 0 0 1 .18 1v1.8a6.8 6.8 0 0 1-.18 1.66 3 3 0 0 1-.61 1.2 2.67 2.67 0 0 1-1.09.72 4.64 4.64 0 0 1-1.64.22z" id="path29"/>
    <path d="m133.81 90.88-.46-2.61h1.94l.27 1.58h.07a4.35 4.35 0 0 1 .32-.65 2.05 2.05 0 0 1 .47-.55 2.26 2.26 0 0 1 .63-.43 2.5 2.5 0 0 1 .9-.14 2.63 2.63 0 0 1 .89.14 1.7 1.7 0 0 1 .74.52 2.55 2.55 0 0 1 .52 1 5 5 0 0 1 .19 1.52v4.83h-3.71v-1.7h1.78v-2.78a4.2 4.2 0 0 0-.07-.86 1.4 1.4 0 0 0-.24-.53.77.77 0 0 0-.36-.29 1.35 1.35 0 0 0-.5-.09 1.49 1.49 0 0 0-1.52 1.38l-.85 4.85h-1.92z" id="path31"/>
    <path d="M141.58 94.4h1.94v-3.65a.72.72 0 0 0-.23-.57.81.81 0 0 0-.59-.2h-1v-1.71h1.37a2.67 2.67 0 0 1 .91.15 2.11 2.11 0 0 1 1.24 1.2 2.64 2.64 0 0 1 .18 1v5.47h-3.87z" id="path33"/>
    <path d="M147.15 88.27h1.9v4.61h-1.9z" id="path35"/>
    <path d="M150.74 88.27h3.95a3.93 3.93 0 0 1 1.41.24 2.93 2.93 0 0 1 1.09.74 3.36 3.36 0 0 1 .7 1.23 5.5 5.5 0 0 1 .25 1.71 5.58 5.58 0 0 1-.25 1.7 3.71 3.71 0 0 1-.72 1.28 3.25 3.25 0 0 1-1.15.81 4.09 4.09 0 0 1-1.53.28 4 4 0 0 1-1.57-.28 3.36 3.36 0 0 1-1.14-.74 3.23 3.23 0 0 1-.7-1.09 3.68 3.68 0 0 1-.24-1.32 3.41 3.41 0 0 1 .21-1.11 3.14 3.14 0 0 1 .41-.82 2.33 2.33 0 0 1 .53-.55 2.63 2.63 0 0 1 .5-.31v-.06h-1.71zm3.75 6.31a1.55 1.55 0 0 0 1.21-.48 1.86 1.86 0 0 0 .43-1.31v-1.17a1.68 1.68 0 0 0-.4-1.25 1.52 1.52 0 0 0-1.1-.39h-1.36a1.53 1.53 0 0 0-.34.6 2.45 2.45 0 0 0-.09.71v1.49a1.94 1.94 0 0 0 .43 1.32 1.57 1.57 0 0 0 1.22.48z" id="path37"/>
    <path class="cls-4" id="rect39" d="M490.64 94.89h58.03v53.58h-58.03z"/>
    <path d="M504.52 117.79h1.18l-.23-2.19v-.72a4 4 0 0 1 .17-1.23 2.35 2.35 0 0 1 .43-.82l.25-.31h-1.66v-.57h3.65a2.19 2.19 0 0 1 1.58.51 1.94 1.94 0 0 1 .53 1.48v4.46h-.67v-4.45a1.37 1.37 0 0 0-.39-1.1 1.67 1.67 0 0 0-1.09-.33h-1.58l-.1.18a3.59 3.59 0 0 0-.32.82 4.13 4.13 0 0 0-.13 1.13 9 9 0 0 0 .07 1.08l.27 2.67h-1.91z" id="path41"/>
    <path d="M515.32 113.91a1.34 1.34 0 0 0-.4-1.1 1.62 1.62 0 0 0-1.08-.33h-2.46v-.57h2.49a2.22 2.22 0 0 1 1.59.51 2 2 0 0 1 .52 1.48v4.46h-.66z" id="path43"/>
    <path d="M517.99 111.91h.68v3.51h-.68z" id="path45"/>
    <path d="m521.17 113.74-.33-1.83h.67l.24 1.34a2.31 2.31 0 0 1 .76-1 2.17 2.17 0 0 1 1.39-.41 2.63 2.63 0 0 1 .86.13 1.64 1.64 0 0 1 .67.43 1.88 1.88 0 0 1 .44.76 3.84 3.84 0 0 1 .18 1.06v4.11h-2.9v-.57h2.23v-4.01a1.83 1.83 0 0 0-.19-.66 1.37 1.37 0 0 0-.48-.54 1.72 1.72 0 0 0-1-.23 1.83 1.83 0 0 0-1 .22 1.71 1.71 0 0 0-.58.51 1.79 1.79 0 0 0-.29.61 4.14 4.14 0 0 0-.12.48l-.75 4.19h-.67z" id="path47"/>
    <path d="M531.3 118.49a4.76 4.76 0 0 1-1.53-.22 2.43 2.43 0 0 1-1-.65 2.68 2.68 0 0 1-.57-1.1 5.87 5.87 0 0 1-.18-1.54v-3.07h.68v3.18h2.3v-3.18h.66v3.07a.66.66 0 0 1-.18.48.73.73 0 0 1-.54.18h-2.22a2.53 2.53 0 0 0 .7 1.72 2.78 2.78 0 0 0 1.91.56 2.55 2.55 0 0 0 2-.69 3.12 3.12 0 0 0 .61-2.12v-3.2h.68v3.07a5.87 5.87 0 0 1-.18 1.54 2.58 2.58 0 0 1-.58 1.1 2.33 2.33 0 0 1-1 .65 4.85 4.85 0 0 1-1.56.22z" id="path49"/>
    <path d="M505.31 124.76h3.2a2.19 2.19 0 0 1 1.61.54 2.09 2.09 0 0 1 .54 1.55v4.37h-5.35zm4.68 5.87v-3.81a1.48 1.48 0 0 0-.4-1.12 1.57 1.57 0 0 0-1.11-.37h-2.49v5.3z" id="path51"/>
    <path d="M512.67 124.76h.67v3.51h-.67z" id="path53"/>
    <path d="M514.93 130.63h4l-1.55-2.12-2.63-3.75h.81l2.21 3.24 1.25-.57v-2.67h.67v2.46a.84.84 0 0 1-.13.49 1.19 1.19 0 0 1-.45.33l-1 .47 1.57 2.17v.54h-4.69z" id="path55"/>
    <path d="M521.6 130.63h2.45a2.16 2.16 0 0 0 1.6-.6 2.38 2.38 0 0 0 .58-1.68v-.74a2.38 2.38 0 0 0-.58-1.68 2.16 2.16 0 0 0-1.6-.6h-1.81v2.53h1.71v.57h-1.66a.72.72 0 0 1-.55-.19.68.68 0 0 1-.18-.5v-3h2.55a2.71 2.71 0 0 1 2.07.81 4.2 4.2 0 0 1 0 4.82 2.71 2.71 0 0 1-2.07.81h-2.55z" id="path57"/>
    <path d="M528.74 124.76h3.2a2.19 2.19 0 0 1 1.61.54 2.09 2.09 0 0 1 .54 1.55v4.37h-.67v-4.4a1.48 1.48 0 0 0-.4-1.12 1.57 1.57 0 0 0-1.11-.37h-2.49v5.89h-.68z" id="path59"/>
    <path class="cls-4" id="rect61" d="M78.36 469.04h39.83v34.2H78.36z"/>
    <path class="cls-4" id="rect63" d="M131.72 469.04h85.29v34.2h-85.29z"/>
    <path class="cls-4" id="rect65" d="M544.74 565.72h52.01v35.93h-52.01z"/>
    <path class="cls-5" id="rect67" d="M466.45 314.53h6.13v35.92h-6.13z"/>
    <path class="cls-5" id="rect69" d="M466.45 274.98h6.13v35.92h-6.13z"/>
    <path class="cls-5" id="rect71" d="M466.45 354.09h6.13v35.92h-6.13z"/>
    <path class="cls-5" id="rect73" d="M466.45 169.77h6.13v35.92h-6.13z"/>
    <path class="cls-5" id="rect75" d="M466.45 130.21h6.13v35.92h-6.13z"/>
    <path class="cls-5" id="rect77" d="M466.45 90.65h6.13v35.92h-6.13z"/>
    <path class="cls-5" id="rect79" d="M466.45 209.32h6.13v35.92h-6.13z"/>
    <path class="cls-5" transform="rotate(-90)" id="rect81" d="M-417.22 202.36h5.75v36.13h-5.75z"/>
    <path class="cls-5" transform="rotate(-90)" id="rect83" d="M-417.22 160.2h5.75v36.13h-5.75z"/>
    <path class="cls-5" transform="rotate(-90)" id="rect85" d="M-581.51 170.13h5.75v36.13h-5.75z"/>
    <path class="cls-5" transform="rotate(-90)" id="rect87" d="M-581.51 134.28h5.75v36.13h-5.75z"/>
    <path class="cls-5" transform="rotate(-90)" id="rect89" d="M-619.99 74.81h5.72v35.92h-5.72z"/>
    <path class="cls-5" transform="scale(-1)" id="rect91" d="M-116.19-635.99h5.49v21.59h-5.49z"/>
    <path class="cls-5" transform="scale(-1)" id="rect93" d="M-71.89-639.61h5.52v21.72h-5.52z"/>
    <path class="cls-5" transform="scale(-1)" id="rect95" d="M-71.89-661.61h5.52v21.72h-5.52z"/>
    <path class="cls-5" transform="rotate(-90)" id="rect97" d="M-549.99 170.13h5.75v36.13h-5.75z"/>
    <path class="cls-5" transform="rotate(-90)" id="rect99" d="M-549.99 134.28h5.75v36.13h-5.75z"/>
    <path class="cls-5" transform="rotate(-90)" id="rect101" d="M-417.22 119.54h5.75v36.13h-5.75z"/>
    <path class="cls-5" transform="rotate(-90)" id="rect103" d="M-303 204.11h5.72v35.92H-303z"/>
    <path class="cls-5" transform="rotate(-90)" id="rect105" d="M-380.76 204.12h5.72v35.92h-5.72z"/>
    <path class="cls-5" transform="scale(-1)" id="rect107" d="M-240.04-338.92h5.72V-303h-5.72z"/>
    <path class="cls-5" transform="scale(-1)" id="rect109" d="M-240.04-374.94h5.72v35.92h-5.72z"/>
    <path class="cls-5" transform="rotate(-124.49)" id="rect111" d="M-365.299-39.134h5.72v35.92h-5.72z"/>
    <path class="cls-5" transform="rotate(-90)" id="rect113" d="M-380.75 168.33h5.72v35.92h-5.72z"/>
    <path class="cls-5" transform="rotate(-124.49)" id="rect115" d="M-365.295-74.925h5.72v35.92h-5.72z"/>
    <path class="cls-5" transform="rotate(-90)" id="rect117" d="M-380.76 132.55h5.72v35.92h-5.72z"/>
    <path class="cls-5" transform="rotate(-124.49)" id="rect119" d="M-365.287-111.696h5.72v35.92h-5.72z"/>
    <path class="cls-5" transform="rotate(-124.49)" id="rect121" d="M-365.332-124.59h5.72v35.92h-5.72z"/>
    <path class="cls-5" transform="rotate(-90)" id="rect123" d="M-380.76 95.77h5.72v35.92h-5.72z"/>
    <path class="cls-5" id="rect125" d="M284.39 302.99h5.72v35.92h-5.72z"/>
    <path class="cls-5" transform="rotate(-90)" id="rect127" d="M-302.99 254.18h5.72v35.92h-5.72z"/>
    <path class="cls-5" transform="scale(-1)" id="rect129" d="M-259.9-338.97h5.72v35.92h-5.72z"/>
    <path class="cls-5" id="rect131" d="M284.39 339.01h5.72v35.92h-5.72z"/>
    <path class="cls-5" transform="rotate(-90)" id="rect133" d="M-380.75 254.19h5.72v35.92h-5.72z"/>
    <path class="cls-5" transform="scale(-1)" id="rect135" d="M-259.9-374.94h5.72v35.92h-5.72z"/>
    <path class="cls-5" id="rect137" d="M334.46 303.04h5.72v35.92h-5.72z"/>
    <path class="cls-5" transform="rotate(-90)" id="rect139" d="M-302.99 304.26h5.72v35.92h-5.72z"/>
    <path class="cls-5" transform="scale(-1)" id="rect141" d="M-309.98-338.92h5.72V-303h-5.72z"/>
    <path class="cls-5" id="rect143" d="M334.46 339.01h5.72v35.92h-5.72z"/>
    <path class="cls-5" transform="rotate(-90)" id="rect145" d="M-380.75 304.26h5.72v35.92h-5.72z"/>
    <path class="cls-5" transform="scale(-1)" id="rect147" d="M-309.98-374.94h5.72v35.92h-5.72z"/>
    <path class="cls-5" transform="rotate(-90)" id="rect149" d="M-417.22 318.25h5.75v36.13h-5.75z"/>
    <path class="cls-5" transform="rotate(-90)" id="rect151" d="M-417.22 279.62h5.75v36.13h-5.75z"/>
    <path class="cls-5" transform="rotate(-90)" id="rect153" d="M-417.22 356.88h5.75v36.13h-5.75z"/>
    <path class="cls-5" transform="rotate(-90)" id="rect155" d="M-37.19 423.7h5.72v35.92h-5.72z"/>
    <path class="cls-5" transform="rotate(-90)" id="rect157" d="M-37.18 462.1h5.72v35.92h-5.72z"/>
    <path class="cls-5" id="rect159" d="M423.52 90.65h5.72v35.92h-5.72z"/>
    <path class="cls-5" transform="rotate(90)" id="rect161" d="M686.6-354.2h5.75v47.61h-5.75z"/>
    <path class="cls-6" id="line163" d="M189.94 662.44h-3.62"/>
    <path id="line165" style="stroke-dasharray:6.25 6.25;stroke-width:.9px;stroke-miterlimit:10;stroke:#000;fill:none" d="M180.07 662.44H158.2"/>
    <path class="cls-6" id="line167" d="M155.08 662.44h-3.62"/>
    <path class="cls-8" id="polyline169" transform="translate(1.05 4.22)" d="M150.41 658.22H63.36V452.14h211.73v206.08h-86.2"/>
    <path class="cls-9" id="polyline171" transform="translate(1.05 4.22)" d="M476.52 271.69v114.45h52.12v196.49h-38.07v49.01h36.79"/>
    <path class="cls-9" id="line173" d="M477.57 246.52v3.75"/>
    <path id="line175" style="stroke-dasharray:7.3 7.3;stroke-width:.94px;stroke-miterlimit:10;stroke:#000;fill:none" d="M477.57 257.57v10.95"/>
    <path class="cls-9" id="line177" d="M477.57 272.16v3.75"/>
    <path class="cls-9" id="polyline179" transform="translate(1.05 4.22)" d="M552.07 631.64h35.94v-23.66h15.41V363.32h128.72v161.84h-9.16v74.79h87.11V277.54h-88.83v25.35H558.55V83.59h-82.03V242.3"/>
    <path class="cls-11" id="line181" d="M528.41 635.86h3.74"/>
    <path id="line183" style="stroke-dasharray:5.74 5.74;stroke-width:.94px;stroke:#231f20;stroke-miterlimit:10;fill:none" d="M537.89 635.86h8.61"/>
    <path class="cls-11" id="line185" d="M549.37 635.86h3.75"/>
    <path d="M333.05 138.91a4.58 4.58 0 0 1-1.63-.25 2.54 2.54 0 0 1-1.09-.72 2.73 2.73 0 0 1-.61-1.2 6.32 6.32 0 0 1-.19-1.66v-4.16h1.9v4.37a3.85 3.85 0 0 0 .09.9 1.43 1.43 0 0 0 .28.58 1 1 0 0 0 .5.31 3.17 3.17 0 0 0 1.5 0 1 1 0 0 0 .5-.31 1.43 1.43 0 0 0 .28-.58 3.85 3.85 0 0 0 .09-.9v-1.89a.72.72 0 0 0-.23-.57.83.83 0 0 0-.59-.2h-.9v-1.71h1.29a2.77 2.77 0 0 1 .92.15 2.1 2.1 0 0 1 .74.46 2.28 2.28 0 0 1 .49.74 2.64 2.64 0 0 1 .18 1v1.8a6.32 6.32 0 0 1-.19 1.66 2.73 2.73 0 0 1-.61 1.2 2.54 2.54 0 0 1-1.09.72 4.58 4.58 0 0 1-1.63.26z" id="path187"/>
    <path d="M341.11 133.73a1.17 1.17 0 0 0-.27-.81 1.14 1.14 0 0 0-.89-.29h-2.69v-1.71h2.79a3.25 3.25 0 0 1 2.22.65 2.36 2.36 0 0 1 .75 1.89v5.29h-1.93z" id="path189"/>
    <path d="M344.84 130.92h1.92v7.83h-1.92z" id="path191"/>
    <path d="M348.64 137.04h3.41a1.43 1.43 0 0 0 1.1-.43 1.72 1.72 0 0 0 .4-1.21v-1.13a1.72 1.72 0 0 0-.4-1.21 1.43 1.43 0 0 0-1.1-.43h-1.5v1.46h1.24v1.63h-1.25a1.64 1.64 0 0 1-1.89-1.85v-3h3.46a3.93 3.93 0 0 1 1.41.24 2.75 2.75 0 0 1 1.09.74 3.22 3.22 0 0 1 .7 1.23 5.22 5.22 0 0 1 .25 1.71 5.12 5.12 0 0 1-.25 1.7 3.22 3.22 0 0 1-.7 1.23 2.75 2.75 0 0 1-1.09.74 3.93 3.93 0 0 1-1.41.24h-3.46z" id="path193"/>
    <path d="M356.65 130.92h4a3.92 3.92 0 0 1 1.4.24 2.86 2.86 0 0 1 1.1.74 3.51 3.51 0 0 1 .7 1.23 5.52 5.52 0 0 1 .24 1.71 5.28 5.28 0 0 1-.25 1.7 3.8 3.8 0 0 1-.72 1.28 3 3 0 0 1-1.14.8 3.92 3.92 0 0 1-1.54.29 4.17 4.17 0 0 1-1.56-.28 3.31 3.31 0 0 1-1.15-.74 3.18 3.18 0 0 1-.7-1.1 3.58 3.58 0 0 1-.24-1.31 3.35 3.35 0 0 1 .58-1.94 2.48 2.48 0 0 1 .53-.54 3 3 0 0 1 .5-.31v-.06h-1.75zm3.75 6.3a1.56 1.56 0 0 0 1.22-.47 1.91 1.91 0 0 0 .43-1.31v-1.17a1.68 1.68 0 0 0-.41-1.25 1.51 1.51 0 0 0-1.1-.39h-1.36a1.67 1.67 0 0 0-.34.6 2.9 2.9 0 0 0-.08.71v1.49a1.89 1.89 0 0 0 .43 1.32 1.54 1.54 0 0 0 1.21.47z" id="path195"/>
    <path d="M368.57 130.92h4.56a2.32 2.32 0 0 1 1.74.63 2.24 2.24 0 0 1 .62 1.67v5.53h-6.92zm5 6.12v-3.59a.75.75 0 0 0-.83-.82h-2.24v4.41z" id="path197"/>
    <path d="M380.44 132.63h-4.06v-3.41h1.93v1.67h4.16v1.8l-2.31 6h-2.06z" id="path199"/>
    <path d="M383.53 130.92h1.93v7.83h-1.93z" id="path201"/>
    <path d="M387.3 135.95a2.67 2.67 0 0 1 .08-.73 1.69 1.69 0 0 1 .26-.54 1.65 1.65 0 0 1 .43-.4 3.37 3.37 0 0 1 .6-.33l.26-.12-1.76-2.91h2.29l2.19 3.71.68-.32v-3.39h1.9v2.8a2.67 2.67 0 0 1-.08.73 1.51 1.51 0 0 1-.26.54 1.65 1.65 0 0 1-.43.4 3.37 3.37 0 0 1-.6.33l-.25.12 1.76 2.91h-2.32l-2.2-3.71-.69.32v3.39h-1.9z" id="path203"/>
    <path d="M370.34 190.82a1.55 1.55 0 0 0-.37-1.12 1.41 1.41 0 0 0-1-.38h-2.8v-.56H369a1.94 1.94 0 0 1 1.5.54 2.15 2.15 0 0 1 .5 1.54v4.38h-.62zm-4.21 1h.63v3.4h-.63z" id="path205"/>
    <path d="M372.84 188.76h.63v3.51h-.63z" id="path207"/>
    <path d="M378.41 190.75a1.44 1.44 0 0 0-.36-1.1 1.49 1.49 0 0 0-1-.33h-2.29v-.56h2.29a2 2 0 0 1 1.47.5 2.06 2.06 0 0 1 .5 1.49v4.47h-.63z" id="path209"/>
    <path d="M383.42 195.33a3.61 3.61 0 0 1-1.22-.18 1.78 1.78 0 0 1-.79-.57 2.25 2.25 0 0 1-.44-1 6.49 6.49 0 0 1-.14-1.42v-3.44h.63v3.57a4.82 4.82 0 0 0 .11 1.09 1.71 1.71 0 0 0 .33.76 1.28 1.28 0 0 0 .6.44 2.74 2.74 0 0 0 .92.14 2.7 2.7 0 0 0 .92-.14 1.3 1.3 0 0 0 .61-.44 1.92 1.92 0 0 0 .33-.75 5 5 0 0 0 .1-1.09v-1.74a1.21 1.21 0 0 0-.35-.95 1.35 1.35 0 0 0-1-.33h-.71v-.56h.73a1.7 1.7 0 0 1 1.92 1.9v1.6a6.54 6.54 0 0 1-.13 1.42 2.37 2.37 0 0 1-.44 1 1.81 1.81 0 0 1-.8.57 3.53 3.53 0 0 1-1.18.12z" id="path211"/>
    <path d="M387.73 188.76h.63v3.51h-.63z" id="path213"/>
    <path d="M390.31 194.63h2.32a1.89 1.89 0 0 0 1.49-.61 2.41 2.41 0 0 0 .54-1.67v-.75a2.43 2.43 0 0 0-.54-1.67 1.93 1.93 0 0 0-1.49-.61h-1.69v2.54h1.59v.57h-1.54a.66.66 0 0 1-.51-.19.69.69 0 0 1-.17-.5v-3h2.37a2.42 2.42 0 0 1 1.93.81 4.39 4.39 0 0 1 0 4.82 2.42 2.42 0 0 1-1.93.81h-2.37z" id="path215"/>
    <path d="M401.43 189.32h-4.47v-.56h5.09v.56l-2.2 5.9h-.66zm-4.47 2.54h.63v5.48h-.63z" id="path217"/>
    <path d="M307.96 26.27V215.9l71.53-9.52 24.21 16s12.29-51.95 12.29-76.63V26.27Z" id="path219" style="stroke-width:.84px;stroke:#231f20;stroke-miterlimit:10;fill:none"/>
    <path d="M637.8 394.82a1.45 1.45 0 0 0-.4-1.12 1.57 1.57 0 0 0-1.11-.38h-3v-.57h3a2.17 2.17 0 0 1 1.61.54 2.1 2.1 0 0 1 .54 1.55v4.38h-.67zm-4.52 1h.68v3.4h-.68z" id="path221"/>
    <path d="M640.15 392.75h3.17a2.68 2.68 0 0 1 2.07.82 3.37 3.37 0 0 1 .76 2.4 4.52 4.52 0 0 1-.21 1.45 2.84 2.84 0 0 1-.59 1.05 2.54 2.54 0 0 1-.94.64 3.65 3.65 0 0 1-2.44 0 2.46 2.46 0 0 1-.94-.64 2.84 2.84 0 0 1-.6-1.05 4.77 4.77 0 0 1-.2-1.44 3.28 3.28 0 0 1 .12-.91 3.1 3.1 0 0 1 .31-.76 2.42 2.42 0 0 1 .45-.58 2 2 0 0 1 .51-.37h-1.47zm3 6a2.52 2.52 0 0 0 .93-.17 2 2 0 0 0 .7-.47 2.2 2.2 0 0 0 .46-.75 3 3 0 0 0 .16-1v-.8a2.29 2.29 0 0 0-.59-1.66 2.09 2.09 0 0 0-1.59-.61h-1.17a2.31 2.31 0 0 0-.79 1 3 3 0 0 0-.29 1.35v.75a2.76 2.76 0 0 0 .16 1 2.34 2.34 0 0 0 .45.75 2 2 0 0 0 .71.47 2.45 2.45 0 0 0 .9.15z" id="path223"/>
    <path d="M647.79 392.75h.68v3.47h-.68z" id="path225"/>
    <path d="M649.97 398.63h1.74v-4.47a1.18 1.18 0 0 0 0-.34.46.46 0 0 0-.15-.27.76.76 0 0 0-.36-.17 2.59 2.59 0 0 0-.62-.06h-.53v-.57h.54a3.55 3.55 0 0 1 .88.09 1.35 1.35 0 0 1 .55.27.87.87 0 0 1 .28.43 1.83 1.83 0 0 1 .08.59v5.09h-2.41z" id="path227"/>
    <path d="M653.92 398.63h2a2.1 2.1 0 0 0 1.6-.61 2.3 2.3 0 0 0 .59-1.67v-.75a2.3 2.3 0 0 0-.59-1.67 2.1 2.1 0 0 0-1.6-.61h-2v-.57h2.13a2.68 2.68 0 0 1 2.07.82 4.14 4.14 0 0 1 0 4.81 2.68 2.68 0 0 1-2.07.84h-2.09z" id="path229"/>
    <path d="M637.95 407.66a1.48 1.48 0 0 0-.4-1.12 1.57 1.57 0 0 0-1.11-.38h-3v-.56h3a2.17 2.17 0 0 1 1.61.54 2.08 2.08 0 0 1 .54 1.54v4.36h-.67zm-4.52 1h.68V412h-.68z" id="path231"/>
    <path d="M643.85 412.22a4.58 4.58 0 0 1-1.53-.22 2.39 2.39 0 0 1-1-.65 2.56 2.56 0 0 1-.57-1.1 5.81 5.81 0 0 1-.18-1.54v-3.06h.68v3.17h2.29v-3.17h.67v3.06a.62.62 0 0 1-.19.48.73.73 0 0 1-.54.18h-2.23a2.47 2.47 0 0 0 .7 1.72 2.75 2.75 0 0 0 1.9.56 2.58 2.58 0 0 0 2-.69 3.16 3.16 0 0 0 .6-2.12v-3.19h.68v3.06a5.81 5.81 0 0 1-.18 1.54 2.68 2.68 0 0 1-.57 1.1 2.39 2.39 0 0 1-1 .65 4.6 4.6 0 0 1-1.53.22z" id="path233"/>
    <path d="M649.05 405.6h.67v3.51h-.67z" id="path235"/>
    <path d="M653.74 410.44h-.05a2.18 2.18 0 0 1-.37.64 2.48 2.48 0 0 1-.59.52 3 3 0 0 1-.72.36 2.42 2.42 0 0 1-.79.13v-.61a2.93 2.93 0 0 0 1-.16 2.68 2.68 0 0 0 .78-.44 1.8 1.8 0 0 0 .49-.62 1.26 1.26 0 0 0 .12-.71l-.36-3.39h-1.67v-.56h1.28a1.14 1.14 0 0 1 .78.23 1.06 1.06 0 0 1 .31.69l.59 5.52h-.64z" id="path237"/>
    <path d="M655.92 411.47h1.73v-4.46a1.83 1.83 0 0 0 0-.35.54.54 0 0 0-.16-.27.88.88 0 0 0-.35-.17 2.68 2.68 0 0 0-.63-.06h-.46v-.56h.54a3.52 3.52 0 0 1 .87.09 1.48 1.48 0 0 1 .55.26.92.92 0 0 1 .29.44 2.1 2.1 0 0 1 .08.59v5.06h-2.41z" id="path239"/>
    <path d="M631.63 418.44h.68v3.51h-.68z" id="path241"/>
    <path d="M633.81 424.32h1.73v-4.47a1.9 1.9 0 0 0 0-.35.48.48 0 0 0-.16-.26.77.77 0 0 0-.35-.17 2.68 2.68 0 0 0-.63-.06h-.48v-.57h.54a3.52 3.52 0 0 1 .87.09 1.35 1.35 0 0 1 .55.27.89.89 0 0 1 .29.43 2.1 2.1 0 0 1 .08.59v5.06h-2.41z" id="path243"/>
    <path d="M638.34 418.44h.71v6.44h-.68z" id="path245"/>
    <path d="M644.44 420.44a1.34 1.34 0 0 0-.4-1.1 1.62 1.62 0 0 0-1.08-.33h-2.46v-.57h2.49a2.2 2.2 0 0 1 1.59.51 2 2 0 0 1 .53 1.48v4.45h-.67z" id="path247"/>
    <path d="M647.11 418.44h.68v3.51h-.68z" id="path249"/>
    <path d="m649.26 424.52 2.37-.35-2.23-5.73h.72l1.46 3.76.67 1.82a2.4 2.4 0 0 0 1.38-1.12 4.53 4.53 0 0 0 .43-2.16v-2.3h.67v2.2a6.94 6.94 0 0 1-.19 1.68 3.21 3.21 0 0 1-.58 1.22 2.82 2.82 0 0 1-1 .8 5.4 5.4 0 0 1-1.51.43l-2.17.32z" id="path251"/>
    <path d="M660.05 419.01h-4.12v-2.06h.67v1.49h4.16v.58l-2.39 5.86h-.71z" id="path253"/>
    <path d="M532.93 665.37a1.44 1.44 0 0 0-.4-1.11 1.54 1.54 0 0 0-1.12-.38h-3v-.57h3a2.19 2.19 0 0 1 1.61.54 2.1 2.1 0 0 1 .54 1.55v4.35h-.67zm-4.52 1h.64v3.34h-.67z" id="path255"/>
    <path d="M535.27 663.31h3.17a2.71 2.71 0 0 1 2.07.81 3.42 3.42 0 0 1 .77 2.41 4.57 4.57 0 0 1-.21 1.45 3 3 0 0 1-.6 1 2.5 2.5 0 0 1-.93.64 3.41 3.41 0 0 1-1.23.21 3.36 3.36 0 0 1-1.22-.21 2.5 2.5 0 0 1-.93-.64 3 3 0 0 1-.6-1 4.46 4.46 0 0 1-.21-1.44 3.28 3.28 0 0 1 .12-.91 3.1 3.1 0 0 1 .32-.76 2.68 2.68 0 0 1 .44-.58 2 2 0 0 1 .51-.37h-1.47zm3 6a2.45 2.45 0 0 0 .93-.17 2 2 0 0 0 .71-.47 2.18 2.18 0 0 0 .45-.75 2.76 2.76 0 0 0 .16-1v-.8a2.29 2.29 0 0 0-.58-1.66 2.1 2.1 0 0 0-1.6-.61h-1.24a2.39 2.39 0 0 0-.79 1 3.17 3.17 0 0 0-.26 1.37v.75a3 3 0 0 0 .16 1 2.2 2.2 0 0 0 .46.75 2 2 0 0 0 .7.47 2.52 2.52 0 0 0 .94.13z" id="path257"/>
    <path d="M542.92 663.31h.67v3.51h-.67z" id="path259"/>
    <path d="M545.1 669.22h1.73v-4.5a1.9 1.9 0 0 0 0-.35.54.54 0 0 0-.16-.26.77.77 0 0 0-.35-.17 2.68 2.68 0 0 0-.63-.06h-.48v-.57h.54a3.52 3.52 0 0 1 .87.09 1.35 1.35 0 0 1 .55.27 1 1 0 0 1 .29.43 2.1 2.1 0 0 1 .08.59v5.06h-2.41z" id="path261"/>
    <path d="M549.05 669.22h2a2.16 2.16 0 0 0 1.6-.61 2.31 2.31 0 0 0 .58-1.67v-.75a2.29 2.29 0 0 0-.58-1.67 2.13 2.13 0 0 0-1.6-.61h-2v-.57h2.09a2.71 2.71 0 0 1 2.07.81 4.2 4.2 0 0 1 0 4.82 2.71 2.71 0 0 1-2.07.81h-2.09z" id="path263"/>
    <path d="M526.75 676.15h.68v3.52h-.68z" id="path265"/>
    <path d="M528.93 682.03h1.74v-4.47a1.22 1.22 0 0 0 0-.34.49.49 0 0 0-.15-.27.86.86 0 0 0-.36-.17 2.53 2.53 0 0 0-.62-.06h-.49v-.57h.54a3.5 3.5 0 0 1 .88.1 1.48 1.48 0 0 1 .55.26.9.9 0 0 1 .28.44 1.74 1.74 0 0 1 .09.59v5.06h-2.42z" id="path267"/>
    <path d="M533.47 676.15h.68v6.45h-.68z" id="path269"/>
    <path d="M539.57 678.15a1.38 1.38 0 0 0-.4-1.1 1.65 1.65 0 0 0-1.09-.33h-2.45v-.57h2.49a2.19 2.19 0 0 1 1.58.51 2 2 0 0 1 .53 1.49v4.45h-.66z" id="path271"/>
    <path d="M542.24 676.15h.68v3.52h-.68z" id="path273"/>
    <path d="m544.39 682.22 2.36-.35-2.23-5.73h.73l1.45 3.77.67 1.81a2.27 2.27 0 0 0 1.38-1.12 4.52 4.52 0 0 0 .44-2.16v-2.3h.66v2.2a7 7 0 0 1-.18 1.68 3.45 3.45 0 0 1-.62 1.2 2.89 2.89 0 0 1-1 .8 5.08 5.08 0 0 1-1.51.43l-2.17.32z" id="path275"/>
    <path d="M555.15 676.72h-4.1v-2h.68v1.48h4.16v.58l-2.39 5.87h-.71z" id="path277"/>
    <path d="M182.82 703.35a1.51 1.51 0 0 0-.37-1.12 1.41 1.41 0 0 0-1-.38h-2.81v-.57h2.84a2 2 0 0 1 1.5.54 2.17 2.17 0 0 1 .5 1.55v4.36h-.62zm-4.22 1h.64v3.34h-.64z" id="path279"/>
    <path d="M185.05 701.28H188a2.41 2.41 0 0 1 1.93.82 3.51 3.51 0 0 1 .71 2.4 4.86 4.86 0 0 1-.19 1.45 2.94 2.94 0 0 1-.56 1 2.29 2.29 0 0 1-.87.64 3.2 3.2 0 0 1-2.28 0 2.29 2.29 0 0 1-.87-.64 2.92 2.92 0 0 1-.56-1 4.79 4.79 0 0 1-.19-1.44 3.72 3.72 0 0 1 .11-.91 3.76 3.76 0 0 1 .3-.76 2.6 2.6 0 0 1 .41-.58 1.82 1.82 0 0 1 .48-.37h-1.37zm2.83 6a2.21 2.21 0 0 0 .87-.17 1.94 1.94 0 0 0 .66-.47 2.28 2.28 0 0 0 .42-.75 3 3 0 0 0 .15-1v-.8a2.36 2.36 0 0 0-.55-1.66 1.87 1.87 0 0 0-1.48-.61h-1.2a2.37 2.37 0 0 0-.74 1 3.32 3.32 0 0 0-.27 1.35v.75a3 3 0 0 0 .15 1 2.13 2.13 0 0 0 .43.75 1.9 1.9 0 0 0 .65.47 2.21 2.21 0 0 0 .87.15z" id="path281"/>
    <path d="M192.13 701.28h.64v3.51h-.64z" id="path283"/>
    <path d="M194.17 707.16h1.61v-4.47a1.72 1.72 0 0 0 0-.34.5.5 0 0 0-.14-.27.74.74 0 0 0-.33-.17 2.38 2.38 0 0 0-.59-.06h-.45v-.57h.51a3.12 3.12 0 0 1 .81.09 1.24 1.24 0 0 1 .51.27.93.93 0 0 1 .27.43 2.16 2.16 0 0 1 .08.59v5.07h-2.25z" id="path285"/>
    <path d="M197.85 707.16h1.89a1.88 1.88 0 0 0 1.49-.61 2.37 2.37 0 0 0 .55-1.67v-.75a2.37 2.37 0 0 0-.55-1.67 1.88 1.88 0 0 0-1.49-.61h-1.89v-.57h1.95a2.42 2.42 0 0 1 1.93.82 4.43 4.43 0 0 1 0 4.81 2.46 2.46 0 0 1-1.93.82h-1.95z" id="path287"/>
    <path d="M161.73 714.13h.63v3.51h-.63z" id="path289"/>
    <path d="M164.62 715.11a.49.49 0 0 1-.38-.13.52.52 0 0 1-.12-.36v-.14a1.94 1.94 0 0 1 .06-.46 2.26 2.26 0 0 1 .19-.49 2.83 2.83 0 0 1 .29-.47 2.46 2.46 0 0 1 .38-.41h.51a3.61 3.61 0 0 0-.54.71 2.78 2.78 0 0 0-.26.69.43.43 0 0 1 .3.15.48.48 0 0 1 .1.29v.13a.53.53 0 0 1-.13.36.51.51 0 0 1-.4.13z" id="path291"/>
    <path d="M166.62 720h3.71l-1.45-2.12-2.45-3.75h.75l2.06 3.24 1.17-.57v-2.67h.64v2.4a.88.88 0 0 1-.12.5 1.1 1.1 0 0 1-.41.33l-1 .47 1.47 2.17v.57h-4.38z" id="path293"/>
    <path d="M172.3 720h1.61v-4.46a1.83 1.83 0 0 0 0-.35.59.59 0 0 0-.14-.27.83.83 0 0 0-.34-.17 2.24 2.24 0 0 0-.58-.06h-.45v-.56h.5a3.15 3.15 0 0 1 .82.09 1.36 1.36 0 0 1 .51.26 1 1 0 0 1 .27.44 2.12 2.12 0 0 1 .07.59v5.06h-2.24z" id="path295"/>
    <path d="M176.42 714.13h.63v3.51h-.63z" id="path297"/>
    <path d="M179.05 714.13h.63v6.44h-.63z" id="path299"/>
    <path d="M188.43 716.22a1.55 1.55 0 0 0-.38-1.12 1.41 1.41 0 0 0-1-.38h-2.8v-.56h2.8a1.94 1.94 0 0 1 1.5.54 2.15 2.15 0 0 1 .5 1.52v4.36h-.62zm-4.22 1h.63v3.34h-.63z" id="path301"/>
    <path d="M193.45 714.69h-3.46v-.56h5v.56h-.94v5.88h-.63z" id="path303"/>
    <path d="M199.25 715.11a.47.47 0 0 1-.38-.13.48.48 0 0 1-.13-.36v-.14a1.56 1.56 0 0 1 .07-.46 2.22 2.22 0 0 1 .18-.49 3.7 3.7 0 0 1 .29-.47 2.46 2.46 0 0 1 .38-.41h.52a3 3 0 0 0-.54.71 2.47 2.47 0 0 0-.27.69.44.44 0 0 1 .31.15.48.48 0 0 1 .09.29v.13a.44.44 0 0 1-.52.49z" id="path305"/>
    <path d="M201.72 714.13h3a1.94 1.94 0 0 1 1.5.54 2.15 2.15 0 0 1 .51 1.54v4.36h-.68v-4.35a1.55 1.55 0 0 0-.38-1.12 1.41 1.41 0 0 0-1-.38h-2.32v5.88h-.63z" id="path307"/>
    <path d="M211.32 716.13a1.43 1.43 0 0 0-.37-1.11 1.46 1.46 0 0 0-1-.33h-2.3v-.56h2.32a2 2 0 0 1 1.48.51 2 2 0 0 1 .49 1.48v4.45h-.62z" id="path309"/>
    <path d="m214.31 715.96-.32-1.83h.63l.22 1.33a2.4 2.4 0 0 1 .71-1 2 2 0 0 1 1.29-.41 2.33 2.33 0 0 1 .81.13 1.48 1.48 0 0 1 .62.43 2 2 0 0 1 .41.76 3.86 3.86 0 0 1 .14 1.14v4.11h-2.7v-.57h2.07v-4a2.28 2.28 0 0 0-.17-.67 1.39 1.39 0 0 0-.46-.54 1.5 1.5 0 0 0-.89-.23 1.72 1.72 0 0 0-.91.22 1.66 1.66 0 0 0-.54.51 1.93 1.93 0 0 0-.27.61c0 .2-.09.36-.11.49l-.69 4.18h-.64z" id="path311"/>
    <path d="M65.3 270.12a1.53 1.53 0 0 0-.37-1.12 1.41 1.41 0 0 0-1-.38h-2.88v-.56h2.83a1.94 1.94 0 0 1 1.5.54 2.15 2.15 0 0 1 .5 1.54v4.36h-.62zm-4.21 1h.63v3.34h-.67z" id="path313"/>
    <path d="M67.49 268.06h3a2.43 2.43 0 0 1 1.93.81 3.52 3.52 0 0 1 .71 2.41 4.79 4.79 0 0 1-.19 1.44 2.78 2.78 0 0 1-.56 1.05 2.19 2.19 0 0 1-.87.64 3.06 3.06 0 0 1-2.28 0 2.19 2.19 0 0 1-.87-.64 3 3 0 0 1-.56-1 5.25 5.25 0 0 1-.19-1.45 3.78 3.78 0 0 1 .11-.91 4 4 0 0 1 .3-.76 2.85 2.85 0 0 1 .41-.58 1.59 1.59 0 0 1 .48-.36v-.05h-1.42zm2.83 6a2.21 2.21 0 0 0 .87-.16 1.87 1.87 0 0 0 .66-.48 2.18 2.18 0 0 0 .42-.75 3 3 0 0 0 .15-1v-.8a2.38 2.38 0 0 0-.55-1.66 1.91 1.91 0 0 0-1.48-.61h-1.16a2.44 2.44 0 0 0-.74 1 3.4 3.4 0 0 0-.27 1.36v.74a3 3 0 0 0 .15 1 2.2 2.2 0 0 0 .43.75 1.87 1.87 0 0 0 .66.48 2.13 2.13 0 0 0 .86.13z" id="path315"/>
    <path d="M74.61 268.06h.64v3.51h-.64z" id="path317"/>
    <path d="M76.65 273.93h1.61v-4.47a1.79 1.79 0 0 0 0-.34.59.59 0 0 0-.14-.27.85.85 0 0 0-.33-.17 2.32 2.32 0 0 0-.59-.06h-.45v-.56h.51a3.07 3.07 0 0 1 .81.09 1.29 1.29 0 0 1 .51.26 1 1 0 0 1 .27.44 2.1 2.1 0 0 1 .08.59v5.06h-2.28z" id="path319"/>
    <path d="M80.33 273.93h1.89a1.88 1.88 0 0 0 1.49-.61 2.37 2.37 0 0 0 .55-1.67v-.75a2.39 2.39 0 0 0-.55-1.67 1.91 1.91 0 0 0-1.49-.61h-1.89v-.56h2a2.43 2.43 0 0 1 1.93.81 4.45 4.45 0 0 1 0 4.82 2.43 2.43 0 0 1-1.93.81h-2z" id="path321"/>
    <path d="M47.05 282.96a1.5 1.5 0 0 0-.37-1.11 1.37 1.37 0 0 0-1-.38h-2.9v-.57h2.84a2 2 0 0 1 1.5.54 2.22 2.22 0 0 1 .5 1.55v4.35h-.57zm-4.22 1h.63v3.34h-.63z" id="path323"/>
    <path d="m49.05 286.98 2.21-.35-2.08-5.73h.68l1.36 3.76.62 1.82a2.27 2.27 0 0 0 1.29-1.12 5 5 0 0 0 .4-2.16v-2.3h.62v2.19a7.43 7.43 0 0 1-.17 1.68 3.5 3.5 0 0 1-.54 1.22 2.7 2.7 0 0 1-1 .81 4.71 4.71 0 0 1-1.39.42l-2 .32z" id="path325"/>
    <path d="M55.24 286.78h3.54v-5.31h-3.45v-.57h3.39a.66.66 0 0 1 .51.18.65.65 0 0 1 .18.48v5.22h.91v.56h-5.08z" id="path327"/>
    <path d="M64.37 282.9a1.4 1.4 0 0 0-.37-1.1 1.45 1.45 0 0 0-1-.33h-2.3v-.57h2.35a2 2 0 0 1 1.48.51 2 2 0 0 1 .49 1.48v4.45h-.62Z" id="path329"/>
    <path d="M66.94 284.77a.84.84 0 0 1 .12-.49 1.14 1.14 0 0 1 .42-.33l1-.48-1.72-2.57h.74l2.27 3.42 1.23-.57v-2.85h.62v2.57a.9.9 0 0 1-.13.5 1.19 1.19 0 0 1-.41.32l-1 .48 1.72 2.57h-.75l-2.28-3.42-1.22.58v2.84h-.62z" id="path331"/>
    <path d="M77.83 282.96a1.51 1.51 0 0 0-.38-1.11 1.36 1.36 0 0 0-1-.38h-2.8v-.57h2.8a1.93 1.93 0 0 1 1.49.54 2.18 2.18 0 0 1 .51 1.55v4.35h-.62zm-4.22 1h.63v3.34h-.63z" id="path333"/>
    <path d="M83.26 281.88a.5.5 0 0 1-.38-.13.52.52 0 0 1-.12-.36v-.17a2 2 0 0 1 .06-.46 3 3 0 0 1 .48-1 2.46 2.46 0 0 1 .38-.41h.51a3.93 3.93 0 0 0-.54.71 3.11 3.11 0 0 0-.26.69.56.56 0 0 1 .31.15.48.48 0 0 1 .09.29v.13a.48.48 0 0 1-.13.36.51.51 0 0 1-.4.2z" id="path335"/>
    <path d="M85.74 280.9h3a1.94 1.94 0 0 1 1.5.54 2.17 2.17 0 0 1 .5 1.55v4.35h-.62v-4.38a1.5 1.5 0 0 0-.37-1.11 1.37 1.37 0 0 0-1-.38h-2.38v5.87h-.63z" id="path337"/>
    <path d="M95.34 282.9a1.44 1.44 0 0 0-.37-1.1 1.48 1.48 0 0 0-1-.33h-2.3v-.57h2.32a2 2 0 0 1 1.48.51 2.08 2.08 0 0 1 .49 1.48v4.45h-.62z" id="path339"/>
    <path d="m98.32 282.73-.27-1.83h.62l.23 1.34a2.29 2.29 0 0 1 .71-1.06 2 2 0 0 1 1.29-.41 2.28 2.28 0 0 1 .8.14 1.43 1.43 0 0 1 .63.42 2 2 0 0 1 .41.77 4.1 4.1 0 0 1 .14 1.13v4.11h-2.71v-.56h2.08v-4.01a1.7 1.7 0 0 0-.17-.66 1.32 1.32 0 0 0-.45-.55 1.52 1.52 0 0 0-.89-.22 1.73 1.73 0 0 0-.91.21 1.8 1.8 0 0 0-.54.52 2 2 0 0 0-.27.6c0 .2-.09.37-.11.49l-.7 4.18h-.66z" id="path341"/>
    <path class="cls-14" d="M419.56 249.6a1.76 1.76 0 0 0-.51-1.38 1.85 1.85 0 0 0-1.34-.46h-3.61v-.68h3.65a2.62 2.62 0 0 1 1.93.65 2.51 2.51 0 0 1 .65 1.85v5.23h-.8zm-5.43 1.25h.82v4h-.82z" id="path343"/>
    <path class="cls-14" d="M422.37 247.12h3.8a3.25 3.25 0 0 1 2.49 1 4.08 4.08 0 0 1 .92 2.89 5.63 5.63 0 0 1-.25 1.73 3.53 3.53 0 0 1-.72 1.26 2.92 2.92 0 0 1-1.12.77 4.29 4.29 0 0 1-2.94 0 3 3 0 0 1-1.12-.77 3.37 3.37 0 0 1-.71-1.26 5.31 5.31 0 0 1-.25-1.73 4.17 4.17 0 0 1 .14-1.09 4 4 0 0 1 .38-.91 3.48 3.48 0 0 1 .53-.7 2.68 2.68 0 0 1 .61-.44h-1.76zm3.65 7.21a3.06 3.06 0 0 0 1.12-.2 2.24 2.24 0 0 0 .84-.57 2.57 2.57 0 0 0 .55-.9 3.34 3.34 0 0 0 .19-1.17v-1a2.76 2.76 0 0 0-.7-2 2.53 2.53 0 0 0-1.92-.73h-1.48a2.77 2.77 0 0 0-.95 1.17 3.77 3.77 0 0 0-.35 1.62v.9a3.59 3.59 0 0 0 .19 1.17 2.57 2.57 0 0 0 .55.9 2.2 2.2 0 0 0 .85.57 3 3 0 0 0 1.14.24z" id="path345"/>
    <path class="cls-14" d="M431.55 247.12h.81v4.21h-.81z" id="path347"/>
    <path class="cls-14" d="M434.16 254.22h2.08v-5.36a1.73 1.73 0 0 0 0-.41.64.64 0 0 0-.18-.32 1 1 0 0 0-.43-.21 3.07 3.07 0 0 0-.75-.07h-.58v-.68h.65a4.24 4.24 0 0 1 1 .11 1.57 1.57 0 0 1 .66.32 1.07 1.07 0 0 1 .35.52 2.53 2.53 0 0 1 .1.71v6.07h-2.9z" id="path349"/>
    <path class="cls-14" d="M438.9 254.22h2.44a2.53 2.53 0 0 0 1.92-.73 2.79 2.79 0 0 0 .7-2v-.89a2.82 2.82 0 0 0-.7-2 2.53 2.53 0 0 0-1.92-.73h-2.44v-.68h2.51a3.27 3.27 0 0 1 2.49 1 5 5 0 0 1 0 5.78 3.26 3.26 0 0 1-2.49 1h-2.51z" id="path351"/>
    <path class="cls-14" d="M412.15 262.53h.81v4.22h-.81z" id="path353"/>
    <path class="cls-14" d="M414.77 269.58h2.08v-5.36a1.73 1.73 0 0 0-.05-.42.55.55 0 0 0-.18-.32 1 1 0 0 0-.43-.21 3.67 3.67 0 0 0-.75-.07h-.58v-.68h.65a4.39 4.39 0 0 1 1.05.11 1.85 1.85 0 0 1 .66.32 1.13 1.13 0 0 1 .34.52 2.26 2.26 0 0 1 .1.71v6.08h-2.89z" id="path355"/>
    <path class="cls-14" d="M420.21 262.53h.84v7.74h-.81z" id="path357"/>
    <path class="cls-14" d="M427.52 264.93a1.67 1.67 0 0 0-.47-1.32 2 2 0 0 0-1.3-.4h-2.95v-.68h3a2.69 2.69 0 0 1 1.9.61 2.37 2.37 0 0 1 .63 1.78v5.35h-.8z" id="path359"/>
    <path class="cls-14" d="M430.73 262.53h.82v4.22h-.82z" id="path361"/>
    <path class="cls-14" d="m433.31 269.83 2.84-.42-2.68-6.88h.87l1.75 4.52.8 2.18a2.85 2.85 0 0 0 1.66-1.34 5.45 5.45 0 0 0 .52-2.6v-2.76h.8v2.69a8.46 8.46 0 0 1-.22 2 3.86 3.86 0 0 1-.7 1.47 3.47 3.47 0 0 1-1.23 1 6.16 6.16 0 0 1-1.81.51l-2.6.39z" id="path363"/>
    <path class="cls-14" d="M446.23 263.22h-4.95v-2.46h.82v1.78h5v.7l-2.86 7h-.86z" id="path365"/>
    <path class="cls-4" id="rect367" d="M548.74 390.91h52.01v35.93h-52.01z"/>
    <path d="M558.32 399.12h.73v3.51h-.68z" id="path369"/>
    <path d="M560.98 399.12h.67v3.51h-.67z" id="path371"/>
    <path d="M567.05 399.68h-4.12v-2h.68v1.49h4.16v.57l-2.39 5.87h-.71z" id="path373"/>
    <path d="M569.21 404.99h2.49a2.09 2.09 0 0 0 1.59-.61 2.3 2.3 0 0 0 .59-1.67v-.75a2.31 2.31 0 0 0-.59-1.67 2.12 2.12 0 0 0-1.59-.61h-1.82v2.54h1.71v.57h-1.65a.76.76 0 0 1-.55-.19.7.7 0 0 1-.18-.5v-3h2.54a2.72 2.72 0 0 1 2.08.81 4.2 4.2 0 0 1 0 4.82 2.72 2.72 0 0 1-2.08.81h-2.54z" id="path375"/>
    <path d="M575.9 399.12h3.15a2.71 2.71 0 0 1 2.07.81 3.38 3.38 0 0 1 .76 2.41 4.77 4.77 0 0 1-.2 1.44 2.84 2.84 0 0 1-.6 1.05 2.35 2.35 0 0 1-.94.64 3.49 3.49 0 0 1-2.44 0 2.43 2.43 0 0 1-.94-.64 2.72 2.72 0 0 1-.59-1 4.57 4.57 0 0 1-.21-1.45 3.34 3.34 0 0 1 .12-.91 3.47 3.47 0 0 1 .32-.76 2.6 2.6 0 0 1 .44-.58 1.7 1.7 0 0 1 .51-.36v-.05h-1.47zm3 6a2.45 2.45 0 0 0 .93-.17 1.8 1.8 0 0 0 .71-.47 2.24 2.24 0 0 0 .45-.75 2.72 2.72 0 0 0 .16-1v-.8a2.3 2.3 0 0 0-.58-1.66 2.15 2.15 0 0 0-1.6-.61h-1.24a2.37 2.37 0 0 0-.79 1 3.25 3.25 0 0 0-.29 1.36v.74a2.72 2.72 0 0 0 .16 1 2.11 2.11 0 0 0 .46.75 1.77 1.77 0 0 0 .7.47 2.52 2.52 0 0 0 .97.14z" id="path377"/>
    <path d="M583.48 399.12h.67v6.44h-.67z" id="path379"/>
    <path d="M591.15 399.68h-4.79v-.56h5.5v.56l-2.4 5.88h-.71zm-4.79 2.54h.69v5.48h-.67z" id="path381"/>
    <path d="M562.25 411.96h3.2a2.19 2.19 0 0 1 1.61.54 2.1 2.1 0 0 1 .54 1.55v4.35h-5.35zm4.68 5.88v-3.82a1.48 1.48 0 0 0-.4-1.12 1.57 1.57 0 0 0-1.11-.37h-2.49v5.31z" id="path383"/>
    <path d="M569.61 411.96h.68v3.51h-.68z" id="path385"/>
    <path d="M575.59 413.96a1.34 1.34 0 0 0-.4-1.1 1.62 1.62 0 0 0-1.08-.33h-2.46v-.57h2.49a2.2 2.2 0 0 1 1.59.51 2 2 0 0 1 .53 1.48v4.45h-.67z" id="path387"/>
    <path d="M577.79 417.84h3.8v-5.31h-3.7v-.57h3.64a.78.78 0 0 1 .55.18.65.65 0 0 1 .18.48v5.22h1v.56h-5.45z" id="path389"/>
    <path d="M586.68 416.81a2.26 2.26 0 0 1-.37.63 2.48 2.48 0 0 1-.59.52 3 3 0 0 1-.72.36 2.39 2.39 0 0 1-.79.14v-.61a2.93 2.93 0 0 0 1-.17 2.68 2.68 0 0 0 .78-.44 1.8 1.8 0 0 0 .49-.62 1.26 1.26 0 0 0 .12-.71l-.36-3.38h-1.67v-.57h1.28a1.19 1.19 0 0 1 .78.23 1.06 1.06 0 0 1 .31.69l.59 5.52h-.64z" id="path391"/>
    <path class="cls-4" id="rect393" d="M670.74 309.91h52.01v35.93h-52.01z"/>
    <path d="M680.32 318.12h.73v3.51h-.68z" id="path395"/>
    <path d="M682.98 318.12h.67v3.51h-.67z" id="path397"/>
    <path d="M689.05 318.68h-4.12v-2h.68v1.49h4.16v.57l-2.39 5.87h-.71z" id="path399"/>
    <path d="M691.21 323.99h2.49a2.09 2.09 0 0 0 1.59-.61 2.3 2.3 0 0 0 .59-1.67v-.75a2.31 2.31 0 0 0-.59-1.67 2.12 2.12 0 0 0-1.59-.61h-1.82v2.54h1.71v.57h-1.65a.76.76 0 0 1-.55-.19.7.7 0 0 1-.18-.5v-3h2.54a2.72 2.72 0 0 1 2.08.81 4.2 4.2 0 0 1 0 4.82 2.72 2.72 0 0 1-2.08.81h-2.54z" id="path401"/>
    <path d="M697.9 318.12h3.15a2.71 2.71 0 0 1 2.07.81 3.38 3.38 0 0 1 .76 2.41 4.77 4.77 0 0 1-.2 1.44 2.84 2.84 0 0 1-.6 1.05 2.35 2.35 0 0 1-.94.64 3.49 3.49 0 0 1-2.44 0 2.43 2.43 0 0 1-.94-.64 2.72 2.72 0 0 1-.59-1 4.57 4.57 0 0 1-.21-1.45 3.34 3.34 0 0 1 .12-.91 3.47 3.47 0 0 1 .32-.76 2.6 2.6 0 0 1 .44-.58 1.7 1.7 0 0 1 .51-.36v-.05h-1.47zm3 6a2.45 2.45 0 0 0 .93-.17 1.8 1.8 0 0 0 .71-.47 2.24 2.24 0 0 0 .45-.75 2.72 2.72 0 0 0 .16-1v-.8a2.3 2.3 0 0 0-.58-1.66 2.15 2.15 0 0 0-1.6-.61h-1.24a2.37 2.37 0 0 0-.79 1 3.25 3.25 0 0 0-.29 1.36v.74a2.72 2.72 0 0 0 .16 1 2.11 2.11 0 0 0 .46.75 1.77 1.77 0 0 0 .7.47 2.52 2.52 0 0 0 .97.14z" id="path403"/>
    <path d="M705.48 318.12h.67v6.44h-.67z" id="path405"/>
    <path d="M713.15 318.68h-4.79v-.56h5.5v.56l-2.4 5.88h-.71zm-4.79 2.54h.69v5.48h-.67z" id="path407"/>
    <path d="M686.68 330.96h3.2a2.19 2.19 0 0 1 1.61.54 2.1 2.1 0 0 1 .54 1.55v4.35h-5.35zm4.68 5.88v-3.82a1.48 1.48 0 0 0-.4-1.12 1.57 1.57 0 0 0-1.11-.37h-2.49v5.31z" id="path409"/>
    <path d="M694.05 330.96h.67v3.51h-.67z" id="path411"/>
    <path d="M699.91 337.53a4.87 4.87 0 0 1-1.53-.21 2.35 2.35 0 0 1-1-.66 2.53 2.53 0 0 1-.57-1.09 6 6 0 0 1-.18-1.55v-3.06h.67v3.18h2.3v-3.18h.67v3.06a.62.62 0 0 1-.19.48.73.73 0 0 1-.54.18h-2.21a2.47 2.47 0 0 0 .7 1.72 2.7 2.7 0 0 0 1.9.56 2.58 2.58 0 0 0 2-.69 3.14 3.14 0 0 0 .6-2.12v-3.19h.68v3.06a6 6 0 0 1-.18 1.55 2.64 2.64 0 0 1-.57 1.09 2.47 2.47 0 0 1-1 .66 4.9 4.9 0 0 1-1.55.21z" id="path413"/>
    <path d="M704.48 336.84h1.74v-4.47a1.29 1.29 0 0 0 0-.35.46.46 0 0 0-.15-.26.67.67 0 0 0-.36-.17 2.53 2.53 0 0 0-.62-.06h-.49v-.57h.54a3.55 3.55 0 0 1 .88.09 1.35 1.35 0 0 1 .55.27.87.87 0 0 1 .28.43 1.78 1.78 0 0 1 .09.59v5.06h-2.42z" id="path415"/>
    <path class="cls-4" id="rect417" d="M544.74 521.02h52.01v35.93h-52.01z"/>
    <path d="M553.95 541.52h1.18l-.23-2.19v-.72a4 4 0 0 1 .16-1.23 2.53 2.53 0 0 1 .43-.82l.25-.31h-1.69v-.57h3.65a2.22 2.22 0 0 1 1.59.51 2 2 0 0 1 .52 1.48v4.46h-.66v-4.45a1.34 1.34 0 0 0-.4-1.1 1.62 1.62 0 0 0-1.08-.33h-1.62l-.1.18a3.59 3.59 0 0 0-.32.82 4.08 4.08 0 0 0-.13 1.13 8.68 8.68 0 0 0 .07 1.07l.28 2.68h-1.9z" id="path419"/>
    <path d="M561.93 535.64h.67v6.45h-.67z" id="path421"/>
    <path d="M564.77 539.52a.8.8 0 0 1 .14-.5 1.07 1.07 0 0 1 .44-.33l1-.48-1.85-2.57h.8l2.44 3.43 1.31-.58v-2.85h.67v2.58a.8.8 0 0 1-.14.5 1 1 0 0 1-.44.32l-1 .49 1.85 2.57h-.8l-2.44-3.43-1.31.58v2.85h-.67z" id="path423"/>
    <path d="M571.34 541.52h1.71v-4.47a1.9 1.9 0 0 0 0-.35.48.48 0 0 0-.16-.26.72.72 0 0 0-.35-.17 2.68 2.68 0 0 0-.63-.06h-.48v-.57h.54a3.52 3.52 0 0 1 .87.09 1.29 1.29 0 0 1 .55.27.89.89 0 0 1 .29.43 2.1 2.1 0 0 1 .08.59v5.07h-2.41z" id="path425"/>
    <path d="M578.86 536.22h-3.71v-.57h5.36v.57h-1v5.88h-.68z" id="path427"/>
    <path d="M581.59 535.64h3.17a2.68 2.68 0 0 1 2.07.82 3.38 3.38 0 0 1 .77 2.4 4.52 4.52 0 0 1-.21 1.45 3 3 0 0 1-.6 1 2.5 2.5 0 0 1-.93.64 3.68 3.68 0 0 1-2.45 0 2.5 2.5 0 0 1-.93-.64 2.92 2.92 0 0 1-.6-1 4.46 4.46 0 0 1-.21-1.44 3.27 3.27 0 0 1 .44-1.67 2.68 2.68 0 0 1 .44-.58 2.34 2.34 0 0 1 .5-.4h-1.47zm3 6a2.45 2.45 0 0 0 .93-.17 2 2 0 0 0 .71-.47 2 2 0 0 0 .45-.75 2.76 2.76 0 0 0 .16-1v-.8a2.29 2.29 0 0 0-.58-1.66 2.1 2.1 0 0 0-1.6-.61h-1.24a2.39 2.39 0 0 0-.79 1 3.17 3.17 0 0 0-.29 1.35v.75a2.76 2.76 0 0 0 .17 1 2 2 0 0 0 .45.75 2 2 0 0 0 .7.47 2.52 2.52 0 0 0 .97.15z" id="path429"/>
    <path d="M553.12 580.34h3.2a2.19 2.19 0 0 1 1.61.54 2.1 2.1 0 0 1 .54 1.55v4.36h-5.35zm4.68 5.88v-3.82a1.44 1.44 0 0 0-.4-1.11 1.57 1.57 0 0 0-1.11-.38h-2.49v5.31z" id="path431"/>
    <path d="M560.48 580.34h.68v3.51h-.68z" id="path433"/>
    <path d="M566.36 586.92a4.87 4.87 0 0 1-1.54-.22 2.45 2.45 0 0 1-1-.65 2.68 2.68 0 0 1-.57-1.1 5.89 5.89 0 0 1-.18-1.55v-3.06h.68v3.18h2.3v-3.18h.67v3.06a.64.64 0 0 1-.19.49.72.72 0 0 1-.53.18h-2.25a2.49 2.49 0 0 0 .7 1.72 2.78 2.78 0 0 0 1.91.56 2.57 2.57 0 0 0 2-.69 3.17 3.17 0 0 0 .6-2.12v-3.2h.68v3.06a5.89 5.89 0 0 1-.18 1.55 2.68 2.68 0 0 1-.57 1.1 2.33 2.33 0 0 1-1 .65 4.85 4.85 0 0 1-1.53.22z" id="path435"/>
    <path d="M573.43 585.22a2.26 2.26 0 0 1-.37.63 2.73 2.73 0 0 1-.59.53 3.23 3.23 0 0 1-.72.36 2.47 2.47 0 0 1-.79.13v-.65a2.71 2.71 0 0 0 1-.17 2.66 2.66 0 0 0 .78-.43 1.83 1.83 0 0 0 .49-.63 1.34 1.34 0 0 0 .12-.71l-.36-3.38h-1.67v-.57h1.28a1.14 1.14 0 0 1 .78.24 1 1 0 0 1 .31.68l.59 5.53h-.64z" id="path437"/>
    <path d="M576.19 586.22h2.49a2.1 2.1 0 0 0 1.6-.61 2.3 2.3 0 0 0 .59-1.67v-.72a2.3 2.3 0 0 0-.59-1.67 2.1 2.1 0 0 0-1.6-.61h-1.81v2.54h1.71v.56h-1.65a.74.74 0 0 1-.55-.18.68.68 0 0 1-.19-.5v-3h2.55a2.67 2.67 0 0 1 2.07.82 4.14 4.14 0 0 1 0 4.81 2.67 2.67 0 0 1-2.07.82h-2.55z" id="path439"/>
    <path d="m583.56 582.22-.33-1.83h.67l.24 1.34a2.31 2.31 0 0 1 .76-1.05 2.17 2.17 0 0 1 1.39-.42 2.63 2.63 0 0 1 .86.14 1.58 1.58 0 0 1 .67.43 1.88 1.88 0 0 1 .44.76 3.8 3.8 0 0 1 .15 1.14v4.11h-2.9v-.62h2.23v-4.01a2 2 0 0 0-.18-.66 1.48 1.48 0 0 0-.49-.54 1.7 1.7 0 0 0-1-.23 1.83 1.83 0 0 0-1 .22 1.71 1.71 0 0 0-.58.51 1.84 1.84 0 0 0-.29.6 4.77 4.77 0 0 0-.12.49l-.75 4.19h-.67z" id="path441"/>
    <path id="rect443" style="stroke-dasharray:7.5;stroke-width:3px;stroke:#a87246;stroke-miterlimit:10;fill:none" d="M606.99 491.29h112.84V591.3H606.99z"/>
    <path d="M623.12 536.57h2.07v4.65h-2.07z" id="path445"/>
    <path d="M626.79 542.7h1l-.15-1.32v-.61a2.63 2.63 0 0 1 .34-1.43 2.18 2.18 0 0 1 1-.86l.25-.12v-.08h-2.44v-1.71h4.38a3.71 3.71 0 0 1 2.38.65 2.31 2.31 0 0 1 .8 1.9v5.29h-2.07v-5a1.09 1.09 0 0 0-.28-.81 1.3 1.3 0 0 0-1-.3h-1v.09a2.83 2.83 0 0 0-.3.69 3.15 3.15 0 0 0-.1.87v.7c0 .25 0 .52.08.79l.32 3h-3.24z" id="path447"/>
    <path d="M639.66 538.28h-4.36v-3.38h2.07v1.67h4.46v1.8l-2.48 6h-2.2z" id="path449"/>
    <path d="M643.15 536.57h2.07v4.65h-2.07z" id="path451"/>
    <path d="M652.18 539.1a.78.78 0 0 0-.24-.6.87.87 0 0 0-.64-.22h-4.16v-1.71h4.57a2.63 2.63 0 0 1 1.87.63 2.21 2.21 0 0 1 .66 1.67v5.54h-2.06zm-5 1h2.06v4.29h-2.06z" id="path453"/>
    <path d="M661.5 538.28h-5.33v-1.71h7.51v1.82l-2.47 6h-2.16zm-5.33 1.84h2.07v6.86h-2.07z" id="path455"/>
    <path d="M668.21 536.57h4.89a2.63 2.63 0 0 1 1.87.63 2.21 2.21 0 0 1 .67 1.67v5.54h-7.43zm5.36 6.13v-3.6a.81.81 0 0 0-.23-.6.9.9 0 0 0-.65-.22h-2.41v4.42z" id="path457"/>
    <path d="M677.57 536.57h4.89a2.59 2.59 0 0 1 1.86.63 2.18 2.18 0 0 1 .67 1.67v5.54h-2.07v-5.31a.78.78 0 0 0-.23-.6.9.9 0 0 0-.65-.22h-2.41v6.13h-2.06z" id="path459"/>
    <path d="M686.6 542.7h1.05l-.15-1.32a4.45 4.45 0 0 1 0-.61 2.73 2.73 0 0 1 .33-1.43 2.23 2.23 0 0 1 1-.86l.25-.12v-.08h-2.44v-1.71h4.38a3.76 3.76 0 0 1 2.39.65 2.31 2.31 0 0 1 .8 1.9v5.29h-2.07v-5a1.1 1.1 0 0 0-.29-.81 1.27 1.27 0 0 0-1-.3h-1l-.06.09a2.47 2.47 0 0 0-.29.69 3.12 3.12 0 0 0-.11.87 5.92 5.92 0 0 0 0 .7c0 .26.05.52.07.79l.32 3h-3.24z" id="path461"/>
    <path d="m696.7 539.22-.5-2.61h2.08l.29 1.58h.09a4.31 4.31 0 0 1 .33-.64 2.25 2.25 0 0 1 .51-.56 2.53 2.53 0 0 1 .71-.38 2.86 2.86 0 0 1 1-.15 3 3 0 0 1 1 .15 2 2 0 0 1 .8.51 2.66 2.66 0 0 1 .55 1 4.7 4.7 0 0 1 .21 1.53v4.83h-4v-1.71h1.92v-2.79a4.12 4.12 0 0 0-.08-.86 1.48 1.48 0 0 0-.25-.55.81.81 0 0 0-.39-.29 1.71 1.71 0 0 0-.54-.08 1.55 1.55 0 0 0-1.66 1.42l-.91 4.86h-2.07z" id="path463"/>
    <path d="M164.57 476.94h-3.85v-2.06h.63v1.49h3.88v.58l-2.18 5.86h-.66z" id="path465"/>
    <path d="M166.49 476.37h.63v6.44h-.63z" id="path467"/>
    <path d="M168.63 482.22h1.9a1.91 1.91 0 0 0 1.48-.61 2.39 2.39 0 0 0 .55-1.67v-.72a2.37 2.37 0 0 0-.55-1.67 1.87 1.87 0 0 0-1.48-.61h-1.9v-.57h1.95a2.43 2.43 0 0 1 1.93.81 4.45 4.45 0 0 1 0 4.82 2.43 2.43 0 0 1-1.93.81h-1.95z" id="path469"/>
    <path d="M177.76 482.94a4.27 4.27 0 0 1-1.43-.21 2.21 2.21 0 0 1-.95-.65 2.69 2.69 0 0 1-.53-1.1 6.44 6.44 0 0 1-.17-1.55v-3.06h.63v3.18h2.14v-3.18h.6v3.06a.64.64 0 0 1-.17.48.65.65 0 0 1-.5.19h-2.07a2.64 2.64 0 0 0 .66 1.72 2.44 2.44 0 0 0 1.77.56 2.29 2.29 0 0 0 1.89-.69 3.31 3.31 0 0 0 .56-2.13v-3.19h.63v3.06a6.48 6.48 0 0 1-.16 1.55 2.7 2.7 0 0 1-.54 1.1 2.16 2.16 0 0 1-1 .65 4.23 4.23 0 0 1-1.36.21z" id="path471"/>
    <path d="M182.69 480.22a.86.86 0 0 1 .12-.5 1.1 1.1 0 0 1 .41-.33l1-.48-1.73-2.57h.74l2.28 3.43 1.22-.58v-2.85h.62v2.57a.9.9 0 0 1-.12.5 1.08 1.08 0 0 1-.41.32l-1 .49 1.73 2.56h-.74l-2.28-3.42-1.22.58v2.84h-.62z" id="path473"/>
    <path d="M173.38 495.66v-.57h2.19v-6.43h-.06l-2.05 1.83-.36-.41 2.13-1.89h1v6.9h2.06v.57z" id="path475"/>
    <path d="M88.47 475.87h-3.84v-2h.63v1.49h3.88v.58l-2.23 5.86h-.66z" id="path477"/>
    <path d="M90.4 475.31h.65v6.44h-.63z" id="path479"/>
    <path d="M92.54 481.22h1.9a1.9 1.9 0 0 0 1.48-.6 2.41 2.41 0 0 0 .55-1.68v-.74a2.4 2.4 0 0 0-.55-1.68 1.91 1.91 0 0 0-1.48-.61h-1.9v-.56h2a2.43 2.43 0 0 1 1.93.81 4.45 4.45 0 0 1 0 4.82 2.43 2.43 0 0 1-1.93.81h-2z" id="path481"/>
    <path d="M101.67 481.88a4 4 0 0 1-1.43-.22 2.21 2.21 0 0 1-1-.65 2.63 2.63 0 0 1-.53-1.1 5.84 5.84 0 0 1-.17-1.54v-3.06h.63v3.18h2.14v-3.18h.62v3.06a.64.64 0 0 1-.17.48.65.65 0 0 1-.5.18h-2.02a2.59 2.59 0 0 0 .66 1.72 2.4 2.4 0 0 0 1.77.56 2.29 2.29 0 0 0 1.89-.69 3.28 3.28 0 0 0 .56-2.12v-3.19h.63v3.06a6.34 6.34 0 0 1-.16 1.54 2.64 2.64 0 0 1-.54 1.1 2.16 2.16 0 0 1-1 .65 4 4 0 0 1-1.38.22z" id="path483"/>
    <path d="M106.6 479.22a.9.9 0 0 1 .12-.5 1.19 1.19 0 0 1 .41-.32l1-.48-1.72-2.57h.74l2.28 3.42 1.22-.58v-2.84h.62v2.57a.84.84 0 0 1-.12.49 1.1 1.1 0 0 1-.41.33l-1 .48 1.73 2.57h-.74l-2.28-3.42-1.22.57v2.85h-.62z" id="path485"/>
    <path d="M101.98 494.59h-4.79v-.65l2.61-2.5a6.25 6.25 0 0 0 .86-1.06 2.1 2.1 0 0 0 .33-1.11v-.21a1.52 1.52 0 0 0-.39-1.08 1.49 1.49 0 0 0-1.15-.42 1.61 1.61 0 0 0-1.15.38 2.19 2.19 0 0 0-.58 1l-.58-.21a3.89 3.89 0 0 1 .29-.66 2.17 2.17 0 0 1 .47-.54 2.27 2.27 0 0 1 .67-.37 2.87 2.87 0 0 1 1.83 0 2 2 0 0 1 .7.43 1.88 1.88 0 0 1 .43.67 2.65 2.65 0 0 1 .14.87 2.43 2.43 0 0 1-.11.77 2.94 2.94 0 0 1-.3.68 3.38 3.38 0 0 1-.47.64 7.14 7.14 0 0 1-.61.63l-2.3 2.19h4.1z" id="path487"/>
    <path d="M144.79 519.03a2.62 2.62 0 0 1-1.05-.19 2.2 2.2 0 0 1-.75-.56 2.41 2.41 0 0 1-.46-.87 3.93 3.93 0 0 1-.16-1.12 5 5 0 0 1 .25-1.61 6.41 6.41 0 0 1 .62-1.35 5.91 5.91 0 0 1 .88-1.09 7.28 7.28 0 0 1 1-.8h.84a11.7 11.7 0 0 0-1.1.85 7.23 7.23 0 0 0-.85.91 4.72 4.72 0 0 0-.6 1 5.82 5.82 0 0 0-.38 1.2 2.26 2.26 0 0 1 .73-.8 2 2 0 0 1 1.13-.29 2.45 2.45 0 0 1 .91.16 2 2 0 0 1 .71.45 2.2 2.2 0 0 1 .45.72 2.58 2.58 0 0 1 .16.94 2.78 2.78 0 0 1-.17 1 2.33 2.33 0 0 1-.48.77 2.27 2.27 0 0 1-.75.49 2.57 2.57 0 0 1-.93.19zm0-.56a1.6 1.6 0 0 0 1.74-1.71v-.18a1.67 1.67 0 0 0-.46-1.24 1.7 1.7 0 0 0-1.28-.46 1.74 1.74 0 0 0-1.29.46 1.7 1.7 0 0 0-.45 1.24v.17a1.69 1.69 0 0 0 .46 1.25 1.72 1.72 0 0 0 1.27.47z" id="path489"/>
    <path d="M148.79 515.97v-.65h2.66v.65z" id="path491"/>
    <path d="M155.11 514.69a1.79 1.79 0 0 0 1.21-.38 1.27 1.27 0 0 0 .43-1v-.09a1.2 1.2 0 0 0-.42-1 1.67 1.67 0 0 0-1.07-.34 1.8 1.8 0 0 0-1 .27 1.89 1.89 0 0 0-.63.71l-.48-.34a2.72 2.72 0 0 1 .32-.46 2.2 2.2 0 0 1 .46-.39 2.05 2.05 0 0 1 .6-.26 3.1 3.1 0 0 1 .78-.09 3 3 0 0 1 .86.12 2.12 2.12 0 0 1 .68.37 1.66 1.66 0 0 1 .46.59 1.78 1.78 0 0 1 .16.78 1.59 1.59 0 0 1-.41 1.18 2.1 2.1 0 0 1-1 .58 2.15 2.15 0 0 1 .62.2 2.12 2.12 0 0 1 .51.38 2 2 0 0 1 .35.57 2.19 2.19 0 0 1 .12.75 2.14 2.14 0 0 1-.17.89 1.75 1.75 0 0 1-.48.68 2.37 2.37 0 0 1-.76.44 3.12 3.12 0 0 1-1 .15 2.74 2.74 0 0 1-1.46-.34 3 3 0 0 1-.91-.87l.48-.36a2.3 2.3 0 0 0 .75.74 2.06 2.06 0 0 0 1.12.27 1.87 1.87 0 0 0 1.28-.41 1.39 1.39 0 0 0 .46-1.11v-.18a1.42 1.42 0 0 0-.45-1.11 1.86 1.86 0 0 0-1.29-.4h-.94v-.57z" id="path493"/>
    <path d="M161.85 518.34h1.11l-.22-2.19v-.72a4 4 0 0 1 .16-1.23 2.33 2.33 0 0 1 .4-.82l.23-.31h-1.55v-.57h3.4a2 2 0 0 1 1.48.51 2 2 0 0 1 .49 1.48v4.46h-.62v-4.45a1.4 1.4 0 0 0-.37-1.1 1.45 1.45 0 0 0-1-.33h-1.48l-.09.18a4.13 4.13 0 0 0-.3.82 4.55 4.55 0 0 0-.12 1.13 8.68 8.68 0 0 0 .07 1.07l.25 2.68h-1.84z" id="path495"/>
    <path d="M169.29 512.46h.64v6.45h-.64z" id="path497"/>
    <path d="M175.11 513.03h-3.85v-2.06h.63v1.49h3.88v.58l-2.23 5.87h-.66z" id="path499"/>
    <path d="M177.05 512.46h.63v6.45h-.63z" id="path501"/>
    <path d="M179.17 518.34h1.88a1.87 1.87 0 0 0 1.48-.61 2.37 2.37 0 0 0 .55-1.67v-.75a2.37 2.37 0 0 0-.55-1.67 1.87 1.87 0 0 0-1.48-.61h-1.9v-.57h1.95a2.41 2.41 0 0 1 1.93.82 4.43 4.43 0 0 1 0 4.81 2.44 2.44 0 0 1-1.93.82h-1.95z" id="path503"/>
    <path d="M188.3 519.03a4.27 4.27 0 0 1-1.43-.21 2.21 2.21 0 0 1-.95-.65 2.69 2.69 0 0 1-.53-1.1 6.38 6.38 0 0 1-.17-1.55v-3.06h.63v3.18h2.14v-3.18h.62v3.06a.68.68 0 0 1-.17.49.65.65 0 0 1-.5.18h-2.07a2.64 2.64 0 0 0 .66 1.72 2.44 2.44 0 0 0 1.77.56 2.29 2.29 0 0 0 1.89-.69 3.3 3.3 0 0 0 .56-2.12v-3.2h.64v3.06a6.38 6.38 0 0 1-.17 1.55 2.7 2.7 0 0 1-.54 1.1 2.16 2.16 0 0 1-.95.65 4.23 4.23 0 0 1-1.43.21z" id="path505"/>
    <path d="M193.23 516.34a.88.88 0 0 1 .12-.5 1.1 1.1 0 0 1 .41-.33l1-.48-1.71-2.57h.74l2.28 3.43 1.22-.58v-2.85h.62v2.57a.88.88 0 0 1-.12.5 1 1 0 0 1-.41.32l-1 .49 1.73 2.57h-.74l-2.32-3.43-1.22.58v2.85h-.62z" id="path507"/>
    <path d="M142.84 527.37a1.55 1.55 0 0 0-.37-1.12 1.41 1.41 0 0 0-1-.38h-2.81v-.56h2.84a2 2 0 0 1 1.5.54 2.19 2.19 0 0 1 .5 1.54v4.36h-.62zm-4.22 1h.64v3.34h-.64z" id="path509"/>
    <path d="M144.9 531.22h1.61v-4.5a1.83 1.83 0 0 0 0-.35.59.59 0 0 0-.14-.27.83.83 0 0 0-.34-.17 2.24 2.24 0 0 0-.58-.06H145v-.56h.5a3.15 3.15 0 0 1 .82.09 1.36 1.36 0 0 1 .51.26 1 1 0 0 1 .27.44 2.12 2.12 0 0 1 .07.59v5.06h-2.24z" id="path511"/>
    <path d="M149.12 525.31h.64v6.44h-.64z" id="path513"/>
    <path d="M151.7 525.31h.63v3.51h-.63z" id="path515"/>
    <path d="M157.41 525.87h-3.84v-2h.63v1.49h3.85v.57l-2.23 5.87h-.66z" id="path517"/>
    <path d="m158.8 531.39 2.2-.36-2.07-5.72h.67l1.36 3.76.62 1.81a2.22 2.22 0 0 0 1.29-1.11 4.86 4.86 0 0 0 .4-2.17v-2.29h.62v2.19a7 7 0 0 1-.17 1.68 3.17 3.17 0 0 1-.54 1.22 2.56 2.56 0 0 1-.95.8 4.5 4.5 0 0 1-1.41.43l-2 .32z" id="path519"/>
    <path d="M169.93 527.37a1.55 1.55 0 0 0-.37-1.12 1.41 1.41 0 0 0-1-.38h-2.81v-.56h2.84a2 2 0 0 1 1.5.54 2.19 2.19 0 0 1 .5 1.54v4.36h-.62zm-4.22 1h.63v3.34h-.63z" id="path521"/>
    <path d="M179.27 527.37a1.55 1.55 0 0 0-.37-1.12 1.41 1.41 0 0 0-1-.38h-2.85v-.56h2.83a1.94 1.94 0 0 1 1.5.54 2.15 2.15 0 0 1 .5 1.54v4.36h-.62zm-4.21 1h.63v3.34h-.64z" id="path523"/>
    <path d="m182.26 527.14-.31-1.83h.62l.23 1.33a2.26 2.26 0 0 1 .71-1 1.89 1.89 0 0 1 1.29-.41 2.28 2.28 0 0 1 .8.13 1.51 1.51 0 0 1 .63.43 2.2 2.2 0 0 1 .41.76 4.23 4.23 0 0 1 .14 1.14v4.11h-2.71v-.58h2.08v-4a2 2 0 0 0-.17-.67 1.45 1.45 0 0 0-.45-.54 1.52 1.52 0 0 0-.89-.23 1.72 1.72 0 0 0-.91.22 1.66 1.66 0 0 0-.54.51 2 2 0 0 0-.28.61c-.05.2-.08.36-.1.48l-.7 4.19h-.63z" id="path525"/>
    <path d="M188.8 525.31h.63v6.44h-.63z" id="path527"/>
    <path d="M195.95 525.87h-4.46v-.56h5.12v.56l-2.23 5.88h-.67zm-4.46 2.54h.63v5.48h-.63z" id="path529"/>
    <path d="M197.37 531.22h3.55v-5.31h-3.46v-.56h3.39a.7.7 0 0 1 .52.18.69.69 0 0 1 .17.48v5.21h.91v.57h-5.08z" id="path531"/>
    <path class="cls-1" id="rect533" d="M751.79 650.64H836v61.82h-84.21z"/>
    <path class="cls-14" id="polygon535" transform="translate(1.05 4.22)" d="m456.23 261.05-4.25.19.07 1.49 4.1-.18-1.53 3.09 9.82-3.83-9.52-4.1z"/>
    <path id="polygon537" transform="translate(1.05 4.22)" d="m25.05 270.76-3.97.19.07 1.49 3.82-.18-1.43 3.09 9.16-3.82-8.88-4.11z"/>
    <path class="cls-16" d="M628.87 652.87h1.18l-.23-2.18v-.73a4 4 0 0 1 .17-1.23 2.3 2.3 0 0 1 .43-.81l.25-.31h-1.66v-.56h3.65a2.19 2.19 0 0 1 1.58.51 2 2 0 0 1 .53 1.48v4.45h-.72v-4.44a1.36 1.36 0 0 0-.39-1.1 1.67 1.67 0 0 0-1.09-.34h-1.58l-.1.19a3.34 3.34 0 0 0-.32.81 4.13 4.13 0 0 0-.13 1.13 9 9 0 0 0 .07 1.08l.27 2.67h-1.91z" id="path539"/>
    <path class="cls-16" d="M636.81 650.87a.82.82 0 0 1 .13-.5 1.35 1.35 0 0 1 .44-.32l1-.48-1.85-2.57h.79l2.45 3.42 1.31-.58V647h.66v2.57a.77.77 0 0 1-.13.49 1.23 1.23 0 0 1-.44.33l-1 .48 1.85 2.57h-.79l-2.45-3.42-1.3.57v2.85h-.67z" id="path541"/>
    <path class="cls-16" d="M643.85 647h.68v3.51h-.68z" id="path543"/>
    <path class="cls-16" d="M646.11 652.87h4l-1.55-2.12-2.63-3.75h.81l2.21 3.24 1.25-.57V647h.67v2.41a.84.84 0 0 1-.13.49 1.19 1.19 0 0 1-.45.33l-1 .47 1.57 2.17v.57h-4.69z" id="path545"/>
    <path class="cls-16" d="M652.66 647h.68v3.51h-.68z" id="path547"/>
    <path class="cls-16" d="M629.1 659.84h3.2a2.17 2.17 0 0 1 1.61.54 2.1 2.1 0 0 1 .54 1.55v4.35h-5.35zm4.68 5.88v-3.82a1.44 1.44 0 0 0-.4-1.11 1.53 1.53 0 0 0-1.11-.38h-2.49v5.31z" id="path549"/>
    <path class="cls-16" d="M636.57 659.84h.68v6.44h-.68z" id="path551"/>
    <path class="cls-16" d="M642.67 661.84a1.34 1.34 0 0 0-.4-1.1 1.62 1.62 0 0 0-1.08-.33h-2.46v-.57h2.49a2.2 2.2 0 0 1 1.59.51 2 2 0 0 1 .53 1.48v4.45h-.67z" id="path553"/>
    <path class="cls-16" d="M645.34 659.84h.71v3.51h-.68z" id="path555"/>
    <path class="cls-16" d="M648.11 659.84h3.2a2.17 2.17 0 0 1 1.61.54 2.1 2.1 0 0 1 .54 1.55v4.35h-.66v-4.38a1.44 1.44 0 0 0-.41-1.11 1.51 1.51 0 0 0-1.11-.38h-2.49v5.87h-.68z" id="path557"/>
    <path class="cls-16" id="polygon559" transform="translate(1.05 4.22)" d="m661.51 653.25-4.82-.21.08-1.69 4.65.2-1.74-3.5 11.14 4.34-10.8 4.65z"/>
    <path class="cls-16" d="M638.57 88.37h1.18l-.23-2.15v-.72a4 4 0 0 1 .16-1.23 2.53 2.53 0 0 1 .43-.82l.25-.31h-1.66v-.57h3.65a2.19 2.19 0 0 1 1.58.51 1.93 1.93 0 0 1 .53 1.48v4.45h-.66v-4.52a1.38 1.38 0 0 0-.4-1.1 1.62 1.62 0 0 0-1.08-.33h-1.59l-.1.18a3.59 3.59 0 0 0-.32.82 4.05 4.05 0 0 0-.13 1.12 8.71 8.71 0 0 0 .07 1.08l.28 2.67h-1.92z" id="path561"/>
    <path class="cls-16" d="M646.51 86.37a.88.88 0 0 1 .13-.5 1.19 1.19 0 0 1 .45-.33l1-.48-1.85-2.57h.81l2.45 3.43 1.31-.58v-2.85h.66v2.57a.82.82 0 0 1-.13.5 1.14 1.14 0 0 1-.44.32l-1 .49 1.84 2.56h-.79l-2.44-3.42-1.31.58v2.84h-.67z" id="path563"/>
    <path class="cls-16" d="M653.55 82.49h.68V86h-.68z" id="path565"/>
    <path class="cls-16" d="M655.81 88.37h4l-1.58-2.15-2.63-3.75h.81l2.21 3.24 1.25-.56v-2.66h.67v2.41a.82.82 0 0 1-.13.5 1.35 1.35 0 0 1-.44.32l-1 .47 1.58 2.18v.56h-4.7z" id="path567"/>
    <path class="cls-16" d="M662.37 82.49h.68V86h-.67z" id="path569"/>
    <path class="cls-16" d="M638.8 95.34h3.25a2.17 2.17 0 0 1 1.6.54 2.08 2.08 0 0 1 .54 1.54v4.36h-5.35zm4.69 5.88V97.4a1.45 1.45 0 0 0-.41-1.12 1.54 1.54 0 0 0-1.11-.38h-2.49v5.32z" id="path571"/>
    <path class="cls-16" d="M646.28 95.34h.67v6.44h-.67z" id="path573"/>
    <path class="cls-16" d="M652.37 97.33a1.37 1.37 0 0 0-.39-1.1 1.67 1.67 0 0 0-1.09-.33h-2.46v-.56h2.5a2.19 2.19 0 0 1 1.58.5 2 2 0 0 1 .53 1.49v4.45h-.67z" id="path575"/>
    <path class="cls-16" d="M655.05 95.34h.67v3.51h-.67z" id="path577"/>
    <path class="cls-16" d="M657.81 95.34h3.24a2.17 2.17 0 0 1 1.6.54 2.08 2.08 0 0 1 .54 1.54v4.36h-.66V97.4a1.5 1.5 0 0 0-.4-1.12 1.58 1.58 0 0 0-1.12-.38h-2.49v5.88h-.68z" id="path579"/>
    <path class="cls-16" id="polygon581" transform="translate(1.05 4.22)" d="m671.22 88.75-4.82-.21.08-1.7 4.64.2-1.73-3.5 11.13 4.34-10.8 4.65z"/>
    <path id="polygon583" transform="translate(1.05 4.22)" d="m539.86 647.41.19 3.96 1.6-.07-.19-3.81 3.31 1.42-4.1-9.16-4.4 8.88z"/>
    <path id="polygon585" transform="translate(1.05 4.22)" d="m158.84 694.51.18 3.96 1.49-.07-.17-3.81 3.09 1.42-3.83-9.15-4.1 8.88z"/>
    <path class="cls-14" id="polygon587" transform="translate(1.05 4.22)" d="m210.72 519.67-2.37 3.18 1.19.89 2.29-3.06 1.48 3.06 2.86-9.5-8.81 4.26z"/>
    <path class="cls-14" id="polygon589" transform="translate(1.05 4.22)" d="m127.5 519.67 2.37 3.18-1.19.89-2.29-3.06-1.48 3.06-2.86-9.5 8.81 4.26z"/>
    <path id="polygon591" transform="translate(1.05 4.22)" d="m621.93 378.96 2.54 3.18-1.28.9-2.45-3.06-1.59 3.06-3.07-9.51 9.45 4.26z"/>
    <ellipse class="cls-4" cx="416.12" cy="623.43" rx="17.36" ry="16.19" id="ellipse593"/>
    <ellipse class="cls-4" cx="429.93" cy="656.91" rx="10.26" ry="9.56" id="ellipse595"/>
    <circle class="cls-4" cx="384.58" cy="651.76" r="11.04" id="circle597"/>
    <path class="cls-4" id="rect599" d="M306.59 581.49h58.49v58.49h-58.49z"/>
    <path class="cls-4" id="rect601" d="M306.59 432.49h58.49v58.49h-58.49z"/>
    <path class="cls-4" id="rect603" d="M306.59 501.3h68.79v67.32h-68.79z"/>
    <path d="M164.9 235.36h.63v3.51h-.63z" id="path605"/>
    <path d="M166.93 241.22h1.62v-4.47a1.29 1.29 0 0 0 0-.35.45.45 0 0 0-.14-.26.69.69 0 0 0-.33-.17 2.29 2.29 0 0 0-.58-.06h-.45v-.57h.5a3 3 0 0 1 .81.09 1.22 1.22 0 0 1 .52.27 1 1 0 0 1 .26.43 2.16 2.16 0 0 1 .08.59v5.07h-2.25z" id="path607"/>
    <path d="M170.61 241.22h1.9a1.86 1.86 0 0 0 1.48-.61 2.37 2.37 0 0 0 .55-1.67v-.72a2.37 2.37 0 0 0-.55-1.67 1.86 1.86 0 0 0-1.48-.61h-1.9v-.57h1.95a2.41 2.41 0 0 1 1.93.82 4.43 4.43 0 0 1 0 4.81 2.44 2.44 0 0 1-1.93.82h-1.95z" id="path609"/>
    <path d="M176.67 235.36h.63v6.45h-.63z" id="path611"/>
    <path d="M182.14 235.93h-3.46v-.57h5v.57h-.91v5.88h-.63z" id="path613"/>
    <path d="M158.3 254.08h1.1l-.21-2.18a2.64 2.64 0 0 1 0-.38v-.35a4.37 4.37 0 0 1 .16-1.23 2.51 2.51 0 0 1 .4-.82l.24-.3h-1.56v-.6h3.41a2 2 0 0 1 1.47.5 2.06 2.06 0 0 1 .5 1.49v4.45h-.62v-4.44a1.46 1.46 0 0 0-.37-1.1 1.48 1.48 0 0 0-1-.33h-1.48l-.1.19a3.81 3.81 0 0 0-.3.81 4.6 4.6 0 0 0-.12 1.13c0 .31 0 .67.07 1.08l.26 2.67h-1.79z" id="path615"/>
    <path d="M165.74 248.22h.63v6.44h-.63z" id="path617"/>
    <path d="M168.05 254.08h1.1l-.21-2.18a2.64 2.64 0 0 1 0-.38v-.35a4.4 4.4 0 0 1 .15-1.23 2.51 2.51 0 0 1 .4-.82l.24-.3h-1.58v-.6h3.4a2 2 0 0 1 1.48.5 2.1 2.1 0 0 1 .49 1.49v4.45h-.62v-4.44a1.24 1.24 0 0 0-1.38-1.43h-1.47l-.1.19a3.81 3.81 0 0 0-.3.81 5.2 5.2 0 0 0-.11 1.13q0 .47.06 1.08l.26 2.67h-1.81z" id="path619"/>
    <path d="M175.5 248.22h.63v6.44h-.63z" id="path621"/>
    <path d="m178.57 250.04-.31-1.83h.62l.23 1.33a2.26 2.26 0 0 1 .71-1 1.89 1.89 0 0 1 1.29-.41 2.28 2.28 0 0 1 .8.13 1.51 1.51 0 0 1 .63.43 2.2 2.2 0 0 1 .41.76 4.23 4.23 0 0 1 .14 1.14v4.11h-2.71v-.57h2.08v-4a2 2 0 0 0-.17-.67 1.45 1.45 0 0 0-.45-.54 1.52 1.52 0 0 0-.89-.22 1.73 1.73 0 0 0-.91.21 1.66 1.66 0 0 0-.54.51 2 2 0 0 0-.28.61c-.05.2-.08.36-.1.48l-.7 4.19h-.63z" id="path623"/>
    <path d="m184.53 254.29 2.21-.36-2.08-5.71h.68l1.35 3.76.63 1.81a2.17 2.17 0 0 0 1.28-1.11 4.85 4.85 0 0 0 .41-2.17v-2.29h.62v2.19a7.56 7.56 0 0 1-.17 1.68 3.5 3.5 0 0 1-.54 1.22 2.68 2.68 0 0 1-1 .8 4.52 4.52 0 0 1-1.4.43l-2 .32z" id="path625"/>
    <path class="cls-4" id="polygon627" transform="translate(1.05 4.22)" d="M132.84 225.54v30.74h80.27v-30.74h-40.27z"/>
    <path class="cls-4" id="rect629" d="M24.75 229.76H93.5v30.74H24.75z"/>
    <path d="M45.48 235.32h.64v8.58h-.64z" id="path631"/>
    <path d="M48.05 235.32h.64v3.51h-.64z" id="path633"/>
    <path d="m50.05 241.4 2.2-.35-2.08-5.73h.68l1.36 3.76.62 1.82a2.27 2.27 0 0 0 1.29-1.12 4.81 4.81 0 0 0 .4-2.16v-2.3h.62v2.19a7.43 7.43 0 0 1-.17 1.68 3.5 3.5 0 0 1-.54 1.22 2.76 2.76 0 0 1-.95.81 4.78 4.78 0 0 1-1.41.43l-2 .32z" id="path635"/>
    <path d="M56.87 235.32h.63v3.51h-.63z" id="path637"/>
    <path d="M62.24 235.89h-3.46v-.57h5v.57h-.91v5.87h-.63z" id="path639"/>
    <path d="M65.2 235.32h.63v6.44h-.63Z" id="path641"/>
    <path d="m68.27 237.15-.31-1.83h.62l.23 1.34a2.29 2.29 0 0 1 .71-1.06 2 2 0 0 1 1.33-.38 2.28 2.28 0 0 1 .8.14 1.49 1.49 0 0 1 .63.42 2.16 2.16 0 0 1 .41.77 4.1 4.1 0 0 1 .14 1.13v4.11h-2.71v-.57h2.08v-4.01a1.89 1.89 0 0 0-.17-.66 1.32 1.32 0 0 0-.45-.55 1.52 1.52 0 0 0-.89-.22 1.73 1.73 0 0 0-.91.21 1.8 1.8 0 0 0-.54.52 2 2 0 0 0-.28.6c0 .2-.08.37-.1.49l-.7 4.18h-.63z" id="path643"/>
    <circle class="cls-8" cx="59.12" cy="251.35" r="6.27" id="circle645"/>
    <path d="M58.45 252.58v-1.44a2.14 2.14 0 0 0 1.13-.32.92.92 0 0 0 .4-.82v-.13a.83.83 0 0 0-.26-.65 1 1 0 0 0-.68-.23 1.05 1.05 0 0 0-.73.26 1.41 1.41 0 0 0-.37.68l-.86-.35a2 2 0 0 1 .24-.55 2 2 0 0 1 .4-.47 2.08 2.08 0 0 1 .59-.32 2.26 2.26 0 0 1 .77-.13 2.55 2.55 0 0 1 .81.13 2 2 0 0 1 .62.36 1.53 1.53 0 0 1 .39.57 1.9 1.9 0 0 1 .13.73 1.7 1.7 0 0 1-.14.73 1.53 1.53 0 0 1-.37.55 1.9 1.9 0 0 1-.52.37 2.32 2.32 0 0 1-.6.19v.84zm.48 2.1a.65.65 0 0 1-.5-.16.61.61 0 0 1-.16-.44v-.15a.57.57 0 0 1 .16-.43.62.62 0 0 1 .5-.17.66.66 0 0 1 .51.17.61.61 0 0 1 .16.43v.15a.66.66 0 0 1-.16.44.69.69 0 0 1-.51.16z" id="path647"/>
    <path id="rect649" style="stroke-width:.9px;stroke:#a87246;stroke-miterlimit:10;fill:none" d="M111.2 664.32h40.26v30.74H111.2z"/>
    <path d="M117.1 669.88h.63v8.59h-.63z" id="path651"/>
    <path d="M119.68 669.88h.63v3.51h-.63z" id="path653"/>
    <path d="m121.68 675.96 2.2-.35-2.07-5.73h.67l1.36 3.76.62 1.82a2.24 2.24 0 0 0 1.29-1.12 4.81 4.81 0 0 0 .4-2.16v-2.3h.62v2.2a7 7 0 0 1-.17 1.68 3.24 3.24 0 0 1-.54 1.22 2.66 2.66 0 0 1-1 .8 4.78 4.78 0 0 1-1.41.43l-2 .32z" id="path655"/>
    <path d="M128.49 669.88h.63v3.51h-.63z" id="path657"/>
    <path d="M133.85 670.45h-3.46v-.57h5v.57h-.91v5.88h-.63z" id="path659"/>
    <path d="M136.81 669.88h.63v6.45h-.63z" id="path661"/>
    <path d="m139.88 671.71-.31-1.83h.62l.23 1.34a2.21 2.21 0 0 1 .71-1 1.93 1.93 0 0 1 1.29-.42 2.33 2.33 0 0 1 .81.14 1.48 1.48 0 0 1 .62.43 2 2 0 0 1 .41.76 3.82 3.82 0 0 1 .14 1.14v4.11h-2.7v-.57h2.07v-4.01a2 2 0 0 0-.18-.66 1.28 1.28 0 0 0-.45-.54 1.5 1.5 0 0 0-.89-.23 1.64 1.64 0 0 0-.91.22 1.66 1.66 0 0 0-.54.51 2 2 0 0 0-.27.6c-.05.21-.09.37-.11.49l-.69 4.19h-.64z" id="path663"/>
    <circle class="cls-6" cx="131.33" cy="685.92" r="6.27" id="circle665"/>
    <path d="M130.66 687.15v-1.45a2.14 2.14 0 0 0 1.13-.31.94.94 0 0 0 .4-.83v-.12a.87.87 0 0 0-.26-.66 1 1 0 0 0-.68-.23 1 1 0 0 0-.73.27 1.38 1.38 0 0 0-.37.67l-.86-.35a2 2 0 0 1 .24-.54 1.79 1.79 0 0 1 .4-.47 1.88 1.88 0 0 1 .59-.33 2.26 2.26 0 0 1 .77-.12 2.3 2.3 0 0 1 .81.13 1.66 1.66 0 0 1 .62.36 1.49 1.49 0 0 1 .39.56 1.93 1.93 0 0 1 .13.73 1.81 1.81 0 0 1-.51 1.29 1.86 1.86 0 0 1-.52.36 2.35 2.35 0 0 1-.6.2v.84zm.48 2.1a.66.66 0 0 1-.5-.17.59.59 0 0 1-.16-.43v-.16a.59.59 0 0 1 .16-.43.66.66 0 0 1 .5-.17.7.7 0 0 1 .51.17.63.63 0 0 1 .16.43v.16a.63.63 0 0 1-.16.43.7.7 0 0 1-.51.14z" id="path667"/>
    <path id="line669" style="stroke-dasharray:7.24;stroke:#a87246;stroke-miterlimit:10;fill:none" d="M362.9 260.84h-55.66"/>
    <path class="cls-4" id="polyline671" transform="translate(1.05 4.22)" d="M306.19 256.62v-37.45h55.66v37.45"/>
    <path d="M320.65 238.6h1.32l-.26-2.62v-.87a4.93 4.93 0 0 1 .19-1.48 2.89 2.89 0 0 1 .48-1l.28-.37v-.04h-1.91v-.68h4.08a2.37 2.37 0 0 1 1.78.61 2.48 2.48 0 0 1 .59 1.78v5.34h-.75v-5.33a1.7 1.7 0 0 0-.44-1.32 1.74 1.74 0 0 0-1.22-.4h-1.74l-.11.22a4.17 4.17 0 0 0-.36 1 5.28 5.28 0 0 0-.14 1.35 12.79 12.79 0 0 0 .07 1.3l.31 3.2h-2.17z" id="path673"/>
    <path d="M329.57 231.55h.76v7.73h-.76z" id="path675"/>
    <path d="M332.8 238.6h2.78a2.27 2.27 0 0 0 1.79-.73 2.86 2.86 0 0 0 .65-2v-.89a2.89 2.89 0 0 0-.65-2 2.27 2.27 0 0 0-1.79-.73h-2v3.05h1.92v.68h-1.85a.8.8 0 0 1-.62-.23.84.84 0 0 1-.2-.6v-3.58h2.85a2.94 2.94 0 0 1 2.32 1 5.34 5.34 0 0 1 0 5.78 2.93 2.93 0 0 1-2.32 1h-2.85z" id="path677"/>
    <path d="M340.58 231.55h.76v7.73h-.76z" id="path679"/>
    <path d="M349.16 232.22h-5.36v-.68h6.16v.68l-2.69 7.05h-.79zm-5.36 3.05h.76v6.57h-.76z" id="path681"/>
    <circle class="cls-8" cx="335.66" cy="250.73" r="6.27" id="circle683"/>
    <path d="M333.05 247.65h2.11a1.69 1.69 0 0 1 1.2.44 1.77 1.77 0 0 1 .47 1.36v2.28h-.78v-2.41a1.43 1.43 0 0 0-.07-.5.93.93 0 0 0-.21-.31.85.85 0 0 0-.31-.17 1.36 1.36 0 0 0-.36-.05h-1.38v4.87h-.67zm1.52 1.43h.73v3.43h1.37a1 1 0 0 0 .35 0 .71.71 0 0 0 .31-.16.79.79 0 0 0 .22-.31 1.41 1.41 0 0 0 .08-.5v-3.84h.73v3.71a2.11 2.11 0 0 1-.13.79 1.52 1.52 0 0 1-.35.56 1.31 1.31 0 0 1-.53.34 2.15 2.15 0 0 1-.68.11h-2.1z" id="path685"/>
    <path class="cls-19" id="rect687" d="M683.28 607.53h137.23v100.2H683.28z"/>
    <path class="cls-14" d="M140.89 559.15h4a3.71 3.71 0 0 1 1.4.25 2.73 2.73 0 0 1 1.09.73 3.37 3.37 0 0 1 .71 1.23 5.52 5.52 0 0 1 .24 1.71 5.28 5.28 0 0 1-.25 1.7 3.71 3.71 0 0 1-.72 1.28 3.12 3.12 0 0 1-1.14.81 3.92 3.92 0 0 1-1.54.28 4.07 4.07 0 0 1-1.57-.28 3.36 3.36 0 0 1-1.14-.74 3.14 3.14 0 0 1-.7-1.09 3.68 3.68 0 0 1-.24-1.32 3.41 3.41 0 0 1 .17-1.11 3.14 3.14 0 0 1 .41-.82 2.33 2.33 0 0 1 .53-.55 3.83 3.83 0 0 1 .5-.31v-.06h-1.71zm3.75 6.31a1.57 1.57 0 0 0 1.22-.48 1.9 1.9 0 0 0 .43-1.31v-1.17a1.68 1.68 0 0 0-.41-1.25 1.52 1.52 0 0 0-1.1-.39h-1.36a1.76 1.76 0 0 0-.34.6 3 3 0 0 0-.08.71v1.49a1.87 1.87 0 0 0 .43 1.32 1.53 1.53 0 0 0 1.21.48z" id="path689"/>
    <path class="cls-14" d="M149.69 559.15h1.93v4.61h-1.93z" id="path691"/>
    <path class="cls-14" d="M153.4 565.28h3.4a1.42 1.42 0 0 0 1.1-.44 1.7 1.7 0 0 0 .41-1.21v-1.13a1.69 1.69 0 0 0-.41-1.2 1.42 1.42 0 0 0-1.1-.44h-1.5v1.46h1.25v1.63h-1.26a1.88 1.88 0 0 1-1.43-.47 1.9 1.9 0 0 1-.46-1.38v-3h3.47a3.8 3.8 0 0 1 1.41.25 2.87 2.87 0 0 1 1.09.73 3.51 3.51 0 0 1 .7 1.23 6.21 6.21 0 0 1 0 3.42 3.46 3.46 0 0 1-.7 1.22 2.9 2.9 0 0 1-1.09.74 4 4 0 0 1-1.41.25h-3.47z" id="path693"/>
    <path class="cls-14" d="M168.24 560.86h-4.06v-3.38h1.92v1.67h4.16v1.8l-2.31 6h-2.05z" id="path695"/>
    <path class="cls-14" d="M171.33 559.15h1.93v7.84h-1.93z" id="path697"/>
    <path class="cls-14" d="M174.59 565.28h2.51a1.44 1.44 0 0 0 1.1-.44 1.7 1.7 0 0 0 .4-1.21v-1.13a1.69 1.69 0 0 0-.4-1.2 1.44 1.44 0 0 0-1.1-.44h-2.51v-1.71h2.57a3.76 3.76 0 0 1 1.41.25 2.8 2.8 0 0 1 1.09.73 3.36 3.36 0 0 1 .7 1.23 6.21 6.21 0 0 1 0 3.42 3.31 3.31 0 0 1-.7 1.22 2.82 2.82 0 0 1-1.09.74 4 4 0 0 1-1.41.25h-2.57z" id="path699"/>
    <path class="cls-14" d="M186.31 567.14a6 6 0 0 1-2-.3 3.25 3.25 0 0 1-1.36-.9 3.71 3.71 0 0 1-.79-1.5 8.17 8.17 0 0 1-.25-2.1v-3.19h1.9v3.25h1.56v-3.25h1.9v3a1.9 1.9 0 0 1-.46 1.38 1.88 1.88 0 0 1-1.43.47h-1.39a1.83 1.83 0 0 0 .81 1.12 3.05 3.05 0 0 0 1.52.34 3.62 3.62 0 0 0 1.11-.16 1.86 1.86 0 0 0 .78-.49 2.41 2.41 0 0 0 .46-.89 5.08 5.08 0 0 0 .15-1.33v-3.39h1.9v3.19a7.75 7.75 0 0 1-.25 2.1 3.7 3.7 0 0 1-.78 1.5 3.28 3.28 0 0 1-1.37.9 5.93 5.93 0 0 1-2.01.25z" id="path701"/>
    <path class="cls-14" d="M192.36 564.22a2.7 2.7 0 0 1 .08-.74 1.69 1.69 0 0 1 .26-.54 1.84 1.84 0 0 1 .43-.4 3.37 3.37 0 0 1 .6-.33l.26-.11-1.76-2.92h2.28l2.2 3.71.68-.32v-3.39h1.9v2.8a3.07 3.07 0 0 1-.08.73 1.51 1.51 0 0 1-.26.54 1.69 1.69 0 0 1-.43.41 4.15 4.15 0 0 1-.6.32l-.25.12 1.76 2.92h-2.28l-2.2-3.72-.69.33v3.39h-1.9z" id="path703"/>
    <path class="cls-19" id="polygon705" transform="translate(1.05 4.22)" d="M18.34 288.74h2.63v400.82h82.79v2.87H18.34z"/>
    <path class="cls-16" d="M733.66 657.42a.63.63 0 0 0-.19-.5.73.73 0 0 0-.54-.19h-3.47v-1.42h3.81a2.18 2.18 0 0 1 1.56.52 1.84 1.84 0 0 1 .55 1.4v4.61h-1.72zm-4.2.84h1.72v3.58h-1.72z" id="path707"/>
    <path class="cls-16" d="M736.65 655.31h3.53a3.87 3.87 0 0 1 1.26.2 2.58 2.58 0 0 1 1.6 1.64 4.59 4.59 0 0 1 0 2.84 2.81 2.81 0 0 1-.64 1.07 2.75 2.75 0 0 1-1 .67 3.68 3.68 0 0 1-1.37.24 4 4 0 0 1-1.4-.23 3 3 0 0 1-1-.62 2.57 2.57 0 0 1-.63-.91 2.91 2.91 0 0 1-.21-1.1 2.67 2.67 0 0 1 .15-.93 2.59 2.59 0 0 1 .37-.68 2 2 0 0 1 .47-.46 2.28 2.28 0 0 1 .44-.25v-.06h-1.57zm3.35 5.26a1.43 1.43 0 0 0 1.05-.35 1.48 1.48 0 0 0 .39-1.09v-1a1.35 1.35 0 0 0-.36-1 1.41 1.41 0 0 0-1-.33h-1.21a1.27 1.27 0 0 0-.31.51 2 2 0 0 0-.07.59v1.24a1.53 1.53 0 0 0 .38 1.1 1.47 1.47 0 0 0 1.18.33z" id="path709"/>
    <path class="cls-16" d="M744.51 655.31h1.72v3.84h-1.72z" id="path711"/>
    <path class="cls-16" d="M747.35 660.42h1.7v-3a.6.6 0 0 0-.2-.48.83.83 0 0 0-.54-.17h-.85v-1.42h1.23a2.43 2.43 0 0 1 .82.13 1.8 1.8 0 0 1 1.1 1 2.08 2.08 0 0 1 .16.85v4.56h-3.42z" id="path713"/>
    <path class="cls-16" d="M751.93 660.42h2.23a1.34 1.34 0 0 0 1-.37 1.36 1.36 0 0 0 .36-1v-1a1.36 1.36 0 0 0-.36-1 1.3 1.3 0 0 0-1-.37h-2.23v-1.42h2.29a3.87 3.87 0 0 1 1.26.2 2.64 2.64 0 0 1 1.6 1.64 4.73 4.73 0 0 1 0 2.85 2.59 2.59 0 0 1-.63 1 2.53 2.53 0 0 1-1 .62 3.87 3.87 0 0 1-1.26.2h-2.29z" id="path715"/>
    <path class="cls-16" d="M761.34 655.31h1.71v8.67h-1.72z" id="path717"/>
    <path class="cls-16" d="M764.66 655.31h1.72v3.84h-1.72z" id="path719"/>
    <path class="cls-16" d="M767.94 659.51a2.18 2.18 0 0 1 .07-.61 1.28 1.28 0 0 1 .23-.45 1.83 1.83 0 0 1 .39-.34 2.72 2.72 0 0 1 .54-.27l.23-.1-1.58-2.43h2.05l2 3.09.61-.26v-2.83h1.7v2.33a2.15 2.15 0 0 1-.08.61 1.13 1.13 0 0 1-.23.45 1.57 1.57 0 0 1-.38.34 2.72 2.72 0 0 1-.54.27l-.22.1 1.58 2.43h-2.05l-2-3.09-.62.26v2.83h-1.7z" id="path721"/>
    <path class="cls-9" id="line723" d="M604.47 367.54v-3.75"/>
    <path class="cls-20" id="line725" d="M604.47 356.26v-41.39"/>
    <path class="cls-9" id="line727" d="M604.47 311.1v-3.74"/>
    <path class="cls-6" id="line729" d="M64.41 590.93h3.62"/>
    <path id="line731" style="stroke-dasharray:6.97 6.97;stroke-width:.9px;stroke-miterlimit:10;stroke:#000;fill:none" d="M74.99 590.93h38.32"/>
    <path class="cls-6" id="line733" d="M116.79 590.93h3.62"/>
    <path class="cls-6" id="line735" d="M276.14 590.93h-3.62"/>
    <path id="line737" style="stroke-dasharray:7.38 7.38;stroke-width:.9px;stroke-miterlimit:10;stroke:#000;fill:none" d="M265.14 590.93h-40.61"/>
    <path class="cls-6" id="line739" d="M220.84 590.93h-3.62"/>
    <path class="cls-9" id="line741" d="M667.96 367.54v-3.75"/>
    <path class="cls-20" id="line743" d="M667.96 356.26v-41.39"/>
    <path class="cls-9" id="line745" d="M667.96 311.1v-3.74"/>
    <path class="cls-6" id="line747" d="M120.41 590.93h96.81"/>
    <path class="cls-19" id="polygon749" transform="translate(1.05 4.22)" d="m816.69 228.43-2.28 372.17H818l1.99-372.17L695.38 93.24l-2.83 2.23z"/>
    <path class="cls-19" id="polygon751" transform="translate(1.05 4.22)" d="M296.2 11.78v166.44l-277.86 1.19v77.21h2.94V181.7h278.1v-167h317.77l53.1 56.88 3-2.35-52.96-57.45z"/>
    <path class="cls-19" id="polygon753" transform="translate(1.05 4.22)" d="M182.51 689.56v2.87h495.91v-23.18h-3.96v20.31z"/>
    <path class="cls-19" d="M675.52 600.67v41.13h4v-37.58l30.12.24v-3.81z" id="path755"/>
    <path class="cls-16" d="M781.55 629.77c-16.5-15.27-43.16-15.18-59.54.2-16.38 15.38-16.28 40.24.22 55.52 16.5 15.28 43.16 15.18 59.54-.21 16.38-15.39 16.28-40.24-.22-55.51zm-3.59 46.19-11.57-10.74h-14.92l18.89 17.48c-12.68 8.13-30.15 7-41.47-3.5a28.93 28.93 0 0 1-4.06-38.64l13.68 12.66h14.92l-21.38-19.76c12.77-9.13 31.12-8.3 42.86 2.56a29 29 0 0 1 3.05 39.94z" id="path757"/>
    <path class="cls-6" id="line759" d="M117.49 617v3.87"/>
    <path id="line761" style="stroke-dasharray:7.65 7.65;stroke-width:.9px;stroke-miterlimit:10;stroke:#000;fill:none" d="M117.49 628.52v26.77"/>
    <path class="cls-6" id="line763" d="M117.49 659.12V663"/>
    <path class="cls-6" id="line765" d="M220.49 617v3.87"/>
    <path id="line767" style="stroke-dasharray:7.45 7.45;stroke-width:.9px;stroke-miterlimit:10;stroke:#000;fill:none" d="M220.49 628.32v26.07"/>
    <path class="cls-6" id="line769" d="M220.49 658.12V662"/>
    <path id="line771" style="stroke:#231f20;stroke-miterlimit:10;fill:none" d="M117.99 611.5h-54"/>
    <path class="cls-26" id="line773" d="M220.99 617h55"/>
    <ellipse class="cls-27" cx="506.95" cy="618.37" rx="8.11" ry="7.56" id="ellipse775"/>
    <path class="cls-28" id="line777" d="M506.07 616.63v6.55"/>
    <path class="cls-29" id="polyline779" transform="translate(1.05 4.22)" d="M507.72 616.25v-3.84h-3.64v3.84"/>
    <path class="cls-28" id="line781" d="M507.84 616.63v6.55"/>
    <path class="cls-28" id="line783" d="M506.08 619.65h1.76"/>
    <path d="M506.52 615.38a1.71 1.71 0 0 0 .27.14c-.2-.15-.32-.32-.56-.32.05-.08 0-.25 0-.24l-.09-.09.05.06-.05-.06a.68.68 0 0 1 .06-.8c.09-.16.44-.36.59-.3h.06-.06a.43.43 0 0 1 .25 0 .15.15 0 0 0 0-.06h.19c.05 0 0 0 0 .06a.64.64 0 0 1 .22.28v.09s0 .09 0 0v.22a.54.54 0 0 1-.62.38.36.36 0 0 1-.29-.16c-.09-.06-.13-.21-.17-.27a.66.66 0 0 1 .07-.33s.07-.13 0-.09c-.07.04-.08.08-.15.14a.65.65 0 0 0 0 .66.84.84 0 0 0 .53.43.93.93 0 0 0 .86-.29 1 1 0 0 0 .19-.87 1 1 0 0 1 0-.17 1.06 1.06 0 0 0-.56-.56 1.4 1.4 0 0 0-.36-.13.76.76 0 0 0-.41 0 1.55 1.55 0 0 0-.36.21 1.2 1.2 0 0 0-.52.6.86.86 0 0 0 0 .16v.1c0 .1-.06.2 0 .13a2.83 2.83 0 0 0 0 .3.61.61 0 0 0 .05.12.11.11 0 0 1 0 .08v.15c0 .09.16.2.17.22a1.17 1.17 0 0 0 .15.27 1.83 1.83 0 0 0 .81.43s-.06 0 0 0a1.64 1.64 0 0 0 .49.1h.37a1.8 1.8 0 0 0 .2-.19h.05a.64.64 0 0 1-.2 0h.09a.48.48 0 0 0 .15 0h-.06.08a.32.32 0 0 0 .07-.06h.05c.05 0 0 0 0 0h-.07.06c.01 0 0 0 0 0h.05s-.07.18-.05.15c.02-.03.09-.18.07-.17-.02.01 0 0 0 0h-.05v.12l.06-.06s-.05-.14-.13-.08c-.08.06 0 0 0 .06h-.12c-.05 0 0 0 0 0h-.1v-.06a.11.11 0 0 0-.07 0 .08.08 0 0 1-.08 0l-.14.1h-.05c-.05 0 .2-.11.17-.1-.03.01-.23.15-.25.12-.02-.03 0 0 0 0h-.15.05-.25l-.14-.06s-.07-.06 0-.09h-.1l-.06-.06c-.06-.06-.08 0-.09 0-.01 0-.19-.19-.17-.21z" id="path785"/>
    <ellipse class="cls-27" cx="255.63" cy="521.88" rx="8.11" ry="7.56" id="ellipse787"/>
    <path class="cls-28" id="line789" d="M254.74 522.09v4.59"/>
    <path class="cls-29" id="polyline791" transform="translate(1.05 4.22)" d="m256.4 519.76-1.82-3.85h0l-1.82 3.85"/>
    <path class="cls-28" id="line793" d="M256.52 522.09v4.59"/>
    <path class="cls-28" id="line795" d="M254.76 523.41h1.76"/>
    <path d="M256.41 517.86a1.61 1.61 0 0 0-.09-.29c0 .24 0 .46.16.63-.09 0-.16.18-.14.19v.12a.25.25 0 0 1 0-.08.25.25 0 0 0 0 .08.66.66 0 0 1-.61.52c-.18.06-.57-.05-.63-.2v.06a.53.53 0 0 1-.2-.16v.07l-.11-.15c-.03-.04 0 0 0-.07a.65.65 0 0 1 0-.35.25.25 0 0 1 0-.09s.07-.05 0 0 .1-.11.14-.17a.55.55 0 0 1 .71.17.31.31 0 0 1 .09.31c0 .11-.06.24-.06.31a.7.7 0 0 1-.29.19s-.14 0-.07.06.11 0 .21 0a.67.67 0 0 0 .5-.44.82.82 0 0 0-.07-.67.9.9 0 0 0-.82-.41 1 1 0 0 0-.75.48c0 .06-.06.08-.1.13a1.06 1.06 0 0 0 0 .8 1.14 1.14 0 0 0 .17.35.77.77 0 0 0 .33.25 1.49 1.49 0 0 0 .4.11 1.24 1.24 0 0 0 .79-.06.53.53 0 0 0 .1-.12c.05 0 0 0 .08-.06s.18-.1.11-.08a2 2 0 0 0 .2-.22v-.12a.1.1 0 0 1 .06 0c0-.09 0-.06.08-.15s0-.25 0-.27a1.37 1.37 0 0 0 .07-.29 1.66 1.66 0 0 0-.27-.88v.07a1.65 1.65 0 0 0-.28-.41v-.08c0-.05 0 0-.06 0s-.05-.08-.11-.1c-.06-.02 0 0 0 0s-.06 0 0 0a1.32 1.32 0 0 0-.28 0s-.05 0 0 0h-.14l.16.12h-.09a.32.32 0 0 0-.13-.08h-.1.08-.22c-.05 0 0 0 0 0h.05-.07s.17-.08.13-.07c-.04.01-.18.07-.16.07.02 0 0 0 0 0s.14-.08.1-.07h-.08c-.02 0 0 0 0 0s-.05 0 0 0-.07.14 0 .15c.07.01 0 0 .06 0h.21v.07c0 .07 0 0 0 0h-.06.07a.16.16 0 0 1 .09 0h.17c-.01 0 0 0 0 0l-.19-.05s.26.06.26.1c.05 0 .09.07.14.08h.16s.09.06.11.11l.05.13c-.05 0 0 .09-.05.08v.27c0-.01.21.11.19.11z" id="path797"/>
    <ellipse class="cls-27" cx="84.63" cy="521.88" rx="8.11" ry="7.56" id="ellipse799"/>
    <path class="cls-28" id="line801" d="M83.75 520.13v6.55"/>
    <path class="cls-29" id="polyline803" transform="translate(1.05 4.22)" d="M85.4 519.76v-3.85h-3.64v3.85"/>
    <path class="cls-28" id="line805" d="M85.52 520.13v6.55"/>
    <path class="cls-28" id="line807" d="M83.76 523.16h1.76"/>
    <path d="M84.2 518.89a1.71 1.71 0 0 0 .27.14c-.2-.15-.32-.32-.56-.33a.26.26 0 0 0 0-.24.34.34 0 0 1-.09-.08l.05.06-.05-.06a.66.66 0 0 1 .06-.8c.09-.17.44-.36.59-.3h.06-.07a.6.6 0 0 1 .26 0h.19c.05 0 0 0 0 .06a.59.59 0 0 1 .22.28v.09s0 .08 0 0v.21a.53.53 0 0 1-.62.38.36.36 0 0 1-.28-.16c-.09-.07-.13-.22-.17-.27a.64.64 0 0 1 .07-.33s.07-.13 0-.1-.08.09-.15.15a.67.67 0 0 0 0 .67.8.8 0 0 0 .53.42.93.93 0 0 0 .86-.28 1 1 0 0 0 .19-.87 1 1 0 0 1 0-.17 1.09 1.09 0 0 0-.56-.56 1.2 1.2 0 0 0-.36-.13.76.76 0 0 0-.41 0 1.69 1.69 0 0 0-.36.2 1.23 1.23 0 0 0-.51.6.86.86 0 0 0 0 .16v.09c0 .09-.06.2 0 .14a2.64 2.64 0 0 0 0 .29.43.43 0 0 0 0 .12.11.11 0 0 1 0 .08v.16c0 .09.16.2.17.22.06.09.07.19.15.26a1.61 1.61 0 0 0 .81.43s-.06 0 0 0a1.33 1.33 0 0 0 .49.09h.37a1.12 1.12 0 0 0 .2-.18.07.07 0 0 1 .05 0 1.2 1.2 0 0 1-.2 0h.09a.48.48 0 0 0 .15 0h-.06.08l.07-.06h-.07.06c.06 0 0 0 0 0v-.05s-.07.18-.05.15c.02-.03.08-.18.07-.17-.01.01 0 0 0 0v.12s0-.06.06-.06c0 0-.05-.15-.13-.08-.08.07 0 0 0 .06s0 0-.06 0h-.1v-.06a.09.09 0 0 0-.07 0h-.08c-.08 0 0 0 0 0l-.14.1a.63.63 0 0 0 .17-.1s-.23.14-.25.12c-.02-.02 0 0 0 0h-.15c-.04 0 0 0 0 0h-.24l-.13-.05s-.07-.06 0-.09l-.06-.06c-.06-.06-.08 0-.09 0-.01 0-.29-.2-.27-.21z" id="path809"/>
    <ellipse class="cls-27" cx="572.15" cy="618.37" rx="8.11" ry="7.56" id="ellipse811"/>
    <path class="cls-28" id="line813" d="M571.27 618.58v4.6"/>
    <path class="cls-29" id="polyline815" transform="translate(1.05 4.22)" d="m572.92 616.25-1.82-3.84h0l-1.82 3.84"/>
    <path class="cls-28" id="line817" d="M573.04 618.58v4.6"/>
    <path class="cls-28" id="line819" d="M571.28 619.9h1.76"/>
    <path d="M572.93 614.35a1.52 1.52 0 0 0-.09-.28c0 .24 0 .45.16.62-.08 0-.16.18-.14.19v.13a.28.28 0 0 1 0-.09.28.28 0 0 0 0 .09.66.66 0 0 1-.61.51c-.18.06-.57-.05-.63-.2a.17.17 0 0 0 0 .06.53.53 0 0 1-.2-.16v.07c-.05 0-.08-.11-.11-.15-.03-.04 0 0 0-.06a.67.67 0 0 1 0-.35.36.36 0 0 1 0-.09s.07 0 0 0 .1-.1.14-.16a.53.53 0 0 1 .71.16.32.32 0 0 1 .09.32c0 .1-.06.24-.06.31a.68.68 0 0 1-.29.18s-.14 0-.07.06.11 0 .21 0a.71.71 0 0 0 .5-.45.82.82 0 0 0-.07-.67.92.92 0 0 0-.82-.41 1 1 0 0 0-.74.48.47.47 0 0 1-.11.13 1.06 1.06 0 0 0 0 .8 1.09 1.09 0 0 0 .17.34.77.77 0 0 0 .33.25 2.5 2.5 0 0 0 .4.12 1.24 1.24 0 0 0 .79-.06.38.38 0 0 0 .1-.12l.08-.06c.08-.06.18-.1.11-.07a1.37 1.37 0 0 0 .2-.23.61.61 0 0 0 0-.12.1.1 0 0 1 .06 0c0-.09 0-.05.08-.15.08-.1 0-.24 0-.27a1.63 1.63 0 0 0 .07-.3 1.66 1.66 0 0 0-.27-.88v.08a1.71 1.71 0 0 0-.28-.42v-.08h-.06c-.06 0 0-.08-.11-.1-.11-.02 0 0 0 0s-.06 0 0 0a1.32 1.32 0 0 0-.28 0h-.07a.88.88 0 0 1 .17.12h-.1l-.13-.08a.11.11 0 0 1 .08 0h-.22c-.05 0 0 0 0 0h.05-.13s.18-.08.13-.07c-.05.01-.18.07-.16.07.02 0 0 0 0 0s.14-.09.1-.08h-.06s-.05 0 0 0-.07.13 0 .14c.07.01 0 0 .06 0a.15.15 0 0 0 .06 0h.16v.07c0 .07 0 0 0 0h-.06a.08.08 0 0 0 .07 0h.09c.02 0 0 0 0 0h.17a1.08 1.08 0 0 0-.19-.05s.26.06.26.1c0 .04 0 0 0 0 .05 0 .09.07.14.09h-.11a.09.09 0 0 0 .06 0s.09.06.11.11a.52.52 0 0 0 .06.13c-.05 0 0 .08-.05.07a.09.09 0 0 0 0 .05v.22s.27.14.25.14z" id="path821"/>
    <path class="cls-4" id="rect823" d="M513.6 231.5h42.75v55.95H513.6z"/>
    <path d="M520.86 239.22h.68v3.51h-.68z" id="path825"/>
    <path d="M523.24 245.08h1.18l-.23-2.18v-.73a4 4 0 0 1 .16-1.23 2.74 2.74 0 0 1 .43-.82l.26-.31h-1.67v-.59h3.65a2.2 2.2 0 0 1 1.59.51 2 2 0 0 1 .53 1.48v4.46h-.67v-4.45a1.34 1.34 0 0 0-.4-1.1 1.62 1.62 0 0 0-1.08-.33h-1.59l-.1.18a3.59 3.59 0 0 0-.32.82 4.56 4.56 0 0 0-.13 1.13c0 .31 0 .67.07 1.08l.28 2.67h-1.92z" id="path827"/>
    <path d="M531.22 239.22h.68v6.45h-.68z" id="path829"/>
    <path d="M537.32 241.22a1.38 1.38 0 0 0-.4-1.1 1.65 1.65 0 0 0-1.09-.33h-2.45v-.57h2.49a2.19 2.19 0 0 1 1.58.51 1.94 1.94 0 0 1 .53 1.48v4.46h-.66z" id="path831"/>
    <path d="M539.99 239.22h.68v3.51h-.68z" id="path833"/>
    <path d="M545.87 245.78a4.76 4.76 0 0 1-1.53-.22 2.43 2.43 0 0 1-1-.65 2.68 2.68 0 0 1-.57-1.1 5.87 5.87 0 0 1-.18-1.54v-3.05h.68v3.18h2.29v-3.18h.67v3.07a.66.66 0 0 1-.18.48.75.75 0 0 1-.54.18h-2.22a2.53 2.53 0 0 0 .7 1.72 2.78 2.78 0 0 0 1.91.56 2.55 2.55 0 0 0 2-.69 3.12 3.12 0 0 0 .61-2.12v-3.2h.67v3.07a6.36 6.36 0 0 1-.17 1.54 2.58 2.58 0 0 1-.58 1.1 2.33 2.33 0 0 1-1 .65 4.85 4.85 0 0 1-1.56.2z" id="path835"/>
    <path d="M518.66 252.05h3.16a2.72 2.72 0 0 1 2.08.81 3.4 3.4 0 0 1 .76 2.41 4.46 4.46 0 0 1-.21 1.44 2.69 2.69 0 0 1-.59 1 2.56 2.56 0 0 1-.94.65 3.36 3.36 0 0 1-1.22.21 3.45 3.45 0 0 1-1.23-.21 2.62 2.62 0 0 1-.93-.64 3 3 0 0 1-.6-1.05 4.52 4.52 0 0 1-.2-1.44 3.36 3.36 0 0 1 .12-.92 3.46 3.46 0 0 1 .31-.76 2.87 2.87 0 0 1 .44-.57 2 2 0 0 1 .51-.37h-1.46zm3 6a2.52 2.52 0 0 0 .93-.16 1.9 1.9 0 0 0 .7-.48 2.06 2.06 0 0 0 .46-.74 3 3 0 0 0 .16-1v-.8a2.31 2.31 0 0 0-.59-1.67 2.12 2.12 0 0 0-1.59-.6h-1.24a2.34 2.34 0 0 0-.8 1 3.17 3.17 0 0 0-.28 1.35v.75a2.76 2.76 0 0 0 .16 1 2 2 0 0 0 .45.74 1.94 1.94 0 0 0 .71.48 2.45 2.45 0 0 0 .97.13z" id="path837"/>
    <path d="M531.2 252.62h-4.78v-.57h5.49v.57l-2.39 5.87h-.72zm-4.78 2.53h.63v5.48h-.67z" id="path839"/>
    <path d="M533.16 252.05h3.17a2.72 2.72 0 0 1 2.08.81 3.45 3.45 0 0 1 .76 2.41 4.46 4.46 0 0 1-.21 1.44 2.7 2.7 0 0 1-.6 1 2.45 2.45 0 0 1-.93.65 3.36 3.36 0 0 1-1.22.21 3.45 3.45 0 0 1-1.23-.21 2.62 2.62 0 0 1-.93-.64 3 3 0 0 1-.6-1.05 4.5 4.5 0 0 1-.21-1.44 3.35 3.35 0 0 1 .13-.92 3.46 3.46 0 0 1 .31-.76 2.87 2.87 0 0 1 .44-.57 2 2 0 0 1 .51-.37h-1.47zm3 6a2.52 2.52 0 0 0 .93-.16 1.9 1.9 0 0 0 .7-.48 2.06 2.06 0 0 0 .46-.74 3 3 0 0 0 .16-1v-.8a2.31 2.31 0 0 0-.59-1.67 2.12 2.12 0 0 0-1.59-.6h-1.18a2.34 2.34 0 0 0-.8 1 3.17 3.17 0 0 0-.28 1.35v.75a2.76 2.76 0 0 0 .16 1 2 2 0 0 0 .45.74 1.94 1.94 0 0 0 .71.48 2.45 2.45 0 0 0 .92.13z" id="path841"/>
    <path d="M540.81 252.05h.68v3.51h-.68z" id="path843"/>
    <path d="M542.99 257.92h1.74v-4.46a1.78 1.78 0 0 0 0-.35.52.52 0 0 0-.15-.27.86.86 0 0 0-.36-.17 3.48 3.48 0 0 0-.63 0h-.54v-.57h.54a3.52 3.52 0 0 1 .87.09 1.29 1.29 0 0 1 .55.27.85.85 0 0 1 .29.43 1.79 1.79 0 0 1 .08.59v5.06h-2.41z" id="path845"/>
    <path d="M547.53 252.05h.67v6.44h-.67z" id="path847"/>
    <path d="M550.29 252.05h.68v3.51h-.68z" id="path849"/>
    <ellipse class="cls-27" cx="534.98" cy="276.37" rx="8.11" ry="7.56" id="ellipse851"/>
    <path class="cls-28" id="line853" d="M531.21 274.63v6.55"/>
    <path class="cls-29" id="polyline855" transform="translate(1.05 4.22)" d="M532.87 274.25v-3.84h-3.64v3.84"/>
    <path class="cls-28" id="line857" d="M532.98 274.63v6.55"/>
    <path class="cls-28" id="line859" d="M536.82 276.58v4.6"/>
    <path class="cls-29" id="polyline861" transform="translate(1.05 4.22)" d="m538.48 274.25-1.82-3.84h0l-1.82 3.84"/>
    <path class="cls-28" id="line863" d="M538.59 276.58v4.6"/>
    <path class="cls-28" id="line865" d="M531.22 277.65h1.77"/>
    <path class="cls-28" id="line867" d="M536.83 277.9h1.77"/>
    <path d="m531.66 273.38.26.14c-.19-.15-.32-.32-.55-.32v-.24l-.09-.09.06.06-.06-.06a.68.68 0 0 1 .07-.8c.08-.16.44-.36.59-.3h.06-.07a.43.43 0 0 1 .25 0v-.06h.19c.05 0 0 0 0 .06a.64.64 0 0 1 .22.28.32.32 0 0 1 0 .09s0 .09 0 0v.22a.53.53 0 0 1-.61.38.34.34 0 0 1-.28-.16c-.09-.06-.13-.21-.18-.27a.58.58 0 0 1 .08-.33s.07-.13 0-.09c-.07.04-.07.08-.15.14a.7.7 0 0 0 0 .66.84.84 0 0 0 .53.43.92.92 0 0 0 .86-.29 1 1 0 0 0 .19-.87 1 1 0 0 1 0-.17 1 1 0 0 0-.56-.56 1.48 1.48 0 0 0-.42-.01.73.73 0 0 0-.4.05 1.48 1.48 0 0 0-.37.21 1.25 1.25 0 0 0-.52.6.86.86 0 0 0 0 .16v.1c0 .05-.06.2 0 .13a1.46 1.46 0 0 0 0 .3v.35c0 .09.15.2.16.22a1.2 1.2 0 0 0 .16.27 1.73 1.73 0 0 0 .81.43s-.06 0-.06-.05a1.71 1.71 0 0 0 .5.1h.31c.05 0 0 0 0 0h.06a1.9 1.9 0 0 0 .21-.19h.06a.69.69 0 0 1-.2 0h.24a.13.13 0 0 1-.06.05h.08c.02 0 0 0 .07-.06 0 0-.08.05-.07 0 0 0-.07.18 0 .15s.08-.18.06-.17c-.02.01 0 0 0 0v.12a.17.17 0 0 1 .06-.06s0-.14-.12-.08c-.12.06 0 0 0 .06h-.06l-.09.05s-.06 0 0 0v-.06a.11.11 0 0 0-.07 0s-.06.05-.09 0h-.06l-.14.1s.19-.11.16-.1c-.03.01-.22.15-.25.12h-.16a.16.16 0 0 1 .06 0h-.26c-.05 0 0 0 0 0l-.14-.06s-.06-.06 0-.09a.08.08 0 0 0-.06 0l-.07-.06c-.07-.06-.08 0-.09 0-.01 0-.06-.41-.05-.43z" id="path869"/>
    <path d="M538.48 272.35c0-.09-.06-.19-.09-.28 0 .24 0 .45.16.62-.09 0-.16.18-.15.19a.28.28 0 0 1 0 .13.28.28 0 0 0 0-.09.28.28 0 0 1 0 .09.64.64 0 0 1-.6.51c-.18.06-.57-.05-.63-.2v-.05.06a.53.53 0 0 1-.2-.16.12.12 0 0 0 0 .07v-.02c-.06 0-.08-.11-.11-.15-.03-.04 0 0 0-.06a.58.58 0 0 1 0-.35v-.09h.05c-.02 0 .09-.1.14-.16a.52.52 0 0 1 .7.16.38.38 0 0 1 .09.32c0 .1-.06.24-.07.31a.58.58 0 0 1-.29.18s-.14 0-.07.06.12 0 .21 0a.71.71 0 0 0 .5-.45.79.79 0 0 0-.08-.67.91.91 0 0 0-.81-.41 1 1 0 0 0-.75.48.73.73 0 0 1-.1.13 1.1 1.1 0 0 0 0 .8 1.33 1.33 0 0 0 .16.34.71.71 0 0 0 .32.25 2.81 2.81 0 0 0 .41.12 1.21 1.21 0 0 0 .78-.06.41.41 0 0 0 .11-.12c.05 0 0 0 .08-.06s.18-.1.11-.07a1.92 1.92 0 0 0 .19-.23.67.67 0 0 0 .06-.12.08.08 0 0 1 0-.05c0-.09 0 0 .08-.15s0-.24 0-.27a1.11 1.11 0 0 0 .08-.3 1.66 1.66 0 0 0-.27-.88v.08a1.5 1.5 0 0 0-.29-.42v-.08h-.06c-.06 0-.06-.08-.11-.1-.05-.02 0 0-.05 0s0 0 0-.05a1.23 1.23 0 0 0-.27 0s-.05 0 0 0a.09.09 0 0 1-.07 0 .66.66 0 0 1 .17.12h-.09l-.14-.08a.09.09 0 0 1 .07 0h-.17.06-.14s.18-.08.14-.07c-.04.01-.19.07-.17.07.02 0 0 0 0 0s.13-.09.09-.08h-.06s-.07.13 0 .14c.07.01 0 0 .06 0 0 0 .05 0 0 0h.06c.06 0 0 0 0 0h.1v.07c0 .02 0 0 0 0h-.06a.08.08 0 0 0 .07 0h.09c.02 0 0 0 0 0h.17a.9.9 0 0 0-.19-.05s.27.06.27.1c0 .04 0 0 0 0s.08.07.13.09h-.11.07s.09.06.11.11a1.39 1.39 0 0 1 .06.13c-.06 0 0 .08 0 .07 0-.01 0 0 0 0v.15c0 .04 0 .07.06.07s.21.36.19.36z" id="path871"/>
    <path class="cls-26" id="line873" d="M559.99 307h-82"/>
    <path class="cls-26" id="line875" d="M559.49 302.16h-82"/>
    <path class="cls-26" id="line877" d="M559.99 297.33h-82"/>
    <path class="cls-26" id="line879" d="M559.99 292.5h-82"/>
    <g clip-path="url(#clip-path)" id="g897" transform="translate(1.05 4.22)" style="clip-path:url(#clip-path)">
        <path class="cls-31" id="polygon881" d="m718.41 556.69 97.22 90.22-1.15 8.95-97.22-90.22z"/>
        <path class="cls-31" id="polygon883" d="m718.41 508.84 97.22 90.21-1.15 8.95-97.22-90.22z"/>
        <path class="cls-31" id="polygon885" d="m718.41 460.98 97.22 90.22-1.15 8.94-97.22-90.21z"/>
        <path class="cls-31" id="polygon887" d="m718.41 413.12 97.22 90.22-1.15 8.95-97.22-90.22z"/>
        <path class="cls-31" id="polygon889" d="m718.41 365.26 97.22 90.22-1.15 8.95-97.22-90.22z"/>
        <path class="cls-31" id="polygon891" d="m718.41 317.41 97.22 90.22-1.15 8.94-97.22-90.21z"/>
        <path class="cls-31" id="polygon893" d="m718.41 269.55 97.22 90.22-1.15 8.94-97.22-90.21z"/>
        <path class="cls-31" id="polygon895" d="m718.41 221.69 97.22 90.22-1.15 8.95-97.22-90.22z"/>
    </g>
    <path id="polygon899" transform="translate(1.05 4.22)" style="stroke-width:2px;stroke-dasharray:7.5;stroke:#a87246;stroke-miterlimit:10;fill:none" d="M728.41 593.11v-62.43h8.12V357.62h-8.12v-74.39h76.51v309.88z"/>
    <path class="cls-2" id="rect901" d="M753.99 427h45v30h-45z"/>
    <path d="M768.93 433.01a.93.93 0 0 0-1.08-1h-2.52v-1.6h2.63a3.13 3.13 0 0 1 2.08.6 2.25 2.25 0 0 1 .69 1.77v5h-1.8z" id="path903"/>
    <path d="M772.41 430.38h1.8v7.32h-1.8z" id="path905"/>
    <path d="M775.45 430.38h4.22v1.6h-1.45a2.48 2.48 0 0 0-.3.58 1.88 1.88 0 0 0-.07.55 5.86 5.86 0 0 0 .06.75c0 .29.1.66.18 1.09l.49 2.75h-1.8l-.36-2a4 4 0 0 1-.08-.59 5.55 5.55 0 0 1 0-.56 3.34 3.34 0 0 1 .3-1.5 2.43 2.43 0 0 1 .89-1v-.07h-2.08z" id="path907"/>
    <path d="M780.55 435.08a2.7 2.7 0 0 1 .08-.68 1.37 1.37 0 0 1 .24-.5 1.45 1.45 0 0 1 .4-.38 4.14 4.14 0 0 1 .56-.31l.24-.11-1.64-2.72h2.14l2.05 3.47.63-.3v-3.17h1.8v2.61a2.73 2.73 0 0 1-.08.69 1.37 1.37 0 0 1-.24.5 1.61 1.61 0 0 1-.4.38 4.14 4.14 0 0 1-.56.31l-.23.11 1.64 2.72h-2.13l-2.08-3.48-.64.3v3.17h-1.78z" id="path909"/>
    <path d="M759.23 444.78h1.82v4.31h-1.8z" id="path911"/>
    <path d="M765.87 446.38h-3.82v-3.16h1.8v1.56h3.89v1.68l-2.16 5.64h-1.92z" id="path913"/>
    <path d="M768.77 444.78h1.8v7.32h-1.8z" id="path915"/>
    <path d="m771.79 450.77 1.92-.21-1.93-5.78h1.8l1 2.93.76 2.52a1.9 1.9 0 0 0 .82-.94 4.45 4.45 0 0 0 .27-1.7v-2.81h1.8v2.68a5.88 5.88 0 0 1-.33 2.11 3.8 3.8 0 0 1-.87 1.38 3.39 3.39 0 0 1-1.25.8 6.1 6.1 0 0 1-1.46.35l-2.5.29z" id="path917"/>
    <path d="M779.71 450.5h3.18a1.36 1.36 0 0 0 1-.4 1.62 1.62 0 0 0 .37-1.13v-1.06a1.62 1.62 0 0 0-.37-1.13 1.36 1.36 0 0 0-1-.4h-1.4v1.36h1.16v1.53h-1.18a1.55 1.55 0 0 1-1.76-1.73v-2.76h3.24a3.43 3.43 0 0 1 1.31.23 2.57 2.57 0 0 1 1 .69 3.06 3.06 0 0 1 .66 1.14 5.14 5.14 0 0 1 .23 1.6 5 5 0 0 1-.23 1.59 3 3 0 0 1-.66 1.15 2.57 2.57 0 0 1-1 .69 3.64 3.64 0 0 1-1.31.23h-3.24z" id="path919"/>
    <path d="M787.16 450.5h.89l-.13-1.23v-.57a2.64 2.64 0 0 1 .29-1.34 2 2 0 0 1 .87-.8l.22-.11v-.07h-2.13v-1.6h3.82a3 3 0 0 1 2.07.61 2.18 2.18 0 0 1 .7 1.76v4.95h-1.8v-4.69a1.09 1.09 0 0 0-.25-.76 1.1 1.1 0 0 0-.83-.27h-.83l-.05.08a2.77 2.77 0 0 0-.26.64 3.23 3.23 0 0 0-.09.81v.66c0 .24 0 .49.07.73l.27 2.8h-2.82z" id="path921"/>
</svg>
