<?xml version="1.0" encoding="UTF-8" standalone="no"?>
<svg
   xmlns:dc="http://purl.org/dc/elements/1.1/"
   xmlns:cc="http://creativecommons.org/ns#"
   xmlns:rdf="http://www.w3.org/1999/02/22-rdf-syntax-ns#"
   xmlns:svg="http://www.w3.org/2000/svg"
   xmlns="http://www.w3.org/2000/svg"
   width="15.539156mm"
   height="26.745834mm"
   viewBox="0 0 55.060003 94.768699"
   id="svg3680"
   version="1.1">
  <defs
     id="defs3682" />
  <metadata
     id="metadata3685">
    <rdf:RDF>
      <cc:Work
         rdf:about="">
        <dc:format>image/svg+xml</dc:format>
        <dc:type
           rdf:resource="http://purl.org/dc/dcmitype/StillImage" />
        <dc:title></dc:title>
      </cc:Work>
    </rdf:RDF>
  </metadata>
  <g
     id="layer1"
     transform="translate(537.88715,-22.834995)">
    <path
       id="path3736-9"
       style="fill:#db972e;fill-opacity:1;fill-rule:nonzero;stroke:none"
       d="m -483.40276,54.96812 c 0,21.54251 -26.955,62.06 -26.955,62.06 0,0 -26.95375,-38.47124 -26.95375,-62.06 0,-17.4275 12.06875,-31.5575 26.95375,-31.5575 14.8875,0 26.955,14.13 26.955,31.5575" />
    <path
       d="m -483.40277,54.96812 c 0,21.54251 -26.955,62.06 -26.955,62.06 0,0 -26.95375,-38.47124 -26.95375,-62.06 0,-17.4275 12.06875,-31.5575 26.95375,-31.5575 14.8875,0 26.955,14.13 26.955,31.5575 z"
       style="fill:none;stroke:#937132;stroke-width:1.15125;stroke-linecap:butt;stroke-linejoin:round;stroke-miterlimit:10;stroke-dasharray:none;stroke-opacity:1"
       id="path3740" />
    <text
       y="57.383255"
       x="-531.18591"
       style="font-variant:normal;font-weight:normal;font-stretch:normal;font-size:18.41150093px;font-family:'Abigail';-inkscape-font-specification:Abigail;writing-mode:lr-tb;fill:#ffffff;fill-opacity:1;fill-rule:nonzero;stroke:none"
       id="text3742-9">
      <tspan
         x="-531.18591 -520.78333 -516.88013 -511.19095 -503.40298 -499.35245"
         y="57.383255"
         id="tspan3744-2">אורנים</tspan>
      <tspan
         x="-515.25989 -509.40506"
         y="72.720047"
         id="tspan3746-3">1</tspan>
    </text>
  </g>
</svg>
