<?xml version="1.0" encoding="UTF-8" standalone="no"?>
<svg
   xmlns:dc="http://purl.org/dc/elements/1.1/"
   xmlns:cc="http://creativecommons.org/ns#"
   xmlns:rdf="http://www.w3.org/1999/02/22-rdf-syntax-ns#"
   xmlns:svg="http://www.w3.org/2000/svg"
   xmlns="http://www.w3.org/2000/svg"
   version="1.1"
   id="svg3755"
   viewBox="0 0 55.060001 94.768704"
   height="26.745834mm"
   width="15.539156mm">
  <defs
     id="defs3757">
    <clipPath
       id="clipPath3752"
       clipPathUnits="userSpaceOnUse">
      <path
         id="path3754"
         d="m 719.174,381.388 413.074,0 0,395.894 -413.074,0 0,-395.894 z" />
    </clipPath>
  </defs>
  <metadata
     id="metadata3760">
    <rdf:RDF>
      <cc:Work
         rdf:about="">
        <dc:format>image/svg+xml</dc:format>
        <dc:type
           rdf:resource="http://purl.org/dc/dcmitype/StillImage" />
        <dc:title></dc:title>
      </cc:Work>
    </rdf:RDF>
  </metadata>
  <g
     transform="translate(-161.04137,-230.69215)"
     id="layer1">
    <g
       id="g3748"
       transform="matrix(1.25,0,0,-1.25,-1016.339,1176.2689)">
      <g
         clip-path="url(#clipPath3752)"
         id="g3750">
        <g
           transform="translate(985.4918,730.7549)"
           id="g3756">
          <path
             id="path3758"
             style="fill:#db982e;fill-opacity:1;fill-rule:nonzero;stroke:none"
             d="m 0,0 c 0,-17.234 -21.564,-49.648 -21.564,-49.648 0,0 -21.563,30.777 -21.563,49.648 0,13.942 9.655,25.246 21.563,25.246 C -9.654,25.246 0,13.942 0,0" />
        </g>
        <g
           transform="translate(985.4918,730.7549)"
           id="g3760">
          <path
             id="path3762"
             style="fill:none;stroke:#937b33;stroke-width:0.921;stroke-linecap:butt;stroke-linejoin:round;stroke-miterlimit:10;stroke-dasharray:none;stroke-opacity:1"
             d="m 0,0 c 0,-17.234 -21.564,-49.648 -21.564,-49.648 0,0 -21.563,30.777 -21.563,49.648 0,13.942 9.655,25.246 21.563,25.246 C -9.654,25.246 0,13.942 0,0 Z" />
        </g>
      </g>
    </g>
    <text
       id="text3764"
       style="font-variant:normal;font-weight:normal;font-stretch:normal;font-size:18.41150093px;font-family:'Abigail';-inkscape-font-specification:Abigail;writing-mode:lr-tb;fill:#ffffff;fill-opacity:1;fill-rule:nonzero;stroke:none"
       x="167.74287"
       y="265.24078">
      <tspan
         id="tspan3766"
         y="265.24078"
         x="167.74287 178.14534 182.04866 187.73775 195.52583 199.57637">אורנים</tspan>
      <tspan
         id="tspan3768"
         y="280.57758"
         x="184.66304">2</tspan>
    </text>
  </g>
</svg>
