<?xml version="1.0" encoding="UTF-8" standalone="no"?>
<svg
   xmlns:dc="http://purl.org/dc/elements/1.1/"
   xmlns:cc="http://creativecommons.org/ns#"
   xmlns:rdf="http://www.w3.org/1999/02/22-rdf-syntax-ns#"
   xmlns:svg="http://www.w3.org/2000/svg"
   xmlns="http://www.w3.org/2000/svg"
   version="1.1"
   id="svg3680"
   viewBox="0 0 55.060003 94.768699"
   height="26.745834mm"
   width="15.539156mm">
  <defs
     id="defs3682" />
  <metadata
     id="metadata3685">
    <rdf:RDF>
      <cc:Work
         rdf:about="">
        <dc:format>image/svg+xml</dc:format>
        <dc:type
           rdf:resource="http://purl.org/dc/dcmitype/StillImage" />
        <dc:title></dc:title>
      </cc:Work>
    </rdf:RDF>
  </metadata>
  <g
     transform="translate(537.88715,-22.834995)"
     id="layer1">
    <path
       d="m -483.40276,54.96812 c 0,21.54251 -26.955,62.06 -26.955,62.06 0,0 -26.95375,-38.47124 -26.95375,-62.06 0,-17.4275 12.06875,-31.5575 26.95375,-31.5575 14.8875,0 26.955,14.13 26.955,31.5575"
       style="fill:#db2e38;fill-opacity:1;fill-rule:nonzero;stroke:none"
       id="path3736-9" />
    <path
       id="path3740"
       style="fill:none;stroke:#231f20;stroke-width:1.15125;stroke-linecap:butt;stroke-linejoin:round;stroke-miterlimit:10;stroke-dasharray:none;stroke-opacity:1"
       d="m -483.40277,54.96812 c 0,21.54251 -26.955,62.06 -26.955,62.06 0,0 -26.95375,-38.47124 -26.95375,-62.06 0,-17.4275 12.06875,-31.5575 26.95375,-31.5575 14.8875,0 26.955,14.13 26.955,31.5575 z" />
    <text
       id="text3742-9"
       style="font-variant:normal;font-weight:normal;font-stretch:normal;font-size:18.41150093px;font-family:'Abigail';-inkscape-font-specification:Abigail;writing-mode:lr-tb;fill:#ffffff;fill-opacity:1;fill-rule:nonzero;stroke:none"
       x="-531.18591"
       y="57.383255">
      <tspan
         id="tspan3744-2"
         y="57.383255"
         x="-531.18591 -520.78333 -516.88013 -511.19095 -503.40298 -499.35245">אורנים</tspan>
      <tspan
         id="tspan3746-3"
         y="72.720047"
         x="-515.25989 -509.40506">1</tspan>
    </text>
  </g>
</svg>
